<svg xmlns="http://www.w3.org/2000/svg" xmlns:xlink="http://www.w3.org/1999/xlink" width="720" height="202" viewBox="0 0 720 202">
  <defs>
    <rect id="5-a" width="87" height="24"/>
    <mask id="5-d" width="87" height="24" x="0" y="0" fill="#fff">
      <use xlink:href="#5-a"/>
    </mask>
    <rect id="5-b" width="85" height="48"/>
    <mask id="5-e" width="85" height="48" x="0" y="0" fill="#fff">
      <use xlink:href="#5-b"/>
    </mask>
    <rect id="5-c" width="82" height="36"/>
    <mask id="5-f" width="82" height="36" x="0" y="0" fill="#fff">
      <use xlink:href="#5-c"/>
    </mask>
  </defs>
  <g fill="none" fill-rule="evenodd">
    <rect width="720" height="202" fill="#FFF" fill-opacity=".01" fill-rule="nonzero"/>
    <g transform="translate(25 23)">
      <g transform="translate(499 99)">
        <g transform="translate(55)">
          <g fill="#00AB9A">
            <rect width="1" height="22" x="4" y="1"/>
            <rect width="9" height="1"/>
            <rect width="9" height="1" y="23"/>
          </g>
          <g fill-rule="nonzero" transform="translate(9)">
            <path fill="#314351" d="M20.9165039,16.3881836 L17,16.3881836 L17,7.22851562 L20.8276367,7.22851562 C22.5668945,7.22851562 23.6142578,8.10449219 23.6142578,9.51367188 C23.6142578,10.4785156 22.9033203,11.3291016 21.9829102,11.4750977 L21.9829102,11.5893555 C23.2143555,11.7036133 24.0649414,12.5922852 24.0649414,13.7856445 C24.0649414,15.3916016 22.871582,16.3881836 20.9165039,16.3881836 Z M18.6376953,8.52978516 L18.6376953,11.081543 L20.2182617,11.081543 C21.3798828,11.081543 21.9956055,10.6308594 21.9956055,9.80566406 C21.9956055,8.99951172 21.4179688,8.52978516 20.4277344,8.52978516 L18.6376953,8.52978516 Z M18.6376953,15.0869141 L20.5419922,15.0869141 C21.7480469,15.0869141 22.3891602,14.5917969 22.3891602,13.6586914 C22.3891602,12.7446289 21.7290039,12.262207 20.4785156,12.262207 L18.6376953,12.262207 L18.6376953,15.0869141 Z M27.4190234,7.22851562 L27.4190234,13.0810547 C27.4190234,14.3188477 28.1934375,15.1503906 29.5518359,15.1503906 C30.9102344,15.1503906 31.6783008,14.3188477 31.6783008,13.0810547 L31.6783008,7.22851562 L33.3159961,7.22851562 L33.3159961,13.2333984 C33.3159961,15.2329102 31.8687305,16.6166992 29.5518359,16.6166992 C27.2349414,16.6166992 25.7876758,15.2329102 25.7876758,13.2333984 L25.7876758,7.22851562 L27.4190234,7.22851562 Z M39.4313086,16.3881836 L37.7936133,16.3881836 L37.7936133,8.64404297 L34.9752539,8.64404297 L34.9752539,7.22851562 L42.2560156,7.22851562 L42.2560156,8.64404297 L39.4313086,8.64404297 L39.4313086,16.3881836 Z M47.8063867,16.3881836 L46.1686914,16.3881836 L46.1686914,8.64404297 L43.350332,8.64404297 L43.350332,7.22851562 L50.6310938,7.22851562 L50.6310938,8.64404297 L47.8063867,8.64404297 L47.8063867,16.3881836 Z M55.8767774,7 C58.5364453,7 60.1995313,8.84716797 60.1995313,11.8051758 C60.1995313,14.7568359 58.5491406,16.6166992 55.8767774,16.6166992 C53.1853711,16.6166992 51.5349805,14.7631836 51.5349805,11.8051758 C51.5349805,8.84716797 53.2171094,7 55.8767774,7 Z M55.8767774,8.45361328 C54.2454297,8.45361328 53.2107617,9.75488281 53.2107617,11.8051758 C53.2107617,13.8491211 54.2200391,15.1630859 55.8767774,15.1630859 C57.508125,15.1630859 58.52375,13.8491211 58.52375,11.8051758 C58.52375,9.75488281 57.5017774,8.45361328 55.8767774,8.45361328 Z M63.5726563,16.3881836 L61.9920899,16.3881836 L61.9920899,7.22851562 L63.4139649,7.22851562 L67.9081055,13.4555664 L68.0160156,13.4555664 L68.0160156,7.22851562 L69.5902344,7.22851562 L69.5902344,16.3881836 L68.174707,16.3881836 L63.6805664,10.1547852 L63.5726563,10.1547852 L63.5726563,16.3881836 Z"/>
            <use stroke="#6FEAD9" stroke-dasharray="1" stroke-width="2" mask="url(#5-d)" xlink:href="#5-a"/>
          </g>
        </g>
        <path fill="#00AB9A" fill-rule="nonzero" d="M2.794,1.453 L2.794,7.998 L1.87,7.998 L1.87,1.453 L2.84217094e-13,1.453 L2.84217094e-13,0.661 L4.653,0.661 L4.653,1.453 L2.794,1.453 Z M9.427,3.763 L9.427,2.927 L10.263,2.927 L10.263,7.998 L9.427,7.998 L9.427,7.019 C8.921,7.778 8.349,8.119 7.579,8.119 C6.182,8.119 5.192,7.019 5.192,5.479 C5.192,3.928 6.204,2.806 7.601,2.806 C8.371,2.806 8.932,3.103 9.427,3.763 Z M7.722,3.554 C7.172,3.554 6.787,3.741 6.49,4.159 C6.226,4.522 6.072,5.006 6.072,5.501 C6.072,6.579 6.776,7.393 7.7,7.393 C8.657,7.393 9.438,6.502 9.438,5.413 C9.438,4.313 8.734,3.554 7.722,3.554 Z M11.946,2.927 L12.782,2.927 L12.782,3.851 C13.266,3.103 13.783,2.806 14.63,2.806 C16.038,2.806 17.017,3.884 17.017,5.424 C17.017,7.019 16.038,8.119 14.63,8.119 C14.234,8.119 13.871,8.031 13.519,7.855 C13.211,7.701 13.057,7.569 12.782,7.206 L12.782,10.374 L11.946,10.374 L11.946,2.927 Z M14.487,3.554 C13.475,3.554 12.782,4.357 12.782,5.545 C12.782,6.656 13.453,7.393 14.454,7.393 C15.455,7.393 16.126,6.612 16.126,5.457 C16.126,4.863 15.983,4.412 15.686,4.082 C15.389,3.752 14.938,3.554 14.487,3.554 Z M22.473,3.664 L22.473,6.964 C22.484,7.217 22.55,7.272 22.858,7.272 L23.243,7.272 L23.243,7.998 L22.462,7.998 C21.868,7.987 21.637,7.767 21.637,7.206 L21.637,3.664 L20.933,3.664 L20.933,2.927 L21.637,2.927 L21.637,1.332 L22.473,1.332 L22.473,2.927 L23.243,2.927 L23.243,3.664 L22.473,3.664 Z M28.259,3.763 L28.259,2.927 L29.095,2.927 L29.095,7.998 L28.259,7.998 L28.259,7.019 C27.753,7.778 27.181,8.119 26.411,8.119 C25.014,8.119 24.024,7.019 24.024,5.479 C24.024,3.928 25.036,2.806 26.433,2.806 C27.203,2.806 27.764,3.103 28.259,3.763 Z M26.554,3.554 C26.004,3.554 25.619,3.741 25.322,4.159 C25.058,4.522 24.904,5.006 24.904,5.501 C24.904,6.579 25.608,7.393 26.532,7.393 C27.489,7.393 28.27,6.502 28.27,5.413 C28.27,4.313 27.566,3.554 26.554,3.554 Z M30.778,2.927 L31.614,2.927 L31.614,3.785 C31.768,3.422 31.878,3.268 32.076,3.114 C32.329,2.916 32.681,2.806 33.044,2.806 L33.242,2.806 L33.242,3.653 C33.154,3.642 33.066,3.642 33.011,3.642 C32.56,3.642 32.164,3.851 31.911,4.225 C31.691,4.544 31.614,4.841 31.614,5.424 L31.614,7.998 L30.778,7.998 L30.778,2.927 Z M38.027,3.796 L38.027,2.927 L38.863,2.927 L38.863,8.031 C38.863,8.878 38.654,9.45 38.192,9.89 C37.741,10.33 37.092,10.561 36.322,10.561 C35.376,10.561 34.628,10.253 34.078,9.637 L34.65,9.065 C34.881,9.307 34.991,9.406 35.134,9.505 C35.42,9.681 35.893,9.802 36.322,9.802 C36.85,9.802 37.356,9.615 37.642,9.307 C37.895,9.032 38.027,8.625 38.027,8.097 L38.027,7.03 C37.532,7.778 36.949,8.119 36.157,8.119 C34.815,8.119 33.814,6.986 33.814,5.479 C33.814,4.665 34.111,3.884 34.617,3.4 C35.024,3.004 35.574,2.806 36.223,2.806 C36.993,2.806 37.51,3.092 38.027,3.796 Z M36.377,3.576 C35.387,3.576 34.694,4.346 34.694,5.446 C34.694,6.535 35.398,7.349 36.355,7.349 C36.839,7.349 37.312,7.118 37.642,6.733 C37.862,6.48 38.005,5.985 38.005,5.479 C38.005,4.819 37.906,4.467 37.609,4.137 C37.301,3.796 36.828,3.576 36.377,3.576 Z M45.254,5.732 L41.03,5.732 C41.074,6.161 41.151,6.381 41.36,6.656 C41.69,7.107 42.174,7.349 42.724,7.349 C43.351,7.349 43.945,7.008 44.242,6.48 L44.979,6.755 C44.561,7.602 43.692,8.119 42.724,8.119 C41.217,8.119 40.139,7.019 40.139,5.479 C40.139,3.917 41.206,2.806 42.691,2.806 C44.165,2.806 45.265,3.917 45.265,5.402 C45.265,5.468 45.265,5.611 45.254,5.732 Z M41.041,5.116 L44.374,5.116 C44.341,4.72 44.264,4.5 44.088,4.247 C43.769,3.818 43.252,3.554 42.691,3.554 C42.13,3.554 41.624,3.818 41.327,4.258 C41.173,4.5 41.107,4.709 41.041,5.116 Z M47.366,3.664 L47.366,6.964 C47.377,7.217 47.443,7.272 47.751,7.272 L48.136,7.272 L48.136,7.998 L47.355,7.998 C46.761,7.987 46.53,7.767 46.53,7.206 L46.53,3.664 L45.826,3.664 L45.826,2.927 L46.53,2.927 L46.53,1.332 L47.366,1.332 L47.366,2.927 L48.136,2.927 L48.136,3.664 L47.366,3.664 Z M49.753,6.942 C50.083,6.942 50.325,7.184 50.325,7.525 C50.325,7.844 50.072,8.086 49.753,8.086 C49.423,8.086 49.181,7.844 49.181,7.514 C49.181,7.184 49.423,6.942 49.753,6.942 Z M49.753,3.774 C50.083,3.774 50.325,4.016 50.325,4.357 C50.325,4.676 50.072,4.918 49.753,4.918 C49.423,4.918 49.181,4.676 49.181,4.346 C49.181,4.016 49.423,3.774 49.753,3.774 Z M30.789,21.195 L33.374,21.195 L33.374,21.998 L29.26,21.998 L31.812,18.346 C32.549,17.279 32.714,16.949 32.714,16.509 C32.714,15.871 32.208,15.42 31.493,15.42 C30.998,15.42 30.591,15.651 30.426,16.036 C30.338,16.245 30.305,16.41 30.294,16.795 L29.469,16.795 C29.513,15.398 30.25,14.628 31.559,14.628 C32.758,14.628 33.594,15.376 33.594,16.443 C33.594,17.059 33.374,17.598 32.758,18.456 L30.789,21.195 Z M37.653,20.348 L34.716,20.348 L34.716,19.666 L38.5,14.562 L38.5,19.556 L39.358,19.556 L39.358,20.348 L38.5,20.348 L38.5,21.998 L37.653,21.998 L37.653,20.348 Z M37.653,19.556 L37.653,16.751 L35.596,19.556 L37.653,19.556 Z M40.623,16.927 L41.459,16.927 L41.459,17.851 C41.943,17.103 42.46,16.806 43.307,16.806 C44.715,16.806 45.694,17.884 45.694,19.424 C45.694,21.019 44.715,22.119 43.307,22.119 C42.911,22.119 42.548,22.031 42.196,21.855 C41.888,21.701 41.734,21.569 41.459,21.206 L41.459,24.374 L40.623,24.374 L40.623,16.927 Z M43.164,17.554 C42.152,17.554 41.459,18.357 41.459,19.545 C41.459,20.656 42.13,21.393 43.131,21.393 C44.132,21.393 44.803,20.612 44.803,19.457 C44.803,18.863 44.66,18.412 44.363,18.082 C44.066,17.752 43.615,17.554 43.164,17.554 Z M48.576,20.161 L47.223,21.998 L46.2,21.998 L48.07,19.479 L46.167,16.927 L47.223,16.927 L48.576,18.786 L49.962,16.927 L50.985,16.927 L49.071,19.479 L50.897,21.998 L49.874,21.998 L48.576,20.161 Z"/>
      </g>
      <path fill="#00AB9A" fill-rule="nonzero" d="M295.032,1.904 L295.032,11.339 L292.703,11.339 L292.703,1.904 L290,1.904 L290,0 L297.718,0 L297.718,1.904 L295.032,1.904 Z M306.745,7.922 L300.591,7.922 C300.778,9.01 301.577,9.69 302.648,9.69 C303.447,9.69 304.127,9.299 304.467,8.67 L306.456,9.214 C305.674,10.744 304.297,11.611 302.631,11.611 C300.132,11.611 298.347,9.843 298.347,7.395 C298.347,4.93 300.064,3.196 302.495,3.196 C305.011,3.196 306.762,4.964 306.762,7.497 L306.745,7.922 Z M300.591,6.681 L304.535,6.681 C304.348,5.644 303.6,5.015 302.529,5.015 C301.492,5.015 300.795,5.61 300.591,6.681 Z M311.386,9.197 L309.941,11.339 L307.391,11.339 L310.128,7.429 L307.221,3.468 L309.941,3.468 L311.386,5.559 L312.78,3.468 L315.415,3.468 L312.61,7.429 L315.364,11.339 L312.746,11.339 L311.386,9.197 Z M318.73,5.253 L318.73,9.027 C318.73,9.401 318.866,9.503 319.342,9.537 L319.716,9.537 L319.716,11.339 L317.999,11.339 C316.945,11.305 316.554,10.88 316.571,9.843 L316.571,5.253 L315.67,5.253 L315.67,3.434 L316.571,3.434 L316.571,1.326 L318.73,1.326 L318.73,3.434 L319.716,3.434 L319.716,5.253 L318.73,5.253 Z M326.499,0 L330.154,0 C331.548,0 332.449,0.204 333.044,0.646 C333.741,1.173 334.132,2.04 334.132,3.043 C334.132,3.825 333.894,4.471 333.418,4.981 C333.095,5.304 332.84,5.457 332.228,5.661 C332.908,5.814 333.214,5.95 333.571,6.273 C334.098,6.749 334.387,7.446 334.387,8.313 C334.387,9.367 333.945,10.302 333.214,10.795 C332.619,11.186 331.922,11.339 330.681,11.339 L326.499,11.339 L326.499,0 Z M328.828,1.768 L328.828,4.811 L329.763,4.811 C331.14,4.811 331.786,4.318 331.786,3.264 C331.786,2.686 331.514,2.193 331.106,1.989 C330.783,1.836 330.307,1.768 329.644,1.768 L328.828,1.768 Z M328.828,6.545 L328.828,9.622 L329.967,9.622 C330.766,9.622 331.14,9.554 331.48,9.316 C331.854,9.061 332.041,8.653 332.041,8.109 C332.041,7.497 331.82,7.072 331.395,6.817 C331.038,6.613 330.681,6.545 329.831,6.545 L328.828,6.545 Z M340.694,3.468 L342.853,3.468 L342.853,8.449 C342.853,9.605 342.615,10.251 341.969,10.795 C341.34,11.322 340.456,11.611 339.419,11.611 C338.331,11.611 337.396,11.305 336.784,10.744 C336.223,10.234 335.951,9.486 335.951,8.449 L335.951,3.468 L338.11,3.468 L338.11,8.313 C338.11,9.197 338.637,9.792 339.419,9.792 C340.218,9.792 340.694,9.282 340.694,8.449 L340.694,3.468 Z M347.103,5.253 L347.103,9.027 C347.103,9.401 347.239,9.503 347.715,9.537 L348.089,9.537 L348.089,11.339 L346.372,11.339 C345.318,11.305 344.927,10.88 344.944,9.843 L344.944,5.253 L344.043,5.253 L344.043,3.434 L344.944,3.434 L344.944,1.326 L347.103,1.326 L347.103,3.434 L348.089,3.434 L348.089,5.253 L347.103,5.253 Z M351.914,5.253 L351.914,9.027 C351.914,9.401 352.05,9.503 352.526,9.537 L352.9,9.537 L352.9,11.339 L351.183,11.339 C350.129,11.305 349.738,10.88 349.755,9.843 L349.755,5.253 L348.854,5.253 L348.854,3.434 L349.755,3.434 L349.755,1.326 L351.914,1.326 L351.914,3.434 L352.9,3.434 L352.9,5.253 L351.914,5.253 Z M358.255,3.196 C360.737,3.196 362.522,4.998 362.522,7.48 C362.522,9.792 360.635,11.611 358.221,11.611 C355.739,11.611 353.954,9.86 353.954,7.412 C353.954,4.913 355.705,3.196 358.255,3.196 Z M358.255,5.134 C356.98,5.134 356.13,6.035 356.13,7.412 C356.13,8.772 356.98,9.69 358.238,9.69 C359.479,9.69 360.346,8.755 360.346,7.446 C360.346,6.018 359.547,5.134 358.255,5.134 Z M364.12,3.468 L366.279,3.468 L366.279,4.437 C366.857,3.536 367.435,3.196 368.421,3.196 C369.169,3.196 369.883,3.468 370.359,3.927 C370.869,4.437 371.056,5.066 371.056,6.358 L371.056,11.339 L368.897,11.339 L368.897,6.46 C368.897,6.018 368.846,5.763 368.71,5.542 C368.506,5.219 368.098,5.015 367.673,5.015 C366.84,5.015 366.279,5.644 366.279,6.562 L366.279,11.339 L364.12,11.339 L364.12,3.468 Z M378.553,5.746 L376.513,5.746 L376.513,5.61 C376.513,5.134 376.088,4.794 375.51,4.794 C374.983,4.794 374.643,5.083 374.643,5.508 C374.643,5.712 374.728,5.916 374.864,6.018 C375.102,6.205 375.119,6.205 376.207,6.545 C377.975,7.089 378.672,7.786 378.672,9.061 C378.672,10.591 377.448,11.611 375.612,11.611 C373.742,11.611 372.603,10.659 372.518,9.027 L374.592,9.027 C374.694,9.707 375,10.013 375.629,10.013 C376.139,10.013 376.496,9.707 376.496,9.265 C376.496,8.789 376.19,8.568 375.034,8.211 C373.334,7.701 372.569,6.936 372.569,5.695 C372.569,4.199 373.776,3.196 375.612,3.196 C377.414,3.196 378.502,4.148 378.553,5.746 Z"/>
      <g transform="translate(21 72)">
        <g transform="translate(55)">
          <g fill="#00AB9A" transform="translate(0 .661)">
            <rect width="1" height="46" x="4" y="1"/>
            <rect width="9" height="1"/>
            <rect width="9" height="1" y="47"/>
          </g>
          <g fill-rule="nonzero" transform="translate(9 1)">
            <path fill="#314351" d="M20.9223633,29.9780273 L16,29.9780273 L16,18 L20.8144531,18 C23.0639648,18 24.4169922,19.1455078 24.4169922,20.9882812 C24.4169922,22.2416992 23.4956055,23.3623047 22.3168945,23.5615234 L22.3168945,23.7026367 C23.9355469,23.8686523 25.0146484,25.0224609 25.0146484,26.5830078 C25.0146484,28.6914062 23.4790039,29.9780273 20.9223633,29.9780273 Z M17.859375,19.5771484 L17.859375,23.0717773 L20.0673828,23.0717773 C21.7109375,23.0717773 22.565918,22.4658203 22.565918,21.3286133 C22.565918,20.2246094 21.7607422,19.5771484 20.3828125,19.5771484 L17.859375,19.5771484 Z M17.859375,28.4008789 L20.5488281,28.4008789 C22.2255859,28.4008789 23.1137695,27.7202148 23.1137695,26.4501953 C23.1137695,25.1967773 22.1923828,24.5410156 20.440918,24.5410156 L17.859375,24.5410156 L17.859375,28.4008789 Z M34.3995703,20.9384766 L34.3995703,29.9780273 L32.6813086,29.9780273 L32.6813086,28.5419922 L32.5401953,28.5419922 C32.1002539,29.5712891 31.1788672,30.1523438 29.8092383,30.1523438 C27.80875,30.1523438 26.6964453,28.9321289 26.6964453,26.8071289 L26.6964453,20.9384766 L28.4811133,20.9384766 L28.4811133,26.3422852 C28.4811133,27.8032227 29.0704688,28.5004883 30.3819922,28.5004883 C31.8263281,28.5004883 32.6149023,27.6455078 32.6149023,26.2260742 L32.6149023,20.9384766 L34.3995703,20.9384766 Z M37.2102734,18.6889648 L38.9949414,18.6889648 L38.9949414,20.9799805 L40.9539258,20.9799805 L40.9539258,22.4824219 L38.9949414,22.4824219 L38.9949414,27.1308594 C38.9949414,28.0771484 39.3850781,28.4921875 40.2732617,28.4921875 C40.5471875,28.4921875 40.7049024,28.4755859 40.9539258,28.4506836 L40.9539258,29.9365234 C40.6633984,29.9863281 40.3313672,30.027832 39.9827344,30.027832 C37.9988477,30.027832 37.2102734,29.3305664 37.2102734,27.5874023 L37.2102734,22.4824219 L35.7742383,22.4824219 L35.7742383,20.9799805 L37.2102734,20.9799805 L37.2102734,18.6889648 Z M43.3080859,18.6889648 L45.0927539,18.6889648 L45.0927539,20.9799805 L47.0517383,20.9799805 L47.0517383,22.4824219 L45.0927539,22.4824219 L45.0927539,27.1308594 C45.0927539,28.0771484 45.4828906,28.4921875 46.3710742,28.4921875 C46.645,28.4921875 46.8027149,28.4755859 47.0517383,28.4506836 L47.0517383,29.9365234 C46.7612109,29.9863281 46.4291797,30.027832 46.0805469,30.027832 C44.0966602,30.027832 43.3080859,29.3305664 43.3080859,27.5874023 L43.3080859,22.4824219 L41.8720508,22.4824219 L41.8720508,20.9799805 L43.3080859,20.9799805 L43.3080859,18.6889648 Z M52.460586,30.1523438 C49.8126367,30.1523438 48.1939844,28.3842773 48.1939844,25.4541016 C48.1939844,22.5405273 49.8209375,20.7641602 52.460586,20.7641602 C55.0919336,20.7641602 56.7188867,22.5405273 56.7188867,25.4541016 C56.7188867,28.3842773 55.1002344,30.1523438 52.460586,30.1523438 Z M52.460586,28.5668945 C54.0045313,28.5668945 54.8844141,27.4213867 54.8844141,25.4541016 C54.8844141,23.4951172 54.0045313,22.3496094 52.460586,22.3496094 C50.9083399,22.3496094 50.0367578,23.4951172 50.0367578,25.4541016 C50.0367578,27.4296875 50.9083399,28.5668945 52.460586,28.5668945 Z M58.4504883,29.9780273 L58.4504883,20.9384766 L60.16875,20.9384766 L60.16875,22.3745117 L60.3015625,22.3745117 C60.7415039,21.3701172 61.6379883,20.7641602 62.9993164,20.7641602 C65.0164063,20.7641602 66.128711,21.9760742 66.128711,24.1259766 L66.128711,29.9780273 L64.344043,29.9780273 L64.344043,24.5742188 C64.344043,23.121582 63.7131836,22.3994141 62.3933594,22.3994141 C61.0735352,22.3994141 60.2351563,23.2792969 60.2351563,24.6904297 L60.2351563,29.9780273 L58.4504883,29.9780273 Z"/>
            <use stroke="#6FEAD9" stroke-dasharray="1" stroke-width="2" mask="url(#5-e)" xlink:href="#5-b"/>
          </g>
        </g>
        <path fill="#00AB9A" fill-rule="nonzero" d="M2.794,13.453 L2.794,19.998 L1.87,19.998 L1.87,13.453 L-1.66977543e-13,13.453 L-1.66977543e-13,12.661 L4.653,12.661 L4.653,13.453 L2.794,13.453 Z M9.427,15.763 L9.427,14.927 L10.263,14.927 L10.263,19.998 L9.427,19.998 L9.427,19.019 C8.921,19.778 8.349,20.119 7.579,20.119 C6.182,20.119 5.192,19.019 5.192,17.479 C5.192,15.928 6.204,14.806 7.601,14.806 C8.371,14.806 8.932,15.103 9.427,15.763 Z M7.722,15.554 C7.172,15.554 6.787,15.741 6.49,16.159 C6.226,16.522 6.072,17.006 6.072,17.501 C6.072,18.579 6.776,19.393 7.7,19.393 C8.657,19.393 9.438,18.502 9.438,17.413 C9.438,16.313 8.734,15.554 7.722,15.554 Z M11.946,14.927 L12.782,14.927 L12.782,15.851 C13.266,15.103 13.783,14.806 14.63,14.806 C16.038,14.806 17.017,15.884 17.017,17.424 C17.017,19.019 16.038,20.119 14.63,20.119 C14.234,20.119 13.871,20.031 13.519,19.855 C13.211,19.701 13.057,19.569 12.782,19.206 L12.782,22.374 L11.946,22.374 L11.946,14.927 Z M14.487,15.554 C13.475,15.554 12.782,16.357 12.782,17.545 C12.782,18.656 13.453,19.393 14.454,19.393 C15.455,19.393 16.126,18.612 16.126,17.457 C16.126,16.863 15.983,16.412 15.686,16.082 C15.389,15.752 14.938,15.554 14.487,15.554 Z M22.473,15.664 L22.473,18.964 C22.484,19.217 22.55,19.272 22.858,19.272 L23.243,19.272 L23.243,19.998 L22.462,19.998 C21.868,19.987 21.637,19.767 21.637,19.206 L21.637,15.664 L20.933,15.664 L20.933,14.927 L21.637,14.927 L21.637,13.332 L22.473,13.332 L22.473,14.927 L23.243,14.927 L23.243,15.664 L22.473,15.664 Z M28.259,15.763 L28.259,14.927 L29.095,14.927 L29.095,19.998 L28.259,19.998 L28.259,19.019 C27.753,19.778 27.181,20.119 26.411,20.119 C25.014,20.119 24.024,19.019 24.024,17.479 C24.024,15.928 25.036,14.806 26.433,14.806 C27.203,14.806 27.764,15.103 28.259,15.763 Z M26.554,15.554 C26.004,15.554 25.619,15.741 25.322,16.159 C25.058,16.522 24.904,17.006 24.904,17.501 C24.904,18.579 25.608,19.393 26.532,19.393 C27.489,19.393 28.27,18.502 28.27,17.413 C28.27,16.313 27.566,15.554 26.554,15.554 Z M30.778,14.927 L31.614,14.927 L31.614,15.785 C31.768,15.422 31.878,15.268 32.076,15.114 C32.329,14.916 32.681,14.806 33.044,14.806 L33.242,14.806 L33.242,15.653 C33.154,15.642 33.066,15.642 33.011,15.642 C32.56,15.642 32.164,15.851 31.911,16.225 C31.691,16.544 31.614,16.841 31.614,17.424 L31.614,19.998 L30.778,19.998 L30.778,14.927 Z M38.027,15.796 L38.027,14.927 L38.863,14.927 L38.863,20.031 C38.863,20.878 38.654,21.45 38.192,21.89 C37.741,22.33 37.092,22.561 36.322,22.561 C35.376,22.561 34.628,22.253 34.078,21.637 L34.65,21.065 C34.881,21.307 34.991,21.406 35.134,21.505 C35.42,21.681 35.893,21.802 36.322,21.802 C36.85,21.802 37.356,21.615 37.642,21.307 C37.895,21.032 38.027,20.625 38.027,20.097 L38.027,19.03 C37.532,19.778 36.949,20.119 36.157,20.119 C34.815,20.119 33.814,18.986 33.814,17.479 C33.814,16.665 34.111,15.884 34.617,15.4 C35.024,15.004 35.574,14.806 36.223,14.806 C36.993,14.806 37.51,15.092 38.027,15.796 Z M36.377,15.576 C35.387,15.576 34.694,16.346 34.694,17.446 C34.694,18.535 35.398,19.349 36.355,19.349 C36.839,19.349 37.312,19.118 37.642,18.733 C37.862,18.48 38.005,17.985 38.005,17.479 C38.005,16.819 37.906,16.467 37.609,16.137 C37.301,15.796 36.828,15.576 36.377,15.576 Z M45.254,17.732 L41.03,17.732 C41.074,18.161 41.151,18.381 41.36,18.656 C41.69,19.107 42.174,19.349 42.724,19.349 C43.351,19.349 43.945,19.008 44.242,18.48 L44.979,18.755 C44.561,19.602 43.692,20.119 42.724,20.119 C41.217,20.119 40.139,19.019 40.139,17.479 C40.139,15.917 41.206,14.806 42.691,14.806 C44.165,14.806 45.265,15.917 45.265,17.402 C45.265,17.468 45.265,17.611 45.254,17.732 Z M41.041,17.116 L44.374,17.116 C44.341,16.72 44.264,16.5 44.088,16.247 C43.769,15.818 43.252,15.554 42.691,15.554 C42.13,15.554 41.624,15.818 41.327,16.258 C41.173,16.5 41.107,16.709 41.041,17.116 Z M47.366,15.664 L47.366,18.964 C47.377,19.217 47.443,19.272 47.751,19.272 L48.136,19.272 L48.136,19.998 L47.355,19.998 C46.761,19.987 46.53,19.767 46.53,19.206 L46.53,15.664 L45.826,15.664 L45.826,14.927 L46.53,14.927 L46.53,13.332 L47.366,13.332 L47.366,14.927 L48.136,14.927 L48.136,15.664 L47.366,15.664 Z M49.753,18.942 C50.083,18.942 50.325,19.184 50.325,19.525 C50.325,19.844 50.072,20.086 49.753,20.086 C49.423,20.086 49.181,19.844 49.181,19.514 C49.181,19.184 49.423,18.942 49.753,18.942 Z M49.753,15.774 C50.083,15.774 50.325,16.016 50.325,16.357 C50.325,16.676 50.072,16.918 49.753,16.918 C49.423,16.918 49.181,16.676 49.181,16.346 C49.181,16.016 49.423,15.774 49.753,15.774 Z M32.153,32.348 L29.216,32.348 L29.216,31.666 L33,26.562 L33,31.556 L33.858,31.556 L33.858,32.348 L33,32.348 L33,33.998 L32.153,33.998 L32.153,32.348 Z M32.153,31.556 L32.153,28.751 L30.096,31.556 L32.153,31.556 Z M37.917,30.016 C38.335,30.148 38.533,30.247 38.764,30.489 C39.127,30.852 39.314,31.336 39.314,31.908 C39.314,33.206 38.357,34.13 37.015,34.13 C35.684,34.13 34.749,33.239 34.749,31.985 C34.749,31.402 34.947,30.874 35.299,30.511 C35.53,30.269 35.717,30.159 36.157,30.016 C35.772,29.884 35.607,29.774 35.409,29.532 C35.167,29.235 35.035,28.861 35.035,28.454 C35.035,27.409 35.893,26.639 37.059,26.639 C38.214,26.639 39.05,27.398 39.05,28.443 C39.05,28.861 38.907,29.257 38.643,29.565 C38.445,29.785 38.291,29.884 37.917,30.016 Z M37.059,27.409 C36.355,27.409 35.871,27.849 35.871,28.465 C35.871,29.092 36.388,29.587 37.037,29.587 C37.664,29.587 38.225,29.07 38.225,28.476 C38.225,27.904 37.686,27.409 37.059,27.409 Z M37.048,30.478 C36.256,30.478 35.618,31.105 35.618,31.897 C35.618,32.678 36.245,33.316 37.026,33.316 C37.807,33.316 38.434,32.678 38.434,31.897 C38.434,31.127 37.807,30.478 37.048,30.478 Z M40.623,28.927 L41.459,28.927 L41.459,29.851 C41.943,29.103 42.46,28.806 43.307,28.806 C44.715,28.806 45.694,29.884 45.694,31.424 C45.694,33.019 44.715,34.119 43.307,34.119 C42.911,34.119 42.548,34.031 42.196,33.855 C41.888,33.701 41.734,33.569 41.459,33.206 L41.459,36.374 L40.623,36.374 L40.623,28.927 Z M43.164,29.554 C42.152,29.554 41.459,30.357 41.459,31.545 C41.459,32.656 42.13,33.393 43.131,33.393 C44.132,33.393 44.803,32.612 44.803,31.457 C44.803,30.863 44.66,30.412 44.363,30.082 C44.066,29.752 43.615,29.554 43.164,29.554 Z M48.576,32.161 L47.223,33.998 L46.2,33.998 L48.07,31.479 L46.167,28.927 L47.223,28.927 L48.576,30.786 L49.962,28.927 L50.985,28.927 L49.071,31.479 L50.897,33.998 L49.874,33.998 L48.576,32.161 Z"/>
      </g>
      <g transform="translate(261 90)">
        <path fill="#00AB9A" fill-rule="nonzero" d="M2.794,8.777 L2.794,15.322 L1.87,15.322 L1.87,8.777 L-1.70530257e-13,8.777 L-1.70530257e-13,7.985 L4.653,7.985 L4.653,8.777 L2.794,8.777 Z M9.427,11.087 L9.427,10.251 L10.263,10.251 L10.263,15.322 L9.427,15.322 L9.427,14.343 C8.921,15.102 8.349,15.443 7.579,15.443 C6.182,15.443 5.192,14.343 5.192,12.803 C5.192,11.252 6.204,10.13 7.601,10.13 C8.371,10.13 8.932,10.427 9.427,11.087 Z M7.722,10.878 C7.172,10.878 6.787,11.065 6.49,11.483 C6.226,11.846 6.072,12.33 6.072,12.825 C6.072,13.903 6.776,14.717 7.7,14.717 C8.657,14.717 9.438,13.826 9.438,12.737 C9.438,11.637 8.734,10.878 7.722,10.878 Z M11.946,10.251 L12.782,10.251 L12.782,11.175 C13.266,10.427 13.783,10.13 14.63,10.13 C16.038,10.13 17.017,11.208 17.017,12.748 C17.017,14.343 16.038,15.443 14.63,15.443 C14.234,15.443 13.871,15.355 13.519,15.179 C13.211,15.025 13.057,14.893 12.782,14.53 L12.782,17.698 L11.946,17.698 L11.946,10.251 Z M14.487,10.878 C13.475,10.878 12.782,11.681 12.782,12.869 C12.782,13.98 13.453,14.717 14.454,14.717 C15.455,14.717 16.126,13.936 16.126,12.781 C16.126,12.187 15.983,11.736 15.686,11.406 C15.389,11.076 14.938,10.878 14.487,10.878 Z M22.473,10.988 L22.473,14.288 C22.484,14.541 22.55,14.596 22.858,14.596 L23.243,14.596 L23.243,15.322 L22.462,15.322 C21.868,15.311 21.637,15.091 21.637,14.53 L21.637,10.988 L20.933,10.988 L20.933,10.251 L21.637,10.251 L21.637,8.656 L22.473,8.656 L22.473,10.251 L23.243,10.251 L23.243,10.988 L22.473,10.988 Z M28.259,11.087 L28.259,10.251 L29.095,10.251 L29.095,15.322 L28.259,15.322 L28.259,14.343 C27.753,15.102 27.181,15.443 26.411,15.443 C25.014,15.443 24.024,14.343 24.024,12.803 C24.024,11.252 25.036,10.13 26.433,10.13 C27.203,10.13 27.764,10.427 28.259,11.087 Z M26.554,10.878 C26.004,10.878 25.619,11.065 25.322,11.483 C25.058,11.846 24.904,12.33 24.904,12.825 C24.904,13.903 25.608,14.717 26.532,14.717 C27.489,14.717 28.27,13.826 28.27,12.737 C28.27,11.637 27.566,10.878 26.554,10.878 Z M30.778,10.251 L31.614,10.251 L31.614,11.109 C31.768,10.746 31.878,10.592 32.076,10.438 C32.329,10.24 32.681,10.13 33.044,10.13 L33.242,10.13 L33.242,10.977 C33.154,10.966 33.066,10.966 33.011,10.966 C32.56,10.966 32.164,11.175 31.911,11.549 C31.691,11.868 31.614,12.165 31.614,12.748 L31.614,15.322 L30.778,15.322 L30.778,10.251 Z M38.027,11.12 L38.027,10.251 L38.863,10.251 L38.863,15.355 C38.863,16.202 38.654,16.774 38.192,17.214 C37.741,17.654 37.092,17.885 36.322,17.885 C35.376,17.885 34.628,17.577 34.078,16.961 L34.65,16.389 C34.881,16.631 34.991,16.73 35.134,16.829 C35.42,17.005 35.893,17.126 36.322,17.126 C36.85,17.126 37.356,16.939 37.642,16.631 C37.895,16.356 38.027,15.949 38.027,15.421 L38.027,14.354 C37.532,15.102 36.949,15.443 36.157,15.443 C34.815,15.443 33.814,14.31 33.814,12.803 C33.814,11.989 34.111,11.208 34.617,10.724 C35.024,10.328 35.574,10.13 36.223,10.13 C36.993,10.13 37.51,10.416 38.027,11.12 Z M36.377,10.9 C35.387,10.9 34.694,11.67 34.694,12.77 C34.694,13.859 35.398,14.673 36.355,14.673 C36.839,14.673 37.312,14.442 37.642,14.057 C37.862,13.804 38.005,13.309 38.005,12.803 C38.005,12.143 37.906,11.791 37.609,11.461 C37.301,11.12 36.828,10.9 36.377,10.9 Z M45.254,13.056 L41.03,13.056 C41.074,13.485 41.151,13.705 41.36,13.98 C41.69,14.431 42.174,14.673 42.724,14.673 C43.351,14.673 43.945,14.332 44.242,13.804 L44.979,14.079 C44.561,14.926 43.692,15.443 42.724,15.443 C41.217,15.443 40.139,14.343 40.139,12.803 C40.139,11.241 41.206,10.13 42.691,10.13 C44.165,10.13 45.265,11.241 45.265,12.726 C45.265,12.792 45.265,12.935 45.254,13.056 Z M41.041,12.44 L44.374,12.44 C44.341,12.044 44.264,11.824 44.088,11.571 C43.769,11.142 43.252,10.878 42.691,10.878 C42.13,10.878 41.624,11.142 41.327,11.582 C41.173,11.824 41.107,12.033 41.041,12.44 Z M47.366,10.988 L47.366,14.288 C47.377,14.541 47.443,14.596 47.751,14.596 L48.136,14.596 L48.136,15.322 L47.355,15.322 C46.761,15.311 46.53,15.091 46.53,14.53 L46.53,10.988 L45.826,10.988 L45.826,10.251 L46.53,10.251 L46.53,8.656 L47.366,8.656 L47.366,10.251 L48.136,10.251 L48.136,10.988 L47.366,10.988 Z M49.753,14.266 C50.083,14.266 50.325,14.508 50.325,14.849 C50.325,15.168 50.072,15.41 49.753,15.41 C49.423,15.41 49.181,15.168 49.181,14.838 C49.181,14.508 49.423,14.266 49.753,14.266 Z M49.753,11.098 C50.083,11.098 50.325,11.34 50.325,11.681 C50.325,12 50.072,12.242 49.753,12.242 C49.423,12.242 49.181,12 49.181,11.67 C49.181,11.34 49.423,11.098 49.753,11.098 Z M32.142,22.887 L29.579,22.887 L29.579,22.095 L33.737,22.095 L31.581,24.834 C32.857,24.834 33.759,25.747 33.759,27.045 C33.759,28.42 32.725,29.443 31.328,29.443 C30.173,29.443 29.348,28.794 29.095,27.683 L29.887,27.54 C30.085,28.244 30.602,28.64 31.284,28.64 C32.175,28.64 32.879,27.969 32.879,27.111 C32.879,26.231 32.219,25.615 31.262,25.615 C30.921,25.615 30.701,25.681 30.382,25.868 L30.019,25.549 L32.142,22.887 Z M38.379,22.095 L36.498,25.032 C36.806,24.922 36.949,24.889 37.213,24.889 C38.434,24.889 39.38,25.846 39.38,27.089 C39.38,28.387 38.313,29.454 37.015,29.454 C35.706,29.454 34.694,28.42 34.694,27.089 C34.694,26.55 34.837,26.143 35.255,25.472 L37.356,22.095 L38.379,22.095 Z M37.059,25.637 C36.223,25.637 35.563,26.275 35.563,27.089 C35.563,27.947 36.212,28.629 37.037,28.629 C37.862,28.629 38.522,27.958 38.522,27.122 C38.522,26.297 37.873,25.637 37.059,25.637 Z M40.623,24.251 L41.459,24.251 L41.459,25.175 C41.943,24.427 42.46,24.13 43.307,24.13 C44.715,24.13 45.694,25.208 45.694,26.748 C45.694,28.343 44.715,29.443 43.307,29.443 C42.911,29.443 42.548,29.355 42.196,29.179 C41.888,29.025 41.734,28.893 41.459,28.53 L41.459,31.698 L40.623,31.698 L40.623,24.251 Z M43.164,24.878 C42.152,24.878 41.459,25.681 41.459,26.869 C41.459,27.98 42.13,28.717 43.131,28.717 C44.132,28.717 44.803,27.936 44.803,26.781 C44.803,26.187 44.66,25.736 44.363,25.406 C44.066,25.076 43.615,24.878 43.164,24.878 Z M48.576,27.485 L47.223,29.322 L46.2,29.322 L48.07,26.803 L46.167,24.251 L47.223,24.251 L48.576,26.11 L49.962,24.251 L50.985,24.251 L49.071,26.803 L50.897,29.322 L49.874,29.322 L48.576,27.485 Z"/>
        <g transform="translate(55)">
          <g fill="#00AB9A" transform="translate(.116 .661)">
            <rect width="1" height="34" x="4" y="1"/>
            <rect width="9" height="1"/>
            <rect width="9" height="1" y="35"/>
          </g>
          <g fill-rule="nonzero" transform="translate(9 1)">
            <path fill="#314351" d="M21.6328125,23.2734375 L17,23.2734375 L17,12 L21.53125,12 C23.6484375,12 24.921875,13.078125 24.921875,14.8125 C24.921875,15.9921875 24.0546875,17.046875 22.9453125,17.234375 L22.9453125,17.3671875 C24.46875,17.5234375 25.484375,18.609375 25.484375,20.078125 C25.484375,22.0625 24.0390625,23.2734375 21.6328125,23.2734375 Z M18.75,13.484375 L18.75,16.7734375 L20.828125,16.7734375 C22.375,16.7734375 23.1796875,16.203125 23.1796875,15.1328125 C23.1796875,14.09375 22.421875,13.484375 21.125,13.484375 L18.75,13.484375 Z M18.75,21.7890625 L21.28125,21.7890625 C22.859375,21.7890625 23.6953125,21.1484375 23.6953125,19.953125 C23.6953125,18.7734375 22.828125,18.15625 21.1796875,18.15625 L18.75,18.15625 L18.75,21.7890625 Z M34.383125,14.765625 L34.383125,23.2734375 L32.7659375,23.2734375 L32.7659375,21.921875 L32.633125,21.921875 C32.2190625,22.890625 31.351875,23.4375 30.0628125,23.4375 C28.18,23.4375 27.133125,22.2890625 27.133125,20.2890625 L27.133125,14.765625 L28.8128125,14.765625 L28.8128125,19.8515625 C28.8128125,21.2265625 29.3675,21.8828125 30.601875,21.8828125 C31.96125,21.8828125 32.7034375,21.078125 32.7034375,19.7421875 L32.7034375,14.765625 L34.383125,14.765625 Z M37.094375,12.6484375 L38.7740625,12.6484375 L38.7740625,14.8046875 L40.6178125,14.8046875 L40.6178125,16.21875 L38.7740625,16.21875 L38.7740625,20.59375 C38.7740625,21.484375 39.14125,21.875 39.9771875,21.875 C40.235,21.875 40.3834375,21.859375 40.6178125,21.8359375 L40.6178125,23.234375 C40.344375,23.28125 40.031875,23.3203125 39.70375,23.3203125 C37.8365625,23.3203125 37.094375,22.6640625 37.094375,21.0234375 L37.094375,16.21875 L35.7428125,16.21875 L35.7428125,14.8046875 L37.094375,14.8046875 L37.094375,12.6484375 Z M42.899375,12.6484375 L44.5790625,12.6484375 L44.5790625,14.8046875 L46.4228125,14.8046875 L46.4228125,16.21875 L44.5790625,16.21875 L44.5790625,20.59375 C44.5790625,21.484375 44.94625,21.875 45.7821875,21.875 C46.04,21.875 46.1884375,21.859375 46.4228125,21.8359375 L46.4228125,23.234375 C46.149375,23.28125 45.836875,23.3203125 45.50875,23.3203125 C43.6415625,23.3203125 42.899375,22.6640625 42.899375,21.0234375 L42.899375,16.21875 L41.5478125,16.21875 L41.5478125,14.8046875 L42.899375,14.8046875 L42.899375,12.6484375 Z M51.579375,23.4375 C49.0871875,23.4375 47.56375,21.7734375 47.56375,19.015625 C47.56375,16.2734375 49.095,14.6015625 51.579375,14.6015625 C54.0559375,14.6015625 55.5871875,16.2734375 55.5871875,19.015625 C55.5871875,21.7734375 54.06375,23.4375 51.579375,23.4375 Z M51.579375,21.9453125 C53.0325,21.9453125 53.860625,20.8671875 53.860625,19.015625 C53.860625,17.171875 53.0325,16.09375 51.579375,16.09375 C50.1184375,16.09375 49.298125,17.171875 49.298125,19.015625 C49.298125,20.875 50.1184375,21.9453125 51.579375,21.9453125 Z M57.2828125,23.2734375 L57.2828125,14.765625 L58.9,14.765625 L58.9,16.1171875 L59.025,16.1171875 C59.4390625,15.171875 60.2828125,14.6015625 61.5640625,14.6015625 C63.4625,14.6015625 64.509375,15.7421875 64.509375,17.765625 L64.509375,23.2734375 L62.8296875,23.2734375 L62.8296875,18.1875 C62.8296875,16.8203125 62.2359375,16.140625 60.99375,16.140625 C59.7515625,16.140625 58.9625,16.96875 58.9625,18.296875 L58.9625,23.2734375 L57.2828125,23.2734375 Z"/>
            <use stroke="#6FEAD9" stroke-dasharray="1" stroke-width="2" mask="url(#5-f)" xlink:href="#5-c"/>
          </g>
        </g>
      </g>
      <g transform="translate(0 151)">
        <rect width="23" height="23" x=".5" y=".5" stroke="#00AB9A" rx="2"/>
        <path fill="#00AB9A" fill-rule="nonzero" d="M10.4655 14.306L7.1765 14.306 6.5055 16 5.5485 16 8.3095 8.663 9.4095 8.663 12.1045 16 11.0705 16 10.4655 14.306zM10.1795 13.514L8.8375 9.829 7.4515 13.514 10.1795 13.514zM16.8235 11.765L16.8235 10.929 17.6595 10.929 17.6595 16 16.8235 16 16.8235 15.021C16.3175 15.78 15.7455 16.121 14.9755 16.121 13.5785 16.121 12.5885 15.021 12.5885 13.481 12.5885 11.93 13.6005 10.808 14.9975 10.808 15.7675 10.808 16.3285 11.105 16.8235 11.765zM15.1185 11.556C14.5685 11.556 14.1835 11.743 13.8865 12.161 13.6225 12.524 13.4685 13.008 13.4685 13.503 13.4685 14.581 14.1725 15.395 15.0965 15.395 16.0535 15.395 16.8345 14.504 16.8345 13.415 16.8345 12.315 16.1305 11.556 15.1185 11.556zM28.913 8.663L30.981 8.663C32.477 8.663 33.324 9.367 33.324 10.61 33.324 11.083 33.181 11.501 32.906 11.809 32.73 12.018 32.554 12.128 32.158 12.282 32.565 12.37 32.763 12.447 32.994 12.623 33.39 12.942 33.599 13.437 33.599 14.031 33.599 14.713 33.302 15.307 32.807 15.626 32.378 15.901 31.905 16 30.981 16L28.913 16 28.913 8.663zM29.837 9.422L29.837 11.963 30.772 11.952C31.355 11.952 31.707 11.875 31.971 11.666 32.257 11.435 32.422 11.061 32.422 10.654 32.422 10.181 32.191 9.763 31.839 9.598 31.575 9.466 31.267 9.422 30.596 9.422L29.837 9.422zM29.837 12.711L29.837 15.252 30.761 15.252C31.531 15.252 31.828 15.197 32.147 15.01 32.499 14.812 32.675 14.46 32.675 13.976 32.675 13.096 32.158 12.711 30.992 12.711L29.837 12.711zM37.086 10.808C38.582 10.808 39.649 11.919 39.649 13.481 39.649 14.966 38.505 16.121 37.053 16.121 35.546 16.121 34.49 15.021 34.49 13.459 34.49 11.886 35.546 10.808 37.086 10.808zM37.086 11.578C36.041 11.578 35.348 12.337 35.348 13.47 35.348 14.592 36.041 15.351 37.075 15.351 38.076 15.351 38.791 14.57 38.791 13.47 38.791 12.337 38.109 11.578 37.086 11.578zM44.72 11.699L44.72 8.663 45.556 8.663 45.556 16 44.72 16 44.72 15.131C44.214 15.824 43.675 16.121 42.905 16.121 41.508 16.121 40.518 15.032 40.518 13.492 40.518 11.952 41.53 10.808 42.905 10.808 43.653 10.808 44.225 11.083 44.72 11.699zM43.081 11.556C42.08 11.556 41.398 12.348 41.398 13.503 41.398 14.614 42.069 15.395 43.026 15.395 44.005 15.395 44.72 14.581 44.72 13.481 44.72 12.337 44.049 11.556 43.081 11.556zM48.724 14.691L50.242 10.929 51.155 10.929 48.13 18.442 47.217 18.442 48.273 15.846 46.469 10.929 47.36 10.929 48.724 14.691zM56.358 10.621L56.358 16 55.434 16 55.434 8.663 56.347 8.663 59.064 14.163 61.814 8.663 62.716 8.663 62.716 16 61.792 16 61.792 10.632 59.064 16.077 56.358 10.621zM69.173 13.734L64.949 13.734C64.993 14.163 65.07 14.383 65.279 14.658 65.609 15.109 66.093 15.351 66.643 15.351 67.27 15.351 67.864 15.01 68.161 14.482L68.898 14.757C68.48 15.604 67.611 16.121 66.643 16.121 65.136 16.121 64.058 15.021 64.058 13.481 64.058 11.919 65.125 10.808 66.61 10.808 68.084 10.808 69.184 11.919 69.184 13.404 69.184 13.47 69.184 13.613 69.173 13.734zM64.96 13.118L68.293 13.118C68.26 12.722 68.183 12.502 68.007 12.249 67.688 11.82 67.171 11.556 66.61 11.556 66.049 11.556 65.543 11.82 65.246 12.26 65.092 12.502 65.026 12.711 64.96 13.118zM74.189 11.699L74.189 8.663 75.025 8.663 75.025 16 74.189 16 74.189 15.131C73.683 15.824 73.144 16.121 72.374 16.121 70.977 16.121 69.987 15.032 69.987 13.492 69.987 11.952 70.999 10.808 72.374 10.808 73.122 10.808 73.694 11.083 74.189 11.699zM72.55 11.556C71.549 11.556 70.867 12.348 70.867 13.503 70.867 14.614 71.538 15.395 72.495 15.395 73.474 15.395 74.189 14.581 74.189 13.481 74.189 12.337 73.518 11.556 72.55 11.556zM77.544 10.929L77.544 16 76.708 16 76.708 10.929 77.544 10.929zM77.137 8.96C77.434 8.96 77.665 9.202 77.665 9.51 77.665 9.807 77.423 10.038 77.126 10.038 76.829 10.038 76.598 9.807 76.598 9.499 76.598 9.191 76.829 8.96 77.137 8.96zM82.175 10.929L83.022 10.929 83.022 14.174C83.022 14.867 82.89 15.252 82.516 15.593 82.142 15.934 81.625 16.121 81.053 16.121 80.481 16.121 79.953 15.923 79.59 15.582 79.249 15.252 79.084 14.79 79.084 14.174L79.084 10.929 79.92 10.929 79.92 14.152C79.92 14.867 80.382 15.373 81.053 15.373 81.405 15.373 81.746 15.23 81.955 14.988 82.12 14.79 82.175 14.581 82.175 14.174L82.175 10.929zM84.562 10.929L85.398 10.929 85.398 11.633C85.783 11.05 86.212 10.808 86.839 10.808 87.532 10.808 87.972 11.105 88.203 11.732 88.577 11.083 89.05 10.808 89.809 10.808 90.392 10.808 90.832 10.995 91.096 11.347 91.338 11.666 91.404 11.952 91.404 12.755L91.404 16 90.568 16 90.568 12.953C90.568 12.337 90.546 12.194 90.425 11.985 90.271 11.721 89.941 11.556 89.545 11.556 88.808 11.556 88.401 12.051 88.401 12.953L88.401 16 87.565 16 87.565 12.964C87.565 12.469 87.521 12.216 87.4 11.996 87.257 11.71 86.949 11.556 86.575 11.556 85.838 11.556 85.398 12.084 85.398 12.964L85.398 16 84.562 16 84.562 10.929zM94.517 10.808L93.747 11.853 93.307 11.523 94.088 10.489 92.856 10.093 93.021 9.587 94.253 9.95 94.253 8.685 94.781 8.685 94.781 9.95 96.035 9.554 96.211 10.071 94.924 10.489 95.716 11.523 95.309 11.853 94.517 10.808zM103.086 18.046L102.536 18.574C101.238 16.979 100.644 15.428 100.644 13.58 100.644 11.688 101.337 9.818 102.558 8.443L103.086 8.993C101.975 10.368 101.425 11.897 101.425 13.547 101.425 15.153 102.019 16.759 103.086 18.046zM104.395 16L104.395 8.663 106.342 8.663C108.553 8.663 109.884 10.005 109.884 12.216 109.884 13.459 109.477 14.482 108.729 15.153 108.091 15.725 107.244 16 106.177 16L104.395 16zM105.319 9.444L105.319 15.208 105.649 15.208C106.892 15.208 107.42 15.076 107.948 14.658 108.608 14.13 108.938 13.316 108.938 12.227 108.938 10.456 107.992 9.444 106.309 9.444L105.319 9.444zM115.912 13.734L111.688 13.734C111.732 14.163 111.809 14.383 112.018 14.658 112.348 15.109 112.832 15.351 113.382 15.351 114.009 15.351 114.603 15.01 114.9 14.482L115.637 14.757C115.219 15.604 114.35 16.121 113.382 16.121 111.875 16.121 110.797 15.021 110.797 13.481 110.797 11.919 111.864 10.808 113.349 10.808 114.823 10.808 115.923 11.919 115.923 13.404 115.923 13.47 115.923 13.613 115.912 13.734zM111.699 13.118L115.032 13.118C114.999 12.722 114.922 12.502 114.746 12.249 114.427 11.82 113.91 11.556 113.349 11.556 112.788 11.556 112.282 11.82 111.985 12.26 111.831 12.502 111.765 12.711 111.699 13.118zM118.057 11.666L118.057 16 117.221 16 117.221 11.666 116.528 11.666 116.528 10.929 117.221 10.929 117.221 10.247C117.221 9.246 117.738 8.652 118.618 8.652 118.662 8.652 118.761 8.652 118.849 8.663L118.849 9.411C118.244 9.477 118.079 9.653 118.057 10.247L118.057 10.929 118.849 10.929 118.849 11.666 118.057 11.666zM123.81 11.765L123.81 10.929 124.646 10.929 124.646 16 123.81 16 123.81 15.021C123.304 15.78 122.732 16.121 121.962 16.121 120.565 16.121 119.575 15.021 119.575 13.481 119.575 11.93 120.587 10.808 121.984 10.808 122.754 10.808 123.315 11.105 123.81 11.765zM122.105 11.556C121.555 11.556 121.17 11.743 120.873 12.161 120.609 12.524 120.455 13.008 120.455 13.503 120.455 14.581 121.159 15.395 122.083 15.395 123.04 15.395 123.821 14.504 123.821 13.415 123.821 12.315 123.117 11.556 122.105 11.556zM129.277 10.929L130.124 10.929 130.124 14.174C130.124 14.867 129.992 15.252 129.618 15.593 129.244 15.934 128.727 16.121 128.155 16.121 127.583 16.121 127.055 15.923 126.692 15.582 126.351 15.252 126.186 14.79 126.186 14.174L126.186 10.929 127.022 10.929 127.022 14.152C127.022 14.867 127.484 15.373 128.155 15.373 128.507 15.373 128.848 15.23 129.057 14.988 129.222 14.79 129.277 14.581 129.277 14.174L129.277 10.929zM132.5 16L131.664 16 131.664 8.663 132.5 8.663 132.5 16zM135.074 11.666L135.074 14.966C135.085 15.219 135.151 15.274 135.459 15.274L135.844 15.274 135.844 16 135.063 16C134.469 15.989 134.238 15.769 134.238 15.208L134.238 11.666 133.534 11.666 133.534 10.929 134.238 10.929 134.238 9.334 135.074 9.334 135.074 10.929 135.844 10.929 135.844 11.666 135.074 11.666zM143.61 8.531C144.633 8.531 145.612 8.993 146.316 9.796 146.91 10.489 147.174 11.303 147.174 12.403 147.174 13.547 146.734 14.57 145.931 15.252 145.271 15.824 144.435 16.132 143.588 16.132 142.499 16.132 141.432 15.615 140.75 14.757 140.244 14.119 139.98 13.294 139.98 12.37 139.98 10.181 141.531 8.531 143.61 8.531zM143.588 9.389C142.059 9.389 140.926 10.643 140.926 12.337 140.926 14.042 142.048 15.285 143.566 15.285 144.303 15.285 145.029 14.966 145.524 14.405 145.953 13.932 146.228 13.14 146.228 12.392 146.228 11.413 145.964 10.698 145.392 10.148 144.908 9.675 144.237 9.389 143.588 9.389zM149.33 15.131L149.33 16 148.494 16 148.494 8.663 149.33 8.663 149.33 11.798C149.836 11.105 150.375 10.808 151.112 10.808 152.531 10.808 153.521 11.908 153.521 13.481 153.521 15.032 152.542 16.121 151.156 16.121 150.375 16.121 149.825 15.824 149.33 15.131zM151.002 11.556C150.034 11.556 149.319 12.359 149.319 13.47 149.319 14.625 149.979 15.395 150.969 15.395 151.97 15.395 152.641 14.636 152.641 13.503 152.641 12.37 151.959 11.556 151.002 11.556zM157.976 12.315L157.14 12.315 157.14 12.26C157.14 11.787 156.755 11.49 156.172 11.49 155.611 11.49 155.259 11.776 155.259 12.216 155.259 12.656 155.479 12.821 156.392 13.074 157.041 13.25 157.382 13.415 157.624 13.657 157.877 13.91 158.031 14.273 158.031 14.647 158.031 15.527 157.305 16.121 156.227 16.121 155.072 16.121 154.423 15.582 154.335 14.559L155.16 14.559C155.215 15.131 155.589 15.439 156.227 15.439 156.799 15.439 157.173 15.142 157.173 14.691 157.173 14.251 156.887 14.031 156.018 13.811 154.918 13.514 154.423 13.052 154.423 12.282 154.423 11.402 155.138 10.808 156.205 10.808 157.283 10.808 157.932 11.358 157.976 12.315zM160.154 10.929L160.154 16 159.318 16 159.318 10.929 160.154 10.929zM159.747 8.96C160.044 8.96 160.275 9.202 160.275 9.51 160.275 9.807 160.033 10.038 159.736 10.038 159.439 10.038 159.208 9.807 159.208 9.499 159.208 9.191 159.439 8.96 159.747 8.96zM165.632 11.699L165.632 8.663 166.468 8.663 166.468 16 165.632 16 165.632 15.131C165.126 15.824 164.587 16.121 163.817 16.121 162.42 16.121 161.43 15.032 161.43 13.492 161.43 11.952 162.442 10.808 163.817 10.808 164.565 10.808 165.137 11.083 165.632 11.699zM163.993 11.556C162.992 11.556 162.31 12.348 162.31 13.503 162.31 14.614 162.981 15.395 163.938 15.395 164.917 15.395 165.632 14.581 165.632 13.481 165.632 12.337 164.961 11.556 163.993 11.556zM168.987 10.929L168.987 16 168.151 16 168.151 10.929 168.987 10.929zM168.58 8.96C168.877 8.96 169.108 9.202 169.108 9.51 169.108 9.807 168.866 10.038 168.569 10.038 168.272 10.038 168.041 9.807 168.041 9.499 168.041 9.191 168.272 8.96 168.58 8.96zM174.498 11.765L174.498 10.929 175.334 10.929 175.334 16 174.498 16 174.498 15.021C173.992 15.78 173.42 16.121 172.65 16.121 171.253 16.121 170.263 15.021 170.263 13.481 170.263 11.93 171.275 10.808 172.672 10.808 173.442 10.808 174.003 11.105 174.498 11.765zM172.793 11.556C172.243 11.556 171.858 11.743 171.561 12.161 171.297 12.524 171.143 13.008 171.143 13.503 171.143 14.581 171.847 15.395 172.771 15.395 173.728 15.395 174.509 14.504 174.509 13.415 174.509 12.315 173.805 11.556 172.793 11.556zM177.017 10.929L177.853 10.929 177.853 11.644C178.293 11.05 178.733 10.808 179.36 10.808 179.822 10.808 180.24 10.962 180.537 11.226 180.856 11.534 180.966 11.886 180.966 12.579L180.966 16 180.13 16 180.13 12.766C180.13 12.315 180.075 12.073 179.943 11.897 179.789 11.688 179.492 11.556 179.151 11.556 178.777 11.556 178.436 11.699 178.183 11.985 177.941 12.249 177.853 12.491 177.853 12.909L177.853 16 177.017 16 177.017 10.929zM183.782 15.197L186.367 15.197 186.367 16 182.253 16 184.805 12.348C185.542 11.281 185.707 10.951 185.707 10.511 185.707 9.873 185.201 9.422 184.486 9.422 183.991 9.422 183.584 9.653 183.419 10.038 183.331 10.247 183.298 10.412 183.287 10.797L182.462 10.797C182.506 9.4 183.243 8.63 184.552 8.63 185.751 8.63 186.587 9.378 186.587 10.445 186.587 11.061 186.367 11.6 185.751 12.458L183.782 15.197zM187.665 8.971L188.215 8.443C189.524 10.049 190.107 11.589 190.107 13.437 190.107 15.34 189.414 17.188 188.193 18.574L187.665 18.024C188.776 16.649 189.326 15.12 189.326 13.47 189.326 11.853 188.743 10.269 187.665 8.971z"/>
      </g>
      <g transform="translate(234 151)">
        <rect width="23" height="23" x=".5" y=".5" stroke="#00AB9A" rx="2"/>
        <path fill="#00AB9A" fill-rule="nonzero" d="M10.4655 14.306L7.1765 14.306 6.5055 16 5.5485 16 8.3095 8.663 9.4095 8.663 12.1045 16 11.0705 16 10.4655 14.306zM10.1795 13.514L8.8375 9.829 7.4515 13.514 10.1795 13.514zM16.8235 11.765L16.8235 10.929 17.6595 10.929 17.6595 16 16.8235 16 16.8235 15.021C16.3175 15.78 15.7455 16.121 14.9755 16.121 13.5785 16.121 12.5885 15.021 12.5885 13.481 12.5885 11.93 13.6005 10.808 14.9975 10.808 15.7675 10.808 16.3285 11.105 16.8235 11.765zM15.1185 11.556C14.5685 11.556 14.1835 11.743 13.8865 12.161 13.6225 12.524 13.4685 13.008 13.4685 13.503 13.4685 14.581 14.1725 15.395 15.0965 15.395 16.0535 15.395 16.8345 14.504 16.8345 13.415 16.8345 12.315 16.1305 11.556 15.1185 11.556zM34.566 13.83L35.182 14.446C34.445 15.315 33.631 15.689 32.498 15.689 31.475 15.689 30.606 15.315 29.979 14.611 29.363 13.918 29 12.917 29 11.894 29 9.694 30.485 8.088 32.509 8.088 33.169 8.088 33.818 8.264 34.346 8.583 34.643 8.77 34.841 8.946 35.204 9.342L34.566 9.936C33.851 9.199 33.312 8.935 32.531 8.935 31.035 8.935 29.946 10.178 29.946 11.894 29.946 13.599 31.057 14.842 32.575 14.842 33.378 14.842 33.994 14.523 34.566 13.83zM40.11 11.322L40.11 10.486 40.946 10.486 40.946 15.557 40.11 15.557 40.11 14.578C39.604 15.337 39.032 15.678 38.262 15.678 36.865 15.678 35.875 14.578 35.875 13.038 35.875 11.487 36.887 10.365 38.284 10.365 39.054 10.365 39.615 10.662 40.11 11.322zM38.405 11.113C37.855 11.113 37.47 11.3 37.173 11.718 36.909 12.081 36.755 12.565 36.755 13.06 36.755 14.138 37.459 14.952 38.383 14.952 39.34 14.952 40.121 14.061 40.121 12.972 40.121 11.872 39.417 11.113 38.405 11.113zM43.465 15.557L42.629 15.557 42.629 8.22 43.465 8.22 43.465 15.557zM45.984 15.557L45.148 15.557 45.148 8.22 45.984 8.22 45.984 15.557zM49.856 10.365C51.352 10.365 52.419 11.476 52.419 13.038 52.419 14.523 51.275 15.678 49.823 15.678 48.316 15.678 47.26 14.578 47.26 13.016 47.26 11.443 48.316 10.365 49.856 10.365zM49.856 11.135C48.811 11.135 48.118 11.894 48.118 13.027 48.118 14.149 48.811 14.908 49.845 14.908 50.846 14.908 51.561 14.127 51.561 13.027 51.561 11.894 50.879 11.135 49.856 11.135zM56.643 10.486L57.49 10.486 57.49 13.731C57.49 14.424 57.358 14.809 56.984 15.15 56.61 15.491 56.093 15.678 55.521 15.678 54.949 15.678 54.421 15.48 54.058 15.139 53.717 14.809 53.552 14.347 53.552 13.731L53.552 10.486 54.388 10.486 54.388 13.709C54.388 14.424 54.85 14.93 55.521 14.93 55.873 14.93 56.214 14.787 56.423 14.545 56.588 14.347 56.643 14.138 56.643 13.731L56.643 10.486zM59.921 11.223L59.921 14.523C59.932 14.776 59.998 14.831 60.306 14.831L60.691 14.831 60.691 15.557 59.91 15.557C59.316 15.546 59.085 15.326 59.085 14.765L59.085 11.223 58.381 11.223 58.381 10.486 59.085 10.486 59.085 8.891 59.921 8.891 59.921 10.486 60.691 10.486 60.691 11.223 59.921 11.223zM66.18 10.178L66.18 15.557 65.256 15.557 65.256 8.22 66.169 8.22 68.886 13.72 71.636 8.22 72.538 8.22 72.538 15.557 71.614 15.557 71.614 10.189 68.886 15.634 66.18 10.178zM78.995 13.291L74.771 13.291C74.815 13.72 74.892 13.94 75.101 14.215 75.431 14.666 75.915 14.908 76.465 14.908 77.092 14.908 77.686 14.567 77.983 14.039L78.72 14.314C78.302 15.161 77.433 15.678 76.465 15.678 74.958 15.678 73.88 14.578 73.88 13.038 73.88 11.476 74.947 10.365 76.432 10.365 77.906 10.365 79.006 11.476 79.006 12.961 79.006 13.027 79.006 13.17 78.995 13.291zM74.782 12.675L78.115 12.675C78.082 12.279 78.005 12.059 77.829 11.806 77.51 11.377 76.993 11.113 76.432 11.113 75.871 11.113 75.365 11.377 75.068 11.817 74.914 12.059 74.848 12.268 74.782 12.675zM84.011 11.256L84.011 8.22 84.847 8.22 84.847 15.557 84.011 15.557 84.011 14.688C83.505 15.381 82.966 15.678 82.196 15.678 80.799 15.678 79.809 14.589 79.809 13.049 79.809 11.509 80.821 10.365 82.196 10.365 82.944 10.365 83.516 10.64 84.011 11.256zM82.372 11.113C81.371 11.113 80.689 11.905 80.689 13.06 80.689 14.171 81.36 14.952 82.317 14.952 83.296 14.952 84.011 14.138 84.011 13.038 84.011 11.894 83.34 11.113 82.372 11.113zM87.366 10.486L87.366 15.557 86.53 15.557 86.53 10.486 87.366 10.486zM86.959 8.517C87.256 8.517 87.487 8.759 87.487 9.067 87.487 9.364 87.245 9.595 86.948 9.595 86.651 9.595 86.42 9.364 86.42 9.056 86.42 8.748 86.651 8.517 86.959 8.517zM91.997 10.486L92.844 10.486 92.844 13.731C92.844 14.424 92.712 14.809 92.338 15.15 91.964 15.491 91.447 15.678 90.875 15.678 90.303 15.678 89.775 15.48 89.412 15.139 89.071 14.809 88.906 14.347 88.906 13.731L88.906 10.486 89.742 10.486 89.742 13.709C89.742 14.424 90.204 14.93 90.875 14.93 91.227 14.93 91.568 14.787 91.777 14.545 91.942 14.347 91.997 14.138 91.997 13.731L91.997 10.486zM94.384 10.486L95.22 10.486 95.22 11.19C95.605 10.607 96.034 10.365 96.661 10.365 97.354 10.365 97.794 10.662 98.025 11.289 98.399 10.64 98.872 10.365 99.631 10.365 100.214 10.365 100.654 10.552 100.918 10.904 101.16 11.223 101.226 11.509 101.226 12.312L101.226 15.557 100.39 15.557 100.39 12.51C100.39 11.894 100.368 11.751 100.247 11.542 100.093 11.278 99.763 11.113 99.367 11.113 98.63 11.113 98.223 11.608 98.223 12.51L98.223 15.557 97.387 15.557 97.387 12.521C97.387 12.026 97.343 11.773 97.222 11.553 97.079 11.267 96.771 11.113 96.397 11.113 95.66 11.113 95.22 11.641 95.22 12.521L95.22 15.557 94.384 15.557 94.384 10.486zM104.339 10.365L103.569 11.41 103.129 11.08 103.91 10.046 102.678 9.65 102.843 9.144 104.075 9.507 104.075 8.242 104.603 8.242 104.603 9.507 105.857 9.111 106.033 9.628 104.746 10.046 105.538 11.08 105.131 11.41 104.339 10.365zM112.908 17.603L112.358 18.131C111.06 16.536 110.466 14.985 110.466 13.137 110.466 11.245 111.159 9.375 112.38 8L112.908 8.55C111.797 9.925 111.247 11.454 111.247 13.104 111.247 14.71 111.841 16.316 112.908 17.603zM114.217 15.557L114.217 8.22 116.164 8.22C118.375 8.22 119.706 9.562 119.706 11.773 119.706 13.016 119.299 14.039 118.551 14.71 117.913 15.282 117.066 15.557 115.999 15.557L114.217 15.557zM115.141 9.001L115.141 14.765 115.471 14.765C116.714 14.765 117.242 14.633 117.77 14.215 118.43 13.687 118.76 12.873 118.76 11.784 118.76 10.013 117.814 9.001 116.131 9.001L115.141 9.001zM125.734 13.291L121.51 13.291C121.554 13.72 121.631 13.94 121.84 14.215 122.17 14.666 122.654 14.908 123.204 14.908 123.831 14.908 124.425 14.567 124.722 14.039L125.459 14.314C125.041 15.161 124.172 15.678 123.204 15.678 121.697 15.678 120.619 14.578 120.619 13.038 120.619 11.476 121.686 10.365 123.171 10.365 124.645 10.365 125.745 11.476 125.745 12.961 125.745 13.027 125.745 13.17 125.734 13.291zM121.521 12.675L124.854 12.675C124.821 12.279 124.744 12.059 124.568 11.806 124.249 11.377 123.732 11.113 123.171 11.113 122.61 11.113 122.104 11.377 121.807 11.817 121.653 12.059 121.587 12.268 121.521 12.675zM127.879 11.223L127.879 15.557 127.043 15.557 127.043 11.223 126.35 11.223 126.35 10.486 127.043 10.486 127.043 9.804C127.043 8.803 127.56 8.209 128.44 8.209 128.484 8.209 128.583 8.209 128.671 8.22L128.671 8.968C128.066 9.034 127.901 9.21 127.879 9.804L127.879 10.486 128.671 10.486 128.671 11.223 127.879 11.223zM133.632 11.322L133.632 10.486 134.468 10.486 134.468 15.557 133.632 15.557 133.632 14.578C133.126 15.337 132.554 15.678 131.784 15.678 130.387 15.678 129.397 14.578 129.397 13.038 129.397 11.487 130.409 10.365 131.806 10.365 132.576 10.365 133.137 10.662 133.632 11.322zM131.927 11.113C131.377 11.113 130.992 11.3 130.695 11.718 130.431 12.081 130.277 12.565 130.277 13.06 130.277 14.138 130.981 14.952 131.905 14.952 132.862 14.952 133.643 14.061 133.643 12.972 133.643 11.872 132.939 11.113 131.927 11.113zM139.099 10.486L139.946 10.486 139.946 13.731C139.946 14.424 139.814 14.809 139.44 15.15 139.066 15.491 138.549 15.678 137.977 15.678 137.405 15.678 136.877 15.48 136.514 15.139 136.173 14.809 136.008 14.347 136.008 13.731L136.008 10.486 136.844 10.486 136.844 13.709C136.844 14.424 137.306 14.93 137.977 14.93 138.329 14.93 138.67 14.787 138.879 14.545 139.044 14.347 139.099 14.138 139.099 13.731L139.099 10.486zM142.322 15.557L141.486 15.557 141.486 8.22 142.322 8.22 142.322 15.557zM144.896 11.223L144.896 14.523C144.907 14.776 144.973 14.831 145.281 14.831L145.666 14.831 145.666 15.557 144.885 15.557C144.291 15.546 144.06 15.326 144.06 14.765L144.06 11.223 143.356 11.223 143.356 10.486 144.06 10.486 144.06 8.891 144.896 8.891 144.896 10.486 145.666 10.486 145.666 11.223 144.896 11.223zM153.432 8.088C154.455 8.088 155.434 8.55 156.138 9.353 156.732 10.046 156.996 10.86 156.996 11.96 156.996 13.104 156.556 14.127 155.753 14.809 155.093 15.381 154.257 15.689 153.41 15.689 152.321 15.689 151.254 15.172 150.572 14.314 150.066 13.676 149.802 12.851 149.802 11.927 149.802 9.738 151.353 8.088 153.432 8.088zM153.41 8.946C151.881 8.946 150.748 10.2 150.748 11.894 150.748 13.599 151.87 14.842 153.388 14.842 154.125 14.842 154.851 14.523 155.346 13.962 155.775 13.489 156.05 12.697 156.05 11.949 156.05 10.97 155.786 10.255 155.214 9.705 154.73 9.232 154.059 8.946 153.41 8.946zM159.152 14.688L159.152 15.557 158.316 15.557 158.316 8.22 159.152 8.22 159.152 11.355C159.658 10.662 160.197 10.365 160.934 10.365 162.353 10.365 163.343 11.465 163.343 13.038 163.343 14.589 162.364 15.678 160.978 15.678 160.197 15.678 159.647 15.381 159.152 14.688zM160.824 11.113C159.856 11.113 159.141 11.916 159.141 13.027 159.141 14.182 159.801 14.952 160.791 14.952 161.792 14.952 162.463 14.193 162.463 13.06 162.463 11.927 161.781 11.113 160.824 11.113zM167.798 11.872L166.962 11.872 166.962 11.817C166.962 11.344 166.577 11.047 165.994 11.047 165.433 11.047 165.081 11.333 165.081 11.773 165.081 12.213 165.301 12.378 166.214 12.631 166.863 12.807 167.204 12.972 167.446 13.214 167.699 13.467 167.853 13.83 167.853 14.204 167.853 15.084 167.127 15.678 166.049 15.678 164.894 15.678 164.245 15.139 164.157 14.116L164.982 14.116C165.037 14.688 165.411 14.996 166.049 14.996 166.621 14.996 166.995 14.699 166.995 14.248 166.995 13.808 166.709 13.588 165.84 13.368 164.74 13.071 164.245 12.609 164.245 11.839 164.245 10.959 164.96 10.365 166.027 10.365 167.105 10.365 167.754 10.915 167.798 11.872zM169.976 10.486L169.976 15.557 169.14 15.557 169.14 10.486 169.976 10.486zM169.569 8.517C169.866 8.517 170.097 8.759 170.097 9.067 170.097 9.364 169.855 9.595 169.558 9.595 169.261 9.595 169.03 9.364 169.03 9.056 169.03 8.748 169.261 8.517 169.569 8.517zM175.454 11.256L175.454 8.22 176.29 8.22 176.29 15.557 175.454 15.557 175.454 14.688C174.948 15.381 174.409 15.678 173.639 15.678 172.242 15.678 171.252 14.589 171.252 13.049 171.252 11.509 172.264 10.365 173.639 10.365 174.387 10.365 174.959 10.64 175.454 11.256zM173.815 11.113C172.814 11.113 172.132 11.905 172.132 13.06 172.132 14.171 172.803 14.952 173.76 14.952 174.739 14.952 175.454 14.138 175.454 13.038 175.454 11.894 174.783 11.113 173.815 11.113zM178.809 10.486L178.809 15.557 177.973 15.557 177.973 10.486 178.809 10.486zM178.402 8.517C178.699 8.517 178.93 8.759 178.93 9.067 178.93 9.364 178.688 9.595 178.391 9.595 178.094 9.595 177.863 9.364 177.863 9.056 177.863 8.748 178.094 8.517 178.402 8.517zM184.32 11.322L184.32 10.486 185.156 10.486 185.156 15.557 184.32 15.557 184.32 14.578C183.814 15.337 183.242 15.678 182.472 15.678 181.075 15.678 180.085 14.578 180.085 13.038 180.085 11.487 181.097 10.365 182.494 10.365 183.264 10.365 183.825 10.662 184.32 11.322zM182.615 11.113C182.065 11.113 181.68 11.3 181.383 11.718 181.119 12.081 180.965 12.565 180.965 13.06 180.965 14.138 181.669 14.952 182.593 14.952 183.55 14.952 184.331 14.061 184.331 12.972 184.331 11.872 183.627 11.113 182.615 11.113zM186.839 10.486L187.675 10.486 187.675 11.201C188.115 10.607 188.555 10.365 189.182 10.365 189.644 10.365 190.062 10.519 190.359 10.783 190.678 11.091 190.788 11.443 190.788 12.136L190.788 15.557 189.952 15.557 189.952 12.323C189.952 11.872 189.897 11.63 189.765 11.454 189.611 11.245 189.314 11.113 188.973 11.113 188.599 11.113 188.258 11.256 188.005 11.542 187.763 11.806 187.675 12.048 187.675 12.466L187.675 15.557 186.839 15.557 186.839 10.486zM193.604 14.754L196.189 14.754 196.189 15.557 192.075 15.557 194.627 11.905C195.364 10.838 195.529 10.508 195.529 10.068 195.529 9.43 195.023 8.979 194.308 8.979 193.813 8.979 193.406 9.21 193.241 9.595 193.153 9.804 193.12 9.969 193.109 10.354L192.284 10.354C192.328 8.957 193.065 8.187 194.374 8.187 195.573 8.187 196.409 8.935 196.409 10.002 196.409 10.618 196.189 11.157 195.573 12.015L193.604 14.754zM197.487 8.528L198.037 8C199.346 9.606 199.929 11.146 199.929 12.994 199.929 14.897 199.236 16.745 198.015 18.131L197.487 17.581C198.598 16.206 199.148 14.677 199.148 13.027 199.148 11.41 198.565 9.826 197.487 8.528z"/>
      </g>
      <g transform="translate(467 151)">
        <rect width="23" height="23" x=".5" y=".5" stroke="#00AB9A" rx="2"/>
        <path fill="#00AB9A" fill-rule="nonzero" d="M10.4655 14.306L7.1765 14.306 6.5055 16 5.5485 16 8.3095 8.663 9.4095 8.663 12.1045 16 11.0705 16 10.4655 14.306zM10.1795 13.514L8.8375 9.829 7.4515 13.514 10.1795 13.514zM16.8235 11.765L16.8235 10.929 17.6595 10.929 17.6595 16 16.8235 16 16.8235 15.021C16.3175 15.78 15.7455 16.121 14.9755 16.121 13.5785 16.121 12.5885 15.021 12.5885 13.481 12.5885 11.93 13.6005 10.808 14.9975 10.808 15.7675 10.808 16.3285 11.105 16.8235 11.765zM15.1185 11.556C14.5685 11.556 14.1835 11.743 13.8865 12.161 13.6225 12.524 13.4685 13.008 13.4685 13.503 13.4685 14.581 14.1725 15.395 15.0965 15.395 16.0535 15.395 16.8345 14.504 16.8345 13.415 16.8345 12.315 16.1305 11.556 15.1185 11.556zM29.924 9.012L29.924 11.465 32.784 11.465 32.784 12.257 29.924 12.257 29.924 15.557 29 15.557 29 8.22 32.784 8.22 32.784 9.012 29.924 9.012zM36.128 10.365C37.624 10.365 38.691 11.476 38.691 13.038 38.691 14.523 37.547 15.678 36.095 15.678 34.588 15.678 33.532 14.578 33.532 13.016 33.532 11.443 34.588 10.365 36.128 10.365zM36.128 11.135C35.083 11.135 34.39 11.894 34.39 13.027 34.39 14.149 35.083 14.908 36.117 14.908 37.118 14.908 37.833 14.127 37.833 13.027 37.833 11.894 37.151 11.135 36.128 11.135zM42.156 10.365C43.652 10.365 44.719 11.476 44.719 13.038 44.719 14.523 43.575 15.678 42.123 15.678 40.616 15.678 39.56 14.578 39.56 13.016 39.56 11.443 40.616 10.365 42.156 10.365zM42.156 11.135C41.111 11.135 40.418 11.894 40.418 13.027 40.418 14.149 41.111 14.908 42.145 14.908 43.146 14.908 43.861 14.127 43.861 13.027 43.861 11.894 43.179 11.135 42.156 11.135zM46.886 11.223L46.886 14.523C46.897 14.776 46.963 14.831 47.271 14.831L47.656 14.831 47.656 15.557 46.875 15.557C46.281 15.546 46.05 15.326 46.05 14.765L46.05 11.223 45.346 11.223 45.346 10.486 46.05 10.486 46.05 8.891 46.886 8.891 46.886 10.486 47.656 10.486 47.656 11.223 46.886 11.223zM48.844 10.486L49.68 10.486 49.68 11.201C50.12 10.607 50.56 10.365 51.187 10.365 51.649 10.365 52.067 10.519 52.364 10.783 52.683 11.091 52.793 11.443 52.793 12.136L52.793 15.557 51.957 15.557 51.957 12.323C51.957 11.872 51.902 11.63 51.77 11.454 51.616 11.245 51.319 11.113 50.978 11.113 50.604 11.113 50.263 11.256 50.01 11.542 49.768 11.806 49.68 12.048 49.68 12.466L49.68 15.557 48.844 15.557 48.844 10.486zM56.632 10.365C58.128 10.365 59.195 11.476 59.195 13.038 59.195 14.523 58.051 15.678 56.599 15.678 55.092 15.678 54.036 14.578 54.036 13.016 54.036 11.443 55.092 10.365 56.632 10.365zM56.632 11.135C55.587 11.135 54.894 11.894 54.894 13.027 54.894 14.149 55.587 14.908 56.621 14.908 57.622 14.908 58.337 14.127 58.337 13.027 58.337 11.894 57.655 11.135 56.632 11.135zM61.362 11.223L61.362 14.523C61.373 14.776 61.439 14.831 61.747 14.831L62.132 14.831 62.132 15.557 61.351 15.557C60.757 15.546 60.526 15.326 60.526 14.765L60.526 11.223 59.822 11.223 59.822 10.486 60.526 10.486 60.526 8.891 61.362 8.891 61.362 10.486 62.132 10.486 62.132 11.223 61.362 11.223zM68.028 13.291L63.804 13.291C63.848 13.72 63.925 13.94 64.134 14.215 64.464 14.666 64.948 14.908 65.498 14.908 66.125 14.908 66.719 14.567 67.016 14.039L67.753 14.314C67.335 15.161 66.466 15.678 65.498 15.678 63.991 15.678 62.913 14.578 62.913 13.038 62.913 11.476 63.98 10.365 65.465 10.365 66.939 10.365 68.039 11.476 68.039 12.961 68.039 13.027 68.039 13.17 68.028 13.291zM63.815 12.675L67.148 12.675C67.115 12.279 67.038 12.059 66.862 11.806 66.543 11.377 66.026 11.113 65.465 11.113 64.904 11.113 64.398 11.377 64.101 11.817 63.947 12.059 63.881 12.268 63.815 12.675zM72.131 13.588L73.011 13.588C73.055 14.424 73.506 14.864 74.309 14.864 75.134 14.864 75.717 14.358 75.717 13.621 75.717 12.983 75.387 12.686 74.232 12.301 73.363 12.004 73.077 11.861 72.747 11.564 72.373 11.223 72.175 10.739 72.175 10.178 72.175 8.935 73.066 8.088 74.364 8.088 75.662 8.088 76.509 8.913 76.542 10.189L75.618 10.189C75.607 9.815 75.563 9.639 75.442 9.43 75.233 9.111 74.826 8.913 74.353 8.913 73.627 8.913 73.11 9.408 73.11 10.112 73.11 10.464 73.264 10.772 73.528 10.959 73.759 11.124 73.957 11.212 74.705 11.476 75.486 11.751 75.86 11.949 76.157 12.268 76.476 12.609 76.652 13.071 76.652 13.566 76.652 14.831 75.717 15.689 74.342 15.689 73.407 15.689 72.769 15.359 72.384 14.699 72.208 14.402 72.131 14.094 72.131 13.742L72.131 13.588zM82.647 13.291L78.423 13.291C78.467 13.72 78.544 13.94 78.753 14.215 79.083 14.666 79.567 14.908 80.117 14.908 80.744 14.908 81.338 14.567 81.635 14.039L82.372 14.314C81.954 15.161 81.085 15.678 80.117 15.678 78.61 15.678 77.532 14.578 77.532 13.038 77.532 11.476 78.599 10.365 80.084 10.365 81.558 10.365 82.658 11.476 82.658 12.961 82.658 13.027 82.658 13.17 82.647 13.291zM78.434 12.675L81.767 12.675C81.734 12.279 81.657 12.059 81.481 11.806 81.162 11.377 80.645 11.113 80.084 11.113 79.523 11.113 79.017 11.377 78.72 11.817 78.566 12.059 78.5 12.268 78.434 12.675zM83.868 10.486L84.704 10.486 84.704 11.19C85.089 10.607 85.518 10.365 86.145 10.365 86.838 10.365 87.278 10.662 87.509 11.289 87.883 10.64 88.356 10.365 89.115 10.365 89.698 10.365 90.138 10.552 90.402 10.904 90.644 11.223 90.71 11.509 90.71 12.312L90.71 15.557 89.874 15.557 89.874 12.51C89.874 11.894 89.852 11.751 89.731 11.542 89.577 11.278 89.247 11.113 88.851 11.113 88.114 11.113 87.707 11.608 87.707 12.51L87.707 15.557 86.871 15.557 86.871 12.521C86.871 12.026 86.827 11.773 86.706 11.553 86.563 11.267 86.255 11.113 85.881 11.113 85.144 11.113 84.704 11.641 84.704 12.521L84.704 15.557 83.868 15.557 83.868 10.486zM93.196 10.486L93.196 15.557 92.36 15.557 92.36 10.486 93.196 10.486zM92.789 8.517C93.086 8.517 93.317 8.759 93.317 9.067 93.317 9.364 93.075 9.595 92.778 9.595 92.481 9.595 92.25 9.364 92.25 9.056 92.25 8.748 92.481 8.517 92.789 8.517zM95.715 14.688L95.715 15.557 94.879 15.557 94.879 8.22 95.715 8.22 95.715 11.355C96.221 10.662 96.76 10.365 97.497 10.365 98.916 10.365 99.906 11.465 99.906 13.038 99.906 14.589 98.927 15.678 97.541 15.678 96.76 15.678 96.21 15.381 95.715 14.688zM97.387 11.113C96.419 11.113 95.704 11.916 95.704 13.027 95.704 14.182 96.364 14.952 97.354 14.952 98.355 14.952 99.026 14.193 99.026 13.06 99.026 11.927 98.344 11.113 97.387 11.113zM103.371 10.365C104.867 10.365 105.934 11.476 105.934 13.038 105.934 14.523 104.79 15.678 103.338 15.678 101.831 15.678 100.775 14.578 100.775 13.016 100.775 11.443 101.831 10.365 103.371 10.365zM103.371 11.135C102.326 11.135 101.633 11.894 101.633 13.027 101.633 14.149 102.326 14.908 103.36 14.908 104.361 14.908 105.076 14.127 105.076 13.027 105.076 11.894 104.394 11.135 103.371 11.135zM108.046 15.557L107.21 15.557 107.21 8.22 108.046 8.22 108.046 15.557zM113.524 11.256L113.524 8.22 114.36 8.22 114.36 15.557 113.524 15.557 113.524 14.688C113.018 15.381 112.479 15.678 111.709 15.678 110.312 15.678 109.322 14.589 109.322 13.049 109.322 11.509 110.334 10.365 111.709 10.365 112.457 10.365 113.029 10.64 113.524 11.256zM111.885 11.113C110.884 11.113 110.202 11.905 110.202 13.06 110.202 14.171 110.873 14.952 111.83 14.952 112.809 14.952 113.524 14.138 113.524 13.038 113.524 11.894 112.853 11.113 111.885 11.113zM117.506 10.365L116.736 11.41 116.296 11.08 117.077 10.046 115.845 9.65 116.01 9.144 117.242 9.507 117.242 8.242 117.77 8.242 117.77 9.507 119.024 9.111 119.2 9.628 117.913 10.046 118.705 11.08 118.298 11.41 117.506 10.365zM126.075 17.603L125.525 18.131C124.227 16.536 123.633 14.985 123.633 13.137 123.633 11.245 124.326 9.375 125.547 8L126.075 8.55C124.964 9.925 124.414 11.454 124.414 13.104 124.414 14.71 125.008 16.316 126.075 17.603zM127.384 15.557L127.384 8.22 129.331 8.22C131.542 8.22 132.873 9.562 132.873 11.773 132.873 13.016 132.466 14.039 131.718 14.71 131.08 15.282 130.233 15.557 129.166 15.557L127.384 15.557zM128.308 9.001L128.308 14.765 128.638 14.765C129.881 14.765 130.409 14.633 130.937 14.215 131.597 13.687 131.927 12.873 131.927 11.784 131.927 10.013 130.981 9.001 129.298 9.001L128.308 9.001zM138.901 13.291L134.677 13.291C134.721 13.72 134.798 13.94 135.007 14.215 135.337 14.666 135.821 14.908 136.371 14.908 136.998 14.908 137.592 14.567 137.889 14.039L138.626 14.314C138.208 15.161 137.339 15.678 136.371 15.678 134.864 15.678 133.786 14.578 133.786 13.038 133.786 11.476 134.853 10.365 136.338 10.365 137.812 10.365 138.912 11.476 138.912 12.961 138.912 13.027 138.912 13.17 138.901 13.291zM134.688 12.675L138.021 12.675C137.988 12.279 137.911 12.059 137.735 11.806 137.416 11.377 136.899 11.113 136.338 11.113 135.777 11.113 135.271 11.377 134.974 11.817 134.82 12.059 134.754 12.268 134.688 12.675zM141.046 11.223L141.046 15.557 140.21 15.557 140.21 11.223 139.517 11.223 139.517 10.486 140.21 10.486 140.21 9.804C140.21 8.803 140.727 8.209 141.607 8.209 141.651 8.209 141.75 8.209 141.838 8.22L141.838 8.968C141.233 9.034 141.068 9.21 141.046 9.804L141.046 10.486 141.838 10.486 141.838 11.223 141.046 11.223zM146.799 11.322L146.799 10.486 147.635 10.486 147.635 15.557 146.799 15.557 146.799 14.578C146.293 15.337 145.721 15.678 144.951 15.678 143.554 15.678 142.564 14.578 142.564 13.038 142.564 11.487 143.576 10.365 144.973 10.365 145.743 10.365 146.304 10.662 146.799 11.322zM145.094 11.113C144.544 11.113 144.159 11.3 143.862 11.718 143.598 12.081 143.444 12.565 143.444 13.06 143.444 14.138 144.148 14.952 145.072 14.952 146.029 14.952 146.81 14.061 146.81 12.972 146.81 11.872 146.106 11.113 145.094 11.113zM152.266 10.486L153.113 10.486 153.113 13.731C153.113 14.424 152.981 14.809 152.607 15.15 152.233 15.491 151.716 15.678 151.144 15.678 150.572 15.678 150.044 15.48 149.681 15.139 149.34 14.809 149.175 14.347 149.175 13.731L149.175 10.486 150.011 10.486 150.011 13.709C150.011 14.424 150.473 14.93 151.144 14.93 151.496 14.93 151.837 14.787 152.046 14.545 152.211 14.347 152.266 14.138 152.266 13.731L152.266 10.486zM155.489 15.557L154.653 15.557 154.653 8.22 155.489 8.22 155.489 15.557zM158.063 11.223L158.063 14.523C158.074 14.776 158.14 14.831 158.448 14.831L158.833 14.831 158.833 15.557 158.052 15.557C157.458 15.546 157.227 15.326 157.227 14.765L157.227 11.223 156.523 11.223 156.523 10.486 157.227 10.486 157.227 8.891 158.063 8.891 158.063 10.486 158.833 10.486 158.833 11.223 158.063 11.223zM166.599 8.088C167.622 8.088 168.601 8.55 169.305 9.353 169.899 10.046 170.163 10.86 170.163 11.96 170.163 13.104 169.723 14.127 168.92 14.809 168.26 15.381 167.424 15.689 166.577 15.689 165.488 15.689 164.421 15.172 163.739 14.314 163.233 13.676 162.969 12.851 162.969 11.927 162.969 9.738 164.52 8.088 166.599 8.088zM166.577 8.946C165.048 8.946 163.915 10.2 163.915 11.894 163.915 13.599 165.037 14.842 166.555 14.842 167.292 14.842 168.018 14.523 168.513 13.962 168.942 13.489 169.217 12.697 169.217 11.949 169.217 10.97 168.953 10.255 168.381 9.705 167.897 9.232 167.226 8.946 166.577 8.946zM172.319 14.688L172.319 15.557 171.483 15.557 171.483 8.22 172.319 8.22 172.319 11.355C172.825 10.662 173.364 10.365 174.101 10.365 175.52 10.365 176.51 11.465 176.51 13.038 176.51 14.589 175.531 15.678 174.145 15.678 173.364 15.678 172.814 15.381 172.319 14.688zM173.991 11.113C173.023 11.113 172.308 11.916 172.308 13.027 172.308 14.182 172.968 14.952 173.958 14.952 174.959 14.952 175.63 14.193 175.63 13.06 175.63 11.927 174.948 11.113 173.991 11.113zM180.965 11.872L180.129 11.872 180.129 11.817C180.129 11.344 179.744 11.047 179.161 11.047 178.6 11.047 178.248 11.333 178.248 11.773 178.248 12.213 178.468 12.378 179.381 12.631 180.03 12.807 180.371 12.972 180.613 13.214 180.866 13.467 181.02 13.83 181.02 14.204 181.02 15.084 180.294 15.678 179.216 15.678 178.061 15.678 177.412 15.139 177.324 14.116L178.149 14.116C178.204 14.688 178.578 14.996 179.216 14.996 179.788 14.996 180.162 14.699 180.162 14.248 180.162 13.808 179.876 13.588 179.007 13.368 177.907 13.071 177.412 12.609 177.412 11.839 177.412 10.959 178.127 10.365 179.194 10.365 180.272 10.365 180.921 10.915 180.965 11.872zM183.143 10.486L183.143 15.557 182.307 15.557 182.307 10.486 183.143 10.486zM182.736 8.517C183.033 8.517 183.264 8.759 183.264 9.067 183.264 9.364 183.022 9.595 182.725 9.595 182.428 9.595 182.197 9.364 182.197 9.056 182.197 8.748 182.428 8.517 182.736 8.517zM188.621 11.256L188.621 8.22 189.457 8.22 189.457 15.557 188.621 15.557 188.621 14.688C188.115 15.381 187.576 15.678 186.806 15.678 185.409 15.678 184.419 14.589 184.419 13.049 184.419 11.509 185.431 10.365 186.806 10.365 187.554 10.365 188.126 10.64 188.621 11.256zM186.982 11.113C185.981 11.113 185.299 11.905 185.299 13.06 185.299 14.171 185.97 14.952 186.927 14.952 187.906 14.952 188.621 14.138 188.621 13.038 188.621 11.894 187.95 11.113 186.982 11.113zM191.976 10.486L191.976 15.557 191.14 15.557 191.14 10.486 191.976 10.486zM191.569 8.517C191.866 8.517 192.097 8.759 192.097 9.067 192.097 9.364 191.855 9.595 191.558 9.595 191.261 9.595 191.03 9.364 191.03 9.056 191.03 8.748 191.261 8.517 191.569 8.517zM197.487 11.322L197.487 10.486 198.323 10.486 198.323 15.557 197.487 15.557 197.487 14.578C196.981 15.337 196.409 15.678 195.639 15.678 194.242 15.678 193.252 14.578 193.252 13.038 193.252 11.487 194.264 10.365 195.661 10.365 196.431 10.365 196.992 10.662 197.487 11.322zM195.782 11.113C195.232 11.113 194.847 11.3 194.55 11.718 194.286 12.081 194.132 12.565 194.132 13.06 194.132 14.138 194.836 14.952 195.76 14.952 196.717 14.952 197.498 14.061 197.498 12.972 197.498 11.872 196.794 11.113 195.782 11.113zM200.006 10.486L200.842 10.486 200.842 11.201C201.282 10.607 201.722 10.365 202.349 10.365 202.811 10.365 203.229 10.519 203.526 10.783 203.845 11.091 203.955 11.443 203.955 12.136L203.955 15.557 203.119 15.557 203.119 12.323C203.119 11.872 203.064 11.63 202.932 11.454 202.778 11.245 202.481 11.113 202.14 11.113 201.766 11.113 201.425 11.256 201.172 11.542 200.93 11.806 200.842 12.048 200.842 12.466L200.842 15.557 200.006 15.557 200.006 10.486zM206.771 14.754L209.356 14.754 209.356 15.557 205.242 15.557 207.794 11.905C208.531 10.838 208.696 10.508 208.696 10.068 208.696 9.43 208.19 8.979 207.475 8.979 206.98 8.979 206.573 9.21 206.408 9.595 206.32 9.804 206.287 9.969 206.276 10.354L205.451 10.354C205.495 8.957 206.232 8.187 207.541 8.187 208.74 8.187 209.576 8.935 209.576 10.002 209.576 10.618 209.356 11.157 208.74 12.015L206.771 14.754zM210.654 8.528L211.204 8C212.513 9.606 213.096 11.146 213.096 12.994 213.096 14.897 212.403 16.745 211.182 18.131L210.654 17.581C211.765 16.206 212.315 14.677 212.315 13.027 212.315 11.41 211.732 9.826 210.654 8.528z"/>
      </g>
    </g>
  </g>
</svg>
