<svg xmlns="http://www.w3.org/2000/svg" width="300" height="180" viewBox="0 0 300 180">
  <g fill="none" fill-rule="evenodd">
    <rect width="300" height="180" fill="#FFF" fill-opacity=".01" fill-rule="nonzero"/>
    <g transform="translate(30 50)">
      <g transform="translate(0 37)">
        <rect width="240" height="48" fill="#314351" rx="8"/>
        <path fill="#FFF" fill-rule="nonzero" d="M43.7991308,19.6572266 L43.7991308,23.8491211 L46.4719824,23.8491211 C47.9080175,23.8491211 48.7380957,23.0854492 48.7380957,21.7490234 C48.7380957,20.4458008 47.8582129,19.6572266 46.4221777,19.6572266 L43.7991308,19.6572266 Z M43.7991308,25.4345703 L43.7991308,30 L41.9397558,30 L41.9397558,18.0219727 L46.6795019,18.0219727 C49.0950293,18.0219727 50.6472754,19.4580078 50.6472754,21.7075195 C50.6472754,23.3178711 49.7839941,24.6293945 48.3230566,25.1274414 L51.0125097,30 L48.8626074,30 L46.4221777,25.4345703 L43.7991308,25.4345703 Z M56.1225293,22.3051758 C54.802705,22.3051758 53.8813183,23.2348633 53.781709,24.6459961 L58.3471386,24.6459961 C58.3056347,23.2265625 57.4423535,22.3051758 56.1225293,22.3051758 Z M58.3388379,27.5595703 L60.0570996,27.5595703 C59.6503613,29.1782227 58.2060254,30.1743164 56.1391308,30.1743164 C53.5492871,30.1743164 51.9638379,28.3979492 51.9638379,25.5092773 C51.9638379,22.6206055 53.5824902,20.7861328 56.13083,20.7861328 C58.6459668,20.7861328 60.1650097,22.5043945 60.1650097,25.3432617 L60.1650097,25.9658203 L53.781709,25.9658203 L53.781709,26.0654297 C53.8398144,27.6508789 54.7612011,28.6552734 56.1889355,28.6552734 C57.2680371,28.6552734 58.0068066,28.2651367 58.3388379,27.5595703 Z M61.8966113,30 L61.8966113,20.9604492 L63.614873,20.9604492 L63.614873,22.4130859 L63.7476855,22.4130859 C64.146123,21.3920898 65.059209,20.7861328 66.2628222,20.7861328 C67.4996386,20.7861328 68.3546191,21.425293 68.7530566,22.4130859 L68.8941699,22.4130859 C69.3507129,21.425293 70.3883105,20.7861328 71.6417285,20.7861328 C73.4679004,20.7861328 74.5304004,21.8901367 74.5304004,23.7744141 L74.5304004,30 L72.7457324,30 L72.7457324,24.2392578 C72.7457324,23.019043 72.1646777,22.4213867 70.9942676,22.4213867 C69.840459,22.4213867 69.0850879,23.2514648 69.0850879,24.3139648 L69.0850879,30 L67.333623,30 L67.333623,24.0649414 C67.333623,23.0439453 66.652959,22.4213867 65.590459,22.4213867 C64.5030566,22.4213867 63.6812793,23.3095703 63.6812793,24.4716797 L63.6812793,30 L61.8966113,30 Z M80.4455957,30.1743164 C77.7976465,30.1743164 76.1789941,28.40625 76.1789941,25.4760742 C76.1789941,22.5625 77.8059472,20.7861328 80.4455957,20.7861328 C83.0769433,20.7861328 84.7038965,22.5625 84.7038965,25.4760742 C84.7038965,28.40625 83.0852441,30.1743164 80.4455957,30.1743164 Z M80.4455957,28.5888672 C81.989541,28.5888672 82.8694238,27.4433594 82.8694238,25.4760742 C82.8694238,23.5170898 81.989541,22.371582 80.4455957,22.371582 C78.8933496,22.371582 78.0217676,23.5170898 78.0217676,25.4760742 C78.0217676,27.4516602 78.8933496,28.5888672 80.4455957,28.5888672 Z M93.7401855,20.9604492 L90.4862793,30 L88.5687988,30 L85.3065918,20.9604492 L87.2157715,20.9604492 L89.4652832,28.0908203 L89.6063965,28.0908203 L91.8476074,20.9604492 L93.7401855,20.9604492 Z M98.5015723,22.3051758 C97.181748,22.3051758 96.2603613,23.2348633 96.1607519,24.6459961 L100.726182,24.6459961 C100.684678,23.2265625 99.8213965,22.3051758 98.5015723,22.3051758 Z M100.717881,27.5595703 L102.436143,27.5595703 C102.029404,29.1782227 100.585068,30.1743164 98.5181738,30.1743164 C95.9283301,30.1743164 94.3428808,28.3979492 94.3428808,25.5092773 C94.3428808,22.6206055 95.9615332,20.7861328 98.509873,20.7861328 C101.02501,20.7861328 102.544053,22.5043945 102.544053,25.3432617 L102.544053,25.9658203 L96.1607519,25.9658203 L96.1607519,26.0654297 C96.2188574,27.6508789 97.1402441,28.6552734 98.5679785,28.6552734 C99.6470801,28.6552734 100.38585,28.2651367 100.717881,27.5595703 Z M109.153252,30 L109.153252,22.5043945 L107.667412,22.5043945 L107.667412,21.0019531 L109.153252,21.0019531 L109.153252,20.0307617 C109.153252,18.237793 110.066338,17.3496094 111.942314,17.3496094 C112.349053,17.3496094 112.697686,17.3828125 113.004814,17.440918 L113.004814,18.84375 C112.838799,18.8105469 112.598076,18.7939453 112.31585,18.7939453 C111.319756,18.7939453 110.913018,19.2421875 110.913018,20.1386719 L110.913018,21.0019531 L112.930107,21.0019531 L112.930107,22.5043945 L110.93792,22.5043945 L110.93792,30 L109.153252,30 Z M114.537197,30 L114.537197,20.9604492 L116.255459,20.9604492 L116.255459,22.3466797 L116.388271,22.3466797 C116.645596,21.4584961 117.64999,20.8110352 118.828701,20.8110352 C119.094326,20.8110352 119.434658,20.8359375 119.625576,20.8857422 L119.625576,22.6455078 C119.476162,22.5957031 118.944912,22.5375977 118.629482,22.5375977 C117.276455,22.5375977 116.321865,23.3925781 116.321865,24.6625977 L116.321865,30 L114.537197,30 Z M124.519775,30.1743164 C121.871826,30.1743164 120.253174,28.40625 120.253174,25.4760742 C120.253174,22.5625 121.880127,20.7861328 124.519775,20.7861328 C127.151123,20.7861328 128.778076,22.5625 128.778076,25.4760742 C128.778076,28.40625 127.159424,30.1743164 124.519775,30.1743164 Z M124.519775,28.5888672 C126.063721,28.5888672 126.943604,27.4433594 126.943604,25.4760742 C126.943604,23.5170898 126.063721,22.371582 124.519775,22.371582 C122.967529,22.371582 122.095947,23.5170898 122.095947,25.4760742 C122.095947,27.4516602 122.967529,28.5888672 124.519775,28.5888672 Z M130.509678,30 L130.509678,20.9604492 L132.227939,20.9604492 L132.227939,22.4130859 L132.360752,22.4130859 C132.759189,21.3920898 133.672275,20.7861328 134.875889,20.7861328 C136.112705,20.7861328 136.967686,21.425293 137.366123,22.4130859 L137.507236,22.4130859 C137.963779,21.425293 139.001377,20.7861328 140.254795,20.7861328 C142.080967,20.7861328 143.143467,21.8901367 143.143467,23.7744141 L143.143467,30 L141.358799,30 L141.358799,24.2392578 C141.358799,23.019043 140.777744,22.4213867 139.607334,22.4213867 C138.453525,22.4213867 137.698154,23.2514648 137.698154,24.3139648 L137.698154,30 L135.946689,30 L135.946689,24.0649414 C135.946689,23.0439453 135.266025,22.4213867 134.203525,22.4213867 C133.116123,22.4213867 132.294346,23.3095703 132.294346,24.4716797 L132.294346,30 L130.509678,30 Z M152.782451,30.1494141 C150.483135,30.1494141 149.030498,28.3398438 149.030498,25.4760742 C149.030498,22.6206055 150.499736,20.8110352 152.782451,20.8110352 C154.019268,20.8110352 155.065166,21.4003906 155.554912,22.3964844 L155.687725,22.3964844 L155.687725,17.4326172 L157.472393,17.4326172 L157.472393,30 L155.762432,30 L155.762432,28.5722656 L155.621318,28.5722656 C155.081768,29.5600586 154.027568,30.1494141 152.782451,30.1494141 Z M153.288799,22.4130859 C151.786357,22.4130859 150.873271,23.5751953 150.873271,25.4760742 C150.873271,27.3935547 151.778057,28.5473633 153.288799,28.5473633 C154.79124,28.5473633 155.720928,27.3769531 155.720928,25.484375 C155.720928,23.6000977 154.782939,22.4130859 153.288799,22.4130859 Z M163.445693,22.3051758 C162.125869,22.3051758 161.204482,23.2348633 161.104873,24.6459961 L165.670303,24.6459961 C165.628799,23.2265625 164.765518,22.3051758 163.445693,22.3051758 Z M165.662002,27.5595703 L167.380264,27.5595703 C166.973525,29.1782227 165.529189,30.1743164 163.462295,30.1743164 C160.872451,30.1743164 159.287002,28.3979492 159.287002,25.5092773 C159.287002,22.6206055 160.905654,20.7861328 163.453994,20.7861328 C165.969131,20.7861328 167.488174,22.5043945 167.488174,25.3432617 L167.488174,25.9658203 L161.104873,25.9658203 L161.104873,26.0654297 C161.162979,27.6508789 162.084365,28.6552734 163.5121,28.6552734 C164.591201,28.6552734 165.329971,28.2651367 165.662002,27.5595703 Z M176.673877,20.9604492 L173.419971,30 L171.50249,30 L168.240283,20.9604492 L170.149463,20.9604492 L172.398975,28.0908203 L172.540088,28.0908203 L174.781299,20.9604492 L176.673877,20.9604492 Z M178.10665,30 L178.10665,20.9604492 L179.883018,20.9604492 L179.883018,30 L178.10665,30 Z M178.994834,19.375 C178.330772,19.375 177.841025,18.9018555 177.841025,18.2875977 C177.841025,17.6650391 178.330772,17.1918945 178.994834,17.1918945 C179.658897,17.1918945 180.148643,17.6650391 180.148643,18.2875977 C180.148643,18.9018555 179.658897,19.375 178.994834,19.375 Z M189.749385,23.9155273 L188.014522,23.9155273 C187.807002,23.0356445 187.076533,22.3798828 185.881221,22.3798828 C184.38708,22.3798828 183.473994,23.5253906 183.473994,25.4511719 C183.473994,27.4101562 184.395381,28.5805664 185.881221,28.5805664 C187.010127,28.5805664 187.7821,28.065918 188.014522,27.0947266 L189.749385,27.0947266 C189.516963,28.9125977 188.122432,30.1743164 185.889522,30.1743164 C183.258174,30.1743164 181.647822,28.3979492 181.647822,25.4511719 C181.647822,22.5541992 183.249873,20.7861328 185.881221,20.7861328 C188.147334,20.7861328 189.516963,22.105957 189.749385,23.9155273 Z M195.083525,22.3051758 C193.763701,22.3051758 192.842314,23.2348633 192.742705,24.6459961 L197.308135,24.6459961 C197.266631,23.2265625 196.40335,22.3051758 195.083525,22.3051758 Z M197.299834,27.5595703 L199.018096,27.5595703 C198.611357,29.1782227 197.167022,30.1743164 195.100127,30.1743164 C192.510283,30.1743164 190.924834,28.3979492 190.924834,25.5092773 C190.924834,22.6206055 192.543486,20.7861328 195.091826,20.7861328 C197.606963,20.7861328 199.126006,22.5043945 199.126006,25.3432617 L199.126006,25.9658203 L192.742705,25.9658203 L192.742705,26.0654297 C192.800811,27.6508789 193.722197,28.6552734 195.149932,28.6552734 C196.229033,28.6552734 196.967803,28.2651367 197.299834,27.5595703 Z"/>
      </g>
      <path fill="#C8226C" fill-rule="nonzero" d="M45.539,8.993 L41,8.993 L41,7.939 L46.848,0.051 L46.848,7.769 L48.174,7.769 L48.174,8.993 L46.848,8.993 L46.848,11.543 L45.539,11.543 L45.539,8.993 Z M45.539,7.769 L45.539,3.434 L42.36,7.769 L45.539,7.769 Z M54.447,5.389 C55.093,5.593 55.399,5.746 55.756,6.12 C56.317,6.681 56.606,7.429 56.606,8.313 C56.606,10.319 55.127,11.747 53.053,11.747 C50.996,11.747 49.551,10.37 49.551,8.432 C49.551,7.531 49.857,6.715 50.401,6.154 C50.758,5.78 51.047,5.61 51.727,5.389 C51.132,5.185 50.877,5.015 50.571,4.641 C50.197,4.182 49.993,3.604 49.993,2.975 C49.993,1.36 51.319,0.17 53.121,0.17 C54.906,0.17 56.198,1.343 56.198,2.958 C56.198,3.604 55.977,4.216 55.569,4.692 C55.263,5.032 55.025,5.185 54.447,5.389 Z M53.121,1.36 C52.033,1.36 51.285,2.04 51.285,2.992 C51.285,3.961 52.084,4.726 53.087,4.726 C54.056,4.726 54.923,3.927 54.923,3.009 C54.923,2.125 54.09,1.36 53.121,1.36 Z M53.104,6.103 C51.88,6.103 50.894,7.072 50.894,8.296 C50.894,9.503 51.863,10.489 53.07,10.489 C54.277,10.489 55.246,9.503 55.246,8.296 C55.246,7.106 54.277,6.103 53.104,6.103 Z M58.629,3.706 L59.921,3.706 L59.921,5.134 C60.669,3.978 61.468,3.519 62.777,3.519 C64.953,3.519 66.466,5.185 66.466,7.565 C66.466,10.03 64.953,11.73 62.777,11.73 C62.165,11.73 61.604,11.594 61.06,11.322 C60.584,11.084 60.346,10.88 59.921,10.319 L59.921,15.215 L58.629,15.215 L58.629,3.706 Z M62.556,4.675 C60.992,4.675 59.921,5.916 59.921,7.752 C59.921,9.469 60.958,10.608 62.505,10.608 C64.052,10.608 65.089,9.401 65.089,7.616 C65.089,6.698 64.868,6.001 64.409,5.491 C63.95,4.981 63.253,4.675 62.556,4.675 Z M70.92,8.704 L68.829,11.543 L67.248,11.543 L70.138,7.65 L67.197,3.706 L68.829,3.706 L70.92,6.579 L73.062,3.706 L74.643,3.706 L71.685,7.65 L74.507,11.543 L72.926,11.543 L70.92,8.704 Z M76.972,9.911 C77.482,9.911 77.856,10.285 77.856,10.812 C77.856,11.305 77.465,11.679 76.972,11.679 C76.462,11.679 76.088,11.305 76.088,10.795 C76.088,10.285 76.462,9.911 76.972,9.911 Z M76.972,5.015 C77.482,5.015 77.856,5.389 77.856,5.916 C77.856,6.409 77.465,6.783 76.972,6.783 C76.462,6.783 76.088,6.409 76.088,5.899 C76.088,5.389 76.462,5.015 76.972,5.015 Z M84.69,8.5 L86.05,8.5 C86.118,9.792 86.815,10.472 88.056,10.472 C89.331,10.472 90.232,9.69 90.232,8.551 C90.232,7.565 89.722,7.106 87.937,6.511 C86.594,6.052 86.152,5.831 85.642,5.372 C85.064,4.845 84.758,4.097 84.758,3.23 C84.758,1.309 86.135,0 88.141,0 C90.147,0 91.456,1.275 91.507,3.247 L90.079,3.247 C90.062,2.669 89.994,2.397 89.807,2.074 C89.484,1.581 88.855,1.275 88.124,1.275 C87.002,1.275 86.203,2.04 86.203,3.128 C86.203,3.672 86.441,4.148 86.849,4.437 C87.206,4.692 87.512,4.828 88.668,5.236 C89.875,5.661 90.453,5.967 90.912,6.46 C91.405,6.987 91.677,7.701 91.677,8.466 C91.677,10.421 90.232,11.747 88.107,11.747 C86.662,11.747 85.676,11.237 85.081,10.217 C84.809,9.758 84.69,9.282 84.69,8.738 L84.69,8.5 Z M100.993,8.041 L94.465,8.041 C94.533,8.704 94.652,9.044 94.975,9.469 C95.485,10.166 96.233,10.54 97.083,10.54 C98.052,10.54 98.97,10.013 99.429,9.197 L100.568,9.622 C99.922,10.931 98.579,11.73 97.083,11.73 C94.754,11.73 93.088,10.03 93.088,7.65 C93.088,5.236 94.737,3.519 97.032,3.519 C99.31,3.519 101.01,5.236 101.01,7.531 C101.01,7.633 101.01,7.854 100.993,8.041 Z M94.482,7.089 L99.633,7.089 C99.582,6.477 99.463,6.137 99.191,5.746 C98.698,5.083 97.899,4.675 97.032,4.675 C96.165,4.675 95.383,5.083 94.924,5.763 C94.686,6.137 94.584,6.46 94.482,7.089 Z M102.88,3.706 L104.172,3.706 L104.172,4.811 C104.852,3.893 105.532,3.519 106.501,3.519 C107.215,3.519 107.861,3.757 108.32,4.165 C108.813,4.641 108.983,5.185 108.983,6.256 L108.983,11.543 L107.691,11.543 L107.691,6.545 C107.691,5.848 107.606,5.474 107.402,5.202 C107.164,4.879 106.705,4.675 106.178,4.675 C105.6,4.675 105.073,4.896 104.682,5.338 C104.308,5.746 104.172,6.12 104.172,6.766 L104.172,11.543 L102.88,11.543 L102.88,3.706 Z M112.91,4.845 L112.91,9.945 C112.927,10.336 113.029,10.421 113.505,10.421 L114.1,10.421 L114.1,11.543 L112.893,11.543 C111.975,11.526 111.618,11.186 111.618,10.319 L111.618,4.845 L110.53,4.845 L110.53,3.706 L111.618,3.706 L111.618,1.241 L112.91,1.241 L112.91,3.706 L114.1,3.706 L114.1,4.845 L112.91,4.845 Z M123.059,8.041 L116.531,8.041 C116.599,8.704 116.718,9.044 117.041,9.469 C117.551,10.166 118.299,10.54 119.149,10.54 C120.118,10.54 121.036,10.013 121.495,9.197 L122.634,9.622 C121.988,10.931 120.645,11.73 119.149,11.73 C116.82,11.73 115.154,10.03 115.154,7.65 C115.154,5.236 116.803,3.519 119.098,3.519 C121.376,3.519 123.076,5.236 123.076,7.531 C123.076,7.633 123.076,7.854 123.059,8.041 Z M116.548,7.089 L121.699,7.089 C121.648,6.477 121.529,6.137 121.257,5.746 C120.764,5.083 119.965,4.675 119.098,4.675 C118.231,4.675 117.449,5.083 116.99,5.763 C116.752,6.137 116.65,6.46 116.548,7.089 Z M124.946,3.706 L126.238,3.706 L126.238,4.811 C126.918,3.893 127.598,3.519 128.567,3.519 C129.281,3.519 129.927,3.757 130.386,4.165 C130.879,4.641 131.049,5.185 131.049,6.256 L131.049,11.543 L129.757,11.543 L129.757,6.545 C129.757,5.848 129.672,5.474 129.468,5.202 C129.23,4.879 128.771,4.675 128.244,4.675 C127.666,4.675 127.139,4.896 126.748,5.338 C126.374,5.746 126.238,6.12 126.238,6.766 L126.238,11.543 L124.946,11.543 L124.946,3.706 Z M138.903,9.69 L139.702,10.574 C138.818,11.373 137.951,11.73 136.812,11.73 C134.568,11.73 132.97,10.03 132.97,7.65 C132.97,5.219 134.585,3.519 136.88,3.519 C138.002,3.519 138.92,3.893 139.736,4.692 L138.903,5.525 C138.308,4.981 137.645,4.709 136.914,4.709 C135.367,4.709 134.296,5.899 134.296,7.599 C134.296,9.333 135.367,10.54 136.897,10.54 C137.662,10.54 138.274,10.285 138.903,9.69 Z M148.355,8.041 L141.827,8.041 C141.895,8.704 142.014,9.044 142.337,9.469 C142.847,10.166 143.595,10.54 144.445,10.54 C145.414,10.54 146.332,10.013 146.791,9.197 L147.93,9.622 C147.284,10.931 145.941,11.73 144.445,11.73 C142.116,11.73 140.45,10.03 140.45,7.65 C140.45,5.236 142.099,3.519 144.394,3.519 C146.672,3.519 148.372,5.236 148.372,7.531 C148.372,7.633 148.372,7.854 148.355,8.041 Z M141.844,7.089 L146.995,7.089 C146.944,6.477 146.825,6.137 146.553,5.746 C146.06,5.083 145.261,4.675 144.394,4.675 C143.527,4.675 142.745,5.083 142.286,5.763 C142.048,6.137 141.946,6.46 141.844,7.089 Z M160.646,9.69 L161.445,10.574 C160.561,11.373 159.694,11.73 158.555,11.73 C156.311,11.73 154.713,10.03 154.713,7.65 C154.713,5.219 156.328,3.519 158.623,3.519 C159.745,3.519 160.663,3.893 161.479,4.692 L160.646,5.525 C160.051,4.981 159.388,4.709 158.657,4.709 C157.11,4.709 156.039,5.899 156.039,7.599 C156.039,9.333 157.11,10.54 158.64,10.54 C159.405,10.54 160.017,10.285 160.646,9.69 Z M168.772,4.998 L168.772,3.706 L170.064,3.706 L170.064,11.543 L168.772,11.543 L168.772,10.03 C167.99,11.203 167.106,11.73 165.916,11.73 C163.757,11.73 162.227,10.03 162.227,7.65 C162.227,5.253 163.791,3.519 165.95,3.519 C167.14,3.519 168.007,3.978 168.772,4.998 Z M166.137,4.675 C165.287,4.675 164.692,4.964 164.233,5.61 C163.825,6.171 163.587,6.919 163.587,7.684 C163.587,9.35 164.675,10.608 166.103,10.608 C167.582,10.608 168.789,9.231 168.789,7.548 C168.789,5.848 167.701,4.675 166.137,4.675 Z M177.561,5.848 L176.269,5.848 L176.269,5.763 C176.269,5.032 175.674,4.573 174.773,4.573 C173.906,4.573 173.362,5.015 173.362,5.695 C173.362,6.375 173.702,6.63 175.113,7.021 C176.116,7.293 176.643,7.548 177.017,7.922 C177.408,8.313 177.646,8.874 177.646,9.452 C177.646,10.812 176.524,11.73 174.858,11.73 C173.073,11.73 172.07,10.897 171.934,9.316 L173.209,9.316 C173.294,10.2 173.872,10.676 174.858,10.676 C175.742,10.676 176.32,10.217 176.32,9.52 C176.32,8.84 175.878,8.5 174.535,8.16 C172.835,7.701 172.07,6.987 172.07,5.797 C172.07,4.437 173.175,3.519 174.824,3.519 C176.49,3.519 177.493,4.369 177.561,5.848 Z M180.927,3.706 L180.927,11.543 L179.635,11.543 L179.635,3.706 L180.927,3.706 Z M180.298,0.663 C180.757,0.663 181.114,1.037 181.114,1.513 C181.114,1.972 180.74,2.329 180.281,2.329 C179.822,2.329 179.465,1.972 179.465,1.496 C179.465,1.02 179.822,0.663 180.298,0.663 Z M183.528,3.706 L184.82,3.706 L184.82,4.811 C185.5,3.893 186.18,3.519 187.149,3.519 C187.863,3.519 188.509,3.757 188.968,4.165 C189.461,4.641 189.631,5.185 189.631,6.256 L189.631,11.543 L188.339,11.543 L188.339,6.545 C188.339,5.848 188.254,5.474 188.05,5.202 C187.812,4.879 187.353,4.675 186.826,4.675 C186.248,4.675 185.721,4.896 185.33,5.338 C184.956,5.746 184.82,6.12 184.82,6.766 L184.82,11.543 L183.528,11.543 L183.528,3.706 Z M197.944,5.049 L197.944,3.706 L199.236,3.706 L199.236,11.594 C199.236,12.903 198.913,13.787 198.199,14.467 C197.502,15.147 196.499,15.504 195.309,15.504 C193.847,15.504 192.691,15.028 191.841,14.076 L192.725,13.192 C193.082,13.566 193.252,13.719 193.473,13.872 C193.915,14.144 194.646,14.331 195.309,14.331 C196.125,14.331 196.907,14.042 197.349,13.566 C197.74,13.141 197.944,12.512 197.944,11.696 L197.944,10.047 C197.179,11.203 196.278,11.73 195.054,11.73 C192.98,11.73 191.433,9.979 191.433,7.65 C191.433,6.392 191.892,5.185 192.674,4.437 C193.303,3.825 194.153,3.519 195.156,3.519 C196.346,3.519 197.145,3.961 197.944,5.049 Z M195.394,4.709 C193.864,4.709 192.793,5.899 192.793,7.599 C192.793,9.282 193.881,10.54 195.36,10.54 C196.108,10.54 196.839,10.183 197.349,9.588 C197.689,9.197 197.91,8.432 197.91,7.65 C197.91,6.63 197.757,6.086 197.298,5.576 C196.822,5.049 196.091,4.709 195.394,4.709 Z"/>
    </g>
  </g>
</svg>
