<svg xmlns="http://www.w3.org/2000/svg" width="300" height="180" viewBox="0 0 300 180">
  <g fill="none" fill-rule="evenodd">
    <rect width="300" height="180" fill="#FFF" fill-opacity=".01" fill-rule="nonzero"/>
    <g transform="translate(30 46)">
      <g transform="translate(0 41)">
        <rect width="240" height="48" fill="#314351" rx="8"/>
        <path fill="#FFF" fill-rule="nonzero" d="M43.7991308,19.6572266 L43.7991308,23.8491211 L46.4719824,23.8491211 C47.9080175,23.8491211 48.7380957,23.0854492 48.7380957,21.7490234 C48.7380957,20.4458008 47.8582129,19.6572266 46.4221777,19.6572266 L43.7991308,19.6572266 Z M43.7991308,25.4345703 L43.7991308,30 L41.9397558,30 L41.9397558,18.0219727 L46.6795019,18.0219727 C49.0950293,18.0219727 50.6472754,19.4580078 50.6472754,21.7075195 C50.6472754,23.3178711 49.7839941,24.6293945 48.3230566,25.1274414 L51.0125097,30 L48.8626074,30 L46.4221777,25.4345703 L43.7991308,25.4345703 Z M56.1225293,22.3051758 C54.802705,22.3051758 53.8813183,23.2348633 53.781709,24.6459961 L58.3471386,24.6459961 C58.3056347,23.2265625 57.4423535,22.3051758 56.1225293,22.3051758 Z M58.3388379,27.5595703 L60.0570996,27.5595703 C59.6503613,29.1782227 58.2060254,30.1743164 56.1391308,30.1743164 C53.5492871,30.1743164 51.9638379,28.3979492 51.9638379,25.5092773 C51.9638379,22.6206055 53.5824902,20.7861328 56.13083,20.7861328 C58.6459668,20.7861328 60.1650097,22.5043945 60.1650097,25.3432617 L60.1650097,25.9658203 L53.781709,25.9658203 L53.781709,26.0654297 C53.8398144,27.6508789 54.7612011,28.6552734 56.1889355,28.6552734 C57.2680371,28.6552734 58.0068066,28.2651367 58.3388379,27.5595703 Z M61.8966113,30 L61.8966113,20.9604492 L63.614873,20.9604492 L63.614873,22.4130859 L63.7476855,22.4130859 C64.146123,21.3920898 65.059209,20.7861328 66.2628222,20.7861328 C67.4996386,20.7861328 68.3546191,21.425293 68.7530566,22.4130859 L68.8941699,22.4130859 C69.3507129,21.425293 70.3883105,20.7861328 71.6417285,20.7861328 C73.4679004,20.7861328 74.5304004,21.8901367 74.5304004,23.7744141 L74.5304004,30 L72.7457324,30 L72.7457324,24.2392578 C72.7457324,23.019043 72.1646777,22.4213867 70.9942676,22.4213867 C69.840459,22.4213867 69.0850879,23.2514648 69.0850879,24.3139648 L69.0850879,30 L67.333623,30 L67.333623,24.0649414 C67.333623,23.0439453 66.652959,22.4213867 65.590459,22.4213867 C64.5030566,22.4213867 63.6812793,23.3095703 63.6812793,24.4716797 L63.6812793,30 L61.8966113,30 Z M80.4455957,30.1743164 C77.7976465,30.1743164 76.1789941,28.40625 76.1789941,25.4760742 C76.1789941,22.5625 77.8059472,20.7861328 80.4455957,20.7861328 C83.0769433,20.7861328 84.7038965,22.5625 84.7038965,25.4760742 C84.7038965,28.40625 83.0852441,30.1743164 80.4455957,30.1743164 Z M80.4455957,28.5888672 C81.989541,28.5888672 82.8694238,27.4433594 82.8694238,25.4760742 C82.8694238,23.5170898 81.989541,22.371582 80.4455957,22.371582 C78.8933496,22.371582 78.0217676,23.5170898 78.0217676,25.4760742 C78.0217676,27.4516602 78.8933496,28.5888672 80.4455957,28.5888672 Z M93.7401855,20.9604492 L90.4862793,30 L88.5687988,30 L85.3065918,20.9604492 L87.2157715,20.9604492 L89.4652832,28.0908203 L89.6063965,28.0908203 L91.8476074,20.9604492 L93.7401855,20.9604492 Z M98.5015723,22.3051758 C97.181748,22.3051758 96.2603613,23.2348633 96.1607519,24.6459961 L100.726182,24.6459961 C100.684678,23.2265625 99.8213965,22.3051758 98.5015723,22.3051758 Z M100.717881,27.5595703 L102.436143,27.5595703 C102.029404,29.1782227 100.585068,30.1743164 98.5181738,30.1743164 C95.9283301,30.1743164 94.3428808,28.3979492 94.3428808,25.5092773 C94.3428808,22.6206055 95.9615332,20.7861328 98.509873,20.7861328 C101.02501,20.7861328 102.544053,22.5043945 102.544053,25.3432617 L102.544053,25.9658203 L96.1607519,25.9658203 L96.1607519,26.0654297 C96.2188574,27.6508789 97.1402441,28.6552734 98.5679785,28.6552734 C99.6470801,28.6552734 100.38585,28.2651367 100.717881,27.5595703 Z M109.153252,30 L109.153252,22.5043945 L107.667412,22.5043945 L107.667412,21.0019531 L109.153252,21.0019531 L109.153252,20.0307617 C109.153252,18.237793 110.066338,17.3496094 111.942314,17.3496094 C112.349053,17.3496094 112.697686,17.3828125 113.004814,17.440918 L113.004814,18.84375 C112.838799,18.8105469 112.598076,18.7939453 112.31585,18.7939453 C111.319756,18.7939453 110.913018,19.2421875 110.913018,20.1386719 L110.913018,21.0019531 L112.930107,21.0019531 L112.930107,22.5043945 L110.93792,22.5043945 L110.93792,30 L109.153252,30 Z M114.537197,30 L114.537197,20.9604492 L116.255459,20.9604492 L116.255459,22.3466797 L116.388271,22.3466797 C116.645596,21.4584961 117.64999,20.8110352 118.828701,20.8110352 C119.094326,20.8110352 119.434658,20.8359375 119.625576,20.8857422 L119.625576,22.6455078 C119.476162,22.5957031 118.944912,22.5375977 118.629482,22.5375977 C117.276455,22.5375977 116.321865,23.3925781 116.321865,24.6625977 L116.321865,30 L114.537197,30 Z M124.519775,30.1743164 C121.871826,30.1743164 120.253174,28.40625 120.253174,25.4760742 C120.253174,22.5625 121.880127,20.7861328 124.519775,20.7861328 C127.151123,20.7861328 128.778076,22.5625 128.778076,25.4760742 C128.778076,28.40625 127.159424,30.1743164 124.519775,30.1743164 Z M124.519775,28.5888672 C126.063721,28.5888672 126.943604,27.4433594 126.943604,25.4760742 C126.943604,23.5170898 126.063721,22.371582 124.519775,22.371582 C122.967529,22.371582 122.095947,23.5170898 122.095947,25.4760742 C122.095947,27.4516602 122.967529,28.5888672 124.519775,28.5888672 Z M130.509678,30 L130.509678,20.9604492 L132.227939,20.9604492 L132.227939,22.4130859 L132.360752,22.4130859 C132.759189,21.3920898 133.672275,20.7861328 134.875889,20.7861328 C136.112705,20.7861328 136.967686,21.425293 137.366123,22.4130859 L137.507236,22.4130859 C137.963779,21.425293 139.001377,20.7861328 140.254795,20.7861328 C142.080967,20.7861328 143.143467,21.8901367 143.143467,23.7744141 L143.143467,30 L141.358799,30 L141.358799,24.2392578 C141.358799,23.019043 140.777744,22.4213867 139.607334,22.4213867 C138.453525,22.4213867 137.698154,23.2514648 137.698154,24.3139648 L137.698154,30 L135.946689,30 L135.946689,24.0649414 C135.946689,23.0439453 135.266025,22.4213867 134.203525,22.4213867 C133.116123,22.4213867 132.294346,23.3095703 132.294346,24.4716797 L132.294346,30 L130.509678,30 Z M152.782451,30.1494141 C150.483135,30.1494141 149.030498,28.3398438 149.030498,25.4760742 C149.030498,22.6206055 150.499736,20.8110352 152.782451,20.8110352 C154.019268,20.8110352 155.065166,21.4003906 155.554912,22.3964844 L155.687725,22.3964844 L155.687725,17.4326172 L157.472393,17.4326172 L157.472393,30 L155.762432,30 L155.762432,28.5722656 L155.621318,28.5722656 C155.081768,29.5600586 154.027568,30.1494141 152.782451,30.1494141 Z M153.288799,22.4130859 C151.786357,22.4130859 150.873271,23.5751953 150.873271,25.4760742 C150.873271,27.3935547 151.778057,28.5473633 153.288799,28.5473633 C154.79124,28.5473633 155.720928,27.3769531 155.720928,25.484375 C155.720928,23.6000977 154.782939,22.4130859 153.288799,22.4130859 Z M163.445693,22.3051758 C162.125869,22.3051758 161.204482,23.2348633 161.104873,24.6459961 L165.670303,24.6459961 C165.628799,23.2265625 164.765518,22.3051758 163.445693,22.3051758 Z M165.662002,27.5595703 L167.380264,27.5595703 C166.973525,29.1782227 165.529189,30.1743164 163.462295,30.1743164 C160.872451,30.1743164 159.287002,28.3979492 159.287002,25.5092773 C159.287002,22.6206055 160.905654,20.7861328 163.453994,20.7861328 C165.969131,20.7861328 167.488174,22.5043945 167.488174,25.3432617 L167.488174,25.9658203 L161.104873,25.9658203 L161.104873,26.0654297 C161.162979,27.6508789 162.084365,28.6552734 163.5121,28.6552734 C164.591201,28.6552734 165.329971,28.2651367 165.662002,27.5595703 Z M176.673877,20.9604492 L173.419971,30 L171.50249,30 L168.240283,20.9604492 L170.149463,20.9604492 L172.398975,28.0908203 L172.540088,28.0908203 L174.781299,20.9604492 L176.673877,20.9604492 Z M178.10665,30 L178.10665,20.9604492 L179.883018,20.9604492 L179.883018,30 L178.10665,30 Z M178.994834,19.375 C178.330772,19.375 177.841025,18.9018555 177.841025,18.2875977 C177.841025,17.6650391 178.330772,17.1918945 178.994834,17.1918945 C179.658897,17.1918945 180.148643,17.6650391 180.148643,18.2875977 C180.148643,18.9018555 179.658897,19.375 178.994834,19.375 Z M189.749385,23.9155273 L188.014522,23.9155273 C187.807002,23.0356445 187.076533,22.3798828 185.881221,22.3798828 C184.38708,22.3798828 183.473994,23.5253906 183.473994,25.4511719 C183.473994,27.4101562 184.395381,28.5805664 185.881221,28.5805664 C187.010127,28.5805664 187.7821,28.065918 188.014522,27.0947266 L189.749385,27.0947266 C189.516963,28.9125977 188.122432,30.1743164 185.889522,30.1743164 C183.258174,30.1743164 181.647822,28.3979492 181.647822,25.4511719 C181.647822,22.5541992 183.249873,20.7861328 185.881221,20.7861328 C188.147334,20.7861328 189.516963,22.105957 189.749385,23.9155273 Z M195.083525,22.3051758 C193.763701,22.3051758 192.842314,23.2348633 192.742705,24.6459961 L197.308135,24.6459961 C197.266631,23.2265625 196.40335,22.3051758 195.083525,22.3051758 Z M197.299834,27.5595703 L199.018096,27.5595703 C198.611357,29.1782227 197.167022,30.1743164 195.100127,30.1743164 C192.510283,30.1743164 190.924834,28.3979492 190.924834,25.5092773 C190.924834,22.6206055 192.543486,20.7861328 195.091826,20.7861328 C197.606963,20.7861328 199.126006,22.5043945 199.126006,25.3432617 L199.126006,25.9658203 L192.742705,25.9658203 L192.742705,26.0654297 C192.800811,27.6508789 193.722197,28.6552734 195.149932,28.6552734 C196.229033,28.6552734 196.967803,28.2651367 197.299834,27.5595703 Z"/>
      </g>
      <path fill="#C8226C" fill-rule="nonzero" d="M43.6764062,16 L43.6764062,13.6640625 L38.1842187,13.6640625 L38.1842187,12.3828125 C39.1920312,10.59375 40.9810937,7.765625 43.0123437,4.7265625 L45.0514062,4.7265625 L45.0514062,12.40625 L46.6529687,12.40625 L46.6529687,13.6640625 L45.0514062,13.6640625 L45.0514062,16 L43.6764062,16 Z M39.6217187,12.3203125 L39.6217187,12.4140625 L43.6842187,12.4140625 L43.6842187,6.03125 L43.5904687,6.03125 C42.4342187,7.7109375 40.9654687,10.0390625 39.6217187,12.3203125 Z M52.3564062,16.265625 C49.9657812,16.265625 48.2939062,14.9140625 48.2939062,12.984375 C48.2939062,11.515625 49.2235937,10.375 50.6376562,10.109375 L50.6376562,9.984375 C49.4892187,9.671875 48.7548437,8.6953125 48.7548437,7.46875 C48.7548437,5.7109375 50.2470312,4.4609375 52.3564062,4.4609375 C54.4657812,4.4609375 55.9579687,5.7109375 55.9579687,7.46875 C55.9579687,8.703125 55.2392187,9.6640625 54.0751562,9.984375 L54.0751562,10.109375 C55.4892187,10.375 56.4189062,11.515625 56.4189062,12.984375 C56.4189062,14.9140625 54.7470312,16.265625 52.3564062,16.265625 Z M52.3564062,15.0625 C53.9189062,15.0625 54.9970312,14.171875 54.9970312,12.8828125 C54.9970312,11.59375 53.9189062,10.703125 52.3564062,10.703125 C50.7939062,10.703125 49.7157812,11.59375 49.7157812,12.8828125 C49.7157812,14.171875 50.7939062,15.0625 52.3564062,15.0625 Z M52.3564062,9.515625 C53.6845312,9.515625 54.5751562,8.75 54.5751562,7.6015625 C54.5751562,6.4375 53.6923437,5.6640625 52.3564062,5.6640625 C51.0204687,5.6640625 50.1376562,6.4375 50.1376562,7.6015625 C50.1376562,8.75 51.0282812,9.515625 52.3564062,9.515625 Z M62.5129687,7.4296875 C64.6614062,7.4296875 66.0520312,9.140625 66.0520312,11.7890625 C66.0520312,14.421875 64.6535937,16.1484375 62.5129687,16.1484375 C61.3098437,16.1484375 60.3410937,15.625 59.8801562,14.734375 L59.7551562,14.734375 L59.7551562,18.8125 L58.4114062,18.8125 L58.4114062,7.578125 L59.6926562,7.578125 L59.6926562,8.984375 L59.8176562,8.984375 C60.3567187,8.015625 61.3645312,7.4296875 62.5129687,7.4296875 Z M62.1926562,14.9375 C63.7395312,14.9375 64.6614062,13.7578125 64.6614062,11.7890625 C64.6614062,9.8203125 63.7395312,8.640625 62.2004687,8.640625 C60.6770312,8.640625 59.7160937,9.8515625 59.7160937,11.7890625 C59.7160937,13.71875 60.6770312,14.9375 62.1926562,14.9375 Z M70.4351562,12.8203125 L70.3101562,12.8203125 L68.3101562,16 L66.7867187,16 L69.6695312,11.7890625 L66.7554687,7.578125 L68.3570312,7.578125 L70.3570312,10.7109375 L70.4820312,10.7109375 L72.4585937,7.578125 L73.9820312,7.578125 L71.1226562,11.734375 L74.0210937,16 L72.4273437,16 L70.4351562,12.8203125 Z M76.6464062,16.078125 C76.0917187,16.078125 75.6307812,15.6171875 75.6307812,15.0625 C75.6307812,14.5 76.0917187,14.046875 76.6464062,14.046875 C77.2089062,14.046875 77.6620312,14.5 77.6620312,15.0625 C77.6620312,15.6171875 77.2089062,16.078125 76.6464062,16.078125 Z M76.6464062,10.0703125 C76.0917187,10.0703125 75.6307812,9.609375 75.6307812,9.0546875 C75.6307812,8.4921875 76.0917187,8.0390625 76.6464062,8.0390625 C77.2089062,8.0390625 77.6620312,8.4921875 77.6620312,9.0546875 C77.6620312,9.609375 77.2089062,10.0703125 76.6464062,10.0703125 Z M83.7954687,13.0546875 L85.2173437,13.0546875 C85.3892187,14.234375 86.5142187,14.984375 88.1157812,14.984375 C89.6314062,14.984375 90.7485937,14.1640625 90.7485937,13.046875 C90.7485937,12.0859375 90.0454687,11.4765625 88.4907812,11.0859375 L87.0454687,10.7109375 C85.0064062,10.1953125 84.1235937,9.2734375 84.1235937,7.671875 C84.1235937,5.7578125 85.7251562,4.4609375 88.1079687,4.4609375 C90.2876562,4.4609375 91.9126562,5.7578125 92.0298437,7.578125 L90.6157812,7.578125 C90.4204687,6.421875 89.4673437,5.734375 88.0610937,5.734375 C86.5610937,5.734375 85.5689062,6.484375 85.5689062,7.625 C85.5689062,8.5078125 86.1860937,9.015625 87.7407812,9.4140625 L88.9204687,9.7265625 C91.2564062,10.3125 92.1939062,11.21875 92.1939062,12.875 C92.1939062,14.9453125 90.5610937,16.265625 87.9829687,16.265625 C85.5923437,16.265625 83.9439062,15 83.7954687,13.0546875 Z M97.3973437,8.6171875 C96.0535937,8.6171875 95.1160937,9.6015625 95.0145312,11.09375 L99.6551562,11.09375 C99.6239062,9.6015625 98.7332812,8.6171875 97.3973437,8.6171875 Z M99.6160937,13.8203125 L100.959844,13.8203125 C100.553594,15.265625 99.2567187,16.1484375 97.4129687,16.1484375 C95.0770312,16.1484375 93.6160937,14.4609375 93.6160937,11.796875 C93.6160937,9.1484375 95.1004687,7.4296875 97.4129687,7.4296875 C99.6864062,7.4296875 101.069219,9.046875 101.069219,11.6640625 L101.069219,12.1796875 L95.0145312,12.1796875 L95.0145312,12.2421875 C95.0848437,13.90625 96.0145312,14.9609375 97.4442187,14.9609375 C98.5301562,14.9609375 99.2645312,14.5625 99.6160937,13.8203125 Z M102.858594,16 L102.858594,7.578125 L104.139844,7.578125 L104.139844,8.90625 L104.264844,8.90625 C104.686719,7.9765625 105.507031,7.4296875 106.796094,7.4296875 C108.686719,7.4296875 109.741406,8.546875 109.741406,10.546875 L109.741406,16 L108.397656,16 L108.397656,10.875 C108.397656,9.359375 107.757031,8.640625 106.413281,8.640625 C105.069531,8.640625 104.202344,9.5390625 104.202344,11.015625 L104.202344,16 L102.858594,16 Z M112.437031,5.3984375 L113.780781,5.3984375 L113.780781,7.578125 L115.655781,7.578125 L115.655781,8.703125 L113.780781,8.703125 L113.780781,13.46875 C113.780781,14.4609375 114.155781,14.8828125 115.030781,14.8828125 C115.272969,14.8828125 115.405781,14.875 115.655781,14.8515625 L115.655781,15.984375 C115.390156,16.03125 115.132344,16.0625 114.866719,16.0625 C113.132344,16.0625 112.437031,15.421875 112.437031,13.8125 L112.437031,8.703125 L111.077656,8.703125 L111.077656,7.578125 L112.437031,7.578125 L112.437031,5.3984375 Z M120.609219,8.6171875 C119.265469,8.6171875 118.327969,9.6015625 118.226406,11.09375 L122.867031,11.09375 C122.835781,9.6015625 121.945156,8.6171875 120.609219,8.6171875 Z M122.827969,13.8203125 L124.171719,13.8203125 C123.765469,15.265625 122.468594,16.1484375 120.624844,16.1484375 C118.288906,16.1484375 116.827969,14.4609375 116.827969,11.796875 C116.827969,9.1484375 118.312344,7.4296875 120.624844,7.4296875 C122.898281,7.4296875 124.281094,9.046875 124.281094,11.6640625 L124.281094,12.1796875 L118.226406,12.1796875 L118.226406,12.2421875 C118.296719,13.90625 119.226406,14.9609375 120.656094,14.9609375 C121.742031,14.9609375 122.476406,14.5625 122.827969,13.8203125 Z M126.070469,16 L126.070469,7.578125 L127.351719,7.578125 L127.351719,8.90625 L127.476719,8.90625 C127.898594,7.9765625 128.718906,7.4296875 130.007969,7.4296875 C131.898594,7.4296875 132.953281,8.546875 132.953281,10.546875 L132.953281,16 L131.609531,16 L131.609531,10.875 C131.609531,9.359375 130.968906,8.640625 129.625156,8.640625 C128.281406,8.640625 127.414219,9.5390625 127.414219,11.015625 L127.414219,16 L126.070469,16 Z M142.055156,10.15625 L140.695781,10.15625 C140.477031,9.3203125 139.734844,8.640625 138.523906,8.640625 C137.008281,8.640625 136.055156,9.8515625 136.055156,11.7578125 C136.055156,13.703125 137.023906,14.9375 138.523906,14.9375 C139.656719,14.9375 140.445781,14.4140625 140.695781,13.4609375 L142.055156,13.4609375 C141.812969,15.0078125 140.555156,16.1484375 138.531719,16.1484375 C136.172344,16.1484375 134.664531,14.4375 134.664531,11.7578125 C134.664531,9.1328125 136.164531,7.4296875 138.523906,7.4296875 C140.570781,7.4296875 141.820781,8.65625 142.055156,10.15625 Z M147.078906,8.6171875 C145.735156,8.6171875 144.797656,9.6015625 144.696094,11.09375 L149.336719,11.09375 C149.305469,9.6015625 148.414844,8.6171875 147.078906,8.6171875 Z M149.297656,13.8203125 L150.641406,13.8203125 C150.235156,15.265625 148.938281,16.1484375 147.094531,16.1484375 C144.758594,16.1484375 143.297656,14.4609375 143.297656,11.796875 C143.297656,9.1484375 144.782031,7.4296875 147.094531,7.4296875 C149.367969,7.4296875 150.750781,9.046875 150.750781,11.6640625 L150.750781,12.1796875 L144.696094,12.1796875 L144.696094,12.2421875 C144.766406,13.90625 145.696094,14.9609375 147.125781,14.9609375 C148.211719,14.9609375 148.946094,14.5625 149.297656,13.8203125 Z M163.704531,10.15625 L162.345156,10.15625 C162.126406,9.3203125 161.384219,8.640625 160.173281,8.640625 C158.657656,8.640625 157.704531,9.8515625 157.704531,11.7578125 C157.704531,13.703125 158.673281,14.9375 160.173281,14.9375 C161.306094,14.9375 162.095156,14.4140625 162.345156,13.4609375 L163.704531,13.4609375 C163.462344,15.0078125 162.204531,16.1484375 160.181094,16.1484375 C157.821719,16.1484375 156.313906,14.4375 156.313906,11.7578125 C156.313906,9.1328125 157.813906,7.4296875 160.173281,7.4296875 C162.220156,7.4296875 163.470156,8.65625 163.704531,10.15625 Z M167.962656,14.96875 C169.345469,14.96875 170.368906,14.0625 170.368906,12.859375 L170.368906,12.0859375 L168.103281,12.234375 C166.822031,12.3203125 166.259531,12.765625 166.259531,13.609375 C166.259531,14.46875 166.986094,14.96875 167.962656,14.96875 Z M167.712656,16.1484375 C166.079844,16.1484375 164.868906,15.1796875 164.868906,13.640625 C164.868906,12.1328125 165.978281,11.265625 167.939219,11.1484375 L170.368906,11 L170.368906,10.234375 C170.368906,9.1953125 169.720469,8.625 168.462656,8.625 C167.454844,8.625 166.751719,9.0078125 166.564219,9.671875 L165.204844,9.671875 C165.384531,8.3203125 166.712656,7.4296875 168.509531,7.4296875 C170.564219,7.4296875 171.712656,8.484375 171.712656,10.234375 L171.712656,16 L170.431406,16 L170.431406,14.7578125 L170.306406,14.7578125 C169.759531,15.65625 168.837656,16.1484375 167.712656,16.1484375 Z M173.681719,9.8828125 C173.681719,8.484375 175.033281,7.4296875 176.822344,7.4296875 C178.587969,7.4296875 179.814531,8.3046875 179.994219,9.6875 L178.666094,9.6875 C178.486406,9.015625 177.830156,8.5703125 176.814531,8.5703125 C175.814531,8.5703125 175.033281,9.078125 175.033281,9.828125 C175.033281,10.40625 175.502031,10.765625 176.494219,11.0078125 L177.791094,11.3203125 C179.377031,11.703125 180.142656,12.390625 180.142656,13.6015625 C180.142656,15.109375 178.681719,16.1484375 176.767656,16.1484375 C174.892656,16.1484375 173.603594,15.25 173.455156,13.8515625 L174.837969,13.8515625 C175.064531,14.5625 175.736406,15.015625 176.814531,15.015625 C177.947344,15.015625 178.759844,14.4765625 178.759844,13.703125 C178.759844,13.125 178.322344,12.734375 177.423906,12.515625 L175.978594,12.1640625 C174.400469,11.78125 173.681719,11.1015625 173.681719,9.8828125 Z M181.963281,16 L181.963281,7.578125 L183.307031,7.578125 L183.307031,16 L181.963281,16 Z M182.635156,5.8671875 C182.119531,5.8671875 181.697656,5.4453125 181.697656,4.9296875 C181.697656,4.4140625 182.119531,3.9921875 182.635156,3.9921875 C183.150781,3.9921875 183.572656,4.4140625 183.572656,4.9296875 C183.572656,5.4453125 183.150781,5.8671875 182.635156,5.8671875 Z M185.549531,16 L185.549531,7.578125 L186.830781,7.578125 L186.830781,8.90625 L186.955781,8.90625 C187.377656,7.9765625 188.197969,7.4296875 189.487031,7.4296875 C191.377656,7.4296875 192.432344,8.546875 192.432344,10.546875 L192.432344,16 L191.088594,16 L191.088594,10.875 C191.088594,9.359375 190.447969,8.640625 189.104219,8.640625 C187.760469,8.640625 186.893281,9.5390625 186.893281,11.015625 L186.893281,16 L185.549531,16 Z M197.971719,14.6875 C199.534219,14.6875 200.471719,13.5 200.471719,11.6640625 C200.471719,9.828125 199.526406,8.640625 197.971719,8.640625 C196.409219,8.640625 195.534219,9.828125 195.534219,11.6640625 C195.534219,13.5 196.409219,14.6875 197.971719,14.6875 Z M198.034219,19.234375 C196.002969,19.234375 194.706094,18.3203125 194.502969,16.9296875 L195.924844,16.9296875 C196.073281,17.6171875 196.823281,18.0625 198.034219,18.0625 C199.542031,18.0625 200.440469,17.3203125 200.440469,16.078125 L200.440469,14.421875 L200.315469,14.421875 C199.784219,15.3515625 198.831094,15.875 197.674844,15.875 C195.495156,15.875 194.143594,14.1875 194.143594,11.6640625 C194.143594,9.140625 195.510781,7.4296875 197.674844,7.4296875 C198.854531,7.4296875 199.893594,8.0078125 200.377969,8.9140625 L200.502969,8.9140625 L200.502969,7.578125 L201.784219,7.578125 L201.784219,16.1484375 C201.784219,18.03125 200.331094,19.234375 198.034219,19.234375 Z"/>
    </g>
  </g>
</svg>
