<svg xmlns="http://www.w3.org/2000/svg" width="300" height="180" viewBox="0 0 300 180">
  <g fill="none" fill-rule="evenodd">
    <rect width="300" height="180" fill="#FFF" fill-opacity=".01" fill-rule="nonzero"/>
    <g transform="translate(30 56)">
      <g transform="translate(0 37)">
        <rect width="240" height="36" fill="#314351" rx="4"/>
        <path fill="#FFF" fill-rule="nonzero" d="M47.6885937,13.265625 L47.6885937,17.2109375 L50.2042187,17.2109375 C51.5557812,17.2109375 52.3370312,16.4921875 52.3370312,15.234375 C52.3370312,14.0078125 51.5089062,13.265625 50.1573437,13.265625 L47.6885937,13.265625 Z M47.6885937,18.703125 L47.6885937,23 L45.9385937,23 L45.9385937,11.7265625 L50.3995312,11.7265625 C52.6729687,11.7265625 54.1339062,13.078125 54.1339062,15.1953125 C54.1339062,16.7109375 53.3214062,17.9453125 51.9464062,18.4140625 L54.4776562,23 L52.4542187,23 L50.1573437,18.703125 L47.6885937,18.703125 Z M59.3529687,15.7578125 C58.1107812,15.7578125 57.2435937,16.6328125 57.1498437,17.9609375 L61.4467187,17.9609375 C61.4076562,16.625 60.5951562,15.7578125 59.3529687,15.7578125 Z M61.4389062,20.703125 L63.0560937,20.703125 C62.6732812,22.2265625 61.3139062,23.1640625 59.3685937,23.1640625 C56.9310937,23.1640625 55.4389062,21.4921875 55.4389062,18.7734375 C55.4389062,16.0546875 56.9623437,14.328125 59.3607812,14.328125 C61.7279687,14.328125 63.1576562,15.9453125 63.1576562,18.6171875 L63.1576562,19.203125 L57.1498437,19.203125 L57.1498437,19.296875 C57.2045312,20.7890625 58.0717187,21.734375 59.4154687,21.734375 C60.4310937,21.734375 61.1264062,21.3671875 61.4389062,20.703125 Z M64.8532812,23 L64.8532812,14.4921875 L66.4704687,14.4921875 L66.4704687,15.859375 L66.5954687,15.859375 C66.9704687,14.8984375 67.8298437,14.328125 68.9626562,14.328125 C70.1267187,14.328125 70.9314062,14.9296875 71.3064062,15.859375 L71.4392187,15.859375 C71.8689062,14.9296875 72.8454687,14.328125 74.0251562,14.328125 C75.7439062,14.328125 76.7439062,15.3671875 76.7439062,17.140625 L76.7439062,23 L75.0642187,23 L75.0642187,17.578125 C75.0642187,16.4296875 74.5173437,15.8671875 73.4157812,15.8671875 C72.3298437,15.8671875 71.6189062,16.6484375 71.6189062,17.6484375 L71.6189062,23 L69.9704687,23 L69.9704687,17.4140625 C69.9704687,16.453125 69.3298437,15.8671875 68.3298437,15.8671875 C67.3064062,15.8671875 66.5329687,16.703125 66.5329687,17.796875 L66.5329687,23 L64.8532812,23 Z M82.3770312,23.1640625 C79.8848437,23.1640625 78.3614062,21.5 78.3614062,18.7421875 C78.3614062,16 79.8926562,14.328125 82.3770312,14.328125 C84.8535937,14.328125 86.3848437,16 86.3848437,18.7421875 C86.3848437,21.5 84.8614062,23.1640625 82.3770312,23.1640625 Z M82.3770312,21.671875 C83.8301562,21.671875 84.6582812,20.59375 84.6582812,18.7421875 C84.6582812,16.8984375 83.8301562,15.8203125 82.3770312,15.8203125 C80.9160937,15.8203125 80.0957812,16.8984375 80.0957812,18.7421875 C80.0957812,20.6015625 80.9160937,21.671875 82.3770312,21.671875 Z M94.9554687,14.4921875 L91.8929687,23 L90.0882812,23 L87.0179687,14.4921875 L88.8148437,14.4921875 L90.9320312,21.203125 L91.0648437,21.203125 L93.1742187,14.4921875 L94.9554687,14.4921875 Z M99.5026562,15.7578125 C98.2604687,15.7578125 97.3932812,16.6328125 97.2995312,17.9609375 L101.596406,17.9609375 C101.557344,16.625 100.744844,15.7578125 99.5026562,15.7578125 Z M101.588594,20.703125 L103.205781,20.703125 C102.822969,22.2265625 101.463594,23.1640625 99.5182812,23.1640625 C97.0807812,23.1640625 95.5885937,21.4921875 95.5885937,18.7734375 C95.5885937,16.0546875 97.1120312,14.328125 99.5104687,14.328125 C101.877656,14.328125 103.307344,15.9453125 103.307344,18.6171875 L103.307344,19.203125 L97.2995312,19.203125 L97.2995312,19.296875 C97.3542187,20.7890625 98.2214062,21.734375 99.5651562,21.734375 C100.580781,21.734375 101.276094,21.3671875 101.588594,20.703125 Z M109.659531,23 L109.659531,15.9453125 L108.261094,15.9453125 L108.261094,14.53125 L109.659531,14.53125 L109.659531,13.6171875 C109.659531,11.9296875 110.518906,11.09375 112.284531,11.09375 C112.667344,11.09375 112.995469,11.125 113.284531,11.1796875 L113.284531,12.5 C113.128281,12.46875 112.901719,12.453125 112.636094,12.453125 C111.698594,12.453125 111.315781,12.875 111.315781,13.71875 L111.315781,14.53125 L113.214219,14.53125 L113.214219,15.9453125 L111.339219,15.9453125 L111.339219,23 L109.659531,23 Z M114.792656,23 L114.792656,14.4921875 L116.409844,14.4921875 L116.409844,15.796875 L116.534844,15.796875 C116.777031,14.9609375 117.722344,14.3515625 118.831719,14.3515625 C119.081719,14.3515625 119.402031,14.375 119.581719,14.421875 L119.581719,16.078125 C119.441094,16.03125 118.941094,15.9765625 118.644219,15.9765625 C117.370781,15.9765625 116.472344,16.78125 116.472344,17.9765625 L116.472344,23 L114.792656,23 Z M124.253906,23.1640625 C121.761719,23.1640625 120.238281,21.5 120.238281,18.7421875 C120.238281,16 121.769531,14.328125 124.253906,14.328125 C126.730469,14.328125 128.261719,16 128.261719,18.7421875 C128.261719,21.5 126.738281,23.1640625 124.253906,23.1640625 Z M124.253906,21.671875 C125.707031,21.671875 126.535156,20.59375 126.535156,18.7421875 C126.535156,16.8984375 125.707031,15.8203125 124.253906,15.8203125 C122.792969,15.8203125 121.972656,16.8984375 121.972656,18.7421875 C121.972656,20.6015625 122.792969,21.671875 124.253906,21.671875 Z M129.957344,23 L129.957344,14.4921875 L131.574531,14.4921875 L131.574531,15.859375 L131.699531,15.859375 C132.074531,14.8984375 132.933906,14.328125 134.066719,14.328125 C135.230781,14.328125 136.035469,14.9296875 136.410469,15.859375 L136.543281,15.859375 C136.972969,14.9296875 137.949531,14.328125 139.129219,14.328125 C140.847969,14.328125 141.847969,15.3671875 141.847969,17.140625 L141.847969,23 L140.168281,23 L140.168281,17.578125 C140.168281,16.4296875 139.621406,15.8671875 138.519844,15.8671875 C137.433906,15.8671875 136.722969,16.6484375 136.722969,17.6484375 L136.722969,23 L135.074531,23 L135.074531,17.4140625 C135.074531,16.453125 134.433906,15.8671875 133.433906,15.8671875 C132.410469,15.8671875 131.637031,16.703125 131.637031,17.796875 L131.637031,23 L129.957344,23 Z M151.051719,23.140625 C148.887656,23.140625 147.520469,21.4375 147.520469,18.7421875 C147.520469,16.0546875 148.903281,14.3515625 151.051719,14.3515625 C152.215781,14.3515625 153.200156,14.90625 153.661094,15.84375 L153.786094,15.84375 L153.786094,11.171875 L155.465781,11.171875 L155.465781,23 L153.856406,23 L153.856406,21.65625 L153.723594,21.65625 C153.215781,22.5859375 152.223594,23.140625 151.051719,23.140625 Z M151.528281,15.859375 C150.114219,15.859375 149.254844,16.953125 149.254844,18.7421875 C149.254844,20.546875 150.106406,21.6328125 151.528281,21.6328125 C152.942344,21.6328125 153.817344,20.53125 153.817344,18.75 C153.817344,16.9765625 152.934531,15.859375 151.528281,15.859375 Z M161.153594,15.7578125 C159.911406,15.7578125 159.044219,16.6328125 158.950469,17.9609375 L163.247344,17.9609375 C163.208281,16.625 162.395781,15.7578125 161.153594,15.7578125 Z M163.239531,20.703125 L164.856719,20.703125 C164.473906,22.2265625 163.114531,23.1640625 161.169219,23.1640625 C158.731719,23.1640625 157.239531,21.4921875 157.239531,18.7734375 C157.239531,16.0546875 158.762969,14.328125 161.161406,14.328125 C163.528594,14.328125 164.958281,15.9453125 164.958281,18.6171875 L164.958281,19.203125 L158.950469,19.203125 L158.950469,19.296875 C159.005156,20.7890625 159.872344,21.734375 161.216094,21.734375 C162.231719,21.734375 162.927031,21.3671875 163.239531,20.703125 Z M173.669531,14.4921875 L170.607031,23 L168.802344,23 L165.732031,14.4921875 L167.528906,14.4921875 L169.646094,21.203125 L169.778906,21.203125 L171.888281,14.4921875 L173.669531,14.4921875 Z M175.083906,23 L175.083906,14.4921875 L176.755781,14.4921875 L176.755781,23 L175.083906,23 Z M175.919844,13 C175.294844,13 174.833906,12.5546875 174.833906,11.9765625 C174.833906,11.390625 175.294844,10.9453125 175.919844,10.9453125 C176.544844,10.9453125 177.005781,11.390625 177.005781,11.9765625 C177.005781,12.5546875 176.544844,13 175.919844,13 Z M186.107656,17.2734375 L184.474844,17.2734375 C184.279531,16.4453125 183.592031,15.828125 182.467031,15.828125 C181.060781,15.828125 180.201406,16.90625 180.201406,18.71875 C180.201406,20.5625 181.068594,21.6640625 182.467031,21.6640625 C183.529531,21.6640625 184.256094,21.1796875 184.474844,20.265625 L186.107656,20.265625 C185.888906,21.9765625 184.576406,23.1640625 182.474844,23.1640625 C179.998281,23.1640625 178.482656,21.4921875 178.482656,18.71875 C178.482656,15.9921875 179.990469,14.328125 182.467031,14.328125 C184.599844,14.328125 185.888906,15.5703125 186.107656,17.2734375 Z M191.193906,15.7578125 C189.951719,15.7578125 189.084531,16.6328125 188.990781,17.9609375 L193.287656,17.9609375 C193.248594,16.625 192.436094,15.7578125 191.193906,15.7578125 Z M193.279844,20.703125 L194.897031,20.703125 C194.514219,22.2265625 193.154844,23.1640625 191.209531,23.1640625 C188.772031,23.1640625 187.279844,21.4921875 187.279844,18.7734375 C187.279844,16.0546875 188.803281,14.328125 191.201719,14.328125 C193.568906,14.328125 194.998594,15.9453125 194.998594,18.6171875 L194.998594,19.203125 L188.990781,19.203125 L188.990781,19.296875 C189.045469,20.7890625 189.912656,21.734375 191.256406,21.734375 C192.272031,21.734375 192.967344,21.3671875 193.279844,20.703125 Z"/>
      </g>
      <path fill="#C8226C" fill-rule="nonzero" d="M45.709,1.598 L41.748,1.598 L41.748,0.374 L48.174,0.374 L44.842,4.607 C46.814,4.607 48.208,6.018 48.208,8.024 C48.208,10.149 46.61,11.73 44.451,11.73 C42.666,11.73 41.391,10.727 41,9.01 L42.224,8.789 C42.53,9.877 43.329,10.489 44.383,10.489 C45.76,10.489 46.848,9.452 46.848,8.126 C46.848,6.766 45.828,5.814 44.349,5.814 C43.822,5.814 43.482,5.916 42.989,6.205 L42.428,5.712 L45.709,1.598 Z M55.348,0.374 L52.441,4.913 C52.917,4.743 53.138,4.692 53.546,4.692 C55.433,4.692 56.895,6.171 56.895,8.092 C56.895,10.098 55.246,11.747 53.24,11.747 C51.217,11.747 49.653,10.149 49.653,8.092 C49.653,7.259 49.874,6.63 50.52,5.593 L53.767,0.374 L55.348,0.374 Z M53.308,5.848 C52.016,5.848 50.996,6.834 50.996,8.092 C50.996,9.418 51.999,10.472 53.274,10.472 C54.549,10.472 55.569,9.435 55.569,8.143 C55.569,6.868 54.566,5.848 53.308,5.848 Z M58.816,3.706 L60.108,3.706 L60.108,5.134 C60.856,3.978 61.655,3.519 62.964,3.519 C65.14,3.519 66.653,5.185 66.653,7.565 C66.653,10.03 65.14,11.73 62.964,11.73 C62.352,11.73 61.791,11.594 61.247,11.322 C60.771,11.084 60.533,10.88 60.108,10.319 L60.108,15.215 L58.816,15.215 L58.816,3.706 Z M62.743,4.675 C61.179,4.675 60.108,5.916 60.108,7.752 C60.108,9.469 61.145,10.608 62.692,10.608 C64.239,10.608 65.276,9.401 65.276,7.616 C65.276,6.698 65.055,6.001 64.596,5.491 C64.137,4.981 63.44,4.675 62.743,4.675 Z M71.107,8.704 L69.016,11.543 L67.435,11.543 L70.325,7.65 L67.384,3.706 L69.016,3.706 L71.107,6.579 L73.249,3.706 L74.83,3.706 L71.872,7.65 L74.694,11.543 L73.113,11.543 L71.107,8.704 Z M77.159,9.911 C77.669,9.911 78.043,10.285 78.043,10.812 C78.043,11.305 77.652,11.679 77.159,11.679 C76.649,11.679 76.275,11.305 76.275,10.795 C76.275,10.285 76.649,9.911 77.159,9.911 Z M77.159,5.015 C77.669,5.015 78.043,5.389 78.043,5.916 C78.043,6.409 77.652,6.783 77.159,6.783 C76.649,6.783 76.275,6.409 76.275,5.899 C76.275,5.389 76.649,5.015 77.159,5.015 Z M84.877,8.5 L86.237,8.5 C86.305,9.792 87.002,10.472 88.243,10.472 C89.518,10.472 90.419,9.69 90.419,8.551 C90.419,7.565 89.909,7.106 88.124,6.511 C86.781,6.052 86.339,5.831 85.829,5.372 C85.251,4.845 84.945,4.097 84.945,3.23 C84.945,1.309 86.322,0 88.328,0 C90.334,0 91.643,1.275 91.694,3.247 L90.266,3.247 C90.249,2.669 90.181,2.397 89.994,2.074 C89.671,1.581 89.042,1.275 88.311,1.275 C87.189,1.275 86.39,2.04 86.39,3.128 C86.39,3.672 86.628,4.148 87.036,4.437 C87.393,4.692 87.699,4.828 88.855,5.236 C90.062,5.661 90.64,5.967 91.099,6.46 C91.592,6.987 91.864,7.701 91.864,8.466 C91.864,10.421 90.419,11.747 88.294,11.747 C86.849,11.747 85.863,11.237 85.268,10.217 C84.996,9.758 84.877,9.282 84.877,8.738 L84.877,8.5 Z M101.18,8.041 L94.652,8.041 C94.72,8.704 94.839,9.044 95.162,9.469 C95.672,10.166 96.42,10.54 97.27,10.54 C98.239,10.54 99.157,10.013 99.616,9.197 L100.755,9.622 C100.109,10.931 98.766,11.73 97.27,11.73 C94.941,11.73 93.275,10.03 93.275,7.65 C93.275,5.236 94.924,3.519 97.219,3.519 C99.497,3.519 101.197,5.236 101.197,7.531 C101.197,7.633 101.197,7.854 101.18,8.041 Z M94.669,7.089 L99.82,7.089 C99.769,6.477 99.65,6.137 99.378,5.746 C98.885,5.083 98.086,4.675 97.219,4.675 C96.352,4.675 95.57,5.083 95.111,5.763 C94.873,6.137 94.771,6.46 94.669,7.089 Z M103.067,3.706 L104.359,3.706 L104.359,4.811 C105.039,3.893 105.719,3.519 106.688,3.519 C107.402,3.519 108.048,3.757 108.507,4.165 C109,4.641 109.17,5.185 109.17,6.256 L109.17,11.543 L107.878,11.543 L107.878,6.545 C107.878,5.848 107.793,5.474 107.589,5.202 C107.351,4.879 106.892,4.675 106.365,4.675 C105.787,4.675 105.26,4.896 104.869,5.338 C104.495,5.746 104.359,6.12 104.359,6.766 L104.359,11.543 L103.067,11.543 L103.067,3.706 Z M113.097,4.845 L113.097,9.945 C113.114,10.336 113.216,10.421 113.692,10.421 L114.287,10.421 L114.287,11.543 L113.08,11.543 C112.162,11.526 111.805,11.186 111.805,10.319 L111.805,4.845 L110.717,4.845 L110.717,3.706 L111.805,3.706 L111.805,1.241 L113.097,1.241 L113.097,3.706 L114.287,3.706 L114.287,4.845 L113.097,4.845 Z M123.246,8.041 L116.718,8.041 C116.786,8.704 116.905,9.044 117.228,9.469 C117.738,10.166 118.486,10.54 119.336,10.54 C120.305,10.54 121.223,10.013 121.682,9.197 L122.821,9.622 C122.175,10.931 120.832,11.73 119.336,11.73 C117.007,11.73 115.341,10.03 115.341,7.65 C115.341,5.236 116.99,3.519 119.285,3.519 C121.563,3.519 123.263,5.236 123.263,7.531 C123.263,7.633 123.263,7.854 123.246,8.041 Z M116.735,7.089 L121.886,7.089 C121.835,6.477 121.716,6.137 121.444,5.746 C120.951,5.083 120.152,4.675 119.285,4.675 C118.418,4.675 117.636,5.083 117.177,5.763 C116.939,6.137 116.837,6.46 116.735,7.089 Z M125.133,3.706 L126.425,3.706 L126.425,4.811 C127.105,3.893 127.785,3.519 128.754,3.519 C129.468,3.519 130.114,3.757 130.573,4.165 C131.066,4.641 131.236,5.185 131.236,6.256 L131.236,11.543 L129.944,11.543 L129.944,6.545 C129.944,5.848 129.859,5.474 129.655,5.202 C129.417,4.879 128.958,4.675 128.431,4.675 C127.853,4.675 127.326,4.896 126.935,5.338 C126.561,5.746 126.425,6.12 126.425,6.766 L126.425,11.543 L125.133,11.543 L125.133,3.706 Z M139.09,9.69 L139.889,10.574 C139.005,11.373 138.138,11.73 136.999,11.73 C134.755,11.73 133.157,10.03 133.157,7.65 C133.157,5.219 134.772,3.519 137.067,3.519 C138.189,3.519 139.107,3.893 139.923,4.692 L139.09,5.525 C138.495,4.981 137.832,4.709 137.101,4.709 C135.554,4.709 134.483,5.899 134.483,7.599 C134.483,9.333 135.554,10.54 137.084,10.54 C137.849,10.54 138.461,10.285 139.09,9.69 Z M148.542,8.041 L142.014,8.041 C142.082,8.704 142.201,9.044 142.524,9.469 C143.034,10.166 143.782,10.54 144.632,10.54 C145.601,10.54 146.519,10.013 146.978,9.197 L148.117,9.622 C147.471,10.931 146.128,11.73 144.632,11.73 C142.303,11.73 140.637,10.03 140.637,7.65 C140.637,5.236 142.286,3.519 144.581,3.519 C146.859,3.519 148.559,5.236 148.559,7.531 C148.559,7.633 148.559,7.854 148.542,8.041 Z M142.031,7.089 L147.182,7.089 C147.131,6.477 147.012,6.137 146.74,5.746 C146.247,5.083 145.448,4.675 144.581,4.675 C143.714,4.675 142.932,5.083 142.473,5.763 C142.235,6.137 142.133,6.46 142.031,7.089 Z M160.833,9.69 L161.632,10.574 C160.748,11.373 159.881,11.73 158.742,11.73 C156.498,11.73 154.9,10.03 154.9,7.65 C154.9,5.219 156.515,3.519 158.81,3.519 C159.932,3.519 160.85,3.893 161.666,4.692 L160.833,5.525 C160.238,4.981 159.575,4.709 158.844,4.709 C157.297,4.709 156.226,5.899 156.226,7.599 C156.226,9.333 157.297,10.54 158.827,10.54 C159.592,10.54 160.204,10.285 160.833,9.69 Z M168.959,4.998 L168.959,3.706 L170.251,3.706 L170.251,11.543 L168.959,11.543 L168.959,10.03 C168.177,11.203 167.293,11.73 166.103,11.73 C163.944,11.73 162.414,10.03 162.414,7.65 C162.414,5.253 163.978,3.519 166.137,3.519 C167.327,3.519 168.194,3.978 168.959,4.998 Z M166.324,4.675 C165.474,4.675 164.879,4.964 164.42,5.61 C164.012,6.171 163.774,6.919 163.774,7.684 C163.774,9.35 164.862,10.608 166.29,10.608 C167.769,10.608 168.976,9.231 168.976,7.548 C168.976,5.848 167.888,4.675 166.324,4.675 Z M177.748,5.848 L176.456,5.848 L176.456,5.763 C176.456,5.032 175.861,4.573 174.96,4.573 C174.093,4.573 173.549,5.015 173.549,5.695 C173.549,6.375 173.889,6.63 175.3,7.021 C176.303,7.293 176.83,7.548 177.204,7.922 C177.595,8.313 177.833,8.874 177.833,9.452 C177.833,10.812 176.711,11.73 175.045,11.73 C173.26,11.73 172.257,10.897 172.121,9.316 L173.396,9.316 C173.481,10.2 174.059,10.676 175.045,10.676 C175.929,10.676 176.507,10.217 176.507,9.52 C176.507,8.84 176.065,8.5 174.722,8.16 C173.022,7.701 172.257,6.987 172.257,5.797 C172.257,4.437 173.362,3.519 175.011,3.519 C176.677,3.519 177.68,4.369 177.748,5.848 Z M181.114,3.706 L181.114,11.543 L179.822,11.543 L179.822,3.706 L181.114,3.706 Z M180.485,0.663 C180.944,0.663 181.301,1.037 181.301,1.513 C181.301,1.972 180.927,2.329 180.468,2.329 C180.009,2.329 179.652,1.972 179.652,1.496 C179.652,1.02 180.009,0.663 180.485,0.663 Z M183.715,3.706 L185.007,3.706 L185.007,4.811 C185.687,3.893 186.367,3.519 187.336,3.519 C188.05,3.519 188.696,3.757 189.155,4.165 C189.648,4.641 189.818,5.185 189.818,6.256 L189.818,11.543 L188.526,11.543 L188.526,6.545 C188.526,5.848 188.441,5.474 188.237,5.202 C187.999,4.879 187.54,4.675 187.013,4.675 C186.435,4.675 185.908,4.896 185.517,5.338 C185.143,5.746 185.007,6.12 185.007,6.766 L185.007,11.543 L183.715,11.543 L183.715,3.706 Z M198.131,5.049 L198.131,3.706 L199.423,3.706 L199.423,11.594 C199.423,12.903 199.1,13.787 198.386,14.467 C197.689,15.147 196.686,15.504 195.496,15.504 C194.034,15.504 192.878,15.028 192.028,14.076 L192.912,13.192 C193.269,13.566 193.439,13.719 193.66,13.872 C194.102,14.144 194.833,14.331 195.496,14.331 C196.312,14.331 197.094,14.042 197.536,13.566 C197.927,13.141 198.131,12.512 198.131,11.696 L198.131,10.047 C197.366,11.203 196.465,11.73 195.241,11.73 C193.167,11.73 191.62,9.979 191.62,7.65 C191.62,6.392 192.079,5.185 192.861,4.437 C193.49,3.825 194.34,3.519 195.343,3.519 C196.533,3.519 197.332,3.961 198.131,5.049 Z M195.581,4.709 C194.051,4.709 192.98,5.899 192.98,7.599 C192.98,9.282 194.068,10.54 195.547,10.54 C196.295,10.54 197.026,10.183 197.536,9.588 C197.876,9.197 198.097,8.432 198.097,7.65 C198.097,6.63 197.944,6.086 197.485,5.576 C197.009,5.049 196.278,4.709 195.581,4.709 Z"/>
    </g>
  </g>
</svg>
