<svg xmlns="http://www.w3.org/2000/svg" width="300" height="180" viewBox="0 0 300 180">
  <g fill="none" fill-rule="evenodd">
    <rect width="300" height="180" fill="#FFF" fill-opacity=".01" fill-rule="nonzero"/>
    <g transform="translate(30 52)">
      <g transform="translate(0 41)">
        <rect width="240" height="36" fill="#314351" rx="4"/>
        <path fill="#FFF" fill-rule="nonzero" d="M47.6885937,13.265625 L47.6885937,17.2109375 L50.2042187,17.2109375 C51.5557812,17.2109375 52.3370312,16.4921875 52.3370312,15.234375 C52.3370312,14.0078125 51.5089062,13.265625 50.1573437,13.265625 L47.6885937,13.265625 Z M47.6885937,18.703125 L47.6885937,23 L45.9385937,23 L45.9385937,11.7265625 L50.3995312,11.7265625 C52.6729687,11.7265625 54.1339062,13.078125 54.1339062,15.1953125 C54.1339062,16.7109375 53.3214062,17.9453125 51.9464062,18.4140625 L54.4776562,23 L52.4542187,23 L50.1573437,18.703125 L47.6885937,18.703125 Z M59.3529687,15.7578125 C58.1107812,15.7578125 57.2435937,16.6328125 57.1498437,17.9609375 L61.4467187,17.9609375 C61.4076562,16.625 60.5951562,15.7578125 59.3529687,15.7578125 Z M61.4389062,20.703125 L63.0560937,20.703125 C62.6732812,22.2265625 61.3139062,23.1640625 59.3685937,23.1640625 C56.9310937,23.1640625 55.4389062,21.4921875 55.4389062,18.7734375 C55.4389062,16.0546875 56.9623437,14.328125 59.3607812,14.328125 C61.7279687,14.328125 63.1576562,15.9453125 63.1576562,18.6171875 L63.1576562,19.203125 L57.1498437,19.203125 L57.1498437,19.296875 C57.2045312,20.7890625 58.0717187,21.734375 59.4154687,21.734375 C60.4310937,21.734375 61.1264062,21.3671875 61.4389062,20.703125 Z M64.8532812,23 L64.8532812,14.4921875 L66.4704687,14.4921875 L66.4704687,15.859375 L66.5954687,15.859375 C66.9704687,14.8984375 67.8298437,14.328125 68.9626562,14.328125 C70.1267187,14.328125 70.9314062,14.9296875 71.3064062,15.859375 L71.4392187,15.859375 C71.8689062,14.9296875 72.8454687,14.328125 74.0251562,14.328125 C75.7439062,14.328125 76.7439062,15.3671875 76.7439062,17.140625 L76.7439062,23 L75.0642187,23 L75.0642187,17.578125 C75.0642187,16.4296875 74.5173437,15.8671875 73.4157812,15.8671875 C72.3298437,15.8671875 71.6189062,16.6484375 71.6189062,17.6484375 L71.6189062,23 L69.9704687,23 L69.9704687,17.4140625 C69.9704687,16.453125 69.3298437,15.8671875 68.3298437,15.8671875 C67.3064062,15.8671875 66.5329687,16.703125 66.5329687,17.796875 L66.5329687,23 L64.8532812,23 Z M82.3770312,23.1640625 C79.8848437,23.1640625 78.3614062,21.5 78.3614062,18.7421875 C78.3614062,16 79.8926562,14.328125 82.3770312,14.328125 C84.8535937,14.328125 86.3848437,16 86.3848437,18.7421875 C86.3848437,21.5 84.8614062,23.1640625 82.3770312,23.1640625 Z M82.3770312,21.671875 C83.8301562,21.671875 84.6582812,20.59375 84.6582812,18.7421875 C84.6582812,16.8984375 83.8301562,15.8203125 82.3770312,15.8203125 C80.9160937,15.8203125 80.0957812,16.8984375 80.0957812,18.7421875 C80.0957812,20.6015625 80.9160937,21.671875 82.3770312,21.671875 Z M94.9554687,14.4921875 L91.8929687,23 L90.0882812,23 L87.0179687,14.4921875 L88.8148437,14.4921875 L90.9320312,21.203125 L91.0648437,21.203125 L93.1742187,14.4921875 L94.9554687,14.4921875 Z M99.5026562,15.7578125 C98.2604687,15.7578125 97.3932812,16.6328125 97.2995312,17.9609375 L101.596406,17.9609375 C101.557344,16.625 100.744844,15.7578125 99.5026562,15.7578125 Z M101.588594,20.703125 L103.205781,20.703125 C102.822969,22.2265625 101.463594,23.1640625 99.5182812,23.1640625 C97.0807812,23.1640625 95.5885937,21.4921875 95.5885937,18.7734375 C95.5885937,16.0546875 97.1120312,14.328125 99.5104687,14.328125 C101.877656,14.328125 103.307344,15.9453125 103.307344,18.6171875 L103.307344,19.203125 L97.2995312,19.203125 L97.2995312,19.296875 C97.3542187,20.7890625 98.2214062,21.734375 99.5651562,21.734375 C100.580781,21.734375 101.276094,21.3671875 101.588594,20.703125 Z M109.659531,23 L109.659531,15.9453125 L108.261094,15.9453125 L108.261094,14.53125 L109.659531,14.53125 L109.659531,13.6171875 C109.659531,11.9296875 110.518906,11.09375 112.284531,11.09375 C112.667344,11.09375 112.995469,11.125 113.284531,11.1796875 L113.284531,12.5 C113.128281,12.46875 112.901719,12.453125 112.636094,12.453125 C111.698594,12.453125 111.315781,12.875 111.315781,13.71875 L111.315781,14.53125 L113.214219,14.53125 L113.214219,15.9453125 L111.339219,15.9453125 L111.339219,23 L109.659531,23 Z M114.792656,23 L114.792656,14.4921875 L116.409844,14.4921875 L116.409844,15.796875 L116.534844,15.796875 C116.777031,14.9609375 117.722344,14.3515625 118.831719,14.3515625 C119.081719,14.3515625 119.402031,14.375 119.581719,14.421875 L119.581719,16.078125 C119.441094,16.03125 118.941094,15.9765625 118.644219,15.9765625 C117.370781,15.9765625 116.472344,16.78125 116.472344,17.9765625 L116.472344,23 L114.792656,23 Z M124.253906,23.1640625 C121.761719,23.1640625 120.238281,21.5 120.238281,18.7421875 C120.238281,16 121.769531,14.328125 124.253906,14.328125 C126.730469,14.328125 128.261719,16 128.261719,18.7421875 C128.261719,21.5 126.738281,23.1640625 124.253906,23.1640625 Z M124.253906,21.671875 C125.707031,21.671875 126.535156,20.59375 126.535156,18.7421875 C126.535156,16.8984375 125.707031,15.8203125 124.253906,15.8203125 C122.792969,15.8203125 121.972656,16.8984375 121.972656,18.7421875 C121.972656,20.6015625 122.792969,21.671875 124.253906,21.671875 Z M129.957344,23 L129.957344,14.4921875 L131.574531,14.4921875 L131.574531,15.859375 L131.699531,15.859375 C132.074531,14.8984375 132.933906,14.328125 134.066719,14.328125 C135.230781,14.328125 136.035469,14.9296875 136.410469,15.859375 L136.543281,15.859375 C136.972969,14.9296875 137.949531,14.328125 139.129219,14.328125 C140.847969,14.328125 141.847969,15.3671875 141.847969,17.140625 L141.847969,23 L140.168281,23 L140.168281,17.578125 C140.168281,16.4296875 139.621406,15.8671875 138.519844,15.8671875 C137.433906,15.8671875 136.722969,16.6484375 136.722969,17.6484375 L136.722969,23 L135.074531,23 L135.074531,17.4140625 C135.074531,16.453125 134.433906,15.8671875 133.433906,15.8671875 C132.410469,15.8671875 131.637031,16.703125 131.637031,17.796875 L131.637031,23 L129.957344,23 Z M151.051719,23.140625 C148.887656,23.140625 147.520469,21.4375 147.520469,18.7421875 C147.520469,16.0546875 148.903281,14.3515625 151.051719,14.3515625 C152.215781,14.3515625 153.200156,14.90625 153.661094,15.84375 L153.786094,15.84375 L153.786094,11.171875 L155.465781,11.171875 L155.465781,23 L153.856406,23 L153.856406,21.65625 L153.723594,21.65625 C153.215781,22.5859375 152.223594,23.140625 151.051719,23.140625 Z M151.528281,15.859375 C150.114219,15.859375 149.254844,16.953125 149.254844,18.7421875 C149.254844,20.546875 150.106406,21.6328125 151.528281,21.6328125 C152.942344,21.6328125 153.817344,20.53125 153.817344,18.75 C153.817344,16.9765625 152.934531,15.859375 151.528281,15.859375 Z M161.153594,15.7578125 C159.911406,15.7578125 159.044219,16.6328125 158.950469,17.9609375 L163.247344,17.9609375 C163.208281,16.625 162.395781,15.7578125 161.153594,15.7578125 Z M163.239531,20.703125 L164.856719,20.703125 C164.473906,22.2265625 163.114531,23.1640625 161.169219,23.1640625 C158.731719,23.1640625 157.239531,21.4921875 157.239531,18.7734375 C157.239531,16.0546875 158.762969,14.328125 161.161406,14.328125 C163.528594,14.328125 164.958281,15.9453125 164.958281,18.6171875 L164.958281,19.203125 L158.950469,19.203125 L158.950469,19.296875 C159.005156,20.7890625 159.872344,21.734375 161.216094,21.734375 C162.231719,21.734375 162.927031,21.3671875 163.239531,20.703125 Z M173.669531,14.4921875 L170.607031,23 L168.802344,23 L165.732031,14.4921875 L167.528906,14.4921875 L169.646094,21.203125 L169.778906,21.203125 L171.888281,14.4921875 L173.669531,14.4921875 Z M175.083906,23 L175.083906,14.4921875 L176.755781,14.4921875 L176.755781,23 L175.083906,23 Z M175.919844,13 C175.294844,13 174.833906,12.5546875 174.833906,11.9765625 C174.833906,11.390625 175.294844,10.9453125 175.919844,10.9453125 C176.544844,10.9453125 177.005781,11.390625 177.005781,11.9765625 C177.005781,12.5546875 176.544844,13 175.919844,13 Z M186.107656,17.2734375 L184.474844,17.2734375 C184.279531,16.4453125 183.592031,15.828125 182.467031,15.828125 C181.060781,15.828125 180.201406,16.90625 180.201406,18.71875 C180.201406,20.5625 181.068594,21.6640625 182.467031,21.6640625 C183.529531,21.6640625 184.256094,21.1796875 184.474844,20.265625 L186.107656,20.265625 C185.888906,21.9765625 184.576406,23.1640625 182.474844,23.1640625 C179.998281,23.1640625 178.482656,21.4921875 178.482656,18.71875 C178.482656,15.9921875 179.990469,14.328125 182.467031,14.328125 C184.599844,14.328125 185.888906,15.5703125 186.107656,17.2734375 Z M191.193906,15.7578125 C189.951719,15.7578125 189.084531,16.6328125 188.990781,17.9609375 L193.287656,17.9609375 C193.248594,16.625 192.436094,15.7578125 191.193906,15.7578125 Z M193.279844,20.703125 L194.897031,20.703125 C194.514219,22.2265625 193.154844,23.1640625 191.209531,23.1640625 C188.772031,23.1640625 187.279844,21.4921875 187.279844,18.7734375 C187.279844,16.0546875 188.803281,14.328125 191.201719,14.328125 C193.568906,14.328125 194.998594,15.9453125 194.998594,18.6171875 L194.998594,19.203125 L188.990781,19.203125 L188.990781,19.296875 C189.045469,20.7890625 189.912656,21.734375 191.256406,21.734375 C192.272031,21.734375 192.967344,21.3671875 193.279844,20.703125 Z"/>
      </g>
      <path fill="#C8226C" fill-rule="nonzero" d="M40.9771874,10.8046875 L40.9771874,9.6015625 L42.3443749,9.6015625 C43.6256249,9.6015625 44.5318749,8.7734375 44.5318749,7.6015625 C44.5318749,6.453125 43.6646874,5.6875 42.3678124,5.6875 C41.0709374,5.6875 40.2193749,6.40625 40.1021874,7.6171875 L38.7349999,7.6171875 C38.8756249,5.6640625 40.2740624,4.4609375 42.4224999,4.4609375 C44.3912499,4.4609375 45.9615624,5.7734375 45.9615624,7.4140625 C45.9615624,8.7578125 45.2193749,9.7421875 43.9849999,10.0390625 L43.9849999,10.1640625 C45.5162499,10.359375 46.4459374,11.421875 46.4459374,12.9609375 C46.4459374,14.8203125 44.7037499,16.265625 42.4771874,16.265625 C40.1881249,16.265625 38.6099999,14.9921875 38.5084374,13.0625 L39.8678124,13.0625 C39.9928124,14.265625 41.0084374,15.0390625 42.4615624,15.0390625 C43.9459374,15.0390625 45.0006249,14.15625 45.0006249,12.921875 C45.0006249,11.6171875 44.0084374,10.8046875 42.4068749,10.8046875 L40.9771874,10.8046875 Z M52.3681249,16.2578125 C50.6728124,16.2578125 49.3759374,15.3515625 48.6728124,13.6953125 C48.3056249,12.8359375 48.1259374,11.796875 48.1259374,10.5546875 C48.1259374,6.6796875 49.7040624,4.4609375 52.4618749,4.4609375 C54.3759374,4.4609375 55.7978124,5.59375 56.1571874,7.40625 L54.7118749,7.40625 C54.4071874,6.3515625 53.5556249,5.7109375 52.4462499,5.7109375 C50.6103124,5.7109375 49.5712499,7.3359375 49.4931249,10.3359375 L49.6181249,10.3359375 C50.1728124,9.2421875 51.2743749,8.6015625 52.6181249,8.6015625 C54.7665624,8.6015625 56.3212499,10.1875 56.3212499,12.375 C56.3212499,14.640625 54.6806249,16.2578125 52.3681249,16.2578125 Z M52.3524999,15.0234375 C53.7978124,15.0234375 54.8993749,13.8984375 54.8993749,12.421875 C54.8993749,10.8828125 53.8603124,9.8203125 52.3681249,9.8203125 C50.8759374,9.8203125 49.8056249,10.8828125 49.8056249,12.375 C49.8056249,13.8828125 50.9071874,15.0234375 52.3524999,15.0234375 Z M62.3684374,7.4296875 C64.5168749,7.4296875 65.9074999,9.140625 65.9074999,11.7890625 C65.9074999,14.421875 64.5090624,16.1484375 62.3684374,16.1484375 C61.1653124,16.1484375 60.1965624,15.625 59.7356249,14.734375 L59.6106249,14.734375 L59.6106249,18.8125 L58.2668749,18.8125 L58.2668749,7.578125 L59.5481249,7.578125 L59.5481249,8.984375 L59.6731249,8.984375 C60.2121874,8.015625 61.2199999,7.4296875 62.3684374,7.4296875 Z M62.0481249,14.9375 C63.5949999,14.9375 64.5168749,13.7578125 64.5168749,11.7890625 C64.5168749,9.8203125 63.5949999,8.640625 62.0559374,8.640625 C60.5324999,8.640625 59.5715624,9.8515625 59.5715624,11.7890625 C59.5715624,13.71875 60.5324999,14.9375 62.0481249,14.9375 Z M70.2906249,12.8203125 L70.1656249,12.8203125 L68.1656249,16 L66.6421874,16 L69.5249999,11.7890625 L66.6109374,7.578125 L68.2124999,7.578125 L70.2124999,10.7109375 L70.3374999,10.7109375 L72.3140624,7.578125 L73.8374999,7.578125 L70.9781249,11.734375 L73.8765624,16 L72.2828124,16 L70.2906249,12.8203125 Z M76.501875,16.078125 C75.9471875,16.078125 75.48625,15.6171875 75.48625,15.0625 C75.48625,14.5 75.9471875,14.046875 76.501875,14.046875 C77.064375,14.046875 77.5175,14.5 77.5175,15.0625 C77.5175,15.6171875 77.064375,16.078125 76.501875,16.078125 Z M76.501875,10.0703125 C75.9471875,10.0703125 75.48625,9.609375 75.48625,9.0546875 C75.48625,8.4921875 75.9471875,8.0390625 76.501875,8.0390625 C77.064375,8.0390625 77.5175,8.4921875 77.5175,9.0546875 C77.5175,9.609375 77.064375,10.0703125 76.501875,10.0703125 Z M83.6509375,13.0546875 L85.0728125,13.0546875 C85.2446875,14.234375 86.3696875,14.984375 87.97125,14.984375 C89.486875,14.984375 90.6040625,14.1640625 90.6040625,13.046875 C90.6040625,12.0859375 89.9009375,11.4765625 88.34625,11.0859375 L86.9009375,10.7109375 C84.861875,10.1953125 83.9790625,9.2734375 83.9790625,7.671875 C83.9790625,5.7578125 85.580625,4.4609375 87.9634375,4.4609375 C90.143125,4.4609375 91.768125,5.7578125 91.8853125,7.578125 L90.47125,7.578125 C90.2759375,6.421875 89.3228125,5.734375 87.9165625,5.734375 C86.4165625,5.734375 85.424375,6.484375 85.424375,7.625 C85.424375,8.5078125 86.0415625,9.015625 87.59625,9.4140625 L88.7759375,9.7265625 C91.111875,10.3125 92.049375,11.21875 92.049375,12.875 C92.049375,14.9453125 90.4165625,16.265625 87.8384375,16.265625 C85.4478125,16.265625 83.799375,15 83.6509375,13.0546875 Z M97.2528125,8.6171875 C95.9090625,8.6171875 94.9715625,9.6015625 94.87,11.09375 L99.510625,11.09375 C99.479375,9.6015625 98.58875,8.6171875 97.2528125,8.6171875 Z M99.4715625,13.8203125 L100.815312,13.8203125 C100.409062,15.265625 99.1121875,16.1484375 97.2684375,16.1484375 C94.9325,16.1484375 93.4715625,14.4609375 93.4715625,11.796875 C93.4715625,9.1484375 94.9559375,7.4296875 97.2684375,7.4296875 C99.541875,7.4296875 100.924687,9.046875 100.924687,11.6640625 L100.924687,12.1796875 L94.87,12.1796875 L94.87,12.2421875 C94.9403125,13.90625 95.87,14.9609375 97.2996875,14.9609375 C98.385625,14.9609375 99.12,14.5625 99.4715625,13.8203125 Z M102.714062,16 L102.714062,7.578125 L103.995312,7.578125 L103.995312,8.90625 L104.120312,8.90625 C104.542187,7.9765625 105.3625,7.4296875 106.651562,7.4296875 C108.542187,7.4296875 109.596875,8.546875 109.596875,10.546875 L109.596875,16 L108.253125,16 L108.253125,10.875 C108.253125,9.359375 107.6125,8.640625 106.26875,8.640625 C104.925,8.640625 104.057812,9.5390625 104.057812,11.015625 L104.057812,16 L102.714062,16 Z M112.2925,5.3984375 L113.63625,5.3984375 L113.63625,7.578125 L115.51125,7.578125 L115.51125,8.703125 L113.63625,8.703125 L113.63625,13.46875 C113.63625,14.4609375 114.01125,14.8828125 114.88625,14.8828125 C115.128437,14.8828125 115.26125,14.875 115.51125,14.8515625 L115.51125,15.984375 C115.245625,16.03125 114.987812,16.0625 114.722187,16.0625 C112.987812,16.0625 112.2925,15.421875 112.2925,13.8125 L112.2925,8.703125 L110.933125,8.703125 L110.933125,7.578125 L112.2925,7.578125 L112.2925,5.3984375 Z M120.464687,8.6171875 C119.120937,8.6171875 118.183437,9.6015625 118.081875,11.09375 L122.7225,11.09375 C122.69125,9.6015625 121.800625,8.6171875 120.464687,8.6171875 Z M122.683437,13.8203125 L124.027187,13.8203125 C123.620937,15.265625 122.324062,16.1484375 120.480312,16.1484375 C118.144375,16.1484375 116.683437,14.4609375 116.683437,11.796875 C116.683437,9.1484375 118.167812,7.4296875 120.480312,7.4296875 C122.75375,7.4296875 124.136562,9.046875 124.136562,11.6640625 L124.136562,12.1796875 L118.081875,12.1796875 L118.081875,12.2421875 C118.152187,13.90625 119.081875,14.9609375 120.511562,14.9609375 C121.5975,14.9609375 122.331875,14.5625 122.683437,13.8203125 Z M125.925938,16 L125.925938,7.578125 L127.207188,7.578125 L127.207188,8.90625 L127.332188,8.90625 C127.754063,7.9765625 128.574375,7.4296875 129.863438,7.4296875 C131.754063,7.4296875 132.80875,8.546875 132.80875,10.546875 L132.80875,16 L131.465,16 L131.465,10.875 C131.465,9.359375 130.824375,8.640625 129.480625,8.640625 C128.136875,8.640625 127.269688,9.5390625 127.269688,11.015625 L127.269688,16 L125.925938,16 Z M141.910625,10.15625 L140.55125,10.15625 C140.3325,9.3203125 139.590313,8.640625 138.379375,8.640625 C136.86375,8.640625 135.910625,9.8515625 135.910625,11.7578125 C135.910625,13.703125 136.879375,14.9375 138.379375,14.9375 C139.512188,14.9375 140.30125,14.4140625 140.55125,13.4609375 L141.910625,13.4609375 C141.668438,15.0078125 140.410625,16.1484375 138.387188,16.1484375 C136.027813,16.1484375 134.52,14.4375 134.52,11.7578125 C134.52,9.1328125 136.02,7.4296875 138.379375,7.4296875 C140.42625,7.4296875 141.67625,8.65625 141.910625,10.15625 Z M146.934375,8.6171875 C145.590625,8.6171875 144.653125,9.6015625 144.551563,11.09375 L149.192188,11.09375 C149.160938,9.6015625 148.270313,8.6171875 146.934375,8.6171875 Z M149.153125,13.8203125 L150.496875,13.8203125 C150.090625,15.265625 148.79375,16.1484375 146.95,16.1484375 C144.614063,16.1484375 143.153125,14.4609375 143.153125,11.796875 C143.153125,9.1484375 144.6375,7.4296875 146.95,7.4296875 C149.223438,7.4296875 150.60625,9.046875 150.60625,11.6640625 L150.60625,12.1796875 L144.551563,12.1796875 L144.551563,12.2421875 C144.621875,13.90625 145.551563,14.9609375 146.98125,14.9609375 C148.067188,14.9609375 148.801563,14.5625 149.153125,13.8203125 Z M163.56,10.15625 L162.200625,10.15625 C161.981875,9.3203125 161.239688,8.640625 160.02875,8.640625 C158.513125,8.640625 157.56,9.8515625 157.56,11.7578125 C157.56,13.703125 158.52875,14.9375 160.02875,14.9375 C161.161563,14.9375 161.950625,14.4140625 162.200625,13.4609375 L163.56,13.4609375 C163.317813,15.0078125 162.06,16.1484375 160.036563,16.1484375 C157.677188,16.1484375 156.169375,14.4375 156.169375,11.7578125 C156.169375,9.1328125 157.669375,7.4296875 160.02875,7.4296875 C162.075625,7.4296875 163.325625,8.65625 163.56,10.15625 Z M167.818125,14.96875 C169.200938,14.96875 170.224375,14.0625 170.224375,12.859375 L170.224375,12.0859375 L167.95875,12.234375 C166.6775,12.3203125 166.115,12.765625 166.115,13.609375 C166.115,14.46875 166.841563,14.96875 167.818125,14.96875 Z M167.568125,16.1484375 C165.935313,16.1484375 164.724375,15.1796875 164.724375,13.640625 C164.724375,12.1328125 165.83375,11.265625 167.794688,11.1484375 L170.224375,11 L170.224375,10.234375 C170.224375,9.1953125 169.575938,8.625 168.318125,8.625 C167.310313,8.625 166.607188,9.0078125 166.419688,9.671875 L165.060313,9.671875 C165.24,8.3203125 166.568125,7.4296875 168.365,7.4296875 C170.419688,7.4296875 171.568125,8.484375 171.568125,10.234375 L171.568125,16 L170.286875,16 L170.286875,14.7578125 L170.161875,14.7578125 C169.615,15.65625 168.693125,16.1484375 167.568125,16.1484375 Z M173.537188,9.8828125 C173.537188,8.484375 174.88875,7.4296875 176.677813,7.4296875 C178.443438,7.4296875 179.67,8.3046875 179.849688,9.6875 L178.521563,9.6875 C178.341875,9.015625 177.685625,8.5703125 176.67,8.5703125 C175.67,8.5703125 174.88875,9.078125 174.88875,9.828125 C174.88875,10.40625 175.3575,10.765625 176.349688,11.0078125 L177.646563,11.3203125 C179.2325,11.703125 179.998125,12.390625 179.998125,13.6015625 C179.998125,15.109375 178.537188,16.1484375 176.623125,16.1484375 C174.748125,16.1484375 173.459063,15.25 173.310625,13.8515625 L174.693438,13.8515625 C174.92,14.5625 175.591875,15.015625 176.67,15.015625 C177.802813,15.015625 178.615313,14.4765625 178.615313,13.703125 C178.615313,13.125 178.177813,12.734375 177.279375,12.515625 L175.834063,12.1640625 C174.255938,11.78125 173.537188,11.1015625 173.537188,9.8828125 Z M181.81875,16 L181.81875,7.578125 L183.1625,7.578125 L183.1625,16 L181.81875,16 Z M182.490625,5.8671875 C181.975,5.8671875 181.553125,5.4453125 181.553125,4.9296875 C181.553125,4.4140625 181.975,3.9921875 182.490625,3.9921875 C183.00625,3.9921875 183.428125,4.4140625 183.428125,4.9296875 C183.428125,5.4453125 183.00625,5.8671875 182.490625,5.8671875 Z M185.405,16 L185.405,7.578125 L186.68625,7.578125 L186.68625,8.90625 L186.81125,8.90625 C187.233125,7.9765625 188.053438,7.4296875 189.3425,7.4296875 C191.233125,7.4296875 192.287813,8.546875 192.287813,10.546875 L192.287813,16 L190.944063,16 L190.944063,10.875 C190.944063,9.359375 190.303438,8.640625 188.959688,8.640625 C187.615938,8.640625 186.74875,9.5390625 186.74875,11.015625 L186.74875,16 L185.405,16 Z M197.827188,14.6875 C199.389688,14.6875 200.327188,13.5 200.327188,11.6640625 C200.327188,9.828125 199.381875,8.640625 197.827188,8.640625 C196.264688,8.640625 195.389688,9.828125 195.389688,11.6640625 C195.389688,13.5 196.264688,14.6875 197.827188,14.6875 Z M197.889688,19.234375 C195.858438,19.234375 194.561563,18.3203125 194.358438,16.9296875 L195.780313,16.9296875 C195.92875,17.6171875 196.67875,18.0625 197.889688,18.0625 C199.3975,18.0625 200.295938,17.3203125 200.295938,16.078125 L200.295938,14.421875 L200.170938,14.421875 C199.639688,15.3515625 198.686563,15.875 197.530313,15.875 C195.350625,15.875 193.999063,14.1875 193.999063,11.6640625 C193.999063,9.140625 195.36625,7.4296875 197.530313,7.4296875 C198.71,7.4296875 199.749063,8.0078125 200.233438,8.9140625 L200.358438,8.9140625 L200.358438,7.578125 L201.639688,7.578125 L201.639688,16.1484375 C201.639688,18.03125 200.186563,19.234375 197.889688,19.234375 Z"/>
    </g>
  </g>
</svg>
