<svg xmlns="http://www.w3.org/2000/svg" width="300" height="180" viewBox="0 0 300 180">
  <g fill="none" fill-rule="evenodd">
    <rect width="300" height="180" fill="#FFF" fill-opacity=".01" fill-rule="nonzero"/>
    <g transform="translate(30 62)">
      <g transform="translate(0 37)">
        <rect width="240" height="24" fill="#314351" rx="4"/>
        <path fill="#FFF" fill-rule="nonzero" d="M95.924043,17 L94.2863476,17 L94.2863476,7.84033203 L95.924043,7.84033203 L95.924043,17 Z M99.684375,17 L98.1038086,17 L98.1038086,7.84033203 L99.5256836,7.84033203 L104.019824,14.0673828 L104.127734,14.0673828 L104.127734,7.84033203 L105.701953,7.84033203 L105.701953,17 L104.286426,17 L99.7922852,10.7666016 L99.684375,10.7666016 L99.684375,17 Z M107.469121,14.5117188 L109.06873,14.5117188 C109.170293,15.3305664 109.982793,15.8574219 111.144414,15.8574219 C112.223516,15.8574219 113.004277,15.3051758 113.004277,14.5371094 C113.004277,13.8769531 112.502812,13.4897461 111.328496,13.2167969 L110.141484,12.9438477 C108.478398,12.5693359 107.697637,11.7441406 107.697637,10.3793945 C107.697637,8.71630859 109.056035,7.61181641 111.106328,7.61181641 C113.029668,7.61181641 114.419805,8.71630859 114.495977,10.2905273 L112.928105,10.2905273 C112.813848,9.484375 112.10291,8.9765625 111.09998,8.9765625 C110.04627,8.9765625 109.348027,9.484375 109.348027,10.2651367 C109.348027,10.8808594 109.811406,11.2426758 110.947637,11.5029297 L112.001348,11.7441406 C113.861211,12.1630859 114.641973,12.9375 114.641973,14.3339844 C114.641973,16.1176758 113.264531,17.2285156 111.042852,17.2285156 C108.941777,17.2285156 107.551641,16.1748047 107.469121,14.5117188 Z M120.319297,17 L118.681602,17 L118.681602,9.25585938 L115.863242,9.25585938 L115.863242,7.84033203 L123.144004,7.84033203 L123.144004,9.25585938 L120.319297,9.25585938 L120.319297,17 Z M129.671914,17 L128.8975,14.6577148 L125.526895,14.6577148 L124.739785,17 L123.083047,17 L126.333047,7.84033203 L128.173867,7.84033203 L131.430215,17 L129.671914,17 Z M127.16459,9.5859375 L125.907754,13.362793 L128.516641,13.362793 L127.2725,9.5859375 L127.16459,9.5859375 Z M138.764277,15.5654297 L138.764277,17 L132.924434,17 L132.924434,7.84033203 L134.562129,7.84033203 L134.562129,15.5654297 L138.764277,15.5654297 Z M146.28877,15.5654297 L146.28877,17 L140.448926,17 L140.448926,7.84033203 L142.086621,7.84033203 L142.086621,15.5654297 L146.28877,15.5654297 Z"/>
      </g>
      <path fill="#C8226C" fill-rule="nonzero" d="M43.363,10.302 L47.358,10.302 L47.358,11.543 L41,11.543 L44.944,5.899 C46.083,4.25 46.338,3.74 46.338,3.06 C46.338,2.074 45.556,1.377 44.451,1.377 C43.686,1.377 43.057,1.734 42.802,2.329 C42.666,2.652 42.615,2.907 42.598,3.502 L41.323,3.502 C41.391,1.343 42.53,0.153 44.553,0.153 C46.406,0.153 47.698,1.309 47.698,2.958 C47.698,3.91 47.358,4.743 46.406,6.069 L43.363,10.302 Z M53.971,8.993 L49.432,8.993 L49.432,7.939 L55.28,0.051 L55.28,7.769 L56.606,7.769 L56.606,8.993 L55.28,8.993 L55.28,11.543 L53.971,11.543 L53.971,8.993 Z M53.971,7.769 L53.971,3.434 L50.792,7.769 L53.971,7.769 Z M58.561,3.706 L59.853,3.706 L59.853,5.134 C60.601,3.978 61.4,3.519 62.709,3.519 C64.885,3.519 66.398,5.185 66.398,7.565 C66.398,10.03 64.885,11.73 62.709,11.73 C62.097,11.73 61.536,11.594 60.992,11.322 C60.516,11.084 60.278,10.88 59.853,10.319 L59.853,15.215 L58.561,15.215 L58.561,3.706 Z M62.488,4.675 C60.924,4.675 59.853,5.916 59.853,7.752 C59.853,9.469 60.89,10.608 62.437,10.608 C63.984,10.608 65.021,9.401 65.021,7.616 C65.021,6.698 64.8,6.001 64.341,5.491 C63.882,4.981 63.185,4.675 62.488,4.675 Z M70.852,8.704 L68.761,11.543 L67.18,11.543 L70.07,7.65 L67.129,3.706 L68.761,3.706 L70.852,6.579 L72.994,3.706 L74.575,3.706 L71.617,7.65 L74.439,11.543 L72.858,11.543 L70.852,8.704 Z M76.904,9.911 C77.414,9.911 77.788,10.285 77.788,10.812 C77.788,11.305 77.397,11.679 76.904,11.679 C76.394,11.679 76.02,11.305 76.02,10.795 C76.02,10.285 76.394,9.911 76.904,9.911 Z M76.904,5.015 C77.414,5.015 77.788,5.389 77.788,5.916 C77.788,6.409 77.397,6.783 76.904,6.783 C76.394,6.783 76.02,6.409 76.02,5.899 C76.02,5.389 76.394,5.015 76.904,5.015 Z M84.622,8.5 L85.982,8.5 C86.05,9.792 86.747,10.472 87.988,10.472 C89.263,10.472 90.164,9.69 90.164,8.551 C90.164,7.565 89.654,7.106 87.869,6.511 C86.526,6.052 86.084,5.831 85.574,5.372 C84.996,4.845 84.69,4.097 84.69,3.23 C84.69,1.309 86.067,0 88.073,0 C90.079,0 91.388,1.275 91.439,3.247 L90.011,3.247 C89.994,2.669 89.926,2.397 89.739,2.074 C89.416,1.581 88.787,1.275 88.056,1.275 C86.934,1.275 86.135,2.04 86.135,3.128 C86.135,3.672 86.373,4.148 86.781,4.437 C87.138,4.692 87.444,4.828 88.6,5.236 C89.807,5.661 90.385,5.967 90.844,6.46 C91.337,6.987 91.609,7.701 91.609,8.466 C91.609,10.421 90.164,11.747 88.039,11.747 C86.594,11.747 85.608,11.237 85.013,10.217 C84.741,9.758 84.622,9.282 84.622,8.738 L84.622,8.5 Z M100.925,8.041 L94.397,8.041 C94.465,8.704 94.584,9.044 94.907,9.469 C95.417,10.166 96.165,10.54 97.015,10.54 C97.984,10.54 98.902,10.013 99.361,9.197 L100.5,9.622 C99.854,10.931 98.511,11.73 97.015,11.73 C94.686,11.73 93.02,10.03 93.02,7.65 C93.02,5.236 94.669,3.519 96.964,3.519 C99.242,3.519 100.942,5.236 100.942,7.531 C100.942,7.633 100.942,7.854 100.925,8.041 Z M94.414,7.089 L99.565,7.089 C99.514,6.477 99.395,6.137 99.123,5.746 C98.63,5.083 97.831,4.675 96.964,4.675 C96.097,4.675 95.315,5.083 94.856,5.763 C94.618,6.137 94.516,6.46 94.414,7.089 Z M102.812,3.706 L104.104,3.706 L104.104,4.811 C104.784,3.893 105.464,3.519 106.433,3.519 C107.147,3.519 107.793,3.757 108.252,4.165 C108.745,4.641 108.915,5.185 108.915,6.256 L108.915,11.543 L107.623,11.543 L107.623,6.545 C107.623,5.848 107.538,5.474 107.334,5.202 C107.096,4.879 106.637,4.675 106.11,4.675 C105.532,4.675 105.005,4.896 104.614,5.338 C104.24,5.746 104.104,6.12 104.104,6.766 L104.104,11.543 L102.812,11.543 L102.812,3.706 Z M112.842,4.845 L112.842,9.945 C112.859,10.336 112.961,10.421 113.437,10.421 L114.032,10.421 L114.032,11.543 L112.825,11.543 C111.907,11.526 111.55,11.186 111.55,10.319 L111.55,4.845 L110.462,4.845 L110.462,3.706 L111.55,3.706 L111.55,1.241 L112.842,1.241 L112.842,3.706 L114.032,3.706 L114.032,4.845 L112.842,4.845 Z M122.991,8.041 L116.463,8.041 C116.531,8.704 116.65,9.044 116.973,9.469 C117.483,10.166 118.231,10.54 119.081,10.54 C120.05,10.54 120.968,10.013 121.427,9.197 L122.566,9.622 C121.92,10.931 120.577,11.73 119.081,11.73 C116.752,11.73 115.086,10.03 115.086,7.65 C115.086,5.236 116.735,3.519 119.03,3.519 C121.308,3.519 123.008,5.236 123.008,7.531 C123.008,7.633 123.008,7.854 122.991,8.041 Z M116.48,7.089 L121.631,7.089 C121.58,6.477 121.461,6.137 121.189,5.746 C120.696,5.083 119.897,4.675 119.03,4.675 C118.163,4.675 117.381,5.083 116.922,5.763 C116.684,6.137 116.582,6.46 116.48,7.089 Z M124.878,3.706 L126.17,3.706 L126.17,4.811 C126.85,3.893 127.53,3.519 128.499,3.519 C129.213,3.519 129.859,3.757 130.318,4.165 C130.811,4.641 130.981,5.185 130.981,6.256 L130.981,11.543 L129.689,11.543 L129.689,6.545 C129.689,5.848 129.604,5.474 129.4,5.202 C129.162,4.879 128.703,4.675 128.176,4.675 C127.598,4.675 127.071,4.896 126.68,5.338 C126.306,5.746 126.17,6.12 126.17,6.766 L126.17,11.543 L124.878,11.543 L124.878,3.706 Z M138.835,9.69 L139.634,10.574 C138.75,11.373 137.883,11.73 136.744,11.73 C134.5,11.73 132.902,10.03 132.902,7.65 C132.902,5.219 134.517,3.519 136.812,3.519 C137.934,3.519 138.852,3.893 139.668,4.692 L138.835,5.525 C138.24,4.981 137.577,4.709 136.846,4.709 C135.299,4.709 134.228,5.899 134.228,7.599 C134.228,9.333 135.299,10.54 136.829,10.54 C137.594,10.54 138.206,10.285 138.835,9.69 Z M148.287,8.041 L141.759,8.041 C141.827,8.704 141.946,9.044 142.269,9.469 C142.779,10.166 143.527,10.54 144.377,10.54 C145.346,10.54 146.264,10.013 146.723,9.197 L147.862,9.622 C147.216,10.931 145.873,11.73 144.377,11.73 C142.048,11.73 140.382,10.03 140.382,7.65 C140.382,5.236 142.031,3.519 144.326,3.519 C146.604,3.519 148.304,5.236 148.304,7.531 C148.304,7.633 148.304,7.854 148.287,8.041 Z M141.776,7.089 L146.927,7.089 C146.876,6.477 146.757,6.137 146.485,5.746 C145.992,5.083 145.193,4.675 144.326,4.675 C143.459,4.675 142.677,5.083 142.218,5.763 C141.98,6.137 141.878,6.46 141.776,7.089 Z M160.578,9.69 L161.377,10.574 C160.493,11.373 159.626,11.73 158.487,11.73 C156.243,11.73 154.645,10.03 154.645,7.65 C154.645,5.219 156.26,3.519 158.555,3.519 C159.677,3.519 160.595,3.893 161.411,4.692 L160.578,5.525 C159.983,4.981 159.32,4.709 158.589,4.709 C157.042,4.709 155.971,5.899 155.971,7.599 C155.971,9.333 157.042,10.54 158.572,10.54 C159.337,10.54 159.949,10.285 160.578,9.69 Z M168.704,4.998 L168.704,3.706 L169.996,3.706 L169.996,11.543 L168.704,11.543 L168.704,10.03 C167.922,11.203 167.038,11.73 165.848,11.73 C163.689,11.73 162.159,10.03 162.159,7.65 C162.159,5.253 163.723,3.519 165.882,3.519 C167.072,3.519 167.939,3.978 168.704,4.998 Z M166.069,4.675 C165.219,4.675 164.624,4.964 164.165,5.61 C163.757,6.171 163.519,6.919 163.519,7.684 C163.519,9.35 164.607,10.608 166.035,10.608 C167.514,10.608 168.721,9.231 168.721,7.548 C168.721,5.848 167.633,4.675 166.069,4.675 Z M177.493,5.848 L176.201,5.848 L176.201,5.763 C176.201,5.032 175.606,4.573 174.705,4.573 C173.838,4.573 173.294,5.015 173.294,5.695 C173.294,6.375 173.634,6.63 175.045,7.021 C176.048,7.293 176.575,7.548 176.949,7.922 C177.34,8.313 177.578,8.874 177.578,9.452 C177.578,10.812 176.456,11.73 174.79,11.73 C173.005,11.73 172.002,10.897 171.866,9.316 L173.141,9.316 C173.226,10.2 173.804,10.676 174.79,10.676 C175.674,10.676 176.252,10.217 176.252,9.52 C176.252,8.84 175.81,8.5 174.467,8.16 C172.767,7.701 172.002,6.987 172.002,5.797 C172.002,4.437 173.107,3.519 174.756,3.519 C176.422,3.519 177.425,4.369 177.493,5.848 Z M180.859,3.706 L180.859,11.543 L179.567,11.543 L179.567,3.706 L180.859,3.706 Z M180.23,0.663 C180.689,0.663 181.046,1.037 181.046,1.513 C181.046,1.972 180.672,2.329 180.213,2.329 C179.754,2.329 179.397,1.972 179.397,1.496 C179.397,1.02 179.754,0.663 180.23,0.663 Z M183.46,3.706 L184.752,3.706 L184.752,4.811 C185.432,3.893 186.112,3.519 187.081,3.519 C187.795,3.519 188.441,3.757 188.9,4.165 C189.393,4.641 189.563,5.185 189.563,6.256 L189.563,11.543 L188.271,11.543 L188.271,6.545 C188.271,5.848 188.186,5.474 187.982,5.202 C187.744,4.879 187.285,4.675 186.758,4.675 C186.18,4.675 185.653,4.896 185.262,5.338 C184.888,5.746 184.752,6.12 184.752,6.766 L184.752,11.543 L183.46,11.543 L183.46,3.706 Z M197.876,5.049 L197.876,3.706 L199.168,3.706 L199.168,11.594 C199.168,12.903 198.845,13.787 198.131,14.467 C197.434,15.147 196.431,15.504 195.241,15.504 C193.779,15.504 192.623,15.028 191.773,14.076 L192.657,13.192 C193.014,13.566 193.184,13.719 193.405,13.872 C193.847,14.144 194.578,14.331 195.241,14.331 C196.057,14.331 196.839,14.042 197.281,13.566 C197.672,13.141 197.876,12.512 197.876,11.696 L197.876,10.047 C197.111,11.203 196.21,11.73 194.986,11.73 C192.912,11.73 191.365,9.979 191.365,7.65 C191.365,6.392 191.824,5.185 192.606,4.437 C193.235,3.825 194.085,3.519 195.088,3.519 C196.278,3.519 197.077,3.961 197.876,5.049 Z M195.326,4.709 C193.796,4.709 192.725,5.899 192.725,7.599 C192.725,9.282 193.813,10.54 195.292,10.54 C196.04,10.54 196.771,10.183 197.281,9.588 C197.621,9.197 197.842,8.432 197.842,7.65 C197.842,6.63 197.689,6.086 197.23,5.576 C196.754,5.049 196.023,4.709 195.326,4.709 Z"/>
    </g>
  </g>
</svg>
