<svg xmlns="http://www.w3.org/2000/svg" width="300" height="180" viewBox="0 0 300 180">
  <g fill="none" fill-rule="evenodd">
    <rect width="300" height="180" fill="#FFF" fill-opacity=".01" fill-rule="nonzero"/>
    <g transform="translate(30 58)">
      <g transform="translate(0 41)">
        <rect width="240" height="24" fill="#314351" rx="4"/>
        <path fill="#FFF" fill-rule="nonzero" d="M95.924043,17 L94.2863476,17 L94.2863476,7.84033203 L95.924043,7.84033203 L95.924043,17 Z M99.684375,17 L98.1038086,17 L98.1038086,7.84033203 L99.5256836,7.84033203 L104.019824,14.0673828 L104.127734,14.0673828 L104.127734,7.84033203 L105.701953,7.84033203 L105.701953,17 L104.286426,17 L99.7922852,10.7666016 L99.684375,10.7666016 L99.684375,17 Z M107.469121,14.5117188 L109.06873,14.5117188 C109.170293,15.3305664 109.982793,15.8574219 111.144414,15.8574219 C112.223516,15.8574219 113.004277,15.3051758 113.004277,14.5371094 C113.004277,13.8769531 112.502812,13.4897461 111.328496,13.2167969 L110.141484,12.9438477 C108.478398,12.5693359 107.697637,11.7441406 107.697637,10.3793945 C107.697637,8.71630859 109.056035,7.61181641 111.106328,7.61181641 C113.029668,7.61181641 114.419805,8.71630859 114.495977,10.2905273 L112.928105,10.2905273 C112.813848,9.484375 112.10291,8.9765625 111.09998,8.9765625 C110.04627,8.9765625 109.348027,9.484375 109.348027,10.2651367 C109.348027,10.8808594 109.811406,11.2426758 110.947637,11.5029297 L112.001348,11.7441406 C113.861211,12.1630859 114.641973,12.9375 114.641973,14.3339844 C114.641973,16.1176758 113.264531,17.2285156 111.042852,17.2285156 C108.941777,17.2285156 107.551641,16.1748047 107.469121,14.5117188 Z M120.319297,17 L118.681602,17 L118.681602,9.25585938 L115.863242,9.25585938 L115.863242,7.84033203 L123.144004,7.84033203 L123.144004,9.25585938 L120.319297,9.25585938 L120.319297,17 Z M129.671914,17 L128.8975,14.6577148 L125.526895,14.6577148 L124.739785,17 L123.083047,17 L126.333047,7.84033203 L128.173867,7.84033203 L131.430215,17 L129.671914,17 Z M127.16459,9.5859375 L125.907754,13.362793 L128.516641,13.362793 L127.2725,9.5859375 L127.16459,9.5859375 Z M138.764277,15.5654297 L138.764277,17 L132.924434,17 L132.924434,7.84033203 L134.562129,7.84033203 L134.562129,15.5654297 L138.764277,15.5654297 Z M146.28877,15.5654297 L146.28877,17 L140.448926,17 L140.448926,7.84033203 L142.086621,7.84033203 L142.086621,15.5654297 L146.28877,15.5654297 Z"/>
      </g>
      <path fill="#C8226C" fill-rule="nonzero" d="M38.8521874,7.8984375 C38.8521874,5.8984375 40.3678124,4.4609375 42.4615624,4.4609375 C44.4849999,4.4609375 46.0318749,5.8359375 46.0318749,7.625 C46.0318749,8.796875 45.5006249,9.7109375 43.6490624,11.6953125 L40.9381249,14.609375 L40.9381249,14.734375 L46.2193749,14.734375 L46.2193749,16 L38.9224999,16 L38.9224999,15.03125 L42.8209374,10.7734375 C44.2740624,9.1953125 44.6256249,8.5859375 44.6256249,7.6796875 C44.6256249,6.5546875 43.6646874,5.6875 42.4224999,5.6875 C41.1021874,5.6875 40.2115624,6.5703125 40.2115624,7.8984375 L40.2115624,7.90625 L38.8521874,7.90625 L38.8521874,7.8984375 Z M53.1806249,16 L53.1806249,13.6640625 L47.6884374,13.6640625 L47.6884374,12.3828125 C48.6962499,10.59375 50.4853124,7.765625 52.5165624,4.7265625 L54.5556249,4.7265625 L54.5556249,12.40625 L56.1571874,12.40625 L56.1571874,13.6640625 L54.5556249,13.6640625 L54.5556249,16 L53.1806249,16 Z M49.1259374,12.3203125 L49.1259374,12.4140625 L53.1884374,12.4140625 L53.1884374,6.03125 L53.0946874,6.03125 C51.9384374,7.7109375 50.4696874,10.0390625 49.1259374,12.3203125 Z M62.1184374,7.4296875 C64.2668749,7.4296875 65.6574999,9.140625 65.6574999,11.7890625 C65.6574999,14.421875 64.2590624,16.1484375 62.1184374,16.1484375 C60.9153124,16.1484375 59.9465624,15.625 59.4856249,14.734375 L59.3606249,14.734375 L59.3606249,18.8125 L58.0168749,18.8125 L58.0168749,7.578125 L59.2981249,7.578125 L59.2981249,8.984375 L59.4231249,8.984375 C59.9621874,8.015625 60.9699999,7.4296875 62.1184374,7.4296875 Z M61.7981249,14.9375 C63.3449999,14.9375 64.2668749,13.7578125 64.2668749,11.7890625 C64.2668749,9.8203125 63.3449999,8.640625 61.8059374,8.640625 C60.2824999,8.640625 59.3215624,9.8515625 59.3215624,11.7890625 C59.3215624,13.71875 60.2824999,14.9375 61.7981249,14.9375 Z M70.0406249,12.8203125 L69.9156249,12.8203125 L67.9156249,16 L66.3921874,16 L69.2749999,11.7890625 L66.3609374,7.578125 L67.9624999,7.578125 L69.9624999,10.7109375 L70.0874999,10.7109375 L72.0640624,7.578125 L73.5874999,7.578125 L70.7281249,11.734375 L73.6265624,16 L72.0328124,16 L70.0406249,12.8203125 Z M76.251875,16.078125 C75.6971875,16.078125 75.23625,15.6171875 75.23625,15.0625 C75.23625,14.5 75.6971875,14.046875 76.251875,14.046875 C76.814375,14.046875 77.2675,14.5 77.2675,15.0625 C77.2675,15.6171875 76.814375,16.078125 76.251875,16.078125 Z M76.251875,10.0703125 C75.6971875,10.0703125 75.23625,9.609375 75.23625,9.0546875 C75.23625,8.4921875 75.6971875,8.0390625 76.251875,8.0390625 C76.814375,8.0390625 77.2675,8.4921875 77.2675,9.0546875 C77.2675,9.609375 76.814375,10.0703125 76.251875,10.0703125 Z M83.4009375,13.0546875 L84.8228125,13.0546875 C84.9946875,14.234375 86.1196875,14.984375 87.72125,14.984375 C89.236875,14.984375 90.3540625,14.1640625 90.3540625,13.046875 C90.3540625,12.0859375 89.6509375,11.4765625 88.09625,11.0859375 L86.6509375,10.7109375 C84.611875,10.1953125 83.7290625,9.2734375 83.7290625,7.671875 C83.7290625,5.7578125 85.330625,4.4609375 87.7134375,4.4609375 C89.893125,4.4609375 91.518125,5.7578125 91.6353125,7.578125 L90.22125,7.578125 C90.0259375,6.421875 89.0728125,5.734375 87.6665625,5.734375 C86.1665625,5.734375 85.174375,6.484375 85.174375,7.625 C85.174375,8.5078125 85.7915625,9.015625 87.34625,9.4140625 L88.5259375,9.7265625 C90.861875,10.3125 91.799375,11.21875 91.799375,12.875 C91.799375,14.9453125 90.1665625,16.265625 87.5884375,16.265625 C85.1978125,16.265625 83.549375,15 83.4009375,13.0546875 Z M97.0028125,8.6171875 C95.6590625,8.6171875 94.7215625,9.6015625 94.62,11.09375 L99.260625,11.09375 C99.229375,9.6015625 98.33875,8.6171875 97.0028125,8.6171875 Z M99.2215625,13.8203125 L100.565312,13.8203125 C100.159062,15.265625 98.8621875,16.1484375 97.0184375,16.1484375 C94.6825,16.1484375 93.2215625,14.4609375 93.2215625,11.796875 C93.2215625,9.1484375 94.7059375,7.4296875 97.0184375,7.4296875 C99.291875,7.4296875 100.674687,9.046875 100.674687,11.6640625 L100.674687,12.1796875 L94.62,12.1796875 L94.62,12.2421875 C94.6903125,13.90625 95.62,14.9609375 97.0496875,14.9609375 C98.135625,14.9609375 98.87,14.5625 99.2215625,13.8203125 Z M102.464062,16 L102.464062,7.578125 L103.745312,7.578125 L103.745312,8.90625 L103.870312,8.90625 C104.292187,7.9765625 105.1125,7.4296875 106.401562,7.4296875 C108.292187,7.4296875 109.346875,8.546875 109.346875,10.546875 L109.346875,16 L108.003125,16 L108.003125,10.875 C108.003125,9.359375 107.3625,8.640625 106.01875,8.640625 C104.675,8.640625 103.807812,9.5390625 103.807812,11.015625 L103.807812,16 L102.464062,16 Z M112.0425,5.3984375 L113.38625,5.3984375 L113.38625,7.578125 L115.26125,7.578125 L115.26125,8.703125 L113.38625,8.703125 L113.38625,13.46875 C113.38625,14.4609375 113.76125,14.8828125 114.63625,14.8828125 C114.878437,14.8828125 115.01125,14.875 115.26125,14.8515625 L115.26125,15.984375 C114.995625,16.03125 114.737812,16.0625 114.472187,16.0625 C112.737812,16.0625 112.0425,15.421875 112.0425,13.8125 L112.0425,8.703125 L110.683125,8.703125 L110.683125,7.578125 L112.0425,7.578125 L112.0425,5.3984375 Z M120.214687,8.6171875 C118.870937,8.6171875 117.933437,9.6015625 117.831875,11.09375 L122.4725,11.09375 C122.44125,9.6015625 121.550625,8.6171875 120.214687,8.6171875 Z M122.433437,13.8203125 L123.777187,13.8203125 C123.370937,15.265625 122.074062,16.1484375 120.230312,16.1484375 C117.894375,16.1484375 116.433437,14.4609375 116.433437,11.796875 C116.433437,9.1484375 117.917812,7.4296875 120.230312,7.4296875 C122.50375,7.4296875 123.886562,9.046875 123.886562,11.6640625 L123.886562,12.1796875 L117.831875,12.1796875 L117.831875,12.2421875 C117.902187,13.90625 118.831875,14.9609375 120.261562,14.9609375 C121.3475,14.9609375 122.081875,14.5625 122.433437,13.8203125 Z M125.675938,16 L125.675938,7.578125 L126.957188,7.578125 L126.957188,8.90625 L127.082188,8.90625 C127.504063,7.9765625 128.324375,7.4296875 129.613438,7.4296875 C131.504063,7.4296875 132.55875,8.546875 132.55875,10.546875 L132.55875,16 L131.215,16 L131.215,10.875 C131.215,9.359375 130.574375,8.640625 129.230625,8.640625 C127.886875,8.640625 127.019688,9.5390625 127.019688,11.015625 L127.019688,16 L125.675938,16 Z M141.660625,10.15625 L140.30125,10.15625 C140.0825,9.3203125 139.340313,8.640625 138.129375,8.640625 C136.61375,8.640625 135.660625,9.8515625 135.660625,11.7578125 C135.660625,13.703125 136.629375,14.9375 138.129375,14.9375 C139.262188,14.9375 140.05125,14.4140625 140.30125,13.4609375 L141.660625,13.4609375 C141.418438,15.0078125 140.160625,16.1484375 138.137188,16.1484375 C135.777813,16.1484375 134.27,14.4375 134.27,11.7578125 C134.27,9.1328125 135.77,7.4296875 138.129375,7.4296875 C140.17625,7.4296875 141.42625,8.65625 141.660625,10.15625 Z M146.684375,8.6171875 C145.340625,8.6171875 144.403125,9.6015625 144.301563,11.09375 L148.942188,11.09375 C148.910938,9.6015625 148.020313,8.6171875 146.684375,8.6171875 Z M148.903125,13.8203125 L150.246875,13.8203125 C149.840625,15.265625 148.54375,16.1484375 146.7,16.1484375 C144.364063,16.1484375 142.903125,14.4609375 142.903125,11.796875 C142.903125,9.1484375 144.3875,7.4296875 146.7,7.4296875 C148.973438,7.4296875 150.35625,9.046875 150.35625,11.6640625 L150.35625,12.1796875 L144.301563,12.1796875 L144.301563,12.2421875 C144.371875,13.90625 145.301563,14.9609375 146.73125,14.9609375 C147.817188,14.9609375 148.551563,14.5625 148.903125,13.8203125 Z M163.31,10.15625 L161.950625,10.15625 C161.731875,9.3203125 160.989688,8.640625 159.77875,8.640625 C158.263125,8.640625 157.31,9.8515625 157.31,11.7578125 C157.31,13.703125 158.27875,14.9375 159.77875,14.9375 C160.911563,14.9375 161.700625,14.4140625 161.950625,13.4609375 L163.31,13.4609375 C163.067813,15.0078125 161.81,16.1484375 159.786563,16.1484375 C157.427188,16.1484375 155.919375,14.4375 155.919375,11.7578125 C155.919375,9.1328125 157.419375,7.4296875 159.77875,7.4296875 C161.825625,7.4296875 163.075625,8.65625 163.31,10.15625 Z M167.568125,14.96875 C168.950938,14.96875 169.974375,14.0625 169.974375,12.859375 L169.974375,12.0859375 L167.70875,12.234375 C166.4275,12.3203125 165.865,12.765625 165.865,13.609375 C165.865,14.46875 166.591563,14.96875 167.568125,14.96875 Z M167.318125,16.1484375 C165.685313,16.1484375 164.474375,15.1796875 164.474375,13.640625 C164.474375,12.1328125 165.58375,11.265625 167.544688,11.1484375 L169.974375,11 L169.974375,10.234375 C169.974375,9.1953125 169.325938,8.625 168.068125,8.625 C167.060313,8.625 166.357188,9.0078125 166.169688,9.671875 L164.810313,9.671875 C164.99,8.3203125 166.318125,7.4296875 168.115,7.4296875 C170.169688,7.4296875 171.318125,8.484375 171.318125,10.234375 L171.318125,16 L170.036875,16 L170.036875,14.7578125 L169.911875,14.7578125 C169.365,15.65625 168.443125,16.1484375 167.318125,16.1484375 Z M173.287188,9.8828125 C173.287188,8.484375 174.63875,7.4296875 176.427813,7.4296875 C178.193438,7.4296875 179.42,8.3046875 179.599688,9.6875 L178.271563,9.6875 C178.091875,9.015625 177.435625,8.5703125 176.42,8.5703125 C175.42,8.5703125 174.63875,9.078125 174.63875,9.828125 C174.63875,10.40625 175.1075,10.765625 176.099688,11.0078125 L177.396563,11.3203125 C178.9825,11.703125 179.748125,12.390625 179.748125,13.6015625 C179.748125,15.109375 178.287188,16.1484375 176.373125,16.1484375 C174.498125,16.1484375 173.209063,15.25 173.060625,13.8515625 L174.443438,13.8515625 C174.67,14.5625 175.341875,15.015625 176.42,15.015625 C177.552813,15.015625 178.365313,14.4765625 178.365313,13.703125 C178.365313,13.125 177.927813,12.734375 177.029375,12.515625 L175.584063,12.1640625 C174.005938,11.78125 173.287188,11.1015625 173.287188,9.8828125 Z M181.56875,16 L181.56875,7.578125 L182.9125,7.578125 L182.9125,16 L181.56875,16 Z M182.240625,5.8671875 C181.725,5.8671875 181.303125,5.4453125 181.303125,4.9296875 C181.303125,4.4140625 181.725,3.9921875 182.240625,3.9921875 C182.75625,3.9921875 183.178125,4.4140625 183.178125,4.9296875 C183.178125,5.4453125 182.75625,5.8671875 182.240625,5.8671875 Z M185.155,16 L185.155,7.578125 L186.43625,7.578125 L186.43625,8.90625 L186.56125,8.90625 C186.983125,7.9765625 187.803438,7.4296875 189.0925,7.4296875 C190.983125,7.4296875 192.037813,8.546875 192.037813,10.546875 L192.037813,16 L190.694063,16 L190.694063,10.875 C190.694063,9.359375 190.053438,8.640625 188.709688,8.640625 C187.365938,8.640625 186.49875,9.5390625 186.49875,11.015625 L186.49875,16 L185.155,16 Z M197.577188,14.6875 C199.139688,14.6875 200.077188,13.5 200.077188,11.6640625 C200.077188,9.828125 199.131875,8.640625 197.577188,8.640625 C196.014688,8.640625 195.139688,9.828125 195.139688,11.6640625 C195.139688,13.5 196.014688,14.6875 197.577188,14.6875 Z M197.639688,19.234375 C195.608438,19.234375 194.311563,18.3203125 194.108438,16.9296875 L195.530313,16.9296875 C195.67875,17.6171875 196.42875,18.0625 197.639688,18.0625 C199.1475,18.0625 200.045938,17.3203125 200.045938,16.078125 L200.045938,14.421875 L199.920938,14.421875 C199.389688,15.3515625 198.436563,15.875 197.280313,15.875 C195.100625,15.875 193.749063,14.1875 193.749063,11.6640625 C193.749063,9.140625 195.11625,7.4296875 197.280313,7.4296875 C198.46,7.4296875 199.499063,8.0078125 199.983438,8.9140625 L200.108438,8.9140625 L200.108438,7.578125 L201.389688,7.578125 L201.389688,16.1484375 C201.389688,18.03125 199.936563,19.234375 197.639688,19.234375 Z"/>
    </g>
  </g>
</svg>
