<svg xmlns="http://www.w3.org/2000/svg" width="300" height="180" viewBox="0 0 300 180">
  <g fill="none" fill-rule="evenodd">
    <rect width="300" height="180" fill="#FFF" fill-opacity=".01" fill-rule="nonzero"/>
    <g transform="translate(30 62)">
      <g transform="translate(0 37)">
        <rect width="240" height="24" fill="#314351" rx="4"/>
        <path fill="#FFF" fill-rule="nonzero" d="M95.924043,17 L94.2863476,17 L94.2863476,7.84033203 L95.924043,7.84033203 L95.924043,17 Z M99.684375,17 L98.1038086,17 L98.1038086,7.84033203 L99.5256836,7.84033203 L104.019824,14.0673828 L104.127734,14.0673828 L104.127734,7.84033203 L105.701953,7.84033203 L105.701953,17 L104.286426,17 L99.7922852,10.7666016 L99.684375,10.7666016 L99.684375,17 Z M107.469121,14.5117188 L109.06873,14.5117188 C109.170293,15.3305664 109.982793,15.8574219 111.144414,15.8574219 C112.223516,15.8574219 113.004277,15.3051758 113.004277,14.5371094 C113.004277,13.8769531 112.502812,13.4897461 111.328496,13.2167969 L110.141484,12.9438477 C108.478398,12.5693359 107.697637,11.7441406 107.697637,10.3793945 C107.697637,8.71630859 109.056035,7.61181641 111.106328,7.61181641 C113.029668,7.61181641 114.419805,8.71630859 114.495977,10.2905273 L112.928105,10.2905273 C112.813848,9.484375 112.10291,8.9765625 111.09998,8.9765625 C110.04627,8.9765625 109.348027,9.484375 109.348027,10.2651367 C109.348027,10.8808594 109.811406,11.2426758 110.947637,11.5029297 L112.001348,11.7441406 C113.861211,12.1630859 114.641973,12.9375 114.641973,14.3339844 C114.641973,16.1176758 113.264531,17.2285156 111.042852,17.2285156 C108.941777,17.2285156 107.551641,16.1748047 107.469121,14.5117188 Z M120.319297,17 L118.681602,17 L118.681602,9.25585938 L115.863242,9.25585938 L115.863242,7.84033203 L123.144004,7.84033203 L123.144004,9.25585938 L120.319297,9.25585938 L120.319297,17 Z M129.671914,17 L128.8975,14.6577148 L125.526895,14.6577148 L124.739785,17 L123.083047,17 L126.333047,7.84033203 L128.173867,7.84033203 L131.430215,17 L129.671914,17 Z M127.16459,9.5859375 L125.907754,13.362793 L128.516641,13.362793 L127.2725,9.5859375 L127.16459,9.5859375 Z M138.764277,15.5654297 L138.764277,17 L132.924434,17 L132.924434,7.84033203 L134.562129,7.84033203 L134.562129,15.5654297 L138.764277,15.5654297 Z M146.28877,15.5654297 L146.28877,17 L140.448926,17 L140.448926,7.84033203 L142.086621,7.84033203 L142.086621,15.5654297 L146.28877,15.5654297 Z"/>
      </g>
      <path fill="#C8226C" fill-rule="nonzero" d="M59.363,10.302 L63.358,10.302 L63.358,11.543 L57,11.543 L60.944,5.899 C62.083,4.25 62.338,3.74 62.338,3.06 C62.338,2.074 61.556,1.377 60.451,1.377 C59.686,1.377 59.057,1.734 58.802,2.329 C58.666,2.652 58.615,2.907 58.598,3.502 L57.323,3.502 C57.391,1.343 58.53,0.153 60.553,0.153 C62.406,0.153 63.698,1.309 63.698,2.958 C63.698,3.91 63.358,4.743 62.406,6.069 L59.363,10.302 Z M69.971,8.993 L65.432,8.993 L65.432,7.939 L71.28,0.051 L71.28,7.769 L72.606,7.769 L72.606,8.993 L71.28,8.993 L71.28,11.543 L69.971,11.543 L69.971,8.993 Z M69.971,7.769 L69.971,3.434 L66.792,7.769 L69.971,7.769 Z M74.561,3.706 L75.853,3.706 L75.853,5.134 C76.601,3.978 77.4,3.519 78.709,3.519 C80.885,3.519 82.398,5.185 82.398,7.565 C82.398,10.03 80.885,11.73 78.709,11.73 C78.097,11.73 77.536,11.594 76.992,11.322 C76.516,11.084 76.278,10.88 75.853,10.319 L75.853,15.215 L74.561,15.215 L74.561,3.706 Z M78.488,4.675 C76.924,4.675 75.853,5.916 75.853,7.752 C75.853,9.469 76.89,10.608 78.437,10.608 C79.984,10.608 81.021,9.401 81.021,7.616 C81.021,6.698 80.8,6.001 80.341,5.491 C79.882,4.981 79.185,4.675 78.488,4.675 Z M86.852,8.704 L84.761,11.543 L83.18,11.543 L86.07,7.65 L83.129,3.706 L84.761,3.706 L86.852,6.579 L88.994,3.706 L90.575,3.706 L87.617,7.65 L90.439,11.543 L88.858,11.543 L86.852,8.704 Z M92.904,9.911 C93.414,9.911 93.788,10.285 93.788,10.812 C93.788,11.305 93.397,11.679 92.904,11.679 C92.394,11.679 92.02,11.305 92.02,10.795 C92.02,10.285 92.394,9.911 92.904,9.911 Z M92.904,5.015 C93.414,5.015 93.788,5.389 93.788,5.916 C93.788,6.409 93.397,6.783 92.904,6.783 C92.394,6.783 92.02,6.409 92.02,5.899 C92.02,5.389 92.394,5.015 92.904,5.015 Z M102.611,0.204 L102.611,6.953 C102.611,8.398 102.815,9.129 103.359,9.673 C103.835,10.132 104.651,10.438 105.365,10.438 C106.079,10.438 106.878,10.115 107.371,9.605 C107.983,9.01 108.136,8.432 108.136,6.919 L108.136,0.204 L109.598,0.204 L109.598,6.919 C109.598,8.619 109.326,9.588 108.595,10.404 C107.83,11.271 106.691,11.747 105.399,11.747 C104.073,11.747 102.866,11.237 102.101,10.319 C101.404,9.52 101.183,8.687 101.183,6.919 L101.183,0.204 L102.611,0.204 Z M113.627,7.208 L113.627,11.543 L112.199,11.543 L112.199,0.204 L115.225,0.204 C117.911,0.204 119.39,1.428 119.39,3.672 C119.39,4.794 118.948,5.797 118.183,6.426 C117.52,6.953 116.636,7.208 115.378,7.208 L113.627,7.208 Z M113.627,5.984 L115.106,5.984 C115.718,5.984 116.126,5.933 116.517,5.78 C117.384,5.474 117.945,4.675 117.945,3.706 C117.945,2.737 117.401,1.955 116.5,1.649 C116.058,1.496 115.599,1.428 114.919,1.428 L113.627,1.428 L113.627,5.984 Z M122.535,7.208 L122.535,11.543 L121.107,11.543 L121.107,0.204 L124.133,0.204 C126.819,0.204 128.298,1.428 128.298,3.672 C128.298,4.794 127.856,5.797 127.091,6.426 C126.428,6.953 125.544,7.208 124.286,7.208 L122.535,7.208 Z M122.535,5.984 L124.014,5.984 C124.626,5.984 125.034,5.933 125.425,5.78 C126.292,5.474 126.853,4.675 126.853,3.706 C126.853,2.737 126.309,1.955 125.408,1.649 C124.966,1.496 124.507,1.428 123.827,1.428 L122.535,1.428 L122.535,5.984 Z M131.375,1.428 L131.375,5.219 L135.846,5.219 L135.846,6.443 L131.375,6.443 L131.375,10.319 L135.846,10.319 L135.846,11.543 L129.947,11.543 L129.947,0.204 L135.846,0.204 L135.846,1.428 L131.375,1.428 Z M139.552,6.783 L139.552,11.543 L138.124,11.543 L138.124,0.204 L141.218,0.204 C143.632,0.204 145.094,1.445 145.094,3.502 C145.094,4.777 144.516,5.797 143.462,6.358 C142.918,6.647 142.408,6.766 141.371,6.834 L145.774,11.543 L143.955,11.543 L139.552,6.783 Z M139.552,5.814 L140.98,5.814 C142.697,5.814 143.632,5.032 143.632,3.604 C143.632,2.193 142.782,1.428 141.218,1.428 L139.552,1.428 L139.552,5.814 Z M155.311,8.874 L156.263,9.826 C155.124,11.169 153.866,11.747 152.115,11.747 C150.534,11.747 149.191,11.169 148.222,10.081 C147.27,9.01 146.709,7.463 146.709,5.882 C146.709,2.482 149.004,0 152.132,0 C153.152,0 154.155,0.272 154.971,0.765 C155.43,1.054 155.736,1.326 156.297,1.938 L155.311,2.856 C154.206,1.717 153.373,1.309 152.166,1.309 C149.854,1.309 148.171,3.23 148.171,5.882 C148.171,8.517 149.888,10.438 152.234,10.438 C153.475,10.438 154.427,9.945 155.311,8.874 Z M164.542,8.925 L159.459,8.925 L158.422,11.543 L156.943,11.543 L161.21,0.204 L162.91,0.204 L167.075,11.543 L165.477,11.543 L164.542,8.925 Z M164.1,7.701 L162.026,2.006 L159.884,7.701 L164.1,7.701 Z M167.806,8.5 L169.166,8.5 C169.234,9.792 169.931,10.472 171.172,10.472 C172.447,10.472 173.348,9.69 173.348,8.551 C173.348,7.565 172.838,7.106 171.053,6.511 C169.71,6.052 169.268,5.831 168.758,5.372 C168.18,4.845 167.874,4.097 167.874,3.23 C167.874,1.309 169.251,0 171.257,0 C173.263,0 174.572,1.275 174.623,3.247 L173.195,3.247 C173.178,2.669 173.11,2.397 172.923,2.074 C172.6,1.581 171.971,1.275 171.24,1.275 C170.118,1.275 169.319,2.04 169.319,3.128 C169.319,3.672 169.557,4.148 169.965,4.437 C170.322,4.692 170.628,4.828 171.784,5.236 C172.991,5.661 173.569,5.967 174.028,6.46 C174.521,6.987 174.793,7.701 174.793,8.466 C174.793,10.421 173.348,11.747 171.223,11.747 C169.778,11.747 168.792,11.237 168.197,10.217 C167.925,9.758 167.806,9.282 167.806,8.738 L167.806,8.5 Z M178.193,1.428 L178.193,5.219 L182.664,5.219 L182.664,6.443 L178.193,6.443 L178.193,10.319 L182.664,10.319 L182.664,11.543 L176.765,11.543 L176.765,0.204 L182.664,0.204 L182.664,1.428 L178.193,1.428 Z"/>
    </g>
  </g>
</svg>
