<svg xmlns="http://www.w3.org/2000/svg" xmlns:xlink="http://www.w3.org/1999/xlink" width="580" height="180" viewBox="0 0 580 180">
  <defs>
    <rect id="1-b" width="91" height="48" x="0" y="0" rx="4"/>
    <filter id="1-a" width="117.6%" height="133.3%" x="-8.8%" y="-14.6%" filterUnits="objectBoundingBox">
      <feOffset dy="1" in="SourceAlpha" result="shadowOffsetOuter1"/>
      <feGaussianBlur in="shadowOffsetOuter1" result="shadowBlurOuter1" stdDeviation="2.5"/>
      <feColorMatrix in="shadowBlurOuter1" result="shadowMatrixOuter1" values="0 0 0 0 0   0 0 0 0 0   0 0 0 0 0  0 0 0 0.2 0"/>
      <feMorphology in="SourceAlpha" radius="1" result="shadowSpreadOuter2"/>
      <feOffset dy="3" in="shadowSpreadOuter2" result="shadowOffsetOuter2"/>
      <feGaussianBlur in="shadowOffsetOuter2" result="shadowBlurOuter2" stdDeviation=".5"/>
      <feColorMatrix in="shadowBlurOuter2" result="shadowMatrixOuter2" values="0 0 0 0 0   0 0 0 0 0   0 0 0 0 0  0 0 0 0.12 0"/>
      <feOffset dy="2" in="SourceAlpha" result="shadowOffsetOuter3"/>
      <feGaussianBlur in="shadowOffsetOuter3" result="shadowBlurOuter3" stdDeviation="1"/>
      <feColorMatrix in="shadowBlurOuter3" result="shadowMatrixOuter3" values="0 0 0 0 0   0 0 0 0 0   0 0 0 0 0  0 0 0 0.14 0"/>
      <feMerge>
        <feMergeNode in="shadowMatrixOuter1"/>
        <feMergeNode in="shadowMatrixOuter2"/>
        <feMergeNode in="shadowMatrixOuter3"/>
      </feMerge>
    </filter>
  </defs>
  <g fill="none" fill-rule="evenodd">
    <rect width="580" height="180" fill="#FFF" fill-opacity=".01" fill-rule="nonzero"/>
    <g transform="translate(54 42)">
      <g transform="translate(0 48)">
        <use fill="#000" filter="url(#1-a)" xlink:href="#1-b"/>
        <use fill="#FAFAFA" xlink:href="#1-b"/>
        <rect width="91" height="48" fill="#314351" rx="4"/>
        <path fill="#FFF" fill-rule="nonzero" d="M17.0239258,29 L17.0239258,19.046875 L20.4350586,19.046875 C21.5607153,19.046875 22.4174775,19.2724587 23.0053711,19.7236328 C23.5932647,20.1748069 23.887207,20.8470007 23.887207,21.7402344 C23.887207,22.1959658 23.7641614,22.606118 23.5180664,22.9707031 C23.2719714,23.3352883 22.911949,23.6178375 22.4379883,23.8183594 C22.9757514,23.9641934 23.3916001,24.2387675 23.6855469,24.6420898 C23.9794937,25.0454122 24.1264648,25.5296196 24.1264648,26.0947266 C24.1264648,27.028976 23.8268259,27.7467423 23.2275391,28.2480469 C22.6282522,28.7493515 21.7703506,29 20.6538086,29 L17.0239258,29 Z M18.753418,24.5087891 L18.753418,27.6191406 L20.6743164,27.6191406 C21.2166368,27.6191406 21.6404607,27.4847019 21.9458008,27.2158203 C22.2511408,26.9469388 22.4038086,26.5732446 22.4038086,26.0947266 C22.4038086,25.0602162 21.875168,24.5315756 20.8178711,24.5087891 L18.753418,24.5087891 Z M18.753418,23.2373047 L20.4487305,23.2373047 C20.9864936,23.2373047 21.4068995,23.1153984 21.7099609,22.871582 C22.0130223,22.6277657 22.1645508,22.2825543 22.1645508,21.8359375 C22.1645508,21.3437475 22.0244155,20.9882823 21.7441406,20.7695312 C21.4638658,20.5507802 21.0275095,20.4414062 20.4350586,20.4414062 L18.753418,20.4414062 L18.753418,23.2373047 Z M33.8862305,19.046875 L33.8862305,25.6982422 C33.8862305,26.7555391 33.5478549,27.5929331 32.8710938,28.2104492 C32.1943326,28.8279653 31.2931371,29.1367188 30.1674805,29.1367188 C29.0281519,29.1367188 28.1235385,28.8325226 27.4536133,28.2241211 C26.7836881,27.6157196 26.4487305,26.7714898 26.4487305,25.6914062 L26.4487305,19.046875 L28.1713867,19.046875 L28.1713867,25.7050781 C28.1713867,26.370446 28.3400048,26.878579 28.6772461,27.2294922 C29.0144874,27.5804054 29.5112272,27.7558594 30.1674805,27.7558594 C31.4982163,27.7558594 32.1635742,27.0540435 32.1635742,25.6503906 L32.1635742,19.046875 L33.8862305,19.046875 Z M43.6733398,20.4414062 L40.5698242,20.4414062 L40.5698242,29 L38.8540039,29 L38.8540039,20.4414062 L35.777832,20.4414062 L35.777832,19.046875 L43.6733398,19.046875 L43.6733398,20.4414062 Z M53.0297852,20.4414062 L49.9262695,20.4414062 L49.9262695,29 L48.2104492,29 L48.2104492,20.4414062 L45.1342773,20.4414062 L45.1342773,19.046875 L53.0297852,19.046875 L53.0297852,20.4414062 Z M62.8374023,24.2832031 C62.8374023,25.2584684 62.6687842,26.1140914 62.331543,26.8500977 C61.9943017,27.5861039 61.5123729,28.1512025 60.8857422,28.5454102 C60.2591115,28.9396179 59.5379273,29.1367188 58.722168,29.1367188 C57.9155233,29.1367188 57.1966177,28.9396179 56.5654297,28.5454102 C55.9342416,28.1512025 55.4466163,27.5895219 55.1025391,26.8603516 C54.7584618,26.1311812 54.5841472,25.2903693 54.5795898,24.3378906 L54.5795898,23.7773438 C54.5795898,22.8066358 54.7516259,21.9498735 55.0957031,21.2070312 C55.4397804,20.464189 55.9251271,19.8956725 56.5517578,19.5014648 C57.1783885,19.1072571 57.8972941,18.9101562 58.7084961,18.9101562 C59.5196981,18.9101562 60.2386036,19.1049785 60.8652344,19.4946289 C61.4918651,19.8842793 61.9760725,20.4448206 62.3178711,21.1762695 C62.6596697,21.9077185 62.832845,22.7587842 62.8374023,23.7294922 L62.8374023,24.2832031 Z M61.1079102,23.7636719 C61.1079102,22.6608018 60.8994161,21.8154326 60.4824219,21.2275391 C60.0654276,20.6396455 59.4741249,20.3457031 58.7084961,20.3457031 C57.9610965,20.3457031 57.3766297,20.6385062 56.9550781,21.2241211 C56.5335265,21.809736 56.3181967,22.6380155 56.309082,23.7089844 L56.309082,24.2832031 C56.309082,25.3769586 56.5221333,26.2223277 56.9482422,26.8193359 C57.3743511,27.4163441 57.9656538,27.7148438 58.722168,27.7148438 C59.4877968,27.7148438 60.0768209,27.42318 60.4892578,26.8398438 C60.9016948,26.2565075 61.1079102,25.4043025 61.1079102,24.2832031 L61.1079102,23.7636719 Z M73.2055664,29 L71.4760742,29 L67.0395508,21.9384766 L67.0395508,29 L65.3100586,29 L65.3100586,19.046875 L67.0395508,19.046875 L71.4897461,26.1357422 L71.4897461,19.046875 L73.2055664,19.046875 L73.2055664,29 Z"/>
      </g>
      <path fill="#C41261" fill-rule="nonzero" d="M4.777,5.87 L4.777,10 L3.601,10 L3.601,0.662 L4.777,0.662 L4.777,4.862 L9.327,4.862 L9.327,0.662 L10.503,0.662 L10.503,10 L9.327,10 L9.327,5.87 L4.777,5.87 Z M13.793,3.546 L13.793,10 L12.729,10 L12.729,3.546 L13.793,3.546 Z M13.275,1.04 C13.653,1.04 13.947,1.348 13.947,1.74 C13.947,2.118 13.639,2.412 13.261,2.412 C12.883,2.412 12.589,2.118 12.589,1.726 C12.589,1.334 12.883,1.04 13.275,1.04 Z M20.709,4.652 L20.709,3.546 L21.773,3.546 L21.773,10.042 C21.773,11.12 21.507,11.848 20.919,12.408 C20.345,12.968 19.519,13.262 18.539,13.262 C17.335,13.262 16.383,12.87 15.683,12.086 L16.411,11.358 C16.705,11.666 16.845,11.792 17.027,11.918 C17.391,12.142 17.993,12.296 18.539,12.296 C19.211,12.296 19.855,12.058 20.219,11.666 C20.541,11.316 20.709,10.798 20.709,10.126 L20.709,8.768 C20.079,9.72 19.337,10.154 18.329,10.154 C16.621,10.154 15.347,8.712 15.347,6.794 C15.347,5.758 15.725,4.764 16.369,4.148 C16.887,3.644 17.587,3.392 18.413,3.392 C19.393,3.392 20.051,3.756 20.709,4.652 Z M18.609,4.372 C17.349,4.372 16.467,5.352 16.467,6.752 C16.467,8.138 17.363,9.174 18.581,9.174 C19.197,9.174 19.799,8.88 20.219,8.39 C20.499,8.068 20.681,7.438 20.681,6.794 C20.681,5.954 20.555,5.506 20.177,5.086 C19.785,4.652 19.183,4.372 18.609,4.372 Z M24.979,0.662 L24.979,4.442 C25.567,3.714 26.155,3.392 26.925,3.392 C27.485,3.392 28.073,3.616 28.423,3.98 C28.773,4.33 28.927,4.834 28.927,5.66 L28.927,10 L27.863,10 L27.863,5.716 C27.863,4.834 27.429,4.344 26.659,4.344 C26.169,4.344 25.735,4.54 25.399,4.918 C25.077,5.282 24.979,5.604 24.979,6.22 L24.979,10 L23.915,10 L23.915,0.662 L24.979,0.662 Z M36.389,1.67 L36.389,4.792 L40.071,4.792 L40.071,5.8 L36.389,5.8 L36.389,8.992 L40.071,8.992 L40.071,10 L35.213,10 L35.213,0.662 L40.071,0.662 L40.071,1.67 L36.389,1.67 Z M41.849,3.546 L42.913,3.546 L42.913,4.442 C43.403,3.7 43.949,3.392 44.747,3.392 C45.629,3.392 46.189,3.77 46.483,4.568 C46.959,3.742 47.561,3.392 48.527,3.392 C49.269,3.392 49.829,3.63 50.165,4.078 C50.473,4.484 50.557,4.848 50.557,5.87 L50.557,10 L49.493,10 L49.493,6.122 C49.493,5.338 49.465,5.156 49.311,4.89 C49.115,4.554 48.695,4.344 48.191,4.344 C47.253,4.344 46.735,4.974 46.735,6.122 L46.735,10 L45.671,10 L45.671,6.136 C45.671,5.506 45.615,5.184 45.461,4.904 C45.279,4.54 44.887,4.344 44.411,4.344 C43.473,4.344 42.913,5.016 42.913,6.136 L42.913,10 L41.849,10 L41.849,3.546 Z M52.657,3.546 L53.721,3.546 L53.721,4.722 C54.337,3.77 54.995,3.392 56.073,3.392 C57.865,3.392 59.111,4.764 59.111,6.724 C59.111,8.754 57.865,10.154 56.073,10.154 C55.569,10.154 55.107,10.042 54.659,9.818 C54.267,9.622 54.071,9.454 53.721,8.992 L53.721,13.024 L52.657,13.024 L52.657,3.546 Z M55.891,4.344 C54.603,4.344 53.721,5.366 53.721,6.878 C53.721,8.292 54.575,9.23 55.849,9.23 C57.123,9.23 57.977,8.236 57.977,6.766 C57.977,6.01 57.795,5.436 57.417,5.016 C57.039,4.596 56.465,4.344 55.891,4.344 Z M61.785,0.662 L61.785,4.442 C62.373,3.714 62.961,3.392 63.731,3.392 C64.291,3.392 64.879,3.616 65.229,3.98 C65.579,4.33 65.733,4.834 65.733,5.66 L65.733,10 L64.669,10 L64.669,5.716 C64.669,4.834 64.235,4.344 63.465,4.344 C62.975,4.344 62.541,4.54 62.205,4.918 C61.883,5.282 61.785,5.604 61.785,6.22 L61.785,10 L60.721,10 L60.721,0.662 L61.785,0.662 Z M72.705,4.61 L72.705,3.546 L73.769,3.546 L73.769,10 L72.705,10 L72.705,8.754 C72.061,9.72 71.333,10.154 70.353,10.154 C68.575,10.154 67.315,8.754 67.315,6.794 C67.315,4.82 68.603,3.392 70.381,3.392 C71.361,3.392 72.075,3.77 72.705,4.61 Z M70.535,4.344 C69.835,4.344 69.345,4.582 68.967,5.114 C68.631,5.576 68.435,6.192 68.435,6.822 C68.435,8.194 69.331,9.23 70.507,9.23 C71.725,9.23 72.719,8.096 72.719,6.71 C72.719,5.31 71.823,4.344 70.535,4.344 Z M79.957,5.31 L78.893,5.31 L78.893,5.24 C78.893,4.638 78.403,4.26 77.661,4.26 C76.947,4.26 76.499,4.624 76.499,5.184 C76.499,5.744 76.779,5.954 77.941,6.276 C78.767,6.5 79.201,6.71 79.509,7.018 C79.831,7.34 80.027,7.802 80.027,8.278 C80.027,9.398 79.103,10.154 77.731,10.154 C76.261,10.154 75.435,9.468 75.323,8.166 L76.373,8.166 C76.443,8.894 76.919,9.286 77.731,9.286 C78.459,9.286 78.935,8.908 78.935,8.334 C78.935,7.774 78.571,7.494 77.465,7.214 C76.065,6.836 75.435,6.248 75.435,5.268 C75.435,4.148 76.345,3.392 77.703,3.392 C79.075,3.392 79.901,4.092 79.957,5.31 Z M82.729,3.546 L82.729,10 L81.665,10 L81.665,3.546 L82.729,3.546 Z M82.211,1.04 C82.589,1.04 82.883,1.348 82.883,1.74 C82.883,2.118 82.575,2.412 82.197,2.412 C81.819,2.412 81.525,2.118 81.525,1.726 C81.525,1.334 81.819,1.04 82.211,1.04 Z M88.917,5.31 L87.853,5.31 L87.853,5.24 C87.853,4.638 87.363,4.26 86.621,4.26 C85.907,4.26 85.459,4.624 85.459,5.184 C85.459,5.744 85.739,5.954 86.901,6.276 C87.727,6.5 88.161,6.71 88.469,7.018 C88.791,7.34 88.987,7.802 88.987,8.278 C88.987,9.398 88.063,10.154 86.691,10.154 C85.221,10.154 84.395,9.468 84.283,8.166 L85.333,8.166 C85.403,8.894 85.879,9.286 86.691,9.286 C87.419,9.286 87.895,8.908 87.895,8.334 C87.895,7.774 87.531,7.494 86.425,7.214 C85.025,6.836 84.395,6.248 84.395,5.268 C84.395,4.148 85.305,3.392 86.663,3.392 C88.035,3.392 88.861,4.092 88.917,5.31 Z M31.559,30.604 L30.859,31.276 C29.207,29.246 28.451,27.272 28.451,24.92 C28.451,22.512 29.333,20.132 30.887,18.382 L31.559,19.082 C30.145,20.832 29.445,22.778 29.445,24.878 C29.445,26.922 30.201,28.966 31.559,30.604 Z M37.173,23.31 L36.109,23.31 L36.109,23.24 C36.109,22.638 35.619,22.26 34.877,22.26 C34.163,22.26 33.715,22.624 33.715,23.184 C33.715,23.744 33.995,23.954 35.157,24.276 C35.983,24.5 36.417,24.71 36.725,25.018 C37.047,25.34 37.243,25.802 37.243,26.278 C37.243,27.398 36.319,28.154 34.947,28.154 C33.477,28.154 32.651,27.468 32.539,26.166 L33.589,26.166 C33.659,26.894 34.135,27.286 34.947,27.286 C35.675,27.286 36.151,26.908 36.151,26.334 C36.151,25.774 35.787,25.494 34.681,25.214 C33.281,24.836 32.651,24.248 32.651,23.268 C32.651,22.148 33.561,21.392 34.919,21.392 C36.291,21.392 37.117,22.092 37.173,23.31 Z M41.667,21.392 C43.571,21.392 44.929,22.806 44.929,24.794 C44.929,26.684 43.473,28.154 41.625,28.154 C39.707,28.154 38.363,26.754 38.363,24.766 C38.363,22.764 39.707,21.392 41.667,21.392 Z M41.667,22.372 C40.337,22.372 39.455,23.338 39.455,24.78 C39.455,26.208 40.337,27.174 41.653,27.174 C42.927,27.174 43.837,26.18 43.837,24.78 C43.837,23.338 42.969,22.372 41.667,22.372 Z M47.617,28 L46.553,28 L46.553,18.662 L47.617,18.662 L47.617,28 Z M50.823,21.546 L50.823,28 L49.759,28 L49.759,21.546 L50.823,21.546 Z M50.305,19.04 C50.683,19.04 50.977,19.348 50.977,19.74 C50.977,20.118 50.669,20.412 50.291,20.412 C49.913,20.412 49.619,20.118 49.619,19.726 C49.619,19.334 49.913,19.04 50.305,19.04 Z M57.795,22.526 L57.795,18.662 L58.859,18.662 L58.859,28 L57.795,28 L57.795,26.894 C57.151,27.776 56.465,28.154 55.485,28.154 C53.707,28.154 52.447,26.768 52.447,24.808 C52.447,22.848 53.735,21.392 55.485,21.392 C56.437,21.392 57.165,21.742 57.795,22.526 Z M55.709,22.344 C54.435,22.344 53.567,23.352 53.567,24.822 C53.567,26.236 54.421,27.23 55.639,27.23 C56.885,27.23 57.795,26.194 57.795,24.794 C57.795,23.338 56.941,22.344 55.709,22.344 Z M60.427,19.054 L61.127,18.382 C62.793,20.426 63.535,22.386 63.535,24.738 C63.535,27.16 62.653,29.512 61.099,31.276 L60.427,30.576 C61.841,28.826 62.541,26.88 62.541,24.78 C62.541,22.722 61.799,20.706 60.427,19.054 Z"/>
      <g transform="translate(186)">
        <path fill="#C41261" fill-rule="nonzero" d="M1.55,3.154 L1.55,10 L0.374,10 L0.374,0.662 L1.536,0.662 L4.994,7.662 L8.494,0.662 L9.642,0.662 L9.642,10 L8.466,10 L8.466,3.168 L4.994,10.098 L1.55,3.154 Z M17.86,7.116 L12.484,7.116 C12.54,7.662 12.638,7.942 12.904,8.292 C13.324,8.866 13.94,9.174 14.64,9.174 C15.438,9.174 16.194,8.74 16.572,8.068 L17.51,8.418 C16.978,9.496 15.872,10.154 14.64,10.154 C12.722,10.154 11.35,8.754 11.35,6.794 C11.35,4.806 12.708,3.392 14.598,3.392 C16.474,3.392 17.874,4.806 17.874,6.696 C17.874,6.78 17.874,6.962 17.86,7.116 Z M12.498,6.332 L16.74,6.332 C16.698,5.828 16.6,5.548 16.376,5.226 C15.97,4.68 15.312,4.344 14.598,4.344 C13.884,4.344 13.24,4.68 12.862,5.24 C12.666,5.548 12.582,5.814 12.498,6.332 Z M24.244,4.526 L24.244,0.662 L25.308,0.662 L25.308,10 L24.244,10 L24.244,8.894 C23.6,9.776 22.914,10.154 21.934,10.154 C20.156,10.154 18.896,8.768 18.896,6.808 C18.896,4.848 20.184,3.392 21.934,3.392 C22.886,3.392 23.614,3.742 24.244,4.526 Z M22.158,4.344 C20.884,4.344 20.016,5.352 20.016,6.822 C20.016,8.236 20.87,9.23 22.088,9.23 C23.334,9.23 24.244,8.194 24.244,6.794 C24.244,5.338 23.39,4.344 22.158,4.344 Z M28.514,3.546 L28.514,10 L27.45,10 L27.45,3.546 L28.514,3.546 Z M27.996,1.04 C28.374,1.04 28.668,1.348 28.668,1.74 C28.668,2.118 28.36,2.412 27.982,2.412 C27.604,2.412 27.31,2.118 27.31,1.726 C27.31,1.334 27.604,1.04 27.996,1.04 Z M34.408,3.546 L35.486,3.546 L35.486,7.676 C35.486,8.558 35.318,9.048 34.842,9.482 C34.366,9.916 33.708,10.154 32.98,10.154 C32.252,10.154 31.58,9.902 31.118,9.468 C30.684,9.048 30.474,8.46 30.474,7.676 L30.474,3.546 L31.538,3.546 L31.538,7.648 C31.538,8.558 32.126,9.202 32.98,9.202 C33.428,9.202 33.862,9.02 34.128,8.712 C34.338,8.46 34.408,8.194 34.408,7.676 L34.408,3.546 Z M37.446,3.546 L38.51,3.546 L38.51,4.442 C39,3.7 39.546,3.392 40.344,3.392 C41.226,3.392 41.786,3.77 42.08,4.568 C42.556,3.742 43.158,3.392 44.124,3.392 C44.866,3.392 45.426,3.63 45.762,4.078 C46.07,4.484 46.154,4.848 46.154,5.87 L46.154,10 L45.09,10 L45.09,6.122 C45.09,5.338 45.062,5.156 44.908,4.89 C44.712,4.554 44.292,4.344 43.788,4.344 C42.85,4.344 42.332,4.974 42.332,6.122 L42.332,10 L41.268,10 L41.268,6.136 C41.268,5.506 41.212,5.184 41.058,4.904 C40.876,4.54 40.484,4.344 40.008,4.344 C39.07,4.344 38.51,5.016 38.51,6.136 L38.51,10 L37.446,10 L37.446,3.546 Z M53.616,1.67 L53.616,4.792 L57.298,4.792 L57.298,5.8 L53.616,5.8 L53.616,8.992 L57.298,8.992 L57.298,10 L52.44,10 L52.44,0.662 L57.298,0.662 L57.298,1.67 L53.616,1.67 Z M59.076,3.546 L60.14,3.546 L60.14,4.442 C60.63,3.7 61.176,3.392 61.974,3.392 C62.856,3.392 63.416,3.77 63.71,4.568 C64.186,3.742 64.788,3.392 65.754,3.392 C66.496,3.392 67.056,3.63 67.392,4.078 C67.7,4.484 67.784,4.848 67.784,5.87 L67.784,10 L66.72,10 L66.72,6.122 C66.72,5.338 66.692,5.156 66.538,4.89 C66.342,4.554 65.922,4.344 65.418,4.344 C64.48,4.344 63.962,4.974 63.962,6.122 L63.962,10 L62.898,10 L62.898,6.136 C62.898,5.506 62.842,5.184 62.688,4.904 C62.506,4.54 62.114,4.344 61.638,4.344 C60.7,4.344 60.14,5.016 60.14,6.136 L60.14,10 L59.076,10 L59.076,3.546 Z M69.884,3.546 L70.948,3.546 L70.948,4.722 C71.564,3.77 72.222,3.392 73.3,3.392 C75.092,3.392 76.338,4.764 76.338,6.724 C76.338,8.754 75.092,10.154 73.3,10.154 C72.796,10.154 72.334,10.042 71.886,9.818 C71.494,9.622 71.298,9.454 70.948,8.992 L70.948,13.024 L69.884,13.024 L69.884,3.546 Z M73.118,4.344 C71.83,4.344 70.948,5.366 70.948,6.878 C70.948,8.292 71.802,9.23 73.076,9.23 C74.35,9.23 75.204,8.236 75.204,6.766 C75.204,6.01 75.022,5.436 74.644,5.016 C74.266,4.596 73.692,4.344 73.118,4.344 Z M79.012,0.662 L79.012,4.442 C79.6,3.714 80.188,3.392 80.958,3.392 C81.518,3.392 82.106,3.616 82.456,3.98 C82.806,4.33 82.96,4.834 82.96,5.66 L82.96,10 L81.896,10 L81.896,5.716 C81.896,4.834 81.462,4.344 80.692,4.344 C80.202,4.344 79.768,4.54 79.432,4.918 C79.11,5.282 79.012,5.604 79.012,6.22 L79.012,10 L77.948,10 L77.948,0.662 L79.012,0.662 Z M89.932,4.61 L89.932,3.546 L90.996,3.546 L90.996,10 L89.932,10 L89.932,8.754 C89.288,9.72 88.56,10.154 87.58,10.154 C85.802,10.154 84.542,8.754 84.542,6.794 C84.542,4.82 85.83,3.392 87.608,3.392 C88.588,3.392 89.302,3.77 89.932,4.61 Z M87.762,4.344 C87.062,4.344 86.572,4.582 86.194,5.114 C85.858,5.576 85.662,6.192 85.662,6.822 C85.662,8.194 86.558,9.23 87.734,9.23 C88.952,9.23 89.946,8.096 89.946,6.71 C89.946,5.31 89.05,4.344 87.762,4.344 Z M97.184,5.31 L96.12,5.31 L96.12,5.24 C96.12,4.638 95.63,4.26 94.888,4.26 C94.174,4.26 93.726,4.624 93.726,5.184 C93.726,5.744 94.006,5.954 95.168,6.276 C95.994,6.5 96.428,6.71 96.736,7.018 C97.058,7.34 97.254,7.802 97.254,8.278 C97.254,9.398 96.33,10.154 94.958,10.154 C93.488,10.154 92.662,9.468 92.55,8.166 L93.6,8.166 C93.67,8.894 94.146,9.286 94.958,9.286 C95.686,9.286 96.162,8.908 96.162,8.334 C96.162,7.774 95.798,7.494 94.692,7.214 C93.292,6.836 92.662,6.248 92.662,5.268 C92.662,4.148 93.572,3.392 94.93,3.392 C96.302,3.392 97.128,4.092 97.184,5.31 Z M99.956,3.546 L99.956,10 L98.892,10 L98.892,3.546 L99.956,3.546 Z M99.438,1.04 C99.816,1.04 100.11,1.348 100.11,1.74 C100.11,2.118 99.802,2.412 99.424,2.412 C99.046,2.412 98.752,2.118 98.752,1.726 C98.752,1.334 99.046,1.04 99.438,1.04 Z M106.144,5.31 L105.08,5.31 L105.08,5.24 C105.08,4.638 104.59,4.26 103.848,4.26 C103.134,4.26 102.686,4.624 102.686,5.184 C102.686,5.744 102.966,5.954 104.128,6.276 C104.954,6.5 105.388,6.71 105.696,7.018 C106.018,7.34 106.214,7.802 106.214,8.278 C106.214,9.398 105.29,10.154 103.918,10.154 C102.448,10.154 101.622,9.468 101.51,8.166 L102.56,8.166 C102.63,8.894 103.106,9.286 103.918,9.286 C104.646,9.286 105.122,8.908 105.122,8.334 C105.122,7.774 104.758,7.494 103.652,7.214 C102.252,6.836 101.622,6.248 101.622,5.268 C101.622,4.148 102.532,3.392 103.89,3.392 C105.262,3.392 106.088,4.092 106.144,5.31 Z M28.892,30.604 L28.192,31.276 C26.54,29.246 25.784,27.272 25.784,24.92 C25.784,22.512 26.666,20.132 28.22,18.382 L28.892,19.082 C27.478,20.832 26.778,22.778 26.778,24.878 C26.778,26.922 27.534,28.966 28.892,30.604 Z M33.246,21.392 C35.15,21.392 36.508,22.806 36.508,24.794 C36.508,26.684 35.052,28.154 33.204,28.154 C31.286,28.154 29.942,26.754 29.942,24.766 C29.942,22.764 31.286,21.392 33.246,21.392 Z M33.246,22.372 C31.916,22.372 31.034,23.338 31.034,24.78 C31.034,26.208 31.916,27.174 33.232,27.174 C34.506,27.174 35.416,26.18 35.416,24.78 C35.416,23.338 34.548,22.372 33.246,22.372 Z M41.884,21.546 L42.962,21.546 L42.962,25.676 C42.962,26.558 42.794,27.048 42.318,27.482 C41.842,27.916 41.184,28.154 40.456,28.154 C39.728,28.154 39.056,27.902 38.594,27.468 C38.16,27.048 37.95,26.46 37.95,25.676 L37.95,21.546 L39.014,21.546 L39.014,25.648 C39.014,26.558 39.602,27.202 40.456,27.202 C40.904,27.202 41.338,27.02 41.604,26.712 C41.814,26.46 41.884,26.194 41.884,25.676 L41.884,21.546 Z M46.056,22.484 L46.056,26.684 C46.07,27.006 46.154,27.076 46.546,27.076 L47.036,27.076 L47.036,28 L46.042,28 C45.286,27.986 44.992,27.706 44.992,26.992 L44.992,22.484 L44.096,22.484 L44.096,21.546 L44.992,21.546 L44.992,19.516 L46.056,19.516 L46.056,21.546 L47.036,21.546 L47.036,22.484 L46.056,22.484 Z M49.612,28 L48.548,28 L48.548,18.662 L49.612,18.662 L49.612,28 Z M52.818,21.546 L52.818,28 L51.754,28 L51.754,21.546 L52.818,21.546 Z M52.3,19.04 C52.678,19.04 52.972,19.348 52.972,19.74 C52.972,20.118 52.664,20.412 52.286,20.412 C51.908,20.412 51.614,20.118 51.614,19.726 C51.614,19.334 51.908,19.04 52.3,19.04 Z M54.96,21.546 L56.024,21.546 L56.024,22.456 C56.584,21.7 57.144,21.392 57.942,21.392 C58.53,21.392 59.062,21.588 59.44,21.924 C59.846,22.316 59.986,22.764 59.986,23.646 L59.986,28 L58.922,28 L58.922,23.884 C58.922,23.31 58.852,23.002 58.684,22.778 C58.488,22.512 58.11,22.344 57.676,22.344 C57.2,22.344 56.766,22.526 56.444,22.89 C56.136,23.226 56.024,23.534 56.024,24.066 L56.024,28 L54.96,28 L54.96,21.546 Z M68.078,25.116 L62.702,25.116 C62.758,25.662 62.856,25.942 63.122,26.292 C63.542,26.866 64.158,27.174 64.858,27.174 C65.656,27.174 66.412,26.74 66.79,26.068 L67.728,26.418 C67.196,27.496 66.09,28.154 64.858,28.154 C62.94,28.154 61.568,26.754 61.568,24.794 C61.568,22.806 62.926,21.392 64.816,21.392 C66.692,21.392 68.092,22.806 68.092,24.696 C68.092,24.78 68.092,24.962 68.078,25.116 Z M62.716,24.332 L66.958,24.332 C66.916,23.828 66.818,23.548 66.594,23.226 C66.188,22.68 65.53,22.344 64.816,22.344 C64.102,22.344 63.458,22.68 63.08,23.24 C62.884,23.548 62.8,23.814 62.716,24.332 Z M74.462,22.526 L74.462,18.662 L75.526,18.662 L75.526,28 L74.462,28 L74.462,26.894 C73.818,27.776 73.132,28.154 72.152,28.154 C70.374,28.154 69.114,26.768 69.114,24.808 C69.114,22.848 70.402,21.392 72.152,21.392 C73.104,21.392 73.832,21.742 74.462,22.526 Z M72.376,22.344 C71.102,22.344 70.234,23.352 70.234,24.822 C70.234,26.236 71.088,27.23 72.306,27.23 C73.552,27.23 74.462,26.194 74.462,24.794 C74.462,23.338 73.608,22.344 72.376,22.344 Z M77.094,19.054 L77.794,18.382 C79.46,20.426 80.202,22.386 80.202,24.738 C80.202,27.16 79.32,29.512 77.766,31.276 L77.094,30.576 C78.508,28.826 79.208,26.88 79.208,24.78 C79.208,22.722 78.466,20.706 77.094,19.054 Z"/>
        <g transform="translate(7 48)">
          <rect width="90" height="47" x=".5" y=".5" stroke="#A9B6BE" rx="4"/>
          <path fill="#314351" fill-rule="nonzero" d="M17.0239258,29 L17.0239258,19.046875 L20.4350586,19.046875 C21.5607153,19.046875 22.4174775,19.2724587 23.0053711,19.7236328 C23.5932647,20.1748069 23.887207,20.8470007 23.887207,21.7402344 C23.887207,22.1959658 23.7641614,22.606118 23.5180664,22.9707031 C23.2719714,23.3352883 22.911949,23.6178375 22.4379883,23.8183594 C22.9757514,23.9641934 23.3916001,24.2387675 23.6855469,24.6420898 C23.9794937,25.0454122 24.1264648,25.5296196 24.1264648,26.0947266 C24.1264648,27.028976 23.8268259,27.7467423 23.2275391,28.2480469 C22.6282522,28.7493515 21.7703506,29 20.6538086,29 L17.0239258,29 Z M18.753418,24.5087891 L18.753418,27.6191406 L20.6743164,27.6191406 C21.2166368,27.6191406 21.6404607,27.4847019 21.9458008,27.2158203 C22.2511408,26.9469388 22.4038086,26.5732446 22.4038086,26.0947266 C22.4038086,25.0602162 21.875168,24.5315756 20.8178711,24.5087891 L18.753418,24.5087891 Z M18.753418,23.2373047 L20.4487305,23.2373047 C20.9864936,23.2373047 21.4068995,23.1153984 21.7099609,22.871582 C22.0130223,22.6277657 22.1645508,22.2825543 22.1645508,21.8359375 C22.1645508,21.3437475 22.0244155,20.9882823 21.7441406,20.7695312 C21.4638658,20.5507802 21.0275095,20.4414062 20.4350586,20.4414062 L18.753418,20.4414062 L18.753418,23.2373047 Z M33.8862305,19.046875 L33.8862305,25.6982422 C33.8862305,26.7555391 33.5478549,27.5929331 32.8710938,28.2104492 C32.1943326,28.8279653 31.2931371,29.1367188 30.1674805,29.1367188 C29.0281519,29.1367188 28.1235385,28.8325226 27.4536133,28.2241211 C26.7836881,27.6157196 26.4487305,26.7714898 26.4487305,25.6914062 L26.4487305,19.046875 L28.1713867,19.046875 L28.1713867,25.7050781 C28.1713867,26.370446 28.3400048,26.878579 28.6772461,27.2294922 C29.0144874,27.5804054 29.5112272,27.7558594 30.1674805,27.7558594 C31.4982163,27.7558594 32.1635742,27.0540435 32.1635742,25.6503906 L32.1635742,19.046875 L33.8862305,19.046875 Z M43.6733398,20.4414062 L40.5698242,20.4414062 L40.5698242,29 L38.8540039,29 L38.8540039,20.4414062 L35.777832,20.4414062 L35.777832,19.046875 L43.6733398,19.046875 L43.6733398,20.4414062 Z M53.0297852,20.4414062 L49.9262695,20.4414062 L49.9262695,29 L48.2104492,29 L48.2104492,20.4414062 L45.1342773,20.4414062 L45.1342773,19.046875 L53.0297852,19.046875 L53.0297852,20.4414062 Z M62.8374023,24.2832031 C62.8374023,25.2584684 62.6687842,26.1140914 62.331543,26.8500977 C61.9943017,27.5861039 61.5123729,28.1512025 60.8857422,28.5454102 C60.2591115,28.9396179 59.5379273,29.1367188 58.722168,29.1367188 C57.9155233,29.1367188 57.1966177,28.9396179 56.5654297,28.5454102 C55.9342416,28.1512025 55.4466163,27.5895219 55.1025391,26.8603516 C54.7584618,26.1311812 54.5841472,25.2903693 54.5795898,24.3378906 L54.5795898,23.7773438 C54.5795898,22.8066358 54.7516259,21.9498735 55.0957031,21.2070312 C55.4397804,20.464189 55.9251271,19.8956725 56.5517578,19.5014648 C57.1783885,19.1072571 57.8972941,18.9101562 58.7084961,18.9101562 C59.5196981,18.9101562 60.2386036,19.1049785 60.8652344,19.4946289 C61.4918651,19.8842793 61.9760725,20.4448206 62.3178711,21.1762695 C62.6596697,21.9077185 62.832845,22.7587842 62.8374023,23.7294922 L62.8374023,24.2832031 Z M61.1079102,23.7636719 C61.1079102,22.6608018 60.8994161,21.8154326 60.4824219,21.2275391 C60.0654276,20.6396455 59.4741249,20.3457031 58.7084961,20.3457031 C57.9610965,20.3457031 57.3766297,20.6385062 56.9550781,21.2241211 C56.5335265,21.809736 56.3181967,22.6380155 56.309082,23.7089844 L56.309082,24.2832031 C56.309082,25.3769586 56.5221333,26.2223277 56.9482422,26.8193359 C57.3743511,27.4163441 57.9656538,27.7148438 58.722168,27.7148438 C59.4877968,27.7148438 60.0768209,27.42318 60.4892578,26.8398438 C60.9016948,26.2565075 61.1079102,25.4043025 61.1079102,24.2832031 L61.1079102,23.7636719 Z M73.2055664,29 L71.4760742,29 L67.0395508,21.9384766 L67.0395508,29 L65.3100586,29 L65.3100586,19.046875 L67.0395508,19.046875 L71.4897461,26.1357422 L71.4897461,19.046875 L73.2055664,19.046875 L73.2055664,29 Z"/>
        </g>
      </g>
      <g transform="translate(391)">
        <path fill="#C41261" fill-rule="nonzero" d="M1.87,8.936 L5.16,8.936 L5.16,10 L0.694,10 L0.694,0.662 L1.87,0.662 L1.87,8.936 Z M9.36,3.392 C11.264,3.392 12.622,4.806 12.622,6.794 C12.622,8.684 11.166,10.154 9.318,10.154 C7.4,10.154 6.056,8.754 6.056,6.766 C6.056,4.764 7.4,3.392 9.36,3.392 Z M9.36,4.372 C8.03,4.372 7.148,5.338 7.148,6.78 C7.148,8.208 8.03,9.174 9.346,9.174 C10.62,9.174 11.53,8.18 11.53,6.78 C11.53,5.338 10.662,4.372 9.36,4.372 Z M21.694,3.546 L22.786,3.546 L20.49,10 L19.524,10 L18.04,5.1 L16.486,10 L15.478,10 L13.266,3.546 L14.358,3.546 L16.01,8.292 L17.494,3.546 L18.544,3.546 L20,8.292 L21.694,3.546 Z M29.296,1.67 L29.296,4.792 L32.978,4.792 L32.978,5.8 L29.296,5.8 L29.296,8.992 L32.978,8.992 L32.978,10 L28.12,10 L28.12,0.662 L32.978,0.662 L32.978,1.67 L29.296,1.67 Z M34.756,3.546 L35.82,3.546 L35.82,4.442 C36.31,3.7 36.856,3.392 37.654,3.392 C38.536,3.392 39.096,3.77 39.39,4.568 C39.866,3.742 40.468,3.392 41.434,3.392 C42.176,3.392 42.736,3.63 43.072,4.078 C43.38,4.484 43.464,4.848 43.464,5.87 L43.464,10 L42.4,10 L42.4,6.122 C42.4,5.338 42.372,5.156 42.218,4.89 C42.022,4.554 41.602,4.344 41.098,4.344 C40.16,4.344 39.642,4.974 39.642,6.122 L39.642,10 L38.578,10 L38.578,6.136 C38.578,5.506 38.522,5.184 38.368,4.904 C38.186,4.54 37.794,4.344 37.318,4.344 C36.38,4.344 35.82,5.016 35.82,6.136 L35.82,10 L34.756,10 L34.756,3.546 Z M45.564,3.546 L46.628,3.546 L46.628,4.722 C47.244,3.77 47.902,3.392 48.98,3.392 C50.772,3.392 52.018,4.764 52.018,6.724 C52.018,8.754 50.772,10.154 48.98,10.154 C48.476,10.154 48.014,10.042 47.566,9.818 C47.174,9.622 46.978,9.454 46.628,8.992 L46.628,13.024 L45.564,13.024 L45.564,3.546 Z M48.798,4.344 C47.51,4.344 46.628,5.366 46.628,6.878 C46.628,8.292 47.482,9.23 48.756,9.23 C50.03,9.23 50.884,8.236 50.884,6.766 C50.884,6.01 50.702,5.436 50.324,5.016 C49.946,4.596 49.372,4.344 48.798,4.344 Z M54.692,0.662 L54.692,4.442 C55.28,3.714 55.868,3.392 56.638,3.392 C57.198,3.392 57.786,3.616 58.136,3.98 C58.486,4.33 58.64,4.834 58.64,5.66 L58.64,10 L57.576,10 L57.576,5.716 C57.576,4.834 57.142,4.344 56.372,4.344 C55.882,4.344 55.448,4.54 55.112,4.918 C54.79,5.282 54.692,5.604 54.692,6.22 L54.692,10 L53.628,10 L53.628,0.662 L54.692,0.662 Z M65.612,4.61 L65.612,3.546 L66.676,3.546 L66.676,10 L65.612,10 L65.612,8.754 C64.968,9.72 64.24,10.154 63.26,10.154 C61.482,10.154 60.222,8.754 60.222,6.794 C60.222,4.82 61.51,3.392 63.288,3.392 C64.268,3.392 64.982,3.77 65.612,4.61 Z M63.442,4.344 C62.742,4.344 62.252,4.582 61.874,5.114 C61.538,5.576 61.342,6.192 61.342,6.822 C61.342,8.194 62.238,9.23 63.414,9.23 C64.632,9.23 65.626,8.096 65.626,6.71 C65.626,5.31 64.73,4.344 63.442,4.344 Z M72.864,5.31 L71.8,5.31 L71.8,5.24 C71.8,4.638 71.31,4.26 70.568,4.26 C69.854,4.26 69.406,4.624 69.406,5.184 C69.406,5.744 69.686,5.954 70.848,6.276 C71.674,6.5 72.108,6.71 72.416,7.018 C72.738,7.34 72.934,7.802 72.934,8.278 C72.934,9.398 72.01,10.154 70.638,10.154 C69.168,10.154 68.342,9.468 68.23,8.166 L69.28,8.166 C69.35,8.894 69.826,9.286 70.638,9.286 C71.366,9.286 71.842,8.908 71.842,8.334 C71.842,7.774 71.478,7.494 70.372,7.214 C68.972,6.836 68.342,6.248 68.342,5.268 C68.342,4.148 69.252,3.392 70.61,3.392 C71.982,3.392 72.808,4.092 72.864,5.31 Z M75.636,3.546 L75.636,10 L74.572,10 L74.572,3.546 L75.636,3.546 Z M75.118,1.04 C75.496,1.04 75.79,1.348 75.79,1.74 C75.79,2.118 75.482,2.412 75.104,2.412 C74.726,2.412 74.432,2.118 74.432,1.726 C74.432,1.334 74.726,1.04 75.118,1.04 Z M81.824,5.31 L80.76,5.31 L80.76,5.24 C80.76,4.638 80.27,4.26 79.528,4.26 C78.814,4.26 78.366,4.624 78.366,5.184 C78.366,5.744 78.646,5.954 79.808,6.276 C80.634,6.5 81.068,6.71 81.376,7.018 C81.698,7.34 81.894,7.802 81.894,8.278 C81.894,9.398 80.97,10.154 79.598,10.154 C78.128,10.154 77.302,9.468 77.19,8.166 L78.24,8.166 C78.31,8.894 78.786,9.286 79.598,9.286 C80.326,9.286 80.802,8.908 80.802,8.334 C80.802,7.774 80.438,7.494 79.332,7.214 C77.932,6.836 77.302,6.248 77.302,5.268 C77.302,4.148 78.212,3.392 79.57,3.392 C80.942,3.392 81.768,4.092 81.824,5.31 Z M29.975,30.604 L29.275,31.276 C27.623,29.246 26.867,27.272 26.867,24.92 C26.867,22.512 27.749,20.132 29.303,18.382 L29.975,19.082 C28.561,20.832 27.861,22.778 27.861,24.878 C27.861,26.922 28.617,28.966 29.975,30.604 Z M32.677,22.484 L32.677,26.684 C32.691,27.006 32.775,27.076 33.167,27.076 L33.657,27.076 L33.657,28 L32.663,28 C31.907,27.986 31.613,27.706 31.613,26.992 L31.613,22.484 L30.717,22.484 L30.717,21.546 L31.613,21.546 L31.613,19.516 L32.677,19.516 L32.677,21.546 L33.657,21.546 L33.657,22.484 L32.677,22.484 Z M41.161,25.116 L35.785,25.116 C35.841,25.662 35.939,25.942 36.205,26.292 C36.625,26.866 37.241,27.174 37.941,27.174 C38.739,27.174 39.495,26.74 39.873,26.068 L40.811,26.418 C40.279,27.496 39.173,28.154 37.941,28.154 C36.023,28.154 34.651,26.754 34.651,24.794 C34.651,22.806 36.009,21.392 37.899,21.392 C39.775,21.392 41.175,22.806 41.175,24.696 C41.175,24.78 41.175,24.962 41.161,25.116 Z M35.799,24.332 L40.041,24.332 C39.999,23.828 39.901,23.548 39.677,23.226 C39.271,22.68 38.613,22.344 37.899,22.344 C37.185,22.344 36.541,22.68 36.163,23.24 C35.967,23.548 35.883,23.814 35.799,24.332 Z M44.773,25.662 L43.051,28 L41.749,28 L44.129,24.794 L41.707,21.546 L43.051,21.546 L44.773,23.912 L46.537,21.546 L47.839,21.546 L45.403,24.794 L47.727,28 L46.425,28 L44.773,25.662 Z M50.093,22.484 L50.093,26.684 C50.107,27.006 50.191,27.076 50.583,27.076 L51.073,27.076 L51.073,28 L50.079,28 C49.323,27.986 49.029,27.706 49.029,26.992 L49.029,22.484 L48.133,22.484 L48.133,21.546 L49.029,21.546 L49.029,19.516 L50.093,19.516 L50.093,21.546 L51.073,21.546 L51.073,22.484 L50.093,22.484 Z M52.011,19.054 L52.711,18.382 C54.377,20.426 55.119,22.386 55.119,24.738 C55.119,27.16 54.237,29.512 52.683,31.276 L52.011,30.576 C53.425,28.826 54.125,26.88 54.125,24.78 C54.125,22.722 53.383,20.706 52.011,19.054 Z"/>
        <g transform="translate(4 48)">
          <rect width="75" height="48"/>
          <path fill="#314351" fill-rule="nonzero" d="M9.02392578,29 L9.02392578,19.046875 L12.4350586,19.046875 C13.5607153,19.046875 14.4174775,19.2724587 15.0053711,19.7236328 C15.5932647,20.1748069 15.887207,20.8470007 15.887207,21.7402344 C15.887207,22.1959658 15.7641614,22.606118 15.5180664,22.9707031 C15.2719714,23.3352883 14.911949,23.6178375 14.4379883,23.8183594 C14.9757514,23.9641934 15.3916001,24.2387675 15.6855469,24.6420898 C15.9794937,25.0454122 16.1264648,25.5296196 16.1264648,26.0947266 C16.1264648,27.028976 15.8268259,27.7467423 15.2275391,28.2480469 C14.6282522,28.7493515 13.7703506,29 12.6538086,29 L9.02392578,29 Z M10.753418,24.5087891 L10.753418,27.6191406 L12.6743164,27.6191406 C13.2166368,27.6191406 13.6404607,27.4847019 13.9458008,27.2158203 C14.2511408,26.9469388 14.4038086,26.5732446 14.4038086,26.0947266 C14.4038086,25.0602162 13.875168,24.5315756 12.8178711,24.5087891 L10.753418,24.5087891 Z M10.753418,23.2373047 L12.4487305,23.2373047 C12.9864936,23.2373047 13.4068995,23.1153984 13.7099609,22.871582 C14.0130223,22.6277657 14.1645508,22.2825543 14.1645508,21.8359375 C14.1645508,21.3437475 14.0244155,20.9882823 13.7441406,20.7695312 C13.4638658,20.5507802 13.0275095,20.4414062 12.4350586,20.4414062 L10.753418,20.4414062 L10.753418,23.2373047 Z M25.8862305,19.046875 L25.8862305,25.6982422 C25.8862305,26.7555391 25.5478549,27.5929331 24.8710938,28.2104492 C24.1943326,28.8279653 23.2931371,29.1367188 22.1674805,29.1367188 C21.0281519,29.1367188 20.1235385,28.8325226 19.4536133,28.2241211 C18.7836881,27.6157196 18.4487305,26.7714898 18.4487305,25.6914062 L18.4487305,19.046875 L20.1713867,19.046875 L20.1713867,25.7050781 C20.1713867,26.370446 20.3400048,26.878579 20.6772461,27.2294922 C21.0144874,27.5804054 21.5112272,27.7558594 22.1674805,27.7558594 C23.4982163,27.7558594 24.1635742,27.0540435 24.1635742,25.6503906 L24.1635742,19.046875 L25.8862305,19.046875 Z M35.6733398,20.4414062 L32.5698242,20.4414062 L32.5698242,29 L30.8540039,29 L30.8540039,20.4414062 L27.777832,20.4414062 L27.777832,19.046875 L35.6733398,19.046875 L35.6733398,20.4414062 Z M45.0297852,20.4414062 L41.9262695,20.4414062 L41.9262695,29 L40.2104492,29 L40.2104492,20.4414062 L37.1342773,20.4414062 L37.1342773,19.046875 L45.0297852,19.046875 L45.0297852,20.4414062 Z M54.8374023,24.2832031 C54.8374023,25.2584684 54.6687842,26.1140914 54.331543,26.8500977 C53.9943017,27.5861039 53.5123729,28.1512025 52.8857422,28.5454102 C52.2591115,28.9396179 51.5379273,29.1367188 50.722168,29.1367188 C49.9155233,29.1367188 49.1966177,28.9396179 48.5654297,28.5454102 C47.9342416,28.1512025 47.4466163,27.5895219 47.1025391,26.8603516 C46.7584618,26.1311812 46.5841472,25.2903693 46.5795898,24.3378906 L46.5795898,23.7773438 C46.5795898,22.8066358 46.7516259,21.9498735 47.0957031,21.2070312 C47.4397804,20.464189 47.9251271,19.8956725 48.5517578,19.5014648 C49.1783885,19.1072571 49.8972941,18.9101562 50.7084961,18.9101562 C51.5196981,18.9101562 52.2386036,19.1049785 52.8652344,19.4946289 C53.4918651,19.8842793 53.9760725,20.4448206 54.3178711,21.1762695 C54.6596697,21.9077185 54.832845,22.7587842 54.8374023,23.7294922 L54.8374023,24.2832031 Z M53.1079102,23.7636719 C53.1079102,22.6608018 52.8994161,21.8154326 52.4824219,21.2275391 C52.0654276,20.6396455 51.4741249,20.3457031 50.7084961,20.3457031 C49.9610965,20.3457031 49.3766297,20.6385062 48.9550781,21.2241211 C48.5335265,21.809736 48.3181967,22.6380155 48.309082,23.7089844 L48.309082,24.2832031 C48.309082,25.3769586 48.5221333,26.2223277 48.9482422,26.8193359 C49.3743511,27.4163441 49.9656538,27.7148438 50.722168,27.7148438 C51.4877968,27.7148438 52.0768209,27.42318 52.4892578,26.8398438 C52.9016948,26.2565075 53.1079102,25.4043025 53.1079102,24.2832031 L53.1079102,23.7636719 Z M65.2055664,29 L63.4760742,29 L59.0395508,21.9384766 L59.0395508,29 L57.3100586,29 L57.3100586,19.046875 L59.0395508,19.046875 L63.4897461,26.1357422 L63.4897461,19.046875 L65.2055664,19.046875 L65.2055664,29 Z"/>
        </g>
      </g>
    </g>
  </g>
</svg>
