<svg xmlns="http://www.w3.org/2000/svg" xmlns:xlink="http://www.w3.org/1999/xlink" width="720" height="202" viewBox="0 0 720 202">
  <defs>
    <rect id="5-a" width="87" height="24" x="0" y="0"/>
    <mask id="5-d" width="87" height="24" x="0" y="0" fill="#fff" maskContentUnits="userSpaceOnUse" maskUnits="objectBoundingBox">
      <use xlink:href="#5-a"/>
    </mask>
    <rect id="5-b" width="85" height="48" x="0" y="0"/>
    <mask id="5-e" width="85" height="48" x="0" y="0" fill="#fff" maskContentUnits="userSpaceOnUse" maskUnits="objectBoundingBox">
      <use xlink:href="#5-b"/>
    </mask>
    <rect id="5-c" width="82" height="36" x="0" y="0"/>
    <mask id="5-f" width="82" height="36" x="0" y="0" fill="#fff" maskContentUnits="userSpaceOnUse" maskUnits="objectBoundingBox">
      <use xlink:href="#5-c"/>
    </mask>
  </defs>
  <g fill="none" fill-rule="evenodd">
    <rect width="720" height="202" fill="#FFF" fill-opacity=".01" fill-rule="nonzero"/>
    <g transform="translate(46 23)">
      <g transform="translate(462 102)">
        <g transform="translate(55)">
          <g fill="#00AB9A">
            <rect width="1" height="22" x="4" y="1"/>
            <rect width="9" height="1"/>
            <rect width="9" height="1" y="23"/>
          </g>
          <g fill-rule="nonzero" transform="translate(9)">
            <path fill="#314351" d="M15,17.0898438 L15,7.13671875 L18.4111328,7.13671875 C19.5367895,7.13671875 20.3935517,7.36230243 20.9814453,7.81347656 C21.5693389,8.26465069 21.8632812,8.93684449 21.8632812,9.83007812 C21.8632812,10.2858096 21.7402356,10.6959617 21.4941406,11.0605469 C21.2480456,11.425132 20.8880232,11.7076813 20.4140625,11.9082031 C20.9518256,12.0540372 21.3676743,12.3286113 21.6616211,12.7319336 C21.9555679,13.1352559 22.1025391,13.6194633 22.1025391,14.1845703 C22.1025391,15.1188198 21.8029001,15.836586 21.2036133,16.3378906 C20.6043264,16.8391952 19.7464249,17.0898438 18.6298828,17.0898438 L15,17.0898438 Z M16.7294922,12.5986328 L16.7294922,15.7089844 L18.6503906,15.7089844 C19.192711,15.7089844 19.6165349,15.5745456 19.921875,15.3056641 C20.2272151,15.0367825 20.3798828,14.6630883 20.3798828,14.1845703 C20.3798828,13.1500599 19.8512423,12.6214194 18.7939453,12.5986328 L16.7294922,12.5986328 Z M16.7294922,11.3271484 L18.4248047,11.3271484 C18.9625678,11.3271484 19.3829737,11.2052421 19.6860352,10.9614258 C19.9890966,10.7176095 20.140625,10.3723981 20.140625,9.92578125 C20.140625,9.43359129 20.0004897,9.07812609 19.7202148,8.859375 C19.43994,8.64062391 19.0035837,8.53125 18.4111328,8.53125 L16.7294922,8.53125 L16.7294922,11.3271484 Z M31.8623047,7.13671875 L31.8623047,13.7880859 C31.8623047,14.8453829 31.5239292,15.6827769 30.847168,16.300293 C30.1704068,16.9178091 29.2692114,17.2265625 28.1435547,17.2265625 C27.0042261,17.2265625 26.0996127,16.9223663 25.4296875,16.3139648 C24.7597623,15.7055634 24.4248047,14.8613335 24.4248047,13.78125 L24.4248047,7.13671875 L26.1474609,7.13671875 L26.1474609,13.7949219 C26.1474609,14.4602898 26.316079,14.9684227 26.6533203,15.3193359 C26.9905616,15.6702492 27.4873014,15.8457031 28.1435547,15.8457031 C29.4742905,15.8457031 30.1396484,15.1438872 30.1396484,13.7402344 L30.1396484,7.13671875 L31.8623047,7.13671875 Z M41.6494141,8.53125 L38.5458984,8.53125 L38.5458984,17.0898438 L36.8300781,17.0898438 L36.8300781,8.53125 L33.7539062,8.53125 L33.7539062,7.13671875 L41.6494141,7.13671875 L41.6494141,8.53125 Z M51.0058594,8.53125 L47.9023438,8.53125 L47.9023438,17.0898438 L46.1865234,17.0898438 L46.1865234,8.53125 L43.1103516,8.53125 L43.1103516,7.13671875 L51.0058594,7.13671875 L51.0058594,8.53125 Z M60.8134766,12.3730469 C60.8134766,13.3483122 60.6448585,14.2039351 60.3076172,14.9399414 C59.9703759,15.6759477 59.4884471,16.2410462 58.8618164,16.6352539 C58.2351857,17.0294616 57.5140015,17.2265625 56.6982422,17.2265625 C55.8915975,17.2265625 55.172692,17.0294616 54.5415039,16.6352539 C53.9103159,16.2410462 53.4226905,15.6793656 53.0786133,14.9501953 C52.734536,14.221025 52.5602214,13.3802131 52.5556641,12.4277344 L52.5556641,11.8671875 C52.5556641,10.8964795 52.7277001,10.0397173 53.0717773,9.296875 C53.4158546,8.55403274 53.9012013,7.98551629 54.527832,7.59130859 C55.1544628,7.19710089 55.8733683,7 56.6845703,7 C57.4957723,7 58.2146779,7.19482227 58.8413086,7.58447266 C59.4679393,7.97412304 59.9521467,8.53466431 60.2939453,9.26611328 C60.6357439,9.99756225 60.8089192,10.848628 60.8134766,11.8193359 L60.8134766,12.3730469 Z M59.0839844,11.8535156 C59.0839844,10.7506455 58.8754904,9.90527638 58.4584961,9.31738281 C58.0415018,8.72948925 57.4501991,8.43554688 56.6845703,8.43554688 C55.9371707,8.43554688 55.3527039,8.72834994 54.9311523,9.31396484 C54.5096008,9.89957975 54.2942709,10.7278592 54.2851562,11.7988281 L54.2851562,12.3730469 C54.2851562,13.4668023 54.4982075,14.3121715 54.9243164,14.9091797 C55.3504253,15.5061879 55.941728,15.8046875 56.6982422,15.8046875 C57.463871,15.8046875 58.0528951,15.5130238 58.465332,14.9296875 C58.877769,14.3463512 59.0839844,13.4941462 59.0839844,12.3730469 L59.0839844,11.8535156 Z M71.1816406,17.0898438 L69.4521484,17.0898438 L65.015625,10.0283203 L65.015625,17.0898438 L63.2861328,17.0898438 L63.2861328,7.13671875 L65.015625,7.13671875 L69.4658203,14.2255859 L69.4658203,7.13671875 L71.1816406,7.13671875 L71.1816406,17.0898438 Z"/>
            <use stroke="#6FEAD9" stroke-dasharray="1" stroke-width="2" mask="url(#5-d)" xlink:href="#5-a"/>
          </g>
        </g>
        <path fill="#17B2A3" fill-rule="nonzero" d="M2.794,1.792 L2.794,8.337 L1.87,8.337 L1.87,1.792 L0,1.792 L0,1 L4.653,1 L4.653,1.792 L2.794,1.792 Z M9.427,4.102 L9.427,3.266 L10.263,3.266 L10.263,8.337 L9.427,8.337 L9.427,7.358 C8.921,8.117 8.349,8.458 7.579,8.458 C6.182,8.458 5.192,7.358 5.192,5.818 C5.192,4.267 6.204,3.145 7.601,3.145 C8.371,3.145 8.932,3.442 9.427,4.102 Z M7.722,3.893 C7.172,3.893 6.787,4.08 6.49,4.498 C6.226,4.861 6.072,5.345 6.072,5.84 C6.072,6.918 6.776,7.732 7.7,7.732 C8.657,7.732 9.438,6.841 9.438,5.752 C9.438,4.652 8.734,3.893 7.722,3.893 Z M11.946,3.266 L12.782,3.266 L12.782,4.19 C13.266,3.442 13.783,3.145 14.63,3.145 C16.038,3.145 17.017,4.223 17.017,5.763 C17.017,7.358 16.038,8.458 14.63,8.458 C14.234,8.458 13.871,8.37 13.519,8.194 C13.211,8.04 13.057,7.908 12.782,7.545 L12.782,10.713 L11.946,10.713 L11.946,3.266 Z M14.487,3.893 C13.475,3.893 12.782,4.696 12.782,5.884 C12.782,6.995 13.453,7.732 14.454,7.732 C15.455,7.732 16.126,6.951 16.126,5.796 C16.126,5.202 15.983,4.751 15.686,4.421 C15.389,4.091 14.938,3.893 14.487,3.893 Z M22.473,4.003 L22.473,7.303 C22.484,7.556 22.55,7.611 22.858,7.611 L23.243,7.611 L23.243,8.337 L22.462,8.337 C21.868,8.326 21.637,8.106 21.637,7.545 L21.637,4.003 L20.933,4.003 L20.933,3.266 L21.637,3.266 L21.637,1.671 L22.473,1.671 L22.473,3.266 L23.243,3.266 L23.243,4.003 L22.473,4.003 Z M28.259,4.102 L28.259,3.266 L29.095,3.266 L29.095,8.337 L28.259,8.337 L28.259,7.358 C27.753,8.117 27.181,8.458 26.411,8.458 C25.014,8.458 24.024,7.358 24.024,5.818 C24.024,4.267 25.036,3.145 26.433,3.145 C27.203,3.145 27.764,3.442 28.259,4.102 Z M26.554,3.893 C26.004,3.893 25.619,4.08 25.322,4.498 C25.058,4.861 24.904,5.345 24.904,5.84 C24.904,6.918 25.608,7.732 26.532,7.732 C27.489,7.732 28.27,6.841 28.27,5.752 C28.27,4.652 27.566,3.893 26.554,3.893 Z M30.778,3.266 L31.614,3.266 L31.614,4.124 C31.768,3.761 31.878,3.607 32.076,3.453 C32.329,3.255 32.681,3.145 33.044,3.145 L33.242,3.145 L33.242,3.992 C33.154,3.981 33.066,3.981 33.011,3.981 C32.56,3.981 32.164,4.19 31.911,4.564 C31.691,4.883 31.614,5.18 31.614,5.763 L31.614,8.337 L30.778,8.337 L30.778,3.266 Z M38.027,4.135 L38.027,3.266 L38.863,3.266 L38.863,8.37 C38.863,9.217 38.654,9.789 38.192,10.229 C37.741,10.669 37.092,10.9 36.322,10.9 C35.376,10.9 34.628,10.592 34.078,9.976 L34.65,9.404 C34.881,9.646 34.991,9.745 35.134,9.844 C35.42,10.02 35.893,10.141 36.322,10.141 C36.85,10.141 37.356,9.954 37.642,9.646 C37.895,9.371 38.027,8.964 38.027,8.436 L38.027,7.369 C37.532,8.117 36.949,8.458 36.157,8.458 C34.815,8.458 33.814,7.325 33.814,5.818 C33.814,5.004 34.111,4.223 34.617,3.739 C35.024,3.343 35.574,3.145 36.223,3.145 C36.993,3.145 37.51,3.431 38.027,4.135 Z M36.377,3.915 C35.387,3.915 34.694,4.685 34.694,5.785 C34.694,6.874 35.398,7.688 36.355,7.688 C36.839,7.688 37.312,7.457 37.642,7.072 C37.862,6.819 38.005,6.324 38.005,5.818 C38.005,5.158 37.906,4.806 37.609,4.476 C37.301,4.135 36.828,3.915 36.377,3.915 Z M45.254,6.071 L41.03,6.071 C41.074,6.5 41.151,6.72 41.36,6.995 C41.69,7.446 42.174,7.688 42.724,7.688 C43.351,7.688 43.945,7.347 44.242,6.819 L44.979,7.094 C44.561,7.941 43.692,8.458 42.724,8.458 C41.217,8.458 40.139,7.358 40.139,5.818 C40.139,4.256 41.206,3.145 42.691,3.145 C44.165,3.145 45.265,4.256 45.265,5.741 C45.265,5.807 45.265,5.95 45.254,6.071 Z M41.041,5.455 L44.374,5.455 C44.341,5.059 44.264,4.839 44.088,4.586 C43.769,4.157 43.252,3.893 42.691,3.893 C42.13,3.893 41.624,4.157 41.327,4.597 C41.173,4.839 41.107,5.048 41.041,5.455 Z M47.366,4.003 L47.366,7.303 C47.377,7.556 47.443,7.611 47.751,7.611 L48.136,7.611 L48.136,8.337 L47.355,8.337 C46.761,8.326 46.53,8.106 46.53,7.545 L46.53,4.003 L45.826,4.003 L45.826,3.266 L46.53,3.266 L46.53,1.671 L47.366,1.671 L47.366,3.266 L48.136,3.266 L48.136,4.003 L47.366,4.003 Z M49.753,7.281 C50.083,7.281 50.325,7.523 50.325,7.864 C50.325,8.183 50.072,8.425 49.753,8.425 C49.423,8.425 49.181,8.183 49.181,7.853 C49.181,7.523 49.423,7.281 49.753,7.281 Z M49.753,4.113 C50.083,4.113 50.325,4.355 50.325,4.696 C50.325,5.015 50.072,5.257 49.753,5.257 C49.423,5.257 49.181,5.015 49.181,4.685 C49.181,4.355 49.423,4.113 49.753,4.113 Z M29.381,21.534 L31.966,21.534 L31.966,22.337 L27.852,22.337 L30.404,18.685 C31.141,17.618 31.306,17.288 31.306,16.848 C31.306,16.21 30.8,15.759 30.085,15.759 C29.59,15.759 29.183,15.99 29.018,16.375 C28.93,16.584 28.897,16.749 28.886,17.134 L28.061,17.134 C28.105,15.737 28.842,14.967 30.151,14.967 C31.35,14.967 32.186,15.715 32.186,16.782 C32.186,17.398 31.966,17.937 31.35,18.795 L29.381,21.534 Z M36.245,20.687 L33.308,20.687 L33.308,20.005 L37.092,14.901 L37.092,19.895 L37.95,19.895 L37.95,20.687 L37.092,20.687 L37.092,22.337 L36.245,22.337 L36.245,20.687 Z M36.245,19.895 L36.245,17.09 L34.188,19.895 L36.245,19.895 Z M43.01,18.036 L43.01,15 L43.846,15 L43.846,22.337 L43.01,22.337 L43.01,21.468 C42.504,22.161 41.965,22.458 41.195,22.458 C39.798,22.458 38.808,21.369 38.808,19.829 C38.808,18.289 39.82,17.145 41.195,17.145 C41.943,17.145 42.515,17.42 43.01,18.036 Z M41.371,17.893 C40.37,17.893 39.688,18.685 39.688,19.84 C39.688,20.951 40.359,21.732 41.316,21.732 C42.295,21.732 43.01,20.918 43.01,19.818 C43.01,18.674 42.339,17.893 41.371,17.893 Z M45.529,17.266 L46.365,17.266 L46.365,18.19 C46.849,17.442 47.366,17.145 48.213,17.145 C49.621,17.145 50.6,18.223 50.6,19.763 C50.6,21.358 49.621,22.458 48.213,22.458 C47.817,22.458 47.454,22.37 47.102,22.194 C46.794,22.04 46.64,21.908 46.365,21.545 L46.365,24.713 L45.529,24.713 L45.529,17.266 Z M48.07,17.893 C47.058,17.893 46.365,18.696 46.365,19.884 C46.365,20.995 47.036,21.732 48.037,21.732 C49.038,21.732 49.709,20.951 49.709,19.796 C49.709,19.202 49.566,18.751 49.269,18.421 C48.972,18.091 48.521,17.893 48.07,17.893 Z"/>
      </g>
      <path fill="#00AB9A" fill-rule="nonzero" d="M274.032,1.904 L274.032,11.339 L271.703,11.339 L271.703,1.904 L269,1.904 L269,0 L276.718,0 L276.718,1.904 L274.032,1.904 Z M285.745,7.922 L279.591,7.922 C279.778,9.01 280.577,9.69 281.648,9.69 C282.447,9.69 283.127,9.299 283.467,8.67 L285.456,9.214 C284.674,10.744 283.297,11.611 281.631,11.611 C279.132,11.611 277.347,9.843 277.347,7.395 C277.347,4.93 279.064,3.196 281.495,3.196 C284.011,3.196 285.762,4.964 285.762,7.497 L285.745,7.922 Z M279.591,6.681 L283.535,6.681 C283.348,5.644 282.6,5.015 281.529,5.015 C280.492,5.015 279.795,5.61 279.591,6.681 Z M290.386,9.197 L288.941,11.339 L286.391,11.339 L289.128,7.429 L286.221,3.468 L288.941,3.468 L290.386,5.559 L291.78,3.468 L294.415,3.468 L291.61,7.429 L294.364,11.339 L291.746,11.339 L290.386,9.197 Z M297.73,5.253 L297.73,9.027 C297.73,9.401 297.866,9.503 298.342,9.537 L298.716,9.537 L298.716,11.339 L296.999,11.339 C295.945,11.305 295.554,10.88 295.571,9.843 L295.571,5.253 L294.67,5.253 L294.67,3.434 L295.571,3.434 L295.571,1.326 L297.73,1.326 L297.73,3.434 L298.716,3.434 L298.716,5.253 L297.73,5.253 Z M305.499,0 L309.154,0 C310.548,0 311.449,0.204 312.044,0.646 C312.741,1.173 313.132,2.04 313.132,3.043 C313.132,3.825 312.894,4.471 312.418,4.981 C312.095,5.304 311.84,5.457 311.228,5.661 C311.908,5.814 312.214,5.95 312.571,6.273 C313.098,6.749 313.387,7.446 313.387,8.313 C313.387,9.367 312.945,10.302 312.214,10.795 C311.619,11.186 310.922,11.339 309.681,11.339 L305.499,11.339 L305.499,0 Z M307.828,1.768 L307.828,4.811 L308.763,4.811 C310.14,4.811 310.786,4.318 310.786,3.264 C310.786,2.686 310.514,2.193 310.106,1.989 C309.783,1.836 309.307,1.768 308.644,1.768 L307.828,1.768 Z M307.828,6.545 L307.828,9.622 L308.967,9.622 C309.766,9.622 310.14,9.554 310.48,9.316 C310.854,9.061 311.041,8.653 311.041,8.109 C311.041,7.497 310.82,7.072 310.395,6.817 C310.038,6.613 309.681,6.545 308.831,6.545 L307.828,6.545 Z M319.694,3.468 L321.853,3.468 L321.853,8.449 C321.853,9.605 321.615,10.251 320.969,10.795 C320.34,11.322 319.456,11.611 318.419,11.611 C317.331,11.611 316.396,11.305 315.784,10.744 C315.223,10.234 314.951,9.486 314.951,8.449 L314.951,3.468 L317.11,3.468 L317.11,8.313 C317.11,9.197 317.637,9.792 318.419,9.792 C319.218,9.792 319.694,9.282 319.694,8.449 L319.694,3.468 Z M326.103,5.253 L326.103,9.027 C326.103,9.401 326.239,9.503 326.715,9.537 L327.089,9.537 L327.089,11.339 L325.372,11.339 C324.318,11.305 323.927,10.88 323.944,9.843 L323.944,5.253 L323.043,5.253 L323.043,3.434 L323.944,3.434 L323.944,1.326 L326.103,1.326 L326.103,3.434 L327.089,3.434 L327.089,5.253 L326.103,5.253 Z M330.914,5.253 L330.914,9.027 C330.914,9.401 331.05,9.503 331.526,9.537 L331.9,9.537 L331.9,11.339 L330.183,11.339 C329.129,11.305 328.738,10.88 328.755,9.843 L328.755,5.253 L327.854,5.253 L327.854,3.434 L328.755,3.434 L328.755,1.326 L330.914,1.326 L330.914,3.434 L331.9,3.434 L331.9,5.253 L330.914,5.253 Z M337.255,3.196 C339.737,3.196 341.522,4.998 341.522,7.48 C341.522,9.792 339.635,11.611 337.221,11.611 C334.739,11.611 332.954,9.86 332.954,7.412 C332.954,4.913 334.705,3.196 337.255,3.196 Z M337.255,5.134 C335.98,5.134 335.13,6.035 335.13,7.412 C335.13,8.772 335.98,9.69 337.238,9.69 C338.479,9.69 339.346,8.755 339.346,7.446 C339.346,6.018 338.547,5.134 337.255,5.134 Z M343.12,3.468 L345.279,3.468 L345.279,4.437 C345.857,3.536 346.435,3.196 347.421,3.196 C348.169,3.196 348.883,3.468 349.359,3.927 C349.869,4.437 350.056,5.066 350.056,6.358 L350.056,11.339 L347.897,11.339 L347.897,6.46 C347.897,6.018 347.846,5.763 347.71,5.542 C347.506,5.219 347.098,5.015 346.673,5.015 C345.84,5.015 345.279,5.644 345.279,6.562 L345.279,11.339 L343.12,11.339 L343.12,3.468 Z M357.553,5.746 L355.513,5.746 L355.513,5.61 C355.513,5.134 355.088,4.794 354.51,4.794 C353.983,4.794 353.643,5.083 353.643,5.508 C353.643,5.712 353.728,5.916 353.864,6.018 C354.102,6.205 354.119,6.205 355.207,6.545 C356.975,7.089 357.672,7.786 357.672,9.061 C357.672,10.591 356.448,11.611 354.612,11.611 C352.742,11.611 351.603,10.659 351.518,9.027 L353.592,9.027 C353.694,9.707 354,10.013 354.629,10.013 C355.139,10.013 355.496,9.707 355.496,9.265 C355.496,8.789 355.19,8.568 354.034,8.211 C352.334,7.701 351.569,6.936 351.569,5.695 C351.569,4.199 352.776,3.196 354.612,3.196 C356.414,3.196 357.502,4.148 357.553,5.746 Z"/>
      <g transform="translate(0 78)">
        <g transform="translate(55)">
          <g fill="#00AB9A" transform="translate(0 .661)">
            <rect width="1" height="46" x="4" y="1"/>
            <rect width="9" height="1"/>
            <rect width="9" height="1" y="47"/>
          </g>
          <g fill-rule="nonzero" transform="translate(9 1)">
            <path fill="#314351" d="M14,29.0898438 L14,19.1367188 L17.4111328,19.1367188 C18.5367895,19.1367188 19.3935517,19.3623024 19.9814453,19.8134766 C20.5693389,20.2646507 20.8632812,20.9368445 20.8632812,21.8300781 C20.8632812,22.2858096 20.7402356,22.6959617 20.4941406,23.0605469 C20.2480456,23.425132 19.8880232,23.7076813 19.4140625,23.9082031 C19.9518256,24.0540372 20.3676743,24.3286113 20.6616211,24.7319336 C20.9555679,25.1352559 21.1025391,25.6194633 21.1025391,26.1845703 C21.1025391,27.1188198 20.8029001,27.836586 20.2036133,28.3378906 C19.6043264,28.8391952 18.7464249,29.0898438 17.6298828,29.0898438 L14,29.0898438 Z M15.7294922,24.5986328 L15.7294922,27.7089844 L17.6503906,27.7089844 C18.192711,27.7089844 18.6165349,27.5745456 18.921875,27.3056641 C19.2272151,27.0367825 19.3798828,26.6630883 19.3798828,26.1845703 C19.3798828,25.1500599 18.8512423,24.6214194 17.7939453,24.5986328 L15.7294922,24.5986328 Z M15.7294922,23.3271484 L17.4248047,23.3271484 C17.9625678,23.3271484 18.3829737,23.2052421 18.6860352,22.9614258 C18.9890966,22.7176095 19.140625,22.3723981 19.140625,21.9257812 C19.140625,21.4335913 19.0004897,21.0781261 18.7202148,20.859375 C18.43994,20.6406239 18.0035837,20.53125 17.4111328,20.53125 L15.7294922,20.53125 L15.7294922,23.3271484 Z M30.8623047,19.1367188 L30.8623047,25.7880859 C30.8623047,26.8453829 30.5239292,27.6827769 29.847168,28.300293 C29.1704068,28.9178091 28.2692114,29.2265625 27.1435547,29.2265625 C26.0042261,29.2265625 25.0996127,28.9223663 24.4296875,28.3139648 C23.7597623,27.7055634 23.4248047,26.8613335 23.4248047,25.78125 L23.4248047,19.1367188 L25.1474609,19.1367188 L25.1474609,25.7949219 C25.1474609,26.4602898 25.316079,26.9684227 25.6533203,27.3193359 C25.9905616,27.6702492 26.4873014,27.8457031 27.1435547,27.8457031 C28.4742905,27.8457031 29.1396484,27.1438872 29.1396484,25.7402344 L29.1396484,19.1367188 L30.8623047,19.1367188 Z M40.6494141,20.53125 L37.5458984,20.53125 L37.5458984,29.0898438 L35.8300781,29.0898438 L35.8300781,20.53125 L32.7539062,20.53125 L32.7539062,19.1367188 L40.6494141,19.1367188 L40.6494141,20.53125 Z M50.0058594,20.53125 L46.9023438,20.53125 L46.9023438,29.0898438 L45.1865234,29.0898438 L45.1865234,20.53125 L42.1103516,20.53125 L42.1103516,19.1367188 L50.0058594,19.1367188 L50.0058594,20.53125 Z M59.8134766,24.3730469 C59.8134766,25.3483122 59.6448585,26.2039351 59.3076172,26.9399414 C58.9703759,27.6759477 58.4884471,28.2410462 57.8618164,28.6352539 C57.2351857,29.0294616 56.5140015,29.2265625 55.6982422,29.2265625 C54.8915975,29.2265625 54.172692,29.0294616 53.5415039,28.6352539 C52.9103159,28.2410462 52.4226905,27.6793656 52.0786133,26.9501953 C51.734536,26.221025 51.5602214,25.3802131 51.5556641,24.4277344 L51.5556641,23.8671875 C51.5556641,22.8964795 51.7277001,22.0397173 52.0717773,21.296875 C52.4158546,20.5540327 52.9012013,19.9855163 53.527832,19.5913086 C54.1544628,19.1971009 54.8733683,19 55.6845703,19 C56.4957723,19 57.2146779,19.1948223 57.8413086,19.5844727 C58.4679393,19.974123 58.9521467,20.5346643 59.2939453,21.2661133 C59.6357439,21.9975623 59.8089192,22.848628 59.8134766,23.8193359 L59.8134766,24.3730469 Z M58.0839844,23.8535156 C58.0839844,22.7506455 57.8754904,21.9052764 57.4584961,21.3173828 C57.0415018,20.7294892 56.4501991,20.4355469 55.6845703,20.4355469 C54.9371707,20.4355469 54.3527039,20.7283499 53.9311523,21.3139648 C53.5096008,21.8995798 53.2942709,22.7278592 53.2851562,23.7988281 L53.2851562,24.3730469 C53.2851562,25.4668023 53.4982075,26.3121715 53.9243164,26.9091797 C54.3504253,27.5061879 54.941728,27.8046875 55.6982422,27.8046875 C56.463871,27.8046875 57.0528951,27.5130238 57.465332,26.9296875 C57.877769,26.3463512 58.0839844,25.4941462 58.0839844,24.3730469 L58.0839844,23.8535156 Z M70.1816406,29.0898438 L68.4521484,29.0898438 L64.015625,22.0283203 L64.015625,29.0898438 L62.2861328,29.0898438 L62.2861328,19.1367188 L64.015625,19.1367188 L68.4658203,26.2255859 L68.4658203,19.1367188 L70.1816406,19.1367188 L70.1816406,29.0898438 Z"/>
            <use stroke="#6FEAD9" stroke-dasharray="1" stroke-width="2" mask="url(#5-e)" xlink:href="#5-b"/>
          </g>
        </g>
        <path fill="#00AB9A" fill-rule="nonzero" d="M2.794,13.792 L2.794,20.337 L1.87,20.337 L1.87,13.792 L0,13.792 L0,13 L4.653,13 L4.653,13.792 L2.794,13.792 Z M9.427,16.102 L9.427,15.266 L10.263,15.266 L10.263,20.337 L9.427,20.337 L9.427,19.358 C8.921,20.117 8.349,20.458 7.579,20.458 C6.182,20.458 5.192,19.358 5.192,17.818 C5.192,16.267 6.204,15.145 7.601,15.145 C8.371,15.145 8.932,15.442 9.427,16.102 Z M7.722,15.893 C7.172,15.893 6.787,16.08 6.49,16.498 C6.226,16.861 6.072,17.345 6.072,17.84 C6.072,18.918 6.776,19.732 7.7,19.732 C8.657,19.732 9.438,18.841 9.438,17.752 C9.438,16.652 8.734,15.893 7.722,15.893 Z M11.946,15.266 L12.782,15.266 L12.782,16.19 C13.266,15.442 13.783,15.145 14.63,15.145 C16.038,15.145 17.017,16.223 17.017,17.763 C17.017,19.358 16.038,20.458 14.63,20.458 C14.234,20.458 13.871,20.37 13.519,20.194 C13.211,20.04 13.057,19.908 12.782,19.545 L12.782,22.713 L11.946,22.713 L11.946,15.266 Z M14.487,15.893 C13.475,15.893 12.782,16.696 12.782,17.884 C12.782,18.995 13.453,19.732 14.454,19.732 C15.455,19.732 16.126,18.951 16.126,17.796 C16.126,17.202 15.983,16.751 15.686,16.421 C15.389,16.091 14.938,15.893 14.487,15.893 Z M22.473,16.003 L22.473,19.303 C22.484,19.556 22.55,19.611 22.858,19.611 L23.243,19.611 L23.243,20.337 L22.462,20.337 C21.868,20.326 21.637,20.106 21.637,19.545 L21.637,16.003 L20.933,16.003 L20.933,15.266 L21.637,15.266 L21.637,13.671 L22.473,13.671 L22.473,15.266 L23.243,15.266 L23.243,16.003 L22.473,16.003 Z M28.259,16.102 L28.259,15.266 L29.095,15.266 L29.095,20.337 L28.259,20.337 L28.259,19.358 C27.753,20.117 27.181,20.458 26.411,20.458 C25.014,20.458 24.024,19.358 24.024,17.818 C24.024,16.267 25.036,15.145 26.433,15.145 C27.203,15.145 27.764,15.442 28.259,16.102 Z M26.554,15.893 C26.004,15.893 25.619,16.08 25.322,16.498 C25.058,16.861 24.904,17.345 24.904,17.84 C24.904,18.918 25.608,19.732 26.532,19.732 C27.489,19.732 28.27,18.841 28.27,17.752 C28.27,16.652 27.566,15.893 26.554,15.893 Z M30.778,15.266 L31.614,15.266 L31.614,16.124 C31.768,15.761 31.878,15.607 32.076,15.453 C32.329,15.255 32.681,15.145 33.044,15.145 L33.242,15.145 L33.242,15.992 C33.154,15.981 33.066,15.981 33.011,15.981 C32.56,15.981 32.164,16.19 31.911,16.564 C31.691,16.883 31.614,17.18 31.614,17.763 L31.614,20.337 L30.778,20.337 L30.778,15.266 Z M38.027,16.135 L38.027,15.266 L38.863,15.266 L38.863,20.37 C38.863,21.217 38.654,21.789 38.192,22.229 C37.741,22.669 37.092,22.9 36.322,22.9 C35.376,22.9 34.628,22.592 34.078,21.976 L34.65,21.404 C34.881,21.646 34.991,21.745 35.134,21.844 C35.42,22.02 35.893,22.141 36.322,22.141 C36.85,22.141 37.356,21.954 37.642,21.646 C37.895,21.371 38.027,20.964 38.027,20.436 L38.027,19.369 C37.532,20.117 36.949,20.458 36.157,20.458 C34.815,20.458 33.814,19.325 33.814,17.818 C33.814,17.004 34.111,16.223 34.617,15.739 C35.024,15.343 35.574,15.145 36.223,15.145 C36.993,15.145 37.51,15.431 38.027,16.135 Z M36.377,15.915 C35.387,15.915 34.694,16.685 34.694,17.785 C34.694,18.874 35.398,19.688 36.355,19.688 C36.839,19.688 37.312,19.457 37.642,19.072 C37.862,18.819 38.005,18.324 38.005,17.818 C38.005,17.158 37.906,16.806 37.609,16.476 C37.301,16.135 36.828,15.915 36.377,15.915 Z M45.254,18.071 L41.03,18.071 C41.074,18.5 41.151,18.72 41.36,18.995 C41.69,19.446 42.174,19.688 42.724,19.688 C43.351,19.688 43.945,19.347 44.242,18.819 L44.979,19.094 C44.561,19.941 43.692,20.458 42.724,20.458 C41.217,20.458 40.139,19.358 40.139,17.818 C40.139,16.256 41.206,15.145 42.691,15.145 C44.165,15.145 45.265,16.256 45.265,17.741 C45.265,17.807 45.265,17.95 45.254,18.071 Z M41.041,17.455 L44.374,17.455 C44.341,17.059 44.264,16.839 44.088,16.586 C43.769,16.157 43.252,15.893 42.691,15.893 C42.13,15.893 41.624,16.157 41.327,16.597 C41.173,16.839 41.107,17.048 41.041,17.455 Z M47.366,16.003 L47.366,19.303 C47.377,19.556 47.443,19.611 47.751,19.611 L48.136,19.611 L48.136,20.337 L47.355,20.337 C46.761,20.326 46.53,20.106 46.53,19.545 L46.53,16.003 L45.826,16.003 L45.826,15.266 L46.53,15.266 L46.53,13.671 L47.366,13.671 L47.366,15.266 L48.136,15.266 L48.136,16.003 L47.366,16.003 Z M49.753,19.281 C50.083,19.281 50.325,19.523 50.325,19.864 C50.325,20.183 50.072,20.425 49.753,20.425 C49.423,20.425 49.181,20.183 49.181,19.853 C49.181,19.523 49.423,19.281 49.753,19.281 Z M49.753,16.113 C50.083,16.113 50.325,16.355 50.325,16.696 C50.325,17.015 50.072,17.257 49.753,17.257 C49.423,17.257 49.181,17.015 49.181,16.685 C49.181,16.355 49.423,16.113 49.753,16.113 Z M30.745,32.687 L27.808,32.687 L27.808,32.005 L31.592,26.901 L31.592,31.895 L32.45,31.895 L32.45,32.687 L31.592,32.687 L31.592,34.337 L30.745,34.337 L30.745,32.687 Z M30.745,31.895 L30.745,29.09 L28.688,31.895 L30.745,31.895 Z M36.509,30.355 C36.927,30.487 37.125,30.586 37.356,30.828 C37.719,31.191 37.906,31.675 37.906,32.247 C37.906,33.545 36.949,34.469 35.607,34.469 C34.276,34.469 33.341,33.578 33.341,32.324 C33.341,31.741 33.539,31.213 33.891,30.85 C34.122,30.608 34.309,30.498 34.749,30.355 C34.364,30.223 34.199,30.113 34.001,29.871 C33.759,29.574 33.627,29.2 33.627,28.793 C33.627,27.748 34.485,26.978 35.651,26.978 C36.806,26.978 37.642,27.737 37.642,28.782 C37.642,29.2 37.499,29.596 37.235,29.904 C37.037,30.124 36.883,30.223 36.509,30.355 Z M35.651,27.748 C34.947,27.748 34.463,28.188 34.463,28.804 C34.463,29.431 34.98,29.926 35.629,29.926 C36.256,29.926 36.817,29.409 36.817,28.815 C36.817,28.243 36.278,27.748 35.651,27.748 Z M35.64,30.817 C34.848,30.817 34.21,31.444 34.21,32.236 C34.21,33.017 34.837,33.655 35.618,33.655 C36.399,33.655 37.026,33.017 37.026,32.236 C37.026,31.466 36.399,30.817 35.64,30.817 Z M43.01,30.036 L43.01,27 L43.846,27 L43.846,34.337 L43.01,34.337 L43.01,33.468 C42.504,34.161 41.965,34.458 41.195,34.458 C39.798,34.458 38.808,33.369 38.808,31.829 C38.808,30.289 39.82,29.145 41.195,29.145 C41.943,29.145 42.515,29.42 43.01,30.036 Z M41.371,29.893 C40.37,29.893 39.688,30.685 39.688,31.84 C39.688,32.951 40.359,33.732 41.316,33.732 C42.295,33.732 43.01,32.918 43.01,31.818 C43.01,30.674 42.339,29.893 41.371,29.893 Z M45.529,29.266 L46.365,29.266 L46.365,30.19 C46.849,29.442 47.366,29.145 48.213,29.145 C49.621,29.145 50.6,30.223 50.6,31.763 C50.6,33.358 49.621,34.458 48.213,34.458 C47.817,34.458 47.454,34.37 47.102,34.194 C46.794,34.04 46.64,33.908 46.365,33.545 L46.365,36.713 L45.529,36.713 L45.529,29.266 Z M48.07,29.893 C47.058,29.893 46.365,30.696 46.365,31.884 C46.365,32.995 47.036,33.732 48.037,33.732 C49.038,33.732 49.709,32.951 49.709,31.796 C49.709,31.202 49.566,30.751 49.269,30.421 C48.972,30.091 48.521,29.893 48.07,29.893 Z"/>
      </g>
      <g transform="translate(240 90)">
        <path fill="#00AB9A" fill-rule="nonzero" d="M2.794,8.792 L2.794,15.337 L1.87,15.337 L1.87,8.792 L0,8.792 L0,8 L4.653,8 L4.653,8.792 L2.794,8.792 Z M9.427,11.102 L9.427,10.266 L10.263,10.266 L10.263,15.337 L9.427,15.337 L9.427,14.358 C8.921,15.117 8.349,15.458 7.579,15.458 C6.182,15.458 5.192,14.358 5.192,12.818 C5.192,11.267 6.204,10.145 7.601,10.145 C8.371,10.145 8.932,10.442 9.427,11.102 Z M7.722,10.893 C7.172,10.893 6.787,11.08 6.49,11.498 C6.226,11.861 6.072,12.345 6.072,12.84 C6.072,13.918 6.776,14.732 7.7,14.732 C8.657,14.732 9.438,13.841 9.438,12.752 C9.438,11.652 8.734,10.893 7.722,10.893 Z M11.946,10.266 L12.782,10.266 L12.782,11.19 C13.266,10.442 13.783,10.145 14.63,10.145 C16.038,10.145 17.017,11.223 17.017,12.763 C17.017,14.358 16.038,15.458 14.63,15.458 C14.234,15.458 13.871,15.37 13.519,15.194 C13.211,15.04 13.057,14.908 12.782,14.545 L12.782,17.713 L11.946,17.713 L11.946,10.266 Z M14.487,10.893 C13.475,10.893 12.782,11.696 12.782,12.884 C12.782,13.995 13.453,14.732 14.454,14.732 C15.455,14.732 16.126,13.951 16.126,12.796 C16.126,12.202 15.983,11.751 15.686,11.421 C15.389,11.091 14.938,10.893 14.487,10.893 Z M22.473,11.003 L22.473,14.303 C22.484,14.556 22.55,14.611 22.858,14.611 L23.243,14.611 L23.243,15.337 L22.462,15.337 C21.868,15.326 21.637,15.106 21.637,14.545 L21.637,11.003 L20.933,11.003 L20.933,10.266 L21.637,10.266 L21.637,8.671 L22.473,8.671 L22.473,10.266 L23.243,10.266 L23.243,11.003 L22.473,11.003 Z M28.259,11.102 L28.259,10.266 L29.095,10.266 L29.095,15.337 L28.259,15.337 L28.259,14.358 C27.753,15.117 27.181,15.458 26.411,15.458 C25.014,15.458 24.024,14.358 24.024,12.818 C24.024,11.267 25.036,10.145 26.433,10.145 C27.203,10.145 27.764,10.442 28.259,11.102 Z M26.554,10.893 C26.004,10.893 25.619,11.08 25.322,11.498 C25.058,11.861 24.904,12.345 24.904,12.84 C24.904,13.918 25.608,14.732 26.532,14.732 C27.489,14.732 28.27,13.841 28.27,12.752 C28.27,11.652 27.566,10.893 26.554,10.893 Z M30.778,10.266 L31.614,10.266 L31.614,11.124 C31.768,10.761 31.878,10.607 32.076,10.453 C32.329,10.255 32.681,10.145 33.044,10.145 L33.242,10.145 L33.242,10.992 C33.154,10.981 33.066,10.981 33.011,10.981 C32.56,10.981 32.164,11.19 31.911,11.564 C31.691,11.883 31.614,12.18 31.614,12.763 L31.614,15.337 L30.778,15.337 L30.778,10.266 Z M38.027,11.135 L38.027,10.266 L38.863,10.266 L38.863,15.37 C38.863,16.217 38.654,16.789 38.192,17.229 C37.741,17.669 37.092,17.9 36.322,17.9 C35.376,17.9 34.628,17.592 34.078,16.976 L34.65,16.404 C34.881,16.646 34.991,16.745 35.134,16.844 C35.42,17.02 35.893,17.141 36.322,17.141 C36.85,17.141 37.356,16.954 37.642,16.646 C37.895,16.371 38.027,15.964 38.027,15.436 L38.027,14.369 C37.532,15.117 36.949,15.458 36.157,15.458 C34.815,15.458 33.814,14.325 33.814,12.818 C33.814,12.004 34.111,11.223 34.617,10.739 C35.024,10.343 35.574,10.145 36.223,10.145 C36.993,10.145 37.51,10.431 38.027,11.135 Z M36.377,10.915 C35.387,10.915 34.694,11.685 34.694,12.785 C34.694,13.874 35.398,14.688 36.355,14.688 C36.839,14.688 37.312,14.457 37.642,14.072 C37.862,13.819 38.005,13.324 38.005,12.818 C38.005,12.158 37.906,11.806 37.609,11.476 C37.301,11.135 36.828,10.915 36.377,10.915 Z M45.254,13.071 L41.03,13.071 C41.074,13.5 41.151,13.72 41.36,13.995 C41.69,14.446 42.174,14.688 42.724,14.688 C43.351,14.688 43.945,14.347 44.242,13.819 L44.979,14.094 C44.561,14.941 43.692,15.458 42.724,15.458 C41.217,15.458 40.139,14.358 40.139,12.818 C40.139,11.256 41.206,10.145 42.691,10.145 C44.165,10.145 45.265,11.256 45.265,12.741 C45.265,12.807 45.265,12.95 45.254,13.071 Z M41.041,12.455 L44.374,12.455 C44.341,12.059 44.264,11.839 44.088,11.586 C43.769,11.157 43.252,10.893 42.691,10.893 C42.13,10.893 41.624,11.157 41.327,11.597 C41.173,11.839 41.107,12.048 41.041,12.455 Z M47.366,11.003 L47.366,14.303 C47.377,14.556 47.443,14.611 47.751,14.611 L48.136,14.611 L48.136,15.337 L47.355,15.337 C46.761,15.326 46.53,15.106 46.53,14.545 L46.53,11.003 L45.826,11.003 L45.826,10.266 L46.53,10.266 L46.53,8.671 L47.366,8.671 L47.366,10.266 L48.136,10.266 L48.136,11.003 L47.366,11.003 Z M49.753,14.281 C50.083,14.281 50.325,14.523 50.325,14.864 C50.325,15.183 50.072,15.425 49.753,15.425 C49.423,15.425 49.181,15.183 49.181,14.853 C49.181,14.523 49.423,14.281 49.753,14.281 Z M49.753,11.113 C50.083,11.113 50.325,11.355 50.325,11.696 C50.325,12.015 50.072,12.257 49.753,12.257 C49.423,12.257 49.181,12.015 49.181,11.685 C49.181,11.355 49.423,11.113 49.753,11.113 Z M30.734,22.902 L28.171,22.902 L28.171,22.11 L32.329,22.11 L30.173,24.849 C31.449,24.849 32.351,25.762 32.351,27.06 C32.351,28.435 31.317,29.458 29.92,29.458 C28.765,29.458 27.94,28.809 27.687,27.698 L28.479,27.555 C28.677,28.259 29.194,28.655 29.876,28.655 C30.767,28.655 31.471,27.984 31.471,27.126 C31.471,26.246 30.811,25.63 29.854,25.63 C29.513,25.63 29.293,25.696 28.974,25.883 L28.611,25.564 L30.734,22.902 Z M36.971,22.11 L35.09,25.047 C35.398,24.937 35.541,24.904 35.805,24.904 C37.026,24.904 37.972,25.861 37.972,27.104 C37.972,28.402 36.905,29.469 35.607,29.469 C34.298,29.469 33.286,28.435 33.286,27.104 C33.286,26.565 33.429,26.158 33.847,25.487 L35.948,22.11 L36.971,22.11 Z M35.651,25.652 C34.815,25.652 34.155,26.29 34.155,27.104 C34.155,27.962 34.804,28.644 35.629,28.644 C36.454,28.644 37.114,27.973 37.114,27.137 C37.114,26.312 36.465,25.652 35.651,25.652 Z M43.01,25.036 L43.01,22 L43.846,22 L43.846,29.337 L43.01,29.337 L43.01,28.468 C42.504,29.161 41.965,29.458 41.195,29.458 C39.798,29.458 38.808,28.369 38.808,26.829 C38.808,25.289 39.82,24.145 41.195,24.145 C41.943,24.145 42.515,24.42 43.01,25.036 Z M41.371,24.893 C40.37,24.893 39.688,25.685 39.688,26.84 C39.688,27.951 40.359,28.732 41.316,28.732 C42.295,28.732 43.01,27.918 43.01,26.818 C43.01,25.674 42.339,24.893 41.371,24.893 Z M45.529,24.266 L46.365,24.266 L46.365,25.19 C46.849,24.442 47.366,24.145 48.213,24.145 C49.621,24.145 50.6,25.223 50.6,26.763 C50.6,28.358 49.621,29.458 48.213,29.458 C47.817,29.458 47.454,29.37 47.102,29.194 C46.794,29.04 46.64,28.908 46.365,28.545 L46.365,31.713 L45.529,31.713 L45.529,24.266 Z M48.07,24.893 C47.058,24.893 46.365,25.696 46.365,26.884 C46.365,27.995 47.036,28.732 48.037,28.732 C49.038,28.732 49.709,27.951 49.709,26.796 C49.709,26.202 49.566,25.751 49.269,25.421 C48.972,25.091 48.521,24.893 48.07,24.893 Z"/>
        <g transform="translate(55)">
          <g fill="#00AB9A" transform="translate(.116 .661)">
            <rect width="1" height="34" x="4" y="1"/>
            <rect width="9" height="1"/>
            <rect width="9" height="1" y="35"/>
          </g>
          <g fill-rule="nonzero" transform="translate(9 1)">
            <path fill="#314351" d="M13,23.0898438 L13,13.1367188 L16.4111328,13.1367188 C17.5367895,13.1367188 18.3935517,13.3623024 18.9814453,13.8134766 C19.5693389,14.2646507 19.8632812,14.9368445 19.8632812,15.8300781 C19.8632812,16.2858096 19.7402356,16.6959617 19.4941406,17.0605469 C19.2480456,17.425132 18.8880232,17.7076813 18.4140625,17.9082031 C18.9518256,18.0540372 19.3676743,18.3286113 19.6616211,18.7319336 C19.9555679,19.1352559 20.1025391,19.6194633 20.1025391,20.1845703 C20.1025391,21.1188198 19.8029001,21.836586 19.2036133,22.3378906 C18.6043264,22.8391952 17.7464249,23.0898438 16.6298828,23.0898438 L13,23.0898438 Z M14.7294922,18.5986328 L14.7294922,21.7089844 L16.6503906,21.7089844 C17.192711,21.7089844 17.6165349,21.5745456 17.921875,21.3056641 C18.2272151,21.0367825 18.3798828,20.6630883 18.3798828,20.1845703 C18.3798828,19.1500599 17.8512423,18.6214194 16.7939453,18.5986328 L14.7294922,18.5986328 Z M14.7294922,17.3271484 L16.4248047,17.3271484 C16.9625678,17.3271484 17.3829737,17.2052421 17.6860352,16.9614258 C17.9890966,16.7176095 18.140625,16.3723981 18.140625,15.9257812 C18.140625,15.4335913 18.0004897,15.0781261 17.7202148,14.859375 C17.43994,14.6406239 17.0035837,14.53125 16.4111328,14.53125 L14.7294922,14.53125 L14.7294922,17.3271484 Z M29.8623047,13.1367188 L29.8623047,19.7880859 C29.8623047,20.8453829 29.5239292,21.6827769 28.847168,22.300293 C28.1704068,22.9178091 27.2692114,23.2265625 26.1435547,23.2265625 C25.0042261,23.2265625 24.0996127,22.9223663 23.4296875,22.3139648 C22.7597623,21.7055634 22.4248047,20.8613335 22.4248047,19.78125 L22.4248047,13.1367188 L24.1474609,13.1367188 L24.1474609,19.7949219 C24.1474609,20.4602898 24.316079,20.9684227 24.6533203,21.3193359 C24.9905616,21.6702492 25.4873014,21.8457031 26.1435547,21.8457031 C27.4742905,21.8457031 28.1396484,21.1438872 28.1396484,19.7402344 L28.1396484,13.1367188 L29.8623047,13.1367188 Z M39.6494141,14.53125 L36.5458984,14.53125 L36.5458984,23.0898438 L34.8300781,23.0898438 L34.8300781,14.53125 L31.7539062,14.53125 L31.7539062,13.1367188 L39.6494141,13.1367188 L39.6494141,14.53125 Z M49.0058594,14.53125 L45.9023438,14.53125 L45.9023438,23.0898438 L44.1865234,23.0898438 L44.1865234,14.53125 L41.1103516,14.53125 L41.1103516,13.1367188 L49.0058594,13.1367188 L49.0058594,14.53125 Z M58.8134766,18.3730469 C58.8134766,19.3483122 58.6448585,20.2039351 58.3076172,20.9399414 C57.9703759,21.6759477 57.4884471,22.2410462 56.8618164,22.6352539 C56.2351857,23.0294616 55.5140015,23.2265625 54.6982422,23.2265625 C53.8915975,23.2265625 53.172692,23.0294616 52.5415039,22.6352539 C51.9103159,22.2410462 51.4226905,21.6793656 51.0786133,20.9501953 C50.734536,20.221025 50.5602214,19.3802131 50.5556641,18.4277344 L50.5556641,17.8671875 C50.5556641,16.8964795 50.7277001,16.0397173 51.0717773,15.296875 C51.4158546,14.5540327 51.9012013,13.9855163 52.527832,13.5913086 C53.1544628,13.1971009 53.8733683,13 54.6845703,13 C55.4957723,13 56.2146779,13.1948223 56.8413086,13.5844727 C57.4679393,13.974123 57.9521467,14.5346643 58.2939453,15.2661133 C58.6357439,15.9975623 58.8089192,16.848628 58.8134766,17.8193359 L58.8134766,18.3730469 Z M57.0839844,17.8535156 C57.0839844,16.7506455 56.8754904,15.9052764 56.4584961,15.3173828 C56.0415018,14.7294892 55.4501991,14.4355469 54.6845703,14.4355469 C53.9371707,14.4355469 53.3527039,14.7283499 52.9311523,15.3139648 C52.5096008,15.8995798 52.2942709,16.7278592 52.2851562,17.7988281 L52.2851562,18.3730469 C52.2851562,19.4668023 52.4982075,20.3121715 52.9243164,20.9091797 C53.3504253,21.5061879 53.941728,21.8046875 54.6982422,21.8046875 C55.463871,21.8046875 56.0528951,21.5130238 56.465332,20.9296875 C56.877769,20.3463512 57.0839844,19.4941462 57.0839844,18.3730469 L57.0839844,17.8535156 Z M69.1816406,23.0898438 L67.4521484,23.0898438 L63.015625,16.0283203 L63.015625,23.0898438 L61.2861328,23.0898438 L61.2861328,13.1367188 L63.015625,13.1367188 L67.4658203,20.2255859 L67.4658203,13.1367188 L69.1816406,13.1367188 L69.1816406,23.0898438 Z"/>
            <use stroke="#6FEAD9" stroke-dasharray="1" stroke-width="2" mask="url(#5-f)" xlink:href="#5-c"/>
          </g>
        </g>
      </g>
      <g transform="translate(42 151)">
        <rect width="23" height="23" x=".5" y=".5" stroke="#00AB9A" rx="2"/>
        <path fill="#00AB9A" fill-rule="nonzero" d="M10.4655 14.306L7.1765 14.306 6.5055 16 5.5485 16 8.3095 8.663 9.4095 8.663 12.1045 16 11.0705 16 10.4655 14.306zM10.1795 13.514L8.8375 9.829 7.4515 13.514 10.1795 13.514zM16.8235 11.765L16.8235 10.929 17.6595 10.929 17.6595 16 16.8235 16 16.8235 15.021C16.3175 15.78 15.7455 16.121 14.9755 16.121 13.5785 16.121 12.5885 15.021 12.5885 13.481 12.5885 11.93 13.6005 10.808 14.9975 10.808 15.7675 10.808 16.3285 11.105 16.8235 11.765zM15.1185 11.556C14.5685 11.556 14.1835 11.743 13.8865 12.161 13.6225 12.524 13.4685 13.008 13.4685 13.503 13.4685 14.581 14.1725 15.395 15.0965 15.395 16.0535 15.395 16.8345 14.504 16.8345 13.415 16.8345 12.315 16.1305 11.556 15.1185 11.556zM29 8.132L31.068 8.132C32.564 8.132 33.411 8.836 33.411 10.079 33.411 10.552 33.268 10.97 32.993 11.278 32.817 11.487 32.641 11.597 32.245 11.751 32.652 11.839 32.85 11.916 33.081 12.092 33.477 12.411 33.686 12.906 33.686 13.5 33.686 14.182 33.389 14.776 32.894 15.095 32.465 15.37 31.992 15.469 31.068 15.469L29 15.469 29 8.132zM29.924 8.891L29.924 11.432 30.859 11.421C31.442 11.421 31.794 11.344 32.058 11.135 32.344 10.904 32.509 10.53 32.509 10.123 32.509 9.65 32.278 9.232 31.926 9.067 31.662 8.935 31.354 8.891 30.683 8.891L29.924 8.891zM29.924 12.18L29.924 14.721 30.848 14.721C31.618 14.721 31.915 14.666 32.234 14.479 32.586 14.281 32.762 13.929 32.762 13.445 32.762 12.565 32.245 12.18 31.079 12.18L29.924 12.18zM35.853 8.132L35.853 12.499C35.853 13.434 35.985 13.907 36.337 14.259 36.645 14.556 37.173 14.754 37.635 14.754 38.097 14.754 38.614 14.545 38.933 14.215 39.329 13.83 39.428 13.456 39.428 12.477L39.428 8.132 40.374 8.132 40.374 12.477C40.374 13.577 40.198 14.204 39.725 14.732 39.23 15.293 38.493 15.601 37.657 15.601 36.799 15.601 36.018 15.271 35.523 14.677 35.072 14.16 34.929 13.621 34.929 12.477L34.929 8.132 35.853 8.132zM44.048 8.924L44.048 15.469 43.124 15.469 43.124 8.924 41.254 8.924 41.254 8.132 45.907 8.132 45.907 8.924 44.048 8.924zM48.921 8.924L48.921 15.469 47.997 15.469 47.997 8.924 46.127 8.924 46.127 8.132 50.78 8.132 50.78 8.924 48.921 8.924zM55.004 8C56.027 8 57.006 8.462 57.71 9.265 58.304 9.958 58.568 10.772 58.568 11.872 58.568 13.016 58.128 14.039 57.325 14.721 56.665 15.293 55.829 15.601 54.982 15.601 53.893 15.601 52.826 15.084 52.144 14.226 51.638 13.588 51.374 12.763 51.374 11.839 51.374 9.65 52.925 8 55.004 8zM54.982 8.858C53.453 8.858 52.32 10.112 52.32 11.806 52.32 13.511 53.442 14.754 54.96 14.754 55.697 14.754 56.423 14.435 56.918 13.874 57.347 13.401 57.622 12.609 57.622 11.861 57.622 10.882 57.358 10.167 56.786 9.617 56.302 9.144 55.631 8.858 54.982 8.858zM60.889 9.859L60.889 15.469 59.965 15.469 59.965 8.132 60.812 8.132 64.728 13.654 64.728 8.132 65.652 8.132 65.652 15.469 64.838 15.469 60.889 9.859z"/>
      </g>
      <g transform="translate(280 151)">
        <rect width="23" height="23" x=".5" y=".5" stroke="#00AB9A" rx="2"/>
        <path fill="#00AB9A" fill-rule="nonzero" d="M10.4655 14.306L7.1765 14.306 6.5055 16 5.5485 16 8.3095 8.663 9.4095 8.663 12.1045 16 11.0705 16 10.4655 14.306zM10.1795 13.514L8.8375 9.829 7.4515 13.514 10.1795 13.514zM16.8235 11.765L16.8235 10.929 17.6595 10.929 17.6595 16 16.8235 16 16.8235 15.021C16.3175 15.78 15.7455 16.121 14.9755 16.121 13.5785 16.121 12.5885 15.021 12.5885 13.481 12.5885 11.93 13.6005 10.808 14.9975 10.808 15.7675 10.808 16.3285 11.105 16.8235 11.765zM15.1185 11.556C14.5685 11.556 14.1835 11.743 13.8865 12.161 13.6225 12.524 13.4685 13.008 13.4685 13.503 13.4685 14.581 14.1725 15.395 15.0965 15.395 16.0535 15.395 16.8345 14.504 16.8345 13.415 16.8345 12.315 16.1305 11.556 15.1185 11.556zM29 8.132L31.068 8.132C32.564 8.132 33.411 8.836 33.411 10.079 33.411 10.552 33.268 10.97 32.993 11.278 32.817 11.487 32.641 11.597 32.245 11.751 32.652 11.839 32.85 11.916 33.081 12.092 33.477 12.411 33.686 12.906 33.686 13.5 33.686 14.182 33.389 14.776 32.894 15.095 32.465 15.37 31.992 15.469 31.068 15.469L29 15.469 29 8.132zM29.924 8.891L29.924 11.432 30.859 11.421C31.442 11.421 31.794 11.344 32.058 11.135 32.344 10.904 32.509 10.53 32.509 10.123 32.509 9.65 32.278 9.232 31.926 9.067 31.662 8.935 31.354 8.891 30.683 8.891L29.924 8.891zM29.924 12.18L29.924 14.721 30.848 14.721C31.618 14.721 31.915 14.666 32.234 14.479 32.586 14.281 32.762 13.929 32.762 13.445 32.762 12.565 32.245 12.18 31.079 12.18L29.924 12.18zM35.853 8.132L35.853 12.499C35.853 13.434 35.985 13.907 36.337 14.259 36.645 14.556 37.173 14.754 37.635 14.754 38.097 14.754 38.614 14.545 38.933 14.215 39.329 13.83 39.428 13.456 39.428 12.477L39.428 8.132 40.374 8.132 40.374 12.477C40.374 13.577 40.198 14.204 39.725 14.732 39.23 15.293 38.493 15.601 37.657 15.601 36.799 15.601 36.018 15.271 35.523 14.677 35.072 14.16 34.929 13.621 34.929 12.477L34.929 8.132 35.853 8.132zM44.048 8.924L44.048 15.469 43.124 15.469 43.124 8.924 41.254 8.924 41.254 8.132 45.907 8.132 45.907 8.924 44.048 8.924zM48.921 8.924L48.921 15.469 47.997 15.469 47.997 8.924 46.127 8.924 46.127 8.132 50.78 8.132 50.78 8.924 48.921 8.924zM55.004 8C56.027 8 57.006 8.462 57.71 9.265 58.304 9.958 58.568 10.772 58.568 11.872 58.568 13.016 58.128 14.039 57.325 14.721 56.665 15.293 55.829 15.601 54.982 15.601 53.893 15.601 52.826 15.084 52.144 14.226 51.638 13.588 51.374 12.763 51.374 11.839 51.374 9.65 52.925 8 55.004 8zM54.982 8.858C53.453 8.858 52.32 10.112 52.32 11.806 52.32 13.511 53.442 14.754 54.96 14.754 55.697 14.754 56.423 14.435 56.918 13.874 57.347 13.401 57.622 12.609 57.622 11.861 57.622 10.882 57.358 10.167 56.786 9.617 56.302 9.144 55.631 8.858 54.982 8.858zM60.889 9.859L60.889 15.469 59.965 15.469 59.965 8.132 60.812 8.132 64.728 13.654 64.728 8.132 65.652 8.132 65.652 15.469 64.838 15.469 60.889 9.859z"/>
      </g>
      <g transform="translate(505 151)">
        <rect width="23" height="23" x=".5" y=".5" stroke="#00AB9A" rx="2"/>
        <path fill="#00AB9A" fill-rule="nonzero" d="M10.4655 14.306L7.1765 14.306 6.5055 16 5.5485 16 8.3095 8.663 9.4095 8.663 12.1045 16 11.0705 16 10.4655 14.306zM10.1795 13.514L8.8375 9.829 7.4515 13.514 10.1795 13.514zM16.8235 11.765L16.8235 10.929 17.6595 10.929 17.6595 16 16.8235 16 16.8235 15.021C16.3175 15.78 15.7455 16.121 14.9755 16.121 13.5785 16.121 12.5885 15.021 12.5885 13.481 12.5885 11.93 13.6005 10.808 14.9975 10.808 15.7675 10.808 16.3285 11.105 16.8235 11.765zM15.1185 11.556C14.5685 11.556 14.1835 11.743 13.8865 12.161 13.6225 12.524 13.4685 13.008 13.4685 13.503 13.4685 14.581 14.1725 15.395 15.0965 15.395 16.0535 15.395 16.8345 14.504 16.8345 13.415 16.8345 12.315 16.1305 11.556 15.1185 11.556zM29 8.132L31.068 8.132C32.564 8.132 33.411 8.836 33.411 10.079 33.411 10.552 33.268 10.97 32.993 11.278 32.817 11.487 32.641 11.597 32.245 11.751 32.652 11.839 32.85 11.916 33.081 12.092 33.477 12.411 33.686 12.906 33.686 13.5 33.686 14.182 33.389 14.776 32.894 15.095 32.465 15.37 31.992 15.469 31.068 15.469L29 15.469 29 8.132zM29.924 8.891L29.924 11.432 30.859 11.421C31.442 11.421 31.794 11.344 32.058 11.135 32.344 10.904 32.509 10.53 32.509 10.123 32.509 9.65 32.278 9.232 31.926 9.067 31.662 8.935 31.354 8.891 30.683 8.891L29.924 8.891zM29.924 12.18L29.924 14.721 30.848 14.721C31.618 14.721 31.915 14.666 32.234 14.479 32.586 14.281 32.762 13.929 32.762 13.445 32.762 12.565 32.245 12.18 31.079 12.18L29.924 12.18zM35.853 8.132L35.853 12.499C35.853 13.434 35.985 13.907 36.337 14.259 36.645 14.556 37.173 14.754 37.635 14.754 38.097 14.754 38.614 14.545 38.933 14.215 39.329 13.83 39.428 13.456 39.428 12.477L39.428 8.132 40.374 8.132 40.374 12.477C40.374 13.577 40.198 14.204 39.725 14.732 39.23 15.293 38.493 15.601 37.657 15.601 36.799 15.601 36.018 15.271 35.523 14.677 35.072 14.16 34.929 13.621 34.929 12.477L34.929 8.132 35.853 8.132zM44.048 8.924L44.048 15.469 43.124 15.469 43.124 8.924 41.254 8.924 41.254 8.132 45.907 8.132 45.907 8.924 44.048 8.924zM48.921 8.924L48.921 15.469 47.997 15.469 47.997 8.924 46.127 8.924 46.127 8.132 50.78 8.132 50.78 8.924 48.921 8.924zM55.004 8C56.027 8 57.006 8.462 57.71 9.265 58.304 9.958 58.568 10.772 58.568 11.872 58.568 13.016 58.128 14.039 57.325 14.721 56.665 15.293 55.829 15.601 54.982 15.601 53.893 15.601 52.826 15.084 52.144 14.226 51.638 13.588 51.374 12.763 51.374 11.839 51.374 9.65 52.925 8 55.004 8zM54.982 8.858C53.453 8.858 52.32 10.112 52.32 11.806 52.32 13.511 53.442 14.754 54.96 14.754 55.697 14.754 56.423 14.435 56.918 13.874 57.347 13.401 57.622 12.609 57.622 11.861 57.622 10.882 57.358 10.167 56.786 9.617 56.302 9.144 55.631 8.858 54.982 8.858zM60.889 9.859L60.889 15.469 59.965 15.469 59.965 8.132 60.812 8.132 64.728 13.654 64.728 8.132 65.652 8.132 65.652 15.469 64.838 15.469 60.889 9.859z"/>
      </g>
    </g>
  </g>
</svg>
