<svg xmlns="http://www.w3.org/2000/svg" xmlns:xlink="http://www.w3.org/1999/xlink" width="150" height="150" viewBox="0 0 150 150">
  <defs>
    <path id="1-c" d="M32.0000794,33.9517752 C29.0331055,36.4754568 25.1912775,38 21,38 C11.626,38 4,30.374 4,21 C4,11.626 11.626,4 21,4 C30.374,4 38,11.626 38,21 C38,25.1912775 36.4754568,29.0331055 33.9517752,32.0000794 C34.4792286,31.9874042 35.0107111,32.1827111 35.414,32.586 L41.414,38.586 C42.196,39.368 42.196,40.632 41.414,41.414 C41.024,41.804 40.512,42 40,42 C39.488,42 38.976,41.804 38.586,41.414 L32.586,35.414 C32.1827111,35.0107111 31.9874042,34.4792286 32.0000794,33.9517752 Z M21,8 C13.832,8 8,13.832 8,21 C8,28.168 13.832,34 21,34 C28.168,34 34,28.168 34,21 C34,13.832 28.168,8 21,8 Z"/>
    <rect id="1-a" width="96" height="96"/>
    <mask id="1-d" width="96" height="96" x="0" y="0" fill="#fff">
      <use xlink:href="#1-a"/>
    </mask>
    <rect id="1-b" width="88" height="88"/>
    <mask id="1-e" width="88" height="88" x="0" y="0" fill="#fff">
      <use xlink:href="#1-b"/>
    </mask>
  </defs>
  <g fill="none" fill-rule="evenodd">
    <rect width="150" height="150" fill="#FFF" fill-opacity=".01" fill-rule="nonzero"/>
    <g transform="translate(11 5)">
      <use fill="#157DB9" transform="translate(41 47)" xlink:href="#1-c"/>
      <path fill="#C41261" d="M1,47 L47,47 L47,1 L1,1 L1,47 Z M1,48 L0,48 L0,1 L0,0 L48,0 L48,1 L48,48 L47,48 L1,48 Z" transform="translate(41 47)"/>
      <use fill-rule="nonzero" stroke="#6FEAD9" stroke-dasharray="1" stroke-width="2" mask="url(#1-d)" transform="translate(17 23)" xlink:href="#1-a"/>
      <use fill-rule="nonzero" stroke="#F897BF" stroke-dasharray="1" stroke-width="2" mask="url(#1-e)" transform="translate(21 27)" xlink:href="#1-b"/>
      <path fill="#C41261" d="M42.862 36.929L42.862 42 42.026 42 42.026 36.929 42.862 36.929zM42.455 34.96C42.752 34.96 42.983 35.202 42.983 35.51 42.983 35.807 42.741 36.038 42.444 36.038 42.147 36.038 41.916 35.807 41.916 35.499 41.916 35.191 42.147 34.96 42.455 34.96zM47.977 40.801L48.494 41.373C47.922 41.89 47.361 42.121 46.624 42.121 45.172 42.121 44.138 41.021 44.138 39.481 44.138 37.908 45.183 36.808 46.668 36.808 47.394 36.808 47.988 37.05 48.516 37.567L47.977 38.106C47.592 37.754 47.163 37.578 46.69 37.578 45.689 37.578 44.996 38.348 44.996 39.448 44.996 40.57 45.689 41.351 46.679 41.351 47.174 41.351 47.57 41.186 47.977 40.801zM51.761 36.808C53.257 36.808 54.324 37.919 54.324 39.481 54.324 40.966 53.18 42.121 51.728 42.121 50.221 42.121 49.165 41.021 49.165 39.459 49.165 37.886 50.221 36.808 51.761 36.808zM51.761 37.578C50.716 37.578 50.023 38.337 50.023 39.47 50.023 40.592 50.716 41.351 51.75 41.351 52.751 41.351 53.466 40.57 53.466 39.47 53.466 38.337 52.784 37.578 51.761 37.578zM55.6 36.929L56.436 36.929 56.436 37.644C56.876 37.05 57.316 36.808 57.943 36.808 58.405 36.808 58.823 36.962 59.12 37.226 59.439 37.534 59.549 37.886 59.549 38.579L59.549 42 58.713 42 58.713 38.766C58.713 38.315 58.658 38.073 58.526 37.897 58.372 37.688 58.075 37.556 57.734 37.556 57.36 37.556 57.019 37.699 56.766 37.985 56.524 38.249 56.436 38.491 56.436 38.909L56.436 42 55.6 42 55.6 36.929zM61.628 40.944C61.958 40.944 62.2 41.186 62.2 41.527 62.2 41.846 61.947 42.088 61.628 42.088 61.298 42.088 61.056 41.846 61.056 41.516 61.056 41.186 61.298 40.944 61.628 40.944zM61.628 37.776C61.958 37.776 62.2 38.018 62.2 38.359 62.2 38.678 61.947 38.92 61.628 38.92 61.298 38.92 61.056 38.678 61.056 38.348 61.056 38.018 61.298 37.776 61.628 37.776zM64.906 41.197L67.491 41.197 67.491 42 63.377 42 65.929 38.348C66.666 37.281 66.831 36.951 66.831 36.511 66.831 35.873 66.325 35.422 65.61 35.422 65.115 35.422 64.708 35.653 64.543 36.038 64.455 36.247 64.422 36.412 64.411 36.797L63.586 36.797C63.63 35.4 64.367 34.63 65.676 34.63 66.875 34.63 67.711 35.378 67.711 36.445 67.711 37.061 67.491 37.6 66.875 38.458L64.906 41.197zM71.77 40.35L68.833 40.35 68.833 39.668 72.617 34.564 72.617 39.558 73.475 39.558 73.475 40.35 72.617 40.35 72.617 42 71.77 42 71.77 40.35zM71.77 39.558L71.77 36.753 69.713 39.558 71.77 39.558zM76.357 40.163L75.004 42 73.981 42 75.851 39.481 73.948 36.929 75.004 36.929 76.357 38.788 77.743 36.929 78.766 36.929 76.852 39.481 78.678 42 77.655 42 76.357 40.163zM80.812 41.197L83.397 41.197 83.397 42 79.283 42 81.835 38.348C82.572 37.281 82.737 36.951 82.737 36.511 82.737 35.873 82.231 35.422 81.516 35.422 81.021 35.422 80.614 35.653 80.449 36.038 80.361 36.247 80.328 36.412 80.317 36.797L79.492 36.797C79.536 35.4 80.273 34.63 81.582 34.63 82.781 34.63 83.617 35.378 83.617 36.445 83.617 37.061 83.397 37.6 82.781 38.458L80.812 41.197zM87.676 40.35L84.739 40.35 84.739 39.668 88.523 34.564 88.523 39.558 89.381 39.558 89.381 40.35 88.523 40.35 88.523 42 87.676 42 87.676 40.35zM87.676 39.558L87.676 36.753 85.619 39.558 87.676 39.558zM13.355 132.929L13.355 138 12.519 138 12.519 132.929 13.355 132.929zM12.948 130.96C13.245 130.96 13.476 131.202 13.476 131.51 13.476 131.807 13.234 132.038 12.937 132.038 12.64 132.038 12.409 131.807 12.409 131.499 12.409 131.191 12.64 130.96 12.948 130.96zM18.316 130.531C19.339 130.531 20.318 130.993 21.022 131.796 21.616 132.489 21.88 133.303 21.88 134.403 21.88 135.547 21.44 136.57 20.637 137.252 19.977 137.824 19.141 138.132 18.294 138.132 17.205 138.132 16.138 137.615 15.456 136.757 14.95 136.119 14.686 135.294 14.686 134.37 14.686 132.181 16.237 130.531 18.316 130.531zM18.294 131.389C16.765 131.389 15.632 132.643 15.632 134.337 15.632 136.042 16.754 137.285 18.272 137.285 19.009 137.285 19.735 136.966 20.23 136.405 20.659 135.932 20.934 135.14 20.934 134.392 20.934 133.413 20.67 132.698 20.098 132.148 19.614 131.675 18.943 131.389 18.294 131.389zM22.782 136.031L23.662 136.031C23.706 136.867 24.157 137.307 24.96 137.307 25.785 137.307 26.368 136.801 26.368 136.064 26.368 135.426 26.038 135.129 24.883 134.744 24.014 134.447 23.728 134.304 23.398 134.007 23.024 133.666 22.826 133.182 22.826 132.621 22.826 131.378 23.717 130.531 25.015 130.531 26.313 130.531 27.16 131.356 27.193 132.632L26.269 132.632C26.258 132.258 26.214 132.082 26.093 131.873 25.884 131.554 25.477 131.356 25.004 131.356 24.278 131.356 23.761 131.851 23.761 132.555 23.761 132.907 23.915 133.215 24.179 133.402 24.41 133.567 24.608 133.655 25.356 133.919 26.137 134.194 26.511 134.392 26.808 134.711 27.127 135.052 27.303 135.514 27.303 136.009 27.303 137.274 26.368 138.132 24.993 138.132 24.058 138.132 23.42 137.802 23.035 137.142 22.859 136.845 22.782 136.537 22.782 136.185L22.782 136.031zM32.781 133.666L32.781 136.966C32.792 137.219 32.858 137.274 33.166 137.274L33.551 137.274 33.551 138 32.77 138C32.176 137.989 31.945 137.769 31.945 137.208L31.945 133.666 31.241 133.666 31.241 132.929 31.945 132.929 31.945 131.334 32.781 131.334 32.781 132.929 33.551 132.929 33.551 133.666 32.781 133.666zM38.567 133.765L38.567 132.929 39.403 132.929 39.403 138 38.567 138 38.567 137.021C38.061 137.78 37.489 138.121 36.719 138.121 35.322 138.121 34.332 137.021 34.332 135.481 34.332 133.93 35.344 132.808 36.741 132.808 37.511 132.808 38.072 133.105 38.567 133.765zM36.862 133.556C36.312 133.556 35.927 133.743 35.63 134.161 35.366 134.524 35.212 135.008 35.212 135.503 35.212 136.581 35.916 137.395 36.84 137.395 37.797 137.395 38.578 136.504 38.578 135.415 38.578 134.315 37.874 133.556 36.862 133.556zM41.086 132.929L41.922 132.929 41.922 133.853C42.406 133.105 42.923 132.808 43.77 132.808 45.178 132.808 46.157 133.886 46.157 135.426 46.157 137.021 45.178 138.121 43.77 138.121 43.374 138.121 43.011 138.033 42.659 137.857 42.351 137.703 42.197 137.571 41.922 137.208L41.922 140.376 41.086 140.376 41.086 132.929zM43.627 133.556C42.615 133.556 41.922 134.359 41.922 135.547 41.922 136.658 42.593 137.395 43.594 137.395 44.595 137.395 45.266 136.614 45.266 135.459 45.266 134.865 45.123 134.414 44.826 134.084 44.529 133.754 44.078 133.556 43.627 133.556zM51.613 133.666L51.613 136.966C51.624 137.219 51.69 137.274 51.998 137.274L52.383 137.274 52.383 138 51.602 138C51.008 137.989 50.777 137.769 50.777 137.208L50.777 133.666 50.073 133.666 50.073 132.929 50.777 132.929 50.777 131.334 51.613 131.334 51.613 132.929 52.383 132.929 52.383 133.666 51.613 133.666zM57.399 133.765L57.399 132.929 58.235 132.929 58.235 138 57.399 138 57.399 137.021C56.893 137.78 56.321 138.121 55.551 138.121 54.154 138.121 53.164 137.021 53.164 135.481 53.164 133.93 54.176 132.808 55.573 132.808 56.343 132.808 56.904 133.105 57.399 133.765zM55.694 133.556C55.144 133.556 54.759 133.743 54.462 134.161 54.198 134.524 54.044 135.008 54.044 135.503 54.044 136.581 54.748 137.395 55.672 137.395 56.629 137.395 57.41 136.504 57.41 135.415 57.41 134.315 56.706 133.556 55.694 133.556zM59.918 132.929L60.754 132.929 60.754 133.787C60.908 133.424 61.018 133.27 61.216 133.116 61.469 132.918 61.821 132.808 62.184 132.808L62.382 132.808 62.382 133.655C62.294 133.644 62.206 133.644 62.151 133.644 61.7 133.644 61.304 133.853 61.051 134.227 60.831 134.546 60.754 134.843 60.754 135.426L60.754 138 59.918 138 59.918 132.929zM67.167 133.798L67.167 132.929 68.003 132.929 68.003 138.033C68.003 138.88 67.794 139.452 67.332 139.892 66.881 140.332 66.232 140.563 65.462 140.563 64.516 140.563 63.768 140.255 63.218 139.639L63.79 139.067C64.021 139.309 64.131 139.408 64.274 139.507 64.56 139.683 65.033 139.804 65.462 139.804 65.99 139.804 66.496 139.617 66.782 139.309 67.035 139.034 67.167 138.627 67.167 138.099L67.167 137.032C66.672 137.78 66.089 138.121 65.297 138.121 63.955 138.121 62.954 136.988 62.954 135.481 62.954 134.667 63.251 133.886 63.757 133.402 64.164 133.006 64.714 132.808 65.363 132.808 66.133 132.808 66.65 133.094 67.167 133.798zM65.517 133.578C64.527 133.578 63.834 134.348 63.834 135.448 63.834 136.537 64.538 137.351 65.495 137.351 65.979 137.351 66.452 137.12 66.782 136.735 67.002 136.482 67.145 135.987 67.145 135.481 67.145 134.821 67.046 134.469 66.749 134.139 66.441 133.798 65.968 133.578 65.517 133.578zM74.394 135.734L70.17 135.734C70.214 136.163 70.291 136.383 70.5 136.658 70.83 137.109 71.314 137.351 71.864 137.351 72.491 137.351 73.085 137.01 73.382 136.482L74.119 136.757C73.701 137.604 72.832 138.121 71.864 138.121 70.357 138.121 69.279 137.021 69.279 135.481 69.279 133.919 70.346 132.808 71.831 132.808 73.305 132.808 74.405 133.919 74.405 135.404 74.405 135.47 74.405 135.613 74.394 135.734zM70.181 135.118L73.514 135.118C73.481 134.722 73.404 134.502 73.228 134.249 72.909 133.82 72.392 133.556 71.831 133.556 71.27 133.556 70.764 133.82 70.467 134.26 70.313 134.502 70.247 134.711 70.181 135.118zM76.506 133.666L76.506 136.966C76.517 137.219 76.583 137.274 76.891 137.274L77.276 137.274 77.276 138 76.495 138C75.901 137.989 75.67 137.769 75.67 137.208L75.67 133.666 74.966 133.666 74.966 132.929 75.67 132.929 75.67 131.334 76.506 131.334 76.506 132.929 77.276 132.929 77.276 133.666 76.506 133.666zM78.893 136.944C79.223 136.944 79.465 137.186 79.465 137.527 79.465 137.846 79.212 138.088 78.893 138.088 78.563 138.088 78.321 137.846 78.321 137.516 78.321 137.186 78.563 136.944 78.893 136.944zM78.893 133.776C79.223 133.776 79.465 134.018 79.465 134.359 79.465 134.678 79.212 134.92 78.893 134.92 78.563 134.92 78.321 134.678 78.321 134.348 78.321 134.018 78.563 133.776 78.893 133.776zM83.535 136.35L80.598 136.35 80.598 135.668 84.382 130.564 84.382 135.558 85.24 135.558 85.24 136.35 84.382 136.35 84.382 138 83.535 138 83.535 136.35zM83.535 135.558L83.535 132.753 81.478 135.558 83.535 135.558zM89.035 136.35L86.098 136.35 86.098 135.668 89.882 130.564 89.882 135.558 90.74 135.558 90.74 136.35 89.882 136.35 89.882 138 89.035 138 89.035 136.35zM89.035 135.558L89.035 132.753 86.978 135.558 89.035 135.558zM93.622 136.163L92.269 138 91.246 138 93.116 135.481 91.213 132.929 92.269 132.929 93.622 134.788 95.008 132.929 96.031 132.929 94.117 135.481 95.943 138 94.92 138 93.622 136.163zM99.441 136.35L96.504 136.35 96.504 135.668 100.288 130.564 100.288 135.558 101.146 135.558 101.146 136.35 100.288 136.35 100.288 138 99.441 138 99.441 136.35zM99.441 135.558L99.441 132.753 97.384 135.558 99.441 135.558zM104.941 136.35L102.004 136.35 102.004 135.668 105.788 130.564 105.788 135.558 106.646 135.558 106.646 136.35 105.788 136.35 105.788 138 104.941 138 104.941 136.35zM104.941 135.558L104.941 132.753 102.884 135.558 104.941 135.558zM107.911 132.929L108.747 132.929 108.747 133.853C109.231 133.105 109.748 132.808 110.595 132.808 112.003 132.808 112.982 133.886 112.982 135.426 112.982 137.021 112.003 138.121 110.595 138.121 110.199 138.121 109.836 138.033 109.484 137.857 109.176 137.703 109.022 137.571 108.747 137.208L108.747 140.376 107.911 140.376 107.911 132.929zM110.452 133.556C109.44 133.556 108.747 134.359 108.747 135.547 108.747 136.658 109.418 137.395 110.419 137.395 111.42 137.395 112.091 136.614 112.091 135.459 112.091 134.865 111.948 134.414 111.651 134.084 111.354 133.754 110.903 133.556 110.452 133.556zM115.864 136.163L114.511 138 113.488 138 115.358 135.481 113.455 132.929 114.511 132.929 115.864 134.788 117.25 132.929 118.273 132.929 116.359 135.481 118.185 138 117.162 138 115.864 136.163z"/>
      <path fill="#00AB9A" d="M5.0175,6.306 L1.7285,6.306 L1.0575,8 L0.1005,8 L2.8615,0.663 L3.9615,0.663 L6.6565,8 L5.6225,8 L5.0175,6.306 Z M4.7315,5.514 L3.3895,1.829 L2.0035,5.514 L4.7315,5.514 Z M7.5475,2.929 L8.3835,2.929 L8.3835,3.644 C8.8235,3.05 9.2635,2.808 9.8905,2.808 C10.3525,2.808 10.7705,2.962 11.0675,3.226 C11.3865,3.534 11.4965,3.886 11.4965,4.579 L11.4965,8 L10.6605,8 L10.6605,4.766 C10.6605,4.315 10.6055,4.073 10.4735,3.897 C10.3195,3.688 10.0225,3.556 9.6815,3.556 C9.3075,3.556 8.9665,3.699 8.7135,3.985 C8.4715,4.249 8.3835,4.491 8.3835,4.909 L8.3835,8 L7.5475,8 L7.5475,2.929 Z M16.9415,3.699 L16.9415,0.663 L17.7775,0.663 L17.7775,8 L16.9415,8 L16.9415,7.131 C16.4355,7.824 15.8965,8.121 15.1265,8.121 C13.7295,8.121 12.7395,7.032 12.7395,5.492 C12.7395,3.952 13.7515,2.808 15.1265,2.808 C15.8745,2.808 16.4465,3.083 16.9415,3.699 Z M15.3025,3.556 C14.3015,3.556 13.6195,4.348 13.6195,5.503 C13.6195,6.614 14.2905,7.395 15.2475,7.395 C16.2265,7.395 16.9415,6.581 16.9415,5.481 C16.9415,4.337 16.2705,3.556 15.3025,3.556 Z M19.4605,2.929 L20.2965,2.929 L20.2965,3.787 C20.4505,3.424 20.5605,3.27 20.7585,3.116 C21.0115,2.918 21.3635,2.808 21.7265,2.808 L21.9245,2.808 L21.9245,3.655 C21.8365,3.644 21.7485,3.644 21.6935,3.644 C21.2425,3.644 20.8465,3.853 20.5935,4.227 C20.3735,4.546 20.2965,4.843 20.2965,5.426 L20.2965,8 L19.4605,8 L19.4605,2.929 Z M25.1475,2.808 C26.6435,2.808 27.7105,3.919 27.7105,5.481 C27.7105,6.966 26.5665,8.121 25.1145,8.121 C23.6075,8.121 22.5515,7.021 22.5515,5.459 C22.5515,3.886 23.6075,2.808 25.1475,2.808 Z M25.1475,3.578 C24.1025,3.578 23.4095,4.337 23.4095,5.47 C23.4095,6.592 24.1025,7.351 25.1365,7.351 C26.1375,7.351 26.8525,6.57 26.8525,5.47 C26.8525,4.337 26.1705,3.578 25.1475,3.578 Z M29.8225,2.929 L29.8225,8 L28.9865,8 L28.9865,2.929 L29.8225,2.929 Z M29.4155,0.96 C29.7125,0.96 29.9435,1.202 29.9435,1.51 C29.9435,1.807 29.7015,2.038 29.4045,2.038 C29.1075,2.038 28.8765,1.807 28.8765,1.499 C28.8765,1.191 29.1075,0.96 29.4155,0.96 Z M35.3005,3.699 L35.3005,0.663 L36.1365,0.663 L36.1365,8 L35.3005,8 L35.3005,7.131 C34.7945,7.824 34.2555,8.121 33.4855,8.121 C32.0885,8.121 31.0985,7.032 31.0985,5.492 C31.0985,3.952 32.1105,2.808 33.4855,2.808 C34.2335,2.808 34.8055,3.083 35.3005,3.699 Z M33.6615,3.556 C32.6605,3.556 31.9785,4.348 31.9785,5.503 C31.9785,6.614 32.6495,7.395 33.6065,7.395 C34.5855,7.395 35.3005,6.581 35.3005,5.481 C35.3005,4.337 34.6295,3.556 33.6615,3.556 Z M42.0105,3.666 L42.0105,6.966 C42.0215,7.219 42.0875,7.274 42.3955,7.274 L42.7805,7.274 L42.7805,8 L41.9995,8 C41.4055,7.989 41.1745,7.769 41.1745,7.208 L41.1745,3.666 L40.4705,3.666 L40.4705,2.929 L41.1745,2.929 L41.1745,1.334 L42.0105,1.334 L42.0105,2.929 L42.7805,2.929 L42.7805,3.666 L42.0105,3.666 Z M47.7965,3.765 L47.7965,2.929 L48.6325,2.929 L48.6325,8 L47.7965,8 L47.7965,7.021 C47.2905,7.78 46.7185,8.121 45.9485,8.121 C44.5515,8.121 43.5615,7.021 43.5615,5.481 C43.5615,3.93 44.5735,2.808 45.9705,2.808 C46.7405,2.808 47.3015,3.105 47.7965,3.765 Z M46.0915,3.556 C45.5415,3.556 45.1565,3.743 44.8595,4.161 C44.5955,4.524 44.4415,5.008 44.4415,5.503 C44.4415,6.581 45.1455,7.395 46.0695,7.395 C47.0265,7.395 47.8075,6.504 47.8075,5.415 C47.8075,4.315 47.1035,3.556 46.0915,3.556 Z M50.3155,2.929 L51.1515,2.929 L51.1515,3.853 C51.6355,3.105 52.1525,2.808 52.9995,2.808 C54.4075,2.808 55.3865,3.886 55.3865,5.426 C55.3865,7.021 54.4075,8.121 52.9995,8.121 C52.6035,8.121 52.2405,8.033 51.8885,7.857 C51.5805,7.703 51.4265,7.571 51.1515,7.208 L51.1515,10.376 L50.3155,10.376 L50.3155,2.929 Z M52.8565,3.556 C51.8445,3.556 51.1515,4.359 51.1515,5.547 C51.1515,6.658 51.8225,7.395 52.8235,7.395 C53.8245,7.395 54.4955,6.614 54.4955,5.459 C54.4955,4.865 54.3525,4.414 54.0555,4.084 C53.7585,3.754 53.3075,3.556 52.8565,3.556 Z M60.8425,3.666 L60.8425,6.966 C60.8535,7.219 60.9195,7.274 61.2275,7.274 L61.6125,7.274 L61.6125,8 L60.8315,8 C60.2375,7.989 60.0065,7.769 60.0065,7.208 L60.0065,3.666 L59.3025,3.666 L59.3025,2.929 L60.0065,2.929 L60.0065,1.334 L60.8425,1.334 L60.8425,2.929 L61.6125,2.929 L61.6125,3.666 L60.8425,3.666 Z M66.6285,3.765 L66.6285,2.929 L67.4645,2.929 L67.4645,8 L66.6285,8 L66.6285,7.021 C66.1225,7.78 65.5505,8.121 64.7805,8.121 C63.3835,8.121 62.3935,7.021 62.3935,5.481 C62.3935,3.93 63.4055,2.808 64.8025,2.808 C65.5725,2.808 66.1335,3.105 66.6285,3.765 Z M64.9235,3.556 C64.3735,3.556 63.9885,3.743 63.6915,4.161 C63.4275,4.524 63.2735,5.008 63.2735,5.503 C63.2735,6.581 63.9775,7.395 64.9015,7.395 C65.8585,7.395 66.6395,6.504 66.6395,5.415 C66.6395,4.315 65.9355,3.556 64.9235,3.556 Z M69.1475,2.929 L69.9835,2.929 L69.9835,3.787 C70.1375,3.424 70.2475,3.27 70.4455,3.116 C70.6985,2.918 71.0505,2.808 71.4135,2.808 L71.6115,2.808 L71.6115,3.655 C71.5235,3.644 71.4355,3.644 71.3805,3.644 C70.9295,3.644 70.5335,3.853 70.2805,4.227 C70.0605,4.546 69.9835,4.843 69.9835,5.426 L69.9835,8 L69.1475,8 L69.1475,2.929 Z M76.3965,3.798 L76.3965,2.929 L77.2325,2.929 L77.2325,8.033 C77.2325,8.88 77.0235,9.452 76.5615,9.892 C76.1105,10.332 75.4615,10.563 74.6915,10.563 C73.7455,10.563 72.9975,10.255 72.4475,9.639 L73.0195,9.067 C73.2505,9.309 73.3605,9.408 73.5035,9.507 C73.7895,9.683 74.2625,9.804 74.6915,9.804 C75.2195,9.804 75.7255,9.617 76.0115,9.309 C76.2645,9.034 76.3965,8.627 76.3965,8.099 L76.3965,7.032 C75.9015,7.78 75.3185,8.121 74.5265,8.121 C73.1845,8.121 72.1835,6.988 72.1835,5.481 C72.1835,4.667 72.4805,3.886 72.9865,3.402 C73.3935,3.006 73.9435,2.808 74.5925,2.808 C75.3625,2.808 75.8795,3.094 76.3965,3.798 Z M74.7465,3.578 C73.7565,3.578 73.0635,4.348 73.0635,5.448 C73.0635,6.537 73.7675,7.351 74.7245,7.351 C75.2085,7.351 75.6815,7.12 76.0115,6.735 C76.2315,6.482 76.3745,5.987 76.3745,5.481 C76.3745,4.821 76.2755,4.469 75.9785,4.139 C75.6705,3.798 75.1975,3.578 74.7465,3.578 Z M83.6235,5.734 L79.3995,5.734 C79.4435,6.163 79.5205,6.383 79.7295,6.658 C80.0595,7.109 80.5435,7.351 81.0935,7.351 C81.7205,7.351 82.3145,7.01 82.6115,6.482 L83.3485,6.757 C82.9305,7.604 82.0615,8.121 81.0935,8.121 C79.5865,8.121 78.5085,7.021 78.5085,5.481 C78.5085,3.919 79.5755,2.808 81.0605,2.808 C82.5345,2.808 83.6345,3.919 83.6345,5.404 C83.6345,5.47 83.6345,5.613 83.6235,5.734 Z M79.4105,5.118 L82.7435,5.118 C82.7105,4.722 82.6335,4.502 82.4575,4.249 C82.1385,3.82 81.6215,3.556 81.0605,3.556 C80.4995,3.556 79.9935,3.82 79.6965,4.26 C79.5425,4.502 79.4765,4.711 79.4105,5.118 Z M85.7355,3.666 L85.7355,6.966 C85.7465,7.219 85.8125,7.274 86.1205,7.274 L86.5055,7.274 L86.5055,8 L85.7245,8 C85.1305,7.989 84.8995,7.769 84.8995,7.208 L84.8995,3.666 L84.1955,3.666 L84.1955,2.929 L84.8995,2.929 L84.8995,1.334 L85.7355,1.334 L85.7355,2.929 L86.5055,2.929 L86.5055,3.666 L85.7355,3.666 Z M88.1225,6.944 C88.4525,6.944 88.6945,7.186 88.6945,7.527 C88.6945,7.846 88.4415,8.088 88.1225,8.088 C87.7925,8.088 87.5505,7.846 87.5505,7.516 C87.5505,7.186 87.7925,6.944 88.1225,6.944 Z M88.1225,3.776 C88.4525,3.776 88.6945,4.018 88.6945,4.359 C88.6945,4.678 88.4415,4.92 88.1225,4.92 C87.7925,4.92 87.5505,4.678 87.5505,4.348 C87.5505,4.018 87.7925,3.776 88.1225,3.776 Z M92.7645,6.35 L89.8275,6.35 L89.8275,5.668 L93.6115,0.564 L93.6115,5.558 L94.4695,5.558 L94.4695,6.35 L93.6115,6.35 L93.6115,8 L92.7645,8 L92.7645,6.35 Z M92.7645,5.558 L92.7645,2.753 L90.7075,5.558 L92.7645,5.558 Z M98.5285,4.018 C98.9465,4.15 99.1445,4.249 99.3755,4.491 C99.7385,4.854 99.9255,5.338 99.9255,5.91 C99.9255,7.208 98.9685,8.132 97.6265,8.132 C96.2955,8.132 95.3605,7.241 95.3605,5.987 C95.3605,5.404 95.5585,4.876 95.9105,4.513 C96.1415,4.271 96.3285,4.161 96.7685,4.018 C96.3835,3.886 96.2185,3.776 96.0205,3.534 C95.7785,3.237 95.6465,2.863 95.6465,2.456 C95.6465,1.411 96.5045,0.641 97.6705,0.641 C98.8255,0.641 99.6615,1.4 99.6615,2.445 C99.6615,2.863 99.5185,3.259 99.2545,3.567 C99.0565,3.787 98.9025,3.886 98.5285,4.018 Z M97.6705,1.411 C96.9665,1.411 96.4825,1.851 96.4825,2.467 C96.4825,3.094 96.9995,3.589 97.6485,3.589 C98.2755,3.589 98.8365,3.072 98.8365,2.478 C98.8365,1.906 98.2975,1.411 97.6705,1.411 Z M97.6595,4.48 C96.8675,4.48 96.2295,5.107 96.2295,5.899 C96.2295,6.68 96.8565,7.318 97.6375,7.318 C98.4185,7.318 99.0455,6.68 99.0455,5.899 C99.0455,5.129 98.4185,4.48 97.6595,4.48 Z M102.8515,6.163 L101.4985,8 L100.4755,8 L102.3455,5.481 L100.4425,2.929 L101.4985,2.929 L102.8515,4.788 L104.2375,2.929 L105.2605,2.929 L103.3465,5.481 L105.1725,8 L104.1495,8 L102.8515,6.163 Z M108.6705,6.35 L105.7335,6.35 L105.7335,5.668 L109.5175,0.564 L109.5175,5.558 L110.3755,5.558 L110.3755,6.35 L109.5175,6.35 L109.5175,8 L108.6705,8 L108.6705,6.35 Z M108.6705,5.558 L108.6705,2.753 L106.6135,5.558 L108.6705,5.558 Z M114.4345,4.018 C114.8525,4.15 115.0505,4.249 115.2815,4.491 C115.6445,4.854 115.8315,5.338 115.8315,5.91 C115.8315,7.208 114.8745,8.132 113.5325,8.132 C112.2015,8.132 111.2665,7.241 111.2665,5.987 C111.2665,5.404 111.4645,4.876 111.8165,4.513 C112.0475,4.271 112.2345,4.161 112.6745,4.018 C112.2895,3.886 112.1245,3.776 111.9265,3.534 C111.6845,3.237 111.5525,2.863 111.5525,2.456 C111.5525,1.411 112.4105,0.641 113.5765,0.641 C114.7315,0.641 115.5675,1.4 115.5675,2.445 C115.5675,2.863 115.4245,3.259 115.1605,3.567 C114.9625,3.787 114.8085,3.886 114.4345,4.018 Z M113.5765,1.411 C112.8725,1.411 112.3885,1.851 112.3885,2.467 C112.3885,3.094 112.9055,3.589 113.5545,3.589 C114.1815,3.589 114.7425,3.072 114.7425,2.478 C114.7425,1.906 114.2035,1.411 113.5765,1.411 Z M113.5655,4.48 C112.7735,4.48 112.1355,5.107 112.1355,5.899 C112.1355,6.68 112.7625,7.318 113.5435,7.318 C114.3245,7.318 114.9515,6.68 114.9515,5.899 C114.9515,5.129 114.3245,4.48 113.5655,4.48 Z M120.9355,3.699 L120.9355,0.663 L121.7715,0.663 L121.7715,8 L120.9355,8 L120.9355,7.131 C120.4295,7.824 119.8905,8.121 119.1205,8.121 C117.7235,8.121 116.7335,7.032 116.7335,5.492 C116.7335,3.952 117.7455,2.808 119.1205,2.808 C119.8685,2.808 120.4405,3.083 120.9355,3.699 Z M119.2965,3.556 C118.2955,3.556 117.6135,4.348 117.6135,5.503 C117.6135,6.614 118.2845,7.395 119.2415,7.395 C120.2205,7.395 120.9355,6.581 120.9355,5.481 C120.9355,4.337 120.2645,3.556 119.2965,3.556 Z M123.4545,2.929 L124.2905,2.929 L124.2905,3.853 C124.7745,3.105 125.2915,2.808 126.1385,2.808 C127.5465,2.808 128.5255,3.886 128.5255,5.426 C128.5255,7.021 127.5465,8.121 126.1385,8.121 C125.7425,8.121 125.3795,8.033 125.0275,7.857 C124.7195,7.703 124.5655,7.571 124.2905,7.208 L124.2905,10.376 L123.4545,10.376 L123.4545,2.929 Z M125.9955,3.556 C124.9835,3.556 124.2905,4.359 124.2905,5.547 C124.2905,6.658 124.9615,7.395 125.9625,7.395 C126.9635,7.395 127.6345,6.614 127.6345,5.459 C127.6345,4.865 127.4915,4.414 127.1945,4.084 C126.8975,3.754 126.4465,3.556 125.9955,3.556 Z"/>
      <g fill="#C41261" transform="translate(21 114)">
        <rect width="1" height="9"/>
        <rect width="1" height="9" x="87"/>
        <rect width="86" height="1" x="1" y="4"/>
      </g>
      <g fill="#00AB9A" transform="translate(17 15)">
        <rect width="1" height="9"/>
        <rect width="1" height="9" x="95"/>
        <rect width="94" height="1" x="1" y="4"/>
      </g>
    </g>
  </g>
</svg>
