<svg xmlns="http://www.w3.org/2000/svg" xmlns:xlink="http://www.w3.org/1999/xlink" width="180" height="180" viewBox="0 0 180 180">
  <defs>
    <path id="2-c" d="M32.0000794,33.9517752 C29.0331055,36.4754568 25.1912775,38 21,38 C11.626,38 4,30.374 4,21 C4,11.626 11.626,4 21,4 C30.374,4 38,11.626 38,21 C38,25.1912775 36.4754568,29.0331055 33.9517752,32.0000794 C34.4792286,31.9874042 35.0107111,32.1827111 35.414,32.586 L41.414,38.586 C42.196,39.368 42.196,40.632 41.414,41.414 C41.024,41.804 40.512,42 40,42 C39.488,42 38.976,41.804 38.586,41.414 L32.586,35.414 C32.1827111,35.0107111 31.9874042,34.4792286 32.0000794,33.9517752 Z M21,8 C13.832,8 8,13.832 8,21 C8,28.168 13.832,34 21,34 C28.168,34 34,28.168 34,21 C34,13.832 28.168,8 21,8 Z"/>
    <rect id="2-a" width="96" height="96"/>
    <mask id="2-d" width="96" height="96" x="0" y="0" fill="#fff">
      <use xlink:href="#2-a"/>
    </mask>
    <path id="2-e" d="M25.7996,21.7988 L25.7996,6.0008 C25.7996,4.8948 24.9036,4.0008 23.7996,4.0008 C22.6936,4.0008 21.7996,4.8948 21.7996,6.0008 L21.7996,21.7988 L5.9996,21.7988 C4.8956,21.7988 3.9996,22.6948 3.9996,23.7988 C3.9996,24.9028 4.8956,25.7988 5.9996,25.7988 L21.7996,25.7988 L21.7996,42 C21.7996,43.106 22.6936,44 23.7996,44 C24.9036,44 25.7996,43.106 25.7996,42 L25.7996,25.7988 L42,25.7988 C43.104,25.7988 44,24.9028 44,23.7988 C44,22.6948 43.104,21.7988 42,21.7988 L25.7996,21.7988 Z"/>
    <rect id="2-b" width="96" height="96"/>
    <mask id="2-f" width="96" height="96" x="0" y="0" fill="#fff">
      <use xlink:href="#2-b"/>
    </mask>
  </defs>
  <g fill="none" fill-rule="evenodd">
    <rect width="180" height="180" fill="#FFF" fill-opacity=".01" fill-rule="nonzero"/>
    <g transform="translate(-14 31)">
      <path fill="#00AB9A" d="M54.263,1.929 L55.099,1.929 L55.099,2.633 C55.484,2.05 55.913,1.808 56.54,1.808 C57.233,1.808 57.673,2.105 57.904,2.732 C58.278,2.083 58.751,1.808 59.51,1.808 C60.093,1.808 60.533,1.995 60.797,2.347 C61.039,2.666 61.105,2.952 61.105,3.755 L61.105,7 L60.269,7 L60.269,3.953 C60.269,3.337 60.247,3.194 60.126,2.985 C59.972,2.721 59.642,2.556 59.246,2.556 C58.509,2.556 58.102,3.051 58.102,3.953 L58.102,7 L57.266,7 L57.266,3.964 C57.266,3.469 57.222,3.216 57.101,2.996 C56.958,2.71 56.65,2.556 56.276,2.556 C55.539,2.556 55.099,3.084 55.099,3.964 L55.099,7 L54.263,7 L54.263,1.929 Z M63.591,1.929 L63.591,7 L62.755,7 L62.755,1.929 L63.591,1.929 Z M63.184,-0.04 C63.481,-0.04 63.712,0.202 63.712,0.51 C63.712,0.807 63.47,1.038 63.173,1.038 C62.876,1.038 62.645,0.807 62.645,0.499 C62.645,0.191 62.876,-0.04 63.184,-0.04 Z M65.274,1.929 L66.11,1.929 L66.11,2.644 C66.55,2.05 66.99,1.808 67.617,1.808 C68.079,1.808 68.497,1.962 68.794,2.226 C69.113,2.534 69.223,2.886 69.223,3.579 L69.223,7 L68.387,7 L68.387,3.766 C68.387,3.315 68.332,3.073 68.2,2.897 C68.046,2.688 67.749,2.556 67.408,2.556 C67.034,2.556 66.693,2.699 66.44,2.985 C66.198,3.249 66.11,3.491 66.11,3.909 L66.11,7 L65.274,7 L65.274,1.929 Z M74.173,1.929 L75.009,1.929 L75.009,2.853 C75.493,2.105 76.01,1.808 76.857,1.808 C78.265,1.808 79.244,2.886 79.244,4.426 C79.244,6.021 78.265,7.121 76.857,7.121 C76.461,7.121 76.098,7.033 75.746,6.857 C75.438,6.703 75.284,6.571 75.009,6.208 L75.009,9.376 L74.173,9.376 L74.173,1.929 Z M76.714,2.556 C75.702,2.556 75.009,3.359 75.009,4.547 C75.009,5.658 75.68,6.395 76.681,6.395 C77.682,6.395 78.353,5.614 78.353,4.459 C78.353,3.865 78.21,3.414 77.913,3.084 C77.616,2.754 77.165,2.556 76.714,2.556 Z M84.337,2.765 L84.337,1.929 L85.173,1.929 L85.173,7 L84.337,7 L84.337,6.021 C83.831,6.78 83.259,7.121 82.489,7.121 C81.092,7.121 80.102,6.021 80.102,4.481 C80.102,2.93 81.114,1.808 82.511,1.808 C83.281,1.808 83.842,2.105 84.337,2.765 Z M82.632,2.556 C82.082,2.556 81.697,2.743 81.4,3.161 C81.136,3.524 80.982,4.008 80.982,4.503 C80.982,5.581 81.686,6.395 82.61,6.395 C83.567,6.395 84.348,5.504 84.348,4.415 C84.348,3.315 83.644,2.556 82.632,2.556 Z M90.651,2.699 L90.651,-0.337 L91.487,-0.337 L91.487,7 L90.651,7 L90.651,6.131 C90.145,6.824 89.606,7.121 88.836,7.121 C87.439,7.121 86.449,6.032 86.449,4.492 C86.449,2.952 87.461,1.808 88.836,1.808 C89.584,1.808 90.156,2.083 90.651,2.699 Z M89.012,2.556 C88.011,2.556 87.329,3.348 87.329,4.503 C87.329,5.614 88,6.395 88.957,6.395 C89.936,6.395 90.651,5.581 90.651,4.481 C90.651,3.337 89.98,2.556 89.012,2.556 Z M96.965,2.699 L96.965,-0.337 L97.801,-0.337 L97.801,7 L96.965,7 L96.965,6.131 C96.459,6.824 95.92,7.121 95.15,7.121 C93.753,7.121 92.763,6.032 92.763,4.492 C92.763,2.952 93.775,1.808 95.15,1.808 C95.898,1.808 96.47,2.083 96.965,2.699 Z M95.326,2.556 C94.325,2.556 93.643,3.348 93.643,4.503 C93.643,5.614 94.314,6.395 95.271,6.395 C96.25,6.395 96.965,5.581 96.965,4.481 C96.965,3.337 96.294,2.556 95.326,2.556 Z M100.32,1.929 L100.32,7 L99.484,7 L99.484,1.929 L100.32,1.929 Z M99.913,-0.04 C100.21,-0.04 100.441,0.202 100.441,0.51 C100.441,0.807 100.199,1.038 99.902,1.038 C99.605,1.038 99.374,0.807 99.374,0.499 C99.374,0.191 99.605,-0.04 99.913,-0.04 Z M102.003,1.929 L102.839,1.929 L102.839,2.644 C103.279,2.05 103.719,1.808 104.346,1.808 C104.808,1.808 105.226,1.962 105.523,2.226 C105.842,2.534 105.952,2.886 105.952,3.579 L105.952,7 L105.116,7 L105.116,3.766 C105.116,3.315 105.061,3.073 104.929,2.897 C104.775,2.688 104.478,2.556 104.137,2.556 C103.763,2.556 103.422,2.699 103.169,2.985 C102.927,3.249 102.839,3.491 102.839,3.909 L102.839,7 L102.003,7 L102.003,1.929 Z M111.353,2.798 L111.353,1.929 L112.189,1.929 L112.189,7.033 C112.189,7.88 111.98,8.452 111.518,8.892 C111.067,9.332 110.418,9.563 109.648,9.563 C108.702,9.563 107.954,9.255 107.404,8.639 L107.976,8.067 C108.207,8.309 108.317,8.408 108.46,8.507 C108.746,8.683 109.219,8.804 109.648,8.804 C110.176,8.804 110.682,8.617 110.968,8.309 C111.221,8.034 111.353,7.627 111.353,7.099 L111.353,6.032 C110.858,6.78 110.275,7.121 109.483,7.121 C108.141,7.121 107.14,5.988 107.14,4.481 C107.14,3.667 107.437,2.886 107.943,2.402 C108.35,2.006 108.9,1.808 109.549,1.808 C110.319,1.808 110.836,2.094 111.353,2.798 Z M109.703,2.578 C108.713,2.578 108.02,3.348 108.02,4.448 C108.02,5.537 108.724,6.351 109.681,6.351 C110.165,6.351 110.638,6.12 110.968,5.735 C111.188,5.482 111.331,4.987 111.331,4.481 C111.331,3.821 111.232,3.469 110.935,3.139 C110.627,2.798 110.154,2.578 109.703,2.578 Z M119.966,3.018 C120.384,3.15 120.582,3.249 120.813,3.491 C121.176,3.854 121.363,4.338 121.363,4.91 C121.363,6.208 120.406,7.132 119.064,7.132 C117.733,7.132 116.798,6.241 116.798,4.987 C116.798,4.404 116.996,3.876 117.348,3.513 C117.579,3.271 117.766,3.161 118.206,3.018 C117.821,2.886 117.656,2.776 117.458,2.534 C117.216,2.237 117.084,1.863 117.084,1.456 C117.084,0.411 117.942,-0.359 119.108,-0.359 C120.263,-0.359 121.099,0.4 121.099,1.445 C121.099,1.863 120.956,2.259 120.692,2.567 C120.494,2.787 120.34,2.886 119.966,3.018 Z M119.108,0.411 C118.404,0.411 117.92,0.851 117.92,1.467 C117.92,2.094 118.437,2.589 119.086,2.589 C119.713,2.589 120.274,2.072 120.274,1.478 C120.274,0.906 119.735,0.411 119.108,0.411 Z M119.097,3.48 C118.305,3.48 117.667,4.107 117.667,4.899 C117.667,5.68 118.294,6.318 119.075,6.318 C119.856,6.318 120.483,5.68 120.483,4.899 C120.483,4.129 119.856,3.48 119.097,3.48 Z M122.672,1.929 L123.508,1.929 L123.508,2.853 C123.992,2.105 124.509,1.808 125.356,1.808 C126.764,1.808 127.743,2.886 127.743,4.426 C127.743,6.021 126.764,7.121 125.356,7.121 C124.96,7.121 124.597,7.033 124.245,6.857 C123.937,6.703 123.783,6.571 123.508,6.208 L123.508,9.376 L122.672,9.376 L122.672,1.929 Z M125.213,2.556 C124.201,2.556 123.508,3.359 123.508,4.547 C123.508,5.658 124.179,6.395 125.18,6.395 C126.181,6.395 126.852,5.614 126.852,4.459 C126.852,3.865 126.709,3.414 126.412,3.084 C126.115,2.754 125.664,2.556 125.213,2.556 Z M130.625,5.163 L129.272,7 L128.249,7 L130.119,4.481 L128.216,1.929 L129.272,1.929 L130.625,3.788 L132.011,1.929 L133.034,1.929 L131.12,4.481 L132.946,7 L131.923,7 L130.625,5.163 Z M137.005,-0.337 L133.32,9.376 L132.605,9.376 L136.29,-0.337 L137.005,-0.337 Z M141.053,3.018 C141.471,3.15 141.669,3.249 141.9,3.491 C142.263,3.854 142.45,4.338 142.45,4.91 C142.45,6.208 141.493,7.132 140.151,7.132 C138.82,7.132 137.885,6.241 137.885,4.987 C137.885,4.404 138.083,3.876 138.435,3.513 C138.666,3.271 138.853,3.161 139.293,3.018 C138.908,2.886 138.743,2.776 138.545,2.534 C138.303,2.237 138.171,1.863 138.171,1.456 C138.171,0.411 139.029,-0.359 140.195,-0.359 C141.35,-0.359 142.186,0.4 142.186,1.445 C142.186,1.863 142.043,2.259 141.779,2.567 C141.581,2.787 141.427,2.886 141.053,3.018 Z M140.195,0.411 C139.491,0.411 139.007,0.851 139.007,1.467 C139.007,2.094 139.524,2.589 140.173,2.589 C140.8,2.589 141.361,2.072 141.361,1.478 C141.361,0.906 140.822,0.411 140.195,0.411 Z M140.184,3.48 C139.392,3.48 138.754,4.107 138.754,4.899 C138.754,5.68 139.381,6.318 140.162,6.318 C140.943,6.318 141.57,5.68 141.57,4.899 C141.57,4.129 140.943,3.48 140.184,3.48 Z M147.554,2.699 L147.554,-0.337 L148.39,-0.337 L148.39,7 L147.554,7 L147.554,6.131 C147.048,6.824 146.509,7.121 145.739,7.121 C144.342,7.121 143.352,6.032 143.352,4.492 C143.352,2.952 144.364,1.808 145.739,1.808 C146.487,1.808 147.059,2.083 147.554,2.699 Z M145.915,2.556 C144.914,2.556 144.232,3.348 144.232,4.503 C144.232,5.614 144.903,6.395 145.86,6.395 C146.839,6.395 147.554,5.581 147.554,4.481 C147.554,3.337 146.883,2.556 145.915,2.556 Z M150.073,1.929 L150.909,1.929 L150.909,2.853 C151.393,2.105 151.91,1.808 152.757,1.808 C154.165,1.808 155.144,2.886 155.144,4.426 C155.144,6.021 154.165,7.121 152.757,7.121 C152.361,7.121 151.998,7.033 151.646,6.857 C151.338,6.703 151.184,6.571 150.909,6.208 L150.909,9.376 L150.073,9.376 L150.073,1.929 Z M152.614,2.556 C151.602,2.556 150.909,3.359 150.909,4.547 C150.909,5.658 151.58,6.395 152.581,6.395 C153.582,6.395 154.253,5.614 154.253,4.459 C154.253,3.865 154.11,3.414 153.813,3.084 C153.516,2.754 153.065,2.556 152.614,2.556 Z"/>
      <g transform="translate(0 23)">
        <use fill="#157DB9" transform="translate(24 24)" xlink:href="#2-c"/>
        <use fill-rule="nonzero" stroke="#6FEAD9" stroke-dasharray="1" stroke-width="2" mask="url(#2-d)" xlink:href="#2-a"/>
      </g>
      <g transform="translate(112 23)">
        <use fill="#157DB9" transform="translate(24 24)" xlink:href="#2-e"/>
        <use fill-rule="nonzero" stroke="#6FEAD9" stroke-dasharray="1" stroke-width="2" mask="url(#2-f)" xlink:href="#2-b"/>
      </g>
      <g fill="#00AB9A" transform="translate(95 15)">
        <rect width="1" height="9"/>
        <rect width="1" height="9" x="17"/>
        <rect width="16" height="1" x="1" y="4"/>
      </g>
    </g>
  </g>
</svg>
