<svg xmlns="http://www.w3.org/2000/svg" xmlns:xlink="http://www.w3.org/1999/xlink" width="188" height="180" viewBox="0 0 188 180">
  <defs>
    <polygon id="3-b" points="180 10 0 10 0 170 180 170"/>
    <filter id="3-a" width="108.9%" height="112.5%" x="-4.4%" y="-5%" filterUnits="objectBoundingBox">
      <feOffset dy="4" in="SourceAlpha" result="shadowOffsetOuter1"/>
      <feGaussianBlur in="shadowOffsetOuter1" result="shadowBlurOuter1" stdDeviation="2"/>
      <feColorMatrix in="shadowBlurOuter1" result="shadowMatrixOuter1" values="0 0 0 0 0   0 0 0 0 0   0 0 0 0 0  0 0 0 0.24 0"/>
      <feOffset in="SourceAlpha" result="shadowOffsetOuter2"/>
      <feGaussianBlur in="shadowOffsetOuter2" result="shadowBlurOuter2" stdDeviation="2"/>
      <feColorMatrix in="shadowBlurOuter2" result="shadowMatrixOuter2" values="0 0 0 0 0   0 0 0 0 0   0 0 0 0 0  0 0 0 0.12 0"/>
      <feMerge>
        <feMergeNode in="shadowMatrixOuter1"/>
        <feMergeNode in="shadowMatrixOuter2"/>
      </feMerge>
    </filter>
    <path id="3-c" d="M35.4794365,14.0000014 C34.7967087,15.2034166 33.5069793,16 32,16 C30.4930207,16 29.2032913,15.2034166 28.5205635,14.0000014 L8,14 C6.896,14 6,13.104 6,12 C6,10.896 6.896,10 8,10 L28.5205589,10 C29.2032913,8.79658336 30.4930207,8 32,8 C33.5069793,8 34.7967087,8.79658336 35.4794365,9.99999856 L40,10 C41.104,10 42,10.896 42,12 C42,13.104 41.104,14 40,14 L35.4794411,14 Z M19.4794365,26.0000014 C18.7967087,27.2034166 17.5069793,28 16,28 C14.4930207,28 13.2032913,27.2034166 12.5205635,26.0000014 L8,26 C6.896,26 6,25.104 6,24 C6,22.896 6.896,22 8,22 L12.5205589,22 C13.2032913,20.7965834 14.4930207,20 16,20 C17.5069793,20 18.7967087,20.7965834 19.4794365,21.9999986 L40,22 C41.104,22 42,22.896 42,24 C42,25.104 41.104,26 40,26 L19.4794411,26 Z M35.4794365,38.0000014 C34.7967087,39.2034166 33.5069793,40 32,40 C30.4930207,40 29.2032913,39.2034166 28.5205635,38.0000014 L8,38 C6.896,38 6,37.104 6,36 C6,34.896 6.896,34 8,34 L28.5205589,34 C29.2032913,32.7965834 30.4930207,32 32,32 C33.5069793,32 34.7967087,32.7965834 35.4794365,33.9999986 L40,34 C41.104,34 42,34.896 42,36 C42,37.104 41.104,38 40,38 L35.4794411,38 Z"/>
  </defs>
  <g fill="none" fill-rule="evenodd" transform="translate(4)">
    <rect width="180" height="180" fill="#FFF" fill-opacity=".01" fill-rule="nonzero"/>
    <use fill="#000" filter="url(#3-a)" xlink:href="#3-b"/>
    <use fill="#F5F5F5" xlink:href="#3-b"/>
    <g transform="translate(18 66)">
      <use fill="#314351" transform="translate(96)" xlink:href="#3-c"/>
      <path d="M37.4403894,19.98 L28.0123894,10.552 L28.3943894,9.7 L30.6543894,7.44 C32.5763894,5.52 35.7063894,5.52 37.6283894,7.44 L40.5543894,10.366 C42.4763894,12.288 42.4763894,15.418 40.5543894,17.34 L38.2943894,19.602 L37.4403894,19.98 Z M25.1865894,13.3824 L34.6125894,22.8084 L34.2305894,23.6644 L18.4925894,39.4004 L11.3445894,41.7824 C10.9185894,41.9244 10.4825894,41.9944 10.0525894,41.9944 C8.99458944,41.9944 7.96658944,41.5804 7.18858944,40.8024 C6.09658944,39.7084 5.72258944,38.1164 6.21058944,36.6504 L8.59458944,29.5024 L24.3305894,13.7624 L25.1865894,13.3824 Z"/>
      <path fill="#314351" d="M31.5845728,19.7811728 L28.2145335,16.4111335 L26.6364,17.1162 L12.0904,31.6622 L10.0064,37.9162 L16.3404,35.8942 L30.8804,21.3602 L31.5845728,19.7811728 Z M34.412691,16.953291 L35.9884,16.2502 L37.7244,14.5122 C38.0884,14.1482 38.0884,13.5582 37.7244,13.1962 L34.7984,10.2702 C34.4364,9.9062 33.8464,9.9062 33.4824,10.2702 L31.7444,12.0062 L31.041309,13.581909 L34.412691,16.953291 Z M10.0524,41.9942 C8.9964,41.9942 7.9664,41.5802 7.1904,40.8022 C6.0964,39.7082 5.7224,38.1182 6.2104,36.6502 L8.5944,29.5022 L24.3324,13.7642 L27.1404,12.5122 L28.3924,9.7022 L30.6544,7.4422 C32.5764,5.5202 35.7064,5.5202 37.6284,7.4422 L40.5524,10.3682 C42.4744,12.2882 42.4744,15.4182 40.5524,17.3402 L38.2944,19.6022 L35.4824,20.8542 L34.2304,23.6642 L18.4924,39.4002 L11.3444,41.7842 C10.9204,41.9262 10.4844,41.9942 10.0524,41.9942 Z"/>
    </g>
  </g>
</svg>
