<svg xmlns="http://www.w3.org/2000/svg" width="180" height="180" viewBox="0 0 180 180">
  <g fill="none" fill-rule="evenodd">
    <rect width="180" height="180" fill="#FFF" fill-opacity=".01" fill-rule="nonzero"/>
    <g transform="translate(0 44)">
      <rect width="180" height="91.25" fill="#FFF"/>
      <g transform="translate(13 23)">
        <path fill="#565656" d="M6.11364746,45.5 L4.6854248,45.5 L4.6854248,35.3358154 L0.995849609,35.3358154 L0.995849609,34.050415 L9.80322266,34.050415 L9.80322266,35.3358154 L6.11364746,35.3358154 L6.11364746,45.5 Z M15.3494873,45.6507568 C12.9135742,45.6507568 11.4060059,43.9686279 11.4060059,41.2232666 C11.4060059,38.4699707 12.9135742,36.7957764 15.3494873,36.7957764 C17.7854004,36.7957764 19.2929688,38.4699707 19.2929688,41.2232666 C19.2929688,43.9686279 17.7854004,45.6507568 15.3494873,45.6507568 Z M15.3494873,44.4208984 C16.9681396,44.4208984 17.8806152,43.246582 17.8806152,41.2232666 C17.8806152,39.1920166 16.9681396,38.0256348 15.3494873,38.0256348 C13.730835,38.0256348 12.8183594,39.1920166 12.8183594,41.2232666 C12.8183594,43.246582 13.730835,44.4208984 15.3494873,44.4208984 Z M22.5620117,45.5793457 C21.9986572,45.5793457 21.5305176,45.1112061 21.5305176,44.5478516 C21.5305176,43.9765625 21.9986572,43.5163574 22.5620117,43.5163574 C23.1333008,43.5163574 23.5935059,43.9765625 23.5935059,44.5478516 C23.5935059,45.1112061 23.1333008,45.5793457 22.5620117,45.5793457 Z M22.5620117,39.4776611 C21.9986572,39.4776611 21.5305176,39.0095215 21.5305176,38.446167 C21.5305176,37.8748779 21.9986572,37.4146729 22.5620117,37.4146729 C23.1333008,37.4146729 23.5935059,37.8748779 23.5935059,38.446167 C23.5935059,39.0095215 23.1333008,39.4776611 22.5620117,39.4776611 Z M42.3032227,45.5 L40.9702148,45.5 L40.9702148,36.7561035 L40.875,36.7561035 L37.2647705,45.4206543 L36.0587158,45.4206543 L32.4484863,36.7561035 L32.3532715,36.7561035 L32.3532715,45.5 L31.0202637,45.5 L31.0202637,34.050415 L32.6785889,34.050415 L36.5982666,43.524292 L36.7252197,43.524292 L40.6448975,34.050415 L42.3032227,34.050415 L42.3032227,45.5 Z M48.4604492,38.0018311 C47.0957031,38.0018311 46.1435547,39.0015869 46.0404053,40.5170898 L50.75354,40.5170898 C50.7218018,39.0015869 49.8172607,38.0018311 48.4604492,38.0018311 Z M50.7138672,43.2862549 L52.0786133,43.2862549 C51.6660156,44.7541504 50.348877,45.6507568 48.4763184,45.6507568 C46.1038818,45.6507568 44.6201172,43.9368896 44.6201172,41.2312012 C44.6201172,38.5413818 46.1276855,36.7957764 48.4763184,36.7957764 C50.7852783,36.7957764 52.1896973,38.4382324 52.1896973,41.0963135 L52.1896973,41.6199951 L46.0404053,41.6199951 L46.0404053,41.6834717 C46.1118164,43.3735352 47.0560303,44.4447021 48.5080566,44.4447021 C49.6109619,44.4447021 50.3568115,44.0400391 50.7138672,43.2862549 Z M61.5524902,44.4526367 C62.9569092,44.4526367 63.9963379,43.5322266 63.9963379,42.3103027 L63.9963379,41.5247803 L61.6953125,41.6755371 C60.394043,41.7628174 59.8227539,42.2150879 59.8227539,43.0720215 C59.8227539,43.9448242 60.5606689,44.4526367 61.5524902,44.4526367 Z M61.298584,45.6507568 C59.6402588,45.6507568 58.4104004,44.6668701 58.4104004,43.1037598 C58.4104004,41.5723877 59.5371094,40.6916504 61.5286865,40.5726318 L63.9963379,40.421875 L63.9963379,39.6442871 C63.9963379,38.5889893 63.3377686,38.0097656 62.0603027,38.0097656 C61.0367432,38.0097656 60.3226318,38.3985596 60.1322021,39.072998 L58.7515869,39.072998 C58.934082,37.7003174 60.282959,36.7957764 62.1079102,36.7957764 C64.1947021,36.7957764 65.361084,37.8669434 65.361084,39.6442871 L65.361084,45.5 L64.0598145,45.5 L64.0598145,44.2384033 L63.9328613,44.2384033 C63.3774414,45.1508789 62.4411621,45.6507568 61.298584,45.6507568 Z M67.8842773,45.5 L67.8842773,36.9465332 L69.1855469,36.9465332 L69.1855469,38.2954102 L69.3125,38.2954102 C69.7409668,37.3511963 70.5740967,36.7957764 71.8833008,36.7957764 C73.8034668,36.7957764 74.8746338,37.9304199 74.8746338,39.9616699 L74.8746338,45.5 L73.5098877,45.5 L73.5098877,40.2949219 C73.5098877,38.7556152 72.8592529,38.0256348 71.4945068,38.0256348 C70.1297607,38.0256348 69.2490234,38.9381104 69.2490234,40.4377441 L69.2490234,45.5 L67.8842773,45.5 Z M80.5319824,45.6507568 C78.342041,45.6507568 76.9376221,43.9130859 76.9376221,41.2232666 C76.9376221,38.5413818 78.3579102,36.7957764 80.5319824,36.7957764 C81.722168,36.7957764 82.7298584,37.3591309 83.2138672,38.2954102 L83.3328857,38.2954102 L83.3328857,33.5505371 L84.6976318,33.5505371 L84.6976318,45.5 L83.3963623,45.5 L83.3963623,44.1352539 L83.2694092,44.1352539 C82.7298584,45.0874023 81.7142334,45.6507568 80.5319824,45.6507568 Z M80.8493652,38.0256348 C79.2941895,38.0256348 78.3499756,39.2316895 78.3499756,41.2232666 C78.3499756,43.2227783 79.2862549,44.4208984 80.8493652,44.4208984 C82.404541,44.4208984 83.364624,43.1989746 83.364624,41.2232666 C83.364624,39.2634277 82.3966064,38.0256348 80.8493652,38.0256348 Z M91.8546143,37.2718506 C91.8546143,35.2406006 93.3939209,33.7806396 95.5203857,33.7806396 C97.5754395,33.7806396 99.1464844,35.177124 99.1464844,36.9941406 C99.1464844,38.1843262 98.6069336,39.1126709 96.7264404,41.1280518 L93.9731445,44.0876465 L93.9731445,44.2145996 L99.3369141,44.2145996 L99.3369141,45.5 L91.9260254,45.5 L91.9260254,44.5161133 L95.885376,40.1917725 C97.3612061,38.5889893 97.7182617,37.9700928 97.7182617,37.0496826 C97.7182617,35.9071045 96.7423096,35.0263672 95.4807129,35.0263672 C94.1397705,35.0263672 93.2352295,35.9229736 93.2352295,37.2718506 L93.2352295,37.2797852 L91.8546143,37.2797852 L91.8546143,37.2718506 Z M109.85022,45.6507568 C107.414307,45.6507568 105.906738,43.9686279 105.906738,41.2232666 C105.906738,38.4699707 107.414307,36.7957764 109.85022,36.7957764 C112.286133,36.7957764 113.793701,38.4699707 113.793701,41.2232666 C113.793701,43.9686279 112.286133,45.6507568 109.85022,45.6507568 Z M109.85022,44.4208984 C111.468872,44.4208984 112.381348,43.246582 112.381348,41.2232666 C112.381348,39.1920166 111.468872,38.0256348 109.85022,38.0256348 C108.231567,38.0256348 107.319092,39.1920166 107.319092,41.2232666 C107.319092,43.246582 108.231567,44.4208984 109.85022,44.4208984 Z M116.507324,34.7327881 L117.87207,34.7327881 L117.87207,36.9465332 L119.776367,36.9465332 L119.776367,38.0891113 L117.87207,38.0891113 L117.87207,42.9291992 C117.87207,43.9368896 118.25293,44.3653564 119.141602,44.3653564 C119.387573,44.3653564 119.522461,44.3574219 119.776367,44.3336182 L119.776367,45.4841309 C119.506592,45.5317383 119.244751,45.5634766 118.974976,45.5634766 C117.213501,45.5634766 116.507324,44.9128418 116.507324,43.2783203 L116.507324,38.0891113 L115.126709,38.0891113 L115.126709,36.9465332 L116.507324,36.9465332 L116.507324,34.7327881 Z M121.918701,45.5 L121.918701,33.5505371 L123.283447,33.5505371 L123.283447,38.2954102 L123.4104,38.2954102 C123.838867,37.3511963 124.735474,36.7957764 126.044678,36.7957764 C127.85376,36.7957764 128.996338,37.9542236 128.996338,39.9616699 L128.996338,45.5 L127.631592,45.5 L127.631592,40.2949219 C127.631592,38.7794189 126.949219,38.0256348 125.655884,38.0256348 C124.124512,38.0256348 123.283447,38.9936523 123.283447,40.4377441 L123.283447,45.5 L121.918701,45.5 Z M134.899658,38.0018311 C133.534912,38.0018311 132.582764,39.0015869 132.479614,40.5170898 L137.192749,40.5170898 C137.161011,39.0015869 136.25647,38.0018311 134.899658,38.0018311 Z M137.153076,43.2862549 L138.517822,43.2862549 C138.105225,44.7541504 136.788086,45.6507568 134.915527,45.6507568 C132.543091,45.6507568 131.059326,43.9368896 131.059326,41.2312012 C131.059326,38.5413818 132.566895,36.7957764 134.915527,36.7957764 C137.224487,36.7957764 138.628906,38.4382324 138.628906,41.0963135 L138.628906,41.6199951 L132.479614,41.6199951 L132.479614,41.6834717 C132.551025,43.3735352 133.495239,44.4447021 134.947266,44.4447021 C136.050171,44.4447021 136.796021,44.0400391 137.153076,43.2862549 Z M140.77124,45.5 L140.77124,36.9465332 L142.07251,36.9465332 L142.07251,38.2160645 L142.199463,38.2160645 C142.453369,37.3829346 143.437256,36.7957764 144.571899,36.7957764 C144.794067,36.7957764 145.079712,36.8116455 145.254272,36.8354492 L145.254272,38.2001953 C145.143188,38.168457 144.651245,38.1208496 144.38147,38.1208496 C143.0802,38.1208496 142.135986,38.9936523 142.135986,40.199707 L142.135986,45.5 L140.77124,45.5 Z M146.761841,39.2872314 C146.761841,37.8669434 148.134521,36.7957764 149.951538,36.7957764 C151.744751,36.7957764 152.990479,37.6844482 153.172974,39.0888672 L151.824097,39.0888672 C151.641602,38.4064941 150.975098,37.9542236 149.943604,37.9542236 C148.927979,37.9542236 148.134521,38.4699707 148.134521,39.2316895 C148.134521,39.8188477 148.610596,40.1838379 149.618286,40.4298096 L150.935425,40.7471924 C152.546143,41.1359863 153.32373,41.8342285 153.32373,43.0640869 C153.32373,44.595459 151.839966,45.6507568 149.895996,45.6507568 C147.991699,45.6507568 146.682495,44.7382812 146.531738,43.3179932 L147.936157,43.3179932 C148.16626,44.0400391 148.848633,44.5002441 149.943604,44.5002441 C151.094116,44.5002441 151.919312,43.9527588 151.919312,43.1672363 C151.919312,42.5800781 151.474976,42.1833496 150.5625,41.9611816 L149.094604,41.604126 C147.491821,41.215332 146.761841,40.5250244 146.761841,39.2872314 Z"/>
        <path fill="#000" d="M10.6015625,15.1679688 L10.6015625,16.75 L2.046875,16.75 L2.046875,2.65820312 L3.8046875,2.65820312 L3.8046875,15.1679688 L10.6015625,15.1679688 Z M21.7050781,6.22265625 L21.7050781,16.75 L20.1035156,16.75 L20.1035156,15.0996094 L19.9472656,15.0996094 C19.4199219,16.2714844 18.296875,16.9355469 16.6855469,16.9355469 C14.3222656,16.9355469 13.0917969,15.5292969 13.0917969,13.0390625 L13.0917969,6.22265625 L14.7714844,6.22265625 L14.7714844,12.6289062 C14.7714844,14.5234375 15.4746094,15.4023438 17.1542969,15.4023438 C19.0097656,15.4023438 20.0253906,14.2988281 20.0253906,12.453125 L20.0253906,6.22265625 L21.7050781,6.22265625 Z M33.5800781,9.4453125 L31.8808594,9.4453125 C31.6074219,8.40039062 30.6796875,7.55078125 29.1660156,7.55078125 C27.2714844,7.55078125 26.0800781,9.06445312 26.0800781,11.4472656 C26.0800781,13.8789062 27.2910156,15.421875 29.1660156,15.421875 C30.5820312,15.421875 31.5683594,14.7675781 31.8808594,13.5761719 L33.5800781,13.5761719 C33.2773438,15.5097656 31.7050781,16.9355469 29.1757812,16.9355469 C26.2265625,16.9355469 24.3417969,14.796875 24.3417969,11.4472656 C24.3417969,8.16601562 26.2167969,6.03710938 29.1660156,6.03710938 C31.7246094,6.03710938 33.2871094,7.5703125 33.5800781,9.4453125 Z M36.9589844,20.5585938 C36.734375,20.5585938 36.4414062,20.5390625 36.2070312,20.5 L36.2070312,19.0644531 C36.4121094,19.1035156 36.6757812,19.1132812 36.9101562,19.1132812 C37.8769531,19.1132812 38.4042969,18.6542969 38.84375,17.3847656 L39.0390625,16.7597656 L35.1425781,6.22265625 L36.9589844,6.22265625 L39.8496094,14.8847656 L40.0058594,14.8847656 L42.8867188,6.22265625 L44.6738281,6.22265625 L40.5625,17.3945312 C39.6640625,19.8359375 38.8242188,20.5585938 36.9589844,20.5585938 Z M64.6054688,11.3007812 C64.6054688,14.7773438 62.2226562,17.0820312 58.6191406,17.0820312 C54.7226562,17.0820312 52.2324219,14.2109375 52.2324219,9.69921875 C52.2324219,5.24609375 54.7617188,2.32617188 58.6191406,2.32617188 C61.7441406,2.32617188 64.0097656,4.06445312 64.5175781,6.85742188 L62.7304688,6.85742188 C62.125,4.953125 60.7089844,3.94726562 58.6191406,3.94726562 C55.8261719,3.94726562 54.0390625,6.19335938 54.0390625,9.69921875 C54.0390625,13.2539062 55.796875,15.4609375 58.6289062,15.4609375 C61.1484375,15.4609375 62.8574219,13.8496094 62.8574219,11.4667969 L62.8574219,11.125 L58.8925781,11.125 L58.8925781,9.58203125 L64.6054688,9.58203125 L64.6054688,11.3007812 Z M67.59375,16.75 L67.59375,2.04296875 L69.2734375,2.04296875 L69.2734375,16.75 L67.59375,16.75 Z M76.8613281,16.9355469 C73.8632812,16.9355469 72.0078125,14.8652344 72.0078125,11.4863281 C72.0078125,8.09765625 73.8632812,6.03710938 76.8613281,6.03710938 C79.859375,6.03710938 81.7148438,8.09765625 81.7148438,11.4863281 C81.7148438,14.8652344 79.859375,16.9355469 76.8613281,16.9355469 Z M76.8613281,15.421875 C78.8535156,15.421875 79.9765625,13.9765625 79.9765625,11.4863281 C79.9765625,8.98632812 78.8535156,7.55078125 76.8613281,7.55078125 C74.8691406,7.55078125 73.7460938,8.98632812 73.7460938,11.4863281 C73.7460938,13.9765625 74.8691406,15.421875 76.8613281,15.421875 Z M92.5546875,6.22265625 L88.6582031,16.75 L86.9394531,16.75 L83.0429688,6.22265625 L84.8398438,6.22265625 L87.7207031,14.8945312 L87.8769531,14.8945312 L90.7578125,6.22265625 L92.5546875,6.22265625 Z M98.609375,7.52148438 C96.9296875,7.52148438 95.7578125,8.75195312 95.6308594,10.6171875 L101.431641,10.6171875 C101.392578,8.75195312 100.279297,7.52148438 98.609375,7.52148438 Z M101.382812,14.0253906 L103.0625,14.0253906 C102.554688,15.8320312 100.933594,16.9355469 98.6289062,16.9355469 C95.7089844,16.9355469 93.8828125,14.8261719 93.8828125,11.4960938 C93.8828125,8.18554688 95.7382812,6.03710938 98.6289062,6.03710938 C101.470703,6.03710938 103.199219,8.05859375 103.199219,11.3300781 L103.199219,11.9746094 L95.6308594,11.9746094 L95.6308594,12.0527344 C95.71875,14.1328125 96.8808594,15.4511719 98.6679688,15.4511719 C100.025391,15.4511719 100.943359,14.953125 101.382812,14.0253906 Z M105.835938,16.75 L105.835938,6.22265625 L107.4375,6.22265625 L107.4375,7.78515625 L107.59375,7.78515625 C107.90625,6.75976562 109.117188,6.03710938 110.513672,6.03710938 C110.787109,6.03710938 111.138672,6.05664062 111.353516,6.0859375 L111.353516,7.765625 C111.216797,7.7265625 110.611328,7.66796875 110.279297,7.66796875 C108.677734,7.66796875 107.515625,8.7421875 107.515625,10.2265625 L107.515625,16.75 L105.835938,16.75 Z"/>
        <g fill="#314351" transform="translate(129 .5)">
          <path d="M5.83333333,7.08358333 L5.83333333,5.41666667 C5.83333333,3.11916667 7.7025,1.25 10,1.25 C12.2975,1.25 14.1666667,3.11916667 14.1666667,5.41666667 L14.1666667,7.08358333 L14.5241667,7.08358333 C16.1675,7.08358333 17.5,8.41525 17.5,10.0585833 L17.5,15.7735833 C17.5,17.41775 16.1675,18.75025 14.5241667,18.75025 L5.47583333,18.75025 C3.8325,18.75025 2.5,17.41775 2.5,15.7735833 L2.5,10.06025 C2.5,8.41608333 3.8325,7.08358333 5.47666667,7.08358333 L5.83333333,7.08358333 Z M11.6666667,12.9166667 C11.6666667,11.9966667 10.92,11.25 10,11.25 C9.08,11.25 8.33333333,11.9966667 8.33333333,12.9166667 C8.33333333,13.8366667 9.08,14.5833333 10,14.5833333 C10.92,14.5833333 11.6666667,13.8366667 11.6666667,12.9166667 Z M7.5,7.08333333 L12.5,7.08333333 L12.5,5.41666667 C12.5,4.03833333 11.3783333,2.91666667 10,2.91666667 C8.62166667,2.91666667 7.5,4.03833333 7.5,5.41666667 L7.5,7.08333333 Z"/>
          <path d="M5.83333333,7.08358333 L5.83333333,5.41666667 C5.83333333,3.11916667 7.7025,1.25 10,1.25 C12.2975,1.25 14.1666667,3.11916667 14.1666667,5.41666667 L14.1666667,7.08358333 L14.5241667,7.08358333 C16.1675,7.08358333 17.5,8.41525 17.5,10.0585833 L17.5,15.7735833 C17.5,17.41775 16.1675,18.75025 14.5241667,18.75025 L5.47583333,18.75025 C3.8325,18.75025 2.5,17.41775 2.5,15.7735833 L2.5,10.06025 C2.5,8.41608333 3.8325,7.08358333 5.47666667,7.08358333 L5.83333333,7.08358333 Z M4.16666667,10.06025 L4.16666667,15.7735833 C4.16666667,16.49775 4.75333333,17.0835833 5.47583333,17.0835833 L14.5241667,17.0835833 C15.2475,17.0835833 15.8333333,16.49775 15.8333333,15.7744167 L15.8333333,10.0594167 C15.8333333,9.33608333 15.2466667,8.75025 14.5241667,8.75025 L5.47666667,8.75025 C4.75333333,8.75025 4.16666667,9.33691667 4.16666667,10.06025 Z M11.6666667,12.9166667 C11.6666667,13.8366667 10.92,14.5833333 10,14.5833333 C9.08,14.5833333 8.33333333,13.8366667 8.33333333,12.9166667 C8.33333333,11.9966667 9.08,11.25 10,11.25 C10.92,11.25 11.6666667,11.9966667 11.6666667,12.9166667 Z M7.5,7.08333333 L12.5,7.08333333 L12.5,5.41666667 C12.5,4.03833333 11.3783333,2.91666667 10,2.91666667 C8.62166667,2.91666667 7.5,4.03833333 7.5,5.41666667 L7.5,7.08333333 Z"/>
        </g>
      </g>
    </g>
  </g>
</svg>
