<svg xmlns="http://www.w3.org/2000/svg" xmlns:xlink="http://www.w3.org/1999/xlink" width="180" height="180" viewBox="0 0 180 180">
  <defs>
    <path id="5-a" d="M48,8 C45.8109117,8 43.6218234,9.23193462 42.7379447,11.7003835 L36.6149091,28.7368028 C35.836363,30.8984129 33.816723,32.3639114 31.5223021,32.4371863 L13.4279762,32.9913279 C8.18881927,33.1561964 6.03178878,39.7875768 10.1764015,43.002514 L24.4879096,54.0899256 C26.3014639,55.4958881 27.0754303,57.8727434 26.4342747,60.0755707 L21.3737254,77.4600458 C20.2471235,81.3252979 23.3063515,84.6364084 26.7548525,84.6364084 C27.7990201,84.6364084 28.8752455,84.3295697 29.8827757,83.647197 L44.8537581,73.4619829 C45.806332,72.811668 46.9008762,72.4910902 48,72.4910902 C49.0991238,72.4910902 50.193668,72.811668 51.1462419,73.4619829 L66.1172243,83.647197 C67.1247545,84.3341494 68.2009799,84.6364084 69.2451475,84.6364084 C72.6936485,84.6364084 75.7528765,81.3252979 74.6262746,77.4600458 L69.5657253,60.0755707 C68.9245697,57.8727434 69.6985361,55.4958881 71.5120904,54.0899256 L85.8235985,43.002514 C89.9682112,39.7875768 87.8111807,33.1561964 82.5720238,32.9913279 L64.4776979,32.4371863 C62.183277,32.3639114 60.163637,30.8984129 59.3850909,28.7368028 L53.2620553,11.7003835 C52.3781766,9.23193462 50.1890883,8 48,8 M48,12.5796826 C48.7098508,12.5796826 48.8930381,13.078868 48.952574,13.2483162 L55.0756096,30.2847355 C56.4953112,34.2415812 60.1315792,36.8840581 64.3311481,37.0122892 L82.4346334,37.5710105 C82.6086613,37.5755901 83.1444842,37.5939089 83.3643089,38.2671222 C83.5841337,38.9494949 83.1582232,39.2746524 83.0208327,39.3845648 L68.704745,50.4719763 C65.3844751,53.0457579 63.9968313,57.3186018 65.1738097,61.3533021 L70.2297793,78.7377772 C70.3305323,79.0858331 70.2938948,79.3422953 70.1061278,79.5941779 C69.9000421,79.8689588 69.5565659,80.0567258 69.2451475,80.0567258 C69.1306555,80.0567258 68.9520478,80.0338274 68.6910059,79.8552198 L53.7246032,69.6745854 C52.025541,68.5205054 50.0471181,67.9114076 48,67.9114076 C45.9528819,67.9114076 43.974459,68.5205054 42.2753968,69.6745854 L27.3089941,79.8552198 C27.0479522,80.0338274 26.8693445,80.0567258 26.7548525,80.0567258 C26.4434341,80.0567258 26.0999579,79.8689588 25.8938722,79.5941779 C25.7015255,79.3422953 25.6694677,79.0858331 25.7702207,78.7377772 L30.8261903,61.3533021 C32.0031687,57.3186018 30.6155249,53.0457579 27.295255,50.4719763 L12.9791673,39.3845648 C12.8417768,39.2746524 12.4158663,38.9494949 12.6356911,38.2671222 C12.8555158,37.5939089 13.3913387,37.5755901 13.5653666,37.5710105 L31.6642722,37.0122892 C35.8684208,36.8840581 39.5046888,34.2415812 40.9243904,30.2847355 L47.047426,13.2483162 C47.1069619,13.078868 47.2901492,12.5796826 48,12.5796826"/>
  </defs>
  <g fill="none" fill-rule="evenodd">
    <rect width="180" height="180" fill="#FFF" fill-opacity=".01" fill-rule="nonzero"/>
    <g transform="translate(42 42)">
      <path fill="#FAC400" d="M48,8 C45.8109117,8 43.6218234,9.23193462 42.7379447,11.7003835 L36.6149091,28.7368028 C35.836363,30.8984129 33.816723,32.3639114 31.5223021,32.4371863 L13.4279762,32.9913279 C8.18881927,33.1561964 6.03178878,39.7875768 10.1764015,43.002514 L24.4879096,54.0899256 C26.3014639,55.4958881 27.0754303,57.8727434 26.4342747,60.0755707 L21.3737254,77.4600458 C20.2471235,81.3252979 23.3063515,84.6364084 26.7548525,84.6364084 C27.7990201,84.6364084 28.8752455,84.3295697 29.8827757,83.647197 L44.8537581,73.4619829 C45.806332,72.811668 46.9008762,72.4910902 48,72.4910902 C49.0991238,72.4910902 50.193668,72.811668 51.1462419,73.4619829 L66.1172243,83.647197 C67.1247545,84.3341494 68.2009799,84.6364084 69.2451475,84.6364084 C72.6936485,84.6364084 75.7528765,81.3252979 74.6262746,77.4600458 L69.5657253,60.0755707 C68.9245697,57.8727434 69.6985361,55.4958881 71.5120904,54.0899256 L85.8235985,43.002514 C89.9682112,39.7875768 87.8111807,33.1561964 82.5720238,32.9913279 L64.4776979,32.4371863 C62.183277,32.3639114 60.163637,30.8984129 59.3850909,28.7368028 L53.2620553,11.7003835 C52.3781766,9.23193462 50.1890883,8 48,8"/>
      <use fill="#C47D00" xlink:href="#5-a"/>
    </g>
  </g>
</svg>
