<svg xmlns="http://www.w3.org/2000/svg" xmlns:xlink="http://www.w3.org/1999/xlink" width="180" height="180" viewBox="0 0 180 180">
  <defs>
    <path id="6-a" d="M20,11.0628741 C24.2294511,9.96575857 29.9598111,9.57791202 33.5052388,10.0579346 C37.11061,10.5440411 40.5996464,11.8646439 45.17325,14.2245576 C46.2831666,14.7972587 46.881964,15.1191421 49.24739,16.4034742 C62.6328009,23.6712191 69.0444137,24.7755449 78.4176466,18.4645558 C80.9777229,16.7423227 84.002,18.8804456 84.002,21.8682105 L83.9978269,59.9023135 C83.9856879,60.8248792 83.4797931,61.8246236 82.7526186,62.372931 C70.8282693,71.4882016 62.5380284,70.3605873 47.2660277,61.996516 C45.1038559,60.8123517 44.6157002,60.5471141 43.645045,60.0371105 C39.2628054,57.7345853 36.1031933,56.511011 32.9573511,56.0858748 C29.6269718,55.6344322 23.6194461,56.1300524 20,57.2842805 L20,94 C20,95.1045695 19.1045695,96 18,96 C16.8954305,96 16,95.1045695 16,94 L16,6 C16,4.8954305 16.8954305,4 18,4 C19.1045695,4 20,4.8954305 20,6 L20,11.0628741 Z M20,15.2196963 L20,53.127734 C24.2281295,52.0317185 29.956792,51.6425584 33.4938495,52.122017 C37.2036402,52.6233662 40.7445573,53.9946027 45.505552,56.4961341 C46.5052426,57.0213936 47.0013946,57.2909759 49.1874333,58.4882116 C63.0682677,66.0903778 69.8416496,67.0737296 79.9980457,59.4416515 L80.0019638,22.2122065 C69.3716778,29.1121133 61.6175171,27.6715416 47.3387428,19.918736 C45.001835,18.6498882 44.4136867,18.3337292 43.3390808,17.779248 C39.1371614,15.6111179 36.0278771,14.4342516 32.9696644,14.0219173 C29.6293855,13.5696705 23.6200419,14.0639801 20,15.2196963 Z"/>
  </defs>
  <g fill="none" fill-rule="evenodd">
    <rect width="180" height="180" fill="#FFF" fill-opacity=".01" fill-rule="nonzero"/>
    <g transform="translate(24 42)">
      <path d="M20,11.0628741 C24.2294511,9.96575857 29.9598111,9.57791202 33.5052388,10.0579346 C37.11061,10.5440411 40.5996464,11.8646439 45.17325,14.2245576 C46.2831666,14.7972587 46.881964,15.1191421 49.24739,16.4034742 C62.6328009,23.6712191 69.0444137,24.7755449 78.4176466,18.4645558 C80.9777229,16.7423227 84.002,18.8804456 84.002,21.8682105 L83.9978269,59.9023135 C83.9856879,60.8248792 83.4797931,61.8246236 82.7526186,62.372931 C70.8282693,71.4882016 62.5380284,70.3605873 47.2660277,61.996516 C45.1038559,60.8123517 44.6157002,60.5471141 43.645045,60.0371105 C39.2628054,57.7345853 36.1031933,56.511011 32.9573511,56.0858748 C29.6269718,55.6344322 23.6194461,56.1300524 20,57.2842805 L20,94 C20,95.1045695 19.1045695,96 18,96 C16.8954305,96 16,95.1045695 16,94 L16,6 C16,4.8954305 16.8954305,4 18,4 C19.1045695,4 20,4.8954305 20,6 L20,11.0628741 Z"/>
      <use fill="#157DB9" xlink:href="#6-a"/>
      <g fill="#C41261" transform="translate(84 36)">
        <rect width="1" height="9"/>
        <rect width="1" height="9" x="47"/>
        <rect width="46" height="1" x="1" y="4"/>
      </g>
      <path fill="#C41261" d="M96.7035,27.977 L96.7035,27.064 L100.4875,25.315 L96.7035,23.555 L96.7035,22.653 L101.4665,24.919 L101.4665,25.711 L96.7035,27.977 Z M108.4955,27.35 L105.5585,27.35 L105.5585,26.668 L109.3425,21.564 L109.3425,26.558 L110.2005,26.558 L110.2005,27.35 L109.3425,27.35 L109.3425,29 L108.4955,29 L108.4955,27.35 Z M108.4955,26.558 L108.4955,23.753 L106.4385,26.558 L108.4955,26.558 Z M111.8945,27.944 C112.2245,27.944 112.4665,28.186 112.4665,28.527 C112.4665,28.846 112.2135,29.088 111.8945,29.088 C111.5645,29.088 111.3225,28.846 111.3225,28.516 C111.3225,28.186 111.5645,27.944 111.8945,27.944 Z M117.2405,21.663 L117.2405,22.499 L114.8755,22.499 L114.8755,24.468 C115.2495,24.325 115.5795,24.259 115.9535,24.259 C117.2405,24.259 118.2085,25.271 118.2085,26.646 C118.2085,28.054 117.1745,29.077 115.7335,29.077 C114.6995,29.077 113.9185,28.538 113.5445,27.57 L114.3365,27.273 C114.5125,27.592 114.5895,27.724 114.7105,27.834 C114.9415,28.065 115.3485,28.208 115.7555,28.208 C116.6355,28.208 117.3065,27.526 117.3065,26.624 C117.3065,25.689 116.6465,25.062 115.6785,25.062 C115.1065,25.062 114.5235,25.326 114.0505,25.81 L114.0505,21.663 L117.2405,21.663 Z"/>
    </g>
  </g>
</svg>
