<svg xmlns="http://www.w3.org/2000/svg" xmlns:xlink="http://www.w3.org/1999/xlink" width="180" height="180" viewBox="0 0 180 180">
  <defs>
    <path id="2-a" d="M7.50080778,33.0198796 L6.39650778,33.921 C5.10950778,34.977 3.21950778,34.776 2.17850778,33.495 C1.12850778,32.211 1.31750778,30.321 2.60450778,29.277 L30.0065078,6.912 C33.3455078,3.696 38.6555078,3.696 41.9945078,6.912 L69.3965078,29.277 C70.6835078,30.321 70.8725078,32.211 69.8225078,33.495 C69.2315078,34.221 68.3675078,34.599 67.4975078,34.599 C66.8315078,34.599 66.1625078,34.38 65.6045078,33.921 L64.5008078,33.0196768 L64.5008078,60.084 C64.5008078,64.227 61.1288078,67.599 56.9858078,67.599 L48.0158078,67.599 C43.8728078,67.599 40.5008078,64.227 40.5008078,60.084 L40.5008078,51.111 C40.5008078,50.277 39.8228078,49.599 38.9918078,49.599 L33.0098078,49.599 C32.1758078,49.599 31.5008078,50.277 31.5008078,51.111 L31.5008078,60.084 C31.5008078,64.227 28.1288078,67.599 23.9858078,67.599 L15.0158078,67.599 C10.8728078,67.599 7.50080778,64.227 7.50080778,60.084 L7.50080778,33.0198796 Z M13.5008078,28.1238168 L13.5008078,60.084 C13.5008078,60.918 14.1788078,61.599 15.0158078,61.599 L23.9858078,61.599 C24.8198078,61.599 25.5008078,60.918 25.5008078,60.084 L25.5008078,51.111 C25.5008078,46.968 28.8698078,43.599 33.0098078,43.599 L38.9918078,43.599 C43.1318078,43.599 46.5008078,46.968 46.5008078,51.111 L46.5008078,60.084 C46.5008078,60.918 47.1788078,61.599 48.0158078,61.599 L56.9858078,61.599 C57.8198078,61.599 58.5008078,60.918 58.5008078,60.084 L58.5008078,28.1198499 L37.8725078,11.274 C36.8405078,10.242 35.1605078,10.242 34.1285078,11.274 L33.9035078,11.475 L13.5008078,28.1238168 Z"/>
  </defs>
  <g fill="none" fill-rule="evenodd">
    <rect width="180" height="180" fill="#FFF" fill-opacity=".01" fill-rule="nonzero"/>
    <g transform="translate(54 54)">
      <path fill="#E1F1F6" d="M69.3955475,29.274 L41.9935475,6.912 C38.6545475,3.696 33.3445475,3.696 30.0055475,6.912 L2.60354754,29.274 C1.31954754,30.321 1.12754754,32.211 2.17754754,33.492 C3.21854754,34.773 5.10854754,34.974 6.39554754,33.921 L7.49954754,33.018 L7.49954754,60.084 C7.49954754,64.224 10.8715475,67.596 15.0145475,67.596 L23.9845475,67.596 C28.1275475,67.596 31.4995475,64.224 31.4995475,60.084 L31.4995475,51.108 C31.4995475,50.274 32.1775475,49.596 33.0085475,49.596 L38.9905475,49.596 C39.8245475,49.596 40.4995475,50.274 40.4995475,51.108 L40.4995475,60.084 C40.4995475,64.224 43.8715475,67.596 48.0145475,67.596 L56.9845475,67.596 C61.1275475,67.596 64.4995475,64.224 64.4995475,60.084 L64.4995475,33.018 L65.6035475,33.921 C66.1615475,34.377 66.8335475,34.596 67.4965475,34.596 C68.3665475,34.596 69.2305475,34.218 69.8245475,33.492 C70.8715475,32.211 70.6825475,30.321 69.3955475,29.274"/>
      <use fill="#004D8A" xlink:href="#2-a"/>
    </g>
  </g>
</svg>
