<svg xmlns="http://www.w3.org/2000/svg" width="380" height="180" viewBox="0 0 380 180">
  <g fill="none" fill-rule="evenodd">
    <rect width="380" height="180" fill="#FFF" fill-opacity=".01" fill-rule="nonzero"/>
    <g transform="translate(11 62)">
      <rect width="359" height="56" fill="#25333D" rx="14"/>
      <path fill="#FFF" d="M21.9765625,33.265625 C18.9140625,33.265625 17,31 17,27.3671875 C17,23.7265625 18.90625,21.4609375 21.96875,21.4609375 C24.34375,21.4609375 26.1953125,22.953125 26.53125,25.125 L25.1015625,25.125 C24.7265625,23.671875 23.5234375,22.7578125 21.96875,22.7578125 C19.8046875,22.7578125 18.4453125,24.5390625 18.4453125,27.3671875 C18.4453125,30.1953125 19.8046875,31.96875 21.9765625,31.96875 C23.546875,31.96875 24.7421875,31.1640625 25.1015625,29.859375 L26.53125,29.859375 C26.15625,31.9296875 24.375,33.265625 21.9765625,33.265625 Z M31.8596875,33.1484375 C29.46125,33.1484375 27.976875,31.4921875 27.976875,28.7890625 C27.976875,26.078125 29.46125,24.4296875 31.8596875,24.4296875 C34.258125,24.4296875 35.7425,26.078125 35.7425,28.7890625 C35.7425,31.4921875 34.258125,33.1484375 31.8596875,33.1484375 Z M31.8596875,31.9375 C33.4534375,31.9375 34.351875,30.78125 34.351875,28.7890625 C34.351875,26.7890625 33.4534375,25.640625 31.8596875,25.640625 C30.2659375,25.640625 29.3675,26.7890625 29.3675,28.7890625 C29.3675,30.78125 30.2659375,31.9375 31.8596875,31.9375 Z M41.6334375,24.4296875 C43.781875,24.4296875 45.1725,26.140625 45.1725,28.7890625 C45.1725,31.421875 43.7740625,33.1484375 41.6334375,33.1484375 C40.4303125,33.1484375 39.4615625,32.625 39.000625,31.734375 L38.875625,31.734375 L38.875625,35.8125 L37.531875,35.8125 L37.531875,24.578125 L38.813125,24.578125 L38.813125,25.984375 L38.938125,25.984375 C39.4771875,25.015625 40.485,24.4296875 41.6334375,24.4296875 Z M41.313125,31.9375 C42.86,31.9375 43.781875,30.7578125 43.781875,28.7890625 C43.781875,26.8203125 42.86,25.640625 41.3209375,25.640625 C39.7975,25.640625 38.8365625,26.8515625 38.8365625,28.7890625 C38.8365625,30.71875 39.7975,31.9375 41.313125,31.9375 Z M46.993125,33 L46.993125,24.578125 L48.336875,24.578125 L48.336875,33 L46.993125,33 Z M47.665,22.8671875 C47.149375,22.8671875 46.7275,22.4453125 46.7275,21.9296875 C46.7275,21.4140625 47.149375,20.9921875 47.665,20.9921875 C48.180625,20.9921875 48.6025,21.4140625 48.6025,21.9296875 C48.6025,22.4453125 48.180625,22.8671875 47.665,22.8671875 Z M53.93875,25.6171875 C52.595,25.6171875 51.6575,26.6015625 51.5559375,28.09375 L56.1965625,28.09375 C56.1653125,26.6015625 55.2746875,25.6171875 53.93875,25.6171875 Z M56.1575,30.8203125 L57.50125,30.8203125 C57.095,32.265625 55.798125,33.1484375 53.954375,33.1484375 C51.6184375,33.1484375 50.1575,31.4609375 50.1575,28.796875 C50.1575,26.1484375 51.641875,24.4296875 53.954375,24.4296875 C56.2278125,24.4296875 57.610625,26.046875 57.610625,28.6640625 L57.610625,29.1796875 L51.5559375,29.1796875 L51.5559375,29.2421875 C51.62625,30.90625 52.5559375,31.9609375 53.985625,31.9609375 C55.0715625,31.9609375 55.8059375,31.5625 56.1575,30.8203125 Z M62.5171875,33.1484375 C60.3609375,33.1484375 58.978125,31.4375 58.978125,28.7890625 C58.978125,26.1484375 60.3765625,24.4296875 62.5171875,24.4296875 C63.6890625,24.4296875 64.68125,24.984375 65.1578125,25.90625 L65.275,25.90625 L65.275,21.234375 L66.61875,21.234375 L66.61875,33 L65.3375,33 L65.3375,31.65625 L65.2125,31.65625 C64.68125,32.59375 63.68125,33.1484375 62.5171875,33.1484375 Z M62.8296875,25.640625 C61.2984375,25.640625 60.36875,26.828125 60.36875,28.7890625 C60.36875,30.7578125 61.290625,31.9375 62.8296875,31.9375 C64.3609375,31.9375 65.30625,30.734375 65.30625,28.7890625 C65.30625,26.859375 64.353125,25.640625 62.8296875,25.640625 Z M73.2756251,21.7265625 L77.5334376,21.7265625 C79.6662501,21.7265625 81.1428126,23.2265625 81.1428126,25.375 C81.1428126,27.484375 79.6350001,28.9765625 77.5178126,28.9765625 L74.6818751,28.9765625 L74.6818751,33 L73.2756251,33 L73.2756251,21.7265625 Z M74.6818751,22.9765625 L74.6818751,27.7265625 L77.1662501,27.7265625 C78.7678126,27.7265625 79.6975001,26.8671875 79.6975001,25.375 C79.6975001,23.828125 78.7990626,22.9765625 77.1662501,22.9765625 L74.6818751,22.9765625 Z M85.2290626,31.96875 C86.6118751,31.96875 87.6353126,31.0625 87.6353126,29.859375 L87.6353126,29.0859375 L85.3696876,29.234375 C84.0884376,29.3203125 83.5259376,29.765625 83.5259376,30.609375 C83.5259376,31.46875 84.2525001,31.96875 85.2290626,31.96875 Z M84.9790626,33.1484375 C83.3462501,33.1484375 82.1353126,32.1796875 82.1353126,30.640625 C82.1353126,29.1328125 83.2446876,28.265625 85.2056251,28.1484375 L87.6353126,28 L87.6353126,27.234375 C87.6353126,26.1953125 86.9868751,25.625 85.7290626,25.625 C84.7212501,25.625 84.0181251,26.0078125 83.8306251,26.671875 L82.4712501,26.671875 C82.6509376,25.3203125 83.9790626,24.4296875 85.7759376,24.4296875 C87.8306251,24.4296875 88.9790626,25.484375 88.9790626,27.234375 L88.9790626,33 L87.6978126,33 L87.6978126,31.7578125 L87.5728126,31.7578125 C87.0259376,32.65625 86.1040626,33.1484375 84.9790626,33.1484375 Z M91.1434376,33 L91.1434376,24.578125 L92.4246876,24.578125 L92.4246876,25.90625 L92.5496876,25.90625 C92.9325001,24.96875 93.7762501,24.4296875 94.9012501,24.4296875 C96.0418751,24.4296875 96.8387501,25.03125 97.2293751,25.90625 L97.3543751,25.90625 C97.8075001,25.015625 98.7684376,24.4296875 99.9325001,24.4296875 C101.65125,24.4296875 102.612188,25.4140625 102.612188,27.1796875 L102.612188,33 L101.268438,33 L101.268438,27.4921875 C101.268438,26.25 100.6825,25.640625 99.4950001,25.640625 C98.3231251,25.640625 97.5418751,26.515625 97.5418751,27.5859375 L97.5418751,33 L96.1981251,33 L96.1981251,27.28125 C96.1981251,26.28125 95.5028126,25.640625 94.4403126,25.640625 C93.3387501,25.640625 92.4871876,26.59375 92.4871876,27.78125 L92.4871876,33 L91.1434376,33 Z M106.128125,25.9375 L104.878125,25.9375 L104.878125,21.7265625 L106.128125,21.7265625 L106.128125,25.9375 Z M108.276875,26.8828125 C108.276875,25.484375 109.628438,24.4296875 111.4175,24.4296875 C113.183125,24.4296875 114.409688,25.3046875 114.589375,26.6875 L113.26125,26.6875 C113.081563,26.015625 112.425313,25.5703125 111.409688,25.5703125 C110.409688,25.5703125 109.628438,26.078125 109.628438,26.828125 C109.628438,27.40625 110.097188,27.765625 111.089375,28.0078125 L112.38625,28.3203125 C113.972188,28.703125 114.737813,29.390625 114.737813,30.6015625 C114.737813,32.109375 113.276875,33.1484375 111.362813,33.1484375 C109.487813,33.1484375 108.19875,32.25 108.050313,30.8515625 L109.433125,30.8515625 C109.659688,31.5625 110.331563,32.015625 111.409688,32.015625 C112.5425,32.015625 113.355,31.4765625 113.355,30.703125 C113.355,30.125 112.9175,29.734375 112.019063,29.515625 L110.57375,29.1640625 C108.995625,28.78125 108.276875,28.1015625 108.276875,26.8828125 Z M120.722813,33 L120.722813,24.578125 L122.004063,24.578125 L122.004063,25.90625 L122.129063,25.90625 C122.511875,24.96875 123.355625,24.4296875 124.480625,24.4296875 C125.62125,24.4296875 126.418125,25.03125 126.80875,25.90625 L126.93375,25.90625 C127.386875,25.015625 128.347813,24.4296875 129.511875,24.4296875 C131.230625,24.4296875 132.191563,25.4140625 132.191563,27.1796875 L132.191563,33 L130.847813,33 L130.847813,27.4921875 C130.847813,26.25 130.261875,25.640625 129.074375,25.640625 C127.9025,25.640625 127.12125,26.515625 127.12125,27.5859375 L127.12125,33 L125.7775,33 L125.7775,27.28125 C125.7775,26.28125 125.082188,25.640625 124.019688,25.640625 C122.918125,25.640625 122.066563,26.59375 122.066563,27.78125 L122.066563,33 L120.722813,33 Z M137.684063,25.6171875 C136.340313,25.6171875 135.402813,26.6015625 135.30125,28.09375 L139.941875,28.09375 C139.910625,26.6015625 139.02,25.6171875 137.684063,25.6171875 Z M139.902813,30.8203125 L141.246563,30.8203125 C140.840313,32.265625 139.543438,33.1484375 137.699688,33.1484375 C135.36375,33.1484375 133.902813,31.4609375 133.902813,28.796875 C133.902813,26.1484375 135.387188,24.4296875 137.699688,24.4296875 C139.973125,24.4296875 141.355938,26.046875 141.355938,28.6640625 L141.355938,29.1796875 L135.30125,29.1796875 L135.30125,29.2421875 C135.371563,30.90625 136.30125,31.9609375 137.730938,31.9609375 C138.816875,31.9609375 139.55125,31.5625 139.902813,30.8203125 Z M142.95,26.8828125 C142.95,25.484375 144.301563,24.4296875 146.090625,24.4296875 C147.85625,24.4296875 149.082813,25.3046875 149.2625,26.6875 L147.934375,26.6875 C147.754688,26.015625 147.098438,25.5703125 146.082813,25.5703125 C145.082813,25.5703125 144.301563,26.078125 144.301563,26.828125 C144.301563,27.40625 144.770313,27.765625 145.7625,28.0078125 L147.059375,28.3203125 C148.645313,28.703125 149.410938,29.390625 149.410938,30.6015625 C149.410938,32.109375 147.95,33.1484375 146.035938,33.1484375 C144.160938,33.1484375 142.871875,32.25 142.723438,30.8515625 L144.10625,30.8515625 C144.332813,31.5625 145.004688,32.015625 146.082813,32.015625 C147.215625,32.015625 148.028125,31.4765625 148.028125,30.703125 C148.028125,30.125 147.590625,29.734375 146.692188,29.515625 L145.246875,29.1640625 C143.66875,28.78125 142.95,28.1015625 142.95,26.8828125 Z M150.84875,26.8828125 C150.84875,25.484375 152.200313,24.4296875 153.989375,24.4296875 C155.755,24.4296875 156.981563,25.3046875 157.16125,26.6875 L155.833125,26.6875 C155.653438,26.015625 154.997188,25.5703125 153.981563,25.5703125 C152.981563,25.5703125 152.200313,26.078125 152.200313,26.828125 C152.200313,27.40625 152.669063,27.765625 153.66125,28.0078125 L154.958125,28.3203125 C156.544063,28.703125 157.309688,29.390625 157.309688,30.6015625 C157.309688,32.109375 155.84875,33.1484375 153.934688,33.1484375 C152.059688,33.1484375 150.770625,32.25 150.622188,30.8515625 L152.005,30.8515625 C152.231563,31.5625 152.903438,32.015625 153.981563,32.015625 C155.114375,32.015625 155.926875,31.4765625 155.926875,30.703125 C155.926875,30.125 155.489375,29.734375 154.590938,29.515625 L153.145625,29.1640625 C151.5675,28.78125 150.84875,28.1015625 150.84875,26.8828125 Z M161.692813,31.96875 C163.075625,31.96875 164.099063,31.0625 164.099063,29.859375 L164.099063,29.0859375 L161.833438,29.234375 C160.552188,29.3203125 159.989688,29.765625 159.989688,30.609375 C159.989688,31.46875 160.71625,31.96875 161.692813,31.96875 Z M161.442813,33.1484375 C159.81,33.1484375 158.599063,32.1796875 158.599063,30.640625 C158.599063,29.1328125 159.708438,28.265625 161.669375,28.1484375 L164.099063,28 L164.099063,27.234375 C164.099063,26.1953125 163.450625,25.625 162.192813,25.625 C161.185,25.625 160.481875,26.0078125 160.294375,26.671875 L158.935,26.671875 C159.114688,25.3203125 160.442813,24.4296875 162.239688,24.4296875 C164.294375,24.4296875 165.442813,25.484375 165.442813,27.234375 L165.442813,33 L164.161563,33 L164.161563,31.7578125 L164.036563,31.7578125 C163.489688,32.65625 162.567813,33.1484375 161.442813,33.1484375 Z M171.013438,31.6875 C172.575938,31.6875 173.513438,30.5 173.513438,28.6640625 C173.513438,26.828125 172.568125,25.640625 171.013438,25.640625 C169.450938,25.640625 168.575938,26.828125 168.575938,28.6640625 C168.575938,30.5 169.450938,31.6875 171.013438,31.6875 Z M171.075938,36.234375 C169.044688,36.234375 167.747813,35.3203125 167.544688,33.9296875 L168.966563,33.9296875 C169.115,34.6171875 169.865,35.0625 171.075938,35.0625 C172.58375,35.0625 173.482188,34.3203125 173.482188,33.078125 L173.482188,31.421875 L173.357188,31.421875 C172.825938,32.3515625 171.872813,32.875 170.716563,32.875 C168.536875,32.875 167.185313,31.1875 167.185313,28.6640625 C167.185313,26.140625 168.5525,24.4296875 170.716563,24.4296875 C171.89625,24.4296875 172.935313,25.0078125 173.419688,25.9140625 L173.544688,25.9140625 L173.544688,24.578125 L174.825938,24.578125 L174.825938,33.1484375 C174.825938,35.03125 173.372813,36.234375 171.075938,36.234375 Z M180.396563,25.6171875 C179.052813,25.6171875 178.115313,26.6015625 178.01375,28.09375 L182.654375,28.09375 C182.623125,26.6015625 181.7325,25.6171875 180.396563,25.6171875 Z M182.615313,30.8203125 L183.959063,30.8203125 C183.552813,32.265625 182.255938,33.1484375 180.412188,33.1484375 C178.07625,33.1484375 176.615313,31.4609375 176.615313,28.796875 C176.615313,26.1484375 178.099688,24.4296875 180.412188,24.4296875 C182.685625,24.4296875 184.068438,26.046875 184.068438,28.6640625 L184.068438,29.1796875 L178.01375,29.1796875 L178.01375,29.2421875 C178.084063,30.90625 179.01375,31.9609375 180.443438,31.9609375 C181.529375,31.9609375 182.26375,31.5625 182.615313,30.8203125 Z M190.615938,22.3984375 L191.959688,22.3984375 L191.959688,24.578125 L193.834688,24.578125 L193.834688,25.703125 L191.959688,25.703125 L191.959688,30.46875 C191.959688,31.4609375 192.334688,31.8828125 193.209688,31.8828125 C193.451875,31.8828125 193.584688,31.875 193.834688,31.8515625 L193.834688,32.984375 C193.569063,33.03125 193.31125,33.0625 193.045625,33.0625 C191.31125,33.0625 190.615938,32.421875 190.615938,30.8125 L190.615938,25.703125 L189.256563,25.703125 L189.256563,24.578125 L190.615938,24.578125 L190.615938,22.3984375 Z M198.889688,33.1484375 C196.49125,33.1484375 195.006875,31.4921875 195.006875,28.7890625 C195.006875,26.078125 196.49125,24.4296875 198.889688,24.4296875 C201.288125,24.4296875 202.7725,26.078125 202.7725,28.7890625 C202.7725,31.4921875 201.288125,33.1484375 198.889688,33.1484375 Z M198.889688,31.9375 C200.483438,31.9375 201.381875,30.78125 201.381875,28.7890625 C201.381875,26.7890625 200.483438,25.640625 198.889688,25.640625 C197.295938,25.640625 196.3975,26.7890625 196.3975,28.7890625 C196.3975,30.78125 197.295938,31.9375 198.889688,31.9375 Z M215.72625,27.15625 L214.366875,27.15625 C214.148125,26.3203125 213.405938,25.640625 212.195,25.640625 C210.679375,25.640625 209.72625,26.8515625 209.72625,28.7578125 C209.72625,30.703125 210.695,31.9375 212.195,31.9375 C213.327813,31.9375 214.116875,31.4140625 214.366875,30.4609375 L215.72625,30.4609375 C215.484063,32.0078125 214.22625,33.1484375 212.202813,33.1484375 C209.843438,33.1484375 208.335625,31.4375 208.335625,28.7578125 C208.335625,26.1328125 209.835625,24.4296875 212.195,24.4296875 C214.241875,24.4296875 215.491875,25.65625 215.72625,27.15625 Z M217.46875,33 L217.46875,21.234375 L218.8125,21.234375 L218.8125,33 L217.46875,33 Z M221.133125,33 L221.133125,24.578125 L222.476875,24.578125 L222.476875,33 L221.133125,33 Z M221.805,22.8671875 C221.289375,22.8671875 220.8675,22.4453125 220.8675,21.9296875 C220.8675,21.4140625 221.289375,20.9921875 221.805,20.9921875 C222.320625,20.9921875 222.7425,21.4140625 222.7425,21.9296875 C222.7425,22.4453125 222.320625,22.8671875 221.805,22.8671875 Z M228.820938,24.4296875 C230.969375,24.4296875 232.36,26.140625 232.36,28.7890625 C232.36,31.421875 230.961563,33.1484375 228.820938,33.1484375 C227.617813,33.1484375 226.649063,32.625 226.188125,31.734375 L226.063125,31.734375 L226.063125,35.8125 L224.719375,35.8125 L224.719375,24.578125 L226.000625,24.578125 L226.000625,25.984375 L226.125625,25.984375 C226.664688,25.015625 227.6725,24.4296875 228.820938,24.4296875 Z M228.500625,31.9375 C230.0475,31.9375 230.969375,30.7578125 230.969375,28.7890625 C230.969375,26.8203125 230.0475,25.640625 228.508438,25.640625 C226.985,25.640625 226.024063,26.8515625 226.024063,28.7890625 C226.024063,30.71875 226.985,31.9375 228.500625,31.9375 Z M238.336875,33.1484375 C237.165,33.1484375 236.165,32.59375 235.63375,31.65625 L235.50875,31.65625 L235.50875,33 L234.2275,33 L234.2275,21.234375 L235.57125,21.234375 L235.57125,25.90625 L235.69625,25.90625 C236.157188,25 237.180625,24.4296875 238.336875,24.4296875 C240.4775,24.4296875 241.868125,26.140625 241.868125,28.7890625 C241.868125,31.421875 240.469688,33.1484375 238.336875,33.1484375 Z M238.024375,25.640625 C236.493125,25.640625 235.54,26.84375 235.54,28.7890625 C235.54,30.734375 236.493125,31.9375 238.024375,31.9375 C239.563438,31.9375 240.4775,30.7578125 240.4775,28.7890625 C240.4775,26.8203125 239.563438,25.640625 238.024375,25.640625 Z M247.118438,33.1484375 C244.72,33.1484375 243.235625,31.4921875 243.235625,28.7890625 C243.235625,26.078125 244.72,24.4296875 247.118438,24.4296875 C249.516875,24.4296875 251.00125,26.078125 251.00125,28.7890625 C251.00125,31.4921875 249.516875,33.1484375 247.118438,33.1484375 Z M247.118438,31.9375 C248.712188,31.9375 249.610625,30.78125 249.610625,28.7890625 C249.610625,26.7890625 248.712188,25.640625 247.118438,25.640625 C245.524688,25.640625 244.62625,26.7890625 244.62625,28.7890625 C244.62625,30.78125 245.524688,31.9375 247.118438,31.9375 Z M255.384375,31.96875 C256.767188,31.96875 257.790625,31.0625 257.790625,29.859375 L257.790625,29.0859375 L255.525,29.234375 C254.24375,29.3203125 253.68125,29.765625 253.68125,30.609375 C253.68125,31.46875 254.407813,31.96875 255.384375,31.96875 Z M255.134375,33.1484375 C253.501563,33.1484375 252.290625,32.1796875 252.290625,30.640625 C252.290625,29.1328125 253.4,28.265625 255.360938,28.1484375 L257.790625,28 L257.790625,27.234375 C257.790625,26.1953125 257.142188,25.625 255.884375,25.625 C254.876563,25.625 254.173438,26.0078125 253.985938,26.671875 L252.626563,26.671875 C252.80625,25.3203125 254.134375,24.4296875 255.93125,24.4296875 C257.985938,24.4296875 259.134375,25.484375 259.134375,27.234375 L259.134375,33 L257.853125,33 L257.853125,31.7578125 L257.728125,31.7578125 C257.18125,32.65625 256.259375,33.1484375 255.134375,33.1484375 Z M261.29875,33 L261.29875,24.578125 L262.58,24.578125 L262.58,25.828125 L262.705,25.828125 C262.955,25.0078125 263.92375,24.4296875 265.040938,24.4296875 C265.259688,24.4296875 265.540938,24.4453125 265.712813,24.46875 L265.712813,25.8125 C265.603438,25.78125 265.119063,25.734375 264.853438,25.734375 C263.572188,25.734375 262.6425,26.59375 262.6425,27.78125 L262.6425,33 L261.29875,33 Z M269.955313,33.1484375 C267.799063,33.1484375 266.41625,31.4375 266.41625,28.7890625 C266.41625,26.1484375 267.814688,24.4296875 269.955313,24.4296875 C271.127188,24.4296875 272.119375,24.984375 272.595938,25.90625 L272.713125,25.90625 L272.713125,21.234375 L274.056875,21.234375 L274.056875,33 L272.775625,33 L272.775625,31.65625 L272.650625,31.65625 C272.119375,32.59375 271.119375,33.1484375 269.955313,33.1484375 Z M270.267813,25.640625 C268.736563,25.640625 267.806875,26.828125 267.806875,28.7890625 C267.806875,30.7578125 268.72875,31.9375 270.267813,31.9375 C271.799063,31.9375 272.744375,30.734375 272.744375,28.7890625 C272.744375,26.859375 271.79125,25.640625 270.267813,25.640625 Z M277.455625,33.078125 C276.900938,33.078125 276.44,32.6171875 276.44,32.0625 C276.44,31.5 276.900938,31.046875 277.455625,31.046875 C278.018125,31.046875 278.47125,31.5 278.47125,32.0625 C278.47125,32.6171875 278.018125,33.078125 277.455625,33.078125 Z"/>
    </g>
  </g>
</svg>
