<svg xmlns="http://www.w3.org/2000/svg" width="380" height="180" viewBox="0 0 380 180">
  <g fill="none" fill-rule="evenodd">
    <rect width="380" height="180" fill="#FFF" fill-opacity=".01" fill-rule="nonzero"/>
    <g transform="translate(11 62)">
      <rect width="359" height="56" fill="#25333D" rx="14"/>
      <path fill="#FFF" d="M21.953125,33 L20.546875,33 L20.546875,28.1484375 L16.546875,21.7265625 L18.1484375,21.7265625 L21.1875,26.734375 L21.3125,26.734375 L24.3515625,21.7265625 L25.953125,21.7265625 L21.953125,28.1484375 L21.953125,33 Z M29.5784375,33.1484375 C27.18,33.1484375 25.695625,31.4921875 25.695625,28.7890625 C25.695625,26.078125 27.18,24.4296875 29.5784375,24.4296875 C31.976875,24.4296875 33.46125,26.078125 33.46125,28.7890625 C33.46125,31.4921875 31.976875,33.1484375 29.5784375,33.1484375 Z M29.5784375,31.9375 C31.1721875,31.9375 32.070625,30.78125 32.070625,28.7890625 C32.070625,26.7890625 31.1721875,25.640625 29.5784375,25.640625 C27.9846875,25.640625 27.08625,26.7890625 27.08625,28.7890625 C27.08625,30.78125 27.9846875,31.9375 29.5784375,31.9375 Z M42.063125,24.578125 L42.063125,33 L40.781875,33 L40.781875,31.6796875 L40.656875,31.6796875 C40.235,32.6171875 39.3365625,33.1484375 38.0475,33.1484375 C36.156875,33.1484375 35.1725,32.0234375 35.1725,30.03125 L35.1725,24.578125 L36.51625,24.578125 L36.51625,29.703125 C36.51625,31.21875 37.07875,31.921875 38.4225,31.921875 C39.906875,31.921875 40.719375,31.0390625 40.719375,29.5625 L40.719375,24.578125 L42.063125,24.578125 Z M51.06375,31.96875 C52.4465625,31.96875 53.47,31.0625 53.47,29.859375 L53.47,29.0859375 L51.204375,29.234375 C49.923125,29.3203125 49.360625,29.765625 49.360625,30.609375 C49.360625,31.46875 50.0871875,31.96875 51.06375,31.96875 Z M50.81375,33.1484375 C49.1809375,33.1484375 47.97,32.1796875 47.97,30.640625 C47.97,29.1328125 49.079375,28.265625 51.0403125,28.1484375 L53.47,28 L53.47,27.234375 C53.47,26.1953125 52.8215625,25.625 51.56375,25.625 C50.5559375,25.625 49.8528125,26.0078125 49.6653125,26.671875 L48.3059375,26.671875 C48.485625,25.3203125 49.81375,24.4296875 51.610625,24.4296875 C53.6653125,24.4296875 54.81375,25.484375 54.81375,27.234375 L54.81375,33 L53.5325,33 L53.5325,31.7578125 L53.4075,31.7578125 C52.860625,32.65625 51.93875,33.1484375 50.81375,33.1484375 Z M56.978125,33 L56.978125,24.578125 L58.259375,24.578125 L58.259375,25.828125 L58.384375,25.828125 C58.634375,25.0078125 59.603125,24.4296875 60.7203125,24.4296875 C60.9390625,24.4296875 61.2203125,24.4453125 61.3921875,24.46875 L61.3921875,25.8125 C61.2828125,25.78125 60.7984375,25.734375 60.5328125,25.734375 C59.2515625,25.734375 58.321875,26.59375 58.321875,27.78125 L58.321875,33 L56.978125,33 Z M65.876875,25.6171875 C64.533125,25.6171875 63.595625,26.6015625 63.4940625,28.09375 L68.1346875,28.09375 C68.1034375,26.6015625 67.2128125,25.6171875 65.876875,25.6171875 Z M68.095625,30.8203125 L69.439375,30.8203125 C69.033125,32.265625 67.73625,33.1484375 65.8925,33.1484375 C63.5565625,33.1484375 62.095625,31.4609375 62.095625,28.796875 C62.095625,26.1484375 63.58,24.4296875 65.8925,24.4296875 C68.1659375,24.4296875 69.54875,26.046875 69.54875,28.6640625 L69.54875,29.1796875 L63.4940625,29.1796875 L63.4940625,29.2421875 C63.564375,30.90625 64.4940625,31.9609375 65.92375,31.9609375 C67.0096875,31.9609375 67.7440625,31.5625 68.095625,30.8203125 Z M79.7212501,33.1484375 C78.5493751,33.1484375 77.5493751,32.59375 77.0181251,31.65625 L76.8931251,31.65625 L76.8931251,33 L75.6118751,33 L75.6118751,21.234375 L76.9556251,21.234375 L76.9556251,25.90625 L77.0806251,25.90625 C77.5415626,25 78.5650001,24.4296875 79.7212501,24.4296875 C81.8618751,24.4296875 83.2525001,26.140625 83.2525001,28.7890625 C83.2525001,31.421875 81.8540626,33.1484375 79.7212501,33.1484375 Z M79.4087501,25.640625 C77.8775001,25.640625 76.9243751,26.84375 76.9243751,28.7890625 C76.9243751,30.734375 77.8775001,31.9375 79.4087501,31.9375 C80.9478126,31.9375 81.8618751,30.7578125 81.8618751,28.7890625 C81.8618751,26.8203125 80.9478126,25.640625 79.4087501,25.640625 Z M88.4012501,25.6171875 C87.0575001,25.6171875 86.1200001,26.6015625 86.0184376,28.09375 L90.6590626,28.09375 C90.6278126,26.6015625 89.7371876,25.6171875 88.4012501,25.6171875 Z M90.6200001,30.8203125 L91.9637501,30.8203125 C91.5575001,32.265625 90.2606251,33.1484375 88.4168751,33.1484375 C86.0809376,33.1484375 84.6200001,31.4609375 84.6200001,28.796875 C84.6200001,26.1484375 86.1043751,24.4296875 88.4168751,24.4296875 C90.6903126,24.4296875 92.0731251,26.046875 92.0731251,28.6640625 L92.0731251,29.1796875 L86.0184376,29.1796875 L86.0184376,29.2421875 C86.0887501,30.90625 87.0184376,31.9609375 88.4481251,31.9609375 C89.5340626,31.9609375 90.2684376,31.5625 90.6200001,30.8203125 Z M93.8937501,33 L93.8937501,24.578125 L95.2375001,24.578125 L95.2375001,33 L93.8937501,33 Z M94.5656251,22.8671875 C94.0500001,22.8671875 93.6281251,22.4453125 93.6281251,21.9296875 C93.6281251,21.4140625 94.0500001,20.9921875 94.5656251,20.9921875 C95.0812501,20.9921875 95.5031251,21.4140625 95.5031251,21.9296875 C95.5031251,22.4453125 95.0812501,22.8671875 94.5656251,22.8671875 Z M97.4800001,33 L97.4800001,24.578125 L98.7612501,24.578125 L98.7612501,25.90625 L98.8862501,25.90625 C99.3081251,24.9765625 100.128438,24.4296875 101.4175,24.4296875 C103.308125,24.4296875 104.362813,25.546875 104.362813,27.546875 L104.362813,33 L103.019063,33 L103.019063,27.875 C103.019063,26.359375 102.378438,25.640625 101.034688,25.640625 C99.6909376,25.640625 98.8237501,26.5390625 98.8237501,28.015625 L98.8237501,33 L97.4800001,33 Z M109.902188,31.6875 C111.464688,31.6875 112.402188,30.5 112.402188,28.6640625 C112.402188,26.828125 111.456875,25.640625 109.902188,25.640625 C108.339688,25.640625 107.464688,26.828125 107.464688,28.6640625 C107.464688,30.5 108.339688,31.6875 109.902188,31.6875 Z M109.964688,36.234375 C107.933438,36.234375 106.636563,35.3203125 106.433438,33.9296875 L107.855313,33.9296875 C108.00375,34.6171875 108.75375,35.0625 109.964688,35.0625 C111.4725,35.0625 112.370938,34.3203125 112.370938,33.078125 L112.370938,31.421875 L112.245938,31.421875 C111.714688,32.3515625 110.761563,32.875 109.605313,32.875 C107.425625,32.875 106.074063,31.1875 106.074063,28.6640625 C106.074063,26.140625 107.44125,24.4296875 109.605313,24.4296875 C110.785,24.4296875 111.824063,25.0078125 112.308438,25.9140625 L112.433438,25.9140625 L112.433438,24.578125 L113.714688,24.578125 L113.714688,33.1484375 C113.714688,35.03125 112.261563,36.234375 109.964688,36.234375 Z M119.92625,26.8828125 C119.92625,25.484375 121.277813,24.4296875 123.066875,24.4296875 C124.8325,24.4296875 126.059063,25.3046875 126.23875,26.6875 L124.910625,26.6875 C124.730938,26.015625 124.074688,25.5703125 123.059063,25.5703125 C122.059063,25.5703125 121.277813,26.078125 121.277813,26.828125 C121.277813,27.40625 121.746563,27.765625 122.73875,28.0078125 L124.035625,28.3203125 C125.621563,28.703125 126.387188,29.390625 126.387188,30.6015625 C126.387188,32.109375 124.92625,33.1484375 123.012188,33.1484375 C121.137188,33.1484375 119.848125,32.25 119.699688,30.8515625 L121.0825,30.8515625 C121.309063,31.5625 121.980938,32.015625 123.059063,32.015625 C124.191875,32.015625 125.004375,31.4765625 125.004375,30.703125 C125.004375,30.125 124.566875,29.734375 123.668438,29.515625 L122.223125,29.1640625 C120.645,28.78125 119.92625,28.1015625 119.92625,26.8828125 Z M128.207813,33 L128.207813,24.578125 L129.551563,24.578125 L129.551563,33 L128.207813,33 Z M128.879688,22.8671875 C128.364063,22.8671875 127.942188,22.4453125 127.942188,21.9296875 C127.942188,21.4140625 128.364063,20.9921875 128.879688,20.9921875 C129.395313,20.9921875 129.817188,21.4140625 129.817188,21.9296875 C129.817188,22.4453125 129.395313,22.8671875 128.879688,22.8671875 Z M135.200313,31.6875 C136.762813,31.6875 137.700313,30.5 137.700313,28.6640625 C137.700313,26.828125 136.755,25.640625 135.200313,25.640625 C133.637813,25.640625 132.762813,26.828125 132.762813,28.6640625 C132.762813,30.5 133.637813,31.6875 135.200313,31.6875 Z M135.262813,36.234375 C133.231563,36.234375 131.934688,35.3203125 131.731563,33.9296875 L133.153438,33.9296875 C133.301875,34.6171875 134.051875,35.0625 135.262813,35.0625 C136.770625,35.0625 137.669063,34.3203125 137.669063,33.078125 L137.669063,31.421875 L137.544063,31.421875 C137.012813,32.3515625 136.059688,32.875 134.903438,32.875 C132.72375,32.875 131.372188,31.1875 131.372188,28.6640625 C131.372188,26.140625 132.739375,24.4296875 134.903438,24.4296875 C136.083125,24.4296875 137.122188,25.0078125 137.606563,25.9140625 L137.731563,25.9140625 L137.731563,24.578125 L139.012813,24.578125 L139.012813,33.1484375 C139.012813,35.03125 137.559688,36.234375 135.262813,36.234375 Z M141.224063,33 L141.224063,24.578125 L142.505313,24.578125 L142.505313,25.90625 L142.630313,25.90625 C143.052188,24.9765625 143.8725,24.4296875 145.161563,24.4296875 C147.052188,24.4296875 148.106875,25.546875 148.106875,27.546875 L148.106875,33 L146.763125,33 L146.763125,27.875 C146.763125,26.359375 146.1225,25.640625 144.77875,25.640625 C143.435,25.640625 142.567813,26.5390625 142.567813,28.015625 L142.567813,33 L141.224063,33 Z M153.599375,25.6171875 C152.255625,25.6171875 151.318125,26.6015625 151.216563,28.09375 L155.857188,28.09375 C155.825938,26.6015625 154.935313,25.6171875 153.599375,25.6171875 Z M155.818125,30.8203125 L157.161875,30.8203125 C156.755625,32.265625 155.45875,33.1484375 153.615,33.1484375 C151.279063,33.1484375 149.818125,31.4609375 149.818125,28.796875 C149.818125,26.1484375 151.3025,24.4296875 153.615,24.4296875 C155.888438,24.4296875 157.27125,26.046875 157.27125,28.6640625 L157.27125,29.1796875 L151.216563,29.1796875 L151.216563,29.2421875 C151.286875,30.90625 152.216563,31.9609375 153.64625,31.9609375 C154.732188,31.9609375 155.466563,31.5625 155.818125,30.8203125 Z M162.177813,33.1484375 C160.021563,33.1484375 158.63875,31.4375 158.63875,28.7890625 C158.63875,26.1484375 160.037188,24.4296875 162.177813,24.4296875 C163.349688,24.4296875 164.341875,24.984375 164.818438,25.90625 L164.935625,25.90625 L164.935625,21.234375 L166.279375,21.234375 L166.279375,33 L164.998125,33 L164.998125,31.65625 L164.873125,31.65625 C164.341875,32.59375 163.341875,33.1484375 162.177813,33.1484375 Z M162.490313,25.640625 C160.959063,25.640625 160.029375,26.828125 160.029375,28.7890625 C160.029375,30.7578125 160.95125,31.9375 162.490313,31.9375 C164.021563,31.9375 164.966875,30.734375 164.966875,28.7890625 C164.966875,26.859375 164.01375,25.640625 162.490313,25.640625 Z M176.225313,33.1484375 C173.826875,33.1484375 172.3425,31.4921875 172.3425,28.7890625 C172.3425,26.078125 173.826875,24.4296875 176.225313,24.4296875 C178.62375,24.4296875 180.108125,26.078125 180.108125,28.7890625 C180.108125,31.4921875 178.62375,33.1484375 176.225313,33.1484375 Z M176.225313,31.9375 C177.819063,31.9375 178.7175,30.78125 178.7175,28.7890625 C178.7175,26.7890625 177.819063,25.640625 176.225313,25.640625 C174.631563,25.640625 173.733125,26.7890625 173.733125,28.7890625 C173.733125,30.78125 174.631563,31.9375 176.225313,31.9375 Z M188.71,24.578125 L188.71,33 L187.42875,33 L187.42875,31.6796875 L187.30375,31.6796875 C186.881875,32.6171875 185.983438,33.1484375 184.694375,33.1484375 C182.80375,33.1484375 181.819375,32.0234375 181.819375,30.03125 L181.819375,24.578125 L183.163125,24.578125 L183.163125,29.703125 C183.163125,31.21875 183.725625,31.921875 185.069375,31.921875 C186.55375,31.921875 187.36625,31.0390625 187.36625,29.5625 L187.36625,24.578125 L188.71,24.578125 Z M191.48375,22.3984375 L192.8275,22.3984375 L192.8275,24.578125 L194.7025,24.578125 L194.7025,25.703125 L192.8275,25.703125 L192.8275,30.46875 C192.8275,31.4609375 193.2025,31.8828125 194.0775,31.8828125 C194.319688,31.8828125 194.4525,31.875 194.7025,31.8515625 L194.7025,32.984375 C194.436875,33.03125 194.179063,33.0625 193.913438,33.0625 C192.179063,33.0625 191.48375,32.421875 191.48375,30.8125 L191.48375,25.703125 L190.124375,25.703125 L190.124375,24.578125 L191.48375,24.578125 L191.48375,22.3984375 Z M197.523125,33.078125 C196.968438,33.078125 196.5075,32.6171875 196.5075,32.0625 C196.5075,31.5 196.968438,31.046875 197.523125,31.046875 C198.085625,31.046875 198.53875,31.5 198.53875,32.0625 C198.53875,32.6171875 198.085625,33.078125 197.523125,33.078125 Z"/>
    </g>
  </g>
</svg>
