<svg xmlns="http://www.w3.org/2000/svg" width="380" height="180" viewBox="0 0 380 180">
  <g fill="none" fill-rule="evenodd">
    <rect width="380" height="180" fill="#FFF" fill-opacity=".01" fill-rule="nonzero"/>
    <g transform="translate(11 62)">
      <rect width="359" height="56" fill="#25333D" rx="14"/>
      <rect width="66" height="32" x="285" y="12"/>
      <path fill="#89CBDF" fill-rule="nonzero" d="M303.644043,22.0219727 L303.644043,29.675293 C303.644043,31.2939453 304.656738,32.3813477 306.433105,32.3813477 C308.209473,32.3813477 309.213867,31.2939453 309.213867,29.675293 L309.213867,22.0219727 L311.355469,22.0219727 L311.355469,29.8745117 C311.355469,32.4892578 309.462891,34.2988281 306.433105,34.2988281 C303.40332,34.2988281 301.510742,32.4892578 301.510742,29.8745117 L301.510742,22.0219727 L303.644043,22.0219727 Z M313.709629,34 L313.709629,24.9189453 L315.693516,24.9189453 L315.693516,26.371582 L315.834629,26.371582 C316.26627,25.3588867 317.179355,24.7363281 318.532383,24.7363281 C320.557773,24.7363281 321.661777,25.956543 321.661777,28.1230469 L321.661777,34 L319.603184,34 L319.603184,28.612793 C319.603184,27.2265625 319.022129,26.5292969 317.768711,26.5292969 C316.540195,26.5292969 315.768223,27.3759766 315.768223,28.7124023 L315.768223,34 L313.709629,34 Z M326.979316,34.1494141 C324.68,34.1494141 323.243965,32.3398438 323.243965,29.4511719 C323.243965,26.5791016 324.688301,24.7695312 326.979316,24.7695312 C328.224434,24.7695312 329.25373,25.3671875 329.735176,26.3632812 L329.876289,26.3632812 L329.876289,21.4077148 L331.934883,21.4077148 L331.934883,34 L329.942695,34 L329.942695,32.5639648 L329.801582,32.5639648 C329.286934,33.5600586 328.241035,34.1494141 326.979316,34.1494141 Z M327.618477,26.5209961 C326.215645,26.5209961 325.352363,27.6333008 325.352363,29.4594727 C325.352363,31.2939453 326.207344,32.3979492 327.618477,32.3979492 C329.03791,32.3979492 329.901191,31.2856445 329.901191,29.4594727 C329.901191,27.6499023 329.029609,26.5209961 327.618477,26.5209961 Z M338.040996,34.1826172 C335.31834,34.1826172 333.674785,32.40625 333.674785,29.4594727 C333.674785,26.5292969 335.343242,24.7363281 338.040996,24.7363281 C340.747051,24.7363281 342.407207,26.5209961 342.407207,29.4594727 C342.407207,32.40625 340.755352,34.1826172 338.040996,34.1826172 Z M338.040996,32.4560547 C339.477031,32.4560547 340.290508,31.3603516 340.290508,29.4594727 C340.290508,27.5668945 339.46873,26.4628906 338.040996,26.4628906 C336.604961,26.4628906 335.783184,27.5668945 335.783184,29.4594727 C335.783184,31.3603516 336.604961,32.4560547 338.040996,32.4560547 Z"/>
      <path fill="#FFF" d="M17.4375,21.7265625 L21.3046875,21.7265625 C24.6484375,21.7265625 26.625,23.8125 26.625,27.359375 C26.625,30.9140625 24.65625,33 21.3046875,33 L17.4375,33 L17.4375,21.7265625 Z M18.84375,22.9921875 L18.84375,31.734375 L21.2109375,31.734375 C23.7265625,31.734375 25.1875,30.125 25.1875,27.375 C25.1875,24.6171875 23.7109375,22.9921875 21.2109375,22.9921875 L18.84375,22.9921875 Z M31.9221875,25.6171875 C30.5784375,25.6171875 29.6409375,26.6015625 29.539375,28.09375 L34.18,28.09375 C34.14875,26.6015625 33.258125,25.6171875 31.9221875,25.6171875 Z M34.1409375,30.8203125 L35.4846875,30.8203125 C35.0784375,32.265625 33.7815625,33.1484375 31.9378125,33.1484375 C29.601875,33.1484375 28.1409375,31.4609375 28.1409375,28.796875 C28.1409375,26.1484375 29.6253125,24.4296875 31.9378125,24.4296875 C34.21125,24.4296875 35.5940625,26.046875 35.5940625,28.6640625 L35.5940625,29.1796875 L29.539375,29.1796875 L29.539375,29.2421875 C29.6096875,30.90625 30.539375,31.9609375 31.9690625,31.9609375 C33.055,31.9609375 33.789375,31.5625 34.1409375,30.8203125 Z M37.4615625,33 L37.4615625,21.234375 L38.8053125,21.234375 L38.8053125,33 L37.4615625,33 Z M44.4540625,25.6171875 C43.1103125,25.6171875 42.1728125,26.6015625 42.07125,28.09375 L46.711875,28.09375 C46.680625,26.6015625 45.79,25.6171875 44.4540625,25.6171875 Z M46.6728125,30.8203125 L48.0165625,30.8203125 C47.6103125,32.265625 46.3134375,33.1484375 44.4696875,33.1484375 C42.13375,33.1484375 40.6728125,31.4609375 40.6728125,28.796875 C40.6728125,26.1484375 42.1571875,24.4296875 44.4696875,24.4296875 C46.743125,24.4296875 48.1259375,26.046875 48.1259375,28.6640625 L48.1259375,29.1796875 L42.07125,29.1796875 L42.07125,29.2421875 C42.1415625,30.90625 43.07125,31.9609375 44.5009375,31.9609375 C45.586875,31.9609375 46.32125,31.5625 46.6728125,30.8203125 Z M50.4778125,22.3984375 L51.8215625,22.3984375 L51.8215625,24.578125 L53.6965625,24.578125 L53.6965625,25.703125 L51.8215625,25.703125 L51.8215625,30.46875 C51.8215625,31.4609375 52.1965625,31.8828125 53.0715625,31.8828125 C53.31375,31.8828125 53.4465625,31.875 53.6965625,31.8515625 L53.6965625,32.984375 C53.4309375,33.03125 53.173125,33.0625 52.9075,33.0625 C51.173125,33.0625 50.4778125,32.421875 50.4778125,30.8125 L50.4778125,25.703125 L49.1184375,25.703125 L49.1184375,24.578125 L50.4778125,24.578125 L50.4778125,22.3984375 Z M58.65,25.6171875 C57.30625,25.6171875 56.36875,26.6015625 56.2671875,28.09375 L60.9078125,28.09375 C60.8765625,26.6015625 59.9859375,25.6171875 58.65,25.6171875 Z M60.86875,30.8203125 L62.2125,30.8203125 C61.80625,32.265625 60.509375,33.1484375 58.665625,33.1484375 C56.3296875,33.1484375 54.86875,31.4609375 54.86875,28.796875 C54.86875,26.1484375 56.353125,24.4296875 58.665625,24.4296875 C60.9390625,24.4296875 62.321875,26.046875 62.321875,28.6640625 L62.321875,29.1796875 L56.2671875,29.1796875 L56.2671875,29.2421875 C56.3375,30.90625 57.2671875,31.9609375 58.696875,31.9609375 C59.7828125,31.9609375 60.5171875,31.5625 60.86875,30.8203125 Z M67.2284375,33.1484375 C65.0721875,33.1484375 63.689375,31.4375 63.689375,28.7890625 C63.689375,26.1484375 65.0878125,24.4296875 67.2284375,24.4296875 C68.4003125,24.4296875 69.3925,24.984375 69.8690625,25.90625 L69.98625,25.90625 L69.98625,21.234375 L71.33,21.234375 L71.33,33 L70.04875,33 L70.04875,31.65625 L69.92375,31.65625 C69.3925,32.59375 68.3925,33.1484375 67.2284375,33.1484375 Z M67.5409375,25.640625 C66.0096875,25.640625 65.08,26.828125 65.08,28.7890625 C65.08,30.7578125 66.001875,31.9375 67.5409375,31.9375 C69.0721875,31.9375 70.0175,30.734375 70.0175,28.7890625 C70.0175,26.859375 69.064375,25.640625 67.5409375,25.640625 Z M78.3775001,33 L78.3775001,25.703125 L76.9790626,25.703125 L76.9790626,24.578125 L78.3775001,24.578125 L78.3775001,23.640625 C78.3775001,21.9609375 79.2212501,21.15625 80.8228126,21.15625 C81.1509376,21.15625 81.4478126,21.1796875 81.7290626,21.234375 L81.7290626,22.328125 C81.5650001,22.296875 81.3384376,22.2890625 81.0962501,22.2890625 C80.1275001,22.2890625 79.7212501,22.7578125 79.7212501,23.6796875 L79.7212501,24.578125 L81.6509376,24.578125 L81.6509376,25.703125 L79.7212501,25.703125 L79.7212501,33 L78.3775001,33 Z M83.3153126,33 L83.3153126,24.578125 L84.6590626,24.578125 L84.6590626,33 L83.3153126,33 Z M83.9871876,22.8671875 C83.4715626,22.8671875 83.0496876,22.4453125 83.0496876,21.9296875 C83.0496876,21.4140625 83.4715626,20.9921875 83.9871876,20.9921875 C84.5028126,20.9921875 84.9246876,21.4140625 84.9246876,21.9296875 C84.9246876,22.4453125 84.5028126,22.8671875 83.9871876,22.8671875 Z M86.9796876,33 L86.9796876,21.234375 L88.3234376,21.234375 L88.3234376,33 L86.9796876,33 Z M93.9721876,25.6171875 C92.6284376,25.6171875 91.6909376,26.6015625 91.5893751,28.09375 L96.2300001,28.09375 C96.1987501,26.6015625 95.3081251,25.6171875 93.9721876,25.6171875 Z M96.1909376,30.8203125 L97.5346876,30.8203125 C97.1284376,32.265625 95.8315626,33.1484375 93.9878126,33.1484375 C91.6518751,33.1484375 90.1909376,31.4609375 90.1909376,28.796875 C90.1909376,26.1484375 91.6753126,24.4296875 93.9878126,24.4296875 C96.2612501,24.4296875 97.6440626,26.046875 97.6440626,28.6640625 L97.6440626,29.1796875 L91.5893751,29.1796875 L91.5893751,29.2421875 C91.6596876,30.90625 92.5893751,31.9609375 94.0190626,31.9609375 C95.1050001,31.9609375 95.8393751,31.5625 96.1909376,30.8203125 Z M105.011875,25.9375 L103.761875,25.9375 L103.761875,21.7265625 L105.011875,21.7265625 L105.011875,25.9375 Z M111.86375,33 L110.4575,33 L110.4575,22.9921875 L106.824688,22.9921875 L106.824688,21.7265625 L115.496563,21.7265625 L115.496563,22.9921875 L111.86375,22.9921875 L111.86375,33 Z M119.075,33.1484375 C116.676563,33.1484375 115.192188,31.4921875 115.192188,28.7890625 C115.192188,26.078125 116.676563,24.4296875 119.075,24.4296875 C121.473438,24.4296875 122.957813,26.078125 122.957813,28.7890625 C122.957813,31.4921875 121.473438,33.1484375 119.075,33.1484375 Z M119.075,31.9375 C120.66875,31.9375 121.567188,30.78125 121.567188,28.7890625 C121.567188,26.7890625 120.66875,25.640625 119.075,25.640625 C117.48125,25.640625 116.582813,26.7890625 116.582813,28.7890625 C116.582813,30.78125 117.48125,31.9375 119.075,31.9375 Z M128.934688,33.1484375 C127.762813,33.1484375 126.762813,32.59375 126.231563,31.65625 L126.106563,31.65625 L126.106563,33 L124.825313,33 L124.825313,21.234375 L126.169063,21.234375 L126.169063,25.90625 L126.294063,25.90625 C126.755,25 127.778438,24.4296875 128.934688,24.4296875 C131.075313,24.4296875 132.465938,26.140625 132.465938,28.7890625 C132.465938,31.421875 131.0675,33.1484375 128.934688,33.1484375 Z M128.622188,25.640625 C127.090938,25.640625 126.137813,26.84375 126.137813,28.7890625 C126.137813,30.734375 127.090938,31.9375 128.622188,31.9375 C130.16125,31.9375 131.075313,30.7578125 131.075313,28.7890625 C131.075313,26.8203125 130.16125,25.640625 128.622188,25.640625 Z M134.661563,36.046875 C134.481875,36.046875 134.2475,36.03125 134.06,36 L134.06,34.8515625 C134.224063,34.8828125 134.435,34.890625 134.6225,34.890625 C135.395938,34.890625 135.817813,34.5234375 136.169375,33.5078125 L136.325625,33.0078125 L133.208438,24.578125 L134.661563,24.578125 L136.974063,31.5078125 L137.099063,31.5078125 L139.40375,24.578125 L140.833438,24.578125 L137.544375,33.515625 C136.825625,35.46875 136.15375,36.046875 134.661563,36.046875 Z M148.084063,33 L146.677813,33 L146.677813,21.7265625 L153.521563,21.7265625 L153.521563,22.9921875 L148.084063,22.9921875 L148.084063,26.8671875 L153.07625,26.8671875 L153.07625,28.1171875 L148.084063,28.1171875 L148.084063,33 Z M155.420313,33 L155.420313,21.234375 L156.764063,21.234375 L156.764063,33 L155.420313,33 Z M162.412813,25.6171875 C161.069063,25.6171875 160.131563,26.6015625 160.03,28.09375 L164.670625,28.09375 C164.639375,26.6015625 163.74875,25.6171875 162.412813,25.6171875 Z M164.631563,30.8203125 L165.975313,30.8203125 C165.569063,32.265625 164.272188,33.1484375 162.428438,33.1484375 C160.0925,33.1484375 158.631563,31.4609375 158.631563,28.796875 C158.631563,26.1484375 160.115938,24.4296875 162.428438,24.4296875 C164.701875,24.4296875 166.084688,26.046875 166.084688,28.6640625 L166.084688,29.1796875 L160.03,29.1796875 L160.03,29.2421875 C160.100313,30.90625 161.03,31.9609375 162.459688,31.9609375 C163.545625,31.9609375 164.28,31.5625 164.631563,30.8203125 Z M167.874063,33 L167.874063,24.578125 L169.155313,24.578125 L169.155313,25.90625 L169.280313,25.90625 C169.702188,24.9765625 170.5225,24.4296875 171.811563,24.4296875 C173.702188,24.4296875 174.756875,25.546875 174.756875,27.546875 L174.756875,33 L173.413125,33 L173.413125,27.875 C173.413125,26.359375 172.7725,25.640625 171.42875,25.640625 C170.085,25.640625 169.217813,26.5390625 169.217813,28.015625 L169.217813,33 L167.874063,33 Z M180.007188,33.1484375 C177.850938,33.1484375 176.468125,31.4375 176.468125,28.7890625 C176.468125,26.1484375 177.866563,24.4296875 180.007188,24.4296875 C181.179063,24.4296875 182.17125,24.984375 182.647813,25.90625 L182.765,25.90625 L182.765,21.234375 L184.10875,21.234375 L184.10875,33 L182.8275,33 L182.8275,31.65625 L182.7025,31.65625 C182.17125,32.59375 181.17125,33.1484375 180.007188,33.1484375 Z M180.319688,25.640625 C178.788438,25.640625 177.85875,26.828125 177.85875,28.7890625 C177.85875,30.7578125 178.780625,31.9375 180.319688,31.9375 C181.850938,31.9375 182.79625,30.734375 182.79625,28.7890625 C182.79625,26.859375 181.843125,25.640625 180.319688,25.640625 Z M189.7575,25.6171875 C188.41375,25.6171875 187.47625,26.6015625 187.374688,28.09375 L192.015313,28.09375 C191.984063,26.6015625 191.093438,25.6171875 189.7575,25.6171875 Z M191.97625,30.8203125 L193.32,30.8203125 C192.91375,32.265625 191.616875,33.1484375 189.773125,33.1484375 C187.437188,33.1484375 185.97625,31.4609375 185.97625,28.796875 C185.97625,26.1484375 187.460625,24.4296875 189.773125,24.4296875 C192.046563,24.4296875 193.429375,26.046875 193.429375,28.6640625 L193.429375,29.1796875 L187.374688,29.1796875 L187.374688,29.2421875 C187.445,30.90625 188.374688,31.9609375 189.804375,31.9609375 C190.890313,31.9609375 191.624688,31.5625 191.97625,30.8203125 Z M195.21875,33 L195.21875,24.578125 L196.5,24.578125 L196.5,25.828125 L196.625,25.828125 C196.875,25.0078125 197.84375,24.4296875 198.960938,24.4296875 C199.179688,24.4296875 199.460938,24.4453125 199.632813,24.46875 L199.632813,25.8125 C199.523438,25.78125 199.039063,25.734375 198.773438,25.734375 C197.492188,25.734375 196.5625,26.59375 196.5625,27.78125 L196.5625,33 L195.21875,33 Z M200.640938,26.8828125 C200.640938,25.484375 201.9925,24.4296875 203.781563,24.4296875 C205.547188,24.4296875 206.77375,25.3046875 206.953438,26.6875 L205.625313,26.6875 C205.445625,26.015625 204.789375,25.5703125 203.77375,25.5703125 C202.77375,25.5703125 201.9925,26.078125 201.9925,26.828125 C201.9925,27.40625 202.46125,27.765625 203.453438,28.0078125 L204.750313,28.3203125 C206.33625,28.703125 207.101875,29.390625 207.101875,30.6015625 C207.101875,32.109375 205.640938,33.1484375 203.726875,33.1484375 C201.851875,33.1484375 200.562813,32.25 200.414375,30.8515625 L201.797188,30.8515625 C202.02375,31.5625 202.695625,32.015625 203.77375,32.015625 C204.906563,32.015625 205.719063,31.4765625 205.719063,30.703125 C205.719063,30.125 205.281563,29.734375 204.383125,29.515625 L202.937813,29.1640625 C201.359688,28.78125 200.640938,28.1015625 200.640938,26.8828125 Z M212.352188,33.1484375 C209.95375,33.1484375 208.469375,31.4921875 208.469375,28.7890625 C208.469375,26.078125 209.95375,24.4296875 212.352188,24.4296875 C214.750625,24.4296875 216.235,26.078125 216.235,28.7890625 C216.235,31.4921875 214.750625,33.1484375 212.352188,33.1484375 Z M212.352188,31.9375 C213.945938,31.9375 214.844375,30.78125 214.844375,28.7890625 C214.844375,26.7890625 213.945938,25.640625 212.352188,25.640625 C210.758438,25.640625 209.86,26.7890625 209.86,28.7890625 C209.86,30.78125 210.758438,31.9375 212.352188,31.9375 Z M218.024375,33 L218.024375,24.578125 L219.305625,24.578125 L219.305625,25.90625 L219.430625,25.90625 C219.8525,24.9765625 220.672813,24.4296875 221.961875,24.4296875 C223.8525,24.4296875 224.907188,25.546875 224.907188,27.546875 L224.907188,33 L223.563438,33 L223.563438,27.875 C223.563438,26.359375 222.922813,25.640625 221.579063,25.640625 C220.235313,25.640625 219.368125,26.5390625 219.368125,28.015625 L219.368125,33 L218.024375,33 Z M228.149688,33.078125 C227.595,33.078125 227.134063,32.6171875 227.134063,32.0625 C227.134063,31.5 227.595,31.046875 228.149688,31.046875 C228.712188,31.046875 229.165313,31.5 229.165313,32.0625 C229.165313,32.6171875 228.712188,33.078125 228.149688,33.078125 Z M235.571875,24.4296875 C237.720313,24.4296875 239.110938,26.140625 239.110938,28.7890625 C239.110938,31.421875 237.7125,33.1484375 235.571875,33.1484375 C234.36875,33.1484375 233.4,32.625 232.939063,31.734375 L232.814063,31.734375 L232.814063,35.8125 L231.470313,35.8125 L231.470313,24.578125 L232.751563,24.578125 L232.751563,25.984375 L232.876563,25.984375 C233.415625,25.015625 234.423438,24.4296875 235.571875,24.4296875 Z M235.251563,31.9375 C236.798438,31.9375 237.720313,30.7578125 237.720313,28.7890625 C237.720313,26.8203125 236.798438,25.640625 235.259375,25.640625 C233.735938,25.640625 232.775,26.8515625 232.775,28.7890625 C232.775,30.71875 233.735938,31.9375 235.251563,31.9375 Z M244.0175,33.1484375 C241.86125,33.1484375 240.478438,31.4375 240.478438,28.7890625 C240.478438,26.1484375 241.876875,24.4296875 244.0175,24.4296875 C245.189375,24.4296875 246.181563,24.984375 246.658125,25.90625 L246.775313,25.90625 L246.775313,21.234375 L248.119063,21.234375 L248.119063,33 L246.837813,33 L246.837813,31.65625 L246.712813,31.65625 C246.181563,32.59375 245.181563,33.1484375 244.0175,33.1484375 Z M244.33,25.640625 C242.79875,25.640625 241.869063,26.828125 241.869063,28.7890625 C241.869063,30.7578125 242.790938,31.9375 244.33,31.9375 C245.86125,31.9375 246.806563,30.734375 246.806563,28.7890625 C246.806563,26.859375 245.853438,25.640625 244.33,25.640625 Z M250.970938,33 L250.970938,25.703125 L249.5725,25.703125 L249.5725,24.578125 L250.970938,24.578125 L250.970938,23.640625 C250.970938,21.9609375 251.814688,21.15625 253.41625,21.15625 C253.744375,21.15625 254.04125,21.1796875 254.3225,21.234375 L254.3225,22.328125 C254.158438,22.296875 253.931875,22.2890625 253.689688,22.2890625 C252.720938,22.2890625 252.314688,22.7578125 252.314688,23.6796875 L252.314688,24.578125 L254.244375,24.578125 L254.244375,25.703125 L252.314688,25.703125 L252.314688,33 L250.970938,33 Z M257.260313,25.9375 L256.010313,25.9375 L256.010313,21.7265625 L257.260313,21.7265625 L257.260313,25.9375 Z M259.229375,33.078125 C258.674688,33.078125 258.21375,32.6171875 258.21375,32.0625 C258.21375,31.5 258.674688,31.046875 259.229375,31.046875 C259.791875,31.046875 260.245,31.5 260.245,32.0625 C260.245,32.6171875 259.791875,33.078125 259.229375,33.078125 Z"/>
    </g>
  </g>
</svg>
