<svg xmlns="http://www.w3.org/2000/svg" width="380" height="180" viewBox="0 0 380 180">
  <g fill="none" fill-rule="evenodd">
    <rect width="380" height="180" fill="#FFF" fill-opacity=".01" fill-rule="nonzero"/>
    <g transform="translate(11 62)">
      <rect width="359" height="56" fill="#25333D" rx="14"/>
      <rect width="66" height="32" x="285" y="12"/>
      <path fill="#89CBDF" fill-rule="nonzero" d="M324.648926,21.7231445 C328.126953,21.7231445 330.301758,24.1386719 330.301758,28.0068359 C330.301758,31.8666992 328.143555,34.2988281 324.648926,34.2988281 C321.129395,34.2988281 318.971191,31.875 318.971191,28.0068359 C318.971191,24.1386719 321.170898,21.7231445 324.648926,21.7231445 Z M324.648926,23.6240234 C322.515625,23.6240234 321.162598,25.3256836 321.162598,28.0068359 C321.162598,30.6796875 322.482422,32.3979492 324.648926,32.3979492 C326.782227,32.3979492 328.110352,30.6796875 328.110352,28.0068359 C328.110352,25.3256836 326.773926,23.6240234 324.648926,23.6240234 Z M334.48209,34 L332.340488,34 L332.340488,22.0219727 L334.48209,22.0219727 L334.48209,27.5336914 L334.623203,27.5336914 L339.346348,22.0219727 L341.803379,22.0219727 L337.279453,27.2431641 L342.160313,34 L339.545566,34 L335.76041,28.7124023 L334.48209,30.1816406 L334.48209,34 Z"/>
      <path fill="#FFF" d="M24.765625,33 L23.6328125,29.7734375 L19.1484375,29.7734375 L18.015625,33 L16.5390625,33 L20.6953125,21.7265625 L22.0859375,21.7265625 L26.2421875,33 L24.765625,33 Z M21.328125,23.546875 L19.5625,28.578125 L23.21875,28.578125 L21.453125,23.546875 L21.328125,23.546875 Z M30.3753125,33.1484375 C28.2190625,33.1484375 26.83625,31.4375 26.83625,28.7890625 C26.83625,26.1484375 28.2346875,24.4296875 30.3753125,24.4296875 C31.5471875,24.4296875 32.539375,24.984375 33.0159375,25.90625 L33.133125,25.90625 L33.133125,21.234375 L34.476875,21.234375 L34.476875,33 L33.195625,33 L33.195625,31.65625 L33.070625,31.65625 C32.539375,32.59375 31.539375,33.1484375 30.3753125,33.1484375 Z M30.6878125,25.640625 C29.1565625,25.640625 28.226875,26.828125 28.226875,28.7890625 C28.226875,30.7578125 29.14875,31.9375 30.6878125,31.9375 C32.2190625,31.9375 33.164375,30.734375 33.164375,28.7890625 C33.164375,26.859375 32.21125,25.640625 30.6878125,25.640625 Z M39.8834375,33.1484375 C37.7271875,33.1484375 36.344375,31.4375 36.344375,28.7890625 C36.344375,26.1484375 37.7428125,24.4296875 39.8834375,24.4296875 C41.0553125,24.4296875 42.0475,24.984375 42.5240625,25.90625 L42.64125,25.90625 L42.64125,21.234375 L43.985,21.234375 L43.985,33 L42.70375,33 L42.70375,31.65625 L42.57875,31.65625 C42.0475,32.59375 41.0475,33.1484375 39.8834375,33.1484375 Z M40.1959375,25.640625 C38.6646875,25.640625 37.735,26.828125 37.735,28.7890625 C37.735,30.7578125 38.656875,31.9375 40.1959375,31.9375 C41.7271875,31.9375 42.6725,30.734375 42.6725,28.7890625 C42.6725,26.859375 41.719375,25.640625 40.1959375,25.640625 Z M49.63375,25.6171875 C48.29,25.6171875 47.3525,26.6015625 47.2509375,28.09375 L51.8915625,28.09375 C51.8603125,26.6015625 50.9696875,25.6171875 49.63375,25.6171875 Z M51.8525,30.8203125 L53.19625,30.8203125 C52.79,32.265625 51.493125,33.1484375 49.649375,33.1484375 C47.3134375,33.1484375 45.8525,31.4609375 45.8525,28.796875 C45.8525,26.1484375 47.336875,24.4296875 49.649375,24.4296875 C51.9228125,24.4296875 53.305625,26.046875 53.305625,28.6640625 L53.305625,29.1796875 L47.2509375,29.1796875 L47.2509375,29.2421875 C47.32125,30.90625 48.2509375,31.9609375 49.680625,31.9609375 C50.7665625,31.9609375 51.5009375,31.5625 51.8525,30.8203125 Z M58.2121875,33.1484375 C56.0559375,33.1484375 54.673125,31.4375 54.673125,28.7890625 C54.673125,26.1484375 56.0715625,24.4296875 58.2121875,24.4296875 C59.3840625,24.4296875 60.37625,24.984375 60.8528125,25.90625 L60.97,25.90625 L60.97,21.234375 L62.31375,21.234375 L62.31375,33 L61.0325,33 L61.0325,31.65625 L60.9075,31.65625 C60.37625,32.59375 59.37625,33.1484375 58.2121875,33.1484375 Z M58.5246875,25.640625 C56.9934375,25.640625 56.06375,26.828125 56.06375,28.7890625 C56.06375,30.7578125 56.985625,31.9375 58.5246875,31.9375 C60.0559375,31.9375 61.00125,30.734375 61.00125,28.7890625 C61.00125,26.859375 60.048125,25.640625 58.5246875,25.640625 Z M70.1815625,25.9375 L68.9315625,25.9375 L68.9315625,21.7265625 L70.1815625,21.7265625 L70.1815625,25.9375 Z M72.6975001,21.7265625 L76.5646876,21.7265625 C79.9084376,21.7265625 81.8850001,23.8125 81.8850001,27.359375 C81.8850001,30.9140625 79.9162501,33 76.5646876,33 L72.6975001,33 L72.6975001,21.7265625 Z M74.1037501,22.9921875 L74.1037501,31.734375 L76.4709376,31.734375 C78.9865626,31.734375 80.4475001,30.125 80.4475001,27.375 C80.4475001,24.6171875 78.9709376,22.9921875 76.4709376,22.9921875 L74.1037501,22.9921875 Z M90.6353126,24.578125 L90.6353126,33 L89.3540626,33 L89.3540626,31.6796875 L89.2290626,31.6796875 C88.8071876,32.6171875 87.9087501,33.1484375 86.6196876,33.1484375 C84.7290626,33.1484375 83.7446876,32.0234375 83.7446876,30.03125 L83.7446876,24.578125 L85.0884376,24.578125 L85.0884376,29.703125 C85.0884376,31.21875 85.6509376,31.921875 86.9946876,31.921875 C88.4790626,31.921875 89.2915626,31.0390625 89.2915626,29.5625 L89.2915626,24.578125 L90.6353126,24.578125 Z M92.8465626,33 L92.8465626,24.578125 L94.1278126,24.578125 L94.1278126,25.90625 L94.2528126,25.90625 C94.6746876,24.9765625 95.4950001,24.4296875 96.7840626,24.4296875 C98.6746876,24.4296875 99.7293751,25.546875 99.7293751,27.546875 L99.7293751,33 L98.3856251,33 L98.3856251,27.875 C98.3856251,26.359375 97.7450001,25.640625 96.4012501,25.640625 C95.0575001,25.640625 94.1903126,26.5390625 94.1903126,28.015625 L94.1903126,33 L92.8465626,33 Z M104.979688,33.1484375 C102.823438,33.1484375 101.440625,31.4375 101.440625,28.7890625 C101.440625,26.1484375 102.839063,24.4296875 104.979688,24.4296875 C106.151563,24.4296875 107.14375,24.984375 107.620313,25.90625 L107.7375,25.90625 L107.7375,21.234375 L109.08125,21.234375 L109.08125,33 L107.8,33 L107.8,31.65625 L107.675,31.65625 C107.14375,32.59375 106.14375,33.1484375 104.979688,33.1484375 Z M105.292188,25.640625 C103.760938,25.640625 102.83125,26.828125 102.83125,28.7890625 C102.83125,30.7578125 103.753125,31.9375 105.292188,31.9375 C106.823438,31.9375 107.76875,30.734375 107.76875,28.7890625 C107.76875,26.859375 106.815625,25.640625 105.292188,25.640625 Z M114.73,25.6171875 C113.38625,25.6171875 112.44875,26.6015625 112.347188,28.09375 L116.987813,28.09375 C116.956563,26.6015625 116.065938,25.6171875 114.73,25.6171875 Z M116.94875,30.8203125 L118.2925,30.8203125 C117.88625,32.265625 116.589375,33.1484375 114.745625,33.1484375 C112.409688,33.1484375 110.94875,31.4609375 110.94875,28.796875 C110.94875,26.1484375 112.433125,24.4296875 114.745625,24.4296875 C117.019063,24.4296875 118.401875,26.046875 118.401875,28.6640625 L118.401875,29.1796875 L112.347188,29.1796875 L112.347188,29.2421875 C112.4175,30.90625 113.347188,31.9609375 114.776875,31.9609375 C115.862813,31.9609375 116.597188,31.5625 116.94875,30.8203125 Z M123.550625,25.6171875 C122.206875,25.6171875 121.269375,26.6015625 121.167813,28.09375 L125.808438,28.09375 C125.777188,26.6015625 124.886563,25.6171875 123.550625,25.6171875 Z M125.769375,30.8203125 L127.113125,30.8203125 C126.706875,32.265625 125.41,33.1484375 123.56625,33.1484375 C121.230313,33.1484375 119.769375,31.4609375 119.769375,28.796875 C119.769375,26.1484375 121.25375,24.4296875 123.56625,24.4296875 C125.839688,24.4296875 127.2225,26.046875 127.2225,28.6640625 L127.2225,29.1796875 L121.167813,29.1796875 L121.167813,29.2421875 C121.238125,30.90625 122.167813,31.9609375 123.5975,31.9609375 C124.683438,31.9609375 125.417813,31.5625 125.769375,30.8203125 Z M128.816563,26.8828125 C128.816563,25.484375 130.168125,24.4296875 131.957188,24.4296875 C133.722813,24.4296875 134.949375,25.3046875 135.129063,26.6875 L133.800938,26.6875 C133.62125,26.015625 132.965,25.5703125 131.949375,25.5703125 C130.949375,25.5703125 130.168125,26.078125 130.168125,26.828125 C130.168125,27.40625 130.636875,27.765625 131.629063,28.0078125 L132.925938,28.3203125 C134.511875,28.703125 135.2775,29.390625 135.2775,30.6015625 C135.2775,32.109375 133.816563,33.1484375 131.9025,33.1484375 C130.0275,33.1484375 128.738438,32.25 128.59,30.8515625 L129.972813,30.8515625 C130.199375,31.5625 130.87125,32.015625 131.949375,32.015625 C133.082188,32.015625 133.894688,31.4765625 133.894688,30.703125 C133.894688,30.125 133.457188,29.734375 132.55875,29.515625 L131.113438,29.1640625 C129.535313,28.78125 128.816563,28.1015625 128.816563,26.8828125 Z M138.449688,25.9375 L137.199688,25.9375 L137.199688,21.7265625 L138.449688,21.7265625 L138.449688,25.9375 Z M145.551875,22.3984375 L146.895625,22.3984375 L146.895625,24.578125 L148.770625,24.578125 L148.770625,25.703125 L146.895625,25.703125 L146.895625,30.46875 C146.895625,31.4609375 147.270625,31.8828125 148.145625,31.8828125 C148.387813,31.8828125 148.520625,31.875 148.770625,31.8515625 L148.770625,32.984375 C148.505,33.03125 148.247188,33.0625 147.981563,33.0625 C146.247188,33.0625 145.551875,32.421875 145.551875,30.8125 L145.551875,25.703125 L144.1925,25.703125 L144.1925,24.578125 L145.551875,24.578125 L145.551875,22.3984375 Z M153.825625,33.1484375 C151.427188,33.1484375 149.942813,31.4921875 149.942813,28.7890625 C149.942813,26.078125 151.427188,24.4296875 153.825625,24.4296875 C156.224063,24.4296875 157.708438,26.078125 157.708438,28.7890625 C157.708438,31.4921875 156.224063,33.1484375 153.825625,33.1484375 Z M153.825625,31.9375 C155.419375,31.9375 156.317813,30.78125 156.317813,28.7890625 C156.317813,26.7890625 155.419375,25.640625 153.825625,25.640625 C152.231875,25.640625 151.333438,26.7890625 151.333438,28.7890625 C151.333438,30.78125 152.231875,31.9375 153.825625,31.9375 Z M164.412188,36.046875 C164.2325,36.046875 163.998125,36.03125 163.810625,36 L163.810625,34.8515625 C163.974688,34.8828125 164.185625,34.890625 164.373125,34.890625 C165.146563,34.890625 165.568438,34.5234375 165.92,33.5078125 L166.07625,33.0078125 L162.959063,24.578125 L164.412188,24.578125 L166.724688,31.5078125 L166.849688,31.5078125 L169.154375,24.578125 L170.584063,24.578125 L167.295,33.515625 C166.57625,35.46875 165.904375,36.046875 164.412188,36.046875 Z M175.209375,33.1484375 C172.810938,33.1484375 171.326563,31.4921875 171.326563,28.7890625 C171.326563,26.078125 172.810938,24.4296875 175.209375,24.4296875 C177.607813,24.4296875 179.092188,26.078125 179.092188,28.7890625 C179.092188,31.4921875 177.607813,33.1484375 175.209375,33.1484375 Z M175.209375,31.9375 C176.803125,31.9375 177.701563,30.78125 177.701563,28.7890625 C177.701563,26.7890625 176.803125,25.640625 175.209375,25.640625 C173.615625,25.640625 172.717188,26.7890625 172.717188,28.7890625 C172.717188,30.78125 173.615625,31.9375 175.209375,31.9375 Z M187.694063,24.578125 L187.694063,33 L186.412813,33 L186.412813,31.6796875 L186.287813,31.6796875 C185.865938,32.6171875 184.9675,33.1484375 183.678438,33.1484375 C181.787813,33.1484375 180.803438,32.0234375 180.803438,30.03125 L180.803438,24.578125 L182.147188,24.578125 L182.147188,29.703125 C182.147188,31.21875 182.709688,31.921875 184.053438,31.921875 C185.537813,31.921875 186.350313,31.0390625 186.350313,29.5625 L186.350313,24.578125 L187.694063,24.578125 Z M189.905313,33 L189.905313,24.578125 L191.186563,24.578125 L191.186563,25.828125 L191.311563,25.828125 C191.561563,25.0078125 192.530313,24.4296875 193.6475,24.4296875 C193.86625,24.4296875 194.1475,24.4453125 194.319375,24.46875 L194.319375,25.8125 C194.21,25.78125 193.725625,25.734375 193.46,25.734375 C192.17875,25.734375 191.249063,26.59375 191.249063,27.78125 L191.249063,33 L189.905313,33 Z M206.843438,27.15625 L205.484063,27.15625 C205.265313,26.3203125 204.523125,25.640625 203.312188,25.640625 C201.796563,25.640625 200.843438,26.8515625 200.843438,28.7578125 C200.843438,30.703125 201.812188,31.9375 203.312188,31.9375 C204.445,31.9375 205.234063,31.4140625 205.484063,30.4609375 L206.843438,30.4609375 C206.60125,32.0078125 205.343438,33.1484375 203.32,33.1484375 C200.960625,33.1484375 199.452813,31.4375 199.452813,28.7578125 C199.452813,26.1328125 200.952813,24.4296875 203.312188,24.4296875 C205.359063,24.4296875 206.609063,25.65625 206.843438,27.15625 Z M211.101563,31.96875 C212.484375,31.96875 213.507813,31.0625 213.507813,29.859375 L213.507813,29.0859375 L211.242188,29.234375 C209.960938,29.3203125 209.398438,29.765625 209.398438,30.609375 C209.398438,31.46875 210.125,31.96875 211.101563,31.96875 Z M210.851563,33.1484375 C209.21875,33.1484375 208.007813,32.1796875 208.007813,30.640625 C208.007813,29.1328125 209.117188,28.265625 211.078125,28.1484375 L213.507813,28 L213.507813,27.234375 C213.507813,26.1953125 212.859375,25.625 211.601563,25.625 C210.59375,25.625 209.890625,26.0078125 209.703125,26.671875 L208.34375,26.671875 C208.523438,25.3203125 209.851563,24.4296875 211.648438,24.4296875 C213.703125,24.4296875 214.851563,25.484375 214.851563,27.234375 L214.851563,33 L213.570313,33 L213.570313,31.7578125 L213.445313,31.7578125 C212.898438,32.65625 211.976563,33.1484375 210.851563,33.1484375 Z M217.094063,33 L217.094063,21.234375 L218.437813,21.234375 L218.437813,33 L217.094063,33 Z M224.086563,25.6171875 C222.742813,25.6171875 221.805313,26.6015625 221.70375,28.09375 L226.344375,28.09375 C226.313125,26.6015625 225.4225,25.6171875 224.086563,25.6171875 Z M226.305313,30.8203125 L227.649063,30.8203125 C227.242813,32.265625 225.945938,33.1484375 224.102188,33.1484375 C221.76625,33.1484375 220.305313,31.4609375 220.305313,28.796875 C220.305313,26.1484375 221.789688,24.4296875 224.102188,24.4296875 C226.375625,24.4296875 227.758438,26.046875 227.758438,28.6640625 L227.758438,29.1796875 L221.70375,29.1796875 L221.70375,29.2421875 C221.774063,30.90625 222.70375,31.9609375 224.133438,31.9609375 C225.219375,31.9609375 225.95375,31.5625 226.305313,30.8203125 Z M229.547813,33 L229.547813,24.578125 L230.829063,24.578125 L230.829063,25.90625 L230.954063,25.90625 C231.375938,24.9765625 232.19625,24.4296875 233.485313,24.4296875 C235.375938,24.4296875 236.430625,25.546875 236.430625,27.546875 L236.430625,33 L235.086875,33 L235.086875,27.875 C235.086875,26.359375 234.44625,25.640625 233.1025,25.640625 C231.75875,25.640625 230.891563,26.5390625 230.891563,28.015625 L230.891563,33 L229.547813,33 Z M241.680938,33.1484375 C239.524688,33.1484375 238.141875,31.4375 238.141875,28.7890625 C238.141875,26.1484375 239.540313,24.4296875 241.680938,24.4296875 C242.852813,24.4296875 243.845,24.984375 244.321563,25.90625 L244.43875,25.90625 L244.43875,21.234375 L245.7825,21.234375 L245.7825,33 L244.50125,33 L244.50125,31.65625 L244.37625,31.65625 C243.845,32.59375 242.845,33.1484375 241.680938,33.1484375 Z M241.993438,25.640625 C240.462188,25.640625 239.5325,26.828125 239.5325,28.7890625 C239.5325,30.7578125 240.454375,31.9375 241.993438,31.9375 C243.524688,31.9375 244.47,30.734375 244.47,28.7890625 C244.47,26.859375 243.516875,25.640625 241.993438,25.640625 Z M250.665625,31.96875 C252.048438,31.96875 253.071875,31.0625 253.071875,29.859375 L253.071875,29.0859375 L250.80625,29.234375 C249.525,29.3203125 248.9625,29.765625 248.9625,30.609375 C248.9625,31.46875 249.689063,31.96875 250.665625,31.96875 Z M250.415625,33.1484375 C248.782813,33.1484375 247.571875,32.1796875 247.571875,30.640625 C247.571875,29.1328125 248.68125,28.265625 250.642188,28.1484375 L253.071875,28 L253.071875,27.234375 C253.071875,26.1953125 252.423438,25.625 251.165625,25.625 C250.157813,25.625 249.454688,26.0078125 249.267188,26.671875 L247.907813,26.671875 C248.0875,25.3203125 249.415625,24.4296875 251.2125,24.4296875 C253.267188,24.4296875 254.415625,25.484375 254.415625,27.234375 L254.415625,33 L253.134375,33 L253.134375,31.7578125 L253.009375,31.7578125 C252.4625,32.65625 251.540625,33.1484375 250.415625,33.1484375 Z M256.58,33 L256.58,24.578125 L257.86125,24.578125 L257.86125,25.828125 L257.98625,25.828125 C258.23625,25.0078125 259.205,24.4296875 260.322188,24.4296875 C260.540938,24.4296875 260.822188,24.4453125 260.994063,24.46875 L260.994063,25.8125 C260.884688,25.78125 260.400313,25.734375 260.134688,25.734375 C258.853438,25.734375 257.92375,26.59375 257.92375,27.78125 L257.92375,33 L256.58,33 Z M262.4475,33.078125 C261.892813,33.078125 261.431875,32.6171875 261.431875,32.0625 C261.431875,31.5 261.892813,31.046875 262.4475,31.046875 C263.01,31.046875 263.463125,31.5 263.463125,32.0625 C263.463125,32.6171875 263.01,33.078125 262.4475,33.078125 Z"/>
    </g>
  </g>
</svg>
