<svg xmlns="http://www.w3.org/2000/svg" xmlns:xlink="http://www.w3.org/1999/xlink" width="180" height="180" viewBox="0 0 180 180">
  <defs>
    <path id="1-a" d="M84,67.9988 L78.92,67.9988 L71.196,53.4148 C70.596,51.9548 69.172,50.9228 67.5,50.9228 C65.816,50.9228 64.392,51.9668 63.8,53.4388 L56.356,67.4868 L40.584,40.0908 L40.564,40.0908 C39.94,38.6908 38.548,37.7108 36.916,37.7108 C35.284,37.7108 33.892,38.6908 33.268,40.0908 L33.256,40.0908 L17.096,67.9988 L12,67.9988 L12,19.9988 C12,15.5828 15.584,11.9988 20,11.9988 L76,11.9988 C80.416,11.9988 84,15.5828 84,19.9988 L84,67.9988 Z M84,76.0828 C84,80.5028 80.416,84.0828 76,84.0828 L20,84.0828 C15.584,84.0828 12,80.5028 12,76.0828 L12,71.9988 L84,71.9988 L84,76.0828 Z M76,7.9988 L20,7.9988 C13.384,7.9988 8,13.3828 8,19.9988 L8,76.0828 C8,82.6988 13.384,88.0828 20,88.0828 L76,88.0828 C82.616,88.0828 88,82.6988 88,76.0828 L88,19.9988 C88,13.3828 82.616,7.9988 76,7.9988 Z M64,17.9988 C59.584,17.9988 56,21.5828 56,25.9988 C56,30.4148 59.584,33.9988 64,33.9988 C68.416,33.9988 72,30.4148 72,25.9988 C72,21.5828 68.416,17.9988 64,17.9988"/>
  </defs>
  <g fill="none" fill-rule="evenodd">
    <rect width="180" height="180" fill="#FFF" fill-opacity=".01" fill-rule="nonzero"/>
    <g transform="translate(42 35)">
      <path d="M17.1357997,68 L8,68 L8,19.9988 C8,13.3828 13.384,7.9988 20,7.9988 L76,7.9988 C82.616,7.9988 88,13.3828 88,19.9988 L88,68 L17.1357997,68 L78.9281732,67.9988 L70.9401855,52.8593824 C70.042806,51.5457382 68.8945516,50.888916 67.4954224,50.888916 C66.0962931,50.888916 64.9311523,51.5457382 64,52.8593824 L56.349847,67.5235665 L40.540949,40.0510205 C39.6537457,38.4961834 38.4215917,37.7187649 36.8444869,37.7187649 C35.2673822,37.7187649 34.0901766,38.4961834 33.3128702,40.0510205 L17.1357997,68 Z M88,72 L88,76.0828 C88,82.6988 82.616,88.0828 76,88.0828 L20,88.0828 C13.384,88.0828 8,82.6988 8,76.0828 L8,72 L88,72 Z M64,17.9988 C59.584,17.9988 56,21.5828 56,25.9988 C56,30.4148 59.584,33.9988 64,33.9988 C68.416,33.9988 72,30.4148 72,25.9988 C72,21.5828 68.416,17.9988 64,17.9988 Z"/>
      <use fill="#314351" xlink:href="#1-a"/>
      <path fill="#314351" d="M8.917,105.775 L5.628,105.775 L4.957,107.469 L4,107.469 L6.761,100.132 L7.861,100.132 L10.556,107.469 L9.522,107.469 L8.917,105.775 Z M8.631,104.983 L7.289,101.298 L5.903,104.983 L8.631,104.983 Z M14.461,102.398 L15.33,102.398 L13.416,107.469 L12.536,107.469 L10.677,102.398 L11.557,102.398 L12.987,106.27 L14.461,102.398 Z M18.421,102.277 C19.917,102.277 20.984,103.388 20.984,104.95 C20.984,106.435 19.84,107.59 18.388,107.59 C16.881,107.59 15.825,106.49 15.825,104.928 C15.825,103.355 16.881,102.277 18.421,102.277 Z M18.421,103.047 C17.376,103.047 16.683,103.806 16.683,104.939 C16.683,106.061 17.376,106.82 18.41,106.82 C19.411,106.82 20.126,106.039 20.126,104.939 C20.126,103.806 19.444,103.047 18.421,103.047 Z M23.096,102.398 L23.096,107.469 L22.26,107.469 L22.26,102.398 L23.096,102.398 Z M22.689,100.429 C22.986,100.429 23.217,100.671 23.217,100.979 C23.217,101.276 22.975,101.507 22.678,101.507 C22.381,101.507 22.15,101.276 22.15,100.968 C22.15,100.66 22.381,100.429 22.689,100.429 Z M28.574,103.168 L28.574,100.132 L29.41,100.132 L29.41,107.469 L28.574,107.469 L28.574,106.6 C28.068,107.293 27.529,107.59 26.759,107.59 C25.362,107.59 24.372,106.501 24.372,104.961 C24.372,103.421 25.384,102.277 26.759,102.277 C27.507,102.277 28.079,102.552 28.574,103.168 Z M26.935,103.025 C25.934,103.025 25.252,103.817 25.252,104.972 C25.252,106.083 25.923,106.864 26.88,106.864 C27.859,106.864 28.574,106.05 28.574,104.95 C28.574,103.806 27.903,103.025 26.935,103.025 Z M35.394,104.664 L35.394,107.469 L34.47,107.469 L34.47,100.132 L36.428,100.132 C38.166,100.132 39.123,100.924 39.123,102.376 C39.123,103.102 38.837,103.751 38.342,104.158 C37.913,104.499 37.341,104.664 36.527,104.664 L35.394,104.664 Z M35.394,103.872 L36.351,103.872 C36.747,103.872 37.011,103.839 37.264,103.74 C37.825,103.542 38.188,103.025 38.188,102.398 C38.188,101.771 37.836,101.265 37.253,101.067 C36.967,100.968 36.67,100.924 36.23,100.924 L35.394,100.924 L35.394,103.872 Z M41.235,101.859 L41.235,107.469 L40.311,107.469 L40.311,100.132 L41.158,100.132 L45.074,105.654 L45.074,100.132 L45.998,100.132 L45.998,107.469 L45.184,107.469 L41.235,101.859 Z M51.025,103.498 L54.523,103.498 C54.534,103.652 54.534,103.85 54.534,103.916 C54.534,104.895 54.314,105.577 53.775,106.259 C53.071,107.139 52.125,107.601 51.014,107.601 C48.924,107.601 47.395,106.006 47.395,103.817 C47.395,101.595 48.913,100 51.014,100 C52.125,100 53.082,100.462 53.775,101.331 L53.082,101.892 C52.796,101.573 52.664,101.441 52.466,101.309 C52.059,101.012 51.542,100.847 51.014,100.847 C49.496,100.847 48.341,102.123 48.341,103.806 C48.341,105.467 49.496,106.754 50.992,106.754 C51.806,106.754 52.653,106.325 53.104,105.676 C53.39,105.291 53.5,104.928 53.577,104.29 L51.025,104.29 L51.025,103.498 Z M58.978,103.784 L58.142,103.784 L58.142,103.729 C58.142,103.256 57.757,102.959 57.174,102.959 C56.613,102.959 56.261,103.245 56.261,103.685 C56.261,104.125 56.481,104.29 57.394,104.543 C58.043,104.719 58.384,104.884 58.626,105.126 C58.879,105.379 59.033,105.742 59.033,106.116 C59.033,106.996 58.307,107.59 57.229,107.59 C56.074,107.59 55.425,107.051 55.337,106.028 L56.162,106.028 C56.217,106.6 56.591,106.908 57.229,106.908 C57.801,106.908 58.175,106.611 58.175,106.16 C58.175,105.72 57.889,105.5 57.02,105.28 C55.92,104.983 55.425,104.521 55.425,103.751 C55.425,102.871 56.14,102.277 57.207,102.277 C58.285,102.277 58.934,102.827 58.978,103.784 Z M63.411,100.132 L59.726,109.845 L59.011,109.845 L62.696,100.132 L63.411,100.132 Z M67.162,100.132 L67.162,105.203 C67.162,106.237 66.777,106.919 65.996,107.271 C65.644,107.436 65.127,107.513 64.478,107.513 C64.401,107.513 64.269,107.513 64.115,107.502 L64.115,106.699 C64.335,106.721 64.445,106.721 64.566,106.721 C65.105,106.721 65.501,106.6 65.776,106.369 C66.128,106.061 66.238,105.643 66.238,104.686 L66.238,100.924 L64.115,100.924 L64.115,100.132 L67.162,100.132 Z M69.78,104.664 L69.78,107.469 L68.856,107.469 L68.856,100.132 L70.814,100.132 C72.552,100.132 73.509,100.924 73.509,102.376 C73.509,103.102 73.223,103.751 72.728,104.158 C72.299,104.499 71.727,104.664 70.913,104.664 L69.78,104.664 Z M69.78,103.872 L70.737,103.872 C71.133,103.872 71.397,103.839 71.65,103.74 C72.211,103.542 72.574,103.025 72.574,102.398 C72.574,101.771 72.222,101.265 71.639,101.067 C71.353,100.968 71.056,100.924 70.616,100.924 L69.78,100.924 L69.78,103.872 Z M75.533,100.924 L75.533,103.377 L78.426,103.377 L78.426,104.169 L75.533,104.169 L75.533,106.677 L78.426,106.677 L78.426,107.469 L74.609,107.469 L74.609,100.132 L78.426,100.132 L78.426,100.924 L75.533,100.924 Z M83.101,103.498 L86.599,103.498 C86.61,103.652 86.61,103.85 86.61,103.916 C86.61,104.895 86.39,105.577 85.851,106.259 C85.147,107.139 84.201,107.601 83.09,107.601 C81,107.601 79.471,106.006 79.471,103.817 C79.471,101.595 80.989,100 83.09,100 C84.201,100 85.158,100.462 85.851,101.331 L85.158,101.892 C84.872,101.573 84.74,101.441 84.542,101.309 C84.135,101.012 83.618,100.847 83.09,100.847 C81.572,100.847 80.417,102.123 80.417,103.806 C80.417,105.467 81.572,106.754 83.068,106.754 C83.882,106.754 84.729,106.325 85.18,105.676 C85.466,105.291 85.576,104.928 85.653,104.29 L83.101,104.29 L83.101,103.498 Z M91.054,103.784 L90.218,103.784 L90.218,103.729 C90.218,103.256 89.833,102.959 89.25,102.959 C88.689,102.959 88.337,103.245 88.337,103.685 C88.337,104.125 88.557,104.29 89.47,104.543 C90.119,104.719 90.46,104.884 90.702,105.126 C90.955,105.379 91.109,105.742 91.109,106.116 C91.109,106.996 90.383,107.59 89.305,107.59 C88.15,107.59 87.501,107.051 87.413,106.028 L88.238,106.028 C88.293,106.6 88.667,106.908 89.305,106.908 C89.877,106.908 90.251,106.611 90.251,106.16 C90.251,105.72 89.965,105.5 89.096,105.28 C87.996,104.983 87.501,104.521 87.501,103.751 C87.501,102.871 88.216,102.277 89.283,102.277 C90.361,102.277 91.01,102.827 91.054,103.784 Z"/>
    </g>
  </g>
</svg>
