<svg xmlns="http://www.w3.org/2000/svg" xmlns:xlink="http://www.w3.org/1999/xlink" width="180" height="180" viewBox="0 0 180 180">
  <defs>
    <path id="1-a" d="M105,84.9985 L98.65,84.9985 L88.995,66.7685 C88.245,64.9435 86.465,63.6535 84.375,63.6535 C82.27,63.6535 80.49,64.9585 79.75,66.7985 L70.445,84.3585 L50.73,50.1135 L50.705,50.1135 C49.925,48.3635 48.185,47.1385 46.145,47.1385 C44.105,47.1385 42.365,48.3635 41.585,50.1135 L41.57,50.1135 L21.37,84.9985 L15,84.9985 L15,24.9985 C15,19.4785 19.48,14.9985 25,14.9985 L95,14.9985 C100.52,14.9985 105,19.4785 105,24.9985 L105,84.9985 Z M105,95.1035 C105,100.6285 100.52,105.1035 95,105.1035 L25,105.1035 C19.48,105.1035 15,100.6285 15,95.1035 L15,89.9985 L105,89.9985 L105,95.1035 Z M95,9.9985 L25,9.9985 C16.73,9.9985 10,16.7285 10,24.9985 L10,95.1035 C10,103.3735 16.73,110.1035 25,110.1035 L95,110.1035 C103.27,110.1035 110,103.3735 110,95.1035 L110,24.9985 C110,16.7285 103.27,9.9985 95,9.9985 Z M80,22.4985 C74.48,22.4985 70,26.9785 70,32.4985 C70,38.0185 74.48,42.4985 80,42.4985 C85.52,42.4985 90,38.0185 90,32.4985 C90,26.9785 85.52,22.4985 80,22.4985"/>
  </defs>
  <g fill="none" fill-rule="evenodd">
    <rect width="180" height="180" fill="#FFF" fill-opacity=".01" fill-rule="nonzero"/>
    <g transform="translate(30 23)">
      <path d="M21.4197496,85 L10,85 L10,24.9985 C10,16.7285 16.73,9.9985 25,9.9985 L95,9.9985 C103.27,9.9985 110,16.7285 110,24.9985 L110,85 L21.4197496,85 L98.6602165,84.9985 L88.6752319,66.074228 C87.5535075,64.4321727 86.1181895,63.611145 84.369278,63.611145 C82.6203664,63.611145 81.1639404,64.4321727 80,66.074228 L70.4373087,84.4044581 L50.6761863,50.0637756 C49.5671821,48.1202292 48.0269896,47.1484561 46.0556086,47.1484561 C44.0842277,47.1484561 42.6127207,48.1202292 41.6410878,50.0637756 L21.4197496,85 Z M110,90 L110,95.1035 C110,103.3735 103.27,110.1035 95,110.1035 L25,110.1035 C16.73,110.1035 10,103.3735 10,95.1035 L10,90 L110,90 Z M80,22.4985 C74.48,22.4985 70,26.9785 70,32.4985 C70,38.0185 74.48,42.4985 80,42.4985 C85.52,42.4985 90,38.0185 90,32.4985 C90,26.9785 85.52,22.4985 80,22.4985 Z"/>
      <use fill="#314351" xlink:href="#1-a"/>
      <path fill="#314351" d="M21.1645,129.306 L17.8755,129.306 L17.2045,131 L16.2475,131 L19.0085,123.663 L20.1085,123.663 L22.8035,131 L21.7695,131 L21.1645,129.306 Z M20.8785,128.514 L19.5365,124.829 L18.1505,128.514 L20.8785,128.514 Z M26.7085,125.929 L27.5775,125.929 L25.6635,131 L24.7835,131 L22.9245,125.929 L23.8045,125.929 L25.2345,129.801 L26.7085,125.929 Z M30.6685,125.808 C32.1645,125.808 33.2315,126.919 33.2315,128.481 C33.2315,129.966 32.0875,131.121 30.6355,131.121 C29.1285,131.121 28.0725,130.021 28.0725,128.459 C28.0725,126.886 29.1285,125.808 30.6685,125.808 Z M30.6685,126.578 C29.6235,126.578 28.9305,127.337 28.9305,128.47 C28.9305,129.592 29.6235,130.351 30.6575,130.351 C31.6585,130.351 32.3735,129.57 32.3735,128.47 C32.3735,127.337 31.6915,126.578 30.6685,126.578 Z M35.3435,125.929 L35.3435,131 L34.5075,131 L34.5075,125.929 L35.3435,125.929 Z M34.9365,123.96 C35.2335,123.96 35.4645,124.202 35.4645,124.51 C35.4645,124.807 35.2225,125.038 34.9255,125.038 C34.6285,125.038 34.3975,124.807 34.3975,124.499 C34.3975,124.191 34.6285,123.96 34.9365,123.96 Z M40.8215,126.699 L40.8215,123.663 L41.6575,123.663 L41.6575,131 L40.8215,131 L40.8215,130.131 C40.3155,130.824 39.7765,131.121 39.0065,131.121 C37.6095,131.121 36.6195,130.032 36.6195,128.492 C36.6195,126.952 37.6315,125.808 39.0065,125.808 C39.7545,125.808 40.3265,126.083 40.8215,126.699 Z M39.1825,126.556 C38.1815,126.556 37.4995,127.348 37.4995,128.503 C37.4995,129.614 38.1705,130.395 39.1275,130.395 C40.1065,130.395 40.8215,129.581 40.8215,128.481 C40.8215,127.337 40.1505,126.556 39.1825,126.556 Z M47.6415,128.195 L47.6415,131 L46.7175,131 L46.7175,123.663 L48.6755,123.663 C50.4135,123.663 51.3705,124.455 51.3705,125.907 C51.3705,126.633 51.0845,127.282 50.5895,127.689 C50.1605,128.03 49.5885,128.195 48.7745,128.195 L47.6415,128.195 Z M47.6415,127.403 L48.5985,127.403 C48.9945,127.403 49.2585,127.37 49.5115,127.271 C50.0725,127.073 50.4355,126.556 50.4355,125.929 C50.4355,125.302 50.0835,124.796 49.5005,124.598 C49.2145,124.499 48.9175,124.455 48.4775,124.455 L47.6415,124.455 L47.6415,127.403 Z M53.4825,125.39 L53.4825,131 L52.5585,131 L52.5585,123.663 L53.4055,123.663 L57.3215,129.185 L57.3215,123.663 L58.2455,123.663 L58.2455,131 L57.4315,131 L53.4825,125.39 Z M63.2725,127.029 L66.7705,127.029 C66.7815,127.183 66.7815,127.381 66.7815,127.447 C66.7815,128.426 66.5615,129.108 66.0225,129.79 C65.3185,130.67 64.3725,131.132 63.2615,131.132 C61.1715,131.132 59.6425,129.537 59.6425,127.348 C59.6425,125.126 61.1605,123.531 63.2615,123.531 C64.3725,123.531 65.3295,123.993 66.0225,124.862 L65.3295,125.423 C65.0435,125.104 64.9115,124.972 64.7135,124.84 C64.3065,124.543 63.7895,124.378 63.2615,124.378 C61.7435,124.378 60.5885,125.654 60.5885,127.337 C60.5885,128.998 61.7435,130.285 63.2395,130.285 C64.0535,130.285 64.9005,129.856 65.3515,129.207 C65.6375,128.822 65.7475,128.459 65.8245,127.821 L63.2725,127.821 L63.2725,127.029 Z M71.2255,127.315 L70.3895,127.315 L70.3895,127.26 C70.3895,126.787 70.0045,126.49 69.4215,126.49 C68.8605,126.49 68.5085,126.776 68.5085,127.216 C68.5085,127.656 68.7285,127.821 69.6415,128.074 C70.2905,128.25 70.6315,128.415 70.8735,128.657 C71.1265,128.91 71.2805,129.273 71.2805,129.647 C71.2805,130.527 70.5545,131.121 69.4765,131.121 C68.3215,131.121 67.6725,130.582 67.5845,129.559 L68.4095,129.559 C68.4645,130.131 68.8385,130.439 69.4765,130.439 C70.0485,130.439 70.4225,130.142 70.4225,129.691 C70.4225,129.251 70.1365,129.031 69.2675,128.811 C68.1675,128.514 67.6725,128.052 67.6725,127.282 C67.6725,126.402 68.3875,125.808 69.4545,125.808 C70.5325,125.808 71.1815,126.358 71.2255,127.315 Z M75.6585,123.663 L71.9735,133.376 L71.2585,133.376 L74.9435,123.663 L75.6585,123.663 Z M79.4095,123.663 L79.4095,128.734 C79.4095,129.768 79.0245,130.45 78.2435,130.802 C77.8915,130.967 77.3745,131.044 76.7255,131.044 C76.6485,131.044 76.5165,131.044 76.3625,131.033 L76.3625,130.23 C76.5825,130.252 76.6925,130.252 76.8135,130.252 C77.3525,130.252 77.7485,130.131 78.0235,129.9 C78.3755,129.592 78.4855,129.174 78.4855,128.217 L78.4855,124.455 L76.3625,124.455 L76.3625,123.663 L79.4095,123.663 Z M82.0275,128.195 L82.0275,131 L81.1035,131 L81.1035,123.663 L83.0615,123.663 C84.7995,123.663 85.7565,124.455 85.7565,125.907 C85.7565,126.633 85.4705,127.282 84.9755,127.689 C84.5465,128.03 83.9745,128.195 83.1605,128.195 L82.0275,128.195 Z M82.0275,127.403 L82.9845,127.403 C83.3805,127.403 83.6445,127.37 83.8975,127.271 C84.4585,127.073 84.8215,126.556 84.8215,125.929 C84.8215,125.302 84.4695,124.796 83.8865,124.598 C83.6005,124.499 83.3035,124.455 82.8635,124.455 L82.0275,124.455 L82.0275,127.403 Z M87.7805,124.455 L87.7805,126.908 L90.6735,126.908 L90.6735,127.7 L87.7805,127.7 L87.7805,130.208 L90.6735,130.208 L90.6735,131 L86.8565,131 L86.8565,123.663 L90.6735,123.663 L90.6735,124.455 L87.7805,124.455 Z M95.3485,127.029 L98.8465,127.029 C98.8575,127.183 98.8575,127.381 98.8575,127.447 C98.8575,128.426 98.6375,129.108 98.0985,129.79 C97.3945,130.67 96.4485,131.132 95.3375,131.132 C93.2475,131.132 91.7185,129.537 91.7185,127.348 C91.7185,125.126 93.2365,123.531 95.3375,123.531 C96.4485,123.531 97.4055,123.993 98.0985,124.862 L97.4055,125.423 C97.1195,125.104 96.9875,124.972 96.7895,124.84 C96.3825,124.543 95.8655,124.378 95.3375,124.378 C93.8195,124.378 92.6645,125.654 92.6645,127.337 C92.6645,128.998 93.8195,130.285 95.3155,130.285 C96.1295,130.285 96.9765,129.856 97.4275,129.207 C97.7135,128.822 97.8235,128.459 97.9005,127.821 L95.3485,127.821 L95.3485,127.029 Z M103.3015,127.315 L102.4655,127.315 L102.4655,127.26 C102.4655,126.787 102.0805,126.49 101.4975,126.49 C100.9365,126.49 100.5845,126.776 100.5845,127.216 C100.5845,127.656 100.8045,127.821 101.7175,128.074 C102.3665,128.25 102.7075,128.415 102.9495,128.657 C103.2025,128.91 103.3565,129.273 103.3565,129.647 C103.3565,130.527 102.6305,131.121 101.5525,131.121 C100.3975,131.121 99.7485,130.582 99.6605,129.559 L100.4855,129.559 C100.5405,130.131 100.9145,130.439 101.5525,130.439 C102.1245,130.439 102.4985,130.142 102.4985,129.691 C102.4985,129.251 102.2125,129.031 101.3435,128.811 C100.2435,128.514 99.7485,128.052 99.7485,127.282 C99.7485,126.402 100.4635,125.808 101.5305,125.808 C102.6085,125.808 103.2575,126.358 103.3015,127.315 Z"/>
    </g>
  </g>
</svg>
