<svg xmlns="http://www.w3.org/2000/svg" xmlns:xlink="http://www.w3.org/1999/xlink" width="380" height="180" viewBox="0 0 380 180">
  <defs>
    <path id="2-a" d="M36,6 C34.3581838,6 32.7163676,6.92395096 32.0534585,8.77528765 L27.4611818,21.5526021 C26.8772723,23.1738097 25.3625423,24.2729335 23.6417265,24.3278897 L10.0709821,24.7434959 C6.14161446,24.8671473 4.52384158,29.8406826 7.63230114,32.2518855 L18.3659322,40.5674442 C19.7260979,41.6219161 20.3065727,43.4045575 19.825706,45.056678 L16.0302941,58.0950343 C15.1853426,60.9939734 17.4797636,63.4773063 20.0661394,63.4773063 C20.8492651,63.4773063 21.6564341,63.2471773 22.4120818,62.7353977 L33.6403185,55.0964872 C34.354749,54.608751 35.1756571,54.3683176 36,54.3683176 C36.8243429,54.3683176 37.645251,54.608751 38.3596815,55.0964872 L49.5879182,62.7353977 C50.3435659,63.250612 51.1507349,63.4773063 51.9338606,63.4773063 C54.5202364,63.4773063 56.8146574,60.9939734 55.9697059,58.0950343 L52.174294,45.056678 C51.6934273,43.4045575 52.2739021,41.6219161 53.6340678,40.5674442 L64.3676989,32.2518855 C67.4761584,29.8406826 65.8583855,24.8671473 61.9290179,24.7434959 L48.3582735,24.3278897 C46.6374577,24.2729335 45.1227277,23.1738097 44.5388182,21.5526021 L39.9465415,8.77528765 C39.2836324,6.92395096 37.6418162,6 36,6 M36,9.43476194 C36.5323881,9.43476194 36.6697786,9.80915099 36.7144305,9.93623718 L41.3067072,22.7135516 C42.3714834,25.6811859 45.0986844,27.6630436 48.2483611,27.7592169 L61.825975,28.1782578 C61.956496,28.1816926 62.3583631,28.1954317 62.5232317,28.7003417 C62.6881003,29.2121212 62.3686674,29.4559893 62.2656246,29.5384236 L51.5285587,37.8539822 C49.0383563,39.7843184 47.9976235,42.9889513 48.8803573,46.0149766 L52.6723345,59.0533329 C52.7478992,59.3143748 52.7204211,59.5067215 52.5795959,59.6956334 C52.4250316,59.9017191 52.1674245,60.0425444 51.9338606,60.0425444 C51.8479916,60.0425444 51.7140359,60.0253706 51.5182544,59.8914148 L40.2934524,52.255939 C39.0191557,51.390379 37.5353386,50.9335557 36,50.9335557 C34.4646614,50.9335557 32.9808443,51.390379 31.7065476,52.255939 L20.4817456,59.8914148 C20.2859641,60.0253706 20.1520084,60.0425444 20.0661394,60.0425444 C19.8325755,60.0425444 19.5749684,59.9017191 19.4204041,59.6956334 C19.2761441,59.5067215 19.2521008,59.3143748 19.3276655,59.0533329 L23.1196427,46.0149766 C24.0023765,42.9889513 22.9616437,39.7843184 20.4714413,37.8539822 L9.73437544,29.5384236 C9.63133259,29.4559893 9.31189973,29.2121212 9.4767683,28.7003417 C9.64163687,28.1954317 10.043504,28.1816926 10.174025,28.1782578 L23.7482042,27.7592169 C26.9013156,27.6630436 29.6285166,25.6811859 30.6932928,22.7135516 L35.2855695,9.93623718 C35.3302214,9.80915099 35.4676119,9.43476194 36,9.43476194"/>
    <path id="2-b" d="M30,27.7428774 C30,26.9144502 30.6715729,26.2428774 31.5,26.2428774 C32.3284271,26.2428774 33,26.9144502 33,27.7428774 L33,49.0615946 C33,50.6286132 34.2809431,51.9107458 35.9031857,51.9345469 L36.017262,51.937271 C37.6622926,51.9627851 39,50.6644857 39,49.064551 L39,19.201791 C39,15.2043875 35.7044468,11.9567118 31.626,11.9567118 L31.374,11.9567118 C27.2955532,11.9567118 24,15.2043875 24,19.201791 L24,51.3823813 C24,57.7932947 29.2826407,63 35.811,63 L36.189,63 C42.7154468,63 48,57.7922204 48,51.3823813 L48,27.7428774 C48,26.9144502 48.6715729,26.2428774 49.5,26.2428774 C50.3284271,26.2428774 51,26.9144502 51,27.7428774 L51,51.3823813 C51,59.4589816 44.3625532,66 36.189,66 L35.811,66 C27.6354314,66 21,59.4599496 21,51.3823813 L21,19.201791 C21,13.5376263 25.6484468,8.95671184 31.374,8.95671184 L31.626,8.95671184 C37.3515532,8.95671184 42,13.5376263 42,19.201791 L42,49.064551 C42,52.3493326 39.2809805,54.9882516 35.9588143,54.9366778 L35.8460488,54.9339735 C32.6065668,54.8865614 30,52.2775741 30,49.0615946 L30,27.7428774 Z"/>
  </defs>
  <g fill="none" fill-rule="evenodd">
    <rect width="380" height="180" fill="#FFF" fill-opacity=".01" fill-rule="nonzero"/>
    <g transform="translate(55 46)">
      <g transform="translate(108)">
        <g transform="translate(45)">
          <path fill="#FAC400" d="M36,6 C34.3581838,6 32.7163676,6.92395096 32.0534585,8.77528765 L27.4611818,21.5526021 C26.8772723,23.1738097 25.3625423,24.2729335 23.6417265,24.3278897 L10.0709821,24.7434959 C6.14161446,24.8671473 4.52384158,29.8406826 7.63230114,32.2518855 L18.3659322,40.5674442 C19.7260979,41.6219161 20.3065727,43.4045575 19.825706,45.056678 L16.0302941,58.0950343 C15.1853426,60.9939734 17.4797636,63.4773063 20.0661394,63.4773063 C20.8492651,63.4773063 21.6564341,63.2471773 22.4120818,62.7353977 L33.6403185,55.0964872 C34.354749,54.608751 35.1756571,54.3683176 36,54.3683176 C36.8243429,54.3683176 37.645251,54.608751 38.3596815,55.0964872 L49.5879182,62.7353977 C50.3435659,63.250612 51.1507349,63.4773063 51.9338606,63.4773063 C54.5202364,63.4773063 56.8146574,60.9939734 55.9697059,58.0950343 L52.174294,45.056678 C51.6934273,43.4045575 52.2739021,41.6219161 53.6340678,40.5674442 L64.3676989,32.2518855 C67.4761584,29.8406826 65.8583855,24.8671473 61.9290179,24.7434959 L48.3582735,24.3278897 C46.6374577,24.2729335 45.1227277,23.1738097 44.5388182,21.5526021 L39.9465415,8.77528765 C39.2836324,6.92395096 37.6418162,6 36,6"/>
          <use fill="#C47D00" xlink:href="#2-a"/>
        </g>
        <path fill="#314351" d="M1.195,86.164 L3.78,86.164 L3.78,87 L0.271,87 L0.271,79.663 L1.195,79.663 L1.195,86.164 Z M8.719,82.765 L8.719,81.929 L9.555,81.929 L9.555,87 L8.719,87 L8.719,86.021 C8.213,86.78 7.641,87.121 6.871,87.121 C5.474,87.121 4.484,86.021 4.484,84.481 C4.484,82.93 5.496,81.808 6.893,81.808 C7.663,81.808 8.224,82.105 8.719,82.765 Z M7.014,82.556 C6.464,82.556 6.079,82.743 5.782,83.161 C5.518,83.524 5.364,84.008 5.364,84.503 C5.364,85.581 6.068,86.395 6.992,86.395 C7.949,86.395 8.73,85.504 8.73,84.415 C8.73,83.315 8.026,82.556 7.014,82.556 Z M12.074,86.131 L12.074,87 L11.238,87 L11.238,79.663 L12.074,79.663 L12.074,82.798 C12.58,82.105 13.119,81.808 13.856,81.808 C15.275,81.808 16.265,82.908 16.265,84.481 C16.265,86.032 15.286,87.121 13.9,87.121 C13.119,87.121 12.569,86.824 12.074,86.131 Z M13.746,82.556 C12.778,82.556 12.063,83.359 12.063,84.47 C12.063,85.625 12.723,86.395 13.713,86.395 C14.714,86.395 15.385,85.636 15.385,84.503 C15.385,83.37 14.703,82.556 13.746,82.556 Z M22.249,84.734 L18.025,84.734 C18.069,85.163 18.146,85.383 18.355,85.658 C18.685,86.109 19.169,86.351 19.719,86.351 C20.346,86.351 20.94,86.01 21.237,85.482 L21.974,85.757 C21.556,86.604 20.687,87.121 19.719,87.121 C18.212,87.121 17.134,86.021 17.134,84.481 C17.134,82.919 18.201,81.808 19.686,81.808 C21.16,81.808 22.26,82.919 22.26,84.404 C22.26,84.47 22.26,84.613 22.249,84.734 Z M18.036,84.118 L21.369,84.118 C21.336,83.722 21.259,83.502 21.083,83.249 C20.764,82.82 20.247,82.556 19.686,82.556 C19.125,82.556 18.619,82.82 18.322,83.26 C18.168,83.502 18.102,83.711 18.036,84.118 Z M24.306,87 L23.47,87 L23.47,79.663 L24.306,79.663 L24.306,87 Z M25.395,82.226 L30.411,82.226 L30.411,82.699 L25.395,82.699 L25.395,82.226 Z M25.395,83.777 L30.411,83.777 L30.411,84.25 L25.395,84.25 L25.395,83.777 Z M33.007,82.094 L34.107,79.52 L34.723,79.74 L33.766,82.358 L33.007,82.094 Z M31.082,82.094 L32.182,79.52 L32.798,79.74 L31.841,82.369 L31.082,82.094 Z M36.923,80.455 L36.923,82.908 L39.783,82.908 L39.783,83.7 L36.923,83.7 L36.923,87 L35.999,87 L35.999,79.663 L39.783,79.663 L39.783,80.455 L36.923,80.455 Z M44.766,82.765 L44.766,81.929 L45.602,81.929 L45.602,87 L44.766,87 L44.766,86.021 C44.26,86.78 43.688,87.121 42.918,87.121 C41.521,87.121 40.531,86.021 40.531,84.481 C40.531,82.93 41.543,81.808 42.94,81.808 C43.71,81.808 44.271,82.105 44.766,82.765 Z M43.061,82.556 C42.511,82.556 42.126,82.743 41.829,83.161 C41.565,83.524 41.411,84.008 41.411,84.503 C41.411,85.581 42.115,86.395 43.039,86.395 C43.996,86.395 44.777,85.504 44.777,84.415 C44.777,83.315 44.073,82.556 43.061,82.556 Z M50.299,81.929 L51.168,81.929 L49.254,87 L48.374,87 L46.515,81.929 L47.395,81.929 L48.825,85.801 L50.299,81.929 Z M54.259,81.808 C55.755,81.808 56.822,82.919 56.822,84.481 C56.822,85.966 55.678,87.121 54.226,87.121 C52.719,87.121 51.663,86.021 51.663,84.459 C51.663,82.886 52.719,81.808 54.259,81.808 Z M54.259,82.578 C53.214,82.578 52.521,83.337 52.521,84.47 C52.521,85.592 53.214,86.351 54.248,86.351 C55.249,86.351 55.964,85.57 55.964,84.47 C55.964,83.337 55.282,82.578 54.259,82.578 Z M58.098,81.929 L58.934,81.929 L58.934,82.787 C59.088,82.424 59.198,82.27 59.396,82.116 C59.649,81.918 60.001,81.808 60.364,81.808 L60.562,81.808 L60.562,82.655 C60.474,82.644 60.386,82.644 60.331,82.644 C59.88,82.644 59.484,82.853 59.231,83.227 C59.011,83.546 58.934,83.843 58.934,84.426 L58.934,87 L58.098,87 L58.098,81.929 Z M62.432,81.929 L62.432,87 L61.596,87 L61.596,81.929 L62.432,81.929 Z M62.025,79.96 C62.322,79.96 62.553,80.202 62.553,80.51 C62.553,80.807 62.311,81.038 62.014,81.038 C61.717,81.038 61.486,80.807 61.486,80.499 C61.486,80.191 61.717,79.96 62.025,79.96 Z M65.006,82.666 L65.006,85.966 C65.017,86.219 65.083,86.274 65.391,86.274 L65.776,86.274 L65.776,87 L64.995,87 C64.401,86.989 64.17,86.769 64.17,86.208 L64.17,82.666 L63.466,82.666 L63.466,81.929 L64.17,81.929 L64.17,80.334 L65.006,80.334 L65.006,81.929 L65.776,81.929 L65.776,82.666 L65.006,82.666 Z M71.672,84.734 L67.448,84.734 C67.492,85.163 67.569,85.383 67.778,85.658 C68.108,86.109 68.592,86.351 69.142,86.351 C69.769,86.351 70.363,86.01 70.66,85.482 L71.397,85.757 C70.979,86.604 70.11,87.121 69.142,87.121 C67.635,87.121 66.557,86.021 66.557,84.481 C66.557,82.919 67.624,81.808 69.109,81.808 C70.583,81.808 71.683,82.919 71.683,84.404 C71.683,84.47 71.683,84.613 71.672,84.734 Z M67.459,84.118 L70.792,84.118 C70.759,83.722 70.682,83.502 70.506,83.249 C70.187,82.82 69.67,82.556 69.109,82.556 C68.548,82.556 68.042,82.82 67.745,83.26 C67.591,83.502 67.525,83.711 67.459,84.118 Z M79.625,85.801 L80.142,86.373 C79.57,86.89 79.009,87.121 78.272,87.121 C76.82,87.121 75.786,86.021 75.786,84.481 C75.786,82.908 76.831,81.808 78.316,81.808 C79.042,81.808 79.636,82.05 80.164,82.567 L79.625,83.106 C79.24,82.754 78.811,82.578 78.338,82.578 C77.337,82.578 76.644,83.348 76.644,84.448 C76.644,85.57 77.337,86.351 78.327,86.351 C78.822,86.351 79.218,86.186 79.625,85.801 Z M83.409,81.808 C84.905,81.808 85.972,82.919 85.972,84.481 C85.972,85.966 84.828,87.121 83.376,87.121 C81.869,87.121 80.813,86.021 80.813,84.459 C80.813,82.886 81.869,81.808 83.409,81.808 Z M83.409,82.578 C82.364,82.578 81.671,83.337 81.671,84.47 C81.671,85.592 82.364,86.351 83.398,86.351 C84.399,86.351 85.114,85.57 85.114,84.47 C85.114,83.337 84.432,82.578 83.409,82.578 Z M87.248,81.929 L88.084,81.929 L88.084,82.644 C88.524,82.05 88.964,81.808 89.591,81.808 C90.053,81.808 90.471,81.962 90.768,82.226 C91.087,82.534 91.197,82.886 91.197,83.579 L91.197,87 L90.361,87 L90.361,83.766 C90.361,83.315 90.306,83.073 90.174,82.897 C90.02,82.688 89.723,82.556 89.382,82.556 C89.008,82.556 88.667,82.699 88.414,82.985 C88.172,83.249 88.084,83.491 88.084,83.909 L88.084,87 L87.248,87 L87.248,81.929 Z M93.738,82.666 L93.738,85.966 C93.749,86.219 93.815,86.274 94.123,86.274 L94.508,86.274 L94.508,87 L93.727,87 C93.133,86.989 92.902,86.769 92.902,86.208 L92.902,82.666 L92.198,82.666 L92.198,81.929 L92.902,81.929 L92.902,80.334 L93.738,80.334 L93.738,81.929 L94.508,81.929 L94.508,82.666 L93.738,82.666 Z M99.524,82.765 L99.524,81.929 L100.36,81.929 L100.36,87 L99.524,87 L99.524,86.021 C99.018,86.78 98.446,87.121 97.676,87.121 C96.279,87.121 95.289,86.021 95.289,84.481 C95.289,82.93 96.301,81.808 97.698,81.808 C98.468,81.808 99.029,82.105 99.524,82.765 Z M97.819,82.556 C97.269,82.556 96.884,82.743 96.587,83.161 C96.323,83.524 96.169,84.008 96.169,84.503 C96.169,85.581 96.873,86.395 97.797,86.395 C98.754,86.395 99.535,85.504 99.535,84.415 C99.535,83.315 98.831,82.556 97.819,82.556 Z M105.475,85.801 L105.992,86.373 C105.42,86.89 104.859,87.121 104.122,87.121 C102.67,87.121 101.636,86.021 101.636,84.481 C101.636,82.908 102.681,81.808 104.166,81.808 C104.892,81.808 105.486,82.05 106.014,82.567 L105.475,83.106 C105.09,82.754 104.661,82.578 104.188,82.578 C103.187,82.578 102.494,83.348 102.494,84.448 C102.494,85.57 103.187,86.351 104.177,86.351 C104.672,86.351 105.068,86.186 105.475,85.801 Z M107.961,82.666 L107.961,85.966 C107.972,86.219 108.038,86.274 108.346,86.274 L108.731,86.274 L108.731,87 L107.95,87 C107.356,86.989 107.125,86.769 107.125,86.208 L107.125,82.666 L106.421,82.666 L106.421,81.929 L107.125,81.929 L107.125,80.334 L107.961,80.334 L107.961,81.929 L108.731,81.929 L108.731,82.666 L107.961,82.666 Z M110.348,85.944 C110.678,85.944 110.92,86.186 110.92,86.527 C110.92,86.846 110.667,87.088 110.348,87.088 C110.018,87.088 109.776,86.846 109.776,86.516 C109.776,86.186 110.018,85.944 110.348,85.944 Z M116.761,80.455 L116.761,82.908 L119.621,82.908 L119.621,83.7 L116.761,83.7 L116.761,87 L115.837,87 L115.837,79.663 L119.621,79.663 L119.621,80.455 L116.761,80.455 Z M124.604,82.765 L124.604,81.929 L125.44,81.929 L125.44,87 L124.604,87 L124.604,86.021 C124.098,86.78 123.526,87.121 122.756,87.121 C121.359,87.121 120.369,86.021 120.369,84.481 C120.369,82.93 121.381,81.808 122.778,81.808 C123.548,81.808 124.109,82.105 124.604,82.765 Z M122.899,82.556 C122.349,82.556 121.964,82.743 121.667,83.161 C121.403,83.524 121.249,84.008 121.249,84.503 C121.249,85.581 121.953,86.395 122.877,86.395 C123.834,86.395 124.615,85.504 124.615,84.415 C124.615,83.315 123.911,82.556 122.899,82.556 Z M130.137,81.929 L131.006,81.929 L129.092,87 L128.212,87 L126.353,81.929 L127.233,81.929 L128.663,85.801 L130.137,81.929 Z M134.097,81.808 C135.593,81.808 136.66,82.919 136.66,84.481 C136.66,85.966 135.516,87.121 134.064,87.121 C132.557,87.121 131.501,86.021 131.501,84.459 C131.501,82.886 132.557,81.808 134.097,81.808 Z M134.097,82.578 C133.052,82.578 132.359,83.337 132.359,84.47 C132.359,85.592 133.052,86.351 134.086,86.351 C135.087,86.351 135.802,85.57 135.802,84.47 C135.802,83.337 135.12,82.578 134.097,82.578 Z M137.936,81.929 L138.772,81.929 L138.772,82.787 C138.926,82.424 139.036,82.27 139.234,82.116 C139.487,81.918 139.839,81.808 140.202,81.808 L140.4,81.808 L140.4,82.655 C140.312,82.644 140.224,82.644 140.169,82.644 C139.718,82.644 139.322,82.853 139.069,83.227 C138.849,83.546 138.772,83.843 138.772,84.426 L138.772,87 L137.936,87 L137.936,81.929 Z M142.27,81.929 L142.27,87 L141.434,87 L141.434,81.929 L142.27,81.929 Z M141.863,79.96 C142.16,79.96 142.391,80.202 142.391,80.51 C142.391,80.807 142.149,81.038 141.852,81.038 C141.555,81.038 141.324,80.807 141.324,80.499 C141.324,80.191 141.555,79.96 141.863,79.96 Z M144.844,82.666 L144.844,85.966 C144.855,86.219 144.921,86.274 145.229,86.274 L145.614,86.274 L145.614,87 L144.833,87 C144.239,86.989 144.008,86.769 144.008,86.208 L144.008,82.666 L143.304,82.666 L143.304,81.929 L144.008,81.929 L144.008,80.334 L144.844,80.334 L144.844,81.929 L145.614,81.929 L145.614,82.666 L144.844,82.666 Z M151.51,84.734 L147.286,84.734 C147.33,85.163 147.407,85.383 147.616,85.658 C147.946,86.109 148.43,86.351 148.98,86.351 C149.607,86.351 150.201,86.01 150.498,85.482 L151.235,85.757 C150.817,86.604 149.948,87.121 148.98,87.121 C147.473,87.121 146.395,86.021 146.395,84.481 C146.395,82.919 147.462,81.808 148.947,81.808 C150.421,81.808 151.521,82.919 151.521,84.404 C151.521,84.47 151.521,84.613 151.51,84.734 Z M147.297,84.118 L150.63,84.118 C150.597,83.722 150.52,83.502 150.344,83.249 C150.025,82.82 149.508,82.556 148.947,82.556 C148.386,82.556 147.88,82.82 147.583,83.26 C147.429,83.502 147.363,83.711 147.297,84.118 Z M156.526,82.699 L156.526,79.663 L157.362,79.663 L157.362,87 L156.526,87 L156.526,86.131 C156.02,86.824 155.481,87.121 154.711,87.121 C153.314,87.121 152.324,86.032 152.324,84.492 C152.324,82.952 153.336,81.808 154.711,81.808 C155.459,81.808 156.031,82.083 156.526,82.699 Z M154.887,82.556 C153.886,82.556 153.204,83.348 153.204,84.503 C153.204,85.614 153.875,86.395 154.832,86.395 C155.811,86.395 156.526,85.581 156.526,84.481 C156.526,83.337 155.855,82.556 154.887,82.556 Z M160.288,79.784 L159.177,82.369 L158.572,82.149 L159.518,79.52 L160.288,79.784 Z M162.213,79.784 L161.102,82.369 L160.486,82.149 L161.443,79.52 L162.213,79.784 Z"/>
      </g>
      <path fill="#314351" d="M1.92,86.164 L4.505,86.164 L4.505,87 L0.996,87 L0.996,79.663 L1.92,79.663 L1.92,86.164 Z M9.444,82.765 L9.444,81.929 L10.28,81.929 L10.28,87 L9.444,87 L9.444,86.021 C8.938,86.78 8.366,87.121 7.596,87.121 C6.199,87.121 5.209,86.021 5.209,84.481 C5.209,82.93 6.221,81.808 7.618,81.808 C8.388,81.808 8.949,82.105 9.444,82.765 Z M7.739,82.556 C7.189,82.556 6.804,82.743 6.507,83.161 C6.243,83.524 6.089,84.008 6.089,84.503 C6.089,85.581 6.793,86.395 7.717,86.395 C8.674,86.395 9.455,85.504 9.455,84.415 C9.455,83.315 8.751,82.556 7.739,82.556 Z M12.799,86.131 L12.799,87 L11.963,87 L11.963,79.663 L12.799,79.663 L12.799,82.798 C13.305,82.105 13.844,81.808 14.581,81.808 C16,81.808 16.99,82.908 16.99,84.481 C16.99,86.032 16.011,87.121 14.625,87.121 C13.844,87.121 13.294,86.824 12.799,86.131 Z M14.471,82.556 C13.503,82.556 12.788,83.359 12.788,84.47 C12.788,85.625 13.448,86.395 14.438,86.395 C15.439,86.395 16.11,85.636 16.11,84.503 C16.11,83.37 15.428,82.556 14.471,82.556 Z M22.974,84.734 L18.75,84.734 C18.794,85.163 18.871,85.383 19.08,85.658 C19.41,86.109 19.894,86.351 20.444,86.351 C21.071,86.351 21.665,86.01 21.962,85.482 L22.699,85.757 C22.281,86.604 21.412,87.121 20.444,87.121 C18.937,87.121 17.859,86.021 17.859,84.481 C17.859,82.919 18.926,81.808 20.411,81.808 C21.885,81.808 22.985,82.919 22.985,84.404 C22.985,84.47 22.985,84.613 22.974,84.734 Z M18.761,84.118 L22.094,84.118 C22.061,83.722 21.984,83.502 21.808,83.249 C21.489,82.82 20.972,82.556 20.411,82.556 C19.85,82.556 19.344,82.82 19.047,83.26 C18.893,83.502 18.827,83.711 18.761,84.118 Z M25.031,87 L24.195,87 L24.195,79.663 L25.031,79.663 L25.031,87 Z M26.12,82.226 L31.136,82.226 L31.136,82.699 L26.12,82.699 L26.12,82.226 Z M26.12,83.777 L31.136,83.777 L31.136,84.25 L26.12,84.25 L26.12,83.777 Z M33.732,82.094 L34.832,79.52 L35.448,79.74 L34.491,82.358 L33.732,82.094 Z M31.807,82.094 L32.907,79.52 L33.523,79.74 L32.566,82.369 L31.807,82.094 Z M40.783,85.306 L37.494,85.306 L36.823,87 L35.866,87 L38.627,79.663 L39.727,79.663 L42.422,87 L41.388,87 L40.783,85.306 Z M40.497,84.514 L39.155,80.829 L37.769,84.514 L40.497,84.514 Z M44.204,82.666 L44.204,85.966 C44.215,86.219 44.281,86.274 44.589,86.274 L44.974,86.274 L44.974,87 L44.193,87 C43.599,86.989 43.368,86.769 43.368,86.208 L43.368,82.666 L42.664,82.666 L42.664,81.929 L43.368,81.929 L43.368,80.334 L44.204,80.334 L44.204,81.929 L44.974,81.929 L44.974,82.666 L44.204,82.666 Z M47.053,82.666 L47.053,85.966 C47.064,86.219 47.13,86.274 47.438,86.274 L47.823,86.274 L47.823,87 L47.042,87 C46.448,86.989 46.217,86.769 46.217,86.208 L46.217,82.666 L45.513,82.666 L45.513,81.929 L46.217,81.929 L46.217,80.334 L47.053,80.334 L47.053,81.929 L47.823,81.929 L47.823,82.666 L47.053,82.666 Z M52.839,82.765 L52.839,81.929 L53.675,81.929 L53.675,87 L52.839,87 L52.839,86.021 C52.333,86.78 51.761,87.121 50.991,87.121 C49.594,87.121 48.604,86.021 48.604,84.481 C48.604,82.93 49.616,81.808 51.013,81.808 C51.783,81.808 52.344,82.105 52.839,82.765 Z M51.134,82.556 C50.584,82.556 50.199,82.743 49.902,83.161 C49.638,83.524 49.484,84.008 49.484,84.503 C49.484,85.581 50.188,86.395 51.112,86.395 C52.069,86.395 52.85,85.504 52.85,84.415 C52.85,83.315 52.146,82.556 51.134,82.556 Z M58.79,85.801 L59.307,86.373 C58.735,86.89 58.174,87.121 57.437,87.121 C55.985,87.121 54.951,86.021 54.951,84.481 C54.951,82.908 55.996,81.808 57.481,81.808 C58.207,81.808 58.801,82.05 59.329,82.567 L58.79,83.106 C58.405,82.754 57.976,82.578 57.503,82.578 C56.502,82.578 55.809,83.348 55.809,84.448 C55.809,85.57 56.502,86.351 57.492,86.351 C57.987,86.351 58.383,86.186 58.79,85.801 Z M61.221,79.663 L61.221,82.633 C61.683,82.061 62.145,81.808 62.75,81.808 C63.19,81.808 63.652,81.984 63.927,82.27 C64.202,82.545 64.323,82.941 64.323,83.59 L64.323,87 L63.487,87 L63.487,83.634 C63.487,82.941 63.146,82.556 62.541,82.556 C62.156,82.556 61.815,82.71 61.551,83.007 C61.298,83.293 61.221,83.546 61.221,84.03 L61.221,87 L60.385,87 L60.385,79.663 L61.221,79.663 Z M70.197,82.666 L70.197,87 L69.361,87 L69.361,82.666 L68.668,82.666 L68.668,81.929 L69.361,81.929 L69.361,81.247 C69.361,80.246 69.878,79.652 70.758,79.652 C70.802,79.652 70.901,79.652 70.989,79.663 L70.989,80.411 C70.384,80.477 70.219,80.653 70.197,81.247 L70.197,81.929 L70.989,81.929 L70.989,82.666 L70.197,82.666 Z M73.189,81.929 L73.189,87 L72.353,87 L72.353,81.929 L73.189,81.929 Z M72.771,79.96 C73.068,79.96 73.299,80.202 73.299,80.51 C73.299,80.807 73.068,81.038 72.771,81.038 C72.463,81.038 72.232,80.807 72.232,80.499 C72.232,80.191 72.463,79.96 72.771,79.96 Z M75.708,87 L74.872,87 L74.872,79.663 L75.708,79.663 L75.708,87 Z M82.099,84.734 L77.875,84.734 C77.919,85.163 77.996,85.383 78.205,85.658 C78.535,86.109 79.019,86.351 79.569,86.351 C80.196,86.351 80.79,86.01 81.087,85.482 L81.824,85.757 C81.406,86.604 80.537,87.121 79.569,87.121 C78.062,87.121 76.984,86.021 76.984,84.481 C76.984,82.919 78.051,81.808 79.536,81.808 C81.01,81.808 82.11,82.919 82.11,84.404 C82.11,84.47 82.11,84.613 82.099,84.734 Z M77.886,84.118 L81.219,84.118 C81.186,83.722 81.109,83.502 80.933,83.249 C80.614,82.82 80.097,82.556 79.536,82.556 C78.975,82.556 78.469,82.82 78.172,83.26 C78.018,83.502 77.952,83.711 77.886,84.118 Z M84.563,79.784 L83.452,82.369 L82.847,82.149 L83.793,79.52 L84.563,79.784 Z M86.488,79.784 L85.377,82.369 L84.761,82.149 L85.718,79.52 L86.488,79.784 Z"/>
      <use fill="#314351" transform="translate(8)" xlink:href="#2-b"/>
    </g>
  </g>
</svg>
