<svg xmlns="http://www.w3.org/2000/svg" xmlns:xlink="http://www.w3.org/1999/xlink" width="380" height="180" viewBox="0 0 380 180">
  <defs>
    <path id="2-a" d="M36,6 C34.3581838,6 32.7163676,6.92395096 32.0534585,8.77528765 L27.4611818,21.5526021 C26.8772723,23.1738097 25.3625423,24.2729335 23.6417265,24.3278897 L10.0709821,24.7434959 C6.14161446,24.8671473 4.52384158,29.8406826 7.63230114,32.2518855 L18.3659322,40.5674442 C19.7260979,41.6219161 20.3065727,43.4045575 19.825706,45.056678 L16.0302941,58.0950343 C15.1853426,60.9939734 17.4797636,63.4773063 20.0661394,63.4773063 C20.8492651,63.4773063 21.6564341,63.2471773 22.4120818,62.7353977 L33.6403185,55.0964872 C34.354749,54.608751 35.1756571,54.3683176 36,54.3683176 C36.8243429,54.3683176 37.645251,54.608751 38.3596815,55.0964872 L49.5879182,62.7353977 C50.3435659,63.250612 51.1507349,63.4773063 51.9338606,63.4773063 C54.5202364,63.4773063 56.8146574,60.9939734 55.9697059,58.0950343 L52.174294,45.056678 C51.6934273,43.4045575 52.2739021,41.6219161 53.6340678,40.5674442 L64.3676989,32.2518855 C67.4761584,29.8406826 65.8583855,24.8671473 61.9290179,24.7434959 L48.3582735,24.3278897 C46.6374577,24.2729335 45.1227277,23.1738097 44.5388182,21.5526021 L39.9465415,8.77528765 C39.2836324,6.92395096 37.6418162,6 36,6 M36,9.43476194 C36.5323881,9.43476194 36.6697786,9.80915099 36.7144305,9.93623718 L41.3067072,22.7135516 C42.3714834,25.6811859 45.0986844,27.6630436 48.2483611,27.7592169 L61.825975,28.1782578 C61.956496,28.1816926 62.3583631,28.1954317 62.5232317,28.7003417 C62.6881003,29.2121212 62.3686674,29.4559893 62.2656246,29.5384236 L51.5285587,37.8539822 C49.0383563,39.7843184 47.9976235,42.9889513 48.8803573,46.0149766 L52.6723345,59.0533329 C52.7478992,59.3143748 52.7204211,59.5067215 52.5795959,59.6956334 C52.4250316,59.9017191 52.1674245,60.0425444 51.9338606,60.0425444 C51.8479916,60.0425444 51.7140359,60.0253706 51.5182544,59.8914148 L40.2934524,52.255939 C39.0191557,51.390379 37.5353386,50.9335557 36,50.9335557 C34.4646614,50.9335557 32.9808443,51.390379 31.7065476,52.255939 L20.4817456,59.8914148 C20.2859641,60.0253706 20.1520084,60.0425444 20.0661394,60.0425444 C19.8325755,60.0425444 19.5749684,59.9017191 19.4204041,59.6956334 C19.2761441,59.5067215 19.2521008,59.3143748 19.3276655,59.0533329 L23.1196427,46.0149766 C24.0023765,42.9889513 22.9616437,39.7843184 20.4714413,37.8539822 L9.73437544,29.5384236 C9.63133259,29.4559893 9.31189973,29.2121212 9.4767683,28.7003417 C9.64163687,28.1954317 10.043504,28.1816926 10.174025,28.1782578 L23.7482042,27.7592169 C26.9013156,27.6630436 29.6285166,25.6811859 30.6932928,22.7135516 L35.2855695,9.93623718 C35.3302214,9.80915099 35.4676119,9.43476194 36,9.43476194"/>
    <path id="2-b" d="M30,27.7428774 C30,26.9144502 30.6715729,26.2428774 31.5,26.2428774 C32.3284271,26.2428774 33,26.9144502 33,27.7428774 L33,49.0615946 C33,50.6286132 34.2809431,51.9107458 35.9031857,51.9345469 L36.017262,51.937271 C37.6622926,51.9627851 39,50.6644857 39,49.064551 L39,19.201791 C39,15.2043875 35.7044468,11.9567118 31.626,11.9567118 L31.374,11.9567118 C27.2955532,11.9567118 24,15.2043875 24,19.201791 L24,51.3823813 C24,57.7932947 29.2826407,63 35.811,63 L36.189,63 C42.7154468,63 48,57.7922204 48,51.3823813 L48,27.7428774 C48,26.9144502 48.6715729,26.2428774 49.5,26.2428774 C50.3284271,26.2428774 51,26.9144502 51,27.7428774 L51,51.3823813 C51,59.4589816 44.3625532,66 36.189,66 L35.811,66 C27.6354314,66 21,59.4599496 21,51.3823813 L21,19.201791 C21,13.5376263 25.6484468,8.95671184 31.374,8.95671184 L31.626,8.95671184 C37.3515532,8.95671184 42,13.5376263 42,19.201791 L42,49.064551 C42,52.3493326 39.2809805,54.9882516 35.9588143,54.9366778 L35.8460488,54.9339735 C32.6065668,54.8865614 30,52.2775741 30,49.0615946 L30,27.7428774 Z"/>
  </defs>
  <g fill="none" fill-rule="evenodd">
    <rect width="380" height="180" fill="#FFF" fill-opacity=".01" fill-rule="nonzero"/>
    <g transform="translate(55 47)">
      <g transform="translate(107)">
        <g transform="translate(46)">
          <path fill="#FAC400" d="M36,6 C34.3581838,6 32.7163676,6.92395096 32.0534585,8.77528765 L27.4611818,21.5526021 C26.8772723,23.1738097 25.3625423,24.2729335 23.6417265,24.3278897 L10.0709821,24.7434959 C6.14161446,24.8671473 4.52384158,29.8406826 7.63230114,32.2518855 L18.3659322,40.5674442 C19.7260979,41.6219161 20.3065727,43.4045575 19.825706,45.056678 L16.0302941,58.0950343 C15.1853426,60.9939734 17.4797636,63.4773063 20.0661394,63.4773063 C20.8492651,63.4773063 21.6564341,63.2471773 22.4120818,62.7353977 L33.6403185,55.0964872 C34.354749,54.608751 35.1756571,54.3683176 36,54.3683176 C36.8243429,54.3683176 37.645251,54.608751 38.3596815,55.0964872 L49.5879182,62.7353977 C50.3435659,63.250612 51.1507349,63.4773063 51.9338606,63.4773063 C54.5202364,63.4773063 56.8146574,60.9939734 55.9697059,58.0950343 L52.174294,45.056678 C51.6934273,43.4045575 52.2739021,41.6219161 53.6340678,40.5674442 L64.3676989,32.2518855 C67.4761584,29.8406826 65.8583855,24.8671473 61.9290179,24.7434959 L48.3582735,24.3278897 C46.6374577,24.2729335 45.1227277,23.1738097 44.5388182,21.5526021 L39.9465415,8.77528765 C39.2836324,6.92395096 37.6418162,6 36,6"/>
          <use fill="#C47D00" xlink:href="#2-a"/>
        </g>
        <path fill="#314351" d="M2.195,82.164 L4.78,82.164 L4.78,83 L1.271,83 L1.271,75.663 L2.195,75.663 L2.195,82.164 Z M9.719,78.765 L9.719,77.929 L10.555,77.929 L10.555,83 L9.719,83 L9.719,82.021 C9.213,82.78 8.641,83.121 7.871,83.121 C6.474,83.121 5.484,82.021 5.484,80.481 C5.484,78.93 6.496,77.808 7.893,77.808 C8.663,77.808 9.224,78.105 9.719,78.765 Z M8.014,78.556 C7.464,78.556 7.079,78.743 6.782,79.161 C6.518,79.524 6.364,80.008 6.364,80.503 C6.364,81.581 7.068,82.395 7.992,82.395 C8.949,82.395 9.73,81.504 9.73,80.415 C9.73,79.315 9.026,78.556 8.014,78.556 Z M13.074,82.131 L13.074,83 L12.238,83 L12.238,75.663 L13.074,75.663 L13.074,78.798 C13.58,78.105 14.119,77.808 14.856,77.808 C16.275,77.808 17.265,78.908 17.265,80.481 C17.265,82.032 16.286,83.121 14.9,83.121 C14.119,83.121 13.569,82.824 13.074,82.131 Z M14.746,78.556 C13.778,78.556 13.063,79.359 13.063,80.47 C13.063,81.625 13.723,82.395 14.713,82.395 C15.714,82.395 16.385,81.636 16.385,80.503 C16.385,79.37 15.703,78.556 14.746,78.556 Z M23.249,80.734 L19.025,80.734 C19.069,81.163 19.146,81.383 19.355,81.658 C19.685,82.109 20.169,82.351 20.719,82.351 C21.346,82.351 21.94,82.01 22.237,81.482 L22.974,81.757 C22.556,82.604 21.687,83.121 20.719,83.121 C19.212,83.121 18.134,82.021 18.134,80.481 C18.134,78.919 19.201,77.808 20.686,77.808 C22.16,77.808 23.26,78.919 23.26,80.404 C23.26,80.47 23.26,80.613 23.249,80.734 Z M19.036,80.118 L22.369,80.118 C22.336,79.722 22.259,79.502 22.083,79.249 C21.764,78.82 21.247,78.556 20.686,78.556 C20.125,78.556 19.619,78.82 19.322,79.26 C19.168,79.502 19.102,79.711 19.036,80.118 Z M25.306,83 L24.47,83 L24.47,75.663 L25.306,75.663 L25.306,83 Z M26.395,78.226 L31.411,78.226 L31.411,78.699 L26.395,78.699 L26.395,78.226 Z M26.395,79.777 L31.411,79.777 L31.411,80.25 L26.395,80.25 L26.395,79.777 Z M34.007,78.094 L35.107,75.52 L35.723,75.74 L34.766,78.358 L34.007,78.094 Z M32.082,78.094 L33.182,75.52 L33.798,75.74 L32.841,78.369 L32.082,78.094 Z M37.923,76.455 L37.923,78.908 L40.783,78.908 L40.783,79.7 L37.923,79.7 L37.923,83 L36.999,83 L36.999,75.663 L40.783,75.663 L40.783,76.455 L37.923,76.455 Z M45.766,78.765 L45.766,77.929 L46.602,77.929 L46.602,83 L45.766,83 L45.766,82.021 C45.26,82.78 44.688,83.121 43.918,83.121 C42.521,83.121 41.531,82.021 41.531,80.481 C41.531,78.93 42.543,77.808 43.94,77.808 C44.71,77.808 45.271,78.105 45.766,78.765 Z M44.061,78.556 C43.511,78.556 43.126,78.743 42.829,79.161 C42.565,79.524 42.411,80.008 42.411,80.503 C42.411,81.581 43.115,82.395 44.039,82.395 C44.996,82.395 45.777,81.504 45.777,80.415 C45.777,79.315 45.073,78.556 44.061,78.556 Z M51.299,77.929 L52.168,77.929 L50.254,83 L49.374,83 L47.515,77.929 L48.395,77.929 L49.825,81.801 L51.299,77.929 Z M55.259,77.808 C56.755,77.808 57.822,78.919 57.822,80.481 C57.822,81.966 56.678,83.121 55.226,83.121 C53.719,83.121 52.663,82.021 52.663,80.459 C52.663,78.886 53.719,77.808 55.259,77.808 Z M55.259,78.578 C54.214,78.578 53.521,79.337 53.521,80.47 C53.521,81.592 54.214,82.351 55.248,82.351 C56.249,82.351 56.964,81.57 56.964,80.47 C56.964,79.337 56.282,78.578 55.259,78.578 Z M59.098,77.929 L59.934,77.929 L59.934,78.787 C60.088,78.424 60.198,78.27 60.396,78.116 C60.649,77.918 61.001,77.808 61.364,77.808 L61.562,77.808 L61.562,78.655 C61.474,78.644 61.386,78.644 61.331,78.644 C60.88,78.644 60.484,78.853 60.231,79.227 C60.011,79.546 59.934,79.843 59.934,80.426 L59.934,83 L59.098,83 L59.098,77.929 Z M63.432,77.929 L63.432,83 L62.596,83 L62.596,77.929 L63.432,77.929 Z M63.025,75.96 C63.322,75.96 63.553,76.202 63.553,76.51 C63.553,76.807 63.311,77.038 63.014,77.038 C62.717,77.038 62.486,76.807 62.486,76.499 C62.486,76.191 62.717,75.96 63.025,75.96 Z M66.006,78.666 L66.006,81.966 C66.017,82.219 66.083,82.274 66.391,82.274 L66.776,82.274 L66.776,83 L65.995,83 C65.401,82.989 65.17,82.769 65.17,82.208 L65.17,78.666 L64.466,78.666 L64.466,77.929 L65.17,77.929 L65.17,76.334 L66.006,76.334 L66.006,77.929 L66.776,77.929 L66.776,78.666 L66.006,78.666 Z M72.672,80.734 L68.448,80.734 C68.492,81.163 68.569,81.383 68.778,81.658 C69.108,82.109 69.592,82.351 70.142,82.351 C70.769,82.351 71.363,82.01 71.66,81.482 L72.397,81.757 C71.979,82.604 71.11,83.121 70.142,83.121 C68.635,83.121 67.557,82.021 67.557,80.481 C67.557,78.919 68.624,77.808 70.109,77.808 C71.583,77.808 72.683,78.919 72.683,80.404 C72.683,80.47 72.683,80.613 72.672,80.734 Z M68.459,80.118 L71.792,80.118 C71.759,79.722 71.682,79.502 71.506,79.249 C71.187,78.82 70.67,78.556 70.109,78.556 C69.548,78.556 69.042,78.82 68.745,79.26 C68.591,79.502 68.525,79.711 68.459,80.118 Z M80.625,81.801 L81.142,82.373 C80.57,82.89 80.009,83.121 79.272,83.121 C77.82,83.121 76.786,82.021 76.786,80.481 C76.786,78.908 77.831,77.808 79.316,77.808 C80.042,77.808 80.636,78.05 81.164,78.567 L80.625,79.106 C80.24,78.754 79.811,78.578 79.338,78.578 C78.337,78.578 77.644,79.348 77.644,80.448 C77.644,81.57 78.337,82.351 79.327,82.351 C79.822,82.351 80.218,82.186 80.625,81.801 Z M84.409,77.808 C85.905,77.808 86.972,78.919 86.972,80.481 C86.972,81.966 85.828,83.121 84.376,83.121 C82.869,83.121 81.813,82.021 81.813,80.459 C81.813,78.886 82.869,77.808 84.409,77.808 Z M84.409,78.578 C83.364,78.578 82.671,79.337 82.671,80.47 C82.671,81.592 83.364,82.351 84.398,82.351 C85.399,82.351 86.114,81.57 86.114,80.47 C86.114,79.337 85.432,78.578 84.409,78.578 Z M88.248,77.929 L89.084,77.929 L89.084,78.644 C89.524,78.05 89.964,77.808 90.591,77.808 C91.053,77.808 91.471,77.962 91.768,78.226 C92.087,78.534 92.197,78.886 92.197,79.579 L92.197,83 L91.361,83 L91.361,79.766 C91.361,79.315 91.306,79.073 91.174,78.897 C91.02,78.688 90.723,78.556 90.382,78.556 C90.008,78.556 89.667,78.699 89.414,78.985 C89.172,79.249 89.084,79.491 89.084,79.909 L89.084,83 L88.248,83 L88.248,77.929 Z M94.738,78.666 L94.738,81.966 C94.749,82.219 94.815,82.274 95.123,82.274 L95.508,82.274 L95.508,83 L94.727,83 C94.133,82.989 93.902,82.769 93.902,82.208 L93.902,78.666 L93.198,78.666 L93.198,77.929 L93.902,77.929 L93.902,76.334 L94.738,76.334 L94.738,77.929 L95.508,77.929 L95.508,78.666 L94.738,78.666 Z M100.524,78.765 L100.524,77.929 L101.36,77.929 L101.36,83 L100.524,83 L100.524,82.021 C100.018,82.78 99.446,83.121 98.676,83.121 C97.279,83.121 96.289,82.021 96.289,80.481 C96.289,78.93 97.301,77.808 98.698,77.808 C99.468,77.808 100.029,78.105 100.524,78.765 Z M98.819,78.556 C98.269,78.556 97.884,78.743 97.587,79.161 C97.323,79.524 97.169,80.008 97.169,80.503 C97.169,81.581 97.873,82.395 98.797,82.395 C99.754,82.395 100.535,81.504 100.535,80.415 C100.535,79.315 99.831,78.556 98.819,78.556 Z M106.475,81.801 L106.992,82.373 C106.42,82.89 105.859,83.121 105.122,83.121 C103.67,83.121 102.636,82.021 102.636,80.481 C102.636,78.908 103.681,77.808 105.166,77.808 C105.892,77.808 106.486,78.05 107.014,78.567 L106.475,79.106 C106.09,78.754 105.661,78.578 105.188,78.578 C104.187,78.578 103.494,79.348 103.494,80.448 C103.494,81.57 104.187,82.351 105.177,82.351 C105.672,82.351 106.068,82.186 106.475,81.801 Z M108.961,78.666 L108.961,81.966 C108.972,82.219 109.038,82.274 109.346,82.274 L109.731,82.274 L109.731,83 L108.95,83 C108.356,82.989 108.125,82.769 108.125,82.208 L108.125,78.666 L107.421,78.666 L107.421,77.929 L108.125,77.929 L108.125,76.334 L108.961,76.334 L108.961,77.929 L109.731,77.929 L109.731,78.666 L108.961,78.666 Z M111.348,81.944 C111.678,81.944 111.92,82.186 111.92,82.527 C111.92,82.846 111.667,83.088 111.348,83.088 C111.018,83.088 110.776,82.846 110.776,82.516 C110.776,82.186 111.018,81.944 111.348,81.944 Z M117.761,76.455 L117.761,78.908 L120.621,78.908 L120.621,79.7 L117.761,79.7 L117.761,83 L116.837,83 L116.837,75.663 L120.621,75.663 L120.621,76.455 L117.761,76.455 Z M125.604,78.765 L125.604,77.929 L126.44,77.929 L126.44,83 L125.604,83 L125.604,82.021 C125.098,82.78 124.526,83.121 123.756,83.121 C122.359,83.121 121.369,82.021 121.369,80.481 C121.369,78.93 122.381,77.808 123.778,77.808 C124.548,77.808 125.109,78.105 125.604,78.765 Z M123.899,78.556 C123.349,78.556 122.964,78.743 122.667,79.161 C122.403,79.524 122.249,80.008 122.249,80.503 C122.249,81.581 122.953,82.395 123.877,82.395 C124.834,82.395 125.615,81.504 125.615,80.415 C125.615,79.315 124.911,78.556 123.899,78.556 Z M131.137,77.929 L132.006,77.929 L130.092,83 L129.212,83 L127.353,77.929 L128.233,77.929 L129.663,81.801 L131.137,77.929 Z M135.097,77.808 C136.593,77.808 137.66,78.919 137.66,80.481 C137.66,81.966 136.516,83.121 135.064,83.121 C133.557,83.121 132.501,82.021 132.501,80.459 C132.501,78.886 133.557,77.808 135.097,77.808 Z M135.097,78.578 C134.052,78.578 133.359,79.337 133.359,80.47 C133.359,81.592 134.052,82.351 135.086,82.351 C136.087,82.351 136.802,81.57 136.802,80.47 C136.802,79.337 136.12,78.578 135.097,78.578 Z M138.936,77.929 L139.772,77.929 L139.772,78.787 C139.926,78.424 140.036,78.27 140.234,78.116 C140.487,77.918 140.839,77.808 141.202,77.808 L141.4,77.808 L141.4,78.655 C141.312,78.644 141.224,78.644 141.169,78.644 C140.718,78.644 140.322,78.853 140.069,79.227 C139.849,79.546 139.772,79.843 139.772,80.426 L139.772,83 L138.936,83 L138.936,77.929 Z M143.27,77.929 L143.27,83 L142.434,83 L142.434,77.929 L143.27,77.929 Z M142.863,75.96 C143.16,75.96 143.391,76.202 143.391,76.51 C143.391,76.807 143.149,77.038 142.852,77.038 C142.555,77.038 142.324,76.807 142.324,76.499 C142.324,76.191 142.555,75.96 142.863,75.96 Z M145.844,78.666 L145.844,81.966 C145.855,82.219 145.921,82.274 146.229,82.274 L146.614,82.274 L146.614,83 L145.833,83 C145.239,82.989 145.008,82.769 145.008,82.208 L145.008,78.666 L144.304,78.666 L144.304,77.929 L145.008,77.929 L145.008,76.334 L145.844,76.334 L145.844,77.929 L146.614,77.929 L146.614,78.666 L145.844,78.666 Z M152.51,80.734 L148.286,80.734 C148.33,81.163 148.407,81.383 148.616,81.658 C148.946,82.109 149.43,82.351 149.98,82.351 C150.607,82.351 151.201,82.01 151.498,81.482 L152.235,81.757 C151.817,82.604 150.948,83.121 149.98,83.121 C148.473,83.121 147.395,82.021 147.395,80.481 C147.395,78.919 148.462,77.808 149.947,77.808 C151.421,77.808 152.521,78.919 152.521,80.404 C152.521,80.47 152.521,80.613 152.51,80.734 Z M148.297,80.118 L151.63,80.118 C151.597,79.722 151.52,79.502 151.344,79.249 C151.025,78.82 150.508,78.556 149.947,78.556 C149.386,78.556 148.88,78.82 148.583,79.26 C148.429,79.502 148.363,79.711 148.297,80.118 Z M157.526,78.699 L157.526,75.663 L158.362,75.663 L158.362,83 L157.526,83 L157.526,82.131 C157.02,82.824 156.481,83.121 155.711,83.121 C154.314,83.121 153.324,82.032 153.324,80.492 C153.324,78.952 154.336,77.808 155.711,77.808 C156.459,77.808 157.031,78.083 157.526,78.699 Z M155.887,78.556 C154.886,78.556 154.204,79.348 154.204,80.503 C154.204,81.614 154.875,82.395 155.832,82.395 C156.811,82.395 157.526,81.581 157.526,80.481 C157.526,79.337 156.855,78.556 155.887,78.556 Z M161.288,75.784 L160.177,78.369 L159.572,78.149 L160.518,75.52 L161.288,75.784 Z M163.213,75.784 L162.102,78.369 L161.486,78.149 L162.443,75.52 L163.213,75.784 Z"/>
      </g>
      <path fill="#314351" d="M1.92,82.164 L4.505,82.164 L4.505,83 L0.996,83 L0.996,75.663 L1.92,75.663 L1.92,82.164 Z M9.444,78.765 L9.444,77.929 L10.28,77.929 L10.28,83 L9.444,83 L9.444,82.021 C8.938,82.78 8.366,83.121 7.596,83.121 C6.199,83.121 5.209,82.021 5.209,80.481 C5.209,78.93 6.221,77.808 7.618,77.808 C8.388,77.808 8.949,78.105 9.444,78.765 Z M7.739,78.556 C7.189,78.556 6.804,78.743 6.507,79.161 C6.243,79.524 6.089,80.008 6.089,80.503 C6.089,81.581 6.793,82.395 7.717,82.395 C8.674,82.395 9.455,81.504 9.455,80.415 C9.455,79.315 8.751,78.556 7.739,78.556 Z M12.799,82.131 L12.799,83 L11.963,83 L11.963,75.663 L12.799,75.663 L12.799,78.798 C13.305,78.105 13.844,77.808 14.581,77.808 C16,77.808 16.99,78.908 16.99,80.481 C16.99,82.032 16.011,83.121 14.625,83.121 C13.844,83.121 13.294,82.824 12.799,82.131 Z M14.471,78.556 C13.503,78.556 12.788,79.359 12.788,80.47 C12.788,81.625 13.448,82.395 14.438,82.395 C15.439,82.395 16.11,81.636 16.11,80.503 C16.11,79.37 15.428,78.556 14.471,78.556 Z M22.974,80.734 L18.75,80.734 C18.794,81.163 18.871,81.383 19.08,81.658 C19.41,82.109 19.894,82.351 20.444,82.351 C21.071,82.351 21.665,82.01 21.962,81.482 L22.699,81.757 C22.281,82.604 21.412,83.121 20.444,83.121 C18.937,83.121 17.859,82.021 17.859,80.481 C17.859,78.919 18.926,77.808 20.411,77.808 C21.885,77.808 22.985,78.919 22.985,80.404 C22.985,80.47 22.985,80.613 22.974,80.734 Z M18.761,80.118 L22.094,80.118 C22.061,79.722 21.984,79.502 21.808,79.249 C21.489,78.82 20.972,78.556 20.411,78.556 C19.85,78.556 19.344,78.82 19.047,79.26 C18.893,79.502 18.827,79.711 18.761,80.118 Z M25.031,83 L24.195,83 L24.195,75.663 L25.031,75.663 L25.031,83 Z M26.12,78.226 L31.136,78.226 L31.136,78.699 L26.12,78.699 L26.12,78.226 Z M26.12,79.777 L31.136,79.777 L31.136,80.25 L26.12,80.25 L26.12,79.777 Z M33.732,78.094 L34.832,75.52 L35.448,75.74 L34.491,78.358 L33.732,78.094 Z M31.807,78.094 L32.907,75.52 L33.523,75.74 L32.566,78.369 L31.807,78.094 Z M40.783,81.306 L37.494,81.306 L36.823,83 L35.866,83 L38.627,75.663 L39.727,75.663 L42.422,83 L41.388,83 L40.783,81.306 Z M40.497,80.514 L39.155,76.829 L37.769,80.514 L40.497,80.514 Z M44.204,78.666 L44.204,81.966 C44.215,82.219 44.281,82.274 44.589,82.274 L44.974,82.274 L44.974,83 L44.193,83 C43.599,82.989 43.368,82.769 43.368,82.208 L43.368,78.666 L42.664,78.666 L42.664,77.929 L43.368,77.929 L43.368,76.334 L44.204,76.334 L44.204,77.929 L44.974,77.929 L44.974,78.666 L44.204,78.666 Z M47.053,78.666 L47.053,81.966 C47.064,82.219 47.13,82.274 47.438,82.274 L47.823,82.274 L47.823,83 L47.042,83 C46.448,82.989 46.217,82.769 46.217,82.208 L46.217,78.666 L45.513,78.666 L45.513,77.929 L46.217,77.929 L46.217,76.334 L47.053,76.334 L47.053,77.929 L47.823,77.929 L47.823,78.666 L47.053,78.666 Z M52.839,78.765 L52.839,77.929 L53.675,77.929 L53.675,83 L52.839,83 L52.839,82.021 C52.333,82.78 51.761,83.121 50.991,83.121 C49.594,83.121 48.604,82.021 48.604,80.481 C48.604,78.93 49.616,77.808 51.013,77.808 C51.783,77.808 52.344,78.105 52.839,78.765 Z M51.134,78.556 C50.584,78.556 50.199,78.743 49.902,79.161 C49.638,79.524 49.484,80.008 49.484,80.503 C49.484,81.581 50.188,82.395 51.112,82.395 C52.069,82.395 52.85,81.504 52.85,80.415 C52.85,79.315 52.146,78.556 51.134,78.556 Z M58.79,81.801 L59.307,82.373 C58.735,82.89 58.174,83.121 57.437,83.121 C55.985,83.121 54.951,82.021 54.951,80.481 C54.951,78.908 55.996,77.808 57.481,77.808 C58.207,77.808 58.801,78.05 59.329,78.567 L58.79,79.106 C58.405,78.754 57.976,78.578 57.503,78.578 C56.502,78.578 55.809,79.348 55.809,80.448 C55.809,81.57 56.502,82.351 57.492,82.351 C57.987,82.351 58.383,82.186 58.79,81.801 Z M61.221,75.663 L61.221,78.633 C61.683,78.061 62.145,77.808 62.75,77.808 C63.19,77.808 63.652,77.984 63.927,78.27 C64.202,78.545 64.323,78.941 64.323,79.59 L64.323,83 L63.487,83 L63.487,79.634 C63.487,78.941 63.146,78.556 62.541,78.556 C62.156,78.556 61.815,78.71 61.551,79.007 C61.298,79.293 61.221,79.546 61.221,80.03 L61.221,83 L60.385,83 L60.385,75.663 L61.221,75.663 Z M70.197,78.666 L70.197,83 L69.361,83 L69.361,78.666 L68.668,78.666 L68.668,77.929 L69.361,77.929 L69.361,77.247 C69.361,76.246 69.878,75.652 70.758,75.652 C70.802,75.652 70.901,75.652 70.989,75.663 L70.989,76.411 C70.384,76.477 70.219,76.653 70.197,77.247 L70.197,77.929 L70.989,77.929 L70.989,78.666 L70.197,78.666 Z M73.189,77.929 L73.189,83 L72.353,83 L72.353,77.929 L73.189,77.929 Z M72.771,75.96 C73.068,75.96 73.299,76.202 73.299,76.51 C73.299,76.807 73.068,77.038 72.771,77.038 C72.463,77.038 72.232,76.807 72.232,76.499 C72.232,76.191 72.463,75.96 72.771,75.96 Z M75.708,83 L74.872,83 L74.872,75.663 L75.708,75.663 L75.708,83 Z M82.099,80.734 L77.875,80.734 C77.919,81.163 77.996,81.383 78.205,81.658 C78.535,82.109 79.019,82.351 79.569,82.351 C80.196,82.351 80.79,82.01 81.087,81.482 L81.824,81.757 C81.406,82.604 80.537,83.121 79.569,83.121 C78.062,83.121 76.984,82.021 76.984,80.481 C76.984,78.919 78.051,77.808 79.536,77.808 C81.01,77.808 82.11,78.919 82.11,80.404 C82.11,80.47 82.11,80.613 82.099,80.734 Z M77.886,80.118 L81.219,80.118 C81.186,79.722 81.109,79.502 80.933,79.249 C80.614,78.82 80.097,78.556 79.536,78.556 C78.975,78.556 78.469,78.82 78.172,79.26 C78.018,79.502 77.952,79.711 77.886,80.118 Z M84.563,75.784 L83.452,78.369 L82.847,78.149 L83.793,75.52 L84.563,75.784 Z M86.488,75.784 L85.377,78.369 L84.761,78.149 L85.718,75.52 L86.488,75.784 Z"/>
      <use fill="#314351" transform="translate(8)" xlink:href="#2-b"/>
    </g>
  </g>
</svg>
