<svg xmlns="http://www.w3.org/2000/svg" xmlns:xlink="http://www.w3.org/1999/xlink" width="580" height="180" viewBox="0 0 580 180">
  <defs>
    <rect id="1-line-no-action-a" width="312" height="15"/>
    <mask id="1-line-no-action-b" width="312" height="15" x="0" y="0" fill="#fff">
      <use xlink:href="#1-line-no-action-a"/>
    </mask>
  </defs>
  <g fill="none" fill-rule="evenodd">
    <rect width="580" height="180" fill="#F5F5F5" fill-rule="nonzero"/>
    <rect width="580" height="180" fill="#FFF" fill-opacity=".01" fill-rule="nonzero"/>
    <path fill="#C41261" d="M471.5145,116.455 L471.5145,118.908 L474.4075,118.908 L474.4075,119.7 L471.5145,119.7 L471.5145,122.208 L474.4075,122.208 L474.4075,123 L470.5905,123 L470.5905,115.663 L474.4075,115.663 L474.4075,116.455 L471.5145,116.455 Z M476.6405,123 L475.8045,123 L475.8045,115.663 L476.6405,115.663 L476.6405,123 Z M483.0315,120.734 L478.8075,120.734 C478.8515,121.163 478.9285,121.383 479.1375,121.658 C479.4675,122.109 479.9515,122.351 480.5015,122.351 C481.1285,122.351 481.7225,122.01 482.0195,121.482 L482.7565,121.757 C482.3385,122.604 481.4695,123.121 480.5015,123.121 C478.9945,123.121 477.9165,122.021 477.9165,120.481 C477.9165,118.919 478.9835,117.808 480.4685,117.808 C481.9425,117.808 483.0425,118.919 483.0425,120.404 C483.0425,120.47 483.0425,120.613 483.0315,120.734 Z M478.8185,120.118 L482.1515,120.118 C482.1185,119.722 482.0415,119.502 481.8655,119.249 C481.5465,118.82 481.0295,118.556 480.4685,118.556 C479.9075,118.556 479.4015,118.82 479.1045,119.26 C478.9505,119.502 478.8845,119.711 478.8185,120.118 Z M487.2665,117.929 L488.1355,117.929 L486.2215,123 L485.3415,123 L483.4825,117.929 L484.3625,117.929 L485.7925,121.801 L487.2665,117.929 Z M492.8655,118.765 L492.8655,117.929 L493.7015,117.929 L493.7015,123 L492.8655,123 L492.8655,122.021 C492.3595,122.78 491.7875,123.121 491.0175,123.121 C489.6205,123.121 488.6305,122.021 488.6305,120.481 C488.6305,118.93 489.6425,117.808 491.0395,117.808 C491.8095,117.808 492.3705,118.105 492.8655,118.765 Z M491.1605,118.556 C490.6105,118.556 490.2255,118.743 489.9285,119.161 C489.6645,119.524 489.5105,120.008 489.5105,120.503 C489.5105,121.581 490.2145,122.395 491.1385,122.395 C492.0955,122.395 492.8765,121.504 492.8765,120.415 C492.8765,119.315 492.1725,118.556 491.1605,118.556 Z M496.2755,118.666 L496.2755,121.966 C496.2865,122.219 496.3525,122.274 496.6605,122.274 L497.0455,122.274 L497.0455,123 L496.2645,123 C495.6705,122.989 495.4395,122.769 495.4395,122.208 L495.4395,118.666 L494.7355,118.666 L494.7355,117.929 L495.4395,117.929 L495.4395,116.334 L496.2755,116.334 L496.2755,117.929 L497.0455,117.929 L497.0455,118.666 L496.2755,118.666 Z M499.0695,117.929 L499.0695,123 L498.2335,123 L498.2335,117.929 L499.0695,117.929 Z M498.6625,115.96 C498.9595,115.96 499.1905,116.202 499.1905,116.51 C499.1905,116.807 498.9485,117.038 498.6515,117.038 C498.3545,117.038 498.1235,116.807 498.1235,116.499 C498.1235,116.191 498.3545,115.96 498.6625,115.96 Z M502.9415,117.808 C504.4375,117.808 505.5045,118.919 505.5045,120.481 C505.5045,121.966 504.3605,123.121 502.9085,123.121 C501.4015,123.121 500.3455,122.021 500.3455,120.459 C500.3455,118.886 501.4015,117.808 502.9415,117.808 Z M502.9415,118.578 C501.8965,118.578 501.2035,119.337 501.2035,120.47 C501.2035,121.592 501.8965,122.351 502.9305,122.351 C503.9315,122.351 504.6465,121.57 504.6465,120.47 C504.6465,119.337 503.9645,118.578 502.9415,118.578 Z M506.7805,117.929 L507.6165,117.929 L507.6165,118.644 C508.0565,118.05 508.4965,117.808 509.1235,117.808 C509.5855,117.808 510.0035,117.962 510.3005,118.226 C510.6195,118.534 510.7295,118.886 510.7295,119.579 L510.7295,123 L509.8935,123 L509.8935,119.766 C509.8935,119.315 509.8385,119.073 509.7065,118.897 C509.5525,118.688 509.2555,118.556 508.9145,118.556 C508.5405,118.556 508.1995,118.699 507.9465,118.985 C507.7045,119.249 507.6165,119.491 507.6165,119.909 L507.6165,123 L506.7805,123 L506.7805,117.929 Z M512.8085,121.944 C513.1385,121.944 513.3805,122.186 513.3805,122.527 C513.3805,122.846 513.1275,123.088 512.8085,123.088 C512.4785,123.088 512.2365,122.846 512.2365,122.516 C512.2365,122.186 512.4785,121.944 512.8085,121.944 Z M512.8085,118.776 C513.1385,118.776 513.3805,119.018 513.3805,119.359 C513.3805,119.678 513.1275,119.92 512.8085,119.92 C512.4785,119.92 512.2365,119.678 512.2365,119.348 C512.2365,119.018 512.4785,118.776 512.8085,118.776 Z M518.1765,115.773 L516.2955,118.71 C516.6035,118.6 516.7465,118.567 517.0105,118.567 C518.2315,118.567 519.1775,119.524 519.1775,120.767 C519.1775,122.065 518.1105,123.132 516.8125,123.132 C515.5035,123.132 514.4915,122.098 514.4915,120.767 C514.4915,120.228 514.6345,119.821 515.0525,119.15 L517.1535,115.773 L518.1765,115.773 Z M516.8565,119.315 C516.0205,119.315 515.3605,119.953 515.3605,120.767 C515.3605,121.625 516.0095,122.307 516.8345,122.307 C517.6595,122.307 518.3195,121.636 518.3195,120.8 C518.3195,119.975 517.6705,119.315 516.8565,119.315 Z M524.2155,118.699 L524.2155,115.663 L525.0515,115.663 L525.0515,123 L524.2155,123 L524.2155,122.131 C523.7095,122.824 523.1705,123.121 522.4005,123.121 C521.0035,123.121 520.0135,122.032 520.0135,120.492 C520.0135,118.952 521.0255,117.808 522.4005,117.808 C523.1485,117.808 523.7205,118.083 524.2155,118.699 Z M522.5765,118.556 C521.5755,118.556 520.8935,119.348 520.8935,120.503 C520.8935,121.614 521.5645,122.395 522.5215,122.395 C523.5005,122.395 524.2155,121.581 524.2155,120.481 C524.2155,119.337 523.5445,118.556 522.5765,118.556 Z M526.7345,117.929 L527.5705,117.929 L527.5705,118.853 C528.0545,118.105 528.5715,117.808 529.4185,117.808 C530.8265,117.808 531.8055,118.886 531.8055,120.426 C531.8055,122.021 530.8265,123.121 529.4185,123.121 C529.0225,123.121 528.6595,123.033 528.3075,122.857 C527.9995,122.703 527.8455,122.571 527.5705,122.208 L527.5705,125.376 L526.7345,125.376 L526.7345,117.929 Z M529.2755,118.556 C528.2635,118.556 527.5705,119.359 527.5705,120.547 C527.5705,121.658 528.2415,122.395 529.2425,122.395 C530.2435,122.395 530.9145,121.614 530.9145,120.459 C530.9145,119.865 530.7715,119.414 530.4745,119.084 C530.1775,118.754 529.7265,118.556 529.2755,118.556 Z"/>
    <g transform="translate(118 52)">
      <rect width="344" height="48" fill="#25333D" rx="4"/>
      <path fill="#F3F6FA" d="M20.0137002,24.6439942 C18.9084729,24.3262973 18.1041748,23.9358939 17.6007818,23.4727723 C17.0973888,23.0096508 16.845696,22.4380286 16.845696,21.7578887 C16.845696,20.9882567 17.1533205,20.3517538 17.7685786,19.8483608 C18.3838367,19.3449677 19.1836603,19.093275 20.1680733,19.093275 C20.839264,19.093275 21.4377334,19.2230366 21.9634994,19.4825637 C22.4892655,19.7420907 22.8964484,20.1000537 23.1850604,20.5564634 C23.4736724,21.0128731 23.6179762,21.511784 23.6179762,22.0532111 L22.3225846,22.0532111 C22.3225846,21.4625633 22.1346541,20.9983301 21.7587873,20.6604974 C21.3829205,20.3226648 20.8526878,20.153751 20.1680733,20.153751 C19.5326795,20.153751 19.0371244,20.2935803 18.6813934,20.5732431 C18.3256623,20.8529059 18.1477995,21.241072 18.1477995,21.7377531 C18.1477995,22.1359929 18.3167132,22.4727018 18.6545459,22.74789 C18.9923785,23.0230782 19.5673566,23.2747709 20.3794973,23.5029758 C21.1916381,23.7311806 21.8270224,23.9828733 22.2856693,24.2580615 C22.7443163,24.5332497 23.0843812,24.8542978 23.3058741,25.2212153 C23.527367,25.5881329 23.6381118,26.0199258 23.6381118,26.5166069 C23.6381118,27.3086119 23.3293687,27.9428776 22.7118733,28.419423 C22.0943779,28.8959683 21.2688257,29.1342375 20.2351921,29.1342375 C19.5640014,29.1342375 18.9375661,29.0055945 18.3558675,28.7483048 C17.7741689,28.491015 17.3255966,28.1386452 17.0101369,27.6911847 C16.6946773,27.2437242 16.5369499,26.7358642 16.5369499,26.1675895 L17.8323414,26.1675895 C17.8323414,26.7582373 18.0504751,27.2247078 18.4867491,27.5670151 C18.923023,27.9093223 19.5058315,28.0804734 20.2351921,28.0804734 C20.9153319,28.0804734 21.4366156,27.9417627 21.7990585,27.6643372 C22.1615015,27.3869117 22.3427203,27.0088133 22.3427203,26.5300306 C22.3427203,26.0512479 22.1749251,25.68098 21.8393298,25.4192156 C21.5037344,25.1574512 20.8951973,24.8990467 20.0137002,24.6439942 Z M26.6936749,29 L25.4519783,29 L25.4519783,21.7377531 L26.6936749,21.7377531 L26.6936749,29 Z M25.3513002,19.8114455 C25.3513002,19.6100882 25.4128251,19.4400558 25.5358767,19.3013431 C25.6589283,19.1626303 25.8412657,19.093275 26.0828944,19.093275 C26.324523,19.093275 26.5079791,19.1626303 26.633268,19.3013431 C26.7585569,19.4400558 26.8212004,19.6100882 26.8212004,19.8114455 C26.8212004,20.0128027 26.7585569,20.1805978 26.633268,20.314836 C26.5079791,20.4490741 26.324523,20.5161922 26.0828944,20.5161922 C25.8412657,20.5161922 25.6589283,20.4490741 25.5358767,20.314836 C25.4128251,20.1805978 25.3513002,20.0128027 25.3513002,19.8114455 Z M30.1049672,21.7377531 L30.1452384,22.6505679 C30.7000894,21.9525295 31.4249645,21.6035156 32.3198854,21.6035156 C33.8546747,21.6035156 34.6287697,22.4693386 34.6421935,24.2010106 L34.6421935,29 L33.400497,29 L33.400497,24.1942987 C33.3960224,23.67077 33.2763285,23.2837225 33.0414117,23.0331446 C32.806495,22.7825668 32.4407016,22.6572797 31.9440205,22.6572797 C31.541306,22.6572797 31.1878176,22.7646686 30.8835445,22.9794497 C30.5792714,23.1942307 30.3421209,23.4761265 30.1720859,23.8251457 L30.1720859,29 L28.9303893,29 L28.9303893,21.7377531 L30.1049672,21.7377531 Z M36.4694838,25.3084697 C36.4694838,24.1763947 36.7312442,23.2758941 37.2547729,22.6069407 C37.7783017,21.9379873 38.471855,21.6035156 39.3354536,21.6035156 C40.2214254,21.6035156 40.9127414,21.9167332 41.4094225,22.5431779 L41.4698294,21.7377531 L42.6041359,21.7377531 L42.6041359,28.8254913 C42.6041359,29.7651583 42.325596,30.5056942 41.7685077,31.0471214 C41.2114195,31.5885485 40.4630531,31.859258 39.5233861,31.859258 C38.9998574,31.859258 38.4875228,31.7473946 37.9863671,31.5236644 C37.4852114,31.2999341 37.1026385,30.9934283 36.8386368,30.6041377 L37.4829766,29.8591198 C38.0154546,30.5168867 38.6664998,30.8457652 39.4361317,30.8457652 C40.0402034,30.8457652 40.5111484,30.6757327 40.8489811,30.3356628 C41.1868137,29.9955928 41.3557275,29.5168173 41.3557275,28.8993219 L41.3557275,28.2751177 C40.8590464,28.8478671 40.181154,29.1342375 39.3220299,29.1342375 C38.471855,29.1342375 37.7838949,28.7919354 37.2581289,28.1073209 C36.7323628,27.4227064 36.4694838,26.4897653 36.4694838,25.3084697 Z M37.7178922,25.449419 C37.7178922,26.2682717 37.8856873,26.9114864 38.2212827,27.3790826 C38.556878,27.8466788 39.0267045,28.0804734 39.6307761,28.0804734 C40.4138319,28.0804734 40.9888099,27.7247476 41.3557275,27.0132855 L41.3557275,23.6976201 C40.9753861,23.0040564 40.4048826,22.6572797 39.6441998,22.6572797 C39.0401282,22.6572797 38.5680645,22.8921929 38.2279946,23.3620264 C37.8879246,23.8318599 37.7178922,24.5276505 37.7178922,25.449419 Z M46.0758351,29 L44.8341386,29 L44.8341386,18.6905626 L46.0758351,18.6905626 L46.0758351,29 Z M51.3261807,29.1342375 C50.3417677,29.1342375 49.5408255,28.8109521 48.9233301,28.1643718 C48.3058347,27.5177914 47.9970916,26.6530871 47.9970916,25.5702327 L47.9970916,25.3420291 C47.9970916,24.6216177 48.1346836,23.978403 48.4098718,23.4123655 C48.68506,22.846328 49.0698702,22.4033488 49.564314,22.0834146 C50.0587578,21.7634803 50.5945837,21.6035156 51.1718077,21.6035156 C52.1159492,21.6035156 52.8497734,21.914496 53.3733021,22.536466 C53.8968308,23.158436 54.1585913,24.048869 54.1585913,25.2077916 L54.1585913,25.7246058 L49.2387881,25.7246058 C49.2566866,26.4405426 49.4658712,27.0188765 49.8663483,27.4596251 C50.2668254,27.9003736 50.775804,28.1207446 51.3932995,28.1207446 C51.8318107,28.1207446 52.2031973,28.0312538 52.5074704,27.8522697 C52.8117435,27.6732855 53.0779785,27.436135 53.3061834,27.1408111 L54.064625,27.7314559 C53.4560788,28.6666483 52.5432732,29.1342375 51.3261807,29.1342375 Z M51.1718077,22.6237204 C50.6706519,22.6237204 50.2500454,22.8060578 49.9099755,23.170738 C49.5699055,23.5354183 49.3596023,24.0466342 49.2790594,24.7044011 L52.9168947,24.7044011 L52.9168947,24.6104349 C52.8810979,23.9795156 52.7110654,23.4906724 52.4067923,23.1438905 C52.1025192,22.7971087 51.6908618,22.6237204 51.1718077,22.6237204 Z M60.8469384,29 L59.6052419,29 L59.6052419,18.6905626 L60.8469384,18.6905626 L60.8469384,29 Z M64.4327395,29 L63.1910429,29 L63.1910429,21.7377531 L64.4327395,21.7377531 L64.4327395,29 Z M63.0903648,19.8114455 C63.0903648,19.6100882 63.1518897,19.4400558 63.2749413,19.3013431 C63.397993,19.1626303 63.5803304,19.093275 63.821959,19.093275 C64.0635877,19.093275 64.2470437,19.1626303 64.3723326,19.3013431 C64.4976215,19.4400558 64.5602651,19.6100882 64.5602651,19.8114455 C64.5602651,20.0128027 64.4976215,20.1805978 64.3723326,20.314836 C64.2470437,20.4490741 64.0635877,20.5161922 63.821959,20.5161922 C63.5803304,20.5161922 63.397993,20.4490741 63.2749413,20.314836 C63.1518897,20.1805978 63.0903648,20.0128027 63.0903648,19.8114455 Z M67.8440318,21.7377531 L67.884303,22.6505679 C68.439154,21.9525295 69.1640291,21.6035156 70.05895,21.6035156 C71.5937394,21.6035156 72.3678343,22.4693386 72.3812582,24.2010106 L72.3812582,29 L71.1395616,29 L71.1395616,24.1942987 C71.135087,23.67077 71.0153931,23.2837225 70.7804764,23.0331446 C70.5455596,22.7825668 70.1797662,22.6572797 69.6830851,22.6572797 C69.2803707,22.6572797 68.9268822,22.7646686 68.6226091,22.9794497 C68.318336,23.1942307 68.0811855,23.4761265 67.9111505,23.8251457 L67.9111505,29 L66.669454,29 L66.669454,21.7377531 L67.8440318,21.7377531 Z M77.5175019,29.1342375 C76.5330889,29.1342375 75.7321467,28.8109521 75.1146513,28.1643718 C74.4971558,27.5177914 74.1884128,26.6530871 74.1884128,25.5702327 L74.1884128,25.3420291 C74.1884128,24.6216177 74.3260048,23.978403 74.601193,23.4123655 C74.8763811,22.846328 75.2611914,22.4033488 75.7556352,22.0834146 C76.250079,21.7634803 76.7859048,21.6035156 77.3631288,21.6035156 C78.3072704,21.6035156 79.0410945,21.914496 79.5646233,22.536466 C80.088152,23.158436 80.3499124,24.048869 80.3499124,25.2077916 L80.3499124,25.7246058 L75.4301093,25.7246058 C75.4480077,26.4405426 75.6571924,27.0188765 76.0576695,27.4596251 C76.4581466,27.9003736 76.9671252,28.1207446 77.5846206,28.1207446 C78.0231319,28.1207446 78.3945185,28.0312538 78.6987916,27.8522697 C79.0030647,27.6732855 79.2692997,27.436135 79.4975045,27.1408111 L80.2559462,27.7314559 C79.6474,28.6666483 78.7345944,29.1342375 77.5175019,29.1342375 Z M77.3631288,22.6237204 C76.8619731,22.6237204 76.4413666,22.8060578 76.1012966,23.170738 C75.7612267,23.5354183 75.5509234,24.0466342 75.4703806,24.7044011 L79.1082159,24.7044011 L79.1082159,24.6104349 C79.072419,23.9795156 78.9023866,23.4906724 78.5981135,23.1438905 C78.2938404,22.7971087 77.882183,22.6237204 77.3631288,22.6237204 Z M86.857039,21.7377531 L86.8905984,22.5431779 C87.4230764,21.9167332 88.1412396,21.6035156 89.0451097,21.6035156 C90.060845,21.6035156 90.752161,21.9928004 91.1190786,22.7713816 C91.3607072,22.4223624 91.6750435,22.1404666 92.0620968,21.9256855 C92.4491501,21.7109045 92.9066715,21.6035156 93.4346749,21.6035156 C95.0276341,21.6035156 95.8375254,22.4469659 95.864373,24.1338919 L95.864373,29 L94.6226765,29 L94.6226765,24.2077225 C94.6226765,23.6886683 94.5041012,23.3005022 94.2669472,23.0432124 C94.0297931,22.7859227 93.6315593,22.6572797 93.0722337,22.6572797 C92.6113495,22.6572797 92.2287765,22.7948718 91.9245034,23.0700599 C91.6202303,23.3452481 91.443486,23.7155161 91.3942654,24.180875 L91.3942654,29 L90.145857,29 L90.145857,24.2412818 C90.145857,23.1852752 89.6290479,22.6572797 88.5954142,22.6572797 C87.7810362,22.6572797 87.2239563,23.0040564 86.9241578,23.6976201 L86.9241578,29 L85.6824612,29 L85.6824612,21.7377531 L86.857039,21.7377531 Z M101.000617,29.1342375 C100.016204,29.1342375 99.2152616,28.8109521 98.5977661,28.1643718 C97.9802707,27.5177914 97.6715276,26.6530871 97.6715276,25.5702327 L97.6715276,25.3420291 C97.6715276,24.6216177 97.8091196,23.978403 98.0843078,23.4123655 C98.359496,22.846328 98.7443062,22.4033488 99.23875,22.0834146 C99.7331938,21.7634803 100.26902,21.6035156 100.846244,21.6035156 C101.790385,21.6035156 102.524209,21.914496 103.047738,22.536466 C103.571267,23.158436 103.833027,24.048869 103.833027,25.2077916 L103.833027,25.7246058 L98.9132242,25.7246058 C98.9311226,26.4405426 99.1403072,27.0188765 99.5407843,27.4596251 C99.9412614,27.9003736 100.45024,28.1207446 101.067736,28.1207446 C101.506247,28.1207446 101.877633,28.0312538 102.181906,27.8522697 C102.48618,27.6732855 102.752415,27.436135 102.980619,27.1408111 L103.739061,27.7314559 C103.130515,28.6666483 102.217709,29.1342375 101.000617,29.1342375 Z M100.846244,22.6237204 C100.345088,22.6237204 99.9244815,22.8060578 99.5844115,23.170738 C99.2443416,23.5354183 99.0340383,24.0466342 98.9534954,24.7044011 L102.591331,24.7044011 L102.591331,24.6104349 C102.555534,23.9795156 102.385501,23.4906724 102.081228,23.1438905 C101.776955,22.7971087 101.365298,22.6237204 100.846244,22.6237204 Z M109.747848,27.0736924 C109.747848,26.738097 109.621443,26.4774552 109.368628,26.2917591 C109.115812,26.106063 108.67507,25.9460983 108.046388,25.8118602 C107.417707,25.677622 106.918796,25.5165387 106.549641,25.3286053 C106.180486,25.1406719 105.907539,24.916945 105.730792,24.657418 C105.554045,24.3978909 105.465673,24.0891478 105.465673,23.7311795 C105.465673,23.1360571 105.717366,22.6326716 106.220759,22.221008 C106.724152,21.8093443 107.367367,21.6035156 108.150423,21.6035156 C108.97375,21.6035156 109.641574,21.8160562 110.153917,22.2411436 C110.666259,22.666231 110.922426,23.2098873 110.922426,23.8721288 L109.674018,23.8721288 C109.674018,23.5320589 109.529714,23.2389766 109.241102,22.9928734 C108.95249,22.7467701 108.588934,22.6237204 108.150423,22.6237204 C107.698487,22.6237204 107.344999,22.7221602 107.089947,22.9190428 C106.834894,23.1159254 106.70737,23.3732113 106.70737,23.6909082 C106.70737,23.9907067 106.825945,24.2166709 107.063099,24.3688074 C107.300253,24.520944 107.72869,24.6663664 108.348423,24.8050792 C108.968156,24.9437919 109.470422,25.1093498 109.855238,25.3017578 C110.240054,25.4941658 110.525306,25.7257231 110.711002,25.9964367 C110.896698,26.2671503 110.989545,26.5971474 110.989545,26.986438 C110.989545,27.6352557 110.730022,28.1554207 110.210968,28.5469486 C109.691913,28.9384765 109.018496,29.1342375 108.190694,29.1342375 C107.608995,29.1342375 107.094423,29.0313231 106.646963,28.8254913 C106.199502,28.6196595 105.84937,28.3321705 105.596555,27.9630156 C105.34374,27.5938607 105.217334,27.1945082 105.217334,26.7649462 L106.45903,26.7649462 C106.481403,27.1810844 106.64808,27.5110816 106.959065,27.7549475 C107.27005,27.9988135 107.680589,28.1207446 108.190694,28.1207446 C108.660527,28.1207446 109.037507,28.0256607 109.321644,27.83549 C109.605782,27.6453193 109.747848,27.3913893 109.747848,27.0736924 Z M117.085587,27.0736924 C117.085587,26.738097 116.959181,26.4774552 116.706366,26.2917591 C116.453551,26.106063 116.012809,25.9460983 115.384127,25.8118602 C114.755445,25.677622 114.256534,25.5165387 113.887379,25.3286053 C113.518224,25.1406719 113.245277,24.916945 113.06853,24.657418 C112.891784,24.3978909 112.803411,24.0891478 112.803411,23.7311795 C112.803411,23.1360571 113.055104,22.6326716 113.558497,22.221008 C114.06189,21.8093443 114.705105,21.6035156 115.488161,21.6035156 C116.311488,21.6035156 116.979313,21.8160562 117.491655,22.2411436 C118.003997,22.666231 118.260164,23.2098873 118.260164,23.8721288 L117.011756,23.8721288 C117.011756,23.5320589 116.867452,23.2389766 116.57884,22.9928734 C116.290228,22.7467701 115.926672,22.6237204 115.488161,22.6237204 C115.036226,22.6237204 114.682737,22.7221602 114.427685,22.9190428 C114.172632,23.1159254 114.045108,23.3732113 114.045108,23.6909082 C114.045108,23.9907067 114.163683,24.2166709 114.400837,24.3688074 C114.637991,24.520944 115.066428,24.6663664 115.686161,24.8050792 C116.305894,24.9437919 116.808161,25.1093498 117.192977,25.3017578 C117.577793,25.4941658 117.863044,25.7257231 118.04874,25.9964367 C118.234436,26.2671503 118.327283,26.5971474 118.327283,26.986438 C118.327283,27.6352557 118.06776,28.1554207 117.548706,28.5469486 C117.029652,28.9384765 116.356234,29.1342375 115.528432,29.1342375 C114.946733,29.1342375 114.432162,29.0313231 113.984701,28.8254913 C113.537241,28.6196595 113.187108,28.3321705 112.934293,27.9630156 C112.681478,27.5938607 112.555072,27.1945082 112.555072,26.7649462 L113.796769,26.7649462 C113.819142,27.1810844 113.985818,27.5110816 114.296803,27.7549475 C114.607788,27.9988135 115.018327,28.1207446 115.528432,28.1207446 C115.998265,28.1207446 116.375245,28.0256607 116.659383,27.83549 C116.94352,27.6453193 117.085587,27.3913893 117.085587,27.0736924 Z M124.678376,29 C124.606782,28.8568127 124.548613,28.601764 124.503867,28.2348464 C123.926643,28.8344435 123.237565,29.1342375 122.43661,29.1342375 C121.720674,29.1342375 121.133391,28.9317646 120.674744,28.5268129 C120.216097,28.1218612 119.986777,27.608408 119.986777,26.986438 C119.986777,26.2302298 120.274266,25.6429468 120.849252,25.2245713 C121.424239,24.8061957 122.233012,24.5970111 123.275594,24.5970111 L124.483732,24.5970111 L124.483732,24.0265019 C124.483732,23.5924652 124.35397,23.2468072 124.094443,22.9895175 C123.834916,22.7322277 123.452343,22.6035847 122.946713,22.6035847 C122.503727,22.6035847 122.13234,22.7154482 121.832542,22.9391784 C121.532743,23.1629086 121.382846,23.4336182 121.382846,23.7513151 L120.134438,23.7513151 C120.134438,23.3888721 120.263081,23.0387396 120.52037,22.7009069 C120.77766,22.3630743 121.126674,22.0957207 121.567423,21.8988381 C122.008171,21.7019554 122.49254,21.6035156 123.020543,21.6035156 C123.857294,21.6035156 124.512814,21.8127003 124.987122,22.2310758 C125.46143,22.6494513 125.70753,23.225548 125.725428,23.9593832 L125.725428,27.3018961 C125.725428,27.9686121 125.810444,28.4988448 125.980479,28.89261 L125.980479,29 L124.678376,29 Z M122.617831,28.0536259 C123.007121,28.0536259 123.376271,27.9529488 123.72529,27.7515916 C124.074309,27.5502344 124.32712,27.2884739 124.483732,26.9663024 L124.483732,25.4762665 L123.51051,25.4762665 C121.989144,25.4762665 121.228473,25.921483 121.228473,26.8119293 C121.228473,27.2012199 121.358235,27.5054884 121.617762,27.7247441 C121.877289,27.9439997 122.210642,28.0536259 122.617831,28.0536259 Z M127.626549,25.3084697 C127.626549,24.1763947 127.888309,23.2758941 128.411838,22.6069407 C128.935367,21.9379873 129.62892,21.6035156 130.492519,21.6035156 C131.378491,21.6035156 132.069807,21.9167332 132.566488,22.5431779 L132.626895,21.7377531 L133.761201,21.7377531 L133.761201,28.8254913 C133.761201,29.7651583 133.482661,30.5056942 132.925573,31.0471214 C132.368485,31.5885485 131.620118,31.859258 130.680451,31.859258 C130.156923,31.859258 129.644588,31.7473946 129.143432,31.5236644 C128.642277,31.2999341 128.259704,30.9934283 127.995702,30.6041377 L128.640042,29.8591198 C129.17252,30.5168867 129.823565,30.8457652 130.593197,30.8457652 C131.197269,30.8457652 131.668214,30.6757327 132.006046,30.3356628 C132.343879,29.9955928 132.512793,29.5168173 132.512793,28.8993219 L132.512793,28.2751177 C132.016112,28.8478671 131.338219,29.1342375 130.479095,29.1342375 C129.62892,29.1342375 128.94096,28.7919354 128.415194,28.1073209 C127.889428,27.4227064 127.626549,26.4897653 127.626549,25.3084697 Z M128.874957,25.449419 C128.874957,26.2682717 129.042753,26.9114864 129.378348,27.3790826 C129.713943,27.8466788 130.18377,28.0804734 130.787841,28.0804734 C131.570897,28.0804734 132.145875,27.7247476 132.512793,27.0132855 L132.512793,23.6976201 C132.132451,23.0040564 131.561948,22.6572797 130.801265,22.6572797 C130.197193,22.6572797 129.72513,22.8921929 129.38506,23.3620264 C129.04499,23.8318599 128.874957,24.5276505 128.874957,25.449419 Z M138.897445,29.1342375 C137.913032,29.1342375 137.11209,28.8109521 136.494594,28.1643718 C135.877099,27.5177914 135.568356,26.6530871 135.568356,25.5702327 L135.568356,25.3420291 C135.568356,24.6216177 135.705948,23.978403 135.981136,23.4123655 C136.256324,22.846328 136.641134,22.4033488 137.135578,22.0834146 C137.630022,21.7634803 138.165848,21.6035156 138.743072,21.6035156 C139.687213,21.6035156 140.421038,21.914496 140.944566,22.536466 C141.468095,23.158436 141.729856,24.048869 141.729856,25.2077916 L141.729856,25.7246058 L136.810052,25.7246058 C136.827951,26.4405426 137.037135,27.0188765 137.437613,27.4596251 C137.83809,27.9003736 138.347068,28.1207446 138.964564,28.1207446 C139.403075,28.1207446 139.774462,28.0312538 140.078735,27.8522697 C140.383008,27.6732855 140.649243,27.436135 140.877448,27.1408111 L141.635889,27.7314559 C141.027343,28.6666483 140.114537,29.1342375 138.897445,29.1342375 Z M138.743072,22.6237204 C138.241916,22.6237204 137.82131,22.8060578 137.48124,23.170738 C137.14117,23.5354183 136.930867,24.0466342 136.850324,24.7044011 L140.488159,24.7044011 L140.488159,24.6104349 C140.452362,23.9795156 140.28233,23.4906724 139.978057,23.1438905 C139.673783,22.7971087 139.262126,22.6237204 138.743072,22.6237204 Z M148.243694,21.7377531 L148.283965,22.6505679 C148.838816,21.9525295 149.563691,21.6035156 150.458612,21.6035156 C151.993402,21.6035156 152.767497,22.4693386 152.78092,24.2010106 L152.78092,29 L151.539224,29 L151.539224,24.1942987 C151.534749,23.67077 151.415055,23.2837225 151.180139,23.0331446 C150.945222,22.7825668 150.579428,22.6572797 150.082747,22.6572797 C149.680033,22.6572797 149.326544,22.7646686 149.022271,22.9794497 C148.717998,23.1942307 148.480848,23.4761265 148.310813,23.8251457 L148.310813,29 L147.069116,29 L147.069116,21.7377531 L148.243694,21.7377531 Z M154.574651,25.3017578 C154.574651,24.5902957 154.71448,23.9504368 154.994143,23.382162 C155.273806,22.8138873 155.663091,22.3753826 156.162009,22.0666349 C156.660928,21.7578872 157.230313,21.6035156 157.870181,21.6035156 C158.859069,21.6035156 159.658892,21.9458177 160.269676,22.6304322 C160.880459,23.3150467 161.185846,24.2256151 161.185846,25.3621647 L161.185846,25.449419 C161.185846,26.1564065 161.050492,26.7906722 160.779778,27.3522351 C160.509064,27.913798 160.122017,28.351184 159.618624,28.6644063 C159.115231,28.9776287 158.536897,29.1342375 157.883605,29.1342375 C156.899192,29.1342375 156.101605,28.7919354 155.490822,28.1073209 C154.880038,27.4227064 154.574651,26.5166125 154.574651,25.3890122 L154.574651,25.3017578 Z M155.82306,25.449419 C155.82306,26.2548478 156.009872,26.9014185 156.383501,27.3891504 C156.757131,27.8768823 157.25716,28.1207446 157.883605,28.1207446 C158.514524,28.1207446 159.015672,27.8735264 159.387064,27.3790826 C159.758457,26.8846388 159.94415,26.1922041 159.94415,25.3017578 C159.94415,24.5052782 159.755101,23.8598262 159.376997,23.3653824 C158.998892,22.8709386 158.496626,22.6237204 157.870181,22.6237204 C157.25716,22.6237204 156.762724,22.8675827 156.386857,23.3553146 C156.01099,23.8430465 155.82306,24.5410743 155.82306,25.449419 Z M171.129452,29 C171.057858,28.8568127 170.999689,28.601764 170.954943,28.2348464 C170.377719,28.8344435 169.688641,29.1342375 168.887686,29.1342375 C168.17175,29.1342375 167.584467,28.9317646 167.12582,28.5268129 C166.667173,28.1218612 166.437853,27.608408 166.437853,26.986438 C166.437853,26.2302298 166.725342,25.6429468 167.300328,25.2245713 C167.875315,24.8061957 168.684088,24.5970111 169.726671,24.5970111 L170.934808,24.5970111 L170.934808,24.0265019 C170.934808,23.5924652 170.805046,23.2468072 170.545519,22.9895175 C170.285992,22.7322277 169.903419,22.6035847 169.397789,22.6035847 C168.954803,22.6035847 168.583416,22.7154482 168.283618,22.9391784 C167.983819,23.1629086 167.833922,23.4336182 167.833922,23.7513151 L166.585514,23.7513151 C166.585514,23.3888721 166.714157,23.0387396 166.971447,22.7009069 C167.228736,22.3630743 167.57775,22.0957207 168.018499,21.8988381 C168.459247,21.7019554 168.943616,21.6035156 169.471619,21.6035156 C170.30837,21.6035156 170.96389,21.8127003 171.438198,22.2310758 C171.912506,22.6494513 172.158606,23.225548 172.176504,23.9593832 L172.176504,27.3018961 C172.176504,27.9686121 172.261521,28.4988448 172.431556,28.89261 L172.431556,29 L171.129452,29 Z M169.068907,28.0536259 C169.458198,28.0536259 169.827347,27.9529488 170.176366,27.7515916 C170.525385,27.5502344 170.778197,27.2884739 170.934808,26.9663024 L170.934808,25.4762665 L169.961586,25.4762665 C168.440221,25.4762665 167.679549,25.921483 167.679549,26.8119293 C167.679549,27.2012199 167.809311,27.5054884 168.068838,27.7247441 C168.328365,27.9439997 168.661718,28.0536259 169.068907,28.0536259 Z M177.285901,28.1207446 C177.728886,28.1207446 178.115934,27.9865085 178.447055,27.7180322 C178.778175,27.4495559 178.961631,27.1139656 178.997428,26.7112512 L180.172006,26.7112512 C180.149633,27.1273894 180.006448,27.523386 179.742446,27.8992528 C179.478445,28.2751196 179.126075,28.5749136 178.685326,28.7986438 C178.244578,29.022374 177.778107,29.1342375 177.285901,29.1342375 C176.297013,29.1342375 175.510613,28.8042403 174.926677,28.1442362 C174.342741,27.484232 174.050778,26.581494 174.050778,25.4359953 L174.050778,25.2279272 C174.050778,24.5209397 174.180539,23.8922672 174.440066,23.3418908 C174.699593,22.7915144 175.072099,22.3641961 175.557593,22.059923 C176.043088,21.7556499 176.616947,21.6035156 177.279189,21.6035156 C178.093567,21.6035156 178.770341,21.8473779 179.30953,22.3351098 C179.84872,22.8228417 180.136209,23.4559888 180.172006,24.23457 L178.997428,24.23457 C178.961631,23.7647365 178.783769,23.3788076 178.463834,23.0767718 C178.1439,22.774736 177.749022,22.6237204 177.279189,22.6237204 C176.64827,22.6237204 176.159426,22.8508031 175.812644,23.3049755 C175.465863,23.7591479 175.292474,24.4157862 175.292474,25.2749103 L175.292474,25.5098259 C175.292474,26.3465769 175.464744,26.9909103 175.809289,27.4428454 C176.153833,27.8947805 176.646032,28.1207446 177.285901,28.1207446 Z M183.502756,19.9792423 L183.502756,21.7377531 L184.858554,21.7377531 L184.858554,22.697551 L183.502756,22.697551 L183.502756,27.201218 C183.502756,27.4920673 183.563162,27.710201 183.683977,27.8556256 C183.804791,28.0010503 184.01062,28.0737615 184.301469,28.0737615 C184.444656,28.0737615 184.641536,28.0469143 184.892114,27.993219 L184.892114,29 C184.565468,29.0894921 184.247775,29.1342375 183.939028,29.1342375 C183.384177,29.1342375 182.965808,28.9664423 182.683907,28.630847 C182.402007,28.2952516 182.261059,27.8187134 182.261059,27.201218 L182.261059,22.697551 L180.93882,22.697551 L180.93882,21.7377531 L182.261059,21.7377531 L182.261059,19.9792423 L183.502756,19.9792423 Z M187.907406,29 L186.665709,29 L186.665709,21.7377531 L187.907406,21.7377531 L187.907406,29 Z M186.565031,19.8114455 C186.565031,19.6100882 186.626556,19.4400558 186.749607,19.3013431 C186.872659,19.1626303 187.054996,19.093275 187.296625,19.093275 C187.538254,19.093275 187.72171,19.1626303 187.846999,19.3013431 C187.972288,19.4400558 188.034931,19.6100882 188.034931,19.8114455 C188.034931,20.0128027 187.972288,20.1805978 187.846999,20.314836 C187.72171,20.4490741 187.538254,20.5161922 187.296625,20.5161922 C187.054996,20.5161922 186.872659,20.4490741 186.749607,20.314836 C186.626556,20.1805978 186.565031,20.0128027 186.565031,19.8114455 Z M189.815238,25.3017578 C189.815238,24.5902957 189.955068,23.9504368 190.23473,23.382162 C190.514393,22.8138873 190.903678,22.3753826 191.402596,22.0666349 C191.901515,21.7578872 192.4709,21.6035156 193.110768,21.6035156 C194.099656,21.6035156 194.899479,21.9458177 195.510263,22.6304322 C196.121046,23.3150467 196.426433,24.2256151 196.426433,25.3621647 L196.426433,25.449419 C196.426433,26.1564065 196.291079,26.7906722 196.020365,27.3522351 C195.749652,27.913798 195.362604,28.351184 194.859211,28.6644063 C194.355818,28.9776287 193.777484,29.1342375 193.124192,29.1342375 C192.139779,29.1342375 191.342193,28.7919354 190.731409,28.1073209 C190.120625,27.4227064 189.815238,26.5166125 189.815238,25.3890122 L189.815238,25.3017578 Z M191.063647,25.449419 C191.063647,26.2548478 191.250459,26.9014185 191.624088,27.3891504 C191.997718,27.8768823 192.497747,28.1207446 193.124192,28.1207446 C193.755111,28.1207446 194.256259,27.8735264 194.627651,27.3790826 C194.999044,26.8846388 195.184737,26.1922041 195.184737,25.3017578 C195.184737,24.5052782 194.995688,23.8598262 194.617584,23.3653824 C194.23948,22.8709386 193.737213,22.6237204 193.110768,22.6237204 C192.497747,22.6237204 192.003311,22.8675827 191.627444,23.3553146 C191.251577,23.8430465 191.063647,24.5410743 191.063647,25.449419 Z M199.408166,21.7377531 L199.448437,22.6505679 C200.003288,21.9525295 200.728163,21.6035156 201.623084,21.6035156 C203.157873,21.6035156 203.931968,22.4693386 203.945392,24.2010106 L203.945392,29 L202.703696,29 L202.703696,24.1942987 C202.699221,23.67077 202.579527,23.2837225 202.34461,23.0331446 C202.109694,22.7825668 201.7439,22.6572797 201.247219,22.6572797 C200.844505,22.6572797 200.491016,22.7646686 200.186743,22.9794497 C199.88247,23.1942307 199.64532,23.4761265 199.475285,23.8251457 L199.475285,29 L198.233588,29 L198.233588,21.7377531 L199.408166,21.7377531 Z M206.094852,28.3489483 C206.094852,28.1341673 206.158615,27.9551858 206.286141,27.8119984 C206.413667,27.6688111 206.604953,27.5972185 206.860006,27.5972185 C207.115058,27.5972185 207.308582,27.6688111 207.440583,27.8119984 C207.572584,27.9551858 207.638583,28.1341673 207.638583,28.3489483 C207.638583,28.5547801 207.572584,28.7270498 207.440583,28.8657625 C207.308582,29.0044753 207.115058,29.0738306 206.860006,29.0738306 C206.604953,29.0738306 206.413667,29.0044753 206.286141,28.8657625 C206.158615,28.7270498 206.094852,28.5547801 206.094852,28.3489483 Z"/>
    </g>
    <g transform="translate(86 60)">
      <g fill="#F897BF" transform="translate(32 1)">
        <rect width="1" height="9"/>
        <rect width="1" height="9" x="16"/>
        <rect width="15" height="1" x="1" y="4"/>
      </g>
      <path fill="#C41261" d="M0.949,7.164 L3.534,7.164 L3.534,8 L0.025,8 L0.025,0.663 L0.949,0.663 L0.949,7.164 Z M5.074,6.944 C5.404,6.944 5.646,7.186 5.646,7.527 C5.646,7.846 5.393,8.088 5.074,8.088 C4.744,8.088 4.502,7.846 4.502,7.516 C4.502,7.186 4.744,6.944 5.074,6.944 Z M5.074,3.776 C5.404,3.776 5.646,4.018 5.646,4.359 C5.646,4.678 5.393,4.92 5.074,4.92 C4.744,4.92 4.502,4.678 4.502,4.348 C4.502,4.018 4.744,3.776 5.074,3.776 Z M9.188,1.994 L7.571,3.072 L7.571,2.236 L10.057,0.608 L10.057,8 L9.188,8 L9.188,1.994 Z M15.942,0.773 L14.061,3.71 C14.369,3.6 14.512,3.567 14.776,3.567 C15.997,3.567 16.943,4.524 16.943,5.767 C16.943,7.065 15.876,8.132 14.578,8.132 C13.269,8.132 12.257,7.098 12.257,5.767 C12.257,5.228 12.4,4.821 12.818,4.15 L14.919,0.773 L15.942,0.773 Z M14.622,4.315 C13.786,4.315 13.126,4.953 13.126,5.767 C13.126,6.625 13.775,7.307 14.6,7.307 C15.425,7.307 16.085,6.636 16.085,5.8 C16.085,4.975 15.436,4.315 14.622,4.315 Z M21.981,3.699 L21.981,0.663 L22.817,0.663 L22.817,8 L21.981,8 L21.981,7.131 C21.475,7.824 20.936,8.121 20.166,8.121 C18.769,8.121 17.779,7.032 17.779,5.492 C17.779,3.952 18.791,2.808 20.166,2.808 C20.914,2.808 21.486,3.083 21.981,3.699 Z M20.342,3.556 C19.341,3.556 18.659,4.348 18.659,5.503 C18.659,6.614 19.33,7.395 20.287,7.395 C21.266,7.395 21.981,6.581 21.981,5.481 C21.981,4.337 21.31,3.556 20.342,3.556 Z M24.5,2.929 L25.336,2.929 L25.336,3.853 C25.82,3.105 26.337,2.808 27.184,2.808 C28.592,2.808 29.571,3.886 29.571,5.426 C29.571,7.021 28.592,8.121 27.184,8.121 C26.788,8.121 26.425,8.033 26.073,7.857 C25.765,7.703 25.611,7.571 25.336,7.208 L25.336,10.376 L24.5,10.376 L24.5,2.929 Z M27.041,3.556 C26.029,3.556 25.336,4.359 25.336,5.547 C25.336,6.658 26.007,7.395 27.008,7.395 C28.009,7.395 28.68,6.614 28.68,5.459 C28.68,4.865 28.537,4.414 28.24,4.084 C27.943,3.754 27.492,3.556 27.041,3.556 Z M3.545,24.046 L2.995,24.574 C1.697,22.979 1.103,21.428 1.103,19.58 C1.103,17.688 1.796,15.818 3.017,14.443 L3.545,14.993 C2.434,16.368 1.884,17.897 1.884,19.547 C1.884,21.153 2.478,22.759 3.545,24.046 Z M5.701,17.666 L5.701,22 L4.865,22 L4.865,17.666 L4.172,17.666 L4.172,16.929 L4.865,16.929 L4.865,16.247 C4.865,15.246 5.382,14.652 6.262,14.652 C6.306,14.652 6.405,14.652 6.493,14.663 L6.493,15.411 C5.888,15.477 5.723,15.653 5.701,16.247 L5.701,16.929 L6.493,16.929 L6.493,17.666 L5.701,17.666 Z M8.693,16.929 L8.693,22 L7.857,22 L7.857,16.929 L8.693,16.929 Z M8.275,14.96 C8.572,14.96 8.803,15.202 8.803,15.51 C8.803,15.807 8.572,16.038 8.275,16.038 C7.967,16.038 7.736,15.807 7.736,15.499 C7.736,15.191 7.967,14.96 8.275,14.96 Z M11.993,20.163 L10.64,22 L9.617,22 L11.487,19.481 L9.584,16.929 L10.64,16.929 L11.993,18.788 L13.379,16.929 L14.402,16.929 L12.488,19.481 L14.314,22 L13.291,22 L11.993,20.163 Z M19.99,19.734 L15.766,19.734 C15.81,20.163 15.887,20.383 16.096,20.658 C16.426,21.109 16.91,21.351 17.46,21.351 C18.087,21.351 18.681,21.01 18.978,20.482 L19.715,20.757 C19.297,21.604 18.428,22.121 17.46,22.121 C15.953,22.121 14.875,21.021 14.875,19.481 C14.875,17.919 15.942,16.808 17.427,16.808 C18.901,16.808 20.001,17.919 20.001,19.404 C20.001,19.47 20.001,19.613 19.99,19.734 Z M15.777,19.118 L19.11,19.118 C19.077,18.722 19,18.502 18.824,18.249 C18.505,17.82 17.988,17.556 17.427,17.556 C16.866,17.556 16.36,17.82 16.063,18.26 C15.909,18.502 15.843,18.711 15.777,19.118 Z M25.006,17.699 L25.006,14.663 L25.842,14.663 L25.842,22 L25.006,22 L25.006,21.131 C24.5,21.824 23.961,22.121 23.191,22.121 C21.794,22.121 20.804,21.032 20.804,19.492 C20.804,17.952 21.816,16.808 23.191,16.808 C23.939,16.808 24.511,17.083 25.006,17.699 Z M23.367,17.556 C22.366,17.556 21.684,18.348 21.684,19.503 C21.684,20.614 22.355,21.395 23.312,21.395 C24.291,21.395 25.006,20.581 25.006,19.481 C25.006,18.337 24.335,17.556 23.367,17.556 Z M27.074,14.971 L27.624,14.443 C28.933,16.049 29.516,17.589 29.516,19.437 C29.516,21.34 28.823,23.188 27.602,24.574 L27.074,24.024 C28.185,22.649 28.735,21.12 28.735,19.47 C28.735,17.853 28.152,16.269 27.074,14.971 Z"/>
    </g>
    <g transform="translate(445 57)">
      <g fill="#F897BF" transform="translate(0 4)">
        <rect width="1" height="9"/>
        <rect width="1" height="9" x="16"/>
        <rect width="15" height="1" x="1" y="4"/>
      </g>
      <path fill="#C41261" d="M20.837,7.92 L20.837,11 L19.913,11 L19.913,3.663 L21.915,3.663 C23.477,3.663 24.423,4.466 24.423,5.797 C24.423,6.622 24.049,7.282 23.367,7.645 C23.015,7.832 22.685,7.909 22.014,7.953 L24.863,11 L23.686,11 L20.837,7.92 Z M20.837,7.293 L21.761,7.293 C22.872,7.293 23.477,6.787 23.477,5.863 C23.477,4.95 22.927,4.455 21.915,4.455 L20.837,4.455 L20.837,7.293 Z M26.425,9.944 C26.755,9.944 26.997,10.186 26.997,10.527 C26.997,10.846 26.744,11.088 26.425,11.088 C26.095,11.088 25.853,10.846 25.853,10.516 C25.853,10.186 26.095,9.944 26.425,9.944 Z M26.425,6.776 C26.755,6.776 26.997,7.018 26.997,7.359 C26.997,7.678 26.744,7.92 26.425,7.92 C26.095,7.92 25.853,7.678 25.853,7.348 C25.853,7.018 26.095,6.776 26.425,6.776 Z M30.539,4.994 L28.922,6.072 L28.922,5.236 L31.408,3.608 L31.408,11 L30.539,11 L30.539,4.994 Z M37.293,3.773 L35.412,6.71 C35.72,6.6 35.863,6.567 36.127,6.567 C37.348,6.567 38.294,7.524 38.294,8.767 C38.294,10.065 37.227,11.132 35.929,11.132 C34.62,11.132 33.608,10.098 33.608,8.767 C33.608,8.228 33.751,7.821 34.169,7.15 L36.27,3.773 L37.293,3.773 Z M35.973,7.315 C35.137,7.315 34.477,7.953 34.477,8.767 C34.477,9.625 35.126,10.307 35.951,10.307 C36.776,10.307 37.436,9.636 37.436,8.8 C37.436,7.975 36.787,7.315 35.973,7.315 Z M43.332,6.699 L43.332,3.663 L44.168,3.663 L44.168,11 L43.332,11 L43.332,10.131 C42.826,10.824 42.287,11.121 41.517,11.121 C40.12,11.121 39.13,10.032 39.13,8.492 C39.13,6.952 40.142,5.808 41.517,5.808 C42.265,5.808 42.837,6.083 43.332,6.699 Z M41.693,6.556 C40.692,6.556 40.01,7.348 40.01,8.503 C40.01,9.614 40.681,10.395 41.638,10.395 C42.617,10.395 43.332,9.581 43.332,8.481 C43.332,7.337 42.661,6.556 41.693,6.556 Z M45.851,5.929 L46.687,5.929 L46.687,6.853 C47.171,6.105 47.688,5.808 48.535,5.808 C49.943,5.808 50.922,6.886 50.922,8.426 C50.922,10.021 49.943,11.121 48.535,11.121 C48.139,11.121 47.776,11.033 47.424,10.857 C47.116,10.703 46.962,10.571 46.687,10.208 L46.687,13.376 L45.851,13.376 L45.851,5.929 Z M48.392,6.556 C47.38,6.556 46.687,7.359 46.687,8.547 C46.687,9.658 47.358,10.395 48.359,10.395 C49.36,10.395 50.031,9.614 50.031,8.459 C50.031,7.865 49.888,7.414 49.591,7.084 C49.294,6.754 48.843,6.556 48.392,6.556 Z M21.915,27.046 L21.365,27.574 C20.067,25.979 19.473,24.428 19.473,22.58 C19.473,20.688 20.166,18.818 21.387,17.443 L21.915,17.993 C20.804,19.368 20.254,20.897 20.254,22.547 C20.254,24.153 20.848,25.759 21.915,27.046 Z M23.147,19.929 L23.983,19.929 L23.983,20.633 C24.368,20.05 24.797,19.808 25.424,19.808 C26.117,19.808 26.557,20.105 26.788,20.732 C27.162,20.083 27.635,19.808 28.394,19.808 C28.977,19.808 29.417,19.995 29.681,20.347 C29.923,20.666 29.989,20.952 29.989,21.755 L29.989,25 L29.153,25 L29.153,21.953 C29.153,21.337 29.131,21.194 29.01,20.985 C28.856,20.721 28.526,20.556 28.13,20.556 C27.393,20.556 26.986,21.051 26.986,21.953 L26.986,25 L26.15,25 L26.15,21.964 C26.15,21.469 26.106,21.216 25.985,20.996 C25.842,20.71 25.534,20.556 25.16,20.556 C24.423,20.556 23.983,21.084 23.983,21.964 L23.983,25 L23.147,25 L23.147,19.929 Z M32.475,19.929 L32.475,25 L31.639,25 L31.639,19.929 L32.475,19.929 Z M32.068,17.96 C32.365,17.96 32.596,18.202 32.596,18.51 C32.596,18.807 32.354,19.038 32.057,19.038 C31.76,19.038 31.529,18.807 31.529,18.499 C31.529,18.191 31.76,17.96 32.068,17.96 Z M34.158,19.929 L34.994,19.929 L34.994,20.644 C35.434,20.05 35.874,19.808 36.501,19.808 C36.963,19.808 37.381,19.962 37.678,20.226 C37.997,20.534 38.107,20.886 38.107,21.579 L38.107,25 L37.271,25 L37.271,21.766 C37.271,21.315 37.216,21.073 37.084,20.897 C36.93,20.688 36.633,20.556 36.292,20.556 C35.918,20.556 35.577,20.699 35.324,20.985 C35.082,21.249 34.994,21.491 34.994,21.909 L34.994,25 L34.158,25 L34.158,19.929 Z M39.306,17.971 L39.856,17.443 C41.165,19.049 41.748,20.589 41.748,22.437 C41.748,24.34 41.055,26.188 39.834,27.574 L39.306,27.024 C40.417,25.649 40.967,24.12 40.967,22.47 C40.967,20.853 40.384,19.269 39.306,17.971 Z"/>
    </g>
    <use fill-rule="nonzero" stroke="#F897BF" stroke-dasharray="1" stroke-width="2" mask="url(#1-line-no-action-b)" transform="translate(134 70)" xlink:href="#1-line-no-action-a"/>
    <g transform="translate(226 56)">
      <g transform="translate(0 .48)">
        <polyline stroke="#979797" stroke-linecap="round" stroke-linejoin="round" points=".96 4.8 6.128 0 6.128 0 11.295 4.8" transform="rotate(180 6.128 2.4)"/>
        <polyline stroke="#979797" stroke-linecap="round" stroke-linejoin="round" points=".96 11.04 6.128 6.24 6.128 6.24 11.295 11.04" transform="matrix(-1 0 0 1 12.255 0)"/>
        <path stroke="#F897BF" d="M0.1875,5.52 L11.8125,5.52"/>
      </g>
      <path fill="#F897BF" d="M20.2985,4.929 L21.1675,4.929 L19.2535,10 L18.3735,10 L16.5145,4.929 L17.3945,4.929 L18.8245,8.801 L20.2985,4.929 Z M22.4985,8.944 C22.8285,8.944 23.0705,9.186 23.0705,9.527 C23.0705,9.846 22.8175,10.088 22.4985,10.088 C22.1685,10.088 21.9265,9.846 21.9265,9.516 C21.9265,9.186 22.1685,8.944 22.4985,8.944 Z M28.0425,8.801 L28.5595,9.373 C27.9875,9.89 27.4265,10.121 26.6895,10.121 C25.2375,10.121 24.2035,9.021 24.2035,7.481 C24.2035,5.908 25.2485,4.808 26.7335,4.808 C27.4595,4.808 28.0535,5.05 28.5815,5.567 L28.0425,6.106 C27.6575,5.754 27.2285,5.578 26.7555,5.578 C25.7545,5.578 25.0615,6.348 25.0615,7.448 C25.0615,8.57 25.7545,9.351 26.7445,9.351 C27.2395,9.351 27.6355,9.186 28.0425,8.801 Z M34.3455,7.734 L30.1215,7.734 C30.1655,8.163 30.2425,8.383 30.4515,8.658 C30.7815,9.109 31.2655,9.351 31.8155,9.351 C32.4425,9.351 33.0365,9.01 33.3335,8.482 L34.0705,8.757 C33.6525,9.604 32.7835,10.121 31.8155,10.121 C30.3085,10.121 29.2305,9.021 29.2305,7.481 C29.2305,5.919 30.2975,4.808 31.7825,4.808 C33.2565,4.808 34.3565,5.919 34.3565,7.404 C34.3565,7.47 34.3565,7.613 34.3455,7.734 Z M30.1325,7.118 L33.4655,7.118 C33.4325,6.722 33.3555,6.502 33.1795,6.249 C32.8605,5.82 32.3435,5.556 31.7825,5.556 C31.2215,5.556 30.7155,5.82 30.4185,6.26 C30.2645,6.502 30.1985,6.711 30.1325,7.118 Z M35.5665,4.929 L36.4025,4.929 L36.4025,5.644 C36.8425,5.05 37.2825,4.808 37.9095,4.808 C38.3715,4.808 38.7895,4.962 39.0865,5.226 C39.4055,5.534 39.5155,5.886 39.5155,6.579 L39.5155,10 L38.6795,10 L38.6795,6.766 C38.6795,6.315 38.6245,6.073 38.4925,5.897 C38.3385,5.688 38.0415,5.556 37.7005,5.556 C37.3265,5.556 36.9855,5.699 36.7325,5.985 C36.4905,6.249 36.4025,6.491 36.4025,6.909 L36.4025,10 L35.5665,10 L35.5665,4.929 Z M42.0565,5.666 L42.0565,8.966 C42.0675,9.219 42.1335,9.274 42.4415,9.274 L42.8265,9.274 L42.8265,10 L42.0455,10 C41.4515,9.989 41.2205,9.769 41.2205,9.208 L41.2205,5.666 L40.5165,5.666 L40.5165,4.929 L41.2205,4.929 L41.2205,3.334 L42.0565,3.334 L42.0565,4.929 L42.8265,4.929 L42.8265,5.666 L42.0565,5.666 Z M48.7225,7.734 L44.4985,7.734 C44.5425,8.163 44.6195,8.383 44.8285,8.658 C45.1585,9.109 45.6425,9.351 46.1925,9.351 C46.8195,9.351 47.4135,9.01 47.7105,8.482 L48.4475,8.757 C48.0295,9.604 47.1605,10.121 46.1925,10.121 C44.6855,10.121 43.6075,9.021 43.6075,7.481 C43.6075,5.919 44.6745,4.808 46.1595,4.808 C47.6335,4.808 48.7335,5.919 48.7335,7.404 C48.7335,7.47 48.7335,7.613 48.7225,7.734 Z M44.5095,7.118 L47.8425,7.118 C47.8095,6.722 47.7325,6.502 47.5565,6.249 C47.2375,5.82 46.7205,5.556 46.1595,5.556 C45.5985,5.556 45.0925,5.82 44.7955,6.26 C44.6415,6.502 44.5755,6.711 44.5095,7.118 Z M49.9435,4.929 L50.7795,4.929 L50.7795,5.787 C50.9335,5.424 51.0435,5.27 51.2415,5.116 C51.4945,4.918 51.8465,4.808 52.2095,4.808 L52.4075,4.808 L52.4075,5.655 C52.3195,5.644 52.2315,5.644 52.1765,5.644 C51.7255,5.644 51.3295,5.853 51.0765,6.227 C50.8565,6.546 50.7795,6.843 50.7795,7.426 L50.7795,10 L49.9435,10 L49.9435,4.929 Z M57.6325,5.666 L57.6325,8.966 C57.6435,9.219 57.7095,9.274 58.0175,9.274 L58.4025,9.274 L58.4025,10 L57.6215,10 C57.0275,9.989 56.7965,9.769 56.7965,9.208 L56.7965,5.666 L56.0925,5.666 L56.0925,4.929 L56.7965,4.929 L56.7965,3.334 L57.6325,3.334 L57.6325,4.929 L58.4025,4.929 L58.4025,5.666 L57.6325,5.666 Z M64.2985,7.734 L60.0745,7.734 C60.1185,8.163 60.1955,8.383 60.4045,8.658 C60.7345,9.109 61.2185,9.351 61.7685,9.351 C62.3955,9.351 62.9895,9.01 63.2865,8.482 L64.0235,8.757 C63.6055,9.604 62.7365,10.121 61.7685,10.121 C60.2615,10.121 59.1835,9.021 59.1835,7.481 C59.1835,5.919 60.2505,4.808 61.7355,4.808 C63.2095,4.808 64.3095,5.919 64.3095,7.404 C64.3095,7.47 64.3095,7.613 64.2985,7.734 Z M60.0855,7.118 L63.4185,7.118 C63.3855,6.722 63.3085,6.502 63.1325,6.249 C62.8135,5.82 62.2965,5.556 61.7355,5.556 C61.1745,5.556 60.6685,5.82 60.3715,6.26 C60.2175,6.502 60.1515,6.711 60.0855,7.118 Z M67.1365,8.163 L65.7835,10 L64.7605,10 L66.6305,7.481 L64.7275,4.929 L65.7835,4.929 L67.1365,6.788 L68.5225,4.929 L69.5455,4.929 L67.6315,7.481 L69.4575,10 L68.4345,10 L67.1365,8.163 Z M71.3165,5.666 L71.3165,8.966 C71.3275,9.219 71.3935,9.274 71.7015,9.274 L72.0865,9.274 L72.0865,10 L71.3055,10 C70.7115,9.989 70.4805,9.769 70.4805,9.208 L70.4805,5.666 L69.7765,5.666 L69.7765,4.929 L70.4805,4.929 L70.4805,3.334 L71.3165,3.334 L71.3165,4.929 L72.0865,4.929 L72.0865,5.666 L71.3165,5.666 Z M77.4105,4.929 L77.4105,10 L76.5745,10 L76.5745,4.929 L77.4105,4.929 Z M77.0035,2.96 C77.3005,2.96 77.5315,3.202 77.5315,3.51 C77.5315,3.807 77.2895,4.038 76.9925,4.038 C76.6955,4.038 76.4645,3.807 76.4645,3.499 C76.4645,3.191 76.6955,2.96 77.0035,2.96 Z M79.0935,4.929 L79.9295,4.929 L79.9295,5.644 C80.3695,5.05 80.8095,4.808 81.4365,4.808 C81.8985,4.808 82.3165,4.962 82.6135,5.226 C82.9325,5.534 83.0425,5.886 83.0425,6.579 L83.0425,10 L82.2065,10 L82.2065,6.766 C82.2065,6.315 82.1515,6.073 82.0195,5.897 C81.8655,5.688 81.5685,5.556 81.2275,5.556 C80.8535,5.556 80.5125,5.699 80.2595,5.985 C80.0175,6.249 79.9295,6.491 79.9295,6.909 L79.9295,10 L79.0935,10 L79.0935,4.929 Z M91.4245,8.801 L91.9415,9.373 C91.3695,9.89 90.8085,10.121 90.0715,10.121 C88.6195,10.121 87.5855,9.021 87.5855,7.481 C87.5855,5.908 88.6305,4.808 90.1155,4.808 C90.8415,4.808 91.4355,5.05 91.9635,5.567 L91.4245,6.106 C91.0395,5.754 90.6105,5.578 90.1375,5.578 C89.1365,5.578 88.4435,6.348 88.4435,7.448 C88.4435,8.57 89.1365,9.351 90.1265,9.351 C90.6215,9.351 91.0175,9.186 91.4245,8.801 Z M95.2085,4.808 C96.7045,4.808 97.7715,5.919 97.7715,7.481 C97.7715,8.966 96.6275,10.121 95.1755,10.121 C93.6685,10.121 92.6125,9.021 92.6125,7.459 C92.6125,5.886 93.6685,4.808 95.2085,4.808 Z M95.2085,5.578 C94.1635,5.578 93.4705,6.337 93.4705,7.47 C93.4705,8.592 94.1635,9.351 95.1975,9.351 C96.1985,9.351 96.9135,8.57 96.9135,7.47 C96.9135,6.337 96.2315,5.578 95.2085,5.578 Z M99.0475,4.929 L99.8835,4.929 L99.8835,5.644 C100.3235,5.05 100.7635,4.808 101.3905,4.808 C101.8525,4.808 102.2705,4.962 102.5675,5.226 C102.8865,5.534 102.9965,5.886 102.9965,6.579 L102.9965,10 L102.1605,10 L102.1605,6.766 C102.1605,6.315 102.1055,6.073 101.9735,5.897 C101.8195,5.688 101.5225,5.556 101.1815,5.556 C100.8075,5.556 100.4665,5.699 100.2135,5.985 C99.9715,6.249 99.8835,6.491 99.8835,6.909 L99.8835,10 L99.0475,10 L99.0475,4.929 Z M105.5375,5.666 L105.5375,8.966 C105.5485,9.219 105.6145,9.274 105.9225,9.274 L106.3075,9.274 L106.3075,10 L105.5265,10 C104.9325,9.989 104.7015,9.769 104.7015,9.208 L104.7015,5.666 L103.9975,5.666 L103.9975,4.929 L104.7015,4.929 L104.7015,3.334 L105.5375,3.334 L105.5375,4.929 L106.3075,4.929 L106.3075,5.666 L105.5375,5.666 Z M111.3235,5.765 L111.3235,4.929 L112.1595,4.929 L112.1595,10 L111.3235,10 L111.3235,9.021 C110.8175,9.78 110.2455,10.121 109.4755,10.121 C108.0785,10.121 107.0885,9.021 107.0885,7.481 C107.0885,5.93 108.1005,4.808 109.4975,4.808 C110.2675,4.808 110.8285,5.105 111.3235,5.765 Z M109.6185,5.556 C109.0685,5.556 108.6835,5.743 108.3865,6.161 C108.1225,6.524 107.9685,7.008 107.9685,7.503 C107.9685,8.581 108.6725,9.395 109.5965,9.395 C110.5535,9.395 111.3345,8.504 111.3345,7.415 C111.3345,6.315 110.6305,5.556 109.6185,5.556 Z M114.6785,4.929 L114.6785,10 L113.8425,10 L113.8425,4.929 L114.6785,4.929 Z M114.2715,2.96 C114.5685,2.96 114.7995,3.202 114.7995,3.51 C114.7995,3.807 114.5575,4.038 114.2605,4.038 C113.9635,4.038 113.7325,3.807 113.7325,3.499 C113.7325,3.191 113.9635,2.96 114.2715,2.96 Z M116.3615,4.929 L117.1975,4.929 L117.1975,5.644 C117.6375,5.05 118.0775,4.808 118.7045,4.808 C119.1665,4.808 119.5845,4.962 119.8815,5.226 C120.2005,5.534 120.3105,5.886 120.3105,6.579 L120.3105,10 L119.4745,10 L119.4745,6.766 C119.4745,6.315 119.4195,6.073 119.2875,5.897 C119.1335,5.688 118.8365,5.556 118.4955,5.556 C118.1215,5.556 117.7805,5.699 117.5275,5.985 C117.2855,6.249 117.1975,6.491 117.1975,6.909 L117.1975,10 L116.3615,10 L116.3615,4.929 Z M126.6685,7.734 L122.4445,7.734 C122.4885,8.163 122.5655,8.383 122.7745,8.658 C123.1045,9.109 123.5885,9.351 124.1385,9.351 C124.7655,9.351 125.3595,9.01 125.6565,8.482 L126.3935,8.757 C125.9755,9.604 125.1065,10.121 124.1385,10.121 C122.6315,10.121 121.5535,9.021 121.5535,7.481 C121.5535,5.919 122.6205,4.808 124.1055,4.808 C125.5795,4.808 126.6795,5.919 126.6795,7.404 C126.6795,7.47 126.6795,7.613 126.6685,7.734 Z M122.4555,7.118 L125.7885,7.118 C125.7555,6.722 125.6785,6.502 125.5025,6.249 C125.1835,5.82 124.6665,5.556 124.1055,5.556 C123.5445,5.556 123.0385,5.82 122.7415,6.26 C122.5875,6.502 122.5215,6.711 122.4555,7.118 Z M127.8895,4.929 L128.7255,4.929 L128.7255,5.787 C128.8795,5.424 128.9895,5.27 129.1875,5.116 C129.4405,4.918 129.7925,4.808 130.1555,4.808 L130.3535,4.808 L130.3535,5.655 C130.2655,5.644 130.1775,5.644 130.1225,5.644 C129.6715,5.644 129.2755,5.853 129.0225,6.227 C128.8025,6.546 128.7255,6.843 128.7255,7.426 L128.7255,10 L127.8895,10 L127.8895,4.929 Z"/>
    </g>
    <g transform="translate(164 120)">
      <rect width="24" height="24" fill="#25333D" rx="2"/>
      <path fill="#C41261" d="M28.913,8.663 L30.981,8.663 C32.477,8.663 33.324,9.367 33.324,10.61 C33.324,11.083 33.181,11.501 32.906,11.809 C32.73,12.018 32.554,12.128 32.158,12.282 C32.565,12.37 32.763,12.447 32.994,12.623 C33.39,12.942 33.599,13.437 33.599,14.031 C33.599,14.713 33.302,15.307 32.807,15.626 C32.378,15.901 31.905,16 30.981,16 L28.913,16 L28.913,8.663 Z M29.837,9.422 L29.837,11.963 L30.772,11.952 C31.355,11.952 31.707,11.875 31.971,11.666 C32.257,11.435 32.422,11.061 32.422,10.654 C32.422,10.181 32.191,9.763 31.839,9.598 C31.575,9.466 31.267,9.422 30.596,9.422 L29.837,9.422 Z M29.837,12.711 L29.837,15.252 L30.761,15.252 C31.531,15.252 31.828,15.197 32.147,15.01 C32.499,14.812 32.675,14.46 32.675,13.976 C32.675,13.096 32.158,12.711 30.992,12.711 L29.837,12.711 Z M38.175,12.029 L41.673,12.029 C41.684,12.183 41.684,12.381 41.684,12.447 C41.684,13.426 41.464,14.108 40.925,14.79 C40.221,15.67 39.275,16.132 38.164,16.132 C36.074,16.132 34.545,14.537 34.545,12.348 C34.545,10.126 36.063,8.531 38.164,8.531 C39.275,8.531 40.232,8.993 40.925,9.862 L40.232,10.423 C39.946,10.104 39.814,9.972 39.616,9.84 C39.209,9.543 38.692,9.378 38.164,9.378 C36.646,9.378 35.491,10.654 35.491,12.337 C35.491,13.998 36.646,15.285 38.142,15.285 C38.956,15.285 39.803,14.856 40.254,14.207 C40.54,13.822 40.65,13.459 40.727,12.821 L38.175,12.821 L38.175,12.029 Z M43.378,14.944 C43.708,14.944 43.95,15.186 43.95,15.527 C43.95,15.846 43.697,16.088 43.378,16.088 C43.048,16.088 42.806,15.846 42.806,15.516 C42.806,15.186 43.048,14.944 43.378,14.944 Z M43.378,11.776 C43.708,11.776 43.95,12.018 43.95,12.359 C43.95,12.678 43.697,12.92 43.378,12.92 C43.048,12.92 42.806,12.678 42.806,12.348 C42.806,12.018 43.048,11.776 43.378,11.776 Z M52.068,8.531 C53.091,8.531 54.07,8.993 54.774,9.796 C55.368,10.489 55.632,11.303 55.632,12.403 C55.632,13.547 55.192,14.57 54.389,15.252 C53.729,15.824 52.893,16.132 52.046,16.132 C50.957,16.132 49.89,15.615 49.208,14.757 C48.702,14.119 48.438,13.294 48.438,12.37 C48.438,10.181 49.989,8.531 52.068,8.531 Z M52.046,9.389 C50.517,9.389 49.384,10.643 49.384,12.337 C49.384,14.042 50.506,15.285 52.024,15.285 C52.761,15.285 53.487,14.966 53.982,14.405 C54.411,13.932 54.686,13.14 54.686,12.392 C54.686,11.413 54.422,10.698 53.85,10.148 C53.366,9.675 52.695,9.389 52.046,9.389 Z M57.788,15.131 L57.788,16 L56.952,16 L56.952,8.663 L57.788,8.663 L57.788,11.798 C58.294,11.105 58.833,10.808 59.57,10.808 C60.989,10.808 61.979,11.908 61.979,13.481 C61.979,15.032 61,16.121 59.614,16.121 C58.833,16.121 58.283,15.824 57.788,15.131 Z M59.46,11.556 C58.492,11.556 57.777,12.359 57.777,13.47 C57.777,14.625 58.437,15.395 59.427,15.395 C60.428,15.395 61.099,14.636 61.099,13.503 C61.099,12.37 60.417,11.556 59.46,11.556 Z M66.434,12.315 L65.598,12.315 L65.598,12.26 C65.598,11.787 65.213,11.49 64.63,11.49 C64.069,11.49 63.717,11.776 63.717,12.216 C63.717,12.656 63.937,12.821 64.85,13.074 C65.499,13.25 65.84,13.415 66.082,13.657 C66.335,13.91 66.489,14.273 66.489,14.647 C66.489,15.527 65.763,16.121 64.685,16.121 C63.53,16.121 62.881,15.582 62.793,14.559 L63.618,14.559 C63.673,15.131 64.047,15.439 64.685,15.439 C65.257,15.439 65.631,15.142 65.631,14.691 C65.631,14.251 65.345,14.031 64.476,13.811 C63.376,13.514 62.881,13.052 62.881,12.282 C62.881,11.402 63.596,10.808 64.663,10.808 C65.741,10.808 66.39,11.358 66.434,12.315 Z M68.612,10.929 L68.612,16 L67.776,16 L67.776,10.929 L68.612,10.929 Z M68.205,8.96 C68.502,8.96 68.733,9.202 68.733,9.51 C68.733,9.807 68.491,10.038 68.194,10.038 C67.897,10.038 67.666,9.807 67.666,9.499 C67.666,9.191 67.897,8.96 68.205,8.96 Z M74.09,11.699 L74.09,8.663 L74.926,8.663 L74.926,16 L74.09,16 L74.09,15.131 C73.584,15.824 73.045,16.121 72.275,16.121 C70.878,16.121 69.888,15.032 69.888,13.492 C69.888,11.952 70.9,10.808 72.275,10.808 C73.023,10.808 73.595,11.083 74.09,11.699 Z M72.451,11.556 C71.45,11.556 70.768,12.348 70.768,13.503 C70.768,14.614 71.439,15.395 72.396,15.395 C73.375,15.395 74.09,14.581 74.09,13.481 C74.09,12.337 73.419,11.556 72.451,11.556 Z M77.445,10.929 L77.445,16 L76.609,16 L76.609,10.929 L77.445,10.929 Z M77.038,8.96 C77.335,8.96 77.566,9.202 77.566,9.51 C77.566,9.807 77.324,10.038 77.027,10.038 C76.73,10.038 76.499,9.807 76.499,9.499 C76.499,9.191 76.73,8.96 77.038,8.96 Z M82.956,11.765 L82.956,10.929 L83.792,10.929 L83.792,16 L82.956,16 L82.956,15.021 C82.45,15.78 81.878,16.121 81.108,16.121 C79.711,16.121 78.721,15.021 78.721,13.481 C78.721,11.93 79.733,10.808 81.13,10.808 C81.9,10.808 82.461,11.105 82.956,11.765 Z M81.251,11.556 C80.701,11.556 80.316,11.743 80.019,12.161 C79.755,12.524 79.601,13.008 79.601,13.503 C79.601,14.581 80.305,15.395 81.229,15.395 C82.186,15.395 82.967,14.504 82.967,13.415 C82.967,12.315 82.263,11.556 81.251,11.556 Z M85.475,10.929 L86.311,10.929 L86.311,11.644 C86.751,11.05 87.191,10.808 87.818,10.808 C88.28,10.808 88.698,10.962 88.995,11.226 C89.314,11.534 89.424,11.886 89.424,12.579 L89.424,16 L88.588,16 L88.588,12.766 C88.588,12.315 88.533,12.073 88.401,11.897 C88.247,11.688 87.95,11.556 87.609,11.556 C87.235,11.556 86.894,11.699 86.641,11.985 C86.399,12.249 86.311,12.491 86.311,12.909 L86.311,16 L85.475,16 L85.475,10.929 Z M93.076,9.994 L91.459,11.072 L91.459,10.236 L93.945,8.608 L93.945,16 L93.076,16 L93.076,9.994 Z"/>
      <g transform="translate(116)">
        <rect width="23" height="23" x=".5" y=".5" stroke="#C41261" rx="2"/>
        <path fill="#C41261" d="M10.4655 14.306L7.1765 14.306 6.5055 16 5.5485 16 8.3095 8.663 9.4095 8.663 12.1045 16 11.0705 16 10.4655 14.306zM10.1795 13.514L8.8375 9.829 7.4515 13.514 10.1795 13.514zM16.8235 11.765L16.8235 10.929 17.6595 10.929 17.6595 16 16.8235 16 16.8235 15.021C16.3175 15.78 15.7455 16.121 14.9755 16.121 13.5785 16.121 12.5885 15.021 12.5885 13.481 12.5885 11.93 13.6005 10.808 14.9975 10.808 15.7675 10.808 16.3285 11.105 16.8235 11.765zM15.1185 11.556C14.5685 11.556 14.1835 11.743 13.8865 12.161 13.6225 12.524 13.4685 13.008 13.4685 13.503 13.4685 14.581 14.1725 15.395 15.0965 15.395 16.0535 15.395 16.8345 14.504 16.8345 13.415 16.8345 12.315 16.1305 11.556 15.1185 11.556zM30.904 9.455L30.904 16 29.98 16 29.98 9.455 28.11 9.455 28.11 8.663 32.763 8.663 32.763 9.455 30.904 9.455zM34.622 9.455L34.622 11.908 37.515 11.908 37.515 12.7 34.622 12.7 34.622 15.208 37.515 15.208 37.515 16 33.698 16 33.698 8.663 37.515 8.663 37.515 9.455 34.622 9.455zM41.134 13.074L39.264 16 38.142 16 40.595 12.26 38.23 8.663 39.341 8.663 41.134 11.446 42.938 8.663 44.016 8.663 41.662 12.26 44.082 16 43.015 16 41.134 13.074zM47.052 9.455L47.052 16 46.128 16 46.128 9.455 44.258 9.455 44.258 8.663 48.911 8.663 48.911 9.455 47.052 9.455zM50.286 14.944C50.616 14.944 50.858 15.186 50.858 15.527 50.858 15.846 50.605 16.088 50.286 16.088 49.956 16.088 49.714 15.846 49.714 15.516 49.714 15.186 49.956 14.944 50.286 14.944zM50.286 11.776C50.616 11.776 50.858 12.018 50.858 12.359 50.858 12.678 50.605 12.92 50.286 12.92 49.956 12.92 49.714 12.678 49.714 12.348 49.714 12.018 49.956 11.776 50.286 11.776zM55.775 8.663L57.843 8.663C59.339 8.663 60.186 9.367 60.186 10.61 60.186 11.083 60.043 11.501 59.768 11.809 59.592 12.018 59.416 12.128 59.02 12.282 59.427 12.37 59.625 12.447 59.856 12.623 60.252 12.942 60.461 13.437 60.461 14.031 60.461 14.713 60.164 15.307 59.669 15.626 59.24 15.901 58.767 16 57.843 16L55.775 16 55.775 8.663zM56.699 9.422L56.699 11.963 57.634 11.952C58.217 11.952 58.569 11.875 58.833 11.666 59.119 11.435 59.284 11.061 59.284 10.654 59.284 10.181 59.053 9.763 58.701 9.598 58.437 9.466 58.129 9.422 57.458 9.422L56.699 9.422zM56.699 12.711L56.699 15.252 57.623 15.252C58.393 15.252 58.69 15.197 59.009 15.01 59.361 14.812 59.537 14.46 59.537 13.976 59.537 13.096 59.02 12.711 57.854 12.711L56.699 12.711zM63.948 10.808C65.444 10.808 66.511 11.919 66.511 13.481 66.511 14.966 65.367 16.121 63.915 16.121 62.408 16.121 61.352 15.021 61.352 13.459 61.352 11.886 62.408 10.808 63.948 10.808zM63.948 11.578C62.903 11.578 62.21 12.337 62.21 13.47 62.21 14.592 62.903 15.351 63.937 15.351 64.938 15.351 65.653 14.57 65.653 13.47 65.653 12.337 64.971 11.578 63.948 11.578zM71.582 11.699L71.582 8.663 72.418 8.663 72.418 16 71.582 16 71.582 15.131C71.076 15.824 70.537 16.121 69.767 16.121 68.37 16.121 67.38 15.032 67.38 13.492 67.38 11.952 68.392 10.808 69.767 10.808 70.515 10.808 71.087 11.083 71.582 11.699zM69.943 11.556C68.942 11.556 68.26 12.348 68.26 13.503 68.26 14.614 68.931 15.395 69.888 15.395 70.867 15.395 71.582 14.581 71.582 13.481 71.582 12.337 70.911 11.556 69.943 11.556zM75.586 14.691L77.104 10.929 78.017 10.929 74.992 18.442 74.079 18.442 75.135 15.846 73.331 10.929 74.222 10.929 75.586 14.691zM83.085 15.197L85.67 15.197 85.67 16 81.556 16 84.108 12.348C84.845 11.281 85.01 10.951 85.01 10.511 85.01 9.873 84.504 9.422 83.789 9.422 83.294 9.422 82.887 9.653 82.722 10.038 82.634 10.247 82.601 10.412 82.59 10.797L81.765 10.797C81.809 9.4 82.546 8.63 83.855 8.63 85.054 8.63 85.89 9.378 85.89 10.445 85.89 11.061 85.67 11.6 85.054 12.458L83.085 15.197zM90.51 8.663L86.825 18.376 86.11 18.376 89.795 8.663 90.51 8.663zM99.373 14.306L101.056 8.663 102.013 8.663 99.769 16 98.955 16 97.338 10.236 95.71 16 94.896 16 92.652 8.663 93.631 8.663 95.303 14.284 96.931 8.663 97.8 8.663 99.373 14.306zM103.74 8.663L103.74 11.633C104.202 11.061 104.664 10.808 105.269 10.808 105.709 10.808 106.171 10.984 106.446 11.27 106.721 11.545 106.842 11.941 106.842 12.59L106.842 16 106.006 16 106.006 12.634C106.006 11.941 105.665 11.556 105.06 11.556 104.675 11.556 104.334 11.71 104.07 12.007 103.817 12.293 103.74 12.546 103.74 13.03L103.74 16 102.904 16 102.904 8.663 103.74 8.663zM109.328 10.929L109.328 16 108.492 16 108.492 10.929 109.328 10.929zM108.921 8.96C109.218 8.96 109.449 9.202 109.449 9.51 109.449 9.807 109.207 10.038 108.91 10.038 108.613 10.038 108.382 9.807 108.382 9.499 108.382 9.191 108.613 8.96 108.921 8.96zM111.902 11.666L111.902 14.966C111.913 15.219 111.979 15.274 112.287 15.274L112.672 15.274 112.672 16 111.891 16C111.297 15.989 111.066 15.769 111.066 15.208L111.066 11.666 110.362 11.666 110.362 10.929 111.066 10.929 111.066 9.334 111.902 9.334 111.902 10.929 112.672 10.929 112.672 11.666 111.902 11.666zM118.568 13.734L114.344 13.734C114.388 14.163 114.465 14.383 114.674 14.658 115.004 15.109 115.488 15.351 116.038 15.351 116.665 15.351 117.259 15.01 117.556 14.482L118.293 14.757C117.875 15.604 117.006 16.121 116.038 16.121 114.531 16.121 113.453 15.021 113.453 13.481 113.453 11.919 114.52 10.808 116.005 10.808 117.479 10.808 118.579 11.919 118.579 13.404 118.579 13.47 118.579 13.613 118.568 13.734zM114.355 13.118L117.688 13.118C117.655 12.722 117.578 12.502 117.402 12.249 117.083 11.82 116.566 11.556 116.005 11.556 115.444 11.556 114.938 11.82 114.641 12.26 114.487 12.502 114.421 12.711 114.355 13.118z"/>
      </g>
    </g>
    <g transform="translate(363 34)">
      <g fill="#F897BF" transform="translate(29 18)">
        <rect width="1" height="46" x="4" y="1"/>
        <rect width="9" height="1"/>
        <rect width="9" height="1" y="47"/>
      </g>
      <path fill="#C41261" d="M2.282,7.755 L2.282,11 L1.358,11 L1.358,3.663 L2.282,3.663 L2.282,6.963 L5.857,6.963 L5.857,3.663 L6.781,3.663 L6.781,11 L5.857,11 L5.857,7.755 L2.282,7.755 Z M8.959,9.944 C9.289,9.944 9.531,10.186 9.531,10.527 C9.531,10.846 9.278,11.088 8.959,11.088 C8.629,11.088 8.387,10.846 8.387,10.516 C8.387,10.186 8.629,9.944 8.959,9.944 Z M8.959,6.776 C9.289,6.776 9.531,7.018 9.531,7.359 C9.531,7.678 9.278,7.92 8.959,7.92 C8.629,7.92 8.387,7.678 8.387,7.348 C8.387,7.018 8.629,6.776 8.959,6.776 Z M13.601,9.35 L10.664,9.35 L10.664,8.668 L14.448,3.564 L14.448,8.558 L15.306,8.558 L15.306,9.35 L14.448,9.35 L14.448,11 L13.601,11 L13.601,9.35 Z M13.601,8.558 L13.601,5.753 L11.544,8.558 L13.601,8.558 Z M19.365,7.018 C19.783,7.15 19.981,7.249 20.212,7.491 C20.575,7.854 20.762,8.338 20.762,8.91 C20.762,10.208 19.805,11.132 18.463,11.132 C17.132,11.132 16.197,10.241 16.197,8.987 C16.197,8.404 16.395,7.876 16.747,7.513 C16.978,7.271 17.165,7.161 17.605,7.018 C17.22,6.886 17.055,6.776 16.857,6.534 C16.615,6.237 16.483,5.863 16.483,5.456 C16.483,4.411 17.341,3.641 18.507,3.641 C19.662,3.641 20.498,4.4 20.498,5.445 C20.498,5.863 20.355,6.259 20.091,6.567 C19.893,6.787 19.739,6.886 19.365,7.018 Z M18.507,4.411 C17.803,4.411 17.319,4.851 17.319,5.467 C17.319,6.094 17.836,6.589 18.485,6.589 C19.112,6.589 19.673,6.072 19.673,5.478 C19.673,4.906 19.134,4.411 18.507,4.411 Z M18.496,7.48 C17.704,7.48 17.066,8.107 17.066,8.899 C17.066,9.68 17.693,10.318 18.474,10.318 C19.255,10.318 19.882,9.68 19.882,8.899 C19.882,8.129 19.255,7.48 18.496,7.48 Z M25.866,6.699 L25.866,3.663 L26.702,3.663 L26.702,11 L25.866,11 L25.866,10.131 C25.36,10.824 24.821,11.121 24.051,11.121 C22.654,11.121 21.664,10.032 21.664,8.492 C21.664,6.952 22.676,5.808 24.051,5.808 C24.799,5.808 25.371,6.083 25.866,6.699 Z M24.227,6.556 C23.226,6.556 22.544,7.348 22.544,8.503 C22.544,9.614 23.215,10.395 24.172,10.395 C25.151,10.395 25.866,9.581 25.866,8.481 C25.866,7.337 25.195,6.556 24.227,6.556 Z M28.385,5.929 L29.221,5.929 L29.221,6.853 C29.705,6.105 30.222,5.808 31.069,5.808 C32.477,5.808 33.456,6.886 33.456,8.426 C33.456,10.021 32.477,11.121 31.069,11.121 C30.673,11.121 30.31,11.033 29.958,10.857 C29.65,10.703 29.496,10.571 29.221,10.208 L29.221,13.376 L28.385,13.376 L28.385,5.929 Z M30.926,6.556 C29.914,6.556 29.221,7.359 29.221,8.547 C29.221,9.658 29.892,10.395 30.893,10.395 C31.894,10.395 32.565,9.614 32.565,8.459 C32.565,7.865 32.422,7.414 32.125,7.084 C31.828,6.754 31.377,6.556 30.926,6.556 Z M40.1,13.046 L39.55,13.574 C38.252,11.979 37.658,10.428 37.658,8.58 C37.658,6.688 38.351,4.818 39.572,3.443 L40.1,3.993 C38.989,5.368 38.439,6.897 38.439,8.547 C38.439,10.153 39.033,11.759 40.1,13.046 Z M42.256,6.666 L42.256,11 L41.42,11 L41.42,6.666 L40.727,6.666 L40.727,5.929 L41.42,5.929 L41.42,5.247 C41.42,4.246 41.937,3.652 42.817,3.652 C42.861,3.652 42.96,3.652 43.048,3.663 L43.048,4.411 C42.443,4.477 42.278,4.653 42.256,5.247 L42.256,5.929 L43.048,5.929 L43.048,6.666 L42.256,6.666 Z M45.248,5.929 L45.248,11 L44.412,11 L44.412,5.929 L45.248,5.929 Z M44.83,3.96 C45.127,3.96 45.358,4.202 45.358,4.51 C45.358,4.807 45.127,5.038 44.83,5.038 C44.522,5.038 44.291,4.807 44.291,4.499 C44.291,4.191 44.522,3.96 44.83,3.96 Z M48.548,9.163 L47.195,11 L46.172,11 L48.042,8.481 L46.139,5.929 L47.195,5.929 L48.548,7.788 L49.934,5.929 L50.957,5.929 L49.043,8.481 L50.869,11 L49.846,11 L48.548,9.163 Z M56.545,8.734 L52.321,8.734 C52.365,9.163 52.442,9.383 52.651,9.658 C52.981,10.109 53.465,10.351 54.015,10.351 C54.642,10.351 55.236,10.01 55.533,9.482 L56.27,9.757 C55.852,10.604 54.983,11.121 54.015,11.121 C52.508,11.121 51.43,10.021 51.43,8.481 C51.43,6.919 52.497,5.808 53.982,5.808 C55.456,5.808 56.556,6.919 56.556,8.404 C56.556,8.47 56.556,8.613 56.545,8.734 Z M52.332,8.118 L55.665,8.118 C55.632,7.722 55.555,7.502 55.379,7.249 C55.06,6.82 54.543,6.556 53.982,6.556 C53.421,6.556 52.915,6.82 52.618,7.26 C52.464,7.502 52.398,7.711 52.332,8.118 Z M61.561,6.699 L61.561,3.663 L62.397,3.663 L62.397,11 L61.561,11 L61.561,10.131 C61.055,10.824 60.516,11.121 59.746,11.121 C58.349,11.121 57.359,10.032 57.359,8.492 C57.359,6.952 58.371,5.808 59.746,5.808 C60.494,5.808 61.066,6.083 61.561,6.699 Z M59.922,6.556 C58.921,6.556 58.239,7.348 58.239,8.503 C58.239,9.614 58.91,10.395 59.867,10.395 C60.846,10.395 61.561,9.581 61.561,8.481 C61.561,7.337 60.89,6.556 59.922,6.556 Z M63.629,3.971 L64.179,3.443 C65.488,5.049 66.071,6.589 66.071,8.437 C66.071,10.34 65.378,12.188 64.157,13.574 L63.629,13.024 C64.74,11.649 65.29,10.12 65.29,8.47 C65.29,6.853 64.707,5.269 63.629,3.971 Z"/>
    </g>
    <g transform="translate(458 96)">
      <path stroke="#C41261" d="M0 6.5C3.58985087 6.5 6.5 3.58985087 6.5 1.42108547e-14M2 8.5C5.58985087 8.5 8.5 5.58985087 8.5 2"/>
      <path fill="#C41261" d="M13.8935,8.92 L13.8935,12 L12.9695,12 L12.9695,4.663 L14.9715,4.663 C16.5335,4.663 17.4795,5.466 17.4795,6.797 C17.4795,7.622 17.1055,8.282 16.4235,8.645 C16.0715,8.832 15.7415,8.909 15.0705,8.953 L17.9195,12 L16.7425,12 L13.8935,8.92 Z M13.8935,8.293 L14.8175,8.293 C15.9285,8.293 16.5335,7.787 16.5335,6.863 C16.5335,5.95 15.9835,5.455 14.9715,5.455 L13.8935,5.455 L13.8935,8.293 Z M22.8805,7.765 L22.8805,6.929 L23.7165,6.929 L23.7165,12 L22.8805,12 L22.8805,11.021 C22.3745,11.78 21.8025,12.121 21.0325,12.121 C19.6355,12.121 18.6455,11.021 18.6455,9.481 C18.6455,7.93 19.6575,6.808 21.0545,6.808 C21.8245,6.808 22.3855,7.105 22.8805,7.765 Z M21.1755,7.556 C20.6255,7.556 20.2405,7.743 19.9435,8.161 C19.6795,8.524 19.5255,9.008 19.5255,9.503 C19.5255,10.581 20.2295,11.395 21.1535,11.395 C22.1105,11.395 22.8915,10.504 22.8915,9.415 C22.8915,8.315 22.1875,7.556 21.1755,7.556 Z M29.1945,7.699 L29.1945,4.663 L30.0305,4.663 L30.0305,12 L29.1945,12 L29.1945,11.131 C28.6885,11.824 28.1495,12.121 27.3795,12.121 C25.9825,12.121 24.9925,11.032 24.9925,9.492 C24.9925,7.952 26.0045,6.808 27.3795,6.808 C28.1275,6.808 28.6995,7.083 29.1945,7.699 Z M27.5555,7.556 C26.5545,7.556 25.8725,8.348 25.8725,9.503 C25.8725,10.614 26.5435,11.395 27.5005,11.395 C28.4795,11.395 29.1945,10.581 29.1945,9.481 C29.1945,8.337 28.5235,7.556 27.5555,7.556 Z M32.5495,6.929 L32.5495,12 L31.7135,12 L31.7135,6.929 L32.5495,6.929 Z M32.1425,4.96 C32.4395,4.96 32.6705,5.202 32.6705,5.51 C32.6705,5.807 32.4285,6.038 32.1315,6.038 C31.8345,6.038 31.6035,5.807 31.6035,5.499 C31.6035,5.191 31.8345,4.96 32.1425,4.96 Z M37.1805,6.929 L38.0275,6.929 L38.0275,10.174 C38.0275,10.867 37.8955,11.252 37.5215,11.593 C37.1475,11.934 36.6305,12.121 36.0585,12.121 C35.4865,12.121 34.9585,11.923 34.5955,11.582 C34.2545,11.252 34.0895,10.79 34.0895,10.174 L34.0895,6.929 L34.9255,6.929 L34.9255,10.152 C34.9255,10.867 35.3875,11.373 36.0585,11.373 C36.4105,11.373 36.7515,11.23 36.9605,10.988 C37.1255,10.79 37.1805,10.581 37.1805,10.174 L37.1805,6.929 Z M42.7465,8.315 L41.9105,8.315 L41.9105,8.26 C41.9105,7.787 41.5255,7.49 40.9425,7.49 C40.3815,7.49 40.0295,7.776 40.0295,8.216 C40.0295,8.656 40.2495,8.821 41.1625,9.074 C41.8115,9.25 42.1525,9.415 42.3945,9.657 C42.6475,9.91 42.8015,10.273 42.8015,10.647 C42.8015,11.527 42.0755,12.121 40.9975,12.121 C39.8425,12.121 39.1935,11.582 39.1055,10.559 L39.9305,10.559 C39.9855,11.131 40.3595,11.439 40.9975,11.439 C41.5695,11.439 41.9435,11.142 41.9435,10.691 C41.9435,10.251 41.6575,10.031 40.7885,9.811 C39.6885,9.514 39.1935,9.052 39.1935,8.282 C39.1935,7.402 39.9085,6.808 40.9755,6.808 C42.0535,6.808 42.7025,7.358 42.7465,8.315 Z M44.5175,10.944 C44.8475,10.944 45.0895,11.186 45.0895,11.527 C45.0895,11.846 44.8365,12.088 44.5175,12.088 C44.1875,12.088 43.9455,11.846 43.9455,11.516 C43.9455,11.186 44.1875,10.944 44.5175,10.944 Z M44.5175,7.776 C44.8475,7.776 45.0895,8.018 45.0895,8.359 C45.0895,8.678 44.8365,8.92 44.5175,8.92 C44.1875,8.92 43.9455,8.678 43.9455,8.348 C43.9455,8.018 44.1875,7.776 44.5175,7.776 Z M49.1595,10.35 L46.2225,10.35 L46.2225,9.668 L50.0065,4.564 L50.0065,9.558 L50.8645,9.558 L50.8645,10.35 L50.0065,10.35 L50.0065,12 L49.1595,12 L49.1595,10.35 Z M49.1595,9.558 L49.1595,6.753 L47.1025,9.558 L49.1595,9.558 Z M55.9245,7.699 L55.9245,4.663 L56.7605,4.663 L56.7605,12 L55.9245,12 L55.9245,11.131 C55.4185,11.824 54.8795,12.121 54.1095,12.121 C52.7125,12.121 51.7225,11.032 51.7225,9.492 C51.7225,7.952 52.7345,6.808 54.1095,6.808 C54.8575,6.808 55.4295,7.083 55.9245,7.699 Z M54.2855,7.556 C53.2845,7.556 52.6025,8.348 52.6025,9.503 C52.6025,10.614 53.2735,11.395 54.2305,11.395 C55.2095,11.395 55.9245,10.581 55.9245,9.481 C55.9245,8.337 55.2535,7.556 54.2855,7.556 Z M58.4435,6.929 L59.2795,6.929 L59.2795,7.853 C59.7635,7.105 60.2805,6.808 61.1275,6.808 C62.5355,6.808 63.5145,7.886 63.5145,9.426 C63.5145,11.021 62.5355,12.121 61.1275,12.121 C60.7315,12.121 60.3685,12.033 60.0165,11.857 C59.7085,11.703 59.5545,11.571 59.2795,11.208 L59.2795,14.376 L58.4435,14.376 L58.4435,6.929 Z M60.9845,7.556 C59.9725,7.556 59.2795,8.359 59.2795,9.547 C59.2795,10.658 59.9505,11.395 60.9515,11.395 C61.9525,11.395 62.6235,10.614 62.6235,9.459 C62.6235,8.865 62.4805,8.414 62.1835,8.084 C61.8865,7.754 61.4355,7.556 60.9845,7.556 Z"/>
    </g>
  </g>
</svg>
