<svg xmlns="http://www.w3.org/2000/svg" xmlns:xlink="http://www.w3.org/1999/xlink" width="580" height="180" viewBox="0 0 580 180">
  <defs>
    <rect id="1-a" width="327" height="17"/>
    <mask id="1-b" width="327" height="17" x="0" y="0" fill="#fff">
      <use xlink:href="#1-a"/>
    </mask>
  </defs>
  <g fill="none" fill-rule="evenodd">
    <rect width="580" height="180" fill="#F5F5F5" fill-rule="nonzero"/>
    <rect width="580" height="180" fill="#FFF" fill-opacity=".01" fill-rule="nonzero"/>
    <g transform="translate(163 130)">
      <rect width="24" height="24" fill="#25333D" rx="2"/>
      <path fill="#C41261" d="M28.913,8.663 L30.981,8.663 C32.477,8.663 33.324,9.367 33.324,10.61 C33.324,11.083 33.181,11.501 32.906,11.809 C32.73,12.018 32.554,12.128 32.158,12.282 C32.565,12.37 32.763,12.447 32.994,12.623 C33.39,12.942 33.599,13.437 33.599,14.031 C33.599,14.713 33.302,15.307 32.807,15.626 C32.378,15.901 31.905,16 30.981,16 L28.913,16 L28.913,8.663 Z M29.837,9.422 L29.837,11.963 L30.772,11.952 C31.355,11.952 31.707,11.875 31.971,11.666 C32.257,11.435 32.422,11.061 32.422,10.654 C32.422,10.181 32.191,9.763 31.839,9.598 C31.575,9.466 31.267,9.422 30.596,9.422 L29.837,9.422 Z M29.837,12.711 L29.837,15.252 L30.761,15.252 C31.531,15.252 31.828,15.197 32.147,15.01 C32.499,14.812 32.675,14.46 32.675,13.976 C32.675,13.096 32.158,12.711 30.992,12.711 L29.837,12.711 Z M38.175,12.029 L41.673,12.029 C41.684,12.183 41.684,12.381 41.684,12.447 C41.684,13.426 41.464,14.108 40.925,14.79 C40.221,15.67 39.275,16.132 38.164,16.132 C36.074,16.132 34.545,14.537 34.545,12.348 C34.545,10.126 36.063,8.531 38.164,8.531 C39.275,8.531 40.232,8.993 40.925,9.862 L40.232,10.423 C39.946,10.104 39.814,9.972 39.616,9.84 C39.209,9.543 38.692,9.378 38.164,9.378 C36.646,9.378 35.491,10.654 35.491,12.337 C35.491,13.998 36.646,15.285 38.142,15.285 C38.956,15.285 39.803,14.856 40.254,14.207 C40.54,13.822 40.65,13.459 40.727,12.821 L38.175,12.821 L38.175,12.029 Z M43.378,14.944 C43.708,14.944 43.95,15.186 43.95,15.527 C43.95,15.846 43.697,16.088 43.378,16.088 C43.048,16.088 42.806,15.846 42.806,15.516 C42.806,15.186 43.048,14.944 43.378,14.944 Z M43.378,11.776 C43.708,11.776 43.95,12.018 43.95,12.359 C43.95,12.678 43.697,12.92 43.378,12.92 C43.048,12.92 42.806,12.678 42.806,12.348 C42.806,12.018 43.048,11.776 43.378,11.776 Z M52.068,8.531 C53.091,8.531 54.07,8.993 54.774,9.796 C55.368,10.489 55.632,11.303 55.632,12.403 C55.632,13.547 55.192,14.57 54.389,15.252 C53.729,15.824 52.893,16.132 52.046,16.132 C50.957,16.132 49.89,15.615 49.208,14.757 C48.702,14.119 48.438,13.294 48.438,12.37 C48.438,10.181 49.989,8.531 52.068,8.531 Z M52.046,9.389 C50.517,9.389 49.384,10.643 49.384,12.337 C49.384,14.042 50.506,15.285 52.024,15.285 C52.761,15.285 53.487,14.966 53.982,14.405 C54.411,13.932 54.686,13.14 54.686,12.392 C54.686,11.413 54.422,10.698 53.85,10.148 C53.366,9.675 52.695,9.389 52.046,9.389 Z M57.788,15.131 L57.788,16 L56.952,16 L56.952,8.663 L57.788,8.663 L57.788,11.798 C58.294,11.105 58.833,10.808 59.57,10.808 C60.989,10.808 61.979,11.908 61.979,13.481 C61.979,15.032 61,16.121 59.614,16.121 C58.833,16.121 58.283,15.824 57.788,15.131 Z M59.46,11.556 C58.492,11.556 57.777,12.359 57.777,13.47 C57.777,14.625 58.437,15.395 59.427,15.395 C60.428,15.395 61.099,14.636 61.099,13.503 C61.099,12.37 60.417,11.556 59.46,11.556 Z M66.434,12.315 L65.598,12.315 L65.598,12.26 C65.598,11.787 65.213,11.49 64.63,11.49 C64.069,11.49 63.717,11.776 63.717,12.216 C63.717,12.656 63.937,12.821 64.85,13.074 C65.499,13.25 65.84,13.415 66.082,13.657 C66.335,13.91 66.489,14.273 66.489,14.647 C66.489,15.527 65.763,16.121 64.685,16.121 C63.53,16.121 62.881,15.582 62.793,14.559 L63.618,14.559 C63.673,15.131 64.047,15.439 64.685,15.439 C65.257,15.439 65.631,15.142 65.631,14.691 C65.631,14.251 65.345,14.031 64.476,13.811 C63.376,13.514 62.881,13.052 62.881,12.282 C62.881,11.402 63.596,10.808 64.663,10.808 C65.741,10.808 66.39,11.358 66.434,12.315 Z M68.612,10.929 L68.612,16 L67.776,16 L67.776,10.929 L68.612,10.929 Z M68.205,8.96 C68.502,8.96 68.733,9.202 68.733,9.51 C68.733,9.807 68.491,10.038 68.194,10.038 C67.897,10.038 67.666,9.807 67.666,9.499 C67.666,9.191 67.897,8.96 68.205,8.96 Z M74.09,11.699 L74.09,8.663 L74.926,8.663 L74.926,16 L74.09,16 L74.09,15.131 C73.584,15.824 73.045,16.121 72.275,16.121 C70.878,16.121 69.888,15.032 69.888,13.492 C69.888,11.952 70.9,10.808 72.275,10.808 C73.023,10.808 73.595,11.083 74.09,11.699 Z M72.451,11.556 C71.45,11.556 70.768,12.348 70.768,13.503 C70.768,14.614 71.439,15.395 72.396,15.395 C73.375,15.395 74.09,14.581 74.09,13.481 C74.09,12.337 73.419,11.556 72.451,11.556 Z M77.445,10.929 L77.445,16 L76.609,16 L76.609,10.929 L77.445,10.929 Z M77.038,8.96 C77.335,8.96 77.566,9.202 77.566,9.51 C77.566,9.807 77.324,10.038 77.027,10.038 C76.73,10.038 76.499,9.807 76.499,9.499 C76.499,9.191 76.73,8.96 77.038,8.96 Z M82.956,11.765 L82.956,10.929 L83.792,10.929 L83.792,16 L82.956,16 L82.956,15.021 C82.45,15.78 81.878,16.121 81.108,16.121 C79.711,16.121 78.721,15.021 78.721,13.481 C78.721,11.93 79.733,10.808 81.13,10.808 C81.9,10.808 82.461,11.105 82.956,11.765 Z M81.251,11.556 C80.701,11.556 80.316,11.743 80.019,12.161 C79.755,12.524 79.601,13.008 79.601,13.503 C79.601,14.581 80.305,15.395 81.229,15.395 C82.186,15.395 82.967,14.504 82.967,13.415 C82.967,12.315 82.263,11.556 81.251,11.556 Z M85.475,10.929 L86.311,10.929 L86.311,11.644 C86.751,11.05 87.191,10.808 87.818,10.808 C88.28,10.808 88.698,10.962 88.995,11.226 C89.314,11.534 89.424,11.886 89.424,12.579 L89.424,16 L88.588,16 L88.588,12.766 C88.588,12.315 88.533,12.073 88.401,11.897 C88.247,11.688 87.95,11.556 87.609,11.556 C87.235,11.556 86.894,11.699 86.641,11.985 C86.399,12.249 86.311,12.491 86.311,12.909 L86.311,16 L85.475,16 L85.475,10.929 Z M93.076,9.994 L91.459,11.072 L91.459,10.236 L93.945,8.608 L93.945,16 L93.076,16 L93.076,9.994 Z"/>
      <g transform="translate(116)">
        <rect width="23" height="23" x=".5" y=".5" stroke="#C41261" rx="2"/>
        <path fill="#C41261" d="M10.4655 14.306L7.1765 14.306 6.5055 16 5.5485 16 8.3095 8.663 9.4095 8.663 12.1045 16 11.0705 16 10.4655 14.306zM10.1795 13.514L8.8375 9.829 7.4515 13.514 10.1795 13.514zM16.8235 11.765L16.8235 10.929 17.6595 10.929 17.6595 16 16.8235 16 16.8235 15.021C16.3175 15.78 15.7455 16.121 14.9755 16.121 13.5785 16.121 12.5885 15.021 12.5885 13.481 12.5885 11.93 13.6005 10.808 14.9975 10.808 15.7675 10.808 16.3285 11.105 16.8235 11.765zM15.1185 11.556C14.5685 11.556 14.1835 11.743 13.8865 12.161 13.6225 12.524 13.4685 13.008 13.4685 13.503 13.4685 14.581 14.1725 15.395 15.0965 15.395 16.0535 15.395 16.8345 14.504 16.8345 13.415 16.8345 12.315 16.1305 11.556 15.1185 11.556zM30.904 9.455L30.904 16 29.98 16 29.98 9.455 28.11 9.455 28.11 8.663 32.763 8.663 32.763 9.455 30.904 9.455zM34.622 9.455L34.622 11.908 37.515 11.908 37.515 12.7 34.622 12.7 34.622 15.208 37.515 15.208 37.515 16 33.698 16 33.698 8.663 37.515 8.663 37.515 9.455 34.622 9.455zM41.134 13.074L39.264 16 38.142 16 40.595 12.26 38.23 8.663 39.341 8.663 41.134 11.446 42.938 8.663 44.016 8.663 41.662 12.26 44.082 16 43.015 16 41.134 13.074zM47.052 9.455L47.052 16 46.128 16 46.128 9.455 44.258 9.455 44.258 8.663 48.911 8.663 48.911 9.455 47.052 9.455zM50.286 14.944C50.616 14.944 50.858 15.186 50.858 15.527 50.858 15.846 50.605 16.088 50.286 16.088 49.956 16.088 49.714 15.846 49.714 15.516 49.714 15.186 49.956 14.944 50.286 14.944zM50.286 11.776C50.616 11.776 50.858 12.018 50.858 12.359 50.858 12.678 50.605 12.92 50.286 12.92 49.956 12.92 49.714 12.678 49.714 12.348 49.714 12.018 49.956 11.776 50.286 11.776zM60.912 14.273L61.528 14.889C60.791 15.758 59.977 16.132 58.844 16.132 57.821 16.132 56.952 15.758 56.325 15.054 55.709 14.361 55.346 13.36 55.346 12.337 55.346 10.137 56.831 8.531 58.855 8.531 59.515 8.531 60.164 8.707 60.692 9.026 60.989 9.213 61.187 9.389 61.55 9.785L60.912 10.379C60.197 9.642 59.658 9.378 58.877 9.378 57.381 9.378 56.292 10.621 56.292 12.337 56.292 14.042 57.403 15.285 58.921 15.285 59.724 15.285 60.34 14.966 60.912 14.273zM66.456 11.765L66.456 10.929 67.292 10.929 67.292 16 66.456 16 66.456 15.021C65.95 15.78 65.378 16.121 64.608 16.121 63.211 16.121 62.221 15.021 62.221 13.481 62.221 11.93 63.233 10.808 64.63 10.808 65.4 10.808 65.961 11.105 66.456 11.765zM64.751 11.556C64.201 11.556 63.816 11.743 63.519 12.161 63.255 12.524 63.101 13.008 63.101 13.503 63.101 14.581 63.805 15.395 64.729 15.395 65.686 15.395 66.467 14.504 66.467 13.415 66.467 12.315 65.763 11.556 64.751 11.556zM69.811 16L68.975 16 68.975 8.663 69.811 8.663 69.811 16zM72.33 16L71.494 16 71.494 8.663 72.33 8.663 72.33 16zM76.202 10.808C77.698 10.808 78.765 11.919 78.765 13.481 78.765 14.966 77.621 16.121 76.169 16.121 74.662 16.121 73.606 15.021 73.606 13.459 73.606 11.886 74.662 10.808 76.202 10.808zM76.202 11.578C75.157 11.578 74.464 12.337 74.464 13.47 74.464 14.592 75.157 15.351 76.191 15.351 77.192 15.351 77.907 14.57 77.907 13.47 77.907 12.337 77.225 11.578 76.202 11.578zM82.989 10.929L83.836 10.929 83.836 14.174C83.836 14.867 83.704 15.252 83.33 15.593 82.956 15.934 82.439 16.121 81.867 16.121 81.295 16.121 80.767 15.923 80.404 15.582 80.063 15.252 79.898 14.79 79.898 14.174L79.898 10.929 80.734 10.929 80.734 14.152C80.734 14.867 81.196 15.373 81.867 15.373 82.219 15.373 82.56 15.23 82.769 14.988 82.934 14.79 82.989 14.581 82.989 14.174L82.989 10.929zM86.267 11.666L86.267 14.966C86.278 15.219 86.344 15.274 86.652 15.274L87.037 15.274 87.037 16 86.256 16C85.662 15.989 85.431 15.769 85.431 15.208L85.431 11.666 84.727 11.666 84.727 10.929 85.431 10.929 85.431 9.334 86.267 9.334 86.267 10.929 87.037 10.929 87.037 11.666 86.267 11.666zM91.316 8.663L87.631 18.376 86.916 18.376 90.601 8.663 91.316 8.663zM99.179 14.306L100.862 8.663 101.819 8.663 99.575 16 98.761 16 97.144 10.236 95.516 16 94.702 16 92.458 8.663 93.437 8.663 95.109 14.284 96.737 8.663 97.606 8.663 99.179 14.306zM103.546 8.663L103.546 11.633C104.008 11.061 104.47 10.808 105.075 10.808 105.515 10.808 105.977 10.984 106.252 11.27 106.527 11.545 106.648 11.941 106.648 12.59L106.648 16 105.812 16 105.812 12.634C105.812 11.941 105.471 11.556 104.866 11.556 104.481 11.556 104.14 11.71 103.876 12.007 103.623 12.293 103.546 12.546 103.546 13.03L103.546 16 102.71 16 102.71 8.663 103.546 8.663zM109.134 10.929L109.134 16 108.298 16 108.298 10.929 109.134 10.929zM108.727 8.96C109.024 8.96 109.255 9.202 109.255 9.51 109.255 9.807 109.013 10.038 108.716 10.038 108.419 10.038 108.188 9.807 108.188 9.499 108.188 9.191 108.419 8.96 108.727 8.96zM111.708 11.666L111.708 14.966C111.719 15.219 111.785 15.274 112.093 15.274L112.478 15.274 112.478 16 111.697 16C111.103 15.989 110.872 15.769 110.872 15.208L110.872 11.666 110.168 11.666 110.168 10.929 110.872 10.929 110.872 9.334 111.708 9.334 111.708 10.929 112.478 10.929 112.478 11.666 111.708 11.666zM118.374 13.734L114.15 13.734C114.194 14.163 114.271 14.383 114.48 14.658 114.81 15.109 115.294 15.351 115.844 15.351 116.471 15.351 117.065 15.01 117.362 14.482L118.099 14.757C117.681 15.604 116.812 16.121 115.844 16.121 114.337 16.121 113.259 15.021 113.259 13.481 113.259 11.919 114.326 10.808 115.811 10.808 117.285 10.808 118.385 11.919 118.385 13.404 118.385 13.47 118.385 13.613 118.374 13.734zM114.161 13.118L117.494 13.118C117.461 12.722 117.384 12.502 117.208 12.249 116.889 11.82 116.372 11.556 115.811 11.556 115.25 11.556 114.744 11.82 114.447 12.26 114.293 12.502 114.227 12.711 114.161 13.118z"/>
      </g>
    </g>
    <g transform="translate(110 62)">
      <rect width="359" height="56" fill="#25333D" rx="14"/>
      <path fill="#FFF" d="M16.8984375,30.0546875 L18.3203125,30.0546875 C18.4921875,31.234375 19.6171875,31.984375 21.21875,31.984375 C22.734375,31.984375 23.8515625,31.1640625 23.8515625,30.046875 C23.8515625,29.0859375 23.1484375,28.4765625 21.59375,28.0859375 L20.1484375,27.7109375 C18.109375,27.1953125 17.2265625,26.2734375 17.2265625,24.671875 C17.2265625,22.7578125 18.828125,21.4609375 21.2109375,21.4609375 C23.390625,21.4609375 25.015625,22.7578125 25.1328125,24.578125 L23.71875,24.578125 C23.5234375,23.421875 22.5703125,22.734375 21.1640625,22.734375 C19.6640625,22.734375 18.671875,23.484375 18.671875,24.625 C18.671875,25.5078125 19.2890625,26.015625 20.84375,26.4140625 L22.0234375,26.7265625 C24.359375,27.3125 25.296875,28.21875 25.296875,29.875 C25.296875,31.9453125 23.6640625,33.265625 21.0859375,33.265625 C18.6953125,33.265625 17.046875,32 16.8984375,30.0546875 Z M27.1721875,33 L27.1721875,24.578125 L28.5159375,24.578125 L28.5159375,33 L27.1721875,33 Z M27.8440625,22.8671875 C27.3284375,22.8671875 26.9065625,22.4453125 26.9065625,21.9296875 C26.9065625,21.4140625 27.3284375,20.9921875 27.8440625,20.9921875 C28.3596875,20.9921875 28.7815625,21.4140625 28.7815625,21.9296875 C28.7815625,22.4453125 28.3596875,22.8671875 27.8440625,22.8671875 Z M30.7584375,33 L30.7584375,24.578125 L32.0396875,24.578125 L32.0396875,25.90625 L32.1646875,25.90625 C32.5865625,24.9765625 33.406875,24.4296875 34.6959375,24.4296875 C36.5865625,24.4296875 37.64125,25.546875 37.64125,27.546875 L37.64125,33 L36.2975,33 L36.2975,27.875 C36.2975,26.359375 35.656875,25.640625 34.313125,25.640625 C32.969375,25.640625 32.1021875,26.5390625 32.1021875,28.015625 L32.1021875,33 L30.7584375,33 Z M43.180625,31.6875 C44.743125,31.6875 45.680625,30.5 45.680625,28.6640625 C45.680625,26.828125 44.7353125,25.640625 43.180625,25.640625 C41.618125,25.640625 40.743125,26.828125 40.743125,28.6640625 C40.743125,30.5 41.618125,31.6875 43.180625,31.6875 Z M43.243125,36.234375 C41.211875,36.234375 39.915,35.3203125 39.711875,33.9296875 L41.13375,33.9296875 C41.2821875,34.6171875 42.0321875,35.0625 43.243125,35.0625 C44.7509375,35.0625 45.649375,34.3203125 45.649375,33.078125 L45.649375,31.421875 L45.524375,31.421875 C44.993125,32.3515625 44.04,32.875 42.88375,32.875 C40.7040625,32.875 39.3525,31.1875 39.3525,28.6640625 C39.3525,26.140625 40.7196875,24.4296875 42.88375,24.4296875 C44.0634375,24.4296875 45.1025,25.0078125 45.586875,25.9140625 L45.711875,25.9140625 L45.711875,24.578125 L46.993125,24.578125 L46.993125,33.1484375 C46.993125,35.03125 45.54,36.234375 43.243125,36.234375 Z M49.2825,33 L49.2825,21.234375 L50.62625,21.234375 L50.62625,33 L49.2825,33 Z M56.275,25.6171875 C54.93125,25.6171875 53.99375,26.6015625 53.8921875,28.09375 L58.5328125,28.09375 C58.5015625,26.6015625 57.6109375,25.6171875 56.275,25.6171875 Z M58.49375,30.8203125 L59.8375,30.8203125 C59.43125,32.265625 58.134375,33.1484375 56.290625,33.1484375 C53.9546875,33.1484375 52.49375,31.4609375 52.49375,28.796875 C52.49375,26.1484375 53.978125,24.4296875 56.290625,24.4296875 C58.5640625,24.4296875 59.946875,26.046875 59.946875,28.6640625 L59.946875,29.1796875 L53.8921875,29.1796875 L53.8921875,29.2421875 C53.9625,30.90625 54.8921875,31.9609375 56.321875,31.9609375 C57.4078125,31.9609375 58.1421875,31.5625 58.49375,30.8203125 Z M66.0100001,33 L66.0100001,21.234375 L67.3537501,21.234375 L67.3537501,33 L66.0100001,33 Z M69.6743751,33 L69.6743751,24.578125 L71.0181251,24.578125 L71.0181251,33 L69.6743751,33 Z M70.3462501,22.8671875 C69.8306251,22.8671875 69.4087501,22.4453125 69.4087501,21.9296875 C69.4087501,21.4140625 69.8306251,20.9921875 70.3462501,20.9921875 C70.8618751,20.9921875 71.2837501,21.4140625 71.2837501,21.9296875 C71.2837501,22.4453125 70.8618751,22.8671875 70.3462501,22.8671875 Z M73.2606251,33 L73.2606251,24.578125 L74.5418751,24.578125 L74.5418751,25.90625 L74.6668751,25.90625 C75.0887501,24.9765625 75.9090626,24.4296875 77.1981251,24.4296875 C79.0887501,24.4296875 80.1434376,25.546875 80.1434376,27.546875 L80.1434376,33 L78.7996876,33 L78.7996876,27.875 C78.7996876,26.359375 78.1590626,25.640625 76.8153126,25.640625 C75.4715626,25.640625 74.6043751,26.5390625 74.6043751,28.015625 L74.6043751,33 L73.2606251,33 Z M85.6359376,25.6171875 C84.2921876,25.6171875 83.3546876,26.6015625 83.2531251,28.09375 L87.8937501,28.09375 C87.8625001,26.6015625 86.9718751,25.6171875 85.6359376,25.6171875 Z M87.8546876,30.8203125 L89.1984376,30.8203125 C88.7921876,32.265625 87.4953126,33.1484375 85.6515626,33.1484375 C83.3156251,33.1484375 81.8546876,31.4609375 81.8546876,28.796875 C81.8546876,26.1484375 83.3390626,24.4296875 85.6515626,24.4296875 C87.9250001,24.4296875 89.3078126,26.046875 89.3078126,28.6640625 L89.3078126,29.1796875 L83.2531251,29.1796875 L83.2531251,29.2421875 C83.3234376,30.90625 84.2531251,31.9609375 85.6828126,31.9609375 C86.7687501,31.9609375 87.5031251,31.5625 87.8546876,30.8203125 Z M95.2928126,33 L95.2928126,24.578125 L96.5740626,24.578125 L96.5740626,25.90625 L96.6990626,25.90625 C97.0818751,24.96875 97.9256251,24.4296875 99.0506251,24.4296875 C100.19125,24.4296875 100.988125,25.03125 101.37875,25.90625 L101.50375,25.90625 C101.956875,25.015625 102.917813,24.4296875 104.081875,24.4296875 C105.800625,24.4296875 106.761563,25.4140625 106.761563,27.1796875 L106.761563,33 L105.417813,33 L105.417813,27.4921875 C105.417813,26.25 104.831875,25.640625 103.644375,25.640625 C102.4725,25.640625 101.69125,26.515625 101.69125,27.5859375 L101.69125,33 L100.3475,33 L100.3475,27.28125 C100.3475,26.28125 99.6521876,25.640625 98.5896876,25.640625 C97.4881251,25.640625 96.6365626,26.59375 96.6365626,27.78125 L96.6365626,33 L95.2928126,33 Z M112.254063,25.6171875 C110.910313,25.6171875 109.972813,26.6015625 109.87125,28.09375 L114.511875,28.09375 C114.480625,26.6015625 113.59,25.6171875 112.254063,25.6171875 Z M114.472813,30.8203125 L115.816563,30.8203125 C115.410313,32.265625 114.113438,33.1484375 112.269688,33.1484375 C109.93375,33.1484375 108.472813,31.4609375 108.472813,28.796875 C108.472813,26.1484375 109.957188,24.4296875 112.269688,24.4296875 C114.543125,24.4296875 115.925938,26.046875 115.925938,28.6640625 L115.925938,29.1796875 L109.87125,29.1796875 L109.87125,29.2421875 C109.941563,30.90625 110.87125,31.9609375 112.300938,31.9609375 C113.386875,31.9609375 114.12125,31.5625 114.472813,30.8203125 Z M117.52,26.8828125 C117.52,25.484375 118.871563,24.4296875 120.660625,24.4296875 C122.42625,24.4296875 123.652813,25.3046875 123.8325,26.6875 L122.504375,26.6875 C122.324688,26.015625 121.668438,25.5703125 120.652813,25.5703125 C119.652813,25.5703125 118.871563,26.078125 118.871563,26.828125 C118.871563,27.40625 119.340313,27.765625 120.3325,28.0078125 L121.629375,28.3203125 C123.215313,28.703125 123.980938,29.390625 123.980938,30.6015625 C123.980938,32.109375 122.52,33.1484375 120.605938,33.1484375 C118.730938,33.1484375 117.441875,32.25 117.293438,30.8515625 L118.67625,30.8515625 C118.902813,31.5625 119.574688,32.015625 120.652813,32.015625 C121.785625,32.015625 122.598125,31.4765625 122.598125,30.703125 C122.598125,30.125 122.160625,29.734375 121.262188,29.515625 L119.816875,29.1640625 C118.23875,28.78125 117.52,28.1015625 117.52,26.8828125 Z M125.41875,26.8828125 C125.41875,25.484375 126.770313,24.4296875 128.559375,24.4296875 C130.325,24.4296875 131.551563,25.3046875 131.73125,26.6875 L130.403125,26.6875 C130.223438,26.015625 129.567188,25.5703125 128.551563,25.5703125 C127.551563,25.5703125 126.770313,26.078125 126.770313,26.828125 C126.770313,27.40625 127.239063,27.765625 128.23125,28.0078125 L129.528125,28.3203125 C131.114063,28.703125 131.879688,29.390625 131.879688,30.6015625 C131.879688,32.109375 130.41875,33.1484375 128.504688,33.1484375 C126.629688,33.1484375 125.340625,32.25 125.192188,30.8515625 L126.575,30.8515625 C126.801563,31.5625 127.473438,32.015625 128.551563,32.015625 C129.684375,32.015625 130.496875,31.4765625 130.496875,30.703125 C130.496875,30.125 130.059375,29.734375 129.160938,29.515625 L127.715625,29.1640625 C126.1375,28.78125 125.41875,28.1015625 125.41875,26.8828125 Z M136.262813,31.96875 C137.645625,31.96875 138.669063,31.0625 138.669063,29.859375 L138.669063,29.0859375 L136.403438,29.234375 C135.122188,29.3203125 134.559688,29.765625 134.559688,30.609375 C134.559688,31.46875 135.28625,31.96875 136.262813,31.96875 Z M136.012813,33.1484375 C134.38,33.1484375 133.169063,32.1796875 133.169063,30.640625 C133.169063,29.1328125 134.278438,28.265625 136.239375,28.1484375 L138.669063,28 L138.669063,27.234375 C138.669063,26.1953125 138.020625,25.625 136.762813,25.625 C135.755,25.625 135.051875,26.0078125 134.864375,26.671875 L133.505,26.671875 C133.684688,25.3203125 135.012813,24.4296875 136.809688,24.4296875 C138.864375,24.4296875 140.012813,25.484375 140.012813,27.234375 L140.012813,33 L138.731563,33 L138.731563,31.7578125 L138.606563,31.7578125 C138.059688,32.65625 137.137813,33.1484375 136.012813,33.1484375 Z M145.583438,31.6875 C147.145938,31.6875 148.083438,30.5 148.083438,28.6640625 C148.083438,26.828125 147.138125,25.640625 145.583438,25.640625 C144.020938,25.640625 143.145938,26.828125 143.145938,28.6640625 C143.145938,30.5 144.020938,31.6875 145.583438,31.6875 Z M145.645938,36.234375 C143.614688,36.234375 142.317813,35.3203125 142.114688,33.9296875 L143.536563,33.9296875 C143.685,34.6171875 144.435,35.0625 145.645938,35.0625 C147.15375,35.0625 148.052188,34.3203125 148.052188,33.078125 L148.052188,31.421875 L147.927188,31.421875 C147.395938,32.3515625 146.442813,32.875 145.286563,32.875 C143.106875,32.875 141.755313,31.1875 141.755313,28.6640625 C141.755313,26.140625 143.1225,24.4296875 145.286563,24.4296875 C146.46625,24.4296875 147.505313,25.0078125 147.989688,25.9140625 L148.114688,25.9140625 L148.114688,24.578125 L149.395938,24.578125 L149.395938,33.1484375 C149.395938,35.03125 147.942813,36.234375 145.645938,36.234375 Z M154.966563,25.6171875 C153.622813,25.6171875 152.685313,26.6015625 152.58375,28.09375 L157.224375,28.09375 C157.193125,26.6015625 156.3025,25.6171875 154.966563,25.6171875 Z M157.185313,30.8203125 L158.529063,30.8203125 C158.122813,32.265625 156.825938,33.1484375 154.982188,33.1484375 C152.64625,33.1484375 151.185313,31.4609375 151.185313,28.796875 C151.185313,26.1484375 152.669688,24.4296875 154.982188,24.4296875 C157.255625,24.4296875 158.638438,26.046875 158.638438,28.6640625 L158.638438,29.1796875 L152.58375,29.1796875 L152.58375,29.2421875 C152.654063,30.90625 153.58375,31.9609375 155.013438,31.9609375 C156.099375,31.9609375 156.83375,31.5625 157.185313,30.8203125 Z M164.623438,33 L164.623438,24.578125 L165.904688,24.578125 L165.904688,25.90625 L166.029688,25.90625 C166.451563,24.9765625 167.271875,24.4296875 168.560938,24.4296875 C170.451563,24.4296875 171.50625,25.546875 171.50625,27.546875 L171.50625,33 L170.1625,33 L170.1625,27.875 C170.1625,26.359375 169.521875,25.640625 168.178125,25.640625 C166.834375,25.640625 165.967188,26.5390625 165.967188,28.015625 L165.967188,33 L164.623438,33 Z M177.100313,33.1484375 C174.701875,33.1484375 173.2175,31.4921875 173.2175,28.7890625 C173.2175,26.078125 174.701875,24.4296875 177.100313,24.4296875 C179.49875,24.4296875 180.983125,26.078125 180.983125,28.7890625 C180.983125,31.4921875 179.49875,33.1484375 177.100313,33.1484375 Z M177.100313,31.9375 C178.694063,31.9375 179.5925,30.78125 179.5925,28.7890625 C179.5925,26.7890625 178.694063,25.640625 177.100313,25.640625 C175.506563,25.640625 174.608125,26.7890625 174.608125,28.7890625 C174.608125,30.78125 175.506563,31.9375 177.100313,31.9375 Z M189.561875,31.96875 C190.944688,31.96875 191.968125,31.0625 191.968125,29.859375 L191.968125,29.0859375 L189.7025,29.234375 C188.42125,29.3203125 187.85875,29.765625 187.85875,30.609375 C187.85875,31.46875 188.585313,31.96875 189.561875,31.96875 Z M189.311875,33.1484375 C187.679063,33.1484375 186.468125,32.1796875 186.468125,30.640625 C186.468125,29.1328125 187.5775,28.265625 189.538438,28.1484375 L191.968125,28 L191.968125,27.234375 C191.968125,26.1953125 191.319688,25.625 190.061875,25.625 C189.054063,25.625 188.350938,26.0078125 188.163438,26.671875 L186.804063,26.671875 C186.98375,25.3203125 188.311875,24.4296875 190.10875,24.4296875 C192.163438,24.4296875 193.311875,25.484375 193.311875,27.234375 L193.311875,33 L192.030625,33 L192.030625,31.7578125 L191.905625,31.7578125 C191.35875,32.65625 190.436875,33.1484375 189.311875,33.1484375 Z M202.445,27.15625 L201.085625,27.15625 C200.866875,26.3203125 200.124688,25.640625 198.91375,25.640625 C197.398125,25.640625 196.445,26.8515625 196.445,28.7578125 C196.445,30.703125 197.41375,31.9375 198.91375,31.9375 C200.046563,31.9375 200.835625,31.4140625 201.085625,30.4609375 L202.445,30.4609375 C202.202813,32.0078125 200.945,33.1484375 198.921563,33.1484375 C196.562188,33.1484375 195.054375,31.4375 195.054375,28.7578125 C195.054375,26.1328125 196.554375,24.4296875 198.91375,24.4296875 C200.960625,24.4296875 202.210625,25.65625 202.445,27.15625 Z M204.828125,22.3984375 L206.171875,22.3984375 L206.171875,24.578125 L208.046875,24.578125 L208.046875,25.703125 L206.171875,25.703125 L206.171875,30.46875 C206.171875,31.4609375 206.546875,31.8828125 207.421875,31.8828125 C207.664063,31.8828125 207.796875,31.875 208.046875,31.8515625 L208.046875,32.984375 C207.78125,33.03125 207.523438,33.0625 207.257813,33.0625 C205.523438,33.0625 204.828125,32.421875 204.828125,30.8125 L204.828125,25.703125 L203.46875,25.703125 L203.46875,24.578125 L204.828125,24.578125 L204.828125,22.3984375 Z M209.789375,33 L209.789375,24.578125 L211.133125,24.578125 L211.133125,33 L209.789375,33 Z M210.46125,22.8671875 C209.945625,22.8671875 209.52375,22.4453125 209.52375,21.9296875 C209.52375,21.4140625 209.945625,20.9921875 210.46125,20.9921875 C210.976875,20.9921875 211.39875,21.4140625 211.39875,21.9296875 C211.39875,22.4453125 210.976875,22.8671875 210.46125,22.8671875 Z M216.836563,33.1484375 C214.438125,33.1484375 212.95375,31.4921875 212.95375,28.7890625 C212.95375,26.078125 214.438125,24.4296875 216.836563,24.4296875 C219.235,24.4296875 220.719375,26.078125 220.719375,28.7890625 C220.719375,31.4921875 219.235,33.1484375 216.836563,33.1484375 Z M216.836563,31.9375 C218.430313,31.9375 219.32875,30.78125 219.32875,28.7890625 C219.32875,26.7890625 218.430313,25.640625 216.836563,25.640625 C215.242813,25.640625 214.344375,26.7890625 214.344375,28.7890625 C214.344375,30.78125 215.242813,31.9375 216.836563,31.9375 Z M222.50875,33 L222.50875,24.578125 L223.79,24.578125 L223.79,25.90625 L223.915,25.90625 C224.336875,24.9765625 225.157188,24.4296875 226.44625,24.4296875 C228.336875,24.4296875 229.391563,25.546875 229.391563,27.546875 L229.391563,33 L228.047813,33 L228.047813,27.875 C228.047813,26.359375 227.407188,25.640625 226.063438,25.640625 C224.719688,25.640625 223.8525,26.5390625 223.8525,28.015625 L223.8525,33 L222.50875,33 Z M232.634063,33.078125 C232.079375,33.078125 231.618438,32.6171875 231.618438,32.0625 C231.618438,31.5 232.079375,31.046875 232.634063,31.046875 C233.196563,31.046875 233.649688,31.5 233.649688,32.0625 C233.649688,32.6171875 233.196563,33.078125 232.634063,33.078125 Z"/>
    </g>
    <g transform="translate(224 67)">
      <g transform="translate(0 .48)">
        <polyline stroke="#979797" stroke-linecap="round" stroke-linejoin="round" points=".96 4.8 6.128 0 6.128 0 11.295 4.8" transform="rotate(180 6.128 2.4)"/>
        <polyline stroke="#979797" stroke-linecap="round" stroke-linejoin="round" points=".96 11.04 6.128 6.24 6.128 6.24 11.295 11.04" transform="matrix(-1 0 0 1 12.255 0)"/>
        <path stroke="#F897BF" d="M0.1875,5.52 L11.8125,5.52"/>
      </g>
      <path fill="#F897BF" d="M20.2985,4.929 L21.1675,4.929 L19.2535,10 L18.3735,10 L16.5145,4.929 L17.3945,4.929 L18.8245,8.801 L20.2985,4.929 Z M22.4985,8.944 C22.8285,8.944 23.0705,9.186 23.0705,9.527 C23.0705,9.846 22.8175,10.088 22.4985,10.088 C22.1685,10.088 21.9265,9.846 21.9265,9.516 C21.9265,9.186 22.1685,8.944 22.4985,8.944 Z M28.0425,8.801 L28.5595,9.373 C27.9875,9.89 27.4265,10.121 26.6895,10.121 C25.2375,10.121 24.2035,9.021 24.2035,7.481 C24.2035,5.908 25.2485,4.808 26.7335,4.808 C27.4595,4.808 28.0535,5.05 28.5815,5.567 L28.0425,6.106 C27.6575,5.754 27.2285,5.578 26.7555,5.578 C25.7545,5.578 25.0615,6.348 25.0615,7.448 C25.0615,8.57 25.7545,9.351 26.7445,9.351 C27.2395,9.351 27.6355,9.186 28.0425,8.801 Z M34.3455,7.734 L30.1215,7.734 C30.1655,8.163 30.2425,8.383 30.4515,8.658 C30.7815,9.109 31.2655,9.351 31.8155,9.351 C32.4425,9.351 33.0365,9.01 33.3335,8.482 L34.0705,8.757 C33.6525,9.604 32.7835,10.121 31.8155,10.121 C30.3085,10.121 29.2305,9.021 29.2305,7.481 C29.2305,5.919 30.2975,4.808 31.7825,4.808 C33.2565,4.808 34.3565,5.919 34.3565,7.404 C34.3565,7.47 34.3565,7.613 34.3455,7.734 Z M30.1325,7.118 L33.4655,7.118 C33.4325,6.722 33.3555,6.502 33.1795,6.249 C32.8605,5.82 32.3435,5.556 31.7825,5.556 C31.2215,5.556 30.7155,5.82 30.4185,6.26 C30.2645,6.502 30.1985,6.711 30.1325,7.118 Z M35.5665,4.929 L36.4025,4.929 L36.4025,5.644 C36.8425,5.05 37.2825,4.808 37.9095,4.808 C38.3715,4.808 38.7895,4.962 39.0865,5.226 C39.4055,5.534 39.5155,5.886 39.5155,6.579 L39.5155,10 L38.6795,10 L38.6795,6.766 C38.6795,6.315 38.6245,6.073 38.4925,5.897 C38.3385,5.688 38.0415,5.556 37.7005,5.556 C37.3265,5.556 36.9855,5.699 36.7325,5.985 C36.4905,6.249 36.4025,6.491 36.4025,6.909 L36.4025,10 L35.5665,10 L35.5665,4.929 Z M42.0565,5.666 L42.0565,8.966 C42.0675,9.219 42.1335,9.274 42.4415,9.274 L42.8265,9.274 L42.8265,10 L42.0455,10 C41.4515,9.989 41.2205,9.769 41.2205,9.208 L41.2205,5.666 L40.5165,5.666 L40.5165,4.929 L41.2205,4.929 L41.2205,3.334 L42.0565,3.334 L42.0565,4.929 L42.8265,4.929 L42.8265,5.666 L42.0565,5.666 Z M48.7225,7.734 L44.4985,7.734 C44.5425,8.163 44.6195,8.383 44.8285,8.658 C45.1585,9.109 45.6425,9.351 46.1925,9.351 C46.8195,9.351 47.4135,9.01 47.7105,8.482 L48.4475,8.757 C48.0295,9.604 47.1605,10.121 46.1925,10.121 C44.6855,10.121 43.6075,9.021 43.6075,7.481 C43.6075,5.919 44.6745,4.808 46.1595,4.808 C47.6335,4.808 48.7335,5.919 48.7335,7.404 C48.7335,7.47 48.7335,7.613 48.7225,7.734 Z M44.5095,7.118 L47.8425,7.118 C47.8095,6.722 47.7325,6.502 47.5565,6.249 C47.2375,5.82 46.7205,5.556 46.1595,5.556 C45.5985,5.556 45.0925,5.82 44.7955,6.26 C44.6415,6.502 44.5755,6.711 44.5095,7.118 Z M49.9435,4.929 L50.7795,4.929 L50.7795,5.787 C50.9335,5.424 51.0435,5.27 51.2415,5.116 C51.4945,4.918 51.8465,4.808 52.2095,4.808 L52.4075,4.808 L52.4075,5.655 C52.3195,5.644 52.2315,5.644 52.1765,5.644 C51.7255,5.644 51.3295,5.853 51.0765,6.227 C50.8565,6.546 50.7795,6.843 50.7795,7.426 L50.7795,10 L49.9435,10 L49.9435,4.929 Z M57.6325,5.666 L57.6325,8.966 C57.6435,9.219 57.7095,9.274 58.0175,9.274 L58.4025,9.274 L58.4025,10 L57.6215,10 C57.0275,9.989 56.7965,9.769 56.7965,9.208 L56.7965,5.666 L56.0925,5.666 L56.0925,4.929 L56.7965,4.929 L56.7965,3.334 L57.6325,3.334 L57.6325,4.929 L58.4025,4.929 L58.4025,5.666 L57.6325,5.666 Z M64.2985,7.734 L60.0745,7.734 C60.1185,8.163 60.1955,8.383 60.4045,8.658 C60.7345,9.109 61.2185,9.351 61.7685,9.351 C62.3955,9.351 62.9895,9.01 63.2865,8.482 L64.0235,8.757 C63.6055,9.604 62.7365,10.121 61.7685,10.121 C60.2615,10.121 59.1835,9.021 59.1835,7.481 C59.1835,5.919 60.2505,4.808 61.7355,4.808 C63.2095,4.808 64.3095,5.919 64.3095,7.404 C64.3095,7.47 64.3095,7.613 64.2985,7.734 Z M60.0855,7.118 L63.4185,7.118 C63.3855,6.722 63.3085,6.502 63.1325,6.249 C62.8135,5.82 62.2965,5.556 61.7355,5.556 C61.1745,5.556 60.6685,5.82 60.3715,6.26 C60.2175,6.502 60.1515,6.711 60.0855,7.118 Z M67.1365,8.163 L65.7835,10 L64.7605,10 L66.6305,7.481 L64.7275,4.929 L65.7835,4.929 L67.1365,6.788 L68.5225,4.929 L69.5455,4.929 L67.6315,7.481 L69.4575,10 L68.4345,10 L67.1365,8.163 Z M71.3165,5.666 L71.3165,8.966 C71.3275,9.219 71.3935,9.274 71.7015,9.274 L72.0865,9.274 L72.0865,10 L71.3055,10 C70.7115,9.989 70.4805,9.769 70.4805,9.208 L70.4805,5.666 L69.7765,5.666 L69.7765,4.929 L70.4805,4.929 L70.4805,3.334 L71.3165,3.334 L71.3165,4.929 L72.0865,4.929 L72.0865,5.666 L71.3165,5.666 Z M77.4105,4.929 L77.4105,10 L76.5745,10 L76.5745,4.929 L77.4105,4.929 Z M77.0035,2.96 C77.3005,2.96 77.5315,3.202 77.5315,3.51 C77.5315,3.807 77.2895,4.038 76.9925,4.038 C76.6955,4.038 76.4645,3.807 76.4645,3.499 C76.4645,3.191 76.6955,2.96 77.0035,2.96 Z M79.0935,4.929 L79.9295,4.929 L79.9295,5.644 C80.3695,5.05 80.8095,4.808 81.4365,4.808 C81.8985,4.808 82.3165,4.962 82.6135,5.226 C82.9325,5.534 83.0425,5.886 83.0425,6.579 L83.0425,10 L82.2065,10 L82.2065,6.766 C82.2065,6.315 82.1515,6.073 82.0195,5.897 C81.8655,5.688 81.5685,5.556 81.2275,5.556 C80.8535,5.556 80.5125,5.699 80.2595,5.985 C80.0175,6.249 79.9295,6.491 79.9295,6.909 L79.9295,10 L79.0935,10 L79.0935,4.929 Z M91.4245,8.801 L91.9415,9.373 C91.3695,9.89 90.8085,10.121 90.0715,10.121 C88.6195,10.121 87.5855,9.021 87.5855,7.481 C87.5855,5.908 88.6305,4.808 90.1155,4.808 C90.8415,4.808 91.4355,5.05 91.9635,5.567 L91.4245,6.106 C91.0395,5.754 90.6105,5.578 90.1375,5.578 C89.1365,5.578 88.4435,6.348 88.4435,7.448 C88.4435,8.57 89.1365,9.351 90.1265,9.351 C90.6215,9.351 91.0175,9.186 91.4245,8.801 Z M95.2085,4.808 C96.7045,4.808 97.7715,5.919 97.7715,7.481 C97.7715,8.966 96.6275,10.121 95.1755,10.121 C93.6685,10.121 92.6125,9.021 92.6125,7.459 C92.6125,5.886 93.6685,4.808 95.2085,4.808 Z M95.2085,5.578 C94.1635,5.578 93.4705,6.337 93.4705,7.47 C93.4705,8.592 94.1635,9.351 95.1975,9.351 C96.1985,9.351 96.9135,8.57 96.9135,7.47 C96.9135,6.337 96.2315,5.578 95.2085,5.578 Z M99.0475,4.929 L99.8835,4.929 L99.8835,5.644 C100.3235,5.05 100.7635,4.808 101.3905,4.808 C101.8525,4.808 102.2705,4.962 102.5675,5.226 C102.8865,5.534 102.9965,5.886 102.9965,6.579 L102.9965,10 L102.1605,10 L102.1605,6.766 C102.1605,6.315 102.1055,6.073 101.9735,5.897 C101.8195,5.688 101.5225,5.556 101.1815,5.556 C100.8075,5.556 100.4665,5.699 100.2135,5.985 C99.9715,6.249 99.8835,6.491 99.8835,6.909 L99.8835,10 L99.0475,10 L99.0475,4.929 Z M105.5375,5.666 L105.5375,8.966 C105.5485,9.219 105.6145,9.274 105.9225,9.274 L106.3075,9.274 L106.3075,10 L105.5265,10 C104.9325,9.989 104.7015,9.769 104.7015,9.208 L104.7015,5.666 L103.9975,5.666 L103.9975,4.929 L104.7015,4.929 L104.7015,3.334 L105.5375,3.334 L105.5375,4.929 L106.3075,4.929 L106.3075,5.666 L105.5375,5.666 Z M111.3235,5.765 L111.3235,4.929 L112.1595,4.929 L112.1595,10 L111.3235,10 L111.3235,9.021 C110.8175,9.78 110.2455,10.121 109.4755,10.121 C108.0785,10.121 107.0885,9.021 107.0885,7.481 C107.0885,5.93 108.1005,4.808 109.4975,4.808 C110.2675,4.808 110.8285,5.105 111.3235,5.765 Z M109.6185,5.556 C109.0685,5.556 108.6835,5.743 108.3865,6.161 C108.1225,6.524 107.9685,7.008 107.9685,7.503 C107.9685,8.581 108.6725,9.395 109.5965,9.395 C110.5535,9.395 111.3345,8.504 111.3345,7.415 C111.3345,6.315 110.6305,5.556 109.6185,5.556 Z M114.6785,4.929 L114.6785,10 L113.8425,10 L113.8425,4.929 L114.6785,4.929 Z M114.2715,2.96 C114.5685,2.96 114.7995,3.202 114.7995,3.51 C114.7995,3.807 114.5575,4.038 114.2605,4.038 C113.9635,4.038 113.7325,3.807 113.7325,3.499 C113.7325,3.191 113.9635,2.96 114.2715,2.96 Z M116.3615,4.929 L117.1975,4.929 L117.1975,5.644 C117.6375,5.05 118.0775,4.808 118.7045,4.808 C119.1665,4.808 119.5845,4.962 119.8815,5.226 C120.2005,5.534 120.3105,5.886 120.3105,6.579 L120.3105,10 L119.4745,10 L119.4745,6.766 C119.4745,6.315 119.4195,6.073 119.2875,5.897 C119.1335,5.688 118.8365,5.556 118.4955,5.556 C118.1215,5.556 117.7805,5.699 117.5275,5.985 C117.2855,6.249 117.1975,6.491 117.1975,6.909 L117.1975,10 L116.3615,10 L116.3615,4.929 Z M126.6685,7.734 L122.4445,7.734 C122.4885,8.163 122.5655,8.383 122.7745,8.658 C123.1045,9.109 123.5885,9.351 124.1385,9.351 C124.7655,9.351 125.3595,9.01 125.6565,8.482 L126.3935,8.757 C125.9755,9.604 125.1065,10.121 124.1385,10.121 C122.6315,10.121 121.5535,9.021 121.5535,7.481 C121.5535,5.919 122.6205,4.808 124.1055,4.808 C125.5795,4.808 126.6795,5.919 126.6795,7.404 C126.6795,7.47 126.6795,7.613 126.6685,7.734 Z M122.4555,7.118 L125.7885,7.118 C125.7555,6.722 125.6785,6.502 125.5025,6.249 C125.1835,5.82 124.6665,5.556 124.1055,5.556 C123.5445,5.556 123.0385,5.82 122.7415,6.26 C122.5875,6.502 122.5215,6.711 122.4555,7.118 Z M127.8895,4.929 L128.7255,4.929 L128.7255,5.787 C128.8795,5.424 128.9895,5.27 129.1875,5.116 C129.4405,4.918 129.7925,4.808 130.1555,4.808 L130.3535,4.808 L130.3535,5.655 C130.2655,5.644 130.1775,5.644 130.1225,5.644 C129.6715,5.644 129.2755,5.853 129.0225,6.227 C128.8025,6.546 128.7255,6.843 128.7255,7.426 L128.7255,10 L127.8895,10 L127.8895,4.929 Z"/>
    </g>
    <g transform="translate(452 70)">
      <g fill="#F897BF" transform="translate(0 4)">
        <rect width="1" height="9"/>
        <rect width="1" height="9" x="16"/>
        <rect width="15" height="1" x="1" y="4"/>
      </g>
      <path fill="#C41261" d="M20.837,7.92 L20.837,11 L19.913,11 L19.913,3.663 L21.915,3.663 C23.477,3.663 24.423,4.466 24.423,5.797 C24.423,6.622 24.049,7.282 23.367,7.645 C23.015,7.832 22.685,7.909 22.014,7.953 L24.863,11 L23.686,11 L20.837,7.92 Z M20.837,7.293 L21.761,7.293 C22.872,7.293 23.477,6.787 23.477,5.863 C23.477,4.95 22.927,4.455 21.915,4.455 L20.837,4.455 L20.837,7.293 Z M26.425,9.944 C26.755,9.944 26.997,10.186 26.997,10.527 C26.997,10.846 26.744,11.088 26.425,11.088 C26.095,11.088 25.853,10.846 25.853,10.516 C25.853,10.186 26.095,9.944 26.425,9.944 Z M26.425,6.776 C26.755,6.776 26.997,7.018 26.997,7.359 C26.997,7.678 26.744,7.92 26.425,7.92 C26.095,7.92 25.853,7.678 25.853,7.348 C25.853,7.018 26.095,6.776 26.425,6.776 Z M30.539,4.994 L28.922,6.072 L28.922,5.236 L31.408,3.608 L31.408,11 L30.539,11 L30.539,4.994 Z M37.293,3.773 L35.412,6.71 C35.72,6.6 35.863,6.567 36.127,6.567 C37.348,6.567 38.294,7.524 38.294,8.767 C38.294,10.065 37.227,11.132 35.929,11.132 C34.62,11.132 33.608,10.098 33.608,8.767 C33.608,8.228 33.751,7.821 34.169,7.15 L36.27,3.773 L37.293,3.773 Z M35.973,7.315 C35.137,7.315 34.477,7.953 34.477,8.767 C34.477,9.625 35.126,10.307 35.951,10.307 C36.776,10.307 37.436,9.636 37.436,8.8 C37.436,7.975 36.787,7.315 35.973,7.315 Z M39.537,5.929 L40.373,5.929 L40.373,6.853 C40.857,6.105 41.374,5.808 42.221,5.808 C43.629,5.808 44.608,6.886 44.608,8.426 C44.608,10.021 43.629,11.121 42.221,11.121 C41.825,11.121 41.462,11.033 41.11,10.857 C40.802,10.703 40.648,10.571 40.373,10.208 L40.373,13.376 L39.537,13.376 L39.537,5.929 Z M42.078,6.556 C41.066,6.556 40.373,7.359 40.373,8.547 C40.373,9.658 41.044,10.395 42.045,10.395 C43.046,10.395 43.717,9.614 43.717,8.459 C43.717,7.865 43.574,7.414 43.277,7.084 C42.98,6.754 42.529,6.556 42.078,6.556 Z M47.49,9.163 L46.137,11 L45.114,11 L46.984,8.481 L45.081,5.929 L46.137,5.929 L47.49,7.788 L48.876,5.929 L49.899,5.929 L47.985,8.481 L49.811,11 L48.788,11 L47.49,9.163 Z M56.158,13.046 L55.608,13.574 C54.31,11.979 53.716,10.428 53.716,8.58 C53.716,6.688 54.409,4.818 55.63,3.443 L56.158,3.993 C55.047,5.368 54.497,6.897 54.497,8.547 C54.497,10.153 55.091,11.759 56.158,13.046 Z M57.39,5.929 L58.226,5.929 L58.226,6.633 C58.611,6.05 59.04,5.808 59.667,5.808 C60.36,5.808 60.8,6.105 61.031,6.732 C61.405,6.083 61.878,5.808 62.637,5.808 C63.22,5.808 63.66,5.995 63.924,6.347 C64.166,6.666 64.232,6.952 64.232,7.755 L64.232,11 L63.396,11 L63.396,7.953 C63.396,7.337 63.374,7.194 63.253,6.985 C63.099,6.721 62.769,6.556 62.373,6.556 C61.636,6.556 61.229,7.051 61.229,7.953 L61.229,11 L60.393,11 L60.393,7.964 C60.393,7.469 60.349,7.216 60.228,6.996 C60.085,6.71 59.777,6.556 59.403,6.556 C58.666,6.556 58.226,7.084 58.226,7.964 L58.226,11 L57.39,11 L57.39,5.929 Z M66.718,5.929 L66.718,11 L65.882,11 L65.882,5.929 L66.718,5.929 Z M66.311,3.96 C66.608,3.96 66.839,4.202 66.839,4.51 C66.839,4.807 66.597,5.038 66.3,5.038 C66.003,5.038 65.772,4.807 65.772,4.499 C65.772,4.191 66.003,3.96 66.311,3.96 Z M68.401,5.929 L69.237,5.929 L69.237,6.644 C69.677,6.05 70.117,5.808 70.744,5.808 C71.206,5.808 71.624,5.962 71.921,6.226 C72.24,6.534 72.35,6.886 72.35,7.579 L72.35,11 L71.514,11 L71.514,7.766 C71.514,7.315 71.459,7.073 71.327,6.897 C71.173,6.688 70.876,6.556 70.535,6.556 C70.161,6.556 69.82,6.699 69.567,6.985 C69.325,7.249 69.237,7.491 69.237,7.909 L69.237,11 L68.401,11 L68.401,5.929 Z M73.549,3.971 L74.099,3.443 C75.408,5.049 75.991,6.589 75.991,8.437 C75.991,10.34 75.298,12.188 74.077,13.574 L73.549,13.024 C74.66,11.649 75.21,10.12 75.21,8.47 C75.21,6.853 74.627,5.269 73.549,3.971 Z"/>
    </g>
    <g transform="translate(78 71)">
      <g fill="#F897BF" transform="translate(32 4)">
        <rect width="1" height="9"/>
        <rect width="1" height="9" x="16"/>
        <rect width="15" height="1" x="1" y="4"/>
      </g>
      <path fill="#C41261" d="M2.357,10.164 L4.942,10.164 L4.942,11 L1.433,11 L1.433,3.663 L2.357,3.663 L2.357,10.164 Z M6.482,9.944 C6.812,9.944 7.054,10.186 7.054,10.527 C7.054,10.846 6.801,11.088 6.482,11.088 C6.152,11.088 5.91,10.846 5.91,10.516 C5.91,10.186 6.152,9.944 6.482,9.944 Z M6.482,6.776 C6.812,6.776 7.054,7.018 7.054,7.359 C7.054,7.678 6.801,7.92 6.482,7.92 C6.152,7.92 5.91,7.678 5.91,7.348 C5.91,7.018 6.152,6.776 6.482,6.776 Z M10.596,4.994 L8.979,6.072 L8.979,5.236 L11.465,3.608 L11.465,11 L10.596,11 L10.596,4.994 Z M17.35,3.773 L15.469,6.71 C15.777,6.6 15.92,6.567 16.184,6.567 C17.405,6.567 18.351,7.524 18.351,8.767 C18.351,10.065 17.284,11.132 15.986,11.132 C14.677,11.132 13.665,10.098 13.665,8.767 C13.665,8.228 13.808,7.821 14.226,7.15 L16.327,3.773 L17.35,3.773 Z M16.03,7.315 C15.194,7.315 14.534,7.953 14.534,8.767 C14.534,9.625 15.183,10.307 16.008,10.307 C16.833,10.307 17.493,9.636 17.493,8.8 C17.493,7.975 16.844,7.315 16.03,7.315 Z M19.594,5.929 L20.43,5.929 L20.43,6.853 C20.914,6.105 21.431,5.808 22.278,5.808 C23.686,5.808 24.665,6.886 24.665,8.426 C24.665,10.021 23.686,11.121 22.278,11.121 C21.882,11.121 21.519,11.033 21.167,10.857 C20.859,10.703 20.705,10.571 20.43,10.208 L20.43,13.376 L19.594,13.376 L19.594,5.929 Z M22.135,6.556 C21.123,6.556 20.43,7.359 20.43,8.547 C20.43,9.658 21.101,10.395 22.102,10.395 C23.103,10.395 23.774,9.614 23.774,8.459 C23.774,7.865 23.631,7.414 23.334,7.084 C23.037,6.754 22.586,6.556 22.135,6.556 Z M27.547,9.163 L26.194,11 L25.171,11 L27.041,8.481 L25.138,5.929 L26.194,5.929 L27.547,7.788 L28.933,5.929 L29.956,5.929 L28.042,8.481 L29.868,11 L28.845,11 L27.547,9.163 Z M3.545,27.046 L2.995,27.574 C1.697,25.979 1.103,24.428 1.103,22.58 C1.103,20.688 1.796,18.818 3.017,17.443 L3.545,17.993 C2.434,19.368 1.884,20.897 1.884,22.547 C1.884,24.153 2.478,25.759 3.545,27.046 Z M5.701,20.666 L5.701,25 L4.865,25 L4.865,20.666 L4.172,20.666 L4.172,19.929 L4.865,19.929 L4.865,19.247 C4.865,18.246 5.382,17.652 6.262,17.652 C6.306,17.652 6.405,17.652 6.493,17.663 L6.493,18.411 C5.888,18.477 5.723,18.653 5.701,19.247 L5.701,19.929 L6.493,19.929 L6.493,20.666 L5.701,20.666 Z M8.693,19.929 L8.693,25 L7.857,25 L7.857,19.929 L8.693,19.929 Z M8.275,17.96 C8.572,17.96 8.803,18.202 8.803,18.51 C8.803,18.807 8.572,19.038 8.275,19.038 C7.967,19.038 7.736,18.807 7.736,18.499 C7.736,18.191 7.967,17.96 8.275,17.96 Z M11.993,23.163 L10.64,25 L9.617,25 L11.487,22.481 L9.584,19.929 L10.64,19.929 L11.993,21.788 L13.379,19.929 L14.402,19.929 L12.488,22.481 L14.314,25 L13.291,25 L11.993,23.163 Z M19.99,22.734 L15.766,22.734 C15.81,23.163 15.887,23.383 16.096,23.658 C16.426,24.109 16.91,24.351 17.46,24.351 C18.087,24.351 18.681,24.01 18.978,23.482 L19.715,23.757 C19.297,24.604 18.428,25.121 17.46,25.121 C15.953,25.121 14.875,24.021 14.875,22.481 C14.875,20.919 15.942,19.808 17.427,19.808 C18.901,19.808 20.001,20.919 20.001,22.404 C20.001,22.47 20.001,22.613 19.99,22.734 Z M15.777,22.118 L19.11,22.118 C19.077,21.722 19,21.502 18.824,21.249 C18.505,20.82 17.988,20.556 17.427,20.556 C16.866,20.556 16.36,20.82 16.063,21.26 C15.909,21.502 15.843,21.711 15.777,22.118 Z M25.006,20.699 L25.006,17.663 L25.842,17.663 L25.842,25 L25.006,25 L25.006,24.131 C24.5,24.824 23.961,25.121 23.191,25.121 C21.794,25.121 20.804,24.032 20.804,22.492 C20.804,20.952 21.816,19.808 23.191,19.808 C23.939,19.808 24.511,20.083 25.006,20.699 Z M23.367,20.556 C22.366,20.556 21.684,21.348 21.684,22.503 C21.684,23.614 22.355,24.395 23.312,24.395 C24.291,24.395 25.006,23.581 25.006,22.481 C25.006,21.337 24.335,20.556 23.367,20.556 Z M27.074,17.971 L27.624,17.443 C28.933,19.049 29.516,20.589 29.516,22.437 C29.516,24.34 28.823,26.188 27.602,27.574 L27.074,27.024 C28.185,25.649 28.735,24.12 28.735,22.47 C28.735,20.853 28.152,19.269 27.074,17.971 Z"/>
    </g>
    <use fill-rule="nonzero" stroke="#F897BF" stroke-dasharray="1" stroke-width="2" mask="url(#1-b)" transform="translate(126 82)" xlink:href="#1-a"/>
    <g transform="translate(347 44)">
      <g fill="#F897BF" transform="translate(28 18)">
        <rect width="1" height="54" x="4" y="1"/>
        <rect width="9" height="1"/>
        <rect width="9" height="1" y="55"/>
      </g>
      <path fill="#C41261" d="M1.986,7.755 L1.986,11 L1.062,11 L1.062,3.663 L1.986,3.663 L1.986,6.963 L5.561,6.963 L5.561,3.663 L6.485,3.663 L6.485,11 L5.561,11 L5.561,7.755 L1.986,7.755 Z M8.663,9.944 C8.993,9.944 9.235,10.186 9.235,10.527 C9.235,10.846 8.982,11.088 8.663,11.088 C8.333,11.088 8.091,10.846 8.091,10.516 C8.091,10.186 8.333,9.944 8.663,9.944 Z M8.663,6.776 C8.993,6.776 9.235,7.018 9.235,7.359 C9.235,7.678 8.982,7.92 8.663,7.92 C8.333,7.92 8.091,7.678 8.091,7.348 C8.091,7.018 8.333,6.776 8.663,6.776 Z M14.009,3.663 L14.009,4.499 L11.644,4.499 L11.644,6.468 C12.018,6.325 12.348,6.259 12.722,6.259 C14.009,6.259 14.977,7.271 14.977,8.646 C14.977,10.054 13.943,11.077 12.502,11.077 C11.468,11.077 10.687,10.538 10.313,9.57 L11.105,9.273 C11.281,9.592 11.358,9.724 11.479,9.834 C11.71,10.065 12.117,10.208 12.524,10.208 C13.404,10.208 14.075,9.526 14.075,8.624 C14.075,7.689 13.415,7.062 12.447,7.062 C11.875,7.062 11.292,7.326 10.819,7.81 L10.819,3.663 L14.009,3.663 Z M19.531,3.773 L17.65,6.71 C17.958,6.6 18.101,6.567 18.365,6.567 C19.586,6.567 20.532,7.524 20.532,8.767 C20.532,10.065 19.465,11.132 18.167,11.132 C16.858,11.132 15.846,10.098 15.846,8.767 C15.846,8.228 15.989,7.821 16.407,7.15 L18.508,3.773 L19.531,3.773 Z M18.211,7.315 C17.375,7.315 16.715,7.953 16.715,8.767 C16.715,9.625 17.364,10.307 18.189,10.307 C19.014,10.307 19.674,9.636 19.674,8.8 C19.674,7.975 19.025,7.315 18.211,7.315 Z M21.775,5.929 L22.611,5.929 L22.611,6.853 C23.095,6.105 23.612,5.808 24.459,5.808 C25.867,5.808 26.846,6.886 26.846,8.426 C26.846,10.021 25.867,11.121 24.459,11.121 C24.063,11.121 23.7,11.033 23.348,10.857 C23.04,10.703 22.886,10.571 22.611,10.208 L22.611,13.376 L21.775,13.376 L21.775,5.929 Z M24.316,6.556 C23.304,6.556 22.611,7.359 22.611,8.547 C22.611,9.658 23.282,10.395 24.283,10.395 C25.284,10.395 25.955,9.614 25.955,8.459 C25.955,7.865 25.812,7.414 25.515,7.084 C25.218,6.754 24.767,6.556 24.316,6.556 Z M29.728,9.163 L28.375,11 L27.352,11 L29.222,8.481 L27.319,5.929 L28.375,5.929 L29.728,7.788 L31.114,5.929 L32.137,5.929 L30.223,8.481 L32.049,11 L31.026,11 L29.728,9.163 Z M38.396,13.046 L37.846,13.574 C36.548,11.979 35.954,10.428 35.954,8.58 C35.954,6.688 36.647,4.818 37.868,3.443 L38.396,3.993 C37.285,5.368 36.735,6.897 36.735,8.547 C36.735,10.153 37.329,11.759 38.396,13.046 Z M40.552,6.666 L40.552,11 L39.716,11 L39.716,6.666 L39.023,6.666 L39.023,5.929 L39.716,5.929 L39.716,5.247 C39.716,4.246 40.233,3.652 41.113,3.652 C41.157,3.652 41.256,3.652 41.344,3.663 L41.344,4.411 C40.739,4.477 40.574,4.653 40.552,5.247 L40.552,5.929 L41.344,5.929 L41.344,6.666 L40.552,6.666 Z M43.544,5.929 L43.544,11 L42.708,11 L42.708,5.929 L43.544,5.929 Z M43.126,3.96 C43.423,3.96 43.654,4.202 43.654,4.51 C43.654,4.807 43.423,5.038 43.126,5.038 C42.818,5.038 42.587,4.807 42.587,4.499 C42.587,4.191 42.818,3.96 43.126,3.96 Z M46.844,9.163 L45.491,11 L44.468,11 L46.338,8.481 L44.435,5.929 L45.491,5.929 L46.844,7.788 L48.23,5.929 L49.253,5.929 L47.339,8.481 L49.165,11 L48.142,11 L46.844,9.163 Z M54.841,8.734 L50.617,8.734 C50.661,9.163 50.738,9.383 50.947,9.658 C51.277,10.109 51.761,10.351 52.311,10.351 C52.938,10.351 53.532,10.01 53.829,9.482 L54.566,9.757 C54.148,10.604 53.279,11.121 52.311,11.121 C50.804,11.121 49.726,10.021 49.726,8.481 C49.726,6.919 50.793,5.808 52.278,5.808 C53.752,5.808 54.852,6.919 54.852,8.404 C54.852,8.47 54.852,8.613 54.841,8.734 Z M50.628,8.118 L53.961,8.118 C53.928,7.722 53.851,7.502 53.675,7.249 C53.356,6.82 52.839,6.556 52.278,6.556 C51.717,6.556 51.211,6.82 50.914,7.26 C50.76,7.502 50.694,7.711 50.628,8.118 Z M59.857,6.699 L59.857,3.663 L60.693,3.663 L60.693,11 L59.857,11 L59.857,10.131 C59.351,10.824 58.812,11.121 58.042,11.121 C56.645,11.121 55.655,10.032 55.655,8.492 C55.655,6.952 56.667,5.808 58.042,5.808 C58.79,5.808 59.362,6.083 59.857,6.699 Z M58.218,6.556 C57.217,6.556 56.535,7.348 56.535,8.503 C56.535,9.614 57.206,10.395 58.163,10.395 C59.142,10.395 59.857,9.581 59.857,8.481 C59.857,7.337 59.186,6.556 58.218,6.556 Z M61.925,3.971 L62.475,3.443 C63.784,5.049 64.367,6.589 64.367,8.437 C64.367,10.34 63.674,12.188 62.453,13.574 L61.925,13.024 C63.036,11.649 63.586,10.12 63.586,8.47 C63.586,6.853 63.003,5.269 61.925,3.971 Z"/>
    </g>
    <g transform="translate(456 105)">
      <path fill="#C41261" d="M16.3475,18.92 L16.3475,22 L15.4235,22 L15.4235,14.663 L17.4255,14.663 C18.9875,14.663 19.9335,15.466 19.9335,16.797 C19.9335,17.622 19.5595,18.282 18.8775,18.645 C18.5255,18.832 18.1955,18.909 17.5245,18.953 L20.3735,22 L19.1965,22 L16.3475,18.92 Z M16.3475,18.293 L17.2715,18.293 C18.3825,18.293 18.9875,17.787 18.9875,16.863 C18.9875,15.95 18.4375,15.455 17.4255,15.455 L16.3475,15.455 L16.3475,18.293 Z M25.3345,17.765 L25.3345,16.929 L26.1705,16.929 L26.1705,22 L25.3345,22 L25.3345,21.021 C24.8285,21.78 24.2565,22.121 23.4865,22.121 C22.0895,22.121 21.0995,21.021 21.0995,19.481 C21.0995,17.93 22.1115,16.808 23.5085,16.808 C24.2785,16.808 24.8395,17.105 25.3345,17.765 Z M23.6295,17.556 C23.0795,17.556 22.6945,17.743 22.3975,18.161 C22.1335,18.524 21.9795,19.008 21.9795,19.503 C21.9795,20.581 22.6835,21.395 23.6075,21.395 C24.5645,21.395 25.3455,20.504 25.3455,19.415 C25.3455,18.315 24.6415,17.556 23.6295,17.556 Z M31.6485,17.699 L31.6485,14.663 L32.4845,14.663 L32.4845,22 L31.6485,22 L31.6485,21.131 C31.1425,21.824 30.6035,22.121 29.8335,22.121 C28.4365,22.121 27.4465,21.032 27.4465,19.492 C27.4465,17.952 28.4585,16.808 29.8335,16.808 C30.5815,16.808 31.1535,17.083 31.6485,17.699 Z M30.0095,17.556 C29.0085,17.556 28.3265,18.348 28.3265,19.503 C28.3265,20.614 28.9975,21.395 29.9545,21.395 C30.9335,21.395 31.6485,20.581 31.6485,19.481 C31.6485,18.337 30.9775,17.556 30.0095,17.556 Z M35.0035,16.929 L35.0035,22 L34.1675,22 L34.1675,16.929 L35.0035,16.929 Z M34.5965,14.96 C34.8935,14.96 35.1245,15.202 35.1245,15.51 C35.1245,15.807 34.8825,16.038 34.5855,16.038 C34.2885,16.038 34.0575,15.807 34.0575,15.499 C34.0575,15.191 34.2885,14.96 34.5965,14.96 Z M39.6345,16.929 L40.4815,16.929 L40.4815,20.174 C40.4815,20.867 40.3495,21.252 39.9755,21.593 C39.6015,21.934 39.0845,22.121 38.5125,22.121 C37.9405,22.121 37.4125,21.923 37.0495,21.582 C36.7085,21.252 36.5435,20.79 36.5435,20.174 L36.5435,16.929 L37.3795,16.929 L37.3795,20.152 C37.3795,20.867 37.8415,21.373 38.5125,21.373 C38.8645,21.373 39.2055,21.23 39.4145,20.988 C39.5795,20.79 39.6345,20.581 39.6345,20.174 L39.6345,16.929 Z M45.2005,18.315 L44.3645,18.315 L44.3645,18.26 C44.3645,17.787 43.9795,17.49 43.3965,17.49 C42.8355,17.49 42.4835,17.776 42.4835,18.216 C42.4835,18.656 42.7035,18.821 43.6165,19.074 C44.2655,19.25 44.6065,19.415 44.8485,19.657 C45.1015,19.91 45.2555,20.273 45.2555,20.647 C45.2555,21.527 44.5295,22.121 43.4515,22.121 C42.2965,22.121 41.6475,21.582 41.5595,20.559 L42.3845,20.559 C42.4395,21.131 42.8135,21.439 43.4515,21.439 C44.0235,21.439 44.3975,21.142 44.3975,20.691 C44.3975,20.251 44.1115,20.031 43.2425,19.811 C42.1425,19.514 41.6475,19.052 41.6475,18.282 C41.6475,17.402 42.3625,16.808 43.4295,16.808 C44.5075,16.808 45.1565,17.358 45.2005,18.315 Z M46.9715,20.944 C47.3015,20.944 47.5435,21.186 47.5435,21.527 C47.5435,21.846 47.2905,22.088 46.9715,22.088 C46.6415,22.088 46.3995,21.846 46.3995,21.516 C46.3995,21.186 46.6415,20.944 46.9715,20.944 Z M46.9715,17.776 C47.3015,17.776 47.5435,18.018 47.5435,18.359 C47.5435,18.678 47.2905,18.92 46.9715,18.92 C46.6415,18.92 46.3995,18.678 46.3995,18.348 C46.3995,18.018 46.6415,17.776 46.9715,17.776 Z M51.0855,15.994 L49.4685,17.072 L49.4685,16.236 L51.9545,14.608 L51.9545,22 L51.0855,22 L51.0855,15.994 Z M57.1135,20.35 L54.1765,20.35 L54.1765,19.668 L57.9605,14.564 L57.9605,19.558 L58.8185,19.558 L58.8185,20.35 L57.9605,20.35 L57.9605,22 L57.1135,22 L57.1135,20.35 Z M57.1135,19.558 L57.1135,16.753 L55.0565,19.558 L57.1135,19.558 Z M60.0835,16.929 L60.9195,16.929 L60.9195,17.853 C61.4035,17.105 61.9205,16.808 62.7675,16.808 C64.1755,16.808 65.1545,17.886 65.1545,19.426 C65.1545,21.021 64.1755,22.121 62.7675,22.121 C62.3715,22.121 62.0085,22.033 61.6565,21.857 C61.3485,21.703 61.1945,21.571 60.9195,21.208 L60.9195,24.376 L60.0835,24.376 L60.0835,16.929 Z M62.6245,17.556 C61.6125,17.556 60.9195,18.359 60.9195,19.547 C60.9195,20.658 61.5905,21.395 62.5915,21.395 C63.5925,21.395 64.2635,20.614 64.2635,19.459 C64.2635,18.865 64.1205,18.414 63.8235,18.084 C63.5265,17.754 63.0755,17.556 62.6245,17.556 Z M68.0365,20.163 L66.6835,22 L65.6605,22 L67.5305,19.481 L65.6275,16.929 L66.6835,16.929 L68.0365,18.788 L69.4225,16.929 L70.4455,16.929 L68.5315,19.481 L70.3575,22 L69.3345,22 L68.0365,20.163 Z"/>
      <path stroke="#C41261" d="M15 .0666666667C15 8.31411893 8.31411893 15 .0666666667 15M16.9333333 1C16.9333333 9.79973701 9.79973701 16.9333333 1 16.9333333"/>
    </g>
  </g>
</svg>
