<svg xmlns="http://www.w3.org/2000/svg" xmlns:xlink="http://www.w3.org/1999/xlink" width="580" height="180" viewBox="0 0 580 180">
  <defs>
    <rect id="3.-line-message-with-action-a" width="240" height="34"/>
    <mask id="3.-line-message-with-action-c" width="240" height="34" x="0" y="0" fill="#fff">
      <use xlink:href="#3.-line-message-with-action-a"/>
    </mask>
    <rect id="3.-line-message-with-action-b" width="72" height="48"/>
    <mask id="3.-line-message-with-action-d" width="72" height="48" x="0" y="0" fill="#fff">
      <use xlink:href="#3.-line-message-with-action-b"/>
    </mask>
  </defs>
  <g fill="none" fill-rule="evenodd">
    <rect width="580" height="180" fill="#FFF" fill-opacity=".01" fill-rule="nonzero"/>
    <g transform="translate(133 134)">
      <g transform="translate(0 2.48)">
        <polyline stroke="#979797" stroke-linecap="round" stroke-linejoin="round" points=".96 4.8 6.128 0 6.128 0 11.295 4.8" transform="rotate(180 6.128 2.4)"/>
        <polyline stroke="#979797" stroke-linecap="round" stroke-linejoin="round" points=".96 11.04 6.128 6.24 6.128 6.24 11.295 11.04" transform="matrix(-1 0 0 1 12.255 0)"/>
        <path stroke="#00AB9A" d="M0.1875,5.52 L11.8125,5.52"/>
      </g>
      <path fill="#00AB9A" d="M20.2985,5.929 L21.1675,5.929 L19.2535,11 L18.3735,11 L16.5145,5.929 L17.3945,5.929 L18.8245,9.801 L20.2985,5.929 Z M22.4985,9.944 C22.8285,9.944 23.0705,10.186 23.0705,10.527 C23.0705,10.846 22.8175,11.088 22.4985,11.088 C22.1685,11.088 21.9265,10.846 21.9265,10.516 C21.9265,10.186 22.1685,9.944 22.4985,9.944 Z M28.0425,9.801 L28.5595,10.373 C27.9875,10.89 27.4265,11.121 26.6895,11.121 C25.2375,11.121 24.2035,10.021 24.2035,8.481 C24.2035,6.908 25.2485,5.808 26.7335,5.808 C27.4595,5.808 28.0535,6.05 28.5815,6.567 L28.0425,7.106 C27.6575,6.754 27.2285,6.578 26.7555,6.578 C25.7545,6.578 25.0615,7.348 25.0615,8.448 C25.0615,9.57 25.7545,10.351 26.7445,10.351 C27.2395,10.351 27.6355,10.186 28.0425,9.801 Z M34.3455,8.734 L30.1215,8.734 C30.1655,9.163 30.2425,9.383 30.4515,9.658 C30.7815,10.109 31.2655,10.351 31.8155,10.351 C32.4425,10.351 33.0365,10.01 33.3335,9.482 L34.0705,9.757 C33.6525,10.604 32.7835,11.121 31.8155,11.121 C30.3085,11.121 29.2305,10.021 29.2305,8.481 C29.2305,6.919 30.2975,5.808 31.7825,5.808 C33.2565,5.808 34.3565,6.919 34.3565,8.404 C34.3565,8.47 34.3565,8.613 34.3455,8.734 Z M30.1325,8.118 L33.4655,8.118 C33.4325,7.722 33.3555,7.502 33.1795,7.249 C32.8605,6.82 32.3435,6.556 31.7825,6.556 C31.2215,6.556 30.7155,6.82 30.4185,7.26 C30.2645,7.502 30.1985,7.711 30.1325,8.118 Z M35.5665,5.929 L36.4025,5.929 L36.4025,6.644 C36.8425,6.05 37.2825,5.808 37.9095,5.808 C38.3715,5.808 38.7895,5.962 39.0865,6.226 C39.4055,6.534 39.5155,6.886 39.5155,7.579 L39.5155,11 L38.6795,11 L38.6795,7.766 C38.6795,7.315 38.6245,7.073 38.4925,6.897 C38.3385,6.688 38.0415,6.556 37.7005,6.556 C37.3265,6.556 36.9855,6.699 36.7325,6.985 C36.4905,7.249 36.4025,7.491 36.4025,7.909 L36.4025,11 L35.5665,11 L35.5665,5.929 Z M42.0565,6.666 L42.0565,9.966 C42.0675,10.219 42.1335,10.274 42.4415,10.274 L42.8265,10.274 L42.8265,11 L42.0455,11 C41.4515,10.989 41.2205,10.769 41.2205,10.208 L41.2205,6.666 L40.5165,6.666 L40.5165,5.929 L41.2205,5.929 L41.2205,4.334 L42.0565,4.334 L42.0565,5.929 L42.8265,5.929 L42.8265,6.666 L42.0565,6.666 Z M48.7225,8.734 L44.4985,8.734 C44.5425,9.163 44.6195,9.383 44.8285,9.658 C45.1585,10.109 45.6425,10.351 46.1925,10.351 C46.8195,10.351 47.4135,10.01 47.7105,9.482 L48.4475,9.757 C48.0295,10.604 47.1605,11.121 46.1925,11.121 C44.6855,11.121 43.6075,10.021 43.6075,8.481 C43.6075,6.919 44.6745,5.808 46.1595,5.808 C47.6335,5.808 48.7335,6.919 48.7335,8.404 C48.7335,8.47 48.7335,8.613 48.7225,8.734 Z M44.5095,8.118 L47.8425,8.118 C47.8095,7.722 47.7325,7.502 47.5565,7.249 C47.2375,6.82 46.7205,6.556 46.1595,6.556 C45.5985,6.556 45.0925,6.82 44.7955,7.26 C44.6415,7.502 44.5755,7.711 44.5095,8.118 Z M49.9435,5.929 L50.7795,5.929 L50.7795,6.787 C50.9335,6.424 51.0435,6.27 51.2415,6.116 C51.4945,5.918 51.8465,5.808 52.2095,5.808 L52.4075,5.808 L52.4075,6.655 C52.3195,6.644 52.2315,6.644 52.1765,6.644 C51.7255,6.644 51.3295,6.853 51.0765,7.227 C50.8565,7.546 50.7795,7.843 50.7795,8.426 L50.7795,11 L49.9435,11 L49.9435,5.929 Z M57.6325,6.666 L57.6325,9.966 C57.6435,10.219 57.7095,10.274 58.0175,10.274 L58.4025,10.274 L58.4025,11 L57.6215,11 C57.0275,10.989 56.7965,10.769 56.7965,10.208 L56.7965,6.666 L56.0925,6.666 L56.0925,5.929 L56.7965,5.929 L56.7965,4.334 L57.6325,4.334 L57.6325,5.929 L58.4025,5.929 L58.4025,6.666 L57.6325,6.666 Z M64.2985,8.734 L60.0745,8.734 C60.1185,9.163 60.1955,9.383 60.4045,9.658 C60.7345,10.109 61.2185,10.351 61.7685,10.351 C62.3955,10.351 62.9895,10.01 63.2865,9.482 L64.0235,9.757 C63.6055,10.604 62.7365,11.121 61.7685,11.121 C60.2615,11.121 59.1835,10.021 59.1835,8.481 C59.1835,6.919 60.2505,5.808 61.7355,5.808 C63.2095,5.808 64.3095,6.919 64.3095,8.404 C64.3095,8.47 64.3095,8.613 64.2985,8.734 Z M60.0855,8.118 L63.4185,8.118 C63.3855,7.722 63.3085,7.502 63.1325,7.249 C62.8135,6.82 62.2965,6.556 61.7355,6.556 C61.1745,6.556 60.6685,6.82 60.3715,7.26 C60.2175,7.502 60.1515,7.711 60.0855,8.118 Z M67.1365,9.163 L65.7835,11 L64.7605,11 L66.6305,8.481 L64.7275,5.929 L65.7835,5.929 L67.1365,7.788 L68.5225,5.929 L69.5455,5.929 L67.6315,8.481 L69.4575,11 L68.4345,11 L67.1365,9.163 Z M71.3165,6.666 L71.3165,9.966 C71.3275,10.219 71.3935,10.274 71.7015,10.274 L72.0865,10.274 L72.0865,11 L71.3055,11 C70.7115,10.989 70.4805,10.769 70.4805,10.208 L70.4805,6.666 L69.7765,6.666 L69.7765,5.929 L70.4805,5.929 L70.4805,4.334 L71.3165,4.334 L71.3165,5.929 L72.0865,5.929 L72.0865,6.666 L71.3165,6.666 Z M77.4105,5.929 L77.4105,11 L76.5745,11 L76.5745,5.929 L77.4105,5.929 Z M77.0035,3.96 C77.3005,3.96 77.5315,4.202 77.5315,4.51 C77.5315,4.807 77.2895,5.038 76.9925,5.038 C76.6955,5.038 76.4645,4.807 76.4645,4.499 C76.4645,4.191 76.6955,3.96 77.0035,3.96 Z M79.0935,5.929 L79.9295,5.929 L79.9295,6.644 C80.3695,6.05 80.8095,5.808 81.4365,5.808 C81.8985,5.808 82.3165,5.962 82.6135,6.226 C82.9325,6.534 83.0425,6.886 83.0425,7.579 L83.0425,11 L82.2065,11 L82.2065,7.766 C82.2065,7.315 82.1515,7.073 82.0195,6.897 C81.8655,6.688 81.5685,6.556 81.2275,6.556 C80.8535,6.556 80.5125,6.699 80.2595,6.985 C80.0175,7.249 79.9295,7.491 79.9295,7.909 L79.9295,11 L79.0935,11 L79.0935,5.929 Z M91.4245,9.801 L91.9415,10.373 C91.3695,10.89 90.8085,11.121 90.0715,11.121 C88.6195,11.121 87.5855,10.021 87.5855,8.481 C87.5855,6.908 88.6305,5.808 90.1155,5.808 C90.8415,5.808 91.4355,6.05 91.9635,6.567 L91.4245,7.106 C91.0395,6.754 90.6105,6.578 90.1375,6.578 C89.1365,6.578 88.4435,7.348 88.4435,8.448 C88.4435,9.57 89.1365,10.351 90.1265,10.351 C90.6215,10.351 91.0175,10.186 91.4245,9.801 Z M95.2085,5.808 C96.7045,5.808 97.7715,6.919 97.7715,8.481 C97.7715,9.966 96.6275,11.121 95.1755,11.121 C93.6685,11.121 92.6125,10.021 92.6125,8.459 C92.6125,6.886 93.6685,5.808 95.2085,5.808 Z M95.2085,6.578 C94.1635,6.578 93.4705,7.337 93.4705,8.47 C93.4705,9.592 94.1635,10.351 95.1975,10.351 C96.1985,10.351 96.9135,9.57 96.9135,8.47 C96.9135,7.337 96.2315,6.578 95.2085,6.578 Z M99.0475,5.929 L99.8835,5.929 L99.8835,6.644 C100.3235,6.05 100.7635,5.808 101.3905,5.808 C101.8525,5.808 102.2705,5.962 102.5675,6.226 C102.8865,6.534 102.9965,6.886 102.9965,7.579 L102.9965,11 L102.1605,11 L102.1605,7.766 C102.1605,7.315 102.1055,7.073 101.9735,6.897 C101.8195,6.688 101.5225,6.556 101.1815,6.556 C100.8075,6.556 100.4665,6.699 100.2135,6.985 C99.9715,7.249 99.8835,7.491 99.8835,7.909 L99.8835,11 L99.0475,11 L99.0475,5.929 Z M105.5375,6.666 L105.5375,9.966 C105.5485,10.219 105.6145,10.274 105.9225,10.274 L106.3075,10.274 L106.3075,11 L105.5265,11 C104.9325,10.989 104.7015,10.769 104.7015,10.208 L104.7015,6.666 L103.9975,6.666 L103.9975,5.929 L104.7015,5.929 L104.7015,4.334 L105.5375,4.334 L105.5375,5.929 L106.3075,5.929 L106.3075,6.666 L105.5375,6.666 Z M111.3235,6.765 L111.3235,5.929 L112.1595,5.929 L112.1595,11 L111.3235,11 L111.3235,10.021 C110.8175,10.78 110.2455,11.121 109.4755,11.121 C108.0785,11.121 107.0885,10.021 107.0885,8.481 C107.0885,6.93 108.1005,5.808 109.4975,5.808 C110.2675,5.808 110.8285,6.105 111.3235,6.765 Z M109.6185,6.556 C109.0685,6.556 108.6835,6.743 108.3865,7.161 C108.1225,7.524 107.9685,8.008 107.9685,8.503 C107.9685,9.581 108.6725,10.395 109.5965,10.395 C110.5535,10.395 111.3345,9.504 111.3345,8.415 C111.3345,7.315 110.6305,6.556 109.6185,6.556 Z M114.6785,5.929 L114.6785,11 L113.8425,11 L113.8425,5.929 L114.6785,5.929 Z M114.2715,3.96 C114.5685,3.96 114.7995,4.202 114.7995,4.51 C114.7995,4.807 114.5575,5.038 114.2605,5.038 C113.9635,5.038 113.7325,4.807 113.7325,4.499 C113.7325,4.191 113.9635,3.96 114.2715,3.96 Z M116.3615,5.929 L117.1975,5.929 L117.1975,6.644 C117.6375,6.05 118.0775,5.808 118.7045,5.808 C119.1665,5.808 119.5845,5.962 119.8815,6.226 C120.2005,6.534 120.3105,6.886 120.3105,7.579 L120.3105,11 L119.4745,11 L119.4745,7.766 C119.4745,7.315 119.4195,7.073 119.2875,6.897 C119.1335,6.688 118.8365,6.556 118.4955,6.556 C118.1215,6.556 117.7805,6.699 117.5275,6.985 C117.2855,7.249 117.1975,7.491 117.1975,7.909 L117.1975,11 L116.3615,11 L116.3615,5.929 Z M126.6685,8.734 L122.4445,8.734 C122.4885,9.163 122.5655,9.383 122.7745,9.658 C123.1045,10.109 123.5885,10.351 124.1385,10.351 C124.7655,10.351 125.3595,10.01 125.6565,9.482 L126.3935,9.757 C125.9755,10.604 125.1065,11.121 124.1385,11.121 C122.6315,11.121 121.5535,10.021 121.5535,8.481 C121.5535,6.919 122.6205,5.808 124.1055,5.808 C125.5795,5.808 126.6795,6.919 126.6795,8.404 C126.6795,8.47 126.6795,8.613 126.6685,8.734 Z M122.4555,8.118 L125.7885,8.118 C125.7555,7.722 125.6785,7.502 125.5025,7.249 C125.1835,6.82 124.6665,6.556 124.1055,6.556 C123.5445,6.556 123.0385,6.82 122.7415,7.26 C122.5875,7.502 122.5215,7.711 122.4555,8.118 Z M127.8895,5.929 L128.7255,5.929 L128.7255,6.787 C128.8795,6.424 128.9895,6.27 129.1875,6.116 C129.4405,5.918 129.7925,5.808 130.1555,5.808 L130.3535,5.808 L130.3535,6.655 C130.2655,6.644 130.1775,6.644 130.1225,6.644 C129.6715,6.644 129.2755,6.853 129.0225,7.227 C128.8025,7.546 128.7255,7.843 128.7255,8.426 L128.7255,11 L127.8895,11 L127.8895,5.929 Z"/>
    </g>
    <g transform="translate(381 134)">
      <g transform="translate(0 2.48)">
        <polyline stroke="#979797" stroke-linecap="round" stroke-linejoin="round" points=".96 4.8 6.128 0 6.128 0 11.295 4.8" transform="rotate(180 6.128 2.4)"/>
        <polyline stroke="#979797" stroke-linecap="round" stroke-linejoin="round" points=".96 11.04 6.128 6.24 6.128 6.24 11.295 11.04" transform="matrix(-1 0 0 1 12.255 0)"/>
        <path stroke="#C41261" d="M0.1875,5.52 L11.8125,5.52"/>
      </g>
      <path fill="#C41261" d="M20.0835,5.929 L20.9525,5.929 L19.0385,11 L18.1585,11 L16.2995,5.929 L17.1795,5.929 L18.6095,9.801 L20.0835,5.929 Z M22.2835,9.944 C22.6135,9.944 22.8555,10.186 22.8555,10.527 C22.8555,10.846 22.6025,11.088 22.2835,11.088 C21.9535,11.088 21.7115,10.846 21.7115,10.516 C21.7115,10.186 21.9535,9.944 22.2835,9.944 Z M27.8275,9.801 L28.3445,10.373 C27.7725,10.89 27.2115,11.121 26.4745,11.121 C25.0225,11.121 23.9885,10.021 23.9885,8.481 C23.9885,6.908 25.0335,5.808 26.5185,5.808 C27.2445,5.808 27.8385,6.05 28.3665,6.567 L27.8275,7.106 C27.4425,6.754 27.0135,6.578 26.5405,6.578 C25.5395,6.578 24.8465,7.348 24.8465,8.448 C24.8465,9.57 25.5395,10.351 26.5295,10.351 C27.0245,10.351 27.4205,10.186 27.8275,9.801 Z M34.1305,8.734 L29.9065,8.734 C29.9505,9.163 30.0275,9.383 30.2365,9.658 C30.5665,10.109 31.0505,10.351 31.6005,10.351 C32.2275,10.351 32.8215,10.01 33.1185,9.482 L33.8555,9.757 C33.4375,10.604 32.5685,11.121 31.6005,11.121 C30.0935,11.121 29.0155,10.021 29.0155,8.481 C29.0155,6.919 30.0825,5.808 31.5675,5.808 C33.0415,5.808 34.1415,6.919 34.1415,8.404 C34.1415,8.47 34.1415,8.613 34.1305,8.734 Z M29.9175,8.118 L33.2505,8.118 C33.2175,7.722 33.1405,7.502 32.9645,7.249 C32.6455,6.82 32.1285,6.556 31.5675,6.556 C31.0065,6.556 30.5005,6.82 30.2035,7.26 C30.0495,7.502 29.9835,7.711 29.9175,8.118 Z M35.3515,5.929 L36.1875,5.929 L36.1875,6.644 C36.6275,6.05 37.0675,5.808 37.6945,5.808 C38.1565,5.808 38.5745,5.962 38.8715,6.226 C39.1905,6.534 39.3005,6.886 39.3005,7.579 L39.3005,11 L38.4645,11 L38.4645,7.766 C38.4645,7.315 38.4095,7.073 38.2775,6.897 C38.1235,6.688 37.8265,6.556 37.4855,6.556 C37.1115,6.556 36.7705,6.699 36.5175,6.985 C36.2755,7.249 36.1875,7.491 36.1875,7.909 L36.1875,11 L35.3515,11 L35.3515,5.929 Z M41.8415,6.666 L41.8415,9.966 C41.8525,10.219 41.9185,10.274 42.2265,10.274 L42.6115,10.274 L42.6115,11 L41.8305,11 C41.2365,10.989 41.0055,10.769 41.0055,10.208 L41.0055,6.666 L40.3015,6.666 L40.3015,5.929 L41.0055,5.929 L41.0055,4.334 L41.8415,4.334 L41.8415,5.929 L42.6115,5.929 L42.6115,6.666 L41.8415,6.666 Z M48.5075,8.734 L44.2835,8.734 C44.3275,9.163 44.4045,9.383 44.6135,9.658 C44.9435,10.109 45.4275,10.351 45.9775,10.351 C46.6045,10.351 47.1985,10.01 47.4955,9.482 L48.2325,9.757 C47.8145,10.604 46.9455,11.121 45.9775,11.121 C44.4705,11.121 43.3925,10.021 43.3925,8.481 C43.3925,6.919 44.4595,5.808 45.9445,5.808 C47.4185,5.808 48.5185,6.919 48.5185,8.404 C48.5185,8.47 48.5185,8.613 48.5075,8.734 Z M44.2945,8.118 L47.6275,8.118 C47.5945,7.722 47.5175,7.502 47.3415,7.249 C47.0225,6.82 46.5055,6.556 45.9445,6.556 C45.3835,6.556 44.8775,6.82 44.5805,7.26 C44.4265,7.502 44.3605,7.711 44.2945,8.118 Z M49.7285,5.929 L50.5645,5.929 L50.5645,6.787 C50.7185,6.424 50.8285,6.27 51.0265,6.116 C51.2795,5.918 51.6315,5.808 51.9945,5.808 L52.1925,5.808 L52.1925,6.655 C52.1045,6.644 52.0165,6.644 51.9615,6.644 C51.5105,6.644 51.1145,6.853 50.8615,7.227 C50.6415,7.546 50.5645,7.843 50.5645,8.426 L50.5645,11 L49.7285,11 L49.7285,5.929 Z M57.3625,10.131 L57.3625,11 L56.5265,11 L56.5265,3.663 L57.3625,3.663 L57.3625,6.798 C57.8685,6.105 58.4075,5.808 59.1445,5.808 C60.5635,5.808 61.5535,6.908 61.5535,8.481 C61.5535,10.032 60.5745,11.121 59.1885,11.121 C58.4075,11.121 57.8575,10.824 57.3625,10.131 Z M59.0345,6.556 C58.0665,6.556 57.3515,7.359 57.3515,8.47 C57.3515,9.625 58.0115,10.395 59.0015,10.395 C60.0025,10.395 60.6735,9.636 60.6735,8.503 C60.6735,7.37 59.9915,6.556 59.0345,6.556 Z M65.7775,5.929 L66.6245,5.929 L66.6245,9.174 C66.6245,9.867 66.4925,10.252 66.1185,10.593 C65.7445,10.934 65.2275,11.121 64.6555,11.121 C64.0835,11.121 63.5555,10.923 63.1925,10.582 C62.8515,10.252 62.6865,9.79 62.6865,9.174 L62.6865,5.929 L63.5225,5.929 L63.5225,9.152 C63.5225,9.867 63.9845,10.373 64.6555,10.373 C65.0075,10.373 65.3485,10.23 65.5575,9.988 C65.7225,9.79 65.7775,9.581 65.7775,9.174 L65.7775,5.929 Z M69.0555,6.666 L69.0555,9.966 C69.0665,10.219 69.1325,10.274 69.4405,10.274 L69.8255,10.274 L69.8255,11 L69.0445,11 C68.4505,10.989 68.2195,10.769 68.2195,10.208 L68.2195,6.666 L67.5155,6.666 L67.5155,5.929 L68.2195,5.929 L68.2195,4.334 L69.0555,4.334 L69.0555,5.929 L69.8255,5.929 L69.8255,6.666 L69.0555,6.666 Z M71.9045,6.666 L71.9045,9.966 C71.9155,10.219 71.9815,10.274 72.2895,10.274 L72.6745,10.274 L72.6745,11 L71.8935,11 C71.2995,10.989 71.0685,10.769 71.0685,10.208 L71.0685,6.666 L70.3645,6.666 L70.3645,5.929 L71.0685,5.929 L71.0685,4.334 L71.9045,4.334 L71.9045,5.929 L72.6745,5.929 L72.6745,6.666 L71.9045,6.666 Z M76.0515,5.808 C77.5475,5.808 78.6145,6.919 78.6145,8.481 C78.6145,9.966 77.4705,11.121 76.0185,11.121 C74.5115,11.121 73.4555,10.021 73.4555,8.459 C73.4555,6.886 74.5115,5.808 76.0515,5.808 Z M76.0515,6.578 C75.0065,6.578 74.3135,7.337 74.3135,8.47 C74.3135,9.592 75.0065,10.351 76.0405,10.351 C77.0415,10.351 77.7565,9.57 77.7565,8.47 C77.7565,7.337 77.0745,6.578 76.0515,6.578 Z M79.8905,5.929 L80.7265,5.929 L80.7265,6.644 C81.1665,6.05 81.6065,5.808 82.2335,5.808 C82.6955,5.808 83.1135,5.962 83.4105,6.226 C83.7295,6.534 83.8395,6.886 83.8395,7.579 L83.8395,11 L83.0035,11 L83.0035,7.766 C83.0035,7.315 82.9485,7.073 82.8165,6.897 C82.6625,6.688 82.3655,6.556 82.0245,6.556 C81.6505,6.556 81.3095,6.699 81.0565,6.985 C80.8145,7.249 80.7265,7.491 80.7265,7.909 L80.7265,11 L79.8905,11 L79.8905,5.929 Z M89.6255,5.929 L89.6255,11 L88.7895,11 L88.7895,5.929 L89.6255,5.929 Z M89.2185,3.96 C89.5155,3.96 89.7465,4.202 89.7465,4.51 C89.7465,4.807 89.5045,5.038 89.2075,5.038 C88.9105,5.038 88.6795,4.807 88.6795,4.499 C88.6795,4.191 88.9105,3.96 89.2185,3.96 Z M91.3085,5.929 L92.1445,5.929 L92.1445,6.644 C92.5845,6.05 93.0245,5.808 93.6515,5.808 C94.1135,5.808 94.5315,5.962 94.8285,6.226 C95.1475,6.534 95.2575,6.886 95.2575,7.579 L95.2575,11 L94.4215,11 L94.4215,7.766 C94.4215,7.315 94.3665,7.073 94.2345,6.897 C94.0805,6.688 93.7835,6.556 93.4425,6.556 C93.0685,6.556 92.7275,6.699 92.4745,6.985 C92.2325,7.249 92.1445,7.491 92.1445,7.909 L92.1445,11 L91.3085,11 L91.3085,5.929 Z M103.6395,9.801 L104.1565,10.373 C103.5845,10.89 103.0235,11.121 102.2865,11.121 C100.8345,11.121 99.8005,10.021 99.8005,8.481 C99.8005,6.908 100.8455,5.808 102.3305,5.808 C103.0565,5.808 103.6505,6.05 104.1785,6.567 L103.6395,7.106 C103.2545,6.754 102.8255,6.578 102.3525,6.578 C101.3515,6.578 100.6585,7.348 100.6585,8.448 C100.6585,9.57 101.3515,10.351 102.3415,10.351 C102.8365,10.351 103.2325,10.186 103.6395,9.801 Z M107.4235,5.808 C108.9195,5.808 109.9865,6.919 109.9865,8.481 C109.9865,9.966 108.8425,11.121 107.3905,11.121 C105.8835,11.121 104.8275,10.021 104.8275,8.459 C104.8275,6.886 105.8835,5.808 107.4235,5.808 Z M107.4235,6.578 C106.3785,6.578 105.6855,7.337 105.6855,8.47 C105.6855,9.592 106.3785,10.351 107.4125,10.351 C108.4135,10.351 109.1285,9.57 109.1285,8.47 C109.1285,7.337 108.4465,6.578 107.4235,6.578 Z M111.2625,5.929 L112.0985,5.929 L112.0985,6.644 C112.5385,6.05 112.9785,5.808 113.6055,5.808 C114.0675,5.808 114.4855,5.962 114.7825,6.226 C115.1015,6.534 115.2115,6.886 115.2115,7.579 L115.2115,11 L114.3755,11 L114.3755,7.766 C114.3755,7.315 114.3205,7.073 114.1885,6.897 C114.0345,6.688 113.7375,6.556 113.3965,6.556 C113.0225,6.556 112.6815,6.699 112.4285,6.985 C112.1865,7.249 112.0985,7.491 112.0985,7.909 L112.0985,11 L111.2625,11 L111.2625,5.929 Z M117.7525,6.666 L117.7525,9.966 C117.7635,10.219 117.8295,10.274 118.1375,10.274 L118.5225,10.274 L118.5225,11 L117.7415,11 C117.1475,10.989 116.9165,10.769 116.9165,10.208 L116.9165,6.666 L116.2125,6.666 L116.2125,5.929 L116.9165,5.929 L116.9165,4.334 L117.7525,4.334 L117.7525,5.929 L118.5225,5.929 L118.5225,6.666 L117.7525,6.666 Z M123.5385,6.765 L123.5385,5.929 L124.3745,5.929 L124.3745,11 L123.5385,11 L123.5385,10.021 C123.0325,10.78 122.4605,11.121 121.6905,11.121 C120.2935,11.121 119.3035,10.021 119.3035,8.481 C119.3035,6.93 120.3155,5.808 121.7125,5.808 C122.4825,5.808 123.0435,6.105 123.5385,6.765 Z M121.8335,6.556 C121.2835,6.556 120.8985,6.743 120.6015,7.161 C120.3375,7.524 120.1835,8.008 120.1835,8.503 C120.1835,9.581 120.8875,10.395 121.8115,10.395 C122.7685,10.395 123.5495,9.504 123.5495,8.415 C123.5495,7.315 122.8455,6.556 121.8335,6.556 Z M126.8935,5.929 L126.8935,11 L126.0575,11 L126.0575,5.929 L126.8935,5.929 Z M126.4865,3.96 C126.7835,3.96 127.0145,4.202 127.0145,4.51 C127.0145,4.807 126.7725,5.038 126.4755,5.038 C126.1785,5.038 125.9475,4.807 125.9475,4.499 C125.9475,4.191 126.1785,3.96 126.4865,3.96 Z M128.5765,5.929 L129.4125,5.929 L129.4125,6.644 C129.8525,6.05 130.2925,5.808 130.9195,5.808 C131.3815,5.808 131.7995,5.962 132.0965,6.226 C132.4155,6.534 132.5255,6.886 132.5255,7.579 L132.5255,11 L131.6895,11 L131.6895,7.766 C131.6895,7.315 131.6345,7.073 131.5025,6.897 C131.3485,6.688 131.0515,6.556 130.7105,6.556 C130.3365,6.556 129.9955,6.699 129.7425,6.985 C129.5005,7.249 129.4125,7.491 129.4125,7.909 L129.4125,11 L128.5765,11 L128.5765,5.929 Z M138.8835,8.734 L134.6595,8.734 C134.7035,9.163 134.7805,9.383 134.9895,9.658 C135.3195,10.109 135.8035,10.351 136.3535,10.351 C136.9805,10.351 137.5745,10.01 137.8715,9.482 L138.6085,9.757 C138.1905,10.604 137.3215,11.121 136.3535,11.121 C134.8465,11.121 133.7685,10.021 133.7685,8.481 C133.7685,6.919 134.8355,5.808 136.3205,5.808 C137.7945,5.808 138.8945,6.919 138.8945,8.404 C138.8945,8.47 138.8945,8.613 138.8835,8.734 Z M134.6705,8.118 L138.0035,8.118 C137.9705,7.722 137.8935,7.502 137.7175,7.249 C137.3985,6.82 136.8815,6.556 136.3205,6.556 C135.7595,6.556 135.2535,6.82 134.9565,7.26 C134.8025,7.502 134.7365,7.711 134.6705,8.118 Z M140.1045,5.929 L140.9405,5.929 L140.9405,6.787 C141.0945,6.424 141.2045,6.27 141.4025,6.116 C141.6555,5.918 142.0075,5.808 142.3705,5.808 L142.5685,5.808 L142.5685,6.655 C142.4805,6.644 142.3925,6.644 142.3375,6.644 C141.8865,6.644 141.4905,6.853 141.2375,7.227 C141.0175,7.546 140.9405,7.843 140.9405,8.426 L140.9405,11 L140.1045,11 L140.1045,5.929 Z"/>
    </g>
    <g transform="translate(118 56)">
      <rect width="344" height="68" fill="#25333D" rx="4"/>
      <rect width="73" height="36" x="263" y="16"/>
      <path fill="#89CBDF" d="M277.705096,36.724675 L273.919599,36.724675 L273.127598,39 L271.362376,39 L275.053906,29.2275125 L276.577501,29.2275125 L280.275743,39 L278.503809,39 L277.705096,36.724675 Z M274.396142,35.3554528 L277.228553,35.3554528 L275.812348,31.3014813 L274.396142,35.3554528 Z M289.949144,35.8185721 C289.850703,36.8611549 289.465893,37.6744021 288.794702,38.258338 C288.123511,38.8422739 287.230841,39.1342375 286.116665,39.1342375 C285.338083,39.1342375 284.652361,38.9496628 284.059475,38.5805079 C283.46659,38.211353 283.009069,37.6867135 282.686897,37.0065736 C282.364726,36.3264337 282.196931,35.5366779 282.183507,34.6372824 L282.183507,33.7244676 C282.183507,32.802699 282.346828,31.9905705 282.673474,31.2880576 C283.00012,30.5855447 283.468828,30.0441256 284.079611,29.6637842 C284.690395,29.2834429 285.396253,29.093275 286.197207,29.093275 C287.275587,29.093275 288.143647,29.3863572 288.801414,29.9725304 C289.459181,30.5587036 289.841754,31.386493 289.949144,32.4559235 L288.257752,32.4559235 C288.177209,31.7534106 287.972499,31.2466692 287.643616,30.9356842 C287.314732,30.6246992 286.832601,30.469209 286.197207,30.469209 C285.458897,30.469209 284.89175,30.7387999 284.495747,31.2779898 C284.099745,31.8171796 283.897272,32.6080541 283.888323,33.650637 L283.888323,34.5164686 C283.888323,35.5724753 284.077372,36.3778921 284.455476,36.932743 C284.83358,37.487594 285.387304,37.7650153 286.116665,37.7650153 C286.783381,37.7650153 287.284529,37.6151183 287.620124,37.3153198 C287.95572,37.0155213 288.16826,36.5166104 288.257752,35.8185721 L289.949144,35.8185721 Z M299.582274,30.5967346 L296.535084,30.5967346 L296.535084,39 L294.850403,39 L294.850403,30.5967346 L291.83006,30.5967346 L291.83006,29.2275125 L299.582274,29.2275125 L299.582274,30.5967346 Z M303.906312,39 L302.21492,39 L302.21492,29.2275125 L303.906312,29.2275125 L303.906312,39 Z M315.042901,34.3688074 C315.042901,35.3263728 314.877344,36.1664672 314.546223,36.8891158 C314.215102,37.6117645 313.74192,38.1666071 313.126662,38.5536604 C312.511403,38.9407137 311.803308,39.1342375 311.002354,39.1342375 C310.210349,39.1342375 309.50449,38.9407137 308.884758,38.5536604 C308.265025,38.1666071 307.786249,37.6151204 307.448417,36.8991837 C307.110584,36.1832469 306.939433,35.3576948 306.934958,34.4225024 L306.934958,33.8721288 C306.934958,32.919038 307.103872,32.077825 307.441705,31.3484644 C307.779538,30.6191039 308.256076,30.0609053 308.871334,29.6738521 C309.486592,29.2867988 310.19245,29.093275 310.98893,29.093275 C311.78541,29.093275 312.491268,29.2845615 313.106526,29.6671402 C313.721784,30.0497189 314.197204,30.600087 314.532799,31.318261 C314.868394,32.036435 315.038427,32.8720549 315.042901,33.8251457 L315.042901,34.3688074 Z M313.344797,33.8587051 C313.344797,32.7758507 313.140087,31.945824 312.730661,31.3686001 C312.321235,30.7913761 311.740663,30.5027684 310.98893,30.5027684 C310.255095,30.5027684 309.681235,30.7902574 309.267334,31.3652441 C308.853434,31.9402308 308.642012,32.753478 308.633062,33.8050101 L308.633062,34.3688074 C308.633062,35.4427125 308.842247,36.2727392 309.260623,36.8589124 C309.678998,37.4450856 310.259569,37.7381678 311.002354,37.7381678 C311.754087,37.7381678 312.332421,37.4517974 312.737373,36.879048 C313.142325,36.3062987 313.344797,35.4695601 313.344797,34.3688074 L313.344797,33.8587051 Z M325.736507,39 L324.038403,39 L319.682397,32.0666349 L319.682397,39 L317.984293,39 L317.984293,29.2275125 L319.682397,29.2275125 L324.051827,36.1877251 L324.051827,29.2275125 L325.736507,29.2275125 L325.736507,39 Z"/>
      <path fill="#F3F6FA" d="M23.8864511,20.2879885 L20.7452944,20.2879885 L20.7452944,29 L19.4633266,29 L19.4633266,20.2879885 L16.3288818,20.2879885 L16.3288818,19.2275125 L23.8864511,19.2275125 L23.8864511,20.2879885 Z M31.4389693,27.2884723 L32.8350389,21.7377531 L34.0767355,21.7377531 L31.9624954,29 L30.9557144,29 L29.1904917,23.4962639 L27.4722522,29 L26.4654712,29 L24.3579429,21.7377531 L25.5929276,21.7377531 L27.0225566,27.1743705 L28.7139487,21.7377531 L29.7140178,21.7377531 L31.4389693,27.2884723 Z M35.2596859,25.3017578 C35.2596859,24.5902957 35.3995152,23.9504368 35.679178,23.382162 C35.9588407,22.8138873 36.3481255,22.3753826 36.8470439,22.0666349 C37.3459623,21.7578872 37.9153472,21.6035156 38.5552157,21.6035156 C39.5441033,21.6035156 40.3439268,21.9458177 40.9547104,22.6304322 C41.5654939,23.3150467 41.8708811,24.2256151 41.8708811,25.3621647 L41.8708811,25.449419 C41.8708811,26.1564065 41.7355263,26.7906722 41.4648127,27.3522351 C41.1940992,27.913798 40.8070517,28.351184 40.3036587,28.6644063 C39.8002656,28.9776287 39.2219317,29.1342375 38.5686394,29.1342375 C37.5842264,29.1342375 36.7866401,28.7919354 36.1758566,28.1073209 C35.5650731,27.4227064 35.2596859,26.5166125 35.2596859,25.3890122 L35.2596859,25.3017578 Z M36.5080943,25.449419 C36.5080943,26.2548478 36.6949062,26.9014185 37.0685357,27.3891504 C37.4421652,27.8768823 37.9421948,28.1207446 38.5686394,28.1207446 C39.1995587,28.1207446 39.7007068,27.8735264 40.072099,27.3790826 C40.4434912,26.8846388 40.6291845,26.1922041 40.6291845,25.3017578 C40.6291845,24.5052782 40.4401353,23.8598262 40.0620312,23.3653824 C39.6839271,22.8709386 39.1816603,22.6237204 38.5552157,22.6237204 C37.9421948,22.6237204 37.4477584,22.8675827 37.0718917,23.3553146 C36.6960249,23.8430465 36.5080943,24.5410743 36.5080943,25.449419 Z M46.2621069,25.3554528 L42.9867127,25.3554528 L42.9867127,24.3419599 L46.2621069,24.3419599 L46.2621069,25.3554528 Z M49.0693306,29 L47.8276341,29 L47.8276341,18.6905626 L49.0693306,18.6905626 L49.0693306,29 Z M52.6551316,29 L51.4134351,29 L51.4134351,21.7377531 L52.6551316,21.7377531 L52.6551316,29 Z M51.312757,19.8114455 C51.312757,19.6100882 51.3742819,19.4400558 51.4973335,19.3013431 C51.6203851,19.1626303 51.8027225,19.093275 52.0443512,19.093275 C52.2859798,19.093275 52.4694359,19.1626303 52.5947248,19.3013431 C52.7200137,19.4400558 52.7826572,19.6100882 52.7826572,19.8114455 C52.7826572,20.0128027 52.7200137,20.1805978 52.5947248,20.314836 C52.4694359,20.4490741 52.2859798,20.5161922 52.0443512,20.5161922 C51.8027225,20.5161922 51.6203851,20.4490741 51.4973335,20.314836 C51.3742819,20.1805978 51.312757,20.0128027 51.312757,19.8114455 Z M56.066424,21.7377531 L56.1066952,22.6505679 C56.6615462,21.9525295 57.3864212,21.6035156 58.2813422,21.6035156 C59.8161315,21.6035156 60.5902265,22.4693386 60.6036503,24.2010106 L60.6036503,29 L59.3619538,29 L59.3619538,24.1942987 C59.3574792,23.67077 59.2377853,23.2837225 59.0028685,23.0331446 C58.7679518,22.7825668 58.4021584,22.6572797 57.9054773,22.6572797 C57.5027628,22.6572797 57.1492744,22.7646686 56.8450013,22.9794497 C56.5407282,23.1942307 56.3035777,23.4761265 56.1335427,23.8251457 L56.1335427,29 L54.8918461,29 L54.8918461,21.7377531 L56.066424,21.7377531 Z M65.7398941,29.1342375 C64.7554811,29.1342375 63.9545389,28.8109521 63.3370434,28.1643718 C62.719548,27.5177914 62.4108049,26.6530871 62.4108049,25.5702327 L62.4108049,25.3420291 C62.4108049,24.6216177 62.548397,23.978403 62.8235851,23.4123655 C63.0987733,22.846328 63.4835835,22.4033488 63.9780273,22.0834146 C64.4724711,21.7634803 65.008297,21.6035156 65.585521,21.6035156 C66.5296626,21.6035156 67.2634867,21.914496 67.7870154,22.536466 C68.3105442,23.158436 68.5723046,24.048869 68.5723046,25.2077916 L68.5723046,25.7246058 L63.6525015,25.7246058 C63.6703999,26.4405426 63.8795845,27.0188765 64.2800616,27.4596251 C64.6805388,27.9003736 65.1895174,28.1207446 65.8070128,28.1207446 C66.2455241,28.1207446 66.6169107,28.0312538 66.9211838,27.8522697 C67.2254569,27.6732855 67.4916919,27.436135 67.7198967,27.1408111 L68.4783384,27.7314559 C67.8697922,28.6666483 66.9569865,29.1342375 65.7398941,29.1342375 Z M65.585521,22.6237204 C65.0843653,22.6237204 64.6637588,22.8060578 64.3236888,23.170738 C63.9836189,23.5354183 63.7733156,24.0466342 63.6927727,24.7044011 L67.3306081,24.7044011 L67.3306081,24.6104349 C67.2948112,23.9795156 67.1247788,23.4906724 66.8205057,23.1438905 C66.5162326,22.7971087 66.1045751,22.6237204 65.585521,22.6237204 Z M75.0794312,21.7377531 L75.1129906,22.5431779 C75.6454685,21.9167332 76.3636318,21.6035156 77.2675019,21.6035156 C78.2832372,21.6035156 78.9745532,21.9928004 79.3414708,22.7713816 C79.5830994,22.4223624 79.8974357,22.1404666 80.284489,21.9256855 C80.6715423,21.7109045 81.1290637,21.6035156 81.6570671,21.6035156 C83.2500263,21.6035156 84.0599176,22.4469659 84.0867652,24.1338919 L84.0867652,29 L82.8450686,29 L82.8450686,24.2077225 C82.8450686,23.6886683 82.7264934,23.3005022 82.4893393,23.0432124 C82.2521853,22.7859227 81.8539515,22.6572797 81.2946259,22.6572797 C80.8337416,22.6572797 80.4511687,22.7948718 80.1468956,23.0700599 C79.8426224,23.3452481 79.6658782,23.7155161 79.6166576,24.180875 L79.6166576,29 L78.3682491,29 L78.3682491,24.2412818 C78.3682491,23.1852752 77.8514401,22.6572797 76.8178064,22.6572797 C76.0034284,22.6572797 75.4463485,23.0040564 75.14655,23.6976201 L75.14655,29 L73.9048534,29 L73.9048534,21.7377531 L75.0794312,21.7377531 Z M89.2230089,29.1342375 C88.2385959,29.1342375 87.4376537,28.8109521 86.8201583,28.1643718 C86.2026629,27.5177914 85.8939198,26.6530871 85.8939198,25.5702327 L85.8939198,25.3420291 C85.8939198,24.6216177 86.0315118,23.978403 86.3067,23.4123655 C86.5818882,22.846328 86.9666984,22.4033488 87.4611422,22.0834146 C87.955586,21.7634803 88.4914119,21.6035156 89.0686359,21.6035156 C90.0127774,21.6035156 90.7466016,21.914496 91.2701303,22.536466 C91.793659,23.158436 92.0554195,24.048869 92.0554195,25.2077916 L92.0554195,25.7246058 L87.1356164,25.7246058 C87.1535148,26.4405426 87.3626994,27.0188765 87.7631765,27.4596251 C88.1636536,27.9003736 88.6726322,28.1207446 89.2901277,28.1207446 C89.7286389,28.1207446 90.1000255,28.0312538 90.4042986,27.8522697 C90.7085718,27.6732855 90.9748067,27.436135 91.2030116,27.1408111 L91.9614533,27.7314559 C91.352907,28.6666483 90.4401014,29.1342375 89.2230089,29.1342375 Z M89.0686359,22.6237204 C88.5674801,22.6237204 88.1468736,22.8060578 87.8068037,23.170738 C87.4667337,23.5354183 87.2564305,24.0466342 87.1758876,24.7044011 L90.8137229,24.7044011 L90.8137229,24.6104349 C90.7779261,23.9795156 90.6078937,23.4906724 90.3036205,23.1438905 C89.9993474,22.7971087 89.58769,22.6237204 89.0686359,22.6237204 Z M97.9702405,27.0736924 C97.9702405,26.738097 97.8438349,26.4774552 97.5910197,26.2917591 C97.3382045,26.106063 96.8974626,25.9460983 96.2687807,25.8118602 C95.6400987,25.677622 95.1411878,25.5165387 94.7720329,25.3286053 C94.402878,25.1406719 94.1299313,24.916945 93.9531844,24.657418 C93.7764375,24.3978909 93.6880654,24.0891478 93.6880654,23.7311795 C93.6880654,23.1360571 93.9397581,22.6326716 94.4431511,22.221008 C94.9465441,21.8093443 95.5897589,21.6035156 96.3728147,21.6035156 C97.1961419,21.6035156 97.8639667,21.8160562 98.3763089,22.2411436 C98.8886511,22.666231 99.1448184,23.2098873 99.1448184,23.8721288 L97.8964099,23.8721288 C97.8964099,23.5320589 97.7521061,23.2389766 97.4634941,22.9928734 C97.1748821,22.7467701 96.8113259,22.6237204 96.3728147,22.6237204 C95.9208796,22.6237204 95.5673912,22.7221602 95.3123387,22.9190428 C95.0572863,23.1159254 94.9297619,23.3732113 94.9297619,23.6909082 C94.9297619,23.9907067 95.0483372,24.2166709 95.2854912,24.3688074 C95.5226453,24.520944 95.9510822,24.6663664 96.570815,24.8050792 C97.1905477,24.9437919 97.6928145,25.1093498 98.0776305,25.3017578 C98.4624465,25.4941658 98.7476983,25.7257231 98.9333944,25.9964367 C99.1190905,26.2671503 99.2119371,26.5971474 99.2119371,26.986438 C99.2119371,27.6352557 98.9524139,28.1554207 98.4333598,28.5469486 C97.9143057,28.9384765 97.2408878,29.1342375 96.4130859,29.1342375 C95.8313873,29.1342375 95.3168155,29.0313231 94.8693551,28.8254913 C94.4218946,28.6196595 94.0717621,28.3321705 93.8189469,27.9630156 C93.5661317,27.5938607 93.4397261,27.1945082 93.4397261,26.7649462 L94.6814226,26.7649462 C94.7037956,27.1810844 94.8704722,27.5110816 95.1814572,27.7549475 C95.4924422,27.9988135 95.902981,28.1207446 96.4130859,28.1207446 C96.8829194,28.1207446 97.2598992,28.0256607 97.5440366,27.83549 C97.828174,27.6453193 97.9702405,27.3913893 97.9702405,27.0736924 Z M105.307979,27.0736924 C105.307979,26.738097 105.181573,26.4774552 104.928758,26.2917591 C104.675943,26.106063 104.235201,25.9460983 103.606519,25.8118602 C102.977837,25.677622 102.478926,25.5165387 102.109771,25.3286053 C101.740616,25.1406719 101.467669,24.916945 101.290923,24.657418 C101.114176,24.3978909 101.025804,24.0891478 101.025804,23.7311795 C101.025804,23.1360571 101.277496,22.6326716 101.780889,22.221008 C102.284282,21.8093443 102.927497,21.6035156 103.710553,21.6035156 C104.53388,21.6035156 105.201705,21.8160562 105.714047,22.2411436 C106.226389,22.666231 106.482557,23.2098873 106.482557,23.8721288 L105.234148,23.8721288 C105.234148,23.5320589 105.089844,23.2389766 104.801232,22.9928734 C104.51262,22.7467701 104.149064,22.6237204 103.710553,22.6237204 C103.258618,22.6237204 102.905129,22.7221602 102.650077,22.9190428 C102.395024,23.1159254 102.2675,23.3732113 102.2675,23.6909082 C102.2675,23.9907067 102.386075,24.2166709 102.623229,24.3688074 C102.860383,24.520944 103.28882,24.6663664 103.908553,24.8050792 C104.528286,24.9437919 105.030553,25.1093498 105.415369,25.3017578 C105.800185,25.4941658 106.085436,25.7257231 106.271133,25.9964367 C106.456829,26.2671503 106.549675,26.5971474 106.549675,26.986438 C106.549675,27.6352557 106.290152,28.1554207 105.771098,28.5469486 C105.252044,28.9384765 104.578626,29.1342375 103.750824,29.1342375 C103.169126,29.1342375 102.654554,29.0313231 102.207093,28.8254913 C101.759633,28.6196595 101.4095,28.3321705 101.156685,27.9630156 C100.90387,27.5938607 100.777464,27.1945082 100.777464,26.7649462 L102.019161,26.7649462 C102.041534,27.1810844 102.20821,27.5110816 102.519195,27.7549475 C102.83018,27.9988135 103.240719,28.1207446 103.750824,28.1207446 C104.220658,28.1207446 104.597637,28.0256607 104.881775,27.83549 C105.165912,27.6453193 105.307979,27.3913893 105.307979,27.0736924 Z M112.900768,29 C112.829174,28.8568127 112.771005,28.601764 112.726259,28.2348464 C112.149035,28.8344435 111.459957,29.1342375 110.659002,29.1342375 C109.943066,29.1342375 109.355783,28.9317646 108.897136,28.5268129 C108.438489,28.1218612 108.209169,27.608408 108.209169,26.986438 C108.209169,26.2302298 108.496658,25.6429468 109.071644,25.2245713 C109.646631,24.8061957 110.455404,24.5970111 111.497987,24.5970111 L112.706124,24.5970111 L112.706124,24.0265019 C112.706124,23.5924652 112.576362,23.2468072 112.316835,22.9895175 C112.057308,22.7322277 111.674735,22.6035847 111.169105,22.6035847 C110.726119,22.6035847 110.354732,22.7154482 110.054934,22.9391784 C109.755135,23.1629086 109.605238,23.4336182 109.605238,23.7513151 L108.35683,23.7513151 C108.35683,23.3888721 108.485473,23.0387396 108.742763,22.7009069 C109.000052,22.3630743 109.349066,22.0957207 109.789815,21.8988381 C110.230563,21.7019554 110.714932,21.6035156 111.242935,21.6035156 C112.079686,21.6035156 112.735206,21.8127003 113.209514,22.2310758 C113.683822,22.6494513 113.929922,23.225548 113.94782,23.9593832 L113.94782,27.3018961 C113.94782,27.9686121 114.032837,28.4988448 114.202872,28.89261 L114.202872,29 L112.900768,29 Z M110.840223,28.0536259 C111.229514,28.0536259 111.598663,27.9529488 111.947682,27.7515916 C112.296701,27.5502344 112.549513,27.2884739 112.706124,26.9663024 L112.706124,25.4762665 L111.732902,25.4762665 C110.211537,25.4762665 109.450865,25.921483 109.450865,26.8119293 C109.450865,27.2012199 109.580627,27.5054884 109.840154,27.7247441 C110.099681,27.9439997 110.433034,28.0536259 110.840223,28.0536259 Z M115.848941,25.3084697 C115.848941,24.1763947 116.110702,23.2758941 116.63423,22.6069407 C117.157759,21.9379873 117.851312,21.6035156 118.714911,21.6035156 C119.600883,21.6035156 120.292199,21.9167332 120.78888,22.5431779 L120.849287,21.7377531 L121.983593,21.7377531 L121.983593,28.8254913 C121.983593,29.7651583 121.705053,30.5056942 121.147965,31.0471214 C120.590877,31.5885485 119.842511,31.859258 118.902844,31.859258 C118.379315,31.859258 117.86698,31.7473946 117.365825,31.5236644 C116.864669,31.2999341 116.482096,30.9934283 116.218094,30.6041377 L116.862434,29.8591198 C117.394912,30.5168867 118.045957,30.8457652 118.815589,30.8457652 C119.419661,30.8457652 119.890606,30.6757327 120.228439,30.3356628 C120.566271,29.9955928 120.735185,29.5168173 120.735185,28.8993219 L120.735185,28.2751177 C120.238504,28.8478671 119.560611,29.1342375 118.701487,29.1342375 C117.851312,29.1342375 117.163352,28.7919354 116.637586,28.1073209 C116.11182,27.4227064 115.848941,26.4897653 115.848941,25.3084697 Z M117.09735,25.449419 C117.09735,26.2682717 117.265145,26.9114864 117.60074,27.3790826 C117.936335,27.8466788 118.406162,28.0804734 119.010234,28.0804734 C119.793289,28.0804734 120.368267,27.7247476 120.735185,27.0132855 L120.735185,23.6976201 C120.354844,23.0040564 119.78434,22.6572797 119.023657,22.6572797 C118.419586,22.6572797 117.947522,22.8921929 117.607452,23.3620264 C117.267382,23.8318599 117.09735,24.5276505 117.09735,25.449419 Z M127.119837,29.1342375 C126.135424,29.1342375 125.334482,28.8109521 124.716987,28.1643718 C124.099491,27.5177914 123.790748,26.6530871 123.790748,25.5702327 L123.790748,25.3420291 C123.790748,24.6216177 123.92834,23.978403 124.203528,23.4123655 C124.478716,22.846328 124.863527,22.4033488 125.35797,22.0834146 C125.852414,21.7634803 126.38824,21.6035156 126.965464,21.6035156 C127.909606,21.6035156 128.64343,21.914496 129.166959,22.536466 C129.690487,23.158436 129.952248,24.048869 129.952248,25.2077916 L129.952248,25.7246058 L125.032445,25.7246058 C125.050343,26.4405426 125.259528,27.0188765 125.660005,27.4596251 C126.060482,27.9003736 126.56946,28.1207446 127.186956,28.1207446 C127.625467,28.1207446 127.996854,28.0312538 128.301127,27.8522697 C128.6054,27.6732855 128.871635,27.436135 129.09984,27.1408111 L129.858281,27.7314559 C129.249735,28.6666483 128.33693,29.1342375 127.119837,29.1342375 Z M126.965464,22.6237204 C126.464308,22.6237204 126.043702,22.8060578 125.703632,23.170738 C125.363562,23.5354183 125.153259,24.0466342 125.072716,24.7044011 L128.710551,24.7044011 L128.710551,24.6104349 C128.674754,23.9795156 128.504722,23.4906724 128.200449,23.1438905 C127.896176,22.7971087 127.484518,22.6237204 126.965464,22.6237204 Z M141.721483,27.2884723 L143.117553,21.7377531 L144.359249,21.7377531 L142.245009,29 L141.238228,29 L139.473005,23.4962639 L137.754766,29 L136.747985,29 L134.640457,21.7377531 L135.875441,21.7377531 L137.30507,27.1743705 L138.996462,21.7377531 L139.996532,21.7377531 L141.721483,27.2884723 Z M147.220168,29 L145.978471,29 L145.978471,21.7377531 L147.220168,21.7377531 L147.220168,29 Z M145.877793,19.8114455 C145.877793,19.6100882 145.939318,19.4400558 146.06237,19.3013431 C146.185421,19.1626303 146.367759,19.093275 146.609387,19.093275 C146.851016,19.093275 147.034472,19.1626303 147.159761,19.3013431 C147.28505,19.4400558 147.347693,19.6100882 147.347693,19.8114455 C147.347693,20.0128027 147.28505,20.1805978 147.159761,20.314836 C147.034472,20.4490741 146.851016,20.5161922 146.609387,20.5161922 C146.367759,20.5161922 146.185421,20.4490741 146.06237,20.314836 C145.939318,20.1805978 145.877793,20.0128027 145.877793,19.8114455 Z M151.141563,19.9792423 L151.141563,21.7377531 L152.497361,21.7377531 L152.497361,22.697551 L151.141563,22.697551 L151.141563,27.201218 C151.141563,27.4920673 151.201969,27.710201 151.322783,27.8556256 C151.443597,28.0010503 151.649426,28.0737615 151.940275,28.0737615 C152.083463,28.0737615 152.280342,28.0469143 152.53092,27.993219 L152.53092,29 C152.204274,29.0894921 151.886582,29.1342375 151.577834,29.1342375 C151.022983,29.1342375 150.604614,28.9664423 150.322714,28.630847 C150.040814,28.2952516 149.899866,27.8187134 149.899866,27.201218 L149.899866,22.697551 L148.577627,22.697551 L148.577627,21.7377531 L149.899866,21.7377531 L149.899866,19.9792423 L151.141563,19.9792423 Z M155.438822,22.6170085 C155.989199,21.9413432 156.705125,21.6035156 157.586622,21.6035156 C159.121411,21.6035156 159.895506,22.4693386 159.90893,24.2010106 L159.90893,29 L158.667233,29 L158.667233,24.1942987 C158.662759,23.67077 158.543065,23.2837225 158.308148,23.0331446 C158.073231,22.7825668 157.707438,22.6572797 157.210757,22.6572797 C156.808042,22.6572797 156.454554,22.7646686 156.150281,22.9794497 C155.846008,23.1942307 155.608857,23.4761265 155.438822,23.8251457 L155.438822,29 L154.197126,29 L154.197126,18.6905626 L155.438822,18.6905626 L155.438822,22.6170085 Z M170.15457,29 C170.082976,28.8568127 170.024807,28.601764 169.980061,28.2348464 C169.402837,28.8344435 168.713758,29.1342375 167.912804,29.1342375 C167.196867,29.1342375 166.609584,28.9317646 166.150937,28.5268129 C165.69229,28.1218612 165.46297,27.608408 165.46297,26.986438 C165.46297,26.2302298 165.750459,25.6429468 166.325446,25.2245713 C166.900433,24.8061957 167.709205,24.5970111 168.751788,24.5970111 L169.959925,24.5970111 L169.959925,24.0265019 C169.959925,23.5924652 169.830164,23.2468072 169.570637,22.9895175 C169.31111,22.7322277 168.928537,22.6035847 168.422907,22.6035847 C167.979921,22.6035847 167.608534,22.7154482 167.308736,22.9391784 C167.008937,23.1629086 166.85904,23.4336182 166.85904,23.7513151 L165.610632,23.7513151 C165.610632,23.3888721 165.739275,23.0387396 165.996564,22.7009069 C166.253854,22.3630743 166.602868,22.0957207 167.043617,21.8988381 C167.484365,21.7019554 167.968734,21.6035156 168.496737,21.6035156 C169.333488,21.6035156 169.989008,21.8127003 170.463316,22.2310758 C170.937624,22.6494513 171.183724,23.225548 171.201622,23.9593832 L171.201622,27.3018961 C171.201622,27.9686121 171.286638,28.4988448 171.456673,28.89261 L171.456673,29 L170.15457,29 Z M168.094025,28.0536259 C168.483315,28.0536259 168.852465,27.9529488 169.201484,27.7515916 C169.550503,27.5502344 169.803314,27.2884739 169.959925,26.9663024 L169.959925,25.4762665 L168.986704,25.4762665 C167.465338,25.4762665 166.704667,25.921483 166.704667,26.8119293 C166.704667,27.2012199 166.834429,27.5054884 167.093956,27.7247441 C167.353483,27.9439997 167.686836,28.0536259 168.094025,28.0536259 Z M181.279465,27.0736924 C181.279465,26.738097 181.15306,26.4774552 180.900244,26.2917591 C180.647429,26.106063 180.206687,25.9460983 179.578005,25.8118602 C178.949323,25.677622 178.450412,25.5165387 178.081258,25.3286053 C177.712103,25.1406719 177.439156,24.916945 177.262409,24.657418 C177.085662,24.3978909 176.99729,24.0891478 176.99729,23.7311795 C176.99729,23.1360571 177.248983,22.6326716 177.752376,22.221008 C178.255769,21.8093443 178.898984,21.6035156 179.682039,21.6035156 C180.505367,21.6035156 181.173191,21.8160562 181.685534,22.2411436 C182.197876,22.666231 182.454043,23.2098873 182.454043,23.8721288 L181.205635,23.8721288 C181.205635,23.5320589 181.061331,23.2389766 180.772719,22.9928734 C180.484107,22.7467701 180.120551,22.6237204 179.682039,22.6237204 C179.230104,22.6237204 178.876616,22.7221602 178.621563,22.9190428 C178.366511,23.1159254 178.238987,23.3732113 178.238987,23.6909082 C178.238987,23.9907067 178.357562,24.2166709 178.594716,24.3688074 C178.83187,24.520944 179.260307,24.6663664 179.88004,24.8050792 C180.499772,24.9437919 181.002039,25.1093498 181.386855,25.3017578 C181.771671,25.4941658 182.056923,25.7257231 182.242619,25.9964367 C182.428315,26.2671503 182.521162,26.5971474 182.521162,26.986438 C182.521162,27.6352557 182.261639,28.1554207 181.742585,28.5469486 C181.22353,28.9384765 180.550112,29.1342375 179.722311,29.1342375 C179.140612,29.1342375 178.62604,29.0313231 178.17858,28.8254913 C177.731119,28.6196595 177.380987,28.3321705 177.128172,27.9630156 C176.875356,27.5938607 176.748951,27.1945082 176.748951,26.7649462 L177.990647,26.7649462 C178.01302,27.1810844 178.179697,27.5110816 178.490682,27.7549475 C178.801667,27.9988135 179.212206,28.1207446 179.722311,28.1207446 C180.192144,28.1207446 180.569124,28.0256607 180.853261,27.83549 C181.137399,27.6453193 181.279465,27.3913893 181.279465,27.0736924 Z M185.63042,22.6170085 C186.180796,21.9413432 186.896722,21.6035156 187.778219,21.6035156 C189.313009,21.6035156 190.087104,22.4693386 190.100527,24.2010106 L190.100527,29 L188.858831,29 L188.858831,24.1942987 C188.854356,23.67077 188.734662,23.2837225 188.499746,23.0331446 C188.264829,22.7825668 187.899035,22.6572797 187.402354,22.6572797 C186.99964,22.6572797 186.646152,22.7646686 186.341878,22.9794497 C186.037605,23.1942307 185.800455,23.4761265 185.63042,23.8251457 L185.63042,29 L184.388723,29 L184.388723,18.6905626 L185.63042,18.6905626 L185.63042,22.6170085 Z M191.880835,25.3017578 C191.880835,24.5902957 192.020664,23.9504368 192.300327,23.382162 C192.579989,22.8138873 192.969274,22.3753826 193.468193,22.0666349 C193.967111,21.7578872 194.536496,21.6035156 195.176364,21.6035156 C196.165252,21.6035156 196.965076,21.9458177 197.575859,22.6304322 C198.186643,23.3150467 198.49203,24.2256151 198.49203,25.3621647 L198.49203,25.449419 C198.49203,26.1564065 198.356675,26.7906722 198.085961,27.3522351 C197.815248,27.913798 197.4282,28.351184 196.924807,28.6644063 C196.421414,28.9776287 195.84308,29.1342375 195.189788,29.1342375 C194.205375,29.1342375 193.407789,28.7919354 192.797005,28.1073209 C192.186222,27.4227064 191.880835,26.5166125 191.880835,25.3890122 L191.880835,25.3017578 Z M193.129243,25.449419 C193.129243,26.2548478 193.316055,26.9014185 193.689684,27.3891504 C194.063314,27.8768823 194.563343,28.1207446 195.189788,28.1207446 C195.820707,28.1207446 196.321856,27.8735264 196.693248,27.3790826 C197.06464,26.8846388 197.250333,26.1922041 197.250333,25.3017578 C197.250333,24.5052782 197.061284,23.8598262 196.68318,23.3653824 C196.305076,22.8709386 195.802809,22.6237204 195.176364,22.6237204 C194.563344,22.6237204 194.068907,22.8675827 193.69304,23.3553146 C193.317174,23.8430465 193.129243,24.5410743 193.129243,25.449419 Z M203.809494,22.8519241 C203.621561,22.8206018 203.417969,22.8049409 203.198714,22.8049409 C202.384336,22.8049409 201.83173,23.1517176 201.540881,23.8452813 L201.540881,29 L200.299184,29 L200.299184,21.7377531 L201.507322,21.7377531 L201.527457,22.5767373 C201.934646,21.9279196 202.511862,21.6035156 203.25912,21.6035156 C203.500749,21.6035156 203.684205,21.6348374 203.809494,21.6974819 L203.809494,22.8519241 Z M207.220786,19.9792423 L207.220786,21.7377531 L208.576585,21.7377531 L208.576585,22.697551 L207.220786,22.697551 L207.220786,27.201218 C207.220786,27.4920673 207.281193,27.710201 207.402007,27.8556256 C207.522821,28.0010503 207.72865,28.0737615 208.019499,28.0737615 C208.162687,28.0737615 208.359566,28.0469143 208.610144,27.993219 L208.610144,29 C208.283498,29.0894921 207.965806,29.1342375 207.657058,29.1342375 C207.102207,29.1342375 206.683838,28.9664423 206.401938,28.630847 C206.120038,28.2952516 205.97909,27.8187134 205.97909,27.201218 L205.97909,22.697551 L204.656851,22.697551 L204.656851,21.7377531 L205.97909,21.7377531 L205.97909,19.9792423 L207.220786,19.9792423 Z M21.4231936,49 C21.3516,48.8568127 21.293431,48.601764 21.2486849,48.2348464 C20.6714609,48.8344435 19.9823822,49.1342375 19.1814279,49.1342375 C18.4654912,49.1342375 17.8782082,48.9317646 17.4195612,48.5268129 C16.9609142,48.1218612 16.7315942,47.608408 16.7315942,46.986438 C16.7315942,46.2302298 17.0190832,45.6429468 17.5940699,45.2245713 C18.1690566,44.8061957 18.9778292,44.5970111 20.0204121,44.5970111 L21.2285493,44.5970111 L21.2285493,44.0265019 C21.2285493,43.5924652 21.0987877,43.2468072 20.8392606,42.9895175 C20.5797336,42.7322277 20.1971606,42.6035847 19.6915303,42.6035847 C19.2485445,42.6035847 18.8771579,42.7154482 18.5773593,42.9391784 C18.2775608,43.1629086 18.1276638,43.4336182 18.1276638,43.7513151 L16.8792554,43.7513151 C16.8792554,43.3888721 17.0078984,43.0387396 17.2651881,42.7009069 C17.5224779,42.3630743 17.8714918,42.0957207 18.3122404,41.8988381 C18.7529889,41.7019554 19.2373576,41.6035156 19.7653609,41.6035156 C20.602112,41.6035156 21.2576317,41.8127003 21.7319398,42.2310758 C22.2062479,42.6494513 22.4523474,43.225548 22.4702459,43.9593832 L22.4702459,47.3018961 C22.4702459,47.9686121 22.5552621,48.4988448 22.725297,48.89261 L22.725297,49 L21.4231936,49 Z M19.3626485,48.0536259 C19.7519391,48.0536259 20.1210885,47.9529488 20.4701076,47.7515916 C20.8191268,47.5502344 21.0719381,47.2884739 21.2285493,46.9663024 L21.2285493,45.4762665 L20.2553277,45.4762665 C18.7339621,45.4762665 17.9732907,45.921483 17.9732907,46.8119293 C17.9732907,47.2012199 18.1030523,47.5054884 18.3625794,47.7247441 C18.6221065,47.9439997 18.9554595,48.0536259 19.3626485,48.0536259 Z M27.5796421,48.1207446 C28.022628,48.1207446 28.4096755,47.9865085 28.7407962,47.7180322 C29.0719169,47.4495559 29.255373,47.1139656 29.2911698,46.7112512 L30.4657476,46.7112512 C30.4433746,47.1273894 30.3001894,47.523386 30.0361878,47.8992528 C29.7721861,48.2751196 29.4198163,48.5749136 28.9790677,48.7986438 C28.5383192,49.022374 28.0718486,49.1342375 27.5796421,49.1342375 C26.5907545,49.1342375 25.8043546,48.8042403 25.2204187,48.1442362 C24.6364828,47.484232 24.3445192,46.581494 24.3445192,45.4359953 L24.3445192,45.2279272 C24.3445192,44.5209397 24.4742808,43.8922672 24.7338078,43.3418908 C24.9933349,42.7915144 25.3658402,42.3641961 25.8513348,42.059923 C26.3368293,41.7556499 26.9106888,41.6035156 27.5729303,41.6035156 C28.3873083,41.6035156 29.0640821,41.8473779 29.6032719,42.3351098 C30.1424618,42.8228417 30.4299508,43.4559888 30.4657476,44.23457 L29.2911698,44.23457 C29.255373,43.7647365 29.0775101,43.3788076 28.7575759,43.0767718 C28.4376417,42.774736 28.0427637,42.6237204 27.5729303,42.6237204 C26.942011,42.6237204 26.4531678,42.8508031 26.1063859,43.3049755 C25.7596041,43.7591479 25.5862158,44.4157862 25.5862158,45.2749103 L25.5862158,45.5098259 C25.5862158,46.3465769 25.7584855,46.9909103 26.10303,47.4428454 C26.4475746,47.8947805 26.9397737,48.1207446 27.5796421,48.1207446 Z M33.7964975,39.9792423 L33.7964975,41.7377531 L35.1522959,41.7377531 L35.1522959,42.697551 L33.7964975,42.697551 L33.7964975,47.201218 C33.7964975,47.4920673 33.8569037,47.710201 33.9777181,47.8556256 C34.0985324,48.0010503 34.3043611,48.0737615 34.5952104,48.0737615 C34.7383978,48.0737615 34.9352774,48.0469143 35.1858553,47.993219 L35.1858553,49 C34.8592091,49.0894921 34.541517,49.1342375 34.2327693,49.1342375 C33.6779183,49.1342375 33.259549,48.9664423 32.9776489,48.630847 C32.6957489,48.2952516 32.5548009,47.8187134 32.5548009,47.201218 L32.5548009,42.697551 L31.2325619,42.697551 L31.2325619,41.7377531 L32.5548009,41.7377531 L32.5548009,39.9792423 L33.7964975,39.9792423 Z M38.2011471,49 L36.9594505,49 L36.9594505,41.7377531 L38.2011471,41.7377531 L38.2011471,49 Z M36.8587724,39.8114455 C36.8587724,39.6100882 36.9202973,39.4400558 37.0433489,39.3013431 C37.1664005,39.1626303 37.3487379,39.093275 37.5903666,39.093275 C37.8319952,39.093275 38.0154513,39.1626303 38.1407402,39.3013431 C38.2660291,39.4400558 38.3286727,39.6100882 38.3286727,39.8114455 C38.3286727,40.0128027 38.2660291,40.1805978 38.1407402,40.314836 C38.0154513,40.4490741 37.8319952,40.5161922 37.5903666,40.5161922 C37.3487379,40.5161922 37.1664005,40.4490741 37.0433489,40.314836 C36.9202973,40.1805978 36.8587724,40.0128027 36.8587724,39.8114455 Z M40.1089798,45.3017578 C40.1089798,44.5902957 40.2488091,43.9504368 40.5284718,43.382162 C40.8081346,42.8138873 41.1974194,42.3753826 41.6963378,42.0666349 C42.1952562,41.7578872 42.7646411,41.6035156 43.4045096,41.6035156 C44.3933972,41.6035156 45.1932207,41.9458177 45.8040043,42.6304322 C46.4147878,43.3150467 46.720175,44.2256151 46.720175,45.3621647 L46.720175,45.449419 C46.720175,46.1564065 46.5848202,46.7906722 46.3141066,47.3522351 C46.0433931,47.913798 45.6563456,48.351184 45.1529526,48.6644063 C44.6495595,48.9776287 44.0712256,49.1342375 43.4179333,49.1342375 C42.4335203,49.1342375 41.635934,48.7919354 41.0251505,48.1073209 C40.4143669,47.4227064 40.1089798,46.5166125 40.1089798,45.3890122 L40.1089798,45.3017578 Z M41.3573882,45.449419 C41.3573882,46.2548478 41.5442001,46.9014185 41.9178296,47.3891504 C42.2914591,47.8768823 42.7914887,48.1207446 43.4179333,48.1207446 C44.0488525,48.1207446 44.5500007,47.8735264 44.9213929,47.3790826 C45.2927851,46.8846388 45.4784784,46.1922041 45.4784784,45.3017578 C45.4784784,44.5052782 45.2894292,43.8598262 44.9113251,43.3653824 C44.533221,42.8709386 44.0309542,42.6237204 43.4045096,42.6237204 C42.7914887,42.6237204 42.2970523,42.8675827 41.9211856,43.3553146 C41.5453188,43.8430465 41.3573882,44.5410743 41.3573882,45.449419 Z M49.7019074,41.7377531 L49.7421786,42.6505679 C50.2970296,41.9525295 51.0219047,41.6035156 51.9168256,41.6035156 C53.451615,41.6035156 54.2257099,42.4693386 54.2391337,44.2010106 L54.2391337,49 L52.9974372,49 L52.9974372,44.1942987 C52.9929626,43.67077 52.8732687,43.2837225 52.638352,43.0331446 C52.4034352,42.7825668 52.0376418,42.6572797 51.5409607,42.6572797 C51.1382463,42.6572797 50.7847578,42.7646686 50.4804847,42.9794497 C50.1762116,43.1942307 49.9390611,43.4761265 49.7690261,43.8251457 L49.7690261,49 L48.5273296,49 L48.5273296,41.7377531 L49.7019074,41.7377531 Z M56.3885939,48.3489483 C56.3885939,48.1341673 56.4523561,47.9551858 56.5798823,47.8119984 C56.7074085,47.6688111 56.898695,47.5972185 57.1537474,47.5972185 C57.4087999,47.5972185 57.6023237,47.6688111 57.7343245,47.8119984 C57.8663253,47.9551858 57.9323248,48.1341673 57.9323248,48.3489483 C57.9323248,48.5547801 57.8663253,48.7270498 57.7343245,48.8657625 C57.6023237,49.0044753 57.4087999,49.0738306 57.1537474,49.0738306 C56.898695,49.0738306 56.7074085,49.0044753 56.5798823,48.8657625 C56.4523561,48.7270498 56.3885939,48.5547801 56.3885939,48.3489483 Z"/>
    </g>
    <g fill="#C41261" transform="translate(81 38)">
      <g transform="translate(29 18)">
        <rect width="1" height="66" x="4" y="1"/>
        <rect width="9" height="1"/>
        <rect width="9" height="1" y="67"/>
      </g>
      <path d="M2.282,7.755 L2.282,11 L1.358,11 L1.358,3.663 L2.282,3.663 L2.282,6.963 L5.857,6.963 L5.857,3.663 L6.781,3.663 L6.781,11 L5.857,11 L5.857,7.755 L2.282,7.755 Z M8.959,9.944 C9.289,9.944 9.531,10.186 9.531,10.527 C9.531,10.846 9.278,11.088 8.959,11.088 C8.629,11.088 8.387,10.846 8.387,10.516 C8.387,10.186 8.629,9.944 8.959,9.944 Z M8.959,6.776 C9.289,6.776 9.531,7.018 9.531,7.359 C9.531,7.678 9.278,7.92 8.959,7.92 C8.629,7.92 8.387,7.678 8.387,7.348 C8.387,7.018 8.629,6.776 8.959,6.776 Z M14.327,3.773 L12.446,6.71 C12.754,6.6 12.897,6.567 13.161,6.567 C14.382,6.567 15.328,7.524 15.328,8.767 C15.328,10.065 14.261,11.132 12.963,11.132 C11.654,11.132 10.642,10.098 10.642,8.767 C10.642,8.228 10.785,7.821 11.203,7.15 L13.304,3.773 L14.327,3.773 Z M13.007,7.315 C12.171,7.315 11.511,7.953 11.511,8.767 C11.511,9.625 12.16,10.307 12.985,10.307 C13.81,10.307 14.47,9.636 14.47,8.8 C14.47,7.975 13.821,7.315 13.007,7.315 Z M19.365,7.018 C19.783,7.15 19.981,7.249 20.212,7.491 C20.575,7.854 20.762,8.338 20.762,8.91 C20.762,10.208 19.805,11.132 18.463,11.132 C17.132,11.132 16.197,10.241 16.197,8.987 C16.197,8.404 16.395,7.876 16.747,7.513 C16.978,7.271 17.165,7.161 17.605,7.018 C17.22,6.886 17.055,6.776 16.857,6.534 C16.615,6.237 16.483,5.863 16.483,5.456 C16.483,4.411 17.341,3.641 18.507,3.641 C19.662,3.641 20.498,4.4 20.498,5.445 C20.498,5.863 20.355,6.259 20.091,6.567 C19.893,6.787 19.739,6.886 19.365,7.018 Z M18.507,4.411 C17.803,4.411 17.319,4.851 17.319,5.467 C17.319,6.094 17.836,6.589 18.485,6.589 C19.112,6.589 19.673,6.072 19.673,5.478 C19.673,4.906 19.134,4.411 18.507,4.411 Z M18.496,7.48 C17.704,7.48 17.066,8.107 17.066,8.899 C17.066,9.68 17.693,10.318 18.474,10.318 C19.255,10.318 19.882,9.68 19.882,8.899 C19.882,8.129 19.255,7.48 18.496,7.48 Z M25.866,6.699 L25.866,3.663 L26.702,3.663 L26.702,11 L25.866,11 L25.866,10.131 C25.36,10.824 24.821,11.121 24.051,11.121 C22.654,11.121 21.664,10.032 21.664,8.492 C21.664,6.952 22.676,5.808 24.051,5.808 C24.799,5.808 25.371,6.083 25.866,6.699 Z M24.227,6.556 C23.226,6.556 22.544,7.348 22.544,8.503 C22.544,9.614 23.215,10.395 24.172,10.395 C25.151,10.395 25.866,9.581 25.866,8.481 C25.866,7.337 25.195,6.556 24.227,6.556 Z M28.385,5.929 L29.221,5.929 L29.221,6.853 C29.705,6.105 30.222,5.808 31.069,5.808 C32.477,5.808 33.456,6.886 33.456,8.426 C33.456,10.021 32.477,11.121 31.069,11.121 C30.673,11.121 30.31,11.033 29.958,10.857 C29.65,10.703 29.496,10.571 29.221,10.208 L29.221,13.376 L28.385,13.376 L28.385,5.929 Z M30.926,6.556 C29.914,6.556 29.221,7.359 29.221,8.547 C29.221,9.658 29.892,10.395 30.893,10.395 C31.894,10.395 32.565,9.614 32.565,8.459 C32.565,7.865 32.422,7.414 32.125,7.084 C31.828,6.754 31.377,6.556 30.926,6.556 Z M40.1,13.046 L39.55,13.574 C38.252,11.979 37.658,10.428 37.658,8.58 C37.658,6.688 38.351,4.818 39.572,3.443 L40.1,3.993 C38.989,5.368 38.439,6.897 38.439,8.547 C38.439,10.153 39.033,11.759 40.1,13.046 Z M42.256,6.666 L42.256,11 L41.42,11 L41.42,6.666 L40.727,6.666 L40.727,5.929 L41.42,5.929 L41.42,5.247 C41.42,4.246 41.937,3.652 42.817,3.652 C42.861,3.652 42.96,3.652 43.048,3.663 L43.048,4.411 C42.443,4.477 42.278,4.653 42.256,5.247 L42.256,5.929 L43.048,5.929 L43.048,6.666 L42.256,6.666 Z M45.248,5.929 L45.248,11 L44.412,11 L44.412,5.929 L45.248,5.929 Z M44.83,3.96 C45.127,3.96 45.358,4.202 45.358,4.51 C45.358,4.807 45.127,5.038 44.83,5.038 C44.522,5.038 44.291,4.807 44.291,4.499 C44.291,4.191 44.522,3.96 44.83,3.96 Z M48.548,9.163 L47.195,11 L46.172,11 L48.042,8.481 L46.139,5.929 L47.195,5.929 L48.548,7.788 L49.934,5.929 L50.957,5.929 L49.043,8.481 L50.869,11 L49.846,11 L48.548,9.163 Z M56.545,8.734 L52.321,8.734 C52.365,9.163 52.442,9.383 52.651,9.658 C52.981,10.109 53.465,10.351 54.015,10.351 C54.642,10.351 55.236,10.01 55.533,9.482 L56.27,9.757 C55.852,10.604 54.983,11.121 54.015,11.121 C52.508,11.121 51.43,10.021 51.43,8.481 C51.43,6.919 52.497,5.808 53.982,5.808 C55.456,5.808 56.556,6.919 56.556,8.404 C56.556,8.47 56.556,8.613 56.545,8.734 Z M52.332,8.118 L55.665,8.118 C55.632,7.722 55.555,7.502 55.379,7.249 C55.06,6.82 54.543,6.556 53.982,6.556 C53.421,6.556 52.915,6.82 52.618,7.26 C52.464,7.502 52.398,7.711 52.332,8.118 Z M61.561,6.699 L61.561,3.663 L62.397,3.663 L62.397,11 L61.561,11 L61.561,10.131 C61.055,10.824 60.516,11.121 59.746,11.121 C58.349,11.121 57.359,10.032 57.359,8.492 C57.359,6.952 58.371,5.808 59.746,5.808 C60.494,5.808 61.066,6.083 61.561,6.699 Z M59.922,6.556 C58.921,6.556 58.239,7.348 58.239,8.503 C58.239,9.614 58.91,10.395 59.867,10.395 C60.846,10.395 61.561,9.581 61.561,8.481 C61.561,7.337 60.89,6.556 59.922,6.556 Z M63.629,3.971 L64.179,3.443 C65.488,5.049 66.071,6.589 66.071,8.437 C66.071,10.34 65.378,12.188 64.157,13.574 L63.629,13.024 C64.74,11.649 65.29,10.12 65.29,8.47 C65.29,6.853 64.707,5.269 63.629,3.971 Z"/>
    </g>
    <use fill-rule="nonzero" stroke="#6FEAD9" stroke-dasharray="1" stroke-width="2" mask="url(#3.-line-message-with-action-c)" transform="translate(133 74)" xlink:href="#3.-line-message-with-action-a"/>
    <use fill-rule="nonzero" stroke="#F897BF" stroke-dasharray="1" stroke-width="2" mask="url(#3.-line-message-with-action-d)" transform="translate(381 66)" xlink:href="#3.-line-message-with-action-b"/>
    <path fill="#C41261" d="M206.48,43.808 L205.71,44.853 L205.27,44.523 L206.051,43.489 L204.819,43.093 L204.984,42.587 L206.216,42.95 L206.216,41.685 L206.744,41.685 L206.744,42.95 L207.998,42.554 L208.174,43.071 L206.887,43.489 L207.679,44.523 L207.272,44.853 L206.48,43.808 Z M217.106,47.306 L213.817,47.306 L213.146,49 L212.189,49 L214.95,41.663 L216.05,41.663 L218.745,49 L217.711,49 L217.106,47.306 Z M216.82,46.514 L215.478,42.829 L214.092,46.514 L216.82,46.514 Z M220.472,49 L219.636,49 L219.636,41.663 L220.472,41.663 L220.472,49 Z M222.991,49 L222.155,49 L222.155,41.663 L222.991,41.663 L222.991,49 Z M230.163,43.808 C231.659,43.808 232.726,44.919 232.726,46.481 C232.726,47.966 231.582,49.121 230.13,49.121 C228.623,49.121 227.567,48.021 227.567,46.459 C227.567,44.886 228.623,43.808 230.163,43.808 Z M230.163,44.578 C229.118,44.578 228.425,45.337 228.425,46.47 C228.425,47.592 229.118,48.351 230.152,48.351 C231.153,48.351 231.868,47.57 231.868,46.47 C231.868,45.337 231.186,44.578 230.163,44.578 Z M234.893,44.666 L234.893,47.966 C234.904,48.219 234.97,48.274 235.278,48.274 L235.663,48.274 L235.663,49 L234.882,49 C234.288,48.989 234.057,48.769 234.057,48.208 L234.057,44.666 L233.353,44.666 L233.353,43.929 L234.057,43.929 L234.057,42.334 L234.893,42.334 L234.893,43.929 L235.663,43.929 L235.663,44.666 L234.893,44.666 Z M237.687,41.663 L237.687,44.633 C238.149,44.061 238.611,43.808 239.216,43.808 C239.656,43.808 240.118,43.984 240.393,44.27 C240.668,44.545 240.789,44.941 240.789,45.59 L240.789,49 L239.953,49 L239.953,45.634 C239.953,44.941 239.612,44.556 239.007,44.556 C238.622,44.556 238.281,44.71 238.017,45.007 C237.764,45.293 237.687,45.546 237.687,46.03 L237.687,49 L236.851,49 L236.851,41.663 L237.687,41.663 Z M247.147,46.734 L242.923,46.734 C242.967,47.163 243.044,47.383 243.253,47.658 C243.583,48.109 244.067,48.351 244.617,48.351 C245.244,48.351 245.838,48.01 246.135,47.482 L246.872,47.757 C246.454,48.604 245.585,49.121 244.617,49.121 C243.11,49.121 242.032,48.021 242.032,46.481 C242.032,44.919 243.099,43.808 244.584,43.808 C246.058,43.808 247.158,44.919 247.158,46.404 C247.158,46.47 247.158,46.613 247.147,46.734 Z M242.934,46.118 L246.267,46.118 C246.234,45.722 246.157,45.502 245.981,45.249 C245.662,44.82 245.145,44.556 244.584,44.556 C244.023,44.556 243.517,44.82 243.22,45.26 C243.066,45.502 243,45.711 242.934,46.118 Z M248.368,43.929 L249.204,43.929 L249.204,44.787 C249.358,44.424 249.468,44.27 249.666,44.116 C249.919,43.918 250.271,43.808 250.634,43.808 L250.832,43.808 L250.832,44.655 C250.744,44.644 250.656,44.644 250.601,44.644 C250.15,44.644 249.754,44.853 249.501,45.227 C249.281,45.546 249.204,45.843 249.204,46.426 L249.204,49 L248.368,49 L248.368,43.929 Z M258.961,44.699 L258.961,41.663 L259.797,41.663 L259.797,49 L258.961,49 L258.961,48.131 C258.455,48.824 257.916,49.121 257.146,49.121 C255.749,49.121 254.759,48.032 254.759,46.492 C254.759,44.952 255.771,43.808 257.146,43.808 C257.894,43.808 258.466,44.083 258.961,44.699 Z M257.322,44.556 C256.321,44.556 255.639,45.348 255.639,46.503 C255.639,47.614 256.31,48.395 257.267,48.395 C258.246,48.395 258.961,47.581 258.961,46.481 C258.961,45.337 258.29,44.556 257.322,44.556 Z M262.316,43.929 L262.316,49 L261.48,49 L261.48,43.929 L262.316,43.929 Z M261.909,41.96 C262.206,41.96 262.437,42.202 262.437,42.51 C262.437,42.807 262.195,43.038 261.898,43.038 C261.601,43.038 261.37,42.807 261.37,42.499 C261.37,42.191 261.601,41.96 261.909,41.96 Z M263.999,43.929 L264.835,43.929 L264.835,44.633 C265.22,44.05 265.649,43.808 266.276,43.808 C266.969,43.808 267.409,44.105 267.64,44.732 C268.014,44.083 268.487,43.808 269.246,43.808 C269.829,43.808 270.269,43.995 270.533,44.347 C270.775,44.666 270.841,44.952 270.841,45.755 L270.841,49 L270.005,49 L270.005,45.953 C270.005,45.337 269.983,45.194 269.862,44.985 C269.708,44.721 269.378,44.556 268.982,44.556 C268.245,44.556 267.838,45.051 267.838,45.953 L267.838,49 L267.002,49 L267.002,45.964 C267.002,45.469 266.958,45.216 266.837,44.996 C266.694,44.71 266.386,44.556 266.012,44.556 C265.275,44.556 264.835,45.084 264.835,45.964 L264.835,49 L263.999,49 L263.999,43.929 Z M277.199,46.734 L272.975,46.734 C273.019,47.163 273.096,47.383 273.305,47.658 C273.635,48.109 274.119,48.351 274.669,48.351 C275.296,48.351 275.89,48.01 276.187,47.482 L276.924,47.757 C276.506,48.604 275.637,49.121 274.669,49.121 C273.162,49.121 272.084,48.021 272.084,46.481 C272.084,44.919 273.151,43.808 274.636,43.808 C276.11,43.808 277.21,44.919 277.21,46.404 C277.21,46.47 277.21,46.613 277.199,46.734 Z M272.986,46.118 L276.319,46.118 C276.286,45.722 276.209,45.502 276.033,45.249 C275.714,44.82 275.197,44.556 274.636,44.556 C274.075,44.556 273.569,44.82 273.272,45.26 C273.118,45.502 273.052,45.711 272.986,46.118 Z M278.42,43.929 L279.256,43.929 L279.256,44.644 C279.696,44.05 280.136,43.808 280.763,43.808 C281.225,43.808 281.643,43.962 281.94,44.226 C282.259,44.534 282.369,44.886 282.369,45.579 L282.369,49 L281.533,49 L281.533,45.766 C281.533,45.315 281.478,45.073 281.346,44.897 C281.192,44.688 280.895,44.556 280.554,44.556 C280.18,44.556 279.839,44.699 279.586,44.985 C279.344,45.249 279.256,45.491 279.256,45.909 L279.256,49 L278.42,49 L278.42,43.929 Z M287.198,45.315 L286.362,45.315 L286.362,45.26 C286.362,44.787 285.977,44.49 285.394,44.49 C284.833,44.49 284.481,44.776 284.481,45.216 C284.481,45.656 284.701,45.821 285.614,46.074 C286.263,46.25 286.604,46.415 286.846,46.657 C287.099,46.91 287.253,47.273 287.253,47.647 C287.253,48.527 286.527,49.121 285.449,49.121 C284.294,49.121 283.645,48.582 283.557,47.559 L284.382,47.559 C284.437,48.131 284.811,48.439 285.449,48.439 C286.021,48.439 286.395,48.142 286.395,47.691 C286.395,47.251 286.109,47.031 285.24,46.811 C284.14,46.514 283.645,46.052 283.645,45.282 C283.645,44.402 284.36,43.808 285.427,43.808 C286.505,43.808 287.154,44.358 287.198,45.315 Z M289.376,43.929 L289.376,49 L288.54,49 L288.54,43.929 L289.376,43.929 Z M288.969,41.96 C289.266,41.96 289.497,42.202 289.497,42.51 C289.497,42.807 289.255,43.038 288.958,43.038 C288.661,43.038 288.43,42.807 288.43,42.499 C288.43,42.191 288.661,41.96 288.969,41.96 Z M293.248,43.808 C294.744,43.808 295.811,44.919 295.811,46.481 C295.811,47.966 294.667,49.121 293.215,49.121 C291.708,49.121 290.652,48.021 290.652,46.459 C290.652,44.886 291.708,43.808 293.248,43.808 Z M293.248,44.578 C292.203,44.578 291.51,45.337 291.51,46.47 C291.51,47.592 292.203,48.351 293.237,48.351 C294.238,48.351 294.953,47.57 294.953,46.47 C294.953,45.337 294.271,44.578 293.248,44.578 Z M297.087,43.929 L297.923,43.929 L297.923,44.644 C298.363,44.05 298.803,43.808 299.43,43.808 C299.892,43.808 300.31,43.962 300.607,44.226 C300.926,44.534 301.036,44.886 301.036,45.579 L301.036,49 L300.2,49 L300.2,45.766 C300.2,45.315 300.145,45.073 300.013,44.897 C299.859,44.688 299.562,44.556 299.221,44.556 C298.847,44.556 298.506,44.699 298.253,44.985 C298.011,45.249 297.923,45.491 297.923,45.909 L297.923,49 L297.087,49 L297.087,43.929 Z M305.865,45.315 L305.029,45.315 L305.029,45.26 C305.029,44.787 304.644,44.49 304.061,44.49 C303.5,44.49 303.148,44.776 303.148,45.216 C303.148,45.656 303.368,45.821 304.281,46.074 C304.93,46.25 305.271,46.415 305.513,46.657 C305.766,46.91 305.92,47.273 305.92,47.647 C305.92,48.527 305.194,49.121 304.116,49.121 C302.961,49.121 302.312,48.582 302.224,47.559 L303.049,47.559 C303.104,48.131 303.478,48.439 304.116,48.439 C304.688,48.439 305.062,48.142 305.062,47.691 C305.062,47.251 304.776,47.031 303.907,46.811 C302.807,46.514 302.312,46.052 302.312,45.282 C302.312,44.402 303.027,43.808 304.094,43.808 C305.172,43.808 305.821,44.358 305.865,45.315 Z M314.335,44.765 L314.335,43.929 L315.171,43.929 L315.171,49 L314.335,49 L314.335,48.021 C313.829,48.78 313.257,49.121 312.487,49.121 C311.09,49.121 310.1,48.021 310.1,46.481 C310.1,44.93 311.112,43.808 312.509,43.808 C313.279,43.808 313.84,44.105 314.335,44.765 Z M312.63,44.556 C312.08,44.556 311.695,44.743 311.398,45.161 C311.134,45.524 310.98,46.008 310.98,46.503 C310.98,47.581 311.684,48.395 312.608,48.395 C313.565,48.395 314.346,47.504 314.346,46.415 C314.346,45.315 313.642,44.556 312.63,44.556 Z M316.854,43.929 L317.69,43.929 L317.69,44.787 C317.844,44.424 317.954,44.27 318.152,44.116 C318.405,43.918 318.757,43.808 319.12,43.808 L319.318,43.808 L319.318,44.655 C319.23,44.644 319.142,44.644 319.087,44.644 C318.636,44.644 318.24,44.853 317.987,45.227 C317.767,45.546 317.69,45.843 317.69,46.426 L317.69,49 L316.854,49 L316.854,43.929 Z M325.06,46.734 L320.836,46.734 C320.88,47.163 320.957,47.383 321.166,47.658 C321.496,48.109 321.98,48.351 322.53,48.351 C323.157,48.351 323.751,48.01 324.048,47.482 L324.785,47.757 C324.367,48.604 323.498,49.121 322.53,49.121 C321.023,49.121 319.945,48.021 319.945,46.481 C319.945,44.919 321.012,43.808 322.497,43.808 C323.971,43.808 325.071,44.919 325.071,46.404 C325.071,46.47 325.071,46.613 325.06,46.734 Z M320.847,46.118 L324.18,46.118 C324.147,45.722 324.07,45.502 323.894,45.249 C323.575,44.82 323.058,44.556 322.497,44.556 C321.936,44.556 321.43,44.82 321.133,45.26 C320.979,45.502 320.913,45.711 320.847,46.118 Z M333.772,44.666 L333.772,47.966 C333.783,48.219 333.849,48.274 334.157,48.274 L334.542,48.274 L334.542,49 L333.761,49 C333.167,48.989 332.936,48.769 332.936,48.208 L332.936,44.666 L332.232,44.666 L332.232,43.929 L332.936,43.929 L332.936,42.334 L333.772,42.334 L333.772,43.929 L334.542,43.929 L334.542,44.666 L333.772,44.666 Z M336.566,41.663 L336.566,44.633 C337.028,44.061 337.49,43.808 338.095,43.808 C338.535,43.808 338.997,43.984 339.272,44.27 C339.547,44.545 339.668,44.941 339.668,45.59 L339.668,49 L338.832,49 L338.832,45.634 C338.832,44.941 338.491,44.556 337.886,44.556 C337.501,44.556 337.16,44.71 336.896,45.007 C336.643,45.293 336.566,45.546 336.566,46.03 L336.566,49 L335.73,49 L335.73,41.663 L336.566,41.663 Z M346.026,46.734 L341.802,46.734 C341.846,47.163 341.923,47.383 342.132,47.658 C342.462,48.109 342.946,48.351 343.496,48.351 C344.123,48.351 344.717,48.01 345.014,47.482 L345.751,47.757 C345.333,48.604 344.464,49.121 343.496,49.121 C341.989,49.121 340.911,48.021 340.911,46.481 C340.911,44.919 341.978,43.808 343.463,43.808 C344.937,43.808 346.037,44.919 346.037,46.404 C346.037,46.47 346.037,46.613 346.026,46.734 Z M341.813,46.118 L345.146,46.118 C345.113,45.722 345.036,45.502 344.86,45.249 C344.541,44.82 344.024,44.556 343.463,44.556 C342.902,44.556 342.396,44.82 342.099,45.26 C341.945,45.502 341.879,45.711 341.813,46.118 Z M353.726,45.315 L352.89,45.315 L352.89,45.26 C352.89,44.787 352.505,44.49 351.922,44.49 C351.361,44.49 351.009,44.776 351.009,45.216 C351.009,45.656 351.229,45.821 352.142,46.074 C352.791,46.25 353.132,46.415 353.374,46.657 C353.627,46.91 353.781,47.273 353.781,47.647 C353.781,48.527 353.055,49.121 351.977,49.121 C350.822,49.121 350.173,48.582 350.085,47.559 L350.91,47.559 C350.965,48.131 351.339,48.439 351.977,48.439 C352.549,48.439 352.923,48.142 352.923,47.691 C352.923,47.251 352.637,47.031 351.768,46.811 C350.668,46.514 350.173,46.052 350.173,45.282 C350.173,44.402 350.888,43.808 351.955,43.808 C353.033,43.808 353.682,44.358 353.726,45.315 Z M358.896,44.765 L358.896,43.929 L359.732,43.929 L359.732,49 L358.896,49 L358.896,48.021 C358.39,48.78 357.818,49.121 357.048,49.121 C355.651,49.121 354.661,48.021 354.661,46.481 C354.661,44.93 355.673,43.808 357.07,43.808 C357.84,43.808 358.401,44.105 358.896,44.765 Z M357.191,44.556 C356.641,44.556 356.256,44.743 355.959,45.161 C355.695,45.524 355.541,46.008 355.541,46.503 C355.541,47.581 356.245,48.395 357.169,48.395 C358.126,48.395 358.907,47.504 358.907,46.415 C358.907,45.315 358.203,44.556 357.191,44.556 Z M361.415,43.929 L362.251,43.929 L362.251,44.633 C362.636,44.05 363.065,43.808 363.692,43.808 C364.385,43.808 364.825,44.105 365.056,44.732 C365.43,44.083 365.903,43.808 366.662,43.808 C367.245,43.808 367.685,43.995 367.949,44.347 C368.191,44.666 368.257,44.952 368.257,45.755 L368.257,49 L367.421,49 L367.421,45.953 C367.421,45.337 367.399,45.194 367.278,44.985 C367.124,44.721 366.794,44.556 366.398,44.556 C365.661,44.556 365.254,45.051 365.254,45.953 L365.254,49 L364.418,49 L364.418,45.964 C364.418,45.469 364.374,45.216 364.253,44.996 C364.11,44.71 363.802,44.556 363.428,44.556 C362.691,44.556 362.251,45.084 362.251,45.964 L362.251,49 L361.415,49 L361.415,43.929 Z M374.615,46.734 L370.391,46.734 C370.435,47.163 370.512,47.383 370.721,47.658 C371.051,48.109 371.535,48.351 372.085,48.351 C372.712,48.351 373.306,48.01 373.603,47.482 L374.34,47.757 C373.922,48.604 373.053,49.121 372.085,49.121 C370.578,49.121 369.5,48.021 369.5,46.481 C369.5,44.919 370.567,43.808 372.052,43.808 C373.526,43.808 374.626,44.919 374.626,46.404 C374.626,46.47 374.626,46.613 374.615,46.734 Z M370.402,46.118 L373.735,46.118 C373.702,45.722 373.625,45.502 373.449,45.249 C373.13,44.82 372.613,44.556 372.052,44.556 C371.491,44.556 370.985,44.82 370.688,45.26 C370.534,45.502 370.468,45.711 370.402,46.118 Z"/>
  </g>
</svg>
