<svg xmlns="http://www.w3.org/2000/svg" xmlns:xlink="http://www.w3.org/1999/xlink" width="580" height="180" viewBox="0 0 580 180">
  <defs>
    <rect id="4.-two-line-message-with-longer-action-a" width="312" height="41"/>
    <mask id="4.-two-line-message-with-longer-action-c" width="312" height="41" x="0" y="0" fill="#fff">
      <use xlink:href="#4.-two-line-message-with-longer-action-a"/>
    </mask>
    <rect id="4.-two-line-message-with-longer-action-b" width="177" height="48"/>
    <mask id="4.-two-line-message-with-longer-action-d" width="177" height="48" x="0" y="0" fill="#fff">
      <use xlink:href="#4.-two-line-message-with-longer-action-b"/>
    </mask>
  </defs>
  <g fill="none" fill-rule="evenodd">
    <rect width="580" height="180" fill="#FFF" fill-opacity=".01" fill-rule="nonzero"/>
    <g transform="translate(118 36)">
      <rect width="344" height="108" fill="#25333D" rx="4"/>
      <g transform="translate(140 60)">
        <rect width="196" height="48"/>
        <path fill="#89CBDF" d="M27.3696475,27.6442016 L31.8061958,27.6442016 L31.8061958,29 L25.6715436,29 L25.6715436,19.2275125 L27.3696475,19.2275125 L27.3696475,27.6442016 Z M41.7279361,24.3688074 C41.7279361,25.3263728 41.5623782,26.1664672 41.2312574,26.8891158 C40.9001367,27.6117645 40.4269544,28.1666071 39.8116962,28.5536604 C39.1964381,28.9407137 38.4883426,29.1342375 37.6873883,29.1342375 C36.8953833,29.1342375 36.189525,28.9407137 35.5697923,28.5536604 C34.9500596,28.1666071 34.4712841,27.6151204 34.1334514,26.8991837 C33.7956188,26.1832469 33.6244677,25.3576948 33.6199931,24.4225024 L33.6199931,23.8721288 C33.6199931,22.919038 33.7889069,22.077825 34.1267396,21.3484644 C34.4645722,20.6191039 34.9411104,20.0609053 35.5563686,19.6738521 C36.1716267,19.2867988 36.877485,19.093275 37.6739646,19.093275 C38.4704442,19.093275 39.1763025,19.2845615 39.7915606,19.6671402 C40.4068187,20.0497189 40.8822384,20.600087 41.2178337,21.318261 C41.553429,22.036435 41.7234615,22.8720549 41.7279361,23.8251457 L41.7279361,24.3688074 Z M40.0298321,23.8587051 C40.0298321,22.7758507 39.825122,21.945824 39.4156957,21.3686001 C39.0062694,20.7913761 38.4256982,20.5027684 37.6739646,20.5027684 C36.9401294,20.5027684 36.36627,20.7902574 35.9523691,21.3652441 C35.5384682,21.9402308 35.3270463,22.753478 35.3180971,23.8050101 L35.3180971,24.3688074 C35.3180971,25.4427125 35.5272817,26.2727392 35.9456572,26.8589124 C36.3640327,27.4450856 36.944604,27.7381678 37.6873883,27.7381678 C38.4391219,27.7381678 39.0174559,27.4517974 39.4224076,26.879048 C39.8273593,26.3062987 40.0298321,25.4695601 40.0298321,24.3688074 L40.0298321,23.8587051 Z M52.4215418,29 L50.7234379,29 L46.3674321,22.0666349 L46.3674321,29 L44.6693281,29 L44.6693281,19.2275125 L46.3674321,19.2275125 L50.7368616,26.1877251 L50.7368616,19.2275125 L52.4215418,19.2275125 L52.4215418,29 Z M63.1688425,27.7314559 C62.8153488,28.1923402 62.3253869,28.5413541 61.6989423,28.7785082 C61.0724976,29.0156622 60.3610462,29.1342375 59.5645666,29.1342375 C58.7457139,29.1342375 58.0208389,28.9485442 57.3899196,28.577152 C56.7590004,28.2057598 56.2723944,27.6744085 55.9300872,26.9830821 C55.5877799,26.2917557 55.4099171,25.4852203 55.3964932,24.5634517 L55.3964932,23.7982982 C55.3964932,22.3216787 55.7499817,21.1683667 56.4569692,20.3383275 C57.1639567,19.5082884 58.1505922,19.093275 59.4169053,19.093275 C60.5042343,19.093275 61.36782,19.3617473 62.0076884,19.8986998 C62.6475569,20.4356524 63.0323671,21.2097473 63.1621306,22.221008 L61.4975861,22.221008 C61.3096527,21.044187 60.6272857,20.4557853 59.4504647,20.4557853 C58.6897819,20.4557853 58.111448,20.7298507 57.7154455,21.2779898 C57.319443,21.8261288 57.1147329,22.6304269 57.1013091,23.6909082 L57.1013091,24.442638 C57.1013091,25.4986447 57.3239173,26.3186037 57.7691404,26.9025396 C58.2143636,27.4864755 58.8329684,27.7784391 59.6249734,27.7784391 C60.4930467,27.7784391 61.1105329,27.5815594 61.4774504,27.1877942 L61.4774504,25.2749103 L59.4638885,25.2749103 L59.4638885,23.9862306 L63.1688425,23.9862306 L63.1688425,27.7314559 Z M71.9965475,24.6372824 L67.9828472,24.6372824 L67.9828472,27.6442016 L72.6744467,27.6442016 L72.6744467,29 L66.2847433,29 L66.2847433,19.2275125 L72.6274636,19.2275125 L72.6274636,20.5967346 L67.9828472,20.5967346 L67.9828472,23.2949077 L71.9965475,23.2949077 L71.9965475,24.6372824 Z M78.8979448,25.2346391 L77.0051965,25.2346391 L77.0051965,29 L75.3070926,29 L75.3070926,19.2275125 L78.7435717,19.2275125 C79.8711721,19.2275125 80.7414696,19.4803238 81.3544904,19.9859542 C81.9675112,20.4915845 82.2740171,21.2231714 82.2740171,22.1807367 C82.2740171,22.834029 82.1162896,23.3810412 81.80083,23.8217898 C81.4853704,24.2625383 81.0457471,24.6014845 80.4819469,24.8386386 L82.6767295,28.9127456 L82.6767295,29 L80.8578118,29 L78.8979448,25.2346391 Z M77.0051965,23.8721288 L78.7502836,23.8721288 C79.323033,23.8721288 79.7704867,23.727825 80.0926582,23.439213 C80.4148298,23.150601 80.5759131,22.755723 80.5759131,22.2545673 C80.5759131,21.7310386 80.4271347,21.326093 80.1295735,21.0397183 C79.8320123,20.7533436 79.3879145,20.6056838 78.7972667,20.5967346 L77.0051965,20.5967346 L77.0051965,23.8721288 Z M95.2780988,26.724675 L91.4926022,26.724675 L90.7006012,29 L88.9353785,29 L92.6269088,19.2275125 L94.1505041,19.2275125 L97.8487462,29 L96.0768117,29 L95.2780988,26.724675 Z M91.9691452,25.3554528 L94.8015558,25.3554528 L93.3853505,21.3014813 L91.9691452,25.3554528 Z M107.522147,25.8185721 C107.423706,26.8611549 107.038896,27.6744021 106.367705,28.258338 C105.696514,28.8422739 104.803844,29.1342375 103.689668,29.1342375 C102.911086,29.1342375 102.225364,28.9496628 101.632478,28.5805079 C101.039593,28.211353 100.582072,27.6867135 100.2599,27.0065736 C99.9377288,26.3264337 99.7699336,25.5366779 99.7565098,24.6372824 L99.7565098,23.7244676 C99.7565098,22.802699 99.9198304,21.9905705 100.246477,21.2880576 C100.573123,20.5855447 101.041831,20.0441256 101.652614,19.6637842 C102.263398,19.2834429 102.969256,19.093275 103.77021,19.093275 C104.84859,19.093275 105.71665,19.3863572 106.374417,19.9725304 C107.032184,20.5587036 107.414757,21.386493 107.522147,22.4559235 L105.830755,22.4559235 C105.750212,21.7534106 105.545502,21.2466692 105.216619,20.9356842 C104.887735,20.6246992 104.405604,20.469209 103.77021,20.469209 C103.0319,20.469209 102.464753,20.7387999 102.06875,21.2779898 C101.672748,21.8171796 101.470275,22.6080541 101.461326,23.650637 L101.461326,24.5164686 C101.461326,25.5724753 101.650375,26.3778921 102.028479,26.932743 C102.406583,27.487594 102.960307,27.7650153 103.689668,27.7650153 C104.356384,27.7650153 104.857532,27.6151183 105.193127,27.3153198 C105.528723,27.0155213 105.741263,26.5166104 105.830755,25.8185721 L107.522147,25.8185721 Z M117.155277,20.5967346 L114.108087,20.5967346 L114.108087,29 L112.423406,29 L112.423406,20.5967346 L109.403063,20.5967346 L109.403063,19.2275125 L117.155277,19.2275125 L117.155277,20.5967346 Z M121.479315,29 L119.787923,29 L119.787923,19.2275125 L121.479315,19.2275125 L121.479315,29 Z M132.615904,24.3688074 C132.615904,25.3263728 132.450346,26.1664672 132.119226,26.8891158 C131.788105,27.6117645 131.314923,28.1666071 130.699664,28.5536604 C130.084406,28.9407137 129.376311,29.1342375 128.575357,29.1342375 C127.783352,29.1342375 127.077493,28.9407137 126.457761,28.5536604 C125.838028,28.1666071 125.359252,27.6151204 125.02142,26.8991837 C124.683587,26.1832469 124.512436,25.3576948 124.507961,24.4225024 L124.507961,23.8721288 C124.507961,22.919038 124.676875,22.077825 125.014708,21.3484644 C125.35254,20.6191039 125.829079,20.0609053 126.444337,19.6738521 C127.059595,19.2867988 127.765453,19.093275 128.561933,19.093275 C129.358412,19.093275 130.064271,19.2845615 130.679529,19.6671402 C131.294787,20.0497189 131.770207,20.600087 132.105802,21.318261 C132.441397,22.036435 132.61143,22.8720549 132.615904,23.8251457 L132.615904,24.3688074 Z M130.9178,23.8587051 C130.9178,22.7758507 130.71309,21.945824 130.303664,21.3686001 C129.894238,20.7913761 129.313666,20.5027684 128.561933,20.5027684 C127.828098,20.5027684 127.254238,20.7902574 126.840337,21.3652441 C126.426436,21.9402308 126.215015,22.753478 126.206065,23.8050101 L126.206065,24.3688074 C126.206065,25.4427125 126.41525,26.2727392 126.833625,26.8589124 C127.252001,27.4450856 127.832572,27.7381678 128.575357,27.7381678 C129.32709,27.7381678 129.905424,27.4517974 130.310376,26.879048 C130.715328,26.3062987 130.9178,25.4695601 130.9178,24.3688074 L130.9178,23.8587051 Z M143.30951,29 L141.611406,29 L137.2554,22.0666349 L137.2554,29 L135.557296,29 L135.557296,19.2275125 L137.2554,19.2275125 L141.62483,26.1877251 L141.62483,19.2275125 L143.30951,19.2275125 L143.30951,29 Z M157.897594,20.5967346 L154.850403,20.5967346 L154.850403,29 L153.165723,29 L153.165723,20.5967346 L150.14538,20.5967346 L150.14538,19.2275125 L157.897594,19.2275125 L157.897594,20.5967346 Z M166.141366,24.6372824 L162.127666,24.6372824 L162.127666,27.6442016 L166.819265,27.6442016 L166.819265,29 L160.429562,29 L160.429562,19.2275125 L166.772282,19.2275125 L166.772282,20.5967346 L162.127666,20.5967346 L162.127666,23.2949077 L166.141366,23.2949077 L166.141366,24.6372824 Z M172.814559,22.7579578 L174.868393,19.2275125 L176.82826,19.2275125 L173.875035,24.073485 L176.895378,29 L174.915376,29 L172.814559,25.4158597 L170.707031,29 L168.733741,29 L171.760795,24.073485 L168.800859,19.2275125 L170.760726,19.2275125 L172.814559,22.7579578 Z M186.461389,20.5967346 L183.414199,20.5967346 L183.414199,29 L181.729519,29 L181.729519,20.5967346 L178.709176,20.5967346 L178.709176,19.2275125 L186.461389,19.2275125 L186.461389,20.5967346 Z"/>
      </g>
      <path fill="#F3F6FA" d="M23.8864511,22.2879885 L20.7452944,22.2879885 L20.7452944,31 L19.4633266,31 L19.4633266,22.2879885 L16.3288818,22.2879885 L16.3288818,21.2275125 L23.8864511,21.2275125 L23.8864511,22.2879885 Z M31.4389693,29.2884723 L32.8350389,23.7377531 L34.0767355,23.7377531 L31.9624954,31 L30.9557144,31 L29.1904917,25.4962639 L27.4722522,31 L26.4654712,31 L24.3579429,23.7377531 L25.5929276,23.7377531 L27.0225566,29.1743705 L28.7139487,23.7377531 L29.7140178,23.7377531 L31.4389693,29.2884723 Z M35.2596859,27.3017578 C35.2596859,26.5902957 35.3995152,25.9504368 35.679178,25.382162 C35.9588407,24.8138873 36.3481255,24.3753826 36.8470439,24.0666349 C37.3459623,23.7578872 37.9153472,23.6035156 38.5552157,23.6035156 C39.5441033,23.6035156 40.3439268,23.9458177 40.9547104,24.6304322 C41.5654939,25.3150467 41.8708811,26.2256151 41.8708811,27.3621647 L41.8708811,27.449419 C41.8708811,28.1564065 41.7355263,28.7906722 41.4648127,29.3522351 C41.1940992,29.913798 40.8070517,30.351184 40.3036587,30.6644063 C39.8002656,30.9776287 39.2219317,31.1342375 38.5686394,31.1342375 C37.5842264,31.1342375 36.7866401,30.7919354 36.1758566,30.1073209 C35.5650731,29.4227064 35.2596859,28.5166125 35.2596859,27.3890122 L35.2596859,27.3017578 Z M36.5080943,27.449419 C36.5080943,28.2548478 36.6949062,28.9014185 37.0685357,29.3891504 C37.4421652,29.8768823 37.9421948,30.1207446 38.5686394,30.1207446 C39.1995587,30.1207446 39.7007068,29.8735264 40.072099,29.3790826 C40.4434912,28.8846388 40.6291845,28.1922041 40.6291845,27.3017578 C40.6291845,26.5052782 40.4401353,25.8598262 40.0620312,25.3653824 C39.6839271,24.8709386 39.1816603,24.6237204 38.5552157,24.6237204 C37.9421948,24.6237204 37.4477584,24.8675827 37.0718917,25.3553146 C36.6960249,25.8430465 36.5080943,26.5410743 36.5080943,27.449419 Z M46.2621069,27.3554528 L42.9867127,27.3554528 L42.9867127,26.3419599 L46.2621069,26.3419599 L46.2621069,27.3554528 Z M49.0693306,31 L47.8276341,31 L47.8276341,20.6905626 L49.0693306,20.6905626 L49.0693306,31 Z M52.6551316,31 L51.4134351,31 L51.4134351,23.7377531 L52.6551316,23.7377531 L52.6551316,31 Z M51.312757,21.8114455 C51.312757,21.6100882 51.3742819,21.4400558 51.4973335,21.3013431 C51.6203851,21.1626303 51.8027225,21.093275 52.0443512,21.093275 C52.2859798,21.093275 52.4694359,21.1626303 52.5947248,21.3013431 C52.7200137,21.4400558 52.7826572,21.6100882 52.7826572,21.8114455 C52.7826572,22.0128027 52.7200137,22.1805978 52.5947248,22.314836 C52.4694359,22.4490741 52.2859798,22.5161922 52.0443512,22.5161922 C51.8027225,22.5161922 51.6203851,22.4490741 51.4973335,22.314836 C51.3742819,22.1805978 51.312757,22.0128027 51.312757,21.8114455 Z M56.066424,23.7377531 L56.1066952,24.6505679 C56.6615462,23.9525295 57.3864212,23.6035156 58.2813422,23.6035156 C59.8161315,23.6035156 60.5902265,24.4693386 60.6036503,26.2010106 L60.6036503,31 L59.3619538,31 L59.3619538,26.1942987 C59.3574792,25.67077 59.2377853,25.2837225 59.0028685,25.0331446 C58.7679518,24.7825668 58.4021584,24.6572797 57.9054773,24.6572797 C57.5027628,24.6572797 57.1492744,24.7646686 56.8450013,24.9794497 C56.5407282,25.1942307 56.3035777,25.4761265 56.1335427,25.8251457 L56.1335427,31 L54.8918461,31 L54.8918461,23.7377531 L56.066424,23.7377531 Z M65.7398941,31.1342375 C64.7554811,31.1342375 63.9545389,30.8109521 63.3370434,30.1643718 C62.719548,29.5177914 62.4108049,28.6530871 62.4108049,27.5702327 L62.4108049,27.3420291 C62.4108049,26.6216177 62.548397,25.978403 62.8235851,25.4123655 C63.0987733,24.846328 63.4835835,24.4033488 63.9780273,24.0834146 C64.4724711,23.7634803 65.008297,23.6035156 65.585521,23.6035156 C66.5296626,23.6035156 67.2634867,23.914496 67.7870154,24.536466 C68.3105442,25.158436 68.5723046,26.048869 68.5723046,27.2077916 L68.5723046,27.7246058 L63.6525015,27.7246058 C63.6703999,28.4405426 63.8795845,29.0188765 64.2800616,29.4596251 C64.6805388,29.9003736 65.1895174,30.1207446 65.8070128,30.1207446 C66.2455241,30.1207446 66.6169107,30.0312538 66.9211838,29.8522697 C67.2254569,29.6732855 67.4916919,29.436135 67.7198967,29.1408111 L68.4783384,29.7314559 C67.8697922,30.6666483 66.9569865,31.1342375 65.7398941,31.1342375 Z M65.585521,24.6237204 C65.0843653,24.6237204 64.6637588,24.8060578 64.3236888,25.170738 C63.9836189,25.5354183 63.7733156,26.0466342 63.6927727,26.7044011 L67.3306081,26.7044011 L67.3306081,26.6104349 C67.2948112,25.9795156 67.1247788,25.4906724 66.8205057,25.1438905 C66.5162326,24.7971087 66.1045751,24.6237204 65.585521,24.6237204 Z M75.0794312,23.7377531 L75.1129906,24.5431779 C75.6454685,23.9167332 76.3636318,23.6035156 77.2675019,23.6035156 C78.2832372,23.6035156 78.9745532,23.9928004 79.3414708,24.7713816 C79.5830994,24.4223624 79.8974357,24.1404666 80.284489,23.9256855 C80.6715423,23.7109045 81.1290637,23.6035156 81.6570671,23.6035156 C83.2500263,23.6035156 84.0599176,24.4469659 84.0867652,26.1338919 L84.0867652,31 L82.8450686,31 L82.8450686,26.2077225 C82.8450686,25.6886683 82.7264934,25.3005022 82.4893393,25.0432124 C82.2521853,24.7859227 81.8539515,24.6572797 81.2946259,24.6572797 C80.8337416,24.6572797 80.4511687,24.7948718 80.1468956,25.0700599 C79.8426224,25.3452481 79.6658782,25.7155161 79.6166576,26.180875 L79.6166576,31 L78.3682491,31 L78.3682491,26.2412818 C78.3682491,25.1852752 77.8514401,24.6572797 76.8178064,24.6572797 C76.0034284,24.6572797 75.4463485,25.0040564 75.14655,25.6976201 L75.14655,31 L73.9048534,31 L73.9048534,23.7377531 L75.0794312,23.7377531 Z M89.2230089,31.1342375 C88.2385959,31.1342375 87.4376537,30.8109521 86.8201583,30.1643718 C86.2026629,29.5177914 85.8939198,28.6530871 85.8939198,27.5702327 L85.8939198,27.3420291 C85.8939198,26.6216177 86.0315118,25.978403 86.3067,25.4123655 C86.5818882,24.846328 86.9666984,24.4033488 87.4611422,24.0834146 C87.955586,23.7634803 88.4914119,23.6035156 89.0686359,23.6035156 C90.0127774,23.6035156 90.7466016,23.914496 91.2701303,24.536466 C91.793659,25.158436 92.0554195,26.048869 92.0554195,27.2077916 L92.0554195,27.7246058 L87.1356164,27.7246058 C87.1535148,28.4405426 87.3626994,29.0188765 87.7631765,29.4596251 C88.1636536,29.9003736 88.6726322,30.1207446 89.2901277,30.1207446 C89.7286389,30.1207446 90.1000255,30.0312538 90.4042986,29.8522697 C90.7085718,29.6732855 90.9748067,29.436135 91.2030116,29.1408111 L91.9614533,29.7314559 C91.352907,30.6666483 90.4401014,31.1342375 89.2230089,31.1342375 Z M89.0686359,24.6237204 C88.5674801,24.6237204 88.1468736,24.8060578 87.8068037,25.170738 C87.4667337,25.5354183 87.2564305,26.0466342 87.1758876,26.7044011 L90.8137229,26.7044011 L90.8137229,26.6104349 C90.7779261,25.9795156 90.6078937,25.4906724 90.3036205,25.1438905 C89.9993474,24.7971087 89.58769,24.6237204 89.0686359,24.6237204 Z M97.9702405,29.0736924 C97.9702405,28.738097 97.8438349,28.4774552 97.5910197,28.2917591 C97.3382045,28.106063 96.8974626,27.9460983 96.2687807,27.8118602 C95.6400987,27.677622 95.1411878,27.5165387 94.7720329,27.3286053 C94.402878,27.1406719 94.1299313,26.916945 93.9531844,26.657418 C93.7764375,26.3978909 93.6880654,26.0891478 93.6880654,25.7311795 C93.6880654,25.1360571 93.9397581,24.6326716 94.4431511,24.221008 C94.9465441,23.8093443 95.5897589,23.6035156 96.3728147,23.6035156 C97.1961419,23.6035156 97.8639667,23.8160562 98.3763089,24.2411436 C98.8886511,24.666231 99.1448184,25.2098873 99.1448184,25.8721288 L97.8964099,25.8721288 C97.8964099,25.5320589 97.7521061,25.2389766 97.4634941,24.9928734 C97.1748821,24.7467701 96.8113259,24.6237204 96.3728147,24.6237204 C95.9208796,24.6237204 95.5673912,24.7221602 95.3123387,24.9190428 C95.0572863,25.1159254 94.9297619,25.3732113 94.9297619,25.6909082 C94.9297619,25.9907067 95.0483372,26.2166709 95.2854912,26.3688074 C95.5226453,26.520944 95.9510822,26.6663664 96.570815,26.8050792 C97.1905477,26.9437919 97.6928145,27.1093498 98.0776305,27.3017578 C98.4624465,27.4941658 98.7476983,27.7257231 98.9333944,27.9964367 C99.1190905,28.2671503 99.2119371,28.5971474 99.2119371,28.986438 C99.2119371,29.6352557 98.9524139,30.1554207 98.4333598,30.5469486 C97.9143057,30.9384765 97.2408878,31.1342375 96.4130859,31.1342375 C95.8313873,31.1342375 95.3168155,31.0313231 94.8693551,30.8254913 C94.4218946,30.6196595 94.0717621,30.3321705 93.8189469,29.9630156 C93.5661317,29.5938607 93.4397261,29.1945082 93.4397261,28.7649462 L94.6814226,28.7649462 C94.7037956,29.1810844 94.8704722,29.5110816 95.1814572,29.7549475 C95.4924422,29.9988135 95.902981,30.1207446 96.4130859,30.1207446 C96.8829194,30.1207446 97.2598992,30.0256607 97.5440366,29.83549 C97.828174,29.6453193 97.9702405,29.3913893 97.9702405,29.0736924 Z M105.307979,29.0736924 C105.307979,28.738097 105.181573,28.4774552 104.928758,28.2917591 C104.675943,28.106063 104.235201,27.9460983 103.606519,27.8118602 C102.977837,27.677622 102.478926,27.5165387 102.109771,27.3286053 C101.740616,27.1406719 101.467669,26.916945 101.290923,26.657418 C101.114176,26.3978909 101.025804,26.0891478 101.025804,25.7311795 C101.025804,25.1360571 101.277496,24.6326716 101.780889,24.221008 C102.284282,23.8093443 102.927497,23.6035156 103.710553,23.6035156 C104.53388,23.6035156 105.201705,23.8160562 105.714047,24.2411436 C106.226389,24.666231 106.482557,25.2098873 106.482557,25.8721288 L105.234148,25.8721288 C105.234148,25.5320589 105.089844,25.2389766 104.801232,24.9928734 C104.51262,24.7467701 104.149064,24.6237204 103.710553,24.6237204 C103.258618,24.6237204 102.905129,24.7221602 102.650077,24.9190428 C102.395024,25.1159254 102.2675,25.3732113 102.2675,25.6909082 C102.2675,25.9907067 102.386075,26.2166709 102.623229,26.3688074 C102.860383,26.520944 103.28882,26.6663664 103.908553,26.8050792 C104.528286,26.9437919 105.030553,27.1093498 105.415369,27.3017578 C105.800185,27.4941658 106.085436,27.7257231 106.271133,27.9964367 C106.456829,28.2671503 106.549675,28.5971474 106.549675,28.986438 C106.549675,29.6352557 106.290152,30.1554207 105.771098,30.5469486 C105.252044,30.9384765 104.578626,31.1342375 103.750824,31.1342375 C103.169126,31.1342375 102.654554,31.0313231 102.207093,30.8254913 C101.759633,30.6196595 101.4095,30.3321705 101.156685,29.9630156 C100.90387,29.5938607 100.777464,29.1945082 100.777464,28.7649462 L102.019161,28.7649462 C102.041534,29.1810844 102.20821,29.5110816 102.519195,29.7549475 C102.83018,29.9988135 103.240719,30.1207446 103.750824,30.1207446 C104.220658,30.1207446 104.597637,30.0256607 104.881775,29.83549 C105.165912,29.6453193 105.307979,29.3913893 105.307979,29.0736924 Z M112.900768,31 C112.829174,30.8568127 112.771005,30.601764 112.726259,30.2348464 C112.149035,30.8344435 111.459957,31.1342375 110.659002,31.1342375 C109.943066,31.1342375 109.355783,30.9317646 108.897136,30.5268129 C108.438489,30.1218612 108.209169,29.608408 108.209169,28.986438 C108.209169,28.2302298 108.496658,27.6429468 109.071644,27.2245713 C109.646631,26.8061957 110.455404,26.5970111 111.497987,26.5970111 L112.706124,26.5970111 L112.706124,26.0265019 C112.706124,25.5924652 112.576362,25.2468072 112.316835,24.9895175 C112.057308,24.7322277 111.674735,24.6035847 111.169105,24.6035847 C110.726119,24.6035847 110.354732,24.7154482 110.054934,24.9391784 C109.755135,25.1629086 109.605238,25.4336182 109.605238,25.7513151 L108.35683,25.7513151 C108.35683,25.3888721 108.485473,25.0387396 108.742763,24.7009069 C109.000052,24.3630743 109.349066,24.0957207 109.789815,23.8988381 C110.230563,23.7019554 110.714932,23.6035156 111.242935,23.6035156 C112.079686,23.6035156 112.735206,23.8127003 113.209514,24.2310758 C113.683822,24.6494513 113.929922,25.225548 113.94782,25.9593832 L113.94782,29.3018961 C113.94782,29.9686121 114.032837,30.4988448 114.202872,30.89261 L114.202872,31 L112.900768,31 Z M110.840223,30.0536259 C111.229514,30.0536259 111.598663,29.9529488 111.947682,29.7515916 C112.296701,29.5502344 112.549513,29.2884739 112.706124,28.9663024 L112.706124,27.4762665 L111.732902,27.4762665 C110.211537,27.4762665 109.450865,27.921483 109.450865,28.8119293 C109.450865,29.2012199 109.580627,29.5054884 109.840154,29.7247441 C110.099681,29.9439997 110.433034,30.0536259 110.840223,30.0536259 Z M115.848941,27.3084697 C115.848941,26.1763947 116.110702,25.2758941 116.63423,24.6069407 C117.157759,23.9379873 117.851312,23.6035156 118.714911,23.6035156 C119.600883,23.6035156 120.292199,23.9167332 120.78888,24.5431779 L120.849287,23.7377531 L121.983593,23.7377531 L121.983593,30.8254913 C121.983593,31.7651583 121.705053,32.5056942 121.147965,33.0471214 C120.590877,33.5885485 119.842511,33.859258 118.902844,33.859258 C118.379315,33.859258 117.86698,33.7473946 117.365825,33.5236644 C116.864669,33.2999341 116.482096,32.9934283 116.218094,32.6041377 L116.862434,31.8591198 C117.394912,32.5168867 118.045957,32.8457652 118.815589,32.8457652 C119.419661,32.8457652 119.890606,32.6757327 120.228439,32.3356628 C120.566271,31.9955928 120.735185,31.5168173 120.735185,30.8993219 L120.735185,30.2751177 C120.238504,30.8478671 119.560611,31.1342375 118.701487,31.1342375 C117.851312,31.1342375 117.163352,30.7919354 116.637586,30.1073209 C116.11182,29.4227064 115.848941,28.4897653 115.848941,27.3084697 Z M117.09735,27.449419 C117.09735,28.2682717 117.265145,28.9114864 117.60074,29.3790826 C117.936335,29.8466788 118.406162,30.0804734 119.010234,30.0804734 C119.793289,30.0804734 120.368267,29.7247476 120.735185,29.0132855 L120.735185,25.6976201 C120.354844,25.0040564 119.78434,24.6572797 119.023657,24.6572797 C118.419586,24.6572797 117.947522,24.8921929 117.607452,25.3620264 C117.267382,25.8318599 117.09735,26.5276505 117.09735,27.449419 Z M127.119837,31.1342375 C126.135424,31.1342375 125.334482,30.8109521 124.716987,30.1643718 C124.099491,29.5177914 123.790748,28.6530871 123.790748,27.5702327 L123.790748,27.3420291 C123.790748,26.6216177 123.92834,25.978403 124.203528,25.4123655 C124.478716,24.846328 124.863527,24.4033488 125.35797,24.0834146 C125.852414,23.7634803 126.38824,23.6035156 126.965464,23.6035156 C127.909606,23.6035156 128.64343,23.914496 129.166959,24.536466 C129.690487,25.158436 129.952248,26.048869 129.952248,27.2077916 L129.952248,27.7246058 L125.032445,27.7246058 C125.050343,28.4405426 125.259528,29.0188765 125.660005,29.4596251 C126.060482,29.9003736 126.56946,30.1207446 127.186956,30.1207446 C127.625467,30.1207446 127.996854,30.0312538 128.301127,29.8522697 C128.6054,29.6732855 128.871635,29.436135 129.09984,29.1408111 L129.858281,29.7314559 C129.249735,30.6666483 128.33693,31.1342375 127.119837,31.1342375 Z M126.965464,24.6237204 C126.464308,24.6237204 126.043702,24.8060578 125.703632,25.170738 C125.363562,25.5354183 125.153259,26.0466342 125.072716,26.7044011 L128.710551,26.7044011 L128.710551,26.6104349 C128.674754,25.9795156 128.504722,25.4906724 128.200449,25.1438905 C127.896176,24.7971087 127.484518,24.6237204 126.965464,24.6237204 Z M141.721483,29.2884723 L143.117553,23.7377531 L144.359249,23.7377531 L142.245009,31 L141.238228,31 L139.473005,25.4962639 L137.754766,31 L136.747985,31 L134.640457,23.7377531 L135.875441,23.7377531 L137.30507,29.1743705 L138.996462,23.7377531 L139.996532,23.7377531 L141.721483,29.2884723 Z M147.220168,31 L145.978471,31 L145.978471,23.7377531 L147.220168,23.7377531 L147.220168,31 Z M145.877793,21.8114455 C145.877793,21.6100882 145.939318,21.4400558 146.06237,21.3013431 C146.185421,21.1626303 146.367759,21.093275 146.609387,21.093275 C146.851016,21.093275 147.034472,21.1626303 147.159761,21.3013431 C147.28505,21.4400558 147.347693,21.6100882 147.347693,21.8114455 C147.347693,22.0128027 147.28505,22.1805978 147.159761,22.314836 C147.034472,22.4490741 146.851016,22.5161922 146.609387,22.5161922 C146.367759,22.5161922 146.185421,22.4490741 146.06237,22.314836 C145.939318,22.1805978 145.877793,22.0128027 145.877793,21.8114455 Z M151.141563,21.9792423 L151.141563,23.7377531 L152.497361,23.7377531 L152.497361,24.697551 L151.141563,24.697551 L151.141563,29.201218 C151.141563,29.4920673 151.201969,29.710201 151.322783,29.8556256 C151.443597,30.0010503 151.649426,30.0737615 151.940275,30.0737615 C152.083463,30.0737615 152.280342,30.0469143 152.53092,29.993219 L152.53092,31 C152.204274,31.0894921 151.886582,31.1342375 151.577834,31.1342375 C151.022983,31.1342375 150.604614,30.9664423 150.322714,30.630847 C150.040814,30.2952516 149.899866,29.8187134 149.899866,29.201218 L149.899866,24.697551 L148.577627,24.697551 L148.577627,23.7377531 L149.899866,23.7377531 L149.899866,21.9792423 L151.141563,21.9792423 Z M155.438822,24.6170085 C155.989199,23.9413432 156.705125,23.6035156 157.586622,23.6035156 C159.121411,23.6035156 159.895506,24.4693386 159.90893,26.2010106 L159.90893,31 L158.667233,31 L158.667233,26.1942987 C158.662759,25.67077 158.543065,25.2837225 158.308148,25.0331446 C158.073231,24.7825668 157.707438,24.6572797 157.210757,24.6572797 C156.808042,24.6572797 156.454554,24.7646686 156.150281,24.9794497 C155.846008,25.1942307 155.608857,25.4761265 155.438822,25.8251457 L155.438822,31 L154.197126,31 L154.197126,20.6905626 L155.438822,20.6905626 L155.438822,24.6170085 Z M167.020125,31 L165.778428,31 L165.778428,20.6905626 L167.020125,20.6905626 L167.020125,31 Z M168.927958,27.3017578 C168.927958,26.5902957 169.067787,25.9504368 169.34745,25.382162 C169.627113,24.8138873 170.016397,24.3753826 170.515316,24.0666349 C171.014234,23.7578872 171.583619,23.6035156 172.223487,23.6035156 C173.212375,23.6035156 174.012199,23.9458177 174.622982,24.6304322 C175.233766,25.3150467 175.539153,26.2256151 175.539153,27.3621647 L175.539153,27.449419 C175.539153,28.1564065 175.403798,28.7906722 175.133085,29.3522351 C174.862371,29.913798 174.475323,30.351184 173.97193,30.6644063 C173.468537,30.9776287 172.890203,31.1342375 172.236911,31.1342375 C171.252498,31.1342375 170.454912,30.7919354 169.844128,30.1073209 C169.233345,29.4227064 168.927958,28.5166125 168.927958,27.3890122 L168.927958,27.3017578 Z M170.176366,27.449419 C170.176366,28.2548478 170.363178,28.9014185 170.736808,29.3891504 C171.110437,29.8768823 171.610467,30.1207446 172.236911,30.1207446 C172.86783,30.1207446 173.368979,29.8735264 173.740371,29.3790826 C174.111763,28.8846388 174.297456,28.1922041 174.297456,27.3017578 C174.297456,26.5052782 174.108407,25.8598262 173.730303,25.3653824 C173.352199,24.8709386 172.849932,24.6237204 172.223487,24.6237204 C171.610467,24.6237204 171.11603,24.8675827 170.740163,25.3553146 C170.364297,25.8430465 170.176366,26.5410743 170.176366,27.449419 Z M178.520885,23.7377531 L178.561157,24.6505679 C179.116008,23.9525295 179.840883,23.6035156 180.735804,23.6035156 C182.270593,23.6035156 183.044688,24.4693386 183.058112,26.2010106 L183.058112,31 L181.816415,31 L181.816415,26.1942987 C181.811941,25.67077 181.692247,25.2837225 181.45733,25.0331446 C181.222413,24.7825668 180.85662,24.6572797 180.359939,24.6572797 C179.957224,24.6572797 179.603736,24.7646686 179.299463,24.9794497 C178.99519,25.1942307 178.758039,25.4761265 178.588004,25.8251457 L178.588004,31 L177.346307,31 L177.346307,23.7377531 L178.520885,23.7377531 Z M184.885402,27.3084697 C184.885402,26.1763947 185.147162,25.2758941 185.670691,24.6069407 C186.19422,23.9379873 186.887773,23.6035156 187.751372,23.6035156 C188.637344,23.6035156 189.32866,23.9167332 189.825341,24.5431779 L189.885748,23.7377531 L191.020054,23.7377531 L191.020054,30.8254913 C191.020054,31.7651583 190.741514,32.5056942 190.184426,33.0471214 C189.627338,33.5885485 188.878971,33.859258 187.939304,33.859258 C187.415776,33.859258 186.903441,33.7473946 186.402285,33.5236644 C185.90113,33.2999341 185.518557,32.9934283 185.254555,32.6041377 L185.898895,31.8591198 C186.431373,32.5168867 187.082418,32.8457652 187.85205,32.8457652 C188.456122,32.8457652 188.927067,32.6757327 189.264899,32.3356628 C189.602732,31.9955928 189.771646,31.5168173 189.771646,30.8993219 L189.771646,30.2751177 C189.274965,30.8478671 188.597072,31.1342375 187.737948,31.1342375 C186.887773,31.1342375 186.199813,30.7919354 185.674047,30.1073209 C185.148281,29.4227064 184.885402,28.4897653 184.885402,27.3084697 Z M186.13381,27.449419 C186.13381,28.2682717 186.301605,28.9114864 186.637201,29.3790826 C186.972796,29.8466788 187.442623,30.0804734 188.046694,30.0804734 C188.82975,30.0804734 189.404728,29.7247476 189.771646,29.0132855 L189.771646,25.6976201 C189.391304,25.0040564 188.820801,24.6572797 188.060118,24.6572797 C187.456046,24.6572797 186.983983,24.8921929 186.643913,25.3620264 C186.303843,25.8318599 186.13381,26.5276505 186.13381,27.449419 Z M196.156298,31.1342375 C195.171885,31.1342375 194.370943,30.8109521 193.753447,30.1643718 C193.135952,29.5177914 192.827209,28.6530871 192.827209,27.5702327 L192.827209,27.3420291 C192.827209,26.6216177 192.964801,25.978403 193.239989,25.4123655 C193.515177,24.846328 193.899987,24.4033488 194.394431,24.0834146 C194.888875,23.7634803 195.424701,23.6035156 196.001925,23.6035156 C196.946066,23.6035156 197.67989,23.914496 198.203419,24.536466 C198.726948,25.158436 198.988708,26.048869 198.988708,27.2077916 L198.988708,27.7246058 L194.068905,27.7246058 C194.086804,28.4405426 194.295988,29.0188765 194.696465,29.4596251 C195.096943,29.9003736 195.605921,30.1207446 196.223417,30.1207446 C196.661928,30.1207446 197.033314,30.0312538 197.337588,29.8522697 C197.641861,29.6732855 197.908096,29.436135 198.1363,29.1408111 L198.894742,29.7314559 C198.286196,30.6666483 197.37339,31.1342375 196.156298,31.1342375 Z M196.001925,24.6237204 C195.500769,24.6237204 195.080163,24.8060578 194.740093,25.170738 C194.400023,25.5354183 194.189719,26.0466342 194.109176,26.7044011 L197.747012,26.7044011 L197.747012,26.6104349 C197.711215,25.9795156 197.541183,25.4906724 197.236909,25.1438905 C196.932636,24.7971087 196.520979,24.6237204 196.001925,24.6237204 Z M204.185359,24.8519241 C203.997426,24.8206018 203.793834,24.8049409 203.574579,24.8049409 C202.760201,24.8049409 202.207595,25.1517176 201.916746,25.8452813 L201.916746,31 L200.675049,31 L200.675049,23.7377531 L201.883186,23.7377531 L201.903322,24.5767373 C202.310511,23.9279196 202.887726,23.6035156 203.634985,23.6035156 C203.876614,23.6035156 204.06007,23.6348374 204.185359,23.6974819 L204.185359,24.8519241 Z M213.712829,31 C213.641235,30.8568127 213.583066,30.601764 213.53832,30.2348464 C212.961096,30.8344435 212.272017,31.1342375 211.471063,31.1342375 C210.755126,31.1342375 210.167843,30.9317646 209.709196,30.5268129 C209.250549,30.1218612 209.021229,29.608408 209.021229,28.986438 C209.021229,28.2302298 209.308718,27.6429468 209.883705,27.2245713 C210.458692,26.8061957 211.267464,26.5970111 212.310047,26.5970111 L213.518184,26.5970111 L213.518184,26.0265019 C213.518184,25.5924652 213.388423,25.2468072 213.128896,24.9895175 C212.869369,24.7322277 212.486796,24.6035847 211.981165,24.6035847 C211.538179,24.6035847 211.166793,24.7154482 210.866994,24.9391784 C210.567196,25.1629086 210.417299,25.4336182 210.417299,25.7513151 L209.16889,25.7513151 C209.16889,25.3888721 209.297533,25.0387396 209.554823,24.7009069 C209.812113,24.3630743 210.161127,24.0957207 210.601875,23.8988381 C211.042624,23.7019554 211.526993,23.6035156 212.054996,23.6035156 C212.891747,23.6035156 213.547267,23.8127003 214.021575,24.2310758 C214.495883,24.6494513 214.741982,25.225548 214.759881,25.9593832 L214.759881,29.3018961 C214.759881,29.9686121 214.844897,30.4988448 215.014932,30.89261 L215.014932,31 L213.712829,31 Z M211.652283,30.0536259 C212.041574,30.0536259 212.410723,29.9529488 212.759743,29.7515916 C213.108762,29.5502344 213.361573,29.2884739 213.518184,28.9663024 L213.518184,27.4762665 L212.544963,27.4762665 C211.023597,27.4762665 210.262926,27.921483 210.262926,28.8119293 C210.262926,29.2012199 210.392687,29.5054884 210.652214,29.7247441 C210.911741,29.9439997 211.245094,30.0536259 211.652283,30.0536259 Z M219.869277,30.1207446 C220.312263,30.1207446 220.69931,29.9865085 221.030431,29.7180322 C221.361552,29.4495559 221.545008,29.1139656 221.580805,28.7112512 L222.755383,28.7112512 C222.73301,29.1273894 222.589824,29.523386 222.325823,29.8992528 C222.061821,30.2751196 221.709451,30.5749136 221.268703,30.7986438 C220.827954,31.022374 220.361484,31.1342375 219.869277,31.1342375 C218.880389,31.1342375 218.09399,30.8042403 217.510054,30.1442362 C216.926118,29.484232 216.634154,28.581494 216.634154,27.4359953 L216.634154,27.2279272 C216.634154,26.5209397 216.763916,25.8922672 217.023443,25.3418908 C217.28297,24.7915144 217.655475,24.3641961 218.14097,24.059923 C218.626464,23.7556499 219.200324,23.6035156 219.862565,23.6035156 C220.676943,23.6035156 221.353717,23.8473779 221.892907,24.3351098 C222.432097,24.8228417 222.719586,25.4559888 222.755383,26.23457 L221.580805,26.23457 C221.545008,25.7647365 221.367145,25.3788076 221.047211,25.0767718 C220.727277,24.774736 220.332399,24.6237204 219.862565,24.6237204 C219.231646,24.6237204 218.742803,24.8508031 218.396021,25.3049755 C218.049239,25.7591479 217.875851,26.4157862 217.875851,27.2749103 L217.875851,27.5098259 C217.875851,28.3465769 218.04812,28.9909103 218.392665,29.4428454 C218.73721,29.8947805 219.229409,30.1207446 219.869277,30.1207446 Z M226.086132,21.9792423 L226.086132,23.7377531 L227.441931,23.7377531 L227.441931,24.697551 L226.086132,24.697551 L226.086132,29.201218 C226.086132,29.4920673 226.146539,29.710201 226.267353,29.8556256 C226.388167,30.0010503 226.593996,30.0737615 226.884845,30.0737615 C227.028033,30.0737615 227.224912,30.0469143 227.47549,29.993219 L227.47549,31 C227.148844,31.0894921 226.831152,31.1342375 226.522404,31.1342375 C225.967553,31.1342375 225.549184,30.9664423 225.267284,30.630847 C224.985384,30.2952516 224.844436,29.8187134 224.844436,29.201218 L224.844436,24.697551 L223.522197,24.697551 L223.522197,23.7377531 L224.844436,23.7377531 L224.844436,21.9792423 L226.086132,21.9792423 Z M230.490782,31 L229.249085,31 L229.249085,23.7377531 L230.490782,23.7377531 L230.490782,31 Z M229.148407,21.8114455 C229.148407,21.6100882 229.209932,21.4400558 229.332984,21.3013431 C229.456036,21.1626303 229.638373,21.093275 229.880002,21.093275 C230.12163,21.093275 230.305086,21.1626303 230.430375,21.3013431 C230.555664,21.4400558 230.618308,21.6100882 230.618308,21.8114455 C230.618308,22.0128027 230.555664,22.1805978 230.430375,22.314836 C230.305086,22.4490741 230.12163,22.5161922 229.880002,22.5161922 C229.638373,22.5161922 229.456036,22.4490741 229.332984,22.314836 C229.209932,22.1805978 229.148407,22.0128027 229.148407,21.8114455 Z M232.398615,27.3017578 C232.398615,26.5902957 232.538444,25.9504368 232.818107,25.382162 C233.09777,24.8138873 233.487054,24.3753826 233.985973,24.0666349 C234.484891,23.7578872 235.054276,23.6035156 235.694145,23.6035156 C236.683032,23.6035156 237.482856,23.9458177 238.093639,24.6304322 C238.704423,25.3150467 239.00981,26.2256151 239.00981,27.3621647 L239.00981,27.449419 C239.00981,28.1564065 238.874455,28.7906722 238.603742,29.3522351 C238.333028,29.913798 237.945981,30.351184 237.442588,30.6644063 C236.939195,30.9776287 236.360861,31.1342375 235.707568,31.1342375 C234.723155,31.1342375 233.925569,30.7919354 233.314785,30.1073209 C232.704002,29.4227064 232.398615,28.5166125 232.398615,27.3890122 L232.398615,27.3017578 Z M233.647023,27.449419 C233.647023,28.2548478 233.833835,28.9014185 234.207465,29.3891504 C234.581094,29.8768823 235.081124,30.1207446 235.707568,30.1207446 C236.338488,30.1207446 236.839636,29.8735264 237.211028,29.3790826 C237.58242,28.8846388 237.768113,28.1922041 237.768113,27.3017578 C237.768113,26.5052782 237.579064,25.8598262 237.20096,25.3653824 C236.822856,24.8709386 236.320589,24.6237204 235.694145,24.6237204 C235.081124,24.6237204 234.586687,24.8675827 234.210821,25.3553146 C233.834954,25.8430465 233.647023,26.5410743 233.647023,27.449419 Z M241.991542,23.7377531 L242.031814,24.6505679 C242.586665,23.9525295 243.31154,23.6035156 244.206461,23.6035156 C245.74125,23.6035156 246.515345,24.4693386 246.528769,26.2010106 L246.528769,31 L245.287072,31 L245.287072,26.1942987 C245.282598,25.67077 245.162904,25.2837225 244.927987,25.0331446 C244.69307,24.7825668 244.327277,24.6572797 243.830596,24.6572797 C243.427881,24.6572797 243.074393,24.7646686 242.77012,24.9794497 C242.465847,25.1942307 242.228696,25.4761265 242.058661,25.8251457 L242.058661,31 L240.816965,31 L240.816965,23.7377531 L241.991542,23.7377531 Z M253.988981,21.9792423 L253.988981,23.7377531 L255.34478,23.7377531 L255.34478,24.697551 L253.988981,24.697551 L253.988981,29.201218 C253.988981,29.4920673 254.049388,29.710201 254.170202,29.8556256 C254.291016,30.0010503 254.496845,30.0737615 254.787694,30.0737615 C254.930882,30.0737615 255.127761,30.0469143 255.378339,29.993219 L255.378339,31 C255.051693,31.0894921 254.734001,31.1342375 254.425253,31.1342375 C253.870402,31.1342375 253.452033,30.9664423 253.170133,30.630847 C252.888233,30.2952516 252.747285,29.8187134 252.747285,29.201218 L252.747285,24.697551 L251.425046,24.697551 L251.425046,23.7377531 L252.747285,23.7377531 L252.747285,21.9792423 L253.988981,21.9792423 Z M260.058175,31.1342375 C259.073762,31.1342375 258.27282,30.8109521 257.655325,30.1643718 C257.037829,29.5177914 256.729086,28.6530871 256.729086,27.5702327 L256.729086,27.3420291 C256.729086,26.6216177 256.866678,25.978403 257.141867,25.4123655 C257.417055,24.846328 257.801865,24.4033488 258.296309,24.0834146 C258.790753,23.7634803 259.326578,23.6035156 259.903802,23.6035156 C260.847944,23.6035156 261.581768,23.914496 262.105297,24.536466 C262.628826,25.158436 262.890586,26.048869 262.890586,27.2077916 L262.890586,27.7246058 L257.970783,27.7246058 C257.988681,28.4405426 258.197866,29.0188765 258.598343,29.4596251 C258.99882,29.9003736 259.507799,30.1207446 260.125294,30.1207446 C260.563805,30.1207446 260.935192,30.0312538 261.239465,29.8522697 C261.543738,29.6732855 261.809973,29.436135 262.038178,29.1408111 L262.79662,29.7314559 C262.188074,30.6666483 261.275268,31.1342375 260.058175,31.1342375 Z M259.903802,24.6237204 C259.402647,24.6237204 258.98204,24.8060578 258.64197,25.170738 C258.3019,25.5354183 258.091597,26.0466342 258.011054,26.7044011 L261.648889,26.7044011 L261.648889,26.6104349 C261.613093,25.9795156 261.44306,25.4906724 261.138787,25.1438905 C260.834514,24.7971087 260.422857,24.6237204 259.903802,24.6237204 Z M267.013337,26.388943 L268.624186,23.7377531 L270.073951,23.7377531 L267.697948,27.3286053 L270.147782,31 L268.711441,31 L267.033473,28.2816913 L265.355504,31 L263.912451,31 L266.362285,27.3286053 L263.986282,23.7377531 L265.422623,23.7377531 L267.013337,26.388943 Z M273.324158,21.9792423 L273.324158,23.7377531 L274.679957,23.7377531 L274.679957,24.697551 L273.324158,24.697551 L273.324158,29.201218 C273.324158,29.4920673 273.384565,29.710201 273.505379,29.8556256 C273.626193,30.0010503 273.832022,30.0737615 274.122871,30.0737615 C274.266059,30.0737615 274.462938,30.0469143 274.713516,29.993219 L274.713516,31 C274.38687,31.0894921 274.069178,31.1342375 273.76043,31.1342375 C273.205579,31.1342375 272.78721,30.9664423 272.50531,30.630847 C272.22341,30.2952516 272.082462,29.8187134 272.082462,29.201218 L272.082462,24.697551 L270.760223,24.697551 L270.760223,23.7377531 L272.082462,23.7377531 L272.082462,21.9792423 L273.324158,21.9792423 Z M276.406569,30.3489483 C276.406569,30.1341673 276.470331,29.9551858 276.597857,29.8119984 C276.725384,29.6688111 276.91667,29.5972185 277.171723,29.5972185 C277.426775,29.5972185 277.620299,29.6688111 277.7523,29.8119984 C277.8843,29.9551858 277.9503,30.1341673 277.9503,30.3489483 C277.9503,30.5547801 277.8843,30.7270498 277.7523,30.8657625 C277.620299,31.0044753 277.426775,31.0738306 277.171723,31.0738306 C276.91667,31.0738306 276.725384,31.0044753 276.597857,30.8657625 C276.470331,30.7270498 276.406569,30.5547801 276.406569,30.3489483 Z M290.578655,22.2879885 L287.437498,22.2879885 L287.437498,31 L286.15553,31 L286.15553,22.2879885 L283.021086,22.2879885 L283.021086,21.2275125 L290.578655,21.2275125 L290.578655,22.2879885 Z M295.090694,24.8519241 C294.902761,24.8206018 294.69917,24.8049409 294.479914,24.8049409 C293.665536,24.8049409 293.112931,25.1517176 292.822081,25.8452813 L292.822081,31 L291.580385,31 L291.580385,23.7377531 L292.788522,23.7377531 L292.808658,24.5767373 C293.215847,23.9279196 293.793062,23.6035156 294.540321,23.6035156 C294.78195,23.6035156 294.965406,23.6348374 295.090694,23.6974819 L295.090694,24.8519241 Z M298.97853,29.1810823 L300.669922,23.7377531 L301.998873,23.7377531 L299.079208,32.1208828 C298.627273,33.3290261 297.90911,33.9330886 296.924697,33.9330886 L296.689781,33.912953 L296.226662,33.8256987 L296.226662,32.8189177 L296.562255,32.8457652 C296.982868,32.8457652 297.310628,32.7607489 297.545545,32.590714 C297.780462,32.420679 297.973985,32.1096986 298.126122,31.6577636 L298.401309,30.9194575 L295.810526,23.7377531 L297.166324,23.7377531 L298.97853,29.1810823 Z M308.693932,21.9792423 L308.693932,23.7377531 L310.04973,23.7377531 L310.04973,24.697551 L308.693932,24.697551 L308.693932,29.201218 C308.693932,29.4920673 308.754338,29.710201 308.875152,29.8556256 C308.995967,30.0010503 309.201795,30.0737615 309.492645,30.0737615 C309.635832,30.0737615 309.832712,30.0469143 310.08329,29.993219 L310.08329,31 C309.756643,31.0894921 309.438951,31.1342375 309.130204,31.1342375 C308.575353,31.1342375 308.156983,30.9664423 307.875083,30.630847 C307.593183,30.2952516 307.452235,29.8187134 307.452235,29.201218 L307.452235,24.697551 L306.129996,24.697551 L306.129996,23.7377531 L307.452235,23.7377531 L307.452235,21.9792423 L308.693932,21.9792423 Z M311.286376,27.3017578 C311.286376,26.5902957 311.426205,25.9504368 311.705868,25.382162 C311.98553,24.8138873 312.374815,24.3753826 312.873734,24.0666349 C313.372652,23.7578872 313.942037,23.6035156 314.581905,23.6035156 C315.570793,23.6035156 316.370617,23.9458177 316.9814,24.6304322 C317.592184,25.3150467 317.897571,26.2256151 317.897571,27.3621647 L317.897571,27.449419 C317.897571,28.1564065 317.762216,28.7906722 317.491502,29.3522351 C317.220789,29.913798 316.833741,30.351184 316.330348,30.6644063 C315.826955,30.9776287 315.248621,31.1342375 314.595329,31.1342375 C313.610916,31.1342375 312.81333,30.7919354 312.202546,30.1073209 C311.591763,29.4227064 311.286376,28.5166125 311.286376,27.3890122 L311.286376,27.3017578 Z M312.534784,27.449419 C312.534784,28.2548478 312.721596,28.9014185 313.095225,29.3891504 C313.468855,29.8768823 313.968885,30.1207446 314.595329,30.1207446 C315.226248,30.1207446 315.727397,29.8735264 316.098789,29.3790826 C316.470181,28.8846388 316.655874,28.1922041 316.655874,27.3017578 C316.655874,26.5052782 316.466825,25.8598262 316.088721,25.3653824 C315.710617,24.8709386 315.20835,24.6237204 314.581905,24.6237204 C313.968885,24.6237204 313.474448,24.8675827 313.098581,25.3553146 C312.722715,25.8430465 312.534784,26.5410743 312.534784,27.449419 Z M21.4231936,50.2818296 C20.9399363,50.8501043 20.2307221,51.1342375 19.2955298,51.1342375 C18.5214232,51.1342375 17.9319029,50.909392 17.5269512,50.4596942 C17.1219995,50.0099964 16.9172894,49.344409 16.9128148,48.4629119 L16.9128148,43.7377531 L18.1545113,43.7377531 L18.1545113,48.4293525 C18.1545113,49.5301053 18.6019651,50.0804734 19.496886,50.0804734 C20.4455022,50.0804734 21.0764119,49.7269849 21.3896343,49.0199974 L21.3896343,43.7377531 L22.6313308,43.7377531 L22.6313308,51 L21.4500411,51 L21.4231936,50.2818296 Z M28.9958474,49.0736924 C28.9958474,48.738097 28.8694417,48.4774552 28.6166266,48.2917591 C28.3638114,48.106063 27.9230695,47.9460983 27.2943875,47.8118602 C26.6657056,47.677622 26.1667946,47.5165387 25.7976398,47.3286053 C25.4284849,47.1406719 25.1555381,46.916945 24.9787912,46.657418 C24.8020443,46.3978909 24.7136722,46.0891478 24.7136722,45.7311795 C24.7136722,45.1360571 24.965365,44.6326716 25.468758,44.221008 C25.972151,43.8093443 26.6153657,43.6035156 27.3984215,43.6035156 C28.2217488,43.6035156 28.8895735,43.8160562 29.4019157,44.2411436 C29.914258,44.666231 30.1704252,45.2098873 30.1704252,45.8721288 L28.9220168,45.8721288 C28.9220168,45.5320589 28.777713,45.2389766 28.489101,44.9928734 C28.200489,44.7467701 27.8369328,44.6237204 27.3984215,44.6237204 C26.9464865,44.6237204 26.592998,44.7221602 26.3379456,44.9190428 C26.0828931,45.1159254 25.9553688,45.3732113 25.9553688,45.6909082 C25.9553688,45.9907067 26.073944,46.2166709 26.3110981,46.3688074 C26.5482521,46.520944 26.9766891,46.6663664 27.5964218,46.8050792 C28.2161545,46.9437919 28.7184214,47.1093498 29.1032374,47.3017578 C29.4880534,47.4941658 29.7733051,47.7257231 29.9590012,47.9964367 C30.1446973,48.2671503 30.237544,48.5971474 30.237544,48.986438 C30.237544,49.6352557 29.9780208,50.1554207 29.4589667,50.5469486 C28.9399125,50.9384765 28.2664946,51.1342375 27.4386928,51.1342375 C26.8569942,51.1342375 26.3424224,51.0313231 25.8949619,50.8254913 C25.4475015,50.6196595 25.0973689,50.3321705 24.8445538,49.9630156 C24.5917386,49.5938607 24.4653329,49.1945082 24.4653329,48.7649462 L25.7070295,48.7649462 C25.7294025,49.1810844 25.896079,49.5110816 26.207064,49.7549475 C26.5180491,49.9988135 26.9285879,50.1207446 27.4386928,50.1207446 C27.9085263,50.1207446 28.285506,50.0256607 28.5696434,49.83549 C28.8537808,49.6453193 28.9958474,49.3913893 28.9958474,49.0736924 Z M35.1187365,51.1342375 C34.1343235,51.1342375 33.3333813,50.8109521 32.7158859,50.1643718 C32.0983905,49.5177914 31.7896474,48.6530871 31.7896474,47.5702327 L31.7896474,47.3420291 C31.7896474,46.6216177 31.9272394,45.978403 32.2024276,45.4123655 C32.4776158,44.846328 32.862426,44.4033488 33.3568698,44.0834146 C33.8513136,43.7634803 34.3871395,43.6035156 34.9643634,43.6035156 C35.908505,43.6035156 36.6423292,43.914496 37.1658579,44.536466 C37.6893866,45.158436 37.9511471,46.048869 37.9511471,47.2077916 L37.9511471,47.7246058 L33.0313439,47.7246058 C33.0492424,48.4405426 33.258427,49.0188765 33.6589041,49.4596251 C34.0593812,49.9003736 34.5683598,50.1207446 35.1858553,50.1207446 C35.6243665,50.1207446 35.9957531,50.0312538 36.3000262,49.8522697 C36.6042993,49.6732855 36.8705343,49.436135 37.0987392,49.1408111 L37.8571808,49.7314559 C37.2486346,50.6666483 36.335829,51.1342375 35.1187365,51.1342375 Z M34.9643634,44.6237204 C34.4632077,44.6237204 34.0426012,44.8060578 33.7025313,45.170738 C33.3624613,45.5354183 33.1521581,46.0466342 33.0716152,46.7044011 L36.7094505,46.7044011 L36.7094505,46.6104349 C36.6736537,45.9795156 36.5036212,45.4906724 36.1993481,45.1438905 C35.895075,44.7971087 35.4834176,44.6237204 34.9643634,44.6237204 Z M49.4384837,47.449419 C49.4384837,48.559121 49.183435,49.4506725 48.6733301,50.1241005 C48.1632252,50.7975285 47.4786209,51.1342375 46.6194969,51.1342375 C45.7022029,51.1342375 44.9929887,50.8098335 44.491833,50.1610158 L44.4314262,51 L43.2904077,51 L43.2904077,40.6905626 L44.5321043,40.6905626 L44.5321043,44.536466 C45.03326,43.914496 45.724576,43.6035156 46.6060731,43.6035156 C47.4875702,43.6035156 48.1800049,43.9368687 48.6833979,44.6035847 C49.1867909,45.2703008 49.4384837,46.1831065 49.4384837,47.3420291 L49.4384837,47.449419 Z M48.1967871,47.3084697 C48.1967871,46.4627694 48.0334665,45.809487 47.7068203,45.3486027 C47.3801742,44.8877184 46.9103478,44.6572797 46.2973269,44.6572797 C45.4784743,44.6572797 44.8900726,45.0376154 44.5321043,45.7982982 L44.5321043,48.9394549 C44.9124457,49.7001377 45.5053219,50.0804734 46.3107507,50.0804734 C46.9058731,50.0804734 47.3689877,49.8500347 47.7001085,49.3891504 C48.0312292,48.9282661 48.1967871,48.2347128 48.1967871,47.3084697 Z M55.7358815,51 C55.6642878,50.8568127 55.6061188,50.601764 55.5613728,50.2348464 C54.9841488,50.8344435 54.29507,51.1342375 53.4941158,51.1342375 C52.7781791,51.1342375 52.190896,50.9317646 51.7322491,50.5268129 C51.2736021,50.1218612 51.0442821,49.608408 51.0442821,48.986438 C51.0442821,48.2302298 51.3317711,47.6429468 51.9067578,47.2245713 C52.4817445,46.8061957 53.2905171,46.5970111 54.3331,46.5970111 L55.5412372,46.5970111 L55.5412372,46.0265019 C55.5412372,45.5924652 55.4114756,45.2468072 55.1519485,44.9895175 C54.8924215,44.7322277 54.5098485,44.6035847 54.0042182,44.6035847 C53.5612323,44.6035847 53.1898457,44.7154482 52.8900472,44.9391784 C52.5902487,45.1629086 52.4403517,45.4336182 52.4403517,45.7513151 L51.1919433,45.7513151 C51.1919433,45.3888721 51.3205862,45.0387396 51.577876,44.7009069 C51.8351657,44.3630743 52.1841797,44.0957207 52.6249282,43.8988381 C53.0656768,43.7019554 53.5500454,43.6035156 54.0780488,43.6035156 C54.9147998,43.6035156 55.5703196,43.8127003 56.0446277,44.2310758 C56.5189358,44.6494513 56.7650353,45.225548 56.7829337,45.9593832 L56.7829337,49.3018961 C56.7829337,49.9686121 56.8679499,50.4988448 57.0379849,50.89261 L57.0379849,51 L55.7358815,51 Z M53.6753364,50.0536259 C54.064627,50.0536259 54.4337763,49.9529488 54.7827955,49.7515916 C55.1318146,49.5502344 55.384626,49.2884739 55.5412372,48.9663024 L55.5412372,47.4762665 L54.5680155,47.4762665 C53.04665,47.4762665 52.2859786,47.921483 52.2859786,48.8119293 C52.2859786,49.2012199 52.4157402,49.5054884 52.6752673,49.7247441 C52.9347943,49.9439997 53.2681474,50.0536259 53.6753364,50.0536259 Z M63.2078572,49.0736924 C63.2078572,48.738097 63.0814515,48.4774552 62.8286363,48.2917591 C62.5758212,48.106063 62.1350792,47.9460983 61.5063973,47.8118602 C60.8777153,47.677622 60.3788044,47.5165387 60.0096495,47.3286053 C59.6404947,47.1406719 59.3675479,46.916945 59.190801,46.657418 C59.0140541,46.3978909 58.925682,46.0891478 58.925682,45.7311795 C58.925682,45.1360571 59.1773747,44.6326716 59.6807677,44.221008 C60.1841608,43.8093443 60.8273755,43.6035156 61.6104313,43.6035156 C62.4337586,43.6035156 63.1015833,43.8160562 63.6139255,44.2411436 C64.1262677,44.666231 64.382435,45.2098873 64.382435,45.8721288 L63.1340266,45.8721288 C63.1340266,45.5320589 62.9897227,45.2389766 62.7011107,44.9928734 C62.4124987,44.7467701 62.0489426,44.6237204 61.6104313,44.6237204 C61.1584963,44.6237204 60.8050078,44.7221602 60.5499553,44.9190428 C60.2949029,45.1159254 60.1673786,45.3732113 60.1673786,45.6909082 C60.1673786,45.9907067 60.2859538,46.2166709 60.5231078,46.3688074 C60.7602619,46.520944 61.1886988,46.6663664 61.8084316,46.8050792 C62.4281643,46.9437919 62.9304311,47.1093498 63.3152471,47.3017578 C63.7000631,47.4941658 63.9853149,47.7257231 64.171011,47.9964367 C64.3567071,48.2671503 64.4495537,48.5971474 64.4495537,48.986438 C64.4495537,49.6352557 64.1900306,50.1554207 63.6709764,50.5469486 C63.1519223,50.9384765 62.4785044,51.1342375 61.6507026,51.1342375 C61.069004,51.1342375 60.5544322,51.0313231 60.1069717,50.8254913 C59.6595112,50.6196595 59.3093787,50.3321705 59.0565635,49.9630156 C58.8037484,49.5938607 58.6773427,49.1945082 58.6773427,48.7649462 L59.9190392,48.7649462 C59.9414123,49.1810844 60.1080888,49.5110816 60.4190738,49.7549475 C60.7300588,49.9988135 61.1405976,50.1207446 61.6507026,50.1207446 C62.120536,50.1207446 62.4975158,50.0256607 62.7816532,49.83549 C63.0657906,49.6453193 63.2078572,49.3913893 63.2078572,49.0736924 Z M69.3307463,51.1342375 C68.3463333,51.1342375 67.5453911,50.8109521 66.9278957,50.1643718 C66.3104002,49.5177914 66.0016571,48.6530871 66.0016571,47.5702327 L66.0016571,47.3420291 C66.0016571,46.6216177 66.1392492,45.978403 66.4144374,45.4123655 C66.6896255,44.846328 67.0744358,44.4033488 67.5688796,44.0834146 C68.0633234,43.7634803 68.5991492,43.6035156 69.1763732,43.6035156 C70.1205148,43.6035156 70.8543389,43.914496 71.3778677,44.536466 C71.9013964,45.158436 72.1631568,46.048869 72.1631568,47.2077916 L72.1631568,47.7246058 L67.2433537,47.7246058 C67.2612521,48.4405426 67.4704367,49.0188765 67.8709139,49.4596251 C68.271391,49.9003736 68.7803696,50.1207446 69.397865,50.1207446 C69.8363763,50.1207446 70.2077629,50.0312538 70.512036,49.8522697 C70.8163091,49.6732855 71.0825441,49.436135 71.3107489,49.1408111 L72.0691906,49.7314559 C71.4606444,50.6666483 70.5478387,51.1342375 69.3307463,51.1342375 Z M69.1763732,44.6237204 C68.6752175,44.6237204 68.254611,44.8060578 67.914541,45.170738 C67.5744711,45.5354183 67.3641678,46.0466342 67.2836249,46.7044011 L70.9214603,46.7044011 L70.9214603,46.6104349 C70.8856634,45.9795156 70.715631,45.4906724 70.4113579,45.1438905 C70.1070848,44.7971087 69.6954273,44.6237204 69.1763732,44.6237204 Z M79.8985562,49.3153198 L81.6973383,43.7377531 L82.9658823,43.7377531 L80.3616755,51 L79.4153014,51 L76.784247,43.7377531 L78.0527911,43.7377531 L79.8985562,49.3153198 Z M88.7934491,51 C88.7218554,50.8568127 88.6636864,50.601764 88.6189403,50.2348464 C88.0417164,50.8344435 87.3526376,51.1342375 86.5516834,51.1342375 C85.8357466,51.1342375 85.2484636,50.9317646 84.7898166,50.5268129 C84.3311697,50.1218612 84.1018496,49.608408 84.1018496,48.986438 C84.1018496,48.2302298 84.3893387,47.6429468 84.9643253,47.2245713 C85.539312,46.8061957 86.3480847,46.5970111 87.3906675,46.5970111 L88.5988047,46.5970111 L88.5988047,46.0265019 C88.5988047,45.5924652 88.4690431,45.2468072 88.2095161,44.9895175 C87.949989,44.7322277 87.5674161,44.6035847 87.0617857,44.6035847 C86.6187999,44.6035847 86.2474133,44.7154482 85.9476148,44.9391784 C85.6478163,45.1629086 85.4979193,45.4336182 85.4979193,45.7513151 L84.2495108,45.7513151 C84.2495108,45.3888721 84.3781538,45.0387396 84.6354435,44.7009069 C84.8927333,44.3630743 85.2417472,44.0957207 85.6824958,43.8988381 C86.1232443,43.7019554 86.607613,43.6035156 87.1356164,43.6035156 C87.9723674,43.6035156 88.6278871,43.8127003 89.1021952,44.2310758 C89.5765033,44.6494513 89.8226029,45.225548 89.8405013,45.9593832 L89.8405013,49.3018961 C89.8405013,49.9686121 89.9255175,50.4988448 90.0955525,50.89261 L90.0955525,51 L88.7934491,51 Z M86.732904,50.0536259 C87.1221946,50.0536259 87.4913439,49.9529488 87.840363,49.7515916 C88.1893822,49.5502344 88.4421936,49.2884739 88.5988047,48.9663024 L88.5988047,47.4762665 L87.6255831,47.4762665 C86.1042175,47.4762665 85.3435462,47.921483 85.3435462,48.8119293 C85.3435462,49.2012199 85.4733078,49.5054884 85.7328348,49.7247441 C85.9923619,49.9439997 86.3257149,50.0536259 86.732904,50.0536259 Z M95.5472543,44.8519241 C95.3593209,44.8206018 95.1557294,44.8049409 94.9364738,44.8049409 C94.1220958,44.8049409 93.5694904,45.1517176 93.2786411,45.8452813 L93.2786411,51 L92.0369445,51 L92.0369445,43.7377531 L93.2450817,43.7377531 L93.2652174,44.5767373 C93.6724064,43.9279196 94.2496217,43.6035156 94.9968807,43.6035156 C95.2385093,43.6035156 95.4219654,43.6348374 95.5472543,43.6974819 L95.5472543,44.8519241 Z M98.2873593,51 L97.0456627,51 L97.0456627,43.7377531 L98.2873593,43.7377531 L98.2873593,51 Z M96.9449846,41.8114455 C96.9449846,41.6100882 97.0065095,41.4400558 97.1295611,41.3013431 C97.2526128,41.1626303 97.4349502,41.093275 97.6765788,41.093275 C97.9182075,41.093275 98.1016635,41.1626303 98.2269524,41.3013431 C98.3522413,41.4400558 98.4148849,41.6100882 98.4148849,41.8114455 C98.4148849,42.0128027 98.3522413,42.1805978 98.2269524,42.314836 C98.1016635,42.4490741 97.9182075,42.5161922 97.6765788,42.5161922 C97.4349502,42.5161922 97.2526128,42.4490741 97.1295611,42.314836 C97.0065095,42.1805978 96.9449846,42.0128027 96.9449846,41.8114455 Z M105.007605,51 C104.936011,50.8568127 104.877842,50.601764 104.833096,50.2348464 C104.255872,50.8344435 103.566794,51.1342375 102.765839,51.1342375 C102.049903,51.1342375 101.46262,50.9317646 101.003973,50.5268129 C100.545326,50.1218612 100.316006,49.608408 100.316006,48.986438 C100.316006,48.2302298 100.603495,47.6429468 101.178481,47.2245713 C101.753468,46.8061957 102.562241,46.5970111 103.604824,46.5970111 L104.812961,46.5970111 L104.812961,46.0265019 C104.812961,45.5924652 104.683199,45.2468072 104.423672,44.9895175 C104.164145,44.7322277 103.781572,44.6035847 103.275942,44.6035847 C102.832956,44.6035847 102.461569,44.7154482 102.161771,44.9391784 C101.861972,45.1629086 101.712075,45.4336182 101.712075,45.7513151 L100.463667,45.7513151 C100.463667,45.3888721 100.59231,45.0387396 100.8496,44.7009069 C101.106889,44.3630743 101.455903,44.0957207 101.896652,43.8988381 C102.3374,43.7019554 102.821769,43.6035156 103.349772,43.6035156 C104.186523,43.6035156 104.842043,43.8127003 105.316351,44.2310758 C105.790659,44.6494513 106.036759,45.225548 106.054657,45.9593832 L106.054657,49.3018961 C106.054657,49.9686121 106.139674,50.4988448 106.309709,50.89261 L106.309709,51 L105.007605,51 Z M102.94706,50.0536259 C103.336351,50.0536259 103.7055,49.9529488 104.054519,49.7515916 C104.403538,49.5502344 104.65635,49.2884739 104.812961,48.9663024 L104.812961,47.4762665 L103.839739,47.4762665 C102.318374,47.4762665 101.557702,47.921483 101.557702,48.8119293 C101.557702,49.2012199 101.687464,49.5054884 101.946991,49.7247441 C102.206518,49.9439997 102.539871,50.0536259 102.94706,50.0536259 Z M109.425678,43.7377531 L109.46595,44.6505679 C110.020801,43.9525295 110.745676,43.6035156 111.640597,43.6035156 C113.175386,43.6035156 113.949481,44.4693386 113.962905,46.2010106 L113.962905,51 L112.721208,51 L112.721208,46.1942987 C112.716734,45.67077 112.59704,45.2837225 112.362123,45.0331446 C112.127206,44.7825668 111.761413,44.6572797 111.264732,44.6572797 C110.862017,44.6572797 110.508529,44.7646686 110.204256,44.9794497 C109.899983,45.1942307 109.662832,45.4761265 109.492797,45.8251457 L109.492797,51 L108.251101,51 L108.251101,43.7377531 L109.425678,43.7377531 Z M117.770198,41.9792423 L117.770198,43.7377531 L119.125996,43.7377531 L119.125996,44.697551 L117.770198,44.697551 L117.770198,49.201218 C117.770198,49.4920673 117.830604,49.710201 117.951418,49.8556256 C118.072233,50.0010503 118.278061,50.0737615 118.568911,50.0737615 C118.712098,50.0737615 118.908978,50.0469143 119.159555,49.993219 L119.159555,51 C118.832909,51.0894921 118.515217,51.1342375 118.206469,51.1342375 C117.651618,51.1342375 117.233249,50.9664423 116.951349,50.630847 C116.669449,50.2952516 116.528501,49.8187134 116.528501,49.201218 L116.528501,44.697551 L115.206262,44.697551 L115.206262,43.7377531 L116.528501,43.7377531 L116.528501,41.9792423 L117.770198,41.9792423 Z M125.054241,49.0736924 C125.054241,48.738097 124.927835,48.4774552 124.67502,48.2917591 C124.422205,48.106063 123.981463,47.9460983 123.352781,47.8118602 C122.724099,47.677622 122.225188,47.5165387 121.856033,47.3286053 C121.486878,47.1406719 121.213932,46.916945 121.037185,46.657418 C120.860438,46.3978909 120.772066,46.0891478 120.772066,45.7311795 C120.772066,45.1360571 121.023758,44.6326716 121.527151,44.221008 C122.030544,43.8093443 122.673759,43.6035156 123.456815,43.6035156 C124.280142,43.6035156 124.947967,43.8160562 125.460309,44.2411436 C125.972651,44.666231 126.228819,45.2098873 126.228819,45.8721288 L124.98041,45.8721288 C124.98041,45.5320589 124.836106,45.2389766 124.547494,44.9928734 C124.258882,44.7467701 123.895326,44.6237204 123.456815,44.6237204 C123.00488,44.6237204 122.651392,44.7221602 122.396339,44.9190428 C122.141287,45.1159254 122.013762,45.3732113 122.013762,45.6909082 C122.013762,45.9907067 122.132338,46.2166709 122.369492,46.3688074 C122.606646,46.520944 123.035083,46.6663664 123.654815,46.8050792 C124.274548,46.9437919 124.776815,47.1093498 125.161631,47.3017578 C125.546447,47.4941658 125.831699,47.7257231 126.017395,47.9964367 C126.203091,48.2671503 126.295937,48.5971474 126.295937,48.986438 C126.295937,49.6352557 126.036414,50.1554207 125.51736,50.5469486 C124.998306,50.9384765 124.324888,51.1342375 123.497086,51.1342375 C122.915388,51.1342375 122.400816,51.0313231 121.953355,50.8254913 C121.505895,50.6196595 121.155762,50.3321705 120.902947,49.9630156 C120.650132,49.5938607 120.523726,49.1945082 120.523726,48.7649462 L121.765423,48.7649462 C121.787796,49.1810844 121.954472,49.5110816 122.265458,49.7549475 C122.576443,49.9988135 122.986981,50.1207446 123.497086,50.1207446 C123.96692,50.1207446 124.3439,50.0256607 124.628037,49.83549 C124.912174,49.6453193 125.054241,49.3913893 125.054241,49.0736924 Z M132.427199,51 L132.427199,44.697551 L131.279469,44.697551 L131.279469,43.7377531 L132.427199,43.7377531 L132.427199,42.9927352 C132.427199,42.214154 132.635265,41.6123287 133.051403,41.1872412 C133.467542,40.7621538 134.055943,40.5496133 134.816626,40.5496133 C135.103001,40.5496133 135.387134,40.5876468 135.669034,40.6637151 L135.601915,41.6704961 C135.391609,41.6302247 135.167882,41.6100893 134.930728,41.6100893 C134.528013,41.6100893 134.217033,41.7275459 133.997777,41.9624626 C133.778522,42.1973793 133.668896,42.5340883 133.668896,42.9725995 L133.668896,43.7377531 L135.219338,43.7377531 L135.219338,44.697551 L133.668896,44.697551 L133.668896,51 L132.427199,51 Z M138.187647,51 L136.945951,51 L136.945951,43.7377531 L138.187647,43.7377531 L138.187647,51 Z M136.845272,41.8114455 C136.845272,41.6100882 136.906797,41.4400558 137.029849,41.3013431 C137.152901,41.1626303 137.335238,41.093275 137.576867,41.093275 C137.818495,41.093275 138.001951,41.1626303 138.12724,41.3013431 C138.252529,41.4400558 138.315173,41.6100882 138.315173,41.8114455 C138.315173,42.0128027 138.252529,42.1805978 138.12724,42.314836 C138.001951,42.4490741 137.818495,42.5161922 137.576867,42.5161922 C137.335238,42.5161922 137.152901,42.4490741 137.029849,42.314836 C136.906797,42.1805978 136.845272,42.0128027 136.845272,41.8114455 Z M143.934671,44.8519241 C143.746738,44.8206018 143.543146,44.8049409 143.323891,44.8049409 C142.509513,44.8049409 141.956907,45.1517176 141.666058,45.8452813 L141.666058,51 L140.424362,51 L140.424362,43.7377531 L141.632499,43.7377531 L141.652634,44.5767373 C142.059823,43.9279196 142.637039,43.6035156 143.384298,43.6035156 C143.625926,43.6035156 143.809382,43.6348374 143.934671,43.6974819 L143.934671,44.8519241 Z M149.55417,49.0736924 C149.55417,48.738097 149.427764,48.4774552 149.174949,48.2917591 C148.922134,48.106063 148.481392,47.9460983 147.85271,47.8118602 C147.224028,47.677622 146.725117,47.5165387 146.355962,47.3286053 C145.986807,47.1406719 145.713861,46.916945 145.537114,46.657418 C145.360367,46.3978909 145.271995,46.0891478 145.271995,45.7311795 C145.271995,45.1360571 145.523688,44.6326716 146.027081,44.221008 C146.530474,43.8093443 147.173688,43.6035156 147.956744,43.6035156 C148.780071,43.6035156 149.447896,43.8160562 149.960238,44.2411436 C150.472581,44.666231 150.728748,45.2098873 150.728748,45.8721288 L149.480339,45.8721288 C149.480339,45.5320589 149.336036,45.2389766 149.047424,44.9928734 C148.758812,44.7467701 148.395255,44.6237204 147.956744,44.6237204 C147.504809,44.6237204 147.151321,44.7221602 146.896268,44.9190428 C146.641216,45.1159254 146.513691,45.3732113 146.513691,45.6909082 C146.513691,45.9907067 146.632267,46.2166709 146.869421,46.3688074 C147.106575,46.520944 147.535012,46.6663664 148.154744,46.8050792 C148.774477,46.9437919 149.276744,47.1093498 149.66156,47.3017578 C150.046376,47.4941658 150.331628,47.7257231 150.517324,47.9964367 C150.70302,48.2671503 150.795867,48.5971474 150.795867,48.986438 C150.795867,49.6352557 150.536343,50.1554207 150.017289,50.5469486 C149.498235,50.9384765 148.824817,51.1342375 147.997015,51.1342375 C147.415317,51.1342375 146.900745,51.0313231 146.453285,50.8254913 C146.005824,50.6196595 145.655691,50.3321705 145.402876,49.9630156 C145.150061,49.5938607 145.023655,49.1945082 145.023655,48.7649462 L146.265352,48.7649462 C146.287725,49.1810844 146.454402,49.5110816 146.765387,49.7549475 C147.076372,49.9988135 147.48691,50.1207446 147.997015,50.1207446 C148.466849,50.1207446 148.843829,50.0256607 149.127966,49.83549 C149.412103,49.6453193 149.55417,49.3913893 149.55417,49.0736924 Z M154.348108,41.9792423 L154.348108,43.7377531 L155.703907,43.7377531 L155.703907,44.697551 L154.348108,44.697551 L154.348108,49.201218 C154.348108,49.4920673 154.408514,49.710201 154.529329,49.8556256 C154.650143,50.0010503 154.855972,50.0737615 155.146821,50.0737615 C155.290008,50.0737615 155.486888,50.0469143 155.737466,49.993219 L155.737466,51 C155.41082,51.0894921 155.093128,51.1342375 154.78438,51.1342375 C154.229529,51.1342375 153.81116,50.9664423 153.52926,50.630847 C153.24736,50.2952516 153.106412,49.8187134 153.106412,49.201218 L153.106412,44.697551 L151.784173,44.697551 L151.784173,43.7377531 L153.106412,43.7377531 L153.106412,41.9792423 L154.348108,41.9792423 Z M157.430519,50.3489483 C157.430519,50.1341673 157.494281,49.9551858 157.621807,49.8119984 C157.749333,49.6688111 157.94062,49.5972185 158.195672,49.5972185 C158.450725,49.5972185 158.644248,49.6688111 158.776249,49.8119984 C158.90825,49.9551858 158.97425,50.1341673 158.97425,50.3489483 C158.97425,50.5547801 158.90825,50.7270498 158.776249,50.8657625 C158.644248,51.0044753 158.450725,51.0738306 158.195672,51.0738306 C157.94062,51.0738306 157.749333,51.0044753 157.621807,50.8657625 C157.494281,50.7270498 157.430519,50.5547801 157.430519,50.3489483 Z"/>
    </g>
    <g fill="#C41261" transform="translate(73 18)">
      <g transform="translate(32 18)">
        <rect width="1" height="106" x="4" y="1"/>
        <rect width="9" height="1"/>
        <rect width="9" height="1" y="107"/>
      </g>
      <path d="M2.032,7.755 L2.032,11 L1.108,11 L1.108,3.663 L2.032,3.663 L2.032,6.963 L5.607,6.963 L5.607,3.663 L6.531,3.663 L6.531,11 L5.607,11 L5.607,7.755 L2.032,7.755 Z M8.709,9.944 C9.039,9.944 9.281,10.186 9.281,10.527 C9.281,10.846 9.028,11.088 8.709,11.088 C8.379,11.088 8.137,10.846 8.137,10.516 C8.137,10.186 8.379,9.944 8.709,9.944 Z M8.709,6.776 C9.039,6.776 9.281,7.018 9.281,7.359 C9.281,7.678 9.028,7.92 8.709,7.92 C8.379,7.92 8.137,7.678 8.137,7.348 C8.137,7.018 8.379,6.776 8.709,6.776 Z M12.823,4.994 L11.206,6.072 L11.206,5.236 L13.692,3.608 L13.692,11 L12.823,11 L12.823,4.994 Z M20.413,5.874 L20.413,8.789 C20.413,9.614 20.259,10.12 19.896,10.505 C19.511,10.912 18.928,11.121 18.235,11.121 C17.52,11.121 16.926,10.901 16.541,10.483 C16.156,10.076 16.057,9.658 16.057,8.547 L16.057,6.127 C16.057,5.17 16.167,4.719 16.497,4.323 C16.86,3.883 17.465,3.641 18.213,3.641 C18.884,3.641 19.434,3.828 19.841,4.191 C20.259,4.576 20.413,5.016 20.413,5.874 Z M16.926,6.149 L16.926,8.602 C16.926,9.449 16.959,9.603 17.201,9.878 C17.432,10.142 17.828,10.307 18.246,10.307 C18.697,10.307 19.115,10.12 19.324,9.823 C19.489,9.581 19.555,9.273 19.555,8.734 L19.555,5.929 C19.555,5.357 19.456,5.071 19.181,4.807 C18.939,4.587 18.609,4.466 18.246,4.466 C17.773,4.466 17.366,4.653 17.157,4.994 C16.97,5.258 16.926,5.511 16.926,6.149 Z M24.615,7.018 C25.033,7.15 25.231,7.249 25.462,7.491 C25.825,7.854 26.012,8.338 26.012,8.91 C26.012,10.208 25.055,11.132 23.713,11.132 C22.382,11.132 21.447,10.241 21.447,8.987 C21.447,8.404 21.645,7.876 21.997,7.513 C22.228,7.271 22.415,7.161 22.855,7.018 C22.47,6.886 22.305,6.776 22.107,6.534 C21.865,6.237 21.733,5.863 21.733,5.456 C21.733,4.411 22.591,3.641 23.757,3.641 C24.912,3.641 25.748,4.4 25.748,5.445 C25.748,5.863 25.605,6.259 25.341,6.567 C25.143,6.787 24.989,6.886 24.615,7.018 Z M23.757,4.411 C23.053,4.411 22.569,4.851 22.569,5.467 C22.569,6.094 23.086,6.589 23.735,6.589 C24.362,6.589 24.923,6.072 24.923,5.478 C24.923,4.906 24.384,4.411 23.757,4.411 Z M23.746,7.48 C22.954,7.48 22.316,8.107 22.316,8.899 C22.316,9.68 22.943,10.318 23.724,10.318 C24.505,10.318 25.132,9.68 25.132,8.899 C25.132,8.129 24.505,7.48 23.746,7.48 Z M31.116,6.699 L31.116,3.663 L31.952,3.663 L31.952,11 L31.116,11 L31.116,10.131 C30.61,10.824 30.071,11.121 29.301,11.121 C27.904,11.121 26.914,10.032 26.914,8.492 C26.914,6.952 27.926,5.808 29.301,5.808 C30.049,5.808 30.621,6.083 31.116,6.699 Z M29.477,6.556 C28.476,6.556 27.794,7.348 27.794,8.503 C27.794,9.614 28.465,10.395 29.422,10.395 C30.401,10.395 31.116,9.581 31.116,8.481 C31.116,7.337 30.445,6.556 29.477,6.556 Z M33.635,5.929 L34.471,5.929 L34.471,6.853 C34.955,6.105 35.472,5.808 36.319,5.808 C37.727,5.808 38.706,6.886 38.706,8.426 C38.706,10.021 37.727,11.121 36.319,11.121 C35.923,11.121 35.56,11.033 35.208,10.857 C34.9,10.703 34.746,10.571 34.471,10.208 L34.471,13.376 L33.635,13.376 L33.635,5.929 Z M36.176,6.556 C35.164,6.556 34.471,7.359 34.471,8.547 C34.471,9.658 35.142,10.395 36.143,10.395 C37.144,10.395 37.815,9.614 37.815,8.459 C37.815,7.865 37.672,7.414 37.375,7.084 C37.078,6.754 36.627,6.556 36.176,6.556 Z M45.35,13.046 L44.8,13.574 C43.502,11.979 42.908,10.428 42.908,8.58 C42.908,6.688 43.601,4.818 44.822,3.443 L45.35,3.993 C44.239,5.368 43.689,6.897 43.689,8.547 C43.689,10.153 44.283,11.759 45.35,13.046 Z M47.506,6.666 L47.506,11 L46.67,11 L46.67,6.666 L45.977,6.666 L45.977,5.929 L46.67,5.929 L46.67,5.247 C46.67,4.246 47.187,3.652 48.067,3.652 C48.111,3.652 48.21,3.652 48.298,3.663 L48.298,4.411 C47.693,4.477 47.528,4.653 47.506,5.247 L47.506,5.929 L48.298,5.929 L48.298,6.666 L47.506,6.666 Z M50.498,5.929 L50.498,11 L49.662,11 L49.662,5.929 L50.498,5.929 Z M50.08,3.96 C50.377,3.96 50.608,4.202 50.608,4.51 C50.608,4.807 50.377,5.038 50.08,5.038 C49.772,5.038 49.541,4.807 49.541,4.499 C49.541,4.191 49.772,3.96 50.08,3.96 Z M53.798,9.163 L52.445,11 L51.422,11 L53.292,8.481 L51.389,5.929 L52.445,5.929 L53.798,7.788 L55.184,5.929 L56.207,5.929 L54.293,8.481 L56.119,11 L55.096,11 L53.798,9.163 Z M61.795,8.734 L57.571,8.734 C57.615,9.163 57.692,9.383 57.901,9.658 C58.231,10.109 58.715,10.351 59.265,10.351 C59.892,10.351 60.486,10.01 60.783,9.482 L61.52,9.757 C61.102,10.604 60.233,11.121 59.265,11.121 C57.758,11.121 56.68,10.021 56.68,8.481 C56.68,6.919 57.747,5.808 59.232,5.808 C60.706,5.808 61.806,6.919 61.806,8.404 C61.806,8.47 61.806,8.613 61.795,8.734 Z M57.582,8.118 L60.915,8.118 C60.882,7.722 60.805,7.502 60.629,7.249 C60.31,6.82 59.793,6.556 59.232,6.556 C58.671,6.556 58.165,6.82 57.868,7.26 C57.714,7.502 57.648,7.711 57.582,8.118 Z M66.811,6.699 L66.811,3.663 L67.647,3.663 L67.647,11 L66.811,11 L66.811,10.131 C66.305,10.824 65.766,11.121 64.996,11.121 C63.599,11.121 62.609,10.032 62.609,8.492 C62.609,6.952 63.621,5.808 64.996,5.808 C65.744,5.808 66.316,6.083 66.811,6.699 Z M65.172,6.556 C64.171,6.556 63.489,7.348 63.489,8.503 C63.489,9.614 64.16,10.395 65.117,10.395 C66.096,10.395 66.811,9.581 66.811,8.481 C66.811,7.337 66.14,6.556 65.172,6.556 Z M68.879,3.971 L69.429,3.443 C70.738,5.049 71.321,6.589 71.321,8.437 C71.321,10.34 70.628,12.188 69.407,13.574 L68.879,13.024 C69.99,11.649 70.54,10.12 70.54,8.47 C70.54,6.853 69.957,5.269 68.879,3.971 Z"/>
    </g>
    <use fill-rule="nonzero" stroke="#6FEAD9" stroke-dasharray="1" stroke-width="2" mask="url(#4.-two-line-message-with-longer-action-c)" transform="translate(134 52)" xlink:href="#4.-two-line-message-with-longer-action-a"/>
    <use fill-rule="nonzero" stroke="#F897BF" stroke-dasharray="1" stroke-width="2" mask="url(#4.-two-line-message-with-longer-action-d)" transform="matrix(-1 0 0 1 453 96)" xlink:href="#4.-two-line-message-with-longer-action-b"/>
    <g transform="translate(452 94)">
      <g fill="#F897BF" transform="translate(0 2)">
        <rect width="1" height="9"/>
        <rect width="1" height="9" x="9"/>
        <rect width="8" height="1" x="1" y="4"/>
      </g>
      <path fill="#C41261" d="M16.0765,7.92 L16.0765,11 L15.1525,11 L15.1525,3.663 L17.1545,3.663 C18.7165,3.663 19.6625,4.466 19.6625,5.797 C19.6625,6.622 19.2885,7.282 18.6065,7.645 C18.2545,7.832 17.9245,7.909 17.2535,7.953 L20.1025,11 L18.9255,11 L16.0765,7.92 Z M16.0765,7.293 L17.0005,7.293 C18.1115,7.293 18.7165,6.787 18.7165,5.863 C18.7165,4.95 18.1665,4.455 17.1545,4.455 L16.0765,4.455 L16.0765,7.293 Z M21.6645,9.944 C21.9945,9.944 22.2365,10.186 22.2365,10.527 C22.2365,10.846 21.9835,11.088 21.6645,11.088 C21.3345,11.088 21.0925,10.846 21.0925,10.516 C21.0925,10.186 21.3345,9.944 21.6645,9.944 Z M21.6645,6.776 C21.9945,6.776 22.2365,7.018 22.2365,7.359 C22.2365,7.678 21.9835,7.92 21.6645,7.92 C21.3345,7.92 21.0925,7.678 21.0925,7.348 C21.0925,7.018 21.3345,6.776 21.6645,6.776 Z M26.5705,7.018 C26.9885,7.15 27.1865,7.249 27.4175,7.491 C27.7805,7.854 27.9675,8.338 27.9675,8.91 C27.9675,10.208 27.0105,11.132 25.6685,11.132 C24.3375,11.132 23.4025,10.241 23.4025,8.987 C23.4025,8.404 23.6005,7.876 23.9525,7.513 C24.1835,7.271 24.3705,7.161 24.8105,7.018 C24.4255,6.886 24.2605,6.776 24.0625,6.534 C23.8205,6.237 23.6885,5.863 23.6885,5.456 C23.6885,4.411 24.5465,3.641 25.7125,3.641 C26.8675,3.641 27.7035,4.4 27.7035,5.445 C27.7035,5.863 27.5605,6.259 27.2965,6.567 C27.0985,6.787 26.9445,6.886 26.5705,7.018 Z M25.7125,4.411 C25.0085,4.411 24.5245,4.851 24.5245,5.467 C24.5245,6.094 25.0415,6.589 25.6905,6.589 C26.3175,6.589 26.8785,6.072 26.8785,5.478 C26.8785,4.906 26.3395,4.411 25.7125,4.411 Z M25.7015,7.48 C24.9095,7.48 24.2715,8.107 24.2715,8.899 C24.2715,9.68 24.8985,10.318 25.6795,10.318 C26.4605,10.318 27.0875,9.68 27.0875,8.899 C27.0875,8.129 26.4605,7.48 25.7015,7.48 Z M33.0715,6.699 L33.0715,3.663 L33.9075,3.663 L33.9075,11 L33.0715,11 L33.0715,10.131 C32.5655,10.824 32.0265,11.121 31.2565,11.121 C29.8595,11.121 28.8695,10.032 28.8695,8.492 C28.8695,6.952 29.8815,5.808 31.2565,5.808 C32.0045,5.808 32.5765,6.083 33.0715,6.699 Z M31.4325,6.556 C30.4315,6.556 29.7495,7.348 29.7495,8.503 C29.7495,9.614 30.4205,10.395 31.3775,10.395 C32.3565,10.395 33.0715,9.581 33.0715,8.481 C33.0715,7.337 32.4005,6.556 31.4325,6.556 Z M35.5905,5.929 L36.4265,5.929 L36.4265,6.853 C36.9105,6.105 37.4275,5.808 38.2745,5.808 C39.6825,5.808 40.6615,6.886 40.6615,8.426 C40.6615,10.021 39.6825,11.121 38.2745,11.121 C37.8785,11.121 37.5155,11.033 37.1635,10.857 C36.8555,10.703 36.7015,10.571 36.4265,10.208 L36.4265,13.376 L35.5905,13.376 L35.5905,5.929 Z M38.1315,6.556 C37.1195,6.556 36.4265,7.359 36.4265,8.547 C36.4265,9.658 37.0975,10.395 38.0985,10.395 C39.0995,10.395 39.7705,9.614 39.7705,8.459 C39.7705,7.865 39.6275,7.414 39.3305,7.084 C39.0335,6.754 38.5825,6.556 38.1315,6.556 Z M47.3055,13.046 L46.7555,13.574 C45.4575,11.979 44.8635,10.428 44.8635,8.58 C44.8635,6.688 45.5565,4.818 46.7775,3.443 L47.3055,3.993 C46.1945,5.368 45.6445,6.897 45.6445,8.547 C45.6445,10.153 46.2385,11.759 47.3055,13.046 Z M49.4615,6.666 L49.4615,11 L48.6255,11 L48.6255,6.666 L47.9325,6.666 L47.9325,5.929 L48.6255,5.929 L48.6255,5.247 C48.6255,4.246 49.1425,3.652 50.0225,3.652 C50.0665,3.652 50.1655,3.652 50.2535,3.663 L50.2535,4.411 C49.6485,4.477 49.4835,4.653 49.4615,5.247 L49.4615,5.929 L50.2535,5.929 L50.2535,6.666 L49.4615,6.666 Z M52.4535,5.929 L52.4535,11 L51.6175,11 L51.6175,5.929 L52.4535,5.929 Z M52.0355,3.96 C52.3325,3.96 52.5635,4.202 52.5635,4.51 C52.5635,4.807 52.3325,5.038 52.0355,5.038 C51.7275,5.038 51.4965,4.807 51.4965,4.499 C51.4965,4.191 51.7275,3.96 52.0355,3.96 Z M55.7535,9.163 L54.4005,11 L53.3775,11 L55.2475,8.481 L53.3445,5.929 L54.4005,5.929 L55.7535,7.788 L57.1395,5.929 L58.1625,5.929 L56.2485,8.481 L58.0745,11 L57.0515,11 L55.7535,9.163 Z M63.7505,8.734 L59.5265,8.734 C59.5705,9.163 59.6475,9.383 59.8565,9.658 C60.1865,10.109 60.6705,10.351 61.2205,10.351 C61.8475,10.351 62.4415,10.01 62.7385,9.482 L63.4755,9.757 C63.0575,10.604 62.1885,11.121 61.2205,11.121 C59.7135,11.121 58.6355,10.021 58.6355,8.481 C58.6355,6.919 59.7025,5.808 61.1875,5.808 C62.6615,5.808 63.7615,6.919 63.7615,8.404 C63.7615,8.47 63.7615,8.613 63.7505,8.734 Z M59.5375,8.118 L62.8705,8.118 C62.8375,7.722 62.7605,7.502 62.5845,7.249 C62.2655,6.82 61.7485,6.556 61.1875,6.556 C60.6265,6.556 60.1205,6.82 59.8235,7.26 C59.6695,7.502 59.6035,7.711 59.5375,8.118 Z M68.7665,6.699 L68.7665,3.663 L69.6025,3.663 L69.6025,11 L68.7665,11 L68.7665,10.131 C68.2605,10.824 67.7215,11.121 66.9515,11.121 C65.5545,11.121 64.5645,10.032 64.5645,8.492 C64.5645,6.952 65.5765,5.808 66.9515,5.808 C67.6995,5.808 68.2715,6.083 68.7665,6.699 Z M67.1275,6.556 C66.1265,6.556 65.4445,7.348 65.4445,8.503 C65.4445,9.614 66.1155,10.395 67.0725,10.395 C68.0515,10.395 68.7665,9.581 68.7665,8.481 C68.7665,7.337 68.0955,6.556 67.1275,6.556 Z M70.8345,3.971 L71.3845,3.443 C72.6935,5.049 73.2765,6.589 73.2765,8.437 C73.2765,10.34 72.5835,12.188 71.3625,13.574 L70.8345,13.024 C71.9455,11.649 72.4955,10.12 72.4955,8.47 C72.4955,6.853 71.9125,5.269 70.8345,3.971 Z"/>
    </g>
    <g transform="translate(445 52)">
      <g fill="#6FEAD9">
        <rect width="1" height="9"/>
        <rect width="1" height="9" x="16"/>
        <rect width="15" height="1" x="1" y="4"/>
      </g>
      <path fill="#00AB9A" d="M22.837,3.92 L22.837,7 L21.913,7 L21.913,-0.337 L23.915,-0.337 C25.477,-0.337 26.423,0.466 26.423,1.797 C26.423,2.622 26.049,3.282 25.367,3.645 C25.015,3.832 24.685,3.909 24.014,3.953 L26.863,7 L25.686,7 L22.837,3.92 Z M22.837,3.293 L23.761,3.293 C24.872,3.293 25.477,2.787 25.477,1.863 C25.477,0.95 24.927,0.455 23.915,0.455 L22.837,0.455 L22.837,3.293 Z M28.425,5.944 C28.755,5.944 28.997,6.186 28.997,6.527 C28.997,6.846 28.744,7.088 28.425,7.088 C28.095,7.088 27.853,6.846 27.853,6.516 C27.853,6.186 28.095,5.944 28.425,5.944 Z M28.425,2.776 C28.755,2.776 28.997,3.018 28.997,3.359 C28.997,3.678 28.744,3.92 28.425,3.92 C28.095,3.92 27.853,3.678 27.853,3.348 C27.853,3.018 28.095,2.776 28.425,2.776 Z M32.539,0.994 L30.922,2.072 L30.922,1.236 L33.408,-0.392 L33.408,7 L32.539,7 L32.539,0.994 Z M39.293,-0.227 L37.412,2.71 C37.72,2.6 37.863,2.567 38.127,2.567 C39.348,2.567 40.294,3.524 40.294,4.767 C40.294,6.065 39.227,7.132 37.929,7.132 C36.62,7.132 35.608,6.098 35.608,4.767 C35.608,4.228 35.751,3.821 36.169,3.15 L38.27,-0.227 L39.293,-0.227 Z M37.973,3.315 C37.137,3.315 36.477,3.953 36.477,4.767 C36.477,5.625 37.126,6.307 37.951,6.307 C38.776,6.307 39.436,5.636 39.436,4.8 C39.436,3.975 38.787,3.315 37.973,3.315 Z M45.332,2.699 L45.332,-0.337 L46.168,-0.337 L46.168,7 L45.332,7 L45.332,6.131 C44.826,6.824 44.287,7.121 43.517,7.121 C42.12,7.121 41.13,6.032 41.13,4.492 C41.13,2.952 42.142,1.808 43.517,1.808 C44.265,1.808 44.837,2.083 45.332,2.699 Z M43.693,2.556 C42.692,2.556 42.01,3.348 42.01,4.503 C42.01,5.614 42.681,6.395 43.638,6.395 C44.617,6.395 45.332,5.581 45.332,4.481 C45.332,3.337 44.661,2.556 43.693,2.556 Z M47.851,1.929 L48.687,1.929 L48.687,2.853 C49.171,2.105 49.688,1.808 50.535,1.808 C51.943,1.808 52.922,2.886 52.922,4.426 C52.922,6.021 51.943,7.121 50.535,7.121 C50.139,7.121 49.776,7.033 49.424,6.857 C49.116,6.703 48.962,6.571 48.687,6.208 L48.687,9.376 L47.851,9.376 L47.851,1.929 Z M50.392,2.556 C49.38,2.556 48.687,3.359 48.687,4.547 C48.687,5.658 49.358,6.395 50.359,6.395 C51.36,6.395 52.031,5.614 52.031,4.459 C52.031,3.865 51.888,3.414 51.591,3.084 C51.294,2.754 50.843,2.556 50.392,2.556 Z M59.566,9.046 L59.016,9.574 C57.718,7.979 57.124,6.428 57.124,4.58 C57.124,2.688 57.817,0.818 59.038,-0.557 L59.566,-0.007 C58.455,1.368 57.905,2.897 57.905,4.547 C57.905,6.153 58.499,7.759 59.566,9.046 Z M60.798,1.929 L61.634,1.929 L61.634,2.633 C62.019,2.05 62.448,1.808 63.075,1.808 C63.768,1.808 64.208,2.105 64.439,2.732 C64.813,2.083 65.286,1.808 66.045,1.808 C66.628,1.808 67.068,1.995 67.332,2.347 C67.574,2.666 67.64,2.952 67.64,3.755 L67.64,7 L66.804,7 L66.804,3.953 C66.804,3.337 66.782,3.194 66.661,2.985 C66.507,2.721 66.177,2.556 65.781,2.556 C65.044,2.556 64.637,3.051 64.637,3.953 L64.637,7 L63.801,7 L63.801,3.964 C63.801,3.469 63.757,3.216 63.636,2.996 C63.493,2.71 63.185,2.556 62.811,2.556 C62.074,2.556 61.634,3.084 61.634,3.964 L61.634,7 L60.798,7 L60.798,1.929 Z M70.126,1.929 L70.126,7 L69.29,7 L69.29,1.929 L70.126,1.929 Z M69.719,-0.04 C70.016,-0.04 70.247,0.202 70.247,0.51 C70.247,0.807 70.005,1.038 69.708,1.038 C69.411,1.038 69.18,0.807 69.18,0.499 C69.18,0.191 69.411,-0.04 69.719,-0.04 Z M71.809,1.929 L72.645,1.929 L72.645,2.644 C73.085,2.05 73.525,1.808 74.152,1.808 C74.614,1.808 75.032,1.962 75.329,2.226 C75.648,2.534 75.758,2.886 75.758,3.579 L75.758,7 L74.922,7 L74.922,3.766 C74.922,3.315 74.867,3.073 74.735,2.897 C74.581,2.688 74.284,2.556 73.943,2.556 C73.569,2.556 73.228,2.699 72.975,2.985 C72.733,3.249 72.645,3.491 72.645,3.909 L72.645,7 L71.809,7 L71.809,1.929 Z M76.957,-0.029 L77.507,-0.557 C78.816,1.049 79.399,2.589 79.399,4.437 C79.399,6.34 78.706,8.188 77.485,9.574 L76.957,9.024 C78.068,7.649 78.618,6.12 78.618,4.47 C78.618,2.853 78.035,1.269 76.957,-0.029 Z"/>
    </g>
    <g fill="#6FEAD9" transform="translate(118 40)">
      <g transform="translate(0 12)">
        <rect width="1" height="9"/>
        <rect width="1" height="9" x="16"/>
        <rect width="15" height="1" x="1" y="4"/>
      </g>
      <path d="M1.837,6.164 L4.422,6.164 L4.422,7 L0.913,7 L0.913,-0.337 L1.837,-0.337 L1.837,6.164 Z M5.962,5.944 C6.292,5.944 6.534,6.186 6.534,6.527 C6.534,6.846 6.281,7.088 5.962,7.088 C5.632,7.088 5.39,6.846 5.39,6.516 C5.39,6.186 5.632,5.944 5.962,5.944 Z M5.962,2.776 C6.292,2.776 6.534,3.018 6.534,3.359 C6.534,3.678 6.281,3.92 5.962,3.92 C5.632,3.92 5.39,3.678 5.39,3.348 C5.39,3.018 5.632,2.776 5.962,2.776 Z M10.076,0.994 L8.459,2.072 L8.459,1.236 L10.945,-0.392 L10.945,7 L10.076,7 L10.076,0.994 Z M16.83,-0.227 L14.949,2.71 C15.257,2.6 15.4,2.567 15.664,2.567 C16.885,2.567 17.831,3.524 17.831,4.767 C17.831,6.065 16.764,7.132 15.466,7.132 C14.157,7.132 13.145,6.098 13.145,4.767 C13.145,4.228 13.288,3.821 13.706,3.15 L15.807,-0.227 L16.83,-0.227 Z M15.51,3.315 C14.674,3.315 14.014,3.953 14.014,4.767 C14.014,5.625 14.663,6.307 15.488,6.307 C16.313,6.307 16.973,5.636 16.973,4.8 C16.973,3.975 16.324,3.315 15.51,3.315 Z M22.869,2.699 L22.869,-0.337 L23.705,-0.337 L23.705,7 L22.869,7 L22.869,6.131 C22.363,6.824 21.824,7.121 21.054,7.121 C19.657,7.121 18.667,6.032 18.667,4.492 C18.667,2.952 19.679,1.808 21.054,1.808 C21.802,1.808 22.374,2.083 22.869,2.699 Z M21.23,2.556 C20.229,2.556 19.547,3.348 19.547,4.503 C19.547,5.614 20.218,6.395 21.175,6.395 C22.154,6.395 22.869,5.581 22.869,4.481 C22.869,3.337 22.198,2.556 21.23,2.556 Z M25.388,1.929 L26.224,1.929 L26.224,2.853 C26.708,2.105 27.225,1.808 28.072,1.808 C29.48,1.808 30.459,2.886 30.459,4.426 C30.459,6.021 29.48,7.121 28.072,7.121 C27.676,7.121 27.313,7.033 26.961,6.857 C26.653,6.703 26.499,6.571 26.224,6.208 L26.224,9.376 L25.388,9.376 L25.388,1.929 Z M27.929,2.556 C26.917,2.556 26.224,3.359 26.224,4.547 C26.224,5.658 26.895,6.395 27.896,6.395 C28.897,6.395 29.568,5.614 29.568,4.459 C29.568,3.865 29.425,3.414 29.128,3.084 C28.831,2.754 28.38,2.556 27.929,2.556 Z M37.103,9.046 L36.553,9.574 C35.255,7.979 34.661,6.428 34.661,4.58 C34.661,2.688 35.354,0.818 36.575,-0.557 L37.103,-0.007 C35.992,1.368 35.442,2.897 35.442,4.547 C35.442,6.153 36.036,7.759 37.103,9.046 Z M39.259,2.666 L39.259,7 L38.423,7 L38.423,2.666 L37.73,2.666 L37.73,1.929 L38.423,1.929 L38.423,1.247 C38.423,0.246 38.94,-0.348 39.82,-0.348 C39.864,-0.348 39.963,-0.348 40.051,-0.337 L40.051,0.411 C39.446,0.477 39.281,0.653 39.259,1.247 L39.259,1.929 L40.051,1.929 L40.051,2.666 L39.259,2.666 Z M42.251,1.929 L42.251,7 L41.415,7 L41.415,1.929 L42.251,1.929 Z M41.833,-0.04 C42.13,-0.04 42.361,0.202 42.361,0.51 C42.361,0.807 42.13,1.038 41.833,1.038 C41.525,1.038 41.294,0.807 41.294,0.499 C41.294,0.191 41.525,-0.04 41.833,-0.04 Z M45.551,5.163 L44.198,7 L43.175,7 L45.045,4.481 L43.142,1.929 L44.198,1.929 L45.551,3.788 L46.937,1.929 L47.96,1.929 L46.046,4.481 L47.872,7 L46.849,7 L45.551,5.163 Z M53.548,4.734 L49.324,4.734 C49.368,5.163 49.445,5.383 49.654,5.658 C49.984,6.109 50.468,6.351 51.018,6.351 C51.645,6.351 52.239,6.01 52.536,5.482 L53.273,5.757 C52.855,6.604 51.986,7.121 51.018,7.121 C49.511,7.121 48.433,6.021 48.433,4.481 C48.433,2.919 49.5,1.808 50.985,1.808 C52.459,1.808 53.559,2.919 53.559,4.404 C53.559,4.47 53.559,4.613 53.548,4.734 Z M49.335,4.118 L52.668,4.118 C52.635,3.722 52.558,3.502 52.382,3.249 C52.063,2.82 51.546,2.556 50.985,2.556 C50.424,2.556 49.918,2.82 49.621,3.26 C49.467,3.502 49.401,3.711 49.335,4.118 Z M58.564,2.699 L58.564,-0.337 L59.4,-0.337 L59.4,7 L58.564,7 L58.564,6.131 C58.058,6.824 57.519,7.121 56.749,7.121 C55.352,7.121 54.362,6.032 54.362,4.492 C54.362,2.952 55.374,1.808 56.749,1.808 C57.497,1.808 58.069,2.083 58.564,2.699 Z M56.925,2.556 C55.924,2.556 55.242,3.348 55.242,4.503 C55.242,5.614 55.913,6.395 56.87,6.395 C57.849,6.395 58.564,5.581 58.564,4.481 C58.564,3.337 57.893,2.556 56.925,2.556 Z M60.632,-0.029 L61.182,-0.557 C62.491,1.049 63.074,2.589 63.074,4.437 C63.074,6.34 62.381,8.188 61.16,9.574 L60.632,9.024 C61.743,7.649 62.293,6.12 62.293,4.47 C62.293,2.853 61.71,1.269 60.632,-0.029 Z"/>
    </g>
    <g fill="#6FEAD9" transform="translate(242 36)">
      <path d="M11.904,4.455 L11.904,11 L10.98,11 L10.98,4.455 L9.11,4.455 L9.11,3.663 L13.763,3.663 L13.763,4.455 L11.904,4.455 Z M15.138,9.944 C15.468,9.944 15.71,10.186 15.71,10.527 C15.71,10.846 15.457,11.088 15.138,11.088 C14.808,11.088 14.566,10.846 14.566,10.516 C14.566,10.186 14.808,9.944 15.138,9.944 Z M15.138,6.776 C15.468,6.776 15.71,7.018 15.71,7.359 C15.71,7.678 15.457,7.92 15.138,7.92 C14.808,7.92 14.566,7.678 14.566,7.348 C14.566,7.018 14.808,6.776 15.138,6.776 Z M19.252,4.994 L17.635,6.072 L17.635,5.236 L20.121,3.608 L20.121,11 L19.252,11 L19.252,4.994 Z M26.006,3.773 L24.125,6.71 C24.433,6.6 24.576,6.567 24.84,6.567 C26.061,6.567 27.007,7.524 27.007,8.767 C27.007,10.065 25.94,11.132 24.642,11.132 C23.333,11.132 22.321,10.098 22.321,8.767 C22.321,8.228 22.464,7.821 22.882,7.15 L24.983,3.773 L26.006,3.773 Z M24.686,7.315 C23.85,7.315 23.19,7.953 23.19,8.767 C23.19,9.625 23.839,10.307 24.664,10.307 C25.489,10.307 26.149,9.636 26.149,8.8 C26.149,7.975 25.5,7.315 24.686,7.315 Z M32.045,6.699 L32.045,3.663 L32.881,3.663 L32.881,11 L32.045,11 L32.045,10.131 C31.539,10.824 31,11.121 30.23,11.121 C28.833,11.121 27.843,10.032 27.843,8.492 C27.843,6.952 28.855,5.808 30.23,5.808 C30.978,5.808 31.55,6.083 32.045,6.699 Z M30.406,6.556 C29.405,6.556 28.723,7.348 28.723,8.503 C28.723,9.614 29.394,10.395 30.351,10.395 C31.33,10.395 32.045,9.581 32.045,8.481 C32.045,7.337 31.374,6.556 30.406,6.556 Z M34.564,5.929 L35.4,5.929 L35.4,6.853 C35.884,6.105 36.401,5.808 37.248,5.808 C38.656,5.808 39.635,6.886 39.635,8.426 C39.635,10.021 38.656,11.121 37.248,11.121 C36.852,11.121 36.489,11.033 36.137,10.857 C35.829,10.703 35.675,10.571 35.4,10.208 L35.4,13.376 L34.564,13.376 L34.564,5.929 Z M37.105,6.556 C36.093,6.556 35.4,7.359 35.4,8.547 C35.4,9.658 36.071,10.395 37.072,10.395 C38.073,10.395 38.744,9.614 38.744,8.459 C38.744,7.865 38.601,7.414 38.304,7.084 C38.007,6.754 37.556,6.556 37.105,6.556 Z M46.279,13.046 L45.729,13.574 C44.431,11.979 43.837,10.428 43.837,8.58 C43.837,6.688 44.53,4.818 45.751,3.443 L46.279,3.993 C45.168,5.368 44.618,6.897 44.618,8.547 C44.618,10.153 45.212,11.759 46.279,13.046 Z M48.435,6.666 L48.435,11 L47.599,11 L47.599,6.666 L46.906,6.666 L46.906,5.929 L47.599,5.929 L47.599,5.247 C47.599,4.246 48.116,3.652 48.996,3.652 C49.04,3.652 49.139,3.652 49.227,3.663 L49.227,4.411 C48.622,4.477 48.457,4.653 48.435,5.247 L48.435,5.929 L49.227,5.929 L49.227,6.666 L48.435,6.666 Z M51.427,5.929 L51.427,11 L50.591,11 L50.591,5.929 L51.427,5.929 Z M51.009,3.96 C51.306,3.96 51.537,4.202 51.537,4.51 C51.537,4.807 51.306,5.038 51.009,5.038 C50.701,5.038 50.47,4.807 50.47,4.499 C50.47,4.191 50.701,3.96 51.009,3.96 Z M54.727,9.163 L53.374,11 L52.351,11 L54.221,8.481 L52.318,5.929 L53.374,5.929 L54.727,7.788 L56.113,5.929 L57.136,5.929 L55.222,8.481 L57.048,11 L56.025,11 L54.727,9.163 Z M62.724,8.734 L58.5,8.734 C58.544,9.163 58.621,9.383 58.83,9.658 C59.16,10.109 59.644,10.351 60.194,10.351 C60.821,10.351 61.415,10.01 61.712,9.482 L62.449,9.757 C62.031,10.604 61.162,11.121 60.194,11.121 C58.687,11.121 57.609,10.021 57.609,8.481 C57.609,6.919 58.676,5.808 60.161,5.808 C61.635,5.808 62.735,6.919 62.735,8.404 C62.735,8.47 62.735,8.613 62.724,8.734 Z M58.511,8.118 L61.844,8.118 C61.811,7.722 61.734,7.502 61.558,7.249 C61.239,6.82 60.722,6.556 60.161,6.556 C59.6,6.556 59.094,6.82 58.797,7.26 C58.643,7.502 58.577,7.711 58.511,8.118 Z M67.74,6.699 L67.74,3.663 L68.576,3.663 L68.576,11 L67.74,11 L67.74,10.131 C67.234,10.824 66.695,11.121 65.925,11.121 C64.528,11.121 63.538,10.032 63.538,8.492 C63.538,6.952 64.55,5.808 65.925,5.808 C66.673,5.808 67.245,6.083 67.74,6.699 Z M66.101,6.556 C65.1,6.556 64.418,7.348 64.418,8.503 C64.418,9.614 65.089,10.395 66.046,10.395 C67.025,10.395 67.74,9.581 67.74,8.481 C67.74,7.337 67.069,6.556 66.101,6.556 Z M69.808,3.971 L70.358,3.443 C71.667,5.049 72.25,6.589 72.25,8.437 C72.25,10.34 71.557,12.188 70.336,13.574 L69.808,13.024 C70.919,11.649 71.469,10.12 71.469,8.47 C71.469,6.853 70.886,5.269 69.808,3.971 Z"/>
      <rect width="1" height="15" x="4" y="1"/>
      <rect width="9" height="1"/>
      <rect width="9" height="1" y="16"/>
    </g>
    <g transform="translate(287 148)">
      <path fill="#C41261" d="M21.476,6.765 L21.476,5.929 L22.312,5.929 L22.312,11 L21.476,11 L21.476,10.021 C20.97,10.78 20.398,11.121 19.628,11.121 C18.231,11.121 17.241,10.021 17.241,8.481 C17.241,6.93 18.253,5.808 19.65,5.808 C20.42,5.808 20.981,6.105 21.476,6.765 Z M19.771,6.556 C19.221,6.556 18.836,6.743 18.539,7.161 C18.275,7.524 18.121,8.008 18.121,8.503 C18.121,9.581 18.825,10.395 19.749,10.395 C20.706,10.395 21.487,9.504 21.487,8.415 C21.487,7.315 20.783,6.556 19.771,6.556 Z M23.995,5.929 L24.831,5.929 L24.831,6.644 C25.271,6.05 25.711,5.808 26.338,5.808 C26.8,5.808 27.218,5.962 27.515,6.226 C27.834,6.534 27.944,6.886 27.944,7.579 L27.944,11 L27.108,11 L27.108,7.766 C27.108,7.315 27.053,7.073 26.921,6.897 C26.767,6.688 26.47,6.556 26.129,6.556 C25.755,6.556 25.414,6.699 25.161,6.985 C24.919,7.249 24.831,7.491 24.831,7.909 L24.831,11 L23.995,11 L23.995,5.929 Z M33.026,9.801 L33.543,10.373 C32.971,10.89 32.41,11.121 31.673,11.121 C30.221,11.121 29.187,10.021 29.187,8.481 C29.187,6.908 30.232,5.808 31.717,5.808 C32.443,5.808 33.037,6.05 33.565,6.567 L33.026,7.106 C32.641,6.754 32.212,6.578 31.739,6.578 C30.738,6.578 30.045,7.348 30.045,8.448 C30.045,9.57 30.738,10.351 31.728,10.351 C32.223,10.351 32.619,10.186 33.026,9.801 Z M35.457,3.663 L35.457,6.633 C35.919,6.061 36.381,5.808 36.986,5.808 C37.426,5.808 37.888,5.984 38.163,6.27 C38.438,6.545 38.559,6.941 38.559,7.59 L38.559,11 L37.723,11 L37.723,7.634 C37.723,6.941 37.382,6.556 36.777,6.556 C36.392,6.556 36.051,6.71 35.787,7.007 C35.534,7.293 35.457,7.546 35.457,8.03 L35.457,11 L34.621,11 L34.621,3.663 L35.457,3.663 Z M42.398,5.808 C43.894,5.808 44.961,6.919 44.961,8.481 C44.961,9.966 43.817,11.121 42.365,11.121 C40.858,11.121 39.802,10.021 39.802,8.459 C39.802,6.886 40.858,5.808 42.398,5.808 Z M42.398,6.578 C41.353,6.578 40.66,7.337 40.66,8.47 C40.66,9.592 41.353,10.351 42.387,10.351 C43.388,10.351 44.103,9.57 44.103,8.47 C44.103,7.337 43.421,6.578 42.398,6.578 Z M46.237,5.929 L47.073,5.929 L47.073,6.787 C47.227,6.424 47.337,6.27 47.535,6.116 C47.788,5.918 48.14,5.808 48.503,5.808 L48.701,5.808 L48.701,6.655 C48.613,6.644 48.525,6.644 48.47,6.644 C48.019,6.644 47.623,6.853 47.37,7.227 C47.15,7.546 47.073,7.843 47.073,8.426 L47.073,11 L46.237,11 L46.237,5.929 Z M53.871,10.131 L53.871,11 L53.035,11 L53.035,3.663 L53.871,3.663 L53.871,6.798 C54.377,6.105 54.916,5.808 55.653,5.808 C57.072,5.808 58.062,6.908 58.062,8.481 C58.062,10.032 57.083,11.121 55.697,11.121 C54.916,11.121 54.366,10.824 53.871,10.131 Z M55.543,6.556 C54.575,6.556 53.86,7.359 53.86,8.47 C53.86,9.625 54.52,10.395 55.51,10.395 C56.511,10.395 57.182,9.636 57.182,8.503 C57.182,7.37 56.5,6.556 55.543,6.556 Z M62.286,5.929 L63.133,5.929 L63.133,9.174 C63.133,9.867 63.001,10.252 62.627,10.593 C62.253,10.934 61.736,11.121 61.164,11.121 C60.592,11.121 60.064,10.923 59.701,10.582 C59.36,10.252 59.195,9.79 59.195,9.174 L59.195,5.929 L60.031,5.929 L60.031,9.152 C60.031,9.867 60.493,10.373 61.164,10.373 C61.516,10.373 61.857,10.23 62.066,9.988 C62.231,9.79 62.286,9.581 62.286,9.174 L62.286,5.929 Z M65.564,6.666 L65.564,9.966 C65.575,10.219 65.641,10.274 65.949,10.274 L66.334,10.274 L66.334,11 L65.553,11 C64.959,10.989 64.728,10.769 64.728,10.208 L64.728,6.666 L64.024,6.666 L64.024,5.929 L64.728,5.929 L64.728,4.334 L65.564,4.334 L65.564,5.929 L66.334,5.929 L66.334,6.666 L65.564,6.666 Z M68.413,6.666 L68.413,9.966 C68.424,10.219 68.49,10.274 68.798,10.274 L69.183,10.274 L69.183,11 L68.402,11 C67.808,10.989 67.577,10.769 67.577,10.208 L67.577,6.666 L66.873,6.666 L66.873,5.929 L67.577,5.929 L67.577,4.334 L68.413,4.334 L68.413,5.929 L69.183,5.929 L69.183,6.666 L68.413,6.666 Z M72.56,5.808 C74.056,5.808 75.123,6.919 75.123,8.481 C75.123,9.966 73.979,11.121 72.527,11.121 C71.02,11.121 69.964,10.021 69.964,8.459 C69.964,6.886 71.02,5.808 72.56,5.808 Z M72.56,6.578 C71.515,6.578 70.822,7.337 70.822,8.47 C70.822,9.592 71.515,10.351 72.549,10.351 C73.55,10.351 74.265,9.57 74.265,8.47 C74.265,7.337 73.583,6.578 72.56,6.578 Z M76.399,5.929 L77.235,5.929 L77.235,6.644 C77.675,6.05 78.115,5.808 78.742,5.808 C79.204,5.808 79.622,5.962 79.919,6.226 C80.238,6.534 80.348,6.886 80.348,7.579 L80.348,11 L79.512,11 L79.512,7.766 C79.512,7.315 79.457,7.073 79.325,6.897 C79.171,6.688 78.874,6.556 78.533,6.556 C78.159,6.556 77.818,6.699 77.565,6.985 C77.323,7.249 77.235,7.491 77.235,7.909 L77.235,11 L76.399,11 L76.399,5.929 Z M86.189,6.666 L86.189,9.966 C86.2,10.219 86.266,10.274 86.574,10.274 L86.959,10.274 L86.959,11 L86.178,11 C85.584,10.989 85.353,10.769 85.353,10.208 L85.353,6.666 L84.649,6.666 L84.649,5.929 L85.353,5.929 L85.353,4.334 L86.189,4.334 L86.189,5.929 L86.959,5.929 L86.959,6.666 L86.189,6.666 Z M90.336,5.808 C91.832,5.808 92.899,6.919 92.899,8.481 C92.899,9.966 91.755,11.121 90.303,11.121 C88.796,11.121 87.74,10.021 87.74,8.459 C87.74,6.886 88.796,5.808 90.336,5.808 Z M90.336,6.578 C89.291,6.578 88.598,7.337 88.598,8.47 C88.598,9.592 89.291,10.351 90.325,10.351 C91.326,10.351 92.041,9.57 92.041,8.47 C92.041,7.337 91.359,6.578 90.336,6.578 Z M98.311,10.131 L98.311,11 L97.475,11 L97.475,3.663 L98.311,3.663 L98.311,6.798 C98.817,6.105 99.356,5.808 100.093,5.808 C101.512,5.808 102.502,6.908 102.502,8.481 C102.502,10.032 101.523,11.121 100.137,11.121 C99.356,11.121 98.806,10.824 98.311,10.131 Z M99.983,6.556 C99.015,6.556 98.3,7.359 98.3,8.47 C98.3,9.625 98.96,10.395 99.95,10.395 C100.951,10.395 101.622,9.636 101.622,8.503 C101.622,7.37 100.94,6.556 99.983,6.556 Z M105.967,5.808 C107.463,5.808 108.53,6.919 108.53,8.481 C108.53,9.966 107.386,11.121 105.934,11.121 C104.427,11.121 103.371,10.021 103.371,8.459 C103.371,6.886 104.427,5.808 105.967,5.808 Z M105.967,6.578 C104.922,6.578 104.229,7.337 104.229,8.47 C104.229,9.592 104.922,10.351 105.956,10.351 C106.957,10.351 107.672,9.57 107.672,8.47 C107.672,7.337 106.99,6.578 105.967,6.578 Z M110.697,6.666 L110.697,9.966 C110.708,10.219 110.774,10.274 111.082,10.274 L111.467,10.274 L111.467,11 L110.686,11 C110.092,10.989 109.861,10.769 109.861,10.208 L109.861,6.666 L109.157,6.666 L109.157,5.929 L109.861,5.929 L109.861,4.334 L110.697,4.334 L110.697,5.929 L111.467,5.929 L111.467,6.666 L110.697,6.666 Z M113.546,6.666 L113.546,9.966 C113.557,10.219 113.623,10.274 113.931,10.274 L114.316,10.274 L114.316,11 L113.535,11 C112.941,10.989 112.71,10.769 112.71,10.208 L112.71,6.666 L112.006,6.666 L112.006,5.929 L112.71,5.929 L112.71,4.334 L113.546,4.334 L113.546,5.929 L114.316,5.929 L114.316,6.666 L113.546,6.666 Z M117.693,5.808 C119.189,5.808 120.256,6.919 120.256,8.481 C120.256,9.966 119.112,11.121 117.66,11.121 C116.153,11.121 115.097,10.021 115.097,8.459 C115.097,6.886 116.153,5.808 117.693,5.808 Z M117.693,6.578 C116.648,6.578 115.955,7.337 115.955,8.47 C115.955,9.592 116.648,10.351 117.682,10.351 C118.683,10.351 119.398,9.57 119.398,8.47 C119.398,7.337 118.716,6.578 117.693,6.578 Z M121.532,5.929 L122.368,5.929 L122.368,6.633 C122.753,6.05 123.182,5.808 123.809,5.808 C124.502,5.808 124.942,6.105 125.173,6.732 C125.547,6.083 126.02,5.808 126.779,5.808 C127.362,5.808 127.802,5.995 128.066,6.347 C128.308,6.666 128.374,6.952 128.374,7.755 L128.374,11 L127.538,11 L127.538,7.953 C127.538,7.337 127.516,7.194 127.395,6.985 C127.241,6.721 126.911,6.556 126.515,6.556 C125.778,6.556 125.371,7.051 125.371,7.953 L125.371,11 L124.535,11 L124.535,7.964 C124.535,7.469 124.491,7.216 124.37,6.996 C124.227,6.71 123.919,6.556 123.545,6.556 C122.808,6.556 122.368,7.084 122.368,7.964 L122.368,11 L121.532,11 L121.532,5.929 Z"/>
      <g transform="translate(0 6.28)">
        <polyline stroke="#979797" stroke-linecap="round" stroke-linejoin="round" points=".48 4.72 6 0 6 0 11.52 4.72" transform="rotate(180 6 2.36)"/>
        <path stroke="#C41261" d="M11.76,6.47 L0.24,6.47"/>
      </g>
    </g>
  </g>
</svg>
