<svg xmlns="http://www.w3.org/2000/svg" xmlns:xlink="http://www.w3.org/1999/xlink" width="376" height="656" viewBox="0 0 376 656">
  <defs>
    <rect id="3-b" width="360" height="640"/>
    <filter id="3-a" width="106.9%" height="103.9%" x="-3.5%" y="-1.8%" filterUnits="objectBoundingBox">
      <feOffset dy="1" in="SourceAlpha" result="shadowOffsetOuter1"/>
      <feGaussianBlur in="shadowOffsetOuter1" result="shadowBlurOuter1" stdDeviation="4"/>
      <feColorMatrix in="shadowBlurOuter1" result="shadowMatrixOuter1" values="0 0 0 0 0   0 0 0 0 0   0 0 0 0 0  0 0 0 0.2 0"/>
      <feMorphology in="SourceAlpha" radius="1" result="shadowSpreadOuter2"/>
      <feOffset dy="3" in="shadowSpreadOuter2" result="shadowOffsetOuter2"/>
      <feGaussianBlur in="shadowOffsetOuter2" result="shadowBlurOuter2" stdDeviation="1.5"/>
      <feColorMatrix in="shadowBlurOuter2" result="shadowMatrixOuter2" values="0 0 0 0 0   0 0 0 0 0   0 0 0 0 0  0 0 0 0.12 0"/>
      <feOffset dy="3" in="SourceAlpha" result="shadowOffsetOuter3"/>
      <feGaussianBlur in="shadowOffsetOuter3" result="shadowBlurOuter3" stdDeviation="2"/>
      <feColorMatrix in="shadowBlurOuter3" result="shadowMatrixOuter3" values="0 0 0 0 0   0 0 0 0 0   0 0 0 0 0  0 0 0 0.14 0"/>
      <feMerge>
        <feMergeNode in="shadowMatrixOuter1"/>
        <feMergeNode in="shadowMatrixOuter2"/>
        <feMergeNode in="shadowMatrixOuter3"/>
      </feMerge>
    </filter>
    <linearGradient id="3-c" x1="-12.779%" x2="65.803%" y1="-20.088%" y2="87.803%">
      <stop offset="0%" stop-color="#266900"/>
      <stop offset="10%" stop-color="#357A0C"/>
      <stop offset="34%" stop-color="#539D26"/>
      <stop offset="57%" stop-color="#6AB738"/>
      <stop offset="78%" stop-color="#77C743"/>
      <stop offset="94%" stop-color="#7CCC47"/>
    </linearGradient>
    <linearGradient id="3-d" x1="17.52%" x2="84.52%" y1="21.84%" y2="82.98%">
      <stop offset="0%" stop-color="#266900" stop-opacity=".94"/>
      <stop offset="72%" stop-color="#7CCC47" stop-opacity="0"/>
    </linearGradient>
    <linearGradient id="3-e" x1="-37.982%" y1="50.002%" y2="50.002%">
      <stop offset="0%" stop-color="#266900"/>
      <stop offset="10%" stop-color="#357A0C"/>
      <stop offset="34%" stop-color="#539D26"/>
      <stop offset="57%" stop-color="#6AB738"/>
      <stop offset="78%" stop-color="#77C743"/>
      <stop offset="94%" stop-color="#7CCC47"/>
    </linearGradient>
    <linearGradient id="3-f" x1="50.006%" x2="50.006%" y1="-68.257%" y2="163.674%">
      <stop offset="0%" stop-color="#6DB33F" stop-opacity=".94"/>
      <stop offset="29%" stop-color="#73BD42" stop-opacity=".96"/>
      <stop offset="79%" stop-color="#7CCC47"/>
    </linearGradient>
  </defs>
  <g fill="none" fill-rule="evenodd" transform="translate(8 7)">
    <use fill="#000" filter="url(#3-a)" xlink:href="#3-b"/>
    <use fill="#F7F7F7" xlink:href="#3-b"/>
    <rect width="360" height="640" fill="#FFF"/>
    <g fill="#61717D" transform="translate(138.08 582.19)">
      <path d="M35.9771037 12.2731896L32.3104576 1.67224141C32.26255 1.52598468 32.1929698 1.33235735 32.1929698 1.16300745 32.1929698.702920497 32.5671058.267110973 33.1026448.267110973 33.5703147.267110973 33.8748705.581533333 34.0157418 1.04162029L37.0527445 10.1758563 40.1125603 1.01615859C40.2517206.581533333 40.5334632.267110973 40.9982815.267110973L41.0929561.267110973C41.5845798.267110973 41.8879949.581533333 42.0271552 1.01615859L45.0630172 10.1758563 48.1496386.994249689C48.266556.605218634 48.5220635.267110973 49.0131169.267110973 49.5269834.267110973 49.9011194.677458799 49.9011194 1.13932215 49.9011194 1.30867205 49.8303985 1.50111511 49.7847722 1.64855611L46.0941723 12.2731896C45.9053934 12.8280178 45.5329685 13.119347 45.1120656 13.119347L45.0424854 13.119347C44.5742452 13.119347 44.2229224 12.8280178 44.0586676 12.2731896L41.0479001 3.26566998 38.0091864 12.2731896C37.8460723 12.8280178 37.4953199 13.119347 37.029361 13.119347L36.9803127 13.119347C36.5371669 13.119347 36.1641716 12.8280178 35.9771037 12.2731896M62.7065485 1.19125217C62.7065485.679649689 63.1034976.242655901 63.594551.242655901 64.1106988.242655901 64.5076479.655372257 64.5076479 1.19125217L64.5076479 3.34246957C65.3962207 1.25283395 67.3667079.266933333 68.6727616.266933333 69.2128633.266933333 69.5641861.679649689 69.5641861 1.21375321 69.5641861 1.72417143 69.2368172 2.08714865 68.7662956 2.16116522 66.4256648 2.45249441 64.5076479 4.27507826 64.5076479 7.89656066L64.5076479 12.1545855C64.5076479 12.6650037 64.133512 13.1014054 63.6190751 13.1014054 63.1034976 13.1014054 62.7065485 12.6875048 62.7065485 12.1545855L62.7065485 1.19125217M78.8529087 6.02980373C78.669833 3.76844969 77.4293671 1.79842484 75.0687748 1.79842484 73.0047537 1.79842484 71.4449035 3.59969193 71.2196234 6.02980373L78.8529087 6.02980373zM75.3448141 13.2206609C72.0888051 13.2206609 69.4287899 10.598106 69.4287899 6.75161325L69.4287899 6.70187412C69.4287899 3.12065673 71.8361492.234602899 75.1155418.234602899 78.6219254.234602899 80.619218 3.2384911 80.619218 6.53430062 80.619218 7.03998178 80.2256909 7.40118261 79.7922408 7.40118261L71.2196234 7.40118261C71.4699979 10.0924248 73.2802226 11.6082841 75.3915811 11.6082841 76.8584677 11.6082841 77.9346788 11.0060853 78.806712 10.164665 78.943591 10.0456464 79.1049942 9.94972091 79.3120236 9.94972091 79.7460441 9.94972091 80.0910932 10.3103296 80.0910932 10.7449549 80.0910932 10.959899 80.0004109 11.1766195 79.8150539 11.3436008 78.6926462 12.4733896 77.3620683 13.2206609 75.3448141 13.2206609zM58.8231774 8.35842402L58.8231774 7.14692091C57.9351749 6.88046128 56.7437573 6.61281739 55.2757301 6.61281739 53.0149454 6.61281739 51.7533773 7.6312853 51.7533773 9.20458137L51.7533773 9.25313623C51.7533773 10.8270244 53.152965 11.7477905 54.786958 11.7477905 57.0015461 11.7477905 58.8231774 10.34266 58.8231774 8.35842402M49.9340273 9.32774493L49.9340273 9.2780058C49.9340273 6.63827909 52.0339792 5.23255652 55.0886621 5.23255652 56.6291211 5.23255652 57.7252938 5.45046128 58.8009345 5.76666004L58.8009345 5.32907412C58.8009345 3.07778634 57.467505 1.91365383 55.2072906 1.91365383 53.9924895 1.91365383 53.286422 2.07412174 52.3984196 2.48446957 52.2832131 2.53361656 52.1657253 2.55848613 52.0739023 2.55848613 51.65414 2.55848613 51.2794338 2.19432464 51.2794338 1.75851511 51.2794338 1.37185259 51.4419776 1.13322319 51.7704872.9822294 52.9579125.446941615 53.8544699.268709731 55.3932179.268709731 57.0950801.268709731 58.4022744.727612422 59.2868549 1.64837847 60.1041366 2.49690435 60.5250395 3.70781532 60.5250395 5.30598095L60.5250395 12.2179437C60.5250395 12.7484944 60.1520443 13.1369333 59.6592799 13.1369333 59.148265 13.1369333 58.8009345 12.7484944 58.8009345 12.2653143L58.8009345 11.0697988C57.9602694 12.2096538 56.5589707 13.2263453 54.4396276 13.2263453 52.198234 13.2263453 49.9340273 11.8946393 49.9340273 9.32774493M3.29405002 1.05304845C2.89881193.153599172 1.92240844-.253787992 1.01045214.167218219.0979255136.588816563-.237998351 1.63925963.174349619 2.53930104L4.00239882 11.1779222C4.60466639 12.5327213 5.23944273 13.2420961 6.42971965 13.2420961 7.70212396 13.2420961 8.25705422 12.4693631 8.85818113 11.1779222 8.85818113 11.1779222 12.1974583 3.62941698 12.2311077 3.55125549 12.2653274 3.47072547 12.371979 3.22676687 12.7118951 3.22854327 12.999341 3.23209607 13.2411606 3.4695412 13.2411606 3.78810849L13.2411606 11.1708166C13.2411606 12.3083031 13.8491315 13.2420961 15.0183062 13.2420961 16.1869106 13.2420961 16.8188353 12.3083031 16.8188353 11.1708166L16.8188353 5.13106501C16.8188353 3.96574824 17.6229994 3.21018716 18.7186017 3.21018716 19.8147743 3.21018716 20.5442252 3.99180207 20.5442252 5.13106501L20.5442252 11.1708166C20.5442252 12.3083031 21.1539071 13.2420961 22.3213709 13.2420961 23.4899753 13.2420961 24.1247516 12.3083031 24.1247516 11.1708166L24.1247516 5.13106501C24.1247516 3.96574824 24.9254937 3.21018716 26.022807 3.21018716 27.1166983 3.21018716 27.8484306 3.99180207 27.8484306 5.13106501L27.8484306 11.1708166C27.8484306 12.3083031 28.4575421 13.2420961 29.6261465 13.2420961 30.7936103 13.2420961 31.4272459 12.3083031 31.4272459 11.1708166L31.4272459 4.29615818C31.4272459 1.76952878 29.4715873.000236853002 27.1166983.000236853002 24.7640906.000236853002 23.2915007 1.68899876 23.2915007 1.68899876 22.5084388.635002899 21.4288057.00142111801 19.6026118.00142111801 17.6754697.00142111801 15.9884361 1.68899876 15.9884361 1.68899876 15.2048038.635002899 13.870804.00142111801 12.7666467.00142111801 11.058511.00142111801 9.70226826.78185176 8.87472068 2.74595528L6.42971965 8.72886211 3.29405002 1.05304845M83.4617385 1.79120083L83.4617385 1.7870559C83.4617385 1.09189234 82.9444499.521668737 82.254922.521668737 81.5716677.521668737 81.0463946 1.10136646 81.0463946 1.79120083L81.0463946 1.79949068C81.0463946 2.49287785 81.5659644 3.06310145 82.254922 3.06310145 82.9370357 3.06310145 83.4617385 2.48340373 83.4617385 1.79120083M80.7640816 1.80185921L80.7640816 1.79120083C80.7640816.946227743 81.4245228.234484472 82.254922.234484472 83.0972982.234484472 83.7480437.939122153 83.7480437 1.78468737L83.7480437 1.79120083C83.7480437 2.63972671 83.0893135 3.35146998 82.254922 3.35146998 81.4131162 3.35146998 80.7640816 2.64920083 80.7640816 1.80185921"/>
      <path d="M82.3258139,1.74175776 C82.4803731,1.74175776 82.5664928,1.65767495 82.5664928,1.52977433 L82.5664928,1.52444513 C82.5664928,1.38470186 82.4746698,1.31009317 82.3201106,1.31009317 L82.0030076,1.31009317 L82.0030076,1.74175776 L82.3258139,1.74175776 Z M81.6841936,1.17804762 C81.6841936,1.08626708 81.7549145,1.01284265 81.8444561,1.01284265 L82.3429238,1.01284265 C82.5299918,1.01284265 82.6748554,1.06791097 82.7649674,1.16620497 C82.8470948,1.24910352 82.8910101,1.36871429 82.8910101,1.50786542 L82.8910101,1.51260248 C82.8910101,1.74945549 82.7763739,1.89334369 82.6024236,1.96913665 L82.8220003,2.24803106 C82.852798,2.2888882 82.8739002,2.32323188 82.8739002,2.37415528 C82.8739002,2.46593582 82.7991871,2.52633333 82.722763,2.52633333 C82.6520422,2.52633333 82.6047049,2.48902899 82.5664928,2.44165839 L82.2568041,2.03486335 L82.0030076,2.03486335 L82.0030076,2.3617205 C82.0030076,2.45350104 81.9339978,2.52633333 81.8444561,2.52633333 C81.7549145,2.52633333 81.6841936,2.45350104 81.6841936,2.3617205 L81.6841936,1.17804762 Z"/>
    </g>
    <g transform="translate(100 104)">
      <path fill="#495A67" d="M2.145,207.596 C2.145,207.353 2.226,207.11 2.361,206.84 L9.381,191.18 C9.759,190.343 10.434,189.83 11.379,189.83 L11.541,189.83 C12.486,189.83 13.134,190.343 13.512,191.18 L20.532,206.84 C20.667,207.083 20.721,207.326 20.721,207.542 C20.721,208.433 20.046,209.135 19.155,209.135 C18.372,209.135 17.832,208.676 17.535,207.974 L15.996,204.437 L6.816,204.437 L5.223,208.082 C4.953,208.757 4.386,209.135 3.684,209.135 C2.82,209.135 2.145,208.46 2.145,207.596 Z M8.085,201.494 L14.727,201.494 L11.406,193.853 L8.085,201.494 Z M23.934,211.835 L23.934,196.229 C23.934,195.311 24.636,194.582 25.554,194.582 C26.472,194.582 27.201,195.311 27.201,196.229 L27.201,197.12 C28.254,195.635 29.739,194.447 32.061,194.447 C35.409,194.447 38.676,197.093 38.676,201.845 L38.676,201.899 C38.676,206.624 35.436,209.297 32.061,209.297 C29.685,209.297 28.2,208.109 27.201,206.786 L27.201,211.835 C27.201,212.753 26.472,213.455 25.554,213.455 C24.663,213.455 23.934,212.753 23.934,211.835 Z M31.278,206.462 C33.519,206.462 35.355,204.707 35.355,201.899 L35.355,201.845 C35.355,199.091 33.492,197.282 31.278,197.282 C29.064,197.282 27.12,199.118 27.12,201.845 L27.12,201.899 C27.12,204.626 29.064,206.462 31.278,206.462 Z M42.051,211.835 L42.051,196.229 C42.051,195.311 42.753,194.582 43.671,194.582 C44.589,194.582 45.318,195.311 45.318,196.229 L45.318,197.12 C46.371,195.635 47.856,194.447 50.178,194.447 C53.526,194.447 56.793,197.093 56.793,201.845 L56.793,201.899 C56.793,206.624 53.553,209.297 50.178,209.297 C47.802,209.297 46.317,208.109 45.318,206.786 L45.318,211.835 C45.318,212.753 44.589,213.455 43.671,213.455 C42.78,213.455 42.051,212.753 42.051,211.835 Z M49.395,206.462 C51.636,206.462 53.472,204.707 53.472,201.899 L53.472,201.845 C53.472,199.091 51.609,197.282 49.395,197.282 C47.181,197.282 45.237,199.118 45.237,201.845 L45.237,201.899 C45.237,204.626 47.181,206.462 49.395,206.462 Z M60.357,207.515 L60.357,190.775 C60.357,189.884 61.059,189.155 61.977,189.155 C62.895,189.155 63.624,189.884 63.624,190.775 L63.624,207.515 C63.624,208.433 62.895,209.135 61.977,209.135 C61.086,209.135 60.357,208.433 60.357,207.515 Z M67.836,191.072 L67.836,190.91 C67.836,189.938 68.646,189.317 69.699,189.317 C70.752,189.317 71.562,189.938 71.562,190.91 L71.562,191.072 C71.562,192.044 70.752,192.692 69.699,192.692 C68.646,192.692 67.836,192.044 67.836,191.072 Z M68.079,207.515 L68.079,196.229 C68.079,195.311 68.781,194.582 69.699,194.582 C70.617,194.582 71.346,195.311 71.346,196.229 L71.346,207.515 C71.346,208.433 70.617,209.135 69.699,209.135 C68.808,209.135 68.079,208.433 68.079,207.515 Z M82.2,209.324 C77.961,209.324 74.829,206.003 74.829,201.953 L74.829,201.899 C74.829,197.849 77.961,194.447 82.254,194.447 C84.495,194.447 86.034,195.176 87.249,196.229 C87.465,196.418 87.762,196.823 87.762,197.363 C87.762,198.2 87.087,198.848 86.25,198.848 C85.845,198.848 85.494,198.686 85.278,198.524 C84.441,197.822 83.523,197.309 82.227,197.309 C79.851,197.309 78.096,199.361 78.096,201.845 L78.096,201.899 C78.096,204.437 79.851,206.462 82.362,206.462 C83.658,206.462 84.657,205.949 85.548,205.193 C85.737,205.031 86.061,204.842 86.439,204.842 C87.222,204.842 87.843,205.49 87.843,206.273 C87.843,206.705 87.681,207.056 87.384,207.299 C86.115,208.514 84.576,209.324 82.2,209.324 Z M95.133,209.297 C92.46,209.297 90.084,207.758 90.084,204.896 L90.084,204.842 C90.084,201.764 92.487,200.252 95.97,200.252 C97.563,200.252 98.697,200.495 99.804,200.846 L99.804,200.495 C99.804,198.47 98.562,197.39 96.267,197.39 C95.025,197.39 93.999,197.606 93.108,197.957 C92.919,198.011 92.757,198.038 92.595,198.038 C91.839,198.038 91.218,197.444 91.218,196.688 C91.218,196.094 91.623,195.581 92.109,195.392 C93.459,194.879 94.836,194.555 96.699,194.555 C98.832,194.555 100.425,195.122 101.424,196.148 C102.477,197.174 102.963,198.686 102.963,200.549 L102.963,207.569 C102.963,208.46 102.261,209.135 101.37,209.135 C100.425,209.135 99.777,208.487 99.777,207.758 L99.777,207.218 C98.805,208.379 97.32,209.297 95.133,209.297 Z M96.051,206.921 C98.211,206.921 99.858,205.679 99.858,203.87 L99.858,202.898 C99.021,202.574 97.914,202.331 96.618,202.331 C94.512,202.331 93.27,203.222 93.27,204.707 L93.27,204.761 C93.27,206.138 94.485,206.921 96.051,206.921 Z M111.522,209.243 C109.119,209.243 107.418,208.19 107.418,205.058 L107.418,197.552 L106.878,197.552 C106.095,197.552 105.474,196.931 105.474,196.148 C105.474,195.365 106.095,194.744 106.878,194.744 L107.418,194.744 L107.418,192.314 C107.418,191.423 108.147,190.694 109.065,190.694 C109.956,190.694 110.685,191.423 110.685,192.314 L110.685,194.744 L113.25,194.744 C114.033,194.744 114.681,195.365 114.681,196.148 C114.681,196.931 114.033,197.552 113.25,197.552 L110.685,197.552 L110.685,204.545 C110.685,205.814 111.333,206.327 112.44,206.327 C112.818,206.327 113.142,206.246 113.25,206.246 C113.979,206.246 114.627,206.84 114.627,207.596 C114.627,208.19 114.222,208.676 113.763,208.865 C113.061,209.108 112.386,209.243 111.522,209.243 Z M117.786,191.072 L117.786,190.91 C117.786,189.938 118.596,189.317 119.649,189.317 C120.702,189.317 121.512,189.938 121.512,190.91 L121.512,191.072 C121.512,192.044 120.702,192.692 119.649,192.692 C118.596,192.692 117.786,192.044 117.786,191.072 Z M118.029,207.515 L118.029,196.229 C118.029,195.311 118.731,194.582 119.649,194.582 C120.567,194.582 121.296,195.311 121.296,196.229 L121.296,207.515 C121.296,208.433 120.567,209.135 119.649,209.135 C118.758,209.135 118.029,208.433 118.029,207.515 Z M132.339,209.324 C127.992,209.324 124.779,206.003 124.779,201.953 L124.779,201.899 C124.779,197.822 128.019,194.447 132.393,194.447 C136.767,194.447 139.98,197.768 139.98,201.845 L139.98,201.899 C139.98,205.949 136.74,209.324 132.339,209.324 Z M132.393,206.462 C135.039,206.462 136.713,204.41 136.713,201.953 L136.713,201.899 C136.713,199.388 134.904,197.309 132.339,197.309 C129.72,197.309 128.046,199.361 128.046,201.845 L128.046,201.899 C128.046,204.383 129.855,206.462 132.393,206.462 Z M143.301,207.515 L143.301,196.229 C143.301,195.311 144.003,194.582 144.921,194.582 C145.839,194.582 146.568,195.311 146.568,196.229 L146.568,196.931 C147.486,195.608 148.809,194.447 151.023,194.447 C154.236,194.447 156.099,196.607 156.099,199.901 L156.099,207.515 C156.099,208.433 155.397,209.135 154.479,209.135 C153.561,209.135 152.832,208.433 152.832,207.515 L152.832,200.9 C152.832,198.686 151.725,197.417 149.781,197.417 C147.891,197.417 146.568,198.74 146.568,200.954 L146.568,207.515 C146.568,208.433 145.839,209.135 144.921,209.135 C144.03,209.135 143.301,208.433 143.301,207.515 Z"/>
      <g transform="translate(16 16)">
        <rect width="128" height="128"/>
        <path fill="url(#3-c)" d="M109.976774,25.2123297 L73.7353405,4.58781362 C67.6998969,1.1517418 60.3001031,1.1517418 54.2646595,4.58781362 L18.0209319,25.2215054 C11.8756418,28.7206546 8.08095125,35.2486083 8.08143369,42.3202867 L8.08143369,58.4166308 L23.9415054,67.5739068 C25.0524584,68.2158709 26.4217762,68.2152273 27.5321253,67.5722192 C28.6424744,66.929211 29.3245712,65.7418713 29.3207168,64.4587814 L29.3207168,45.1899642 C29.321442,43.9098855 30.0041501,42.7271659 31.1122581,42.0863082 L62.2084588,24.1341935 C63.3170683,23.4941375 64.6829317,23.4941375 65.7915412,24.1341935 L96.8877419,42.0886022 C97.996542,42.7287681 98.6795031,43.9119261 98.6792832,45.1922581 L98.6792832,64.4587814 C98.680009,65.7391132 99.3634144,66.9218966 100.472278,67.561953 C101.581141,68.2020093 102.947164,68.2021939 104.056201,67.5624373 L119.916272,58.4051613 L119.916272,42.3111111 C119.916755,35.2394327 116.122064,28.711479 109.976774,25.2123297 Z"/>
        <path fill="url(#3-d)" d="M116.248315,97.5575627 L67.6702509,125.605161 C65.3990917,126.916416 62.6009083,126.916416 60.3297491,125.605161 L40.861362,114.365018 L103.489606,41.2903226 L119.916272,56.0332616 L119.916272,91.2034409 C119.915696,93.8244265 118.517683,96.2462509 116.248315,97.5575627 Z"/>
        <path fill="#FFF" d="M105.937204,83.2206452 L105.937204,48.5230108 C105.936468,44.2762291 103.67104,40.352167 99.9936918,38.227957 L69.9458065,20.874552 C66.2665286,18.7503199 61.7334714,18.7503199 58.0541935,20.874552 L28.0040143,38.2233692 C24.3266666,40.3475792 22.0612376,44.2716413 22.0605018,48.5184229 L22.0605018,83.2206452 C22.0604184,87.4682463 24.325957,91.3933729 28.0040143,93.5179928 L58.0541935,110.86681 C61.7341042,112.988679 66.2658958,112.988679 69.9458065,110.86681 L99.9959857,93.5179928 C103.67316,91.3927902 105.937761,87.4677734 105.937204,83.2206452 Z"/>
        <path fill="url(#3-e)" d="M119.916272,84.0785663 L119.916273,70.916129 L78.1121147,95.0526165 C69.3817132,100.090386 58.6274624,100.090386 49.8970609,95.0526165 L8.0837276,70.916129 L8.0837276,84.0785663 C8.08353575,91.1087205 11.8340017,97.6049229 17.9222939,101.12 L54.1660215,122.042724 C60.254401,125.556759 67.7547746,125.556759 73.8431541,122.042724 L110.086882,101.12 C116.171642,97.6025918 119.918357,91.1068284 119.916272,84.0785663 Z"/>
        <path fill="url(#3-f)" d="M39.8956272,50.3948387 C39.5355813,49.5781317 38.860974,48.9414369 38.0248293,48.6291783 C37.1886846,48.3169197 36.2618718,48.3555635 35.4546237,48.7363441 C34.6308846,49.0885114 33.9891684,49.7652556 33.6812362,50.6065318 C33.3733039,51.447808 33.4264999,52.3789108 33.8282437,53.1796416 L41.2719713,69.3562724 C42.4418638,71.8933333 43.6759857,73.2215054 45.9905376,73.2215054 C48.4656631,73.2215054 49.5437993,71.7740502 50.7136918,69.3562724 C50.7136918,69.3562724 57.205448,55.2189247 57.2696774,55.0744086 C57.4156871,54.6899045 57.795107,54.4453275 58.2055914,54.4711111 C58.4809685,54.4723105 58.7444507,54.5834921 58.9374428,54.7799305 C59.1304348,54.9763688 59.236936,55.2417774 59.2332616,55.5171326 L59.2332616,69.3149821 C59.2332616,71.4758423 60.4329749,73.2490323 62.7383513,73.2490323 C65.0437276,73.2490323 66.2939068,71.4758423 66.2939068,69.3149821 L66.2939068,57.9853763 C66.2939068,56.0194982 67.594552,54.6936201 69.4319713,54.5055197 C71.5400717,54.276129 73.3499642,56.0080287 73.3499642,58.1253047 L73.3499642,69.317276 C73.3499642,71.4758423 74.5496774,73.2467384 76.8504659,73.2467384 C79.1512545,73.2467384 80.4037276,71.4758423 80.4037276,69.317276 L80.4037276,57.9853763 C80.4037276,55.8589247 81.9222939,54.4802867 84.0005735,54.4802867 C86.078853,54.4802867 87.4597849,55.9070968 87.4597849,57.9853763 L87.4597849,69.3149821 C87.4597849,71.4758423 88.6594982,73.2490323 90.9625806,73.2490323 C93.2656631,73.2490323 94.5089606,71.4758423 94.5089606,69.3149821 L94.5089606,56.4691039 C94.5089606,51.7367742 90.707957,48.4243728 86.1270251,48.4243728 C81.5460932,48.4243728 78.6810036,51.5876703 78.6810036,51.5876703 C77.1601434,49.6126165 75.0612186,48.4266667 71.5102509,48.4266667 C67.7643011,48.4266667 64.4840143,51.5876703 64.4840143,51.5876703 C62.9608602,49.6126165 60.3664516,48.4266667 58.2193548,48.4266667 C54.9000717,48.4266667 52.2551971,49.8878853 50.6494624,53.5650179 L45.8964875,64.7684588 L39.7992832,50.3948387"/>
      </g>
    </g>
    <path fill="#495A67" d="M61.9335,350.473 C61.9335,350.371 61.9505,350.252 62.0185,350.116 L66.8465,339.559 C67.0165,339.185 67.2715,338.964 67.6965,338.964 L67.7645,338.964 C68.1725,338.964 68.4445,339.185 68.5975,339.559 L73.4255,350.099 C73.4765,350.218 73.5105,350.337 73.5105,350.439 C73.5105,350.796 73.2215,351.085 72.8645,351.085 C72.5415,351.085 72.3205,350.864 72.2015,350.592 L70.9605,347.855 L64.4325,347.855 L63.1915,350.626 C63.0725,350.915 62.8515,351.085 62.5455,351.085 C62.2055,351.085 61.9335,350.813 61.9335,350.473 Z M64.9595,346.631 L70.4335,346.631 L67.6965,340.545 L64.9595,346.631 Z M75.8565,350.422 L75.8565,342.789 C75.8565,342.432 76.1455,342.126 76.5025,342.126 C76.8765,342.126 77.1655,342.415 77.1655,342.789 L77.1655,343.741 C77.7435,342.789 78.6615,342.024 80.1745,342.024 C82.2995,342.024 83.5405,343.452 83.5405,345.543 L83.5405,350.422 C83.5405,350.796 83.2515,351.085 82.8945,351.085 C82.5205,351.085 82.2315,350.796 82.2315,350.422 L82.2315,345.866 C82.2315,344.234 81.3475,343.214 79.8005,343.214 C78.2875,343.214 77.1655,344.319 77.1655,345.968 L77.1655,350.422 C77.1655,350.796 76.8935,351.085 76.5195,351.085 C76.1455,351.085 75.8565,350.796 75.8565,350.422 Z M94.0465,351.187 C92.4145,351.187 90.7655,350.252 90.7655,348.45 L90.7655,348.416 C90.7655,346.563 92.2955,345.577 94.5225,345.577 C95.6445,345.577 96.4435,345.73 97.2255,345.951 L97.2255,345.645 C97.2255,344.064 96.2565,343.248 94.6075,343.248 C93.7235,343.248 92.9755,343.452 92.3295,343.741 C92.2445,343.775 92.1595,343.792 92.0915,343.792 C91.7855,343.792 91.5135,343.537 91.5135,343.231 C91.5135,342.959 91.7005,342.755 91.8705,342.687 C92.7375,342.313 93.6215,342.092 94.7435,342.092 C95.9845,342.092 96.9365,342.415 97.5825,343.061 C98.1775,343.656 98.4835,344.506 98.4835,345.628 L98.4835,350.439 C98.4835,350.813 98.2115,351.085 97.8545,351.085 C97.4805,351.085 97.2255,350.813 97.2255,350.473 L97.2255,349.674 C96.6135,350.473 95.5935,351.187 94.0465,351.187 Z M94.3015,350.15 C95.9165,350.15 97.2425,349.164 97.2425,347.77 L97.2425,346.92 C96.5965,346.733 95.7295,346.546 94.6585,346.546 C93.0095,346.546 92.0915,347.26 92.0915,348.365 L92.0915,348.399 C92.0915,349.504 93.1115,350.15 94.3015,350.15 Z M101.2715,353.142 L101.2715,342.789 C101.2715,342.415 101.5605,342.126 101.9175,342.126 C102.2915,342.126 102.5805,342.415 102.5805,342.789 L102.5805,343.979 C103.2945,342.925 104.3315,342.024 105.9465,342.024 C108.0545,342.024 110.1455,343.69 110.1455,346.58 L110.1455,346.614 C110.1455,349.487 108.0715,351.187 105.9465,351.187 C104.3145,351.187 103.2605,350.303 102.5805,349.317 L102.5805,353.142 C102.5805,353.516 102.3085,353.805 101.9345,353.805 C101.5605,353.805 101.2715,353.516 101.2715,353.142 Z M105.7085,350.014 C107.4085,350.014 108.8025,348.756 108.8025,346.631 L108.8025,346.597 C108.8025,344.523 107.3745,343.197 105.7085,343.197 C104.0765,343.197 102.5295,344.574 102.5295,346.58 L102.5295,346.614 C102.5295,348.654 104.0765,350.014 105.7085,350.014 Z M112.5595,353.142 L112.5595,342.789 C112.5595,342.415 112.8485,342.126 113.2055,342.126 C113.5795,342.126 113.8685,342.415 113.8685,342.789 L113.8685,343.979 C114.5825,342.925 115.6195,342.024 117.2345,342.024 C119.3425,342.024 121.4335,343.69 121.4335,346.58 L121.4335,346.614 C121.4335,349.487 119.3595,351.187 117.2345,351.187 C115.6025,351.187 114.5485,350.303 113.8685,349.317 L113.8685,353.142 C113.8685,353.516 113.5965,353.805 113.2225,353.805 C112.8485,353.805 112.5595,353.516 112.5595,353.142 Z M116.9965,350.014 C118.6965,350.014 120.0905,348.756 120.0905,346.631 L120.0905,346.597 C120.0905,344.523 118.6625,343.197 116.9965,343.197 C115.3645,343.197 113.8175,344.574 113.8175,346.58 L113.8175,346.614 C113.8175,348.654 115.3645,350.014 116.9965,350.014 Z M131.8885,351.153 C130.4775,351.153 129.4065,350.456 129.4065,348.671 L129.4065,343.367 L128.6925,343.367 C128.3865,343.367 128.1145,343.095 128.1145,342.789 C128.1145,342.466 128.3865,342.211 128.6925,342.211 L129.4065,342.211 L129.4065,340.137 C129.4065,339.78 129.6785,339.474 130.0525,339.474 C130.4095,339.474 130.7155,339.78 130.7155,340.137 L130.7155,342.211 L132.9935,342.211 C133.3165,342.211 133.5885,342.483 133.5885,342.789 C133.5885,343.112 133.3165,343.367 132.9935,343.367 L130.7155,343.367 L130.7155,348.501 C130.7155,349.572 131.3105,349.963 132.1945,349.963 C132.6535,349.963 132.8915,349.844 132.9935,349.844 C133.2995,349.844 133.5545,350.099 133.5545,350.405 C133.5545,350.643 133.4015,350.83 133.1805,350.915 C132.8065,351.068 132.3985,351.153 131.8885,351.153 Z M135.8155,350.422 L135.8155,339.168 C135.8155,338.811 136.1045,338.505 136.4615,338.505 C136.8355,338.505 137.1245,338.811 137.1245,339.168 L137.1245,343.741 C137.7025,342.789 138.6205,342.024 140.1335,342.024 C142.2585,342.024 143.4995,343.452 143.4995,345.543 L143.4995,350.422 C143.4995,350.796 143.2105,351.085 142.8535,351.085 C142.4795,351.085 142.1905,350.796 142.1905,350.422 L142.1905,345.866 C142.1905,344.234 141.3065,343.214 139.7595,343.214 C138.2465,343.214 137.1245,344.319 137.1245,345.968 L137.1245,350.422 C137.1245,350.796 136.8525,351.085 136.4785,351.085 C136.1045,351.085 135.8155,350.796 135.8155,350.422 Z M148.9055,351.187 C147.2735,351.187 145.6245,350.252 145.6245,348.45 L145.6245,348.416 C145.6245,346.563 147.1545,345.577 149.3815,345.577 C150.5035,345.577 151.3025,345.73 152.0845,345.951 L152.0845,345.645 C152.0845,344.064 151.1155,343.248 149.4665,343.248 C148.5825,343.248 147.8345,343.452 147.1885,343.741 C147.1035,343.775 147.0185,343.792 146.9505,343.792 C146.6445,343.792 146.3725,343.537 146.3725,343.231 C146.3725,342.959 146.5595,342.755 146.7295,342.687 C147.5965,342.313 148.4805,342.092 149.6025,342.092 C150.8435,342.092 151.7955,342.415 152.4415,343.061 C153.0365,343.656 153.3425,344.506 153.3425,345.628 L153.3425,350.439 C153.3425,350.813 153.0705,351.085 152.7135,351.085 C152.3395,351.085 152.0845,350.813 152.0845,350.473 L152.0845,349.674 C151.4725,350.473 150.4525,351.187 148.9055,351.187 Z M149.1605,350.15 C150.7755,350.15 152.1015,349.164 152.1015,347.77 L152.1015,346.92 C151.4555,346.733 150.5885,346.546 149.5175,346.546 C147.8685,346.546 146.9505,347.26 146.9505,348.365 L146.9505,348.399 C146.9505,349.504 147.9705,350.15 149.1605,350.15 Z M158.9865,351.153 C157.5755,351.153 156.5045,350.456 156.5045,348.671 L156.5045,343.367 L155.7905,343.367 C155.4845,343.367 155.2125,343.095 155.2125,342.789 C155.2125,342.466 155.4845,342.211 155.7905,342.211 L156.5045,342.211 L156.5045,340.137 C156.5045,339.78 156.7765,339.474 157.1505,339.474 C157.5075,339.474 157.8135,339.78 157.8135,340.137 L157.8135,342.211 L160.0915,342.211 C160.4145,342.211 160.6865,342.483 160.6865,342.789 C160.6865,343.112 160.4145,343.367 160.0915,343.367 L157.8135,343.367 L157.8135,348.501 C157.8135,349.572 158.4085,349.963 159.2925,349.963 C159.7515,349.963 159.9895,349.844 160.0915,349.844 C160.3975,349.844 160.6525,350.099 160.6525,350.405 C160.6525,350.643 160.4995,350.83 160.2785,350.915 C159.9045,351.068 159.4965,351.153 158.9865,351.153 Z M170.6315,351.187 C168.9995,351.187 167.3505,350.252 167.3505,348.45 L167.3505,348.416 C167.3505,346.563 168.8805,345.577 171.1075,345.577 C172.2295,345.577 173.0285,345.73 173.8105,345.951 L173.8105,345.645 C173.8105,344.064 172.8415,343.248 171.1925,343.248 C170.3085,343.248 169.5605,343.452 168.9145,343.741 C168.8295,343.775 168.7445,343.792 168.6765,343.792 C168.3705,343.792 168.0985,343.537 168.0985,343.231 C168.0985,342.959 168.2855,342.755 168.4555,342.687 C169.3225,342.313 170.2065,342.092 171.3285,342.092 C172.5695,342.092 173.5215,342.415 174.1675,343.061 C174.7625,343.656 175.0685,344.506 175.0685,345.628 L175.0685,350.439 C175.0685,350.813 174.7965,351.085 174.4395,351.085 C174.0655,351.085 173.8105,350.813 173.8105,350.473 L173.8105,349.674 C173.1985,350.473 172.1785,351.187 170.6315,351.187 Z M170.8865,350.15 C172.5015,350.15 173.8275,349.164 173.8275,347.77 L173.8275,346.92 C173.1815,346.733 172.3145,346.546 171.2435,346.546 C169.5945,346.546 168.6765,347.26 168.6765,348.365 L168.6765,348.399 C168.6765,349.504 169.6965,350.15 170.8865,350.15 Z M177.9755,350.422 L177.9755,339.168 C177.9755,338.811 178.2645,338.505 178.6215,338.505 C178.9955,338.505 179.2845,338.811 179.2845,339.168 L179.2845,350.422 C179.2845,350.796 179.0125,351.085 178.6385,351.085 C178.2645,351.085 177.9755,350.796 177.9755,350.422 Z M183.1095,346.121 L188.7705,346.121 C188.6345,344.523 187.7165,343.129 185.9655,343.129 C184.4355,343.129 183.2795,344.404 183.1095,346.121 Z M189.4845,349.878 C188.6515,350.677 187.6655,351.204 186.1695,351.204 C183.7555,351.204 181.7835,349.351 181.7835,346.631 L181.7835,346.597 C181.7835,344.064 183.5685,342.024 185.9995,342.024 C188.6005,342.024 190.0795,344.149 190.0795,346.478 C190.0795,346.835 189.7905,347.09 189.4675,347.09 L183.1095,347.09 C183.2965,348.994 184.6395,350.065 186.2035,350.065 C187.2915,350.065 188.0905,349.64 188.7365,349.045 C188.8385,348.96 188.9575,348.892 189.1105,348.892 C189.4335,348.892 189.6885,349.147 189.6885,349.453 C189.6885,349.606 189.6205,349.759 189.4845,349.878 Z M192.3915,350.422 L192.3915,342.789 C192.3915,342.432 192.6805,342.126 193.0375,342.126 C193.4115,342.126 193.7005,342.415 193.7005,342.789 L193.7005,344.438 C194.3465,342.976 195.6215,342.092 196.7265,342.092 C197.1175,342.092 197.3725,342.381 197.3725,342.755 C197.3725,343.112 197.1345,343.367 196.7945,343.418 C195.0945,343.622 193.7005,344.897 193.7005,347.43 L193.7005,350.422 C193.7005,350.779 193.4285,351.085 193.0545,351.085 C192.6805,351.085 192.3915,350.796 192.3915,350.422 Z M202.2175,351.153 C200.8065,351.153 199.7355,350.456 199.7355,348.671 L199.7355,343.367 L199.0215,343.367 C198.7155,343.367 198.4435,343.095 198.4435,342.789 C198.4435,342.466 198.7155,342.211 199.0215,342.211 L199.7355,342.211 L199.7355,340.137 C199.7355,339.78 200.0075,339.474 200.3815,339.474 C200.7385,339.474 201.0445,339.78 201.0445,340.137 L201.0445,342.211 L203.3225,342.211 C203.6455,342.211 203.9175,342.483 203.9175,342.789 C203.9175,343.112 203.6455,343.367 203.3225,343.367 L201.0445,343.367 L201.0445,348.501 C201.0445,349.572 201.6395,349.963 202.5235,349.963 C202.9825,349.963 203.2205,349.844 203.3225,349.844 C203.6285,349.844 203.8835,350.099 203.8835,350.405 C203.8835,350.643 203.7305,350.83 203.5095,350.915 C203.1355,351.068 202.7275,351.153 202.2175,351.153 Z M209.0515,351.17 C207.8955,351.17 206.6205,350.745 205.6685,350.065 C205.5495,349.98 205.4305,349.81 205.4305,349.589 C205.4305,349.283 205.6855,349.028 206.0085,349.028 C206.1275,349.028 206.2465,349.062 206.3315,349.13 C207.2325,349.742 208.1675,350.065 209.1195,350.065 C210.1735,350.065 210.9385,349.521 210.9385,348.671 L210.9385,348.637 C210.9385,347.753 209.9015,347.413 208.7455,347.09 C207.3685,346.699 205.8385,346.223 205.8385,344.608 L205.8385,344.574 C205.8385,343.061 207.0965,342.058 208.8305,342.058 C209.7655,342.058 210.7855,342.347 211.6355,342.806 C211.8055,342.908 211.9585,343.095 211.9585,343.35 C211.9585,343.656 211.7035,343.911 211.3805,343.911 C211.2615,343.911 211.1595,343.877 211.0915,343.843 C210.3435,343.418 209.5445,343.163 208.7965,343.163 C207.7595,343.163 207.0965,343.707 207.0965,344.438 L207.0965,344.472 C207.0965,345.305 208.1845,345.628 209.3575,345.985 C210.7175,346.393 212.1795,346.92 212.1795,348.501 L212.1795,348.535 C212.1795,350.201 210.8025,351.17 209.0515,351.17 Z M220.9855,353.771 C220.4075,353.771 219.9825,353.669 219.5405,353.516 C219.3365,353.431 219.1325,353.261 219.1325,352.955 C219.1325,352.632 219.4045,352.394 219.6935,352.394 C219.8125,352.394 219.9145,352.428 220.0165,352.462 C220.2715,352.547 220.5265,352.615 220.9685,352.615 C221.7845,352.615 222.2605,352.122 222.7365,351.051 L222.8045,350.915 L219.1325,343.129 C219.0815,343.01 219.0475,342.891 219.0475,342.772 C219.0475,342.415 219.3365,342.126 219.7105,342.126 C220.0675,342.126 220.2545,342.347 220.3735,342.636 L223.4335,349.538 L226.1535,342.619 C226.2555,342.347 226.4425,342.126 226.7825,342.126 C227.1395,342.126 227.4285,342.415 227.4285,342.772 C227.4285,342.874 227.3945,342.993 227.3605,343.095 L223.9265,351.289 C223.1615,353.108 222.3115,353.771 220.9855,353.771 Z M233.2595,351.204 C230.6245,351.204 228.7035,349.13 228.7035,346.648 L228.7035,346.614 C228.7035,344.132 230.6415,342.024 233.2935,342.024 C235.9285,342.024 237.8665,344.098 237.8665,346.58 L237.8665,346.614 C237.8665,349.096 235.9115,351.204 233.2595,351.204 Z M233.2935,350.031 C235.1975,350.031 236.5235,348.501 236.5235,346.648 L236.5235,346.614 C236.5235,344.727 235.1125,343.18 233.2595,343.18 C231.3555,343.18 230.0465,344.727 230.0465,346.58 L230.0465,346.614 C230.0465,348.501 231.4405,350.031 233.2935,350.031 Z M247.7605,342.789 L247.7605,350.422 C247.7605,350.779 247.4885,351.085 247.1145,351.085 C246.7575,351.085 246.4685,350.796 246.4685,350.422 L246.4685,349.47 C245.8735,350.422 244.9725,351.187 243.4595,351.187 C241.3345,351.187 240.0935,349.759 240.0935,347.668 L240.0935,342.789 C240.0935,342.415 240.3655,342.126 240.7395,342.126 C241.0965,342.126 241.4025,342.415 241.4025,342.789 L241.4025,347.345 C241.4025,348.977 242.2865,349.997 243.8335,349.997 C245.3295,349.997 246.4685,348.892 246.4685,347.243 L246.4685,342.789 C246.4685,342.415 246.7405,342.126 247.1145,342.126 C247.4715,342.126 247.7605,342.415 247.7605,342.789 Z M258.6745,351.136 C258.3515,351.136 258.0795,350.932 257.9435,350.541 L255.2745,343.112 C255.2405,343.01 255.1895,342.874 255.1895,342.755 C255.1895,342.432 255.4615,342.126 255.8525,342.126 C256.1925,342.126 256.4135,342.347 256.5155,342.67 L258.7255,349.266 L260.9525,342.653 C261.0545,342.347 261.2585,342.126 261.5985,342.126 L261.6665,342.126 C262.0235,342.126 262.2445,342.347 262.3465,342.653 L264.5565,349.266 L266.8005,342.636 C266.8855,342.364 267.0725,342.126 267.4295,342.126 C267.8035,342.126 268.0755,342.415 268.0755,342.738 C268.0755,342.857 268.0245,342.993 267.9905,343.095 L265.3045,350.541 C265.1685,350.932 264.8965,351.136 264.5905,351.136 L264.5395,351.136 C264.1995,351.136 263.9445,350.932 263.8255,350.541 L261.6325,344.132 L259.4225,350.541 C259.3035,350.932 259.0485,351.136 258.7085,351.136 L258.6745,351.136 Z M270.3875,350.422 L270.3875,339.168 C270.3875,338.811 270.6765,338.505 271.0335,338.505 C271.4075,338.505 271.6965,338.811 271.6965,339.168 L271.6965,343.741 C272.2745,342.789 273.1925,342.024 274.7055,342.024 C276.8305,342.024 278.0715,343.452 278.0715,345.543 L278.0715,350.422 C278.0715,350.796 277.7825,351.085 277.4255,351.085 C277.0515,351.085 276.7625,350.796 276.7625,350.422 L276.7625,345.866 C276.7625,344.234 275.8785,343.214 274.3315,343.214 C272.8185,343.214 271.6965,344.319 271.6965,345.968 L271.6965,350.422 C271.6965,350.796 271.4245,351.085 271.0505,351.085 C270.6765,351.085 270.3875,350.796 270.3875,350.422 Z M281.6415,346.121 L287.3025,346.121 C287.1665,344.523 286.2485,343.129 284.4975,343.129 C282.9675,343.129 281.8115,344.404 281.6415,346.121 Z M288.0165,349.878 C287.1835,350.677 286.1975,351.204 284.7015,351.204 C282.2875,351.204 280.3155,349.351 280.3155,346.631 L280.3155,346.597 C280.3155,344.064 282.1005,342.024 284.5315,342.024 C287.1325,342.024 288.6115,344.149 288.6115,346.478 C288.6115,346.835 288.3225,347.09 287.9995,347.09 L281.6415,347.09 C281.8285,348.994 283.1715,350.065 284.7355,350.065 C285.8235,350.065 286.6225,349.64 287.2685,349.045 C287.3705,348.96 287.4895,348.892 287.6425,348.892 C287.9655,348.892 288.2205,349.147 288.2205,349.453 C288.2205,349.606 288.1525,349.759 288.0165,349.878 Z M290.9235,350.422 L290.9235,342.789 C290.9235,342.432 291.2125,342.126 291.5695,342.126 C291.9435,342.126 292.2325,342.415 292.2325,342.789 L292.2325,343.741 C292.8105,342.789 293.7285,342.024 295.2415,342.024 C297.3665,342.024 298.6075,343.452 298.6075,345.543 L298.6075,350.422 C298.6075,350.796 298.3185,351.085 297.9615,351.085 C297.5875,351.085 297.2985,350.796 297.2985,350.422 L297.2985,345.866 C297.2985,344.234 296.4145,343.214 294.8675,343.214 C293.3545,343.214 292.2325,344.319 292.2325,345.968 L292.2325,350.422 C292.2325,350.796 291.9605,351.085 291.5865,351.085 C291.2125,351.085 290.9235,350.796 290.9235,350.422 Z M81.985,373.32 L81.985,362.695 C81.985,362.321 82.291,362.015 82.648,362.015 C83.022,362.015 83.328,362.321 83.328,362.695 L83.328,372.759 L89.499,372.759 C89.839,372.759 90.111,373.048 90.111,373.388 C90.111,373.728 89.839,374 89.499,374 L82.648,374 C82.291,374 81.985,373.694 81.985,373.32 Z M92.287,362.678 L92.287,362.457 C92.287,362.032 92.627,361.76 93.052,361.76 C93.494,361.76 93.834,362.032 93.834,362.457 L93.834,362.678 C93.834,363.086 93.494,363.375 93.052,363.375 C92.627,363.375 92.287,363.086 92.287,362.678 Z M92.406,373.422 L92.406,365.789 C92.406,365.432 92.695,365.126 93.052,365.126 C93.426,365.126 93.715,365.415 93.715,365.789 L93.715,373.422 C93.715,373.796 93.443,374.085 93.069,374.085 C92.695,374.085 92.406,373.796 92.406,373.422 Z M96.877,373.422 L96.877,362.168 C96.877,361.811 97.166,361.505 97.523,361.505 C97.897,361.505 98.186,361.811 98.186,362.168 L98.186,373.422 C98.186,373.796 97.914,374.085 97.54,374.085 C97.166,374.085 96.877,373.796 96.877,373.422 Z M100.617,365.602 C100.617,365.449 100.702,365.33 100.838,365.279 C101.535,364.973 101.824,364.548 101.79,363.885 C101.433,363.8 101.127,363.528 101.127,363.086 L101.127,362.814 C101.127,362.372 101.467,362.015 101.909,362.015 C102.402,362.015 102.742,362.406 102.742,362.95 L102.742,363.273 C102.742,364.31 102.521,364.922 102.13,365.313 C101.773,365.687 101.246,365.942 100.974,365.942 C100.753,365.942 100.617,365.806 100.617,365.602 Z M114.795,374.17 C113.061,374.17 111.616,373.626 110.29,372.572 C110.137,372.47 110.035,372.283 110.035,372.062 C110.035,371.688 110.324,371.399 110.681,371.399 C110.851,371.399 111.004,371.467 111.089,371.552 C112.211,372.504 113.333,372.963 114.846,372.963 C116.444,372.963 117.498,372.113 117.498,370.94 L117.498,370.906 C117.498,369.801 116.903,369.172 114.404,368.645 C111.667,368.05 110.409,367.166 110.409,365.211 L110.409,365.177 C110.409,363.307 112.058,361.93 114.319,361.93 C115.883,361.93 117.022,362.321 118.11,363.103 C118.246,363.205 118.399,363.392 118.399,363.647 C118.399,364.004 118.11,364.293 117.753,364.293 C117.6,364.293 117.481,364.259 117.362,364.174 C116.359,363.443 115.39,363.137 114.285,363.137 C112.738,363.137 111.752,363.987 111.752,365.058 L111.752,365.092 C111.752,366.214 112.364,366.843 114.982,367.404 C117.634,367.982 118.858,368.951 118.858,370.77 L118.858,370.804 C118.858,372.844 117.158,374.17 114.795,374.17 Z M122.156,369.121 L127.817,369.121 C127.681,367.523 126.763,366.129 125.012,366.129 C123.482,366.129 122.326,367.404 122.156,369.121 Z M128.531,372.878 C127.698,373.677 126.712,374.204 125.216,374.204 C122.802,374.204 120.83,372.351 120.83,369.631 L120.83,369.597 C120.83,367.064 122.615,365.024 125.046,365.024 C127.647,365.024 129.126,367.149 129.126,369.478 C129.126,369.835 128.837,370.09 128.514,370.09 L122.156,370.09 C122.343,371.994 123.686,373.065 125.25,373.065 C126.338,373.065 127.137,372.64 127.783,372.045 C127.885,371.96 128.004,371.892 128.157,371.892 C128.48,371.892 128.735,372.147 128.735,372.453 C128.735,372.606 128.667,372.759 128.531,372.878 Z M131.438,373.422 L131.438,362.168 C131.438,361.794 131.727,361.505 132.084,361.505 C132.458,361.505 132.747,361.794 132.747,362.168 L132.747,366.979 C133.461,365.925 134.498,365.024 136.113,365.024 C138.221,365.024 140.312,366.69 140.312,369.58 L140.312,369.614 C140.312,372.487 138.238,374.187 136.113,374.187 C134.481,374.187 133.427,373.303 132.747,372.317 L132.747,373.422 C132.747,373.779 132.475,374.085 132.101,374.085 C131.727,374.085 131.438,373.779 131.438,373.422 Z M135.875,373.014 C137.575,373.014 138.969,371.756 138.969,369.631 L138.969,369.597 C138.969,367.523 137.541,366.197 135.875,366.197 C134.243,366.197 132.696,367.574 132.696,369.58 L132.696,369.614 C132.696,371.654 134.243,373.014 135.875,373.014 Z M145.344,374.187 C143.712,374.187 142.063,373.252 142.063,371.45 L142.063,371.416 C142.063,369.563 143.593,368.577 145.82,368.577 C146.942,368.577 147.741,368.73 148.523,368.951 L148.523,368.645 C148.523,367.064 147.554,366.248 145.905,366.248 C145.021,366.248 144.273,366.452 143.627,366.741 C143.542,366.775 143.457,366.792 143.389,366.792 C143.083,366.792 142.811,366.537 142.811,366.231 C142.811,365.959 142.998,365.755 143.168,365.687 C144.035,365.313 144.919,365.092 146.041,365.092 C147.282,365.092 148.234,365.415 148.88,366.061 C149.475,366.656 149.781,367.506 149.781,368.628 L149.781,373.439 C149.781,373.813 149.509,374.085 149.152,374.085 C148.778,374.085 148.523,373.813 148.523,373.473 L148.523,372.674 C147.911,373.473 146.891,374.187 145.344,374.187 Z M145.599,373.15 C147.214,373.15 148.54,372.164 148.54,370.77 L148.54,369.92 C147.894,369.733 147.027,369.546 145.956,369.546 C144.307,369.546 143.389,370.26 143.389,371.365 L143.389,371.399 C143.389,372.504 144.409,373.15 145.599,373.15 Z M155.476,374.17 C154.32,374.17 153.045,373.745 152.093,373.065 C151.974,372.98 151.855,372.81 151.855,372.589 C151.855,372.283 152.11,372.028 152.433,372.028 C152.552,372.028 152.671,372.062 152.756,372.13 C153.657,372.742 154.592,373.065 155.544,373.065 C156.598,373.065 157.363,372.521 157.363,371.671 L157.363,371.637 C157.363,370.753 156.326,370.413 155.17,370.09 C153.793,369.699 152.263,369.223 152.263,367.608 L152.263,367.574 C152.263,366.061 153.521,365.058 155.255,365.058 C156.19,365.058 157.21,365.347 158.06,365.806 C158.23,365.908 158.383,366.095 158.383,366.35 C158.383,366.656 158.128,366.911 157.805,366.911 C157.686,366.911 157.584,366.877 157.516,366.843 C156.768,366.418 155.969,366.163 155.221,366.163 C154.184,366.163 153.521,366.707 153.521,367.438 L153.521,367.472 C153.521,368.305 154.609,368.628 155.782,368.985 C157.142,369.393 158.604,369.92 158.604,371.501 L158.604,371.535 C158.604,373.201 157.227,374.17 155.476,374.17 Z M163.806,374.153 C162.395,374.153 161.324,373.456 161.324,371.671 L161.324,366.367 L160.61,366.367 C160.304,366.367 160.032,366.095 160.032,365.789 C160.032,365.466 160.304,365.211 160.61,365.211 L161.324,365.211 L161.324,363.137 C161.324,362.78 161.596,362.474 161.97,362.474 C162.327,362.474 162.633,362.78 162.633,363.137 L162.633,365.211 L164.911,365.211 C165.234,365.211 165.506,365.483 165.506,365.789 C165.506,366.112 165.234,366.367 164.911,366.367 L162.633,366.367 L162.633,371.501 C162.633,372.572 163.228,372.963 164.112,372.963 C164.571,372.963 164.809,372.844 164.911,372.844 C165.217,372.844 165.472,373.099 165.472,373.405 C165.472,373.643 165.319,373.83 165.098,373.915 C164.724,374.068 164.316,374.153 163.806,374.153 Z M167.733,362.678 L167.733,362.457 C167.733,362.032 168.073,361.76 168.498,361.76 C168.94,361.76 169.28,362.032 169.28,362.457 L169.28,362.678 C169.28,363.086 168.94,363.375 168.498,363.375 C168.073,363.375 167.733,363.086 167.733,362.678 Z M167.852,373.422 L167.852,365.789 C167.852,365.432 168.141,365.126 168.498,365.126 C168.872,365.126 169.161,365.415 169.161,365.789 L169.161,373.422 C169.161,373.796 168.889,374.085 168.515,374.085 C168.141,374.085 167.852,373.796 167.852,373.422 Z M174.822,374.187 C173.19,374.187 171.541,373.252 171.541,371.45 L171.541,371.416 C171.541,369.563 173.071,368.577 175.298,368.577 C176.42,368.577 177.219,368.73 178.001,368.951 L178.001,368.645 C178.001,367.064 177.032,366.248 175.383,366.248 C174.499,366.248 173.751,366.452 173.105,366.741 C173.02,366.775 172.935,366.792 172.867,366.792 C172.561,366.792 172.289,366.537 172.289,366.231 C172.289,365.959 172.476,365.755 172.646,365.687 C173.513,365.313 174.397,365.092 175.519,365.092 C176.76,365.092 177.712,365.415 178.358,366.061 C178.953,366.656 179.259,367.506 179.259,368.628 L179.259,373.439 C179.259,373.813 178.987,374.085 178.63,374.085 C178.256,374.085 178.001,373.813 178.001,373.473 L178.001,372.674 C177.389,373.473 176.369,374.187 174.822,374.187 Z M175.077,373.15 C176.692,373.15 178.018,372.164 178.018,370.77 L178.018,369.92 C177.372,369.733 176.505,369.546 175.434,369.546 C173.785,369.546 172.867,370.26 172.867,371.365 L172.867,371.399 C172.867,372.504 173.887,373.15 175.077,373.15 Z M182.047,373.422 L182.047,365.789 C182.047,365.432 182.336,365.126 182.693,365.126 C183.067,365.126 183.356,365.415 183.356,365.789 L183.356,366.741 C183.934,365.789 184.852,365.024 186.365,365.024 C188.49,365.024 189.731,366.452 189.731,368.543 L189.731,373.422 C189.731,373.796 189.442,374.085 189.085,374.085 C188.711,374.085 188.422,373.796 188.422,373.422 L188.422,368.866 C188.422,367.234 187.538,366.214 185.991,366.214 C184.478,366.214 183.356,367.319 183.356,368.968 L183.356,373.422 C183.356,373.796 183.084,374.085 182.71,374.085 C182.336,374.085 182.047,373.796 182.047,373.422 Z M197.619,362.678 L197.619,362.457 C197.619,362.032 197.959,361.76 198.384,361.76 C198.826,361.76 199.166,362.032 199.166,362.457 L199.166,362.678 C199.166,363.086 198.826,363.375 198.384,363.375 C197.959,363.375 197.619,363.086 197.619,362.678 Z M197.738,373.422 L197.738,365.789 C197.738,365.432 198.027,365.126 198.384,365.126 C198.758,365.126 199.047,365.415 199.047,365.789 L199.047,373.422 C199.047,373.796 198.775,374.085 198.401,374.085 C198.027,374.085 197.738,373.796 197.738,373.422 Z M204.997,374.17 C203.841,374.17 202.566,373.745 201.614,373.065 C201.495,372.98 201.376,372.81 201.376,372.589 C201.376,372.283 201.631,372.028 201.954,372.028 C202.073,372.028 202.192,372.062 202.277,372.13 C203.178,372.742 204.113,373.065 205.065,373.065 C206.119,373.065 206.884,372.521 206.884,371.671 L206.884,371.637 C206.884,370.753 205.847,370.413 204.691,370.09 C203.314,369.699 201.784,369.223 201.784,367.608 L201.784,367.574 C201.784,366.061 203.042,365.058 204.776,365.058 C205.711,365.058 206.731,365.347 207.581,365.806 C207.751,365.908 207.904,366.095 207.904,366.35 C207.904,366.656 207.649,366.911 207.326,366.911 C207.207,366.911 207.105,366.877 207.037,366.843 C206.289,366.418 205.49,366.163 204.742,366.163 C203.705,366.163 203.042,366.707 203.042,367.438 L203.042,367.472 C203.042,368.305 204.13,368.628 205.303,368.985 C206.663,369.393 208.125,369.92 208.125,371.501 L208.125,371.535 C208.125,373.201 206.748,374.17 204.997,374.17 Z M215.656,362.678 L215.656,362.457 C215.656,362.032 215.996,361.76 216.421,361.76 C216.863,361.76 217.203,362.032 217.203,362.457 L217.203,362.678 C217.203,363.086 216.863,363.375 216.421,363.375 C215.996,363.375 215.656,363.086 215.656,362.678 Z M215.775,373.422 L215.775,365.789 C215.775,365.432 216.064,365.126 216.421,365.126 C216.795,365.126 217.084,365.415 217.084,365.789 L217.084,373.422 C217.084,373.796 216.812,374.085 216.438,374.085 C216.064,374.085 215.775,373.796 215.775,373.422 Z M220.127,373.422 L220.127,365.789 C220.127,365.432 220.416,365.126 220.773,365.126 C221.147,365.126 221.436,365.415 221.436,365.789 L221.436,366.741 C222.014,365.789 222.932,365.024 224.445,365.024 C226.57,365.024 227.811,366.452 227.811,368.543 L227.811,373.422 C227.811,373.796 227.522,374.085 227.165,374.085 C226.791,374.085 226.502,373.796 226.502,373.422 L226.502,368.866 C226.502,367.234 225.618,366.214 224.071,366.214 C222.558,366.214 221.436,367.319 221.436,368.968 L221.436,373.422 C221.436,373.796 221.164,374.085 220.79,374.085 C220.416,374.085 220.127,373.796 220.127,373.422 Z M238.64,374.153 C237.229,374.153 236.158,373.456 236.158,371.671 L236.158,366.367 L235.444,366.367 C235.138,366.367 234.866,366.095 234.866,365.789 C234.866,365.466 235.138,365.211 235.444,365.211 L236.158,365.211 L236.158,363.137 C236.158,362.78 236.43,362.474 236.804,362.474 C237.161,362.474 237.467,362.78 237.467,363.137 L237.467,365.211 L239.745,365.211 C240.068,365.211 240.34,365.483 240.34,365.789 C240.34,366.112 240.068,366.367 239.745,366.367 L237.467,366.367 L237.467,371.501 C237.467,372.572 238.062,372.963 238.946,372.963 C239.405,372.963 239.643,372.844 239.745,372.844 C240.051,372.844 240.306,373.099 240.306,373.405 C240.306,373.643 240.153,373.83 239.932,373.915 C239.558,374.068 239.15,374.153 238.64,374.153 Z M246.324,374.204 C243.689,374.204 241.768,372.13 241.768,369.648 L241.768,369.614 C241.768,367.132 243.706,365.024 246.358,365.024 C248.993,365.024 250.931,367.098 250.931,369.58 L250.931,369.614 C250.931,372.096 248.976,374.204 246.324,374.204 Z M246.358,373.031 C248.262,373.031 249.588,371.501 249.588,369.648 L249.588,369.614 C249.588,367.727 248.177,366.18 246.324,366.18 C244.42,366.18 243.111,367.727 243.111,369.58 L243.111,369.614 C243.111,371.501 244.505,373.031 246.358,373.031 Z M255.81,374.136 C255.487,374.136 255.215,373.932 255.079,373.541 L252.41,366.112 C252.376,366.01 252.325,365.874 252.325,365.755 C252.325,365.432 252.597,365.126 252.988,365.126 C253.328,365.126 253.549,365.347 253.651,365.67 L255.861,372.266 L258.088,365.653 C258.19,365.347 258.394,365.126 258.734,365.126 L258.802,365.126 C259.159,365.126 259.38,365.347 259.482,365.653 L261.692,372.266 L263.936,365.636 C264.021,365.364 264.208,365.126 264.565,365.126 C264.939,365.126 265.211,365.415 265.211,365.738 C265.211,365.857 265.16,365.993 265.126,366.095 L262.44,373.541 C262.304,373.932 262.032,374.136 261.726,374.136 L261.675,374.136 C261.335,374.136 261.08,373.932 260.961,373.541 L258.768,367.132 L256.558,373.541 C256.439,373.932 256.184,374.136 255.844,374.136 L255.81,374.136 Z M267.523,373.422 L267.523,365.789 C267.523,365.432 267.812,365.126 268.169,365.126 C268.543,365.126 268.832,365.415 268.832,365.789 L268.832,366.741 C269.41,365.789 270.328,365.024 271.841,365.024 C273.966,365.024 275.207,366.452 275.207,368.543 L275.207,373.422 C275.207,373.796 274.918,374.085 274.561,374.085 C274.187,374.085 273.898,373.796 273.898,373.422 L273.898,368.866 C273.898,367.234 273.014,366.214 271.467,366.214 C269.954,366.214 268.832,367.319 268.832,368.968 L268.832,373.422 C268.832,373.796 268.56,374.085 268.186,374.085 C267.812,374.085 267.523,373.796 267.523,373.422 Z M277.808,372.929 C277.808,372.47 278.148,372.13 278.624,372.13 C279.083,372.13 279.423,372.47 279.423,372.929 L279.423,373.269 C279.423,373.728 279.083,374.085 278.624,374.085 C278.148,374.085 277.808,373.728 277.808,373.269 L277.808,372.929 Z"/>
  </g>
</svg>
