<svg xmlns="http://www.w3.org/2000/svg" width="580" height="180" viewBox="0 0 580 180">
  <g fill="none" fill-rule="evenodd">
    <rect width="580" height="180" fill="#FFF" fill-opacity=".01" fill-rule="nonzero"/>
    <g transform="translate(54 44)">
      <g transform="translate(0 48)">
        <rect width="85" height="48" fill="#314351" rx="8"/>
        <path fill="#FFF" fill-rule="nonzero" d="M22.7082715,30 L17.7859082,30 L17.7859082,18.0219727 L22.6003613,18.0219727 C24.849873,18.0219727 26.2029004,19.1674805 26.2029004,21.0102539 C26.2029004,22.2636719 25.2815137,23.3842773 24.1028027,23.5834961 L24.1028027,23.7246094 C25.7214551,23.890625 26.8005566,25.0444336 26.8005566,26.6049805 C26.8005566,28.7133789 25.2649121,30 22.7082715,30 Z M19.6452832,19.5991211 L19.6452832,23.09375 L21.853291,23.09375 C23.4968457,23.09375 24.3518262,22.487793 24.3518262,21.3505859 C24.3518262,20.246582 23.5466504,19.5991211 22.1687207,19.5991211 L19.6452832,19.5991211 Z M19.6452832,28.4228516 L22.3347363,28.4228516 C24.0114941,28.4228516 24.8996777,27.7421875 24.8996777,26.472168 C24.8996777,25.21875 23.978291,24.5629883 22.2268262,24.5629883 L19.6452832,24.5629883 L19.6452832,28.4228516 Z M36.1854785,20.9604492 L36.1854785,30 L34.4672168,30 L34.4672168,28.5639648 L34.3261035,28.5639648 C33.8861621,29.5932617 32.9647754,30.1743164 31.5951465,30.1743164 C29.5946582,30.1743164 28.4823535,28.9541016 28.4823535,26.8291016 L28.4823535,20.9604492 L30.2670215,20.9604492 L30.2670215,26.3642578 C30.2670215,27.8251953 30.8563769,28.5224609 32.1679004,28.5224609 C33.6122363,28.5224609 34.4008105,27.6674805 34.4008105,26.2480469 L34.4008105,20.9604492 L36.1854785,20.9604492 Z M38.9961816,18.7109375 L40.7808496,18.7109375 L40.7808496,21.0019531 L42.739834,21.0019531 L42.739834,22.5043945 L40.7808496,22.5043945 L40.7808496,27.152832 C40.7808496,28.0991211 41.1709863,28.5141602 42.0591699,28.5141602 C42.3330957,28.5141602 42.4908105,28.4975586 42.739834,28.4726562 L42.739834,29.9584961 C42.4493066,30.0083008 42.1172754,30.0498047 41.7686426,30.0498047 C39.7847559,30.0498047 38.9961816,29.3525391 38.9961816,27.609375 L38.9961816,22.5043945 L37.5601465,22.5043945 L37.5601465,21.0019531 L38.9961816,21.0019531 L38.9961816,18.7109375 Z M45.0939941,18.7109375 L46.8786621,18.7109375 L46.8786621,21.0019531 L48.8376465,21.0019531 L48.8376465,22.5043945 L46.8786621,22.5043945 L46.8786621,27.152832 C46.8786621,28.0991211 47.2687988,28.5141602 48.1569824,28.5141602 C48.4309082,28.5141602 48.588623,28.4975586 48.8376465,28.4726562 L48.8376465,29.9584961 C48.5471191,30.0083008 48.2150879,30.0498047 47.8664551,30.0498047 C45.8825684,30.0498047 45.0939941,29.3525391 45.0939941,27.609375 L45.0939941,22.5043945 L43.657959,22.5043945 L43.657959,21.0019531 L45.0939941,21.0019531 L45.0939941,18.7109375 Z M54.2464941,30.1743164 C51.5985449,30.1743164 49.9798926,28.40625 49.9798926,25.4760742 C49.9798926,22.5625 51.6068457,20.7861328 54.2464941,20.7861328 C56.8778418,20.7861328 58.5047949,22.5625 58.5047949,25.4760742 C58.5047949,28.40625 56.8861426,30.1743164 54.2464941,30.1743164 Z M54.2464941,28.5888672 C55.7904395,28.5888672 56.6703223,27.4433594 56.6703223,25.4760742 C56.6703223,23.5170898 55.7904395,22.371582 54.2464941,22.371582 C52.6942481,22.371582 51.822666,23.5170898 51.822666,25.4760742 C51.822666,27.4516602 52.6942481,28.5888672 54.2464941,28.5888672 Z M60.2363965,30 L60.2363965,20.9604492 L61.9546582,20.9604492 L61.9546582,22.3964844 L62.0874707,22.3964844 C62.5274121,21.3920898 63.4238965,20.7861328 64.7852246,20.7861328 C66.8023145,20.7861328 67.9146191,21.9980469 67.9146191,24.1479492 L67.9146191,30 L66.1299512,30 L66.1299512,24.5961914 C66.1299512,23.1435547 65.4990918,22.4213867 64.1792676,22.4213867 C62.8594434,22.4213867 62.0210645,23.3012695 62.0210645,24.7124023 L62.0210645,30 L60.2363965,30 Z"/>
      </g>
      <path fill="#C41261" fill-rule="nonzero" d="M1.777,5.87 L1.777,10 L0.601,10 L0.601,0.662 L1.777,0.662 L1.777,4.862 L6.327,4.862 L6.327,0.662 L7.503,0.662 L7.503,10 L6.327,10 L6.327,5.87 L1.777,5.87 Z M10.793,3.546 L10.793,10 L9.729,10 L9.729,3.546 L10.793,3.546 Z M10.275,1.04 C10.653,1.04 10.947,1.348 10.947,1.74 C10.947,2.118 10.639,2.412 10.261,2.412 C9.883,2.412 9.589,2.118 9.589,1.726 C9.589,1.334 9.883,1.04 10.275,1.04 Z M17.709,4.652 L17.709,3.546 L18.773,3.546 L18.773,10.042 C18.773,11.12 18.507,11.848 17.919,12.408 C17.345,12.968 16.519,13.262 15.539,13.262 C14.335,13.262 13.383,12.87 12.683,12.086 L13.411,11.358 C13.705,11.666 13.845,11.792 14.027,11.918 C14.391,12.142 14.993,12.296 15.539,12.296 C16.211,12.296 16.855,12.058 17.219,11.666 C17.541,11.316 17.709,10.798 17.709,10.126 L17.709,8.768 C17.079,9.72 16.337,10.154 15.329,10.154 C13.621,10.154 12.347,8.712 12.347,6.794 C12.347,5.758 12.725,4.764 13.369,4.148 C13.887,3.644 14.587,3.392 15.413,3.392 C16.393,3.392 17.051,3.756 17.709,4.652 Z M15.609,4.372 C14.349,4.372 13.467,5.352 13.467,6.752 C13.467,8.138 14.363,9.174 15.581,9.174 C16.197,9.174 16.799,8.88 17.219,8.39 C17.499,8.068 17.681,7.438 17.681,6.794 C17.681,5.954 17.555,5.506 17.177,5.086 C16.785,4.652 16.183,4.372 15.609,4.372 Z M21.979,0.662 L21.979,4.442 C22.567,3.714 23.155,3.392 23.925,3.392 C24.485,3.392 25.073,3.616 25.423,3.98 C25.773,4.33 25.927,4.834 25.927,5.66 L25.927,10 L24.863,10 L24.863,5.716 C24.863,4.834 24.429,4.344 23.659,4.344 C23.169,4.344 22.735,4.54 22.399,4.918 C22.077,5.282 21.979,5.604 21.979,6.22 L21.979,10 L20.915,10 L20.915,0.662 L21.979,0.662 Z M33.389,1.67 L33.389,4.792 L37.071,4.792 L37.071,5.8 L33.389,5.8 L33.389,8.992 L37.071,8.992 L37.071,10 L32.213,10 L32.213,0.662 L37.071,0.662 L37.071,1.67 L33.389,1.67 Z M38.849,3.546 L39.913,3.546 L39.913,4.442 C40.403,3.7 40.949,3.392 41.747,3.392 C42.629,3.392 43.189,3.77 43.483,4.568 C43.959,3.742 44.561,3.392 45.527,3.392 C46.269,3.392 46.829,3.63 47.165,4.078 C47.473,4.484 47.557,4.848 47.557,5.87 L47.557,10 L46.493,10 L46.493,6.122 C46.493,5.338 46.465,5.156 46.311,4.89 C46.115,4.554 45.695,4.344 45.191,4.344 C44.253,4.344 43.735,4.974 43.735,6.122 L43.735,10 L42.671,10 L42.671,6.136 C42.671,5.506 42.615,5.184 42.461,4.904 C42.279,4.54 41.887,4.344 41.411,4.344 C40.473,4.344 39.913,5.016 39.913,6.136 L39.913,10 L38.849,10 L38.849,3.546 Z M49.657,3.546 L50.721,3.546 L50.721,4.722 C51.337,3.77 51.995,3.392 53.073,3.392 C54.865,3.392 56.111,4.764 56.111,6.724 C56.111,8.754 54.865,10.154 53.073,10.154 C52.569,10.154 52.107,10.042 51.659,9.818 C51.267,9.622 51.071,9.454 50.721,8.992 L50.721,13.024 L49.657,13.024 L49.657,3.546 Z M52.891,4.344 C51.603,4.344 50.721,5.366 50.721,6.878 C50.721,8.292 51.575,9.23 52.849,9.23 C54.123,9.23 54.977,8.236 54.977,6.766 C54.977,6.01 54.795,5.436 54.417,5.016 C54.039,4.596 53.465,4.344 52.891,4.344 Z M58.785,0.662 L58.785,4.442 C59.373,3.714 59.961,3.392 60.731,3.392 C61.291,3.392 61.879,3.616 62.229,3.98 C62.579,4.33 62.733,4.834 62.733,5.66 L62.733,10 L61.669,10 L61.669,5.716 C61.669,4.834 61.235,4.344 60.465,4.344 C59.975,4.344 59.541,4.54 59.205,4.918 C58.883,5.282 58.785,5.604 58.785,6.22 L58.785,10 L57.721,10 L57.721,0.662 L58.785,0.662 Z M69.705,4.61 L69.705,3.546 L70.769,3.546 L70.769,10 L69.705,10 L69.705,8.754 C69.061,9.72 68.333,10.154 67.353,10.154 C65.575,10.154 64.315,8.754 64.315,6.794 C64.315,4.82 65.603,3.392 67.381,3.392 C68.361,3.392 69.075,3.77 69.705,4.61 Z M67.535,4.344 C66.835,4.344 66.345,4.582 65.967,5.114 C65.631,5.576 65.435,6.192 65.435,6.822 C65.435,8.194 66.331,9.23 67.507,9.23 C68.725,9.23 69.719,8.096 69.719,6.71 C69.719,5.31 68.823,4.344 67.535,4.344 Z M76.957,5.31 L75.893,5.31 L75.893,5.24 C75.893,4.638 75.403,4.26 74.661,4.26 C73.947,4.26 73.499,4.624 73.499,5.184 C73.499,5.744 73.779,5.954 74.941,6.276 C75.767,6.5 76.201,6.71 76.509,7.018 C76.831,7.34 77.027,7.802 77.027,8.278 C77.027,9.398 76.103,10.154 74.731,10.154 C73.261,10.154 72.435,9.468 72.323,8.166 L73.373,8.166 C73.443,8.894 73.919,9.286 74.731,9.286 C75.459,9.286 75.935,8.908 75.935,8.334 C75.935,7.774 75.571,7.494 74.465,7.214 C73.065,6.836 72.435,6.248 72.435,5.268 C72.435,4.148 73.345,3.392 74.703,3.392 C76.075,3.392 76.901,4.092 76.957,5.31 Z M79.729,3.546 L79.729,10 L78.665,10 L78.665,3.546 L79.729,3.546 Z M79.211,1.04 C79.589,1.04 79.883,1.348 79.883,1.74 C79.883,2.118 79.575,2.412 79.197,2.412 C78.819,2.412 78.525,2.118 78.525,1.726 C78.525,1.334 78.819,1.04 79.211,1.04 Z M85.917,5.31 L84.853,5.31 L84.853,5.24 C84.853,4.638 84.363,4.26 83.621,4.26 C82.907,4.26 82.459,4.624 82.459,5.184 C82.459,5.744 82.739,5.954 83.901,6.276 C84.727,6.5 85.161,6.71 85.469,7.018 C85.791,7.34 85.987,7.802 85.987,8.278 C85.987,9.398 85.063,10.154 83.691,10.154 C82.221,10.154 81.395,9.468 81.283,8.166 L82.333,8.166 C82.403,8.894 82.879,9.286 83.691,9.286 C84.419,9.286 84.895,8.908 84.895,8.334 C84.895,7.774 84.531,7.494 83.425,7.214 C82.025,6.836 81.395,6.248 81.395,5.268 C81.395,4.148 82.305,3.392 83.663,3.392 C85.035,3.392 85.861,4.092 85.917,5.31 Z M28.559,30.604 L27.859,31.276 C26.207,29.246 25.451,27.272 25.451,24.92 C25.451,22.512 26.333,20.132 27.887,18.382 L28.559,19.082 C27.145,20.832 26.445,22.778 26.445,24.878 C26.445,26.922 27.201,28.966 28.559,30.604 Z M34.173,23.31 L33.109,23.31 L33.109,23.24 C33.109,22.638 32.619,22.26 31.877,22.26 C31.163,22.26 30.715,22.624 30.715,23.184 C30.715,23.744 30.995,23.954 32.157,24.276 C32.983,24.5 33.417,24.71 33.725,25.018 C34.047,25.34 34.243,25.802 34.243,26.278 C34.243,27.398 33.319,28.154 31.947,28.154 C30.477,28.154 29.651,27.468 29.539,26.166 L30.589,26.166 C30.659,26.894 31.135,27.286 31.947,27.286 C32.675,27.286 33.151,26.908 33.151,26.334 C33.151,25.774 32.787,25.494 31.681,25.214 C30.281,24.836 29.651,24.248 29.651,23.268 C29.651,22.148 30.561,21.392 31.919,21.392 C33.291,21.392 34.117,22.092 34.173,23.31 Z M38.667,21.392 C40.571,21.392 41.929,22.806 41.929,24.794 C41.929,26.684 40.473,28.154 38.625,28.154 C36.707,28.154 35.363,26.754 35.363,24.766 C35.363,22.764 36.707,21.392 38.667,21.392 Z M38.667,22.372 C37.337,22.372 36.455,23.338 36.455,24.78 C36.455,26.208 37.337,27.174 38.653,27.174 C39.927,27.174 40.837,26.18 40.837,24.78 C40.837,23.338 39.969,22.372 38.667,22.372 Z M44.617,28 L43.553,28 L43.553,18.662 L44.617,18.662 L44.617,28 Z M47.823,21.546 L47.823,28 L46.759,28 L46.759,21.546 L47.823,21.546 Z M47.305,19.04 C47.683,19.04 47.977,19.348 47.977,19.74 C47.977,20.118 47.669,20.412 47.291,20.412 C46.913,20.412 46.619,20.118 46.619,19.726 C46.619,19.334 46.913,19.04 47.305,19.04 Z M54.795,22.526 L54.795,18.662 L55.859,18.662 L55.859,28 L54.795,28 L54.795,26.894 C54.151,27.776 53.465,28.154 52.485,28.154 C50.707,28.154 49.447,26.768 49.447,24.808 C49.447,22.848 50.735,21.392 52.485,21.392 C53.437,21.392 54.165,21.742 54.795,22.526 Z M52.709,22.344 C51.435,22.344 50.567,23.352 50.567,24.822 C50.567,26.236 51.421,27.23 52.639,27.23 C53.885,27.23 54.795,26.194 54.795,24.794 C54.795,23.338 53.941,22.344 52.709,22.344 Z M57.427,19.054 L58.127,18.382 C59.793,20.426 60.535,22.386 60.535,24.738 C60.535,27.16 59.653,29.512 58.099,31.276 L57.427,30.576 C58.841,28.826 59.541,26.88 59.541,24.78 C59.541,22.722 58.799,20.706 57.427,19.054 Z"/>
      <g transform="translate(183)">
        <path fill="#C41261" fill-rule="nonzero" d="M1.55,3.154 L1.55,10 L0.374,10 L0.374,0.662 L1.536,0.662 L4.994,7.662 L8.494,0.662 L9.642,0.662 L9.642,10 L8.466,10 L8.466,3.168 L4.994,10.098 L1.55,3.154 Z M17.86,7.116 L12.484,7.116 C12.54,7.662 12.638,7.942 12.904,8.292 C13.324,8.866 13.94,9.174 14.64,9.174 C15.438,9.174 16.194,8.74 16.572,8.068 L17.51,8.418 C16.978,9.496 15.872,10.154 14.64,10.154 C12.722,10.154 11.35,8.754 11.35,6.794 C11.35,4.806 12.708,3.392 14.598,3.392 C16.474,3.392 17.874,4.806 17.874,6.696 C17.874,6.78 17.874,6.962 17.86,7.116 Z M12.498,6.332 L16.74,6.332 C16.698,5.828 16.6,5.548 16.376,5.226 C15.97,4.68 15.312,4.344 14.598,4.344 C13.884,4.344 13.24,4.68 12.862,5.24 C12.666,5.548 12.582,5.814 12.498,6.332 Z M24.244,4.526 L24.244,0.662 L25.308,0.662 L25.308,10 L24.244,10 L24.244,8.894 C23.6,9.776 22.914,10.154 21.934,10.154 C20.156,10.154 18.896,8.768 18.896,6.808 C18.896,4.848 20.184,3.392 21.934,3.392 C22.886,3.392 23.614,3.742 24.244,4.526 Z M22.158,4.344 C20.884,4.344 20.016,5.352 20.016,6.822 C20.016,8.236 20.87,9.23 22.088,9.23 C23.334,9.23 24.244,8.194 24.244,6.794 C24.244,5.338 23.39,4.344 22.158,4.344 Z M28.514,3.546 L28.514,10 L27.45,10 L27.45,3.546 L28.514,3.546 Z M27.996,1.04 C28.374,1.04 28.668,1.348 28.668,1.74 C28.668,2.118 28.36,2.412 27.982,2.412 C27.604,2.412 27.31,2.118 27.31,1.726 C27.31,1.334 27.604,1.04 27.996,1.04 Z M34.408,3.546 L35.486,3.546 L35.486,7.676 C35.486,8.558 35.318,9.048 34.842,9.482 C34.366,9.916 33.708,10.154 32.98,10.154 C32.252,10.154 31.58,9.902 31.118,9.468 C30.684,9.048 30.474,8.46 30.474,7.676 L30.474,3.546 L31.538,3.546 L31.538,7.648 C31.538,8.558 32.126,9.202 32.98,9.202 C33.428,9.202 33.862,9.02 34.128,8.712 C34.338,8.46 34.408,8.194 34.408,7.676 L34.408,3.546 Z M37.446,3.546 L38.51,3.546 L38.51,4.442 C39,3.7 39.546,3.392 40.344,3.392 C41.226,3.392 41.786,3.77 42.08,4.568 C42.556,3.742 43.158,3.392 44.124,3.392 C44.866,3.392 45.426,3.63 45.762,4.078 C46.07,4.484 46.154,4.848 46.154,5.87 L46.154,10 L45.09,10 L45.09,6.122 C45.09,5.338 45.062,5.156 44.908,4.89 C44.712,4.554 44.292,4.344 43.788,4.344 C42.85,4.344 42.332,4.974 42.332,6.122 L42.332,10 L41.268,10 L41.268,6.136 C41.268,5.506 41.212,5.184 41.058,4.904 C40.876,4.54 40.484,4.344 40.008,4.344 C39.07,4.344 38.51,5.016 38.51,6.136 L38.51,10 L37.446,10 L37.446,3.546 Z M53.616,1.67 L53.616,4.792 L57.298,4.792 L57.298,5.8 L53.616,5.8 L53.616,8.992 L57.298,8.992 L57.298,10 L52.44,10 L52.44,0.662 L57.298,0.662 L57.298,1.67 L53.616,1.67 Z M59.076,3.546 L60.14,3.546 L60.14,4.442 C60.63,3.7 61.176,3.392 61.974,3.392 C62.856,3.392 63.416,3.77 63.71,4.568 C64.186,3.742 64.788,3.392 65.754,3.392 C66.496,3.392 67.056,3.63 67.392,4.078 C67.7,4.484 67.784,4.848 67.784,5.87 L67.784,10 L66.72,10 L66.72,6.122 C66.72,5.338 66.692,5.156 66.538,4.89 C66.342,4.554 65.922,4.344 65.418,4.344 C64.48,4.344 63.962,4.974 63.962,6.122 L63.962,10 L62.898,10 L62.898,6.136 C62.898,5.506 62.842,5.184 62.688,4.904 C62.506,4.54 62.114,4.344 61.638,4.344 C60.7,4.344 60.14,5.016 60.14,6.136 L60.14,10 L59.076,10 L59.076,3.546 Z M69.884,3.546 L70.948,3.546 L70.948,4.722 C71.564,3.77 72.222,3.392 73.3,3.392 C75.092,3.392 76.338,4.764 76.338,6.724 C76.338,8.754 75.092,10.154 73.3,10.154 C72.796,10.154 72.334,10.042 71.886,9.818 C71.494,9.622 71.298,9.454 70.948,8.992 L70.948,13.024 L69.884,13.024 L69.884,3.546 Z M73.118,4.344 C71.83,4.344 70.948,5.366 70.948,6.878 C70.948,8.292 71.802,9.23 73.076,9.23 C74.35,9.23 75.204,8.236 75.204,6.766 C75.204,6.01 75.022,5.436 74.644,5.016 C74.266,4.596 73.692,4.344 73.118,4.344 Z M79.012,0.662 L79.012,4.442 C79.6,3.714 80.188,3.392 80.958,3.392 C81.518,3.392 82.106,3.616 82.456,3.98 C82.806,4.33 82.96,4.834 82.96,5.66 L82.96,10 L81.896,10 L81.896,5.716 C81.896,4.834 81.462,4.344 80.692,4.344 C80.202,4.344 79.768,4.54 79.432,4.918 C79.11,5.282 79.012,5.604 79.012,6.22 L79.012,10 L77.948,10 L77.948,0.662 L79.012,0.662 Z M89.932,4.61 L89.932,3.546 L90.996,3.546 L90.996,10 L89.932,10 L89.932,8.754 C89.288,9.72 88.56,10.154 87.58,10.154 C85.802,10.154 84.542,8.754 84.542,6.794 C84.542,4.82 85.83,3.392 87.608,3.392 C88.588,3.392 89.302,3.77 89.932,4.61 Z M87.762,4.344 C87.062,4.344 86.572,4.582 86.194,5.114 C85.858,5.576 85.662,6.192 85.662,6.822 C85.662,8.194 86.558,9.23 87.734,9.23 C88.952,9.23 89.946,8.096 89.946,6.71 C89.946,5.31 89.05,4.344 87.762,4.344 Z M97.184,5.31 L96.12,5.31 L96.12,5.24 C96.12,4.638 95.63,4.26 94.888,4.26 C94.174,4.26 93.726,4.624 93.726,5.184 C93.726,5.744 94.006,5.954 95.168,6.276 C95.994,6.5 96.428,6.71 96.736,7.018 C97.058,7.34 97.254,7.802 97.254,8.278 C97.254,9.398 96.33,10.154 94.958,10.154 C93.488,10.154 92.662,9.468 92.55,8.166 L93.6,8.166 C93.67,8.894 94.146,9.286 94.958,9.286 C95.686,9.286 96.162,8.908 96.162,8.334 C96.162,7.774 95.798,7.494 94.692,7.214 C93.292,6.836 92.662,6.248 92.662,5.268 C92.662,4.148 93.572,3.392 94.93,3.392 C96.302,3.392 97.128,4.092 97.184,5.31 Z M99.956,3.546 L99.956,10 L98.892,10 L98.892,3.546 L99.956,3.546 Z M99.438,1.04 C99.816,1.04 100.11,1.348 100.11,1.74 C100.11,2.118 99.802,2.412 99.424,2.412 C99.046,2.412 98.752,2.118 98.752,1.726 C98.752,1.334 99.046,1.04 99.438,1.04 Z M106.144,5.31 L105.08,5.31 L105.08,5.24 C105.08,4.638 104.59,4.26 103.848,4.26 C103.134,4.26 102.686,4.624 102.686,5.184 C102.686,5.744 102.966,5.954 104.128,6.276 C104.954,6.5 105.388,6.71 105.696,7.018 C106.018,7.34 106.214,7.802 106.214,8.278 C106.214,9.398 105.29,10.154 103.918,10.154 C102.448,10.154 101.622,9.468 101.51,8.166 L102.56,8.166 C102.63,8.894 103.106,9.286 103.918,9.286 C104.646,9.286 105.122,8.908 105.122,8.334 C105.122,7.774 104.758,7.494 103.652,7.214 C102.252,6.836 101.622,6.248 101.622,5.268 C101.622,4.148 102.532,3.392 103.89,3.392 C105.262,3.392 106.088,4.092 106.144,5.31 Z M28.892,30.604 L28.192,31.276 C26.54,29.246 25.784,27.272 25.784,24.92 C25.784,22.512 26.666,20.132 28.22,18.382 L28.892,19.082 C27.478,20.832 26.778,22.778 26.778,24.878 C26.778,26.922 27.534,28.966 28.892,30.604 Z M33.246,21.392 C35.15,21.392 36.508,22.806 36.508,24.794 C36.508,26.684 35.052,28.154 33.204,28.154 C31.286,28.154 29.942,26.754 29.942,24.766 C29.942,22.764 31.286,21.392 33.246,21.392 Z M33.246,22.372 C31.916,22.372 31.034,23.338 31.034,24.78 C31.034,26.208 31.916,27.174 33.232,27.174 C34.506,27.174 35.416,26.18 35.416,24.78 C35.416,23.338 34.548,22.372 33.246,22.372 Z M41.884,21.546 L42.962,21.546 L42.962,25.676 C42.962,26.558 42.794,27.048 42.318,27.482 C41.842,27.916 41.184,28.154 40.456,28.154 C39.728,28.154 39.056,27.902 38.594,27.468 C38.16,27.048 37.95,26.46 37.95,25.676 L37.95,21.546 L39.014,21.546 L39.014,25.648 C39.014,26.558 39.602,27.202 40.456,27.202 C40.904,27.202 41.338,27.02 41.604,26.712 C41.814,26.46 41.884,26.194 41.884,25.676 L41.884,21.546 Z M46.056,22.484 L46.056,26.684 C46.07,27.006 46.154,27.076 46.546,27.076 L47.036,27.076 L47.036,28 L46.042,28 C45.286,27.986 44.992,27.706 44.992,26.992 L44.992,22.484 L44.096,22.484 L44.096,21.546 L44.992,21.546 L44.992,19.516 L46.056,19.516 L46.056,21.546 L47.036,21.546 L47.036,22.484 L46.056,22.484 Z M49.612,28 L48.548,28 L48.548,18.662 L49.612,18.662 L49.612,28 Z M52.818,21.546 L52.818,28 L51.754,28 L51.754,21.546 L52.818,21.546 Z M52.3,19.04 C52.678,19.04 52.972,19.348 52.972,19.74 C52.972,20.118 52.664,20.412 52.286,20.412 C51.908,20.412 51.614,20.118 51.614,19.726 C51.614,19.334 51.908,19.04 52.3,19.04 Z M54.96,21.546 L56.024,21.546 L56.024,22.456 C56.584,21.7 57.144,21.392 57.942,21.392 C58.53,21.392 59.062,21.588 59.44,21.924 C59.846,22.316 59.986,22.764 59.986,23.646 L59.986,28 L58.922,28 L58.922,23.884 C58.922,23.31 58.852,23.002 58.684,22.778 C58.488,22.512 58.11,22.344 57.676,22.344 C57.2,22.344 56.766,22.526 56.444,22.89 C56.136,23.226 56.024,23.534 56.024,24.066 L56.024,28 L54.96,28 L54.96,21.546 Z M68.078,25.116 L62.702,25.116 C62.758,25.662 62.856,25.942 63.122,26.292 C63.542,26.866 64.158,27.174 64.858,27.174 C65.656,27.174 66.412,26.74 66.79,26.068 L67.728,26.418 C67.196,27.496 66.09,28.154 64.858,28.154 C62.94,28.154 61.568,26.754 61.568,24.794 C61.568,22.806 62.926,21.392 64.816,21.392 C66.692,21.392 68.092,22.806 68.092,24.696 C68.092,24.78 68.092,24.962 68.078,25.116 Z M62.716,24.332 L66.958,24.332 C66.916,23.828 66.818,23.548 66.594,23.226 C66.188,22.68 65.53,22.344 64.816,22.344 C64.102,22.344 63.458,22.68 63.08,23.24 C62.884,23.548 62.8,23.814 62.716,24.332 Z M74.462,22.526 L74.462,18.662 L75.526,18.662 L75.526,28 L74.462,28 L74.462,26.894 C73.818,27.776 73.132,28.154 72.152,28.154 C70.374,28.154 69.114,26.768 69.114,24.808 C69.114,22.848 70.402,21.392 72.152,21.392 C73.104,21.392 73.832,21.742 74.462,22.526 Z M72.376,22.344 C71.102,22.344 70.234,23.352 70.234,24.822 C70.234,26.236 71.088,27.23 72.306,27.23 C73.552,27.23 74.462,26.194 74.462,24.794 C74.462,23.338 73.608,22.344 72.376,22.344 Z M77.094,19.054 L77.794,18.382 C79.46,20.426 80.202,22.386 80.202,24.738 C80.202,27.16 79.32,29.512 77.766,31.276 L77.094,30.576 C78.508,28.826 79.208,26.88 79.208,24.78 C79.208,22.722 78.466,20.706 77.094,19.054 Z"/>
        <g transform="translate(10 48)">
          <rect width="84" height="47" x=".5" y=".5" stroke="#A9B6BE" rx="8"/>
          <path fill="#314351" fill-rule="nonzero" d="M22.7082715,30 L17.7859082,30 L17.7859082,18.0219727 L22.6003613,18.0219727 C24.849873,18.0219727 26.2029004,19.1674805 26.2029004,21.0102539 C26.2029004,22.2636719 25.2815137,23.3842773 24.1028027,23.5834961 L24.1028027,23.7246094 C25.7214551,23.890625 26.8005566,25.0444336 26.8005566,26.6049805 C26.8005566,28.7133789 25.2649121,30 22.7082715,30 Z M19.6452832,19.5991211 L19.6452832,23.09375 L21.853291,23.09375 C23.4968457,23.09375 24.3518262,22.487793 24.3518262,21.3505859 C24.3518262,20.246582 23.5466504,19.5991211 22.1687207,19.5991211 L19.6452832,19.5991211 Z M19.6452832,28.4228516 L22.3347363,28.4228516 C24.0114941,28.4228516 24.8996777,27.7421875 24.8996777,26.472168 C24.8996777,25.21875 23.978291,24.5629883 22.2268262,24.5629883 L19.6452832,24.5629883 L19.6452832,28.4228516 Z M36.1854785,20.9604492 L36.1854785,30 L34.4672168,30 L34.4672168,28.5639648 L34.3261035,28.5639648 C33.8861621,29.5932617 32.9647754,30.1743164 31.5951465,30.1743164 C29.5946582,30.1743164 28.4823535,28.9541016 28.4823535,26.8291016 L28.4823535,20.9604492 L30.2670215,20.9604492 L30.2670215,26.3642578 C30.2670215,27.8251953 30.8563769,28.5224609 32.1679004,28.5224609 C33.6122363,28.5224609 34.4008105,27.6674805 34.4008105,26.2480469 L34.4008105,20.9604492 L36.1854785,20.9604492 Z M38.9961816,18.7109375 L40.7808496,18.7109375 L40.7808496,21.0019531 L42.739834,21.0019531 L42.739834,22.5043945 L40.7808496,22.5043945 L40.7808496,27.152832 C40.7808496,28.0991211 41.1709863,28.5141602 42.0591699,28.5141602 C42.3330957,28.5141602 42.4908105,28.4975586 42.739834,28.4726562 L42.739834,29.9584961 C42.4493066,30.0083008 42.1172754,30.0498047 41.7686426,30.0498047 C39.7847559,30.0498047 38.9961816,29.3525391 38.9961816,27.609375 L38.9961816,22.5043945 L37.5601465,22.5043945 L37.5601465,21.0019531 L38.9961816,21.0019531 L38.9961816,18.7109375 Z M45.0939941,18.7109375 L46.8786621,18.7109375 L46.8786621,21.0019531 L48.8376465,21.0019531 L48.8376465,22.5043945 L46.8786621,22.5043945 L46.8786621,27.152832 C46.8786621,28.0991211 47.2687988,28.5141602 48.1569824,28.5141602 C48.4309082,28.5141602 48.588623,28.4975586 48.8376465,28.4726562 L48.8376465,29.9584961 C48.5471191,30.0083008 48.2150879,30.0498047 47.8664551,30.0498047 C45.8825684,30.0498047 45.0939941,29.3525391 45.0939941,27.609375 L45.0939941,22.5043945 L43.657959,22.5043945 L43.657959,21.0019531 L45.0939941,21.0019531 L45.0939941,18.7109375 Z M54.2464941,30.1743164 C51.5985449,30.1743164 49.9798926,28.40625 49.9798926,25.4760742 C49.9798926,22.5625 51.6068457,20.7861328 54.2464941,20.7861328 C56.8778418,20.7861328 58.5047949,22.5625 58.5047949,25.4760742 C58.5047949,28.40625 56.8861426,30.1743164 54.2464941,30.1743164 Z M54.2464941,28.5888672 C55.7904395,28.5888672 56.6703223,27.4433594 56.6703223,25.4760742 C56.6703223,23.5170898 55.7904395,22.371582 54.2464941,22.371582 C52.6942481,22.371582 51.822666,23.5170898 51.822666,25.4760742 C51.822666,27.4516602 52.6942481,28.5888672 54.2464941,28.5888672 Z M60.2363965,30 L60.2363965,20.9604492 L61.9546582,20.9604492 L61.9546582,22.3964844 L62.0874707,22.3964844 C62.5274121,21.3920898 63.4238965,20.7861328 64.7852246,20.7861328 C66.8023145,20.7861328 67.9146191,21.9980469 67.9146191,24.1479492 L67.9146191,30 L66.1299512,30 L66.1299512,24.5961914 C66.1299512,23.1435547 65.4990918,22.4213867 64.1792676,22.4213867 C62.8594434,22.4213867 62.0210645,23.3012695 62.0210645,24.7124023 L62.0210645,30 L60.2363965,30 Z"/>
        </g>
      </g>
      <g transform="translate(386)">
        <path fill="#C41261" fill-rule="nonzero" d="M3.87,8.936 L7.16,8.936 L7.16,10 L2.694,10 L2.694,0.662 L3.87,0.662 L3.87,8.936 Z M11.36,3.392 C13.264,3.392 14.622,4.806 14.622,6.794 C14.622,8.684 13.166,10.154 11.318,10.154 C9.4,10.154 8.056,8.754 8.056,6.766 C8.056,4.764 9.4,3.392 11.36,3.392 Z M11.36,4.372 C10.03,4.372 9.148,5.338 9.148,6.78 C9.148,8.208 10.03,9.174 11.346,9.174 C12.62,9.174 13.53,8.18 13.53,6.78 C13.53,5.338 12.662,4.372 11.36,4.372 Z M23.694,3.546 L24.786,3.546 L22.49,10 L21.524,10 L20.04,5.1 L18.486,10 L17.478,10 L15.266,3.546 L16.358,3.546 L18.01,8.292 L19.494,3.546 L20.544,3.546 L22,8.292 L23.694,3.546 Z M31.296,1.67 L31.296,4.792 L34.978,4.792 L34.978,5.8 L31.296,5.8 L31.296,8.992 L34.978,8.992 L34.978,10 L30.12,10 L30.12,0.662 L34.978,0.662 L34.978,1.67 L31.296,1.67 Z M36.756,3.546 L37.82,3.546 L37.82,4.442 C38.31,3.7 38.856,3.392 39.654,3.392 C40.536,3.392 41.096,3.77 41.39,4.568 C41.866,3.742 42.468,3.392 43.434,3.392 C44.176,3.392 44.736,3.63 45.072,4.078 C45.38,4.484 45.464,4.848 45.464,5.87 L45.464,10 L44.4,10 L44.4,6.122 C44.4,5.338 44.372,5.156 44.218,4.89 C44.022,4.554 43.602,4.344 43.098,4.344 C42.16,4.344 41.642,4.974 41.642,6.122 L41.642,10 L40.578,10 L40.578,6.136 C40.578,5.506 40.522,5.184 40.368,4.904 C40.186,4.54 39.794,4.344 39.318,4.344 C38.38,4.344 37.82,5.016 37.82,6.136 L37.82,10 L36.756,10 L36.756,3.546 Z M47.564,3.546 L48.628,3.546 L48.628,4.722 C49.244,3.77 49.902,3.392 50.98,3.392 C52.772,3.392 54.018,4.764 54.018,6.724 C54.018,8.754 52.772,10.154 50.98,10.154 C50.476,10.154 50.014,10.042 49.566,9.818 C49.174,9.622 48.978,9.454 48.628,8.992 L48.628,13.024 L47.564,13.024 L47.564,3.546 Z M50.798,4.344 C49.51,4.344 48.628,5.366 48.628,6.878 C48.628,8.292 49.482,9.23 50.756,9.23 C52.03,9.23 52.884,8.236 52.884,6.766 C52.884,6.01 52.702,5.436 52.324,5.016 C51.946,4.596 51.372,4.344 50.798,4.344 Z M56.692,0.662 L56.692,4.442 C57.28,3.714 57.868,3.392 58.638,3.392 C59.198,3.392 59.786,3.616 60.136,3.98 C60.486,4.33 60.64,4.834 60.64,5.66 L60.64,10 L59.576,10 L59.576,5.716 C59.576,4.834 59.142,4.344 58.372,4.344 C57.882,4.344 57.448,4.54 57.112,4.918 C56.79,5.282 56.692,5.604 56.692,6.22 L56.692,10 L55.628,10 L55.628,0.662 L56.692,0.662 Z M67.612,4.61 L67.612,3.546 L68.676,3.546 L68.676,10 L67.612,10 L67.612,8.754 C66.968,9.72 66.24,10.154 65.26,10.154 C63.482,10.154 62.222,8.754 62.222,6.794 C62.222,4.82 63.51,3.392 65.288,3.392 C66.268,3.392 66.982,3.77 67.612,4.61 Z M65.442,4.344 C64.742,4.344 64.252,4.582 63.874,5.114 C63.538,5.576 63.342,6.192 63.342,6.822 C63.342,8.194 64.238,9.23 65.414,9.23 C66.632,9.23 67.626,8.096 67.626,6.71 C67.626,5.31 66.73,4.344 65.442,4.344 Z M74.864,5.31 L73.8,5.31 L73.8,5.24 C73.8,4.638 73.31,4.26 72.568,4.26 C71.854,4.26 71.406,4.624 71.406,5.184 C71.406,5.744 71.686,5.954 72.848,6.276 C73.674,6.5 74.108,6.71 74.416,7.018 C74.738,7.34 74.934,7.802 74.934,8.278 C74.934,9.398 74.01,10.154 72.638,10.154 C71.168,10.154 70.342,9.468 70.23,8.166 L71.28,8.166 C71.35,8.894 71.826,9.286 72.638,9.286 C73.366,9.286 73.842,8.908 73.842,8.334 C73.842,7.774 73.478,7.494 72.372,7.214 C70.972,6.836 70.342,6.248 70.342,5.268 C70.342,4.148 71.252,3.392 72.61,3.392 C73.982,3.392 74.808,4.092 74.864,5.31 Z M77.636,3.546 L77.636,10 L76.572,10 L76.572,3.546 L77.636,3.546 Z M77.118,1.04 C77.496,1.04 77.79,1.348 77.79,1.74 C77.79,2.118 77.482,2.412 77.104,2.412 C76.726,2.412 76.432,2.118 76.432,1.726 C76.432,1.334 76.726,1.04 77.118,1.04 Z M83.824,5.31 L82.76,5.31 L82.76,5.24 C82.76,4.638 82.27,4.26 81.528,4.26 C80.814,4.26 80.366,4.624 80.366,5.184 C80.366,5.744 80.646,5.954 81.808,6.276 C82.634,6.5 83.068,6.71 83.376,7.018 C83.698,7.34 83.894,7.802 83.894,8.278 C83.894,9.398 82.97,10.154 81.598,10.154 C80.128,10.154 79.302,9.468 79.19,8.166 L80.24,8.166 C80.31,8.894 80.786,9.286 81.598,9.286 C82.326,9.286 82.802,8.908 82.802,8.334 C82.802,7.774 82.438,7.494 81.332,7.214 C79.932,6.836 79.302,6.248 79.302,5.268 C79.302,4.148 80.212,3.392 81.57,3.392 C82.942,3.392 83.768,4.092 83.824,5.31 Z M31.975,30.604 L31.275,31.276 C29.623,29.246 28.867,27.272 28.867,24.92 C28.867,22.512 29.749,20.132 31.303,18.382 L31.975,19.082 C30.561,20.832 29.861,22.778 29.861,24.878 C29.861,26.922 30.617,28.966 31.975,30.604 Z M34.677,22.484 L34.677,26.684 C34.691,27.006 34.775,27.076 35.167,27.076 L35.657,27.076 L35.657,28 L34.663,28 C33.907,27.986 33.613,27.706 33.613,26.992 L33.613,22.484 L32.717,22.484 L32.717,21.546 L33.613,21.546 L33.613,19.516 L34.677,19.516 L34.677,21.546 L35.657,21.546 L35.657,22.484 L34.677,22.484 Z M43.161,25.116 L37.785,25.116 C37.841,25.662 37.939,25.942 38.205,26.292 C38.625,26.866 39.241,27.174 39.941,27.174 C40.739,27.174 41.495,26.74 41.873,26.068 L42.811,26.418 C42.279,27.496 41.173,28.154 39.941,28.154 C38.023,28.154 36.651,26.754 36.651,24.794 C36.651,22.806 38.009,21.392 39.899,21.392 C41.775,21.392 43.175,22.806 43.175,24.696 C43.175,24.78 43.175,24.962 43.161,25.116 Z M37.799,24.332 L42.041,24.332 C41.999,23.828 41.901,23.548 41.677,23.226 C41.271,22.68 40.613,22.344 39.899,22.344 C39.185,22.344 38.541,22.68 38.163,23.24 C37.967,23.548 37.883,23.814 37.799,24.332 Z M46.773,25.662 L45.051,28 L43.749,28 L46.129,24.794 L43.707,21.546 L45.051,21.546 L46.773,23.912 L48.537,21.546 L49.839,21.546 L47.403,24.794 L49.727,28 L48.425,28 L46.773,25.662 Z M52.093,22.484 L52.093,26.684 C52.107,27.006 52.191,27.076 52.583,27.076 L53.073,27.076 L53.073,28 L52.079,28 C51.323,27.986 51.029,27.706 51.029,26.992 L51.029,22.484 L50.133,22.484 L50.133,21.546 L51.029,21.546 L51.029,19.516 L52.093,19.516 L52.093,21.546 L53.073,21.546 L53.073,22.484 L52.093,22.484 Z M54.011,19.054 L54.711,18.382 C56.377,20.426 57.119,22.386 57.119,24.738 C57.119,27.16 56.237,29.512 54.683,31.276 L54.011,30.576 C55.425,28.826 56.125,26.88 56.125,24.78 C56.125,22.722 55.383,20.706 54.011,19.054 Z"/>
        <g transform="translate(0 48)">
          <rect width="85" height="48"/>
          <path fill="#314351" fill-rule="nonzero" d="M22.7082715,30 L17.7859082,30 L17.7859082,18.0219727 L22.6003613,18.0219727 C24.849873,18.0219727 26.2029004,19.1674805 26.2029004,21.0102539 C26.2029004,22.2636719 25.2815137,23.3842773 24.1028027,23.5834961 L24.1028027,23.7246094 C25.7214551,23.890625 26.8005566,25.0444336 26.8005566,26.6049805 C26.8005566,28.7133789 25.2649121,30 22.7082715,30 Z M19.6452832,19.5991211 L19.6452832,23.09375 L21.853291,23.09375 C23.4968457,23.09375 24.3518262,22.487793 24.3518262,21.3505859 C24.3518262,20.246582 23.5466504,19.5991211 22.1687207,19.5991211 L19.6452832,19.5991211 Z M19.6452832,28.4228516 L22.3347363,28.4228516 C24.0114941,28.4228516 24.8996777,27.7421875 24.8996777,26.472168 C24.8996777,25.21875 23.978291,24.5629883 22.2268262,24.5629883 L19.6452832,24.5629883 L19.6452832,28.4228516 Z M36.1854785,20.9604492 L36.1854785,30 L34.4672168,30 L34.4672168,28.5639648 L34.3261035,28.5639648 C33.8861621,29.5932617 32.9647754,30.1743164 31.5951465,30.1743164 C29.5946582,30.1743164 28.4823535,28.9541016 28.4823535,26.8291016 L28.4823535,20.9604492 L30.2670215,20.9604492 L30.2670215,26.3642578 C30.2670215,27.8251953 30.8563769,28.5224609 32.1679004,28.5224609 C33.6122363,28.5224609 34.4008105,27.6674805 34.4008105,26.2480469 L34.4008105,20.9604492 L36.1854785,20.9604492 Z M38.9961816,18.7109375 L40.7808496,18.7109375 L40.7808496,21.0019531 L42.739834,21.0019531 L42.739834,22.5043945 L40.7808496,22.5043945 L40.7808496,27.152832 C40.7808496,28.0991211 41.1709863,28.5141602 42.0591699,28.5141602 C42.3330957,28.5141602 42.4908105,28.4975586 42.739834,28.4726562 L42.739834,29.9584961 C42.4493066,30.0083008 42.1172754,30.0498047 41.7686426,30.0498047 C39.7847559,30.0498047 38.9961816,29.3525391 38.9961816,27.609375 L38.9961816,22.5043945 L37.5601465,22.5043945 L37.5601465,21.0019531 L38.9961816,21.0019531 L38.9961816,18.7109375 Z M45.0939941,18.7109375 L46.8786621,18.7109375 L46.8786621,21.0019531 L48.8376465,21.0019531 L48.8376465,22.5043945 L46.8786621,22.5043945 L46.8786621,27.152832 C46.8786621,28.0991211 47.2687988,28.5141602 48.1569824,28.5141602 C48.4309082,28.5141602 48.588623,28.4975586 48.8376465,28.4726562 L48.8376465,29.9584961 C48.5471191,30.0083008 48.2150879,30.0498047 47.8664551,30.0498047 C45.8825684,30.0498047 45.0939941,29.3525391 45.0939941,27.609375 L45.0939941,22.5043945 L43.657959,22.5043945 L43.657959,21.0019531 L45.0939941,21.0019531 L45.0939941,18.7109375 Z M54.2464941,30.1743164 C51.5985449,30.1743164 49.9798926,28.40625 49.9798926,25.4760742 C49.9798926,22.5625 51.6068457,20.7861328 54.2464941,20.7861328 C56.8778418,20.7861328 58.5047949,22.5625 58.5047949,25.4760742 C58.5047949,28.40625 56.8861426,30.1743164 54.2464941,30.1743164 Z M54.2464941,28.5888672 C55.7904395,28.5888672 56.6703223,27.4433594 56.6703223,25.4760742 C56.6703223,23.5170898 55.7904395,22.371582 54.2464941,22.371582 C52.6942481,22.371582 51.822666,23.5170898 51.822666,25.4760742 C51.822666,27.4516602 52.6942481,28.5888672 54.2464941,28.5888672 Z M60.2363965,30 L60.2363965,20.9604492 L61.9546582,20.9604492 L61.9546582,22.3964844 L62.0874707,22.3964844 C62.5274121,21.3920898 63.4238965,20.7861328 64.7852246,20.7861328 C66.8023145,20.7861328 67.9146191,21.9980469 67.9146191,24.1479492 L67.9146191,30 L66.1299512,30 L66.1299512,24.5961914 C66.1299512,23.1435547 65.4990918,22.4213867 64.1792676,22.4213867 C62.8594434,22.4213867 62.0210645,23.3012695 62.0210645,24.7124023 L62.0210645,30 L60.2363965,30 Z"/>
        </g>
      </g>
    </g>
  </g>
</svg>
