<svg xmlns="http://www.w3.org/2000/svg" xmlns:xlink="http://www.w3.org/1999/xlink" width="580" height="186" viewBox="0 0 580 186">
  <defs>
    <rect id="1-b" width="375" height="170"/>
    <filter id="1-a" width="106.7%" height="114.7%" x="-3.3%" y="-6.8%" filterUnits="objectBoundingBox">
      <feOffset dy="1" in="SourceAlpha" result="shadowOffsetOuter1"/>
      <feGaussianBlur in="shadowOffsetOuter1" result="shadowBlurOuter1" stdDeviation="4"/>
      <feColorMatrix in="shadowBlurOuter1" result="shadowMatrixOuter1" values="0 0 0 0 0   0 0 0 0 0   0 0 0 0 0  0 0 0 0.2 0"/>
      <feMorphology in="SourceAlpha" radius="1" result="shadowSpreadOuter2"/>
      <feOffset dy="3" in="shadowSpreadOuter2" result="shadowOffsetOuter2"/>
      <feGaussianBlur in="shadowOffsetOuter2" result="shadowBlurOuter2" stdDeviation="1.5"/>
      <feColorMatrix in="shadowBlurOuter2" result="shadowMatrixOuter2" values="0 0 0 0 0   0 0 0 0 0   0 0 0 0 0  0 0 0 0.12 0"/>
      <feOffset dy="3" in="SourceAlpha" result="shadowOffsetOuter3"/>
      <feGaussianBlur in="shadowOffsetOuter3" result="shadowBlurOuter3" stdDeviation="2"/>
      <feColorMatrix in="shadowBlurOuter3" result="shadowMatrixOuter3" values="0 0 0 0 0   0 0 0 0 0   0 0 0 0 0  0 0 0 0.14 0"/>
      <feMerge>
        <feMergeNode in="shadowMatrixOuter1"/>
        <feMergeNode in="shadowMatrixOuter2"/>
        <feMergeNode in="shadowMatrixOuter3"/>
      </feMerge>
    </filter>
    <rect id="1-d" width="375" height="48"/>
    <filter id="1-c" width="100.1%" height="102.1%" x="-.1%" y="-1.6%" filterUnits="objectBoundingBox">
      <feOffset dy="-.5" in="SourceAlpha" result="shadowOffsetOuter1"/>
      <feComposite in="shadowOffsetOuter1" in2="SourceAlpha" operator="out" result="shadowOffsetOuter1"/>
      <feColorMatrix in="shadowOffsetOuter1" values="0 0 0 0 0   0 0 0 0 0   0 0 0 0 0  0 0 0 0.2 0"/>
    </filter>
    <path id="1-e" d="M12,15 L12,15.5 C10.1086931,15.5 8.5,13.8914139 8.5,11.9994584 C8.5,10.1083874 10.1088918,8.5 12,8.5 C13.8911082,8.5 15.5,10.1083874 15.5,11.9994584 C15.5,13.8914139 13.8913069,15.5 12,15.5 L12,15 Z M14.5,11.9994584 C14.5,10.6607423 13.3388937,9.5 12,9.5 C10.6611063,9.5 9.5,10.6607423 9.5,11.9994584 C9.5,13.3391142 10.6609629,14.5 12,14.5 C13.3390371,14.5 14.5,13.3391142 14.5,11.9994584 Z M19.0606174,10.4703224 C17.9205476,10.3281283 17.3690987,8.99752677 18.0745815,8.08957943 L18.8318727,7.11651456 C19.261393,6.56383658 19.2123085,5.77774856 18.7170611,5.28250107 C18.222797,4.78762446 17.4368949,4.73873532 16.8835434,5.16891556 L15.9103794,5.92545049 C15.0034895,6.63108881 13.6727042,6.08027902 13.5305433,4.9404754 L13.3772079,3.71629172 C13.2901639,3.02116584 12.7000851,2.5 12,2.5 C11.2999149,2.5 10.7098361,3.02116584 10.62279,3.71630873 L10.4694891,4.9402159 C10.3272958,6.08027902 8.99651047,6.63108881 8.08978996,5.92558222 L7.11645383,5.16891338 C6.56310513,4.73873532 5.77720305,4.78762446 5.28272006,5.28272006 C4.78769155,5.77774856 4.73860701,6.56383658 5.16791847,7.1162461 L5.92565662,8.08988569 C6.63090129,8.99752677 6.07945241,10.3281283 4.93930951,10.4703315 L3.71551238,10.6227854 C3.0214033,10.7097787 2.5,11.3005186 2.5,12 C2.5,12.7002228 3.02131209,13.2910432 3.71514284,13.3780018 L4.93938256,13.5305109 C6.07945241,13.672705 6.63090129,15.0033066 5.92541847,15.9112539 L5.16812725,16.8843188 C4.73860701,17.4369968 4.78769155,18.2230848 5.28272006,18.7181133 C5.77735058,19.2127438 6.56345101,19.2618291 7.1162461,18.8320815 L8.08996185,18.0742842 C8.99699918,17.3697892 10.3273344,17.9208636 10.4694567,19.0603579 L10.6227921,20.2845416 C10.7098033,20.9794056 11.2996511,21.5 12,21.5 C12.7003489,21.5 13.2901967,20.9794056 13.37721,20.2845246 L13.5305109,19.0606174 C13.6726656,17.9208636 15.0030008,17.3697892 15.9104206,18.0745815 L16.8835462,18.83192 C17.436549,19.2618291 18.2226494,19.2127438 18.7172799,18.7181133 C19.2123085,18.2230848 19.261393,17.4369968 18.8320815,16.8845872 L18.0743434,15.9109476 C17.3690987,15.0033066 17.9205476,13.672705 19.0606905,13.5305018 L20.2844876,13.378048 C20.9786879,13.2910432 21.5,12.7002228 21.5,12 C21.5,11.3005759 20.9786822,10.7098756 20.2846584,10.6228068 L19.0606174,10.4703224 Z M22.5,12 C22.5,13.2043883 21.6033646,14.2205752 20.4084762,14.3703315 L19.1843826,14.5228224 C18.8139894,14.5690194 18.634521,15.002062 18.8637518,15.2970794 L19.6214606,16.2706812 C20.3603604,17.2214482 20.2759249,18.5736819 19.4243867,19.4252201 C18.5732284,20.2763784 17.2209037,20.3608196 16.2695794,19.6212518 L15.2966285,18.8640491 C15.0018151,18.6350678 14.5689722,18.8143675 14.52279,19.1846421 L14.3694588,20.4087917 C14.2197957,21.6039884 13.2045899,22.5 12,22.5 C10.7954101,22.5 9.78020428,21.6039884 9.63054333,20.4088087 L9.47717756,19.1843826 C9.43102778,18.8143675 8.99818488,18.6350678 8.7037539,18.8637518 L7.73021284,19.6214134 C6.77909628,20.3608196 5.4267716,20.2763784 4.57561328,19.4252201 C3.7240751,18.5736819 3.63963956,17.2214482 4.3787482,16.2704128 L5.13601004,15.2973857 C5.365479,15.002062 5.18601065,14.5690194 4.81569049,14.5228315 L3.59115429,14.3702854 C2.39663545,14.2205752 1.5,13.2043883 1.5,12 C1.5,10.7962868 2.39679235,9.78023852 3.59152382,9.63050179 L4.81561744,9.4780109 C5.18601065,9.43181395 5.365479,8.99877133 5.1362482,8.7037539 L4.37853941,7.73015211 C3.63963956,6.7793851 3.7240751,5.42715145 4.57539443,4.57583226 C5.42629673,3.72387555 6.7787477,3.63974273 7.73021004,4.37941778 L8.70371275,5.13621617 C8.9984227,5.36552585 9.43102706,5.18647164 9.47721,4.81619127 L9.6305412,3.59204161 C9.78021844,2.39673184 10.7955238,1.5 12,1.5 C13.2044762,1.5 14.2197816,2.39673184 14.3694567,3.5920246 L14.5228224,4.81645077 C14.5689729,5.18647164 15.0015773,5.36552585 15.2964566,5.13608444 L16.2697872,4.37941995 C17.2212523,3.63974273 18.5737033,3.72387555 19.4243867,4.57561328 C20.2759249,5.42715145 20.3603604,6.7793851 19.6212518,7.73042057 L18.86399,8.70344765 C18.634521,8.99877133 18.8139894,9.43181395 19.1843095,9.47800179 L20.4084762,9.63050179 C21.6032077,9.78023852 22.5,10.7962868 22.5,12 Z"/>
    <path id="1-f" d="M12.0001,11.014 C13.6541,11.014 15.0001,9.668 15.0001,8.014 C15.0001,6.36 13.6541,5.014 12.0001,5.014 C10.3461,5.014 9.0001,6.36 9.0001,8.014 C9.0001,9.668 10.3461,11.014 12.0001,11.014 Z M12.0001,4.014 C14.2061,4.014 16.0001,5.808 16.0001,8.014 C16.0001,10.22 14.2061,12.014 12.0001,12.014 C9.7941,12.014 8.0001,10.22 8.0001,8.014 C8.0001,5.808 9.7941,4.014 12.0001,4.014 Z M19.193,18.93 C20.926,17.13 22,14.69 22,11.999 C22,6.486 17.514,2 12,2 C6.486,2 2,6.486 2,11.999 C2,14.69 3.073,17.13 4.807,18.93 C5.711,15.803 8.582,13.514 12,13.514 C15.418,13.514 18.289,15.803 19.193,18.93 Z M12,1 C18.075,1 23,5.925 23,11.999 C23,18.075 18.075,22.999 12,22.999 C5.925,22.999 1,18.075 1,11.999 C1,5.925 5.925,1 12,1 Z M12.0494,14.3538 C8.9434,14.3538 6.2934,16.5548 5.6854,19.5518 C7.4804,21.0408 9.7204,21.8538 12.0494,21.8538 C14.3784,21.8538 16.6184,21.0408 18.4134,19.5518 C17.8054,16.5548 15.1554,14.3538 12.0494,14.3538 Z"/>
    <path id="1-g" d="M21.0000154,9.95921869 L21.0000154,20.0333192 C21.0000154,21.1404616 20.1021578,22.0383192 18.9950154,22.0383192 L16.0050154,22.0383192 C14.8978731,22.0383192 14.0000154,21.1404616 14.0000154,20.0333192 L14.0000154,17.0413192 C14.0000154,16.4874616 13.5508731,16.0383192 12.9970154,16.0383192 L11.0030154,16.0383192 C10.4491578,16.0383192 10.0000154,16.4874616 10.0000154,17.0413192 L10.0000154,20.0333192 C10.0000154,21.1404616 9.10215782,22.0383192 7.99501544,22.0383192 L5.00501544,22.0383192 C3.89787307,22.0383192 3.00001544,21.1404616 3.00001544,20.0333192 L3.00001544,9.95964705 L1.81613021,10.9257098 C1.6021803,11.1002952 1.28721023,11.0683839 1.11262487,10.854434 C0.938039506,10.6404841 0.969950772,10.325514 1.18390068,10.1509287 L10.3152218,2.70300627 C11.2455388,1.77142355 12.7544921,1.77142355 13.6471302,2.66892865 L22.8161302,10.1509287 C23.0300801,10.325514 23.0619914,10.6404841 22.887406,10.854434 C22.7128207,11.0683839 22.3978506,11.1002952 22.1839007,10.9257098 L21.0000154,9.95921869 Z M20.0000154,9.14284639 L12.9772218,3.40963219 C12.4375388,2.86921491 11.5624921,2.86921491 10.9851302,3.4437098 L4.00001544,9.14363658 L4.00001544,20.0333192 C4.00001544,20.5881769 4.45015782,21.0383192 5.00501544,21.0383192 L7.99501544,21.0383192 C8.54987307,21.0383192 9.00001544,20.5881769 9.00001544,20.0333192 L9.00001544,17.0413192 C9.00001544,15.9351769 9.89687307,15.0383192 11.0030154,15.0383192 L12.9970154,15.0383192 C14.1031578,15.0383192 15.0000154,15.9351769 15.0000154,17.0413192 L15.0000154,20.0333192 C15.0000154,20.5881769 15.4501578,21.0383192 16.0050154,21.0383192 L18.9950154,21.0383192 C19.5498731,21.0383192 20.0000154,20.5881769 20.0000154,20.0333192 L20.0000154,9.14284639 Z"/>
  </defs>
  <g fill="none" fill-rule="evenodd" transform="translate(0 2)">
    <rect width="580" height="180" fill="#FFF" fill-opacity=".01" fill-rule="nonzero"/>
    <g transform="translate(103 5)">
      <use fill="#000" filter="url(#1-a)" xlink:href="#1-b"/>
      <use fill="#F7F7F7" xlink:href="#1-b"/>
      <rect width="375" height="170" fill="#FFF"/>
      <g transform="translate(0 24)">
        <rect width="375" height="1" y="137" fill="#C1CDD4"/>
        <path fill="#000" d="M42.3690666 64.7522425L40.528122 59.5087244 33.2405206 59.5087244 31.3995761 64.7522425 29 64.7522425 35.7543622 46.4316698 38.0142804 46.4316698 44.7686426 64.7522425 42.3690666 64.7522425zM36.782752 49.3898773L33.9134176 57.5662105 39.855225 57.5662105 36.9858907 49.3898773 36.782752 49.3898773zM58.1377092 51.0657717L58.1377092 64.7522425 56.0555374 64.7522425 56.0555374 62.6065898 55.8523987 62.6065898C55.1668055 64.1301302 53.706746 64.9934697 51.611878 64.9934697 48.539405 64.9934697 46.9396876 63.1652213 46.9396876 59.927698L46.9396876 51.0657717 49.1234288 51.0657717 49.1234288 59.3944589C49.1234288 61.8575158 50.037553 63.0001711 52.2212942 63.0001711 54.6335664 63.0001711 55.953968 61.5655039 55.953968 59.1659279L55.953968 51.0657717 58.1377092 51.0657717zM67.7867981 62.619286C70.326032 62.619286 71.8495723 60.6894682 71.8495723 57.7058684 71.8495723 54.7222685 70.3133358 52.7924507 67.7867981 52.7924507 65.2475642 52.7924507 63.8255932 54.7222685 63.8255932 57.7058684 63.8255932 60.6894682 65.2475642 62.619286 67.7867981 62.619286zM67.8883674 70.0084567C64.5873633 70.0084567 62.4797992 68.5230048 62.1496988 66.2630866L64.4604016 66.2630866C64.7016289 67.3803496 65.9204611 68.1040312 67.8883674 68.1040312 70.3387282 68.1040312 71.7987877 66.8978951 71.7987877 64.8792042L71.7987877 62.1876162 71.5956489 62.1876162C70.7323094 63.6984604 69.1833767 64.5491038 67.3043436 64.5491038 63.7621123 64.5491038 61.565675 61.8067311 61.565675 57.7058684 61.565675 53.6050056 63.7875046 50.8245444 67.3043436 50.8245444 69.2214652 50.8245444 70.9100558 51.764061 71.6972183 53.2368167L71.900357 53.2368167 71.900357 51.0657717 73.9825288 51.0657717 73.9825288 64.9934697C73.9825288 68.0532466 71.6210413 70.0084567 67.8883674 70.0084567zM85.3075121 51.5863146C85.3075121 48.3360952 87.770569 46 91.1731424 46 94.4614504 46 96.9752919 48.2345258 96.9752919 51.1419487 96.9752919 53.0463741 96.1119524 54.531826 93.1029602 57.756653L88.6973894 62.4923243 88.6973894 62.695463 97.28 62.695463 97.28 64.7522425 85.4217776 64.7522425 85.4217776 63.1779174 91.7571662 56.258505C94.1186538 53.6938788 94.6899814 52.7035775 94.6899814 51.2308219 94.6899814 49.4025734 93.1283525 47.9932986 91.1096616 47.9932986 88.9640089 47.9932986 87.5166456 49.4279658 87.5166456 51.5863146L87.5166456 51.5990108 85.3075121 51.5990108 85.3075121 51.5863146zM40.6795815 102.827854L31.4140625 102.827854 31.4140625 80.2812373 40.4764588 80.2812373C44.7107854 80.2812373 47.2576313 82.4374626 47.2576313 85.906173 47.2576313 88.265521 45.5232761 90.3748719 43.3045515 90.7498676L43.3045515 91.0154895C46.3513916 91.327986 48.3826184 93.4998361 48.3826184 96.4373025 48.3826184 100.406007 45.4920265 102.827854 40.6795815 102.827854zM34.9140225 83.2499534L34.9140225 89.8280031 39.0702249 89.8280031C42.1639395 89.8280031 43.7732961 88.6873912 43.7732961 86.5467906 43.7732961 84.4686894 42.2576885 83.2499534 39.6639681 83.2499534L34.9140225 83.2499534zM34.9140225 99.8591384L39.9764646 99.8591384C43.1326785 99.8591384 44.8045343 98.577903 44.8045343 96.1873054 44.8045343 93.8279574 43.0701792 92.5935965 39.7733419 92.5935965L34.9140225 92.5935965 34.9140225 99.8591384zM59.6637394 103.155976C54.6794214 103.155976 51.6325812 99.8278887 51.6325812 94.3123268 51.6325812 88.8280145 54.6950462 85.4843028 59.6637394 85.4843028 64.6168077 85.4843028 67.6792727 88.8280145 67.6792727 94.3123268 67.6792727 99.8278887 64.6324325 103.155976 59.6637394 103.155976zM59.6637394 100.171635C62.5699561 100.171635 64.2261872 98.0154095 64.2261872 94.3123268 64.2261872 90.624869 62.5699561 88.4686437 59.6637394 88.4686437 56.7418978 88.4686437 55.1012916 90.624869 55.1012916 94.3123268 55.1012916 98.0310343 56.7418978 100.171635 59.6637394 100.171635zM78.8978944 103.155976C73.9135764 103.155976 70.8667362 99.8278887 70.8667362 94.3123268 70.8667362 88.8280145 73.9292012 85.4843028 78.8978944 85.4843028 83.8509627 85.4843028 86.9134277 88.8280145 86.9134277 94.3123268 86.9134277 99.8278887 83.8665875 103.155976 78.8978944 103.155976zM78.8978944 100.171635C81.8041111 100.171635 83.4603422 98.0154095 83.4603422 94.3123268 83.4603422 90.624869 81.8041111 88.4686437 78.8978944 88.4686437 75.9760528 88.4686437 74.3354465 90.624869 74.3354465 94.3123268 74.3354465 98.0310343 75.9760528 100.171635 78.8978944 100.171635zM94.7258383 92.9060929L101.475761 85.812424 105.444466 85.812424 98.4445458 93.1092156 105.91321 102.827854 101.788258 102.827854 95.9445744 95.3279402 94.4602163 96.7341741 94.4602163 102.827854 91.1008798 102.827854 91.1008798 79.171875 94.4602163 79.171875 94.4602163 92.9060929 94.7258383 92.9060929zM136.694108 102.827854L133.209773 102.827854 133.209773 92.9373425 121.631781 92.9373425 121.631781 102.827854 118.131821 102.827854 118.131821 80.2812373 121.631781 80.2812373 121.631781 89.749879 133.209773 89.749879 133.209773 80.2812373 136.694108 80.2812373 136.694108 102.827854zM149.147091 103.155976C144.162773 103.155976 141.115933 99.8278887 141.115933 94.3123268 141.115933 88.8280145 144.178398 85.4843028 149.147091 85.4843028 154.100159 85.4843028 157.162624 88.8280145 157.162624 94.3123268 157.162624 99.8278887 154.115784 103.155976 149.147091 103.155976zM149.147091 100.171635C152.053308 100.171635 153.709539 98.0154095 153.709539 94.3123268 153.709539 90.624869 152.053308 88.4686437 149.147091 88.4686437 146.225249 88.4686437 144.584643 90.624869 144.584643 94.3123268 144.584643 98.0310343 146.225249 100.171635 149.147091 100.171635zM162.381314 81.5780975L165.740651 81.5780975 165.740651 85.8905481 169.428109 85.8905481 169.428109 88.7186408 165.740651 88.7186408 165.740651 97.4685407C165.740651 99.2497703 166.475018 100.031011 168.146873 100.031011 168.662493 100.031011 168.959364 99.9997618 169.428109 99.9528873L169.428109 102.74973C168.88124 102.843479 168.256247 102.921603 167.600005 102.921603 163.865672 102.921603 162.381314 101.609118 162.381314 98.3279059L162.381314 88.7186408 159.67822 88.7186408 159.67822 85.8905481 162.381314 85.8905481 162.381314 81.5780975zM180.177986 88.3436451C177.693639 88.3436451 175.959284 90.0936251 175.771786 92.7498447L184.365438 92.7498447C184.287314 90.0780003 182.662332 88.3436451 180.177986 88.3436451zM184.349813 98.234157L187.584151 98.234157C186.818535 101.280997 184.099816 103.155976 180.209236 103.155976 175.334291 103.155976 172.34995 99.8122639 172.34995 94.3748261 172.34995 88.9373883 175.396791 85.4843028 180.193611 85.4843028 184.927932 85.4843028 187.787274 88.7186408 187.787274 94.0623297L187.787274 95.2341913 175.771786 95.2341913 175.771786 95.4216891C175.88116 98.40603 177.615515 100.296633 180.302984 100.296633 182.334211 100.296633 183.72482 99.5622668 184.349813 98.234157zM191.974726 102.827854L191.974726 79.171875 195.334062 79.171875 195.334062 102.827854 191.974726 102.827854zM56.3664923 25.7483177L51.7181822 25.7483177 51.7181822 9.728249 51.4525644 9.728249 45.359958 24.3704258 42.0231354 24.3704258 35.9139278 9.728249 35.6483101 9.728249 35.6483101 25.7483177 31 25.7483177 31 1.79291961 36.9099943 1.79291961 43.5338362 17.8959939 43.8326561 17.8959939 50.4730991 1.79291961 56.3664923 1.79291961 56.3664923 25.7483177zM68.3026886 22.394894C70.5438381 22.394894 72.237151 20.9671988 72.237151 19.1078747L72.237151 17.763185 68.5351041 17.9956005C66.4599656 18.1450105 65.4472981 18.8920603 65.4472981 20.2035478 65.4472981 21.5648386 66.6259767 22.394894 68.3026886 22.394894zM66.7089822 26.0305366C63.1895475 26.0305366 60.7159824 23.8723926 60.7159824 20.5189689 60.7159824 17.1987474 63.2559519 15.2730189 67.8046553 15.0074012L72.237151 14.7417835 72.237151 13.2476838C72.237151 11.7203819 71.1414779 10.8571243 69.149345 10.8571243 67.4062288 10.8571243 66.2441512 11.4547642 65.8457247 12.5504373L61.3966278 12.5504373C61.7120489 9.16381134 64.816456 7.03886958 69.4149628 7.03886958 74.2624862 7.03886958 77.0016689 9.32982242 77.0016689 13.2476838L77.0016689 25.7483177 72.3201566 25.7483177 72.3201566 23.3577583 72.0213366 23.3577583C71.0750735 25.0344701 69.0829406 26.0305366 66.7089822 26.0305366zM92.5403055 26.0305366C89.9505327 26.0305366 87.8753943 24.868459 86.895929 22.8763261L86.597109 22.8763261 86.597109 25.7483177 81.9155967 25.7483177 81.9155967.448229903 86.746519.448229903 86.746519 10.3590911 87.0453389 10.3590911C87.975001 8.35035707 90.0335383 7.13847623 92.5403055 7.13847623 97.1720145 7.13847623 99.9610006 10.6745121 99.9610006 16.5845064 99.9610006 22.4612985 97.1388123 26.0305366 92.5403055 26.0305366zM90.8635937 11.1891465C88.3236242 11.1891465 86.7133168 13.2642849 86.6967157 16.6011075 86.7133168 19.921329 88.3070231 21.9964674 90.8635937 21.9964674 93.4367653 21.9964674 94.9972694 19.9379301 94.9972694 16.5845064 94.9972694 13.2476838 93.4201642 11.1891465 90.8635937 11.1891465zM104.061474 25.7483177L104.061474.448229903 108.892396.448229903 108.892396 25.7483177 104.061474 25.7483177zM121.824659 10.7409166C119.58351 10.7409166 118.006404 12.3014207 117.840393 14.675379L125.642914 14.675379C125.543307 12.2516173 124.08241 10.7409166 121.824659 10.7409166zM125.742521 20.53557L130.241421 20.53557C129.510972 23.9886003 126.356762 26.1467443 121.874462 26.1467443 116.29649 26.1467443 113.009471 22.6273095 113.009471 16.684113 113.009471 10.7243154 116.362895 7.03886958 121.808058 7.03886958 127.203418 7.03886958 130.390831 10.4752988 130.390831 16.2856865L130.390831 17.763185 117.823792 17.763185 117.823792 18.0122016C117.890197 20.7347833 119.483903 22.4280962 122.007271 22.4280962 123.916399 22.4280962 125.227886 21.7474508 125.742521 20.53557zM168.955203 25.7483177L164.306893 25.7483177 164.306893 9.728249 164.041276 9.728249 157.948669 24.3704258 154.611846 24.3704258 148.502639 9.728249 148.237021 9.728249 148.237021 25.7483177 143.588711 25.7483177 143.588711 1.79291961 149.498705 1.79291961 156.122547 17.8959939 156.421367 17.8959939 163.06181 1.79291961 168.955203 1.79291961 168.955203 25.7483177zM182.4021 26.1467443C176.774325 26.1467443 173.387699 22.5775062 173.387699 16.5845064 173.387699 10.657911 176.824128 7.03886958 182.4021 7.03886958 187.980073 7.03886958 191.416502 10.6413099 191.416502 16.5845064 191.416502 22.5775062 188.029876 26.1467443 182.4021 26.1467443zM182.4021 22.1956807C184.975272 22.1956807 186.452771 20.1371434 186.452771 16.5845064 186.452771 13.0650716 184.958671 10.9899332 182.4021 10.9899332 179.828929 10.9899332 178.35143 13.0650716 178.35143 16.5845064 178.35143 20.1537445 179.812328 22.1956807 182.4021 22.1956807zM195.350964 25.7483177L195.350964 7.43729616 200.032477 7.43729616 200.032477 10.3590911 200.331297 10.3590911C200.812729 8.53296926 202.705255 7.13847623 205.02941 7.13847623 205.693454 7.13847623 206.506909 7.22148176 206.921936 7.37089173L206.921936 11.7701852C206.540111 11.6207753 205.411235 11.4713653 204.630983 11.4713653 201.991407 11.4713653 200.181887 13.0318694 200.181887 15.6050411L200.181887 25.7483177 195.350964 25.7483177zM210.308562 25.7483177L210.308562 7.43729616 214.990074 7.43729616 214.990074 10.3590911 215.288894 10.3590911C215.770327 8.53296926 217.662853 7.13847623 219.987008 7.13847623 220.651052 7.13847623 221.464506 7.22148176 221.879534 7.37089173L221.879534 11.7701852C221.497709 11.6207753 220.368833 11.4713653 219.588581 11.4713653 216.949005 11.4713653 215.139484 13.0318694 215.139484 15.6050411L215.139484 25.7483177 210.308562 25.7483177zM225.133351 25.7483177L225.133351 7.43729616 229.964273 7.43729616 229.964273 25.7483177 225.133351 25.7483177zM227.557113 4.88072561C225.813997 4.88072561 224.701722 3.86805805 224.701722 2.4403628 224.701722.99606645 225.813997 0 227.557113 0 229.283628 0 230.412503.99606645 230.412503 2.4403628 230.412503 3.86805805 229.283628 4.88072561 227.557113 4.88072561zM234.429971 12.816055C234.429971 9.34642352 237.484575 7.03886958 242.04988 7.03886958 246.69819 7.03886958 249.437373 8.98119916 249.70299 12.4840328L245.237292 12.4840328C244.988276 11.3053542 243.876002 10.5749055 242.083082 10.5749055 240.356567 10.5749055 239.078281 11.3551575 239.078281 12.5172351 239.078281 13.4136949 239.858534 13.9615314 241.551846 14.3433569L244.988276 15.0904067C248.540913 15.8706588 250.134619 17.3647584 250.134619 20.1039412 250.134619 23.7561848 246.864201 26.1467443 242.066481 26.1467443 237.235559 26.1467443 234.313764 24.1712125 233.981741 20.6517777L238.696456 20.6517777C239.06168 21.8968608 240.240359 22.6107084 242.166087 22.6107084 244.042013 22.6107084 245.336899 21.8304564 245.336899 20.6517777 245.336899 19.7553179 244.639652 19.2074814 243.029345 18.8588581L239.709124 18.1118083C236.156487 17.3315562 234.429971 15.6382433 234.429971 12.816055zM262.220225 26.1467443C256.59245 26.1467443 253.205824 22.5775062 253.205824 16.5845064 253.205824 10.657911 256.642253 7.03886958 262.220225 7.03886958 267.798197 7.03886958 271.234627 10.6413099 271.234627 16.5845064 271.234627 22.5775062 267.848001 26.1467443 262.220225 26.1467443zM262.220225 22.1956807C264.793397 22.1956807 266.270896 20.1371434 266.270896 16.5845064 266.270896 13.0650716 264.776796 10.9899332 262.220225 10.9899332 259.647054 10.9899332 258.169555 13.0650716 258.169555 16.5845064 258.169555 20.1537445 259.630453 22.1956807 262.220225 22.1956807zM275.169089 25.7483177L275.169089 7.43729616 279.850601 7.43729616 279.850601 10.3756922 280.149421 10.3756922C280.996078 8.31715486 282.855402 7.03886958 285.561382 7.03886958 289.628654 7.03886958 291.82 9.52903571 291.82 13.9117281L291.82 25.7483177 286.989078 25.7483177 286.989078 15.0572045C286.989078 12.5338362 285.910006 11.2057476 283.619053 11.2057476 281.377903 11.2057476 280.000011 12.7828528 280.000011 15.1900134L280.000011 25.7483177 275.169089 25.7483177z"/>
      </g>
      <g transform="translate(0 122)">
        <rect width="375" height="48" fill="#FFF"/>
        <use fill="#000" filter="url(#1-c)" xlink:href="#1-d"/>
        <use fill="#FFF" fill-opacity="0" xlink:href="#1-d"/>
        <g transform="translate(298 5)">
          <path fill="#919FA8" d="M4.36923828,36 L3.4024414,36 L3.4024414,29.1196289 L0.904882811,29.1196289 L0.904882811,28.2495117 L6.86679687,28.2495117 L6.86679687,29.1196289 L4.36923828,29.1196289 L4.36923828,36 Z M9.54714844,30.9243164 C8.62332031,30.9243164 7.97878906,31.6010742 7.90896484,32.6269531 L11.0993945,32.6269531 C11.0779102,31.6010742 10.4656055,30.9243164 9.54714844,30.9243164 Z M11.0725391,34.5014648 L11.9963672,34.5014648 C11.7170703,35.4951172 10.8254687,36.1020508 9.55789062,36.1020508 C7.95193359,36.1020508 6.94753906,34.9418945 6.94753906,33.1103516 C6.94753906,31.2895508 7.96804687,30.1079102 9.55789062,30.1079102 C11.1208789,30.1079102 12.0715625,31.2197266 12.0715625,33.019043 L12.0715625,33.3735352 L7.90896484,33.3735352 L7.90896484,33.4165039 C7.95730469,34.5605469 8.59646484,35.2856445 9.579375,35.2856445 C10.325957,35.2856445 10.8308398,35.0117188 11.0725391,34.5014648 Z M15.4286719,33.8139648 L15.3427344,33.8139648 L13.9677344,36 L12.9203711,36 L14.9023047,33.1049805 L12.8988867,30.2099609 L13.9999609,30.2099609 L15.3749609,32.3637695 L15.4608984,32.3637695 L16.8197852,30.2099609 L17.8671484,30.2099609 L15.9013281,33.0673828 L17.8940039,36 L16.7983008,36 L15.4286719,33.8139648 Z M19.6129297,28.7114258 L20.5367578,28.7114258 L20.5367578,30.2099609 L21.8258203,30.2099609 L21.8258203,30.9833984 L20.5367578,30.9833984 L20.5367578,34.2597656 C20.5367578,34.9418945 20.7945703,35.2319336 21.3961328,35.2319336 C21.5626367,35.2319336 21.6539453,35.2265625 21.8258203,35.2104492 L21.8258203,35.9892578 C21.6432031,36.0214844 21.465957,36.0429688 21.2833398,36.0429688 C20.090957,36.0429688 19.6129297,35.6025391 19.6129297,34.4960938 L19.6129297,30.9833984 L18.6783594,30.9833984 L18.6783594,30.2099609 L19.6129297,30.2099609 L19.6129297,28.7114258 Z M26.5205078,36 L26.5205078,27.9111328 L27.4443359,27.9111328 L27.4443359,36 L26.5205078,36 Z M31.0914844,35.2910156 C32.042168,35.2910156 32.7457813,34.6679688 32.7457813,33.8408203 L32.7457813,33.309082 L31.1881641,33.4111328 C30.3073047,33.4702148 29.9205859,33.7763672 29.9205859,34.3564453 C29.9205859,34.9472656 30.4200977,35.2910156 31.0914844,35.2910156 Z M30.9196094,36.1020508 C29.7970508,36.1020508 28.9645313,35.4360352 28.9645313,34.3779297 C28.9645313,33.3413086 29.7272266,32.7451172 31.0753711,32.6645508 L32.7457813,32.5625 L32.7457813,32.0361328 C32.7457813,31.3217773 32.2999805,30.9296875 31.4352344,30.9296875 C30.7423633,30.9296875 30.2589648,31.1928711 30.1300586,31.6494141 L29.1954883,31.6494141 C29.3190234,30.7202148 30.2321094,30.1079102 31.4674609,30.1079102 C32.8800586,30.1079102 33.6696094,30.8330078 33.6696094,32.0361328 L33.6696094,36 L32.78875,36 L32.78875,35.1459961 L32.7028125,35.1459961 C32.3268359,35.7636719 31.6930469,36.1020508 30.9196094,36.1020508 Z M38.3265234,36.1020508 C37.5208594,36.1020508 36.8333594,35.7207031 36.468125,35.0761719 L36.3821875,35.0761719 L36.3821875,36 L35.5013281,36 L35.5013281,27.9111328 L36.4251563,27.9111328 L36.4251563,31.1230469 L36.5110938,31.1230469 C36.8279883,30.5 37.5316016,30.1079102 38.3265234,30.1079102 C39.7982031,30.1079102 40.7542578,31.2841797 40.7542578,33.1049805 C40.7542578,34.9150391 39.792832,36.1020508 38.3265234,36.1020508 Z M38.1116797,30.9404297 C37.0589453,30.9404297 36.4036719,31.7675781 36.4036719,33.1049805 C36.4036719,34.4423828 37.0589453,35.2695312 38.1116797,35.2695312 C39.1697852,35.2695312 39.7982031,34.4584961 39.7982031,33.1049805 C39.7982031,31.7514648 39.1697852,30.9404297 38.1116797,30.9404297 Z M44.5840234,30.9243164 C43.6601953,30.9243164 43.0156641,31.6010742 42.9458398,32.6269531 L46.1362695,32.6269531 C46.1147852,31.6010742 45.5024805,30.9243164 44.5840234,30.9243164 Z M46.1094141,34.5014648 L47.0332422,34.5014648 C46.7539453,35.4951172 45.8623438,36.1020508 44.5947656,36.1020508 C42.9888086,36.1020508 41.9844141,34.9418945 41.9844141,33.1103516 C41.9844141,31.2895508 43.0049219,30.1079102 44.5947656,30.1079102 C46.1577539,30.1079102 47.1084375,31.2197266 47.1084375,33.019043 L47.1084375,33.3735352 L42.9458398,33.3735352 L42.9458398,33.4165039 C42.9941797,34.5605469 43.6333398,35.2856445 44.61625,35.2856445 C45.362832,35.2856445 45.8677148,35.0117188 46.1094141,34.5014648 Z M48.6823438,36 L48.6823438,27.9111328 L49.6061719,27.9111328 L49.6061719,36 L48.6823438,36 Z"/>
          <g transform="translate(13)">
            <path d="M22.5,12 C22.5,13.2043883 21.6033646,14.2205752 20.4084762,14.3703315 L19.1843826,14.5228224 C18.8139894,14.5690194 18.634521,15.002062 18.8637518,15.2970794 L19.6214606,16.2706812 C20.3603604,17.2214482 20.2759249,18.5736819 19.4243867,19.4252201 C18.5732284,20.2763784 17.2209037,20.3608196 16.2695794,19.6212518 L15.2966285,18.8640491 C15.0018151,18.6350678 14.5689722,18.8143675 14.52279,19.1846421 L14.3694588,20.4087917 C14.2197957,21.6039884 13.2045899,22.5 12,22.5 C10.7954101,22.5 9.78020428,21.6039884 9.63054333,20.4088087 L9.47717756,19.1843826 C9.43102778,18.8143675 8.99818488,18.6350678 8.7037539,18.8637518 L7.73021284,19.6214134 C6.77909628,20.3608196 5.4267716,20.2763784 4.57561328,19.4252201 C3.7240751,18.5736819 3.63963956,17.2214482 4.3787482,16.2704128 L5.13601004,15.2973857 C5.365479,15.002062 5.18601065,14.5690194 4.81569049,14.5228315 L3.59115429,14.3702854 C2.39663545,14.2205752 1.5,13.2043883 1.5,12 C1.5,10.7962868 2.39679235,9.78023852 3.59152382,9.63050179 L4.81561744,9.4780109 C5.18601065,9.43181395 5.365479,8.99877133 5.1362482,8.7037539 L4.37853941,7.73015211 C3.63963956,6.7793851 3.7240751,5.42715145 4.57539443,4.57583226 C5.42629673,3.72387555 6.7787477,3.63974273 7.73021004,4.37941778 L8.70371275,5.13621617 C8.9984227,5.36552585 9.43102706,5.18647164 9.47721,4.81619127 L9.6305412,3.59204161 C9.78021844,2.39673184 10.7955238,1.5 12,1.5 C13.2044762,1.5 14.2197816,2.39673184 14.3694567,3.5920246 L14.5228224,4.81645077 C14.5689729,5.18647164 15.0015773,5.36552585 15.2964566,5.13608444 L16.2697872,4.37941995 C17.2212523,3.63974273 18.5737033,3.72387555 19.4243867,4.57561328 C20.2759249,5.42715145 20.3603604,6.7793851 19.6212518,7.73042057 L18.86399,8.70344765 C18.634521,8.99877133 18.8139894,9.43181395 19.1843095,9.47800179 L20.4084762,9.63050179 C21.6032077,9.78023852 22.5,10.7962868 22.5,12 Z M12,15 L12,15.5 C13.8913069,15.5 15.5,13.8914139 15.5,11.9994584 C15.5,10.1083874 13.8911082,8.5 12,8.5 C10.1088918,8.5 8.5,10.1083874 8.5,11.9994584 C8.5,13.8914139 10.1086931,15.5 12,15.5 L12,15 Z"/>
            <use fill="#A9B6BE" xlink:href="#1-e"/>
          </g>
        </g>
        <g transform="translate(208 5)">
          <path fill="#919FA8" d="M4.36923828,36 L3.4024414,36 L3.4024414,29.1196289 L0.904882811,29.1196289 L0.904882811,28.2495117 L6.86679687,28.2495117 L6.86679687,29.1196289 L4.36923828,29.1196289 L4.36923828,36 Z M9.54714844,30.9243164 C8.62332031,30.9243164 7.97878906,31.6010742 7.90896484,32.6269531 L11.0993945,32.6269531 C11.0779102,31.6010742 10.4656055,30.9243164 9.54714844,30.9243164 Z M11.0725391,34.5014648 L11.9963672,34.5014648 C11.7170703,35.4951172 10.8254687,36.1020508 9.55789062,36.1020508 C7.95193359,36.1020508 6.94753906,34.9418945 6.94753906,33.1103516 C6.94753906,31.2895508 7.96804687,30.1079102 9.55789062,30.1079102 C11.1208789,30.1079102 12.0715625,31.2197266 12.0715625,33.019043 L12.0715625,33.3735352 L7.90896484,33.3735352 L7.90896484,33.4165039 C7.95730469,34.5605469 8.59646484,35.2856445 9.579375,35.2856445 C10.325957,35.2856445 10.8308398,35.0117188 11.0725391,34.5014648 Z M15.4286719,33.8139648 L15.3427344,33.8139648 L13.9677344,36 L12.9203711,36 L14.9023047,33.1049805 L12.8988867,30.2099609 L13.9999609,30.2099609 L15.3749609,32.3637695 L15.4608984,32.3637695 L16.8197852,30.2099609 L17.8671484,30.2099609 L15.9013281,33.0673828 L17.8940039,36 L16.7983008,36 L15.4286719,33.8139648 Z M19.6129297,28.7114258 L20.5367578,28.7114258 L20.5367578,30.2099609 L21.8258203,30.2099609 L21.8258203,30.9833984 L20.5367578,30.9833984 L20.5367578,34.2597656 C20.5367578,34.9418945 20.7945703,35.2319336 21.3961328,35.2319336 C21.5626367,35.2319336 21.6539453,35.2265625 21.8258203,35.2104492 L21.8258203,35.9892578 C21.6432031,36.0214844 21.465957,36.0429688 21.2833398,36.0429688 C20.090957,36.0429688 19.6129297,35.6025391 19.6129297,34.4960938 L19.6129297,30.9833984 L18.6783594,30.9833984 L18.6783594,30.2099609 L19.6129297,30.2099609 L19.6129297,28.7114258 Z M26.5205078,36 L26.5205078,27.9111328 L27.4443359,27.9111328 L27.4443359,36 L26.5205078,36 Z M31.0914844,35.2910156 C32.042168,35.2910156 32.7457813,34.6679688 32.7457813,33.8408203 L32.7457813,33.309082 L31.1881641,33.4111328 C30.3073047,33.4702148 29.9205859,33.7763672 29.9205859,34.3564453 C29.9205859,34.9472656 30.4200977,35.2910156 31.0914844,35.2910156 Z M30.9196094,36.1020508 C29.7970508,36.1020508 28.9645313,35.4360352 28.9645313,34.3779297 C28.9645313,33.3413086 29.7272266,32.7451172 31.0753711,32.6645508 L32.7457813,32.5625 L32.7457813,32.0361328 C32.7457813,31.3217773 32.2999805,30.9296875 31.4352344,30.9296875 C30.7423633,30.9296875 30.2589648,31.1928711 30.1300586,31.6494141 L29.1954883,31.6494141 C29.3190234,30.7202148 30.2321094,30.1079102 31.4674609,30.1079102 C32.8800586,30.1079102 33.6696094,30.8330078 33.6696094,32.0361328 L33.6696094,36 L32.78875,36 L32.78875,35.1459961 L32.7028125,35.1459961 C32.3268359,35.7636719 31.6930469,36.1020508 30.9196094,36.1020508 Z M38.3265234,36.1020508 C37.5208594,36.1020508 36.8333594,35.7207031 36.468125,35.0761719 L36.3821875,35.0761719 L36.3821875,36 L35.5013281,36 L35.5013281,27.9111328 L36.4251563,27.9111328 L36.4251563,31.1230469 L36.5110938,31.1230469 C36.8279883,30.5 37.5316016,30.1079102 38.3265234,30.1079102 C39.7982031,30.1079102 40.7542578,31.2841797 40.7542578,33.1049805 C40.7542578,34.9150391 39.792832,36.1020508 38.3265234,36.1020508 Z M38.1116797,30.9404297 C37.0589453,30.9404297 36.4036719,31.7675781 36.4036719,33.1049805 C36.4036719,34.4423828 37.0589453,35.2695312 38.1116797,35.2695312 C39.1697852,35.2695312 39.7982031,34.4584961 39.7982031,33.1049805 C39.7982031,31.7514648 39.1697852,30.9404297 38.1116797,30.9404297 Z M44.5840234,30.9243164 C43.6601953,30.9243164 43.0156641,31.6010742 42.9458398,32.6269531 L46.1362695,32.6269531 C46.1147852,31.6010742 45.5024805,30.9243164 44.5840234,30.9243164 Z M46.1094141,34.5014648 L47.0332422,34.5014648 C46.7539453,35.4951172 45.8623438,36.1020508 44.5947656,36.1020508 C42.9888086,36.1020508 41.9844141,34.9418945 41.9844141,33.1103516 C41.9844141,31.2895508 43.0049219,30.1079102 44.5947656,30.1079102 C46.1577539,30.1079102 47.1084375,31.2197266 47.1084375,33.019043 L47.1084375,33.3735352 L42.9458398,33.3735352 L42.9458398,33.4165039 C42.9941797,34.5605469 43.6333398,35.2856445 44.61625,35.2856445 C45.362832,35.2856445 45.8677148,35.0117188 46.1094141,34.5014648 Z M48.6823438,36 L48.6823438,27.9111328 L49.6061719,27.9111328 L49.6061719,36 L48.6823438,36 Z"/>
          <path fill="#A9B6BE" d="M19.5713488,18.0016621 L4.4271902,18.0016621 C4.19258357,18.0016621 4.08430359,17.8396621 4.04921285,17.7706621 C4.01412212,17.6996621 3.94694842,17.5186621 4.08530618,17.3286621 L5.11196083,15.9366621 L5.11196083,11.2163 C5.11196083,8.1383 7.1151405,5.4273 9.98456003,4.6253 C10.2051304,4.5633 10.3414829,4.3613 10.3424855,4.1433 L10.3505063,3.7753 C10.3505063,2.7973 11.1485698,2.0003 12.1301078,2.0003 C13.1106432,2.0003 13.9087068,2.7973 13.9087068,3.7753 L13.9087068,4.1433 C13.9187327,4.3613 14.0540827,4.5633 14.274653,4.6253 C17.1440726,5.4273 19.1482548,8.1383 19.1482548,11.2163 L19.1482548,15.8986621 L19.9453158,17.3786621 C20.0475802,17.5696621 19.9723858,17.7336621 19.9352899,17.7956621 C19.898194,17.8576621 19.7889114,18.0016621 19.5713488,18.0016621 Z M13.6349991,19.5016621 C13.6349991,20.3296621 12.9602544,21.0036621 12.1301078,21.0036621 C11.2999613,21.0036621 10.624214,20.3296621 10.624214,19.5016621 L10.624214,19.0016621 L13.6349991,19.0016621 L13.6349991,19.5016621 Z M20.1508473,15.6466621 L20.1508473,11.2163 C20.1508473,7.8283 18.0093098,4.8453 14.9112992,3.7983 C14.9112992,2.2453 13.6640742,1.0003 12.1301078,1.0003 C10.5961414,1.0003 9.34791384,2.2453 9.34791384,3.7753 C6.25090582,4.8453 4.1093684,7.8283 4.1093684,11.2163 L4.1093684,15.6076621 L3.27721668,16.7366621 C2.9573897,17.1716621 2.91127044,17.7406621 3.1549004,18.2216621 C3.39953296,18.7026621 3.88679288,19.0016621 4.4271902,19.0016621 L9.62162157,19.0016621 L9.62162157,19.5016621 C9.62162157,20.8816621 10.7465303,22.0036621 12.1301078,22.0036621 C13.5126828,22.0036621 14.6375915,20.8816621 14.6375915,19.5016621 L14.6375915,19.0016621 L19.5713488,19.0016621 C20.0786606,19.0016621 20.5358427,18.7426621 20.7955142,18.3096621 C21.0561882,17.8756621 21.0682193,17.3516621 20.8285997,16.9056621 L20.1508473,15.6466621 Z" transform="translate(13)"/>
        </g>
        <g transform="translate(117 5)">
          <path fill="#919FA8" d="M4.36923828,36 L3.4024414,36 L3.4024414,29.1196289 L0.904882811,29.1196289 L0.904882811,28.2495117 L6.86679687,28.2495117 L6.86679687,29.1196289 L4.36923828,29.1196289 L4.36923828,36 Z M9.54714844,30.9243164 C8.62332031,30.9243164 7.97878906,31.6010742 7.90896484,32.6269531 L11.0993945,32.6269531 C11.0779102,31.6010742 10.4656055,30.9243164 9.54714844,30.9243164 Z M11.0725391,34.5014648 L11.9963672,34.5014648 C11.7170703,35.4951172 10.8254687,36.1020508 9.55789062,36.1020508 C7.95193359,36.1020508 6.94753906,34.9418945 6.94753906,33.1103516 C6.94753906,31.2895508 7.96804687,30.1079102 9.55789062,30.1079102 C11.1208789,30.1079102 12.0715625,31.2197266 12.0715625,33.019043 L12.0715625,33.3735352 L7.90896484,33.3735352 L7.90896484,33.4165039 C7.95730469,34.5605469 8.59646484,35.2856445 9.579375,35.2856445 C10.325957,35.2856445 10.8308398,35.0117188 11.0725391,34.5014648 Z M15.4286719,33.8139648 L15.3427344,33.8139648 L13.9677344,36 L12.9203711,36 L14.9023047,33.1049805 L12.8988867,30.2099609 L13.9999609,30.2099609 L15.3749609,32.3637695 L15.4608984,32.3637695 L16.8197852,30.2099609 L17.8671484,30.2099609 L15.9013281,33.0673828 L17.8940039,36 L16.7983008,36 L15.4286719,33.8139648 Z M19.6129297,28.7114258 L20.5367578,28.7114258 L20.5367578,30.2099609 L21.8258203,30.2099609 L21.8258203,30.9833984 L20.5367578,30.9833984 L20.5367578,34.2597656 C20.5367578,34.9418945 20.7945703,35.2319336 21.3961328,35.2319336 C21.5626367,35.2319336 21.6539453,35.2265625 21.8258203,35.2104492 L21.8258203,35.9892578 C21.6432031,36.0214844 21.465957,36.0429688 21.2833398,36.0429688 C20.090957,36.0429688 19.6129297,35.6025391 19.6129297,34.4960938 L19.6129297,30.9833984 L18.6783594,30.9833984 L18.6783594,30.2099609 L19.6129297,30.2099609 L19.6129297,28.7114258 Z M26.5205078,36 L26.5205078,27.9111328 L27.4443359,27.9111328 L27.4443359,36 L26.5205078,36 Z M31.0914844,35.2910156 C32.042168,35.2910156 32.7457813,34.6679688 32.7457813,33.8408203 L32.7457813,33.309082 L31.1881641,33.4111328 C30.3073047,33.4702148 29.9205859,33.7763672 29.9205859,34.3564453 C29.9205859,34.9472656 30.4200977,35.2910156 31.0914844,35.2910156 Z M30.9196094,36.1020508 C29.7970508,36.1020508 28.9645313,35.4360352 28.9645313,34.3779297 C28.9645313,33.3413086 29.7272266,32.7451172 31.0753711,32.6645508 L32.7457813,32.5625 L32.7457813,32.0361328 C32.7457813,31.3217773 32.2999805,30.9296875 31.4352344,30.9296875 C30.7423633,30.9296875 30.2589648,31.1928711 30.1300586,31.6494141 L29.1954883,31.6494141 C29.3190234,30.7202148 30.2321094,30.1079102 31.4674609,30.1079102 C32.8800586,30.1079102 33.6696094,30.8330078 33.6696094,32.0361328 L33.6696094,36 L32.78875,36 L32.78875,35.1459961 L32.7028125,35.1459961 C32.3268359,35.7636719 31.6930469,36.1020508 30.9196094,36.1020508 Z M38.3265234,36.1020508 C37.5208594,36.1020508 36.8333594,35.7207031 36.468125,35.0761719 L36.3821875,35.0761719 L36.3821875,36 L35.5013281,36 L35.5013281,27.9111328 L36.4251563,27.9111328 L36.4251563,31.1230469 L36.5110938,31.1230469 C36.8279883,30.5 37.5316016,30.1079102 38.3265234,30.1079102 C39.7982031,30.1079102 40.7542578,31.2841797 40.7542578,33.1049805 C40.7542578,34.9150391 39.792832,36.1020508 38.3265234,36.1020508 Z M38.1116797,30.9404297 C37.0589453,30.9404297 36.4036719,31.7675781 36.4036719,33.1049805 C36.4036719,34.4423828 37.0589453,35.2695312 38.1116797,35.2695312 C39.1697852,35.2695312 39.7982031,34.4584961 39.7982031,33.1049805 C39.7982031,31.7514648 39.1697852,30.9404297 38.1116797,30.9404297 Z M44.5840234,30.9243164 C43.6601953,30.9243164 43.0156641,31.6010742 42.9458398,32.6269531 L46.1362695,32.6269531 C46.1147852,31.6010742 45.5024805,30.9243164 44.5840234,30.9243164 Z M46.1094141,34.5014648 L47.0332422,34.5014648 C46.7539453,35.4951172 45.8623438,36.1020508 44.5947656,36.1020508 C42.9888086,36.1020508 41.9844141,34.9418945 41.9844141,33.1103516 C41.9844141,31.2895508 43.0049219,30.1079102 44.5947656,30.1079102 C46.1577539,30.1079102 47.1084375,31.2197266 47.1084375,33.019043 L47.1084375,33.3735352 L42.9458398,33.3735352 L42.9458398,33.4165039 C42.9941797,34.5605469 43.6333398,35.2856445 44.61625,35.2856445 C45.362832,35.2856445 45.8677148,35.0117188 46.1094141,34.5014648 Z M48.6823438,36 L48.6823438,27.9111328 L49.6061719,27.9111328 L49.6061719,36 L48.6823438,36 Z"/>
          <g transform="translate(13)">
            <path d="M12,11 C10.346,11 9,9.654 9,8 C9,6.346 10.346,5 12,5 C13.654,5 15,6.346 15,8 C15,9.654 13.654,11 12,11 Z M18.3594,19.6826 C18.6494,19.4426 18.9344,19.1956 19.1964,18.9236 C18.2954,15.7936 15.4204,13.4996 12.0004,13.4996 C8.5804,13.4996 5.7054,15.7936 4.8034,18.9236 C5.0654,19.1956 5.3504,19.4426 5.6404,19.6826 C6.2554,16.6936 8.8994,14.4996 12.0004,14.4996 C15.1004,14.4996 17.7454,16.6936 18.3594,19.6826 Z M12.0004,3.9996 C9.7944,3.9996 8.0004,5.7936 8.0004,7.9996 C8.0004,10.2056 9.7944,11.9996 12.0004,11.9996 C14.2064,11.9996 16.0004,10.2056 16.0004,7.9996 C16.0004,5.7936 14.2064,3.9996 12.0004,3.9996 Z M12.0004,0.9996 C18.0754,0.9996 23.0004,5.9246 23.0004,11.9996 C23.0004,18.0756 18.0754,22.9996 12.0004,22.9996 C5.9244,22.9996 1.0004,18.0756 1.0004,11.9996 C1.0004,5.9246 5.9244,0.9996 12.0004,0.9996 Z"/>
            <use fill="#A9B6BE" xlink:href="#1-f"/>
          </g>
        </g>
        <g transform="translate(27 5)">
          <path fill="#495A67" d="M4.36923828,36 L3.4024414,36 L3.4024414,29.1196289 L0.904882811,29.1196289 L0.904882811,28.2495117 L6.86679687,28.2495117 L6.86679687,29.1196289 L4.36923828,29.1196289 L4.36923828,36 Z M9.54714844,30.9243164 C8.62332031,30.9243164 7.97878906,31.6010742 7.90896484,32.6269531 L11.0993945,32.6269531 C11.0779102,31.6010742 10.4656055,30.9243164 9.54714844,30.9243164 Z M11.0725391,34.5014648 L11.9963672,34.5014648 C11.7170703,35.4951172 10.8254687,36.1020508 9.55789062,36.1020508 C7.95193359,36.1020508 6.94753906,34.9418945 6.94753906,33.1103516 C6.94753906,31.2895508 7.96804687,30.1079102 9.55789062,30.1079102 C11.1208789,30.1079102 12.0715625,31.2197266 12.0715625,33.019043 L12.0715625,33.3735352 L7.90896484,33.3735352 L7.90896484,33.4165039 C7.95730469,34.5605469 8.59646484,35.2856445 9.579375,35.2856445 C10.325957,35.2856445 10.8308398,35.0117188 11.0725391,34.5014648 Z M15.4286719,33.8139648 L15.3427344,33.8139648 L13.9677344,36 L12.9203711,36 L14.9023047,33.1049805 L12.8988867,30.2099609 L13.9999609,30.2099609 L15.3749609,32.3637695 L15.4608984,32.3637695 L16.8197852,30.2099609 L17.8671484,30.2099609 L15.9013281,33.0673828 L17.8940039,36 L16.7983008,36 L15.4286719,33.8139648 Z M19.6129297,28.7114258 L20.5367578,28.7114258 L20.5367578,30.2099609 L21.8258203,30.2099609 L21.8258203,30.9833984 L20.5367578,30.9833984 L20.5367578,34.2597656 C20.5367578,34.9418945 20.7945703,35.2319336 21.3961328,35.2319336 C21.5626367,35.2319336 21.6539453,35.2265625 21.8258203,35.2104492 L21.8258203,35.9892578 C21.6432031,36.0214844 21.465957,36.0429688 21.2833398,36.0429688 C20.090957,36.0429688 19.6129297,35.6025391 19.6129297,34.4960938 L19.6129297,30.9833984 L18.6783594,30.9833984 L18.6783594,30.2099609 L19.6129297,30.2099609 L19.6129297,28.7114258 Z M26.5205078,36 L26.5205078,27.9111328 L27.4443359,27.9111328 L27.4443359,36 L26.5205078,36 Z M31.0914844,35.2910156 C32.042168,35.2910156 32.7457813,34.6679688 32.7457813,33.8408203 L32.7457813,33.309082 L31.1881641,33.4111328 C30.3073047,33.4702148 29.9205859,33.7763672 29.9205859,34.3564453 C29.9205859,34.9472656 30.4200977,35.2910156 31.0914844,35.2910156 Z M30.9196094,36.1020508 C29.7970508,36.1020508 28.9645313,35.4360352 28.9645313,34.3779297 C28.9645313,33.3413086 29.7272266,32.7451172 31.0753711,32.6645508 L32.7457813,32.5625 L32.7457813,32.0361328 C32.7457813,31.3217773 32.2999805,30.9296875 31.4352344,30.9296875 C30.7423633,30.9296875 30.2589648,31.1928711 30.1300586,31.6494141 L29.1954883,31.6494141 C29.3190234,30.7202148 30.2321094,30.1079102 31.4674609,30.1079102 C32.8800586,30.1079102 33.6696094,30.8330078 33.6696094,32.0361328 L33.6696094,36 L32.78875,36 L32.78875,35.1459961 L32.7028125,35.1459961 C32.3268359,35.7636719 31.6930469,36.1020508 30.9196094,36.1020508 Z M38.3265234,36.1020508 C37.5208594,36.1020508 36.8333594,35.7207031 36.468125,35.0761719 L36.3821875,35.0761719 L36.3821875,36 L35.5013281,36 L35.5013281,27.9111328 L36.4251563,27.9111328 L36.4251563,31.1230469 L36.5110938,31.1230469 C36.8279883,30.5 37.5316016,30.1079102 38.3265234,30.1079102 C39.7982031,30.1079102 40.7542578,31.2841797 40.7542578,33.1049805 C40.7542578,34.9150391 39.792832,36.1020508 38.3265234,36.1020508 Z M38.1116797,30.9404297 C37.0589453,30.9404297 36.4036719,31.7675781 36.4036719,33.1049805 C36.4036719,34.4423828 37.0589453,35.2695312 38.1116797,35.2695312 C39.1697852,35.2695312 39.7982031,34.4584961 39.7982031,33.1049805 C39.7982031,31.7514648 39.1697852,30.9404297 38.1116797,30.9404297 Z M44.5840234,30.9243164 C43.6601953,30.9243164 43.0156641,31.6010742 42.9458398,32.6269531 L46.1362695,32.6269531 C46.1147852,31.6010742 45.5024805,30.9243164 44.5840234,30.9243164 Z M46.1094141,34.5014648 L47.0332422,34.5014648 C46.7539453,35.4951172 45.8623438,36.1020508 44.5947656,36.1020508 C42.9888086,36.1020508 41.9844141,34.9418945 41.9844141,33.1103516 C41.9844141,31.2895508 43.0049219,30.1079102 44.5947656,30.1079102 C46.1577539,30.1079102 47.1084375,31.2197266 47.1084375,33.019043 L47.1084375,33.3735352 L42.9458398,33.3735352 L42.9458398,33.4165039 C42.9941797,34.5605469 43.6333398,35.2856445 44.61625,35.2856445 C45.362832,35.2856445 45.8677148,35.0117188 46.1094141,34.5014648 Z M48.6823438,36 L48.6823438,27.9111328 L49.6061719,27.9111328 L49.6061719,36 L48.6823438,36 Z"/>
          <g transform="translate(13)">
            <path fill="#F3F6FA" d="M21.0084545,9.96610807 L21,20.0353752 C21,21.1403752 20.1,22.0403752 18.995,22.0403752 L16.005,22.0403752 C14.897,22.0403752 14,21.1423752 14,20.0353752 L14,17.0433752 C14,16.4913752 13.549,16.0403752 12.997,16.0403752 L11.003,16.0403752 C10.449,16.0403752 10,16.4893752 10,17.0433752 L10,20.0353752 C10,21.1423752 9.102,22.0403752 7.995,22.0403752 L5.005,22.0403752 C3.897,22.0403752 3,21.1423752 3,20.0353752 L3,9.95965965 L1.81613021,10.9257098 C1.6021803,11.1002952 1.28721023,11.0683839 1.11262487,10.854434 C0.938039506,10.6404841 0.969950772,10.325514 1.18390068,10.1509287 L10.3152218,2.70300627 C11.2455388,1.77142355 12.7544921,1.77142355 13.6471302,2.66892865 L22.8161302,10.1509287 C23.0300801,10.325514 23.0619914,10.6404841 22.887406,10.854434 C22.7128207,11.0683839 22.3978506,11.1002952 22.1839007,10.9257098 L21.0084545,9.96610807 Z"/>
            <use fill="#314351" xlink:href="#1-g"/>
          </g>
        </g>
      </g>
    </g>
  </g>
</svg>
