<svg xmlns="http://www.w3.org/2000/svg" width="180" height="180" viewBox="0 0 180 180">
  <g fill="none" fill-rule="evenodd">
    <rect width="180" height="180" fill="#FFF" fill-opacity=".01" fill-rule="nonzero"/>
    <g transform="translate(28 64)">
      <g fill="#C41261" transform="translate(77 9)">
        <g transform="translate(0 14.359)">
          <rect width="1" height="9"/>
          <rect width="1" height="9" x="47"/>
          <rect width="46" height="1" x="1" y="4"/>
        </g>
        <path d="M12.7035,6.336 L12.7035,5.423 L16.4875,3.674 L12.7035,1.914 L12.7035,1.012 L17.4665,3.278 L17.4665,4.07 L12.7035,6.336 Z M24.4845,0.924 L21.9215,0.924 L21.9215,0.132 L26.0795,0.132 L23.9235,2.871 C25.1995,2.871 26.1015,3.784 26.1015,5.082 C26.1015,6.457 25.0675,7.48 23.6705,7.48 C22.5155,7.48 21.6905,6.831 21.4375,5.72 L22.2295,5.577 C22.4275,6.281 22.9445,6.677 23.6265,6.677 C24.5175,6.677 25.2215,6.006 25.2215,5.148 C25.2215,4.268 24.5615,3.652 23.6045,3.652 C23.2635,3.652 23.0435,3.718 22.7245,3.905 L22.3615,3.586 L24.4845,0.924 Z M27.8945,6.303 C28.2245,6.303 28.4665,6.545 28.4665,6.886 C28.4665,7.205 28.2135,7.447 27.8945,7.447 C27.5645,7.447 27.3225,7.205 27.3225,6.875 C27.3225,6.545 27.5645,6.303 27.8945,6.303 Z M34.0985,2.233 L34.0985,5.148 C34.0985,5.973 33.9445,6.479 33.5815,6.864 C33.1965,7.271 32.6135,7.48 31.9205,7.48 C31.2055,7.48 30.6115,7.26 30.2265,6.842 C29.8415,6.435 29.7425,6.017 29.7425,4.906 L29.7425,2.486 C29.7425,1.529 29.8525,1.078 30.1825,0.682 C30.5455,0.242 31.1505,0 31.8985,0 C32.5695,0 33.1195,0.187 33.5265,0.55 C33.9445,0.935 34.0985,1.375 34.0985,2.233 Z M30.6115,2.508 L30.6115,4.961 C30.6115,5.808 30.6445,5.962 30.8865,6.237 C31.1175,6.501 31.5135,6.666 31.9315,6.666 C32.3825,6.666 32.8005,6.479 33.0095,6.182 C33.1745,5.94 33.2405,5.632 33.2405,5.093 L33.2405,2.288 C33.2405,1.716 33.1415,1.43 32.8665,1.166 C32.6245,0.946 32.2945,0.825 31.9315,0.825 C31.4585,0.825 31.0515,1.012 30.8425,1.353 C30.6555,1.617 30.6115,1.87 30.6115,2.508 Z"/>
      </g>
      <path fill="#314351" d="M37.1171875,51 L32.0195312,36.4804688 L11.8398437,36.4804688 L6.7421875,51 L0.09765625,51 L18.8007812,0.26953125 L25.0585938,0.26953125 L43.7617188,51 L37.1171875,51 Z M21.8242188,7.96875 L13.703125,31.1015625 L30.15625,31.1015625 L22.0351562,7.96875 L21.8242188,7.96875 Z M60.671875,46.4296875 C66.4375,46.4296875 70.8671875,42.3867188 70.8671875,37.1132812 L70.8671875,34.125 L61.09375,34.7226562 C56.171875,35.0390625 53.359375,37.21875 53.359375,40.6640625 C53.359375,44.1445312 56.2773438,46.4296875 60.671875,46.4296875 Z M59.3007812,51.6328125 C52.0234375,51.6328125 47.1367188,47.2382812 47.1367188,40.6640625 C47.1367188,34.40625 51.953125,30.46875 60.390625,29.9765625 L70.8671875,29.3789062 L70.8671875,26.3203125 C70.8671875,21.8554688 67.9140625,19.1835938 62.8515625,19.1835938 C58.140625,19.1835938 55.1875,21.3984375 54.4140625,24.984375 L48.5078125,24.984375 C48.9296875,18.65625 54.34375,13.8046875 62.9921875,13.8046875 C71.5703125,13.8046875 76.984375,18.4453125 76.984375,25.7226562 L76.984375,51 L71.1835938,51 L71.1835938,44.7070312 L71.0429688,44.7070312 C68.8632812,48.890625 64.2226562,51.6328125 59.3007812,51.6328125 Z"/>
    </g>
  </g>
</svg>
