<svg xmlns="http://www.w3.org/2000/svg" width="180" height="180" viewBox="0 0 180 180">
  <g fill="none" fill-rule="evenodd">
    <rect width="180" height="180" fill="#FFF" fill-opacity=".01" fill-rule="nonzero"/>
    <g transform="translate(33 70)">
      <g fill="#C41261" transform="translate(66 4)">
        <g transform="translate(0 14.359)">
          <rect width="1" height="9"/>
          <rect width="1" height="9" x="47"/>
          <rect width="46" height="1" x="1" y="4"/>
        </g>
        <path d="M12.7035,6.336 L12.7035,5.423 L16.4875,3.674 L12.7035,1.914 L12.7035,1.012 L17.4665,3.278 L17.4665,4.07 L12.7035,6.336 Z M24.4845,0.924 L21.9215,0.924 L21.9215,0.132 L26.0795,0.132 L23.9235,2.871 C25.1995,2.871 26.1015,3.784 26.1015,5.082 C26.1015,6.457 25.0675,7.48 23.6705,7.48 C22.5155,7.48 21.6905,6.831 21.4375,5.72 L22.2295,5.577 C22.4275,6.281 22.9445,6.677 23.6265,6.677 C24.5175,6.677 25.2215,6.006 25.2215,5.148 C25.2215,4.268 24.5615,3.652 23.6045,3.652 C23.2635,3.652 23.0435,3.718 22.7245,3.905 L22.3615,3.586 L24.4845,0.924 Z M27.8945,6.303 C28.2245,6.303 28.4665,6.545 28.4665,6.886 C28.4665,7.205 28.2135,7.447 27.8945,7.447 C27.5645,7.447 27.3225,7.205 27.3225,6.875 C27.3225,6.545 27.5645,6.303 27.8945,6.303 Z M34.0985,2.233 L34.0985,5.148 C34.0985,5.973 33.9445,6.479 33.5815,6.864 C33.1965,7.271 32.6135,7.48 31.9205,7.48 C31.2055,7.48 30.6115,7.26 30.2265,6.842 C29.8415,6.435 29.7425,6.017 29.7425,4.906 L29.7425,2.486 C29.7425,1.529 29.8525,1.078 30.1825,0.682 C30.5455,0.242 31.1505,0 31.8985,0 C32.5695,0 33.1195,0.187 33.5265,0.55 C33.9445,0.935 34.0985,1.375 34.0985,2.233 Z M30.6115,2.508 L30.6115,4.961 C30.6115,5.808 30.6445,5.962 30.8865,6.237 C31.1175,6.501 31.5135,6.666 31.9315,6.666 C32.3825,6.666 32.8005,6.479 33.0095,6.182 C33.1745,5.94 33.2405,5.632 33.2405,5.093 L33.2405,2.288 C33.2405,1.716 33.1415,1.43 32.8665,1.166 C32.6245,0.946 32.2945,0.825 31.9315,0.825 C31.4585,0.825 31.0515,1.012 30.8425,1.353 C30.6555,1.617 30.6115,1.87 30.6115,2.508 Z"/>
      </g>
      <path fill="#314351" d="M28.4765625,40 L25.46875,30.4296875 L11.6054688,30.4296875 L8.59765625,40 L0.12109375,40 L13.8203125,0.54296875 L23.5273438,0.54296875 L37.2539062,40 L28.4765625,40 Z M18.4414062,8.08984375 L13.3828125,24.25 L23.6914062,24.25 L18.6328125,8.08984375 L18.4414062,8.08984375 Z M51.9101562,34.6953125 C55.3828125,34.6953125 58.2539062,32.4257812 58.2539062,29.2539062 L58.2539062,27.1210938 L52.0742188,27.5039062 C49.09375,27.7226562 47.3984375,29.0625 47.3984375,31.140625 C47.3984375,33.328125 49.203125,34.6953125 51.9101562,34.6953125 Z M49.2851562,40.4648438 C43.7070312,40.4648438 39.46875,36.8554688 39.46875,31.578125 C39.46875,26.2460938 43.5703125,23.15625 50.8710938,22.71875 L58.2539062,22.28125 L58.2539062,20.3398438 C58.2539062,17.6054688 56.3398438,16.0195312 53.3320312,16.0195312 C50.3515625,16.0195312 48.4648438,17.4960938 48.0820312,19.65625 L40.78125,19.65625 C41.0820312,13.96875 45.921875,10.0585938 53.6875,10.0585938 C61.2070312,10.0585938 66.1015625,13.9414062 66.1015625,19.8476562 L66.1015625,40 L58.390625,40 L58.390625,35.515625 L58.2265625,35.515625 C56.5859375,38.6328125 52.9492188,40.4648438 49.2851562,40.4648438 Z"/>
    </g>
  </g>
</svg>
