<svg xmlns="http://www.w3.org/2000/svg" width="180" height="180" viewBox="0 0 180 180">
  <g fill="none" fill-rule="evenodd">
    <rect width="180" height="180" fill="#FFF" fill-opacity=".01" fill-rule="nonzero"/>
    <g transform="translate(44 66)">
      <g fill="#C41261" transform="translate(44 8)">
        <g transform="translate(0 14.359)">
          <rect width="1" height="9"/>
          <rect width="1" height="9" x="47"/>
          <rect width="46" height="1" x="1" y="4"/>
        </g>
        <path d="M12.7035,6.336 L12.7035,5.423 L16.4875,3.674 L12.7035,1.914 L12.7035,1.012 L17.4665,3.278 L17.4665,4.07 L12.7035,6.336 Z M24.4845,0.924 L21.9215,0.924 L21.9215,0.132 L26.0795,0.132 L23.9235,2.871 C25.1995,2.871 26.1015,3.784 26.1015,5.082 C26.1015,6.457 25.0675,7.48 23.6705,7.48 C22.5155,7.48 21.6905,6.831 21.4375,5.72 L22.2295,5.577 C22.4275,6.281 22.9445,6.677 23.6265,6.677 C24.5175,6.677 25.2215,6.006 25.2215,5.148 C25.2215,4.268 24.5615,3.652 23.6045,3.652 C23.2635,3.652 23.0435,3.718 22.7245,3.905 L22.3615,3.586 L24.4845,0.924 Z M27.8945,6.303 C28.2245,6.303 28.4665,6.545 28.4665,6.886 C28.4665,7.205 28.2135,7.447 27.8945,7.447 C27.5645,7.447 27.3225,7.205 27.3225,6.875 C27.3225,6.545 27.5645,6.303 27.8945,6.303 Z M34.0985,2.233 L34.0985,5.148 C34.0985,5.973 33.9445,6.479 33.5815,6.864 C33.1965,7.271 32.6135,7.48 31.9205,7.48 C31.2055,7.48 30.6115,7.26 30.2265,6.842 C29.8415,6.435 29.7425,6.017 29.7425,4.906 L29.7425,2.486 C29.7425,1.529 29.8525,1.078 30.1825,0.682 C30.5455,0.242 31.1505,0 31.8985,0 C32.5695,0 33.1195,0.187 33.5265,0.55 C33.9445,0.935 34.0985,1.375 34.0985,2.233 Z M30.6115,2.508 L30.6115,4.961 C30.6115,5.808 30.6445,5.962 30.8865,6.237 C31.1175,6.501 31.5135,6.666 31.9315,6.666 C32.3825,6.666 32.8005,6.479 33.0095,6.182 C33.1745,5.94 33.2405,5.632 33.2405,5.093 L33.2405,2.288 C33.2405,1.716 33.1415,1.43 32.8665,1.166 C32.6245,0.946 32.2945,0.825 31.9315,0.825 C31.4585,0.825 31.0515,1.012 30.8425,1.353 C30.6555,1.617 30.6115,1.87 30.6115,2.508 Z"/>
      </g>
      <path fill="#314351" d="M21.3984375,38 L18.5664062,29.9335938 L7.35546875,29.9335938 L4.5234375,38 L0.83203125,38 L11.2226562,9.81640625 L14.6992188,9.81640625 L25.0898438,38 L21.3984375,38 Z M12.9023438,14.09375 L8.390625,26.9453125 L17.53125,26.9453125 L13.0195312,14.09375 L12.9023438,14.09375 Z M34.484375,35.4609375 C37.6875,35.4609375 40.1484375,33.2148438 40.1484375,30.2851562 L40.1484375,28.625 L34.71875,28.9570312 C31.984375,29.1328125 30.421875,30.34375 30.421875,32.2578125 C30.421875,34.1914062 32.0429688,35.4609375 34.484375,35.4609375 Z M33.7226562,38.3515625 C29.6796875,38.3515625 26.9648438,35.9101562 26.9648438,32.2578125 C26.9648438,28.78125 29.640625,26.59375 34.328125,26.3203125 L40.1484375,25.9882812 L40.1484375,24.2890625 C40.1484375,21.8085938 38.5078125,20.3242188 35.6953125,20.3242188 C33.078125,20.3242188 31.4375,21.5546875 31.0078125,23.546875 L27.7265625,23.546875 C27.9609375,20.03125 30.96875,17.3359375 35.7734375,17.3359375 C40.5390625,17.3359375 43.546875,19.9140625 43.546875,23.9570312 L43.546875,38 L40.3242188,38 L40.3242188,34.5039062 L40.2460938,34.5039062 C39.0351562,36.828125 36.4570312,38.3515625 33.7226562,38.3515625 Z"/>
    </g>
  </g>
</svg>
