<svg xmlns="http://www.w3.org/2000/svg" width="180" height="180" viewBox="0 0 180 180">
  <g fill="none" fill-rule="evenodd">
    <rect width="180" height="180" fill="#FFF" fill-opacity=".01" fill-rule="nonzero"/>
    <g transform="translate(44 74)">
      <g fill="#C41261" transform="translate(44)">
        <g transform="translate(0 14.359)">
          <rect width="1" height="9"/>
          <rect width="1" height="9" x="47"/>
          <rect width="46" height="1" x="1" y="4"/>
        </g>
        <path d="M13,6.413 L13,5.5 L16.784,3.751 L13,1.991 L13,1.089 L17.763,3.355 L17.763,4.147 L13,6.413 Z M24.792,5.786 L21.855,5.786 L21.855,5.104 L25.639,0 L25.639,4.994 L26.497,4.994 L26.497,5.786 L25.639,5.786 L25.639,7.436 L24.792,7.436 L24.792,5.786 Z M24.792,4.994 L24.792,2.189 L22.735,4.994 L24.792,4.994 Z M28.191,6.38 C28.521,6.38 28.763,6.622 28.763,6.963 C28.763,7.282 28.51,7.524 28.191,7.524 C27.861,7.524 27.619,7.282 27.619,6.952 C27.619,6.622 27.861,6.38 28.191,6.38 Z M33.537,0.099 L33.537,0.935 L31.172,0.935 L31.172,2.904 C31.546,2.761 31.876,2.695 32.25,2.695 C33.537,2.695 34.505,3.707 34.505,5.082 C34.505,6.49 33.471,7.513 32.03,7.513 C30.996,7.513 30.215,6.974 29.841,6.006 L30.633,5.709 C30.809,6.028 30.886,6.16 31.007,6.27 C31.238,6.501 31.645,6.644 32.052,6.644 C32.932,6.644 33.603,5.962 33.603,5.06 C33.603,4.125 32.943,3.498 31.975,3.498 C31.403,3.498 30.82,3.762 30.347,4.246 L30.347,0.099 L33.537,0.099 Z"/>
      </g>
      <path fill="#314351" d="M21.3984375,30 L18.5664062,21.9335938 L7.35546875,21.9335938 L4.5234375,30 L0.83203125,30 L11.2226562,1.81640625 L14.6992188,1.81640625 L25.0898438,30 L21.3984375,30 Z M12.9023438,6.09375 L8.390625,18.9453125 L17.53125,18.9453125 L13.0195312,6.09375 L12.9023438,6.09375 Z M34.484375,27.4609375 C37.6875,27.4609375 40.1484375,25.2148438 40.1484375,22.2851562 L40.1484375,20.625 L34.71875,20.9570312 C31.984375,21.1328125 30.421875,22.34375 30.421875,24.2578125 C30.421875,26.1914062 32.0429688,27.4609375 34.484375,27.4609375 Z M33.7226562,30.3515625 C29.6796875,30.3515625 26.9648438,27.9101562 26.9648438,24.2578125 C26.9648438,20.78125 29.640625,18.59375 34.328125,18.3203125 L40.1484375,17.9882812 L40.1484375,16.2890625 C40.1484375,13.8085938 38.5078125,12.3242188 35.6953125,12.3242188 C33.078125,12.3242188 31.4375,13.5546875 31.0078125,15.546875 L27.7265625,15.546875 C27.9609375,12.03125 30.96875,9.3359375 35.7734375,9.3359375 C40.5390625,9.3359375 43.546875,11.9140625 43.546875,15.9570312 L43.546875,30 L40.3242188,30 L40.3242188,26.5039062 L40.2460938,26.5039062 C39.0351562,28.828125 36.4570312,30.3515625 33.7226562,30.3515625 Z"/>
    </g>
  </g>
</svg>
