<svg xmlns="http://www.w3.org/2000/svg" xmlns:xlink="http://www.w3.org/1999/xlink" width="180" height="180" viewBox="0 0 180 180">
  <defs>
    <path id="7-a" d="M20,11.0628741 C24.2294511,9.96575857 29.9598111,9.57791202 33.5052388,10.0579346 C37.11061,10.5440411 40.5996464,11.8646439 45.17325,14.2245576 C46.2831666,14.7972587 46.881964,15.1191421 49.24739,16.4034742 C62.6328009,23.6712191 69.0444137,24.7755449 78.4176466,18.4645558 C80.9777229,16.7423227 84.002,18.8804456 84.002,21.8682105 L83.9978269,59.9023135 C83.9856879,60.8248792 83.4797931,61.8246236 82.7526186,62.372931 C70.8282693,71.4882016 62.5380284,70.3605873 47.2660277,61.996516 C45.1038559,60.8123517 44.6157002,60.5471141 43.645045,60.0371105 C39.2628054,57.7345853 36.1031933,56.511011 32.9573511,56.0858748 C29.6269718,55.6344322 23.6194461,56.1300524 20,57.2842805 L20,94 C20,95.1045695 19.1045695,96 18,96 C16.8954305,96 16,95.1045695 16,94 L16,6 C16,4.8954305 16.8954305,4 18,4 C19.1045695,4 20,4.8954305 20,6 L20,11.0628741 Z M20,15.2196963 L20,53.127734 C24.2281295,52.0317185 29.956792,51.6425584 33.4938495,52.122017 C37.2036402,52.6233662 40.7445573,53.9946027 45.505552,56.4961341 C46.5052426,57.0213936 47.0013946,57.2909759 49.1874333,58.4882116 C63.0682677,66.0903778 69.8416496,67.0737296 79.9980457,59.4416515 L80.0019638,22.2122065 C69.3716778,29.1121133 61.6175171,27.6715416 47.3387428,19.918736 C45.001835,18.6498882 44.4136867,18.3337292 43.3390808,17.779248 C39.1371614,15.6111179 36.0278771,14.4342516 32.9696644,14.0219173 C29.6293855,13.5696705 23.6200419,14.0639801 20,15.2196963 Z"/>
  </defs>
  <g fill="none" fill-rule="evenodd">
    <rect width="180" height="180" fill="#FFF" fill-opacity=".01" fill-rule="nonzero"/>
    <g transform="translate(24 42)">
      <path fill="#157DB9" d="M20,11.0628741 C24.2294511,9.96575857 29.9598111,9.57791202 33.5052388,10.0579346 C37.11061,10.5440411 40.5996464,11.8646439 45.17325,14.2245576 C46.2831666,14.7972587 46.881964,15.1191421 49.24739,16.4034742 C62.6328009,23.6712191 69.0444137,24.7755449 78.4176466,18.4645558 C80.9777229,16.7423227 84.002,18.8804456 84.002,21.8682105 L83.9978269,59.9023135 C83.9856879,60.8248792 83.4797931,61.8246236 82.7526186,62.372931 C70.8282693,71.4882016 62.5380284,70.3605873 47.2660277,61.996516 C45.1038559,60.8123517 44.6157002,60.5471141 43.645045,60.0371105 C39.2628054,57.7345853 36.1031933,56.511011 32.9573511,56.0858748 C29.6269718,55.6344322 23.6194461,56.1300524 20,57.2842805 L20,94 C20,95.1045695 19.1045695,96 18,96 C16.8954305,96 16,95.1045695 16,94 L16,6 C16,4.8954305 16.8954305,4 18,4 C19.1045695,4 20,4.8954305 20,6 L20,11.0628741 Z"/>
      <use fill="#157DB9" xlink:href="#7-a"/>
      <g fill="#C41261" transform="translate(84 36)">
        <rect width="1" height="9"/>
        <rect width="1" height="9" x="47"/>
        <rect width="46" height="1" x="1" y="4"/>
      </g>
      <path fill="#C41261" d="M96.7035,27.977 L96.7035,27.064 L100.4875,25.315 L96.7035,23.555 L96.7035,22.653 L101.4665,24.919 L101.4665,25.711 L96.7035,27.977 Z M108.4845,22.565 L105.9215,22.565 L105.9215,21.773 L110.0795,21.773 L107.9235,24.512 C109.1995,24.512 110.1015,25.425 110.1015,26.723 C110.1015,28.098 109.0675,29.121 107.6705,29.121 C106.5155,29.121 105.6905,28.472 105.4375,27.361 L106.2295,27.218 C106.4275,27.922 106.9445,28.318 107.6265,28.318 C108.5175,28.318 109.2215,27.647 109.2215,26.789 C109.2215,25.909 108.5615,25.293 107.6045,25.293 C107.2635,25.293 107.0435,25.359 106.7245,25.546 L106.3615,25.227 L108.4845,22.565 Z M111.8945,27.944 C112.2245,27.944 112.4665,28.186 112.4665,28.527 C112.4665,28.846 112.2135,29.088 111.8945,29.088 C111.5645,29.088 111.3225,28.846 111.3225,28.516 C111.3225,28.186 111.5645,27.944 111.8945,27.944 Z M118.0985,23.874 L118.0985,26.789 C118.0985,27.614 117.9445,28.12 117.5815,28.505 C117.1965,28.912 116.6135,29.121 115.9205,29.121 C115.2055,29.121 114.6115,28.901 114.2265,28.483 C113.8415,28.076 113.7425,27.658 113.7425,26.547 L113.7425,24.127 C113.7425,23.17 113.8525,22.719 114.1825,22.323 C114.5455,21.883 115.1505,21.641 115.8985,21.641 C116.5695,21.641 117.1195,21.828 117.5265,22.191 C117.9445,22.576 118.0985,23.016 118.0985,23.874 Z M114.6115,24.149 L114.6115,26.602 C114.6115,27.449 114.6445,27.603 114.8865,27.878 C115.1175,28.142 115.5135,28.307 115.9315,28.307 C116.3825,28.307 116.8005,28.12 117.0095,27.823 C117.1745,27.581 117.2405,27.273 117.2405,26.734 L117.2405,23.929 C117.2405,23.357 117.1415,23.071 116.8665,22.807 C116.6245,22.587 116.2945,22.466 115.9315,22.466 C115.4585,22.466 115.0515,22.653 114.8425,22.994 C114.6555,23.258 114.6115,23.511 114.6115,24.149 Z"/>
    </g>
  </g>
</svg>
