<svg xmlns="http://www.w3.org/2000/svg" xmlns:xlink="http://www.w3.org/1999/xlink" width="580" height="157" viewBox="0 0 580 157">
  <defs>
    <rect id="1-b" width="344" height="48" x="0" y="0" rx="4"/>
    <filter id="1-a" width="116%" height="214.6%" x="-8%" y="-55.2%" filterUnits="objectBoundingBox">
      <feMorphology in="SourceAlpha" radius=".5" result="shadowSpreadOuter1"/>
      <feOffset dy="3" in="shadowSpreadOuter1" result="shadowOffsetOuter1"/>
      <feGaussianBlur in="shadowOffsetOuter1" result="shadowBlurOuter1" stdDeviation="2.5"/>
      <feColorMatrix in="shadowBlurOuter1" result="shadowMatrixOuter1" values="0 0 0 0 0   0 0 0 0 0   0 0 0 0 0  0 0 0 0.2 0"/>
      <feOffset dy="1" in="SourceAlpha" result="shadowOffsetOuter2"/>
      <feGaussianBlur in="shadowOffsetOuter2" result="shadowBlurOuter2" stdDeviation="9"/>
      <feColorMatrix in="shadowBlurOuter2" result="shadowMatrixOuter2" values="0 0 0 0 0   0 0 0 0 0   0 0 0 0 0  0 0 0 0.12 0"/>
      <feOffset dy="6" in="SourceAlpha" result="shadowOffsetOuter3"/>
      <feGaussianBlur in="shadowOffsetOuter3" result="shadowBlurOuter3" stdDeviation="5"/>
      <feColorMatrix in="shadowBlurOuter3" result="shadowMatrixOuter3" values="0 0 0 0 0   0 0 0 0 0   0 0 0 0 0  0 0 0 0.14 0"/>
      <feMerge>
        <feMergeNode in="shadowMatrixOuter1"/>
        <feMergeNode in="shadowMatrixOuter2"/>
        <feMergeNode in="shadowMatrixOuter3"/>
      </feMerge>
    </filter>
  </defs>
  <g fill="none" fill-rule="evenodd">
    <rect width="580" height="157" fill="#FFF" fill-opacity=".01" fill-rule="nonzero"/>
    <g transform="translate(22)">
      <polyline fill="#FFF" fill-rule="nonzero" stroke="#979797" points="360 0 360 127 0 127 0 0 0 0" transform="translate(88)"/>
      <g transform="translate(88 37)">
        <path fill="#C41261" fill-rule="nonzero" d="M141.0315,3.018 C141.4495,3.15 141.6475,3.249 141.8785,3.491 C142.2415,3.854 142.4285,4.338 142.4285,4.91 C142.4285,6.208 141.4715,7.132 140.1295,7.132 C138.7985,7.132 137.8635,6.241 137.8635,4.987 C137.8635,4.404 138.0615,3.876 138.4135,3.513 C138.6445,3.271 138.8315,3.161 139.2715,3.018 C138.8865,2.886 138.7215,2.776 138.5235,2.534 C138.2815,2.237 138.1495,1.863 138.1495,1.456 C138.1495,0.411 139.0075,-0.359 140.1735,-0.359 C141.3285,-0.359 142.1645,0.4 142.1645,1.445 C142.1645,1.863 142.0215,2.259 141.7575,2.567 C141.5595,2.787 141.4055,2.886 141.0315,3.018 Z M140.1735,0.411 C139.4695,0.411 138.9855,0.851 138.9855,1.467 C138.9855,2.094 139.5025,2.589 140.1515,2.589 C140.7785,2.589 141.3395,2.072 141.3395,1.478 C141.3395,0.906 140.8005,0.411 140.1735,0.411 Z M140.1625,3.48 C139.3705,3.48 138.7325,4.107 138.7325,4.899 C138.7325,5.68 139.3595,6.318 140.1405,6.318 C140.9215,6.318 141.5485,5.68 141.5485,4.899 C141.5485,4.129 140.9215,3.48 140.1625,3.48 Z M147.5325,2.699 L147.5325,-0.337 L148.3685,-0.337 L148.3685,7 L147.5325,7 L147.5325,6.131 C147.0265,6.824 146.4875,7.121 145.7175,7.121 C144.3205,7.121 143.3305,6.032 143.3305,4.492 C143.3305,2.952 144.3425,1.808 145.7175,1.808 C146.4655,1.808 147.0375,2.083 147.5325,2.699 Z M145.8935,2.556 C144.8925,2.556 144.2105,3.348 144.2105,4.503 C144.2105,5.614 144.8815,6.395 145.8385,6.395 C146.8175,6.395 147.5325,5.581 147.5325,4.481 C147.5325,3.337 146.8615,2.556 145.8935,2.556 Z M150.0515,1.929 L150.8875,1.929 L150.8875,2.853 C151.3715,2.105 151.8885,1.808 152.7355,1.808 C154.1435,1.808 155.1225,2.886 155.1225,4.426 C155.1225,6.021 154.1435,7.121 152.7355,7.121 C152.3395,7.121 151.9765,7.033 151.6245,6.857 C151.3165,6.703 151.1625,6.571 150.8875,6.208 L150.8875,9.376 L150.0515,9.376 L150.0515,1.929 Z M152.5925,2.556 C151.5805,2.556 150.8875,3.359 150.8875,4.547 C150.8875,5.658 151.5585,6.395 152.5595,6.395 C153.5605,6.395 154.2315,5.614 154.2315,4.459 C154.2315,3.865 154.0885,3.414 153.7915,3.084 C153.4945,2.754 153.0435,2.556 152.5925,2.556 Z M160.6115,2.666 L160.6115,7 L159.7755,7 L159.7755,2.666 L159.0825,2.666 L159.0825,1.929 L159.7755,1.929 L159.7755,1.247 C159.7755,0.246 160.2925,-0.348 161.1725,-0.348 C161.2165,-0.348 161.3155,-0.348 161.4035,-0.337 L161.4035,0.411 C160.7985,0.477 160.6335,0.653 160.6115,1.247 L160.6115,1.929 L161.4035,1.929 L161.4035,2.666 L160.6115,2.666 Z M163.6035,1.929 L163.6035,7 L162.7675,7 L162.7675,1.929 L163.6035,1.929 Z M163.1855,-0.04 C163.4825,-0.04 163.7135,0.202 163.7135,0.51 C163.7135,0.807 163.4825,1.038 163.1855,1.038 C162.8775,1.038 162.6465,0.807 162.6465,0.499 C162.6465,0.191 162.8775,-0.04 163.1855,-0.04 Z M166.9035,5.163 L165.5505,7 L164.5275,7 L166.3975,4.481 L164.4945,1.929 L165.5505,1.929 L166.9035,3.788 L168.2895,1.929 L169.3125,1.929 L167.3985,4.481 L169.2245,7 L168.2015,7 L166.9035,5.163 Z M174.9005,4.734 L170.6765,4.734 C170.7205,5.163 170.7975,5.383 171.0065,5.658 C171.3365,6.109 171.8205,6.351 172.3705,6.351 C172.9975,6.351 173.5915,6.01 173.8885,5.482 L174.6255,5.757 C174.2075,6.604 173.3385,7.121 172.3705,7.121 C170.8635,7.121 169.7855,6.021 169.7855,4.481 C169.7855,2.919 170.8525,1.808 172.3375,1.808 C173.8115,1.808 174.9115,2.919 174.9115,4.404 C174.9115,4.47 174.9115,4.613 174.9005,4.734 Z M170.6875,4.118 L174.0205,4.118 C173.9875,3.722 173.9105,3.502 173.7345,3.249 C173.4155,2.82 172.8985,2.556 172.3375,2.556 C171.7765,2.556 171.2705,2.82 170.9735,3.26 C170.8195,3.502 170.7535,3.711 170.6875,4.118 Z M179.9165,2.699 L179.9165,-0.337 L180.7525,-0.337 L180.7525,7 L179.9165,7 L179.9165,6.131 C179.4105,6.824 178.8715,7.121 178.1015,7.121 C176.7045,7.121 175.7145,6.032 175.7145,4.492 C175.7145,2.952 176.7265,1.808 178.1015,1.808 C178.8495,1.808 179.4215,2.083 179.9165,2.699 Z M178.2775,2.556 C177.2765,2.556 176.5945,3.348 176.5945,4.503 C176.5945,5.614 177.2655,6.395 178.2225,6.395 C179.2015,6.395 179.9165,5.581 179.9165,4.481 C179.9165,3.337 179.2455,2.556 178.2775,2.556 Z M185.7355,1.929 L186.5715,1.929 L186.5715,2.853 C187.0555,2.105 187.5725,1.808 188.4195,1.808 C189.8275,1.808 190.8065,2.886 190.8065,4.426 C190.8065,6.021 189.8275,7.121 188.4195,7.121 C188.0235,7.121 187.6605,7.033 187.3085,6.857 C187.0005,6.703 186.8465,6.571 186.5715,6.208 L186.5715,9.376 L185.7355,9.376 L185.7355,1.929 Z M188.2765,2.556 C187.2645,2.556 186.5715,3.359 186.5715,4.547 C186.5715,5.658 187.2425,6.395 188.2435,6.395 C189.2445,6.395 189.9155,5.614 189.9155,4.459 C189.9155,3.865 189.7725,3.414 189.4755,3.084 C189.1785,2.754 188.7275,2.556 188.2765,2.556 Z M195.8995,2.765 L195.8995,1.929 L196.7355,1.929 L196.7355,7 L195.8995,7 L195.8995,6.021 C195.3935,6.78 194.8215,7.121 194.0515,7.121 C192.6545,7.121 191.6645,6.021 191.6645,4.481 C191.6645,2.93 192.6765,1.808 194.0735,1.808 C194.8435,1.808 195.4045,2.105 195.8995,2.765 Z M194.1945,2.556 C193.6445,2.556 193.2595,2.743 192.9625,3.161 C192.6985,3.524 192.5445,4.008 192.5445,4.503 C192.5445,5.581 193.2485,6.395 194.1725,6.395 C195.1295,6.395 195.9105,5.504 195.9105,4.415 C195.9105,3.315 195.2065,2.556 194.1945,2.556 Z M202.2135,2.699 L202.2135,-0.337 L203.0495,-0.337 L203.0495,7 L202.2135,7 L202.2135,6.131 C201.7075,6.824 201.1685,7.121 200.3985,7.121 C199.0015,7.121 198.0115,6.032 198.0115,4.492 C198.0115,2.952 199.0235,1.808 200.3985,1.808 C201.1465,1.808 201.7185,2.083 202.2135,2.699 Z M200.5745,2.556 C199.5735,2.556 198.8915,3.348 198.8915,4.503 C198.8915,5.614 199.5625,6.395 200.5195,6.395 C201.4985,6.395 202.2135,5.581 202.2135,4.481 C202.2135,3.337 201.5425,2.556 200.5745,2.556 Z M208.5275,2.699 L208.5275,-0.337 L209.3635,-0.337 L209.3635,7 L208.5275,7 L208.5275,6.131 C208.0215,6.824 207.4825,7.121 206.7125,7.121 C205.3155,7.121 204.3255,6.032 204.3255,4.492 C204.3255,2.952 205.3375,1.808 206.7125,1.808 C207.4605,1.808 208.0325,2.083 208.5275,2.699 Z M206.8885,2.556 C205.8875,2.556 205.2055,3.348 205.2055,4.503 C205.2055,5.614 205.8765,6.395 206.8335,6.395 C207.8125,6.395 208.5275,5.581 208.5275,4.481 C208.5275,3.337 207.8565,2.556 206.8885,2.556 Z M211.8825,1.929 L211.8825,7 L211.0465,7 L211.0465,1.929 L211.8825,1.929 Z M211.4755,-0.04 C211.7725,-0.04 212.0035,0.202 212.0035,0.51 C212.0035,0.807 211.7615,1.038 211.4645,1.038 C211.1675,1.038 210.9365,0.807 210.9365,0.499 C210.9365,0.191 211.1675,-0.04 211.4755,-0.04 Z M213.5655,1.929 L214.4015,1.929 L214.4015,2.644 C214.8415,2.05 215.2815,1.808 215.9085,1.808 C216.3705,1.808 216.7885,1.962 217.0855,2.226 C217.4045,2.534 217.5145,2.886 217.5145,3.579 L217.5145,7 L216.6785,7 L216.6785,3.766 C216.6785,3.315 216.6235,3.073 216.4915,2.897 C216.3375,2.688 216.0405,2.556 215.6995,2.556 C215.3255,2.556 214.9845,2.699 214.7315,2.985 C214.4895,3.249 214.4015,3.491 214.4015,3.909 L214.4015,7 L213.5655,7 L213.5655,1.929 Z M222.9155,2.798 L222.9155,1.929 L223.7515,1.929 L223.7515,7.033 C223.7515,7.88 223.5425,8.452 223.0805,8.892 C222.6295,9.332 221.9805,9.563 221.2105,9.563 C220.2645,9.563 219.5165,9.255 218.9665,8.639 L219.5385,8.067 C219.7695,8.309 219.8795,8.408 220.0225,8.507 C220.3085,8.683 220.7815,8.804 221.2105,8.804 C221.7385,8.804 222.2445,8.617 222.5305,8.309 C222.7835,8.034 222.9155,7.627 222.9155,7.099 L222.9155,6.032 C222.4205,6.78 221.8375,7.121 221.0455,7.121 C219.7035,7.121 218.7025,5.988 218.7025,4.481 C218.7025,3.667 218.9995,2.886 219.5055,2.402 C219.9125,2.006 220.4625,1.808 221.1115,1.808 C221.8815,1.808 222.3985,2.094 222.9155,2.798 Z M221.2655,2.578 C220.2755,2.578 219.5825,3.348 219.5825,4.448 C219.5825,5.537 220.2865,6.351 221.2435,6.351 C221.7275,6.351 222.2005,6.12 222.5305,5.735 C222.7505,5.482 222.8935,4.987 222.8935,4.481 C222.8935,3.821 222.7945,3.469 222.4975,3.139 C222.1895,2.798 221.7165,2.578 221.2655,2.578 Z M157.317,12.808 C158.813,12.808 159.88,13.919 159.88,15.481 C159.88,16.966 158.736,18.121 157.284,18.121 C155.777,18.121 154.721,17.021 154.721,15.459 C154.721,13.886 155.777,12.808 157.317,12.808 Z M157.317,13.578 C156.272,13.578 155.579,14.337 155.579,15.47 C155.579,16.592 156.272,17.351 157.306,17.351 C158.307,17.351 159.022,16.57 159.022,15.47 C159.022,14.337 158.34,13.578 157.317,13.578 Z M161.156,12.929 L161.992,12.929 L161.992,13.644 C162.432,13.05 162.872,12.808 163.499,12.808 C163.961,12.808 164.379,12.962 164.676,13.226 C164.995,13.534 165.105,13.886 165.105,14.579 L165.105,18 L164.269,18 L164.269,14.766 C164.269,14.315 164.214,14.073 164.082,13.897 C163.928,13.688 163.631,13.556 163.29,13.556 C162.916,13.556 162.575,13.699 162.322,13.985 C162.08,14.249 161.992,14.491 161.992,14.909 L161.992,18 L161.156,18 L161.156,12.929 Z M173.883,13.765 L173.883,12.929 L174.719,12.929 L174.719,18 L173.883,18 L173.883,17.021 C173.377,17.78 172.805,18.121 172.035,18.121 C170.638,18.121 169.648,17.021 169.648,15.481 C169.648,13.93 170.66,12.808 172.057,12.808 C172.827,12.808 173.388,13.105 173.883,13.765 Z M172.178,13.556 C171.628,13.556 171.243,13.743 170.946,14.161 C170.682,14.524 170.528,15.008 170.528,15.503 C170.528,16.581 171.232,17.395 172.156,17.395 C173.113,17.395 173.894,16.504 173.894,15.415 C173.894,14.315 173.19,13.556 172.178,13.556 Z M177.238,18 L176.402,18 L176.402,10.663 L177.238,10.663 L177.238,18 Z M179.757,18 L178.921,18 L178.921,10.663 L179.757,10.663 L179.757,18 Z M187.919,14.315 L187.083,14.315 L187.083,14.26 C187.083,13.787 186.698,13.49 186.115,13.49 C185.554,13.49 185.202,13.776 185.202,14.216 C185.202,14.656 185.422,14.821 186.335,15.074 C186.984,15.25 187.325,15.415 187.567,15.657 C187.82,15.91 187.974,16.273 187.974,16.647 C187.974,17.527 187.248,18.121 186.17,18.121 C185.015,18.121 184.366,17.582 184.278,16.559 L185.103,16.559 C185.158,17.131 185.532,17.439 186.17,17.439 C186.742,17.439 187.116,17.142 187.116,16.691 C187.116,16.251 186.83,16.031 185.961,15.811 C184.861,15.514 184.366,15.052 184.366,14.282 C184.366,13.402 185.081,12.808 186.148,12.808 C187.226,12.808 187.875,13.358 187.919,14.315 Z M190.097,12.929 L190.097,18 L189.261,18 L189.261,12.929 L190.097,12.929 Z M189.69,10.96 C189.987,10.96 190.218,11.202 190.218,11.51 C190.218,11.807 189.976,12.038 189.679,12.038 C189.382,12.038 189.151,11.807 189.151,11.499 C189.151,11.191 189.382,10.96 189.69,10.96 Z M195.575,13.699 L195.575,10.663 L196.411,10.663 L196.411,18 L195.575,18 L195.575,17.131 C195.069,17.824 194.53,18.121 193.76,18.121 C192.363,18.121 191.373,17.032 191.373,15.492 C191.373,13.952 192.385,12.808 193.76,12.808 C194.508,12.808 195.08,13.083 195.575,13.699 Z M193.936,13.556 C192.935,13.556 192.253,14.348 192.253,15.503 C192.253,16.614 192.924,17.395 193.881,17.395 C194.86,17.395 195.575,16.581 195.575,15.481 C195.575,14.337 194.904,13.556 193.936,13.556 Z M202.802,15.734 L198.578,15.734 C198.622,16.163 198.699,16.383 198.908,16.658 C199.238,17.109 199.722,17.351 200.272,17.351 C200.899,17.351 201.493,17.01 201.79,16.482 L202.527,16.757 C202.109,17.604 201.24,18.121 200.272,18.121 C198.765,18.121 197.687,17.021 197.687,15.481 C197.687,13.919 198.754,12.808 200.239,12.808 C201.713,12.808 202.813,13.919 202.813,15.404 C202.813,15.47 202.813,15.613 202.802,15.734 Z M198.589,15.118 L201.922,15.118 C201.889,14.722 201.812,14.502 201.636,14.249 C201.317,13.82 200.8,13.556 200.239,13.556 C199.678,13.556 199.172,13.82 198.875,14.26 C198.721,14.502 198.655,14.711 198.589,15.118 Z M207.202,14.315 L206.366,14.315 L206.366,14.26 C206.366,13.787 205.981,13.49 205.398,13.49 C204.837,13.49 204.485,13.776 204.485,14.216 C204.485,14.656 204.705,14.821 205.618,15.074 C206.267,15.25 206.608,15.415 206.85,15.657 C207.103,15.91 207.257,16.273 207.257,16.647 C207.257,17.527 206.531,18.121 205.453,18.121 C204.298,18.121 203.649,17.582 203.561,16.559 L204.386,16.559 C204.441,17.131 204.815,17.439 205.453,17.439 C206.025,17.439 206.399,17.142 206.399,16.691 C206.399,16.251 206.113,16.031 205.244,15.811 C204.144,15.514 203.649,15.052 203.649,14.282 C203.649,13.402 204.364,12.808 205.431,12.808 C206.509,12.808 207.158,13.358 207.202,14.315 Z"/>
        <path fill="#C41261" d="M1,63 L359,63 L359,1 L1,1 L1,63 Z M1,64 L0,64 L0,1 L0,0 L360,0 L360,1 L360,64 L359,64 L1,64 Z" transform="translate(0 26)"/>
        <g transform="translate(8 34)">
          <use fill="#000" filter="url(#1-a)" xlink:href="#1-b"/>
          <use fill="#FAFAFA" xlink:href="#1-b"/>
          <rect width="344.003" height="48" fill="#25333D" rx="4"/>
          <path fill="#89CBDF" fill-rule="nonzero" d="M279.914062,26.6826172 L276.058594,26.6826172 L275.251953,29 L273.454102,29 L277.213867,19.046875 L278.765625,19.046875 L282.532227,29 L280.727539,29 L279.914062,26.6826172 Z M276.543945,25.2880859 L279.428711,25.2880859 L277.986328,21.1591797 L276.543945,25.2880859 Z M291.861328,25.7597656 C291.761067,26.8216199 291.369144,27.6498994 290.685547,28.2446289 C290.00195,28.8393584 289.092779,29.1367188 287.958008,29.1367188 C287.165035,29.1367188 286.466637,28.9487323 285.862793,28.5727539 C285.258949,28.1967755 284.79297,27.6624384 284.464844,26.9697266 C284.136717,26.2770148 283.96582,25.4726608 283.952148,24.5566406 L283.952148,23.6269531 C283.952148,22.6881463 284.118488,21.8610062 284.451172,21.1455078 C284.783856,20.4300094 285.261227,19.8785827 285.883301,19.4912109 C286.505374,19.1038392 287.22428,18.9101562 288.040039,18.9101562 C289.138352,18.9101562 290.022458,19.2086559 290.692383,19.8056641 C291.362308,20.4026723 291.751953,21.2457628 291.861328,22.3349609 L290.138672,22.3349609 C290.05664,21.6194626 289.848146,21.1033544 289.513184,20.7866211 C289.178221,20.4698877 288.687178,20.3115234 288.040039,20.3115234 C287.288082,20.3115234 286.710451,20.5860975 286.307129,21.1352539 C285.903807,21.6844103 285.697591,22.4899035 285.688477,23.5517578 L285.688477,24.4335938 C285.688477,25.50912 285.88102,26.3294243 286.266113,26.8945312 C286.651206,27.4596382 287.215166,27.7421875 287.958008,27.7421875 C288.637048,27.7421875 289.147459,27.5895198 289.489258,27.2841797 C289.831056,26.9788396 290.047526,26.4707067 290.138672,25.7597656 L291.861328,25.7597656 Z M301.149414,20.4414062 L298.045898,20.4414062 L298.045898,29 L296.330078,29 L296.330078,20.4414062 L293.253906,20.4414062 L293.253906,19.046875 L301.149414,19.046875 L301.149414,20.4414062 Z M305.030273,29 L303.307617,29 L303.307617,19.046875 L305.030273,19.046875 L305.030273,29 Z M315.849609,24.2832031 C315.849609,25.2584684 315.680991,26.1140914 315.34375,26.8500977 C315.006509,27.5861039 314.52458,28.1512025 313.897949,28.5454102 C313.271318,28.9396179 312.550134,29.1367188 311.734375,29.1367188 C310.92773,29.1367188 310.208825,28.9396179 309.577637,28.5454102 C308.946449,28.1512025 308.458823,27.5895219 308.114746,26.8603516 C307.770669,26.1311812 307.596354,25.2903693 307.591797,24.3378906 L307.591797,23.7773438 C307.591797,22.8066358 307.763833,21.9498735 308.10791,21.2070312 C308.451987,20.464189 308.937334,19.8956725 309.563965,19.5014648 C310.190596,19.1072571 310.909501,18.9101562 311.720703,18.9101562 C312.531905,18.9101562 313.250811,19.1049785 313.877441,19.4946289 C314.504072,19.8842793 314.98828,20.4448206 315.330078,21.1762695 C315.671877,21.9077185 315.845052,22.7587842 315.849609,23.7294922 L315.849609,24.2832031 Z M314.120117,23.7636719 C314.120117,22.6608018 313.911623,21.8154326 313.494629,21.2275391 C313.077635,20.6396455 312.486332,20.3457031 311.720703,20.3457031 C310.973304,20.3457031 310.388837,20.6385062 309.967285,21.2241211 C309.545734,21.809736 309.330404,22.6380155 309.321289,23.7089844 L309.321289,24.2832031 C309.321289,25.3769586 309.53434,26.2223277 309.960449,26.8193359 C310.386558,27.4163441 310.977861,27.7148438 311.734375,27.7148438 C312.500004,27.7148438 313.089028,27.42318 313.501465,26.8398438 C313.913902,26.2565075 314.120117,25.4043025 314.120117,24.2832031 L314.120117,23.7636719 Z M326.217773,29 L324.488281,29 L320.051758,21.9384766 L320.051758,29 L318.322266,29 L318.322266,19.046875 L320.051758,19.046875 L324.501953,26.1357422 L324.501953,19.046875 L326.217773,19.046875 L326.217773,29 Z"/>
          <path fill="#F3F6FA" fill-rule="nonzero" d="M20.0137002,24.6439942 C18.9084729,24.3262973 18.1041748,23.9358939 17.6007818,23.4727723 C17.0973888,23.0096508 16.845696,22.4380286 16.845696,21.7578887 C16.845696,20.9882567 17.1533205,20.3517538 17.7685786,19.8483608 C18.3838367,19.3449677 19.1836603,19.093275 20.1680733,19.093275 C20.839264,19.093275 21.4377334,19.2230366 21.9634994,19.4825637 C22.4892655,19.7420907 22.8964484,20.1000537 23.1850604,20.5564634 C23.4736724,21.0128731 23.6179762,21.511784 23.6179762,22.0532111 L22.3225846,22.0532111 C22.3225846,21.4625633 22.1346541,20.9983301 21.7587873,20.6604974 C21.3829205,20.3226648 20.8526878,20.153751 20.1680733,20.153751 C19.5326795,20.153751 19.0371244,20.2935803 18.6813934,20.5732431 C18.3256623,20.8529059 18.1477995,21.241072 18.1477995,21.7377531 C18.1477995,22.1359929 18.3167132,22.4727018 18.6545459,22.74789 C18.9923785,23.0230782 19.5673566,23.2747709 20.3794973,23.5029758 C21.1916381,23.7311806 21.8270224,23.9828733 22.2856693,24.2580615 C22.7443163,24.5332497 23.0843812,24.8542978 23.3058741,25.2212153 C23.527367,25.5881329 23.6381118,26.0199258 23.6381118,26.5166069 C23.6381118,27.3086119 23.3293687,27.9428776 22.7118733,28.419423 C22.0943779,28.8959683 21.2688257,29.1342375 20.2351921,29.1342375 C19.5640014,29.1342375 18.9375661,29.0055945 18.3558675,28.7483048 C17.7741689,28.491015 17.3255966,28.1386452 17.0101369,27.6911847 C16.6946773,27.2437242 16.5369499,26.7358642 16.5369499,26.1675895 L17.8323414,26.1675895 C17.8323414,26.7582373 18.0504751,27.2247078 18.4867491,27.5670151 C18.923023,27.9093223 19.5058315,28.0804734 20.2351921,28.0804734 C20.9153319,28.0804734 21.4366156,27.9417627 21.7990585,27.6643372 C22.1615015,27.3869117 22.3427203,27.0088133 22.3427203,26.5300306 C22.3427203,26.0512479 22.1749251,25.68098 21.8393298,25.4192156 C21.5037344,25.1574512 20.8951973,24.8990467 20.0137002,24.6439942 Z M26.6936749,29 L25.4519783,29 L25.4519783,21.7377531 L26.6936749,21.7377531 L26.6936749,29 Z M25.3513002,19.8114455 C25.3513002,19.6100882 25.4128251,19.4400558 25.5358767,19.3013431 C25.6589283,19.1626303 25.8412657,19.093275 26.0828944,19.093275 C26.324523,19.093275 26.5079791,19.1626303 26.633268,19.3013431 C26.7585569,19.4400558 26.8212004,19.6100882 26.8212004,19.8114455 C26.8212004,20.0128027 26.7585569,20.1805978 26.633268,20.314836 C26.5079791,20.4490741 26.324523,20.5161922 26.0828944,20.5161922 C25.8412657,20.5161922 25.6589283,20.4490741 25.5358767,20.314836 C25.4128251,20.1805978 25.3513002,20.0128027 25.3513002,19.8114455 Z M30.1049672,21.7377531 L30.1452384,22.6505679 C30.7000894,21.9525295 31.4249645,21.6035156 32.3198854,21.6035156 C33.8546747,21.6035156 34.6287697,22.4693386 34.6421935,24.2010106 L34.6421935,29 L33.400497,29 L33.400497,24.1942987 C33.3960224,23.67077 33.2763285,23.2837225 33.0414117,23.0331446 C32.806495,22.7825668 32.4407016,22.6572797 31.9440205,22.6572797 C31.541306,22.6572797 31.1878176,22.7646686 30.8835445,22.9794497 C30.5792714,23.1942307 30.3421209,23.4761265 30.1720859,23.8251457 L30.1720859,29 L28.9303893,29 L28.9303893,21.7377531 L30.1049672,21.7377531 Z M36.4694838,25.3084697 C36.4694838,24.1763947 36.7312442,23.2758941 37.2547729,22.6069407 C37.7783017,21.9379873 38.471855,21.6035156 39.3354536,21.6035156 C40.2214254,21.6035156 40.9127414,21.9167332 41.4094225,22.5431779 L41.4698294,21.7377531 L42.6041359,21.7377531 L42.6041359,28.8254913 C42.6041359,29.7651583 42.325596,30.5056942 41.7685077,31.0471214 C41.2114195,31.5885485 40.4630531,31.859258 39.5233861,31.859258 C38.9998574,31.859258 38.4875228,31.7473946 37.9863671,31.5236644 C37.4852114,31.2999341 37.1026385,30.9934283 36.8386368,30.6041377 L37.4829766,29.8591198 C38.0154546,30.5168867 38.6664998,30.8457652 39.4361317,30.8457652 C40.0402034,30.8457652 40.5111484,30.6757327 40.8489811,30.3356628 C41.1868137,29.9955928 41.3557275,29.5168173 41.3557275,28.8993219 L41.3557275,28.2751177 C40.8590464,28.8478671 40.181154,29.1342375 39.3220299,29.1342375 C38.471855,29.1342375 37.7838949,28.7919354 37.2581289,28.1073209 C36.7323628,27.4227064 36.4694838,26.4897653 36.4694838,25.3084697 Z M37.7178922,25.449419 C37.7178922,26.2682717 37.8856873,26.9114864 38.2212827,27.3790826 C38.556878,27.8466788 39.0267045,28.0804734 39.6307761,28.0804734 C40.4138319,28.0804734 40.9888099,27.7247476 41.3557275,27.0132855 L41.3557275,23.6976201 C40.9753861,23.0040564 40.4048826,22.6572797 39.6441998,22.6572797 C39.0401282,22.6572797 38.5680645,22.8921929 38.2279946,23.3620264 C37.8879246,23.8318599 37.7178922,24.5276505 37.7178922,25.449419 Z M46.0758351,29 L44.8341386,29 L44.8341386,18.6905626 L46.0758351,18.6905626 L46.0758351,29 Z M51.3261807,29.1342375 C50.3417677,29.1342375 49.5408255,28.8109521 48.9233301,28.1643718 C48.3058347,27.5177914 47.9970916,26.6530871 47.9970916,25.5702327 L47.9970916,25.3420291 C47.9970916,24.6216177 48.1346836,23.978403 48.4098718,23.4123655 C48.68506,22.846328 49.0698702,22.4033488 49.564314,22.0834146 C50.0587578,21.7634803 50.5945837,21.6035156 51.1718077,21.6035156 C52.1159492,21.6035156 52.8497734,21.914496 53.3733021,22.536466 C53.8968308,23.158436 54.1585913,24.048869 54.1585913,25.2077916 L54.1585913,25.7246058 L49.2387881,25.7246058 C49.2566866,26.4405426 49.4658712,27.0188765 49.8663483,27.4596251 C50.2668254,27.9003736 50.775804,28.1207446 51.3932995,28.1207446 C51.8318107,28.1207446 52.2031973,28.0312538 52.5074704,27.8522697 C52.8117435,27.6732855 53.0779785,27.436135 53.3061834,27.1408111 L54.064625,27.7314559 C53.4560788,28.6666483 52.5432732,29.1342375 51.3261807,29.1342375 Z M51.1718077,22.6237204 C50.6706519,22.6237204 50.2500454,22.8060578 49.9099755,23.170738 C49.5699055,23.5354183 49.3596023,24.0466342 49.2790594,24.7044011 L52.9168947,24.7044011 L52.9168947,24.6104349 C52.8810979,23.9795156 52.7110654,23.4906724 52.4067923,23.1438905 C52.1025192,22.7971087 51.6908618,22.6237204 51.1718077,22.6237204 Z M60.8469384,29 L59.6052419,29 L59.6052419,18.6905626 L60.8469384,18.6905626 L60.8469384,29 Z M64.4327395,29 L63.1910429,29 L63.1910429,21.7377531 L64.4327395,21.7377531 L64.4327395,29 Z M63.0903648,19.8114455 C63.0903648,19.6100882 63.1518897,19.4400558 63.2749413,19.3013431 C63.397993,19.1626303 63.5803304,19.093275 63.821959,19.093275 C64.0635877,19.093275 64.2470437,19.1626303 64.3723326,19.3013431 C64.4976215,19.4400558 64.5602651,19.6100882 64.5602651,19.8114455 C64.5602651,20.0128027 64.4976215,20.1805978 64.3723326,20.314836 C64.2470437,20.4490741 64.0635877,20.5161922 63.821959,20.5161922 C63.5803304,20.5161922 63.397993,20.4490741 63.2749413,20.314836 C63.1518897,20.1805978 63.0903648,20.0128027 63.0903648,19.8114455 Z M67.8440318,21.7377531 L67.884303,22.6505679 C68.439154,21.9525295 69.1640291,21.6035156 70.05895,21.6035156 C71.5937394,21.6035156 72.3678343,22.4693386 72.3812582,24.2010106 L72.3812582,29 L71.1395616,29 L71.1395616,24.1942987 C71.135087,23.67077 71.0153931,23.2837225 70.7804764,23.0331446 C70.5455596,22.7825668 70.1797662,22.6572797 69.6830851,22.6572797 C69.2803707,22.6572797 68.9268822,22.7646686 68.6226091,22.9794497 C68.318336,23.1942307 68.0811855,23.4761265 67.9111505,23.8251457 L67.9111505,29 L66.669454,29 L66.669454,21.7377531 L67.8440318,21.7377531 Z M77.5175019,29.1342375 C76.5330889,29.1342375 75.7321467,28.8109521 75.1146513,28.1643718 C74.4971558,27.5177914 74.1884128,26.6530871 74.1884128,25.5702327 L74.1884128,25.3420291 C74.1884128,24.6216177 74.3260048,23.978403 74.601193,23.4123655 C74.8763811,22.846328 75.2611914,22.4033488 75.7556352,22.0834146 C76.250079,21.7634803 76.7859048,21.6035156 77.3631288,21.6035156 C78.3072704,21.6035156 79.0410945,21.914496 79.5646233,22.536466 C80.088152,23.158436 80.3499124,24.048869 80.3499124,25.2077916 L80.3499124,25.7246058 L75.4301093,25.7246058 C75.4480077,26.4405426 75.6571924,27.0188765 76.0576695,27.4596251 C76.4581466,27.9003736 76.9671252,28.1207446 77.5846206,28.1207446 C78.0231319,28.1207446 78.3945185,28.0312538 78.6987916,27.8522697 C79.0030647,27.6732855 79.2692997,27.436135 79.4975045,27.1408111 L80.2559462,27.7314559 C79.6474,28.6666483 78.7345944,29.1342375 77.5175019,29.1342375 Z M77.3631288,22.6237204 C76.8619731,22.6237204 76.4413666,22.8060578 76.1012966,23.170738 C75.7612267,23.5354183 75.5509234,24.0466342 75.4703806,24.7044011 L79.1082159,24.7044011 L79.1082159,24.6104349 C79.072419,23.9795156 78.9023866,23.4906724 78.5981135,23.1438905 C78.2938404,22.7971087 77.882183,22.6237204 77.3631288,22.6237204 Z M86.857039,21.7377531 L86.8905984,22.5431779 C87.4230764,21.9167332 88.1412396,21.6035156 89.0451097,21.6035156 C90.060845,21.6035156 90.752161,21.9928004 91.1190786,22.7713816 C91.3607072,22.4223624 91.6750435,22.1404666 92.0620968,21.9256855 C92.4491501,21.7109045 92.9066715,21.6035156 93.4346749,21.6035156 C95.0276341,21.6035156 95.8375254,22.4469659 95.864373,24.1338919 L95.864373,29 L94.6226765,29 L94.6226765,24.2077225 C94.6226765,23.6886683 94.5041012,23.3005022 94.2669472,23.0432124 C94.0297931,22.7859227 93.6315593,22.6572797 93.0722337,22.6572797 C92.6113495,22.6572797 92.2287765,22.7948718 91.9245034,23.0700599 C91.6202303,23.3452481 91.443486,23.7155161 91.3942654,24.180875 L91.3942654,29 L90.145857,29 L90.145857,24.2412818 C90.145857,23.1852752 89.6290479,22.6572797 88.5954142,22.6572797 C87.7810362,22.6572797 87.2239563,23.0040564 86.9241578,23.6976201 L86.9241578,29 L85.6824612,29 L85.6824612,21.7377531 L86.857039,21.7377531 Z M101.000617,29.1342375 C100.016204,29.1342375 99.2152616,28.8109521 98.5977661,28.1643718 C97.9802707,27.5177914 97.6715276,26.6530871 97.6715276,25.5702327 L97.6715276,25.3420291 C97.6715276,24.6216177 97.8091196,23.978403 98.0843078,23.4123655 C98.359496,22.846328 98.7443062,22.4033488 99.23875,22.0834146 C99.7331938,21.7634803 100.26902,21.6035156 100.846244,21.6035156 C101.790385,21.6035156 102.524209,21.914496 103.047738,22.536466 C103.571267,23.158436 103.833027,24.048869 103.833027,25.2077916 L103.833027,25.7246058 L98.9132242,25.7246058 C98.9311226,26.4405426 99.1403072,27.0188765 99.5407843,27.4596251 C99.9412614,27.9003736 100.45024,28.1207446 101.067736,28.1207446 C101.506247,28.1207446 101.877633,28.0312538 102.181906,27.8522697 C102.48618,27.6732855 102.752415,27.436135 102.980619,27.1408111 L103.739061,27.7314559 C103.130515,28.6666483 102.217709,29.1342375 101.000617,29.1342375 Z M100.846244,22.6237204 C100.345088,22.6237204 99.9244815,22.8060578 99.5844115,23.170738 C99.2443416,23.5354183 99.0340383,24.0466342 98.9534954,24.7044011 L102.591331,24.7044011 L102.591331,24.6104349 C102.555534,23.9795156 102.385501,23.4906724 102.081228,23.1438905 C101.776955,22.7971087 101.365298,22.6237204 100.846244,22.6237204 Z M109.747848,27.0736924 C109.747848,26.738097 109.621443,26.4774552 109.368628,26.2917591 C109.115812,26.106063 108.67507,25.9460983 108.046388,25.8118602 C107.417707,25.677622 106.918796,25.5165387 106.549641,25.3286053 C106.180486,25.1406719 105.907539,24.916945 105.730792,24.657418 C105.554045,24.3978909 105.465673,24.0891478 105.465673,23.7311795 C105.465673,23.1360571 105.717366,22.6326716 106.220759,22.221008 C106.724152,21.8093443 107.367367,21.6035156 108.150423,21.6035156 C108.97375,21.6035156 109.641574,21.8160562 110.153917,22.2411436 C110.666259,22.666231 110.922426,23.2098873 110.922426,23.8721288 L109.674018,23.8721288 C109.674018,23.5320589 109.529714,23.2389766 109.241102,22.9928734 C108.95249,22.7467701 108.588934,22.6237204 108.150423,22.6237204 C107.698487,22.6237204 107.344999,22.7221602 107.089947,22.9190428 C106.834894,23.1159254 106.70737,23.3732113 106.70737,23.6909082 C106.70737,23.9907067 106.825945,24.2166709 107.063099,24.3688074 C107.300253,24.520944 107.72869,24.6663664 108.348423,24.8050792 C108.968156,24.9437919 109.470422,25.1093498 109.855238,25.3017578 C110.240054,25.4941658 110.525306,25.7257231 110.711002,25.9964367 C110.896698,26.2671503 110.989545,26.5971474 110.989545,26.986438 C110.989545,27.6352557 110.730022,28.1554207 110.210968,28.5469486 C109.691913,28.9384765 109.018496,29.1342375 108.190694,29.1342375 C107.608995,29.1342375 107.094423,29.0313231 106.646963,28.8254913 C106.199502,28.6196595 105.84937,28.3321705 105.596555,27.9630156 C105.34374,27.5938607 105.217334,27.1945082 105.217334,26.7649462 L106.45903,26.7649462 C106.481403,27.1810844 106.64808,27.5110816 106.959065,27.7549475 C107.27005,27.9988135 107.680589,28.1207446 108.190694,28.1207446 C108.660527,28.1207446 109.037507,28.0256607 109.321644,27.83549 C109.605782,27.6453193 109.747848,27.3913893 109.747848,27.0736924 Z M117.085587,27.0736924 C117.085587,26.738097 116.959181,26.4774552 116.706366,26.2917591 C116.453551,26.106063 116.012809,25.9460983 115.384127,25.8118602 C114.755445,25.677622 114.256534,25.5165387 113.887379,25.3286053 C113.518224,25.1406719 113.245277,24.916945 113.06853,24.657418 C112.891784,24.3978909 112.803411,24.0891478 112.803411,23.7311795 C112.803411,23.1360571 113.055104,22.6326716 113.558497,22.221008 C114.06189,21.8093443 114.705105,21.6035156 115.488161,21.6035156 C116.311488,21.6035156 116.979313,21.8160562 117.491655,22.2411436 C118.003997,22.666231 118.260164,23.2098873 118.260164,23.8721288 L117.011756,23.8721288 C117.011756,23.5320589 116.867452,23.2389766 116.57884,22.9928734 C116.290228,22.7467701 115.926672,22.6237204 115.488161,22.6237204 C115.036226,22.6237204 114.682737,22.7221602 114.427685,22.9190428 C114.172632,23.1159254 114.045108,23.3732113 114.045108,23.6909082 C114.045108,23.9907067 114.163683,24.2166709 114.400837,24.3688074 C114.637991,24.520944 115.066428,24.6663664 115.686161,24.8050792 C116.305894,24.9437919 116.808161,25.1093498 117.192977,25.3017578 C117.577793,25.4941658 117.863044,25.7257231 118.04874,25.9964367 C118.234436,26.2671503 118.327283,26.5971474 118.327283,26.986438 C118.327283,27.6352557 118.06776,28.1554207 117.548706,28.5469486 C117.029652,28.9384765 116.356234,29.1342375 115.528432,29.1342375 C114.946733,29.1342375 114.432162,29.0313231 113.984701,28.8254913 C113.537241,28.6196595 113.187108,28.3321705 112.934293,27.9630156 C112.681478,27.5938607 112.555072,27.1945082 112.555072,26.7649462 L113.796769,26.7649462 C113.819142,27.1810844 113.985818,27.5110816 114.296803,27.7549475 C114.607788,27.9988135 115.018327,28.1207446 115.528432,28.1207446 C115.998265,28.1207446 116.375245,28.0256607 116.659383,27.83549 C116.94352,27.6453193 117.085587,27.3913893 117.085587,27.0736924 Z M124.678376,29 C124.606782,28.8568127 124.548613,28.601764 124.503867,28.2348464 C123.926643,28.8344435 123.237565,29.1342375 122.43661,29.1342375 C121.720674,29.1342375 121.133391,28.9317646 120.674744,28.5268129 C120.216097,28.1218612 119.986777,27.608408 119.986777,26.986438 C119.986777,26.2302298 120.274266,25.6429468 120.849252,25.2245713 C121.424239,24.8061957 122.233012,24.5970111 123.275594,24.5970111 L124.483732,24.5970111 L124.483732,24.0265019 C124.483732,23.5924652 124.35397,23.2468072 124.094443,22.9895175 C123.834916,22.7322277 123.452343,22.6035847 122.946713,22.6035847 C122.503727,22.6035847 122.13234,22.7154482 121.832542,22.9391784 C121.532743,23.1629086 121.382846,23.4336182 121.382846,23.7513151 L120.134438,23.7513151 C120.134438,23.3888721 120.263081,23.0387396 120.52037,22.7009069 C120.77766,22.3630743 121.126674,22.0957207 121.567423,21.8988381 C122.008171,21.7019554 122.49254,21.6035156 123.020543,21.6035156 C123.857294,21.6035156 124.512814,21.8127003 124.987122,22.2310758 C125.46143,22.6494513 125.70753,23.225548 125.725428,23.9593832 L125.725428,27.3018961 C125.725428,27.9686121 125.810444,28.4988448 125.980479,28.89261 L125.980479,29 L124.678376,29 Z M122.617831,28.0536259 C123.007121,28.0536259 123.376271,27.9529488 123.72529,27.7515916 C124.074309,27.5502344 124.32712,27.2884739 124.483732,26.9663024 L124.483732,25.4762665 L123.51051,25.4762665 C121.989144,25.4762665 121.228473,25.921483 121.228473,26.8119293 C121.228473,27.2012199 121.358235,27.5054884 121.617762,27.7247441 C121.877289,27.9439997 122.210642,28.0536259 122.617831,28.0536259 Z M127.626549,25.3084697 C127.626549,24.1763947 127.888309,23.2758941 128.411838,22.6069407 C128.935367,21.9379873 129.62892,21.6035156 130.492519,21.6035156 C131.378491,21.6035156 132.069807,21.9167332 132.566488,22.5431779 L132.626895,21.7377531 L133.761201,21.7377531 L133.761201,28.8254913 C133.761201,29.7651583 133.482661,30.5056942 132.925573,31.0471214 C132.368485,31.5885485 131.620118,31.859258 130.680451,31.859258 C130.156923,31.859258 129.644588,31.7473946 129.143432,31.5236644 C128.642277,31.2999341 128.259704,30.9934283 127.995702,30.6041377 L128.640042,29.8591198 C129.17252,30.5168867 129.823565,30.8457652 130.593197,30.8457652 C131.197269,30.8457652 131.668214,30.6757327 132.006046,30.3356628 C132.343879,29.9955928 132.512793,29.5168173 132.512793,28.8993219 L132.512793,28.2751177 C132.016112,28.8478671 131.338219,29.1342375 130.479095,29.1342375 C129.62892,29.1342375 128.94096,28.7919354 128.415194,28.1073209 C127.889428,27.4227064 127.626549,26.4897653 127.626549,25.3084697 Z M128.874957,25.449419 C128.874957,26.2682717 129.042753,26.9114864 129.378348,27.3790826 C129.713943,27.8466788 130.18377,28.0804734 130.787841,28.0804734 C131.570897,28.0804734 132.145875,27.7247476 132.512793,27.0132855 L132.512793,23.6976201 C132.132451,23.0040564 131.561948,22.6572797 130.801265,22.6572797 C130.197193,22.6572797 129.72513,22.8921929 129.38506,23.3620264 C129.04499,23.8318599 128.874957,24.5276505 128.874957,25.449419 Z M138.897445,29.1342375 C137.913032,29.1342375 137.11209,28.8109521 136.494594,28.1643718 C135.877099,27.5177914 135.568356,26.6530871 135.568356,25.5702327 L135.568356,25.3420291 C135.568356,24.6216177 135.705948,23.978403 135.981136,23.4123655 C136.256324,22.846328 136.641134,22.4033488 137.135578,22.0834146 C137.630022,21.7634803 138.165848,21.6035156 138.743072,21.6035156 C139.687213,21.6035156 140.421038,21.914496 140.944566,22.536466 C141.468095,23.158436 141.729856,24.048869 141.729856,25.2077916 L141.729856,25.7246058 L136.810052,25.7246058 C136.827951,26.4405426 137.037135,27.0188765 137.437613,27.4596251 C137.83809,27.9003736 138.347068,28.1207446 138.964564,28.1207446 C139.403075,28.1207446 139.774462,28.0312538 140.078735,27.8522697 C140.383008,27.6732855 140.649243,27.436135 140.877448,27.1408111 L141.635889,27.7314559 C141.027343,28.6666483 140.114537,29.1342375 138.897445,29.1342375 Z M138.743072,22.6237204 C138.241916,22.6237204 137.82131,22.8060578 137.48124,23.170738 C137.14117,23.5354183 136.930867,24.0466342 136.850324,24.7044011 L140.488159,24.7044011 L140.488159,24.6104349 C140.452362,23.9795156 140.28233,23.4906724 139.978057,23.1438905 C139.673783,22.7971087 139.262126,22.6237204 138.743072,22.6237204 Z M153.499091,27.2884723 L154.89516,21.7377531 L156.136857,21.7377531 L154.022617,29 L153.015836,29 L151.250613,23.4962639 L149.532374,29 L148.525593,29 L146.418064,21.7377531 L147.653049,21.7377531 L149.082678,27.1743705 L150.77407,21.7377531 L151.774139,21.7377531 L153.499091,27.2884723 Z M158.997776,29 L157.756079,29 L157.756079,21.7377531 L158.997776,21.7377531 L158.997776,29 Z M157.655401,19.8114455 C157.655401,19.6100882 157.716926,19.4400558 157.839978,19.3013431 C157.963029,19.1626303 158.145367,19.093275 158.386995,19.093275 C158.628624,19.093275 158.81208,19.1626303 158.937369,19.3013431 C159.062658,19.4400558 159.125301,19.6100882 159.125301,19.8114455 C159.125301,20.0128027 159.062658,20.1805978 158.937369,20.314836 C158.81208,20.4490741 158.628624,20.5161922 158.386995,20.5161922 C158.145367,20.5161922 157.963029,20.4490741 157.839978,20.314836 C157.716926,20.1805978 157.655401,20.0128027 157.655401,19.8114455 Z M162.91917,19.9792423 L162.91917,21.7377531 L164.274969,21.7377531 L164.274969,22.697551 L162.91917,22.697551 L162.91917,27.201218 C162.91917,27.4920673 162.979577,27.710201 163.100391,27.8556256 C163.221205,28.0010503 163.427034,28.0737615 163.717883,28.0737615 C163.861071,28.0737615 164.05795,28.0469143 164.308528,27.993219 L164.308528,29 C163.981882,29.0894921 163.66419,29.1342375 163.355442,29.1342375 C162.800591,29.1342375 162.382222,28.9664423 162.100322,28.630847 C161.818422,28.2952516 161.677474,27.8187134 161.677474,27.201218 L161.677474,22.697551 L160.355235,22.697551 L160.355235,21.7377531 L161.677474,21.7377531 L161.677474,19.9792423 L162.91917,19.9792423 Z M167.21643,22.6170085 C167.766806,21.9413432 168.482732,21.6035156 169.364229,21.6035156 C170.899019,21.6035156 171.673114,22.4693386 171.686538,24.2010106 L171.686538,29 L170.444841,29 L170.444841,24.1942987 C170.440366,23.67077 170.320673,23.2837225 170.085756,23.0331446 C169.850839,22.7825668 169.485046,22.6572797 168.988365,22.6572797 C168.58565,22.6572797 168.232162,22.7646686 167.927889,22.9794497 C167.623615,23.1942307 167.386465,23.4761265 167.21643,23.8251457 L167.21643,29 L165.974733,29 L165.974733,18.6905626 L167.21643,18.6905626 L167.21643,22.6170085 Z M181.932178,29 C181.860584,28.8568127 181.802415,28.601764 181.757669,28.2348464 C181.180445,28.8344435 180.491366,29.1342375 179.690412,29.1342375 C178.974475,29.1342375 178.387192,28.9317646 177.928545,28.5268129 C177.469898,28.1218612 177.240578,27.608408 177.240578,26.986438 C177.240578,26.2302298 177.528067,25.6429468 178.103054,25.2245713 C178.678041,24.8061957 179.486813,24.5970111 180.529396,24.5970111 L181.737533,24.5970111 L181.737533,24.0265019 C181.737533,23.5924652 181.607772,23.2468072 181.348245,22.9895175 C181.088718,22.7322277 180.706145,22.6035847 180.200514,22.6035847 C179.757528,22.6035847 179.386142,22.7154482 179.086343,22.9391784 C178.786545,23.1629086 178.636648,23.4336182 178.636648,23.7513151 L177.388239,23.7513151 C177.388239,23.3888721 177.516882,23.0387396 177.774172,22.7009069 C178.031462,22.3630743 178.380476,22.0957207 178.821224,21.8988381 C179.261973,21.7019554 179.746342,21.6035156 180.274345,21.6035156 C181.111096,21.6035156 181.766616,21.8127003 182.240924,22.2310758 C182.715232,22.6494513 182.961331,23.225548 182.97923,23.9593832 L182.97923,27.3018961 C182.97923,27.9686121 183.064246,28.4988448 183.234281,28.89261 L183.234281,29 L181.932178,29 Z M179.871633,28.0536259 C180.260923,28.0536259 180.630072,27.9529488 180.979092,27.7515916 C181.328111,27.5502344 181.580922,27.2884739 181.737533,26.9663024 L181.737533,25.4762665 L180.764312,25.4762665 C179.242946,25.4762665 178.482275,25.921483 178.482275,26.8119293 C178.482275,27.2012199 178.612036,27.5054884 178.871563,27.7247441 C179.13109,27.9439997 179.464444,28.0536259 179.871633,28.0536259 Z M188.088626,28.1207446 C188.531612,28.1207446 188.918659,27.9865085 189.24978,27.7180322 C189.580901,27.4495559 189.764357,27.1139656 189.800154,26.7112512 L190.974732,26.7112512 C190.952359,27.1273894 190.809173,27.523386 190.545172,27.8992528 C190.28117,28.2751196 189.9288,28.5749136 189.488052,28.7986438 C189.047303,29.022374 188.580833,29.1342375 188.088626,29.1342375 C187.099739,29.1342375 186.313339,28.8042403 185.729403,28.1442362 C185.145467,27.484232 184.853503,26.581494 184.853503,25.4359953 L184.853503,25.2279272 C184.853503,24.5209397 184.983265,23.8922672 185.242792,23.3418908 C185.502319,22.7915144 185.874824,22.3641961 186.360319,22.059923 C186.845813,21.7556499 187.419673,21.6035156 188.081914,21.6035156 C188.896292,21.6035156 189.573066,21.8473779 190.112256,22.3351098 C190.651446,22.8228417 190.938935,23.4559888 190.974732,24.23457 L189.800154,24.23457 C189.764357,23.7647365 189.586494,23.3788076 189.26656,23.0767718 C188.946626,22.774736 188.551748,22.6237204 188.081914,22.6237204 C187.450995,22.6237204 186.962152,22.8508031 186.61537,23.3049755 C186.268588,23.7591479 186.0952,24.4157862 186.0952,25.2749103 L186.0952,25.5098259 C186.0952,26.3465769 186.267469,26.9909103 186.612014,27.4428454 C186.956559,27.8947805 187.448758,28.1207446 188.088626,28.1207446 Z M194.305482,19.9792423 L194.305482,21.7377531 L195.66128,21.7377531 L195.66128,22.697551 L194.305482,22.697551 L194.305482,27.201218 C194.305482,27.4920673 194.365888,27.710201 194.486702,27.8556256 C194.607516,28.0010503 194.813345,28.0737615 195.104194,28.0737615 C195.247382,28.0737615 195.444261,28.0469143 195.694839,27.993219 L195.694839,29 C195.368193,29.0894921 195.050501,29.1342375 194.741753,29.1342375 C194.186902,29.1342375 193.768533,28.9664423 193.486633,28.630847 C193.204733,28.2952516 193.063785,27.8187134 193.063785,27.201218 L193.063785,22.697551 L191.741546,22.697551 L191.741546,21.7377531 L193.063785,21.7377531 L193.063785,19.9792423 L194.305482,19.9792423 Z M198.710131,29 L197.468435,29 L197.468435,21.7377531 L198.710131,21.7377531 L198.710131,29 Z M197.367756,19.8114455 C197.367756,19.6100882 197.429281,19.4400558 197.552333,19.3013431 C197.675385,19.1626303 197.857722,19.093275 198.099351,19.093275 C198.340979,19.093275 198.524435,19.1626303 198.649724,19.3013431 C198.775013,19.4400558 198.837657,19.6100882 198.837657,19.8114455 C198.837657,20.0128027 198.775013,20.1805978 198.649724,20.314836 C198.524435,20.4490741 198.340979,20.5161922 198.099351,20.5161922 C197.857722,20.5161922 197.675385,20.4490741 197.552333,20.314836 C197.429281,20.1805978 197.367756,20.0128027 197.367756,19.8114455 Z M200.617964,25.3017578 C200.617964,24.5902957 200.757793,23.9504368 201.037456,23.382162 C201.317119,22.8138873 201.706403,22.3753826 202.205322,22.0666349 C202.70424,21.7578872 203.273625,21.6035156 203.913494,21.6035156 C204.902381,21.6035156 205.702205,21.9458177 206.312988,22.6304322 C206.923772,23.3150467 207.229159,24.2256151 207.229159,25.3621647 L207.229159,25.449419 C207.229159,26.1564065 207.093804,26.7906722 206.823091,27.3522351 C206.552377,27.913798 206.16533,28.351184 205.661937,28.6644063 C205.158544,28.9776287 204.58021,29.1342375 203.926917,29.1342375 C202.942504,29.1342375 202.144918,28.7919354 201.534134,28.1073209 C200.923351,27.4227064 200.617964,26.5166125 200.617964,25.3890122 L200.617964,25.3017578 Z M201.866372,25.449419 C201.866372,26.2548478 202.053184,26.9014185 202.426814,27.3891504 C202.800443,27.8768823 203.300473,28.1207446 203.926917,28.1207446 C204.557837,28.1207446 205.058985,27.8735264 205.430377,27.3790826 C205.801769,26.8846388 205.987462,26.1922041 205.987462,25.3017578 C205.987462,24.5052782 205.798413,23.8598262 205.420309,23.3653824 C205.042205,22.8709386 204.539938,22.6237204 203.913494,22.6237204 C203.300473,22.6237204 202.806036,22.8675827 202.43017,23.3553146 C202.054303,23.8430465 201.866372,24.5410743 201.866372,25.449419 Z M210.210891,21.7377531 L210.251163,22.6505679 C210.806014,21.9525295 211.530889,21.6035156 212.42581,21.6035156 C213.960599,21.6035156 214.734694,22.4693386 214.748118,24.2010106 L214.748118,29 L213.506421,29 L213.506421,24.1942987 C213.501947,23.67077 213.382253,23.2837225 213.147336,23.0331446 C212.912419,22.7825668 212.546626,22.6572797 212.049945,22.6572797 C211.64723,22.6572797 211.293742,22.7646686 210.989469,22.9794497 C210.685196,23.1942307 210.448045,23.4761265 210.27801,23.8251457 L210.27801,29 L209.036314,29 L209.036314,21.7377531 L210.210891,21.7377531 Z M216.897578,28.3489483 C216.897578,28.1341673 216.96134,27.9551858 217.088866,27.8119984 C217.216393,27.6688111 217.407679,27.5972185 217.662731,27.5972185 C217.917784,27.5972185 218.111308,27.6688111 218.243309,27.8119984 C218.375309,27.9551858 218.441309,28.1341673 218.441309,28.3489483 C218.441309,28.5547801 218.375309,28.7270498 218.243309,28.8657625 C218.111308,29.0044753 217.917784,29.0738306 217.662731,29.0738306 C217.407679,29.0738306 217.216393,29.0044753 217.088866,28.8657625 C216.96134,28.7270498 216.897578,28.5547801 216.897578,28.3489483 Z"/>
        </g>
        <path fill="#C41261" d="M1,47 L343,47 L343,1 L1,1 L1,47 Z M1,48 L0,48 L0,1 L0,0 L344,0 L344,1 L344,48 L343,48 L1,48 Z" transform="translate(8 34)"/>
        <g fill="#C41261" transform="translate(176 26)">
          <rect width="1" height="7" x="4" y="1"/>
          <rect width="9" height="1"/>
          <rect width="9" height="1" y="8"/>
        </g>
      </g>
      <g fill="#C41261" transform="translate(0 55)">
        <g transform="rotate(90 38 38)">
          <rect width="59" height="1" y="2"/>
          <polygon points="61.5 0 64 5 59 5" transform="rotate(90 61.5 2.5)"/>
        </g>
        <path fill-rule="nonzero" d="M5.569,48.131 L5.569,49 L4.733,49 L4.733,41.663 L5.569,41.663 L5.569,44.798 C6.075,44.105 6.614,43.808 7.351,43.808 C8.77,43.808 9.76,44.908 9.76,46.481 C9.76,48.032 8.781,49.121 7.395,49.121 C6.614,49.121 6.064,48.824 5.569,48.131 Z M7.241,44.556 C6.273,44.556 5.558,45.359 5.558,46.47 C5.558,47.625 6.218,48.395 7.208,48.395 C8.209,48.395 8.88,47.636 8.88,46.503 C8.88,45.37 8.198,44.556 7.241,44.556 Z M13.225,43.808 C14.721,43.808 15.788,44.919 15.788,46.481 C15.788,47.966 14.644,49.121 13.192,49.121 C11.685,49.121 10.629,48.021 10.629,46.459 C10.629,44.886 11.685,43.808 13.225,43.808 Z M13.225,44.578 C12.18,44.578 11.487,45.337 11.487,46.47 C11.487,47.592 12.18,48.351 13.214,48.351 C14.215,48.351 14.93,47.57 14.93,46.47 C14.93,45.337 14.248,44.578 13.225,44.578 Z M17.955,44.666 L17.955,47.966 C17.966,48.219 18.032,48.274 18.34,48.274 L18.725,48.274 L18.725,49 L17.944,49 C17.35,48.989 17.119,48.769 17.119,48.208 L17.119,44.666 L16.415,44.666 L16.415,43.929 L17.119,43.929 L17.119,42.334 L17.955,42.334 L17.955,43.929 L18.725,43.929 L18.725,44.666 L17.955,44.666 Z M20.804,44.666 L20.804,47.966 C20.815,48.219 20.881,48.274 21.189,48.274 L21.574,48.274 L21.574,49 L20.793,49 C20.199,48.989 19.968,48.769 19.968,48.208 L19.968,44.666 L19.264,44.666 L19.264,43.929 L19.968,43.929 L19.968,42.334 L20.804,42.334 L20.804,43.929 L21.574,43.929 L21.574,44.666 L20.804,44.666 Z M24.951,43.808 C26.447,43.808 27.514,44.919 27.514,46.481 C27.514,47.966 26.37,49.121 24.918,49.121 C23.411,49.121 22.355,48.021 22.355,46.459 C22.355,44.886 23.411,43.808 24.951,43.808 Z M24.951,44.578 C23.906,44.578 23.213,45.337 23.213,46.47 C23.213,47.592 23.906,48.351 24.94,48.351 C25.941,48.351 26.656,47.57 26.656,46.47 C26.656,45.337 25.974,44.578 24.951,44.578 Z M28.79,43.929 L29.626,43.929 L29.626,44.633 C30.011,44.05 30.44,43.808 31.067,43.808 C31.76,43.808 32.2,44.105 32.431,44.732 C32.805,44.083 33.278,43.808 34.037,43.808 C34.62,43.808 35.06,43.995 35.324,44.347 C35.566,44.666 35.632,44.952 35.632,45.755 L35.632,49 L34.796,49 L34.796,45.953 C34.796,45.337 34.774,45.194 34.653,44.985 C34.499,44.721 34.169,44.556 33.773,44.556 C33.036,44.556 32.629,45.051 32.629,45.953 L32.629,49 L31.793,49 L31.793,45.964 C31.793,45.469 31.749,45.216 31.628,44.996 C31.485,44.71 31.177,44.556 30.803,44.556 C30.066,44.556 29.626,45.084 29.626,45.964 L29.626,49 L28.79,49 L28.79,43.929 Z M44.41,44.765 L44.41,43.929 L45.246,43.929 L45.246,49 L44.41,49 L44.41,48.021 C43.904,48.78 43.332,49.121 42.562,49.121 C41.165,49.121 40.175,48.021 40.175,46.481 C40.175,44.93 41.187,43.808 42.584,43.808 C43.354,43.808 43.915,44.105 44.41,44.765 Z M42.705,44.556 C42.155,44.556 41.77,44.743 41.473,45.161 C41.209,45.524 41.055,46.008 41.055,46.503 C41.055,47.581 41.759,48.395 42.683,48.395 C43.64,48.395 44.421,47.504 44.421,46.415 C44.421,45.315 43.717,44.556 42.705,44.556 Z M47.765,49 L46.929,49 L46.929,41.663 L47.765,41.663 L47.765,49 Z M50.284,43.929 L50.284,49 L49.448,49 L49.448,43.929 L50.284,43.929 Z M49.877,41.96 C50.174,41.96 50.405,42.202 50.405,42.51 C50.405,42.807 50.163,43.038 49.866,43.038 C49.569,43.038 49.338,42.807 49.338,42.499 C49.338,42.191 49.569,41.96 49.877,41.96 Z M55.718,44.798 L55.718,43.929 L56.554,43.929 L56.554,49.033 C56.554,49.88 56.345,50.452 55.883,50.892 C55.432,51.332 54.783,51.563 54.013,51.563 C53.067,51.563 52.319,51.255 51.769,50.639 L52.341,50.067 C52.572,50.309 52.682,50.408 52.825,50.507 C53.111,50.683 53.584,50.804 54.013,50.804 C54.541,50.804 55.047,50.617 55.333,50.309 C55.586,50.034 55.718,49.627 55.718,49.099 L55.718,48.032 C55.223,48.78 54.64,49.121 53.848,49.121 C52.506,49.121 51.505,47.988 51.505,46.481 C51.505,45.667 51.802,44.886 52.308,44.402 C52.715,44.006 53.265,43.808 53.914,43.808 C54.684,43.808 55.201,44.094 55.718,44.798 Z M54.068,44.578 C53.078,44.578 52.385,45.348 52.385,46.448 C52.385,47.537 53.089,48.351 54.046,48.351 C54.53,48.351 55.003,48.12 55.333,47.735 C55.553,47.482 55.696,46.987 55.696,46.481 C55.696,45.821 55.597,45.469 55.3,45.139 C54.992,44.798 54.519,44.578 54.068,44.578 Z M58.237,43.929 L59.073,43.929 L59.073,44.644 C59.513,44.05 59.953,43.808 60.58,43.808 C61.042,43.808 61.46,43.962 61.757,44.226 C62.076,44.534 62.186,44.886 62.186,45.579 L62.186,49 L61.35,49 L61.35,45.766 C61.35,45.315 61.295,45.073 61.163,44.897 C61.009,44.688 60.712,44.556 60.371,44.556 C59.997,44.556 59.656,44.699 59.403,44.985 C59.161,45.249 59.073,45.491 59.073,45.909 L59.073,49 L58.237,49 L58.237,43.929 Z M9.859,54.929 L9.859,60 L9.023,60 L9.023,54.929 L9.859,54.929 Z M9.452,52.96 C9.749,52.96 9.98,53.202 9.98,53.51 C9.98,53.807 9.738,54.038 9.441,54.038 C9.144,54.038 8.913,53.807 8.913,53.499 C8.913,53.191 9.144,52.96 9.452,52.96 Z M11.542,54.929 L12.378,54.929 L12.378,55.644 C12.818,55.05 13.258,54.808 13.885,54.808 C14.347,54.808 14.765,54.962 15.062,55.226 C15.381,55.534 15.491,55.886 15.491,56.579 L15.491,60 L14.655,60 L14.655,56.766 C14.655,56.315 14.6,56.073 14.468,55.897 C14.314,55.688 14.017,55.556 13.676,55.556 C13.302,55.556 12.961,55.699 12.708,55.985 C12.466,56.249 12.378,56.491 12.378,56.909 L12.378,60 L11.542,60 L11.542,54.929 Z M23.873,58.801 L24.39,59.373 C23.818,59.89 23.257,60.121 22.52,60.121 C21.068,60.121 20.034,59.021 20.034,57.481 C20.034,55.908 21.079,54.808 22.564,54.808 C23.29,54.808 23.884,55.05 24.412,55.567 L23.873,56.106 C23.488,55.754 23.059,55.578 22.586,55.578 C21.585,55.578 20.892,56.348 20.892,57.448 C20.892,58.57 21.585,59.351 22.575,59.351 C23.07,59.351 23.466,59.186 23.873,58.801 Z M27.657,54.808 C29.153,54.808 30.22,55.919 30.22,57.481 C30.22,58.966 29.076,60.121 27.624,60.121 C26.117,60.121 25.061,59.021 25.061,57.459 C25.061,55.886 26.117,54.808 27.657,54.808 Z M27.657,55.578 C26.612,55.578 25.919,56.337 25.919,57.47 C25.919,58.592 26.612,59.351 27.646,59.351 C28.647,59.351 29.362,58.57 29.362,57.47 C29.362,56.337 28.68,55.578 27.657,55.578 Z M31.496,54.929 L32.332,54.929 L32.332,55.644 C32.772,55.05 33.212,54.808 33.839,54.808 C34.301,54.808 34.719,54.962 35.016,55.226 C35.335,55.534 35.445,55.886 35.445,56.579 L35.445,60 L34.609,60 L34.609,56.766 C34.609,56.315 34.554,56.073 34.422,55.897 C34.268,55.688 33.971,55.556 33.63,55.556 C33.256,55.556 32.915,55.699 32.662,55.985 C32.42,56.249 32.332,56.491 32.332,56.909 L32.332,60 L31.496,60 L31.496,54.929 Z M37.986,55.666 L37.986,58.966 C37.997,59.219 38.063,59.274 38.371,59.274 L38.756,59.274 L38.756,60 L37.975,60 C37.381,59.989 37.15,59.769 37.15,59.208 L37.15,55.666 L36.446,55.666 L36.446,54.929 L37.15,54.929 L37.15,53.334 L37.986,53.334 L37.986,54.929 L38.756,54.929 L38.756,55.666 L37.986,55.666 Z M43.772,55.765 L43.772,54.929 L44.608,54.929 L44.608,60 L43.772,60 L43.772,59.021 C43.266,59.78 42.694,60.121 41.924,60.121 C40.527,60.121 39.537,59.021 39.537,57.481 C39.537,55.93 40.549,54.808 41.946,54.808 C42.716,54.808 43.277,55.105 43.772,55.765 Z M42.067,55.556 C41.517,55.556 41.132,55.743 40.835,56.161 C40.571,56.524 40.417,57.008 40.417,57.503 C40.417,58.581 41.121,59.395 42.045,59.395 C43.002,59.395 43.783,58.504 43.783,57.415 C43.783,56.315 43.079,55.556 42.067,55.556 Z M47.127,54.929 L47.127,60 L46.291,60 L46.291,54.929 L47.127,54.929 Z M46.72,52.96 C47.017,52.96 47.248,53.202 47.248,53.51 C47.248,53.807 47.006,54.038 46.709,54.038 C46.412,54.038 46.181,53.807 46.181,53.499 C46.181,53.191 46.412,52.96 46.72,52.96 Z M48.81,54.929 L49.646,54.929 L49.646,55.644 C50.086,55.05 50.526,54.808 51.153,54.808 C51.615,54.808 52.033,54.962 52.33,55.226 C52.649,55.534 52.759,55.886 52.759,56.579 L52.759,60 L51.923,60 L51.923,56.766 C51.923,56.315 51.868,56.073 51.736,55.897 C51.582,55.688 51.285,55.556 50.944,55.556 C50.57,55.556 50.229,55.699 49.976,55.985 C49.734,56.249 49.646,56.491 49.646,56.909 L49.646,60 L48.81,60 L48.81,54.929 Z M59.117,57.734 L54.893,57.734 C54.937,58.163 55.014,58.383 55.223,58.658 C55.553,59.109 56.037,59.351 56.587,59.351 C57.214,59.351 57.808,59.01 58.105,58.482 L58.842,58.757 C58.424,59.604 57.555,60.121 56.587,60.121 C55.08,60.121 54.002,59.021 54.002,57.481 C54.002,55.919 55.069,54.808 56.554,54.808 C58.028,54.808 59.128,55.919 59.128,57.404 C59.128,57.47 59.128,57.613 59.117,57.734 Z M54.904,57.118 L58.237,57.118 C58.204,56.722 58.127,56.502 57.951,56.249 C57.632,55.82 57.115,55.556 56.554,55.556 C55.993,55.556 55.487,55.82 55.19,56.26 C55.036,56.502 54.97,56.711 54.904,57.118 Z M60.338,54.929 L61.174,54.929 L61.174,55.787 C61.328,55.424 61.438,55.27 61.636,55.116 C61.889,54.918 62.241,54.808 62.604,54.808 L62.802,54.808 L62.802,55.655 C62.714,55.644 62.626,55.644 62.571,55.644 C62.12,55.644 61.724,55.853 61.471,56.227 C61.251,56.546 61.174,56.843 61.174,57.426 L61.174,60 L60.338,60 L60.338,54.929 Z"/>
      </g>
      <g fill="#C41261" transform="translate(88 137)">
        <path fill-rule="nonzero" d="M26.5645,14.031 L27.4445,14.031 C27.4885,14.867 27.9395,15.307 28.7425,15.307 C29.5675,15.307 30.1505,14.801 30.1505,14.064 C30.1505,13.426 29.8205,13.129 28.6655,12.744 C27.7965,12.447 27.5105,12.304 27.1805,12.007 C26.8065,11.666 26.6085,11.182 26.6085,10.621 C26.6085,9.378 27.4995,8.531 28.7975,8.531 C30.0955,8.531 30.9425,9.356 30.9755,10.632 L30.0515,10.632 C30.0405,10.258 29.9965,10.082 29.8755,9.873 C29.6665,9.554 29.2595,9.356 28.7865,9.356 C28.0605,9.356 27.5435,9.851 27.5435,10.555 C27.5435,10.907 27.6975,11.215 27.9615,11.402 C28.1925,11.567 28.3905,11.655 29.1385,11.919 C29.9195,12.194 30.2935,12.392 30.5905,12.711 C30.9095,13.052 31.0855,13.514 31.0855,14.009 C31.0855,15.274 30.1505,16.132 28.7755,16.132 C27.8405,16.132 27.2025,15.802 26.8175,15.142 C26.6415,14.845 26.5645,14.537 26.5645,14.185 L26.5645,14.031 Z M33.2635,11.666 L33.2635,14.966 C33.2745,15.219 33.3405,15.274 33.6485,15.274 L34.0335,15.274 L34.0335,16 L33.2525,16 C32.6585,15.989 32.4275,15.769 32.4275,15.208 L32.4275,11.666 L31.7235,11.666 L31.7235,10.929 L32.4275,10.929 L32.4275,9.334 L33.2635,9.334 L33.2635,10.929 L34.0335,10.929 L34.0335,11.666 L33.2635,11.666 Z M35.2215,10.929 L36.0575,10.929 L36.0575,11.787 C36.2115,11.424 36.3215,11.27 36.5195,11.116 C36.7725,10.918 37.1245,10.808 37.4875,10.808 L37.6855,10.808 L37.6855,11.655 C37.5975,11.644 37.5095,11.644 37.4545,11.644 C37.0035,11.644 36.6075,11.853 36.3545,12.227 C36.1345,12.546 36.0575,12.843 36.0575,13.426 L36.0575,16 L35.2215,16 L35.2215,10.929 Z M43.4275,13.734 L39.2035,13.734 C39.2475,14.163 39.3245,14.383 39.5335,14.658 C39.8635,15.109 40.3475,15.351 40.8975,15.351 C41.5245,15.351 42.1185,15.01 42.4155,14.482 L43.1525,14.757 C42.7345,15.604 41.8655,16.121 40.8975,16.121 C39.3905,16.121 38.3125,15.021 38.3125,13.481 C38.3125,11.919 39.3795,10.808 40.8645,10.808 C42.3385,10.808 43.4385,11.919 43.4385,13.404 C43.4385,13.47 43.4385,13.613 43.4275,13.734 Z M39.2145,13.118 L42.5475,13.118 C42.5145,12.722 42.4375,12.502 42.2615,12.249 C41.9425,11.82 41.4255,11.556 40.8645,11.556 C40.3035,11.556 39.7975,11.82 39.5005,12.26 C39.3465,12.502 39.2805,12.711 39.2145,13.118 Z M45.5395,11.666 L45.5395,14.966 C45.5505,15.219 45.6165,15.274 45.9245,15.274 L46.3095,15.274 L46.3095,16 L45.5285,16 C44.9345,15.989 44.7035,15.769 44.7035,15.208 L44.7035,11.666 L43.9995,11.666 L43.9995,10.929 L44.7035,10.929 L44.7035,9.334 L45.5395,9.334 L45.5395,10.929 L46.3095,10.929 L46.3095,11.666 L45.5395,11.666 Z M50.9295,14.801 L51.4465,15.373 C50.8745,15.89 50.3135,16.121 49.5765,16.121 C48.1245,16.121 47.0905,15.021 47.0905,13.481 C47.0905,11.908 48.1355,10.808 49.6205,10.808 C50.3465,10.808 50.9405,11.05 51.4685,11.567 L50.9295,12.106 C50.5445,11.754 50.1155,11.578 49.6425,11.578 C48.6415,11.578 47.9485,12.348 47.9485,13.448 C47.9485,14.57 48.6415,15.351 49.6315,15.351 C50.1265,15.351 50.5225,15.186 50.9295,14.801 Z M53.3605,8.663 L53.3605,11.633 C53.8225,11.061 54.2845,10.808 54.8895,10.808 C55.3295,10.808 55.7915,10.984 56.0665,11.27 C56.3415,11.545 56.4625,11.941 56.4625,12.59 L56.4625,16 L55.6265,16 L55.6265,12.634 C55.6265,11.941 55.2855,11.556 54.6805,11.556 C54.2955,11.556 53.9545,11.71 53.6905,12.007 C53.4375,12.293 53.3605,12.546 53.3605,13.03 L53.3605,16 L52.5245,16 L52.5245,8.663 L53.3605,8.663 Z M62.3035,11.666 L62.3035,14.966 C62.3145,15.219 62.3805,15.274 62.6885,15.274 L63.0735,15.274 L63.0735,16 L62.2925,16 C61.6985,15.989 61.4675,15.769 61.4675,15.208 L61.4675,11.666 L60.7635,11.666 L60.7635,10.929 L61.4675,10.929 L61.4675,9.334 L62.3035,9.334 L62.3035,10.929 L63.0735,10.929 L63.0735,11.666 L62.3035,11.666 Z M66.4505,10.808 C67.9465,10.808 69.0135,11.919 69.0135,13.481 C69.0135,14.966 67.8695,16.121 66.4175,16.121 C64.9105,16.121 63.8545,15.021 63.8545,13.459 C63.8545,11.886 64.9105,10.808 66.4505,10.808 Z M66.4505,11.578 C65.4055,11.578 64.7125,12.337 64.7125,13.47 C64.7125,14.592 65.4055,15.351 66.4395,15.351 C67.4405,15.351 68.1555,14.57 68.1555,13.47 C68.1555,12.337 67.4735,11.578 66.4505,11.578 Z M79.4415,10.929 L80.2995,10.929 L78.4955,16 L77.7365,16 L76.5705,12.15 L75.3495,16 L74.5575,16 L72.8195,10.929 L73.6775,10.929 L74.9755,14.658 L76.1415,10.929 L76.9665,10.929 L78.1105,14.658 L79.4415,10.929 Z M82.0375,10.929 L82.0375,16 L81.2015,16 L81.2015,10.929 L82.0375,10.929 Z M81.6305,8.96 C81.9275,8.96 82.1585,9.202 82.1585,9.51 C82.1585,9.807 81.9165,10.038 81.6195,10.038 C81.3225,10.038 81.0915,9.807 81.0915,9.499 C81.0915,9.191 81.3225,8.96 81.6305,8.96 Z M87.5155,11.699 L87.5155,8.663 L88.3515,8.663 L88.3515,16 L87.5155,16 L87.5155,15.131 C87.0095,15.824 86.4705,16.121 85.7005,16.121 C84.3035,16.121 83.3135,15.032 83.3135,13.492 C83.3135,11.952 84.3255,10.808 85.7005,10.808 C86.4485,10.808 87.0205,11.083 87.5155,11.699 Z M85.8765,11.556 C84.8755,11.556 84.1935,12.348 84.1935,13.503 C84.1935,14.614 84.8645,15.395 85.8215,15.395 C86.8005,15.395 87.5155,14.581 87.5155,13.481 C87.5155,12.337 86.8445,11.556 85.8765,11.556 Z M90.9255,11.666 L90.9255,14.966 C90.9365,15.219 91.0025,15.274 91.3105,15.274 L91.6955,15.274 L91.6955,16 L90.9145,16 C90.3205,15.989 90.0895,15.769 90.0895,15.208 L90.0895,11.666 L89.3855,11.666 L89.3855,10.929 L90.0895,10.929 L90.0895,9.334 L90.9255,9.334 L90.9255,10.929 L91.6955,10.929 L91.6955,11.666 L90.9255,11.666 Z M93.7195,8.663 L93.7195,11.633 C94.1815,11.061 94.6435,10.808 95.2485,10.808 C95.6885,10.808 96.1505,10.984 96.4255,11.27 C96.7005,11.545 96.8215,11.941 96.8215,12.59 L96.8215,16 L95.9855,16 L95.9855,12.634 C95.9855,11.941 95.6445,11.556 95.0395,11.556 C94.6545,11.556 94.3135,11.71 94.0495,12.007 C93.7965,12.293 93.7195,12.546 93.7195,13.03 L93.7195,16 L92.8835,16 L92.8835,8.663 L93.7195,8.663 Z M103.9605,10.808 C105.4565,10.808 106.5235,11.919 106.5235,13.481 C106.5235,14.966 105.3795,16.121 103.9275,16.121 C102.4205,16.121 101.3645,15.021 101.3645,13.459 C101.3645,11.886 102.4205,10.808 103.9605,10.808 Z M103.9605,11.578 C102.9155,11.578 102.2225,12.337 102.2225,13.47 C102.2225,14.592 102.9155,15.351 103.9495,15.351 C104.9505,15.351 105.6655,14.57 105.6655,13.47 C105.6655,12.337 104.9835,11.578 103.9605,11.578 Z M108.7235,11.666 L108.7235,16 L107.8875,16 L107.8875,11.666 L107.1945,11.666 L107.1945,10.929 L107.8875,10.929 L107.8875,10.247 C107.8875,9.246 108.4045,8.652 109.2845,8.652 C109.3285,8.652 109.4275,8.652 109.5155,8.663 L109.5155,9.411 C108.9105,9.477 108.7455,9.653 108.7235,10.247 L108.7235,10.929 L109.5155,10.929 L109.5155,11.666 L108.7235,11.666 Z M117.3805,14.801 L117.8975,15.373 C117.3255,15.89 116.7645,16.121 116.0275,16.121 C114.5755,16.121 113.5415,15.021 113.5415,13.481 C113.5415,11.908 114.5865,10.808 116.0715,10.808 C116.7975,10.808 117.3915,11.05 117.9195,11.567 L117.3805,12.106 C116.9955,11.754 116.5665,11.578 116.0935,11.578 C115.0925,11.578 114.3995,12.348 114.3995,13.448 C114.3995,14.57 115.0925,15.351 116.0825,15.351 C116.5775,15.351 116.9735,15.186 117.3805,14.801 Z M121.1645,10.808 C122.6605,10.808 123.7275,11.919 123.7275,13.481 C123.7275,14.966 122.5835,16.121 121.1315,16.121 C119.6245,16.121 118.5685,15.021 118.5685,13.459 C118.5685,11.886 119.6245,10.808 121.1645,10.808 Z M121.1645,11.578 C120.1195,11.578 119.4265,12.337 119.4265,13.47 C119.4265,14.592 120.1195,15.351 121.1535,15.351 C122.1545,15.351 122.8695,14.57 122.8695,13.47 C122.8695,12.337 122.1875,11.578 121.1645,11.578 Z M125.0035,10.929 L125.8395,10.929 L125.8395,11.644 C126.2795,11.05 126.7195,10.808 127.3465,10.808 C127.8085,10.808 128.2265,10.962 128.5235,11.226 C128.8425,11.534 128.9525,11.886 128.9525,12.579 L128.9525,16 L128.1165,16 L128.1165,12.766 C128.1165,12.315 128.0615,12.073 127.9295,11.897 C127.7755,11.688 127.4785,11.556 127.1375,11.556 C126.7635,11.556 126.4225,11.699 126.1695,11.985 C125.9275,12.249 125.8395,12.491 125.8395,12.909 L125.8395,16 L125.0035,16 L125.0035,10.929 Z M131.4935,11.666 L131.4935,14.966 C131.5045,15.219 131.5705,15.274 131.8785,15.274 L132.2635,15.274 L132.2635,16 L131.4825,16 C130.8885,15.989 130.6575,15.769 130.6575,15.208 L130.6575,11.666 L129.9535,11.666 L129.9535,10.929 L130.6575,10.929 L130.6575,9.334 L131.4935,9.334 L131.4935,10.929 L132.2635,10.929 L132.2635,11.666 L131.4935,11.666 Z M137.2795,11.765 L137.2795,10.929 L138.1155,10.929 L138.1155,16 L137.2795,16 L137.2795,15.021 C136.7735,15.78 136.2015,16.121 135.4315,16.121 C134.0345,16.121 133.0445,15.021 133.0445,13.481 C133.0445,11.93 134.0565,10.808 135.4535,10.808 C136.2235,10.808 136.7845,11.105 137.2795,11.765 Z M135.5745,11.556 C135.0245,11.556 134.6395,11.743 134.3425,12.161 C134.0785,12.524 133.9245,13.008 133.9245,13.503 C133.9245,14.581 134.6285,15.395 135.5525,15.395 C136.5095,15.395 137.2905,14.504 137.2905,13.415 C137.2905,12.315 136.5865,11.556 135.5745,11.556 Z M140.6345,10.929 L140.6345,16 L139.7985,16 L139.7985,10.929 L140.6345,10.929 Z M140.2275,8.96 C140.5245,8.96 140.7555,9.202 140.7555,9.51 C140.7555,9.807 140.5135,10.038 140.2165,10.038 C139.9195,10.038 139.6885,9.807 139.6885,9.499 C139.6885,9.191 139.9195,8.96 140.2275,8.96 Z M142.3175,10.929 L143.1535,10.929 L143.1535,11.644 C143.5935,11.05 144.0335,10.808 144.6605,10.808 C145.1225,10.808 145.5405,10.962 145.8375,11.226 C146.1565,11.534 146.2665,11.886 146.2665,12.579 L146.2665,16 L145.4305,16 L145.4305,12.766 C145.4305,12.315 145.3755,12.073 145.2435,11.897 C145.0895,11.688 144.7925,11.556 144.4515,11.556 C144.0775,11.556 143.7365,11.699 143.4835,11.985 C143.2415,12.249 143.1535,12.491 143.1535,12.909 L143.1535,16 L142.3175,16 L142.3175,10.929 Z M152.6245,13.734 L148.4005,13.734 C148.4445,14.163 148.5215,14.383 148.7305,14.658 C149.0605,15.109 149.5445,15.351 150.0945,15.351 C150.7215,15.351 151.3155,15.01 151.6125,14.482 L152.3495,14.757 C151.9315,15.604 151.0625,16.121 150.0945,16.121 C148.5875,16.121 147.5095,15.021 147.5095,13.481 C147.5095,11.919 148.5765,10.808 150.0615,10.808 C151.5355,10.808 152.6355,11.919 152.6355,13.404 C152.6355,13.47 152.6355,13.613 152.6245,13.734 Z M148.4115,13.118 L151.7445,13.118 C151.7115,12.722 151.6345,12.502 151.4585,12.249 C151.1395,11.82 150.6225,11.556 150.0615,11.556 C149.5005,11.556 148.9945,11.82 148.6975,12.26 C148.5435,12.502 148.4775,12.711 148.4115,13.118 Z M153.8455,10.929 L154.6815,10.929 L154.6815,11.787 C154.8355,11.424 154.9455,11.27 155.1435,11.116 C155.3965,10.918 155.7485,10.808 156.1115,10.808 L156.3095,10.808 L156.3095,11.655 C156.2215,11.644 156.1335,11.644 156.0785,11.644 C155.6275,11.644 155.2315,11.853 154.9785,12.227 C154.7585,12.546 154.6815,12.843 154.6815,13.426 L154.6815,16 L153.8455,16 L153.8455,10.929 Z M158.3665,15.142 L157.2555,17.749 L156.6505,17.562 L157.5745,14.889 L158.3665,15.142 Z M157.8385,11.831 C158.1685,11.831 158.4105,12.073 158.4105,12.414 C158.4105,12.733 158.1575,12.975 157.8385,12.975 C157.5085,12.975 157.2665,12.733 157.2665,12.403 C157.2665,12.073 157.5085,11.831 157.8385,11.831 Z M164.0205,8.663 L164.0205,11.633 C164.4825,11.061 164.9445,10.808 165.5495,10.808 C165.9895,10.808 166.4515,10.984 166.7265,11.27 C167.0015,11.545 167.1225,11.941 167.1225,12.59 L167.1225,16 L166.2865,16 L166.2865,12.634 C166.2865,11.941 165.9455,11.556 165.3405,11.556 C164.9555,11.556 164.6145,11.71 164.3505,12.007 C164.0975,12.293 164.0205,12.546 164.0205,13.03 L164.0205,16 L163.1845,16 L163.1845,8.663 L164.0205,8.663 Z M170.9615,10.808 C172.4575,10.808 173.5245,11.919 173.5245,13.481 C173.5245,14.966 172.3805,16.121 170.9285,16.121 C169.4215,16.121 168.3655,15.021 168.3655,13.459 C168.3655,11.886 169.4215,10.808 170.9615,10.808 Z M170.9615,11.578 C169.9165,11.578 169.2235,12.337 169.2235,13.47 C169.2235,14.592 169.9165,15.351 170.9505,15.351 C171.9515,15.351 172.6665,14.57 172.6665,13.47 C172.6665,12.337 171.9845,11.578 170.9615,11.578 Z M174.8005,10.929 L175.6365,10.929 L175.6365,11.787 C175.7905,11.424 175.9005,11.27 176.0985,11.116 C176.3515,10.918 176.7035,10.808 177.0665,10.808 L177.2645,10.808 L177.2645,11.655 C177.1765,11.644 177.0885,11.644 177.0335,11.644 C176.5825,11.644 176.1865,11.853 175.9335,12.227 C175.7135,12.546 175.6365,12.843 175.6365,13.426 L175.6365,16 L174.8005,16 L174.8005,10.929 Z M179.1345,10.929 L179.1345,16 L178.2985,16 L178.2985,10.929 L179.1345,10.929 Z M178.7275,8.96 C179.0245,8.96 179.2555,9.202 179.2555,9.51 C179.2555,9.807 179.0135,10.038 178.7165,10.038 C178.4195,10.038 178.1885,9.807 178.1885,9.499 C178.1885,9.191 178.4195,8.96 178.7275,8.96 Z M181.6315,15.263 L183.9635,15.263 L183.9635,16 L180.2235,16 L182.8635,11.666 L180.5095,11.666 L180.5095,10.929 L184.2385,10.929 L181.6315,15.263 Z M187.4175,10.808 C188.9135,10.808 189.9805,11.919 189.9805,13.481 C189.9805,14.966 188.8365,16.121 187.3845,16.121 C185.8775,16.121 184.8215,15.021 184.8215,13.459 C184.8215,11.886 185.8775,10.808 187.4175,10.808 Z M187.4175,11.578 C186.3725,11.578 185.6795,12.337 185.6795,13.47 C185.6795,14.592 186.3725,15.351 187.4065,15.351 C188.4075,15.351 189.1225,14.57 189.1225,13.47 C189.1225,12.337 188.4405,11.578 187.4175,11.578 Z M191.2565,10.929 L192.0925,10.929 L192.0925,11.644 C192.5325,11.05 192.9725,10.808 193.5995,10.808 C194.0615,10.808 194.4795,10.962 194.7765,11.226 C195.0955,11.534 195.2055,11.886 195.2055,12.579 L195.2055,16 L194.3695,16 L194.3695,12.766 C194.3695,12.315 194.3145,12.073 194.1825,11.897 C194.0285,11.688 193.7315,11.556 193.3905,11.556 C193.0165,11.556 192.6755,11.699 192.4225,11.985 C192.1805,12.249 192.0925,12.491 192.0925,12.909 L192.0925,16 L191.2565,16 L191.2565,10.929 Z M197.7465,11.666 L197.7465,14.966 C197.7575,15.219 197.8235,15.274 198.1315,15.274 L198.5165,15.274 L198.5165,16 L197.7355,16 C197.1415,15.989 196.9105,15.769 196.9105,15.208 L196.9105,11.666 L196.2065,11.666 L196.2065,10.929 L196.9105,10.929 L196.9105,9.334 L197.7465,9.334 L197.7465,10.929 L198.5165,10.929 L198.5165,11.666 L197.7465,11.666 Z M203.5325,11.765 L203.5325,10.929 L204.3685,10.929 L204.3685,16 L203.5325,16 L203.5325,15.021 C203.0265,15.78 202.4545,16.121 201.6845,16.121 C200.2875,16.121 199.2975,15.021 199.2975,13.481 C199.2975,11.93 200.3095,10.808 201.7065,10.808 C202.4765,10.808 203.0375,11.105 203.5325,11.765 Z M201.8275,11.556 C201.2775,11.556 200.8925,11.743 200.5955,12.161 C200.3315,12.524 200.1775,13.008 200.1775,13.503 C200.1775,14.581 200.8815,15.395 201.8055,15.395 C202.7625,15.395 203.5435,14.504 203.5435,13.415 C203.5435,12.315 202.8395,11.556 201.8275,11.556 Z M206.8875,16 L206.0515,16 L206.0515,8.663 L206.8875,8.663 L206.8875,16 Z M209.4065,16 L208.5705,16 L208.5705,8.663 L209.4065,8.663 L209.4065,16 Z M212.5745,14.691 L214.0925,10.929 L215.0055,10.929 L211.9805,18.442 L211.0675,18.442 L212.1235,15.846 L210.3195,10.929 L211.2105,10.929 L212.5745,14.691 Z M222.6395,14.801 L223.1565,15.373 C222.5845,15.89 222.0235,16.121 221.2865,16.121 C219.8345,16.121 218.8005,15.021 218.8005,13.481 C218.8005,11.908 219.8455,10.808 221.3305,10.808 C222.0565,10.808 222.6505,11.05 223.1785,11.567 L222.6395,12.106 C222.2545,11.754 221.8255,11.578 221.3525,11.578 C220.3515,11.578 219.6585,12.348 219.6585,13.448 C219.6585,14.57 220.3515,15.351 221.3415,15.351 C221.8365,15.351 222.2325,15.186 222.6395,14.801 Z M228.9425,13.734 L224.7185,13.734 C224.7625,14.163 224.8395,14.383 225.0485,14.658 C225.3785,15.109 225.8625,15.351 226.4125,15.351 C227.0395,15.351 227.6335,15.01 227.9305,14.482 L228.6675,14.757 C228.2495,15.604 227.3805,16.121 226.4125,16.121 C224.9055,16.121 223.8275,15.021 223.8275,13.481 C223.8275,11.919 224.8945,10.808 226.3795,10.808 C227.8535,10.808 228.9535,11.919 228.9535,13.404 C228.9535,13.47 228.9535,13.613 228.9425,13.734 Z M224.7295,13.118 L228.0625,13.118 C228.0295,12.722 227.9525,12.502 227.7765,12.249 C227.4575,11.82 226.9405,11.556 226.3795,11.556 C225.8185,11.556 225.3125,11.82 225.0155,12.26 C224.8615,12.502 224.7955,12.711 224.7295,13.118 Z M230.1635,10.929 L230.9995,10.929 L230.9995,11.644 C231.4395,11.05 231.8795,10.808 232.5065,10.808 C232.9685,10.808 233.3865,10.962 233.6835,11.226 C234.0025,11.534 234.1125,11.886 234.1125,12.579 L234.1125,16 L233.2765,16 L233.2765,12.766 C233.2765,12.315 233.2215,12.073 233.0895,11.897 C232.9355,11.688 232.6385,11.556 232.2975,11.556 C231.9235,11.556 231.5825,11.699 231.3295,11.985 C231.0875,12.249 230.9995,12.491 230.9995,12.909 L230.9995,16 L230.1635,16 L230.1635,10.929 Z M236.6535,11.666 L236.6535,14.966 C236.6645,15.219 236.7305,15.274 237.0385,15.274 L237.4235,15.274 L237.4235,16 L236.6425,16 C236.0485,15.989 235.8175,15.769 235.8175,15.208 L235.8175,11.666 L235.1135,11.666 L235.1135,10.929 L235.8175,10.929 L235.8175,9.334 L236.6535,9.334 L236.6535,10.929 L237.4235,10.929 L237.4235,11.666 L236.6535,11.666 Z M243.3195,13.734 L239.0955,13.734 C239.1395,14.163 239.2165,14.383 239.4255,14.658 C239.7555,15.109 240.2395,15.351 240.7895,15.351 C241.4165,15.351 242.0105,15.01 242.3075,14.482 L243.0445,14.757 C242.6265,15.604 241.7575,16.121 240.7895,16.121 C239.2825,16.121 238.2045,15.021 238.2045,13.481 C238.2045,11.919 239.2715,10.808 240.7565,10.808 C242.2305,10.808 243.3305,11.919 243.3305,13.404 C243.3305,13.47 243.3305,13.613 243.3195,13.734 Z M239.1065,13.118 L242.4395,13.118 C242.4065,12.722 242.3295,12.502 242.1535,12.249 C241.8345,11.82 241.3175,11.556 240.7565,11.556 C240.1955,11.556 239.6895,11.82 239.3925,12.26 C239.2385,12.502 239.1725,12.711 239.1065,13.118 Z M244.5405,10.929 L245.3765,10.929 L245.3765,11.787 C245.5305,11.424 245.6405,11.27 245.8385,11.116 C246.0915,10.918 246.4435,10.808 246.8065,10.808 L247.0045,10.808 L247.0045,11.655 C246.9165,11.644 246.8285,11.644 246.7735,11.644 C246.3225,11.644 245.9265,11.853 245.6735,12.227 C245.4535,12.546 245.3765,12.843 245.3765,13.426 L245.3765,16 L244.5405,16 L244.5405,10.929 Z M252.7465,13.734 L248.5225,13.734 C248.5665,14.163 248.6435,14.383 248.8525,14.658 C249.1825,15.109 249.6665,15.351 250.2165,15.351 C250.8435,15.351 251.4375,15.01 251.7345,14.482 L252.4715,14.757 C252.0535,15.604 251.1845,16.121 250.2165,16.121 C248.7095,16.121 247.6315,15.021 247.6315,13.481 C247.6315,11.919 248.6985,10.808 250.1835,10.808 C251.6575,10.808 252.7575,11.919 252.7575,13.404 C252.7575,13.47 252.7575,13.613 252.7465,13.734 Z M248.5335,13.118 L251.8665,13.118 C251.8335,12.722 251.7565,12.502 251.5805,12.249 C251.2615,11.82 250.7445,11.556 250.1835,11.556 C249.6225,11.556 249.1165,11.82 248.8195,12.26 C248.6655,12.502 248.5995,12.711 248.5335,13.118 Z M257.7625,11.699 L257.7625,8.663 L258.5985,8.663 L258.5985,16 L257.7625,16 L257.7625,15.131 C257.2565,15.824 256.7175,16.121 255.9475,16.121 C254.5505,16.121 253.5605,15.032 253.5605,13.492 C253.5605,11.952 254.5725,10.808 255.9475,10.808 C256.6955,10.808 257.2675,11.083 257.7625,11.699 Z M256.1235,11.556 C255.1225,11.556 254.4405,12.348 254.4405,13.503 C254.4405,14.614 255.1115,15.395 256.0685,15.395 C257.0475,15.395 257.7625,14.581 257.7625,13.481 C257.7625,12.337 257.0915,11.556 256.1235,11.556 Z M261.3045,15.142 L260.1935,17.749 L259.5885,17.562 L260.5125,14.889 L261.3045,15.142 Z M260.7765,11.831 C261.1065,11.831 261.3485,12.073 261.3485,12.414 C261.3485,12.733 261.0955,12.975 260.7765,12.975 C260.4465,12.975 260.2045,12.733 260.2045,12.403 C260.2045,12.073 260.4465,11.831 260.7765,11.831 Z M271.9745,10.929 L272.8325,10.929 L271.0285,16 L270.2695,16 L269.1035,12.15 L267.8825,16 L267.0905,16 L265.3525,10.929 L266.2105,10.929 L267.5085,14.658 L268.6745,10.929 L269.4995,10.929 L270.6435,14.658 L271.9745,10.929 Z M274.5705,10.929 L274.5705,16 L273.7345,16 L273.7345,10.929 L274.5705,10.929 Z M274.1635,8.96 C274.4605,8.96 274.6915,9.202 274.6915,9.51 C274.6915,9.807 274.4495,10.038 274.1525,10.038 C273.8555,10.038 273.6245,9.807 273.6245,9.499 C273.6245,9.191 273.8555,8.96 274.1635,8.96 Z M277.1445,11.666 L277.1445,14.966 C277.1555,15.219 277.2215,15.274 277.5295,15.274 L277.9145,15.274 L277.9145,16 L277.1335,16 C276.5395,15.989 276.3085,15.769 276.3085,15.208 L276.3085,11.666 L275.6045,11.666 L275.6045,10.929 L276.3085,10.929 L276.3085,9.334 L277.1445,9.334 L277.1445,10.929 L277.9145,10.929 L277.9145,11.666 L277.1445,11.666 Z M279.9385,8.663 L279.9385,11.633 C280.4005,11.061 280.8625,10.808 281.4675,10.808 C281.9075,10.808 282.3695,10.984 282.6445,11.27 C282.9195,11.545 283.0405,11.941 283.0405,12.59 L283.0405,16 L282.2045,16 L282.2045,12.634 C282.2045,11.941 281.8635,11.556 281.2585,11.556 C280.8735,11.556 280.5325,11.71 280.2685,12.007 C280.0155,12.293 279.9385,12.546 279.9385,13.03 L279.9385,16 L279.1025,16 L279.1025,8.663 L279.9385,8.663 Z M287.9905,10.929 L288.8265,10.929 L288.8265,11.853 C289.3105,11.105 289.8275,10.808 290.6745,10.808 C292.0825,10.808 293.0615,11.886 293.0615,13.426 C293.0615,15.021 292.0825,16.121 290.6745,16.121 C290.2785,16.121 289.9155,16.033 289.5635,15.857 C289.2555,15.703 289.1015,15.571 288.8265,15.208 L288.8265,18.376 L287.9905,18.376 L287.9905,10.929 Z M290.5315,11.556 C289.5195,11.556 288.8265,12.359 288.8265,13.547 C288.8265,14.658 289.4975,15.395 290.4985,15.395 C291.4995,15.395 292.1705,14.614 292.1705,13.459 C292.1705,12.865 292.0275,12.414 291.7305,12.084 C291.4335,11.754 290.9825,11.556 290.5315,11.556 Z M298.1545,11.765 L298.1545,10.929 L298.9905,10.929 L298.9905,16 L298.1545,16 L298.1545,15.021 C297.6485,15.78 297.0765,16.121 296.3065,16.121 C294.9095,16.121 293.9195,15.021 293.9195,13.481 C293.9195,11.93 294.9315,10.808 296.3285,10.808 C297.0985,10.808 297.6595,11.105 298.1545,11.765 Z M296.4495,11.556 C295.8995,11.556 295.5145,11.743 295.2175,12.161 C294.9535,12.524 294.7995,13.008 294.7995,13.503 C294.7995,14.581 295.5035,15.395 296.4275,15.395 C297.3845,15.395 298.1655,14.504 298.1655,13.415 C298.1655,12.315 297.4615,11.556 296.4495,11.556 Z M304.4685,11.699 L304.4685,8.663 L305.3045,8.663 L305.3045,16 L304.4685,16 L304.4685,15.131 C303.9625,15.824 303.4235,16.121 302.6535,16.121 C301.2565,16.121 300.2665,15.032 300.2665,13.492 C300.2665,11.952 301.2785,10.808 302.6535,10.808 C303.4015,10.808 303.9735,11.083 304.4685,11.699 Z M302.8295,11.556 C301.8285,11.556 301.1465,12.348 301.1465,13.503 C301.1465,14.614 301.8175,15.395 302.7745,15.395 C303.7535,15.395 304.4685,14.581 304.4685,13.481 C304.4685,12.337 303.7975,11.556 302.8295,11.556 Z M310.7825,11.699 L310.7825,8.663 L311.6185,8.663 L311.6185,16 L310.7825,16 L310.7825,15.131 C310.2765,15.824 309.7375,16.121 308.9675,16.121 C307.5705,16.121 306.5805,15.032 306.5805,13.492 C306.5805,11.952 307.5925,10.808 308.9675,10.808 C309.7155,10.808 310.2875,11.083 310.7825,11.699 Z M309.1435,11.556 C308.1425,11.556 307.4605,12.348 307.4605,13.503 C307.4605,14.614 308.1315,15.395 309.0885,15.395 C310.0675,15.395 310.7825,14.581 310.7825,13.481 C310.7825,12.337 310.1115,11.556 309.1435,11.556 Z M314.1375,10.929 L314.1375,16 L313.3015,16 L313.3015,10.929 L314.1375,10.929 Z M313.7305,8.96 C314.0275,8.96 314.2585,9.202 314.2585,9.51 C314.2585,9.807 314.0165,10.038 313.7195,10.038 C313.4225,10.038 313.1915,9.807 313.1915,9.499 C313.1915,9.191 313.4225,8.96 313.7305,8.96 Z M315.8205,10.929 L316.6565,10.929 L316.6565,11.644 C317.0965,11.05 317.5365,10.808 318.1635,10.808 C318.6255,10.808 319.0435,10.962 319.3405,11.226 C319.6595,11.534 319.7695,11.886 319.7695,12.579 L319.7695,16 L318.9335,16 L318.9335,12.766 C318.9335,12.315 318.8785,12.073 318.7465,11.897 C318.5925,11.688 318.2955,11.556 317.9545,11.556 C317.5805,11.556 317.2395,11.699 316.9865,11.985 C316.7445,12.249 316.6565,12.491 316.6565,12.909 L316.6565,16 L315.8205,16 L315.8205,10.929 Z M325.1705,11.798 L325.1705,10.929 L326.0065,10.929 L326.0065,16.033 C326.0065,16.88 325.7975,17.452 325.3355,17.892 C324.8845,18.332 324.2355,18.563 323.4655,18.563 C322.5195,18.563 321.7715,18.255 321.2215,17.639 L321.7935,17.067 C322.0245,17.309 322.1345,17.408 322.2775,17.507 C322.5635,17.683 323.0365,17.804 323.4655,17.804 C323.9935,17.804 324.4995,17.617 324.7855,17.309 C325.0385,17.034 325.1705,16.627 325.1705,16.099 L325.1705,15.032 C324.6755,15.78 324.0925,16.121 323.3005,16.121 C321.9585,16.121 320.9575,14.988 320.9575,13.481 C320.9575,12.667 321.2545,11.886 321.7605,11.402 C322.1675,11.006 322.7175,10.808 323.3665,10.808 C324.1365,10.808 324.6535,11.094 325.1705,11.798 Z M323.5205,11.578 C322.5305,11.578 321.8375,12.348 321.8375,13.448 C321.8375,14.537 322.5415,15.351 323.4985,15.351 C323.9825,15.351 324.4555,15.12 324.7855,14.735 C325.0055,14.482 325.1485,13.987 325.1485,13.481 C325.1485,12.821 325.0495,12.469 324.7525,12.139 C324.4445,11.798 323.9715,11.578 323.5205,11.578 Z"/>
        <rect width="350" height="1" x="5" y="2"/>
        <polygon points="357.5 0 360 5 355 5" transform="rotate(90 357.5 2.5)"/>
        <polygon points="2.5 0 5 5 0 5" transform="matrix(0 1 1 0 0 0)"/>
      </g>
    </g>
  </g>
</svg>
