<svg xmlns="http://www.w3.org/2000/svg" xmlns:xlink="http://www.w3.org/1999/xlink" width="380" height="180" viewBox="0 0 380 180">
  <defs>
    <filter id="1-a" width="103.6%" height="111.6%" x="-1.8%" y="-5.8%" filterUnits="objectBoundingBox">
      <feOffset dy="1" in="SourceAlpha" result="shadowOffsetOuter1"/>
      <feGaussianBlur in="shadowOffsetOuter1" result="shadowBlurOuter1" stdDeviation="1"/>
      <feColorMatrix in="shadowBlurOuter1" result="shadowMatrixOuter1" values="0 0 0 0 0.686463648   0 0 0 0 0.686463648   0 0 0 0 0.686463648  0 0 0 0.5 0"/>
      <feMerge>
        <feMergeNode in="shadowMatrixOuter1"/>
        <feMergeNode in="SourceGraphic"/>
      </feMerge>
    </filter>
    <path id="1-b" d="M11.98,6.39466667 C14.741,6.39466667 16.98,8.44708333 16.98,10.978 C16.98,13.5089167 14.741,15.5613333 11.98,15.5613333 C9.219,15.5613333 6.98,13.5089167 6.98,10.978 C6.98,8.44708333 9.219,6.39466667 11.98,6.39466667 Z M11.98,8.228 C10.326,8.228 8.98,9.46183333 8.98,10.978 C8.98,12.4941667 10.326,13.728 11.98,13.728 C13.634,13.728 14.98,12.4941667 14.98,10.978 C14.98,9.46183333 13.634,8.228 11.98,8.228 Z M6.7934,15.544375 L7.3314,15.9660417 C7.9974,16.4885417 8.7584,16.8900417 9.5924,17.161375 L10.2594,17.3777083 L10.2594,18.816875 C10.2594,19.031375 10.4494,19.2064583 10.6824,19.2064583 L13.2774,19.2064583 C13.5104,19.2064583 13.7004,19.0322917 13.7004,18.8177917 L13.7004,17.3777083 L14.3674,17.161375 C15.2014,16.8900417 15.9624,16.4885417 16.6284,15.9660417 L17.1664,15.544375 L18.5264,16.2639583 C18.7284,16.3730417 18.9874,16.3079583 19.1044,16.121875 L20.4014,14.062125 C20.4784,13.9402083 20.4614,13.825625 20.4444,13.767875 C20.4274,13.7092083 20.3794,13.6019583 20.2474,13.5322917 L18.8894,12.813625 L19.0174,12.1774583 C19.1014,11.757625 19.1424,11.3652917 19.1424,10.9784583 C19.1424,10.5907083 19.1014,10.198375 19.0174,9.77854167 L18.8894,9.14329167 L20.2474,8.42370833 C20.3794,8.35404167 20.4274,8.24679167 20.4444,8.18904167 C20.4614,8.13129167 20.4784,8.01579167 20.4014,7.893875 L19.1044,5.834125 C18.9874,5.64895833 18.7284,5.58479167 18.5264,5.69204167 L17.1664,6.411625 L16.6284,5.98995833 C15.9624,5.46745833 15.2014,5.06595833 14.3674,4.794625 L13.7004,4.57920833 L13.7004,3.139125 C13.7004,2.924625 13.5104,2.74954167 13.2774,2.74954167 L10.6824,2.74954167 C10.4494,2.74954167 10.2594,2.92370833 10.2594,3.13820833 L10.2594,4.57920833 L9.5924,4.794625 C8.7584,5.06595833 7.9974,5.46745833 7.3314,5.98995833 L6.7934,6.411625 L5.4334,5.69204167 C5.2314,5.58479167 4.9724,5.64895833 4.8554,5.834125 L3.5584,7.893875 C3.4814,8.01579167 3.4984,8.13129167 3.5154,8.18904167 C3.5324,8.24679167 3.5804,8.35404167 3.7124,8.42370833 L5.0704,9.14329167 L4.9424,9.77854167 C4.8584,10.198375 4.8174,10.5907083 4.8174,10.9784583 C4.8174,11.3652917 4.8584,11.757625 4.9424,12.1774583 L5.0704,12.813625 L3.7124,13.5322917 C3.5804,13.6019583 3.5324,13.7092083 3.5154,13.767875 C3.4984,13.825625 3.4814,13.9402083 3.5584,14.062125 L4.8554,16.121875 C4.9724,16.3079583 5.2314,16.3730417 5.4334,16.2639583 L6.7934,15.544375 Z M13.2774,21.0397917 L10.6824,21.0397917 C9.3464,21.0397917 8.2594,20.0424583 8.2594,18.816875 L8.2594,18.646375 C7.6694,18.407125 7.1134,18.112875 6.5944,17.766375 L6.4334,17.8525417 C5.2764,18.4639583 3.7924,18.099125 3.1234,17.0385417 L1.8254,14.9787917 C1.5024,14.4645417 1.4164,13.8659583 1.5834,13.2930417 C1.7514,12.7192083 2.1524,12.2407083 2.7124,11.9437083 L2.8714,11.8602917 C2.8354,11.562375 2.8174,11.2699583 2.8174,10.9784583 C2.8174,10.6860417 2.8354,10.393625 2.8714,10.0957083 L2.7124,10.0122917 C2.1524,9.71529167 1.7514,9.23679167 1.5834,8.66295833 C1.4164,8.09004167 1.5024,7.49145833 1.8254,6.97720833 L3.1234,4.91745833 C3.7914,3.856875 5.2754,3.49204167 6.4334,4.104375 L6.5944,4.189625 C7.1134,3.843125 7.6694,3.548875 8.2594,3.309625 L8.2594,3.13820833 C8.2594,1.912625 9.3464,0.916208333 10.6824,0.916208333 L13.2774,0.916208333 C14.6134,0.916208333 15.7004,1.91354167 15.7004,3.139125 L15.7004,3.309625 C16.2904,3.548875 16.8464,3.843125 17.3654,4.189625 L17.5264,4.104375 C18.6834,3.49295833 20.1684,3.856875 20.8364,4.91745833 L22.1344,6.97720833 C22.4574,7.49145833 22.5434,8.09004167 22.3764,8.66295833 C22.2094,9.23679167 21.8074,9.71529167 21.2474,10.0122917 L21.0884,10.0957083 C21.1244,10.393625 21.1424,10.6860417 21.1424,10.9784583 C21.1424,11.2699583 21.1244,11.562375 21.0884,11.8602917 L21.2474,11.9437083 C21.8074,12.2407083 22.2094,12.7192083 22.3764,13.2930417 C22.5434,13.8659583 22.4574,14.4645417 22.1344,14.9787917 L20.8364,17.0385417 C20.1684,18.099125 18.6844,18.4639583 17.5264,17.8525417 L17.3654,17.766375 C16.8464,18.112875 16.2904,18.407125 15.7004,18.646375 L15.7004,18.8177917 C15.7004,20.043375 14.6134,21.0397917 13.2774,21.0397917 Z"/>
    <path id="1-c" d="M15.3614839,3.36045748 C18.483676,4.46579105 20.6064378,7.31166266 20.6064378,10.5103167 L20.6064378,14.8214 L21.2224378,15.87465 C21.5464378,16.4264833 21.5294378,17.0764 21.1784378,17.61265 C20.8294378,18.1498167 20.2124378,18.47065 19.5294378,18.47065 L15.1085378,18.47065 C15.1085378,19.987275 13.7615378,21.222025 12.1065378,21.222025 C10.4515378,21.222025 9.10453783,19.987275 9.10453783,18.4711083 L4.42443783,18.47065 C3.69443783,18.47065 3.03743783,18.1003167 2.70843783,17.5035667 C2.37943783,16.9077333 2.44343783,16.2028167 2.87543783,15.6638167 L3.60643783,14.7517333 L3.60643783,10.5103167 C3.60643783,7.31166256 5.72919981,4.46579086 8.8513921,3.36045736 C9.03035736,1.85963482 10.4219766,0.6875 12.1069378,0.6875 C13.7909661,0.6875 15.1825229,1.85963488 15.3614839,3.36045748 Z M13.3809378,4.00871693 L13.3809378,3.68866667 C13.3809378,3.04516667 12.8099378,2.52083333 12.1069378,2.52083333 C11.4029378,2.52083333 10.8319378,3.04516667 10.8319378,3.68866667 L10.8319378,3.99025511 C10.8499747,4.40451033 10.5567157,4.79185017 10.1024378,4.90948333 C7.45543783,5.58965 5.60643783,7.89323333 5.60643783,10.5103167 L5.60643783,15.35215 L4.57743783,16.6373167 L19.3994378,16.6373167 L18.6064378,15.2824833 L18.6064378,10.5103167 C18.6064378,7.89323333 16.7584378,5.58965 14.1104378,4.90948333 C13.6629152,4.79359942 13.3716583,4.41597052 13.3809378,4.00871693 Z M11.1045378,18.4711083 C11.1045378,18.9771083 11.5535378,19.3886917 12.1065378,19.3886917 C12.6595378,19.3886917 13.1085378,18.9771083 13.1085378,18.4711083 L11.1045378,18.47065 Z"/>
    <path id="1-d" d="M2.50026926,10.0894077 L2.13216926,10.36475 C1.70316926,10.6874167 1.07316926,10.626 0.726169261,10.2345833 C0.376169261,9.84225 0.439169261,9.26475 0.868169261,8.94575 L10.0021693,2.112 C11.1151693,1.12933333 12.8851693,1.12933333 13.9981693,2.112 L23.1321693,8.94575 C23.5611693,9.26475 23.6241693,9.84225 23.2741693,10.2345833 C23.0771693,10.4564167 22.7891693,10.5719167 22.4991693,10.5719167 C22.2771693,10.5719167 22.0541693,10.505 21.8681693,10.36475 L21.5002693,10.0893457 L21.5002693,18.359 C21.5002693,19.6249167 20.3762693,20.65525 18.9952693,20.65525 L16.0052693,20.65525 C14.6242693,20.65525 13.5002693,19.6249167 13.5002693,18.359 L13.5002693,15.61725 C13.5002693,15.3624167 13.2742693,15.15525 12.9972693,15.15525 L11.0032693,15.15525 C10.7252693,15.15525 10.5002693,15.3624167 10.5002693,15.61725 L10.5002693,18.359 C10.5002693,19.6249167 9.37626926,20.65525 7.99526926,20.65525 L5.00526926,20.65525 C3.62426926,20.65525 2.50026926,19.6249167 2.50026926,18.359 L2.50026926,10.0894077 Z M4.50026926,8.59338847 L4.50026926,18.359 C4.50026926,18.6138333 4.72626926,18.8219167 5.00526926,18.8219167 L7.99526926,18.8219167 C8.27326926,18.8219167 8.50026926,18.6138333 8.50026926,18.359 L8.50026926,15.61725 C8.50026926,14.3513333 9.62326926,13.3219167 11.0032693,13.3219167 L12.9972693,13.3219167 C14.3772693,13.3219167 15.5002693,14.3513333 15.5002693,15.61725 L15.5002693,18.359 C15.5002693,18.6138333 15.7262693,18.8219167 16.0052693,18.8219167 L18.9952693,18.8219167 C19.2732693,18.8219167 19.5002693,18.6138333 19.5002693,18.359 L19.5002693,8.59217637 L12.6241693,3.44483333 C12.2801693,3.1295 11.7201693,3.1295 11.3761693,3.44483333 L11.3011693,3.50625 L4.50026926,8.59338847 Z"/>
  </defs>
  <g fill="none" fill-rule="evenodd">
    <rect width="380" height="180" fill="#FFF" fill-opacity=".01" fill-rule="nonzero"/>
    <g filter="url(#1-a)" transform="translate(10 34)">
      <rect width="360" height="111.333" fill="#FFF" fill-rule="nonzero"/>
      <g transform="translate(0 59.378)">
        <rect width="360" height="51.956" fill="#F3F6FA"/>
        <g transform="translate(288 14.844)">
          <path d="M13.2774,21.0397917 L10.6824,21.0397917 C9.3464,21.0397917 8.2594,20.0424583 8.2594,18.816875 L8.2594,18.646375 C7.6694,18.407125 7.1134,18.112875 6.5944,17.766375 L6.4334,17.8525417 C5.2764,18.4639583 3.7924,18.099125 3.1234,17.0385417 L1.8254,14.9787917 C1.5024,14.4645417 1.4164,13.8659583 1.5834,13.2930417 C1.7514,12.7192083 2.1524,12.2407083 2.7124,11.9437083 L2.8714,11.8602917 C2.8354,11.562375 2.8174,11.2699583 2.8174,10.9784583 C2.8174,10.6860417 2.8354,10.393625 2.8714,10.0957083 L2.7124,10.0122917 C2.1524,9.71529167 1.7514,9.23679167 1.5834,8.66295833 C1.4164,8.09004167 1.5024,7.49145833 1.8254,6.97720833 L3.1234,4.91745833 C3.7914,3.856875 5.2754,3.49204167 6.4334,4.104375 L6.5944,4.189625 C7.1134,3.843125 7.6694,3.548875 8.2594,3.309625 L8.2594,3.13820833 C8.2594,1.912625 9.3464,0.916208333 10.6824,0.916208333 L13.2774,0.916208333 C14.6134,0.916208333 15.7004,1.91354167 15.7004,3.139125 L15.7004,3.309625 C16.2904,3.548875 16.8464,3.843125 17.3654,4.189625 L17.5264,4.104375 C18.6834,3.49295833 20.1684,3.856875 20.8364,4.91745833 L22.1344,6.97720833 C22.4574,7.49145833 22.5434,8.09004167 22.3764,8.66295833 C22.2094,9.23679167 21.8074,9.71529167 21.2474,10.0122917 L21.0884,10.0957083 C21.1244,10.393625 21.1424,10.6860417 21.1424,10.9784583 C21.1424,11.2699583 21.1244,11.562375 21.0884,11.8602917 L21.2474,11.9437083 C21.8074,12.2407083 22.2094,12.7192083 22.3764,13.2930417 C22.5434,13.8659583 22.4574,14.4645417 22.1344,14.9787917 L20.8364,17.0385417 C20.1684,18.099125 18.6844,18.4639583 17.5264,17.8525417 L17.3654,17.766375 C16.8464,18.112875 16.2904,18.407125 15.7004,18.646375 L15.7004,18.8177917 C15.7004,20.043375 14.6134,21.0397917 13.2774,21.0397917 Z M11.98,6.39466667 C9.219,6.39466667 6.98,8.44708333 6.98,10.978 C6.98,13.5089167 9.219,15.5613333 11.98,15.5613333 C14.741,15.5613333 16.98,13.5089167 16.98,10.978 C16.98,8.44708333 14.741,6.39466667 11.98,6.39466667 Z M11.98,8.228 C13.634,8.228 14.98,9.46183333 14.98,10.978 C14.98,12.4941667 13.634,13.728 11.98,13.728 C10.326,13.728 8.98,12.4941667 8.98,10.978 C8.98,9.46183333 10.326,8.228 11.98,8.228 Z"/>
          <use fill="#1A23A0" xlink:href="#1-b"/>
        </g>
        <g transform="translate(208 14.844)">
          <path d="M15.0936379,18.4708333 C14.965877,19.8801376 13.6726388,20.9922167 12.102,20.9922167 C10.5313612,20.9922167 9.23812303,19.8801376 9.11036213,18.4708333 L4.42443783,18.4708333 C3.69443783,18.4708333 3.03743783,18.0995833 2.70843783,17.50375 C2.37943783,16.907 2.44343783,16.2020833 2.87543783,15.664 L3.60643783,14.751 L3.60643783,10.5105 C3.60643783,7.30583333 5.73843783,4.45683333 8.86843783,3.35591667 C9.05243783,1.859 10.4254378,0.6875 12.1064378,0.6875 C13.7874378,0.6875 15.1604378,1.859 15.3444378,3.35591667 C18.4754378,4.45683333 20.6064378,7.30583333 20.6064378,10.5105 L20.6064378,14.8215833 L21.2224378,15.8748333 C21.5454378,16.42575 21.5294378,17.0756667 21.1784378,17.6128333 C20.8284378,18.15 20.2124378,18.4708333 19.5294378,18.4708333 L15.0936379,18.4708333 Z"/>
          <use fill="#1A23A0" xlink:href="#1-c"/>
        </g>
        <g transform="translate(128 14.844)">
          <path d="M11.7679773,21.0811272 C11.8451243,21.082598 11.9224685,21.0833333 12,21.0833333 C12.1791543,21.0833333 12.3573085,21.0794071 12.5343657,21.0716433 L12.5343408,21.0715526 C12.357327,21.0793755 12.1791828,21.0833333 12,21.0833333 C11.919968,21.0833333 11.8401431,21.0825438 11.7605337,21.0809729 C5.79610997,20.964218 1,16.4953982 1,11 C1,5.43125 5.925,0.916666667 12,0.916666667 C18.075,0.916666667 23,5.43125 23,11 C23,16.56875 18.075,21.0833333 12,21.0833333 C11.9224691,21.0833333 11.8451254,21.082598 11.767977,21.0811346 Z M18.8133997,16.3845804 C17.6291168,14.018487 15.0255789,12.375 12,12.375 C8.97442111,12.375 6.3708832,14.018487 5.18660033,16.3845804 C6.83836535,18.1383525 9.28039884,19.25 12,19.25 C14.7196012,19.25 17.1616346,18.1383525 18.8133997,16.3845804 Z M12,11 C14.206,11 16,9.3555 16,7.33333333 C16,5.31116667 14.206,3.66666667 12,3.66666667 C9.794,3.66666667 8,5.31116667 8,7.33333333 C8,9.3555 9.794,11 12,11 Z M12,5.5 C13.103,5.5 14,6.32225 14,7.33333333 C14,8.34441667 13.103,9.16666667 12,9.16666667 C10.897,9.16666667 10,8.34441667 10,7.33333333 C10,6.32225 10.897,5.5 12,5.5 Z M12,14.2083333 C14.42,14.2083333 16.514,15.6566667 17.23,17.70175 C15.707,18.7055 13.886,19.25 12,19.25 C10.114,19.25 8.293,18.7055 6.77,17.70175 C7.486,15.6566667 9.58,14.2083333 12,14.2083333 Z"/>
          <path fill="#1A23A0" d="M18.8133997,16.3845804 C20.1753332,14.9385387 21,13.0559465 21,11 C21,6.45058333 16.962,2.75 12,2.75 C7.038,2.75 3,6.45058333 3,11 C3,13.0559465 3.82466681,14.9385387 5.18660033,16.3845804 C6.3708832,14.018487 8.97442111,12.375 12,12.375 C15.0255789,12.375 17.6291168,14.018487 18.8133997,16.3845804 Z M12,0.916666667 C18.075,0.916666667 23,5.43125 23,11 C23,16.56875 18.075,21.0833333 12,21.0833333 C5.925,21.0833333 1,16.56875 1,11 C1,5.43125 5.925,0.916666667 12,0.916666667 Z M12,14.2083333 C9.58,14.2083333 7.486,15.6566667 6.77,17.70175 C8.293,18.7055 10.114,19.25 12,19.25 C13.886,19.25 15.707,18.7055 17.23,17.70175 C16.514,15.6566667 14.42,14.2083333 12,14.2083333 Z M12,5.5 C10.897,5.5 10,6.32225 10,7.33333333 C10,8.34441667 10.897,9.16666667 12,9.16666667 C13.103,9.16666667 14,8.34441667 14,7.33333333 C14,6.32225 13.103,5.5 12,5.5 Z M12,11 C9.794,11 8,9.3555 8,7.33333333 C8,5.31116667 9.794,3.66666667 12,3.66666667 C14.206,3.66666667 16,5.31116667 16,7.33333333 C16,9.3555 14.206,11 12,11 Z"/>
        </g>
        <g transform="translate(48 14.844)">
          <path d="M23.1318492,8.94483333 L13.9978492,2.112 C12.8848492,1.12933333 11.1148492,1.12933333 10.0018492,2.112 L0.867849181,8.94483333 C0.439849181,9.26475 0.375849181,9.84225 0.725849181,10.2336667 C1.07284918,10.6250833 1.70284918,10.6865 2.13184918,10.36475 L2.49984918,10.0888333 L2.49984918,18.359 C2.49984918,19.624 3.62384918,20.6543333 5.00484918,20.6543333 L7.99484918,20.6543333 C9.37584918,20.6543333 10.4998492,19.624 10.4998492,18.359 L10.4998492,15.6163333 C10.4998492,15.3615 10.7258492,15.1543333 11.0028492,15.1543333 L12.9968492,15.1543333 C13.2748492,15.1543333 13.4998492,15.3615 13.4998492,15.6163333 L13.4998492,18.359 C13.4998492,19.624 14.6238492,20.6543333 16.0048492,20.6543333 L18.9948492,20.6543333 C20.3758492,20.6543333 21.4998492,19.624 21.4998492,18.359 L21.4998492,10.0888333 L21.8678492,10.36475 C22.0538492,10.5040833 22.2778492,10.571 22.4988492,10.571 C22.7888492,10.571 23.0768492,10.4555 23.2748492,10.2336667 C23.6238492,9.84225 23.5608492,9.26475 23.1318492,8.94483333"/>
          <use fill="#1A23A0" xlink:href="#1-d"/>
        </g>
      </g>
      <g transform="translate(8 7.422)">
        <rect width="344.003" height="48" fill="#25333D" rx="4"/>
        <rect width="73" height="48" x="263"/>
        <path fill="#89CBDF" d="M295.414062,19.046875 L295.414062,25.6982422 C295.414062,26.7555391 295.075687,27.5929331 294.398926,28.2104492 C293.722165,28.8279653 292.820969,29.1367188 291.695312,29.1367188 C290.555984,29.1367188 289.651371,28.8325226 288.981445,28.2241211 C288.31152,27.6157196 287.976562,26.7714898 287.976562,25.6914062 L287.976562,19.046875 L289.699219,19.046875 L289.699219,25.7050781 C289.699219,26.370446 289.867837,26.878579 290.205078,27.2294922 C290.542319,27.5804054 291.039059,27.7558594 291.695312,27.7558594 C293.026048,27.7558594 293.691406,27.0540435 293.691406,25.6503906 L293.691406,19.046875 L295.414062,19.046875 Z M305.905273,29 L304.175781,29 L299.739258,21.9384766 L299.739258,29 L298.009766,29 L298.009766,19.046875 L299.739258,19.046875 L304.189453,26.1357422 L304.189453,19.046875 L305.905273,19.046875 L305.905273,29 Z M308.699219,29 L308.699219,19.046875 L311.638672,19.046875 C312.518234,19.046875 313.298662,19.2428366 313.97998,19.6347656 C314.661299,20.0266947 315.1888,20.5826787 315.5625,21.3027344 C315.9362,22.0227901 316.123047,22.8476516 316.123047,23.7773438 L316.123047,24.2763672 C316.123047,25.2197313 315.93506,26.0491501 315.559082,26.7646484 C315.183104,27.4801468 314.647627,28.0315736 313.952637,28.4189453 C313.257646,28.806317 312.461268,29 311.563477,29 L308.699219,29 Z M310.428711,20.4414062 L310.428711,27.6191406 L311.556641,27.6191406 C312.463546,27.6191406 313.159666,27.3354521 313.64502,26.7680664 C314.130374,26.2006808 314.377604,25.386073 314.386719,24.3242188 L314.386719,23.7705078 C314.386719,22.6904243 314.152021,21.8655627 313.682617,21.2958984 C313.213214,20.7262341 312.531906,20.4414062 311.638672,20.4414062 L310.428711,20.4414062 Z M326.539062,24.2832031 C326.539062,25.2584684 326.370444,26.1140914 326.033203,26.8500977 C325.695962,27.5861039 325.214033,28.1512025 324.587402,28.5454102 C323.960772,28.9396179 323.239587,29.1367188 322.423828,29.1367188 C321.617183,29.1367188 320.898278,28.9396179 320.26709,28.5454102 C319.635902,28.1512025 319.148276,27.5895219 318.804199,26.8603516 C318.460122,26.1311812 318.285807,25.2903693 318.28125,24.3378906 L318.28125,23.7773438 C318.28125,22.8066358 318.453286,21.9498735 318.797363,21.2070312 C319.141441,20.464189 319.626787,19.8956725 320.253418,19.5014648 C320.880049,19.1072571 321.598954,18.9101562 322.410156,18.9101562 C323.221358,18.9101562 323.940264,19.1049785 324.566895,19.4946289 C325.193525,19.8842793 325.677733,20.4448206 326.019531,21.1762695 C326.36133,21.9077185 326.534505,22.7587842 326.539062,23.7294922 L326.539062,24.2832031 Z M324.80957,23.7636719 C324.80957,22.6608018 324.601076,21.8154326 324.184082,21.2275391 C323.767088,20.6396455 323.175785,20.3457031 322.410156,20.3457031 C321.662757,20.3457031 321.07829,20.6385062 320.656738,21.2241211 C320.235187,21.809736 320.019857,22.6380155 320.010742,23.7089844 L320.010742,24.2832031 C320.010742,25.3769586 320.223793,26.2223277 320.649902,26.8193359 C321.076011,27.4163441 321.667314,27.7148438 322.423828,27.7148438 C323.189457,27.7148438 323.778481,27.42318 324.190918,26.8398438 C324.603355,26.2565075 324.80957,25.4043025 324.80957,24.2832031 L324.80957,23.7636719 Z"/>
        <path fill="#F3F6FA" d="M20.1143783,24.1338919 L22.6648902,19.2275125 L24.1280786,19.2275125 L20.7587182,25.3554528 L20.7587182,29 L19.4700385,29 L19.4700385,25.3554528 L16.1006781,19.2275125 L17.5772902,19.2275125 L20.1143783,24.1338919 Z M24.6801129,25.3017578 C24.6801129,24.5902957 24.8199422,23.9504368 25.0996049,23.382162 C25.3792677,22.8138873 25.7685525,22.3753826 26.2674709,22.0666349 C26.7663893,21.7578872 27.3357742,21.6035156 27.9756427,21.6035156 C28.9645303,21.6035156 29.7643538,21.9458177 30.3751374,22.6304322 C30.9859209,23.3150467 31.2913081,24.2256151 31.2913081,25.3621647 L31.2913081,25.449419 C31.2913081,26.1564065 31.1559533,26.7906722 30.8852397,27.3522351 C30.6145262,27.913798 30.2274787,28.351184 29.7240856,28.6644063 C29.2206926,28.9776287 28.6423587,29.1342375 27.9890664,29.1342375 C27.0046534,29.1342375 26.2070671,28.7919354 25.5962836,28.1073209 C24.9855,27.4227064 24.6801129,26.5166125 24.6801129,25.3890122 L24.6801129,25.3017578 Z M25.9285213,25.449419 C25.9285213,26.2548478 26.1153332,26.9014185 26.4889627,27.3891504 C26.8625922,27.8768823 27.3626218,28.1207446 27.9890664,28.1207446 C28.6199856,28.1207446 29.1211338,27.8735264 29.492526,27.3790826 C29.8639182,26.8846388 30.0496115,26.1922041 30.0496115,25.3017578 C30.0496115,24.5052782 29.8605623,23.8598262 29.4824582,23.3653824 C29.1043541,22.8709386 28.6020873,22.6237204 27.9756427,22.6237204 C27.3626218,22.6237204 26.8681854,22.8675827 26.4923187,23.3553146 C26.1164519,23.8430465 25.9285213,24.5410743 25.9285213,25.449419 Z M37.581994,28.2818296 C37.0987367,28.8501043 36.3895226,29.1342375 35.4543302,29.1342375 C34.6802236,29.1342375 34.0907033,28.909392 33.6857516,28.4596942 C33.2807999,28.0099964 33.0760898,27.344409 33.0716152,26.4629119 L33.0716152,21.7377531 L34.3133117,21.7377531 L34.3133117,26.4293525 C34.3133117,27.5301053 34.7607655,28.0804734 35.6556864,28.0804734 C36.6043026,28.0804734 37.2352123,27.7269849 37.5484347,27.0199974 L37.5484347,21.7377531 L38.7901312,21.7377531 L38.7901312,29 L37.6088415,29 L37.581994,28.2818296 Z M44.4364774,22.8519241 C44.248544,22.8206018 44.0449525,22.8049409 43.8256969,22.8049409 C43.0113189,22.8049409 42.4587135,23.1517176 42.1678642,23.8452813 L42.1678642,29 L40.9261676,29 L40.9261676,21.7377531 L42.1343048,21.7377531 L42.1544404,22.5767373 C42.5616295,21.9279196 43.1388448,21.6035156 43.8861037,21.6035156 C44.1277324,21.6035156 44.3111884,21.6348374 44.4364774,21.6974819 L44.4364774,22.8519241 Z M50.091196,29 L50.091196,22.697551 L48.9434657,22.697551 L48.9434657,21.7377531 L50.091196,21.7377531 L50.091196,20.9927352 C50.091196,20.214154 50.299262,19.6123287 50.7154003,19.1872412 C51.1315385,18.7621538 51.7199402,18.5496133 52.4806229,18.5496133 C52.7669976,18.5496133 53.0511308,18.5876468 53.3330309,18.6637151 L53.2659121,19.6704961 C53.0556057,19.6302247 52.8318788,19.6100893 52.5947248,19.6100893 C52.1920104,19.6100893 51.88103,19.7275459 51.6617744,19.9624626 C51.4425188,20.1973793 51.3328926,20.5340883 51.3328926,20.9725995 L51.3328926,21.7377531 L52.8833353,21.7377531 L52.8833353,22.697551 L51.3328926,22.697551 L51.3328926,29 L50.091196,29 Z M55.851644,29 L54.6099475,29 L54.6099475,21.7377531 L55.851644,21.7377531 L55.851644,29 Z M54.5092694,19.8114455 C54.5092694,19.6100882 54.5707943,19.4400558 54.6938459,19.3013431 C54.8168975,19.1626303 54.9992349,19.093275 55.2408636,19.093275 C55.4824922,19.093275 55.6659482,19.1626303 55.7912372,19.3013431 C55.9165261,19.4400558 55.9791696,19.6100882 55.9791696,19.8114455 C55.9791696,20.0128027 55.9165261,20.1805978 55.7912372,20.314836 C55.6659482,20.4490741 55.4824922,20.5161922 55.2408636,20.5161922 C54.9992349,20.5161922 54.8168975,20.4490741 54.6938459,20.314836 C54.5707943,20.1805978 54.5092694,20.0128027 54.5092694,19.8114455 Z M59.4374451,29 L58.1957485,29 L58.1957485,18.6905626 L59.4374451,18.6905626 L59.4374451,29 Z M64.6877907,29.1342375 C63.7033777,29.1342375 62.9024355,28.8109521 62.28494,28.1643718 C61.6674446,27.5177914 61.3587015,26.6530871 61.3587015,25.5702327 L61.3587015,25.3420291 C61.3587015,24.6216177 61.4962935,23.978403 61.7714817,23.4123655 C62.0466699,22.846328 62.4314801,22.4033488 62.9259239,22.0834146 C63.4203677,21.7634803 63.9561936,21.6035156 64.5334176,21.6035156 C65.4775591,21.6035156 66.2113833,21.914496 66.734912,22.536466 C67.2584408,23.158436 67.5202012,24.048869 67.5202012,25.2077916 L67.5202012,25.7246058 L62.6003981,25.7246058 C62.6182965,26.4405426 62.8274811,27.0188765 63.2279582,27.4596251 C63.6284353,27.9003736 64.137414,28.1207446 64.7549094,28.1207446 C65.1934206,28.1207446 65.5648073,28.0312538 65.8690804,27.8522697 C66.1733535,27.6732855 66.4395885,27.436135 66.6677933,27.1408111 L67.426235,27.7314559 C66.8176887,28.6666483 65.9048831,29.1342375 64.6877907,29.1342375 Z M64.5334176,22.6237204 C64.0322619,22.6237204 63.6116553,22.8060578 63.2715854,23.170738 C62.9315155,23.5354183 62.7212122,24.0466342 62.6406693,24.7044011 L66.2785046,24.7044011 L66.2785046,24.6104349 C66.2427078,23.9795156 66.0726754,23.4906724 65.7684023,23.1438905 C65.4641292,22.7971087 65.0524717,22.6237204 64.5334176,22.6237204 Z M74.1011584,22.6170085 C74.6515348,21.9413432 75.3674608,21.6035156 76.2489579,21.6035156 C77.7837472,21.6035156 78.5578422,22.4693386 78.571266,24.2010106 L78.571266,29 L77.3295695,29 L77.3295695,24.1942987 C77.3250949,23.67077 77.205401,23.2837225 76.9704842,23.0331446 C76.7355675,22.7825668 76.3697741,22.6572797 75.873093,22.6572797 C75.4703785,22.6572797 75.1168901,22.7646686 74.812617,22.9794497 C74.5083439,23.1942307 74.2711934,23.4761265 74.1011584,23.8251457 L74.1011584,29 L72.8594618,29 L72.8594618,18.6905626 L74.1011584,18.6905626 L74.1011584,22.6170085 Z M85.1639863,29 C85.0923926,28.8568127 85.0342236,28.601764 84.9894776,28.2348464 C84.4122536,28.8344435 83.7231748,29.1342375 82.9222206,29.1342375 C82.2062839,29.1342375 81.6190008,28.9317646 81.1603539,28.5268129 C80.7017069,28.1218612 80.4723869,27.608408 80.4723869,26.986438 C80.4723869,26.2302298 80.7598759,25.6429468 81.3348626,25.2245713 C81.9098493,24.8061957 82.7186219,24.5970111 83.7612048,24.5970111 L84.969342,24.5970111 L84.969342,24.0265019 C84.969342,23.5924652 84.8395804,23.2468072 84.5800533,22.9895175 C84.3205262,22.7322277 83.9379533,22.6035847 83.432323,22.6035847 C82.9893371,22.6035847 82.6179505,22.7154482 82.318152,22.9391784 C82.0183535,23.1629086 81.8684565,23.4336182 81.8684565,23.7513151 L80.6200481,23.7513151 C80.6200481,23.3888721 80.748691,23.0387396 81.0059808,22.7009069 C81.2632705,22.3630743 81.6122845,22.0957207 82.053033,21.8988381 C82.4937816,21.7019554 82.9781502,21.6035156 83.5061536,21.6035156 C84.3429046,21.6035156 84.9984244,21.8127003 85.4727325,22.2310758 C85.9470405,22.6494513 86.1931401,23.225548 86.2110385,23.9593832 L86.2110385,27.3018961 C86.2110385,27.9686121 86.2960547,28.4988448 86.4660897,28.89261 L86.4660897,29 L85.1639863,29 Z M83.1034412,28.0536259 C83.4927318,28.0536259 83.8618811,27.9529488 84.2109003,27.7515916 C84.5599194,27.5502344 84.8127308,27.2884739 84.969342,26.9663024 L84.969342,25.4762665 L83.9961203,25.4762665 C82.4747548,25.4762665 81.7140834,25.921483 81.7140834,26.8119293 C81.7140834,27.2012199 81.843845,27.5054884 82.1033721,27.7247441 C82.3628991,27.9439997 82.6962522,28.0536259 83.1034412,28.0536259 Z M92.635962,27.0736924 C92.635962,26.738097 92.5095563,26.4774552 92.2567411,26.2917591 C92.003926,26.106063 91.563184,25.9460983 90.9345021,25.8118602 C90.3058201,25.677622 89.8069092,25.5165387 89.4377543,25.3286053 C89.0685995,25.1406719 88.7956527,24.916945 88.6189058,24.657418 C88.4421589,24.3978909 88.3537868,24.0891478 88.3537868,23.7311795 C88.3537868,23.1360571 88.6054795,22.6326716 89.1088725,22.221008 C89.6122656,21.8093443 90.2554803,21.6035156 91.0385361,21.6035156 C91.8618634,21.6035156 92.5296881,21.8160562 93.0420303,22.2411436 C93.5543725,22.666231 93.8105398,23.2098873 93.8105398,23.8721288 L92.5621314,23.8721288 C92.5621314,23.5320589 92.4178275,23.2389766 92.1292155,22.9928734 C91.8406035,22.7467701 91.4770474,22.6237204 91.0385361,22.6237204 C90.5866011,22.6237204 90.2331126,22.7221602 89.9780601,22.9190428 C89.7230077,23.1159254 89.5954834,23.3732113 89.5954834,23.6909082 C89.5954834,23.9907067 89.7140586,24.2166709 89.9512126,24.3688074 C90.1883667,24.520944 90.6168036,24.6663664 91.2365364,24.8050792 C91.8562691,24.9437919 92.3585359,25.1093498 92.7433519,25.3017578 C93.1281679,25.4941658 93.4134197,25.7257231 93.5991158,25.9964367 C93.7848119,26.2671503 93.8776585,26.5971474 93.8776585,26.986438 C93.8776585,27.6352557 93.6181353,28.1554207 93.0990812,28.5469486 C92.5800271,28.9384765 91.9066092,29.1342375 91.0788074,29.1342375 C90.4971088,29.1342375 89.982537,29.0313231 89.5350765,28.8254913 C89.087616,28.6196595 88.7374835,28.3321705 88.4846683,27.9630156 C88.2318532,27.5938607 88.1054475,27.1945082 88.1054475,26.7649462 L89.347144,26.7649462 C89.3695171,27.1810844 89.5361936,27.5110816 89.8471786,27.7549475 C90.1581636,27.9988135 90.5687024,28.1207446 91.0788074,28.1207446 C91.5486408,28.1207446 91.9256206,28.0256607 92.209758,27.83549 C92.4938954,27.6453193 92.635962,27.3913893 92.635962,27.0736924 Z M105.546216,25.449419 C105.546216,26.559121 105.291167,27.4506725 104.781062,28.1241005 C104.270957,28.7975285 103.586353,29.1342375 102.727229,29.1342375 C101.809935,29.1342375 101.100721,28.8098335 100.599565,28.1610158 L100.539158,29 L99.3981397,29 L99.3981397,18.6905626 L100.639836,18.6905626 L100.639836,22.536466 C101.140992,21.914496 101.832308,21.6035156 102.713805,21.6035156 C103.595302,21.6035156 104.287737,21.9368687 104.79113,22.6035847 C105.294523,23.2703008 105.546216,24.1831065 105.546216,25.3420291 L105.546216,25.449419 Z M104.304519,25.3084697 C104.304519,24.4627694 104.141199,23.809487 103.814552,23.3486027 C103.487906,22.8877184 103.01808,22.6572797 102.405059,22.6572797 C101.586206,22.6572797 100.997805,23.0376154 100.639836,23.7982982 L100.639836,26.9394549 C101.020178,27.7001377 101.613054,28.0804734 102.418483,28.0804734 C103.013605,28.0804734 103.47672,27.8500347 103.807841,27.3891504 C104.138961,26.9282661 104.304519,26.2347128 104.304519,25.3084697 Z M110.373713,29.1342375 C109.3893,29.1342375 108.588358,28.8109521 107.970863,28.1643718 C107.353367,27.5177914 107.044624,26.6530871 107.044624,25.5702327 L107.044624,25.3420291 C107.044624,24.6216177 107.182216,23.978403 107.457404,23.4123655 C107.732593,22.846328 108.117403,22.4033488 108.611847,22.0834146 C109.10629,21.7634803 109.642116,21.6035156 110.21934,21.6035156 C111.163482,21.6035156 111.897306,21.914496 112.420835,22.536466 C112.944363,23.158436 113.206124,24.048869 113.206124,25.2077916 L113.206124,25.7246058 L108.286321,25.7246058 C108.304219,26.4405426 108.513404,27.0188765 108.913881,27.4596251 C109.314358,27.9003736 109.823337,28.1207446 110.440832,28.1207446 C110.879343,28.1207446 111.25073,28.0312538 111.555003,27.8522697 C111.859276,27.6732855 112.125511,27.436135 112.353716,27.1408111 L113.112158,27.7314559 C112.503611,28.6666483 111.590806,29.1342375 110.373713,29.1342375 Z M110.21934,22.6237204 C109.718184,22.6237204 109.297578,22.8060578 108.957508,23.170738 C108.617438,23.5354183 108.407135,24.0466342 108.326592,24.7044011 L111.964427,24.7044011 L111.964427,24.6104349 C111.92863,23.9795156 111.758598,23.4906724 111.454325,23.1438905 C111.150052,22.7971087 110.738394,22.6237204 110.21934,22.6237204 Z M117.906096,29.1342375 C116.921683,29.1342375 116.120741,28.8109521 115.503245,28.1643718 C114.88575,27.5177914 114.577007,26.6530871 114.577007,25.5702327 L114.577007,25.3420291 C114.577007,24.6216177 114.714599,23.978403 114.989787,23.4123655 C115.264975,22.846328 115.649785,22.4033488 116.144229,22.0834146 C116.638673,21.7634803 117.174499,21.6035156 117.751723,21.6035156 C118.695864,21.6035156 119.429688,21.914496 119.953217,22.536466 C120.476746,23.158436 120.738506,24.048869 120.738506,25.2077916 L120.738506,25.7246058 L115.818703,25.7246058 C115.836602,26.4405426 116.045786,27.0188765 116.446263,27.4596251 C116.84674,27.9003736 117.355719,28.1207446 117.973215,28.1207446 C118.411726,28.1207446 118.783112,28.0312538 119.087386,27.8522697 C119.391659,27.6732855 119.657894,27.436135 119.886098,27.1408111 L120.64454,27.7314559 C120.035994,28.6666483 119.123188,29.1342375 117.906096,29.1342375 Z M117.751723,22.6237204 C117.250567,22.6237204 116.82996,22.8060578 116.489891,23.170738 C116.149821,23.5354183 115.939517,24.0466342 115.858974,24.7044011 L119.49681,24.7044011 L119.49681,24.6104349 C119.461013,23.9795156 119.290981,23.4906724 118.986707,23.1438905 C118.682434,22.7971087 118.270777,22.6237204 117.751723,22.6237204 Z M123.599425,21.7377531 L123.639696,22.6505679 C124.194547,21.9525295 124.919422,21.6035156 125.814343,21.6035156 C127.349133,21.6035156 128.123228,22.4693386 128.136651,24.2010106 L128.136651,29 L126.894955,29 L126.894955,24.1942987 C126.89048,23.67077 126.770786,23.2837225 126.53587,23.0331446 C126.300953,22.7825668 125.935159,22.6572797 125.438478,22.6572797 C125.035764,22.6572797 124.682275,22.7646686 124.378002,22.9794497 C124.073729,23.1942307 123.836579,23.4761265 123.666544,23.8251457 L123.666544,29 L122.424847,29 L122.424847,21.7377531 L123.599425,21.7377531 Z M138.395715,29 C138.324122,28.8568127 138.265953,28.601764 138.221206,28.2348464 C137.643982,28.8344435 136.954904,29.1342375 136.153949,29.1342375 C135.438013,29.1342375 134.85073,28.9317646 134.392083,28.5268129 C133.933436,28.1218612 133.704116,27.608408 133.704116,26.986438 C133.704116,26.2302298 133.991605,25.6429468 134.566591,25.2245713 C135.141578,24.8061957 135.950351,24.5970111 136.992934,24.5970111 L138.201071,24.5970111 L138.201071,24.0265019 C138.201071,23.5924652 138.071309,23.2468072 137.811782,22.9895175 C137.552255,22.7322277 137.169682,22.6035847 136.664052,22.6035847 C136.221066,22.6035847 135.849679,22.7154482 135.549881,22.9391784 C135.250082,23.1629086 135.100185,23.4336182 135.100185,23.7513151 L133.851777,23.7513151 C133.851777,23.3888721 133.98042,23.0387396 134.23771,22.7009069 C134.494999,22.3630743 134.844013,22.0957207 135.284762,21.8988381 C135.72551,21.7019554 136.209879,21.6035156 136.737882,21.6035156 C137.574634,21.6035156 138.230153,21.8127003 138.704461,22.2310758 C139.178769,22.6494513 139.424869,23.225548 139.442767,23.9593832 L139.442767,27.3018961 C139.442767,27.9686121 139.527784,28.4988448 139.697819,28.89261 L139.697819,29 L138.395715,29 Z M136.33517,28.0536259 C136.724461,28.0536259 137.09361,27.9529488 137.442629,27.7515916 C137.791648,27.5502344 138.04446,27.2884739 138.201071,26.9663024 L138.201071,25.4762665 L137.227849,25.4762665 C135.706484,25.4762665 134.945812,25.921483 134.945812,26.8119293 C134.945812,27.2012199 135.075574,27.5054884 135.335101,27.7247441 C135.594628,27.9439997 135.927981,28.0536259 136.33517,28.0536259 Z M145.14952,22.8519241 C144.961587,22.8206018 144.757996,22.8049409 144.53874,22.8049409 C143.724362,22.8049409 143.171757,23.1517176 142.880907,23.8452813 L142.880907,29 L141.639211,29 L141.639211,21.7377531 L142.847348,21.7377531 L142.867483,22.5767373 C143.274672,21.9279196 143.851888,21.6035156 144.599147,21.6035156 C144.840775,21.6035156 145.024231,21.6348374 145.14952,21.6974819 L145.14952,22.8519241 Z M149.325966,28.1207446 C149.768952,28.1207446 150.156,27.9865085 150.48712,27.7180322 C150.818241,27.4495559 151.001697,27.1139656 151.037494,26.7112512 L152.212072,26.7112512 C152.189699,27.1273894 152.046514,27.523386 151.782512,27.8992528 C151.51851,28.2751196 151.16614,28.5749136 150.725392,28.7986438 C150.284643,29.022374 149.818173,29.1342375 149.325966,29.1342375 C148.337079,29.1342375 147.550679,28.8042403 146.966743,28.1442362 C146.382807,27.484232 146.090843,26.581494 146.090843,25.4359953 L146.090843,25.2279272 C146.090843,24.5209397 146.220605,23.8922672 146.480132,23.3418908 C146.739659,22.7915144 147.112164,22.3641961 147.597659,22.059923 C148.083154,21.7556499 148.657013,21.6035156 149.319254,21.6035156 C150.133632,21.6035156 150.810406,21.8473779 151.349596,22.3351098 C151.888786,22.8228417 152.176275,23.4559888 152.212072,24.23457 L151.037494,24.23457 C151.001697,23.7647365 150.823834,23.3788076 150.5039,23.0767718 C150.183966,22.774736 149.789088,22.6237204 149.319254,22.6237204 C148.688335,22.6237204 148.199492,22.8508031 147.85271,23.3049755 C147.505928,23.7591479 147.33254,24.4157862 147.33254,25.2749103 L147.33254,25.5098259 C147.33254,26.3465769 147.50481,26.9909103 147.849354,27.4428454 C148.193899,27.8947805 148.686098,28.1207446 149.325966,28.1207446 Z M155.099838,22.6170085 C155.650214,21.9413432 156.36614,21.6035156 157.247637,21.6035156 C158.782427,21.6035156 159.556522,22.4693386 159.569946,24.2010106 L159.569946,29 L158.328249,29 L158.328249,24.1942987 C158.323774,23.67077 158.204081,23.2837225 157.969164,23.0331446 C157.734247,22.7825668 157.368454,22.6572797 156.871773,22.6572797 C156.469058,22.6572797 156.11557,22.7646686 155.811297,22.9794497 C155.507023,23.1942307 155.269873,23.4761265 155.099838,23.8251457 L155.099838,29 L153.858141,29 L153.858141,18.6905626 L155.099838,18.6905626 L155.099838,22.6170085 Z M163.028221,29 L161.786525,29 L161.786525,21.7377531 L163.028221,21.7377531 L163.028221,29 Z M161.685846,19.8114455 C161.685846,19.6100882 161.747371,19.4400558 161.870423,19.3013431 C161.993475,19.1626303 162.175812,19.093275 162.417441,19.093275 C162.659069,19.093275 162.842525,19.1626303 162.967814,19.3013431 C163.093103,19.4400558 163.155747,19.6100882 163.155747,19.8114455 C163.155747,20.0128027 163.093103,20.1805978 162.967814,20.314836 C162.842525,20.4490741 162.659069,20.5161922 162.417441,20.5161922 C162.175812,20.5161922 161.993475,20.4490741 161.870423,20.314836 C161.747371,20.1805978 161.685846,20.0128027 161.685846,19.8114455 Z M167.661074,27.3153198 L169.459856,21.7377531 L170.7284,21.7377531 L168.124194,29 L167.177819,29 L164.546765,21.7377531 L165.815309,21.7377531 L167.661074,27.3153198 Z M175.099491,29.1342375 C174.115078,29.1342375 173.314135,28.8109521 172.69664,28.1643718 C172.079145,27.5177914 171.770401,26.6530871 171.770401,25.5702327 L171.770401,25.3420291 C171.770401,24.6216177 171.907993,23.978403 172.183182,23.4123655 C172.45837,22.846328 172.84318,22.4033488 173.337624,22.0834146 C173.832068,21.7634803 174.367894,21.6035156 174.945118,21.6035156 C175.889259,21.6035156 176.623083,21.914496 177.146612,22.536466 C177.670141,23.158436 177.931901,24.048869 177.931901,25.2077916 L177.931901,25.7246058 L173.012098,25.7246058 C173.029996,26.4405426 173.239181,27.0188765 173.639658,27.4596251 C174.040135,27.9003736 174.549114,28.1207446 175.166609,28.1207446 C175.605121,28.1207446 175.976507,28.0312538 176.28078,27.8522697 C176.585053,27.6732855 176.851288,27.436135 177.079493,27.1408111 L177.837935,27.7314559 C177.229389,28.6666483 176.316583,29.1342375 175.099491,29.1342375 Z M174.945118,22.6237204 C174.443962,22.6237204 174.023355,22.8060578 173.683285,23.170738 C173.343215,23.5354183 173.132912,24.0466342 173.052369,24.7044011 L176.690205,24.7044011 L176.690205,24.6104349 C176.654408,23.9795156 176.484375,23.4906724 176.180102,23.1438905 C175.875829,22.7971087 175.464172,22.6237204 174.945118,22.6237204 Z M179.316208,25.3084697 C179.316208,24.1942931 179.580205,23.298267 180.108209,22.6203644 C180.636212,21.9424618 181.327528,21.6035156 182.182178,21.6035156 C183.032353,21.6035156 183.70577,21.8943606 184.202452,22.4760592 L184.202452,18.6905626 L185.444148,18.6905626 L185.444148,29 L184.30313,29 L184.242723,28.2214227 C183.746042,28.8299689 183.054726,29.1342375 182.168754,29.1342375 C181.327528,29.1342375 180.641805,28.7896981 180.111565,28.100609 C179.581324,27.4115199 179.316208,26.5121378 179.316208,25.4024359 L179.316208,25.3084697 Z M180.557904,25.449419 C180.557904,26.2727463 180.727937,26.9170797 181.068007,27.3824385 C181.408077,27.8477974 181.877903,28.0804734 182.4775,28.0804734 C183.26503,28.0804734 183.840009,27.7269849 184.202452,27.0199974 L184.202452,23.6841963 C183.831059,22.9995818 183.260556,22.6572797 182.490924,22.6572797 C181.882378,22.6572797 181.408077,22.8921929 181.068007,23.3620264 C180.727937,23.8318599 180.557904,24.5276505 180.557904,25.449419 Z M187.647303,28.3489483 C187.647303,28.1341673 187.711065,27.9551858 187.838592,27.8119984 C187.966118,27.6688111 188.157404,27.5972185 188.412457,27.5972185 C188.667509,27.5972185 188.861033,27.6688111 188.993034,27.8119984 C189.125035,27.9551858 189.191034,28.1341673 189.191034,28.3489483 C189.191034,28.5547801 189.125035,28.7270498 188.993034,28.8657625 C188.861033,29.0044753 188.667509,29.0738306 188.412457,29.0738306 C188.157404,29.0738306 187.966118,29.0044753 187.838592,28.8657625 C187.711065,28.7270498 187.647303,28.5547801 187.647303,28.3489483 Z"/>
      </g>
    </g>
  </g>
</svg>
