<svg xmlns="http://www.w3.org/2000/svg" xmlns:xlink="http://www.w3.org/1999/xlink" width="1026" height="180" viewBox="0 0 1026 180">
  <defs>
    <rect id="4-b" width="320" height="48" x="0" y="0" rx="4"/>
    <filter id="4-a" width="117.2%" height="214.6%" x="-8.6%" y="-55.2%" filterUnits="objectBoundingBox">
      <feMorphology in="SourceAlpha" radius=".5" result="shadowSpreadOuter1"/>
      <feOffset dy="3" in="shadowSpreadOuter1" result="shadowOffsetOuter1"/>
      <feGaussianBlur in="shadowOffsetOuter1" result="shadowBlurOuter1" stdDeviation="2.5"/>
      <feColorMatrix in="shadowBlurOuter1" result="shadowMatrixOuter1" values="0 0 0 0 0   0 0 0 0 0   0 0 0 0 0  0 0 0 0.2 0"/>
      <feOffset dy="1" in="SourceAlpha" result="shadowOffsetOuter2"/>
      <feGaussianBlur in="shadowOffsetOuter2" result="shadowBlurOuter2" stdDeviation="9"/>
      <feColorMatrix in="shadowBlurOuter2" result="shadowMatrixOuter2" values="0 0 0 0 0   0 0 0 0 0   0 0 0 0 0  0 0 0 0.12 0"/>
      <feOffset dy="6" in="SourceAlpha" result="shadowOffsetOuter3"/>
      <feGaussianBlur in="shadowOffsetOuter3" result="shadowBlurOuter3" stdDeviation="5"/>
      <feColorMatrix in="shadowBlurOuter3" result="shadowMatrixOuter3" values="0 0 0 0 0   0 0 0 0 0   0 0 0 0 0  0 0 0 0.14 0"/>
      <feMerge>
        <feMergeNode in="shadowMatrixOuter1"/>
        <feMergeNode in="shadowMatrixOuter2"/>
        <feMergeNode in="shadowMatrixOuter3"/>
      </feMerge>
    </filter>
  </defs>
  <g fill="none" fill-rule="evenodd" transform="translate(1)">
    <rect width="1024" height="180" fill="#FFF" fill-opacity=".01" fill-rule="nonzero"/>
    <g fill="#C41261" transform="translate(224 128)">
      <path fill-rule="nonzero" d="M251.1375 14.621L251.1375 20 250.2135 20 250.2135 12.663 251.1265 12.663 253.8435 18.163 256.5935 12.663 257.4955 12.663 257.4955 20 256.5715 20 256.5715 14.632 253.8435 20.077 251.1375 14.621zM260.0805 14.929L260.0805 20 259.2445 20 259.2445 14.929 260.0805 14.929zM259.6735 12.96C259.9705 12.96 260.2015 13.202 260.2015 13.51 260.2015 13.807 259.9595 14.038 259.6625 14.038 259.3655 14.038 259.1345 13.807 259.1345 13.499 259.1345 13.191 259.3655 12.96 259.6735 12.96zM261.7635 14.929L262.5995 14.929 262.5995 15.644C263.0395 15.05 263.4795 14.808 264.1065 14.808 264.5685 14.808 264.9865 14.962 265.2835 15.226 265.6025 15.534 265.7125 15.886 265.7125 16.579L265.7125 20 264.8765 20 264.8765 16.766C264.8765 16.315 264.8215 16.073 264.6895 15.897 264.5355 15.688 264.2385 15.556 263.8975 15.556 263.5235 15.556 263.1825 15.699 262.9295 15.985 262.6875 16.249 262.5995 16.491 262.5995 16.909L262.5995 20 261.7635 20 261.7635 14.929zM276.5145 14.929L277.3725 14.929 275.5685 20 274.8095 20 273.6435 16.15 272.4225 20 271.6305 20 269.8925 14.929 270.7505 14.929 272.0485 18.658 273.2145 14.929 274.0395 14.929 275.1835 18.658 276.5145 14.929zM279.1105 14.929L279.1105 20 278.2745 20 278.2745 14.929 279.1105 14.929zM278.7035 12.96C279.0005 12.96 279.2315 13.202 279.2315 13.51 279.2315 13.807 278.9895 14.038 278.6925 14.038 278.3955 14.038 278.1645 13.807 278.1645 13.499 278.1645 13.191 278.3955 12.96 278.7035 12.96zM284.5885 15.699L284.5885 12.663 285.4245 12.663 285.4245 20 284.5885 20 284.5885 19.131C284.0825 19.824 283.5435 20.121 282.7735 20.121 281.3765 20.121 280.3865 19.032 280.3865 17.492 280.3865 15.952 281.3985 14.808 282.7735 14.808 283.5215 14.808 284.0935 15.083 284.5885 15.699zM282.9495 15.556C281.9485 15.556 281.2665 16.348 281.2665 17.503 281.2665 18.614 281.9375 19.395 282.8945 19.395 283.8735 19.395 284.5885 18.581 284.5885 17.481 284.5885 16.337 283.9175 15.556 282.9495 15.556zM287.9985 15.666L287.9985 18.966C288.0095 19.219 288.0755 19.274 288.3835 19.274L288.7685 19.274 288.7685 20 287.9875 20C287.3935 19.989 287.1625 19.769 287.1625 19.208L287.1625 15.666 286.4585 15.666 286.4585 14.929 287.1625 14.929 287.1625 13.334 287.9985 13.334 287.9985 14.929 288.7685 14.929 288.7685 15.666 287.9985 15.666zM290.7925 12.663L290.7925 15.633C291.2545 15.061 291.7165 14.808 292.3215 14.808 292.7615 14.808 293.2235 14.984 293.4985 15.27 293.7735 15.545 293.8945 15.941 293.8945 16.59L293.8945 20 293.0585 20 293.0585 16.634C293.0585 15.941 292.7175 15.556 292.1125 15.556 291.7275 15.556 291.3865 15.71 291.1225 16.007 290.8695 16.293 290.7925 16.546 290.7925 17.03L290.7925 20 289.9565 20 289.9565 12.663 290.7925 12.663zM295.9735 18.944C296.3035 18.944 296.5455 19.186 296.5455 19.527 296.5455 19.846 296.2925 20.088 295.9735 20.088 295.6435 20.088 295.4015 19.846 295.4015 19.516 295.4015 19.186 295.6435 18.944 295.9735 18.944zM295.9735 15.776C296.3035 15.776 296.5455 16.018 296.5455 16.359 296.5455 16.678 296.2925 16.92 295.9735 16.92 295.6435 16.92 295.4015 16.678 295.4015 16.348 295.4015 16.018 295.6435 15.776 295.9735 15.776zM303.9045 13.565L301.3415 13.565 301.3415 12.773 305.4995 12.773 303.3435 15.512C304.6195 15.512 305.5215 16.425 305.5215 17.723 305.5215 19.098 304.4875 20.121 303.0905 20.121 301.9355 20.121 301.1105 19.472 300.8575 18.361L301.6495 18.218C301.8475 18.922 302.3645 19.318 303.0465 19.318 303.9375 19.318 304.6415 18.647 304.6415 17.789 304.6415 16.909 303.9815 16.293 303.0245 16.293 302.6835 16.293 302.4635 16.359 302.1445 16.546L301.7815 16.227 303.9045 13.565zM308.0515 19.197L310.6365 19.197 310.6365 20 306.5225 20 309.0745 16.348C309.8115 15.281 309.9765 14.951 309.9765 14.511 309.9765 13.873 309.4705 13.422 308.7555 13.422 308.2605 13.422 307.8535 13.653 307.6885 14.038 307.6005 14.247 307.5675 14.412 307.5565 14.797L306.7315 14.797C306.7755 13.4 307.5125 12.63 308.8215 12.63 310.0205 12.63 310.8565 13.378 310.8565 14.445 310.8565 15.061 310.6365 15.6 310.0205 16.458L308.0515 19.197zM316.4775 14.874L316.4775 17.789C316.4775 18.614 316.3235 19.12 315.9605 19.505 315.5755 19.912 314.9925 20.121 314.2995 20.121 313.5845 20.121 312.9905 19.901 312.6055 19.483 312.2205 19.076 312.1215 18.658 312.1215 17.547L312.1215 15.127C312.1215 14.17 312.2315 13.719 312.5615 13.323 312.9245 12.883 313.5295 12.641 314.2775 12.641 314.9485 12.641 315.4985 12.828 315.9055 13.191 316.3235 13.576 316.4775 14.016 316.4775 14.874zM312.9905 15.149L312.9905 17.602C312.9905 18.449 313.0235 18.603 313.2655 18.878 313.4965 19.142 313.8925 19.307 314.3105 19.307 314.7615 19.307 315.1795 19.12 315.3885 18.823 315.5535 18.581 315.6195 18.273 315.6195 17.734L315.6195 14.929C315.6195 14.357 315.5205 14.071 315.2455 13.807 315.0035 13.587 314.6735 13.466 314.3105 13.466 313.8375 13.466 313.4305 13.653 313.2215 13.994 313.0345 14.258 312.9905 14.511 312.9905 15.149zM321.6805 15.699L321.6805 12.663 322.5165 12.663 322.5165 20 321.6805 20 321.6805 19.131C321.1745 19.824 320.6355 20.121 319.8655 20.121 318.4685 20.121 317.4785 19.032 317.4785 17.492 317.4785 15.952 318.4905 14.808 319.8655 14.808 320.6135 14.808 321.1855 15.083 321.6805 15.699zM320.0415 15.556C319.0405 15.556 318.3585 16.348 318.3585 17.503 318.3585 18.614 319.0295 19.395 319.9865 19.395 320.9655 19.395 321.6805 18.581 321.6805 17.481 321.6805 16.337 321.0095 15.556 320.0415 15.556zM324.1995 14.929L325.0355 14.929 325.0355 15.853C325.5195 15.105 326.0365 14.808 326.8835 14.808 328.2915 14.808 329.2705 15.886 329.2705 17.426 329.2705 19.021 328.2915 20.121 326.8835 20.121 326.4875 20.121 326.1245 20.033 325.7725 19.857 325.4645 19.703 325.3105 19.571 325.0355 19.208L325.0355 22.376 324.1995 22.376 324.1995 14.929zM326.7405 15.556C325.7285 15.556 325.0355 16.359 325.0355 17.547 325.0355 18.658 325.7065 19.395 326.7075 19.395 327.7085 19.395 328.3795 18.614 328.3795 17.459 328.3795 16.865 328.2365 16.414 327.9395 16.084 327.6425 15.754 327.1915 15.556 326.7405 15.556zM249.57 42.621L249.57 48 248.646 48 248.646 40.663 249.559 40.663 252.276 46.163 255.026 40.663 255.928 40.663 255.928 48 255.004 48 255.004 42.632 252.276 48.077 249.57 42.621zM261.505 43.765L261.505 42.929 262.341 42.929 262.341 48 261.505 48 261.505 47.021C260.999 47.78 260.427 48.121 259.657 48.121 258.26 48.121 257.27 47.021 257.27 45.481 257.27 43.93 258.282 42.808 259.679 42.808 260.449 42.808 261.01 43.105 261.505 43.765zM259.8 43.556C259.25 43.556 258.865 43.743 258.568 44.161 258.304 44.524 258.15 45.008 258.15 45.503 258.15 46.581 258.854 47.395 259.778 47.395 260.735 47.395 261.516 46.504 261.516 45.415 261.516 44.315 260.812 43.556 259.8 43.556zM265.641 46.163L264.288 48 263.265 48 265.135 45.481 263.232 42.929 264.288 42.929 265.641 44.788 267.027 42.929 268.05 42.929 266.136 45.481 267.962 48 266.939 48 265.641 46.163zM278.082 42.929L278.94 42.929 277.136 48 276.377 48 275.211 44.15 273.99 48 273.198 48 271.46 42.929 272.318 42.929 273.616 46.658 274.782 42.929 275.607 42.929 276.751 46.658 278.082 42.929zM280.678 42.929L280.678 48 279.842 48 279.842 42.929 280.678 42.929zM280.271 40.96C280.568 40.96 280.799 41.202 280.799 41.51 280.799 41.807 280.557 42.038 280.26 42.038 279.963 42.038 279.732 41.807 279.732 41.499 279.732 41.191 279.963 40.96 280.271 40.96zM286.156 43.699L286.156 40.663 286.992 40.663 286.992 48 286.156 48 286.156 47.131C285.65 47.824 285.111 48.121 284.341 48.121 282.944 48.121 281.954 47.032 281.954 45.492 281.954 43.952 282.966 42.808 284.341 42.808 285.089 42.808 285.661 43.083 286.156 43.699zM284.517 43.556C283.516 43.556 282.834 44.348 282.834 45.503 282.834 46.614 283.505 47.395 284.462 47.395 285.441 47.395 286.156 46.581 286.156 45.481 286.156 44.337 285.485 43.556 284.517 43.556zM289.566 43.666L289.566 46.966C289.577 47.219 289.643 47.274 289.951 47.274L290.336 47.274 290.336 48 289.555 48C288.961 47.989 288.73 47.769 288.73 47.208L288.73 43.666 288.026 43.666 288.026 42.929 288.73 42.929 288.73 41.334 289.566 41.334 289.566 42.929 290.336 42.929 290.336 43.666 289.566 43.666zM292.36 40.663L292.36 43.633C292.822 43.061 293.284 42.808 293.889 42.808 294.329 42.808 294.791 42.984 295.066 43.27 295.341 43.545 295.462 43.941 295.462 44.59L295.462 48 294.626 48 294.626 44.634C294.626 43.941 294.285 43.556 293.68 43.556 293.295 43.556 292.954 43.71 292.69 44.007 292.437 44.293 292.36 44.546 292.36 45.03L292.36 48 291.524 48 291.524 40.663 292.36 40.663zM297.541 46.944C297.871 46.944 298.113 47.186 298.113 47.527 298.113 47.846 297.86 48.088 297.541 48.088 297.211 48.088 296.969 47.846 296.969 47.516 296.969 47.186 297.211 46.944 297.541 46.944zM297.541 43.776C297.871 43.776 298.113 44.018 298.113 44.359 298.113 44.678 297.86 44.92 297.541 44.92 297.211 44.92 296.969 44.678 296.969 44.348 296.969 44.018 297.211 43.776 297.541 43.776zM306.187 40.663L306.187 41.499 303.822 41.499 303.822 43.468C304.196 43.325 304.526 43.259 304.9 43.259 306.187 43.259 307.155 44.271 307.155 45.646 307.155 47.054 306.121 48.077 304.68 48.077 303.646 48.077 302.865 47.538 302.491 46.57L303.283 46.273C303.459 46.592 303.536 46.724 303.657 46.834 303.888 47.065 304.295 47.208 304.702 47.208 305.582 47.208 306.253 46.526 306.253 45.624 306.253 44.689 305.593 44.062 304.625 44.062 304.053 44.062 303.47 44.326 302.997 44.81L302.997 40.663 306.187 40.663zM311.357 41.587L308.541 41.587 308.541 40.773 312.611 40.773 309.707 48 308.761 48 311.357 41.587zM317.209 40.773L315.328 43.71C315.636 43.6 315.779 43.567 316.043 43.567 317.264 43.567 318.21 44.524 318.21 45.767 318.21 47.065 317.143 48.132 315.845 48.132 314.536 48.132 313.524 47.098 313.524 45.767 313.524 45.228 313.667 44.821 314.085 44.15L316.186 40.773 317.209 40.773zM315.889 44.315C315.053 44.315 314.393 44.953 314.393 45.767 314.393 46.625 315.042 47.307 315.867 47.307 316.692 47.307 317.352 46.636 317.352 45.8 317.352 44.975 316.703 44.315 315.889 44.315zM323.248 43.699L323.248 40.663 324.084 40.663 324.084 48 323.248 48 323.248 47.131C322.742 47.824 322.203 48.121 321.433 48.121 320.036 48.121 319.046 47.032 319.046 45.492 319.046 43.952 320.058 42.808 321.433 42.808 322.181 42.808 322.753 43.083 323.248 43.699zM321.609 43.556C320.608 43.556 319.926 44.348 319.926 45.503 319.926 46.614 320.597 47.395 321.554 47.395 322.533 47.395 323.248 46.581 323.248 45.481 323.248 44.337 322.577 43.556 321.609 43.556zM325.767 42.929L326.603 42.929 326.603 43.853C327.087 43.105 327.604 42.808 328.451 42.808 329.859 42.808 330.838 43.886 330.838 45.426 330.838 47.021 329.859 48.121 328.451 48.121 328.055 48.121 327.692 48.033 327.34 47.857 327.032 47.703 326.878 47.571 326.603 47.208L326.603 50.376 325.767 50.376 325.767 42.929zM328.308 43.556C327.296 43.556 326.603 44.359 326.603 45.547 326.603 46.658 327.274 47.395 328.275 47.395 329.276 47.395 329.947 46.614 329.947 45.459 329.947 44.865 329.804 44.414 329.507 44.084 329.21 43.754 328.759 43.556 328.308 43.556z"/>
      <g transform="translate(129)">
        <rect width="1" height="9"/>
        <rect width="1" height="9" x="319"/>
        <rect width="318" height="1" x="1" y="4"/>
      </g>
      <g transform="translate(0 28)">
        <rect width="1" height="9"/>
        <rect width="1" height="9" x="575"/>
        <rect width="574" height="1" x="1" y="4"/>
      </g>
    </g>
    <polyline fill="#FFF" fill-rule="nonzero" stroke="#979797" points="1024 0 1024 124 0 124 0 0 0 0"/>
    <g fill="#C41261" transform="translate(223 141)">
      <rect width="120" height="1" x="5" y="4.5"/>
      <polygon points="127.5 2.5 130 7.5 125 7.5" transform="rotate(90 127.5 5)"/>
      <polygon points="2.5 2.5 5 7.5 0 7.5" transform="matrix(0 1 1 0 -2.5 2.5)"/>
    </g>
    <g transform="translate(353 60)">
      <use fill="#000" filter="url(#4-a)" xlink:href="#4-b"/>
      <use fill="#FAFAFA" xlink:href="#4-b"/>
      <rect width="320.003" height="48" fill="#25333D" rx="4"/>
      <path fill="#89CBDF" fill-rule="nonzero" d="M255.844295,26.6826172 L251.988826,26.6826172 L251.182186,29 L249.384334,29 L253.1441,19.046875 L254.695858,19.046875 L258.462459,29 L256.657772,29 L255.844295,26.6826172 Z M252.474178,25.2880859 L255.358943,25.2880859 L253.916561,21.1591797 L252.474178,25.2880859 Z M267.791561,25.7597656 C267.6913,26.8216199 267.299377,27.6498994 266.615779,28.2446289 C265.932182,28.8393584 265.023012,29.1367188 263.88824,29.1367188 C263.095268,29.1367188 262.39687,28.9487323 261.793026,28.5727539 C261.189181,28.1967755 260.723203,27.6624384 260.395076,26.9697266 C260.06695,26.2770148 259.896053,25.4726608 259.882381,24.5566406 L259.882381,23.6269531 C259.882381,22.6881463 260.04872,21.8610062 260.381404,21.1455078 C260.714088,20.4300094 261.19146,19.8785827 261.813533,19.4912109 C262.435607,19.1038392 263.154512,18.9101562 263.970272,18.9101562 C265.068584,18.9101562 265.95269,19.2086559 266.622615,19.8056641 C267.292541,20.4026723 267.682185,21.2457628 267.791561,22.3349609 L266.068904,22.3349609 C265.986873,21.6194626 265.778379,21.1033544 265.443416,20.7866211 C265.108454,20.4698877 264.61741,20.3115234 263.970272,20.3115234 C263.218315,20.3115234 262.640684,20.5860975 262.237361,21.1352539 C261.834039,21.6844103 261.627824,22.4899035 261.618709,23.5517578 L261.618709,24.4335938 C261.618709,25.50912 261.811253,26.3294243 262.196346,26.8945312 C262.581439,27.4596382 263.145398,27.7421875 263.88824,27.7421875 C264.56728,27.7421875 265.077692,27.5895198 265.41949,27.2841797 C265.761289,26.9788396 265.977758,26.4707067 266.068904,25.7597656 L267.791561,25.7597656 Z M277.079647,20.4414062 L273.976131,20.4414062 L273.976131,29 L272.260311,29 L272.260311,20.4414062 L269.184139,20.4414062 L269.184139,19.046875 L277.079647,19.046875 L277.079647,20.4414062 Z M280.960506,29 L279.23785,29 L279.23785,19.046875 L280.960506,19.046875 L280.960506,29 Z M291.779842,24.2832031 C291.779842,25.2584684 291.611224,26.1140914 291.273983,26.8500977 C290.936741,27.5861039 290.454813,28.1512025 289.828182,28.5454102 C289.201551,28.9396179 288.480367,29.1367188 287.664608,29.1367188 C286.857963,29.1367188 286.139057,28.9396179 285.507869,28.5454102 C284.876681,28.1512025 284.389056,27.5895219 284.044979,26.8603516 C283.700901,26.1311812 283.526587,25.2903693 283.522029,24.3378906 L283.522029,23.7773438 C283.522029,22.8066358 283.694065,21.9498735 284.038143,21.2070312 C284.38222,20.464189 284.867567,19.8956725 285.494197,19.5014648 C286.120828,19.1072571 286.839734,18.9101562 287.650936,18.9101562 C288.462138,18.9101562 289.181043,19.1049785 289.807674,19.4946289 C290.434305,19.8842793 290.918512,20.4448206 291.260311,21.1762695 C291.602109,21.9077185 291.775285,22.7587842 291.779842,23.7294922 L291.779842,24.2832031 Z M290.05035,23.7636719 C290.05035,22.6608018 289.841856,21.8154326 289.424861,21.2275391 C289.007867,20.6396455 288.416565,20.3457031 287.650936,20.3457031 C286.903536,20.3457031 286.319069,20.6385062 285.897518,21.2241211 C285.475966,21.809736 285.260636,22.6380155 285.251522,23.7089844 L285.251522,24.2832031 C285.251522,25.3769586 285.464573,26.2223277 285.890682,26.8193359 C286.316791,27.4163441 286.908093,27.7148438 287.664608,27.7148438 C288.430236,27.7148438 289.01926,27.42318 289.431697,26.8398438 C289.844134,26.2565075 290.05035,25.4043025 290.05035,24.2832031 L290.05035,23.7636719 Z M302.148006,29 L300.418514,29 L295.98199,21.9384766 L295.98199,29 L294.252498,29 L294.252498,19.046875 L295.98199,19.046875 L300.432186,26.1357422 L300.432186,19.046875 L302.148006,19.046875 L302.148006,29 Z"/>
      <path fill="#F3F6FA" fill-rule="nonzero" d="M20.0137002,24.6439942 C18.9084729,24.3262973 18.1041748,23.9358939 17.6007818,23.4727723 C17.0973888,23.0096508 16.845696,22.4380286 16.845696,21.7578887 C16.845696,20.9882567 17.1533205,20.3517538 17.7685786,19.8483608 C18.3838367,19.3449677 19.1836603,19.093275 20.1680733,19.093275 C20.839264,19.093275 21.4377334,19.2230366 21.9634994,19.4825637 C22.4892655,19.7420907 22.8964484,20.1000537 23.1850604,20.5564634 C23.4736724,21.0128731 23.6179762,21.511784 23.6179762,22.0532111 L22.3225846,22.0532111 C22.3225846,21.4625633 22.1346541,20.9983301 21.7587873,20.6604974 C21.3829205,20.3226648 20.8526878,20.153751 20.1680733,20.153751 C19.5326795,20.153751 19.0371244,20.2935803 18.6813934,20.5732431 C18.3256623,20.8529059 18.1477995,21.241072 18.1477995,21.7377531 C18.1477995,22.1359929 18.3167132,22.4727018 18.6545459,22.74789 C18.9923785,23.0230782 19.5673566,23.2747709 20.3794973,23.5029758 C21.1916381,23.7311806 21.8270224,23.9828733 22.2856693,24.2580615 C22.7443163,24.5332497 23.0843812,24.8542978 23.3058741,25.2212153 C23.527367,25.5881329 23.6381118,26.0199258 23.6381118,26.5166069 C23.6381118,27.3086119 23.3293687,27.9428776 22.7118733,28.419423 C22.0943779,28.8959683 21.2688257,29.1342375 20.2351921,29.1342375 C19.5640014,29.1342375 18.9375661,29.0055945 18.3558675,28.7483048 C17.7741689,28.491015 17.3255966,28.1386452 17.0101369,27.6911847 C16.6946773,27.2437242 16.5369499,26.7358642 16.5369499,26.1675895 L17.8323414,26.1675895 C17.8323414,26.7582373 18.0504751,27.2247078 18.4867491,27.5670151 C18.923023,27.9093223 19.5058315,28.0804734 20.2351921,28.0804734 C20.9153319,28.0804734 21.4366156,27.9417627 21.7990585,27.6643372 C22.1615015,27.3869117 22.3427203,27.0088133 22.3427203,26.5300306 C22.3427203,26.0512479 22.1749251,25.68098 21.8393298,25.4192156 C21.5037344,25.1574512 20.8951973,24.8990467 20.0137002,24.6439942 Z M26.6936749,29 L25.4519783,29 L25.4519783,21.7377531 L26.6936749,21.7377531 L26.6936749,29 Z M25.3513002,19.8114455 C25.3513002,19.6100882 25.4128251,19.4400558 25.5358767,19.3013431 C25.6589283,19.1626303 25.8412657,19.093275 26.0828944,19.093275 C26.324523,19.093275 26.5079791,19.1626303 26.633268,19.3013431 C26.7585569,19.4400558 26.8212004,19.6100882 26.8212004,19.8114455 C26.8212004,20.0128027 26.7585569,20.1805978 26.633268,20.314836 C26.5079791,20.4490741 26.324523,20.5161922 26.0828944,20.5161922 C25.8412657,20.5161922 25.6589283,20.4490741 25.5358767,20.314836 C25.4128251,20.1805978 25.3513002,20.0128027 25.3513002,19.8114455 Z M30.1049672,21.7377531 L30.1452384,22.6505679 C30.7000894,21.9525295 31.4249645,21.6035156 32.3198854,21.6035156 C33.8546747,21.6035156 34.6287697,22.4693386 34.6421935,24.2010106 L34.6421935,29 L33.400497,29 L33.400497,24.1942987 C33.3960224,23.67077 33.2763285,23.2837225 33.0414117,23.0331446 C32.806495,22.7825668 32.4407016,22.6572797 31.9440205,22.6572797 C31.541306,22.6572797 31.1878176,22.7646686 30.8835445,22.9794497 C30.5792714,23.1942307 30.3421209,23.4761265 30.1720859,23.8251457 L30.1720859,29 L28.9303893,29 L28.9303893,21.7377531 L30.1049672,21.7377531 Z M36.4694838,25.3084697 C36.4694838,24.1763947 36.7312442,23.2758941 37.2547729,22.6069407 C37.7783017,21.9379873 38.471855,21.6035156 39.3354536,21.6035156 C40.2214254,21.6035156 40.9127414,21.9167332 41.4094225,22.5431779 L41.4698294,21.7377531 L42.6041359,21.7377531 L42.6041359,28.8254913 C42.6041359,29.7651583 42.325596,30.5056942 41.7685077,31.0471214 C41.2114195,31.5885485 40.4630531,31.859258 39.5233861,31.859258 C38.9998574,31.859258 38.4875228,31.7473946 37.9863671,31.5236644 C37.4852114,31.2999341 37.1026385,30.9934283 36.8386368,30.6041377 L37.4829766,29.8591198 C38.0154546,30.5168867 38.6664998,30.8457652 39.4361317,30.8457652 C40.0402034,30.8457652 40.5111484,30.6757327 40.8489811,30.3356628 C41.1868137,29.9955928 41.3557275,29.5168173 41.3557275,28.8993219 L41.3557275,28.2751177 C40.8590464,28.8478671 40.181154,29.1342375 39.3220299,29.1342375 C38.471855,29.1342375 37.7838949,28.7919354 37.2581289,28.1073209 C36.7323628,27.4227064 36.4694838,26.4897653 36.4694838,25.3084697 Z M37.7178922,25.449419 C37.7178922,26.2682717 37.8856873,26.9114864 38.2212827,27.3790826 C38.556878,27.8466788 39.0267045,28.0804734 39.6307761,28.0804734 C40.4138319,28.0804734 40.9888099,27.7247476 41.3557275,27.0132855 L41.3557275,23.6976201 C40.9753861,23.0040564 40.4048826,22.6572797 39.6441998,22.6572797 C39.0401282,22.6572797 38.5680645,22.8921929 38.2279946,23.3620264 C37.8879246,23.8318599 37.7178922,24.5276505 37.7178922,25.449419 Z M46.0758351,29 L44.8341386,29 L44.8341386,18.6905626 L46.0758351,18.6905626 L46.0758351,29 Z M51.3261807,29.1342375 C50.3417677,29.1342375 49.5408255,28.8109521 48.9233301,28.1643718 C48.3058347,27.5177914 47.9970916,26.6530871 47.9970916,25.5702327 L47.9970916,25.3420291 C47.9970916,24.6216177 48.1346836,23.978403 48.4098718,23.4123655 C48.68506,22.846328 49.0698702,22.4033488 49.564314,22.0834146 C50.0587578,21.7634803 50.5945837,21.6035156 51.1718077,21.6035156 C52.1159492,21.6035156 52.8497734,21.914496 53.3733021,22.536466 C53.8968308,23.158436 54.1585913,24.048869 54.1585913,25.2077916 L54.1585913,25.7246058 L49.2387881,25.7246058 C49.2566866,26.4405426 49.4658712,27.0188765 49.8663483,27.4596251 C50.2668254,27.9003736 50.775804,28.1207446 51.3932995,28.1207446 C51.8318107,28.1207446 52.2031973,28.0312538 52.5074704,27.8522697 C52.8117435,27.6732855 53.0779785,27.436135 53.3061834,27.1408111 L54.064625,27.7314559 C53.4560788,28.6666483 52.5432732,29.1342375 51.3261807,29.1342375 Z M51.1718077,22.6237204 C50.6706519,22.6237204 50.2500454,22.8060578 49.9099755,23.170738 C49.5699055,23.5354183 49.3596023,24.0466342 49.2790594,24.7044011 L52.9168947,24.7044011 L52.9168947,24.6104349 C52.8810979,23.9795156 52.7110654,23.4906724 52.4067923,23.1438905 C52.1025192,22.7971087 51.6908618,22.6237204 51.1718077,22.6237204 Z M60.8469384,29 L59.6052419,29 L59.6052419,18.6905626 L60.8469384,18.6905626 L60.8469384,29 Z M64.4327395,29 L63.1910429,29 L63.1910429,21.7377531 L64.4327395,21.7377531 L64.4327395,29 Z M63.0903648,19.8114455 C63.0903648,19.6100882 63.1518897,19.4400558 63.2749413,19.3013431 C63.397993,19.1626303 63.5803304,19.093275 63.821959,19.093275 C64.0635877,19.093275 64.2470437,19.1626303 64.3723326,19.3013431 C64.4976215,19.4400558 64.5602651,19.6100882 64.5602651,19.8114455 C64.5602651,20.0128027 64.4976215,20.1805978 64.3723326,20.314836 C64.2470437,20.4490741 64.0635877,20.5161922 63.821959,20.5161922 C63.5803304,20.5161922 63.397993,20.4490741 63.2749413,20.314836 C63.1518897,20.1805978 63.0903648,20.0128027 63.0903648,19.8114455 Z M67.8440318,21.7377531 L67.884303,22.6505679 C68.439154,21.9525295 69.1640291,21.6035156 70.05895,21.6035156 C71.5937394,21.6035156 72.3678343,22.4693386 72.3812582,24.2010106 L72.3812582,29 L71.1395616,29 L71.1395616,24.1942987 C71.135087,23.67077 71.0153931,23.2837225 70.7804764,23.0331446 C70.5455596,22.7825668 70.1797662,22.6572797 69.6830851,22.6572797 C69.2803707,22.6572797 68.9268822,22.7646686 68.6226091,22.9794497 C68.318336,23.1942307 68.0811855,23.4761265 67.9111505,23.8251457 L67.9111505,29 L66.669454,29 L66.669454,21.7377531 L67.8440318,21.7377531 Z M77.5175019,29.1342375 C76.5330889,29.1342375 75.7321467,28.8109521 75.1146513,28.1643718 C74.4971558,27.5177914 74.1884128,26.6530871 74.1884128,25.5702327 L74.1884128,25.3420291 C74.1884128,24.6216177 74.3260048,23.978403 74.601193,23.4123655 C74.8763811,22.846328 75.2611914,22.4033488 75.7556352,22.0834146 C76.250079,21.7634803 76.7859048,21.6035156 77.3631288,21.6035156 C78.3072704,21.6035156 79.0410945,21.914496 79.5646233,22.536466 C80.088152,23.158436 80.3499124,24.048869 80.3499124,25.2077916 L80.3499124,25.7246058 L75.4301093,25.7246058 C75.4480077,26.4405426 75.6571924,27.0188765 76.0576695,27.4596251 C76.4581466,27.9003736 76.9671252,28.1207446 77.5846206,28.1207446 C78.0231319,28.1207446 78.3945185,28.0312538 78.6987916,27.8522697 C79.0030647,27.6732855 79.2692997,27.436135 79.4975045,27.1408111 L80.2559462,27.7314559 C79.6474,28.6666483 78.7345944,29.1342375 77.5175019,29.1342375 Z M77.3631288,22.6237204 C76.8619731,22.6237204 76.4413666,22.8060578 76.1012966,23.170738 C75.7612267,23.5354183 75.5509234,24.0466342 75.4703806,24.7044011 L79.1082159,24.7044011 L79.1082159,24.6104349 C79.072419,23.9795156 78.9023866,23.4906724 78.5981135,23.1438905 C78.2938404,22.7971087 77.882183,22.6237204 77.3631288,22.6237204 Z M86.857039,21.7377531 L86.8905984,22.5431779 C87.4230764,21.9167332 88.1412396,21.6035156 89.0451097,21.6035156 C90.060845,21.6035156 90.752161,21.9928004 91.1190786,22.7713816 C91.3607072,22.4223624 91.6750435,22.1404666 92.0620968,21.9256855 C92.4491501,21.7109045 92.9066715,21.6035156 93.4346749,21.6035156 C95.0276341,21.6035156 95.8375254,22.4469659 95.864373,24.1338919 L95.864373,29 L94.6226765,29 L94.6226765,24.2077225 C94.6226765,23.6886683 94.5041012,23.3005022 94.2669472,23.0432124 C94.0297931,22.7859227 93.6315593,22.6572797 93.0722337,22.6572797 C92.6113495,22.6572797 92.2287765,22.7948718 91.9245034,23.0700599 C91.6202303,23.3452481 91.443486,23.7155161 91.3942654,24.180875 L91.3942654,29 L90.145857,29 L90.145857,24.2412818 C90.145857,23.1852752 89.6290479,22.6572797 88.5954142,22.6572797 C87.7810362,22.6572797 87.2239563,23.0040564 86.9241578,23.6976201 L86.9241578,29 L85.6824612,29 L85.6824612,21.7377531 L86.857039,21.7377531 Z M101.000617,29.1342375 C100.016204,29.1342375 99.2152616,28.8109521 98.5977661,28.1643718 C97.9802707,27.5177914 97.6715276,26.6530871 97.6715276,25.5702327 L97.6715276,25.3420291 C97.6715276,24.6216177 97.8091196,23.978403 98.0843078,23.4123655 C98.359496,22.846328 98.7443062,22.4033488 99.23875,22.0834146 C99.7331938,21.7634803 100.26902,21.6035156 100.846244,21.6035156 C101.790385,21.6035156 102.524209,21.914496 103.047738,22.536466 C103.571267,23.158436 103.833027,24.048869 103.833027,25.2077916 L103.833027,25.7246058 L98.9132242,25.7246058 C98.9311226,26.4405426 99.1403072,27.0188765 99.5407843,27.4596251 C99.9412614,27.9003736 100.45024,28.1207446 101.067736,28.1207446 C101.506247,28.1207446 101.877633,28.0312538 102.181906,27.8522697 C102.48618,27.6732855 102.752415,27.436135 102.980619,27.1408111 L103.739061,27.7314559 C103.130515,28.6666483 102.217709,29.1342375 101.000617,29.1342375 Z M100.846244,22.6237204 C100.345088,22.6237204 99.9244815,22.8060578 99.5844115,23.170738 C99.2443416,23.5354183 99.0340383,24.0466342 98.9534954,24.7044011 L102.591331,24.7044011 L102.591331,24.6104349 C102.555534,23.9795156 102.385501,23.4906724 102.081228,23.1438905 C101.776955,22.7971087 101.365298,22.6237204 100.846244,22.6237204 Z M109.747848,27.0736924 C109.747848,26.738097 109.621443,26.4774552 109.368628,26.2917591 C109.115812,26.106063 108.67507,25.9460983 108.046388,25.8118602 C107.417707,25.677622 106.918796,25.5165387 106.549641,25.3286053 C106.180486,25.1406719 105.907539,24.916945 105.730792,24.657418 C105.554045,24.3978909 105.465673,24.0891478 105.465673,23.7311795 C105.465673,23.1360571 105.717366,22.6326716 106.220759,22.221008 C106.724152,21.8093443 107.367367,21.6035156 108.150423,21.6035156 C108.97375,21.6035156 109.641574,21.8160562 110.153917,22.2411436 C110.666259,22.666231 110.922426,23.2098873 110.922426,23.8721288 L109.674018,23.8721288 C109.674018,23.5320589 109.529714,23.2389766 109.241102,22.9928734 C108.95249,22.7467701 108.588934,22.6237204 108.150423,22.6237204 C107.698487,22.6237204 107.344999,22.7221602 107.089947,22.9190428 C106.834894,23.1159254 106.70737,23.3732113 106.70737,23.6909082 C106.70737,23.9907067 106.825945,24.2166709 107.063099,24.3688074 C107.300253,24.520944 107.72869,24.6663664 108.348423,24.8050792 C108.968156,24.9437919 109.470422,25.1093498 109.855238,25.3017578 C110.240054,25.4941658 110.525306,25.7257231 110.711002,25.9964367 C110.896698,26.2671503 110.989545,26.5971474 110.989545,26.986438 C110.989545,27.6352557 110.730022,28.1554207 110.210968,28.5469486 C109.691913,28.9384765 109.018496,29.1342375 108.190694,29.1342375 C107.608995,29.1342375 107.094423,29.0313231 106.646963,28.8254913 C106.199502,28.6196595 105.84937,28.3321705 105.596555,27.9630156 C105.34374,27.5938607 105.217334,27.1945082 105.217334,26.7649462 L106.45903,26.7649462 C106.481403,27.1810844 106.64808,27.5110816 106.959065,27.7549475 C107.27005,27.9988135 107.680589,28.1207446 108.190694,28.1207446 C108.660527,28.1207446 109.037507,28.0256607 109.321644,27.83549 C109.605782,27.6453193 109.747848,27.3913893 109.747848,27.0736924 Z M117.085587,27.0736924 C117.085587,26.738097 116.959181,26.4774552 116.706366,26.2917591 C116.453551,26.106063 116.012809,25.9460983 115.384127,25.8118602 C114.755445,25.677622 114.256534,25.5165387 113.887379,25.3286053 C113.518224,25.1406719 113.245277,24.916945 113.06853,24.657418 C112.891784,24.3978909 112.803411,24.0891478 112.803411,23.7311795 C112.803411,23.1360571 113.055104,22.6326716 113.558497,22.221008 C114.06189,21.8093443 114.705105,21.6035156 115.488161,21.6035156 C116.311488,21.6035156 116.979313,21.8160562 117.491655,22.2411436 C118.003997,22.666231 118.260164,23.2098873 118.260164,23.8721288 L117.011756,23.8721288 C117.011756,23.5320589 116.867452,23.2389766 116.57884,22.9928734 C116.290228,22.7467701 115.926672,22.6237204 115.488161,22.6237204 C115.036226,22.6237204 114.682737,22.7221602 114.427685,22.9190428 C114.172632,23.1159254 114.045108,23.3732113 114.045108,23.6909082 C114.045108,23.9907067 114.163683,24.2166709 114.400837,24.3688074 C114.637991,24.520944 115.066428,24.6663664 115.686161,24.8050792 C116.305894,24.9437919 116.808161,25.1093498 117.192977,25.3017578 C117.577793,25.4941658 117.863044,25.7257231 118.04874,25.9964367 C118.234436,26.2671503 118.327283,26.5971474 118.327283,26.986438 C118.327283,27.6352557 118.06776,28.1554207 117.548706,28.5469486 C117.029652,28.9384765 116.356234,29.1342375 115.528432,29.1342375 C114.946733,29.1342375 114.432162,29.0313231 113.984701,28.8254913 C113.537241,28.6196595 113.187108,28.3321705 112.934293,27.9630156 C112.681478,27.5938607 112.555072,27.1945082 112.555072,26.7649462 L113.796769,26.7649462 C113.819142,27.1810844 113.985818,27.5110816 114.296803,27.7549475 C114.607788,27.9988135 115.018327,28.1207446 115.528432,28.1207446 C115.998265,28.1207446 116.375245,28.0256607 116.659383,27.83549 C116.94352,27.6453193 117.085587,27.3913893 117.085587,27.0736924 Z M124.678376,29 C124.606782,28.8568127 124.548613,28.601764 124.503867,28.2348464 C123.926643,28.8344435 123.237565,29.1342375 122.43661,29.1342375 C121.720674,29.1342375 121.133391,28.9317646 120.674744,28.5268129 C120.216097,28.1218612 119.986777,27.608408 119.986777,26.986438 C119.986777,26.2302298 120.274266,25.6429468 120.849252,25.2245713 C121.424239,24.8061957 122.233012,24.5970111 123.275594,24.5970111 L124.483732,24.5970111 L124.483732,24.0265019 C124.483732,23.5924652 124.35397,23.2468072 124.094443,22.9895175 C123.834916,22.7322277 123.452343,22.6035847 122.946713,22.6035847 C122.503727,22.6035847 122.13234,22.7154482 121.832542,22.9391784 C121.532743,23.1629086 121.382846,23.4336182 121.382846,23.7513151 L120.134438,23.7513151 C120.134438,23.3888721 120.263081,23.0387396 120.52037,22.7009069 C120.77766,22.3630743 121.126674,22.0957207 121.567423,21.8988381 C122.008171,21.7019554 122.49254,21.6035156 123.020543,21.6035156 C123.857294,21.6035156 124.512814,21.8127003 124.987122,22.2310758 C125.46143,22.6494513 125.70753,23.225548 125.725428,23.9593832 L125.725428,27.3018961 C125.725428,27.9686121 125.810444,28.4988448 125.980479,28.89261 L125.980479,29 L124.678376,29 Z M122.617831,28.0536259 C123.007121,28.0536259 123.376271,27.9529488 123.72529,27.7515916 C124.074309,27.5502344 124.32712,27.2884739 124.483732,26.9663024 L124.483732,25.4762665 L123.51051,25.4762665 C121.989144,25.4762665 121.228473,25.921483 121.228473,26.8119293 C121.228473,27.2012199 121.358235,27.5054884 121.617762,27.7247441 C121.877289,27.9439997 122.210642,28.0536259 122.617831,28.0536259 Z M127.626549,25.3084697 C127.626549,24.1763947 127.888309,23.2758941 128.411838,22.6069407 C128.935367,21.9379873 129.62892,21.6035156 130.492519,21.6035156 C131.378491,21.6035156 132.069807,21.9167332 132.566488,22.5431779 L132.626895,21.7377531 L133.761201,21.7377531 L133.761201,28.8254913 C133.761201,29.7651583 133.482661,30.5056942 132.925573,31.0471214 C132.368485,31.5885485 131.620118,31.859258 130.680451,31.859258 C130.156923,31.859258 129.644588,31.7473946 129.143432,31.5236644 C128.642277,31.2999341 128.259704,30.9934283 127.995702,30.6041377 L128.640042,29.8591198 C129.17252,30.5168867 129.823565,30.8457652 130.593197,30.8457652 C131.197269,30.8457652 131.668214,30.6757327 132.006046,30.3356628 C132.343879,29.9955928 132.512793,29.5168173 132.512793,28.8993219 L132.512793,28.2751177 C132.016112,28.8478671 131.338219,29.1342375 130.479095,29.1342375 C129.62892,29.1342375 128.94096,28.7919354 128.415194,28.1073209 C127.889428,27.4227064 127.626549,26.4897653 127.626549,25.3084697 Z M128.874957,25.449419 C128.874957,26.2682717 129.042753,26.9114864 129.378348,27.3790826 C129.713943,27.8466788 130.18377,28.0804734 130.787841,28.0804734 C131.570897,28.0804734 132.145875,27.7247476 132.512793,27.0132855 L132.512793,23.6976201 C132.132451,23.0040564 131.561948,22.6572797 130.801265,22.6572797 C130.197193,22.6572797 129.72513,22.8921929 129.38506,23.3620264 C129.04499,23.8318599 128.874957,24.5276505 128.874957,25.449419 Z M138.897445,29.1342375 C137.913032,29.1342375 137.11209,28.8109521 136.494594,28.1643718 C135.877099,27.5177914 135.568356,26.6530871 135.568356,25.5702327 L135.568356,25.3420291 C135.568356,24.6216177 135.705948,23.978403 135.981136,23.4123655 C136.256324,22.846328 136.641134,22.4033488 137.135578,22.0834146 C137.630022,21.7634803 138.165848,21.6035156 138.743072,21.6035156 C139.687213,21.6035156 140.421038,21.914496 140.944566,22.536466 C141.468095,23.158436 141.729856,24.048869 141.729856,25.2077916 L141.729856,25.7246058 L136.810052,25.7246058 C136.827951,26.4405426 137.037135,27.0188765 137.437613,27.4596251 C137.83809,27.9003736 138.347068,28.1207446 138.964564,28.1207446 C139.403075,28.1207446 139.774462,28.0312538 140.078735,27.8522697 C140.383008,27.6732855 140.649243,27.436135 140.877448,27.1408111 L141.635889,27.7314559 C141.027343,28.6666483 140.114537,29.1342375 138.897445,29.1342375 Z M138.743072,22.6237204 C138.241916,22.6237204 137.82131,22.8060578 137.48124,23.170738 C137.14117,23.5354183 136.930867,24.0466342 136.850324,24.7044011 L140.488159,24.7044011 L140.488159,24.6104349 C140.452362,23.9795156 140.28233,23.4906724 139.978057,23.1438905 C139.673783,22.7971087 139.262126,22.6237204 138.743072,22.6237204 Z M153.499091,27.2884723 L154.89516,21.7377531 L156.136857,21.7377531 L154.022617,29 L153.015836,29 L151.250613,23.4962639 L149.532374,29 L148.525593,29 L146.418064,21.7377531 L147.653049,21.7377531 L149.082678,27.1743705 L150.77407,21.7377531 L151.774139,21.7377531 L153.499091,27.2884723 Z M158.997776,29 L157.756079,29 L157.756079,21.7377531 L158.997776,21.7377531 L158.997776,29 Z M157.655401,19.8114455 C157.655401,19.6100882 157.716926,19.4400558 157.839978,19.3013431 C157.963029,19.1626303 158.145367,19.093275 158.386995,19.093275 C158.628624,19.093275 158.81208,19.1626303 158.937369,19.3013431 C159.062658,19.4400558 159.125301,19.6100882 159.125301,19.8114455 C159.125301,20.0128027 159.062658,20.1805978 158.937369,20.314836 C158.81208,20.4490741 158.628624,20.5161922 158.386995,20.5161922 C158.145367,20.5161922 157.963029,20.4490741 157.839978,20.314836 C157.716926,20.1805978 157.655401,20.0128027 157.655401,19.8114455 Z M162.91917,19.9792423 L162.91917,21.7377531 L164.274969,21.7377531 L164.274969,22.697551 L162.91917,22.697551 L162.91917,27.201218 C162.91917,27.4920673 162.979577,27.710201 163.100391,27.8556256 C163.221205,28.0010503 163.427034,28.0737615 163.717883,28.0737615 C163.861071,28.0737615 164.05795,28.0469143 164.308528,27.993219 L164.308528,29 C163.981882,29.0894921 163.66419,29.1342375 163.355442,29.1342375 C162.800591,29.1342375 162.382222,28.9664423 162.100322,28.630847 C161.818422,28.2952516 161.677474,27.8187134 161.677474,27.201218 L161.677474,22.697551 L160.355235,22.697551 L160.355235,21.7377531 L161.677474,21.7377531 L161.677474,19.9792423 L162.91917,19.9792423 Z M167.21643,22.6170085 C167.766806,21.9413432 168.482732,21.6035156 169.364229,21.6035156 C170.899019,21.6035156 171.673114,22.4693386 171.686538,24.2010106 L171.686538,29 L170.444841,29 L170.444841,24.1942987 C170.440366,23.67077 170.320673,23.2837225 170.085756,23.0331446 C169.850839,22.7825668 169.485046,22.6572797 168.988365,22.6572797 C168.58565,22.6572797 168.232162,22.7646686 167.927889,22.9794497 C167.623615,23.1942307 167.386465,23.4761265 167.21643,23.8251457 L167.21643,29 L165.974733,29 L165.974733,18.6905626 L167.21643,18.6905626 L167.21643,22.6170085 Z M181.932178,29 C181.860584,28.8568127 181.802415,28.601764 181.757669,28.2348464 C181.180445,28.8344435 180.491366,29.1342375 179.690412,29.1342375 C178.974475,29.1342375 178.387192,28.9317646 177.928545,28.5268129 C177.469898,28.1218612 177.240578,27.608408 177.240578,26.986438 C177.240578,26.2302298 177.528067,25.6429468 178.103054,25.2245713 C178.678041,24.8061957 179.486813,24.5970111 180.529396,24.5970111 L181.737533,24.5970111 L181.737533,24.0265019 C181.737533,23.5924652 181.607772,23.2468072 181.348245,22.9895175 C181.088718,22.7322277 180.706145,22.6035847 180.200514,22.6035847 C179.757528,22.6035847 179.386142,22.7154482 179.086343,22.9391784 C178.786545,23.1629086 178.636648,23.4336182 178.636648,23.7513151 L177.388239,23.7513151 C177.388239,23.3888721 177.516882,23.0387396 177.774172,22.7009069 C178.031462,22.3630743 178.380476,22.0957207 178.821224,21.8988381 C179.261973,21.7019554 179.746342,21.6035156 180.274345,21.6035156 C181.111096,21.6035156 181.766616,21.8127003 182.240924,22.2310758 C182.715232,22.6494513 182.961331,23.225548 182.97923,23.9593832 L182.97923,27.3018961 C182.97923,27.9686121 183.064246,28.4988448 183.234281,28.89261 L183.234281,29 L181.932178,29 Z M179.871633,28.0536259 C180.260923,28.0536259 180.630072,27.9529488 180.979092,27.7515916 C181.328111,27.5502344 181.580922,27.2884739 181.737533,26.9663024 L181.737533,25.4762665 L180.764312,25.4762665 C179.242946,25.4762665 178.482275,25.921483 178.482275,26.8119293 C178.482275,27.2012199 178.612036,27.5054884 178.871563,27.7247441 C179.13109,27.9439997 179.464444,28.0536259 179.871633,28.0536259 Z M188.088626,28.1207446 C188.531612,28.1207446 188.918659,27.9865085 189.24978,27.7180322 C189.580901,27.4495559 189.764357,27.1139656 189.800154,26.7112512 L190.974732,26.7112512 C190.952359,27.1273894 190.809173,27.523386 190.545172,27.8992528 C190.28117,28.2751196 189.9288,28.5749136 189.488052,28.7986438 C189.047303,29.022374 188.580833,29.1342375 188.088626,29.1342375 C187.099739,29.1342375 186.313339,28.8042403 185.729403,28.1442362 C185.145467,27.484232 184.853503,26.581494 184.853503,25.4359953 L184.853503,25.2279272 C184.853503,24.5209397 184.983265,23.8922672 185.242792,23.3418908 C185.502319,22.7915144 185.874824,22.3641961 186.360319,22.059923 C186.845813,21.7556499 187.419673,21.6035156 188.081914,21.6035156 C188.896292,21.6035156 189.573066,21.8473779 190.112256,22.3351098 C190.651446,22.8228417 190.938935,23.4559888 190.974732,24.23457 L189.800154,24.23457 C189.764357,23.7647365 189.586494,23.3788076 189.26656,23.0767718 C188.946626,22.774736 188.551748,22.6237204 188.081914,22.6237204 C187.450995,22.6237204 186.962152,22.8508031 186.61537,23.3049755 C186.268588,23.7591479 186.0952,24.4157862 186.0952,25.2749103 L186.0952,25.5098259 C186.0952,26.3465769 186.267469,26.9909103 186.612014,27.4428454 C186.956559,27.8947805 187.448758,28.1207446 188.088626,28.1207446 Z M194.305482,19.9792423 L194.305482,21.7377531 L195.66128,21.7377531 L195.66128,22.697551 L194.305482,22.697551 L194.305482,27.201218 C194.305482,27.4920673 194.365888,27.710201 194.486702,27.8556256 C194.607516,28.0010503 194.813345,28.0737615 195.104194,28.0737615 C195.247382,28.0737615 195.444261,28.0469143 195.694839,27.993219 L195.694839,29 C195.368193,29.0894921 195.050501,29.1342375 194.741753,29.1342375 C194.186902,29.1342375 193.768533,28.9664423 193.486633,28.630847 C193.204733,28.2952516 193.063785,27.8187134 193.063785,27.201218 L193.063785,22.697551 L191.741546,22.697551 L191.741546,21.7377531 L193.063785,21.7377531 L193.063785,19.9792423 L194.305482,19.9792423 Z M198.710131,29 L197.468435,29 L197.468435,21.7377531 L198.710131,21.7377531 L198.710131,29 Z M197.367756,19.8114455 C197.367756,19.6100882 197.429281,19.4400558 197.552333,19.3013431 C197.675385,19.1626303 197.857722,19.093275 198.099351,19.093275 C198.340979,19.093275 198.524435,19.1626303 198.649724,19.3013431 C198.775013,19.4400558 198.837657,19.6100882 198.837657,19.8114455 C198.837657,20.0128027 198.775013,20.1805978 198.649724,20.314836 C198.524435,20.4490741 198.340979,20.5161922 198.099351,20.5161922 C197.857722,20.5161922 197.675385,20.4490741 197.552333,20.314836 C197.429281,20.1805978 197.367756,20.0128027 197.367756,19.8114455 Z M200.617964,25.3017578 C200.617964,24.5902957 200.757793,23.9504368 201.037456,23.382162 C201.317119,22.8138873 201.706403,22.3753826 202.205322,22.0666349 C202.70424,21.7578872 203.273625,21.6035156 203.913494,21.6035156 C204.902381,21.6035156 205.702205,21.9458177 206.312988,22.6304322 C206.923772,23.3150467 207.229159,24.2256151 207.229159,25.3621647 L207.229159,25.449419 C207.229159,26.1564065 207.093804,26.7906722 206.823091,27.3522351 C206.552377,27.913798 206.16533,28.351184 205.661937,28.6644063 C205.158544,28.9776287 204.58021,29.1342375 203.926917,29.1342375 C202.942504,29.1342375 202.144918,28.7919354 201.534134,28.1073209 C200.923351,27.4227064 200.617964,26.5166125 200.617964,25.3890122 L200.617964,25.3017578 Z M201.866372,25.449419 C201.866372,26.2548478 202.053184,26.9014185 202.426814,27.3891504 C202.800443,27.8768823 203.300473,28.1207446 203.926917,28.1207446 C204.557837,28.1207446 205.058985,27.8735264 205.430377,27.3790826 C205.801769,26.8846388 205.987462,26.1922041 205.987462,25.3017578 C205.987462,24.5052782 205.798413,23.8598262 205.420309,23.3653824 C205.042205,22.8709386 204.539938,22.6237204 203.913494,22.6237204 C203.300473,22.6237204 202.806036,22.8675827 202.43017,23.3553146 C202.054303,23.8430465 201.866372,24.5410743 201.866372,25.449419 Z M210.210891,21.7377531 L210.251163,22.6505679 C210.806014,21.9525295 211.530889,21.6035156 212.42581,21.6035156 C213.960599,21.6035156 214.734694,22.4693386 214.748118,24.2010106 L214.748118,29 L213.506421,29 L213.506421,24.1942987 C213.501947,23.67077 213.382253,23.2837225 213.147336,23.0331446 C212.912419,22.7825668 212.546626,22.6572797 212.049945,22.6572797 C211.64723,22.6572797 211.293742,22.7646686 210.989469,22.9794497 C210.685196,23.1942307 210.448045,23.4761265 210.27801,23.8251457 L210.27801,29 L209.036314,29 L209.036314,21.7377531 L210.210891,21.7377531 Z M216.897578,28.3489483 C216.897578,28.1341673 216.96134,27.9551858 217.088866,27.8119984 C217.216393,27.6688111 217.407679,27.5972185 217.662731,27.5972185 C217.917784,27.5972185 218.111308,27.6688111 218.243309,27.8119984 C218.375309,27.9551858 218.441309,28.1341673 218.441309,28.3489483 C218.441309,28.5547801 218.375309,28.7270498 218.243309,28.8657625 C218.111308,29.0044753 217.917784,29.0738306 217.662731,29.0738306 C217.407679,29.0738306 217.216393,29.0044753 217.088866,28.8657625 C216.96134,28.7270498 216.897578,28.5547801 216.897578,28.3489483 Z"/>
    </g>
    <g fill="#C41261" transform="translate(429 29)">
      <path fill-rule="nonzero" d="M3.0285,0.994 L1.4115,2.072 L1.4115,1.236 L3.8975,-0.392 L3.8975,7 L3.0285,7 L3.0285,0.994 Z M9.7825,-0.227 L7.9015,2.71 C8.2095,2.6 8.3525,2.567 8.6165,2.567 C9.8375,2.567 10.7835,3.524 10.7835,4.767 C10.7835,6.065 9.7165,7.132 8.4185,7.132 C7.1095,7.132 6.0975,6.098 6.0975,4.767 C6.0975,4.228 6.2405,3.821 6.6585,3.15 L8.7595,-0.227 L9.7825,-0.227 Z M8.4625,3.315 C7.6265,3.315 6.9665,3.953 6.9665,4.767 C6.9665,5.625 7.6155,6.307 8.4405,6.307 C9.2655,6.307 9.9255,5.636 9.9255,4.8 C9.9255,3.975 9.2765,3.315 8.4625,3.315 Z M15.8215,2.699 L15.8215,-0.337 L16.6575,-0.337 L16.6575,7 L15.8215,7 L15.8215,6.131 C15.3155,6.824 14.7765,7.121 14.0065,7.121 C12.6095,7.121 11.6195,6.032 11.6195,4.492 C11.6195,2.952 12.6315,1.808 14.0065,1.808 C14.7545,1.808 15.3265,2.083 15.8215,2.699 Z M14.1825,2.556 C13.1815,2.556 12.4995,3.348 12.4995,4.503 C12.4995,5.614 13.1705,6.395 14.1275,6.395 C15.1065,6.395 15.8215,5.581 15.8215,4.481 C15.8215,3.337 15.1505,2.556 14.1825,2.556 Z M18.3405,1.929 L19.1765,1.929 L19.1765,2.853 C19.6605,2.105 20.1775,1.808 21.0245,1.808 C22.4325,1.808 23.4115,2.886 23.4115,4.426 C23.4115,6.021 22.4325,7.121 21.0245,7.121 C20.6285,7.121 20.2655,7.033 19.9135,6.857 C19.6055,6.703 19.4515,6.571 19.1765,6.208 L19.1765,9.376 L18.3405,9.376 L18.3405,1.929 Z M20.8815,2.556 C19.8695,2.556 19.1765,3.359 19.1765,4.547 C19.1765,5.658 19.8475,6.395 20.8485,6.395 C21.8495,6.395 22.5205,5.614 22.5205,4.459 C22.5205,3.865 22.3775,3.414 22.0805,3.084 C21.7835,2.754 21.3325,2.556 20.8815,2.556 Z M28.9005,2.666 L28.9005,7 L28.0645,7 L28.0645,2.666 L27.3715,2.666 L27.3715,1.929 L28.0645,1.929 L28.0645,1.247 C28.0645,0.246 28.5815,-0.348 29.4615,-0.348 C29.5055,-0.348 29.6045,-0.348 29.6925,-0.337 L29.6925,0.411 C29.0875,0.477 28.9225,0.653 28.9005,1.247 L28.9005,1.929 L29.6925,1.929 L29.6925,2.666 L28.9005,2.666 Z M31.8925,1.929 L31.8925,7 L31.0565,7 L31.0565,1.929 L31.8925,1.929 Z M31.4745,-0.04 C31.7715,-0.04 32.0025,0.202 32.0025,0.51 C32.0025,0.807 31.7715,1.038 31.4745,1.038 C31.1665,1.038 30.9355,0.807 30.9355,0.499 C30.9355,0.191 31.1665,-0.04 31.4745,-0.04 Z M35.1925,5.163 L33.8395,7 L32.8165,7 L34.6865,4.481 L32.7835,1.929 L33.8395,1.929 L35.1925,3.788 L36.5785,1.929 L37.6015,1.929 L35.6875,4.481 L37.5135,7 L36.4905,7 L35.1925,5.163 Z M43.1895,4.734 L38.9655,4.734 C39.0095,5.163 39.0865,5.383 39.2955,5.658 C39.6255,6.109 40.1095,6.351 40.6595,6.351 C41.2865,6.351 41.8805,6.01 42.1775,5.482 L42.9145,5.757 C42.4965,6.604 41.6275,7.121 40.6595,7.121 C39.1525,7.121 38.0745,6.021 38.0745,4.481 C38.0745,2.919 39.1415,1.808 40.6265,1.808 C42.1005,1.808 43.2005,2.919 43.2005,4.404 C43.2005,4.47 43.2005,4.613 43.1895,4.734 Z M38.9765,4.118 L42.3095,4.118 C42.2765,3.722 42.1995,3.502 42.0235,3.249 C41.7045,2.82 41.1875,2.556 40.6265,2.556 C40.0655,2.556 39.5595,2.82 39.2625,3.26 C39.1085,3.502 39.0425,3.711 38.9765,4.118 Z M48.2055,2.699 L48.2055,-0.337 L49.0415,-0.337 L49.0415,7 L48.2055,7 L48.2055,6.131 C47.6995,6.824 47.1605,7.121 46.3905,7.121 C44.9935,7.121 44.0035,6.032 44.0035,4.492 C44.0035,2.952 45.0155,1.808 46.3905,1.808 C47.1385,1.808 47.7105,2.083 48.2055,2.699 Z M46.5665,2.556 C45.5655,2.556 44.8835,3.348 44.8835,4.503 C44.8835,5.614 45.5545,6.395 46.5115,6.395 C47.4905,6.395 48.2055,5.581 48.2055,4.481 C48.2055,3.337 47.5345,2.556 46.5665,2.556 Z M54.0245,1.929 L54.8605,1.929 L54.8605,2.853 C55.3445,2.105 55.8615,1.808 56.7085,1.808 C58.1165,1.808 59.0955,2.886 59.0955,4.426 C59.0955,6.021 58.1165,7.121 56.7085,7.121 C56.3125,7.121 55.9495,7.033 55.5975,6.857 C55.2895,6.703 55.1355,6.571 54.8605,6.208 L54.8605,9.376 L54.0245,9.376 L54.0245,1.929 Z M56.5655,2.556 C55.5535,2.556 54.8605,3.359 54.8605,4.547 C54.8605,5.658 55.5315,6.395 56.5325,6.395 C57.5335,6.395 58.2045,5.614 58.2045,4.459 C58.2045,3.865 58.0615,3.414 57.7645,3.084 C57.4675,2.754 57.0165,2.556 56.5655,2.556 Z M64.1885,2.765 L64.1885,1.929 L65.0245,1.929 L65.0245,7 L64.1885,7 L64.1885,6.021 C63.6825,6.78 63.1105,7.121 62.3405,7.121 C60.9435,7.121 59.9535,6.021 59.9535,4.481 C59.9535,2.93 60.9655,1.808 62.3625,1.808 C63.1325,1.808 63.6935,2.105 64.1885,2.765 Z M62.4835,2.556 C61.9335,2.556 61.5485,2.743 61.2515,3.161 C60.9875,3.524 60.8335,4.008 60.8335,4.503 C60.8335,5.581 61.5375,6.395 62.4615,6.395 C63.4185,6.395 64.1995,5.504 64.1995,4.415 C64.1995,3.315 63.4955,2.556 62.4835,2.556 Z M70.5025,2.699 L70.5025,-0.337 L71.3385,-0.337 L71.3385,7 L70.5025,7 L70.5025,6.131 C69.9965,6.824 69.4575,7.121 68.6875,7.121 C67.2905,7.121 66.3005,6.032 66.3005,4.492 C66.3005,2.952 67.3125,1.808 68.6875,1.808 C69.4355,1.808 70.0075,2.083 70.5025,2.699 Z M68.8635,2.556 C67.8625,2.556 67.1805,3.348 67.1805,4.503 C67.1805,5.614 67.8515,6.395 68.8085,6.395 C69.7875,6.395 70.5025,5.581 70.5025,4.481 C70.5025,3.337 69.8315,2.556 68.8635,2.556 Z M76.8165,2.699 L76.8165,-0.337 L77.6525,-0.337 L77.6525,7 L76.8165,7 L76.8165,6.131 C76.3105,6.824 75.7715,7.121 75.0015,7.121 C73.6045,7.121 72.6145,6.032 72.6145,4.492 C72.6145,2.952 73.6265,1.808 75.0015,1.808 C75.7495,1.808 76.3215,2.083 76.8165,2.699 Z M75.1775,2.556 C74.1765,2.556 73.4945,3.348 73.4945,4.503 C73.4945,5.614 74.1655,6.395 75.1225,6.395 C76.1015,6.395 76.8165,5.581 76.8165,4.481 C76.8165,3.337 76.1455,2.556 75.1775,2.556 Z M80.1715,1.929 L80.1715,7 L79.3355,7 L79.3355,1.929 L80.1715,1.929 Z M79.7645,-0.04 C80.0615,-0.04 80.2925,0.202 80.2925,0.51 C80.2925,0.807 80.0505,1.038 79.7535,1.038 C79.4565,1.038 79.2255,0.807 79.2255,0.499 C79.2255,0.191 79.4565,-0.04 79.7645,-0.04 Z M81.8545,1.929 L82.6905,1.929 L82.6905,2.644 C83.1305,2.05 83.5705,1.808 84.1975,1.808 C84.6595,1.808 85.0775,1.962 85.3745,2.226 C85.6935,2.534 85.8035,2.886 85.8035,3.579 L85.8035,7 L84.9675,7 L84.9675,3.766 C84.9675,3.315 84.9125,3.073 84.7805,2.897 C84.6265,2.688 84.3295,2.556 83.9885,2.556 C83.6145,2.556 83.2735,2.699 83.0205,2.985 C82.7785,3.249 82.6905,3.491 82.6905,3.909 L82.6905,7 L81.8545,7 L81.8545,1.929 Z M91.2045,2.798 L91.2045,1.929 L92.0405,1.929 L92.0405,7.033 C92.0405,7.88 91.8315,8.452 91.3695,8.892 C90.9185,9.332 90.2695,9.563 89.4995,9.563 C88.5535,9.563 87.8055,9.255 87.2555,8.639 L87.8275,8.067 C88.0585,8.309 88.1685,8.408 88.3115,8.507 C88.5975,8.683 89.0705,8.804 89.4995,8.804 C90.0275,8.804 90.5335,8.617 90.8195,8.309 C91.0725,8.034 91.2045,7.627 91.2045,7.099 L91.2045,6.032 C90.7095,6.78 90.1265,7.121 89.3345,7.121 C87.9925,7.121 86.9915,5.988 86.9915,4.481 C86.9915,3.667 87.2885,2.886 87.7945,2.402 C88.2015,2.006 88.7515,1.808 89.4005,1.808 C90.1705,1.808 90.6875,2.094 91.2045,2.798 Z M89.5545,2.578 C88.5645,2.578 87.8715,3.348 87.8715,4.448 C87.8715,5.537 88.5755,6.351 89.5325,6.351 C90.0165,6.351 90.4895,6.12 90.8195,5.735 C91.0395,5.482 91.1825,4.987 91.1825,4.481 C91.1825,3.821 91.0835,3.469 90.7865,3.139 C90.4785,2.798 90.0055,2.578 89.5545,2.578 Z M97.9145,2.666 L97.9145,5.966 C97.9255,6.219 97.9915,6.274 98.2995,6.274 L98.6845,6.274 L98.6845,7 L97.9035,7 C97.3095,6.989 97.0785,6.769 97.0785,6.208 L97.0785,2.666 L96.3745,2.666 L96.3745,1.929 L97.0785,1.929 L97.0785,0.334 L97.9145,0.334 L97.9145,1.929 L98.6845,1.929 L98.6845,2.666 L97.9145,2.666 Z M102.0615,1.808 C103.5575,1.808 104.6245,2.919 104.6245,4.481 C104.6245,5.966 103.4805,7.121 102.0285,7.121 C100.5215,7.121 99.4655,6.021 99.4655,4.459 C99.4655,2.886 100.5215,1.808 102.0615,1.808 Z M102.0615,2.578 C101.0165,2.578 100.3235,3.337 100.3235,4.47 C100.3235,5.592 101.0165,6.351 102.0505,6.351 C103.0515,6.351 103.7665,5.57 103.7665,4.47 C103.7665,3.337 103.0845,2.578 102.0615,2.578 Z M105.9005,1.929 L106.7365,1.929 L106.7365,2.853 C107.2205,2.105 107.7375,1.808 108.5845,1.808 C109.9925,1.808 110.9715,2.886 110.9715,4.426 C110.9715,6.021 109.9925,7.121 108.5845,7.121 C108.1885,7.121 107.8255,7.033 107.4735,6.857 C107.1655,6.703 107.0115,6.571 106.7365,6.208 L106.7365,9.376 L105.9005,9.376 L105.9005,1.929 Z M108.4415,2.556 C107.4295,2.556 106.7365,3.359 106.7365,4.547 C106.7365,5.658 107.4075,6.395 108.4085,6.395 C109.4095,6.395 110.0805,5.614 110.0805,4.459 C110.0805,3.865 109.9375,3.414 109.6405,3.084 C109.3435,2.754 108.8925,2.556 108.4415,2.556 Z M119.3645,2.765 L119.3645,1.929 L120.2005,1.929 L120.2005,7 L119.3645,7 L119.3645,6.021 C118.8585,6.78 118.2865,7.121 117.5165,7.121 C116.1195,7.121 115.1295,6.021 115.1295,4.481 C115.1295,2.93 116.1415,1.808 117.5385,1.808 C118.3085,1.808 118.8695,2.105 119.3645,2.765 Z M117.6595,2.556 C117.1095,2.556 116.7245,2.743 116.4275,3.161 C116.1635,3.524 116.0095,4.008 116.0095,4.503 C116.0095,5.581 116.7135,6.395 117.6375,6.395 C118.5945,6.395 119.3755,5.504 119.3755,4.415 C119.3755,3.315 118.6715,2.556 117.6595,2.556 Z M121.8835,1.929 L122.7195,1.929 L122.7195,2.644 C123.1595,2.05 123.5995,1.808 124.2265,1.808 C124.6885,1.808 125.1065,1.962 125.4035,2.226 C125.7225,2.534 125.8325,2.886 125.8325,3.579 L125.8325,7 L124.9965,7 L124.9965,3.766 C124.9965,3.315 124.9415,3.073 124.8095,2.897 C124.6555,2.688 124.3585,2.556 124.0175,2.556 C123.6435,2.556 123.3025,2.699 123.0495,2.985 C122.8075,3.249 122.7195,3.491 122.7195,3.909 L122.7195,7 L121.8835,7 L121.8835,1.929 Z M131.2775,2.699 L131.2775,-0.337 L132.1135,-0.337 L132.1135,7 L131.2775,7 L131.2775,6.131 C130.7715,6.824 130.2325,7.121 129.4625,7.121 C128.0655,7.121 127.0755,6.032 127.0755,4.492 C127.0755,2.952 128.0875,1.808 129.4625,1.808 C130.2105,1.808 130.7825,2.083 131.2775,2.699 Z M129.6385,2.556 C128.6375,2.556 127.9555,3.348 127.9555,4.503 C127.9555,5.614 128.6265,6.395 129.5835,6.395 C130.5625,6.395 131.2775,5.581 131.2775,4.481 C131.2775,3.337 130.6065,2.556 129.6385,2.556 Z M137.9325,6.131 L137.9325,7 L137.0965,7 L137.0965,-0.337 L137.9325,-0.337 L137.9325,2.798 C138.4385,2.105 138.9775,1.808 139.7145,1.808 C141.1335,1.808 142.1235,2.908 142.1235,4.481 C142.1235,6.032 141.1445,7.121 139.7585,7.121 C138.9775,7.121 138.4275,6.824 137.9325,6.131 Z M139.6045,2.556 C138.6365,2.556 137.9215,3.359 137.9215,4.47 C137.9215,5.625 138.5815,6.395 139.5715,6.395 C140.5725,6.395 141.2435,5.636 141.2435,4.503 C141.2435,3.37 140.5615,2.556 139.6045,2.556 Z M145.5885,1.808 C147.0845,1.808 148.1515,2.919 148.1515,4.481 C148.1515,5.966 147.0075,7.121 145.5555,7.121 C144.0485,7.121 142.9925,6.021 142.9925,4.459 C142.9925,2.886 144.0485,1.808 145.5885,1.808 Z M145.5885,2.578 C144.5435,2.578 143.8505,3.337 143.8505,4.47 C143.8505,5.592 144.5435,6.351 145.5775,6.351 C146.5785,6.351 147.2935,5.57 147.2935,4.47 C147.2935,3.337 146.6115,2.578 145.5885,2.578 Z M150.3185,2.666 L150.3185,5.966 C150.3295,6.219 150.3955,6.274 150.7035,6.274 L151.0885,6.274 L151.0885,7 L150.3075,7 C149.7135,6.989 149.4825,6.769 149.4825,6.208 L149.4825,2.666 L148.7785,2.666 L148.7785,1.929 L149.4825,1.929 L149.4825,0.334 L150.3185,0.334 L150.3185,1.929 L151.0885,1.929 L151.0885,2.666 L150.3185,2.666 Z M153.1675,2.666 L153.1675,5.966 C153.1785,6.219 153.2445,6.274 153.5525,6.274 L153.9375,6.274 L153.9375,7 L153.1565,7 C152.5625,6.989 152.3315,6.769 152.3315,6.208 L152.3315,2.666 L151.6275,2.666 L151.6275,1.929 L152.3315,1.929 L152.3315,0.334 L153.1675,0.334 L153.1675,1.929 L153.9375,1.929 L153.9375,2.666 L153.1675,2.666 Z M157.3145,1.808 C158.8105,1.808 159.8775,2.919 159.8775,4.481 C159.8775,5.966 158.7335,7.121 157.2815,7.121 C155.7745,7.121 154.7185,6.021 154.7185,4.459 C154.7185,2.886 155.7745,1.808 157.3145,1.808 Z M157.3145,2.578 C156.2695,2.578 155.5765,3.337 155.5765,4.47 C155.5765,5.592 156.2695,6.351 157.3035,6.351 C158.3045,6.351 159.0195,5.57 159.0195,4.47 C159.0195,3.337 158.3375,2.578 157.3145,2.578 Z M161.1535,1.929 L161.9895,1.929 L161.9895,2.633 C162.3745,2.05 162.8035,1.808 163.4305,1.808 C164.1235,1.808 164.5635,2.105 164.7945,2.732 C165.1685,2.083 165.6415,1.808 166.4005,1.808 C166.9835,1.808 167.4235,1.995 167.6875,2.347 C167.9295,2.666 167.9955,2.952 167.9955,3.755 L167.9955,7 L167.1595,7 L167.1595,3.953 C167.1595,3.337 167.1375,3.194 167.0165,2.985 C166.8625,2.721 166.5325,2.556 166.1365,2.556 C165.3995,2.556 164.9925,3.051 164.9925,3.953 L164.9925,7 L164.1565,7 L164.1565,3.964 C164.1565,3.469 164.1125,3.216 163.9915,2.996 C163.8485,2.71 163.5405,2.556 163.1665,2.556 C162.4295,2.556 161.9895,3.084 161.9895,3.964 L161.9895,7 L161.1535,7 L161.1535,1.929 Z"/>
      <g transform="translate(80 15)">
        <rect width="1" height="14" x="4" y="1"/>
        <rect width="9" height="1"/>
        <rect width="9" height="1" y="15"/>
      </g>
    </g>
    <g fill="#C41261" transform="translate(7 56)">
      <g transform="rotate(90 38 38)">
        <rect width="59" height="1" y="2"/>
        <polygon points="61.5 0 64 5 59 5" transform="rotate(90 61.5 2.5)"/>
      </g>
      <path fill-rule="nonzero" d="M5.569 48.131L5.569 49 4.733 49 4.733 41.663 5.569 41.663 5.569 44.798C6.075 44.105 6.614 43.808 7.351 43.808 8.77 43.808 9.76 44.908 9.76 46.481 9.76 48.032 8.781 49.121 7.395 49.121 6.614 49.121 6.064 48.824 5.569 48.131zM7.241 44.556C6.273 44.556 5.558 45.359 5.558 46.47 5.558 47.625 6.218 48.395 7.208 48.395 8.209 48.395 8.88 47.636 8.88 46.503 8.88 45.37 8.198 44.556 7.241 44.556zM13.225 43.808C14.721 43.808 15.788 44.919 15.788 46.481 15.788 47.966 14.644 49.121 13.192 49.121 11.685 49.121 10.629 48.021 10.629 46.459 10.629 44.886 11.685 43.808 13.225 43.808zM13.225 44.578C12.18 44.578 11.487 45.337 11.487 46.47 11.487 47.592 12.18 48.351 13.214 48.351 14.215 48.351 14.93 47.57 14.93 46.47 14.93 45.337 14.248 44.578 13.225 44.578zM17.955 44.666L17.955 47.966C17.966 48.219 18.032 48.274 18.34 48.274L18.725 48.274 18.725 49 17.944 49C17.35 48.989 17.119 48.769 17.119 48.208L17.119 44.666 16.415 44.666 16.415 43.929 17.119 43.929 17.119 42.334 17.955 42.334 17.955 43.929 18.725 43.929 18.725 44.666 17.955 44.666zM20.804 44.666L20.804 47.966C20.815 48.219 20.881 48.274 21.189 48.274L21.574 48.274 21.574 49 20.793 49C20.199 48.989 19.968 48.769 19.968 48.208L19.968 44.666 19.264 44.666 19.264 43.929 19.968 43.929 19.968 42.334 20.804 42.334 20.804 43.929 21.574 43.929 21.574 44.666 20.804 44.666zM24.951 43.808C26.447 43.808 27.514 44.919 27.514 46.481 27.514 47.966 26.37 49.121 24.918 49.121 23.411 49.121 22.355 48.021 22.355 46.459 22.355 44.886 23.411 43.808 24.951 43.808zM24.951 44.578C23.906 44.578 23.213 45.337 23.213 46.47 23.213 47.592 23.906 48.351 24.94 48.351 25.941 48.351 26.656 47.57 26.656 46.47 26.656 45.337 25.974 44.578 24.951 44.578zM28.79 43.929L29.626 43.929 29.626 44.633C30.011 44.05 30.44 43.808 31.067 43.808 31.76 43.808 32.2 44.105 32.431 44.732 32.805 44.083 33.278 43.808 34.037 43.808 34.62 43.808 35.06 43.995 35.324 44.347 35.566 44.666 35.632 44.952 35.632 45.755L35.632 49 34.796 49 34.796 45.953C34.796 45.337 34.774 45.194 34.653 44.985 34.499 44.721 34.169 44.556 33.773 44.556 33.036 44.556 32.629 45.051 32.629 45.953L32.629 49 31.793 49 31.793 45.964C31.793 45.469 31.749 45.216 31.628 44.996 31.485 44.71 31.177 44.556 30.803 44.556 30.066 44.556 29.626 45.084 29.626 45.964L29.626 49 28.79 49 28.79 43.929zM44.41 44.765L44.41 43.929 45.246 43.929 45.246 49 44.41 49 44.41 48.021C43.904 48.78 43.332 49.121 42.562 49.121 41.165 49.121 40.175 48.021 40.175 46.481 40.175 44.93 41.187 43.808 42.584 43.808 43.354 43.808 43.915 44.105 44.41 44.765zM42.705 44.556C42.155 44.556 41.77 44.743 41.473 45.161 41.209 45.524 41.055 46.008 41.055 46.503 41.055 47.581 41.759 48.395 42.683 48.395 43.64 48.395 44.421 47.504 44.421 46.415 44.421 45.315 43.717 44.556 42.705 44.556zM47.765 49L46.929 49 46.929 41.663 47.765 41.663 47.765 49zM50.284 43.929L50.284 49 49.448 49 49.448 43.929 50.284 43.929zM49.877 41.96C50.174 41.96 50.405 42.202 50.405 42.51 50.405 42.807 50.163 43.038 49.866 43.038 49.569 43.038 49.338 42.807 49.338 42.499 49.338 42.191 49.569 41.96 49.877 41.96zM55.718 44.798L55.718 43.929 56.554 43.929 56.554 49.033C56.554 49.88 56.345 50.452 55.883 50.892 55.432 51.332 54.783 51.563 54.013 51.563 53.067 51.563 52.319 51.255 51.769 50.639L52.341 50.067C52.572 50.309 52.682 50.408 52.825 50.507 53.111 50.683 53.584 50.804 54.013 50.804 54.541 50.804 55.047 50.617 55.333 50.309 55.586 50.034 55.718 49.627 55.718 49.099L55.718 48.032C55.223 48.78 54.64 49.121 53.848 49.121 52.506 49.121 51.505 47.988 51.505 46.481 51.505 45.667 51.802 44.886 52.308 44.402 52.715 44.006 53.265 43.808 53.914 43.808 54.684 43.808 55.201 44.094 55.718 44.798zM54.068 44.578C53.078 44.578 52.385 45.348 52.385 46.448 52.385 47.537 53.089 48.351 54.046 48.351 54.53 48.351 55.003 48.12 55.333 47.735 55.553 47.482 55.696 46.987 55.696 46.481 55.696 45.821 55.597 45.469 55.3 45.139 54.992 44.798 54.519 44.578 54.068 44.578zM58.237 43.929L59.073 43.929 59.073 44.644C59.513 44.05 59.953 43.808 60.58 43.808 61.042 43.808 61.46 43.962 61.757 44.226 62.076 44.534 62.186 44.886 62.186 45.579L62.186 49 61.35 49 61.35 45.766C61.35 45.315 61.295 45.073 61.163 44.897 61.009 44.688 60.712 44.556 60.371 44.556 59.997 44.556 59.656 44.699 59.403 44.985 59.161 45.249 59.073 45.491 59.073 45.909L59.073 49 58.237 49 58.237 43.929zM9.859 54.929L9.859 60 9.023 60 9.023 54.929 9.859 54.929zM9.452 52.96C9.749 52.96 9.98 53.202 9.98 53.51 9.98 53.807 9.738 54.038 9.441 54.038 9.144 54.038 8.913 53.807 8.913 53.499 8.913 53.191 9.144 52.96 9.452 52.96zM11.542 54.929L12.378 54.929 12.378 55.644C12.818 55.05 13.258 54.808 13.885 54.808 14.347 54.808 14.765 54.962 15.062 55.226 15.381 55.534 15.491 55.886 15.491 56.579L15.491 60 14.655 60 14.655 56.766C14.655 56.315 14.6 56.073 14.468 55.897 14.314 55.688 14.017 55.556 13.676 55.556 13.302 55.556 12.961 55.699 12.708 55.985 12.466 56.249 12.378 56.491 12.378 56.909L12.378 60 11.542 60 11.542 54.929zM23.873 58.801L24.39 59.373C23.818 59.89 23.257 60.121 22.52 60.121 21.068 60.121 20.034 59.021 20.034 57.481 20.034 55.908 21.079 54.808 22.564 54.808 23.29 54.808 23.884 55.05 24.412 55.567L23.873 56.106C23.488 55.754 23.059 55.578 22.586 55.578 21.585 55.578 20.892 56.348 20.892 57.448 20.892 58.57 21.585 59.351 22.575 59.351 23.07 59.351 23.466 59.186 23.873 58.801zM27.657 54.808C29.153 54.808 30.22 55.919 30.22 57.481 30.22 58.966 29.076 60.121 27.624 60.121 26.117 60.121 25.061 59.021 25.061 57.459 25.061 55.886 26.117 54.808 27.657 54.808zM27.657 55.578C26.612 55.578 25.919 56.337 25.919 57.47 25.919 58.592 26.612 59.351 27.646 59.351 28.647 59.351 29.362 58.57 29.362 57.47 29.362 56.337 28.68 55.578 27.657 55.578zM31.496 54.929L32.332 54.929 32.332 55.644C32.772 55.05 33.212 54.808 33.839 54.808 34.301 54.808 34.719 54.962 35.016 55.226 35.335 55.534 35.445 55.886 35.445 56.579L35.445 60 34.609 60 34.609 56.766C34.609 56.315 34.554 56.073 34.422 55.897 34.268 55.688 33.971 55.556 33.63 55.556 33.256 55.556 32.915 55.699 32.662 55.985 32.42 56.249 32.332 56.491 32.332 56.909L32.332 60 31.496 60 31.496 54.929zM37.986 55.666L37.986 58.966C37.997 59.219 38.063 59.274 38.371 59.274L38.756 59.274 38.756 60 37.975 60C37.381 59.989 37.15 59.769 37.15 59.208L37.15 55.666 36.446 55.666 36.446 54.929 37.15 54.929 37.15 53.334 37.986 53.334 37.986 54.929 38.756 54.929 38.756 55.666 37.986 55.666zM43.772 55.765L43.772 54.929 44.608 54.929 44.608 60 43.772 60 43.772 59.021C43.266 59.78 42.694 60.121 41.924 60.121 40.527 60.121 39.537 59.021 39.537 57.481 39.537 55.93 40.549 54.808 41.946 54.808 42.716 54.808 43.277 55.105 43.772 55.765zM42.067 55.556C41.517 55.556 41.132 55.743 40.835 56.161 40.571 56.524 40.417 57.008 40.417 57.503 40.417 58.581 41.121 59.395 42.045 59.395 43.002 59.395 43.783 58.504 43.783 57.415 43.783 56.315 43.079 55.556 42.067 55.556zM47.127 54.929L47.127 60 46.291 60 46.291 54.929 47.127 54.929zM46.72 52.96C47.017 52.96 47.248 53.202 47.248 53.51 47.248 53.807 47.006 54.038 46.709 54.038 46.412 54.038 46.181 53.807 46.181 53.499 46.181 53.191 46.412 52.96 46.72 52.96zM48.81 54.929L49.646 54.929 49.646 55.644C50.086 55.05 50.526 54.808 51.153 54.808 51.615 54.808 52.033 54.962 52.33 55.226 52.649 55.534 52.759 55.886 52.759 56.579L52.759 60 51.923 60 51.923 56.766C51.923 56.315 51.868 56.073 51.736 55.897 51.582 55.688 51.285 55.556 50.944 55.556 50.57 55.556 50.229 55.699 49.976 55.985 49.734 56.249 49.646 56.491 49.646 56.909L49.646 60 48.81 60 48.81 54.929zM59.117 57.734L54.893 57.734C54.937 58.163 55.014 58.383 55.223 58.658 55.553 59.109 56.037 59.351 56.587 59.351 57.214 59.351 57.808 59.01 58.105 58.482L58.842 58.757C58.424 59.604 57.555 60.121 56.587 60.121 55.08 60.121 54.002 59.021 54.002 57.481 54.002 55.919 55.069 54.808 56.554 54.808 58.028 54.808 59.128 55.919 59.128 57.404 59.128 57.47 59.128 57.613 59.117 57.734zM54.904 57.118L58.237 57.118C58.204 56.722 58.127 56.502 57.951 56.249 57.632 55.82 57.115 55.556 56.554 55.556 55.993 55.556 55.487 55.82 55.19 56.26 55.036 56.502 54.97 56.711 54.904 57.118zM60.338 54.929L61.174 54.929 61.174 55.787C61.328 55.424 61.438 55.27 61.636 55.116 61.889 54.918 62.241 54.808 62.604 54.808L62.802 54.808 62.802 55.655C62.714 55.644 62.626 55.644 62.571 55.644 62.12 55.644 61.724 55.853 61.471 56.227 61.251 56.546 61.174 56.843 61.174 57.426L61.174 60 60.338 60 60.338 54.929zM191.5715 74.699L191.5715 71.663 192.4075 71.663 192.4075 79 191.5715 79 191.5715 78.131C191.0655 78.824 190.5265 79.121 189.7565 79.121 188.3595 79.121 187.3695 78.032 187.3695 76.492 187.3695 74.952 188.3815 73.808 189.7565 73.808 190.5045 73.808 191.0765 74.083 191.5715 74.699zM189.9325 74.556C188.9315 74.556 188.2495 75.348 188.2495 76.503 188.2495 77.614 188.9205 78.395 189.8775 78.395 190.8565 78.395 191.5715 77.581 191.5715 76.481 191.5715 75.337 190.9005 74.556 189.9325 74.556zM195.5755 77.691L197.0935 73.929 198.0065 73.929 194.9815 81.442 194.0685 81.442 195.1245 78.846 193.3205 73.929 194.2115 73.929 195.5755 77.691zM198.9085 73.929L199.7445 73.929 199.7445 74.644C200.1845 74.05 200.6245 73.808 201.2515 73.808 201.7135 73.808 202.1315 73.962 202.4285 74.226 202.7475 74.534 202.8575 74.886 202.8575 75.579L202.8575 79 202.0215 79 202.0215 75.766C202.0215 75.315 201.9665 75.073 201.8345 74.897 201.6805 74.688 201.3835 74.556 201.0425 74.556 200.6685 74.556 200.3275 74.699 200.0745 74.985 199.8325 75.249 199.7445 75.491 199.7445 75.909L199.7445 79 198.9085 79 198.9085 73.929zM208.3355 74.765L208.3355 73.929 209.1715 73.929 209.1715 79 208.3355 79 208.3355 78.021C207.8295 78.78 207.2575 79.121 206.4875 79.121 205.0905 79.121 204.1005 78.021 204.1005 76.481 204.1005 74.93 205.1125 73.808 206.5095 73.808 207.2795 73.808 207.8405 74.105 208.3355 74.765zM206.6305 74.556C206.0805 74.556 205.6955 74.743 205.3985 75.161 205.1345 75.524 204.9805 76.008 204.9805 76.503 204.9805 77.581 205.6845 78.395 206.6085 78.395 207.5655 78.395 208.3465 77.504 208.3465 76.415 208.3465 75.315 207.6425 74.556 206.6305 74.556zM210.8545 73.929L211.6905 73.929 211.6905 74.633C212.0755 74.05 212.5045 73.808 213.1315 73.808 213.8245 73.808 214.2645 74.105 214.4955 74.732 214.8695 74.083 215.3425 73.808 216.1015 73.808 216.6845 73.808 217.1245 73.995 217.3885 74.347 217.6305 74.666 217.6965 74.952 217.6965 75.755L217.6965 79 216.8605 79 216.8605 75.953C216.8605 75.337 216.8385 75.194 216.7175 74.985 216.5635 74.721 216.2335 74.556 215.8375 74.556 215.1005 74.556 214.6935 75.051 214.6935 75.953L214.6935 79 213.8575 79 213.8575 75.964C213.8575 75.469 213.8135 75.216 213.6925 74.996 213.5495 74.71 213.2415 74.556 212.8675 74.556 212.1305 74.556 211.6905 75.084 211.6905 75.964L211.6905 79 210.8545 79 210.8545 73.929zM220.1825 73.929L220.1825 79 219.3465 79 219.3465 73.929 220.1825 73.929zM219.7755 71.96C220.0725 71.96 220.3035 72.202 220.3035 72.51 220.3035 72.807 220.0615 73.038 219.7645 73.038 219.4675 73.038 219.2365 72.807 219.2365 72.499 219.2365 72.191 219.4675 71.96 219.7755 71.96zM225.2975 77.801L225.8145 78.373C225.2425 78.89 224.6815 79.121 223.9445 79.121 222.4925 79.121 221.4585 78.021 221.4585 76.481 221.4585 74.908 222.5035 73.808 223.9885 73.808 224.7145 73.808 225.3085 74.05 225.8365 74.567L225.2975 75.106C224.9125 74.754 224.4835 74.578 224.0105 74.578 223.0095 74.578 222.3165 75.348 222.3165 76.448 222.3165 77.57 223.0095 78.351 223.9995 78.351 224.4945 78.351 224.8905 78.186 225.2975 77.801zM236.0445 73.929L236.9025 73.929 235.0985 79 234.3395 79 233.1735 75.15 231.9525 79 231.1605 79 229.4225 73.929 230.2805 73.929 231.5785 77.658 232.7445 73.929 233.5695 73.929 234.7135 77.658 236.0445 73.929zM238.6405 73.929L238.6405 79 237.8045 79 237.8045 73.929 238.6405 73.929zM238.2335 71.96C238.5305 71.96 238.7615 72.202 238.7615 72.51 238.7615 72.807 238.5195 73.038 238.2225 73.038 237.9255 73.038 237.6945 72.807 237.6945 72.499 237.6945 72.191 237.9255 71.96 238.2335 71.96zM244.1185 74.699L244.1185 71.663 244.9545 71.663 244.9545 79 244.1185 79 244.1185 78.131C243.6125 78.824 243.0735 79.121 242.3035 79.121 240.9065 79.121 239.9165 78.032 239.9165 76.492 239.9165 74.952 240.9285 73.808 242.3035 73.808 243.0515 73.808 243.6235 74.083 244.1185 74.699zM242.4795 74.556C241.4785 74.556 240.7965 75.348 240.7965 76.503 240.7965 77.614 241.4675 78.395 242.4245 78.395 243.4035 78.395 244.1185 77.581 244.1185 76.481 244.1185 75.337 243.4475 74.556 242.4795 74.556zM247.5285 74.666L247.5285 77.966C247.5395 78.219 247.6055 78.274 247.9135 78.274L248.2985 78.274 248.2985 79 247.5175 79C246.9235 78.989 246.6925 78.769 246.6925 78.208L246.6925 74.666 245.9885 74.666 245.9885 73.929 246.6925 73.929 246.6925 72.334 247.5285 72.334 247.5285 73.929 248.2985 73.929 248.2985 74.666 247.5285 74.666zM250.3225 71.663L250.3225 74.633C250.7845 74.061 251.2465 73.808 251.8515 73.808 252.2915 73.808 252.7535 73.984 253.0285 74.27 253.3035 74.545 253.4245 74.941 253.4245 75.59L253.4245 79 252.5885 79 252.5885 75.634C252.5885 74.941 252.2475 74.556 251.6425 74.556 251.2575 74.556 250.9165 74.71 250.6525 75.007 250.3995 75.293 250.3225 75.546 250.3225 76.03L250.3225 79 249.4865 79 249.4865 71.663 250.3225 71.663zM259.2105 78.131L259.2105 79 258.3745 79 258.3745 71.663 259.2105 71.663 259.2105 74.798C259.7165 74.105 260.2555 73.808 260.9925 73.808 262.4115 73.808 263.4015 74.908 263.4015 76.481 263.4015 78.032 262.4225 79.121 261.0365 79.121 260.2555 79.121 259.7055 78.824 259.2105 78.131zM260.8825 74.556C259.9145 74.556 259.1995 75.359 259.1995 76.47 259.1995 77.625 259.8595 78.395 260.8495 78.395 261.8505 78.395 262.5215 77.636 262.5215 76.503 262.5215 75.37 261.8395 74.556 260.8825 74.556zM268.5055 74.765L268.5055 73.929 269.3415 73.929 269.3415 79 268.5055 79 268.5055 78.021C267.9995 78.78 267.4275 79.121 266.6575 79.121 265.2605 79.121 264.2705 78.021 264.2705 76.481 264.2705 74.93 265.2825 73.808 266.6795 73.808 267.4495 73.808 268.0105 74.105 268.5055 74.765zM266.8005 74.556C266.2505 74.556 265.8655 74.743 265.5685 75.161 265.3045 75.524 265.1505 76.008 265.1505 76.503 265.1505 77.581 265.8545 78.395 266.7785 78.395 267.7355 78.395 268.5165 77.504 268.5165 76.415 268.5165 75.315 267.8125 74.556 266.8005 74.556zM274.2035 75.315L273.3675 75.315 273.3675 75.26C273.3675 74.787 272.9825 74.49 272.3995 74.49 271.8385 74.49 271.4865 74.776 271.4865 75.216 271.4865 75.656 271.7065 75.821 272.6195 76.074 273.2685 76.25 273.6095 76.415 273.8515 76.657 274.1045 76.91 274.2585 77.273 274.2585 77.647 274.2585 78.527 273.5325 79.121 272.4545 79.121 271.2995 79.121 270.6505 78.582 270.5625 77.559L271.3875 77.559C271.4425 78.131 271.8165 78.439 272.4545 78.439 273.0265 78.439 273.4005 78.142 273.4005 77.691 273.4005 77.251 273.1145 77.031 272.2455 76.811 271.1455 76.514 270.6505 76.052 270.6505 75.282 270.6505 74.402 271.3655 73.808 272.4325 73.808 273.5105 73.808 274.1595 74.358 274.2035 75.315zM280.2535 76.734L276.0295 76.734C276.0735 77.163 276.1505 77.383 276.3595 77.658 276.6895 78.109 277.1735 78.351 277.7235 78.351 278.3505 78.351 278.9445 78.01 279.2415 77.482L279.9785 77.757C279.5605 78.604 278.6915 79.121 277.7235 79.121 276.2165 79.121 275.1385 78.021 275.1385 76.481 275.1385 74.919 276.2055 73.808 277.6905 73.808 279.1645 73.808 280.2645 74.919 280.2645 76.404 280.2645 76.47 280.2645 76.613 280.2535 76.734zM276.0405 76.118L279.3735 76.118C279.3405 75.722 279.2635 75.502 279.0875 75.249 278.7685 74.82 278.2515 74.556 277.6905 74.556 277.1295 74.556 276.6235 74.82 276.3265 75.26 276.1725 75.502 276.1065 75.711 276.0405 76.118zM285.2695 74.699L285.2695 71.663 286.1055 71.663 286.1055 79 285.2695 79 285.2695 78.131C284.7635 78.824 284.2245 79.121 283.4545 79.121 282.0575 79.121 281.0675 78.032 281.0675 76.492 281.0675 74.952 282.0795 73.808 283.4545 73.808 284.2025 73.808 284.7745 74.083 285.2695 74.699zM283.6305 74.556C282.6295 74.556 281.9475 75.348 281.9475 76.503 281.9475 77.614 282.6185 78.395 283.5755 78.395 284.5545 78.395 285.2695 77.581 285.2695 76.481 285.2695 75.337 284.5985 74.556 283.6305 74.556zM293.2775 73.808C294.7735 73.808 295.8405 74.919 295.8405 76.481 295.8405 77.966 294.6965 79.121 293.2445 79.121 291.7375 79.121 290.6815 78.021 290.6815 76.459 290.6815 74.886 291.7375 73.808 293.2775 73.808zM293.2775 74.578C292.2325 74.578 291.5395 75.337 291.5395 76.47 291.5395 77.592 292.2325 78.351 293.2665 78.351 294.2675 78.351 294.9825 77.57 294.9825 76.47 294.9825 75.337 294.3005 74.578 293.2775 74.578zM297.1165 73.929L297.9525 73.929 297.9525 74.644C298.3925 74.05 298.8325 73.808 299.4595 73.808 299.9215 73.808 300.3395 73.962 300.6365 74.226 300.9555 74.534 301.0655 74.886 301.0655 75.579L301.0655 79 300.2295 79 300.2295 75.766C300.2295 75.315 300.1745 75.073 300.0425 74.897 299.8885 74.688 299.5915 74.556 299.2505 74.556 298.8765 74.556 298.5355 74.699 298.2825 74.985 298.0405 75.249 297.9525 75.491 297.9525 75.909L297.9525 79 297.1165 79 297.1165 73.929zM309.4475 77.801L309.9645 78.373C309.3925 78.89 308.8315 79.121 308.0945 79.121 306.6425 79.121 305.6085 78.021 305.6085 76.481 305.6085 74.908 306.6535 73.808 308.1385 73.808 308.8645 73.808 309.4585 74.05 309.9865 74.567L309.4475 75.106C309.0625 74.754 308.6335 74.578 308.1605 74.578 307.1595 74.578 306.4665 75.348 306.4665 76.448 306.4665 77.57 307.1595 78.351 308.1495 78.351 308.6445 78.351 309.0405 78.186 309.4475 77.801zM313.2315 73.808C314.7275 73.808 315.7945 74.919 315.7945 76.481 315.7945 77.966 314.6505 79.121 313.1985 79.121 311.6915 79.121 310.6355 78.021 310.6355 76.459 310.6355 74.886 311.6915 73.808 313.2315 73.808zM313.2315 74.578C312.1865 74.578 311.4935 75.337 311.4935 76.47 311.4935 77.592 312.1865 78.351 313.2205 78.351 314.2215 78.351 314.9365 77.57 314.9365 76.47 314.9365 75.337 314.2545 74.578 313.2315 74.578zM317.0705 73.929L317.9065 73.929 317.9065 74.644C318.3465 74.05 318.7865 73.808 319.4135 73.808 319.8755 73.808 320.2935 73.962 320.5905 74.226 320.9095 74.534 321.0195 74.886 321.0195 75.579L321.0195 79 320.1835 79 320.1835 75.766C320.1835 75.315 320.1285 75.073 319.9965 74.897 319.8425 74.688 319.5455 74.556 319.2045 74.556 318.8305 74.556 318.4895 74.699 318.2365 74.985 317.9945 75.249 317.9065 75.491 317.9065 75.909L317.9065 79 317.0705 79 317.0705 73.929zM323.5605 74.666L323.5605 77.966C323.5715 78.219 323.6375 78.274 323.9455 78.274L324.3305 78.274 324.3305 79 323.5495 79C322.9555 78.989 322.7245 78.769 322.7245 78.208L322.7245 74.666 322.0205 74.666 322.0205 73.929 322.7245 73.929 322.7245 72.334 323.5605 72.334 323.5605 73.929 324.3305 73.929 324.3305 74.666 323.5605 74.666zM330.2265 76.734L326.0025 76.734C326.0465 77.163 326.1235 77.383 326.3325 77.658 326.6625 78.109 327.1465 78.351 327.6965 78.351 328.3235 78.351 328.9175 78.01 329.2145 77.482L329.9515 77.757C329.5335 78.604 328.6645 79.121 327.6965 79.121 326.1895 79.121 325.1115 78.021 325.1115 76.481 325.1115 74.919 326.1785 73.808 327.6635 73.808 329.1375 73.808 330.2375 74.919 330.2375 76.404 330.2375 76.47 330.2375 76.613 330.2265 76.734zM326.0135 76.118L329.3465 76.118C329.3135 75.722 329.2365 75.502 329.0605 75.249 328.7415 74.82 328.2245 74.556 327.6635 74.556 327.1025 74.556 326.5965 74.82 326.2995 75.26 326.1455 75.502 326.0795 75.711 326.0135 76.118zM331.4475 73.929L332.2835 73.929 332.2835 74.644C332.7235 74.05 333.1635 73.808 333.7905 73.808 334.2525 73.808 334.6705 73.962 334.9675 74.226 335.2865 74.534 335.3965 74.886 335.3965 75.579L335.3965 79 334.5605 79 334.5605 75.766C334.5605 75.315 334.5055 75.073 334.3735 74.897 334.2195 74.688 333.9225 74.556 333.5815 74.556 333.2075 74.556 332.8665 74.699 332.6135 74.985 332.3715 75.249 332.2835 75.491 332.2835 75.909L332.2835 79 331.4475 79 331.4475 73.929zM337.9375 74.666L337.9375 77.966C337.9485 78.219 338.0145 78.274 338.3225 78.274L338.7075 78.274 338.7075 79 337.9265 79C337.3325 78.989 337.1015 78.769 337.1015 78.208L337.1015 74.666 336.3975 74.666 336.3975 73.929 337.1015 73.929 337.1015 72.334 337.9375 72.334 337.9375 73.929 338.7075 73.929 338.7075 74.666 337.9375 74.666z"/>
    </g>
  </g>
</svg>
