<svg xmlns="http://www.w3.org/2000/svg" width="580" height="180" viewBox="0 0 580 180">
  <g fill="none" fill-rule="evenodd">
    <rect width="580" height="180" fill="#FFF" fill-opacity=".01" fill-rule="nonzero"/>
    <g fill-rule="nonzero" stroke="#979797" transform="translate(4)">
      <polyline fill="#FFF" points="572 0 572 124 0 124 0 0 0 0"/>
      <path d="M200,0 L200,124"/>
    </g>
    <g transform="translate(282 29)">
      <rect width="213.953" height="48" x="1" y="31" fill="#25333D" rx="4"/>
      <g fill="#C41261">
        <path d="M1,47 L213,47 L213,1 L1,1 L1,47 Z M1,48 L0,48 L0,1 L0,0 L214,0 L214,1 L214,48 L213,48 L1,48 Z" transform="translate(0 31)"/>
        <path d="M1,79 L214,79 L214,1 L1,1 L1,79 Z M1,80 L0,80 L0,1 L0,0 L215,0 L215,1 L215,80 L214,80 L1,80 Z" transform="translate(0 15)"/>
        <path d="M26.0285,0.994 L24.4115,2.072 L24.4115,1.236 L26.8975,-0.392 L26.8975,7 L26.0285,7 L26.0285,0.994 Z M32.7825,-0.227 L30.9015,2.71 C31.2095,2.6 31.3525,2.567 31.6165,2.567 C32.8375,2.567 33.7835,3.524 33.7835,4.767 C33.7835,6.065 32.7165,7.132 31.4185,7.132 C30.1095,7.132 29.0975,6.098 29.0975,4.767 C29.0975,4.228 29.2405,3.821 29.6585,3.15 L31.7595,-0.227 L32.7825,-0.227 Z M31.4625,3.315 C30.6265,3.315 29.9665,3.953 29.9665,4.767 C29.9665,5.625 30.6155,6.307 31.4405,6.307 C32.2655,6.307 32.9255,5.636 32.9255,4.8 C32.9255,3.975 32.2765,3.315 31.4625,3.315 Z M38.8215,2.699 L38.8215,-0.337 L39.6575,-0.337 L39.6575,7 L38.8215,7 L38.8215,6.131 C38.3155,6.824 37.7765,7.121 37.0065,7.121 C35.6095,7.121 34.6195,6.032 34.6195,4.492 C34.6195,2.952 35.6315,1.808 37.0065,1.808 C37.7545,1.808 38.3265,2.083 38.8215,2.699 Z M37.1825,2.556 C36.1815,2.556 35.4995,3.348 35.4995,4.503 C35.4995,5.614 36.1705,6.395 37.1275,6.395 C38.1065,6.395 38.8215,5.581 38.8215,4.481 C38.8215,3.337 38.1505,2.556 37.1825,2.556 Z M41.3405,1.929 L42.1765,1.929 L42.1765,2.853 C42.6605,2.105 43.1775,1.808 44.0245,1.808 C45.4325,1.808 46.4115,2.886 46.4115,4.426 C46.4115,6.021 45.4325,7.121 44.0245,7.121 C43.6285,7.121 43.2655,7.033 42.9135,6.857 C42.6055,6.703 42.4515,6.571 42.1765,6.208 L42.1765,9.376 L41.3405,9.376 L41.3405,1.929 Z M43.8815,2.556 C42.8695,2.556 42.1765,3.359 42.1765,4.547 C42.1765,5.658 42.8475,6.395 43.8485,6.395 C44.8495,6.395 45.5205,5.614 45.5205,4.459 C45.5205,3.865 45.3775,3.414 45.0805,3.084 C44.7835,2.754 44.3325,2.556 43.8815,2.556 Z M51.9005,2.666 L51.9005,7 L51.0645,7 L51.0645,2.666 L50.3715,2.666 L50.3715,1.929 L51.0645,1.929 L51.0645,1.247 C51.0645,0.246 51.5815,-0.348 52.4615,-0.348 C52.5055,-0.348 52.6045,-0.348 52.6925,-0.337 L52.6925,0.411 C52.0875,0.477 51.9225,0.653 51.9005,1.247 L51.9005,1.929 L52.6925,1.929 L52.6925,2.666 L51.9005,2.666 Z M54.8925,1.929 L54.8925,7 L54.0565,7 L54.0565,1.929 L54.8925,1.929 Z M54.4745,-0.04 C54.7715,-0.04 55.0025,0.202 55.0025,0.51 C55.0025,0.807 54.7715,1.038 54.4745,1.038 C54.1665,1.038 53.9355,0.807 53.9355,0.499 C53.9355,0.191 54.1665,-0.04 54.4745,-0.04 Z M58.1925,5.163 L56.8395,7 L55.8165,7 L57.6865,4.481 L55.7835,1.929 L56.8395,1.929 L58.1925,3.788 L59.5785,1.929 L60.6015,1.929 L58.6875,4.481 L60.5135,7 L59.4905,7 L58.1925,5.163 Z M66.1895,4.734 L61.9655,4.734 C62.0095,5.163 62.0865,5.383 62.2955,5.658 C62.6255,6.109 63.1095,6.351 63.6595,6.351 C64.2865,6.351 64.8805,6.01 65.1775,5.482 L65.9145,5.757 C65.4965,6.604 64.6275,7.121 63.6595,7.121 C62.1525,7.121 61.0745,6.021 61.0745,4.481 C61.0745,2.919 62.1415,1.808 63.6265,1.808 C65.1005,1.808 66.2005,2.919 66.2005,4.404 C66.2005,4.47 66.2005,4.613 66.1895,4.734 Z M61.9765,4.118 L65.3095,4.118 C65.2765,3.722 65.1995,3.502 65.0235,3.249 C64.7045,2.82 64.1875,2.556 63.6265,2.556 C63.0655,2.556 62.5595,2.82 62.2625,3.26 C62.1085,3.502 62.0425,3.711 61.9765,4.118 Z M71.2055,2.699 L71.2055,-0.337 L72.0415,-0.337 L72.0415,7 L71.2055,7 L71.2055,6.131 C70.6995,6.824 70.1605,7.121 69.3905,7.121 C67.9935,7.121 67.0035,6.032 67.0035,4.492 C67.0035,2.952 68.0155,1.808 69.3905,1.808 C70.1385,1.808 70.7105,2.083 71.2055,2.699 Z M69.5665,2.556 C68.5655,2.556 67.8835,3.348 67.8835,4.503 C67.8835,5.614 68.5545,6.395 69.5115,6.395 C70.4905,6.395 71.2055,5.581 71.2055,4.481 C71.2055,3.337 70.5345,2.556 69.5665,2.556 Z M77.0245,1.929 L77.8605,1.929 L77.8605,2.853 C78.3445,2.105 78.8615,1.808 79.7085,1.808 C81.1165,1.808 82.0955,2.886 82.0955,4.426 C82.0955,6.021 81.1165,7.121 79.7085,7.121 C79.3125,7.121 78.9495,7.033 78.5975,6.857 C78.2895,6.703 78.1355,6.571 77.8605,6.208 L77.8605,9.376 L77.0245,9.376 L77.0245,1.929 Z M79.5655,2.556 C78.5535,2.556 77.8605,3.359 77.8605,4.547 C77.8605,5.658 78.5315,6.395 79.5325,6.395 C80.5335,6.395 81.2045,5.614 81.2045,4.459 C81.2045,3.865 81.0615,3.414 80.7645,3.084 C80.4675,2.754 80.0165,2.556 79.5655,2.556 Z M87.1885,2.765 L87.1885,1.929 L88.0245,1.929 L88.0245,7 L87.1885,7 L87.1885,6.021 C86.6825,6.78 86.1105,7.121 85.3405,7.121 C83.9435,7.121 82.9535,6.021 82.9535,4.481 C82.9535,2.93 83.9655,1.808 85.3625,1.808 C86.1325,1.808 86.6935,2.105 87.1885,2.765 Z M85.4835,2.556 C84.9335,2.556 84.5485,2.743 84.2515,3.161 C83.9875,3.524 83.8335,4.008 83.8335,4.503 C83.8335,5.581 84.5375,6.395 85.4615,6.395 C86.4185,6.395 87.1995,5.504 87.1995,4.415 C87.1995,3.315 86.4955,2.556 85.4835,2.556 Z M93.5025,2.699 L93.5025,-0.337 L94.3385,-0.337 L94.3385,7 L93.5025,7 L93.5025,6.131 C92.9965,6.824 92.4575,7.121 91.6875,7.121 C90.2905,7.121 89.3005,6.032 89.3005,4.492 C89.3005,2.952 90.3125,1.808 91.6875,1.808 C92.4355,1.808 93.0075,2.083 93.5025,2.699 Z M91.8635,2.556 C90.8625,2.556 90.1805,3.348 90.1805,4.503 C90.1805,5.614 90.8515,6.395 91.8085,6.395 C92.7875,6.395 93.5025,5.581 93.5025,4.481 C93.5025,3.337 92.8315,2.556 91.8635,2.556 Z M99.8165,2.699 L99.8165,-0.337 L100.6525,-0.337 L100.6525,7 L99.8165,7 L99.8165,6.131 C99.3105,6.824 98.7715,7.121 98.0015,7.121 C96.6045,7.121 95.6145,6.032 95.6145,4.492 C95.6145,2.952 96.6265,1.808 98.0015,1.808 C98.7495,1.808 99.3215,2.083 99.8165,2.699 Z M98.1775,2.556 C97.1765,2.556 96.4945,3.348 96.4945,4.503 C96.4945,5.614 97.1655,6.395 98.1225,6.395 C99.1015,6.395 99.8165,5.581 99.8165,4.481 C99.8165,3.337 99.1455,2.556 98.1775,2.556 Z M103.1715,1.929 L103.1715,7 L102.3355,7 L102.3355,1.929 L103.1715,1.929 Z M102.7645,-0.04 C103.0615,-0.04 103.2925,0.202 103.2925,0.51 C103.2925,0.807 103.0505,1.038 102.7535,1.038 C102.4565,1.038 102.2255,0.807 102.2255,0.499 C102.2255,0.191 102.4565,-0.04 102.7645,-0.04 Z M104.8545,1.929 L105.6905,1.929 L105.6905,2.644 C106.1305,2.05 106.5705,1.808 107.1975,1.808 C107.6595,1.808 108.0775,1.962 108.3745,2.226 C108.6935,2.534 108.8035,2.886 108.8035,3.579 L108.8035,7 L107.9675,7 L107.9675,3.766 C107.9675,3.315 107.9125,3.073 107.7805,2.897 C107.6265,2.688 107.3295,2.556 106.9885,2.556 C106.6145,2.556 106.2735,2.699 106.0205,2.985 C105.7785,3.249 105.6905,3.491 105.6905,3.909 L105.6905,7 L104.8545,7 L104.8545,1.929 Z M114.2045,2.798 L114.2045,1.929 L115.0405,1.929 L115.0405,7.033 C115.0405,7.88 114.8315,8.452 114.3695,8.892 C113.9185,9.332 113.2695,9.563 112.4995,9.563 C111.5535,9.563 110.8055,9.255 110.2555,8.639 L110.8275,8.067 C111.0585,8.309 111.1685,8.408 111.3115,8.507 C111.5975,8.683 112.0705,8.804 112.4995,8.804 C113.0275,8.804 113.5335,8.617 113.8195,8.309 C114.0725,8.034 114.2045,7.627 114.2045,7.099 L114.2045,6.032 C113.7095,6.78 113.1265,7.121 112.3345,7.121 C110.9925,7.121 109.9915,5.988 109.9915,4.481 C109.9915,3.667 110.2885,2.886 110.7945,2.402 C111.2015,2.006 111.7515,1.808 112.4005,1.808 C113.1705,1.808 113.6875,2.094 114.2045,2.798 Z M112.5545,2.578 C111.5645,2.578 110.8715,3.348 110.8715,4.448 C110.8715,5.537 111.5755,6.351 112.5325,6.351 C113.0165,6.351 113.4895,6.12 113.8195,5.735 C114.0395,5.482 114.1825,4.987 114.1825,4.481 C114.1825,3.821 114.0835,3.469 113.7865,3.139 C113.4785,2.798 113.0055,2.578 112.5545,2.578 Z M120.9145,2.666 L120.9145,5.966 C120.9255,6.219 120.9915,6.274 121.2995,6.274 L121.6845,6.274 L121.6845,7 L120.9035,7 C120.3095,6.989 120.0785,6.769 120.0785,6.208 L120.0785,2.666 L119.3745,2.666 L119.3745,1.929 L120.0785,1.929 L120.0785,0.334 L120.9145,0.334 L120.9145,1.929 L121.6845,1.929 L121.6845,2.666 L120.9145,2.666 Z M125.0615,1.808 C126.5575,1.808 127.6245,2.919 127.6245,4.481 C127.6245,5.966 126.4805,7.121 125.0285,7.121 C123.5215,7.121 122.4655,6.021 122.4655,4.459 C122.4655,2.886 123.5215,1.808 125.0615,1.808 Z M125.0615,2.578 C124.0165,2.578 123.3235,3.337 123.3235,4.47 C123.3235,5.592 124.0165,6.351 125.0505,6.351 C126.0515,6.351 126.7665,5.57 126.7665,4.47 C126.7665,3.337 126.0845,2.578 125.0615,2.578 Z M128.9005,1.929 L129.7365,1.929 L129.7365,2.853 C130.2205,2.105 130.7375,1.808 131.5845,1.808 C132.9925,1.808 133.9715,2.886 133.9715,4.426 C133.9715,6.021 132.9925,7.121 131.5845,7.121 C131.1885,7.121 130.8255,7.033 130.4735,6.857 C130.1655,6.703 130.0115,6.571 129.7365,6.208 L129.7365,9.376 L128.9005,9.376 L128.9005,1.929 Z M131.4415,2.556 C130.4295,2.556 129.7365,3.359 129.7365,4.547 C129.7365,5.658 130.4075,6.395 131.4085,6.395 C132.4095,6.395 133.0805,5.614 133.0805,4.459 C133.0805,3.865 132.9375,3.414 132.6405,3.084 C132.3435,2.754 131.8925,2.556 131.4415,2.556 Z M142.3645,2.765 L142.3645,1.929 L143.2005,1.929 L143.2005,7 L142.3645,7 L142.3645,6.021 C141.8585,6.78 141.2865,7.121 140.5165,7.121 C139.1195,7.121 138.1295,6.021 138.1295,4.481 C138.1295,2.93 139.1415,1.808 140.5385,1.808 C141.3085,1.808 141.8695,2.105 142.3645,2.765 Z M140.6595,2.556 C140.1095,2.556 139.7245,2.743 139.4275,3.161 C139.1635,3.524 139.0095,4.008 139.0095,4.503 C139.0095,5.581 139.7135,6.395 140.6375,6.395 C141.5945,6.395 142.3755,5.504 142.3755,4.415 C142.3755,3.315 141.6715,2.556 140.6595,2.556 Z M144.8835,1.929 L145.7195,1.929 L145.7195,2.644 C146.1595,2.05 146.5995,1.808 147.2265,1.808 C147.6885,1.808 148.1065,1.962 148.4035,2.226 C148.7225,2.534 148.8325,2.886 148.8325,3.579 L148.8325,7 L147.9965,7 L147.9965,3.766 C147.9965,3.315 147.9415,3.073 147.8095,2.897 C147.6555,2.688 147.3585,2.556 147.0175,2.556 C146.6435,2.556 146.3025,2.699 146.0495,2.985 C145.8075,3.249 145.7195,3.491 145.7195,3.909 L145.7195,7 L144.8835,7 L144.8835,1.929 Z M154.2775,2.699 L154.2775,-0.337 L155.1135,-0.337 L155.1135,7 L154.2775,7 L154.2775,6.131 C153.7715,6.824 153.2325,7.121 152.4625,7.121 C151.0655,7.121 150.0755,6.032 150.0755,4.492 C150.0755,2.952 151.0875,1.808 152.4625,1.808 C153.2105,1.808 153.7825,2.083 154.2775,2.699 Z M152.6385,2.556 C151.6375,2.556 150.9555,3.348 150.9555,4.503 C150.9555,5.614 151.6265,6.395 152.5835,6.395 C153.5625,6.395 154.2775,5.581 154.2775,4.481 C154.2775,3.337 153.6065,2.556 152.6385,2.556 Z M160.9325,6.131 L160.9325,7 L160.0965,7 L160.0965,-0.337 L160.9325,-0.337 L160.9325,2.798 C161.4385,2.105 161.9775,1.808 162.7145,1.808 C164.1335,1.808 165.1235,2.908 165.1235,4.481 C165.1235,6.032 164.1445,7.121 162.7585,7.121 C161.9775,7.121 161.4275,6.824 160.9325,6.131 Z M162.6045,2.556 C161.6365,2.556 160.9215,3.359 160.9215,4.47 C160.9215,5.625 161.5815,6.395 162.5715,6.395 C163.5725,6.395 164.2435,5.636 164.2435,4.503 C164.2435,3.37 163.5615,2.556 162.6045,2.556 Z M168.5885,1.808 C170.0845,1.808 171.1515,2.919 171.1515,4.481 C171.1515,5.966 170.0075,7.121 168.5555,7.121 C167.0485,7.121 165.9925,6.021 165.9925,4.459 C165.9925,2.886 167.0485,1.808 168.5885,1.808 Z M168.5885,2.578 C167.5435,2.578 166.8505,3.337 166.8505,4.47 C166.8505,5.592 167.5435,6.351 168.5775,6.351 C169.5785,6.351 170.2935,5.57 170.2935,4.47 C170.2935,3.337 169.6115,2.578 168.5885,2.578 Z M173.3185,2.666 L173.3185,5.966 C173.3295,6.219 173.3955,6.274 173.7035,6.274 L174.0885,6.274 L174.0885,7 L173.3075,7 C172.7135,6.989 172.4825,6.769 172.4825,6.208 L172.4825,2.666 L171.7785,2.666 L171.7785,1.929 L172.4825,1.929 L172.4825,0.334 L173.3185,0.334 L173.3185,1.929 L174.0885,1.929 L174.0885,2.666 L173.3185,2.666 Z M176.1675,2.666 L176.1675,5.966 C176.1785,6.219 176.2445,6.274 176.5525,6.274 L176.9375,6.274 L176.9375,7 L176.1565,7 C175.5625,6.989 175.3315,6.769 175.3315,6.208 L175.3315,2.666 L174.6275,2.666 L174.6275,1.929 L175.3315,1.929 L175.3315,0.334 L176.1675,0.334 L176.1675,1.929 L176.9375,1.929 L176.9375,2.666 L176.1675,2.666 Z M180.3145,1.808 C181.8105,1.808 182.8775,2.919 182.8775,4.481 C182.8775,5.966 181.7335,7.121 180.2815,7.121 C178.7745,7.121 177.7185,6.021 177.7185,4.459 C177.7185,2.886 178.7745,1.808 180.3145,1.808 Z M180.3145,2.578 C179.2695,2.578 178.5765,3.337 178.5765,4.47 C178.5765,5.592 179.2695,6.351 180.3035,6.351 C181.3045,6.351 182.0195,5.57 182.0195,4.47 C182.0195,3.337 181.3375,2.578 180.3145,2.578 Z M184.1535,1.929 L184.9895,1.929 L184.9895,2.633 C185.3745,2.05 185.8035,1.808 186.4305,1.808 C187.1235,1.808 187.5635,2.105 187.7945,2.732 C188.1685,2.083 188.6415,1.808 189.4005,1.808 C189.9835,1.808 190.4235,1.995 190.6875,2.347 C190.9295,2.666 190.9955,2.952 190.9955,3.755 L190.9955,7 L190.1595,7 L190.1595,3.953 C190.1595,3.337 190.1375,3.194 190.0165,2.985 C189.8625,2.721 189.5325,2.556 189.1365,2.556 C188.3995,2.556 187.9925,3.051 187.9925,3.953 L187.9925,7 L187.1565,7 L187.1565,3.964 C187.1565,3.469 187.1125,3.216 186.9915,2.996 C186.8485,2.71 186.5405,2.556 186.1665,2.556 C185.4295,2.556 184.9895,3.084 184.9895,3.964 L184.9895,7 L184.1535,7 L184.1535,1.929 Z"/>
        <g transform="translate(103 15)">
          <rect width="1" height="14" x="4" y="1"/>
          <rect width="9" height="1"/>
          <rect width="9" height="1" y="15"/>
        </g>
      </g>
      <g fill="#C41261" transform="translate(0 99)">
        <path d="M32.1115,18.306 L33.7945,12.663 L34.7515,12.663 L32.5075,20 L31.6935,20 L30.0765,14.236 L28.4485,20 L27.6345,20 L25.3905,12.663 L26.3695,12.663 L28.0415,18.284 L29.6695,12.663 L30.5385,12.663 L32.1115,18.306 Z M36.4785,14.929 L36.4785,20 L35.6425,20 L35.6425,14.929 L36.4785,14.929 Z M36.0715,12.96 C36.3685,12.96 36.5995,13.202 36.5995,13.51 C36.5995,13.807 36.3575,14.038 36.0605,14.038 C35.7635,14.038 35.5325,13.807 35.5325,13.499 C35.5325,13.191 35.7635,12.96 36.0715,12.96 Z M41.9565,15.699 L41.9565,12.663 L42.7925,12.663 L42.7925,20 L41.9565,20 L41.9565,19.131 C41.4505,19.824 40.9115,20.121 40.1415,20.121 C38.7445,20.121 37.7545,19.032 37.7545,17.492 C37.7545,15.952 38.7665,14.808 40.1415,14.808 C40.8895,14.808 41.4615,15.083 41.9565,15.699 Z M40.3175,15.556 C39.3165,15.556 38.6345,16.348 38.6345,17.503 C38.6345,18.614 39.3055,19.395 40.2625,19.395 C41.2415,19.395 41.9565,18.581 41.9565,17.481 C41.9565,16.337 41.2855,15.556 40.3175,15.556 Z M45.3665,15.666 L45.3665,18.966 C45.3775,19.219 45.4435,19.274 45.7515,19.274 L46.1365,19.274 L46.1365,20 L45.3555,20 C44.7615,19.989 44.5305,19.769 44.5305,19.208 L44.5305,15.666 L43.8265,15.666 L43.8265,14.929 L44.5305,14.929 L44.5305,13.334 L45.3665,13.334 L45.3665,14.929 L46.1365,14.929 L46.1365,15.666 L45.3665,15.666 Z M48.1605,12.663 L48.1605,15.633 C48.6225,15.061 49.0845,14.808 49.6895,14.808 C50.1295,14.808 50.5915,14.984 50.8665,15.27 C51.1415,15.545 51.2625,15.941 51.2625,16.59 L51.2625,20 L50.4265,20 L50.4265,16.634 C50.4265,15.941 50.0855,15.556 49.4805,15.556 C49.0955,15.556 48.7545,15.71 48.4905,16.007 C48.2375,16.293 48.1605,16.546 48.1605,17.03 L48.1605,20 L47.3245,20 L47.3245,12.663 L48.1605,12.663 Z M52.3185,15.226 L57.3345,15.226 L57.3345,15.699 L52.3185,15.699 L52.3185,15.226 Z M52.3185,16.777 L57.3345,16.777 L57.3345,17.25 L52.3185,17.25 L52.3185,16.777 Z M60.9315,13.565 L58.3685,13.565 L58.3685,12.773 L62.5265,12.773 L60.3705,15.512 C61.6465,15.512 62.5485,16.425 62.5485,17.723 C62.5485,19.098 61.5145,20.121 60.1175,20.121 C58.9625,20.121 58.1375,19.472 57.8845,18.361 L58.6765,18.218 C58.8745,18.922 59.3915,19.318 60.0735,19.318 C60.9645,19.318 61.6685,18.647 61.6685,17.789 C61.6685,16.909 61.0085,16.293 60.0515,16.293 C59.7105,16.293 59.4905,16.359 59.1715,16.546 L58.8085,16.227 L60.9315,13.565 Z M67.1685,12.773 L65.2875,15.71 C65.5955,15.6 65.7385,15.567 66.0025,15.567 C67.2235,15.567 68.1695,16.524 68.1695,17.767 C68.1695,19.065 67.1025,20.132 65.8045,20.132 C64.4955,20.132 63.4835,19.098 63.4835,17.767 C63.4835,17.228 63.6265,16.821 64.0445,16.15 L66.1455,12.773 L67.1685,12.773 Z M65.8485,16.315 C65.0125,16.315 64.3525,16.953 64.3525,17.767 C64.3525,18.625 65.0015,19.307 65.8265,19.307 C66.6515,19.307 67.3115,18.636 67.3115,17.8 C67.3115,16.975 66.6625,16.315 65.8485,16.315 Z M72.2065,16.018 C72.6245,16.15 72.8225,16.249 73.0535,16.491 C73.4165,16.854 73.6035,17.338 73.6035,17.91 C73.6035,19.208 72.6465,20.132 71.3045,20.132 C69.9735,20.132 69.0385,19.241 69.0385,17.987 C69.0385,17.404 69.2365,16.876 69.5885,16.513 C69.8195,16.271 70.0065,16.161 70.4465,16.018 C70.0615,15.886 69.8965,15.776 69.6985,15.534 C69.4565,15.237 69.3245,14.863 69.3245,14.456 C69.3245,13.411 70.1825,12.641 71.3485,12.641 C72.5035,12.641 73.3395,13.4 73.3395,14.445 C73.3395,14.863 73.1965,15.259 72.9325,15.567 C72.7345,15.787 72.5805,15.886 72.2065,16.018 Z M71.3485,13.411 C70.6445,13.411 70.1605,13.851 70.1605,14.467 C70.1605,15.094 70.6775,15.589 71.3265,15.589 C71.9535,15.589 72.5145,15.072 72.5145,14.478 C72.5145,13.906 71.9755,13.411 71.3485,13.411 Z M71.3375,16.48 C70.5455,16.48 69.9075,17.107 69.9075,17.899 C69.9075,18.68 70.5345,19.318 71.3155,19.318 C72.0965,19.318 72.7235,18.68 72.7235,17.899 C72.7235,17.129 72.0965,16.48 71.3375,16.48 Z M78.7075,15.699 L78.7075,12.663 L79.5435,12.663 L79.5435,20 L78.7075,20 L78.7075,19.131 C78.2015,19.824 77.6625,20.121 76.8925,20.121 C75.4955,20.121 74.5055,19.032 74.5055,17.492 C74.5055,15.952 75.5175,14.808 76.8925,14.808 C77.6405,14.808 78.2125,15.083 78.7075,15.699 Z M77.0685,15.556 C76.0675,15.556 75.3855,16.348 75.3855,17.503 C75.3855,18.614 76.0565,19.395 77.0135,19.395 C77.9925,19.395 78.7075,18.581 78.7075,17.481 C78.7075,16.337 78.0365,15.556 77.0685,15.556 Z M81.2265,14.929 L82.0625,14.929 L82.0625,15.853 C82.5465,15.105 83.0635,14.808 83.9105,14.808 C85.3185,14.808 86.2975,15.886 86.2975,17.426 C86.2975,19.021 85.3185,20.121 83.9105,20.121 C83.5145,20.121 83.1515,20.033 82.7995,19.857 C82.4915,19.703 82.3375,19.571 82.0625,19.208 L82.0625,22.376 L81.2265,22.376 L81.2265,14.929 Z M83.7675,15.556 C82.7555,15.556 82.0625,16.359 82.0625,17.547 C82.0625,18.658 82.7335,19.395 83.7345,19.395 C84.7355,19.395 85.4065,18.614 85.4065,17.459 C85.4065,16.865 85.2635,16.414 84.9665,16.084 C84.6695,15.754 84.2185,15.556 83.7675,15.556 Z M88.5855,19.142 L87.4745,21.749 L86.8695,21.562 L87.7935,18.889 L88.5855,19.142 Z M88.0575,15.831 C88.3875,15.831 88.6295,16.073 88.6295,16.414 C88.6295,16.733 88.3765,16.975 88.0575,16.975 C87.7275,16.975 87.4855,16.733 87.4855,16.403 C87.4855,16.073 87.7275,15.831 88.0575,15.831 Z M94.2395,12.663 L94.2395,15.633 C94.7015,15.061 95.1635,14.808 95.7685,14.808 C96.2085,14.808 96.6705,14.984 96.9455,15.27 C97.2205,15.545 97.3415,15.941 97.3415,16.59 L97.3415,20 L96.5055,20 L96.5055,16.634 C96.5055,15.941 96.1645,15.556 95.5595,15.556 C95.1745,15.556 94.8335,15.71 94.5695,16.007 C94.3165,16.293 94.2395,16.546 94.2395,17.03 L94.2395,20 L93.4035,20 L93.4035,12.663 L94.2395,12.663 Z M101.1805,14.808 C102.6765,14.808 103.7435,15.919 103.7435,17.481 C103.7435,18.966 102.5995,20.121 101.1475,20.121 C99.6405,20.121 98.5845,19.021 98.5845,17.459 C98.5845,15.886 99.6405,14.808 101.1805,14.808 Z M101.1805,15.578 C100.1355,15.578 99.4425,16.337 99.4425,17.47 C99.4425,18.592 100.1355,19.351 101.1695,19.351 C102.1705,19.351 102.8855,18.57 102.8855,17.47 C102.8855,16.337 102.2035,15.578 101.1805,15.578 Z M105.0195,14.929 L105.8555,14.929 L105.8555,15.787 C106.0095,15.424 106.1195,15.27 106.3175,15.116 C106.5705,14.918 106.9225,14.808 107.2855,14.808 L107.4835,14.808 L107.4835,15.655 C107.3955,15.644 107.3075,15.644 107.2525,15.644 C106.8015,15.644 106.4055,15.853 106.1525,16.227 C105.9325,16.546 105.8555,16.843 105.8555,17.426 L105.8555,20 L105.0195,20 L105.0195,14.929 Z M109.3535,14.929 L109.3535,20 L108.5175,20 L108.5175,14.929 L109.3535,14.929 Z M108.9465,12.96 C109.2435,12.96 109.4745,13.202 109.4745,13.51 C109.4745,13.807 109.2325,14.038 108.9355,14.038 C108.6385,14.038 108.4075,13.807 108.4075,13.499 C108.4075,13.191 108.6385,12.96 108.9465,12.96 Z M111.8505,19.263 L114.1825,19.263 L114.1825,20 L110.4425,20 L113.0825,15.666 L110.7285,15.666 L110.7285,14.929 L114.4575,14.929 L111.8505,19.263 Z M117.6365,14.808 C119.1325,14.808 120.1995,15.919 120.1995,17.481 C120.1995,18.966 119.0555,20.121 117.6035,20.121 C116.0965,20.121 115.0405,19.021 115.0405,17.459 C115.0405,15.886 116.0965,14.808 117.6365,14.808 Z M117.6365,15.578 C116.5915,15.578 115.8985,16.337 115.8985,17.47 C115.8985,18.592 116.5915,19.351 117.6255,19.351 C118.6265,19.351 119.3415,18.57 119.3415,17.47 C119.3415,16.337 118.6595,15.578 117.6365,15.578 Z M121.4755,14.929 L122.3115,14.929 L122.3115,15.644 C122.7515,15.05 123.1915,14.808 123.8185,14.808 C124.2805,14.808 124.6985,14.962 124.9955,15.226 C125.3145,15.534 125.4245,15.886 125.4245,16.579 L125.4245,20 L124.5885,20 L124.5885,16.766 C124.5885,16.315 124.5335,16.073 124.4015,15.897 C124.2475,15.688 123.9505,15.556 123.6095,15.556 C123.2355,15.556 122.8945,15.699 122.6415,15.985 C122.3995,16.249 122.3115,16.491 122.3115,16.909 L122.3115,20 L121.4755,20 L121.4755,14.929 Z M127.9655,15.666 L127.9655,18.966 C127.9765,19.219 128.0425,19.274 128.3505,19.274 L128.7355,19.274 L128.7355,20 L127.9545,20 C127.3605,19.989 127.1295,19.769 127.1295,19.208 L127.1295,15.666 L126.4255,15.666 L126.4255,14.929 L127.1295,14.929 L127.1295,13.334 L127.9655,13.334 L127.9655,14.929 L128.7355,14.929 L128.7355,15.666 L127.9655,15.666 Z M133.7515,15.765 L133.7515,14.929 L134.5875,14.929 L134.5875,20 L133.7515,20 L133.7515,19.021 C133.2455,19.78 132.6735,20.121 131.9035,20.121 C130.5065,20.121 129.5165,19.021 129.5165,17.481 C129.5165,15.93 130.5285,14.808 131.9255,14.808 C132.6955,14.808 133.2565,15.105 133.7515,15.765 Z M132.0465,15.556 C131.4965,15.556 131.1115,15.743 130.8145,16.161 C130.5505,16.524 130.3965,17.008 130.3965,17.503 C130.3965,18.581 131.1005,19.395 132.0245,19.395 C132.9815,19.395 133.7625,18.504 133.7625,17.415 C133.7625,16.315 133.0585,15.556 132.0465,15.556 Z M137.1065,20 L136.2705,20 L136.2705,12.663 L137.1065,12.663 L137.1065,20 Z M139.6255,20 L138.7895,20 L138.7895,12.663 L139.6255,12.663 L139.6255,20 Z M142.7935,18.691 L144.3115,14.929 L145.2245,14.929 L142.1995,22.442 L141.2865,22.442 L142.3425,19.846 L140.5385,14.929 L141.4295,14.929 L142.7935,18.691 Z M152.8585,18.801 L153.3755,19.373 C152.8035,19.89 152.2425,20.121 151.5055,20.121 C150.0535,20.121 149.0195,19.021 149.0195,17.481 C149.0195,15.908 150.0645,14.808 151.5495,14.808 C152.2755,14.808 152.8695,15.05 153.3975,15.567 L152.8585,16.106 C152.4735,15.754 152.0445,15.578 151.5715,15.578 C150.5705,15.578 149.8775,16.348 149.8775,17.448 C149.8775,18.57 150.5705,19.351 151.5605,19.351 C152.0555,19.351 152.4515,19.186 152.8585,18.801 Z M159.1615,17.734 L154.9375,17.734 C154.9815,18.163 155.0585,18.383 155.2675,18.658 C155.5975,19.109 156.0815,19.351 156.6315,19.351 C157.2585,19.351 157.8525,19.01 158.1495,18.482 L158.8865,18.757 C158.4685,19.604 157.5995,20.121 156.6315,20.121 C155.1245,20.121 154.0465,19.021 154.0465,17.481 C154.0465,15.919 155.1135,14.808 156.5985,14.808 C158.0725,14.808 159.1725,15.919 159.1725,17.404 C159.1725,17.47 159.1725,17.613 159.1615,17.734 Z M154.9485,17.118 L158.2815,17.118 C158.2485,16.722 158.1715,16.502 157.9955,16.249 C157.6765,15.82 157.1595,15.556 156.5985,15.556 C156.0375,15.556 155.5315,15.82 155.2345,16.26 C155.0805,16.502 155.0145,16.711 154.9485,17.118 Z M160.3825,14.929 L161.2185,14.929 L161.2185,15.644 C161.6585,15.05 162.0985,14.808 162.7255,14.808 C163.1875,14.808 163.6055,14.962 163.9025,15.226 C164.2215,15.534 164.3315,15.886 164.3315,16.579 L164.3315,20 L163.4955,20 L163.4955,16.766 C163.4955,16.315 163.4405,16.073 163.3085,15.897 C163.1545,15.688 162.8575,15.556 162.5165,15.556 C162.1425,15.556 161.8015,15.699 161.5485,15.985 C161.3065,16.249 161.2185,16.491 161.2185,16.909 L161.2185,20 L160.3825,20 L160.3825,14.929 Z M166.8725,15.666 L166.8725,18.966 C166.8835,19.219 166.9495,19.274 167.2575,19.274 L167.6425,19.274 L167.6425,20 L166.8615,20 C166.2675,19.989 166.0365,19.769 166.0365,19.208 L166.0365,15.666 L165.3325,15.666 L165.3325,14.929 L166.0365,14.929 L166.0365,13.334 L166.8725,13.334 L166.8725,14.929 L167.6425,14.929 L167.6425,15.666 L166.8725,15.666 Z M173.5385,17.734 L169.3145,17.734 C169.3585,18.163 169.4355,18.383 169.6445,18.658 C169.9745,19.109 170.4585,19.351 171.0085,19.351 C171.6355,19.351 172.2295,19.01 172.5265,18.482 L173.2635,18.757 C172.8455,19.604 171.9765,20.121 171.0085,20.121 C169.5015,20.121 168.4235,19.021 168.4235,17.481 C168.4235,15.919 169.4905,14.808 170.9755,14.808 C172.4495,14.808 173.5495,15.919 173.5495,17.404 C173.5495,17.47 173.5495,17.613 173.5385,17.734 Z M169.3255,17.118 L172.6585,17.118 C172.6255,16.722 172.5485,16.502 172.3725,16.249 C172.0535,15.82 171.5365,15.556 170.9755,15.556 C170.4145,15.556 169.9085,15.82 169.6115,16.26 C169.4575,16.502 169.3915,16.711 169.3255,17.118 Z M174.7595,14.929 L175.5955,14.929 L175.5955,15.787 C175.7495,15.424 175.8595,15.27 176.0575,15.116 C176.3105,14.918 176.6625,14.808 177.0255,14.808 L177.2235,14.808 L177.2235,15.655 C177.1355,15.644 177.0475,15.644 176.9925,15.644 C176.5415,15.644 176.1455,15.853 175.8925,16.227 C175.6725,16.546 175.5955,16.843 175.5955,17.426 L175.5955,20 L174.7595,20 L174.7595,14.929 Z M182.9655,17.734 L178.7415,17.734 C178.7855,18.163 178.8625,18.383 179.0715,18.658 C179.4015,19.109 179.8855,19.351 180.4355,19.351 C181.0625,19.351 181.6565,19.01 181.9535,18.482 L182.6905,18.757 C182.2725,19.604 181.4035,20.121 180.4355,20.121 C178.9285,20.121 177.8505,19.021 177.8505,17.481 C177.8505,15.919 178.9175,14.808 180.4025,14.808 C181.8765,14.808 182.9765,15.919 182.9765,17.404 C182.9765,17.47 182.9765,17.613 182.9655,17.734 Z M178.7525,17.118 L182.0855,17.118 C182.0525,16.722 181.9755,16.502 181.7995,16.249 C181.4805,15.82 180.9635,15.556 180.4025,15.556 C179.8415,15.556 179.3355,15.82 179.0385,16.26 C178.8845,16.502 178.8185,16.711 178.7525,17.118 Z M187.9815,15.699 L187.9815,12.663 L188.8175,12.663 L188.8175,20 L187.9815,20 L187.9815,19.131 C187.4755,19.824 186.9365,20.121 186.1665,20.121 C184.7695,20.121 183.7795,19.032 183.7795,17.492 C183.7795,15.952 184.7915,14.808 186.1665,14.808 C186.9145,14.808 187.4865,15.083 187.9815,15.699 Z M186.3425,15.556 C185.3415,15.556 184.6595,16.348 184.6595,17.503 C184.6595,18.614 185.3305,19.395 186.2875,19.395 C187.2665,19.395 187.9815,18.581 187.9815,17.481 C187.9815,16.337 187.3105,15.556 186.3425,15.556 Z M75.0775,25.929 L75.9355,25.929 L74.1315,31 L73.3725,31 L72.2065,27.15 L70.9855,31 L70.1935,31 L68.4555,25.929 L69.3135,25.929 L70.6115,29.658 L71.7775,25.929 L72.6025,25.929 L73.7465,29.658 L75.0775,25.929 Z M77.6735,25.929 L77.6735,31 L76.8375,31 L76.8375,25.929 L77.6735,25.929 Z M77.2665,23.96 C77.5635,23.96 77.7945,24.202 77.7945,24.51 C77.7945,24.807 77.5525,25.038 77.2555,25.038 C76.9585,25.038 76.7275,24.807 76.7275,24.499 C76.7275,24.191 76.9585,23.96 77.2665,23.96 Z M80.2475,26.666 L80.2475,29.966 C80.2585,30.219 80.3245,30.274 80.6325,30.274 L81.0175,30.274 L81.0175,31 L80.2365,31 C79.6425,30.989 79.4115,30.769 79.4115,30.208 L79.4115,26.666 L78.7075,26.666 L78.7075,25.929 L79.4115,25.929 L79.4115,24.334 L80.2475,24.334 L80.2475,25.929 L81.0175,25.929 L81.0175,26.666 L80.2475,26.666 Z M83.0415,23.663 L83.0415,26.633 C83.5035,26.061 83.9655,25.808 84.5705,25.808 C85.0105,25.808 85.4725,25.984 85.7475,26.27 C86.0225,26.545 86.1435,26.941 86.1435,27.59 L86.1435,31 L85.3075,31 L85.3075,27.634 C85.3075,26.941 84.9665,26.556 84.3615,26.556 C83.9765,26.556 83.6355,26.71 83.3715,27.007 C83.1185,27.293 83.0415,27.546 83.0415,28.03 L83.0415,31 L82.2055,31 L82.2055,23.663 L83.0415,23.663 Z M88.6295,25.929 L88.6295,31 L87.7935,31 L87.7935,25.929 L88.6295,25.929 Z M88.2225,23.96 C88.5195,23.96 88.7505,24.202 88.7505,24.51 C88.7505,24.807 88.5085,25.038 88.2115,25.038 C87.9145,25.038 87.6835,24.807 87.6835,24.499 C87.6835,24.191 87.9145,23.96 88.2225,23.96 Z M90.3125,25.929 L91.1485,25.929 L91.1485,26.644 C91.5885,26.05 92.0285,25.808 92.6555,25.808 C93.1175,25.808 93.5355,25.962 93.8325,26.226 C94.1515,26.534 94.2615,26.886 94.2615,27.579 L94.2615,31 L93.4255,31 L93.4255,27.766 C93.4255,27.315 93.3705,27.073 93.2385,26.897 C93.0845,26.688 92.7875,26.556 92.4465,26.556 C92.0725,26.556 91.7315,26.699 91.4785,26.985 C91.2365,27.249 91.1485,27.491 91.1485,27.909 L91.1485,31 L90.3125,31 L90.3125,25.929 Z M99.2115,25.929 L100.0475,25.929 L100.0475,26.787 C100.2015,26.424 100.3115,26.27 100.5095,26.116 C100.7625,25.918 101.1145,25.808 101.4775,25.808 L101.6755,25.808 L101.6755,26.655 C101.5875,26.644 101.4995,26.644 101.4445,26.644 C100.9935,26.644 100.5975,26.853 100.3445,27.227 C100.1245,27.546 100.0475,27.843 100.0475,28.426 L100.0475,31 L99.2115,31 L99.2115,25.929 Z M103.5455,25.929 L103.5455,31 L102.7095,31 L102.7095,25.929 L103.5455,25.929 Z M103.1385,23.96 C103.4355,23.96 103.6665,24.202 103.6665,24.51 C103.6665,24.807 103.4245,25.038 103.1275,25.038 C102.8305,25.038 102.5995,24.807 102.5995,24.499 C102.5995,24.191 102.8305,23.96 103.1385,23.96 Z M108.9795,26.798 L108.9795,25.929 L109.8155,25.929 L109.8155,31.033 C109.8155,31.88 109.6065,32.452 109.1445,32.892 C108.6935,33.332 108.0445,33.563 107.2745,33.563 C106.3285,33.563 105.5805,33.255 105.0305,32.639 L105.6025,32.067 C105.8335,32.309 105.9435,32.408 106.0865,32.507 C106.3725,32.683 106.8455,32.804 107.2745,32.804 C107.8025,32.804 108.3085,32.617 108.5945,32.309 C108.8475,32.034 108.9795,31.627 108.9795,31.099 L108.9795,30.032 C108.4845,30.78 107.9015,31.121 107.1095,31.121 C105.7675,31.121 104.7665,29.988 104.7665,28.481 C104.7665,27.667 105.0635,26.886 105.5695,26.402 C105.9765,26.006 106.5265,25.808 107.1755,25.808 C107.9455,25.808 108.4625,26.094 108.9795,26.798 Z M107.3295,26.578 C106.3395,26.578 105.6465,27.348 105.6465,28.448 C105.6465,29.537 106.3505,30.351 107.3075,30.351 C107.7915,30.351 108.2645,30.12 108.5945,29.735 C108.8145,29.482 108.9575,28.987 108.9575,28.481 C108.9575,27.821 108.8585,27.469 108.5615,27.139 C108.2535,26.798 107.7805,26.578 107.3295,26.578 Z M112.3345,23.663 L112.3345,26.633 C112.7965,26.061 113.2585,25.808 113.8635,25.808 C114.3035,25.808 114.7655,25.984 115.0405,26.27 C115.3155,26.545 115.4365,26.941 115.4365,27.59 L115.4365,31 L114.6005,31 L114.6005,27.634 C114.6005,26.941 114.2595,26.556 113.6545,26.556 C113.2695,26.556 112.9285,26.71 112.6645,27.007 C112.4115,27.293 112.3345,27.546 112.3345,28.03 L112.3345,31 L111.4985,31 L111.4985,23.663 L112.3345,23.663 Z M117.9775,26.666 L117.9775,29.966 C117.9885,30.219 118.0545,30.274 118.3625,30.274 L118.7475,30.274 L118.7475,31 L117.9665,31 C117.3725,30.989 117.1415,30.769 117.1415,30.208 L117.1415,26.666 L116.4375,26.666 L116.4375,25.929 L117.1415,25.929 L117.1415,24.334 L117.9775,24.334 L117.9775,25.929 L118.7475,25.929 L118.7475,26.666 L117.9775,26.666 Z M123.2355,25.929 L124.0715,25.929 L124.0715,26.853 C124.5555,26.105 125.0725,25.808 125.9195,25.808 C127.3275,25.808 128.3065,26.886 128.3065,28.426 C128.3065,30.021 127.3275,31.121 125.9195,31.121 C125.5235,31.121 125.1605,31.033 124.8085,30.857 C124.5005,30.703 124.3465,30.571 124.0715,30.208 L124.0715,33.376 L123.2355,33.376 L123.2355,25.929 Z M125.7765,26.556 C124.7645,26.556 124.0715,27.359 124.0715,28.547 C124.0715,29.658 124.7425,30.395 125.7435,30.395 C126.7445,30.395 127.4155,29.614 127.4155,28.459 C127.4155,27.865 127.2725,27.414 126.9755,27.084 C126.6785,26.754 126.2275,26.556 125.7765,26.556 Z M133.3995,26.765 L133.3995,25.929 L134.2355,25.929 L134.2355,31 L133.3995,31 L133.3995,30.021 C132.8935,30.78 132.3215,31.121 131.5515,31.121 C130.1545,31.121 129.1645,30.021 129.1645,28.481 C129.1645,26.93 130.1765,25.808 131.5735,25.808 C132.3435,25.808 132.9045,26.105 133.3995,26.765 Z M131.6945,26.556 C131.1445,26.556 130.7595,26.743 130.4625,27.161 C130.1985,27.524 130.0445,28.008 130.0445,28.503 C130.0445,29.581 130.7485,30.395 131.6725,30.395 C132.6295,30.395 133.4105,29.504 133.4105,28.415 C133.4105,27.315 132.7065,26.556 131.6945,26.556 Z M135.9185,25.929 L136.7545,25.929 L136.7545,26.644 C137.1945,26.05 137.6345,25.808 138.2615,25.808 C138.7235,25.808 139.1415,25.962 139.4385,26.226 C139.7575,26.534 139.8675,26.886 139.8675,27.579 L139.8675,31 L139.0315,31 L139.0315,27.766 C139.0315,27.315 138.9765,27.073 138.8445,26.897 C138.6905,26.688 138.3935,26.556 138.0525,26.556 C137.6785,26.556 137.3375,26.699 137.0845,26.985 C136.8425,27.249 136.7545,27.491 136.7545,27.909 L136.7545,31 L135.9185,31 L135.9185,25.929 Z M146.2255,28.734 L142.0015,28.734 C142.0455,29.163 142.1225,29.383 142.3315,29.658 C142.6615,30.109 143.1455,30.351 143.6955,30.351 C144.3225,30.351 144.9165,30.01 145.2135,29.482 L145.9505,29.757 C145.5325,30.604 144.6635,31.121 143.6955,31.121 C142.1885,31.121 141.1105,30.021 141.1105,28.481 C141.1105,26.919 142.1775,25.808 143.6625,25.808 C145.1365,25.808 146.2365,26.919 146.2365,28.404 C146.2365,28.47 146.2365,28.613 146.2255,28.734 Z M142.0125,28.118 L145.3455,28.118 C145.3125,27.722 145.2355,27.502 145.0595,27.249 C144.7405,26.82 144.2235,26.556 143.6625,26.556 C143.1015,26.556 142.5955,26.82 142.2985,27.26 C142.1445,27.502 142.0785,27.711 142.0125,28.118 Z"/>
        <rect width="1" height="9"/>
        <rect width="1" height="9" x="214"/>
        <rect width="213" height="1" x="1" y="4"/>
      </g>
    </g>
    <g transform="translate(4 29)">
      <rect width="168" height="48" x="16" y="31" fill="#25333D" rx="4"/>
      <g fill="#C41261">
        <path d="M1,47 L168,47 L168,1 L1,1 L1,47 Z M1,48 L0,48 L0,1 L0,0 L169,0 L169,1 L169,48 L168,48 L1,48 Z" transform="translate(15 31)"/>
        <path d="M1,79 L199,79 L199,1 L1,1 L1,79 Z M1,80 L0,80 L0,1 L0,0 L200,0 L200,1 L200,80 L199,80 L1,80 Z" transform="translate(0 15)"/>
        <path d="M36.095,0.994 L34.478,2.072 L34.478,1.236 L36.964,-0.392 L36.964,7 L36.095,7 L36.095,0.994 Z M42.849,-0.227 L40.968,2.71 C41.276,2.6 41.419,2.567 41.683,2.567 C42.904,2.567 43.85,3.524 43.85,4.767 C43.85,6.065 42.783,7.132 41.485,7.132 C40.176,7.132 39.164,6.098 39.164,4.767 C39.164,4.228 39.307,3.821 39.725,3.15 L41.826,-0.227 L42.849,-0.227 Z M41.529,3.315 C40.693,3.315 40.033,3.953 40.033,4.767 C40.033,5.625 40.682,6.307 41.507,6.307 C42.332,6.307 42.992,5.636 42.992,4.8 C42.992,3.975 42.343,3.315 41.529,3.315 Z M48.888,2.699 L48.888,-0.337 L49.724,-0.337 L49.724,7 L48.888,7 L48.888,6.131 C48.382,6.824 47.843,7.121 47.073,7.121 C45.676,7.121 44.686,6.032 44.686,4.492 C44.686,2.952 45.698,1.808 47.073,1.808 C47.821,1.808 48.393,2.083 48.888,2.699 Z M47.249,2.556 C46.248,2.556 45.566,3.348 45.566,4.503 C45.566,5.614 46.237,6.395 47.194,6.395 C48.173,6.395 48.888,5.581 48.888,4.481 C48.888,3.337 48.217,2.556 47.249,2.556 Z M51.407,1.929 L52.243,1.929 L52.243,2.853 C52.727,2.105 53.244,1.808 54.091,1.808 C55.499,1.808 56.478,2.886 56.478,4.426 C56.478,6.021 55.499,7.121 54.091,7.121 C53.695,7.121 53.332,7.033 52.98,6.857 C52.672,6.703 52.518,6.571 52.243,6.208 L52.243,9.376 L51.407,9.376 L51.407,1.929 Z M53.948,2.556 C52.936,2.556 52.243,3.359 52.243,4.547 C52.243,5.658 52.914,6.395 53.915,6.395 C54.916,6.395 55.587,5.614 55.587,4.459 C55.587,3.865 55.444,3.414 55.147,3.084 C54.85,2.754 54.399,2.556 53.948,2.556 Z M61.967,2.666 L61.967,7 L61.131,7 L61.131,2.666 L60.438,2.666 L60.438,1.929 L61.131,1.929 L61.131,1.247 C61.131,0.246 61.648,-0.348 62.528,-0.348 C62.572,-0.348 62.671,-0.348 62.759,-0.337 L62.759,0.411 C62.154,0.477 61.989,0.653 61.967,1.247 L61.967,1.929 L62.759,1.929 L62.759,2.666 L61.967,2.666 Z M64.959,1.929 L64.959,7 L64.123,7 L64.123,1.929 L64.959,1.929 Z M64.541,-0.04 C64.838,-0.04 65.069,0.202 65.069,0.51 C65.069,0.807 64.838,1.038 64.541,1.038 C64.233,1.038 64.002,0.807 64.002,0.499 C64.002,0.191 64.233,-0.04 64.541,-0.04 Z M68.259,5.163 L66.906,7 L65.883,7 L67.753,4.481 L65.85,1.929 L66.906,1.929 L68.259,3.788 L69.645,1.929 L70.668,1.929 L68.754,4.481 L70.58,7 L69.557,7 L68.259,5.163 Z M76.256,4.734 L72.032,4.734 C72.076,5.163 72.153,5.383 72.362,5.658 C72.692,6.109 73.176,6.351 73.726,6.351 C74.353,6.351 74.947,6.01 75.244,5.482 L75.981,5.757 C75.563,6.604 74.694,7.121 73.726,7.121 C72.219,7.121 71.141,6.021 71.141,4.481 C71.141,2.919 72.208,1.808 73.693,1.808 C75.167,1.808 76.267,2.919 76.267,4.404 C76.267,4.47 76.267,4.613 76.256,4.734 Z M72.043,4.118 L75.376,4.118 C75.343,3.722 75.266,3.502 75.09,3.249 C74.771,2.82 74.254,2.556 73.693,2.556 C73.132,2.556 72.626,2.82 72.329,3.26 C72.175,3.502 72.109,3.711 72.043,4.118 Z M81.272,2.699 L81.272,-0.337 L82.108,-0.337 L82.108,7 L81.272,7 L81.272,6.131 C80.766,6.824 80.227,7.121 79.457,7.121 C78.06,7.121 77.07,6.032 77.07,4.492 C77.07,2.952 78.082,1.808 79.457,1.808 C80.205,1.808 80.777,2.083 81.272,2.699 Z M79.633,2.556 C78.632,2.556 77.95,3.348 77.95,4.503 C77.95,5.614 78.621,6.395 79.578,6.395 C80.557,6.395 81.272,5.581 81.272,4.481 C81.272,3.337 80.601,2.556 79.633,2.556 Z M87.091,1.929 L87.927,1.929 L87.927,2.853 C88.411,2.105 88.928,1.808 89.775,1.808 C91.183,1.808 92.162,2.886 92.162,4.426 C92.162,6.021 91.183,7.121 89.775,7.121 C89.379,7.121 89.016,7.033 88.664,6.857 C88.356,6.703 88.202,6.571 87.927,6.208 L87.927,9.376 L87.091,9.376 L87.091,1.929 Z M89.632,2.556 C88.62,2.556 87.927,3.359 87.927,4.547 C87.927,5.658 88.598,6.395 89.599,6.395 C90.6,6.395 91.271,5.614 91.271,4.459 C91.271,3.865 91.128,3.414 90.831,3.084 C90.534,2.754 90.083,2.556 89.632,2.556 Z M97.255,2.765 L97.255,1.929 L98.091,1.929 L98.091,7 L97.255,7 L97.255,6.021 C96.749,6.78 96.177,7.121 95.407,7.121 C94.01,7.121 93.02,6.021 93.02,4.481 C93.02,2.93 94.032,1.808 95.429,1.808 C96.199,1.808 96.76,2.105 97.255,2.765 Z M95.55,2.556 C95,2.556 94.615,2.743 94.318,3.161 C94.054,3.524 93.9,4.008 93.9,4.503 C93.9,5.581 94.604,6.395 95.528,6.395 C96.485,6.395 97.266,5.504 97.266,4.415 C97.266,3.315 96.562,2.556 95.55,2.556 Z M103.569,2.699 L103.569,-0.337 L104.405,-0.337 L104.405,7 L103.569,7 L103.569,6.131 C103.063,6.824 102.524,7.121 101.754,7.121 C100.357,7.121 99.367,6.032 99.367,4.492 C99.367,2.952 100.379,1.808 101.754,1.808 C102.502,1.808 103.074,2.083 103.569,2.699 Z M101.93,2.556 C100.929,2.556 100.247,3.348 100.247,4.503 C100.247,5.614 100.918,6.395 101.875,6.395 C102.854,6.395 103.569,5.581 103.569,4.481 C103.569,3.337 102.898,2.556 101.93,2.556 Z M109.883,2.699 L109.883,-0.337 L110.719,-0.337 L110.719,7 L109.883,7 L109.883,6.131 C109.377,6.824 108.838,7.121 108.068,7.121 C106.671,7.121 105.681,6.032 105.681,4.492 C105.681,2.952 106.693,1.808 108.068,1.808 C108.816,1.808 109.388,2.083 109.883,2.699 Z M108.244,2.556 C107.243,2.556 106.561,3.348 106.561,4.503 C106.561,5.614 107.232,6.395 108.189,6.395 C109.168,6.395 109.883,5.581 109.883,4.481 C109.883,3.337 109.212,2.556 108.244,2.556 Z M113.238,1.929 L113.238,7 L112.402,7 L112.402,1.929 L113.238,1.929 Z M112.831,-0.04 C113.128,-0.04 113.359,0.202 113.359,0.51 C113.359,0.807 113.117,1.038 112.82,1.038 C112.523,1.038 112.292,0.807 112.292,0.499 C112.292,0.191 112.523,-0.04 112.831,-0.04 Z M114.921,1.929 L115.757,1.929 L115.757,2.644 C116.197,2.05 116.637,1.808 117.264,1.808 C117.726,1.808 118.144,1.962 118.441,2.226 C118.76,2.534 118.87,2.886 118.87,3.579 L118.87,7 L118.034,7 L118.034,3.766 C118.034,3.315 117.979,3.073 117.847,2.897 C117.693,2.688 117.396,2.556 117.055,2.556 C116.681,2.556 116.34,2.699 116.087,2.985 C115.845,3.249 115.757,3.491 115.757,3.909 L115.757,7 L114.921,7 L114.921,1.929 Z M124.271,2.798 L124.271,1.929 L125.107,1.929 L125.107,7.033 C125.107,7.88 124.898,8.452 124.436,8.892 C123.985,9.332 123.336,9.563 122.566,9.563 C121.62,9.563 120.872,9.255 120.322,8.639 L120.894,8.067 C121.125,8.309 121.235,8.408 121.378,8.507 C121.664,8.683 122.137,8.804 122.566,8.804 C123.094,8.804 123.6,8.617 123.886,8.309 C124.139,8.034 124.271,7.627 124.271,7.099 L124.271,6.032 C123.776,6.78 123.193,7.121 122.401,7.121 C121.059,7.121 120.058,5.988 120.058,4.481 C120.058,3.667 120.355,2.886 120.861,2.402 C121.268,2.006 121.818,1.808 122.467,1.808 C123.237,1.808 123.754,2.094 124.271,2.798 Z M122.621,2.578 C121.631,2.578 120.938,3.348 120.938,4.448 C120.938,5.537 121.642,6.351 122.599,6.351 C123.083,6.351 123.556,6.12 123.886,5.735 C124.106,5.482 124.249,4.987 124.249,4.481 C124.249,3.821 124.15,3.469 123.853,3.139 C123.545,2.798 123.072,2.578 122.621,2.578 Z M133.918,2.765 L133.918,1.929 L134.754,1.929 L134.754,7 L133.918,7 L133.918,6.021 C133.412,6.78 132.84,7.121 132.07,7.121 C130.673,7.121 129.683,6.021 129.683,4.481 C129.683,2.93 130.695,1.808 132.092,1.808 C132.862,1.808 133.423,2.105 133.918,2.765 Z M132.213,2.556 C131.663,2.556 131.278,2.743 130.981,3.161 C130.717,3.524 130.563,4.008 130.563,4.503 C130.563,5.581 131.267,6.395 132.191,6.395 C133.148,6.395 133.929,5.504 133.929,4.415 C133.929,3.315 133.225,2.556 132.213,2.556 Z M137.273,7 L136.437,7 L136.437,-0.337 L137.273,-0.337 L137.273,7 Z M139.792,7 L138.956,7 L138.956,-0.337 L139.792,-0.337 L139.792,7 Z M147.954,3.315 L147.118,3.315 L147.118,3.26 C147.118,2.787 146.733,2.49 146.15,2.49 C145.589,2.49 145.237,2.776 145.237,3.216 C145.237,3.656 145.457,3.821 146.37,4.074 C147.019,4.25 147.36,4.415 147.602,4.657 C147.855,4.91 148.009,5.273 148.009,5.647 C148.009,6.527 147.283,7.121 146.205,7.121 C145.05,7.121 144.401,6.582 144.313,5.559 L145.138,5.559 C145.193,6.131 145.567,6.439 146.205,6.439 C146.777,6.439 147.151,6.142 147.151,5.691 C147.151,5.251 146.865,5.031 145.996,4.811 C144.896,4.514 144.401,4.052 144.401,3.282 C144.401,2.402 145.116,1.808 146.183,1.808 C147.261,1.808 147.91,2.358 147.954,3.315 Z M150.132,1.929 L150.132,7 L149.296,7 L149.296,1.929 L150.132,1.929 Z M149.725,-0.04 C150.022,-0.04 150.253,0.202 150.253,0.51 C150.253,0.807 150.011,1.038 149.714,1.038 C149.417,1.038 149.186,0.807 149.186,0.499 C149.186,0.191 149.417,-0.04 149.725,-0.04 Z M155.61,2.699 L155.61,-0.337 L156.446,-0.337 L156.446,7 L155.61,7 L155.61,6.131 C155.104,6.824 154.565,7.121 153.795,7.121 C152.398,7.121 151.408,6.032 151.408,4.492 C151.408,2.952 152.42,1.808 153.795,1.808 C154.543,1.808 155.115,2.083 155.61,2.699 Z M153.971,2.556 C152.97,2.556 152.288,3.348 152.288,4.503 C152.288,5.614 152.959,6.395 153.916,6.395 C154.895,6.395 155.61,5.581 155.61,4.481 C155.61,3.337 154.939,2.556 153.971,2.556 Z M162.837,4.734 L158.613,4.734 C158.657,5.163 158.734,5.383 158.943,5.658 C159.273,6.109 159.757,6.351 160.307,6.351 C160.934,6.351 161.528,6.01 161.825,5.482 L162.562,5.757 C162.144,6.604 161.275,7.121 160.307,7.121 C158.8,7.121 157.722,6.021 157.722,4.481 C157.722,2.919 158.789,1.808 160.274,1.808 C161.748,1.808 162.848,2.919 162.848,4.404 C162.848,4.47 162.848,4.613 162.837,4.734 Z M158.624,4.118 L161.957,4.118 C161.924,3.722 161.847,3.502 161.671,3.249 C161.352,2.82 160.835,2.556 160.274,2.556 C159.713,2.556 159.207,2.82 158.91,3.26 C158.756,3.502 158.69,3.711 158.624,4.118 Z M167.237,3.315 L166.401,3.315 L166.401,3.26 C166.401,2.787 166.016,2.49 165.433,2.49 C164.872,2.49 164.52,2.776 164.52,3.216 C164.52,3.656 164.74,3.821 165.653,4.074 C166.302,4.25 166.643,4.415 166.885,4.657 C167.138,4.91 167.292,5.273 167.292,5.647 C167.292,6.527 166.566,7.121 165.488,7.121 C164.333,7.121 163.684,6.582 163.596,5.559 L164.421,5.559 C164.476,6.131 164.85,6.439 165.488,6.439 C166.06,6.439 166.434,6.142 166.434,5.691 C166.434,5.251 166.148,5.031 165.279,4.811 C164.179,4.514 163.684,4.052 163.684,3.282 C163.684,2.402 164.399,1.808 165.466,1.808 C166.544,1.808 167.193,2.358 167.237,3.315 Z"/>
        <g transform="translate(96 15)">
          <rect width="1" height="14" x="4" y="1"/>
          <rect width="9" height="1"/>
          <rect width="9" height="1" y="15"/>
        </g>
      </g>
      <g fill="#C41261" transform="translate(15 99)">
        <path d="M26.836,18.031 L27.716,18.031 C27.76,18.867 28.211,19.307 29.014,19.307 C29.839,19.307 30.422,18.801 30.422,18.064 C30.422,17.426 30.092,17.129 28.937,16.744 C28.068,16.447 27.782,16.304 27.452,16.007 C27.078,15.666 26.88,15.182 26.88,14.621 C26.88,13.378 27.771,12.531 29.069,12.531 C30.367,12.531 31.214,13.356 31.247,14.632 L30.323,14.632 C30.312,14.258 30.268,14.082 30.147,13.873 C29.938,13.554 29.531,13.356 29.058,13.356 C28.332,13.356 27.815,13.851 27.815,14.555 C27.815,14.907 27.969,15.215 28.233,15.402 C28.464,15.567 28.662,15.655 29.41,15.919 C30.191,16.194 30.565,16.392 30.862,16.711 C31.181,17.052 31.357,17.514 31.357,18.009 C31.357,19.274 30.422,20.132 29.047,20.132 C28.112,20.132 27.474,19.802 27.089,19.142 C26.913,18.845 26.836,18.537 26.836,18.185 L26.836,18.031 Z M33.535,15.666 L33.535,18.966 C33.546,19.219 33.612,19.274 33.92,19.274 L34.305,19.274 L34.305,20 L33.524,20 C32.93,19.989 32.699,19.769 32.699,19.208 L32.699,15.666 L31.995,15.666 L31.995,14.929 L32.699,14.929 L32.699,13.334 L33.535,13.334 L33.535,14.929 L34.305,14.929 L34.305,15.666 L33.535,15.666 Z M35.493,14.929 L36.329,14.929 L36.329,15.787 C36.483,15.424 36.593,15.27 36.791,15.116 C37.044,14.918 37.396,14.808 37.759,14.808 L37.957,14.808 L37.957,15.655 C37.869,15.644 37.781,15.644 37.726,15.644 C37.275,15.644 36.879,15.853 36.626,16.227 C36.406,16.546 36.329,16.843 36.329,17.426 L36.329,20 L35.493,20 L35.493,14.929 Z M43.699,17.734 L39.475,17.734 C39.519,18.163 39.596,18.383 39.805,18.658 C40.135,19.109 40.619,19.351 41.169,19.351 C41.796,19.351 42.39,19.01 42.687,18.482 L43.424,18.757 C43.006,19.604 42.137,20.121 41.169,20.121 C39.662,20.121 38.584,19.021 38.584,17.481 C38.584,15.919 39.651,14.808 41.136,14.808 C42.61,14.808 43.71,15.919 43.71,17.404 C43.71,17.47 43.71,17.613 43.699,17.734 Z M39.486,17.118 L42.819,17.118 C42.786,16.722 42.709,16.502 42.533,16.249 C42.214,15.82 41.697,15.556 41.136,15.556 C40.575,15.556 40.069,15.82 39.772,16.26 C39.618,16.502 39.552,16.711 39.486,17.118 Z M45.811,15.666 L45.811,18.966 C45.822,19.219 45.888,19.274 46.196,19.274 L46.581,19.274 L46.581,20 L45.8,20 C45.206,19.989 44.975,19.769 44.975,19.208 L44.975,15.666 L44.271,15.666 L44.271,14.929 L44.975,14.929 L44.975,13.334 L45.811,13.334 L45.811,14.929 L46.581,14.929 L46.581,15.666 L45.811,15.666 Z M51.201,18.801 L51.718,19.373 C51.146,19.89 50.585,20.121 49.848,20.121 C48.396,20.121 47.362,19.021 47.362,17.481 C47.362,15.908 48.407,14.808 49.892,14.808 C50.618,14.808 51.212,15.05 51.74,15.567 L51.201,16.106 C50.816,15.754 50.387,15.578 49.914,15.578 C48.913,15.578 48.22,16.348 48.22,17.448 C48.22,18.57 48.913,19.351 49.903,19.351 C50.398,19.351 50.794,19.186 51.201,18.801 Z M53.632,12.663 L53.632,15.633 C54.094,15.061 54.556,14.808 55.161,14.808 C55.601,14.808 56.063,14.984 56.338,15.27 C56.613,15.545 56.734,15.941 56.734,16.59 L56.734,20 L55.898,20 L55.898,16.634 C55.898,15.941 55.557,15.556 54.952,15.556 C54.567,15.556 54.226,15.71 53.962,16.007 C53.709,16.293 53.632,16.546 53.632,17.03 L53.632,20 L52.796,20 L52.796,12.663 L53.632,12.663 Z M62.575,15.666 L62.575,18.966 C62.586,19.219 62.652,19.274 62.96,19.274 L63.345,19.274 L63.345,20 L62.564,20 C61.97,19.989 61.739,19.769 61.739,19.208 L61.739,15.666 L61.035,15.666 L61.035,14.929 L61.739,14.929 L61.739,13.334 L62.575,13.334 L62.575,14.929 L63.345,14.929 L63.345,15.666 L62.575,15.666 Z M66.722,14.808 C68.218,14.808 69.285,15.919 69.285,17.481 C69.285,18.966 68.141,20.121 66.689,20.121 C65.182,20.121 64.126,19.021 64.126,17.459 C64.126,15.886 65.182,14.808 66.722,14.808 Z M66.722,15.578 C65.677,15.578 64.984,16.337 64.984,17.47 C64.984,18.592 65.677,19.351 66.711,19.351 C67.712,19.351 68.427,18.57 68.427,17.47 C68.427,16.337 67.745,15.578 66.722,15.578 Z M79.713,14.929 L80.571,14.929 L78.767,20 L78.008,20 L76.842,16.15 L75.621,20 L74.829,20 L73.091,14.929 L73.949,14.929 L75.247,18.658 L76.413,14.929 L77.238,14.929 L78.382,18.658 L79.713,14.929 Z M82.309,14.929 L82.309,20 L81.473,20 L81.473,14.929 L82.309,14.929 Z M81.902,12.96 C82.199,12.96 82.43,13.202 82.43,13.51 C82.43,13.807 82.188,14.038 81.891,14.038 C81.594,14.038 81.363,13.807 81.363,13.499 C81.363,13.191 81.594,12.96 81.902,12.96 Z M87.787,15.699 L87.787,12.663 L88.623,12.663 L88.623,20 L87.787,20 L87.787,19.131 C87.281,19.824 86.742,20.121 85.972,20.121 C84.575,20.121 83.585,19.032 83.585,17.492 C83.585,15.952 84.597,14.808 85.972,14.808 C86.72,14.808 87.292,15.083 87.787,15.699 Z M86.148,15.556 C85.147,15.556 84.465,16.348 84.465,17.503 C84.465,18.614 85.136,19.395 86.093,19.395 C87.072,19.395 87.787,18.581 87.787,17.481 C87.787,16.337 87.116,15.556 86.148,15.556 Z M91.197,15.666 L91.197,18.966 C91.208,19.219 91.274,19.274 91.582,19.274 L91.967,19.274 L91.967,20 L91.186,20 C90.592,19.989 90.361,19.769 90.361,19.208 L90.361,15.666 L89.657,15.666 L89.657,14.929 L90.361,14.929 L90.361,13.334 L91.197,13.334 L91.197,14.929 L91.967,14.929 L91.967,15.666 L91.197,15.666 Z M93.991,12.663 L93.991,15.633 C94.453,15.061 94.915,14.808 95.52,14.808 C95.96,14.808 96.422,14.984 96.697,15.27 C96.972,15.545 97.093,15.941 97.093,16.59 L97.093,20 L96.257,20 L96.257,16.634 C96.257,15.941 95.916,15.556 95.311,15.556 C94.926,15.556 94.585,15.71 94.321,16.007 C94.068,16.293 93.991,16.546 93.991,17.03 L93.991,20 L93.155,20 L93.155,12.663 L93.991,12.663 Z M104.232,14.808 C105.728,14.808 106.795,15.919 106.795,17.481 C106.795,18.966 105.651,20.121 104.199,20.121 C102.692,20.121 101.636,19.021 101.636,17.459 C101.636,15.886 102.692,14.808 104.232,14.808 Z M104.232,15.578 C103.187,15.578 102.494,16.337 102.494,17.47 C102.494,18.592 103.187,19.351 104.221,19.351 C105.222,19.351 105.937,18.57 105.937,17.47 C105.937,16.337 105.255,15.578 104.232,15.578 Z M108.995,15.666 L108.995,20 L108.159,20 L108.159,15.666 L107.466,15.666 L107.466,14.929 L108.159,14.929 L108.159,14.247 C108.159,13.246 108.676,12.652 109.556,12.652 C109.6,12.652 109.699,12.652 109.787,12.663 L109.787,13.411 C109.182,13.477 109.017,13.653 108.995,14.247 L108.995,14.929 L109.787,14.929 L109.787,15.666 L108.995,15.666 Z M115.056,20 L114.22,20 L114.22,12.663 L115.056,12.663 L115.056,20 Z M121.447,17.734 L117.223,17.734 C117.267,18.163 117.344,18.383 117.553,18.658 C117.883,19.109 118.367,19.351 118.917,19.351 C119.544,19.351 120.138,19.01 120.435,18.482 L121.172,18.757 C120.754,19.604 119.885,20.121 118.917,20.121 C117.41,20.121 116.332,19.021 116.332,17.481 C116.332,15.919 117.399,14.808 118.884,14.808 C120.358,14.808 121.458,15.919 121.458,17.404 C121.458,17.47 121.458,17.613 121.447,17.734 Z M117.234,17.118 L120.567,17.118 C120.534,16.722 120.457,16.502 120.281,16.249 C119.962,15.82 119.445,15.556 118.884,15.556 C118.323,15.556 117.817,15.82 117.52,16.26 C117.366,16.502 117.3,16.711 117.234,17.118 Z M123.592,15.666 L123.592,20 L122.756,20 L122.756,15.666 L122.063,15.666 L122.063,14.929 L122.756,14.929 L122.756,14.247 C122.756,13.246 123.273,12.652 124.153,12.652 C124.197,12.652 124.296,12.652 124.384,12.663 L124.384,13.411 C123.779,13.477 123.614,13.653 123.592,14.247 L123.592,14.929 L124.384,14.929 L124.384,15.666 L123.592,15.666 Z M126.408,15.666 L126.408,18.966 C126.419,19.219 126.485,19.274 126.793,19.274 L127.178,19.274 L127.178,20 L126.397,20 C125.803,19.989 125.572,19.769 125.572,19.208 L125.572,15.666 L124.868,15.666 L124.868,14.929 L125.572,14.929 L125.572,13.334 L126.408,13.334 L126.408,14.929 L127.178,14.929 L127.178,15.666 L126.408,15.666 Z M131.666,14.929 L132.502,14.929 L132.502,15.853 C132.986,15.105 133.503,14.808 134.35,14.808 C135.758,14.808 136.737,15.886 136.737,17.426 C136.737,19.021 135.758,20.121 134.35,20.121 C133.954,20.121 133.591,20.033 133.239,19.857 C132.931,19.703 132.777,19.571 132.502,19.208 L132.502,22.376 L131.666,22.376 L131.666,14.929 Z M134.207,15.556 C133.195,15.556 132.502,16.359 132.502,17.547 C132.502,18.658 133.173,19.395 134.174,19.395 C135.175,19.395 135.846,18.614 135.846,17.459 C135.846,16.865 135.703,16.414 135.406,16.084 C135.109,15.754 134.658,15.556 134.207,15.556 Z M141.83,15.765 L141.83,14.929 L142.666,14.929 L142.666,20 L141.83,20 L141.83,19.021 C141.324,19.78 140.752,20.121 139.982,20.121 C138.585,20.121 137.595,19.021 137.595,17.481 C137.595,15.93 138.607,14.808 140.004,14.808 C140.774,14.808 141.335,15.105 141.83,15.765 Z M140.125,15.556 C139.575,15.556 139.19,15.743 138.893,16.161 C138.629,16.524 138.475,17.008 138.475,17.503 C138.475,18.581 139.179,19.395 140.103,19.395 C141.06,19.395 141.841,18.504 141.841,17.415 C141.841,16.315 141.137,15.556 140.125,15.556 Z M144.349,14.929 L145.185,14.929 L145.185,15.644 C145.625,15.05 146.065,14.808 146.692,14.808 C147.154,14.808 147.572,14.962 147.869,15.226 C148.188,15.534 148.298,15.886 148.298,16.579 L148.298,20 L147.462,20 L147.462,16.766 C147.462,16.315 147.407,16.073 147.275,15.897 C147.121,15.688 146.824,15.556 146.483,15.556 C146.109,15.556 145.768,15.699 145.515,15.985 C145.273,16.249 145.185,16.491 145.185,16.909 L145.185,20 L144.349,20 L144.349,14.929 Z M154.656,17.734 L150.432,17.734 C150.476,18.163 150.553,18.383 150.762,18.658 C151.092,19.109 151.576,19.351 152.126,19.351 C152.753,19.351 153.347,19.01 153.644,18.482 L154.381,18.757 C153.963,19.604 153.094,20.121 152.126,20.121 C150.619,20.121 149.541,19.021 149.541,17.481 C149.541,15.919 150.608,14.808 152.093,14.808 C153.567,14.808 154.667,15.919 154.667,17.404 C154.667,17.47 154.667,17.613 154.656,17.734 Z M150.443,17.118 L153.776,17.118 C153.743,16.722 153.666,16.502 153.49,16.249 C153.171,15.82 152.654,15.556 152.093,15.556 C151.532,15.556 151.026,15.82 150.729,16.26 C150.575,16.502 150.509,16.711 150.443,17.118 Z M156.9,19.142 L155.789,21.749 L155.184,21.562 L156.108,18.889 L156.9,19.142 Z M156.372,15.831 C156.702,15.831 156.944,16.073 156.944,16.414 C156.944,16.733 156.691,16.975 156.372,16.975 C156.042,16.975 155.8,16.733 155.8,16.403 C155.8,16.073 156.042,15.831 156.372,15.831 Z M45.1235,23.663 L45.1235,26.633 C45.5855,26.061 46.0475,25.808 46.6525,25.808 C47.0925,25.808 47.5545,25.984 47.8295,26.27 C48.1045,26.545 48.2255,26.941 48.2255,27.59 L48.2255,31 L47.3895,31 L47.3895,27.634 C47.3895,26.941 47.0485,26.556 46.4435,26.556 C46.0585,26.556 45.7175,26.71 45.4535,27.007 C45.2005,27.293 45.1235,27.546 45.1235,28.03 L45.1235,31 L44.2875,31 L44.2875,23.663 L45.1235,23.663 Z M52.0645,25.808 C53.5605,25.808 54.6275,26.919 54.6275,28.481 C54.6275,29.966 53.4835,31.121 52.0315,31.121 C50.5245,31.121 49.4685,30.021 49.4685,28.459 C49.4685,26.886 50.5245,25.808 52.0645,25.808 Z M52.0645,26.578 C51.0195,26.578 50.3265,27.337 50.3265,28.47 C50.3265,29.592 51.0195,30.351 52.0535,30.351 C53.0545,30.351 53.7695,29.57 53.7695,28.47 C53.7695,27.337 53.0875,26.578 52.0645,26.578 Z M55.9035,25.929 L56.7395,25.929 L56.7395,26.787 C56.8935,26.424 57.0035,26.27 57.2015,26.116 C57.4545,25.918 57.8065,25.808 58.1695,25.808 L58.3675,25.808 L58.3675,26.655 C58.2795,26.644 58.1915,26.644 58.1365,26.644 C57.6855,26.644 57.2895,26.853 57.0365,27.227 C56.8165,27.546 56.7395,27.843 56.7395,28.426 L56.7395,31 L55.9035,31 L55.9035,25.929 Z M60.2375,25.929 L60.2375,31 L59.4015,31 L59.4015,25.929 L60.2375,25.929 Z M59.8305,23.96 C60.1275,23.96 60.3585,24.202 60.3585,24.51 C60.3585,24.807 60.1165,25.038 59.8195,25.038 C59.5225,25.038 59.2915,24.807 59.2915,24.499 C59.2915,24.191 59.5225,23.96 59.8305,23.96 Z M62.7345,30.263 L65.0665,30.263 L65.0665,31 L61.3265,31 L63.9665,26.666 L61.6125,26.666 L61.6125,25.929 L65.3415,25.929 L62.7345,30.263 Z M68.5205,25.808 C70.0165,25.808 71.0835,26.919 71.0835,28.481 C71.0835,29.966 69.9395,31.121 68.4875,31.121 C66.9805,31.121 65.9245,30.021 65.9245,28.459 C65.9245,26.886 66.9805,25.808 68.5205,25.808 Z M68.5205,26.578 C67.4755,26.578 66.7825,27.337 66.7825,28.47 C66.7825,29.592 67.4755,30.351 68.5095,30.351 C69.5105,30.351 70.2255,29.57 70.2255,28.47 C70.2255,27.337 69.5435,26.578 68.5205,26.578 Z M72.3595,25.929 L73.1955,25.929 L73.1955,26.644 C73.6355,26.05 74.0755,25.808 74.7025,25.808 C75.1645,25.808 75.5825,25.962 75.8795,26.226 C76.1985,26.534 76.3085,26.886 76.3085,27.579 L76.3085,31 L75.4725,31 L75.4725,27.766 C75.4725,27.315 75.4175,27.073 75.2855,26.897 C75.1315,26.688 74.8345,26.556 74.4935,26.556 C74.1195,26.556 73.7785,26.699 73.5255,26.985 C73.2835,27.249 73.1955,27.491 73.1955,27.909 L73.1955,31 L72.3595,31 L72.3595,25.929 Z M78.8495,26.666 L78.8495,29.966 C78.8605,30.219 78.9265,30.274 79.2345,30.274 L79.6195,30.274 L79.6195,31 L78.8385,31 C78.2445,30.989 78.0135,30.769 78.0135,30.208 L78.0135,26.666 L77.3095,26.666 L77.3095,25.929 L78.0135,25.929 L78.0135,24.334 L78.8495,24.334 L78.8495,25.929 L79.6195,25.929 L79.6195,26.666 L78.8495,26.666 Z M84.6355,26.765 L84.6355,25.929 L85.4715,25.929 L85.4715,31 L84.6355,31 L84.6355,30.021 C84.1295,30.78 83.5575,31.121 82.7875,31.121 C81.3905,31.121 80.4005,30.021 80.4005,28.481 C80.4005,26.93 81.4125,25.808 82.8095,25.808 C83.5795,25.808 84.1405,26.105 84.6355,26.765 Z M82.9305,26.556 C82.3805,26.556 81.9955,26.743 81.6985,27.161 C81.4345,27.524 81.2805,28.008 81.2805,28.503 C81.2805,29.581 81.9845,30.395 82.9085,30.395 C83.8655,30.395 84.6465,29.504 84.6465,28.415 C84.6465,27.315 83.9425,26.556 82.9305,26.556 Z M87.9905,31 L87.1545,31 L87.1545,23.663 L87.9905,23.663 L87.9905,31 Z M90.5095,31 L89.6735,31 L89.6735,23.663 L90.5095,23.663 L90.5095,31 Z M93.6775,29.691 L95.1955,25.929 L96.1085,25.929 L93.0835,33.442 L92.1705,33.442 L93.2265,30.846 L91.4225,25.929 L92.3135,25.929 L93.6775,29.691 Z M103.7425,29.801 L104.2595,30.373 C103.6875,30.89 103.1265,31.121 102.3895,31.121 C100.9375,31.121 99.9035,30.021 99.9035,28.481 C99.9035,26.908 100.9485,25.808 102.4335,25.808 C103.1595,25.808 103.7535,26.05 104.2815,26.567 L103.7425,27.106 C103.3575,26.754 102.9285,26.578 102.4555,26.578 C101.4545,26.578 100.7615,27.348 100.7615,28.448 C100.7615,29.57 101.4545,30.351 102.4445,30.351 C102.9395,30.351 103.3355,30.186 103.7425,29.801 Z M110.0455,28.734 L105.8215,28.734 C105.8655,29.163 105.9425,29.383 106.1515,29.658 C106.4815,30.109 106.9655,30.351 107.5155,30.351 C108.1425,30.351 108.7365,30.01 109.0335,29.482 L109.7705,29.757 C109.3525,30.604 108.4835,31.121 107.5155,31.121 C106.0085,31.121 104.9305,30.021 104.9305,28.481 C104.9305,26.919 105.9975,25.808 107.4825,25.808 C108.9565,25.808 110.0565,26.919 110.0565,28.404 C110.0565,28.47 110.0565,28.613 110.0455,28.734 Z M105.8325,28.118 L109.1655,28.118 C109.1325,27.722 109.0555,27.502 108.8795,27.249 C108.5605,26.82 108.0435,26.556 107.4825,26.556 C106.9215,26.556 106.4155,26.82 106.1185,27.26 C105.9645,27.502 105.8985,27.711 105.8325,28.118 Z M111.2665,25.929 L112.1025,25.929 L112.1025,26.644 C112.5425,26.05 112.9825,25.808 113.6095,25.808 C114.0715,25.808 114.4895,25.962 114.7865,26.226 C115.1055,26.534 115.2155,26.886 115.2155,27.579 L115.2155,31 L114.3795,31 L114.3795,27.766 C114.3795,27.315 114.3245,27.073 114.1925,26.897 C114.0385,26.688 113.7415,26.556 113.4005,26.556 C113.0265,26.556 112.6855,26.699 112.4325,26.985 C112.1905,27.249 112.1025,27.491 112.1025,27.909 L112.1025,31 L111.2665,31 L111.2665,25.929 Z M117.7565,26.666 L117.7565,29.966 C117.7675,30.219 117.8335,30.274 118.1415,30.274 L118.5265,30.274 L118.5265,31 L117.7455,31 C117.1515,30.989 116.9205,30.769 116.9205,30.208 L116.9205,26.666 L116.2165,26.666 L116.2165,25.929 L116.9205,25.929 L116.9205,24.334 L117.7565,24.334 L117.7565,25.929 L118.5265,25.929 L118.5265,26.666 L117.7565,26.666 Z M124.4225,28.734 L120.1985,28.734 C120.2425,29.163 120.3195,29.383 120.5285,29.658 C120.8585,30.109 121.3425,30.351 121.8925,30.351 C122.5195,30.351 123.1135,30.01 123.4105,29.482 L124.1475,29.757 C123.7295,30.604 122.8605,31.121 121.8925,31.121 C120.3855,31.121 119.3075,30.021 119.3075,28.481 C119.3075,26.919 120.3745,25.808 121.8595,25.808 C123.3335,25.808 124.4335,26.919 124.4335,28.404 C124.4335,28.47 124.4335,28.613 124.4225,28.734 Z M120.2095,28.118 L123.5425,28.118 C123.5095,27.722 123.4325,27.502 123.2565,27.249 C122.9375,26.82 122.4205,26.556 121.8595,26.556 C121.2985,26.556 120.7925,26.82 120.4955,27.26 C120.3415,27.502 120.2755,27.711 120.2095,28.118 Z M125.6435,25.929 L126.4795,25.929 L126.4795,26.787 C126.6335,26.424 126.7435,26.27 126.9415,26.116 C127.1945,25.918 127.5465,25.808 127.9095,25.808 L128.1075,25.808 L128.1075,26.655 C128.0195,26.644 127.9315,26.644 127.8765,26.644 C127.4255,26.644 127.0295,26.853 126.7765,27.227 C126.5565,27.546 126.4795,27.843 126.4795,28.426 L126.4795,31 L125.6435,31 L125.6435,25.929 Z M133.8495,28.734 L129.6255,28.734 C129.6695,29.163 129.7465,29.383 129.9555,29.658 C130.2855,30.109 130.7695,30.351 131.3195,30.351 C131.9465,30.351 132.5405,30.01 132.8375,29.482 L133.5745,29.757 C133.1565,30.604 132.2875,31.121 131.3195,31.121 C129.8125,31.121 128.7345,30.021 128.7345,28.481 C128.7345,26.919 129.8015,25.808 131.2865,25.808 C132.7605,25.808 133.8605,26.919 133.8605,28.404 C133.8605,28.47 133.8605,28.613 133.8495,28.734 Z M129.6365,28.118 L132.9695,28.118 C132.9365,27.722 132.8595,27.502 132.6835,27.249 C132.3645,26.82 131.8475,26.556 131.2865,26.556 C130.7255,26.556 130.2195,26.82 129.9225,27.26 C129.7685,27.502 129.7025,27.711 129.6365,28.118 Z M138.8655,26.699 L138.8655,23.663 L139.7015,23.663 L139.7015,31 L138.8655,31 L138.8655,30.131 C138.3595,30.824 137.8205,31.121 137.0505,31.121 C135.6535,31.121 134.6635,30.032 134.6635,28.492 C134.6635,26.952 135.6755,25.808 137.0505,25.808 C137.7985,25.808 138.3705,26.083 138.8655,26.699 Z M137.2265,26.556 C136.2255,26.556 135.5435,27.348 135.5435,28.503 C135.5435,29.614 136.2145,30.395 137.1715,30.395 C138.1505,30.395 138.8655,29.581 138.8655,28.481 C138.8655,27.337 138.1945,26.556 137.2265,26.556 Z"/>
        <rect width="158" height="1" x="5" y="4"/>
        <polygon points="165.5 2 168 7 163 7" transform="rotate(90 165.5 4.5)"/>
        <polygon points="2.5 2 5 7 0 7" transform="matrix(0 1 1 0 -2 2)"/>
      </g>
    </g>
  </g>
</svg>
