<svg xmlns="http://www.w3.org/2000/svg" xmlns:xlink="http://www.w3.org/1999/xlink" width="1026" height="180" viewBox="0 0 1026 180">
  <defs>
    <rect id="5-b" width="320" height="48" x="0" y="0" rx="4"/>
    <filter id="5-a" width="117.2%" height="214.6%" x="-8.6%" y="-55.2%" filterUnits="objectBoundingBox">
      <feMorphology in="SourceAlpha" radius=".5" result="shadowSpreadOuter1"/>
      <feOffset dy="3" in="shadowSpreadOuter1" result="shadowOffsetOuter1"/>
      <feGaussianBlur in="shadowOffsetOuter1" result="shadowBlurOuter1" stdDeviation="2.5"/>
      <feColorMatrix in="shadowBlurOuter1" result="shadowMatrixOuter1" values="0 0 0 0 0   0 0 0 0 0   0 0 0 0 0  0 0 0 0.2 0"/>
      <feOffset dy="1" in="SourceAlpha" result="shadowOffsetOuter2"/>
      <feGaussianBlur in="shadowOffsetOuter2" result="shadowBlurOuter2" stdDeviation="9"/>
      <feColorMatrix in="shadowBlurOuter2" result="shadowMatrixOuter2" values="0 0 0 0 0   0 0 0 0 0   0 0 0 0 0  0 0 0 0.12 0"/>
      <feOffset dy="6" in="SourceAlpha" result="shadowOffsetOuter3"/>
      <feGaussianBlur in="shadowOffsetOuter3" result="shadowBlurOuter3" stdDeviation="5"/>
      <feColorMatrix in="shadowBlurOuter3" result="shadowMatrixOuter3" values="0 0 0 0 0   0 0 0 0 0   0 0 0 0 0  0 0 0 0.14 0"/>
      <feMerge>
        <feMergeNode in="shadowMatrixOuter1"/>
        <feMergeNode in="shadowMatrixOuter2"/>
        <feMergeNode in="shadowMatrixOuter3"/>
      </feMerge>
    </filter>
  </defs>
  <g fill="none" fill-rule="evenodd" transform="translate(1)">
    <rect width="1024" height="180" fill="#FFF" fill-opacity=".01" fill-rule="nonzero"/>
    <g transform="translate(0 28)">
      <polyline fill="#FFF" fill-rule="nonzero" stroke="#979797" points="1024 0 1024 124 0 124 0 0 0 0"/>
      <g transform="translate(353 60)">
        <use fill="#000" filter="url(#5-a)" xlink:href="#5-b"/>
        <use fill="#FAFAFA" xlink:href="#5-b"/>
        <rect width="320.003" height="48" fill="#25333D" rx="4"/>
        <path fill="#89CBDF" fill-rule="nonzero" d="M255.844295,26.6826172 L251.988826,26.6826172 L251.182186,29 L249.384334,29 L253.1441,19.046875 L254.695858,19.046875 L258.462459,29 L256.657772,29 L255.844295,26.6826172 Z M252.474178,25.2880859 L255.358943,25.2880859 L253.916561,21.1591797 L252.474178,25.2880859 Z M267.791561,25.7597656 C267.6913,26.8216199 267.299377,27.6498994 266.615779,28.2446289 C265.932182,28.8393584 265.023012,29.1367188 263.88824,29.1367188 C263.095268,29.1367188 262.39687,28.9487323 261.793026,28.5727539 C261.189181,28.1967755 260.723203,27.6624384 260.395076,26.9697266 C260.06695,26.2770148 259.896053,25.4726608 259.882381,24.5566406 L259.882381,23.6269531 C259.882381,22.6881463 260.04872,21.8610062 260.381404,21.1455078 C260.714088,20.4300094 261.19146,19.8785827 261.813533,19.4912109 C262.435607,19.1038392 263.154512,18.9101562 263.970272,18.9101562 C265.068584,18.9101562 265.95269,19.2086559 266.622615,19.8056641 C267.292541,20.4026723 267.682185,21.2457628 267.791561,22.3349609 L266.068904,22.3349609 C265.986873,21.6194626 265.778379,21.1033544 265.443416,20.7866211 C265.108454,20.4698877 264.61741,20.3115234 263.970272,20.3115234 C263.218315,20.3115234 262.640684,20.5860975 262.237361,21.1352539 C261.834039,21.6844103 261.627824,22.4899035 261.618709,23.5517578 L261.618709,24.4335938 C261.618709,25.50912 261.811253,26.3294243 262.196346,26.8945312 C262.581439,27.4596382 263.145398,27.7421875 263.88824,27.7421875 C264.56728,27.7421875 265.077692,27.5895198 265.41949,27.2841797 C265.761289,26.9788396 265.977758,26.4707067 266.068904,25.7597656 L267.791561,25.7597656 Z M277.079647,20.4414062 L273.976131,20.4414062 L273.976131,29 L272.260311,29 L272.260311,20.4414062 L269.184139,20.4414062 L269.184139,19.046875 L277.079647,19.046875 L277.079647,20.4414062 Z M280.960506,29 L279.23785,29 L279.23785,19.046875 L280.960506,19.046875 L280.960506,29 Z M291.779842,24.2832031 C291.779842,25.2584684 291.611224,26.1140914 291.273983,26.8500977 C290.936741,27.5861039 290.454813,28.1512025 289.828182,28.5454102 C289.201551,28.9396179 288.480367,29.1367188 287.664608,29.1367188 C286.857963,29.1367188 286.139057,28.9396179 285.507869,28.5454102 C284.876681,28.1512025 284.389056,27.5895219 284.044979,26.8603516 C283.700901,26.1311812 283.526587,25.2903693 283.522029,24.3378906 L283.522029,23.7773438 C283.522029,22.8066358 283.694065,21.9498735 284.038143,21.2070312 C284.38222,20.464189 284.867567,19.8956725 285.494197,19.5014648 C286.120828,19.1072571 286.839734,18.9101562 287.650936,18.9101562 C288.462138,18.9101562 289.181043,19.1049785 289.807674,19.4946289 C290.434305,19.8842793 290.918512,20.4448206 291.260311,21.1762695 C291.602109,21.9077185 291.775285,22.7587842 291.779842,23.7294922 L291.779842,24.2832031 Z M290.05035,23.7636719 C290.05035,22.6608018 289.841856,21.8154326 289.424861,21.2275391 C289.007867,20.6396455 288.416565,20.3457031 287.650936,20.3457031 C286.903536,20.3457031 286.319069,20.6385062 285.897518,21.2241211 C285.475966,21.809736 285.260636,22.6380155 285.251522,23.7089844 L285.251522,24.2832031 C285.251522,25.3769586 285.464573,26.2223277 285.890682,26.8193359 C286.316791,27.4163441 286.908093,27.7148438 287.664608,27.7148438 C288.430236,27.7148438 289.01926,27.42318 289.431697,26.8398438 C289.844134,26.2565075 290.05035,25.4043025 290.05035,24.2832031 L290.05035,23.7636719 Z M302.148006,29 L300.418514,29 L295.98199,21.9384766 L295.98199,29 L294.252498,29 L294.252498,19.046875 L295.98199,19.046875 L300.432186,26.1357422 L300.432186,19.046875 L302.148006,19.046875 L302.148006,29 Z"/>
        <path fill="#F3F6FA" fill-rule="nonzero" d="M20.0137002,24.6439942 C18.9084729,24.3262973 18.1041748,23.9358939 17.6007818,23.4727723 C17.0973888,23.0096508 16.845696,22.4380286 16.845696,21.7578887 C16.845696,20.9882567 17.1533205,20.3517538 17.7685786,19.8483608 C18.3838367,19.3449677 19.1836603,19.093275 20.1680733,19.093275 C20.839264,19.093275 21.4377334,19.2230366 21.9634994,19.4825637 C22.4892655,19.7420907 22.8964484,20.1000537 23.1850604,20.5564634 C23.4736724,21.0128731 23.6179762,21.511784 23.6179762,22.0532111 L22.3225846,22.0532111 C22.3225846,21.4625633 22.1346541,20.9983301 21.7587873,20.6604974 C21.3829205,20.3226648 20.8526878,20.153751 20.1680733,20.153751 C19.5326795,20.153751 19.0371244,20.2935803 18.6813934,20.5732431 C18.3256623,20.8529059 18.1477995,21.241072 18.1477995,21.7377531 C18.1477995,22.1359929 18.3167132,22.4727018 18.6545459,22.74789 C18.9923785,23.0230782 19.5673566,23.2747709 20.3794973,23.5029758 C21.1916381,23.7311806 21.8270224,23.9828733 22.2856693,24.2580615 C22.7443163,24.5332497 23.0843812,24.8542978 23.3058741,25.2212153 C23.527367,25.5881329 23.6381118,26.0199258 23.6381118,26.5166069 C23.6381118,27.3086119 23.3293687,27.9428776 22.7118733,28.419423 C22.0943779,28.8959683 21.2688257,29.1342375 20.2351921,29.1342375 C19.5640014,29.1342375 18.9375661,29.0055945 18.3558675,28.7483048 C17.7741689,28.491015 17.3255966,28.1386452 17.0101369,27.6911847 C16.6946773,27.2437242 16.5369499,26.7358642 16.5369499,26.1675895 L17.8323414,26.1675895 C17.8323414,26.7582373 18.0504751,27.2247078 18.4867491,27.5670151 C18.923023,27.9093223 19.5058315,28.0804734 20.2351921,28.0804734 C20.9153319,28.0804734 21.4366156,27.9417627 21.7990585,27.6643372 C22.1615015,27.3869117 22.3427203,27.0088133 22.3427203,26.5300306 C22.3427203,26.0512479 22.1749251,25.68098 21.8393298,25.4192156 C21.5037344,25.1574512 20.8951973,24.8990467 20.0137002,24.6439942 Z M26.6936749,29 L25.4519783,29 L25.4519783,21.7377531 L26.6936749,21.7377531 L26.6936749,29 Z M25.3513002,19.8114455 C25.3513002,19.6100882 25.4128251,19.4400558 25.5358767,19.3013431 C25.6589283,19.1626303 25.8412657,19.093275 26.0828944,19.093275 C26.324523,19.093275 26.5079791,19.1626303 26.633268,19.3013431 C26.7585569,19.4400558 26.8212004,19.6100882 26.8212004,19.8114455 C26.8212004,20.0128027 26.7585569,20.1805978 26.633268,20.314836 C26.5079791,20.4490741 26.324523,20.5161922 26.0828944,20.5161922 C25.8412657,20.5161922 25.6589283,20.4490741 25.5358767,20.314836 C25.4128251,20.1805978 25.3513002,20.0128027 25.3513002,19.8114455 Z M30.1049672,21.7377531 L30.1452384,22.6505679 C30.7000894,21.9525295 31.4249645,21.6035156 32.3198854,21.6035156 C33.8546747,21.6035156 34.6287697,22.4693386 34.6421935,24.2010106 L34.6421935,29 L33.400497,29 L33.400497,24.1942987 C33.3960224,23.67077 33.2763285,23.2837225 33.0414117,23.0331446 C32.806495,22.7825668 32.4407016,22.6572797 31.9440205,22.6572797 C31.541306,22.6572797 31.1878176,22.7646686 30.8835445,22.9794497 C30.5792714,23.1942307 30.3421209,23.4761265 30.1720859,23.8251457 L30.1720859,29 L28.9303893,29 L28.9303893,21.7377531 L30.1049672,21.7377531 Z M36.4694838,25.3084697 C36.4694838,24.1763947 36.7312442,23.2758941 37.2547729,22.6069407 C37.7783017,21.9379873 38.471855,21.6035156 39.3354536,21.6035156 C40.2214254,21.6035156 40.9127414,21.9167332 41.4094225,22.5431779 L41.4698294,21.7377531 L42.6041359,21.7377531 L42.6041359,28.8254913 C42.6041359,29.7651583 42.325596,30.5056942 41.7685077,31.0471214 C41.2114195,31.5885485 40.4630531,31.859258 39.5233861,31.859258 C38.9998574,31.859258 38.4875228,31.7473946 37.9863671,31.5236644 C37.4852114,31.2999341 37.1026385,30.9934283 36.8386368,30.6041377 L37.4829766,29.8591198 C38.0154546,30.5168867 38.6664998,30.8457652 39.4361317,30.8457652 C40.0402034,30.8457652 40.5111484,30.6757327 40.8489811,30.3356628 C41.1868137,29.9955928 41.3557275,29.5168173 41.3557275,28.8993219 L41.3557275,28.2751177 C40.8590464,28.8478671 40.181154,29.1342375 39.3220299,29.1342375 C38.471855,29.1342375 37.7838949,28.7919354 37.2581289,28.1073209 C36.7323628,27.4227064 36.4694838,26.4897653 36.4694838,25.3084697 Z M37.7178922,25.449419 C37.7178922,26.2682717 37.8856873,26.9114864 38.2212827,27.3790826 C38.556878,27.8466788 39.0267045,28.0804734 39.6307761,28.0804734 C40.4138319,28.0804734 40.9888099,27.7247476 41.3557275,27.0132855 L41.3557275,23.6976201 C40.9753861,23.0040564 40.4048826,22.6572797 39.6441998,22.6572797 C39.0401282,22.6572797 38.5680645,22.8921929 38.2279946,23.3620264 C37.8879246,23.8318599 37.7178922,24.5276505 37.7178922,25.449419 Z M46.0758351,29 L44.8341386,29 L44.8341386,18.6905626 L46.0758351,18.6905626 L46.0758351,29 Z M51.3261807,29.1342375 C50.3417677,29.1342375 49.5408255,28.8109521 48.9233301,28.1643718 C48.3058347,27.5177914 47.9970916,26.6530871 47.9970916,25.5702327 L47.9970916,25.3420291 C47.9970916,24.6216177 48.1346836,23.978403 48.4098718,23.4123655 C48.68506,22.846328 49.0698702,22.4033488 49.564314,22.0834146 C50.0587578,21.7634803 50.5945837,21.6035156 51.1718077,21.6035156 C52.1159492,21.6035156 52.8497734,21.914496 53.3733021,22.536466 C53.8968308,23.158436 54.1585913,24.048869 54.1585913,25.2077916 L54.1585913,25.7246058 L49.2387881,25.7246058 C49.2566866,26.4405426 49.4658712,27.0188765 49.8663483,27.4596251 C50.2668254,27.9003736 50.775804,28.1207446 51.3932995,28.1207446 C51.8318107,28.1207446 52.2031973,28.0312538 52.5074704,27.8522697 C52.8117435,27.6732855 53.0779785,27.436135 53.3061834,27.1408111 L54.064625,27.7314559 C53.4560788,28.6666483 52.5432732,29.1342375 51.3261807,29.1342375 Z M51.1718077,22.6237204 C50.6706519,22.6237204 50.2500454,22.8060578 49.9099755,23.170738 C49.5699055,23.5354183 49.3596023,24.0466342 49.2790594,24.7044011 L52.9168947,24.7044011 L52.9168947,24.6104349 C52.8810979,23.9795156 52.7110654,23.4906724 52.4067923,23.1438905 C52.1025192,22.7971087 51.6908618,22.6237204 51.1718077,22.6237204 Z M60.8469384,29 L59.6052419,29 L59.6052419,18.6905626 L60.8469384,18.6905626 L60.8469384,29 Z M64.4327395,29 L63.1910429,29 L63.1910429,21.7377531 L64.4327395,21.7377531 L64.4327395,29 Z M63.0903648,19.8114455 C63.0903648,19.6100882 63.1518897,19.4400558 63.2749413,19.3013431 C63.397993,19.1626303 63.5803304,19.093275 63.821959,19.093275 C64.0635877,19.093275 64.2470437,19.1626303 64.3723326,19.3013431 C64.4976215,19.4400558 64.5602651,19.6100882 64.5602651,19.8114455 C64.5602651,20.0128027 64.4976215,20.1805978 64.3723326,20.314836 C64.2470437,20.4490741 64.0635877,20.5161922 63.821959,20.5161922 C63.5803304,20.5161922 63.397993,20.4490741 63.2749413,20.314836 C63.1518897,20.1805978 63.0903648,20.0128027 63.0903648,19.8114455 Z M67.8440318,21.7377531 L67.884303,22.6505679 C68.439154,21.9525295 69.1640291,21.6035156 70.05895,21.6035156 C71.5937394,21.6035156 72.3678343,22.4693386 72.3812582,24.2010106 L72.3812582,29 L71.1395616,29 L71.1395616,24.1942987 C71.135087,23.67077 71.0153931,23.2837225 70.7804764,23.0331446 C70.5455596,22.7825668 70.1797662,22.6572797 69.6830851,22.6572797 C69.2803707,22.6572797 68.9268822,22.7646686 68.6226091,22.9794497 C68.318336,23.1942307 68.0811855,23.4761265 67.9111505,23.8251457 L67.9111505,29 L66.669454,29 L66.669454,21.7377531 L67.8440318,21.7377531 Z M77.5175019,29.1342375 C76.5330889,29.1342375 75.7321467,28.8109521 75.1146513,28.1643718 C74.4971558,27.5177914 74.1884128,26.6530871 74.1884128,25.5702327 L74.1884128,25.3420291 C74.1884128,24.6216177 74.3260048,23.978403 74.601193,23.4123655 C74.8763811,22.846328 75.2611914,22.4033488 75.7556352,22.0834146 C76.250079,21.7634803 76.7859048,21.6035156 77.3631288,21.6035156 C78.3072704,21.6035156 79.0410945,21.914496 79.5646233,22.536466 C80.088152,23.158436 80.3499124,24.048869 80.3499124,25.2077916 L80.3499124,25.7246058 L75.4301093,25.7246058 C75.4480077,26.4405426 75.6571924,27.0188765 76.0576695,27.4596251 C76.4581466,27.9003736 76.9671252,28.1207446 77.5846206,28.1207446 C78.0231319,28.1207446 78.3945185,28.0312538 78.6987916,27.8522697 C79.0030647,27.6732855 79.2692997,27.436135 79.4975045,27.1408111 L80.2559462,27.7314559 C79.6474,28.6666483 78.7345944,29.1342375 77.5175019,29.1342375 Z M77.3631288,22.6237204 C76.8619731,22.6237204 76.4413666,22.8060578 76.1012966,23.170738 C75.7612267,23.5354183 75.5509234,24.0466342 75.4703806,24.7044011 L79.1082159,24.7044011 L79.1082159,24.6104349 C79.072419,23.9795156 78.9023866,23.4906724 78.5981135,23.1438905 C78.2938404,22.7971087 77.882183,22.6237204 77.3631288,22.6237204 Z M86.857039,21.7377531 L86.8905984,22.5431779 C87.4230764,21.9167332 88.1412396,21.6035156 89.0451097,21.6035156 C90.060845,21.6035156 90.752161,21.9928004 91.1190786,22.7713816 C91.3607072,22.4223624 91.6750435,22.1404666 92.0620968,21.9256855 C92.4491501,21.7109045 92.9066715,21.6035156 93.4346749,21.6035156 C95.0276341,21.6035156 95.8375254,22.4469659 95.864373,24.1338919 L95.864373,29 L94.6226765,29 L94.6226765,24.2077225 C94.6226765,23.6886683 94.5041012,23.3005022 94.2669472,23.0432124 C94.0297931,22.7859227 93.6315593,22.6572797 93.0722337,22.6572797 C92.6113495,22.6572797 92.2287765,22.7948718 91.9245034,23.0700599 C91.6202303,23.3452481 91.443486,23.7155161 91.3942654,24.180875 L91.3942654,29 L90.145857,29 L90.145857,24.2412818 C90.145857,23.1852752 89.6290479,22.6572797 88.5954142,22.6572797 C87.7810362,22.6572797 87.2239563,23.0040564 86.9241578,23.6976201 L86.9241578,29 L85.6824612,29 L85.6824612,21.7377531 L86.857039,21.7377531 Z M101.000617,29.1342375 C100.016204,29.1342375 99.2152616,28.8109521 98.5977661,28.1643718 C97.9802707,27.5177914 97.6715276,26.6530871 97.6715276,25.5702327 L97.6715276,25.3420291 C97.6715276,24.6216177 97.8091196,23.978403 98.0843078,23.4123655 C98.359496,22.846328 98.7443062,22.4033488 99.23875,22.0834146 C99.7331938,21.7634803 100.26902,21.6035156 100.846244,21.6035156 C101.790385,21.6035156 102.524209,21.914496 103.047738,22.536466 C103.571267,23.158436 103.833027,24.048869 103.833027,25.2077916 L103.833027,25.7246058 L98.9132242,25.7246058 C98.9311226,26.4405426 99.1403072,27.0188765 99.5407843,27.4596251 C99.9412614,27.9003736 100.45024,28.1207446 101.067736,28.1207446 C101.506247,28.1207446 101.877633,28.0312538 102.181906,27.8522697 C102.48618,27.6732855 102.752415,27.436135 102.980619,27.1408111 L103.739061,27.7314559 C103.130515,28.6666483 102.217709,29.1342375 101.000617,29.1342375 Z M100.846244,22.6237204 C100.345088,22.6237204 99.9244815,22.8060578 99.5844115,23.170738 C99.2443416,23.5354183 99.0340383,24.0466342 98.9534954,24.7044011 L102.591331,24.7044011 L102.591331,24.6104349 C102.555534,23.9795156 102.385501,23.4906724 102.081228,23.1438905 C101.776955,22.7971087 101.365298,22.6237204 100.846244,22.6237204 Z M109.747848,27.0736924 C109.747848,26.738097 109.621443,26.4774552 109.368628,26.2917591 C109.115812,26.106063 108.67507,25.9460983 108.046388,25.8118602 C107.417707,25.677622 106.918796,25.5165387 106.549641,25.3286053 C106.180486,25.1406719 105.907539,24.916945 105.730792,24.657418 C105.554045,24.3978909 105.465673,24.0891478 105.465673,23.7311795 C105.465673,23.1360571 105.717366,22.6326716 106.220759,22.221008 C106.724152,21.8093443 107.367367,21.6035156 108.150423,21.6035156 C108.97375,21.6035156 109.641574,21.8160562 110.153917,22.2411436 C110.666259,22.666231 110.922426,23.2098873 110.922426,23.8721288 L109.674018,23.8721288 C109.674018,23.5320589 109.529714,23.2389766 109.241102,22.9928734 C108.95249,22.7467701 108.588934,22.6237204 108.150423,22.6237204 C107.698487,22.6237204 107.344999,22.7221602 107.089947,22.9190428 C106.834894,23.1159254 106.70737,23.3732113 106.70737,23.6909082 C106.70737,23.9907067 106.825945,24.2166709 107.063099,24.3688074 C107.300253,24.520944 107.72869,24.6663664 108.348423,24.8050792 C108.968156,24.9437919 109.470422,25.1093498 109.855238,25.3017578 C110.240054,25.4941658 110.525306,25.7257231 110.711002,25.9964367 C110.896698,26.2671503 110.989545,26.5971474 110.989545,26.986438 C110.989545,27.6352557 110.730022,28.1554207 110.210968,28.5469486 C109.691913,28.9384765 109.018496,29.1342375 108.190694,29.1342375 C107.608995,29.1342375 107.094423,29.0313231 106.646963,28.8254913 C106.199502,28.6196595 105.84937,28.3321705 105.596555,27.9630156 C105.34374,27.5938607 105.217334,27.1945082 105.217334,26.7649462 L106.45903,26.7649462 C106.481403,27.1810844 106.64808,27.5110816 106.959065,27.7549475 C107.27005,27.9988135 107.680589,28.1207446 108.190694,28.1207446 C108.660527,28.1207446 109.037507,28.0256607 109.321644,27.83549 C109.605782,27.6453193 109.747848,27.3913893 109.747848,27.0736924 Z M117.085587,27.0736924 C117.085587,26.738097 116.959181,26.4774552 116.706366,26.2917591 C116.453551,26.106063 116.012809,25.9460983 115.384127,25.8118602 C114.755445,25.677622 114.256534,25.5165387 113.887379,25.3286053 C113.518224,25.1406719 113.245277,24.916945 113.06853,24.657418 C112.891784,24.3978909 112.803411,24.0891478 112.803411,23.7311795 C112.803411,23.1360571 113.055104,22.6326716 113.558497,22.221008 C114.06189,21.8093443 114.705105,21.6035156 115.488161,21.6035156 C116.311488,21.6035156 116.979313,21.8160562 117.491655,22.2411436 C118.003997,22.666231 118.260164,23.2098873 118.260164,23.8721288 L117.011756,23.8721288 C117.011756,23.5320589 116.867452,23.2389766 116.57884,22.9928734 C116.290228,22.7467701 115.926672,22.6237204 115.488161,22.6237204 C115.036226,22.6237204 114.682737,22.7221602 114.427685,22.9190428 C114.172632,23.1159254 114.045108,23.3732113 114.045108,23.6909082 C114.045108,23.9907067 114.163683,24.2166709 114.400837,24.3688074 C114.637991,24.520944 115.066428,24.6663664 115.686161,24.8050792 C116.305894,24.9437919 116.808161,25.1093498 117.192977,25.3017578 C117.577793,25.4941658 117.863044,25.7257231 118.04874,25.9964367 C118.234436,26.2671503 118.327283,26.5971474 118.327283,26.986438 C118.327283,27.6352557 118.06776,28.1554207 117.548706,28.5469486 C117.029652,28.9384765 116.356234,29.1342375 115.528432,29.1342375 C114.946733,29.1342375 114.432162,29.0313231 113.984701,28.8254913 C113.537241,28.6196595 113.187108,28.3321705 112.934293,27.9630156 C112.681478,27.5938607 112.555072,27.1945082 112.555072,26.7649462 L113.796769,26.7649462 C113.819142,27.1810844 113.985818,27.5110816 114.296803,27.7549475 C114.607788,27.9988135 115.018327,28.1207446 115.528432,28.1207446 C115.998265,28.1207446 116.375245,28.0256607 116.659383,27.83549 C116.94352,27.6453193 117.085587,27.3913893 117.085587,27.0736924 Z M124.678376,29 C124.606782,28.8568127 124.548613,28.601764 124.503867,28.2348464 C123.926643,28.8344435 123.237565,29.1342375 122.43661,29.1342375 C121.720674,29.1342375 121.133391,28.9317646 120.674744,28.5268129 C120.216097,28.1218612 119.986777,27.608408 119.986777,26.986438 C119.986777,26.2302298 120.274266,25.6429468 120.849252,25.2245713 C121.424239,24.8061957 122.233012,24.5970111 123.275594,24.5970111 L124.483732,24.5970111 L124.483732,24.0265019 C124.483732,23.5924652 124.35397,23.2468072 124.094443,22.9895175 C123.834916,22.7322277 123.452343,22.6035847 122.946713,22.6035847 C122.503727,22.6035847 122.13234,22.7154482 121.832542,22.9391784 C121.532743,23.1629086 121.382846,23.4336182 121.382846,23.7513151 L120.134438,23.7513151 C120.134438,23.3888721 120.263081,23.0387396 120.52037,22.7009069 C120.77766,22.3630743 121.126674,22.0957207 121.567423,21.8988381 C122.008171,21.7019554 122.49254,21.6035156 123.020543,21.6035156 C123.857294,21.6035156 124.512814,21.8127003 124.987122,22.2310758 C125.46143,22.6494513 125.70753,23.225548 125.725428,23.9593832 L125.725428,27.3018961 C125.725428,27.9686121 125.810444,28.4988448 125.980479,28.89261 L125.980479,29 L124.678376,29 Z M122.617831,28.0536259 C123.007121,28.0536259 123.376271,27.9529488 123.72529,27.7515916 C124.074309,27.5502344 124.32712,27.2884739 124.483732,26.9663024 L124.483732,25.4762665 L123.51051,25.4762665 C121.989144,25.4762665 121.228473,25.921483 121.228473,26.8119293 C121.228473,27.2012199 121.358235,27.5054884 121.617762,27.7247441 C121.877289,27.9439997 122.210642,28.0536259 122.617831,28.0536259 Z M127.626549,25.3084697 C127.626549,24.1763947 127.888309,23.2758941 128.411838,22.6069407 C128.935367,21.9379873 129.62892,21.6035156 130.492519,21.6035156 C131.378491,21.6035156 132.069807,21.9167332 132.566488,22.5431779 L132.626895,21.7377531 L133.761201,21.7377531 L133.761201,28.8254913 C133.761201,29.7651583 133.482661,30.5056942 132.925573,31.0471214 C132.368485,31.5885485 131.620118,31.859258 130.680451,31.859258 C130.156923,31.859258 129.644588,31.7473946 129.143432,31.5236644 C128.642277,31.2999341 128.259704,30.9934283 127.995702,30.6041377 L128.640042,29.8591198 C129.17252,30.5168867 129.823565,30.8457652 130.593197,30.8457652 C131.197269,30.8457652 131.668214,30.6757327 132.006046,30.3356628 C132.343879,29.9955928 132.512793,29.5168173 132.512793,28.8993219 L132.512793,28.2751177 C132.016112,28.8478671 131.338219,29.1342375 130.479095,29.1342375 C129.62892,29.1342375 128.94096,28.7919354 128.415194,28.1073209 C127.889428,27.4227064 127.626549,26.4897653 127.626549,25.3084697 Z M128.874957,25.449419 C128.874957,26.2682717 129.042753,26.9114864 129.378348,27.3790826 C129.713943,27.8466788 130.18377,28.0804734 130.787841,28.0804734 C131.570897,28.0804734 132.145875,27.7247476 132.512793,27.0132855 L132.512793,23.6976201 C132.132451,23.0040564 131.561948,22.6572797 130.801265,22.6572797 C130.197193,22.6572797 129.72513,22.8921929 129.38506,23.3620264 C129.04499,23.8318599 128.874957,24.5276505 128.874957,25.449419 Z M138.897445,29.1342375 C137.913032,29.1342375 137.11209,28.8109521 136.494594,28.1643718 C135.877099,27.5177914 135.568356,26.6530871 135.568356,25.5702327 L135.568356,25.3420291 C135.568356,24.6216177 135.705948,23.978403 135.981136,23.4123655 C136.256324,22.846328 136.641134,22.4033488 137.135578,22.0834146 C137.630022,21.7634803 138.165848,21.6035156 138.743072,21.6035156 C139.687213,21.6035156 140.421038,21.914496 140.944566,22.536466 C141.468095,23.158436 141.729856,24.048869 141.729856,25.2077916 L141.729856,25.7246058 L136.810052,25.7246058 C136.827951,26.4405426 137.037135,27.0188765 137.437613,27.4596251 C137.83809,27.9003736 138.347068,28.1207446 138.964564,28.1207446 C139.403075,28.1207446 139.774462,28.0312538 140.078735,27.8522697 C140.383008,27.6732855 140.649243,27.436135 140.877448,27.1408111 L141.635889,27.7314559 C141.027343,28.6666483 140.114537,29.1342375 138.897445,29.1342375 Z M138.743072,22.6237204 C138.241916,22.6237204 137.82131,22.8060578 137.48124,23.170738 C137.14117,23.5354183 136.930867,24.0466342 136.850324,24.7044011 L140.488159,24.7044011 L140.488159,24.6104349 C140.452362,23.9795156 140.28233,23.4906724 139.978057,23.1438905 C139.673783,22.7971087 139.262126,22.6237204 138.743072,22.6237204 Z M153.499091,27.2884723 L154.89516,21.7377531 L156.136857,21.7377531 L154.022617,29 L153.015836,29 L151.250613,23.4962639 L149.532374,29 L148.525593,29 L146.418064,21.7377531 L147.653049,21.7377531 L149.082678,27.1743705 L150.77407,21.7377531 L151.774139,21.7377531 L153.499091,27.2884723 Z M158.997776,29 L157.756079,29 L157.756079,21.7377531 L158.997776,21.7377531 L158.997776,29 Z M157.655401,19.8114455 C157.655401,19.6100882 157.716926,19.4400558 157.839978,19.3013431 C157.963029,19.1626303 158.145367,19.093275 158.386995,19.093275 C158.628624,19.093275 158.81208,19.1626303 158.937369,19.3013431 C159.062658,19.4400558 159.125301,19.6100882 159.125301,19.8114455 C159.125301,20.0128027 159.062658,20.1805978 158.937369,20.314836 C158.81208,20.4490741 158.628624,20.5161922 158.386995,20.5161922 C158.145367,20.5161922 157.963029,20.4490741 157.839978,20.314836 C157.716926,20.1805978 157.655401,20.0128027 157.655401,19.8114455 Z M162.91917,19.9792423 L162.91917,21.7377531 L164.274969,21.7377531 L164.274969,22.697551 L162.91917,22.697551 L162.91917,27.201218 C162.91917,27.4920673 162.979577,27.710201 163.100391,27.8556256 C163.221205,28.0010503 163.427034,28.0737615 163.717883,28.0737615 C163.861071,28.0737615 164.05795,28.0469143 164.308528,27.993219 L164.308528,29 C163.981882,29.0894921 163.66419,29.1342375 163.355442,29.1342375 C162.800591,29.1342375 162.382222,28.9664423 162.100322,28.630847 C161.818422,28.2952516 161.677474,27.8187134 161.677474,27.201218 L161.677474,22.697551 L160.355235,22.697551 L160.355235,21.7377531 L161.677474,21.7377531 L161.677474,19.9792423 L162.91917,19.9792423 Z M167.21643,22.6170085 C167.766806,21.9413432 168.482732,21.6035156 169.364229,21.6035156 C170.899019,21.6035156 171.673114,22.4693386 171.686538,24.2010106 L171.686538,29 L170.444841,29 L170.444841,24.1942987 C170.440366,23.67077 170.320673,23.2837225 170.085756,23.0331446 C169.850839,22.7825668 169.485046,22.6572797 168.988365,22.6572797 C168.58565,22.6572797 168.232162,22.7646686 167.927889,22.9794497 C167.623615,23.1942307 167.386465,23.4761265 167.21643,23.8251457 L167.21643,29 L165.974733,29 L165.974733,18.6905626 L167.21643,18.6905626 L167.21643,22.6170085 Z M181.932178,29 C181.860584,28.8568127 181.802415,28.601764 181.757669,28.2348464 C181.180445,28.8344435 180.491366,29.1342375 179.690412,29.1342375 C178.974475,29.1342375 178.387192,28.9317646 177.928545,28.5268129 C177.469898,28.1218612 177.240578,27.608408 177.240578,26.986438 C177.240578,26.2302298 177.528067,25.6429468 178.103054,25.2245713 C178.678041,24.8061957 179.486813,24.5970111 180.529396,24.5970111 L181.737533,24.5970111 L181.737533,24.0265019 C181.737533,23.5924652 181.607772,23.2468072 181.348245,22.9895175 C181.088718,22.7322277 180.706145,22.6035847 180.200514,22.6035847 C179.757528,22.6035847 179.386142,22.7154482 179.086343,22.9391784 C178.786545,23.1629086 178.636648,23.4336182 178.636648,23.7513151 L177.388239,23.7513151 C177.388239,23.3888721 177.516882,23.0387396 177.774172,22.7009069 C178.031462,22.3630743 178.380476,22.0957207 178.821224,21.8988381 C179.261973,21.7019554 179.746342,21.6035156 180.274345,21.6035156 C181.111096,21.6035156 181.766616,21.8127003 182.240924,22.2310758 C182.715232,22.6494513 182.961331,23.225548 182.97923,23.9593832 L182.97923,27.3018961 C182.97923,27.9686121 183.064246,28.4988448 183.234281,28.89261 L183.234281,29 L181.932178,29 Z M179.871633,28.0536259 C180.260923,28.0536259 180.630072,27.9529488 180.979092,27.7515916 C181.328111,27.5502344 181.580922,27.2884739 181.737533,26.9663024 L181.737533,25.4762665 L180.764312,25.4762665 C179.242946,25.4762665 178.482275,25.921483 178.482275,26.8119293 C178.482275,27.2012199 178.612036,27.5054884 178.871563,27.7247441 C179.13109,27.9439997 179.464444,28.0536259 179.871633,28.0536259 Z M188.088626,28.1207446 C188.531612,28.1207446 188.918659,27.9865085 189.24978,27.7180322 C189.580901,27.4495559 189.764357,27.1139656 189.800154,26.7112512 L190.974732,26.7112512 C190.952359,27.1273894 190.809173,27.523386 190.545172,27.8992528 C190.28117,28.2751196 189.9288,28.5749136 189.488052,28.7986438 C189.047303,29.022374 188.580833,29.1342375 188.088626,29.1342375 C187.099739,29.1342375 186.313339,28.8042403 185.729403,28.1442362 C185.145467,27.484232 184.853503,26.581494 184.853503,25.4359953 L184.853503,25.2279272 C184.853503,24.5209397 184.983265,23.8922672 185.242792,23.3418908 C185.502319,22.7915144 185.874824,22.3641961 186.360319,22.059923 C186.845813,21.7556499 187.419673,21.6035156 188.081914,21.6035156 C188.896292,21.6035156 189.573066,21.8473779 190.112256,22.3351098 C190.651446,22.8228417 190.938935,23.4559888 190.974732,24.23457 L189.800154,24.23457 C189.764357,23.7647365 189.586494,23.3788076 189.26656,23.0767718 C188.946626,22.774736 188.551748,22.6237204 188.081914,22.6237204 C187.450995,22.6237204 186.962152,22.8508031 186.61537,23.3049755 C186.268588,23.7591479 186.0952,24.4157862 186.0952,25.2749103 L186.0952,25.5098259 C186.0952,26.3465769 186.267469,26.9909103 186.612014,27.4428454 C186.956559,27.8947805 187.448758,28.1207446 188.088626,28.1207446 Z M194.305482,19.9792423 L194.305482,21.7377531 L195.66128,21.7377531 L195.66128,22.697551 L194.305482,22.697551 L194.305482,27.201218 C194.305482,27.4920673 194.365888,27.710201 194.486702,27.8556256 C194.607516,28.0010503 194.813345,28.0737615 195.104194,28.0737615 C195.247382,28.0737615 195.444261,28.0469143 195.694839,27.993219 L195.694839,29 C195.368193,29.0894921 195.050501,29.1342375 194.741753,29.1342375 C194.186902,29.1342375 193.768533,28.9664423 193.486633,28.630847 C193.204733,28.2952516 193.063785,27.8187134 193.063785,27.201218 L193.063785,22.697551 L191.741546,22.697551 L191.741546,21.7377531 L193.063785,21.7377531 L193.063785,19.9792423 L194.305482,19.9792423 Z M198.710131,29 L197.468435,29 L197.468435,21.7377531 L198.710131,21.7377531 L198.710131,29 Z M197.367756,19.8114455 C197.367756,19.6100882 197.429281,19.4400558 197.552333,19.3013431 C197.675385,19.1626303 197.857722,19.093275 198.099351,19.093275 C198.340979,19.093275 198.524435,19.1626303 198.649724,19.3013431 C198.775013,19.4400558 198.837657,19.6100882 198.837657,19.8114455 C198.837657,20.0128027 198.775013,20.1805978 198.649724,20.314836 C198.524435,20.4490741 198.340979,20.5161922 198.099351,20.5161922 C197.857722,20.5161922 197.675385,20.4490741 197.552333,20.314836 C197.429281,20.1805978 197.367756,20.0128027 197.367756,19.8114455 Z M200.617964,25.3017578 C200.617964,24.5902957 200.757793,23.9504368 201.037456,23.382162 C201.317119,22.8138873 201.706403,22.3753826 202.205322,22.0666349 C202.70424,21.7578872 203.273625,21.6035156 203.913494,21.6035156 C204.902381,21.6035156 205.702205,21.9458177 206.312988,22.6304322 C206.923772,23.3150467 207.229159,24.2256151 207.229159,25.3621647 L207.229159,25.449419 C207.229159,26.1564065 207.093804,26.7906722 206.823091,27.3522351 C206.552377,27.913798 206.16533,28.351184 205.661937,28.6644063 C205.158544,28.9776287 204.58021,29.1342375 203.926917,29.1342375 C202.942504,29.1342375 202.144918,28.7919354 201.534134,28.1073209 C200.923351,27.4227064 200.617964,26.5166125 200.617964,25.3890122 L200.617964,25.3017578 Z M201.866372,25.449419 C201.866372,26.2548478 202.053184,26.9014185 202.426814,27.3891504 C202.800443,27.8768823 203.300473,28.1207446 203.926917,28.1207446 C204.557837,28.1207446 205.058985,27.8735264 205.430377,27.3790826 C205.801769,26.8846388 205.987462,26.1922041 205.987462,25.3017578 C205.987462,24.5052782 205.798413,23.8598262 205.420309,23.3653824 C205.042205,22.8709386 204.539938,22.6237204 203.913494,22.6237204 C203.300473,22.6237204 202.806036,22.8675827 202.43017,23.3553146 C202.054303,23.8430465 201.866372,24.5410743 201.866372,25.449419 Z M210.210891,21.7377531 L210.251163,22.6505679 C210.806014,21.9525295 211.530889,21.6035156 212.42581,21.6035156 C213.960599,21.6035156 214.734694,22.4693386 214.748118,24.2010106 L214.748118,29 L213.506421,29 L213.506421,24.1942987 C213.501947,23.67077 213.382253,23.2837225 213.147336,23.0331446 C212.912419,22.7825668 212.546626,22.6572797 212.049945,22.6572797 C211.64723,22.6572797 211.293742,22.7646686 210.989469,22.9794497 C210.685196,23.1942307 210.448045,23.4761265 210.27801,23.8251457 L210.27801,29 L209.036314,29 L209.036314,21.7377531 L210.210891,21.7377531 Z M216.897578,28.3489483 C216.897578,28.1341673 216.96134,27.9551858 217.088866,27.8119984 C217.216393,27.6688111 217.407679,27.5972185 217.662731,27.5972185 C217.917784,27.5972185 218.111308,27.6688111 218.243309,27.8119984 C218.375309,27.9551858 218.441309,28.1341673 218.441309,28.3489483 C218.441309,28.5547801 218.375309,28.7270498 218.243309,28.8657625 C218.111308,29.0044753 217.917784,29.0738306 217.662731,29.0738306 C217.407679,29.0738306 217.216393,29.0044753 217.088866,28.8657625 C216.96134,28.7270498 216.897578,28.5547801 216.897578,28.3489483 Z"/>
      </g>
      <path stroke="#979797" stroke-linecap="square" d="M320.5595,124 L320.5595,0"/>
    </g>
  </g>
</svg>
