<svg xmlns="http://www.w3.org/2000/svg" xmlns:xlink="http://www.w3.org/1999/xlink" width="580" height="360" viewBox="0 0 580 360">
  <defs>
    <rect id="2-a" width="49" height="13"/>
    <mask id="2-d" width="49" height="13" x="0" y="0" fill="#fff">
      <use xlink:href="#2-a"/>
    </mask>
    <rect id="2-b" width="61" height="44"/>
    <mask id="2-e" width="61" height="44" x="0" y="0" fill="#fff">
      <use xlink:href="#2-b"/>
    </mask>
    <rect id="2-c" width="267" height="16"/>
    <mask id="2-f" width="267" height="16" x="0" y="0" fill="#fff">
      <use xlink:href="#2-c"/>
    </mask>
  </defs>
  <g fill="none" fill-rule="evenodd">
    <rect width="580" height="360" fill="#FFF" fill-opacity=".01" fill-rule="nonzero"/>
    <g transform="translate(142 220)">
      <g fill="#C41261" transform="translate(107 19)">
        <rect width="1" height="42" x="4" y="1"/>
        <rect width="9" height="1"/>
        <rect width="9" height="1" y="43"/>
      </g>
      <path fill="#C41261" d="M189.63 30.018C190.048 30.15 190.246 30.249 190.477 30.491 190.84 30.854 191.027 31.338 191.027 31.91 191.027 33.208 190.07 34.132 188.728 34.132 187.397 34.132 186.462 33.241 186.462 31.987 186.462 31.404 186.66 30.876 187.012 30.513 187.243 30.271 187.43 30.161 187.87 30.018 187.485 29.886 187.32 29.776 187.122 29.534 186.88 29.237 186.748 28.863 186.748 28.456 186.748 27.411 187.606 26.641 188.772 26.641 189.927 26.641 190.763 27.4 190.763 28.445 190.763 28.863 190.62 29.259 190.356 29.567 190.158 29.787 190.004 29.886 189.63 30.018zM188.772 27.411C188.068 27.411 187.584 27.851 187.584 28.467 187.584 29.094 188.101 29.589 188.75 29.589 189.377 29.589 189.938 29.072 189.938 28.478 189.938 27.906 189.399 27.411 188.772 27.411zM188.761 30.48C187.969 30.48 187.331 31.107 187.331 31.899 187.331 32.68 187.958 33.318 188.739 33.318 189.52 33.318 190.147 32.68 190.147 31.899 190.147 31.129 189.52 30.48 188.761 30.48zM192.336 28.929L193.172 28.929 193.172 29.853C193.656 29.105 194.173 28.808 195.02 28.808 196.428 28.808 197.407 29.886 197.407 31.426 197.407 33.021 196.428 34.121 195.02 34.121 194.624 34.121 194.261 34.033 193.909 33.857 193.601 33.703 193.447 33.571 193.172 33.208L193.172 36.376 192.336 36.376 192.336 28.929zM194.877 29.556C193.865 29.556 193.172 30.359 193.172 31.547 193.172 32.658 193.843 33.395 194.844 33.395 195.845 33.395 196.516 32.614 196.516 31.459 196.516 30.865 196.373 30.414 196.076 30.084 195.779 29.754 195.328 29.556 194.877 29.556zM200.289 32.163L198.936 34 197.913 34 199.783 31.481 197.88 28.929 198.936 28.929 200.289 30.788 201.675 28.929 202.698 28.929 200.784 31.481 202.61 34 201.587 34 200.289 32.163zM207.714 26.663L207.714 29.633C208.176 29.061 208.638 28.808 209.243 28.808 209.683 28.808 210.145 28.984 210.42 29.27 210.695 29.545 210.816 29.941 210.816 30.59L210.816 34 209.98 34 209.98 30.634C209.98 29.941 209.639 29.556 209.034 29.556 208.649 29.556 208.308 29.71 208.044 30.007 207.791 30.293 207.714 30.546 207.714 31.03L207.714 34 206.878 34 206.878 26.663 207.714 26.663zM214.655 28.808C216.151 28.808 217.218 29.919 217.218 31.481 217.218 32.966 216.074 34.121 214.622 34.121 213.115 34.121 212.059 33.021 212.059 31.459 212.059 29.886 213.115 28.808 214.655 28.808zM214.655 29.578C213.61 29.578 212.917 30.337 212.917 31.47 212.917 32.592 213.61 33.351 214.644 33.351 215.645 33.351 216.36 32.57 216.36 31.47 216.36 30.337 215.678 29.578 214.655 29.578zM218.494 28.929L219.33 28.929 219.33 29.787C219.484 29.424 219.594 29.27 219.792 29.116 220.045 28.918 220.397 28.808 220.76 28.808L220.958 28.808 220.958 29.655C220.87 29.644 220.782 29.644 220.727 29.644 220.276 29.644 219.88 29.853 219.627 30.227 219.407 30.546 219.33 30.843 219.33 31.426L219.33 34 218.494 34 218.494 28.929zM222.828 28.929L222.828 34 221.992 34 221.992 28.929 222.828 28.929zM222.421 26.96C222.718 26.96 222.949 27.202 222.949 27.51 222.949 27.807 222.707 28.038 222.41 28.038 222.113 28.038 221.882 27.807 221.882 27.499 221.882 27.191 222.113 26.96 222.421 26.96zM225.325 33.263L227.657 33.263 227.657 34 223.917 34 226.557 29.666 224.203 29.666 224.203 28.929 227.932 28.929 225.325 33.263zM231.111 28.808C232.607 28.808 233.674 29.919 233.674 31.481 233.674 32.966 232.53 34.121 231.078 34.121 229.571 34.121 228.515 33.021 228.515 31.459 228.515 29.886 229.571 28.808 231.111 28.808zM231.111 29.578C230.066 29.578 229.373 30.337 229.373 31.47 229.373 32.592 230.066 33.351 231.1 33.351 232.101 33.351 232.816 32.57 232.816 31.47 232.816 30.337 232.134 29.578 231.111 29.578zM234.95 28.929L235.786 28.929 235.786 29.644C236.226 29.05 236.666 28.808 237.293 28.808 237.755 28.808 238.173 28.962 238.47 29.226 238.789 29.534 238.899 29.886 238.899 30.579L238.899 34 238.063 34 238.063 30.766C238.063 30.315 238.008 30.073 237.876 29.897 237.722 29.688 237.425 29.556 237.084 29.556 236.71 29.556 236.369 29.699 236.116 29.985 235.874 30.249 235.786 30.491 235.786 30.909L235.786 34 234.95 34 234.95 28.929zM241.44 29.666L241.44 32.966C241.451 33.219 241.517 33.274 241.825 33.274L242.21 33.274 242.21 34 241.429 34C240.835 33.989 240.604 33.769 240.604 33.208L240.604 29.666 239.9 29.666 239.9 28.929 240.604 28.929 240.604 27.334 241.44 27.334 241.44 28.929 242.21 28.929 242.21 29.666 241.44 29.666zM247.226 29.765L247.226 28.929 248.062 28.929 248.062 34 247.226 34 247.226 33.021C246.72 33.78 246.148 34.121 245.378 34.121 243.981 34.121 242.991 33.021 242.991 31.481 242.991 29.93 244.003 28.808 245.4 28.808 246.17 28.808 246.731 29.105 247.226 29.765zM245.521 29.556C244.971 29.556 244.586 29.743 244.289 30.161 244.025 30.524 243.871 31.008 243.871 31.503 243.871 32.581 244.575 33.395 245.499 33.395 246.456 33.395 247.237 32.504 247.237 31.415 247.237 30.315 246.533 29.556 245.521 29.556zM250.581 34L249.745 34 249.745 26.663 250.581 26.663 250.581 34zM255.564 28.929L256.4 28.929 256.4 29.853C256.884 29.105 257.401 28.808 258.248 28.808 259.656 28.808 260.635 29.886 260.635 31.426 260.635 33.021 259.656 34.121 258.248 34.121 257.852 34.121 257.489 34.033 257.137 33.857 256.829 33.703 256.675 33.571 256.4 33.208L256.4 36.376 255.564 36.376 255.564 28.929zM258.105 29.556C257.093 29.556 256.4 30.359 256.4 31.547 256.4 32.658 257.071 33.395 258.072 33.395 259.073 33.395 259.744 32.614 259.744 31.459 259.744 30.865 259.601 30.414 259.304 30.084 259.007 29.754 258.556 29.556 258.105 29.556zM265.728 29.765L265.728 28.929 266.564 28.929 266.564 34 265.728 34 265.728 33.021C265.222 33.78 264.65 34.121 263.88 34.121 262.483 34.121 261.493 33.021 261.493 31.481 261.493 29.93 262.505 28.808 263.902 28.808 264.672 28.808 265.233 29.105 265.728 29.765zM264.023 29.556C263.473 29.556 263.088 29.743 262.791 30.161 262.527 30.524 262.373 31.008 262.373 31.503 262.373 32.581 263.077 33.395 264.001 33.395 264.958 33.395 265.739 32.504 265.739 31.415 265.739 30.315 265.035 29.556 264.023 29.556zM272.042 29.699L272.042 26.663 272.878 26.663 272.878 34 272.042 34 272.042 33.131C271.536 33.824 270.997 34.121 270.227 34.121 268.83 34.121 267.84 33.032 267.84 31.492 267.84 29.952 268.852 28.808 270.227 28.808 270.975 28.808 271.547 29.083 272.042 29.699zM270.403 29.556C269.402 29.556 268.72 30.348 268.72 31.503 268.72 32.614 269.391 33.395 270.348 33.395 271.327 33.395 272.042 32.581 272.042 31.481 272.042 30.337 271.371 29.556 270.403 29.556zM278.356 29.699L278.356 26.663 279.192 26.663 279.192 34 278.356 34 278.356 33.131C277.85 33.824 277.311 34.121 276.541 34.121 275.144 34.121 274.154 33.032 274.154 31.492 274.154 29.952 275.166 28.808 276.541 28.808 277.289 28.808 277.861 29.083 278.356 29.699zM276.717 29.556C275.716 29.556 275.034 30.348 275.034 31.503 275.034 32.614 275.705 33.395 276.662 33.395 277.641 33.395 278.356 32.581 278.356 31.481 278.356 30.337 277.685 29.556 276.717 29.556zM281.711 28.929L281.711 34 280.875 34 280.875 28.929 281.711 28.929zM281.304 26.96C281.601 26.96 281.832 27.202 281.832 27.51 281.832 27.807 281.59 28.038 281.293 28.038 280.996 28.038 280.765 27.807 280.765 27.499 280.765 27.191 280.996 26.96 281.304 26.96zM283.394 28.929L284.23 28.929 284.23 29.644C284.67 29.05 285.11 28.808 285.737 28.808 286.199 28.808 286.617 28.962 286.914 29.226 287.233 29.534 287.343 29.886 287.343 30.579L287.343 34 286.507 34 286.507 30.766C286.507 30.315 286.452 30.073 286.32 29.897 286.166 29.688 285.869 29.556 285.528 29.556 285.154 29.556 284.813 29.699 284.56 29.985 284.318 30.249 284.23 30.491 284.23 30.909L284.23 34 283.394 34 283.394 28.929zM292.744 29.798L292.744 28.929 293.58 28.929 293.58 34.033C293.58 34.88 293.371 35.452 292.909 35.892 292.458 36.332 291.809 36.563 291.039 36.563 290.093 36.563 289.345 36.255 288.795 35.639L289.367 35.067C289.598 35.309 289.708 35.408 289.851 35.507 290.137 35.683 290.61 35.804 291.039 35.804 291.567 35.804 292.073 35.617 292.359 35.309 292.612 35.034 292.744 34.627 292.744 34.099L292.744 33.032C292.249 33.78 291.666 34.121 290.874 34.121 289.532 34.121 288.531 32.988 288.531 31.481 288.531 30.667 288.828 29.886 289.334 29.402 289.741 29.006 290.291 28.808 290.94 28.808 291.71 28.808 292.227 29.094 292.744 29.798zM291.094 29.578C290.104 29.578 289.411 30.348 289.411 31.448 289.411 32.537 290.115 33.351 291.072 33.351 291.556 33.351 292.029 33.12 292.359 32.735 292.579 32.482 292.722 31.987 292.722 31.481 292.722 30.821 292.623 30.469 292.326 30.139 292.018 29.798 291.545 29.578 291.094 29.578zM187.672 47.131L187.672 48 186.836 48 186.836 40.663 187.672 40.663 187.672 43.798C188.178 43.105 188.717 42.808 189.454 42.808 190.873 42.808 191.863 43.908 191.863 45.481 191.863 47.032 190.884 48.121 189.498 48.121 188.717 48.121 188.167 47.824 187.672 47.131zM189.344 43.556C188.376 43.556 187.661 44.359 187.661 45.47 187.661 46.625 188.321 47.395 189.311 47.395 190.312 47.395 190.983 46.636 190.983 45.503 190.983 44.37 190.301 43.556 189.344 43.556zM195.328 42.808C196.824 42.808 197.891 43.919 197.891 45.481 197.891 46.966 196.747 48.121 195.295 48.121 193.788 48.121 192.732 47.021 192.732 45.459 192.732 43.886 193.788 42.808 195.328 42.808zM195.328 43.578C194.283 43.578 193.59 44.337 193.59 45.47 193.59 46.592 194.283 47.351 195.317 47.351 196.318 47.351 197.033 46.57 197.033 45.47 197.033 44.337 196.351 43.578 195.328 43.578zM200.058 43.666L200.058 46.966C200.069 47.219 200.135 47.274 200.443 47.274L200.828 47.274 200.828 48 200.047 48C199.453 47.989 199.222 47.769 199.222 47.208L199.222 43.666 198.518 43.666 198.518 42.929 199.222 42.929 199.222 41.334 200.058 41.334 200.058 42.929 200.828 42.929 200.828 43.666 200.058 43.666zM202.852 40.663L202.852 43.633C203.314 43.061 203.776 42.808 204.381 42.808 204.821 42.808 205.283 42.984 205.558 43.27 205.833 43.545 205.954 43.941 205.954 44.59L205.954 48 205.118 48 205.118 44.634C205.118 43.941 204.777 43.556 204.172 43.556 203.787 43.556 203.446 43.71 203.182 44.007 202.929 44.293 202.852 44.546 202.852 45.03L202.852 48 202.016 48 202.016 40.663 202.852 40.663zM214.083 44.315L213.247 44.315 213.247 44.26C213.247 43.787 212.862 43.49 212.279 43.49 211.718 43.49 211.366 43.776 211.366 44.216 211.366 44.656 211.586 44.821 212.499 45.074 213.148 45.25 213.489 45.415 213.731 45.657 213.984 45.91 214.138 46.273 214.138 46.647 214.138 47.527 213.412 48.121 212.334 48.121 211.179 48.121 210.53 47.582 210.442 46.559L211.267 46.559C211.322 47.131 211.696 47.439 212.334 47.439 212.906 47.439 213.28 47.142 213.28 46.691 213.28 46.251 212.994 46.031 212.125 45.811 211.025 45.514 210.53 45.052 210.53 44.282 210.53 43.402 211.245 42.808 212.312 42.808 213.39 42.808 214.039 43.358 214.083 44.315zM216.261 42.929L216.261 48 215.425 48 215.425 42.929 216.261 42.929zM215.854 40.96C216.151 40.96 216.382 41.202 216.382 41.51 216.382 41.807 216.14 42.038 215.843 42.038 215.546 42.038 215.315 41.807 215.315 41.499 215.315 41.191 215.546 40.96 215.854 40.96zM221.739 43.699L221.739 40.663 222.575 40.663 222.575 48 221.739 48 221.739 47.131C221.233 47.824 220.694 48.121 219.924 48.121 218.527 48.121 217.537 47.032 217.537 45.492 217.537 43.952 218.549 42.808 219.924 42.808 220.672 42.808 221.244 43.083 221.739 43.699zM220.1 43.556C219.099 43.556 218.417 44.348 218.417 45.503 218.417 46.614 219.088 47.395 220.045 47.395 221.024 47.395 221.739 46.581 221.739 45.481 221.739 44.337 221.068 43.556 220.1 43.556zM228.966 45.734L224.742 45.734C224.786 46.163 224.863 46.383 225.072 46.658 225.402 47.109 225.886 47.351 226.436 47.351 227.063 47.351 227.657 47.01 227.954 46.482L228.691 46.757C228.273 47.604 227.404 48.121 226.436 48.121 224.929 48.121 223.851 47.021 223.851 45.481 223.851 43.919 224.918 42.808 226.403 42.808 227.877 42.808 228.977 43.919 228.977 45.404 228.977 45.47 228.977 45.613 228.966 45.734zM224.753 45.118L228.086 45.118C228.053 44.722 227.976 44.502 227.8 44.249 227.481 43.82 226.964 43.556 226.403 43.556 225.842 43.556 225.336 43.82 225.039 44.26 224.885 44.502 224.819 44.711 224.753 45.118zM233.366 44.315L232.53 44.315 232.53 44.26C232.53 43.787 232.145 43.49 231.562 43.49 231.001 43.49 230.649 43.776 230.649 44.216 230.649 44.656 230.869 44.821 231.782 45.074 232.431 45.25 232.772 45.415 233.014 45.657 233.267 45.91 233.421 46.273 233.421 46.647 233.421 47.527 232.695 48.121 231.617 48.121 230.462 48.121 229.813 47.582 229.725 46.559L230.55 46.559C230.605 47.131 230.979 47.439 231.617 47.439 232.189 47.439 232.563 47.142 232.563 46.691 232.563 46.251 232.277 46.031 231.408 45.811 230.308 45.514 229.813 45.052 229.813 44.282 229.813 43.402 230.528 42.808 231.595 42.808 232.673 42.808 233.322 43.358 233.366 44.315zM240.087 50.046L239.537 50.574C238.239 48.979 237.645 47.428 237.645 45.58 237.645 43.688 238.338 41.818 239.559 40.443L240.087 40.993C238.976 42.368 238.426 43.897 238.426 45.547 238.426 47.153 239.02 48.759 240.087 50.046zM242.243 43.666L242.243 48 241.407 48 241.407 43.666 240.714 43.666 240.714 42.929 241.407 42.929 241.407 42.247C241.407 41.246 241.924 40.652 242.804 40.652 242.848 40.652 242.947 40.652 243.035 40.663L243.035 41.411C242.43 41.477 242.265 41.653 242.243 42.247L242.243 42.929 243.035 42.929 243.035 43.666 242.243 43.666zM245.235 42.929L245.235 48 244.399 48 244.399 42.929 245.235 42.929zM244.817 40.96C245.114 40.96 245.345 41.202 245.345 41.51 245.345 41.807 245.114 42.038 244.817 42.038 244.509 42.038 244.278 41.807 244.278 41.499 244.278 41.191 244.509 40.96 244.817 40.96zM248.535 46.163L247.182 48 246.159 48 248.029 45.481 246.126 42.929 247.182 42.929 248.535 44.788 249.921 42.929 250.944 42.929 249.03 45.481 250.856 48 249.833 48 248.535 46.163zM256.532 45.734L252.308 45.734C252.352 46.163 252.429 46.383 252.638 46.658 252.968 47.109 253.452 47.351 254.002 47.351 254.629 47.351 255.223 47.01 255.52 46.482L256.257 46.757C255.839 47.604 254.97 48.121 254.002 48.121 252.495 48.121 251.417 47.021 251.417 45.481 251.417 43.919 252.484 42.808 253.969 42.808 255.443 42.808 256.543 43.919 256.543 45.404 256.543 45.47 256.543 45.613 256.532 45.734zM252.319 45.118L255.652 45.118C255.619 44.722 255.542 44.502 255.366 44.249 255.047 43.82 254.53 43.556 253.969 43.556 253.408 43.556 252.902 43.82 252.605 44.26 252.451 44.502 252.385 44.711 252.319 45.118zM261.548 43.699L261.548 40.663 262.384 40.663 262.384 48 261.548 48 261.548 47.131C261.042 47.824 260.503 48.121 259.733 48.121 258.336 48.121 257.346 47.032 257.346 45.492 257.346 43.952 258.358 42.808 259.733 42.808 260.481 42.808 261.053 43.083 261.548 43.699zM259.909 43.556C258.908 43.556 258.226 44.348 258.226 45.503 258.226 46.614 258.897 47.395 259.854 47.395 260.833 47.395 261.548 46.581 261.548 45.481 261.548 44.337 260.877 43.556 259.909 43.556zM263.616 40.971L264.166 40.443C265.475 42.049 266.058 43.589 266.058 45.437 266.058 47.34 265.365 49.188 264.144 50.574L263.616 50.024C264.727 48.649 265.277 47.12 265.277 45.47 265.277 43.853 264.694 42.269 263.616 40.971zM116.986 4.755L116.986 8 116.062 8 116.062.663 116.986.663 116.986 3.963 120.561 3.963 120.561.663 121.485.663 121.485 8 120.561 8 120.561 4.755 116.986 4.755zM123.663 6.944C123.993 6.944 124.235 7.186 124.235 7.527 124.235 7.846 123.982 8.088 123.663 8.088 123.333 8.088 123.091 7.846 123.091 7.516 123.091 7.186 123.333 6.944 123.663 6.944zM123.663 3.776C123.993 3.776 124.235 4.018 124.235 4.359 124.235 4.678 123.982 4.92 123.663 4.92 123.333 4.92 123.091 4.678 123.091 4.348 123.091 4.018 123.333 3.776 123.663 3.776zM128.305 6.35L125.368 6.35 125.368 5.668 129.152.564 129.152 5.558 130.01 5.558 130.01 6.35 129.152 6.35 129.152 8 128.305 8 128.305 6.35zM128.305 5.558L128.305 2.753 126.248 5.558 128.305 5.558zM133.805 6.35L130.868 6.35 130.868 5.668 134.652.564 134.652 5.558 135.51 5.558 135.51 6.35 134.652 6.35 134.652 8 133.805 8 133.805 6.35zM133.805 5.558L133.805 2.753 131.748 5.558 133.805 5.558zM136.775 2.929L137.611 2.929 137.611 3.853C138.095 3.105 138.612 2.808 139.459 2.808 140.867 2.808 141.846 3.886 141.846 5.426 141.846 7.021 140.867 8.121 139.459 8.121 139.063 8.121 138.7 8.033 138.348 7.857 138.04 7.703 137.886 7.571 137.611 7.208L137.611 10.376 136.775 10.376 136.775 2.929zM139.316 3.556C138.304 3.556 137.611 4.359 137.611 5.547 137.611 6.658 138.282 7.395 139.283 7.395 140.284 7.395 140.955 6.614 140.955 5.459 140.955 4.865 140.812 4.414 140.515 4.084 140.218 3.754 139.767 3.556 139.316 3.556zM144.728 6.163L143.375 8 142.352 8 144.222 5.481 142.319 2.929 143.375 2.929 144.728 4.788 146.114 2.929 147.137 2.929 145.223 5.481 147.049 8 146.026 8 144.728 6.163zM153.396 10.046L152.846 10.574C151.548 8.979 150.954 7.428 150.954 5.58 150.954 3.688 151.647 1.818 152.868.443L153.396.993C152.285 2.368 151.735 3.897 151.735 5.547 151.735 7.153 152.329 8.759 153.396 10.046zM155.552 3.666L155.552 8 154.716 8 154.716 3.666 154.023 3.666 154.023 2.929 154.716 2.929 154.716 2.247C154.716 1.246 155.233.652 156.113.652 156.157.652 156.256.652 156.344.663L156.344 1.411C155.739 1.477 155.574 1.653 155.552 2.247L155.552 2.929 156.344 2.929 156.344 3.666 155.552 3.666zM158.544 2.929L158.544 8 157.708 8 157.708 2.929 158.544 2.929zM158.126.96C158.423.96 158.654 1.202 158.654 1.51 158.654 1.807 158.423 2.038 158.126 2.038 157.818 2.038 157.587 1.807 157.587 1.499 157.587 1.191 157.818.96 158.126.96zM161.844 6.163L160.491 8 159.468 8 161.338 5.481 159.435 2.929 160.491 2.929 161.844 4.788 163.23 2.929 164.253 2.929 162.339 5.481 164.165 8 163.142 8 161.844 6.163zM169.841 5.734L165.617 5.734C165.661 6.163 165.738 6.383 165.947 6.658 166.277 7.109 166.761 7.351 167.311 7.351 167.938 7.351 168.532 7.01 168.829 6.482L169.566 6.757C169.148 7.604 168.279 8.121 167.311 8.121 165.804 8.121 164.726 7.021 164.726 5.481 164.726 3.919 165.793 2.808 167.278 2.808 168.752 2.808 169.852 3.919 169.852 5.404 169.852 5.47 169.852 5.613 169.841 5.734zM165.628 5.118L168.961 5.118C168.928 4.722 168.851 4.502 168.675 4.249 168.356 3.82 167.839 3.556 167.278 3.556 166.717 3.556 166.211 3.82 165.914 4.26 165.76 4.502 165.694 4.711 165.628 5.118zM174.857 3.699L174.857.663 175.693.663 175.693 8 174.857 8 174.857 7.131C174.351 7.824 173.812 8.121 173.042 8.121 171.645 8.121 170.655 7.032 170.655 5.492 170.655 3.952 171.667 2.808 173.042 2.808 173.79 2.808 174.362 3.083 174.857 3.699zM173.218 3.556C172.217 3.556 171.535 4.348 171.535 5.503 171.535 6.614 172.206 7.395 173.163 7.395 174.142 7.395 174.857 6.581 174.857 5.481 174.857 4.337 174.186 3.556 173.218 3.556zM176.925.971L177.475.443C178.784 2.049 179.367 3.589 179.367 5.437 179.367 7.34 178.674 9.188 177.453 10.574L176.925 10.024C178.036 8.649 178.586 7.12 178.586 5.47 178.586 3.853 178.003 2.269 176.925.971zM23.173 30.808L22.403 31.853 21.963 31.523 22.744 30.489 21.512 30.093 21.677 29.587 22.909 29.95 22.909 28.685 23.437 28.685 23.437 29.95 24.691 29.554 24.867 30.071 23.58 30.489 24.372 31.523 23.965 31.853 23.173 30.808zM30.664 32.755L30.664 36 29.74 36 29.74 28.663 30.664 28.663 30.664 31.963 34.239 31.963 34.239 28.663 35.163 28.663 35.163 36 34.239 36 34.239 32.755 30.664 32.755zM41.62 33.734L37.396 33.734C37.44 34.163 37.517 34.383 37.726 34.658 38.056 35.109 38.54 35.351 39.09 35.351 39.717 35.351 40.311 35.01 40.608 34.482L41.345 34.757C40.927 35.604 40.058 36.121 39.09 36.121 37.583 36.121 36.505 35.021 36.505 33.481 36.505 31.919 37.572 30.808 39.057 30.808 40.531 30.808 41.631 31.919 41.631 33.404 41.631 33.47 41.631 33.613 41.62 33.734zM37.407 33.118L40.74 33.118C40.707 32.722 40.63 32.502 40.454 32.249 40.135 31.82 39.618 31.556 39.057 31.556 38.496 31.556 37.99 31.82 37.693 32.26 37.539 32.502 37.473 32.711 37.407 33.118zM43.677 30.929L43.677 36 42.841 36 42.841 30.929 43.677 30.929zM43.27 28.96C43.567 28.96 43.798 29.202 43.798 29.51 43.798 29.807 43.556 30.038 43.259 30.038 42.962 30.038 42.731 29.807 42.731 29.499 42.731 29.191 42.962 28.96 43.27 28.96zM49.111 31.798L49.111 30.929 49.947 30.929 49.947 36.033C49.947 36.88 49.738 37.452 49.276 37.892 48.825 38.332 48.176 38.563 47.406 38.563 46.46 38.563 45.712 38.255 45.162 37.639L45.734 37.067C45.965 37.309 46.075 37.408 46.218 37.507 46.504 37.683 46.977 37.804 47.406 37.804 47.934 37.804 48.44 37.617 48.726 37.309 48.979 37.034 49.111 36.627 49.111 36.099L49.111 35.032C48.616 35.78 48.033 36.121 47.241 36.121 45.899 36.121 44.898 34.988 44.898 33.481 44.898 32.667 45.195 31.886 45.701 31.402 46.108 31.006 46.658 30.808 47.307 30.808 48.077 30.808 48.594 31.094 49.111 31.798zM47.461 31.578C46.471 31.578 45.778 32.348 45.778 33.448 45.778 34.537 46.482 35.351 47.439 35.351 47.923 35.351 48.396 35.12 48.726 34.735 48.946 34.482 49.089 33.987 49.089 33.481 49.089 32.821 48.99 32.469 48.693 32.139 48.385 31.798 47.912 31.578 47.461 31.578zM52.466 28.663L52.466 31.633C52.928 31.061 53.39 30.808 53.995 30.808 54.435 30.808 54.897 30.984 55.172 31.27 55.447 31.545 55.568 31.941 55.568 32.59L55.568 36 54.732 36 54.732 32.634C54.732 31.941 54.391 31.556 53.786 31.556 53.401 31.556 53.06 31.71 52.796 32.007 52.543 32.293 52.466 32.546 52.466 33.03L52.466 36 51.63 36 51.63 28.663 52.466 28.663zM58.109 31.666L58.109 34.966C58.12 35.219 58.186 35.274 58.494 35.274L58.879 35.274 58.879 36 58.098 36C57.504 35.989 57.273 35.769 57.273 35.208L57.273 31.666 56.569 31.666 56.569 30.929 57.273 30.929 57.273 29.334 58.109 29.334 58.109 30.929 58.879 30.929 58.879 31.666 58.109 31.666zM63.367 30.929L64.203 30.929 64.203 31.644C64.643 31.05 65.083 30.808 65.71 30.808 66.172 30.808 66.59 30.962 66.887 31.226 67.206 31.534 67.316 31.886 67.316 32.579L67.316 36 66.48 36 66.48 32.766C66.48 32.315 66.425 32.073 66.293 31.897 66.139 31.688 65.842 31.556 65.501 31.556 65.127 31.556 64.786 31.699 64.533 31.985 64.291 32.249 64.203 32.491 64.203 32.909L64.203 36 63.367 36 63.367 30.929zM73.674 33.734L69.45 33.734C69.494 34.163 69.571 34.383 69.78 34.658 70.11 35.109 70.594 35.351 71.144 35.351 71.771 35.351 72.365 35.01 72.662 34.482L73.399 34.757C72.981 35.604 72.112 36.121 71.144 36.121 69.637 36.121 68.559 35.021 68.559 33.481 68.559 31.919 69.626 30.808 71.111 30.808 72.585 30.808 73.685 31.919 73.685 33.404 73.685 33.47 73.685 33.613 73.674 33.734zM69.461 33.118L72.794 33.118C72.761 32.722 72.684 32.502 72.508 32.249 72.189 31.82 71.672 31.556 71.111 31.556 70.55 31.556 70.044 31.82 69.747 32.26 69.593 32.502 69.527 32.711 69.461 33.118zM79.603 33.734L75.379 33.734C75.423 34.163 75.5 34.383 75.709 34.658 76.039 35.109 76.523 35.351 77.073 35.351 77.7 35.351 78.294 35.01 78.591 34.482L79.328 34.757C78.91 35.604 78.041 36.121 77.073 36.121 75.566 36.121 74.488 35.021 74.488 33.481 74.488 31.919 75.555 30.808 77.04 30.808 78.514 30.808 79.614 31.919 79.614 33.404 79.614 33.47 79.614 33.613 79.603 33.734zM75.39 33.118L78.723 33.118C78.69 32.722 78.613 32.502 78.437 32.249 78.118 31.82 77.601 31.556 77.04 31.556 76.479 31.556 75.973 31.82 75.676 32.26 75.522 32.502 75.456 32.711 75.39 33.118zM84.619 31.699L84.619 28.663 85.455 28.663 85.455 36 84.619 36 84.619 35.131C84.113 35.824 83.574 36.121 82.804 36.121 81.407 36.121 80.417 35.032 80.417 33.492 80.417 31.952 81.429 30.808 82.804 30.808 83.552 30.808 84.124 31.083 84.619 31.699zM82.98 31.556C81.979 31.556 81.297 32.348 81.297 33.503 81.297 34.614 81.968 35.395 82.925 35.395 83.904 35.395 84.619 34.581 84.619 33.481 84.619 32.337 83.948 31.556 82.98 31.556zM90.317 32.315L89.481 32.315 89.481 32.26C89.481 31.787 89.096 31.49 88.513 31.49 87.952 31.49 87.6 31.776 87.6 32.216 87.6 32.656 87.82 32.821 88.733 33.074 89.382 33.25 89.723 33.415 89.965 33.657 90.218 33.91 90.372 34.273 90.372 34.647 90.372 35.527 89.646 36.121 88.568 36.121 87.413 36.121 86.764 35.582 86.676 34.559L87.501 34.559C87.556 35.131 87.93 35.439 88.568 35.439 89.14 35.439 89.514 35.142 89.514 34.691 89.514 34.251 89.228 34.031 88.359 33.811 87.259 33.514 86.764 33.052 86.764 32.282 86.764 31.402 87.479 30.808 88.546 30.808 89.624 30.808 90.273 31.358 90.317 32.315zM95.85 31.666L95.85 34.966C95.861 35.219 95.927 35.274 96.235 35.274L96.62 35.274 96.62 36 95.839 36C95.245 35.989 95.014 35.769 95.014 35.208L95.014 31.666 94.31 31.666 94.31 30.929 95.014 30.929 95.014 29.334 95.85 29.334 95.85 30.929 96.62 30.929 96.62 31.666 95.85 31.666zM99.997 30.808C101.493 30.808 102.56 31.919 102.56 33.481 102.56 34.966 101.416 36.121 99.964 36.121 98.457 36.121 97.401 35.021 97.401 33.459 97.401 31.886 98.457 30.808 99.997 30.808zM99.997 31.578C98.952 31.578 98.259 32.337 98.259 33.47 98.259 34.592 98.952 35.351 99.986 35.351 100.987 35.351 101.702 34.57 101.702 33.47 101.702 32.337 101.02 31.578 99.997 31.578zM27.859 47.734L23.635 47.734C23.679 48.163 23.756 48.383 23.965 48.658 24.295 49.109 24.779 49.351 25.329 49.351 25.956 49.351 26.55 49.01 26.847 48.482L27.584 48.757C27.166 49.604 26.297 50.121 25.329 50.121 23.822 50.121 22.744 49.021 22.744 47.481 22.744 45.919 23.811 44.808 25.296 44.808 26.77 44.808 27.87 45.919 27.87 47.404 27.87 47.47 27.87 47.613 27.859 47.734zM23.646 47.118L26.979 47.118C26.946 46.722 26.869 46.502 26.693 46.249 26.374 45.82 25.857 45.556 25.296 45.556 24.735 45.556 24.229 45.82 23.932 46.26 23.778 46.502 23.712 46.711 23.646 47.118zM29.08 44.929L29.916 44.929 29.916 45.644C30.356 45.05 30.796 44.808 31.423 44.808 31.885 44.808 32.303 44.962 32.6 45.226 32.919 45.534 33.029 45.886 33.029 46.579L33.029 50 32.193 50 32.193 46.766C32.193 46.315 32.138 46.073 32.006 45.897 31.852 45.688 31.555 45.556 31.214 45.556 30.84 45.556 30.499 45.699 30.246 45.985 30.004 46.249 29.916 46.491 29.916 46.909L29.916 50 29.08 50 29.08 44.929zM37.858 46.315L37.022 46.315 37.022 46.26C37.022 45.787 36.637 45.49 36.054 45.49 35.493 45.49 35.141 45.776 35.141 46.216 35.141 46.656 35.361 46.821 36.274 47.074 36.923 47.25 37.264 47.415 37.506 47.657 37.759 47.91 37.913 48.273 37.913 48.647 37.913 49.527 37.187 50.121 36.109 50.121 34.954 50.121 34.305 49.582 34.217 48.559L35.042 48.559C35.097 49.131 35.471 49.439 36.109 49.439 36.681 49.439 37.055 49.142 37.055 48.691 37.055 48.251 36.769 48.031 35.9 47.811 34.8 47.514 34.305 47.052 34.305 46.282 34.305 45.402 35.02 44.808 36.087 44.808 37.165 44.808 37.814 45.358 37.858 46.315zM42.148 44.929L42.995 44.929 42.995 48.174C42.995 48.867 42.863 49.252 42.489 49.593 42.115 49.934 41.598 50.121 41.026 50.121 40.454 50.121 39.926 49.923 39.563 49.582 39.222 49.252 39.057 48.79 39.057 48.174L39.057 44.929 39.893 44.929 39.893 48.152C39.893 48.867 40.355 49.373 41.026 49.373 41.378 49.373 41.719 49.23 41.928 48.988 42.093 48.79 42.148 48.581 42.148 48.174L42.148 44.929zM44.535 44.929L45.371 44.929 45.371 45.787C45.525 45.424 45.635 45.27 45.833 45.116 46.086 44.918 46.438 44.808 46.801 44.808L46.999 44.808 46.999 45.655C46.911 45.644 46.823 45.644 46.768 45.644 46.317 45.644 45.921 45.853 45.668 46.227 45.448 46.546 45.371 46.843 45.371 47.426L45.371 50 44.535 50 44.535 44.929zM52.741 47.734L48.517 47.734C48.561 48.163 48.638 48.383 48.847 48.658 49.177 49.109 49.661 49.351 50.211 49.351 50.838 49.351 51.432 49.01 51.729 48.482L52.466 48.757C52.048 49.604 51.179 50.121 50.211 50.121 48.704 50.121 47.626 49.021 47.626 47.481 47.626 45.919 48.693 44.808 50.178 44.808 51.652 44.808 52.752 45.919 52.752 47.404 52.752 47.47 52.752 47.613 52.741 47.734zM48.528 47.118L51.861 47.118C51.828 46.722 51.751 46.502 51.575 46.249 51.256 45.82 50.739 45.556 50.178 45.556 49.617 45.556 49.111 45.82 48.814 46.26 48.66 46.502 48.594 46.711 48.528 47.118zM58.153 45.666L58.153 48.966C58.164 49.219 58.23 49.274 58.538 49.274L58.923 49.274 58.923 50 58.142 50C57.548 49.989 57.317 49.769 57.317 49.208L57.317 45.666 56.613 45.666 56.613 44.929 57.317 44.929 57.317 43.334 58.153 43.334 58.153 44.929 58.923 44.929 58.923 45.666 58.153 45.666zM63.939 45.765L63.939 44.929 64.775 44.929 64.775 50 63.939 50 63.939 49.021C63.433 49.78 62.861 50.121 62.091 50.121 60.694 50.121 59.704 49.021 59.704 47.481 59.704 45.93 60.716 44.808 62.113 44.808 62.883 44.808 63.444 45.105 63.939 45.765zM62.234 45.556C61.684 45.556 61.299 45.743 61.002 46.161 60.738 46.524 60.584 47.008 60.584 47.503 60.584 48.581 61.288 49.395 62.212 49.395 63.169 49.395 63.95 48.504 63.95 47.415 63.95 46.315 63.246 45.556 62.234 45.556zM66.458 44.929L67.294 44.929 67.294 45.853C67.778 45.105 68.295 44.808 69.142 44.808 70.55 44.808 71.529 45.886 71.529 47.426 71.529 49.021 70.55 50.121 69.142 50.121 68.746 50.121 68.383 50.033 68.031 49.857 67.723 49.703 67.569 49.571 67.294 49.208L67.294 52.376 66.458 52.376 66.458 44.929zM68.999 45.556C67.987 45.556 67.294 46.359 67.294 47.547 67.294 48.658 67.965 49.395 68.966 49.395 69.967 49.395 70.638 48.614 70.638 47.459 70.638 46.865 70.495 46.414 70.198 46.084 69.901 45.754 69.45 45.556 68.999 45.556zM76.985 45.666L76.985 48.966C76.996 49.219 77.062 49.274 77.37 49.274L77.755 49.274 77.755 50 76.974 50C76.38 49.989 76.149 49.769 76.149 49.208L76.149 45.666 75.445 45.666 75.445 44.929 76.149 44.929 76.149 43.334 76.985 43.334 76.985 44.929 77.755 44.929 77.755 45.666 76.985 45.666zM82.771 45.765L82.771 44.929 83.607 44.929 83.607 50 82.771 50 82.771 49.021C82.265 49.78 81.693 50.121 80.923 50.121 79.526 50.121 78.536 49.021 78.536 47.481 78.536 45.93 79.548 44.808 80.945 44.808 81.715 44.808 82.276 45.105 82.771 45.765zM81.066 45.556C80.516 45.556 80.131 45.743 79.834 46.161 79.57 46.524 79.416 47.008 79.416 47.503 79.416 48.581 80.12 49.395 81.044 49.395 82.001 49.395 82.782 48.504 82.782 47.415 82.782 46.315 82.078 45.556 81.066 45.556zM85.29 44.929L86.126 44.929 86.126 45.787C86.28 45.424 86.39 45.27 86.588 45.116 86.841 44.918 87.193 44.808 87.556 44.808L87.754 44.808 87.754 45.655C87.666 45.644 87.578 45.644 87.523 45.644 87.072 45.644 86.676 45.853 86.423 46.227 86.203 46.546 86.126 46.843 86.126 47.426L86.126 50 85.29 50 85.29 44.929zM92.539 45.798L92.539 44.929 93.375 44.929 93.375 50.033C93.375 50.88 93.166 51.452 92.704 51.892 92.253 52.332 91.604 52.563 90.834 52.563 89.888 52.563 89.14 52.255 88.59 51.639L89.162 51.067C89.393 51.309 89.503 51.408 89.646 51.507 89.932 51.683 90.405 51.804 90.834 51.804 91.362 51.804 91.868 51.617 92.154 51.309 92.407 51.034 92.539 50.627 92.539 50.099L92.539 49.032C92.044 49.78 91.461 50.121 90.669 50.121 89.327 50.121 88.326 48.988 88.326 47.481 88.326 46.667 88.623 45.886 89.129 45.402 89.536 45.006 90.086 44.808 90.735 44.808 91.505 44.808 92.022 45.094 92.539 45.798zM90.889 45.578C89.899 45.578 89.206 46.348 89.206 47.448 89.206 48.537 89.91 49.351 90.867 49.351 91.351 49.351 91.824 49.12 92.154 48.735 92.374 48.482 92.517 47.987 92.517 47.481 92.517 46.821 92.418 46.469 92.121 46.139 91.813 45.798 91.34 45.578 90.889 45.578zM99.766 47.734L95.542 47.734C95.586 48.163 95.663 48.383 95.872 48.658 96.202 49.109 96.686 49.351 97.236 49.351 97.863 49.351 98.457 49.01 98.754 48.482L99.491 48.757C99.073 49.604 98.204 50.121 97.236 50.121 95.729 50.121 94.651 49.021 94.651 47.481 94.651 45.919 95.718 44.808 97.203 44.808 98.677 44.808 99.777 45.919 99.777 47.404 99.777 47.47 99.777 47.613 99.766 47.734zM95.553 47.118L98.886 47.118C98.853 46.722 98.776 46.502 98.6 46.249 98.281 45.82 97.764 45.556 97.203 45.556 96.642 45.556 96.136 45.82 95.839 46.26 95.685 46.502 95.619 46.711 95.553 47.118zM101.878 45.666L101.878 48.966C101.889 49.219 101.955 49.274 102.263 49.274L102.648 49.274 102.648 50 101.867 50C101.273 49.989 101.042 49.769 101.042 49.208L101.042 45.666 100.338 45.666 100.338 44.929 101.042 44.929 101.042 43.334 101.878 43.334 101.878 44.929 102.648 44.929 102.648 45.666 101.878 45.666z"/>
      <rect width="65" height="44" x="116" y="19" fill="#25333D"/>
      <use fill-rule="nonzero" stroke="#F897BF" stroke-dasharray="1" stroke-width="2" mask="url(#2-d)" transform="translate(123 36)" xlink:href="#2-a"/>
      <g fill="#F897BF" transform="translate(172 27)">
        <rect width="1" height="9"/>
        <rect width="1" height="9" x="8"/>
        <rect width="7" height="1" x="1" y="4"/>
      </g>
      <path fill="#89CBDF" d="M132.313477,47 L131.109863,43.5717773 L126.345215,43.5717773 L125.141602,47 L123.572754,47 L127.98877,35.0219727 L129.466309,35.0219727 L133.882324,47 L132.313477,47 Z M128.661133,36.9560547 L126.785156,42.3017578 L130.669922,42.3017578 L128.793945,36.9560547 L128.661133,36.9560547 Z M142.296055,40.7910156 L140.851719,40.7910156 C140.619297,39.902832 139.830723,39.1806641 138.544102,39.1806641 C136.93375,39.1806641 135.921055,40.4672852 135.921055,42.4926758 C135.921055,44.5595703 136.950352,45.8710938 138.544102,45.8710938 C139.747715,45.8710938 140.586094,45.3149414 140.851719,44.3022461 L142.296055,44.3022461 C142.03873,45.9458008 140.702305,47.1577148 138.552402,47.1577148 C136.045566,47.1577148 134.443516,45.3398438 134.443516,42.4926758 C134.443516,39.7036133 136.037266,37.894043 138.544102,37.894043 C140.718906,37.894043 142.047031,39.1972656 142.296055,40.7910156 Z M144.758125,35.7358398 L146.185859,35.7358398 L146.185859,38.0517578 L148.178047,38.0517578 L148.178047,39.2470703 L146.185859,39.2470703 L146.185859,44.3105469 C146.185859,45.3647461 146.584297,45.8129883 147.513984,45.8129883 C147.771309,45.8129883 147.912422,45.8046875 148.178047,45.7797852 L148.178047,46.9833984 C147.89582,47.0332031 147.621895,47.0664062 147.339668,47.0664062 C145.496895,47.0664062 144.758125,46.3857422 144.758125,44.6757812 L144.758125,39.2470703 L143.313789,39.2470703 L143.313789,38.0517578 L144.758125,38.0517578 L144.758125,35.7358398 Z M149.959453,47 L149.959453,38.0517578 L151.387188,38.0517578 L151.387188,47 L149.959453,47 Z M150.67332,36.2338867 C150.125469,36.2338867 149.677227,35.7856445 149.677227,35.237793 C149.677227,34.6899414 150.125469,34.2416992 150.67332,34.2416992 C151.221172,34.2416992 151.669414,34.6899414 151.669414,35.237793 C151.669414,35.7856445 151.221172,36.2338867 150.67332,36.2338867 Z M157.37709,47.1577148 C154.82875,47.1577148 153.251602,45.3979492 153.251602,42.5258789 C153.251602,39.6455078 154.82875,37.894043 157.37709,37.894043 C159.92543,37.894043 161.502578,39.6455078 161.502578,42.5258789 C161.502578,45.3979492 159.92543,47.1577148 157.37709,47.1577148 Z M157.37709,45.8710938 C159.070449,45.8710938 160.025039,44.6425781 160.025039,42.5258789 C160.025039,40.4008789 159.070449,39.1806641 157.37709,39.1806641 C155.68373,39.1806641 154.729141,40.4008789 154.729141,42.5258789 C154.729141,44.6425781 155.68373,45.8710938 157.37709,45.8710938 Z M163.333789,47 L163.333789,38.0517578 L164.695117,38.0517578 L164.695117,39.4628906 L164.82793,39.4628906 C165.276172,38.4750977 166.147754,37.894043 167.517383,37.894043 C169.526172,37.894043 170.646777,39.0810547 170.646777,41.2060547 L170.646777,47 L169.219043,47 L169.219043,41.5546875 C169.219043,39.9443359 168.538379,39.1806641 167.110645,39.1806641 C165.68291,39.1806641 164.761523,40.1352539 164.761523,41.7041016 L164.761523,47 L163.333789,47 Z"/>
      <g transform="translate(0 79)">
        <rect width="24" height="24" fill="#89CBDF" rx="2"/>
        <path fill="#C41261" d="M28.913,8.663 L30.981,8.663 C32.477,8.663 33.324,9.367 33.324,10.61 C33.324,11.083 33.181,11.501 32.906,11.809 C32.73,12.018 32.554,12.128 32.158,12.282 C32.565,12.37 32.763,12.447 32.994,12.623 C33.39,12.942 33.599,13.437 33.599,14.031 C33.599,14.713 33.302,15.307 32.807,15.626 C32.378,15.901 31.905,16 30.981,16 L28.913,16 L28.913,8.663 Z M29.837,9.422 L29.837,11.963 L30.772,11.952 C31.355,11.952 31.707,11.875 31.971,11.666 C32.257,11.435 32.422,11.061 32.422,10.654 C32.422,10.181 32.191,9.763 31.839,9.598 C31.575,9.466 31.267,9.422 30.596,9.422 L29.837,9.422 Z M29.837,12.711 L29.837,15.252 L30.761,15.252 C31.531,15.252 31.828,15.197 32.147,15.01 C32.499,14.812 32.675,14.46 32.675,13.976 C32.675,13.096 32.158,12.711 30.992,12.711 L29.837,12.711 Z M35.766,8.663 L35.766,13.03 C35.766,13.965 35.898,14.438 36.25,14.79 C36.558,15.087 37.086,15.285 37.548,15.285 C38.01,15.285 38.527,15.076 38.846,14.746 C39.242,14.361 39.341,13.987 39.341,13.008 L39.341,8.663 L40.287,8.663 L40.287,13.008 C40.287,14.108 40.111,14.735 39.638,15.263 C39.143,15.824 38.406,16.132 37.57,16.132 C36.712,16.132 35.931,15.802 35.436,15.208 C34.985,14.691 34.842,14.152 34.842,13.008 L34.842,8.663 L35.766,8.663 Z M43.961,9.455 L43.961,16 L43.037,16 L43.037,9.455 L41.167,9.455 L41.167,8.663 L45.82,8.663 L45.82,9.455 L43.961,9.455 Z M48.834,9.455 L48.834,16 L47.91,16 L47.91,9.455 L46.04,9.455 L46.04,8.663 L50.693,8.663 L50.693,9.455 L48.834,9.455 Z M54.917,8.531 C55.94,8.531 56.919,8.993 57.623,9.796 C58.217,10.489 58.481,11.303 58.481,12.403 C58.481,13.547 58.041,14.57 57.238,15.252 C56.578,15.824 55.742,16.132 54.895,16.132 C53.806,16.132 52.739,15.615 52.057,14.757 C51.551,14.119 51.287,13.294 51.287,12.37 C51.287,10.181 52.838,8.531 54.917,8.531 Z M54.895,9.389 C53.366,9.389 52.233,10.643 52.233,12.337 C52.233,14.042 53.355,15.285 54.873,15.285 C55.61,15.285 56.336,14.966 56.831,14.405 C57.26,13.932 57.535,13.14 57.535,12.392 C57.535,11.413 57.271,10.698 56.699,10.148 C56.215,9.675 55.544,9.389 54.895,9.389 Z M60.802,10.39 L60.802,16 L59.878,16 L59.878,8.663 L60.725,8.663 L64.641,14.185 L64.641,8.663 L65.565,8.663 L65.565,16 L64.751,16 L60.802,10.39 Z M67.743,14.944 C68.073,14.944 68.315,15.186 68.315,15.527 C68.315,15.846 68.062,16.088 67.743,16.088 C67.413,16.088 67.171,15.846 67.171,15.516 C67.171,15.186 67.413,14.944 67.743,14.944 Z M67.743,11.776 C68.073,11.776 68.315,12.018 68.315,12.359 C68.315,12.678 68.062,12.92 67.743,12.92 C67.413,12.92 67.171,12.678 67.171,12.348 C67.171,12.018 67.413,11.776 67.743,11.776 Z M73.232,16 L73.232,8.663 L75.179,8.663 C77.39,8.663 78.721,10.005 78.721,12.216 C78.721,13.459 78.314,14.482 77.566,15.153 C76.928,15.725 76.081,16 75.014,16 L73.232,16 Z M74.156,9.444 L74.156,15.208 L74.486,15.208 C75.729,15.208 76.257,15.076 76.785,14.658 C77.445,14.13 77.775,13.316 77.775,12.227 C77.775,10.456 76.829,9.444 75.146,9.444 L74.156,9.444 Z M84.749,13.734 L80.525,13.734 C80.569,14.163 80.646,14.383 80.855,14.658 C81.185,15.109 81.669,15.351 82.219,15.351 C82.846,15.351 83.44,15.01 83.737,14.482 L84.474,14.757 C84.056,15.604 83.187,16.121 82.219,16.121 C80.712,16.121 79.634,15.021 79.634,13.481 C79.634,11.919 80.701,10.808 82.186,10.808 C83.66,10.808 84.76,11.919 84.76,13.404 C84.76,13.47 84.76,13.613 84.749,13.734 Z M80.536,13.118 L83.869,13.118 C83.836,12.722 83.759,12.502 83.583,12.249 C83.264,11.82 82.747,11.556 82.186,11.556 C81.625,11.556 81.119,11.82 80.822,12.26 C80.668,12.502 80.602,12.711 80.536,13.118 Z M85.97,10.929 L86.806,10.929 L86.806,11.644 C87.246,11.05 87.686,10.808 88.313,10.808 C88.775,10.808 89.193,10.962 89.49,11.226 C89.809,11.534 89.919,11.886 89.919,12.579 L89.919,16 L89.083,16 L89.083,12.766 C89.083,12.315 89.028,12.073 88.896,11.897 C88.742,11.688 88.445,11.556 88.104,11.556 C87.73,11.556 87.389,11.699 87.136,11.985 C86.894,12.249 86.806,12.491 86.806,12.909 L86.806,16 L85.97,16 L85.97,10.929 Z M92.405,10.929 L92.405,16 L91.569,16 L91.569,10.929 L92.405,10.929 Z M91.998,8.96 C92.295,8.96 92.526,9.202 92.526,9.51 C92.526,9.807 92.284,10.038 91.987,10.038 C91.69,10.038 91.459,9.807 91.459,9.499 C91.459,9.191 91.69,8.96 91.998,8.96 Z M94.088,10.929 L94.924,10.929 L94.924,11.633 C95.309,11.05 95.738,10.808 96.365,10.808 C97.058,10.808 97.498,11.105 97.729,11.732 C98.103,11.083 98.576,10.808 99.335,10.808 C99.918,10.808 100.358,10.995 100.622,11.347 C100.864,11.666 100.93,11.952 100.93,12.755 L100.93,16 L100.094,16 L100.094,12.953 C100.094,12.337 100.072,12.194 99.951,11.985 C99.797,11.721 99.467,11.556 99.071,11.556 C98.334,11.556 97.927,12.051 97.927,12.953 L97.927,16 L97.091,16 L97.091,12.964 C97.091,12.469 97.047,12.216 96.926,11.996 C96.783,11.71 96.475,11.556 96.101,11.556 C95.364,11.556 94.924,12.084 94.924,12.964 L94.924,16 L94.088,16 L94.088,10.929 Z M105.836,8.773 L103.955,11.71 C104.263,11.6 104.406,11.567 104.67,11.567 C105.891,11.567 106.837,12.524 106.837,13.767 C106.837,15.065 105.77,16.132 104.472,16.132 C103.163,16.132 102.151,15.098 102.151,13.767 C102.151,13.228 102.294,12.821 102.712,12.15 L104.813,8.773 L105.836,8.773 Z M104.516,12.315 C103.68,12.315 103.02,12.953 103.02,13.767 C103.02,14.625 103.669,15.307 104.494,15.307 C105.319,15.307 105.979,14.636 105.979,13.8 C105.979,12.975 105.33,12.315 104.516,12.315 Z"/>
        <g transform="translate(129)">
          <rect width="23" height="23" x=".5" y=".5" stroke="#C41261" rx="2"/>
          <path fill="#C41261" d="M10.4655 14.306L7.1765 14.306 6.5055 16 5.5485 16 8.3095 8.663 9.4095 8.663 12.1045 16 11.0705 16 10.4655 14.306zM10.1795 13.514L8.8375 9.829 7.4515 13.514 10.1795 13.514zM16.8235 11.765L16.8235 10.929 17.6595 10.929 17.6595 16 16.8235 16 16.8235 15.021C16.3175 15.78 15.7455 16.121 14.9755 16.121 13.5785 16.121 12.5885 15.021 12.5885 13.481 12.5885 11.93 13.6005 10.808 14.9975 10.808 15.7675 10.808 16.3285 11.105 16.8235 11.765zM15.1185 11.556C14.5685 11.556 14.1835 11.743 13.8865 12.161 13.6225 12.524 13.4685 13.008 13.4685 13.503 13.4685 14.581 14.1725 15.395 15.0965 15.395 16.0535 15.395 16.8345 14.504 16.8345 13.415 16.8345 12.315 16.1305 11.556 15.1185 11.556zM30.904 9.455L30.904 16 29.98 16 29.98 9.455 28.11 9.455 28.11 8.663 32.763 8.663 32.763 9.455 30.904 9.455zM34.622 9.455L34.622 11.908 37.515 11.908 37.515 12.7 34.622 12.7 34.622 15.208 37.515 15.208 37.515 16 33.698 16 33.698 8.663 37.515 8.663 37.515 9.455 34.622 9.455zM41.134 13.074L39.264 16 38.142 16 40.595 12.26 38.23 8.663 39.341 8.663 41.134 11.446 42.938 8.663 44.016 8.663 41.662 12.26 44.082 16 43.015 16 41.134 13.074zM47.052 9.455L47.052 16 46.128 16 46.128 9.455 44.258 9.455 44.258 8.663 48.911 8.663 48.911 9.455 47.052 9.455zM50.286 14.944C50.616 14.944 50.858 15.186 50.858 15.527 50.858 15.846 50.605 16.088 50.286 16.088 49.956 16.088 49.714 15.846 49.714 15.516 49.714 15.186 49.956 14.944 50.286 14.944zM50.286 11.776C50.616 11.776 50.858 12.018 50.858 12.359 50.858 12.678 50.605 12.92 50.286 12.92 49.956 12.92 49.714 12.678 49.714 12.348 49.714 12.018 49.956 11.776 50.286 11.776zM55.775 8.663L57.843 8.663C59.339 8.663 60.186 9.367 60.186 10.61 60.186 11.083 60.043 11.501 59.768 11.809 59.592 12.018 59.416 12.128 59.02 12.282 59.427 12.37 59.625 12.447 59.856 12.623 60.252 12.942 60.461 13.437 60.461 14.031 60.461 14.713 60.164 15.307 59.669 15.626 59.24 15.901 58.767 16 57.843 16L55.775 16 55.775 8.663zM56.699 9.422L56.699 11.963 57.634 11.952C58.217 11.952 58.569 11.875 58.833 11.666 59.119 11.435 59.284 11.061 59.284 10.654 59.284 10.181 59.053 9.763 58.701 9.598 58.437 9.466 58.129 9.422 57.458 9.422L56.699 9.422zM56.699 12.711L56.699 15.252 57.623 15.252C58.393 15.252 58.69 15.197 59.009 15.01 59.361 14.812 59.537 14.46 59.537 13.976 59.537 13.096 59.02 12.711 57.854 12.711L56.699 12.711zM63.948 10.808C65.444 10.808 66.511 11.919 66.511 13.481 66.511 14.966 65.367 16.121 63.915 16.121 62.408 16.121 61.352 15.021 61.352 13.459 61.352 11.886 62.408 10.808 63.948 10.808zM63.948 11.578C62.903 11.578 62.21 12.337 62.21 13.47 62.21 14.592 62.903 15.351 63.937 15.351 64.938 15.351 65.653 14.57 65.653 13.47 65.653 12.337 64.971 11.578 63.948 11.578zM71.582 11.699L71.582 8.663 72.418 8.663 72.418 16 71.582 16 71.582 15.131C71.076 15.824 70.537 16.121 69.767 16.121 68.37 16.121 67.38 15.032 67.38 13.492 67.38 11.952 68.392 10.808 69.767 10.808 70.515 10.808 71.087 11.083 71.582 11.699zM69.943 11.556C68.942 11.556 68.26 12.348 68.26 13.503 68.26 14.614 68.931 15.395 69.888 15.395 70.867 15.395 71.582 14.581 71.582 13.481 71.582 12.337 70.911 11.556 69.943 11.556zM75.586 14.691L77.104 10.929 78.017 10.929 74.992 18.442 74.079 18.442 75.135 15.846 73.331 10.929 74.222 10.929 75.586 14.691zM84.298 18.046L83.748 18.574C82.45 16.979 81.856 15.428 81.856 13.58 81.856 11.688 82.549 9.818 83.77 8.443L84.298 8.993C83.187 10.368 82.637 11.897 82.637 13.547 82.637 15.153 83.231 16.759 84.298 18.046zM87.719 10.808C89.215 10.808 90.282 11.919 90.282 13.481 90.282 14.966 89.138 16.121 87.686 16.121 86.179 16.121 85.123 15.021 85.123 13.459 85.123 11.886 86.179 10.808 87.719 10.808zM87.719 11.578C86.674 11.578 85.981 12.337 85.981 13.47 85.981 14.592 86.674 15.351 87.708 15.351 88.709 15.351 89.424 14.57 89.424 13.47 89.424 12.337 88.742 11.578 87.719 11.578zM94.572 10.929L95.441 10.929 93.527 16 92.647 16 90.788 10.929 91.668 10.929 93.098 14.801 94.572 10.929zM101.051 13.734L96.827 13.734C96.871 14.163 96.948 14.383 97.157 14.658 97.487 15.109 97.971 15.351 98.521 15.351 99.148 15.351 99.742 15.01 100.039 14.482L100.776 14.757C100.358 15.604 99.489 16.121 98.521 16.121 97.014 16.121 95.936 15.021 95.936 13.481 95.936 11.919 97.003 10.808 98.488 10.808 99.962 10.808 101.062 11.919 101.062 13.404 101.062 13.47 101.062 13.613 101.051 13.734zM96.838 13.118L100.171 13.118C100.138 12.722 100.061 12.502 99.885 12.249 99.566 11.82 99.049 11.556 98.488 11.556 97.927 11.556 97.421 11.82 97.124 12.26 96.97 12.502 96.904 12.711 96.838 13.118zM102.272 10.929L103.108 10.929 103.108 11.787C103.262 11.424 103.372 11.27 103.57 11.116 103.823 10.918 104.175 10.808 104.538 10.808L104.736 10.808 104.736 11.655C104.648 11.644 104.56 11.644 104.505 11.644 104.054 11.644 103.658 11.853 103.405 12.227 103.185 12.546 103.108 12.843 103.108 13.426L103.108 16 102.272 16 102.272 10.929zM105.77 10.929L106.606 10.929 106.606 11.787C106.76 11.424 106.87 11.27 107.068 11.116 107.321 10.918 107.673 10.808 108.036 10.808L108.234 10.808 108.234 11.655C108.146 11.644 108.058 11.644 108.003 11.644 107.552 11.644 107.156 11.853 106.903 12.227 106.683 12.546 106.606 12.843 106.606 13.426L106.606 16 105.77 16 105.77 10.929zM110.104 10.929L110.104 16 109.268 16 109.268 10.929 110.104 10.929zM109.697 8.96C109.994 8.96 110.225 9.202 110.225 9.51 110.225 9.807 109.983 10.038 109.686 10.038 109.389 10.038 109.158 9.807 109.158 9.499 109.158 9.191 109.389 8.96 109.697 8.96zM115.582 11.699L115.582 8.663 116.418 8.663 116.418 16 115.582 16 115.582 15.131C115.076 15.824 114.537 16.121 113.767 16.121 112.37 16.121 111.38 15.032 111.38 13.492 111.38 11.952 112.392 10.808 113.767 10.808 114.515 10.808 115.087 11.083 115.582 11.699zM113.943 11.556C112.942 11.556 112.26 12.348 112.26 13.503 112.26 14.614 112.931 15.395 113.888 15.395 114.867 15.395 115.582 14.581 115.582 13.481 115.582 12.337 114.911 11.556 113.943 11.556zM122.809 13.734L118.585 13.734C118.629 14.163 118.706 14.383 118.915 14.658 119.245 15.109 119.729 15.351 120.279 15.351 120.906 15.351 121.5 15.01 121.797 14.482L122.534 14.757C122.116 15.604 121.247 16.121 120.279 16.121 118.772 16.121 117.694 15.021 117.694 13.481 117.694 11.919 118.761 10.808 120.246 10.808 121.72 10.808 122.82 11.919 122.82 13.404 122.82 13.47 122.82 13.613 122.809 13.734zM118.596 13.118L121.929 13.118C121.896 12.722 121.819 12.502 121.643 12.249 121.324 11.82 120.807 11.556 120.246 11.556 119.685 11.556 119.179 11.82 118.882 12.26 118.728 12.502 118.662 12.711 118.596 13.118zM128.221 11.666L128.221 14.966C128.232 15.219 128.298 15.274 128.606 15.274L128.991 15.274 128.991 16 128.21 16C127.616 15.989 127.385 15.769 127.385 15.208L127.385 11.666 126.681 11.666 126.681 10.929 127.385 10.929 127.385 9.334 128.221 9.334 128.221 10.929 128.991 10.929 128.991 11.666 128.221 11.666zM132.368 10.808C133.864 10.808 134.931 11.919 134.931 13.481 134.931 14.966 133.787 16.121 132.335 16.121 130.828 16.121 129.772 15.021 129.772 13.459 129.772 11.886 130.828 10.808 132.368 10.808zM132.368 11.578C131.323 11.578 130.63 12.337 130.63 13.47 130.63 14.592 131.323 15.351 132.357 15.351 133.358 15.351 134.073 14.57 134.073 13.47 134.073 12.337 133.391 11.578 132.368 11.578zM140.508 10.621L140.508 16 139.584 16 139.584 8.663 140.497 8.663 143.214 14.163 145.964 8.663 146.866 8.663 146.866 16 145.942 16 145.942 10.632 143.214 16.077 140.508 10.621zM153.323 13.734L149.099 13.734C149.143 14.163 149.22 14.383 149.429 14.658 149.759 15.109 150.243 15.351 150.793 15.351 151.42 15.351 152.014 15.01 152.311 14.482L153.048 14.757C152.63 15.604 151.761 16.121 150.793 16.121 149.286 16.121 148.208 15.021 148.208 13.481 148.208 11.919 149.275 10.808 150.76 10.808 152.234 10.808 153.334 11.919 153.334 13.404 153.334 13.47 153.334 13.613 153.323 13.734zM149.11 13.118L152.443 13.118C152.41 12.722 152.333 12.502 152.157 12.249 151.838 11.82 151.321 11.556 150.76 11.556 150.199 11.556 149.693 11.82 149.396 12.26 149.242 12.502 149.176 12.711 149.11 13.118zM158.339 11.699L158.339 8.663 159.175 8.663 159.175 16 158.339 16 158.339 15.131C157.833 15.824 157.294 16.121 156.524 16.121 155.127 16.121 154.137 15.032 154.137 13.492 154.137 11.952 155.149 10.808 156.524 10.808 157.272 10.808 157.844 11.083 158.339 11.699zM156.7 11.556C155.699 11.556 155.017 12.348 155.017 13.503 155.017 14.614 155.688 15.395 156.645 15.395 157.624 15.395 158.339 14.581 158.339 13.481 158.339 12.337 157.668 11.556 156.7 11.556zM161.694 10.929L161.694 16 160.858 16 160.858 10.929 161.694 10.929zM161.287 8.96C161.584 8.96 161.815 9.202 161.815 9.51 161.815 9.807 161.573 10.038 161.276 10.038 160.979 10.038 160.748 9.807 160.748 9.499 160.748 9.191 160.979 8.96 161.287 8.96zM166.325 10.929L167.172 10.929 167.172 14.174C167.172 14.867 167.04 15.252 166.666 15.593 166.292 15.934 165.775 16.121 165.203 16.121 164.631 16.121 164.103 15.923 163.74 15.582 163.399 15.252 163.234 14.79 163.234 14.174L163.234 10.929 164.07 10.929 164.07 14.152C164.07 14.867 164.532 15.373 165.203 15.373 165.555 15.373 165.896 15.23 166.105 14.988 166.27 14.79 166.325 14.581 166.325 14.174L166.325 10.929zM168.712 10.929L169.548 10.929 169.548 11.633C169.933 11.05 170.362 10.808 170.989 10.808 171.682 10.808 172.122 11.105 172.353 11.732 172.727 11.083 173.2 10.808 173.959 10.808 174.542 10.808 174.982 10.995 175.246 11.347 175.488 11.666 175.554 11.952 175.554 12.755L175.554 16 174.718 16 174.718 12.953C174.718 12.337 174.696 12.194 174.575 11.985 174.421 11.721 174.091 11.556 173.695 11.556 172.958 11.556 172.551 12.051 172.551 12.953L172.551 16 171.715 16 171.715 12.964C171.715 12.469 171.671 12.216 171.55 11.996 171.407 11.71 171.099 11.556 170.725 11.556 169.988 11.556 169.548 12.084 169.548 12.964L169.548 16 168.712 16 168.712 10.929zM176.753 8.971L177.303 8.443C178.612 10.049 179.195 11.589 179.195 13.437 179.195 15.34 178.502 17.188 177.281 18.574L176.753 18.024C177.864 16.649 178.414 15.12 178.414 13.47 178.414 11.853 177.831 10.269 176.753 8.971z"/>
        </g>
      </g>
    </g>
    <g transform="translate(110 54)">
      <rect width="359" height="56" fill="#25333D" rx="14"/>
      <rect width="66" height="32" x="285" y="12"/>
      <path fill="#89CBDF" d="M302.271035,34 L301.175332,30.8208008 L296.609902,30.8208008 L295.505898,34 L293.596719,34 L297.921426,22.0219727 L299.921914,22.0219727 L304.246621,34 L302.271035,34 Z M298.826211,24.1967773 L297.083047,29.2602539 L300.702187,29.2602539 L298.967324,24.1967773 L298.826211,24.1967773 Z M312.867871,27.9155273 L311.133008,27.9155273 C310.925488,27.0356445 310.19502,26.3798828 308.999707,26.3798828 C307.505566,26.3798828 306.59248,27.5253906 306.59248,29.4511719 C306.59248,31.4101562 307.513867,32.5805664 308.999707,32.5805664 C310.128613,32.5805664 310.900586,32.065918 311.133008,31.0947266 L312.867871,31.0947266 C312.635449,32.9125977 311.240918,34.1743164 309.008008,34.1743164 C306.37666,34.1743164 304.766309,32.3979492 304.766309,29.4511719 C304.766309,26.5541992 306.368359,24.7861328 308.999707,24.7861328 C311.26582,24.7861328 312.635449,26.105957 312.867871,27.9155273 Z M315.255234,22.7109375 L317.039902,22.7109375 L317.039902,25.0019531 L318.998887,25.0019531 L318.998887,26.5043945 L317.039902,26.5043945 L317.039902,31.152832 C317.039902,32.0991211 317.430039,32.5141602 318.318223,32.5141602 C318.592148,32.5141602 318.749863,32.4975586 318.998887,32.4726562 L318.998887,33.9584961 C318.708359,34.0083008 318.376328,34.0498047 318.027695,34.0498047 C316.043809,34.0498047 315.255234,33.3525391 315.255234,31.609375 L315.255234,26.5043945 L313.819199,26.5043945 L313.819199,25.0019531 L315.255234,25.0019531 L315.255234,22.7109375 Z M320.722187,34 L320.722187,24.9604492 L322.498555,24.9604492 L322.498555,34 L320.722187,34 Z M321.610371,23.375 C320.946309,23.375 320.456562,22.9018555 320.456562,22.2875977 C320.456562,21.6650391 320.946309,21.1918945 321.610371,21.1918945 C322.274434,21.1918945 322.76418,21.6650391 322.76418,22.2875977 C322.76418,22.9018555 322.274434,23.375 321.610371,23.375 Z M328.529961,34.1743164 C325.882012,34.1743164 324.263359,32.40625 324.263359,29.4760742 C324.263359,26.5625 325.890312,24.7861328 328.529961,24.7861328 C331.161309,24.7861328 332.788262,26.5625 332.788262,29.4760742 C332.788262,32.40625 331.169609,34.1743164 328.529961,34.1743164 Z M328.529961,32.5888672 C330.073906,32.5888672 330.953789,31.4433594 330.953789,29.4760742 C330.953789,27.5170898 330.073906,26.371582 328.529961,26.371582 C326.977715,26.371582 326.106133,27.5170898 326.106133,29.4760742 C326.106133,31.4516602 326.977715,32.5888672 328.529961,32.5888672 Z M334.519863,34 L334.519863,24.9604492 L336.238125,24.9604492 L336.238125,26.3964844 L336.370937,26.3964844 C336.810879,25.3920898 337.707363,24.7861328 339.068691,24.7861328 C341.085781,24.7861328 342.198086,25.9980469 342.198086,28.1479492 L342.198086,34 L340.413418,34 L340.413418,28.5961914 C340.413418,27.1435547 339.782559,26.4213867 338.462734,26.4213867 C337.14291,26.4213867 336.304531,27.3012695 336.304531,28.7124023 L336.304531,34 L334.519863,34 Z"/>
      <path fill="#FFF" d="M16.8984375,30.0546875 L18.3203125,30.0546875 C18.4921875,31.234375 19.6171875,31.984375 21.21875,31.984375 C22.734375,31.984375 23.8515625,31.1640625 23.8515625,30.046875 C23.8515625,29.0859375 23.1484375,28.4765625 21.59375,28.0859375 L20.1484375,27.7109375 C18.109375,27.1953125 17.2265625,26.2734375 17.2265625,24.671875 C17.2265625,22.7578125 18.828125,21.4609375 21.2109375,21.4609375 C23.390625,21.4609375 25.015625,22.7578125 25.1328125,24.578125 L23.71875,24.578125 C23.5234375,23.421875 22.5703125,22.734375 21.1640625,22.734375 C19.6640625,22.734375 18.671875,23.484375 18.671875,24.625 C18.671875,25.5078125 19.2890625,26.015625 20.84375,26.4140625 L22.0234375,26.7265625 C24.359375,27.3125 25.296875,28.21875 25.296875,29.875 C25.296875,31.9453125 23.6640625,33.265625 21.0859375,33.265625 C18.6953125,33.265625 17.046875,32 16.8984375,30.0546875 Z M27.1721875,33 L27.1721875,24.578125 L28.5159375,24.578125 L28.5159375,33 L27.1721875,33 Z M27.8440625,22.8671875 C27.3284375,22.8671875 26.9065625,22.4453125 26.9065625,21.9296875 C26.9065625,21.4140625 27.3284375,20.9921875 27.8440625,20.9921875 C28.3596875,20.9921875 28.7815625,21.4140625 28.7815625,21.9296875 C28.7815625,22.4453125 28.3596875,22.8671875 27.8440625,22.8671875 Z M30.7584375,33 L30.7584375,24.578125 L32.0396875,24.578125 L32.0396875,25.90625 L32.1646875,25.90625 C32.5865625,24.9765625 33.406875,24.4296875 34.6959375,24.4296875 C36.5865625,24.4296875 37.64125,25.546875 37.64125,27.546875 L37.64125,33 L36.2975,33 L36.2975,27.875 C36.2975,26.359375 35.656875,25.640625 34.313125,25.640625 C32.969375,25.640625 32.1021875,26.5390625 32.1021875,28.015625 L32.1021875,33 L30.7584375,33 Z M43.180625,31.6875 C44.743125,31.6875 45.680625,30.5 45.680625,28.6640625 C45.680625,26.828125 44.7353125,25.640625 43.180625,25.640625 C41.618125,25.640625 40.743125,26.828125 40.743125,28.6640625 C40.743125,30.5 41.618125,31.6875 43.180625,31.6875 Z M43.243125,36.234375 C41.211875,36.234375 39.915,35.3203125 39.711875,33.9296875 L41.13375,33.9296875 C41.2821875,34.6171875 42.0321875,35.0625 43.243125,35.0625 C44.7509375,35.0625 45.649375,34.3203125 45.649375,33.078125 L45.649375,31.421875 L45.524375,31.421875 C44.993125,32.3515625 44.04,32.875 42.88375,32.875 C40.7040625,32.875 39.3525,31.1875 39.3525,28.6640625 C39.3525,26.140625 40.7196875,24.4296875 42.88375,24.4296875 C44.0634375,24.4296875 45.1025,25.0078125 45.586875,25.9140625 L45.711875,25.9140625 L45.711875,24.578125 L46.993125,24.578125 L46.993125,33.1484375 C46.993125,35.03125 45.54,36.234375 43.243125,36.234375 Z M49.2825,33 L49.2825,21.234375 L50.62625,21.234375 L50.62625,33 L49.2825,33 Z M56.275,25.6171875 C54.93125,25.6171875 53.99375,26.6015625 53.8921875,28.09375 L58.5328125,28.09375 C58.5015625,26.6015625 57.6109375,25.6171875 56.275,25.6171875 Z M58.49375,30.8203125 L59.8375,30.8203125 C59.43125,32.265625 58.134375,33.1484375 56.290625,33.1484375 C53.9546875,33.1484375 52.49375,31.4609375 52.49375,28.796875 C52.49375,26.1484375 53.978125,24.4296875 56.290625,24.4296875 C58.5640625,24.4296875 59.946875,26.046875 59.946875,28.6640625 L59.946875,29.1796875 L53.8921875,29.1796875 L53.8921875,29.2421875 C53.9625,30.90625 54.8921875,31.9609375 56.321875,31.9609375 C57.4078125,31.9609375 58.1421875,31.5625 58.49375,30.8203125 Z M66.0100001,33 L66.0100001,21.234375 L67.3537501,21.234375 L67.3537501,33 L66.0100001,33 Z M69.6743751,33 L69.6743751,24.578125 L71.0181251,24.578125 L71.0181251,33 L69.6743751,33 Z M70.3462501,22.8671875 C69.8306251,22.8671875 69.4087501,22.4453125 69.4087501,21.9296875 C69.4087501,21.4140625 69.8306251,20.9921875 70.3462501,20.9921875 C70.8618751,20.9921875 71.2837501,21.4140625 71.2837501,21.9296875 C71.2837501,22.4453125 70.8618751,22.8671875 70.3462501,22.8671875 Z M73.2606251,33 L73.2606251,24.578125 L74.5418751,24.578125 L74.5418751,25.90625 L74.6668751,25.90625 C75.0887501,24.9765625 75.9090626,24.4296875 77.1981251,24.4296875 C79.0887501,24.4296875 80.1434376,25.546875 80.1434376,27.546875 L80.1434376,33 L78.7996876,33 L78.7996876,27.875 C78.7996876,26.359375 78.1590626,25.640625 76.8153126,25.640625 C75.4715626,25.640625 74.6043751,26.5390625 74.6043751,28.015625 L74.6043751,33 L73.2606251,33 Z M85.6359376,25.6171875 C84.2921876,25.6171875 83.3546876,26.6015625 83.2531251,28.09375 L87.8937501,28.09375 C87.8625001,26.6015625 86.9718751,25.6171875 85.6359376,25.6171875 Z M87.8546876,30.8203125 L89.1984376,30.8203125 C88.7921876,32.265625 87.4953126,33.1484375 85.6515626,33.1484375 C83.3156251,33.1484375 81.8546876,31.4609375 81.8546876,28.796875 C81.8546876,26.1484375 83.3390626,24.4296875 85.6515626,24.4296875 C87.9250001,24.4296875 89.3078126,26.046875 89.3078126,28.6640625 L89.3078126,29.1796875 L83.2531251,29.1796875 L83.2531251,29.2421875 C83.3234376,30.90625 84.2531251,31.9609375 85.6828126,31.9609375 C86.7687501,31.9609375 87.5031251,31.5625 87.8546876,30.8203125 Z M95.2928126,33 L95.2928126,24.578125 L96.5740626,24.578125 L96.5740626,25.90625 L96.6990626,25.90625 C97.0818751,24.96875 97.9256251,24.4296875 99.0506251,24.4296875 C100.19125,24.4296875 100.988125,25.03125 101.37875,25.90625 L101.50375,25.90625 C101.956875,25.015625 102.917813,24.4296875 104.081875,24.4296875 C105.800625,24.4296875 106.761563,25.4140625 106.761563,27.1796875 L106.761563,33 L105.417813,33 L105.417813,27.4921875 C105.417813,26.25 104.831875,25.640625 103.644375,25.640625 C102.4725,25.640625 101.69125,26.515625 101.69125,27.5859375 L101.69125,33 L100.3475,33 L100.3475,27.28125 C100.3475,26.28125 99.6521876,25.640625 98.5896876,25.640625 C97.4881251,25.640625 96.6365626,26.59375 96.6365626,27.78125 L96.6365626,33 L95.2928126,33 Z M112.254063,25.6171875 C110.910313,25.6171875 109.972813,26.6015625 109.87125,28.09375 L114.511875,28.09375 C114.480625,26.6015625 113.59,25.6171875 112.254063,25.6171875 Z M114.472813,30.8203125 L115.816563,30.8203125 C115.410313,32.265625 114.113438,33.1484375 112.269688,33.1484375 C109.93375,33.1484375 108.472813,31.4609375 108.472813,28.796875 C108.472813,26.1484375 109.957188,24.4296875 112.269688,24.4296875 C114.543125,24.4296875 115.925938,26.046875 115.925938,28.6640625 L115.925938,29.1796875 L109.87125,29.1796875 L109.87125,29.2421875 C109.941563,30.90625 110.87125,31.9609375 112.300938,31.9609375 C113.386875,31.9609375 114.12125,31.5625 114.472813,30.8203125 Z M117.52,26.8828125 C117.52,25.484375 118.871563,24.4296875 120.660625,24.4296875 C122.42625,24.4296875 123.652813,25.3046875 123.8325,26.6875 L122.504375,26.6875 C122.324688,26.015625 121.668438,25.5703125 120.652813,25.5703125 C119.652813,25.5703125 118.871563,26.078125 118.871563,26.828125 C118.871563,27.40625 119.340313,27.765625 120.3325,28.0078125 L121.629375,28.3203125 C123.215313,28.703125 123.980938,29.390625 123.980938,30.6015625 C123.980938,32.109375 122.52,33.1484375 120.605938,33.1484375 C118.730938,33.1484375 117.441875,32.25 117.293438,30.8515625 L118.67625,30.8515625 C118.902813,31.5625 119.574688,32.015625 120.652813,32.015625 C121.785625,32.015625 122.598125,31.4765625 122.598125,30.703125 C122.598125,30.125 122.160625,29.734375 121.262188,29.515625 L119.816875,29.1640625 C118.23875,28.78125 117.52,28.1015625 117.52,26.8828125 Z M125.41875,26.8828125 C125.41875,25.484375 126.770313,24.4296875 128.559375,24.4296875 C130.325,24.4296875 131.551563,25.3046875 131.73125,26.6875 L130.403125,26.6875 C130.223438,26.015625 129.567188,25.5703125 128.551563,25.5703125 C127.551563,25.5703125 126.770313,26.078125 126.770313,26.828125 C126.770313,27.40625 127.239063,27.765625 128.23125,28.0078125 L129.528125,28.3203125 C131.114063,28.703125 131.879688,29.390625 131.879688,30.6015625 C131.879688,32.109375 130.41875,33.1484375 128.504688,33.1484375 C126.629688,33.1484375 125.340625,32.25 125.192188,30.8515625 L126.575,30.8515625 C126.801563,31.5625 127.473438,32.015625 128.551563,32.015625 C129.684375,32.015625 130.496875,31.4765625 130.496875,30.703125 C130.496875,30.125 130.059375,29.734375 129.160938,29.515625 L127.715625,29.1640625 C126.1375,28.78125 125.41875,28.1015625 125.41875,26.8828125 Z M136.262813,31.96875 C137.645625,31.96875 138.669063,31.0625 138.669063,29.859375 L138.669063,29.0859375 L136.403438,29.234375 C135.122188,29.3203125 134.559688,29.765625 134.559688,30.609375 C134.559688,31.46875 135.28625,31.96875 136.262813,31.96875 Z M136.012813,33.1484375 C134.38,33.1484375 133.169063,32.1796875 133.169063,30.640625 C133.169063,29.1328125 134.278438,28.265625 136.239375,28.1484375 L138.669063,28 L138.669063,27.234375 C138.669063,26.1953125 138.020625,25.625 136.762813,25.625 C135.755,25.625 135.051875,26.0078125 134.864375,26.671875 L133.505,26.671875 C133.684688,25.3203125 135.012813,24.4296875 136.809688,24.4296875 C138.864375,24.4296875 140.012813,25.484375 140.012813,27.234375 L140.012813,33 L138.731563,33 L138.731563,31.7578125 L138.606563,31.7578125 C138.059688,32.65625 137.137813,33.1484375 136.012813,33.1484375 Z M145.583438,31.6875 C147.145938,31.6875 148.083438,30.5 148.083438,28.6640625 C148.083438,26.828125 147.138125,25.640625 145.583438,25.640625 C144.020938,25.640625 143.145938,26.828125 143.145938,28.6640625 C143.145938,30.5 144.020938,31.6875 145.583438,31.6875 Z M145.645938,36.234375 C143.614688,36.234375 142.317813,35.3203125 142.114688,33.9296875 L143.536563,33.9296875 C143.685,34.6171875 144.435,35.0625 145.645938,35.0625 C147.15375,35.0625 148.052188,34.3203125 148.052188,33.078125 L148.052188,31.421875 L147.927188,31.421875 C147.395938,32.3515625 146.442813,32.875 145.286563,32.875 C143.106875,32.875 141.755313,31.1875 141.755313,28.6640625 C141.755313,26.140625 143.1225,24.4296875 145.286563,24.4296875 C146.46625,24.4296875 147.505313,25.0078125 147.989688,25.9140625 L148.114688,25.9140625 L148.114688,24.578125 L149.395938,24.578125 L149.395938,33.1484375 C149.395938,35.03125 147.942813,36.234375 145.645938,36.234375 Z M154.966563,25.6171875 C153.622813,25.6171875 152.685313,26.6015625 152.58375,28.09375 L157.224375,28.09375 C157.193125,26.6015625 156.3025,25.6171875 154.966563,25.6171875 Z M157.185313,30.8203125 L158.529063,30.8203125 C158.122813,32.265625 156.825938,33.1484375 154.982188,33.1484375 C152.64625,33.1484375 151.185313,31.4609375 151.185313,28.796875 C151.185313,26.1484375 152.669688,24.4296875 154.982188,24.4296875 C157.255625,24.4296875 158.638438,26.046875 158.638438,28.6640625 L158.638438,29.1796875 L152.58375,29.1796875 L152.58375,29.2421875 C152.654063,30.90625 153.58375,31.9609375 155.013438,31.9609375 C156.099375,31.9609375 156.83375,31.5625 157.185313,30.8203125 Z M167.217188,31.96875 C168.6,31.96875 169.623438,31.0625 169.623438,29.859375 L169.623438,29.0859375 L167.357813,29.234375 C166.076563,29.3203125 165.514063,29.765625 165.514063,30.609375 C165.514063,31.46875 166.240625,31.96875 167.217188,31.96875 Z M166.967188,33.1484375 C165.334375,33.1484375 164.123438,32.1796875 164.123438,30.640625 C164.123438,29.1328125 165.232813,28.265625 167.19375,28.1484375 L169.623438,28 L169.623438,27.234375 C169.623438,26.1953125 168.975,25.625 167.717188,25.625 C166.709375,25.625 166.00625,26.0078125 165.81875,26.671875 L164.459375,26.671875 C164.639063,25.3203125 165.967188,24.4296875 167.764063,24.4296875 C169.81875,24.4296875 170.967188,25.484375 170.967188,27.234375 L170.967188,33 L169.685938,33 L169.685938,31.7578125 L169.560938,31.7578125 C169.014063,32.65625 168.092188,33.1484375 166.967188,33.1484375 Z M180.100313,27.15625 L178.740938,27.15625 C178.522188,26.3203125 177.78,25.640625 176.569063,25.640625 C175.053438,25.640625 174.100313,26.8515625 174.100313,28.7578125 C174.100313,30.703125 175.069063,31.9375 176.569063,31.9375 C177.701875,31.9375 178.490938,31.4140625 178.740938,30.4609375 L180.100313,30.4609375 C179.858125,32.0078125 178.600313,33.1484375 176.576875,33.1484375 C174.2175,33.1484375 172.709688,31.4375 172.709688,28.7578125 C172.709688,26.1328125 174.209688,24.4296875 176.569063,24.4296875 C178.615938,24.4296875 179.865938,25.65625 180.100313,27.15625 Z M182.483438,22.3984375 L183.827188,22.3984375 L183.827188,24.578125 L185.702188,24.578125 L185.702188,25.703125 L183.827188,25.703125 L183.827188,30.46875 C183.827188,31.4609375 184.202188,31.8828125 185.077188,31.8828125 C185.319375,31.8828125 185.452188,31.875 185.702188,31.8515625 L185.702188,32.984375 C185.436563,33.03125 185.17875,33.0625 184.913125,33.0625 C183.17875,33.0625 182.483438,32.421875 182.483438,30.8125 L182.483438,25.703125 L181.124063,25.703125 L181.124063,24.578125 L182.483438,24.578125 L182.483438,22.3984375 Z M187.444688,33 L187.444688,24.578125 L188.788438,24.578125 L188.788438,33 L187.444688,33 Z M188.116563,22.8671875 C187.600938,22.8671875 187.179063,22.4453125 187.179063,21.9296875 C187.179063,21.4140625 187.600938,20.9921875 188.116563,20.9921875 C188.632188,20.9921875 189.054063,21.4140625 189.054063,21.9296875 C189.054063,22.4453125 188.632188,22.8671875 188.116563,22.8671875 Z M194.491875,33.1484375 C192.093438,33.1484375 190.609063,31.4921875 190.609063,28.7890625 C190.609063,26.078125 192.093438,24.4296875 194.491875,24.4296875 C196.890313,24.4296875 198.374688,26.078125 198.374688,28.7890625 C198.374688,31.4921875 196.890313,33.1484375 194.491875,33.1484375 Z M194.491875,31.9375 C196.085625,31.9375 196.984063,30.78125 196.984063,28.7890625 C196.984063,26.7890625 196.085625,25.640625 194.491875,25.640625 C192.898125,25.640625 191.999688,26.7890625 191.999688,28.7890625 C191.999688,30.78125 192.898125,31.9375 194.491875,31.9375 Z M200.164063,33 L200.164063,24.578125 L201.445313,24.578125 L201.445313,25.90625 L201.570313,25.90625 C201.992188,24.9765625 202.8125,24.4296875 204.101563,24.4296875 C205.992188,24.4296875 207.046875,25.546875 207.046875,27.546875 L207.046875,33 L205.703125,33 L205.703125,27.875 C205.703125,26.359375 205.0625,25.640625 203.71875,25.640625 C202.375,25.640625 201.507813,26.5390625 201.507813,28.015625 L201.507813,33 L200.164063,33 Z M210.289375,33.078125 C209.734688,33.078125 209.27375,32.6171875 209.27375,32.0625 C209.27375,31.5 209.734688,31.046875 210.289375,31.046875 C210.851875,31.046875 211.305,31.5 211.305,32.0625 C211.305,32.6171875 210.851875,33.078125 210.289375,33.078125 Z"/>
      <g fill="#C41261" transform="translate(351 6)">
        <g transform="translate(0 3)">
          <rect width="1" height="9"/>
          <rect width="1" height="9" x="7"/>
          <rect width="6" height="1" x="1" y="4"/>
        </g>
        <path d="M11.837,7.92 L11.837,11 L10.913,11 L10.913,3.663 L12.915,3.663 C14.477,3.663 15.423,4.466 15.423,5.797 C15.423,6.622 15.049,7.282 14.367,7.645 C14.015,7.832 13.685,7.909 13.014,7.953 L15.863,11 L14.686,11 L11.837,7.92 Z M11.837,7.293 L12.761,7.293 C13.872,7.293 14.477,6.787 14.477,5.863 C14.477,4.95 13.927,4.455 12.915,4.455 L11.837,4.455 L11.837,7.293 Z M17.425,9.944 C17.755,9.944 17.997,10.186 17.997,10.527 C17.997,10.846 17.744,11.088 17.425,11.088 C17.095,11.088 16.853,10.846 16.853,10.516 C16.853,10.186 17.095,9.944 17.425,9.944 Z M17.425,6.776 C17.755,6.776 17.997,7.018 17.997,7.359 C17.997,7.678 17.744,7.92 17.425,7.92 C17.095,7.92 16.853,7.678 16.853,7.348 C16.853,7.018 17.095,6.776 17.425,6.776 Z M22.331,7.018 C22.749,7.15 22.947,7.249 23.178,7.491 C23.541,7.854 23.728,8.338 23.728,8.91 C23.728,10.208 22.771,11.132 21.429,11.132 C20.098,11.132 19.163,10.241 19.163,8.987 C19.163,8.404 19.361,7.876 19.713,7.513 C19.944,7.271 20.131,7.161 20.571,7.018 C20.186,6.886 20.021,6.776 19.823,6.534 C19.581,6.237 19.449,5.863 19.449,5.456 C19.449,4.411 20.307,3.641 21.473,3.641 C22.628,3.641 23.464,4.4 23.464,5.445 C23.464,5.863 23.321,6.259 23.057,6.567 C22.859,6.787 22.705,6.886 22.331,7.018 Z M21.473,4.411 C20.769,4.411 20.285,4.851 20.285,5.467 C20.285,6.094 20.802,6.589 21.451,6.589 C22.078,6.589 22.639,6.072 22.639,5.478 C22.639,4.906 22.1,4.411 21.473,4.411 Z M21.462,7.48 C20.67,7.48 20.032,8.107 20.032,8.899 C20.032,9.68 20.659,10.318 21.44,10.318 C22.221,10.318 22.848,9.68 22.848,8.899 C22.848,8.129 22.221,7.48 21.462,7.48 Z M25.037,5.929 L25.873,5.929 L25.873,6.853 C26.357,6.105 26.874,5.808 27.721,5.808 C29.129,5.808 30.108,6.886 30.108,8.426 C30.108,10.021 29.129,11.121 27.721,11.121 C27.325,11.121 26.962,11.033 26.61,10.857 C26.302,10.703 26.148,10.571 25.873,10.208 L25.873,13.376 L25.037,13.376 L25.037,5.929 Z M27.578,6.556 C26.566,6.556 25.873,7.359 25.873,8.547 C25.873,9.658 26.544,10.395 27.545,10.395 C28.546,10.395 29.217,9.614 29.217,8.459 C29.217,7.865 29.074,7.414 28.777,7.084 C28.48,6.754 28.029,6.556 27.578,6.556 Z M32.99,9.163 L31.637,11 L30.614,11 L32.484,8.481 L30.581,5.929 L31.637,5.929 L32.99,7.788 L34.376,5.929 L35.399,5.929 L33.485,8.481 L35.311,11 L34.288,11 L32.99,9.163 Z M41.658,13.046 L41.108,13.574 C39.81,11.979 39.216,10.428 39.216,8.58 C39.216,6.688 39.909,4.818 41.13,3.443 L41.658,3.993 C40.547,5.368 39.997,6.897 39.997,8.547 C39.997,10.153 40.591,11.759 41.658,13.046 Z M43.814,6.666 L43.814,11 L42.978,11 L42.978,6.666 L42.285,6.666 L42.285,5.929 L42.978,5.929 L42.978,5.247 C42.978,4.246 43.495,3.652 44.375,3.652 C44.419,3.652 44.518,3.652 44.606,3.663 L44.606,4.411 C44.001,4.477 43.836,4.653 43.814,5.247 L43.814,5.929 L44.606,5.929 L44.606,6.666 L43.814,6.666 Z M46.806,5.929 L46.806,11 L45.97,11 L45.97,5.929 L46.806,5.929 Z M46.388,3.96 C46.685,3.96 46.916,4.202 46.916,4.51 C46.916,4.807 46.685,5.038 46.388,5.038 C46.08,5.038 45.849,4.807 45.849,4.499 C45.849,4.191 46.08,3.96 46.388,3.96 Z M50.106,9.163 L48.753,11 L47.73,11 L49.6,8.481 L47.697,5.929 L48.753,5.929 L50.106,7.788 L51.492,5.929 L52.515,5.929 L50.601,8.481 L52.427,11 L51.404,11 L50.106,9.163 Z M58.103,8.734 L53.879,8.734 C53.923,9.163 54,9.383 54.209,9.658 C54.539,10.109 55.023,10.351 55.573,10.351 C56.2,10.351 56.794,10.01 57.091,9.482 L57.828,9.757 C57.41,10.604 56.541,11.121 55.573,11.121 C54.066,11.121 52.988,10.021 52.988,8.481 C52.988,6.919 54.055,5.808 55.54,5.808 C57.014,5.808 58.114,6.919 58.114,8.404 C58.114,8.47 58.114,8.613 58.103,8.734 Z M53.89,8.118 L57.223,8.118 C57.19,7.722 57.113,7.502 56.937,7.249 C56.618,6.82 56.101,6.556 55.54,6.556 C54.979,6.556 54.473,6.82 54.176,7.26 C54.022,7.502 53.956,7.711 53.89,8.118 Z M63.119,6.699 L63.119,3.663 L63.955,3.663 L63.955,11 L63.119,11 L63.119,10.131 C62.613,10.824 62.074,11.121 61.304,11.121 C59.907,11.121 58.917,10.032 58.917,8.492 C58.917,6.952 59.929,5.808 61.304,5.808 C62.052,5.808 62.624,6.083 63.119,6.699 Z M61.48,6.556 C60.479,6.556 59.797,7.348 59.797,8.503 C59.797,9.614 60.468,10.395 61.425,10.395 C62.404,10.395 63.119,9.581 63.119,8.481 C63.119,7.337 62.448,6.556 61.48,6.556 Z M65.187,3.971 L65.737,3.443 C67.046,5.049 67.629,6.589 67.629,8.437 C67.629,10.34 66.936,12.188 65.715,13.574 L65.187,13.024 C66.298,11.649 66.848,10.12 66.848,8.47 C66.848,6.853 66.265,5.269 65.187,3.971 Z"/>
      </g>
      <use fill-rule="nonzero" stroke="#F897BF" stroke-dasharray="1" stroke-width="2" mask="url(#2-e)" transform="translate(290 6)" xlink:href="#2-b"/>
      <g fill="#F897BF" transform="translate(229 1)">
        <g transform="translate(53 5)">
          <rect width="1" height="9"/>
          <rect width="1" height="9" x="8"/>
          <rect width="7" height="1" x="1" y="4"/>
        </g>
        <path d="M2.581,10.164 L5.166,10.164 L5.166,11 L1.657,11 L1.657,3.663 L2.581,3.663 L2.581,10.164 Z M6.706,9.944 C7.036,9.944 7.278,10.186 7.278,10.527 C7.278,10.846 7.025,11.088 6.706,11.088 C6.376,11.088 6.134,10.846 6.134,10.516 C6.134,10.186 6.376,9.944 6.706,9.944 Z M6.706,6.776 C7.036,6.776 7.278,7.018 7.278,7.359 C7.278,7.678 7.025,7.92 6.706,7.92 C6.376,7.92 6.134,7.678 6.134,7.348 C6.134,7.018 6.376,6.776 6.706,6.776 Z M11.612,7.018 C12.03,7.15 12.228,7.249 12.459,7.491 C12.822,7.854 13.009,8.338 13.009,8.91 C13.009,10.208 12.052,11.132 10.71,11.132 C9.379,11.132 8.444,10.241 8.444,8.987 C8.444,8.404 8.642,7.876 8.994,7.513 C9.225,7.271 9.412,7.161 9.852,7.018 C9.467,6.886 9.302,6.776 9.104,6.534 C8.862,6.237 8.73,5.863 8.73,5.456 C8.73,4.411 9.588,3.641 10.754,3.641 C11.909,3.641 12.745,4.4 12.745,5.445 C12.745,5.863 12.602,6.259 12.338,6.567 C12.14,6.787 11.986,6.886 11.612,7.018 Z M10.754,4.411 C10.05,4.411 9.566,4.851 9.566,5.467 C9.566,6.094 10.083,6.589 10.732,6.589 C11.359,6.589 11.92,6.072 11.92,5.478 C11.92,4.906 11.381,4.411 10.754,4.411 Z M10.743,7.48 C9.951,7.48 9.313,8.107 9.313,8.899 C9.313,9.68 9.94,10.318 10.721,10.318 C11.502,10.318 12.129,9.68 12.129,8.899 C12.129,8.129 11.502,7.48 10.743,7.48 Z M14.318,5.929 L15.154,5.929 L15.154,6.853 C15.638,6.105 16.155,5.808 17.002,5.808 C18.41,5.808 19.389,6.886 19.389,8.426 C19.389,10.021 18.41,11.121 17.002,11.121 C16.606,11.121 16.243,11.033 15.891,10.857 C15.583,10.703 15.429,10.571 15.154,10.208 L15.154,13.376 L14.318,13.376 L14.318,5.929 Z M16.859,6.556 C15.847,6.556 15.154,7.359 15.154,8.547 C15.154,9.658 15.825,10.395 16.826,10.395 C17.827,10.395 18.498,9.614 18.498,8.459 C18.498,7.865 18.355,7.414 18.058,7.084 C17.761,6.754 17.31,6.556 16.859,6.556 Z M22.271,9.163 L20.918,11 L19.895,11 L21.765,8.481 L19.862,5.929 L20.918,5.929 L22.271,7.788 L23.657,5.929 L24.68,5.929 L22.766,8.481 L24.592,11 L23.569,11 L22.271,9.163 Z M30.939,13.046 L30.389,13.574 C29.091,11.979 28.497,10.428 28.497,8.58 C28.497,6.688 29.19,4.818 30.411,3.443 L30.939,3.993 C29.828,5.368 29.278,6.897 29.278,8.547 C29.278,10.153 29.872,11.759 30.939,13.046 Z M32.171,5.929 L33.007,5.929 L33.007,6.633 C33.392,6.05 33.821,5.808 34.448,5.808 C35.141,5.808 35.581,6.105 35.812,6.732 C36.186,6.083 36.659,5.808 37.418,5.808 C38.001,5.808 38.441,5.995 38.705,6.347 C38.947,6.666 39.013,6.952 39.013,7.755 L39.013,11 L38.177,11 L38.177,7.953 C38.177,7.337 38.155,7.194 38.034,6.985 C37.88,6.721 37.55,6.556 37.154,6.556 C36.417,6.556 36.01,7.051 36.01,7.953 L36.01,11 L35.174,11 L35.174,7.964 C35.174,7.469 35.13,7.216 35.009,6.996 C34.866,6.71 34.558,6.556 34.184,6.556 C33.447,6.556 33.007,7.084 33.007,7.964 L33.007,11 L32.171,11 L32.171,5.929 Z M41.499,5.929 L41.499,11 L40.663,11 L40.663,5.929 L41.499,5.929 Z M41.092,3.96 C41.389,3.96 41.62,4.202 41.62,4.51 C41.62,4.807 41.378,5.038 41.081,5.038 C40.784,5.038 40.553,4.807 40.553,4.499 C40.553,4.191 40.784,3.96 41.092,3.96 Z M43.182,5.929 L44.018,5.929 L44.018,6.644 C44.458,6.05 44.898,5.808 45.525,5.808 C45.987,5.808 46.405,5.962 46.702,6.226 C47.021,6.534 47.131,6.886 47.131,7.579 L47.131,11 L46.295,11 L46.295,7.766 C46.295,7.315 46.24,7.073 46.108,6.897 C45.954,6.688 45.657,6.556 45.316,6.556 C44.942,6.556 44.601,6.699 44.348,6.985 C44.106,7.249 44.018,7.491 44.018,7.909 L44.018,11 L43.182,11 L43.182,5.929 Z M48.33,3.971 L48.88,3.443 C50.189,5.049 50.772,6.589 50.772,8.437 C50.772,10.34 50.079,12.188 48.858,13.574 L48.33,13.024 C49.441,11.649 49.991,10.12 49.991,8.47 C49.991,6.853 49.408,5.269 48.33,3.971 Z"/>
      </g>
      <use fill-rule="nonzero" stroke="#6FEAD9" stroke-dasharray="1" stroke-width="2" mask="url(#2-f)" transform="translate(16 21)" xlink:href="#2-c"/>
      <g transform="translate(293 66)">
        <g transform="translate(0 2.48)">
          <polyline stroke="#979797" stroke-linecap="round" stroke-linejoin="round" points=".96 4.8 6.128 0 6.128 0 11.295 4.8" transform="rotate(180 6.128 2.4)"/>
          <polyline stroke="#979797" stroke-linecap="round" stroke-linejoin="round" points=".96 11.04 6.128 6.24 6.128 6.24 11.295 11.04" transform="matrix(-1 0 0 1 12.255 0)"/>
          <path stroke="#C41261" d="M0.1875,5.52 L11.8125,5.52"/>
        </g>
        <path fill="#C41261" d="M20.0835,5.929 L20.9525,5.929 L19.0385,11 L18.1585,11 L16.2995,5.929 L17.1795,5.929 L18.6095,9.801 L20.0835,5.929 Z M22.2835,9.944 C22.6135,9.944 22.8555,10.186 22.8555,10.527 C22.8555,10.846 22.6025,11.088 22.2835,11.088 C21.9535,11.088 21.7115,10.846 21.7115,10.516 C21.7115,10.186 21.9535,9.944 22.2835,9.944 Z M27.8275,9.801 L28.3445,10.373 C27.7725,10.89 27.2115,11.121 26.4745,11.121 C25.0225,11.121 23.9885,10.021 23.9885,8.481 C23.9885,6.908 25.0335,5.808 26.5185,5.808 C27.2445,5.808 27.8385,6.05 28.3665,6.567 L27.8275,7.106 C27.4425,6.754 27.0135,6.578 26.5405,6.578 C25.5395,6.578 24.8465,7.348 24.8465,8.448 C24.8465,9.57 25.5395,10.351 26.5295,10.351 C27.0245,10.351 27.4205,10.186 27.8275,9.801 Z M34.1305,8.734 L29.9065,8.734 C29.9505,9.163 30.0275,9.383 30.2365,9.658 C30.5665,10.109 31.0505,10.351 31.6005,10.351 C32.2275,10.351 32.8215,10.01 33.1185,9.482 L33.8555,9.757 C33.4375,10.604 32.5685,11.121 31.6005,11.121 C30.0935,11.121 29.0155,10.021 29.0155,8.481 C29.0155,6.919 30.0825,5.808 31.5675,5.808 C33.0415,5.808 34.1415,6.919 34.1415,8.404 C34.1415,8.47 34.1415,8.613 34.1305,8.734 Z M29.9175,8.118 L33.2505,8.118 C33.2175,7.722 33.1405,7.502 32.9645,7.249 C32.6455,6.82 32.1285,6.556 31.5675,6.556 C31.0065,6.556 30.5005,6.82 30.2035,7.26 C30.0495,7.502 29.9835,7.711 29.9175,8.118 Z M35.3515,5.929 L36.1875,5.929 L36.1875,6.644 C36.6275,6.05 37.0675,5.808 37.6945,5.808 C38.1565,5.808 38.5745,5.962 38.8715,6.226 C39.1905,6.534 39.3005,6.886 39.3005,7.579 L39.3005,11 L38.4645,11 L38.4645,7.766 C38.4645,7.315 38.4095,7.073 38.2775,6.897 C38.1235,6.688 37.8265,6.556 37.4855,6.556 C37.1115,6.556 36.7705,6.699 36.5175,6.985 C36.2755,7.249 36.1875,7.491 36.1875,7.909 L36.1875,11 L35.3515,11 L35.3515,5.929 Z M41.8415,6.666 L41.8415,9.966 C41.8525,10.219 41.9185,10.274 42.2265,10.274 L42.6115,10.274 L42.6115,11 L41.8305,11 C41.2365,10.989 41.0055,10.769 41.0055,10.208 L41.0055,6.666 L40.3015,6.666 L40.3015,5.929 L41.0055,5.929 L41.0055,4.334 L41.8415,4.334 L41.8415,5.929 L42.6115,5.929 L42.6115,6.666 L41.8415,6.666 Z M48.5075,8.734 L44.2835,8.734 C44.3275,9.163 44.4045,9.383 44.6135,9.658 C44.9435,10.109 45.4275,10.351 45.9775,10.351 C46.6045,10.351 47.1985,10.01 47.4955,9.482 L48.2325,9.757 C47.8145,10.604 46.9455,11.121 45.9775,11.121 C44.4705,11.121 43.3925,10.021 43.3925,8.481 C43.3925,6.919 44.4595,5.808 45.9445,5.808 C47.4185,5.808 48.5185,6.919 48.5185,8.404 C48.5185,8.47 48.5185,8.613 48.5075,8.734 Z M44.2945,8.118 L47.6275,8.118 C47.5945,7.722 47.5175,7.502 47.3415,7.249 C47.0225,6.82 46.5055,6.556 45.9445,6.556 C45.3835,6.556 44.8775,6.82 44.5805,7.26 C44.4265,7.502 44.3605,7.711 44.2945,8.118 Z M49.7285,5.929 L50.5645,5.929 L50.5645,6.787 C50.7185,6.424 50.8285,6.27 51.0265,6.116 C51.2795,5.918 51.6315,5.808 51.9945,5.808 L52.1925,5.808 L52.1925,6.655 C52.1045,6.644 52.0165,6.644 51.9615,6.644 C51.5105,6.644 51.1145,6.853 50.8615,7.227 C50.6415,7.546 50.5645,7.843 50.5645,8.426 L50.5645,11 L49.7285,11 L49.7285,5.929 Z M57.3625,10.131 L57.3625,11 L56.5265,11 L56.5265,3.663 L57.3625,3.663 L57.3625,6.798 C57.8685,6.105 58.4075,5.808 59.1445,5.808 C60.5635,5.808 61.5535,6.908 61.5535,8.481 C61.5535,10.032 60.5745,11.121 59.1885,11.121 C58.4075,11.121 57.8575,10.824 57.3625,10.131 Z M59.0345,6.556 C58.0665,6.556 57.3515,7.359 57.3515,8.47 C57.3515,9.625 58.0115,10.395 59.0015,10.395 C60.0025,10.395 60.6735,9.636 60.6735,8.503 C60.6735,7.37 59.9915,6.556 59.0345,6.556 Z M65.7775,5.929 L66.6245,5.929 L66.6245,9.174 C66.6245,9.867 66.4925,10.252 66.1185,10.593 C65.7445,10.934 65.2275,11.121 64.6555,11.121 C64.0835,11.121 63.5555,10.923 63.1925,10.582 C62.8515,10.252 62.6865,9.79 62.6865,9.174 L62.6865,5.929 L63.5225,5.929 L63.5225,9.152 C63.5225,9.867 63.9845,10.373 64.6555,10.373 C65.0075,10.373 65.3485,10.23 65.5575,9.988 C65.7225,9.79 65.7775,9.581 65.7775,9.174 L65.7775,5.929 Z M69.0555,6.666 L69.0555,9.966 C69.0665,10.219 69.1325,10.274 69.4405,10.274 L69.8255,10.274 L69.8255,11 L69.0445,11 C68.4505,10.989 68.2195,10.769 68.2195,10.208 L68.2195,6.666 L67.5155,6.666 L67.5155,5.929 L68.2195,5.929 L68.2195,4.334 L69.0555,4.334 L69.0555,5.929 L69.8255,5.929 L69.8255,6.666 L69.0555,6.666 Z M71.9045,6.666 L71.9045,9.966 C71.9155,10.219 71.9815,10.274 72.2895,10.274 L72.6745,10.274 L72.6745,11 L71.8935,11 C71.2995,10.989 71.0685,10.769 71.0685,10.208 L71.0685,6.666 L70.3645,6.666 L70.3645,5.929 L71.0685,5.929 L71.0685,4.334 L71.9045,4.334 L71.9045,5.929 L72.6745,5.929 L72.6745,6.666 L71.9045,6.666 Z M76.0515,5.808 C77.5475,5.808 78.6145,6.919 78.6145,8.481 C78.6145,9.966 77.4705,11.121 76.0185,11.121 C74.5115,11.121 73.4555,10.021 73.4555,8.459 C73.4555,6.886 74.5115,5.808 76.0515,5.808 Z M76.0515,6.578 C75.0065,6.578 74.3135,7.337 74.3135,8.47 C74.3135,9.592 75.0065,10.351 76.0405,10.351 C77.0415,10.351 77.7565,9.57 77.7565,8.47 C77.7565,7.337 77.0745,6.578 76.0515,6.578 Z M79.8905,5.929 L80.7265,5.929 L80.7265,6.644 C81.1665,6.05 81.6065,5.808 82.2335,5.808 C82.6955,5.808 83.1135,5.962 83.4105,6.226 C83.7295,6.534 83.8395,6.886 83.8395,7.579 L83.8395,11 L83.0035,11 L83.0035,7.766 C83.0035,7.315 82.9485,7.073 82.8165,6.897 C82.6625,6.688 82.3655,6.556 82.0245,6.556 C81.6505,6.556 81.3095,6.699 81.0565,6.985 C80.8145,7.249 80.7265,7.491 80.7265,7.909 L80.7265,11 L79.8905,11 L79.8905,5.929 Z M89.6255,5.929 L89.6255,11 L88.7895,11 L88.7895,5.929 L89.6255,5.929 Z M89.2185,3.96 C89.5155,3.96 89.7465,4.202 89.7465,4.51 C89.7465,4.807 89.5045,5.038 89.2075,5.038 C88.9105,5.038 88.6795,4.807 88.6795,4.499 C88.6795,4.191 88.9105,3.96 89.2185,3.96 Z M91.3085,5.929 L92.1445,5.929 L92.1445,6.644 C92.5845,6.05 93.0245,5.808 93.6515,5.808 C94.1135,5.808 94.5315,5.962 94.8285,6.226 C95.1475,6.534 95.2575,6.886 95.2575,7.579 L95.2575,11 L94.4215,11 L94.4215,7.766 C94.4215,7.315 94.3665,7.073 94.2345,6.897 C94.0805,6.688 93.7835,6.556 93.4425,6.556 C93.0685,6.556 92.7275,6.699 92.4745,6.985 C92.2325,7.249 92.1445,7.491 92.1445,7.909 L92.1445,11 L91.3085,11 L91.3085,5.929 Z M103.6395,9.801 L104.1565,10.373 C103.5845,10.89 103.0235,11.121 102.2865,11.121 C100.8345,11.121 99.8005,10.021 99.8005,8.481 C99.8005,6.908 100.8455,5.808 102.3305,5.808 C103.0565,5.808 103.6505,6.05 104.1785,6.567 L103.6395,7.106 C103.2545,6.754 102.8255,6.578 102.3525,6.578 C101.3515,6.578 100.6585,7.348 100.6585,8.448 C100.6585,9.57 101.3515,10.351 102.3415,10.351 C102.8365,10.351 103.2325,10.186 103.6395,9.801 Z M107.4235,5.808 C108.9195,5.808 109.9865,6.919 109.9865,8.481 C109.9865,9.966 108.8425,11.121 107.3905,11.121 C105.8835,11.121 104.8275,10.021 104.8275,8.459 C104.8275,6.886 105.8835,5.808 107.4235,5.808 Z M107.4235,6.578 C106.3785,6.578 105.6855,7.337 105.6855,8.47 C105.6855,9.592 106.3785,10.351 107.4125,10.351 C108.4135,10.351 109.1285,9.57 109.1285,8.47 C109.1285,7.337 108.4465,6.578 107.4235,6.578 Z M111.2625,5.929 L112.0985,5.929 L112.0985,6.644 C112.5385,6.05 112.9785,5.808 113.6055,5.808 C114.0675,5.808 114.4855,5.962 114.7825,6.226 C115.1015,6.534 115.2115,6.886 115.2115,7.579 L115.2115,11 L114.3755,11 L114.3755,7.766 C114.3755,7.315 114.3205,7.073 114.1885,6.897 C114.0345,6.688 113.7375,6.556 113.3965,6.556 C113.0225,6.556 112.6815,6.699 112.4285,6.985 C112.1865,7.249 112.0985,7.491 112.0985,7.909 L112.0985,11 L111.2625,11 L111.2625,5.929 Z M117.7525,6.666 L117.7525,9.966 C117.7635,10.219 117.8295,10.274 118.1375,10.274 L118.5225,10.274 L118.5225,11 L117.7415,11 C117.1475,10.989 116.9165,10.769 116.9165,10.208 L116.9165,6.666 L116.2125,6.666 L116.2125,5.929 L116.9165,5.929 L116.9165,4.334 L117.7525,4.334 L117.7525,5.929 L118.5225,5.929 L118.5225,6.666 L117.7525,6.666 Z M123.5385,6.765 L123.5385,5.929 L124.3745,5.929 L124.3745,11 L123.5385,11 L123.5385,10.021 C123.0325,10.78 122.4605,11.121 121.6905,11.121 C120.2935,11.121 119.3035,10.021 119.3035,8.481 C119.3035,6.93 120.3155,5.808 121.7125,5.808 C122.4825,5.808 123.0435,6.105 123.5385,6.765 Z M121.8335,6.556 C121.2835,6.556 120.8985,6.743 120.6015,7.161 C120.3375,7.524 120.1835,8.008 120.1835,8.503 C120.1835,9.581 120.8875,10.395 121.8115,10.395 C122.7685,10.395 123.5495,9.504 123.5495,8.415 C123.5495,7.315 122.8455,6.556 121.8335,6.556 Z M126.8935,5.929 L126.8935,11 L126.0575,11 L126.0575,5.929 L126.8935,5.929 Z M126.4865,3.96 C126.7835,3.96 127.0145,4.202 127.0145,4.51 C127.0145,4.807 126.7725,5.038 126.4755,5.038 C126.1785,5.038 125.9475,4.807 125.9475,4.499 C125.9475,4.191 126.1785,3.96 126.4865,3.96 Z M128.5765,5.929 L129.4125,5.929 L129.4125,6.644 C129.8525,6.05 130.2925,5.808 130.9195,5.808 C131.3815,5.808 131.7995,5.962 132.0965,6.226 C132.4155,6.534 132.5255,6.886 132.5255,7.579 L132.5255,11 L131.6895,11 L131.6895,7.766 C131.6895,7.315 131.6345,7.073 131.5025,6.897 C131.3485,6.688 131.0515,6.556 130.7105,6.556 C130.3365,6.556 129.9955,6.699 129.7425,6.985 C129.5005,7.249 129.4125,7.491 129.4125,7.909 L129.4125,11 L128.5765,11 L128.5765,5.929 Z M138.8835,8.734 L134.6595,8.734 C134.7035,9.163 134.7805,9.383 134.9895,9.658 C135.3195,10.109 135.8035,10.351 136.3535,10.351 C136.9805,10.351 137.5745,10.01 137.8715,9.482 L138.6085,9.757 C138.1905,10.604 137.3215,11.121 136.3535,11.121 C134.8465,11.121 133.7685,10.021 133.7685,8.481 C133.7685,6.919 134.8355,5.808 136.3205,5.808 C137.7945,5.808 138.8945,6.919 138.8945,8.404 C138.8945,8.47 138.8945,8.613 138.8835,8.734 Z M134.6705,8.118 L138.0035,8.118 C137.9705,7.722 137.8935,7.502 137.7175,7.249 C137.3985,6.82 136.8815,6.556 136.3205,6.556 C135.7595,6.556 135.2535,6.82 134.9565,7.26 C134.8025,7.502 134.7365,7.711 134.6705,8.118 Z M140.1045,5.929 L140.9405,5.929 L140.9405,6.787 C141.0945,6.424 141.2045,6.27 141.4025,6.116 C141.6555,5.918 142.0075,5.808 142.3705,5.808 L142.5685,5.808 L142.5685,6.655 C142.4805,6.644 142.3925,6.644 142.3375,6.644 C141.8865,6.644 141.4905,6.853 141.2375,7.227 C141.0175,7.546 140.9405,7.843 140.9405,8.426 L140.9405,11 L140.1045,11 L140.1045,5.929 Z"/>
      </g>
      <g transform="translate(16 64)">
        <g transform="translate(0 2.48)">
          <polyline stroke="#979797" stroke-linecap="round" stroke-linejoin="round" points=".96 4.8 6.128 0 6.128 0 11.295 4.8" transform="rotate(180 6.128 2.4)"/>
          <polyline stroke="#979797" stroke-linecap="round" stroke-linejoin="round" points=".96 11.04 6.128 6.24 6.128 6.24 11.295 11.04" transform="matrix(-1 0 0 1 12.255 0)"/>
          <path stroke="#00AB9A" d="M0.1875,5.52 L11.8125,5.52"/>
        </g>
        <path fill="#00AB9A" d="M20.2985,5.929 L21.1675,5.929 L19.2535,11 L18.3735,11 L16.5145,5.929 L17.3945,5.929 L18.8245,9.801 L20.2985,5.929 Z M22.4985,9.944 C22.8285,9.944 23.0705,10.186 23.0705,10.527 C23.0705,10.846 22.8175,11.088 22.4985,11.088 C22.1685,11.088 21.9265,10.846 21.9265,10.516 C21.9265,10.186 22.1685,9.944 22.4985,9.944 Z M28.0425,9.801 L28.5595,10.373 C27.9875,10.89 27.4265,11.121 26.6895,11.121 C25.2375,11.121 24.2035,10.021 24.2035,8.481 C24.2035,6.908 25.2485,5.808 26.7335,5.808 C27.4595,5.808 28.0535,6.05 28.5815,6.567 L28.0425,7.106 C27.6575,6.754 27.2285,6.578 26.7555,6.578 C25.7545,6.578 25.0615,7.348 25.0615,8.448 C25.0615,9.57 25.7545,10.351 26.7445,10.351 C27.2395,10.351 27.6355,10.186 28.0425,9.801 Z M34.3455,8.734 L30.1215,8.734 C30.1655,9.163 30.2425,9.383 30.4515,9.658 C30.7815,10.109 31.2655,10.351 31.8155,10.351 C32.4425,10.351 33.0365,10.01 33.3335,9.482 L34.0705,9.757 C33.6525,10.604 32.7835,11.121 31.8155,11.121 C30.3085,11.121 29.2305,10.021 29.2305,8.481 C29.2305,6.919 30.2975,5.808 31.7825,5.808 C33.2565,5.808 34.3565,6.919 34.3565,8.404 C34.3565,8.47 34.3565,8.613 34.3455,8.734 Z M30.1325,8.118 L33.4655,8.118 C33.4325,7.722 33.3555,7.502 33.1795,7.249 C32.8605,6.82 32.3435,6.556 31.7825,6.556 C31.2215,6.556 30.7155,6.82 30.4185,7.26 C30.2645,7.502 30.1985,7.711 30.1325,8.118 Z M35.5665,5.929 L36.4025,5.929 L36.4025,6.644 C36.8425,6.05 37.2825,5.808 37.9095,5.808 C38.3715,5.808 38.7895,5.962 39.0865,6.226 C39.4055,6.534 39.5155,6.886 39.5155,7.579 L39.5155,11 L38.6795,11 L38.6795,7.766 C38.6795,7.315 38.6245,7.073 38.4925,6.897 C38.3385,6.688 38.0415,6.556 37.7005,6.556 C37.3265,6.556 36.9855,6.699 36.7325,6.985 C36.4905,7.249 36.4025,7.491 36.4025,7.909 L36.4025,11 L35.5665,11 L35.5665,5.929 Z M42.0565,6.666 L42.0565,9.966 C42.0675,10.219 42.1335,10.274 42.4415,10.274 L42.8265,10.274 L42.8265,11 L42.0455,11 C41.4515,10.989 41.2205,10.769 41.2205,10.208 L41.2205,6.666 L40.5165,6.666 L40.5165,5.929 L41.2205,5.929 L41.2205,4.334 L42.0565,4.334 L42.0565,5.929 L42.8265,5.929 L42.8265,6.666 L42.0565,6.666 Z M48.7225,8.734 L44.4985,8.734 C44.5425,9.163 44.6195,9.383 44.8285,9.658 C45.1585,10.109 45.6425,10.351 46.1925,10.351 C46.8195,10.351 47.4135,10.01 47.7105,9.482 L48.4475,9.757 C48.0295,10.604 47.1605,11.121 46.1925,11.121 C44.6855,11.121 43.6075,10.021 43.6075,8.481 C43.6075,6.919 44.6745,5.808 46.1595,5.808 C47.6335,5.808 48.7335,6.919 48.7335,8.404 C48.7335,8.47 48.7335,8.613 48.7225,8.734 Z M44.5095,8.118 L47.8425,8.118 C47.8095,7.722 47.7325,7.502 47.5565,7.249 C47.2375,6.82 46.7205,6.556 46.1595,6.556 C45.5985,6.556 45.0925,6.82 44.7955,7.26 C44.6415,7.502 44.5755,7.711 44.5095,8.118 Z M49.9435,5.929 L50.7795,5.929 L50.7795,6.787 C50.9335,6.424 51.0435,6.27 51.2415,6.116 C51.4945,5.918 51.8465,5.808 52.2095,5.808 L52.4075,5.808 L52.4075,6.655 C52.3195,6.644 52.2315,6.644 52.1765,6.644 C51.7255,6.644 51.3295,6.853 51.0765,7.227 C50.8565,7.546 50.7795,7.843 50.7795,8.426 L50.7795,11 L49.9435,11 L49.9435,5.929 Z M57.6325,6.666 L57.6325,9.966 C57.6435,10.219 57.7095,10.274 58.0175,10.274 L58.4025,10.274 L58.4025,11 L57.6215,11 C57.0275,10.989 56.7965,10.769 56.7965,10.208 L56.7965,6.666 L56.0925,6.666 L56.0925,5.929 L56.7965,5.929 L56.7965,4.334 L57.6325,4.334 L57.6325,5.929 L58.4025,5.929 L58.4025,6.666 L57.6325,6.666 Z M64.2985,8.734 L60.0745,8.734 C60.1185,9.163 60.1955,9.383 60.4045,9.658 C60.7345,10.109 61.2185,10.351 61.7685,10.351 C62.3955,10.351 62.9895,10.01 63.2865,9.482 L64.0235,9.757 C63.6055,10.604 62.7365,11.121 61.7685,11.121 C60.2615,11.121 59.1835,10.021 59.1835,8.481 C59.1835,6.919 60.2505,5.808 61.7355,5.808 C63.2095,5.808 64.3095,6.919 64.3095,8.404 C64.3095,8.47 64.3095,8.613 64.2985,8.734 Z M60.0855,8.118 L63.4185,8.118 C63.3855,7.722 63.3085,7.502 63.1325,7.249 C62.8135,6.82 62.2965,6.556 61.7355,6.556 C61.1745,6.556 60.6685,6.82 60.3715,7.26 C60.2175,7.502 60.1515,7.711 60.0855,8.118 Z M67.1365,9.163 L65.7835,11 L64.7605,11 L66.6305,8.481 L64.7275,5.929 L65.7835,5.929 L67.1365,7.788 L68.5225,5.929 L69.5455,5.929 L67.6315,8.481 L69.4575,11 L68.4345,11 L67.1365,9.163 Z M71.3165,6.666 L71.3165,9.966 C71.3275,10.219 71.3935,10.274 71.7015,10.274 L72.0865,10.274 L72.0865,11 L71.3055,11 C70.7115,10.989 70.4805,10.769 70.4805,10.208 L70.4805,6.666 L69.7765,6.666 L69.7765,5.929 L70.4805,5.929 L70.4805,4.334 L71.3165,4.334 L71.3165,5.929 L72.0865,5.929 L72.0865,6.666 L71.3165,6.666 Z M77.4105,5.929 L77.4105,11 L76.5745,11 L76.5745,5.929 L77.4105,5.929 Z M77.0035,3.96 C77.3005,3.96 77.5315,4.202 77.5315,4.51 C77.5315,4.807 77.2895,5.038 76.9925,5.038 C76.6955,5.038 76.4645,4.807 76.4645,4.499 C76.4645,4.191 76.6955,3.96 77.0035,3.96 Z M79.0935,5.929 L79.9295,5.929 L79.9295,6.644 C80.3695,6.05 80.8095,5.808 81.4365,5.808 C81.8985,5.808 82.3165,5.962 82.6135,6.226 C82.9325,6.534 83.0425,6.886 83.0425,7.579 L83.0425,11 L82.2065,11 L82.2065,7.766 C82.2065,7.315 82.1515,7.073 82.0195,6.897 C81.8655,6.688 81.5685,6.556 81.2275,6.556 C80.8535,6.556 80.5125,6.699 80.2595,6.985 C80.0175,7.249 79.9295,7.491 79.9295,7.909 L79.9295,11 L79.0935,11 L79.0935,5.929 Z M91.4245,9.801 L91.9415,10.373 C91.3695,10.89 90.8085,11.121 90.0715,11.121 C88.6195,11.121 87.5855,10.021 87.5855,8.481 C87.5855,6.908 88.6305,5.808 90.1155,5.808 C90.8415,5.808 91.4355,6.05 91.9635,6.567 L91.4245,7.106 C91.0395,6.754 90.6105,6.578 90.1375,6.578 C89.1365,6.578 88.4435,7.348 88.4435,8.448 C88.4435,9.57 89.1365,10.351 90.1265,10.351 C90.6215,10.351 91.0175,10.186 91.4245,9.801 Z M95.2085,5.808 C96.7045,5.808 97.7715,6.919 97.7715,8.481 C97.7715,9.966 96.6275,11.121 95.1755,11.121 C93.6685,11.121 92.6125,10.021 92.6125,8.459 C92.6125,6.886 93.6685,5.808 95.2085,5.808 Z M95.2085,6.578 C94.1635,6.578 93.4705,7.337 93.4705,8.47 C93.4705,9.592 94.1635,10.351 95.1975,10.351 C96.1985,10.351 96.9135,9.57 96.9135,8.47 C96.9135,7.337 96.2315,6.578 95.2085,6.578 Z M99.0475,5.929 L99.8835,5.929 L99.8835,6.644 C100.3235,6.05 100.7635,5.808 101.3905,5.808 C101.8525,5.808 102.2705,5.962 102.5675,6.226 C102.8865,6.534 102.9965,6.886 102.9965,7.579 L102.9965,11 L102.1605,11 L102.1605,7.766 C102.1605,7.315 102.1055,7.073 101.9735,6.897 C101.8195,6.688 101.5225,6.556 101.1815,6.556 C100.8075,6.556 100.4665,6.699 100.2135,6.985 C99.9715,7.249 99.8835,7.491 99.8835,7.909 L99.8835,11 L99.0475,11 L99.0475,5.929 Z M105.5375,6.666 L105.5375,9.966 C105.5485,10.219 105.6145,10.274 105.9225,10.274 L106.3075,10.274 L106.3075,11 L105.5265,11 C104.9325,10.989 104.7015,10.769 104.7015,10.208 L104.7015,6.666 L103.9975,6.666 L103.9975,5.929 L104.7015,5.929 L104.7015,4.334 L105.5375,4.334 L105.5375,5.929 L106.3075,5.929 L106.3075,6.666 L105.5375,6.666 Z M111.3235,6.765 L111.3235,5.929 L112.1595,5.929 L112.1595,11 L111.3235,11 L111.3235,10.021 C110.8175,10.78 110.2455,11.121 109.4755,11.121 C108.0785,11.121 107.0885,10.021 107.0885,8.481 C107.0885,6.93 108.1005,5.808 109.4975,5.808 C110.2675,5.808 110.8285,6.105 111.3235,6.765 Z M109.6185,6.556 C109.0685,6.556 108.6835,6.743 108.3865,7.161 C108.1225,7.524 107.9685,8.008 107.9685,8.503 C107.9685,9.581 108.6725,10.395 109.5965,10.395 C110.5535,10.395 111.3345,9.504 111.3345,8.415 C111.3345,7.315 110.6305,6.556 109.6185,6.556 Z M114.6785,5.929 L114.6785,11 L113.8425,11 L113.8425,5.929 L114.6785,5.929 Z M114.2715,3.96 C114.5685,3.96 114.7995,4.202 114.7995,4.51 C114.7995,4.807 114.5575,5.038 114.2605,5.038 C113.9635,5.038 113.7325,4.807 113.7325,4.499 C113.7325,4.191 113.9635,3.96 114.2715,3.96 Z M116.3615,5.929 L117.1975,5.929 L117.1975,6.644 C117.6375,6.05 118.0775,5.808 118.7045,5.808 C119.1665,5.808 119.5845,5.962 119.8815,6.226 C120.2005,6.534 120.3105,6.886 120.3105,7.579 L120.3105,11 L119.4745,11 L119.4745,7.766 C119.4745,7.315 119.4195,7.073 119.2875,6.897 C119.1335,6.688 118.8365,6.556 118.4955,6.556 C118.1215,6.556 117.7805,6.699 117.5275,6.985 C117.2855,7.249 117.1975,7.491 117.1975,7.909 L117.1975,11 L116.3615,11 L116.3615,5.929 Z M126.6685,8.734 L122.4445,8.734 C122.4885,9.163 122.5655,9.383 122.7745,9.658 C123.1045,10.109 123.5885,10.351 124.1385,10.351 C124.7655,10.351 125.3595,10.01 125.6565,9.482 L126.3935,9.757 C125.9755,10.604 125.1065,11.121 124.1385,11.121 C122.6315,11.121 121.5535,10.021 121.5535,8.481 C121.5535,6.919 122.6205,5.808 124.1055,5.808 C125.5795,5.808 126.6795,6.919 126.6795,8.404 C126.6795,8.47 126.6795,8.613 126.6685,8.734 Z M122.4555,8.118 L125.7885,8.118 C125.7555,7.722 125.6785,7.502 125.5025,7.249 C125.1835,6.82 124.6665,6.556 124.1055,6.556 C123.5445,6.556 123.0385,6.82 122.7415,7.26 C122.5875,7.502 122.5215,7.711 122.4555,8.118 Z M127.8895,5.929 L128.7255,5.929 L128.7255,6.787 C128.8795,6.424 128.9895,6.27 129.1875,6.116 C129.4405,5.918 129.7925,5.808 130.1555,5.808 L130.3535,5.808 L130.3535,6.655 C130.2655,6.644 130.1775,6.644 130.1225,6.644 C129.6715,6.644 129.2755,6.853 129.0225,7.227 C128.8025,7.546 128.7255,7.843 128.7255,8.426 L128.7255,11 L127.8895,11 L127.8895,5.929 Z"/>
      </g>
    </g>
  </g>
</svg>
