<svg xmlns="http://www.w3.org/2000/svg" xmlns:xlink="http://www.w3.org/1999/xlink" width="580" height="360" viewBox="0 0 580 360">
  <defs>
    <rect id="2-a" width="51" height="15"/>
    <mask id="2-d" width="51" height="15" x="0" y="0" fill="#fff">
      <use xlink:href="#2-a"/>
    </mask>
    <rect id="2-b" width="68" height="44"/>
    <mask id="2-e" width="68" height="44" x="0" y="0" fill="#fff">
      <use xlink:href="#2-b"/>
    </mask>
    <rect id="2-c" width="259" height="16"/>
    <mask id="2-f" width="259" height="16" x="0" y="0" fill="#fff">
      <use xlink:href="#2-c"/>
    </mask>
  </defs>
  <g fill="none" fill-rule="evenodd">
    <rect width="580" height="360" fill="#FFF" fill-opacity=".01" fill-rule="nonzero"/>
    <g transform="translate(110 54)">
      <g transform="translate(32 166)">
        <g fill="#C41261" transform="translate(105 19)">
          <rect width="1" height="42" x="4" y="1"/>
          <rect width="9" height="1"/>
          <rect width="9" height="1" y="43"/>
        </g>
        <path fill="#C41261" d="M189.63 30.018C190.048 30.15 190.246 30.249 190.477 30.491 190.84 30.854 191.027 31.338 191.027 31.91 191.027 33.208 190.07 34.132 188.728 34.132 187.397 34.132 186.462 33.241 186.462 31.987 186.462 31.404 186.66 30.876 187.012 30.513 187.243 30.271 187.43 30.161 187.87 30.018 187.485 29.886 187.32 29.776 187.122 29.534 186.88 29.237 186.748 28.863 186.748 28.456 186.748 27.411 187.606 26.641 188.772 26.641 189.927 26.641 190.763 27.4 190.763 28.445 190.763 28.863 190.62 29.259 190.356 29.567 190.158 29.787 190.004 29.886 189.63 30.018zM188.772 27.411C188.068 27.411 187.584 27.851 187.584 28.467 187.584 29.094 188.101 29.589 188.75 29.589 189.377 29.589 189.938 29.072 189.938 28.478 189.938 27.906 189.399 27.411 188.772 27.411zM188.761 30.48C187.969 30.48 187.331 31.107 187.331 31.899 187.331 32.68 187.958 33.318 188.739 33.318 189.52 33.318 190.147 32.68 190.147 31.899 190.147 31.129 189.52 30.48 188.761 30.48zM192.336 28.929L193.172 28.929 193.172 29.853C193.656 29.105 194.173 28.808 195.02 28.808 196.428 28.808 197.407 29.886 197.407 31.426 197.407 33.021 196.428 34.121 195.02 34.121 194.624 34.121 194.261 34.033 193.909 33.857 193.601 33.703 193.447 33.571 193.172 33.208L193.172 36.376 192.336 36.376 192.336 28.929zM194.877 29.556C193.865 29.556 193.172 30.359 193.172 31.547 193.172 32.658 193.843 33.395 194.844 33.395 195.845 33.395 196.516 32.614 196.516 31.459 196.516 30.865 196.373 30.414 196.076 30.084 195.779 29.754 195.328 29.556 194.877 29.556zM200.289 32.163L198.936 34 197.913 34 199.783 31.481 197.88 28.929 198.936 28.929 200.289 30.788 201.675 28.929 202.698 28.929 200.784 31.481 202.61 34 201.587 34 200.289 32.163zM207.714 26.663L207.714 29.633C208.176 29.061 208.638 28.808 209.243 28.808 209.683 28.808 210.145 28.984 210.42 29.27 210.695 29.545 210.816 29.941 210.816 30.59L210.816 34 209.98 34 209.98 30.634C209.98 29.941 209.639 29.556 209.034 29.556 208.649 29.556 208.308 29.71 208.044 30.007 207.791 30.293 207.714 30.546 207.714 31.03L207.714 34 206.878 34 206.878 26.663 207.714 26.663zM214.655 28.808C216.151 28.808 217.218 29.919 217.218 31.481 217.218 32.966 216.074 34.121 214.622 34.121 213.115 34.121 212.059 33.021 212.059 31.459 212.059 29.886 213.115 28.808 214.655 28.808zM214.655 29.578C213.61 29.578 212.917 30.337 212.917 31.47 212.917 32.592 213.61 33.351 214.644 33.351 215.645 33.351 216.36 32.57 216.36 31.47 216.36 30.337 215.678 29.578 214.655 29.578zM218.494 28.929L219.33 28.929 219.33 29.787C219.484 29.424 219.594 29.27 219.792 29.116 220.045 28.918 220.397 28.808 220.76 28.808L220.958 28.808 220.958 29.655C220.87 29.644 220.782 29.644 220.727 29.644 220.276 29.644 219.88 29.853 219.627 30.227 219.407 30.546 219.33 30.843 219.33 31.426L219.33 34 218.494 34 218.494 28.929zM222.828 28.929L222.828 34 221.992 34 221.992 28.929 222.828 28.929zM222.421 26.96C222.718 26.96 222.949 27.202 222.949 27.51 222.949 27.807 222.707 28.038 222.41 28.038 222.113 28.038 221.882 27.807 221.882 27.499 221.882 27.191 222.113 26.96 222.421 26.96zM225.325 33.263L227.657 33.263 227.657 34 223.917 34 226.557 29.666 224.203 29.666 224.203 28.929 227.932 28.929 225.325 33.263zM231.111 28.808C232.607 28.808 233.674 29.919 233.674 31.481 233.674 32.966 232.53 34.121 231.078 34.121 229.571 34.121 228.515 33.021 228.515 31.459 228.515 29.886 229.571 28.808 231.111 28.808zM231.111 29.578C230.066 29.578 229.373 30.337 229.373 31.47 229.373 32.592 230.066 33.351 231.1 33.351 232.101 33.351 232.816 32.57 232.816 31.47 232.816 30.337 232.134 29.578 231.111 29.578zM234.95 28.929L235.786 28.929 235.786 29.644C236.226 29.05 236.666 28.808 237.293 28.808 237.755 28.808 238.173 28.962 238.47 29.226 238.789 29.534 238.899 29.886 238.899 30.579L238.899 34 238.063 34 238.063 30.766C238.063 30.315 238.008 30.073 237.876 29.897 237.722 29.688 237.425 29.556 237.084 29.556 236.71 29.556 236.369 29.699 236.116 29.985 235.874 30.249 235.786 30.491 235.786 30.909L235.786 34 234.95 34 234.95 28.929zM241.44 29.666L241.44 32.966C241.451 33.219 241.517 33.274 241.825 33.274L242.21 33.274 242.21 34 241.429 34C240.835 33.989 240.604 33.769 240.604 33.208L240.604 29.666 239.9 29.666 239.9 28.929 240.604 28.929 240.604 27.334 241.44 27.334 241.44 28.929 242.21 28.929 242.21 29.666 241.44 29.666zM247.226 29.765L247.226 28.929 248.062 28.929 248.062 34 247.226 34 247.226 33.021C246.72 33.78 246.148 34.121 245.378 34.121 243.981 34.121 242.991 33.021 242.991 31.481 242.991 29.93 244.003 28.808 245.4 28.808 246.17 28.808 246.731 29.105 247.226 29.765zM245.521 29.556C244.971 29.556 244.586 29.743 244.289 30.161 244.025 30.524 243.871 31.008 243.871 31.503 243.871 32.581 244.575 33.395 245.499 33.395 246.456 33.395 247.237 32.504 247.237 31.415 247.237 30.315 246.533 29.556 245.521 29.556zM250.581 34L249.745 34 249.745 26.663 250.581 26.663 250.581 34zM255.564 28.929L256.4 28.929 256.4 29.853C256.884 29.105 257.401 28.808 258.248 28.808 259.656 28.808 260.635 29.886 260.635 31.426 260.635 33.021 259.656 34.121 258.248 34.121 257.852 34.121 257.489 34.033 257.137 33.857 256.829 33.703 256.675 33.571 256.4 33.208L256.4 36.376 255.564 36.376 255.564 28.929zM258.105 29.556C257.093 29.556 256.4 30.359 256.4 31.547 256.4 32.658 257.071 33.395 258.072 33.395 259.073 33.395 259.744 32.614 259.744 31.459 259.744 30.865 259.601 30.414 259.304 30.084 259.007 29.754 258.556 29.556 258.105 29.556zM265.728 29.765L265.728 28.929 266.564 28.929 266.564 34 265.728 34 265.728 33.021C265.222 33.78 264.65 34.121 263.88 34.121 262.483 34.121 261.493 33.021 261.493 31.481 261.493 29.93 262.505 28.808 263.902 28.808 264.672 28.808 265.233 29.105 265.728 29.765zM264.023 29.556C263.473 29.556 263.088 29.743 262.791 30.161 262.527 30.524 262.373 31.008 262.373 31.503 262.373 32.581 263.077 33.395 264.001 33.395 264.958 33.395 265.739 32.504 265.739 31.415 265.739 30.315 265.035 29.556 264.023 29.556zM272.042 29.699L272.042 26.663 272.878 26.663 272.878 34 272.042 34 272.042 33.131C271.536 33.824 270.997 34.121 270.227 34.121 268.83 34.121 267.84 33.032 267.84 31.492 267.84 29.952 268.852 28.808 270.227 28.808 270.975 28.808 271.547 29.083 272.042 29.699zM270.403 29.556C269.402 29.556 268.72 30.348 268.72 31.503 268.72 32.614 269.391 33.395 270.348 33.395 271.327 33.395 272.042 32.581 272.042 31.481 272.042 30.337 271.371 29.556 270.403 29.556zM278.356 29.699L278.356 26.663 279.192 26.663 279.192 34 278.356 34 278.356 33.131C277.85 33.824 277.311 34.121 276.541 34.121 275.144 34.121 274.154 33.032 274.154 31.492 274.154 29.952 275.166 28.808 276.541 28.808 277.289 28.808 277.861 29.083 278.356 29.699zM276.717 29.556C275.716 29.556 275.034 30.348 275.034 31.503 275.034 32.614 275.705 33.395 276.662 33.395 277.641 33.395 278.356 32.581 278.356 31.481 278.356 30.337 277.685 29.556 276.717 29.556zM281.711 28.929L281.711 34 280.875 34 280.875 28.929 281.711 28.929zM281.304 26.96C281.601 26.96 281.832 27.202 281.832 27.51 281.832 27.807 281.59 28.038 281.293 28.038 280.996 28.038 280.765 27.807 280.765 27.499 280.765 27.191 280.996 26.96 281.304 26.96zM283.394 28.929L284.23 28.929 284.23 29.644C284.67 29.05 285.11 28.808 285.737 28.808 286.199 28.808 286.617 28.962 286.914 29.226 287.233 29.534 287.343 29.886 287.343 30.579L287.343 34 286.507 34 286.507 30.766C286.507 30.315 286.452 30.073 286.32 29.897 286.166 29.688 285.869 29.556 285.528 29.556 285.154 29.556 284.813 29.699 284.56 29.985 284.318 30.249 284.23 30.491 284.23 30.909L284.23 34 283.394 34 283.394 28.929zM292.744 29.798L292.744 28.929 293.58 28.929 293.58 34.033C293.58 34.88 293.371 35.452 292.909 35.892 292.458 36.332 291.809 36.563 291.039 36.563 290.093 36.563 289.345 36.255 288.795 35.639L289.367 35.067C289.598 35.309 289.708 35.408 289.851 35.507 290.137 35.683 290.61 35.804 291.039 35.804 291.567 35.804 292.073 35.617 292.359 35.309 292.612 35.034 292.744 34.627 292.744 34.099L292.744 33.032C292.249 33.78 291.666 34.121 290.874 34.121 289.532 34.121 288.531 32.988 288.531 31.481 288.531 30.667 288.828 29.886 289.334 29.402 289.741 29.006 290.291 28.808 290.94 28.808 291.71 28.808 292.227 29.094 292.744 29.798zM291.094 29.578C290.104 29.578 289.411 30.348 289.411 31.448 289.411 32.537 290.115 33.351 291.072 33.351 291.556 33.351 292.029 33.12 292.359 32.735 292.579 32.482 292.722 31.987 292.722 31.481 292.722 30.821 292.623 30.469 292.326 30.139 292.018 29.798 291.545 29.578 291.094 29.578zM187.672 47.131L187.672 48 186.836 48 186.836 40.663 187.672 40.663 187.672 43.798C188.178 43.105 188.717 42.808 189.454 42.808 190.873 42.808 191.863 43.908 191.863 45.481 191.863 47.032 190.884 48.121 189.498 48.121 188.717 48.121 188.167 47.824 187.672 47.131zM189.344 43.556C188.376 43.556 187.661 44.359 187.661 45.47 187.661 46.625 188.321 47.395 189.311 47.395 190.312 47.395 190.983 46.636 190.983 45.503 190.983 44.37 190.301 43.556 189.344 43.556zM195.328 42.808C196.824 42.808 197.891 43.919 197.891 45.481 197.891 46.966 196.747 48.121 195.295 48.121 193.788 48.121 192.732 47.021 192.732 45.459 192.732 43.886 193.788 42.808 195.328 42.808zM195.328 43.578C194.283 43.578 193.59 44.337 193.59 45.47 193.59 46.592 194.283 47.351 195.317 47.351 196.318 47.351 197.033 46.57 197.033 45.47 197.033 44.337 196.351 43.578 195.328 43.578zM200.058 43.666L200.058 46.966C200.069 47.219 200.135 47.274 200.443 47.274L200.828 47.274 200.828 48 200.047 48C199.453 47.989 199.222 47.769 199.222 47.208L199.222 43.666 198.518 43.666 198.518 42.929 199.222 42.929 199.222 41.334 200.058 41.334 200.058 42.929 200.828 42.929 200.828 43.666 200.058 43.666zM202.852 40.663L202.852 43.633C203.314 43.061 203.776 42.808 204.381 42.808 204.821 42.808 205.283 42.984 205.558 43.27 205.833 43.545 205.954 43.941 205.954 44.59L205.954 48 205.118 48 205.118 44.634C205.118 43.941 204.777 43.556 204.172 43.556 203.787 43.556 203.446 43.71 203.182 44.007 202.929 44.293 202.852 44.546 202.852 45.03L202.852 48 202.016 48 202.016 40.663 202.852 40.663zM214.083 44.315L213.247 44.315 213.247 44.26C213.247 43.787 212.862 43.49 212.279 43.49 211.718 43.49 211.366 43.776 211.366 44.216 211.366 44.656 211.586 44.821 212.499 45.074 213.148 45.25 213.489 45.415 213.731 45.657 213.984 45.91 214.138 46.273 214.138 46.647 214.138 47.527 213.412 48.121 212.334 48.121 211.179 48.121 210.53 47.582 210.442 46.559L211.267 46.559C211.322 47.131 211.696 47.439 212.334 47.439 212.906 47.439 213.28 47.142 213.28 46.691 213.28 46.251 212.994 46.031 212.125 45.811 211.025 45.514 210.53 45.052 210.53 44.282 210.53 43.402 211.245 42.808 212.312 42.808 213.39 42.808 214.039 43.358 214.083 44.315zM216.261 42.929L216.261 48 215.425 48 215.425 42.929 216.261 42.929zM215.854 40.96C216.151 40.96 216.382 41.202 216.382 41.51 216.382 41.807 216.14 42.038 215.843 42.038 215.546 42.038 215.315 41.807 215.315 41.499 215.315 41.191 215.546 40.96 215.854 40.96zM221.739 43.699L221.739 40.663 222.575 40.663 222.575 48 221.739 48 221.739 47.131C221.233 47.824 220.694 48.121 219.924 48.121 218.527 48.121 217.537 47.032 217.537 45.492 217.537 43.952 218.549 42.808 219.924 42.808 220.672 42.808 221.244 43.083 221.739 43.699zM220.1 43.556C219.099 43.556 218.417 44.348 218.417 45.503 218.417 46.614 219.088 47.395 220.045 47.395 221.024 47.395 221.739 46.581 221.739 45.481 221.739 44.337 221.068 43.556 220.1 43.556zM228.966 45.734L224.742 45.734C224.786 46.163 224.863 46.383 225.072 46.658 225.402 47.109 225.886 47.351 226.436 47.351 227.063 47.351 227.657 47.01 227.954 46.482L228.691 46.757C228.273 47.604 227.404 48.121 226.436 48.121 224.929 48.121 223.851 47.021 223.851 45.481 223.851 43.919 224.918 42.808 226.403 42.808 227.877 42.808 228.977 43.919 228.977 45.404 228.977 45.47 228.977 45.613 228.966 45.734zM224.753 45.118L228.086 45.118C228.053 44.722 227.976 44.502 227.8 44.249 227.481 43.82 226.964 43.556 226.403 43.556 225.842 43.556 225.336 43.82 225.039 44.26 224.885 44.502 224.819 44.711 224.753 45.118zM233.366 44.315L232.53 44.315 232.53 44.26C232.53 43.787 232.145 43.49 231.562 43.49 231.001 43.49 230.649 43.776 230.649 44.216 230.649 44.656 230.869 44.821 231.782 45.074 232.431 45.25 232.772 45.415 233.014 45.657 233.267 45.91 233.421 46.273 233.421 46.647 233.421 47.527 232.695 48.121 231.617 48.121 230.462 48.121 229.813 47.582 229.725 46.559L230.55 46.559C230.605 47.131 230.979 47.439 231.617 47.439 232.189 47.439 232.563 47.142 232.563 46.691 232.563 46.251 232.277 46.031 231.408 45.811 230.308 45.514 229.813 45.052 229.813 44.282 229.813 43.402 230.528 42.808 231.595 42.808 232.673 42.808 233.322 43.358 233.366 44.315zM240.087 50.046L239.537 50.574C238.239 48.979 237.645 47.428 237.645 45.58 237.645 43.688 238.338 41.818 239.559 40.443L240.087 40.993C238.976 42.368 238.426 43.897 238.426 45.547 238.426 47.153 239.02 48.759 240.087 50.046zM242.243 43.666L242.243 48 241.407 48 241.407 43.666 240.714 43.666 240.714 42.929 241.407 42.929 241.407 42.247C241.407 41.246 241.924 40.652 242.804 40.652 242.848 40.652 242.947 40.652 243.035 40.663L243.035 41.411C242.43 41.477 242.265 41.653 242.243 42.247L242.243 42.929 243.035 42.929 243.035 43.666 242.243 43.666zM245.235 42.929L245.235 48 244.399 48 244.399 42.929 245.235 42.929zM244.817 40.96C245.114 40.96 245.345 41.202 245.345 41.51 245.345 41.807 245.114 42.038 244.817 42.038 244.509 42.038 244.278 41.807 244.278 41.499 244.278 41.191 244.509 40.96 244.817 40.96zM248.535 46.163L247.182 48 246.159 48 248.029 45.481 246.126 42.929 247.182 42.929 248.535 44.788 249.921 42.929 250.944 42.929 249.03 45.481 250.856 48 249.833 48 248.535 46.163zM256.532 45.734L252.308 45.734C252.352 46.163 252.429 46.383 252.638 46.658 252.968 47.109 253.452 47.351 254.002 47.351 254.629 47.351 255.223 47.01 255.52 46.482L256.257 46.757C255.839 47.604 254.97 48.121 254.002 48.121 252.495 48.121 251.417 47.021 251.417 45.481 251.417 43.919 252.484 42.808 253.969 42.808 255.443 42.808 256.543 43.919 256.543 45.404 256.543 45.47 256.543 45.613 256.532 45.734zM252.319 45.118L255.652 45.118C255.619 44.722 255.542 44.502 255.366 44.249 255.047 43.82 254.53 43.556 253.969 43.556 253.408 43.556 252.902 43.82 252.605 44.26 252.451 44.502 252.385 44.711 252.319 45.118zM261.548 43.699L261.548 40.663 262.384 40.663 262.384 48 261.548 48 261.548 47.131C261.042 47.824 260.503 48.121 259.733 48.121 258.336 48.121 257.346 47.032 257.346 45.492 257.346 43.952 258.358 42.808 259.733 42.808 260.481 42.808 261.053 43.083 261.548 43.699zM259.909 43.556C258.908 43.556 258.226 44.348 258.226 45.503 258.226 46.614 258.897 47.395 259.854 47.395 260.833 47.395 261.548 46.581 261.548 45.481 261.548 44.337 260.877 43.556 259.909 43.556zM263.616 40.971L264.166 40.443C265.475 42.049 266.058 43.589 266.058 45.437 266.058 47.34 265.365 49.188 264.144 50.574L263.616 50.024C264.727 48.649 265.277 47.12 265.277 45.47 265.277 43.853 264.694 42.269 263.616 40.971zM116.986 4.755L116.986 8 116.062 8 116.062.663 116.986.663 116.986 3.963 120.561 3.963 120.561.663 121.485.663 121.485 8 120.561 8 120.561 4.755 116.986 4.755zM123.663 6.944C123.993 6.944 124.235 7.186 124.235 7.527 124.235 7.846 123.982 8.088 123.663 8.088 123.333 8.088 123.091 7.846 123.091 7.516 123.091 7.186 123.333 6.944 123.663 6.944zM123.663 3.776C123.993 3.776 124.235 4.018 124.235 4.359 124.235 4.678 123.982 4.92 123.663 4.92 123.333 4.92 123.091 4.678 123.091 4.348 123.091 4.018 123.333 3.776 123.663 3.776zM128.305 6.35L125.368 6.35 125.368 5.668 129.152.564 129.152 5.558 130.01 5.558 130.01 6.35 129.152 6.35 129.152 8 128.305 8 128.305 6.35zM128.305 5.558L128.305 2.753 126.248 5.558 128.305 5.558zM133.805 6.35L130.868 6.35 130.868 5.668 134.652.564 134.652 5.558 135.51 5.558 135.51 6.35 134.652 6.35 134.652 8 133.805 8 133.805 6.35zM133.805 5.558L133.805 2.753 131.748 5.558 133.805 5.558zM136.775 2.929L137.611 2.929 137.611 3.853C138.095 3.105 138.612 2.808 139.459 2.808 140.867 2.808 141.846 3.886 141.846 5.426 141.846 7.021 140.867 8.121 139.459 8.121 139.063 8.121 138.7 8.033 138.348 7.857 138.04 7.703 137.886 7.571 137.611 7.208L137.611 10.376 136.775 10.376 136.775 2.929zM139.316 3.556C138.304 3.556 137.611 4.359 137.611 5.547 137.611 6.658 138.282 7.395 139.283 7.395 140.284 7.395 140.955 6.614 140.955 5.459 140.955 4.865 140.812 4.414 140.515 4.084 140.218 3.754 139.767 3.556 139.316 3.556zM144.728 6.163L143.375 8 142.352 8 144.222 5.481 142.319 2.929 143.375 2.929 144.728 4.788 146.114 2.929 147.137 2.929 145.223 5.481 147.049 8 146.026 8 144.728 6.163zM153.396 10.046L152.846 10.574C151.548 8.979 150.954 7.428 150.954 5.58 150.954 3.688 151.647 1.818 152.868.443L153.396.993C152.285 2.368 151.735 3.897 151.735 5.547 151.735 7.153 152.329 8.759 153.396 10.046zM155.552 3.666L155.552 8 154.716 8 154.716 3.666 154.023 3.666 154.023 2.929 154.716 2.929 154.716 2.247C154.716 1.246 155.233.652 156.113.652 156.157.652 156.256.652 156.344.663L156.344 1.411C155.739 1.477 155.574 1.653 155.552 2.247L155.552 2.929 156.344 2.929 156.344 3.666 155.552 3.666zM158.544 2.929L158.544 8 157.708 8 157.708 2.929 158.544 2.929zM158.126.96C158.423.96 158.654 1.202 158.654 1.51 158.654 1.807 158.423 2.038 158.126 2.038 157.818 2.038 157.587 1.807 157.587 1.499 157.587 1.191 157.818.96 158.126.96zM161.844 6.163L160.491 8 159.468 8 161.338 5.481 159.435 2.929 160.491 2.929 161.844 4.788 163.23 2.929 164.253 2.929 162.339 5.481 164.165 8 163.142 8 161.844 6.163zM169.841 5.734L165.617 5.734C165.661 6.163 165.738 6.383 165.947 6.658 166.277 7.109 166.761 7.351 167.311 7.351 167.938 7.351 168.532 7.01 168.829 6.482L169.566 6.757C169.148 7.604 168.279 8.121 167.311 8.121 165.804 8.121 164.726 7.021 164.726 5.481 164.726 3.919 165.793 2.808 167.278 2.808 168.752 2.808 169.852 3.919 169.852 5.404 169.852 5.47 169.852 5.613 169.841 5.734zM165.628 5.118L168.961 5.118C168.928 4.722 168.851 4.502 168.675 4.249 168.356 3.82 167.839 3.556 167.278 3.556 166.717 3.556 166.211 3.82 165.914 4.26 165.76 4.502 165.694 4.711 165.628 5.118zM174.857 3.699L174.857.663 175.693.663 175.693 8 174.857 8 174.857 7.131C174.351 7.824 173.812 8.121 173.042 8.121 171.645 8.121 170.655 7.032 170.655 5.492 170.655 3.952 171.667 2.808 173.042 2.808 173.79 2.808 174.362 3.083 174.857 3.699zM173.218 3.556C172.217 3.556 171.535 4.348 171.535 5.503 171.535 6.614 172.206 7.395 173.163 7.395 174.142 7.395 174.857 6.581 174.857 5.481 174.857 4.337 174.186 3.556 173.218 3.556zM176.925.971L177.475.443C178.784 2.049 179.367 3.589 179.367 5.437 179.367 7.34 178.674 9.188 177.453 10.574L176.925 10.024C178.036 8.649 178.586 7.12 178.586 5.47 178.586 3.853 178.003 2.269 176.925.971zM21.173 30.808L20.403 31.853 19.963 31.523 20.744 30.489 19.512 30.093 19.677 29.587 20.909 29.95 20.909 28.685 21.437 28.685 21.437 29.95 22.691 29.554 22.867 30.071 21.58 30.489 22.372 31.523 21.965 31.853 21.173 30.808zM28.664 32.755L28.664 36 27.74 36 27.74 28.663 28.664 28.663 28.664 31.963 32.239 31.963 32.239 28.663 33.163 28.663 33.163 36 32.239 36 32.239 32.755 28.664 32.755zM39.62 33.734L35.396 33.734C35.44 34.163 35.517 34.383 35.726 34.658 36.056 35.109 36.54 35.351 37.09 35.351 37.717 35.351 38.311 35.01 38.608 34.482L39.345 34.757C38.927 35.604 38.058 36.121 37.09 36.121 35.583 36.121 34.505 35.021 34.505 33.481 34.505 31.919 35.572 30.808 37.057 30.808 38.531 30.808 39.631 31.919 39.631 33.404 39.631 33.47 39.631 33.613 39.62 33.734zM35.407 33.118L38.74 33.118C38.707 32.722 38.63 32.502 38.454 32.249 38.135 31.82 37.618 31.556 37.057 31.556 36.496 31.556 35.99 31.82 35.693 32.26 35.539 32.502 35.473 32.711 35.407 33.118zM41.677 30.929L41.677 36 40.841 36 40.841 30.929 41.677 30.929zM41.27 28.96C41.567 28.96 41.798 29.202 41.798 29.51 41.798 29.807 41.556 30.038 41.259 30.038 40.962 30.038 40.731 29.807 40.731 29.499 40.731 29.191 40.962 28.96 41.27 28.96zM47.111 31.798L47.111 30.929 47.947 30.929 47.947 36.033C47.947 36.88 47.738 37.452 47.276 37.892 46.825 38.332 46.176 38.563 45.406 38.563 44.46 38.563 43.712 38.255 43.162 37.639L43.734 37.067C43.965 37.309 44.075 37.408 44.218 37.507 44.504 37.683 44.977 37.804 45.406 37.804 45.934 37.804 46.44 37.617 46.726 37.309 46.979 37.034 47.111 36.627 47.111 36.099L47.111 35.032C46.616 35.78 46.033 36.121 45.241 36.121 43.899 36.121 42.898 34.988 42.898 33.481 42.898 32.667 43.195 31.886 43.701 31.402 44.108 31.006 44.658 30.808 45.307 30.808 46.077 30.808 46.594 31.094 47.111 31.798zM45.461 31.578C44.471 31.578 43.778 32.348 43.778 33.448 43.778 34.537 44.482 35.351 45.439 35.351 45.923 35.351 46.396 35.12 46.726 34.735 46.946 34.482 47.089 33.987 47.089 33.481 47.089 32.821 46.99 32.469 46.693 32.139 46.385 31.798 45.912 31.578 45.461 31.578zM50.466 28.663L50.466 31.633C50.928 31.061 51.39 30.808 51.995 30.808 52.435 30.808 52.897 30.984 53.172 31.27 53.447 31.545 53.568 31.941 53.568 32.59L53.568 36 52.732 36 52.732 32.634C52.732 31.941 52.391 31.556 51.786 31.556 51.401 31.556 51.06 31.71 50.796 32.007 50.543 32.293 50.466 32.546 50.466 33.03L50.466 36 49.63 36 49.63 28.663 50.466 28.663zM56.109 31.666L56.109 34.966C56.12 35.219 56.186 35.274 56.494 35.274L56.879 35.274 56.879 36 56.098 36C55.504 35.989 55.273 35.769 55.273 35.208L55.273 31.666 54.569 31.666 54.569 30.929 55.273 30.929 55.273 29.334 56.109 29.334 56.109 30.929 56.879 30.929 56.879 31.666 56.109 31.666zM61.367 30.929L62.203 30.929 62.203 31.644C62.643 31.05 63.083 30.808 63.71 30.808 64.172 30.808 64.59 30.962 64.887 31.226 65.206 31.534 65.316 31.886 65.316 32.579L65.316 36 64.48 36 64.48 32.766C64.48 32.315 64.425 32.073 64.293 31.897 64.139 31.688 63.842 31.556 63.501 31.556 63.127 31.556 62.786 31.699 62.533 31.985 62.291 32.249 62.203 32.491 62.203 32.909L62.203 36 61.367 36 61.367 30.929zM71.674 33.734L67.45 33.734C67.494 34.163 67.571 34.383 67.78 34.658 68.11 35.109 68.594 35.351 69.144 35.351 69.771 35.351 70.365 35.01 70.662 34.482L71.399 34.757C70.981 35.604 70.112 36.121 69.144 36.121 67.637 36.121 66.559 35.021 66.559 33.481 66.559 31.919 67.626 30.808 69.111 30.808 70.585 30.808 71.685 31.919 71.685 33.404 71.685 33.47 71.685 33.613 71.674 33.734zM67.461 33.118L70.794 33.118C70.761 32.722 70.684 32.502 70.508 32.249 70.189 31.82 69.672 31.556 69.111 31.556 68.55 31.556 68.044 31.82 67.747 32.26 67.593 32.502 67.527 32.711 67.461 33.118zM77.603 33.734L73.379 33.734C73.423 34.163 73.5 34.383 73.709 34.658 74.039 35.109 74.523 35.351 75.073 35.351 75.7 35.351 76.294 35.01 76.591 34.482L77.328 34.757C76.91 35.604 76.041 36.121 75.073 36.121 73.566 36.121 72.488 35.021 72.488 33.481 72.488 31.919 73.555 30.808 75.04 30.808 76.514 30.808 77.614 31.919 77.614 33.404 77.614 33.47 77.614 33.613 77.603 33.734zM73.39 33.118L76.723 33.118C76.69 32.722 76.613 32.502 76.437 32.249 76.118 31.82 75.601 31.556 75.04 31.556 74.479 31.556 73.973 31.82 73.676 32.26 73.522 32.502 73.456 32.711 73.39 33.118zM82.619 31.699L82.619 28.663 83.455 28.663 83.455 36 82.619 36 82.619 35.131C82.113 35.824 81.574 36.121 80.804 36.121 79.407 36.121 78.417 35.032 78.417 33.492 78.417 31.952 79.429 30.808 80.804 30.808 81.552 30.808 82.124 31.083 82.619 31.699zM80.98 31.556C79.979 31.556 79.297 32.348 79.297 33.503 79.297 34.614 79.968 35.395 80.925 35.395 81.904 35.395 82.619 34.581 82.619 33.481 82.619 32.337 81.948 31.556 80.98 31.556zM88.317 32.315L87.481 32.315 87.481 32.26C87.481 31.787 87.096 31.49 86.513 31.49 85.952 31.49 85.6 31.776 85.6 32.216 85.6 32.656 85.82 32.821 86.733 33.074 87.382 33.25 87.723 33.415 87.965 33.657 88.218 33.91 88.372 34.273 88.372 34.647 88.372 35.527 87.646 36.121 86.568 36.121 85.413 36.121 84.764 35.582 84.676 34.559L85.501 34.559C85.556 35.131 85.93 35.439 86.568 35.439 87.14 35.439 87.514 35.142 87.514 34.691 87.514 34.251 87.228 34.031 86.359 33.811 85.259 33.514 84.764 33.052 84.764 32.282 84.764 31.402 85.479 30.808 86.546 30.808 87.624 30.808 88.273 31.358 88.317 32.315zM93.85 31.666L93.85 34.966C93.861 35.219 93.927 35.274 94.235 35.274L94.62 35.274 94.62 36 93.839 36C93.245 35.989 93.014 35.769 93.014 35.208L93.014 31.666 92.31 31.666 92.31 30.929 93.014 30.929 93.014 29.334 93.85 29.334 93.85 30.929 94.62 30.929 94.62 31.666 93.85 31.666zM97.997 30.808C99.493 30.808 100.56 31.919 100.56 33.481 100.56 34.966 99.416 36.121 97.964 36.121 96.457 36.121 95.401 35.021 95.401 33.459 95.401 31.886 96.457 30.808 97.997 30.808zM97.997 31.578C96.952 31.578 96.259 32.337 96.259 33.47 96.259 34.592 96.952 35.351 97.986 35.351 98.987 35.351 99.702 34.57 99.702 33.47 99.702 32.337 99.02 31.578 97.997 31.578zM25.859 47.734L21.635 47.734C21.679 48.163 21.756 48.383 21.965 48.658 22.295 49.109 22.779 49.351 23.329 49.351 23.956 49.351 24.55 49.01 24.847 48.482L25.584 48.757C25.166 49.604 24.297 50.121 23.329 50.121 21.822 50.121 20.744 49.021 20.744 47.481 20.744 45.919 21.811 44.808 23.296 44.808 24.77 44.808 25.87 45.919 25.87 47.404 25.87 47.47 25.87 47.613 25.859 47.734zM21.646 47.118L24.979 47.118C24.946 46.722 24.869 46.502 24.693 46.249 24.374 45.82 23.857 45.556 23.296 45.556 22.735 45.556 22.229 45.82 21.932 46.26 21.778 46.502 21.712 46.711 21.646 47.118zM27.08 44.929L27.916 44.929 27.916 45.644C28.356 45.05 28.796 44.808 29.423 44.808 29.885 44.808 30.303 44.962 30.6 45.226 30.919 45.534 31.029 45.886 31.029 46.579L31.029 50 30.193 50 30.193 46.766C30.193 46.315 30.138 46.073 30.006 45.897 29.852 45.688 29.555 45.556 29.214 45.556 28.84 45.556 28.499 45.699 28.246 45.985 28.004 46.249 27.916 46.491 27.916 46.909L27.916 50 27.08 50 27.08 44.929zM35.858 46.315L35.022 46.315 35.022 46.26C35.022 45.787 34.637 45.49 34.054 45.49 33.493 45.49 33.141 45.776 33.141 46.216 33.141 46.656 33.361 46.821 34.274 47.074 34.923 47.25 35.264 47.415 35.506 47.657 35.759 47.91 35.913 48.273 35.913 48.647 35.913 49.527 35.187 50.121 34.109 50.121 32.954 50.121 32.305 49.582 32.217 48.559L33.042 48.559C33.097 49.131 33.471 49.439 34.109 49.439 34.681 49.439 35.055 49.142 35.055 48.691 35.055 48.251 34.769 48.031 33.9 47.811 32.8 47.514 32.305 47.052 32.305 46.282 32.305 45.402 33.02 44.808 34.087 44.808 35.165 44.808 35.814 45.358 35.858 46.315zM40.148 44.929L40.995 44.929 40.995 48.174C40.995 48.867 40.863 49.252 40.489 49.593 40.115 49.934 39.598 50.121 39.026 50.121 38.454 50.121 37.926 49.923 37.563 49.582 37.222 49.252 37.057 48.79 37.057 48.174L37.057 44.929 37.893 44.929 37.893 48.152C37.893 48.867 38.355 49.373 39.026 49.373 39.378 49.373 39.719 49.23 39.928 48.988 40.093 48.79 40.148 48.581 40.148 48.174L40.148 44.929zM42.535 44.929L43.371 44.929 43.371 45.787C43.525 45.424 43.635 45.27 43.833 45.116 44.086 44.918 44.438 44.808 44.801 44.808L44.999 44.808 44.999 45.655C44.911 45.644 44.823 45.644 44.768 45.644 44.317 45.644 43.921 45.853 43.668 46.227 43.448 46.546 43.371 46.843 43.371 47.426L43.371 50 42.535 50 42.535 44.929zM50.741 47.734L46.517 47.734C46.561 48.163 46.638 48.383 46.847 48.658 47.177 49.109 47.661 49.351 48.211 49.351 48.838 49.351 49.432 49.01 49.729 48.482L50.466 48.757C50.048 49.604 49.179 50.121 48.211 50.121 46.704 50.121 45.626 49.021 45.626 47.481 45.626 45.919 46.693 44.808 48.178 44.808 49.652 44.808 50.752 45.919 50.752 47.404 50.752 47.47 50.752 47.613 50.741 47.734zM46.528 47.118L49.861 47.118C49.828 46.722 49.751 46.502 49.575 46.249 49.256 45.82 48.739 45.556 48.178 45.556 47.617 45.556 47.111 45.82 46.814 46.26 46.66 46.502 46.594 46.711 46.528 47.118zM56.153 45.666L56.153 48.966C56.164 49.219 56.23 49.274 56.538 49.274L56.923 49.274 56.923 50 56.142 50C55.548 49.989 55.317 49.769 55.317 49.208L55.317 45.666 54.613 45.666 54.613 44.929 55.317 44.929 55.317 43.334 56.153 43.334 56.153 44.929 56.923 44.929 56.923 45.666 56.153 45.666zM61.939 45.765L61.939 44.929 62.775 44.929 62.775 50 61.939 50 61.939 49.021C61.433 49.78 60.861 50.121 60.091 50.121 58.694 50.121 57.704 49.021 57.704 47.481 57.704 45.93 58.716 44.808 60.113 44.808 60.883 44.808 61.444 45.105 61.939 45.765zM60.234 45.556C59.684 45.556 59.299 45.743 59.002 46.161 58.738 46.524 58.584 47.008 58.584 47.503 58.584 48.581 59.288 49.395 60.212 49.395 61.169 49.395 61.95 48.504 61.95 47.415 61.95 46.315 61.246 45.556 60.234 45.556zM64.458 44.929L65.294 44.929 65.294 45.853C65.778 45.105 66.295 44.808 67.142 44.808 68.55 44.808 69.529 45.886 69.529 47.426 69.529 49.021 68.55 50.121 67.142 50.121 66.746 50.121 66.383 50.033 66.031 49.857 65.723 49.703 65.569 49.571 65.294 49.208L65.294 52.376 64.458 52.376 64.458 44.929zM66.999 45.556C65.987 45.556 65.294 46.359 65.294 47.547 65.294 48.658 65.965 49.395 66.966 49.395 67.967 49.395 68.638 48.614 68.638 47.459 68.638 46.865 68.495 46.414 68.198 46.084 67.901 45.754 67.45 45.556 66.999 45.556zM74.985 45.666L74.985 48.966C74.996 49.219 75.062 49.274 75.37 49.274L75.755 49.274 75.755 50 74.974 50C74.38 49.989 74.149 49.769 74.149 49.208L74.149 45.666 73.445 45.666 73.445 44.929 74.149 44.929 74.149 43.334 74.985 43.334 74.985 44.929 75.755 44.929 75.755 45.666 74.985 45.666zM80.771 45.765L80.771 44.929 81.607 44.929 81.607 50 80.771 50 80.771 49.021C80.265 49.78 79.693 50.121 78.923 50.121 77.526 50.121 76.536 49.021 76.536 47.481 76.536 45.93 77.548 44.808 78.945 44.808 79.715 44.808 80.276 45.105 80.771 45.765zM79.066 45.556C78.516 45.556 78.131 45.743 77.834 46.161 77.57 46.524 77.416 47.008 77.416 47.503 77.416 48.581 78.12 49.395 79.044 49.395 80.001 49.395 80.782 48.504 80.782 47.415 80.782 46.315 80.078 45.556 79.066 45.556zM83.29 44.929L84.126 44.929 84.126 45.787C84.28 45.424 84.39 45.27 84.588 45.116 84.841 44.918 85.193 44.808 85.556 44.808L85.754 44.808 85.754 45.655C85.666 45.644 85.578 45.644 85.523 45.644 85.072 45.644 84.676 45.853 84.423 46.227 84.203 46.546 84.126 46.843 84.126 47.426L84.126 50 83.29 50 83.29 44.929zM90.539 45.798L90.539 44.929 91.375 44.929 91.375 50.033C91.375 50.88 91.166 51.452 90.704 51.892 90.253 52.332 89.604 52.563 88.834 52.563 87.888 52.563 87.14 52.255 86.59 51.639L87.162 51.067C87.393 51.309 87.503 51.408 87.646 51.507 87.932 51.683 88.405 51.804 88.834 51.804 89.362 51.804 89.868 51.617 90.154 51.309 90.407 51.034 90.539 50.627 90.539 50.099L90.539 49.032C90.044 49.78 89.461 50.121 88.669 50.121 87.327 50.121 86.326 48.988 86.326 47.481 86.326 46.667 86.623 45.886 87.129 45.402 87.536 45.006 88.086 44.808 88.735 44.808 89.505 44.808 90.022 45.094 90.539 45.798zM88.889 45.578C87.899 45.578 87.206 46.348 87.206 47.448 87.206 48.537 87.91 49.351 88.867 49.351 89.351 49.351 89.824 49.12 90.154 48.735 90.374 48.482 90.517 47.987 90.517 47.481 90.517 46.821 90.418 46.469 90.121 46.139 89.813 45.798 89.34 45.578 88.889 45.578zM97.766 47.734L93.542 47.734C93.586 48.163 93.663 48.383 93.872 48.658 94.202 49.109 94.686 49.351 95.236 49.351 95.863 49.351 96.457 49.01 96.754 48.482L97.491 48.757C97.073 49.604 96.204 50.121 95.236 50.121 93.729 50.121 92.651 49.021 92.651 47.481 92.651 45.919 93.718 44.808 95.203 44.808 96.677 44.808 97.777 45.919 97.777 47.404 97.777 47.47 97.777 47.613 97.766 47.734zM93.553 47.118L96.886 47.118C96.853 46.722 96.776 46.502 96.6 46.249 96.281 45.82 95.764 45.556 95.203 45.556 94.642 45.556 94.136 45.82 93.839 46.26 93.685 46.502 93.619 46.711 93.553 47.118zM99.878 45.666L99.878 48.966C99.889 49.219 99.955 49.274 100.263 49.274L100.648 49.274 100.648 50 99.867 50C99.273 49.989 99.042 49.769 99.042 49.208L99.042 45.666 98.338 45.666 98.338 44.929 99.042 44.929 99.042 43.334 99.878 43.334 99.878 44.929 100.648 44.929 100.648 45.666 99.878 45.666z"/>
        <rect width="68" height="44" x="114" y="19" fill="#25333D"/>
        <use fill-rule="nonzero" stroke="#F897BF" stroke-dasharray="1" stroke-width="2" mask="url(#2-d)" transform="translate(123 34)" xlink:href="#2-a"/>
        <g fill="#F897BF" transform="translate(173 27)">
          <rect width="1" height="9"/>
          <rect width="1" height="9" x="8"/>
          <rect width="7" height="1" x="1" y="4"/>
        </g>
        <path fill="#89CBDF" fill-rule="nonzero" d="M132.616211,46.8330078 L131.603516,43.7700195 L127.195801,43.7700195 L126.166504,46.8330078 L124,46.8330078 L128.25,34.8549805 L130.657227,34.8549805 L134.915527,46.8330078 L132.616211,46.8330078 Z M129.337402,37.1376953 L127.693848,42.0766602 L131.105469,42.0766602 L129.478516,37.1376953 L129.337402,37.1376953 Z M143.694492,40.8066406 L141.735508,40.8066406 C141.54459,39.9267578 140.863926,39.2958984 139.73502,39.2958984 C138.323887,39.2958984 137.485508,40.3833008 137.485508,42.2675781 C137.485508,44.1767578 138.332188,45.2890625 139.73502,45.2890625 C140.80582,45.2890625 141.519688,44.7827148 141.735508,43.8364258 L143.694492,43.8364258 C143.470371,45.7373047 142.042637,47.015625 139.74332,47.015625 C137.012363,47.015625 135.402012,45.2558594 135.402012,42.2675781 C135.402012,39.3208008 137.004063,37.5693359 139.73502,37.5693359 C142.067539,37.5693359 143.478672,38.8974609 143.694492,40.8066406 Z M146.02375,35.5273438 L148.074043,35.5273438 L148.074043,37.8100586 L150.016426,37.8100586 L150.016426,39.4536133 L148.074043,39.4536133 L148.074043,43.9111328 C148.074043,44.8076172 148.455879,45.2060547 149.31916,45.2060547 C149.609688,45.2060547 149.767402,45.1894531 150.016426,45.1645508 L150.016426,46.7749023 C149.717598,46.8330078 149.335762,46.8745117 148.937324,46.8745117 C146.853828,46.8745117 146.02375,46.1689453 146.02375,44.4091797 L146.02375,39.4536133 L144.587715,39.4536133 L144.587715,37.8100586 L146.02375,37.8100586 L146.02375,35.5273438 Z M151.689922,46.8330078 L151.689922,37.7519531 L153.740215,37.7519531 L153.740215,46.8330078 L151.689922,46.8330078 Z M152.710918,36.2744141 C151.963848,36.2744141 151.440898,35.7929688 151.440898,35.137207 C151.440898,34.4814453 151.963848,34 152.710918,34 C153.466289,34 153.980938,34.4814453 153.980938,35.137207 C153.980938,35.7929688 153.466289,36.2744141 152.710918,36.2744141 Z M159.796523,47.015625 C157.073867,47.015625 155.430313,45.2392578 155.430313,42.2924805 C155.430313,39.3623047 157.09877,37.5693359 159.796523,37.5693359 C162.502578,37.5693359 164.162734,39.3540039 164.162734,42.2924805 C164.162734,45.2392578 162.510879,47.015625 159.796523,47.015625 Z M159.796523,45.2890625 C161.232559,45.2890625 162.046035,44.1933594 162.046035,42.2924805 C162.046035,40.3999023 161.224258,39.2958984 159.796523,39.2958984 C158.360488,39.2958984 157.538711,40.3999023 157.538711,42.2924805 C157.538711,44.1933594 158.360488,45.2890625 159.796523,45.2890625 Z M165.82793,46.8330078 L165.82793,37.7519531 L167.811816,37.7519531 L167.811816,39.2045898 L167.95293,39.2045898 C168.38457,38.1918945 169.297656,37.5693359 170.650684,37.5693359 C172.676074,37.5693359 173.780078,38.7895508 173.780078,40.9560547 L173.780078,46.8330078 L171.721484,46.8330078 L171.721484,41.4458008 C171.721484,40.0595703 171.14043,39.3623047 169.887012,39.3623047 C168.658496,39.3623047 167.886523,40.2089844 167.886523,41.5454102 L167.886523,46.8330078 L165.82793,46.8330078 Z"/>
        <g transform="translate(0 79)">
          <rect width="24" height="24" fill="#89CBDF" rx="2"/>
          <path fill="#C41261" d="M28.913,8.663 L30.981,8.663 C32.477,8.663 33.324,9.367 33.324,10.61 C33.324,11.083 33.181,11.501 32.906,11.809 C32.73,12.018 32.554,12.128 32.158,12.282 C32.565,12.37 32.763,12.447 32.994,12.623 C33.39,12.942 33.599,13.437 33.599,14.031 C33.599,14.713 33.302,15.307 32.807,15.626 C32.378,15.901 31.905,16 30.981,16 L28.913,16 L28.913,8.663 Z M29.837,9.422 L29.837,11.963 L30.772,11.952 C31.355,11.952 31.707,11.875 31.971,11.666 C32.257,11.435 32.422,11.061 32.422,10.654 C32.422,10.181 32.191,9.763 31.839,9.598 C31.575,9.466 31.267,9.422 30.596,9.422 L29.837,9.422 Z M29.837,12.711 L29.837,15.252 L30.761,15.252 C31.531,15.252 31.828,15.197 32.147,15.01 C32.499,14.812 32.675,14.46 32.675,13.976 C32.675,13.096 32.158,12.711 30.992,12.711 L29.837,12.711 Z M35.766,8.663 L35.766,13.03 C35.766,13.965 35.898,14.438 36.25,14.79 C36.558,15.087 37.086,15.285 37.548,15.285 C38.01,15.285 38.527,15.076 38.846,14.746 C39.242,14.361 39.341,13.987 39.341,13.008 L39.341,8.663 L40.287,8.663 L40.287,13.008 C40.287,14.108 40.111,14.735 39.638,15.263 C39.143,15.824 38.406,16.132 37.57,16.132 C36.712,16.132 35.931,15.802 35.436,15.208 C34.985,14.691 34.842,14.152 34.842,13.008 L34.842,8.663 L35.766,8.663 Z M43.961,9.455 L43.961,16 L43.037,16 L43.037,9.455 L41.167,9.455 L41.167,8.663 L45.82,8.663 L45.82,9.455 L43.961,9.455 Z M48.834,9.455 L48.834,16 L47.91,16 L47.91,9.455 L46.04,9.455 L46.04,8.663 L50.693,8.663 L50.693,9.455 L48.834,9.455 Z M54.917,8.531 C55.94,8.531 56.919,8.993 57.623,9.796 C58.217,10.489 58.481,11.303 58.481,12.403 C58.481,13.547 58.041,14.57 57.238,15.252 C56.578,15.824 55.742,16.132 54.895,16.132 C53.806,16.132 52.739,15.615 52.057,14.757 C51.551,14.119 51.287,13.294 51.287,12.37 C51.287,10.181 52.838,8.531 54.917,8.531 Z M54.895,9.389 C53.366,9.389 52.233,10.643 52.233,12.337 C52.233,14.042 53.355,15.285 54.873,15.285 C55.61,15.285 56.336,14.966 56.831,14.405 C57.26,13.932 57.535,13.14 57.535,12.392 C57.535,11.413 57.271,10.698 56.699,10.148 C56.215,9.675 55.544,9.389 54.895,9.389 Z M60.802,10.39 L60.802,16 L59.878,16 L59.878,8.663 L60.725,8.663 L64.641,14.185 L64.641,8.663 L65.565,8.663 L65.565,16 L64.751,16 L60.802,10.39 Z M67.743,14.944 C68.073,14.944 68.315,15.186 68.315,15.527 C68.315,15.846 68.062,16.088 67.743,16.088 C67.413,16.088 67.171,15.846 67.171,15.516 C67.171,15.186 67.413,14.944 67.743,14.944 Z M67.743,11.776 C68.073,11.776 68.315,12.018 68.315,12.359 C68.315,12.678 68.062,12.92 67.743,12.92 C67.413,12.92 67.171,12.678 67.171,12.348 C67.171,12.018 67.413,11.776 67.743,11.776 Z M73.232,16 L73.232,8.663 L75.179,8.663 C77.39,8.663 78.721,10.005 78.721,12.216 C78.721,13.459 78.314,14.482 77.566,15.153 C76.928,15.725 76.081,16 75.014,16 L73.232,16 Z M74.156,9.444 L74.156,15.208 L74.486,15.208 C75.729,15.208 76.257,15.076 76.785,14.658 C77.445,14.13 77.775,13.316 77.775,12.227 C77.775,10.456 76.829,9.444 75.146,9.444 L74.156,9.444 Z M84.749,13.734 L80.525,13.734 C80.569,14.163 80.646,14.383 80.855,14.658 C81.185,15.109 81.669,15.351 82.219,15.351 C82.846,15.351 83.44,15.01 83.737,14.482 L84.474,14.757 C84.056,15.604 83.187,16.121 82.219,16.121 C80.712,16.121 79.634,15.021 79.634,13.481 C79.634,11.919 80.701,10.808 82.186,10.808 C83.66,10.808 84.76,11.919 84.76,13.404 C84.76,13.47 84.76,13.613 84.749,13.734 Z M80.536,13.118 L83.869,13.118 C83.836,12.722 83.759,12.502 83.583,12.249 C83.264,11.82 82.747,11.556 82.186,11.556 C81.625,11.556 81.119,11.82 80.822,12.26 C80.668,12.502 80.602,12.711 80.536,13.118 Z M85.97,10.929 L86.806,10.929 L86.806,11.644 C87.246,11.05 87.686,10.808 88.313,10.808 C88.775,10.808 89.193,10.962 89.49,11.226 C89.809,11.534 89.919,11.886 89.919,12.579 L89.919,16 L89.083,16 L89.083,12.766 C89.083,12.315 89.028,12.073 88.896,11.897 C88.742,11.688 88.445,11.556 88.104,11.556 C87.73,11.556 87.389,11.699 87.136,11.985 C86.894,12.249 86.806,12.491 86.806,12.909 L86.806,16 L85.97,16 L85.97,10.929 Z M92.405,10.929 L92.405,16 L91.569,16 L91.569,10.929 L92.405,10.929 Z M91.998,8.96 C92.295,8.96 92.526,9.202 92.526,9.51 C92.526,9.807 92.284,10.038 91.987,10.038 C91.69,10.038 91.459,9.807 91.459,9.499 C91.459,9.191 91.69,8.96 91.998,8.96 Z M94.088,10.929 L94.924,10.929 L94.924,11.633 C95.309,11.05 95.738,10.808 96.365,10.808 C97.058,10.808 97.498,11.105 97.729,11.732 C98.103,11.083 98.576,10.808 99.335,10.808 C99.918,10.808 100.358,10.995 100.622,11.347 C100.864,11.666 100.93,11.952 100.93,12.755 L100.93,16 L100.094,16 L100.094,12.953 C100.094,12.337 100.072,12.194 99.951,11.985 C99.797,11.721 99.467,11.556 99.071,11.556 C98.334,11.556 97.927,12.051 97.927,12.953 L97.927,16 L97.091,16 L97.091,12.964 C97.091,12.469 97.047,12.216 96.926,11.996 C96.783,11.71 96.475,11.556 96.101,11.556 C95.364,11.556 94.924,12.084 94.924,12.964 L94.924,16 L94.088,16 L94.088,10.929 Z M105.836,8.773 L103.955,11.71 C104.263,11.6 104.406,11.567 104.67,11.567 C105.891,11.567 106.837,12.524 106.837,13.767 C106.837,15.065 105.77,16.132 104.472,16.132 C103.163,16.132 102.151,15.098 102.151,13.767 C102.151,13.228 102.294,12.821 102.712,12.15 L104.813,8.773 L105.836,8.773 Z M104.516,12.315 C103.68,12.315 103.02,12.953 103.02,13.767 C103.02,14.625 103.669,15.307 104.494,15.307 C105.319,15.307 105.979,14.636 105.979,13.8 C105.979,12.975 105.33,12.315 104.516,12.315 Z"/>
          <g transform="translate(129)">
            <rect width="23" height="23" x=".5" y=".5" stroke="#C41261" rx="2"/>
            <path fill="#C41261" d="M10.4655,14.306 L7.1765,14.306 L6.5055,16 L5.5485,16 L8.3095,8.663 L9.4095,8.663 L12.1045,16 L11.0705,16 L10.4655,14.306 Z M10.1795,13.514 L8.8375,9.829 L7.4515,13.514 L10.1795,13.514 Z M16.8235,11.765 L16.8235,10.929 L17.6595,10.929 L17.6595,16 L16.8235,16 L16.8235,15.021 C16.3175,15.78 15.7455,16.121 14.9755,16.121 C13.5785,16.121 12.5885,15.021 12.5885,13.481 C12.5885,11.93 13.6005,10.808 14.9975,10.808 C15.7675,10.808 16.3285,11.105 16.8235,11.765 Z M15.1185,11.556 C14.5685,11.556 14.1835,11.743 13.8865,12.161 C13.6225,12.524 13.4685,13.008 13.4685,13.503 C13.4685,14.581 14.1725,15.395 15.0965,15.395 C16.0535,15.395 16.8345,14.504 16.8345,13.415 C16.8345,12.315 16.1305,11.556 15.1185,11.556 Z"/>
            <text fill="#C41261" font-family="NeuzeitGro-Reg, Neuzeit Grotesk" font-size="11">
              <tspan x="28.366" y="12">TEXT: Headline</tspan>
            </text>
          </g>
        </g>
      </g>
      <rect width="359" height="56" fill="#25333D" rx="14"/>
      <rect width="66" height="32" x="285" y="12"/>
      <path fill="#89CBDF" fill-rule="nonzero" d="M300.205566,34 L299.192871,30.9370117 L294.785156,30.9370117 L293.755859,34 L291.589355,34 L295.839355,22.0219727 L298.246582,22.0219727 L302.504883,34 L300.205566,34 Z M296.926758,24.3046875 L295.283203,29.2436523 L298.694824,29.2436523 L297.067871,24.3046875 L296.926758,24.3046875 Z M311.283848,27.9736328 L309.324863,27.9736328 C309.133945,27.09375 308.453281,26.4628906 307.324375,26.4628906 C305.913242,26.4628906 305.074863,27.550293 305.074863,29.4345703 C305.074863,31.34375 305.921543,32.4560547 307.324375,32.4560547 C308.395176,32.4560547 309.109043,31.949707 309.324863,31.003418 L311.283848,31.003418 C311.059727,32.9042969 309.631992,34.1826172 307.332676,34.1826172 C304.601719,34.1826172 302.991367,32.4228516 302.991367,29.4345703 C302.991367,26.487793 304.593418,24.7363281 307.324375,24.7363281 C309.656895,24.7363281 311.068027,26.0644531 311.283848,27.9736328 Z M313.613105,22.6943359 L315.663398,22.6943359 L315.663398,24.9770508 L317.605781,24.9770508 L317.605781,26.6206055 L315.663398,26.6206055 L315.663398,31.078125 C315.663398,31.9746094 316.045234,32.3730469 316.908516,32.3730469 C317.199043,32.3730469 317.356758,32.3564453 317.605781,32.331543 L317.605781,33.9418945 C317.306953,34 316.925117,34.0415039 316.52668,34.0415039 C314.443184,34.0415039 313.613105,33.3359375 313.613105,31.5761719 L313.613105,26.6206055 L312.17707,26.6206055 L312.17707,24.9770508 L313.613105,24.9770508 L313.613105,22.6943359 Z M319.279277,34 L319.279277,24.9189453 L321.32957,24.9189453 L321.32957,34 L319.279277,34 Z M320.300273,23.4414062 C319.553203,23.4414062 319.030254,22.9599609 319.030254,22.3041992 C319.030254,21.6484375 319.553203,21.1669922 320.300273,21.1669922 C321.055645,21.1669922 321.570293,21.6484375 321.570293,22.3041992 C321.570293,22.9599609 321.055645,23.4414062 320.300273,23.4414062 Z M327.385879,34.1826172 C324.663223,34.1826172 323.019668,32.40625 323.019668,29.4594727 C323.019668,26.5292969 324.688125,24.7363281 327.385879,24.7363281 C330.091934,24.7363281 331.75209,26.5209961 331.75209,29.4594727 C331.75209,32.40625 330.100234,34.1826172 327.385879,34.1826172 Z M327.385879,32.4560547 C328.821914,32.4560547 329.635391,31.3603516 329.635391,29.4594727 C329.635391,27.5668945 328.813613,26.4628906 327.385879,26.4628906 C325.949844,26.4628906 325.128066,27.5668945 325.128066,29.4594727 C325.128066,31.3603516 325.949844,32.4560547 327.385879,32.4560547 Z M333.417285,34 L333.417285,24.9189453 L335.401172,24.9189453 L335.401172,26.371582 L335.542285,26.371582 C335.973926,25.3588867 336.887012,24.7363281 338.240039,24.7363281 C340.26543,24.7363281 341.369434,25.956543 341.369434,28.1230469 L341.369434,34 L339.31084,34 L339.31084,28.612793 C339.31084,27.2265625 338.729785,26.5292969 337.476367,26.5292969 C336.247852,26.5292969 335.475879,27.3759766 335.475879,28.7124023 L335.475879,34 L333.417285,34 Z"/>
      <path fill="#FFF" d="M16.8984375,30.0546875 L18.3203125,30.0546875 C18.4921875,31.234375 19.6171875,31.984375 21.21875,31.984375 C22.734375,31.984375 23.8515625,31.1640625 23.8515625,30.046875 C23.8515625,29.0859375 23.1484375,28.4765625 21.59375,28.0859375 L20.1484375,27.7109375 C18.109375,27.1953125 17.2265625,26.2734375 17.2265625,24.671875 C17.2265625,22.7578125 18.828125,21.4609375 21.2109375,21.4609375 C23.390625,21.4609375 25.015625,22.7578125 25.1328125,24.578125 L23.71875,24.578125 C23.5234375,23.421875 22.5703125,22.734375 21.1640625,22.734375 C19.6640625,22.734375 18.671875,23.484375 18.671875,24.625 C18.671875,25.5078125 19.2890625,26.015625 20.84375,26.4140625 L22.0234375,26.7265625 C24.359375,27.3125 25.296875,28.21875 25.296875,29.875 C25.296875,31.9453125 23.6640625,33.265625 21.0859375,33.265625 C18.6953125,33.265625 17.046875,32 16.8984375,30.0546875 Z M27.1721875,33 L27.1721875,24.578125 L28.5159375,24.578125 L28.5159375,33 L27.1721875,33 Z M27.8440625,22.8671875 C27.3284375,22.8671875 26.9065625,22.4453125 26.9065625,21.9296875 C26.9065625,21.4140625 27.3284375,20.9921875 27.8440625,20.9921875 C28.3596875,20.9921875 28.7815625,21.4140625 28.7815625,21.9296875 C28.7815625,22.4453125 28.3596875,22.8671875 27.8440625,22.8671875 Z M30.7584375,33 L30.7584375,24.578125 L32.0396875,24.578125 L32.0396875,25.90625 L32.1646875,25.90625 C32.5865625,24.9765625 33.406875,24.4296875 34.6959375,24.4296875 C36.5865625,24.4296875 37.64125,25.546875 37.64125,27.546875 L37.64125,33 L36.2975,33 L36.2975,27.875 C36.2975,26.359375 35.656875,25.640625 34.313125,25.640625 C32.969375,25.640625 32.1021875,26.5390625 32.1021875,28.015625 L32.1021875,33 L30.7584375,33 Z M43.180625,31.6875 C44.743125,31.6875 45.680625,30.5 45.680625,28.6640625 C45.680625,26.828125 44.7353125,25.640625 43.180625,25.640625 C41.618125,25.640625 40.743125,26.828125 40.743125,28.6640625 C40.743125,30.5 41.618125,31.6875 43.180625,31.6875 Z M43.243125,36.234375 C41.211875,36.234375 39.915,35.3203125 39.711875,33.9296875 L41.13375,33.9296875 C41.2821875,34.6171875 42.0321875,35.0625 43.243125,35.0625 C44.7509375,35.0625 45.649375,34.3203125 45.649375,33.078125 L45.649375,31.421875 L45.524375,31.421875 C44.993125,32.3515625 44.04,32.875 42.88375,32.875 C40.7040625,32.875 39.3525,31.1875 39.3525,28.6640625 C39.3525,26.140625 40.7196875,24.4296875 42.88375,24.4296875 C44.0634375,24.4296875 45.1025,25.0078125 45.586875,25.9140625 L45.711875,25.9140625 L45.711875,24.578125 L46.993125,24.578125 L46.993125,33.1484375 C46.993125,35.03125 45.54,36.234375 43.243125,36.234375 Z M49.2825,33 L49.2825,21.234375 L50.62625,21.234375 L50.62625,33 L49.2825,33 Z M56.275,25.6171875 C54.93125,25.6171875 53.99375,26.6015625 53.8921875,28.09375 L58.5328125,28.09375 C58.5015625,26.6015625 57.6109375,25.6171875 56.275,25.6171875 Z M58.49375,30.8203125 L59.8375,30.8203125 C59.43125,32.265625 58.134375,33.1484375 56.290625,33.1484375 C53.9546875,33.1484375 52.49375,31.4609375 52.49375,28.796875 C52.49375,26.1484375 53.978125,24.4296875 56.290625,24.4296875 C58.5640625,24.4296875 59.946875,26.046875 59.946875,28.6640625 L59.946875,29.1796875 L53.8921875,29.1796875 L53.8921875,29.2421875 C53.9625,30.90625 54.8921875,31.9609375 56.321875,31.9609375 C57.4078125,31.9609375 58.1421875,31.5625 58.49375,30.8203125 Z M66.0100001,33 L66.0100001,21.234375 L67.3537501,21.234375 L67.3537501,33 L66.0100001,33 Z M69.6743751,33 L69.6743751,24.578125 L71.0181251,24.578125 L71.0181251,33 L69.6743751,33 Z M70.3462501,22.8671875 C69.8306251,22.8671875 69.4087501,22.4453125 69.4087501,21.9296875 C69.4087501,21.4140625 69.8306251,20.9921875 70.3462501,20.9921875 C70.8618751,20.9921875 71.2837501,21.4140625 71.2837501,21.9296875 C71.2837501,22.4453125 70.8618751,22.8671875 70.3462501,22.8671875 Z M73.2606251,33 L73.2606251,24.578125 L74.5418751,24.578125 L74.5418751,25.90625 L74.6668751,25.90625 C75.0887501,24.9765625 75.9090626,24.4296875 77.1981251,24.4296875 C79.0887501,24.4296875 80.1434376,25.546875 80.1434376,27.546875 L80.1434376,33 L78.7996876,33 L78.7996876,27.875 C78.7996876,26.359375 78.1590626,25.640625 76.8153126,25.640625 C75.4715626,25.640625 74.6043751,26.5390625 74.6043751,28.015625 L74.6043751,33 L73.2606251,33 Z M85.6359376,25.6171875 C84.2921876,25.6171875 83.3546876,26.6015625 83.2531251,28.09375 L87.8937501,28.09375 C87.8625001,26.6015625 86.9718751,25.6171875 85.6359376,25.6171875 Z M87.8546876,30.8203125 L89.1984376,30.8203125 C88.7921876,32.265625 87.4953126,33.1484375 85.6515626,33.1484375 C83.3156251,33.1484375 81.8546876,31.4609375 81.8546876,28.796875 C81.8546876,26.1484375 83.3390626,24.4296875 85.6515626,24.4296875 C87.9250001,24.4296875 89.3078126,26.046875 89.3078126,28.6640625 L89.3078126,29.1796875 L83.2531251,29.1796875 L83.2531251,29.2421875 C83.3234376,30.90625 84.2531251,31.9609375 85.6828126,31.9609375 C86.7687501,31.9609375 87.5031251,31.5625 87.8546876,30.8203125 Z M95.2928126,33 L95.2928126,24.578125 L96.5740626,24.578125 L96.5740626,25.90625 L96.6990626,25.90625 C97.0818751,24.96875 97.9256251,24.4296875 99.0506251,24.4296875 C100.19125,24.4296875 100.988125,25.03125 101.37875,25.90625 L101.50375,25.90625 C101.956875,25.015625 102.917813,24.4296875 104.081875,24.4296875 C105.800625,24.4296875 106.761563,25.4140625 106.761563,27.1796875 L106.761563,33 L105.417813,33 L105.417813,27.4921875 C105.417813,26.25 104.831875,25.640625 103.644375,25.640625 C102.4725,25.640625 101.69125,26.515625 101.69125,27.5859375 L101.69125,33 L100.3475,33 L100.3475,27.28125 C100.3475,26.28125 99.6521876,25.640625 98.5896876,25.640625 C97.4881251,25.640625 96.6365626,26.59375 96.6365626,27.78125 L96.6365626,33 L95.2928126,33 Z M112.254063,25.6171875 C110.910313,25.6171875 109.972813,26.6015625 109.87125,28.09375 L114.511875,28.09375 C114.480625,26.6015625 113.59,25.6171875 112.254063,25.6171875 Z M114.472813,30.8203125 L115.816563,30.8203125 C115.410313,32.265625 114.113438,33.1484375 112.269688,33.1484375 C109.93375,33.1484375 108.472813,31.4609375 108.472813,28.796875 C108.472813,26.1484375 109.957188,24.4296875 112.269688,24.4296875 C114.543125,24.4296875 115.925938,26.046875 115.925938,28.6640625 L115.925938,29.1796875 L109.87125,29.1796875 L109.87125,29.2421875 C109.941563,30.90625 110.87125,31.9609375 112.300938,31.9609375 C113.386875,31.9609375 114.12125,31.5625 114.472813,30.8203125 Z M117.52,26.8828125 C117.52,25.484375 118.871563,24.4296875 120.660625,24.4296875 C122.42625,24.4296875 123.652813,25.3046875 123.8325,26.6875 L122.504375,26.6875 C122.324688,26.015625 121.668438,25.5703125 120.652813,25.5703125 C119.652813,25.5703125 118.871563,26.078125 118.871563,26.828125 C118.871563,27.40625 119.340313,27.765625 120.3325,28.0078125 L121.629375,28.3203125 C123.215313,28.703125 123.980938,29.390625 123.980938,30.6015625 C123.980938,32.109375 122.52,33.1484375 120.605938,33.1484375 C118.730938,33.1484375 117.441875,32.25 117.293438,30.8515625 L118.67625,30.8515625 C118.902813,31.5625 119.574688,32.015625 120.652813,32.015625 C121.785625,32.015625 122.598125,31.4765625 122.598125,30.703125 C122.598125,30.125 122.160625,29.734375 121.262188,29.515625 L119.816875,29.1640625 C118.23875,28.78125 117.52,28.1015625 117.52,26.8828125 Z M125.41875,26.8828125 C125.41875,25.484375 126.770313,24.4296875 128.559375,24.4296875 C130.325,24.4296875 131.551563,25.3046875 131.73125,26.6875 L130.403125,26.6875 C130.223438,26.015625 129.567188,25.5703125 128.551563,25.5703125 C127.551563,25.5703125 126.770313,26.078125 126.770313,26.828125 C126.770313,27.40625 127.239063,27.765625 128.23125,28.0078125 L129.528125,28.3203125 C131.114063,28.703125 131.879688,29.390625 131.879688,30.6015625 C131.879688,32.109375 130.41875,33.1484375 128.504688,33.1484375 C126.629688,33.1484375 125.340625,32.25 125.192188,30.8515625 L126.575,30.8515625 C126.801563,31.5625 127.473438,32.015625 128.551563,32.015625 C129.684375,32.015625 130.496875,31.4765625 130.496875,30.703125 C130.496875,30.125 130.059375,29.734375 129.160938,29.515625 L127.715625,29.1640625 C126.1375,28.78125 125.41875,28.1015625 125.41875,26.8828125 Z M136.262813,31.96875 C137.645625,31.96875 138.669063,31.0625 138.669063,29.859375 L138.669063,29.0859375 L136.403438,29.234375 C135.122188,29.3203125 134.559688,29.765625 134.559688,30.609375 C134.559688,31.46875 135.28625,31.96875 136.262813,31.96875 Z M136.012813,33.1484375 C134.38,33.1484375 133.169063,32.1796875 133.169063,30.640625 C133.169063,29.1328125 134.278438,28.265625 136.239375,28.1484375 L138.669063,28 L138.669063,27.234375 C138.669063,26.1953125 138.020625,25.625 136.762813,25.625 C135.755,25.625 135.051875,26.0078125 134.864375,26.671875 L133.505,26.671875 C133.684688,25.3203125 135.012813,24.4296875 136.809688,24.4296875 C138.864375,24.4296875 140.012813,25.484375 140.012813,27.234375 L140.012813,33 L138.731563,33 L138.731563,31.7578125 L138.606563,31.7578125 C138.059688,32.65625 137.137813,33.1484375 136.012813,33.1484375 Z M145.583438,31.6875 C147.145938,31.6875 148.083438,30.5 148.083438,28.6640625 C148.083438,26.828125 147.138125,25.640625 145.583438,25.640625 C144.020938,25.640625 143.145938,26.828125 143.145938,28.6640625 C143.145938,30.5 144.020938,31.6875 145.583438,31.6875 Z M145.645938,36.234375 C143.614688,36.234375 142.317813,35.3203125 142.114688,33.9296875 L143.536563,33.9296875 C143.685,34.6171875 144.435,35.0625 145.645938,35.0625 C147.15375,35.0625 148.052188,34.3203125 148.052188,33.078125 L148.052188,31.421875 L147.927188,31.421875 C147.395938,32.3515625 146.442813,32.875 145.286563,32.875 C143.106875,32.875 141.755313,31.1875 141.755313,28.6640625 C141.755313,26.140625 143.1225,24.4296875 145.286563,24.4296875 C146.46625,24.4296875 147.505313,25.0078125 147.989688,25.9140625 L148.114688,25.9140625 L148.114688,24.578125 L149.395938,24.578125 L149.395938,33.1484375 C149.395938,35.03125 147.942813,36.234375 145.645938,36.234375 Z M154.966563,25.6171875 C153.622813,25.6171875 152.685313,26.6015625 152.58375,28.09375 L157.224375,28.09375 C157.193125,26.6015625 156.3025,25.6171875 154.966563,25.6171875 Z M157.185313,30.8203125 L158.529063,30.8203125 C158.122813,32.265625 156.825938,33.1484375 154.982188,33.1484375 C152.64625,33.1484375 151.185313,31.4609375 151.185313,28.796875 C151.185313,26.1484375 152.669688,24.4296875 154.982188,24.4296875 C157.255625,24.4296875 158.638438,26.046875 158.638438,28.6640625 L158.638438,29.1796875 L152.58375,29.1796875 L152.58375,29.2421875 C152.654063,30.90625 153.58375,31.9609375 155.013438,31.9609375 C156.099375,31.9609375 156.83375,31.5625 157.185313,30.8203125 Z M167.217188,31.96875 C168.6,31.96875 169.623438,31.0625 169.623438,29.859375 L169.623438,29.0859375 L167.357813,29.234375 C166.076563,29.3203125 165.514063,29.765625 165.514063,30.609375 C165.514063,31.46875 166.240625,31.96875 167.217188,31.96875 Z M166.967188,33.1484375 C165.334375,33.1484375 164.123438,32.1796875 164.123438,30.640625 C164.123438,29.1328125 165.232813,28.265625 167.19375,28.1484375 L169.623438,28 L169.623438,27.234375 C169.623438,26.1953125 168.975,25.625 167.717188,25.625 C166.709375,25.625 166.00625,26.0078125 165.81875,26.671875 L164.459375,26.671875 C164.639063,25.3203125 165.967188,24.4296875 167.764063,24.4296875 C169.81875,24.4296875 170.967188,25.484375 170.967188,27.234375 L170.967188,33 L169.685938,33 L169.685938,31.7578125 L169.560938,31.7578125 C169.014063,32.65625 168.092188,33.1484375 166.967188,33.1484375 Z M180.100313,27.15625 L178.740938,27.15625 C178.522188,26.3203125 177.78,25.640625 176.569063,25.640625 C175.053438,25.640625 174.100313,26.8515625 174.100313,28.7578125 C174.100313,30.703125 175.069063,31.9375 176.569063,31.9375 C177.701875,31.9375 178.490938,31.4140625 178.740938,30.4609375 L180.100313,30.4609375 C179.858125,32.0078125 178.600313,33.1484375 176.576875,33.1484375 C174.2175,33.1484375 172.709688,31.4375 172.709688,28.7578125 C172.709688,26.1328125 174.209688,24.4296875 176.569063,24.4296875 C178.615938,24.4296875 179.865938,25.65625 180.100313,27.15625 Z M182.483438,22.3984375 L183.827188,22.3984375 L183.827188,24.578125 L185.702188,24.578125 L185.702188,25.703125 L183.827188,25.703125 L183.827188,30.46875 C183.827188,31.4609375 184.202188,31.8828125 185.077188,31.8828125 C185.319375,31.8828125 185.452188,31.875 185.702188,31.8515625 L185.702188,32.984375 C185.436563,33.03125 185.17875,33.0625 184.913125,33.0625 C183.17875,33.0625 182.483438,32.421875 182.483438,30.8125 L182.483438,25.703125 L181.124063,25.703125 L181.124063,24.578125 L182.483438,24.578125 L182.483438,22.3984375 Z M187.444688,33 L187.444688,24.578125 L188.788438,24.578125 L188.788438,33 L187.444688,33 Z M188.116563,22.8671875 C187.600938,22.8671875 187.179063,22.4453125 187.179063,21.9296875 C187.179063,21.4140625 187.600938,20.9921875 188.116563,20.9921875 C188.632188,20.9921875 189.054063,21.4140625 189.054063,21.9296875 C189.054063,22.4453125 188.632188,22.8671875 188.116563,22.8671875 Z M194.491875,33.1484375 C192.093438,33.1484375 190.609063,31.4921875 190.609063,28.7890625 C190.609063,26.078125 192.093438,24.4296875 194.491875,24.4296875 C196.890313,24.4296875 198.374688,26.078125 198.374688,28.7890625 C198.374688,31.4921875 196.890313,33.1484375 194.491875,33.1484375 Z M194.491875,31.9375 C196.085625,31.9375 196.984063,30.78125 196.984063,28.7890625 C196.984063,26.7890625 196.085625,25.640625 194.491875,25.640625 C192.898125,25.640625 191.999688,26.7890625 191.999688,28.7890625 C191.999688,30.78125 192.898125,31.9375 194.491875,31.9375 Z M200.164063,33 L200.164063,24.578125 L201.445313,24.578125 L201.445313,25.90625 L201.570313,25.90625 C201.992188,24.9765625 202.8125,24.4296875 204.101563,24.4296875 C205.992188,24.4296875 207.046875,25.546875 207.046875,27.546875 L207.046875,33 L205.703125,33 L205.703125,27.875 C205.703125,26.359375 205.0625,25.640625 203.71875,25.640625 C202.375,25.640625 201.507813,26.5390625 201.507813,28.015625 L201.507813,33 L200.164063,33 Z M210.289375,33.078125 C209.734688,33.078125 209.27375,32.6171875 209.27375,32.0625 C209.27375,31.5 209.734688,31.046875 210.289375,31.046875 C210.851875,31.046875 211.305,31.5 211.305,32.0625 C211.305,32.6171875 210.851875,33.078125 210.289375,33.078125 Z"/>
      <g fill="#C41261" transform="translate(351 9)">
        <rect width="1" height="9"/>
        <rect width="1" height="9" x="7"/>
        <rect width="6" height="1" x="1" y="4"/>
        <path d="M11.837,4.92 L11.837,8 L10.913,8 L10.913,0.663 L12.915,0.663 C14.477,0.663 15.423,1.466 15.423,2.797 C15.423,3.622 15.049,4.282 14.367,4.645 C14.015,4.832 13.685,4.909 13.014,4.953 L15.863,8 L14.686,8 L11.837,4.92 Z M11.837,4.293 L12.761,4.293 C13.872,4.293 14.477,3.787 14.477,2.863 C14.477,1.95 13.927,1.455 12.915,1.455 L11.837,1.455 L11.837,4.293 Z M17.425,6.944 C17.755,6.944 17.997,7.186 17.997,7.527 C17.997,7.846 17.744,8.088 17.425,8.088 C17.095,8.088 16.853,7.846 16.853,7.516 C16.853,7.186 17.095,6.944 17.425,6.944 Z M17.425,3.776 C17.755,3.776 17.997,4.018 17.997,4.359 C17.997,4.678 17.744,4.92 17.425,4.92 C17.095,4.92 16.853,4.678 16.853,4.348 C16.853,4.018 17.095,3.776 17.425,3.776 Z M22.331,4.018 C22.749,4.15 22.947,4.249 23.178,4.491 C23.541,4.854 23.728,5.338 23.728,5.91 C23.728,7.208 22.771,8.132 21.429,8.132 C20.098,8.132 19.163,7.241 19.163,5.987 C19.163,5.404 19.361,4.876 19.713,4.513 C19.944,4.271 20.131,4.161 20.571,4.018 C20.186,3.886 20.021,3.776 19.823,3.534 C19.581,3.237 19.449,2.863 19.449,2.456 C19.449,1.411 20.307,0.641 21.473,0.641 C22.628,0.641 23.464,1.4 23.464,2.445 C23.464,2.863 23.321,3.259 23.057,3.567 C22.859,3.787 22.705,3.886 22.331,4.018 Z M21.473,1.411 C20.769,1.411 20.285,1.851 20.285,2.467 C20.285,3.094 20.802,3.589 21.451,3.589 C22.078,3.589 22.639,3.072 22.639,2.478 C22.639,1.906 22.1,1.411 21.473,1.411 Z M21.462,4.48 C20.67,4.48 20.032,5.107 20.032,5.899 C20.032,6.68 20.659,7.318 21.44,7.318 C22.221,7.318 22.848,6.68 22.848,5.899 C22.848,5.129 22.221,4.48 21.462,4.48 Z M25.037,2.929 L25.873,2.929 L25.873,3.853 C26.357,3.105 26.874,2.808 27.721,2.808 C29.129,2.808 30.108,3.886 30.108,5.426 C30.108,7.021 29.129,8.121 27.721,8.121 C27.325,8.121 26.962,8.033 26.61,7.857 C26.302,7.703 26.148,7.571 25.873,7.208 L25.873,10.376 L25.037,10.376 L25.037,2.929 Z M27.578,3.556 C26.566,3.556 25.873,4.359 25.873,5.547 C25.873,6.658 26.544,7.395 27.545,7.395 C28.546,7.395 29.217,6.614 29.217,5.459 C29.217,4.865 29.074,4.414 28.777,4.084 C28.48,3.754 28.029,3.556 27.578,3.556 Z M32.99,6.163 L31.637,8 L30.614,8 L32.484,5.481 L30.581,2.929 L31.637,2.929 L32.99,4.788 L34.376,2.929 L35.399,2.929 L33.485,5.481 L35.311,8 L34.288,8 L32.99,6.163 Z M41.658,10.046 L41.108,10.574 C39.81,8.979 39.216,7.428 39.216,5.58 C39.216,3.688 39.909,1.818 41.13,0.443 L41.658,0.993 C40.547,2.368 39.997,3.897 39.997,5.547 C39.997,7.153 40.591,8.759 41.658,10.046 Z M43.814,3.666 L43.814,8 L42.978,8 L42.978,3.666 L42.285,3.666 L42.285,2.929 L42.978,2.929 L42.978,2.247 C42.978,1.246 43.495,0.652 44.375,0.652 C44.419,0.652 44.518,0.652 44.606,0.663 L44.606,1.411 C44.001,1.477 43.836,1.653 43.814,2.247 L43.814,2.929 L44.606,2.929 L44.606,3.666 L43.814,3.666 Z M46.806,2.929 L46.806,8 L45.97,8 L45.97,2.929 L46.806,2.929 Z M46.388,0.96 C46.685,0.96 46.916,1.202 46.916,1.51 C46.916,1.807 46.685,2.038 46.388,2.038 C46.08,2.038 45.849,1.807 45.849,1.499 C45.849,1.191 46.08,0.96 46.388,0.96 Z M50.106,6.163 L48.753,8 L47.73,8 L49.6,5.481 L47.697,2.929 L48.753,2.929 L50.106,4.788 L51.492,2.929 L52.515,2.929 L50.601,5.481 L52.427,8 L51.404,8 L50.106,6.163 Z M58.103,5.734 L53.879,5.734 C53.923,6.163 54,6.383 54.209,6.658 C54.539,7.109 55.023,7.351 55.573,7.351 C56.2,7.351 56.794,7.01 57.091,6.482 L57.828,6.757 C57.41,7.604 56.541,8.121 55.573,8.121 C54.066,8.121 52.988,7.021 52.988,5.481 C52.988,3.919 54.055,2.808 55.54,2.808 C57.014,2.808 58.114,3.919 58.114,5.404 C58.114,5.47 58.114,5.613 58.103,5.734 Z M53.89,5.118 L57.223,5.118 C57.19,4.722 57.113,4.502 56.937,4.249 C56.618,3.82 56.101,3.556 55.54,3.556 C54.979,3.556 54.473,3.82 54.176,4.26 C54.022,4.502 53.956,4.711 53.89,5.118 Z M63.119,3.699 L63.119,0.663 L63.955,0.663 L63.955,8 L63.119,8 L63.119,7.131 C62.613,7.824 62.074,8.121 61.304,8.121 C59.907,8.121 58.917,7.032 58.917,5.492 C58.917,3.952 59.929,2.808 61.304,2.808 C62.052,2.808 62.624,3.083 63.119,3.699 Z M61.48,3.556 C60.479,3.556 59.797,4.348 59.797,5.503 C59.797,6.614 60.468,7.395 61.425,7.395 C62.404,7.395 63.119,6.581 63.119,5.481 C63.119,4.337 62.448,3.556 61.48,3.556 Z M65.187,0.971 L65.737,0.443 C67.046,2.049 67.629,3.589 67.629,5.437 C67.629,7.34 66.936,9.188 65.715,10.574 L65.187,10.024 C66.298,8.649 66.848,7.12 66.848,5.47 C66.848,3.853 66.265,2.269 65.187,0.971 Z"/>
      </g>
      <use fill-rule="nonzero" stroke="#F897BF" stroke-dasharray="1" stroke-width="2" mask="url(#2-e)" transform="translate(283 6)" xlink:href="#2-b"/>
      <g fill="#F897BF" transform="translate(222 4)">
        <g transform="translate(52 2)">
          <rect width="1" height="9"/>
          <rect width="1" height="9" x="8"/>
          <rect width="7" height="1" x="1" y="4"/>
        </g>
        <path d="M1.581,7.164 L4.166,7.164 L4.166,8 L0.657,8 L0.657,0.663 L1.581,0.663 L1.581,7.164 Z M5.706,6.944 C6.036,6.944 6.278,7.186 6.278,7.527 C6.278,7.846 6.025,8.088 5.706,8.088 C5.376,8.088 5.134,7.846 5.134,7.516 C5.134,7.186 5.376,6.944 5.706,6.944 Z M5.706,3.776 C6.036,3.776 6.278,4.018 6.278,4.359 C6.278,4.678 6.025,4.92 5.706,4.92 C5.376,4.92 5.134,4.678 5.134,4.348 C5.134,4.018 5.376,3.776 5.706,3.776 Z M10.612,4.018 C11.03,4.15 11.228,4.249 11.459,4.491 C11.822,4.854 12.009,5.338 12.009,5.91 C12.009,7.208 11.052,8.132 9.71,8.132 C8.379,8.132 7.444,7.241 7.444,5.987 C7.444,5.404 7.642,4.876 7.994,4.513 C8.225,4.271 8.412,4.161 8.852,4.018 C8.467,3.886 8.302,3.776 8.104,3.534 C7.862,3.237 7.73,2.863 7.73,2.456 C7.73,1.411 8.588,0.641 9.754,0.641 C10.909,0.641 11.745,1.4 11.745,2.445 C11.745,2.863 11.602,3.259 11.338,3.567 C11.14,3.787 10.986,3.886 10.612,4.018 Z M9.754,1.411 C9.05,1.411 8.566,1.851 8.566,2.467 C8.566,3.094 9.083,3.589 9.732,3.589 C10.359,3.589 10.92,3.072 10.92,2.478 C10.92,1.906 10.381,1.411 9.754,1.411 Z M9.743,4.48 C8.951,4.48 8.313,5.107 8.313,5.899 C8.313,6.68 8.94,7.318 9.721,7.318 C10.502,7.318 11.129,6.68 11.129,5.899 C11.129,5.129 10.502,4.48 9.743,4.48 Z M13.318,2.929 L14.154,2.929 L14.154,3.853 C14.638,3.105 15.155,2.808 16.002,2.808 C17.41,2.808 18.389,3.886 18.389,5.426 C18.389,7.021 17.41,8.121 16.002,8.121 C15.606,8.121 15.243,8.033 14.891,7.857 C14.583,7.703 14.429,7.571 14.154,7.208 L14.154,10.376 L13.318,10.376 L13.318,2.929 Z M15.859,3.556 C14.847,3.556 14.154,4.359 14.154,5.547 C14.154,6.658 14.825,7.395 15.826,7.395 C16.827,7.395 17.498,6.614 17.498,5.459 C17.498,4.865 17.355,4.414 17.058,4.084 C16.761,3.754 16.31,3.556 15.859,3.556 Z M21.271,6.163 L19.918,8 L18.895,8 L20.765,5.481 L18.862,2.929 L19.918,2.929 L21.271,4.788 L22.657,2.929 L23.68,2.929 L21.766,5.481 L23.592,8 L22.569,8 L21.271,6.163 Z M29.939,10.046 L29.389,10.574 C28.091,8.979 27.497,7.428 27.497,5.58 C27.497,3.688 28.19,1.818 29.411,0.443 L29.939,0.993 C28.828,2.368 28.278,3.897 28.278,5.547 C28.278,7.153 28.872,8.759 29.939,10.046 Z M31.171,2.929 L32.007,2.929 L32.007,3.633 C32.392,3.05 32.821,2.808 33.448,2.808 C34.141,2.808 34.581,3.105 34.812,3.732 C35.186,3.083 35.659,2.808 36.418,2.808 C37.001,2.808 37.441,2.995 37.705,3.347 C37.947,3.666 38.013,3.952 38.013,4.755 L38.013,8 L37.177,8 L37.177,4.953 C37.177,4.337 37.155,4.194 37.034,3.985 C36.88,3.721 36.55,3.556 36.154,3.556 C35.417,3.556 35.01,4.051 35.01,4.953 L35.01,8 L34.174,8 L34.174,4.964 C34.174,4.469 34.13,4.216 34.009,3.996 C33.866,3.71 33.558,3.556 33.184,3.556 C32.447,3.556 32.007,4.084 32.007,4.964 L32.007,8 L31.171,8 L31.171,2.929 Z M40.499,2.929 L40.499,8 L39.663,8 L39.663,2.929 L40.499,2.929 Z M40.092,0.96 C40.389,0.96 40.62,1.202 40.62,1.51 C40.62,1.807 40.378,2.038 40.081,2.038 C39.784,2.038 39.553,1.807 39.553,1.499 C39.553,1.191 39.784,0.96 40.092,0.96 Z M42.182,2.929 L43.018,2.929 L43.018,3.644 C43.458,3.05 43.898,2.808 44.525,2.808 C44.987,2.808 45.405,2.962 45.702,3.226 C46.021,3.534 46.131,3.886 46.131,4.579 L46.131,8 L45.295,8 L45.295,4.766 C45.295,4.315 45.24,4.073 45.108,3.897 C44.954,3.688 44.657,3.556 44.316,3.556 C43.942,3.556 43.601,3.699 43.348,3.985 C43.106,4.249 43.018,4.491 43.018,4.909 L43.018,8 L42.182,8 L42.182,2.929 Z M47.33,0.971 L47.88,0.443 C49.189,2.049 49.772,3.589 49.772,5.437 C49.772,7.34 49.079,9.188 47.858,10.574 L47.33,10.024 C48.441,8.649 48.991,7.12 48.991,5.47 C48.991,3.853 48.408,2.269 47.33,0.971 Z"/>
      </g>
      <use fill-rule="nonzero" stroke="#6FEAD9" stroke-dasharray="1" stroke-width="2" mask="url(#2-f)" transform="translate(16 21)" xlink:href="#2-c"/>
      <g transform="translate(293 68)">
        <g transform="translate(0 .48)">
          <polyline stroke="#979797" stroke-linecap="round" stroke-linejoin="round" points=".96 4.8 6.128 0 6.128 0 11.295 4.8" transform="rotate(180 6.128 2.4)"/>
          <polyline stroke="#979797" stroke-linecap="round" stroke-linejoin="round" points=".96 11.04 6.128 6.24 6.128 6.24 11.295 11.04" transform="matrix(-1 0 0 1 12.255 0)"/>
          <path stroke="#C41261" d="M0.1875,5.52 L11.8125,5.52"/>
        </g>
        <path fill="#C41261" d="M20.0835,3.929 L20.9525,3.929 L19.0385,9 L18.1585,9 L16.2995,3.929 L17.1795,3.929 L18.6095,7.801 L20.0835,3.929 Z M22.2835,7.944 C22.6135,7.944 22.8555,8.186 22.8555,8.527 C22.8555,8.846 22.6025,9.088 22.2835,9.088 C21.9535,9.088 21.7115,8.846 21.7115,8.516 C21.7115,8.186 21.9535,7.944 22.2835,7.944 Z M27.8275,7.801 L28.3445,8.373 C27.7725,8.89 27.2115,9.121 26.4745,9.121 C25.0225,9.121 23.9885,8.021 23.9885,6.481 C23.9885,4.908 25.0335,3.808 26.5185,3.808 C27.2445,3.808 27.8385,4.05 28.3665,4.567 L27.8275,5.106 C27.4425,4.754 27.0135,4.578 26.5405,4.578 C25.5395,4.578 24.8465,5.348 24.8465,6.448 C24.8465,7.57 25.5395,8.351 26.5295,8.351 C27.0245,8.351 27.4205,8.186 27.8275,7.801 Z M34.1305,6.734 L29.9065,6.734 C29.9505,7.163 30.0275,7.383 30.2365,7.658 C30.5665,8.109 31.0505,8.351 31.6005,8.351 C32.2275,8.351 32.8215,8.01 33.1185,7.482 L33.8555,7.757 C33.4375,8.604 32.5685,9.121 31.6005,9.121 C30.0935,9.121 29.0155,8.021 29.0155,6.481 C29.0155,4.919 30.0825,3.808 31.5675,3.808 C33.0415,3.808 34.1415,4.919 34.1415,6.404 C34.1415,6.47 34.1415,6.613 34.1305,6.734 Z M29.9175,6.118 L33.2505,6.118 C33.2175,5.722 33.1405,5.502 32.9645,5.249 C32.6455,4.82 32.1285,4.556 31.5675,4.556 C31.0065,4.556 30.5005,4.82 30.2035,5.26 C30.0495,5.502 29.9835,5.711 29.9175,6.118 Z M35.3515,3.929 L36.1875,3.929 L36.1875,4.644 C36.6275,4.05 37.0675,3.808 37.6945,3.808 C38.1565,3.808 38.5745,3.962 38.8715,4.226 C39.1905,4.534 39.3005,4.886 39.3005,5.579 L39.3005,9 L38.4645,9 L38.4645,5.766 C38.4645,5.315 38.4095,5.073 38.2775,4.897 C38.1235,4.688 37.8265,4.556 37.4855,4.556 C37.1115,4.556 36.7705,4.699 36.5175,4.985 C36.2755,5.249 36.1875,5.491 36.1875,5.909 L36.1875,9 L35.3515,9 L35.3515,3.929 Z M41.8415,4.666 L41.8415,7.966 C41.8525,8.219 41.9185,8.274 42.2265,8.274 L42.6115,8.274 L42.6115,9 L41.8305,9 C41.2365,8.989 41.0055,8.769 41.0055,8.208 L41.0055,4.666 L40.3015,4.666 L40.3015,3.929 L41.0055,3.929 L41.0055,2.334 L41.8415,2.334 L41.8415,3.929 L42.6115,3.929 L42.6115,4.666 L41.8415,4.666 Z M48.5075,6.734 L44.2835,6.734 C44.3275,7.163 44.4045,7.383 44.6135,7.658 C44.9435,8.109 45.4275,8.351 45.9775,8.351 C46.6045,8.351 47.1985,8.01 47.4955,7.482 L48.2325,7.757 C47.8145,8.604 46.9455,9.121 45.9775,9.121 C44.4705,9.121 43.3925,8.021 43.3925,6.481 C43.3925,4.919 44.4595,3.808 45.9445,3.808 C47.4185,3.808 48.5185,4.919 48.5185,6.404 C48.5185,6.47 48.5185,6.613 48.5075,6.734 Z M44.2945,6.118 L47.6275,6.118 C47.5945,5.722 47.5175,5.502 47.3415,5.249 C47.0225,4.82 46.5055,4.556 45.9445,4.556 C45.3835,4.556 44.8775,4.82 44.5805,5.26 C44.4265,5.502 44.3605,5.711 44.2945,6.118 Z M49.7285,3.929 L50.5645,3.929 L50.5645,4.787 C50.7185,4.424 50.8285,4.27 51.0265,4.116 C51.2795,3.918 51.6315,3.808 51.9945,3.808 L52.1925,3.808 L52.1925,4.655 C52.1045,4.644 52.0165,4.644 51.9615,4.644 C51.5105,4.644 51.1145,4.853 50.8615,5.227 C50.6415,5.546 50.5645,5.843 50.5645,6.426 L50.5645,9 L49.7285,9 L49.7285,3.929 Z M57.3625,8.131 L57.3625,9 L56.5265,9 L56.5265,1.663 L57.3625,1.663 L57.3625,4.798 C57.8685,4.105 58.4075,3.808 59.1445,3.808 C60.5635,3.808 61.5535,4.908 61.5535,6.481 C61.5535,8.032 60.5745,9.121 59.1885,9.121 C58.4075,9.121 57.8575,8.824 57.3625,8.131 Z M59.0345,4.556 C58.0665,4.556 57.3515,5.359 57.3515,6.47 C57.3515,7.625 58.0115,8.395 59.0015,8.395 C60.0025,8.395 60.6735,7.636 60.6735,6.503 C60.6735,5.37 59.9915,4.556 59.0345,4.556 Z M65.7775,3.929 L66.6245,3.929 L66.6245,7.174 C66.6245,7.867 66.4925,8.252 66.1185,8.593 C65.7445,8.934 65.2275,9.121 64.6555,9.121 C64.0835,9.121 63.5555,8.923 63.1925,8.582 C62.8515,8.252 62.6865,7.79 62.6865,7.174 L62.6865,3.929 L63.5225,3.929 L63.5225,7.152 C63.5225,7.867 63.9845,8.373 64.6555,8.373 C65.0075,8.373 65.3485,8.23 65.5575,7.988 C65.7225,7.79 65.7775,7.581 65.7775,7.174 L65.7775,3.929 Z M69.0555,4.666 L69.0555,7.966 C69.0665,8.219 69.1325,8.274 69.4405,8.274 L69.8255,8.274 L69.8255,9 L69.0445,9 C68.4505,8.989 68.2195,8.769 68.2195,8.208 L68.2195,4.666 L67.5155,4.666 L67.5155,3.929 L68.2195,3.929 L68.2195,2.334 L69.0555,2.334 L69.0555,3.929 L69.8255,3.929 L69.8255,4.666 L69.0555,4.666 Z M71.9045,4.666 L71.9045,7.966 C71.9155,8.219 71.9815,8.274 72.2895,8.274 L72.6745,8.274 L72.6745,9 L71.8935,9 C71.2995,8.989 71.0685,8.769 71.0685,8.208 L71.0685,4.666 L70.3645,4.666 L70.3645,3.929 L71.0685,3.929 L71.0685,2.334 L71.9045,2.334 L71.9045,3.929 L72.6745,3.929 L72.6745,4.666 L71.9045,4.666 Z M76.0515,3.808 C77.5475,3.808 78.6145,4.919 78.6145,6.481 C78.6145,7.966 77.4705,9.121 76.0185,9.121 C74.5115,9.121 73.4555,8.021 73.4555,6.459 C73.4555,4.886 74.5115,3.808 76.0515,3.808 Z M76.0515,4.578 C75.0065,4.578 74.3135,5.337 74.3135,6.47 C74.3135,7.592 75.0065,8.351 76.0405,8.351 C77.0415,8.351 77.7565,7.57 77.7565,6.47 C77.7565,5.337 77.0745,4.578 76.0515,4.578 Z M79.8905,3.929 L80.7265,3.929 L80.7265,4.644 C81.1665,4.05 81.6065,3.808 82.2335,3.808 C82.6955,3.808 83.1135,3.962 83.4105,4.226 C83.7295,4.534 83.8395,4.886 83.8395,5.579 L83.8395,9 L83.0035,9 L83.0035,5.766 C83.0035,5.315 82.9485,5.073 82.8165,4.897 C82.6625,4.688 82.3655,4.556 82.0245,4.556 C81.6505,4.556 81.3095,4.699 81.0565,4.985 C80.8145,5.249 80.7265,5.491 80.7265,5.909 L80.7265,9 L79.8905,9 L79.8905,3.929 Z M89.6255,3.929 L89.6255,9 L88.7895,9 L88.7895,3.929 L89.6255,3.929 Z M89.2185,1.96 C89.5155,1.96 89.7465,2.202 89.7465,2.51 C89.7465,2.807 89.5045,3.038 89.2075,3.038 C88.9105,3.038 88.6795,2.807 88.6795,2.499 C88.6795,2.191 88.9105,1.96 89.2185,1.96 Z M91.3085,3.929 L92.1445,3.929 L92.1445,4.644 C92.5845,4.05 93.0245,3.808 93.6515,3.808 C94.1135,3.808 94.5315,3.962 94.8285,4.226 C95.1475,4.534 95.2575,4.886 95.2575,5.579 L95.2575,9 L94.4215,9 L94.4215,5.766 C94.4215,5.315 94.3665,5.073 94.2345,4.897 C94.0805,4.688 93.7835,4.556 93.4425,4.556 C93.0685,4.556 92.7275,4.699 92.4745,4.985 C92.2325,5.249 92.1445,5.491 92.1445,5.909 L92.1445,9 L91.3085,9 L91.3085,3.929 Z M103.6395,7.801 L104.1565,8.373 C103.5845,8.89 103.0235,9.121 102.2865,9.121 C100.8345,9.121 99.8005,8.021 99.8005,6.481 C99.8005,4.908 100.8455,3.808 102.3305,3.808 C103.0565,3.808 103.6505,4.05 104.1785,4.567 L103.6395,5.106 C103.2545,4.754 102.8255,4.578 102.3525,4.578 C101.3515,4.578 100.6585,5.348 100.6585,6.448 C100.6585,7.57 101.3515,8.351 102.3415,8.351 C102.8365,8.351 103.2325,8.186 103.6395,7.801 Z M107.4235,3.808 C108.9195,3.808 109.9865,4.919 109.9865,6.481 C109.9865,7.966 108.8425,9.121 107.3905,9.121 C105.8835,9.121 104.8275,8.021 104.8275,6.459 C104.8275,4.886 105.8835,3.808 107.4235,3.808 Z M107.4235,4.578 C106.3785,4.578 105.6855,5.337 105.6855,6.47 C105.6855,7.592 106.3785,8.351 107.4125,8.351 C108.4135,8.351 109.1285,7.57 109.1285,6.47 C109.1285,5.337 108.4465,4.578 107.4235,4.578 Z M111.2625,3.929 L112.0985,3.929 L112.0985,4.644 C112.5385,4.05 112.9785,3.808 113.6055,3.808 C114.0675,3.808 114.4855,3.962 114.7825,4.226 C115.1015,4.534 115.2115,4.886 115.2115,5.579 L115.2115,9 L114.3755,9 L114.3755,5.766 C114.3755,5.315 114.3205,5.073 114.1885,4.897 C114.0345,4.688 113.7375,4.556 113.3965,4.556 C113.0225,4.556 112.6815,4.699 112.4285,4.985 C112.1865,5.249 112.0985,5.491 112.0985,5.909 L112.0985,9 L111.2625,9 L111.2625,3.929 Z M117.7525,4.666 L117.7525,7.966 C117.7635,8.219 117.8295,8.274 118.1375,8.274 L118.5225,8.274 L118.5225,9 L117.7415,9 C117.1475,8.989 116.9165,8.769 116.9165,8.208 L116.9165,4.666 L116.2125,4.666 L116.2125,3.929 L116.9165,3.929 L116.9165,2.334 L117.7525,2.334 L117.7525,3.929 L118.5225,3.929 L118.5225,4.666 L117.7525,4.666 Z M123.5385,4.765 L123.5385,3.929 L124.3745,3.929 L124.3745,9 L123.5385,9 L123.5385,8.021 C123.0325,8.78 122.4605,9.121 121.6905,9.121 C120.2935,9.121 119.3035,8.021 119.3035,6.481 C119.3035,4.93 120.3155,3.808 121.7125,3.808 C122.4825,3.808 123.0435,4.105 123.5385,4.765 Z M121.8335,4.556 C121.2835,4.556 120.8985,4.743 120.6015,5.161 C120.3375,5.524 120.1835,6.008 120.1835,6.503 C120.1835,7.581 120.8875,8.395 121.8115,8.395 C122.7685,8.395 123.5495,7.504 123.5495,6.415 C123.5495,5.315 122.8455,4.556 121.8335,4.556 Z M126.8935,3.929 L126.8935,9 L126.0575,9 L126.0575,3.929 L126.8935,3.929 Z M126.4865,1.96 C126.7835,1.96 127.0145,2.202 127.0145,2.51 C127.0145,2.807 126.7725,3.038 126.4755,3.038 C126.1785,3.038 125.9475,2.807 125.9475,2.499 C125.9475,2.191 126.1785,1.96 126.4865,1.96 Z M128.5765,3.929 L129.4125,3.929 L129.4125,4.644 C129.8525,4.05 130.2925,3.808 130.9195,3.808 C131.3815,3.808 131.7995,3.962 132.0965,4.226 C132.4155,4.534 132.5255,4.886 132.5255,5.579 L132.5255,9 L131.6895,9 L131.6895,5.766 C131.6895,5.315 131.6345,5.073 131.5025,4.897 C131.3485,4.688 131.0515,4.556 130.7105,4.556 C130.3365,4.556 129.9955,4.699 129.7425,4.985 C129.5005,5.249 129.4125,5.491 129.4125,5.909 L129.4125,9 L128.5765,9 L128.5765,3.929 Z M138.8835,6.734 L134.6595,6.734 C134.7035,7.163 134.7805,7.383 134.9895,7.658 C135.3195,8.109 135.8035,8.351 136.3535,8.351 C136.9805,8.351 137.5745,8.01 137.8715,7.482 L138.6085,7.757 C138.1905,8.604 137.3215,9.121 136.3535,9.121 C134.8465,9.121 133.7685,8.021 133.7685,6.481 C133.7685,4.919 134.8355,3.808 136.3205,3.808 C137.7945,3.808 138.8945,4.919 138.8945,6.404 C138.8945,6.47 138.8945,6.613 138.8835,6.734 Z M134.6705,6.118 L138.0035,6.118 C137.9705,5.722 137.8935,5.502 137.7175,5.249 C137.3985,4.82 136.8815,4.556 136.3205,4.556 C135.7595,4.556 135.2535,4.82 134.9565,5.26 C134.8025,5.502 134.7365,5.711 134.6705,6.118 Z M140.1045,3.929 L140.9405,3.929 L140.9405,4.787 C141.0945,4.424 141.2045,4.27 141.4025,4.116 C141.6555,3.918 142.0075,3.808 142.3705,3.808 L142.5685,3.808 L142.5685,4.655 C142.4805,4.644 142.3925,4.644 142.3375,4.644 C141.8865,4.644 141.4905,4.853 141.2375,5.227 C141.0175,5.546 140.9405,5.843 140.9405,6.426 L140.9405,9 L140.1045,9 L140.1045,3.929 Z"/>
      </g>
      <g transform="translate(16 66)">
        <g transform="translate(0 .48)">
          <polyline stroke="#979797" stroke-linecap="round" stroke-linejoin="round" points=".96 4.8 6.128 0 6.128 0 11.295 4.8" transform="rotate(180 6.128 2.4)"/>
          <polyline stroke="#979797" stroke-linecap="round" stroke-linejoin="round" points=".96 11.04 6.128 6.24 6.128 6.24 11.295 11.04" transform="matrix(-1 0 0 1 12.255 0)"/>
          <path stroke="#00AB9A" d="M0.1875,5.52 L11.8125,5.52"/>
        </g>
        <path fill="#00AB9A" d="M20.2985,3.929 L21.1675,3.929 L19.2535,9 L18.3735,9 L16.5145,3.929 L17.3945,3.929 L18.8245,7.801 L20.2985,3.929 Z M22.4985,7.944 C22.8285,7.944 23.0705,8.186 23.0705,8.527 C23.0705,8.846 22.8175,9.088 22.4985,9.088 C22.1685,9.088 21.9265,8.846 21.9265,8.516 C21.9265,8.186 22.1685,7.944 22.4985,7.944 Z M28.0425,7.801 L28.5595,8.373 C27.9875,8.89 27.4265,9.121 26.6895,9.121 C25.2375,9.121 24.2035,8.021 24.2035,6.481 C24.2035,4.908 25.2485,3.808 26.7335,3.808 C27.4595,3.808 28.0535,4.05 28.5815,4.567 L28.0425,5.106 C27.6575,4.754 27.2285,4.578 26.7555,4.578 C25.7545,4.578 25.0615,5.348 25.0615,6.448 C25.0615,7.57 25.7545,8.351 26.7445,8.351 C27.2395,8.351 27.6355,8.186 28.0425,7.801 Z M34.3455,6.734 L30.1215,6.734 C30.1655,7.163 30.2425,7.383 30.4515,7.658 C30.7815,8.109 31.2655,8.351 31.8155,8.351 C32.4425,8.351 33.0365,8.01 33.3335,7.482 L34.0705,7.757 C33.6525,8.604 32.7835,9.121 31.8155,9.121 C30.3085,9.121 29.2305,8.021 29.2305,6.481 C29.2305,4.919 30.2975,3.808 31.7825,3.808 C33.2565,3.808 34.3565,4.919 34.3565,6.404 C34.3565,6.47 34.3565,6.613 34.3455,6.734 Z M30.1325,6.118 L33.4655,6.118 C33.4325,5.722 33.3555,5.502 33.1795,5.249 C32.8605,4.82 32.3435,4.556 31.7825,4.556 C31.2215,4.556 30.7155,4.82 30.4185,5.26 C30.2645,5.502 30.1985,5.711 30.1325,6.118 Z M35.5665,3.929 L36.4025,3.929 L36.4025,4.644 C36.8425,4.05 37.2825,3.808 37.9095,3.808 C38.3715,3.808 38.7895,3.962 39.0865,4.226 C39.4055,4.534 39.5155,4.886 39.5155,5.579 L39.5155,9 L38.6795,9 L38.6795,5.766 C38.6795,5.315 38.6245,5.073 38.4925,4.897 C38.3385,4.688 38.0415,4.556 37.7005,4.556 C37.3265,4.556 36.9855,4.699 36.7325,4.985 C36.4905,5.249 36.4025,5.491 36.4025,5.909 L36.4025,9 L35.5665,9 L35.5665,3.929 Z M42.0565,4.666 L42.0565,7.966 C42.0675,8.219 42.1335,8.274 42.4415,8.274 L42.8265,8.274 L42.8265,9 L42.0455,9 C41.4515,8.989 41.2205,8.769 41.2205,8.208 L41.2205,4.666 L40.5165,4.666 L40.5165,3.929 L41.2205,3.929 L41.2205,2.334 L42.0565,2.334 L42.0565,3.929 L42.8265,3.929 L42.8265,4.666 L42.0565,4.666 Z M48.7225,6.734 L44.4985,6.734 C44.5425,7.163 44.6195,7.383 44.8285,7.658 C45.1585,8.109 45.6425,8.351 46.1925,8.351 C46.8195,8.351 47.4135,8.01 47.7105,7.482 L48.4475,7.757 C48.0295,8.604 47.1605,9.121 46.1925,9.121 C44.6855,9.121 43.6075,8.021 43.6075,6.481 C43.6075,4.919 44.6745,3.808 46.1595,3.808 C47.6335,3.808 48.7335,4.919 48.7335,6.404 C48.7335,6.47 48.7335,6.613 48.7225,6.734 Z M44.5095,6.118 L47.8425,6.118 C47.8095,5.722 47.7325,5.502 47.5565,5.249 C47.2375,4.82 46.7205,4.556 46.1595,4.556 C45.5985,4.556 45.0925,4.82 44.7955,5.26 C44.6415,5.502 44.5755,5.711 44.5095,6.118 Z M49.9435,3.929 L50.7795,3.929 L50.7795,4.787 C50.9335,4.424 51.0435,4.27 51.2415,4.116 C51.4945,3.918 51.8465,3.808 52.2095,3.808 L52.4075,3.808 L52.4075,4.655 C52.3195,4.644 52.2315,4.644 52.1765,4.644 C51.7255,4.644 51.3295,4.853 51.0765,5.227 C50.8565,5.546 50.7795,5.843 50.7795,6.426 L50.7795,9 L49.9435,9 L49.9435,3.929 Z M57.6325,4.666 L57.6325,7.966 C57.6435,8.219 57.7095,8.274 58.0175,8.274 L58.4025,8.274 L58.4025,9 L57.6215,9 C57.0275,8.989 56.7965,8.769 56.7965,8.208 L56.7965,4.666 L56.0925,4.666 L56.0925,3.929 L56.7965,3.929 L56.7965,2.334 L57.6325,2.334 L57.6325,3.929 L58.4025,3.929 L58.4025,4.666 L57.6325,4.666 Z M64.2985,6.734 L60.0745,6.734 C60.1185,7.163 60.1955,7.383 60.4045,7.658 C60.7345,8.109 61.2185,8.351 61.7685,8.351 C62.3955,8.351 62.9895,8.01 63.2865,7.482 L64.0235,7.757 C63.6055,8.604 62.7365,9.121 61.7685,9.121 C60.2615,9.121 59.1835,8.021 59.1835,6.481 C59.1835,4.919 60.2505,3.808 61.7355,3.808 C63.2095,3.808 64.3095,4.919 64.3095,6.404 C64.3095,6.47 64.3095,6.613 64.2985,6.734 Z M60.0855,6.118 L63.4185,6.118 C63.3855,5.722 63.3085,5.502 63.1325,5.249 C62.8135,4.82 62.2965,4.556 61.7355,4.556 C61.1745,4.556 60.6685,4.82 60.3715,5.26 C60.2175,5.502 60.1515,5.711 60.0855,6.118 Z M67.1365,7.163 L65.7835,9 L64.7605,9 L66.6305,6.481 L64.7275,3.929 L65.7835,3.929 L67.1365,5.788 L68.5225,3.929 L69.5455,3.929 L67.6315,6.481 L69.4575,9 L68.4345,9 L67.1365,7.163 Z M71.3165,4.666 L71.3165,7.966 C71.3275,8.219 71.3935,8.274 71.7015,8.274 L72.0865,8.274 L72.0865,9 L71.3055,9 C70.7115,8.989 70.4805,8.769 70.4805,8.208 L70.4805,4.666 L69.7765,4.666 L69.7765,3.929 L70.4805,3.929 L70.4805,2.334 L71.3165,2.334 L71.3165,3.929 L72.0865,3.929 L72.0865,4.666 L71.3165,4.666 Z M77.4105,3.929 L77.4105,9 L76.5745,9 L76.5745,3.929 L77.4105,3.929 Z M77.0035,1.96 C77.3005,1.96 77.5315,2.202 77.5315,2.51 C77.5315,2.807 77.2895,3.038 76.9925,3.038 C76.6955,3.038 76.4645,2.807 76.4645,2.499 C76.4645,2.191 76.6955,1.96 77.0035,1.96 Z M79.0935,3.929 L79.9295,3.929 L79.9295,4.644 C80.3695,4.05 80.8095,3.808 81.4365,3.808 C81.8985,3.808 82.3165,3.962 82.6135,4.226 C82.9325,4.534 83.0425,4.886 83.0425,5.579 L83.0425,9 L82.2065,9 L82.2065,5.766 C82.2065,5.315 82.1515,5.073 82.0195,4.897 C81.8655,4.688 81.5685,4.556 81.2275,4.556 C80.8535,4.556 80.5125,4.699 80.2595,4.985 C80.0175,5.249 79.9295,5.491 79.9295,5.909 L79.9295,9 L79.0935,9 L79.0935,3.929 Z M91.4245,7.801 L91.9415,8.373 C91.3695,8.89 90.8085,9.121 90.0715,9.121 C88.6195,9.121 87.5855,8.021 87.5855,6.481 C87.5855,4.908 88.6305,3.808 90.1155,3.808 C90.8415,3.808 91.4355,4.05 91.9635,4.567 L91.4245,5.106 C91.0395,4.754 90.6105,4.578 90.1375,4.578 C89.1365,4.578 88.4435,5.348 88.4435,6.448 C88.4435,7.57 89.1365,8.351 90.1265,8.351 C90.6215,8.351 91.0175,8.186 91.4245,7.801 Z M95.2085,3.808 C96.7045,3.808 97.7715,4.919 97.7715,6.481 C97.7715,7.966 96.6275,9.121 95.1755,9.121 C93.6685,9.121 92.6125,8.021 92.6125,6.459 C92.6125,4.886 93.6685,3.808 95.2085,3.808 Z M95.2085,4.578 C94.1635,4.578 93.4705,5.337 93.4705,6.47 C93.4705,7.592 94.1635,8.351 95.1975,8.351 C96.1985,8.351 96.9135,7.57 96.9135,6.47 C96.9135,5.337 96.2315,4.578 95.2085,4.578 Z M99.0475,3.929 L99.8835,3.929 L99.8835,4.644 C100.3235,4.05 100.7635,3.808 101.3905,3.808 C101.8525,3.808 102.2705,3.962 102.5675,4.226 C102.8865,4.534 102.9965,4.886 102.9965,5.579 L102.9965,9 L102.1605,9 L102.1605,5.766 C102.1605,5.315 102.1055,5.073 101.9735,4.897 C101.8195,4.688 101.5225,4.556 101.1815,4.556 C100.8075,4.556 100.4665,4.699 100.2135,4.985 C99.9715,5.249 99.8835,5.491 99.8835,5.909 L99.8835,9 L99.0475,9 L99.0475,3.929 Z M105.5375,4.666 L105.5375,7.966 C105.5485,8.219 105.6145,8.274 105.9225,8.274 L106.3075,8.274 L106.3075,9 L105.5265,9 C104.9325,8.989 104.7015,8.769 104.7015,8.208 L104.7015,4.666 L103.9975,4.666 L103.9975,3.929 L104.7015,3.929 L104.7015,2.334 L105.5375,2.334 L105.5375,3.929 L106.3075,3.929 L106.3075,4.666 L105.5375,4.666 Z M111.3235,4.765 L111.3235,3.929 L112.1595,3.929 L112.1595,9 L111.3235,9 L111.3235,8.021 C110.8175,8.78 110.2455,9.121 109.4755,9.121 C108.0785,9.121 107.0885,8.021 107.0885,6.481 C107.0885,4.93 108.1005,3.808 109.4975,3.808 C110.2675,3.808 110.8285,4.105 111.3235,4.765 Z M109.6185,4.556 C109.0685,4.556 108.6835,4.743 108.3865,5.161 C108.1225,5.524 107.9685,6.008 107.9685,6.503 C107.9685,7.581 108.6725,8.395 109.5965,8.395 C110.5535,8.395 111.3345,7.504 111.3345,6.415 C111.3345,5.315 110.6305,4.556 109.6185,4.556 Z M114.6785,3.929 L114.6785,9 L113.8425,9 L113.8425,3.929 L114.6785,3.929 Z M114.2715,1.96 C114.5685,1.96 114.7995,2.202 114.7995,2.51 C114.7995,2.807 114.5575,3.038 114.2605,3.038 C113.9635,3.038 113.7325,2.807 113.7325,2.499 C113.7325,2.191 113.9635,1.96 114.2715,1.96 Z M116.3615,3.929 L117.1975,3.929 L117.1975,4.644 C117.6375,4.05 118.0775,3.808 118.7045,3.808 C119.1665,3.808 119.5845,3.962 119.8815,4.226 C120.2005,4.534 120.3105,4.886 120.3105,5.579 L120.3105,9 L119.4745,9 L119.4745,5.766 C119.4745,5.315 119.4195,5.073 119.2875,4.897 C119.1335,4.688 118.8365,4.556 118.4955,4.556 C118.1215,4.556 117.7805,4.699 117.5275,4.985 C117.2855,5.249 117.1975,5.491 117.1975,5.909 L117.1975,9 L116.3615,9 L116.3615,3.929 Z M126.6685,6.734 L122.4445,6.734 C122.4885,7.163 122.5655,7.383 122.7745,7.658 C123.1045,8.109 123.5885,8.351 124.1385,8.351 C124.7655,8.351 125.3595,8.01 125.6565,7.482 L126.3935,7.757 C125.9755,8.604 125.1065,9.121 124.1385,9.121 C122.6315,9.121 121.5535,8.021 121.5535,6.481 C121.5535,4.919 122.6205,3.808 124.1055,3.808 C125.5795,3.808 126.6795,4.919 126.6795,6.404 C126.6795,6.47 126.6795,6.613 126.6685,6.734 Z M122.4555,6.118 L125.7885,6.118 C125.7555,5.722 125.6785,5.502 125.5025,5.249 C125.1835,4.82 124.6665,4.556 124.1055,4.556 C123.5445,4.556 123.0385,4.82 122.7415,5.26 C122.5875,5.502 122.5215,5.711 122.4555,6.118 Z M127.8895,3.929 L128.7255,3.929 L128.7255,4.787 C128.8795,4.424 128.9895,4.27 129.1875,4.116 C129.4405,3.918 129.7925,3.808 130.1555,3.808 L130.3535,3.808 L130.3535,4.655 C130.2655,4.644 130.1775,4.644 130.1225,4.644 C129.6715,4.644 129.2755,4.853 129.0225,5.227 C128.8025,5.546 128.7255,5.843 128.7255,6.426 L128.7255,9 L127.8895,9 L127.8895,3.929 Z"/>
      </g>
    </g>
  </g>
</svg>
