<svg xmlns="http://www.w3.org/2000/svg" xmlns:xlink="http://www.w3.org/1999/xlink" width="580" height="360" viewBox="0 0 580 360">
  <defs>
    <rect id="2-a" width="51" height="14" x="0" y="0"/>
    <mask id="2-d" width="51" height="14" x="0" y="0" fill="#fff" maskContentUnits="userSpaceOnUse" maskUnits="objectBoundingBox">
      <use xlink:href="#2-a"/>
    </mask>
    <rect id="2-b" width="61" height="44" x="0" y="0"/>
    <mask id="2-e" width="61" height="44" x="0" y="0" fill="#fff" maskContentUnits="userSpaceOnUse" maskUnits="objectBoundingBox">
      <use xlink:href="#2-b"/>
    </mask>
    <rect id="2-c" width="267" height="16" x="0" y="0"/>
    <mask id="2-f" width="267" height="16" x="0" y="0" fill="#fff" maskContentUnits="userSpaceOnUse" maskUnits="objectBoundingBox">
      <use xlink:href="#2-c"/>
    </mask>
  </defs>
  <g fill="none" fill-rule="evenodd">
    <rect width="580" height="360" fill="#FFF" fill-opacity=".01" fill-rule="nonzero"/>
    <rect width="580" height="360" fill="#FFF" fill-opacity=".01" fill-rule="nonzero"/>
    <g transform="translate(163 220)">
      <g fill="#C41261" transform="translate(86 19)">
        <rect width="1" height="42" x="4" y="1"/>
        <rect width="9" height="1"/>
        <rect width="9" height="1" y="43"/>
      </g>
      <path fill="#C41261" d="M168.63 30.018C169.048 30.15 169.246 30.249 169.477 30.491 169.84 30.854 170.027 31.338 170.027 31.91 170.027 33.208 169.07 34.132 167.728 34.132 166.397 34.132 165.462 33.241 165.462 31.987 165.462 31.404 165.66 30.876 166.012 30.513 166.243 30.271 166.43 30.161 166.87 30.018 166.485 29.886 166.32 29.776 166.122 29.534 165.88 29.237 165.748 28.863 165.748 28.456 165.748 27.411 166.606 26.641 167.772 26.641 168.927 26.641 169.763 27.4 169.763 28.445 169.763 28.863 169.62 29.259 169.356 29.567 169.158 29.787 169.004 29.886 168.63 30.018zM167.772 27.411C167.068 27.411 166.584 27.851 166.584 28.467 166.584 29.094 167.101 29.589 167.75 29.589 168.377 29.589 168.938 29.072 168.938 28.478 168.938 27.906 168.399 27.411 167.772 27.411zM167.761 30.48C166.969 30.48 166.331 31.107 166.331 31.899 166.331 32.68 166.958 33.318 167.739 33.318 168.52 33.318 169.147 32.68 169.147 31.899 169.147 31.129 168.52 30.48 167.761 30.48zM171.336 28.929L172.172 28.929 172.172 29.853C172.656 29.105 173.173 28.808 174.02 28.808 175.428 28.808 176.407 29.886 176.407 31.426 176.407 33.021 175.428 34.121 174.02 34.121 173.624 34.121 173.261 34.033 172.909 33.857 172.601 33.703 172.447 33.571 172.172 33.208L172.172 36.376 171.336 36.376 171.336 28.929zM173.877 29.556C172.865 29.556 172.172 30.359 172.172 31.547 172.172 32.658 172.843 33.395 173.844 33.395 174.845 33.395 175.516 32.614 175.516 31.459 175.516 30.865 175.373 30.414 175.076 30.084 174.779 29.754 174.328 29.556 173.877 29.556zM179.289 32.163L177.936 34 176.913 34 178.783 31.481 176.88 28.929 177.936 28.929 179.289 30.788 180.675 28.929 181.698 28.929 179.784 31.481 181.61 34 180.587 34 179.289 32.163zM186.714 26.663L186.714 29.633C187.176 29.061 187.638 28.808 188.243 28.808 188.683 28.808 189.145 28.984 189.42 29.27 189.695 29.545 189.816 29.941 189.816 30.59L189.816 34 188.98 34 188.98 30.634C188.98 29.941 188.639 29.556 188.034 29.556 187.649 29.556 187.308 29.71 187.044 30.007 186.791 30.293 186.714 30.546 186.714 31.03L186.714 34 185.878 34 185.878 26.663 186.714 26.663zM193.655 28.808C195.151 28.808 196.218 29.919 196.218 31.481 196.218 32.966 195.074 34.121 193.622 34.121 192.115 34.121 191.059 33.021 191.059 31.459 191.059 29.886 192.115 28.808 193.655 28.808zM193.655 29.578C192.61 29.578 191.917 30.337 191.917 31.47 191.917 32.592 192.61 33.351 193.644 33.351 194.645 33.351 195.36 32.57 195.36 31.47 195.36 30.337 194.678 29.578 193.655 29.578zM197.494 28.929L198.33 28.929 198.33 29.787C198.484 29.424 198.594 29.27 198.792 29.116 199.045 28.918 199.397 28.808 199.76 28.808L199.958 28.808 199.958 29.655C199.87 29.644 199.782 29.644 199.727 29.644 199.276 29.644 198.88 29.853 198.627 30.227 198.407 30.546 198.33 30.843 198.33 31.426L198.33 34 197.494 34 197.494 28.929zM201.828 28.929L201.828 34 200.992 34 200.992 28.929 201.828 28.929zM201.421 26.96C201.718 26.96 201.949 27.202 201.949 27.51 201.949 27.807 201.707 28.038 201.41 28.038 201.113 28.038 200.882 27.807 200.882 27.499 200.882 27.191 201.113 26.96 201.421 26.96zM204.325 33.263L206.657 33.263 206.657 34 202.917 34 205.557 29.666 203.203 29.666 203.203 28.929 206.932 28.929 204.325 33.263zM210.111 28.808C211.607 28.808 212.674 29.919 212.674 31.481 212.674 32.966 211.53 34.121 210.078 34.121 208.571 34.121 207.515 33.021 207.515 31.459 207.515 29.886 208.571 28.808 210.111 28.808zM210.111 29.578C209.066 29.578 208.373 30.337 208.373 31.47 208.373 32.592 209.066 33.351 210.1 33.351 211.101 33.351 211.816 32.57 211.816 31.47 211.816 30.337 211.134 29.578 210.111 29.578zM213.95 28.929L214.786 28.929 214.786 29.644C215.226 29.05 215.666 28.808 216.293 28.808 216.755 28.808 217.173 28.962 217.47 29.226 217.789 29.534 217.899 29.886 217.899 30.579L217.899 34 217.063 34 217.063 30.766C217.063 30.315 217.008 30.073 216.876 29.897 216.722 29.688 216.425 29.556 216.084 29.556 215.71 29.556 215.369 29.699 215.116 29.985 214.874 30.249 214.786 30.491 214.786 30.909L214.786 34 213.95 34 213.95 28.929zM220.44 29.666L220.44 32.966C220.451 33.219 220.517 33.274 220.825 33.274L221.21 33.274 221.21 34 220.429 34C219.835 33.989 219.604 33.769 219.604 33.208L219.604 29.666 218.9 29.666 218.9 28.929 219.604 28.929 219.604 27.334 220.44 27.334 220.44 28.929 221.21 28.929 221.21 29.666 220.44 29.666zM226.226 29.765L226.226 28.929 227.062 28.929 227.062 34 226.226 34 226.226 33.021C225.72 33.78 225.148 34.121 224.378 34.121 222.981 34.121 221.991 33.021 221.991 31.481 221.991 29.93 223.003 28.808 224.4 28.808 225.17 28.808 225.731 29.105 226.226 29.765zM224.521 29.556C223.971 29.556 223.586 29.743 223.289 30.161 223.025 30.524 222.871 31.008 222.871 31.503 222.871 32.581 223.575 33.395 224.499 33.395 225.456 33.395 226.237 32.504 226.237 31.415 226.237 30.315 225.533 29.556 224.521 29.556zM229.581 34L228.745 34 228.745 26.663 229.581 26.663 229.581 34zM234.564 28.929L235.4 28.929 235.4 29.853C235.884 29.105 236.401 28.808 237.248 28.808 238.656 28.808 239.635 29.886 239.635 31.426 239.635 33.021 238.656 34.121 237.248 34.121 236.852 34.121 236.489 34.033 236.137 33.857 235.829 33.703 235.675 33.571 235.4 33.208L235.4 36.376 234.564 36.376 234.564 28.929zM237.105 29.556C236.093 29.556 235.4 30.359 235.4 31.547 235.4 32.658 236.071 33.395 237.072 33.395 238.073 33.395 238.744 32.614 238.744 31.459 238.744 30.865 238.601 30.414 238.304 30.084 238.007 29.754 237.556 29.556 237.105 29.556zM244.728 29.765L244.728 28.929 245.564 28.929 245.564 34 244.728 34 244.728 33.021C244.222 33.78 243.65 34.121 242.88 34.121 241.483 34.121 240.493 33.021 240.493 31.481 240.493 29.93 241.505 28.808 242.902 28.808 243.672 28.808 244.233 29.105 244.728 29.765zM243.023 29.556C242.473 29.556 242.088 29.743 241.791 30.161 241.527 30.524 241.373 31.008 241.373 31.503 241.373 32.581 242.077 33.395 243.001 33.395 243.958 33.395 244.739 32.504 244.739 31.415 244.739 30.315 244.035 29.556 243.023 29.556zM251.042 29.699L251.042 26.663 251.878 26.663 251.878 34 251.042 34 251.042 33.131C250.536 33.824 249.997 34.121 249.227 34.121 247.83 34.121 246.84 33.032 246.84 31.492 246.84 29.952 247.852 28.808 249.227 28.808 249.975 28.808 250.547 29.083 251.042 29.699zM249.403 29.556C248.402 29.556 247.72 30.348 247.72 31.503 247.72 32.614 248.391 33.395 249.348 33.395 250.327 33.395 251.042 32.581 251.042 31.481 251.042 30.337 250.371 29.556 249.403 29.556zM257.356 29.699L257.356 26.663 258.192 26.663 258.192 34 257.356 34 257.356 33.131C256.85 33.824 256.311 34.121 255.541 34.121 254.144 34.121 253.154 33.032 253.154 31.492 253.154 29.952 254.166 28.808 255.541 28.808 256.289 28.808 256.861 29.083 257.356 29.699zM255.717 29.556C254.716 29.556 254.034 30.348 254.034 31.503 254.034 32.614 254.705 33.395 255.662 33.395 256.641 33.395 257.356 32.581 257.356 31.481 257.356 30.337 256.685 29.556 255.717 29.556zM260.711 28.929L260.711 34 259.875 34 259.875 28.929 260.711 28.929zM260.304 26.96C260.601 26.96 260.832 27.202 260.832 27.51 260.832 27.807 260.59 28.038 260.293 28.038 259.996 28.038 259.765 27.807 259.765 27.499 259.765 27.191 259.996 26.96 260.304 26.96zM262.394 28.929L263.23 28.929 263.23 29.644C263.67 29.05 264.11 28.808 264.737 28.808 265.199 28.808 265.617 28.962 265.914 29.226 266.233 29.534 266.343 29.886 266.343 30.579L266.343 34 265.507 34 265.507 30.766C265.507 30.315 265.452 30.073 265.32 29.897 265.166 29.688 264.869 29.556 264.528 29.556 264.154 29.556 263.813 29.699 263.56 29.985 263.318 30.249 263.23 30.491 263.23 30.909L263.23 34 262.394 34 262.394 28.929zM271.744 29.798L271.744 28.929 272.58 28.929 272.58 34.033C272.58 34.88 272.371 35.452 271.909 35.892 271.458 36.332 270.809 36.563 270.039 36.563 269.093 36.563 268.345 36.255 267.795 35.639L268.367 35.067C268.598 35.309 268.708 35.408 268.851 35.507 269.137 35.683 269.61 35.804 270.039 35.804 270.567 35.804 271.073 35.617 271.359 35.309 271.612 35.034 271.744 34.627 271.744 34.099L271.744 33.032C271.249 33.78 270.666 34.121 269.874 34.121 268.532 34.121 267.531 32.988 267.531 31.481 267.531 30.667 267.828 29.886 268.334 29.402 268.741 29.006 269.291 28.808 269.94 28.808 270.71 28.808 271.227 29.094 271.744 29.798zM270.094 29.578C269.104 29.578 268.411 30.348 268.411 31.448 268.411 32.537 269.115 33.351 270.072 33.351 270.556 33.351 271.029 33.12 271.359 32.735 271.579 32.482 271.722 31.987 271.722 31.481 271.722 30.821 271.623 30.469 271.326 30.139 271.018 29.798 270.545 29.578 270.094 29.578zM166.672 47.131L166.672 48 165.836 48 165.836 40.663 166.672 40.663 166.672 43.798C167.178 43.105 167.717 42.808 168.454 42.808 169.873 42.808 170.863 43.908 170.863 45.481 170.863 47.032 169.884 48.121 168.498 48.121 167.717 48.121 167.167 47.824 166.672 47.131zM168.344 43.556C167.376 43.556 166.661 44.359 166.661 45.47 166.661 46.625 167.321 47.395 168.311 47.395 169.312 47.395 169.983 46.636 169.983 45.503 169.983 44.37 169.301 43.556 168.344 43.556zM174.328 42.808C175.824 42.808 176.891 43.919 176.891 45.481 176.891 46.966 175.747 48.121 174.295 48.121 172.788 48.121 171.732 47.021 171.732 45.459 171.732 43.886 172.788 42.808 174.328 42.808zM174.328 43.578C173.283 43.578 172.59 44.337 172.59 45.47 172.59 46.592 173.283 47.351 174.317 47.351 175.318 47.351 176.033 46.57 176.033 45.47 176.033 44.337 175.351 43.578 174.328 43.578zM179.058 43.666L179.058 46.966C179.069 47.219 179.135 47.274 179.443 47.274L179.828 47.274 179.828 48 179.047 48C178.453 47.989 178.222 47.769 178.222 47.208L178.222 43.666 177.518 43.666 177.518 42.929 178.222 42.929 178.222 41.334 179.058 41.334 179.058 42.929 179.828 42.929 179.828 43.666 179.058 43.666zM181.852 40.663L181.852 43.633C182.314 43.061 182.776 42.808 183.381 42.808 183.821 42.808 184.283 42.984 184.558 43.27 184.833 43.545 184.954 43.941 184.954 44.59L184.954 48 184.118 48 184.118 44.634C184.118 43.941 183.777 43.556 183.172 43.556 182.787 43.556 182.446 43.71 182.182 44.007 181.929 44.293 181.852 44.546 181.852 45.03L181.852 48 181.016 48 181.016 40.663 181.852 40.663zM193.083 44.315L192.247 44.315 192.247 44.26C192.247 43.787 191.862 43.49 191.279 43.49 190.718 43.49 190.366 43.776 190.366 44.216 190.366 44.656 190.586 44.821 191.499 45.074 192.148 45.25 192.489 45.415 192.731 45.657 192.984 45.91 193.138 46.273 193.138 46.647 193.138 47.527 192.412 48.121 191.334 48.121 190.179 48.121 189.53 47.582 189.442 46.559L190.267 46.559C190.322 47.131 190.696 47.439 191.334 47.439 191.906 47.439 192.28 47.142 192.28 46.691 192.28 46.251 191.994 46.031 191.125 45.811 190.025 45.514 189.53 45.052 189.53 44.282 189.53 43.402 190.245 42.808 191.312 42.808 192.39 42.808 193.039 43.358 193.083 44.315zM195.261 42.929L195.261 48 194.425 48 194.425 42.929 195.261 42.929zM194.854 40.96C195.151 40.96 195.382 41.202 195.382 41.51 195.382 41.807 195.14 42.038 194.843 42.038 194.546 42.038 194.315 41.807 194.315 41.499 194.315 41.191 194.546 40.96 194.854 40.96zM200.739 43.699L200.739 40.663 201.575 40.663 201.575 48 200.739 48 200.739 47.131C200.233 47.824 199.694 48.121 198.924 48.121 197.527 48.121 196.537 47.032 196.537 45.492 196.537 43.952 197.549 42.808 198.924 42.808 199.672 42.808 200.244 43.083 200.739 43.699zM199.1 43.556C198.099 43.556 197.417 44.348 197.417 45.503 197.417 46.614 198.088 47.395 199.045 47.395 200.024 47.395 200.739 46.581 200.739 45.481 200.739 44.337 200.068 43.556 199.1 43.556zM207.966 45.734L203.742 45.734C203.786 46.163 203.863 46.383 204.072 46.658 204.402 47.109 204.886 47.351 205.436 47.351 206.063 47.351 206.657 47.01 206.954 46.482L207.691 46.757C207.273 47.604 206.404 48.121 205.436 48.121 203.929 48.121 202.851 47.021 202.851 45.481 202.851 43.919 203.918 42.808 205.403 42.808 206.877 42.808 207.977 43.919 207.977 45.404 207.977 45.47 207.977 45.613 207.966 45.734zM203.753 45.118L207.086 45.118C207.053 44.722 206.976 44.502 206.8 44.249 206.481 43.82 205.964 43.556 205.403 43.556 204.842 43.556 204.336 43.82 204.039 44.26 203.885 44.502 203.819 44.711 203.753 45.118zM212.366 44.315L211.53 44.315 211.53 44.26C211.53 43.787 211.145 43.49 210.562 43.49 210.001 43.49 209.649 43.776 209.649 44.216 209.649 44.656 209.869 44.821 210.782 45.074 211.431 45.25 211.772 45.415 212.014 45.657 212.267 45.91 212.421 46.273 212.421 46.647 212.421 47.527 211.695 48.121 210.617 48.121 209.462 48.121 208.813 47.582 208.725 46.559L209.55 46.559C209.605 47.131 209.979 47.439 210.617 47.439 211.189 47.439 211.563 47.142 211.563 46.691 211.563 46.251 211.277 46.031 210.408 45.811 209.308 45.514 208.813 45.052 208.813 44.282 208.813 43.402 209.528 42.808 210.595 42.808 211.673 42.808 212.322 43.358 212.366 44.315zM219.087 50.046L218.537 50.574C217.239 48.979 216.645 47.428 216.645 45.58 216.645 43.688 217.338 41.818 218.559 40.443L219.087 40.993C217.976 42.368 217.426 43.897 217.426 45.547 217.426 47.153 218.02 48.759 219.087 50.046zM221.243 43.666L221.243 48 220.407 48 220.407 43.666 219.714 43.666 219.714 42.929 220.407 42.929 220.407 42.247C220.407 41.246 220.924 40.652 221.804 40.652 221.848 40.652 221.947 40.652 222.035 40.663L222.035 41.411C221.43 41.477 221.265 41.653 221.243 42.247L221.243 42.929 222.035 42.929 222.035 43.666 221.243 43.666zM224.235 42.929L224.235 48 223.399 48 223.399 42.929 224.235 42.929zM223.817 40.96C224.114 40.96 224.345 41.202 224.345 41.51 224.345 41.807 224.114 42.038 223.817 42.038 223.509 42.038 223.278 41.807 223.278 41.499 223.278 41.191 223.509 40.96 223.817 40.96zM227.535 46.163L226.182 48 225.159 48 227.029 45.481 225.126 42.929 226.182 42.929 227.535 44.788 228.921 42.929 229.944 42.929 228.03 45.481 229.856 48 228.833 48 227.535 46.163zM235.532 45.734L231.308 45.734C231.352 46.163 231.429 46.383 231.638 46.658 231.968 47.109 232.452 47.351 233.002 47.351 233.629 47.351 234.223 47.01 234.52 46.482L235.257 46.757C234.839 47.604 233.97 48.121 233.002 48.121 231.495 48.121 230.417 47.021 230.417 45.481 230.417 43.919 231.484 42.808 232.969 42.808 234.443 42.808 235.543 43.919 235.543 45.404 235.543 45.47 235.543 45.613 235.532 45.734zM231.319 45.118L234.652 45.118C234.619 44.722 234.542 44.502 234.366 44.249 234.047 43.82 233.53 43.556 232.969 43.556 232.408 43.556 231.902 43.82 231.605 44.26 231.451 44.502 231.385 44.711 231.319 45.118zM240.548 43.699L240.548 40.663 241.384 40.663 241.384 48 240.548 48 240.548 47.131C240.042 47.824 239.503 48.121 238.733 48.121 237.336 48.121 236.346 47.032 236.346 45.492 236.346 43.952 237.358 42.808 238.733 42.808 239.481 42.808 240.053 43.083 240.548 43.699zM238.909 43.556C237.908 43.556 237.226 44.348 237.226 45.503 237.226 46.614 237.897 47.395 238.854 47.395 239.833 47.395 240.548 46.581 240.548 45.481 240.548 44.337 239.877 43.556 238.909 43.556zM242.616 40.971L243.166 40.443C244.475 42.049 245.058 43.589 245.058 45.437 245.058 47.34 244.365 49.188 243.144 50.574L242.616 50.024C243.727 48.649 244.277 47.12 244.277 45.47 244.277 43.853 243.694 42.269 242.616 40.971zM95.986 4.755L95.986 8 95.062 8 95.062.663 95.986.663 95.986 3.963 99.561 3.963 99.561.663 100.485.663 100.485 8 99.561 8 99.561 4.755 95.986 4.755zM102.663 6.944C102.993 6.944 103.235 7.186 103.235 7.527 103.235 7.846 102.982 8.088 102.663 8.088 102.333 8.088 102.091 7.846 102.091 7.516 102.091 7.186 102.333 6.944 102.663 6.944zM102.663 3.776C102.993 3.776 103.235 4.018 103.235 4.359 103.235 4.678 102.982 4.92 102.663 4.92 102.333 4.92 102.091 4.678 102.091 4.348 102.091 4.018 102.333 3.776 102.663 3.776zM107.305 6.35L104.368 6.35 104.368 5.668 108.152.564 108.152 5.558 109.01 5.558 109.01 6.35 108.152 6.35 108.152 8 107.305 8 107.305 6.35zM107.305 5.558L107.305 2.753 105.248 5.558 107.305 5.558zM112.805 6.35L109.868 6.35 109.868 5.668 113.652.564 113.652 5.558 114.51 5.558 114.51 6.35 113.652 6.35 113.652 8 112.805 8 112.805 6.35zM112.805 5.558L112.805 2.753 110.748 5.558 112.805 5.558zM115.775 2.929L116.611 2.929 116.611 3.853C117.095 3.105 117.612 2.808 118.459 2.808 119.867 2.808 120.846 3.886 120.846 5.426 120.846 7.021 119.867 8.121 118.459 8.121 118.063 8.121 117.7 8.033 117.348 7.857 117.04 7.703 116.886 7.571 116.611 7.208L116.611 10.376 115.775 10.376 115.775 2.929zM118.316 3.556C117.304 3.556 116.611 4.359 116.611 5.547 116.611 6.658 117.282 7.395 118.283 7.395 119.284 7.395 119.955 6.614 119.955 5.459 119.955 4.865 119.812 4.414 119.515 4.084 119.218 3.754 118.767 3.556 118.316 3.556zM123.728 6.163L122.375 8 121.352 8 123.222 5.481 121.319 2.929 122.375 2.929 123.728 4.788 125.114 2.929 126.137 2.929 124.223 5.481 126.049 8 125.026 8 123.728 6.163zM132.396 10.046L131.846 10.574C130.548 8.979 129.954 7.428 129.954 5.58 129.954 3.688 130.647 1.818 131.868.443L132.396.993C131.285 2.368 130.735 3.897 130.735 5.547 130.735 7.153 131.329 8.759 132.396 10.046zM134.552 3.666L134.552 8 133.716 8 133.716 3.666 133.023 3.666 133.023 2.929 133.716 2.929 133.716 2.247C133.716 1.246 134.233.652 135.113.652 135.157.652 135.256.652 135.344.663L135.344 1.411C134.739 1.477 134.574 1.653 134.552 2.247L134.552 2.929 135.344 2.929 135.344 3.666 134.552 3.666zM137.544 2.929L137.544 8 136.708 8 136.708 2.929 137.544 2.929zM137.126.96C137.423.96 137.654 1.202 137.654 1.51 137.654 1.807 137.423 2.038 137.126 2.038 136.818 2.038 136.587 1.807 136.587 1.499 136.587 1.191 136.818.96 137.126.96zM140.844 6.163L139.491 8 138.468 8 140.338 5.481 138.435 2.929 139.491 2.929 140.844 4.788 142.23 2.929 143.253 2.929 141.339 5.481 143.165 8 142.142 8 140.844 6.163zM148.841 5.734L144.617 5.734C144.661 6.163 144.738 6.383 144.947 6.658 145.277 7.109 145.761 7.351 146.311 7.351 146.938 7.351 147.532 7.01 147.829 6.482L148.566 6.757C148.148 7.604 147.279 8.121 146.311 8.121 144.804 8.121 143.726 7.021 143.726 5.481 143.726 3.919 144.793 2.808 146.278 2.808 147.752 2.808 148.852 3.919 148.852 5.404 148.852 5.47 148.852 5.613 148.841 5.734zM144.628 5.118L147.961 5.118C147.928 4.722 147.851 4.502 147.675 4.249 147.356 3.82 146.839 3.556 146.278 3.556 145.717 3.556 145.211 3.82 144.914 4.26 144.76 4.502 144.694 4.711 144.628 5.118zM153.857 3.699L153.857.663 154.693.663 154.693 8 153.857 8 153.857 7.131C153.351 7.824 152.812 8.121 152.042 8.121 150.645 8.121 149.655 7.032 149.655 5.492 149.655 3.952 150.667 2.808 152.042 2.808 152.79 2.808 153.362 3.083 153.857 3.699zM152.218 3.556C151.217 3.556 150.535 4.348 150.535 5.503 150.535 6.614 151.206 7.395 152.163 7.395 153.142 7.395 153.857 6.581 153.857 5.481 153.857 4.337 153.186 3.556 152.218 3.556zM155.925.971L156.475.443C157.784 2.049 158.367 3.589 158.367 5.437 158.367 7.34 157.674 9.188 156.453 10.574L155.925 10.024C157.036 8.649 157.586 7.12 157.586 5.47 157.586 3.853 157.003 2.269 155.925.971zM2.173 30.808L1.403 31.853.963 31.523 1.744 30.489.512 30.093.677 29.587 1.909 29.95 1.909 28.685 2.437 28.685 2.437 29.95 3.691 29.554 3.867 30.071 2.58 30.489 3.372 31.523 2.965 31.853 2.173 30.808zM9.664 32.755L9.664 36 8.74 36 8.74 28.663 9.664 28.663 9.664 31.963 13.239 31.963 13.239 28.663 14.163 28.663 14.163 36 13.239 36 13.239 32.755 9.664 32.755zM20.62 33.734L16.396 33.734C16.44 34.163 16.517 34.383 16.726 34.658 17.056 35.109 17.54 35.351 18.09 35.351 18.717 35.351 19.311 35.01 19.608 34.482L20.345 34.757C19.927 35.604 19.058 36.121 18.09 36.121 16.583 36.121 15.505 35.021 15.505 33.481 15.505 31.919 16.572 30.808 18.057 30.808 19.531 30.808 20.631 31.919 20.631 33.404 20.631 33.47 20.631 33.613 20.62 33.734zM16.407 33.118L19.74 33.118C19.707 32.722 19.63 32.502 19.454 32.249 19.135 31.82 18.618 31.556 18.057 31.556 17.496 31.556 16.99 31.82 16.693 32.26 16.539 32.502 16.473 32.711 16.407 33.118zM22.677 30.929L22.677 36 21.841 36 21.841 30.929 22.677 30.929zM22.27 28.96C22.567 28.96 22.798 29.202 22.798 29.51 22.798 29.807 22.556 30.038 22.259 30.038 21.962 30.038 21.731 29.807 21.731 29.499 21.731 29.191 21.962 28.96 22.27 28.96zM28.111 31.798L28.111 30.929 28.947 30.929 28.947 36.033C28.947 36.88 28.738 37.452 28.276 37.892 27.825 38.332 27.176 38.563 26.406 38.563 25.46 38.563 24.712 38.255 24.162 37.639L24.734 37.067C24.965 37.309 25.075 37.408 25.218 37.507 25.504 37.683 25.977 37.804 26.406 37.804 26.934 37.804 27.44 37.617 27.726 37.309 27.979 37.034 28.111 36.627 28.111 36.099L28.111 35.032C27.616 35.78 27.033 36.121 26.241 36.121 24.899 36.121 23.898 34.988 23.898 33.481 23.898 32.667 24.195 31.886 24.701 31.402 25.108 31.006 25.658 30.808 26.307 30.808 27.077 30.808 27.594 31.094 28.111 31.798zM26.461 31.578C25.471 31.578 24.778 32.348 24.778 33.448 24.778 34.537 25.482 35.351 26.439 35.351 26.923 35.351 27.396 35.12 27.726 34.735 27.946 34.482 28.089 33.987 28.089 33.481 28.089 32.821 27.99 32.469 27.693 32.139 27.385 31.798 26.912 31.578 26.461 31.578zM31.466 28.663L31.466 31.633C31.928 31.061 32.39 30.808 32.995 30.808 33.435 30.808 33.897 30.984 34.172 31.27 34.447 31.545 34.568 31.941 34.568 32.59L34.568 36 33.732 36 33.732 32.634C33.732 31.941 33.391 31.556 32.786 31.556 32.401 31.556 32.06 31.71 31.796 32.007 31.543 32.293 31.466 32.546 31.466 33.03L31.466 36 30.63 36 30.63 28.663 31.466 28.663zM37.109 31.666L37.109 34.966C37.12 35.219 37.186 35.274 37.494 35.274L37.879 35.274 37.879 36 37.098 36C36.504 35.989 36.273 35.769 36.273 35.208L36.273 31.666 35.569 31.666 35.569 30.929 36.273 30.929 36.273 29.334 37.109 29.334 37.109 30.929 37.879 30.929 37.879 31.666 37.109 31.666zM42.367 30.929L43.203 30.929 43.203 31.644C43.643 31.05 44.083 30.808 44.71 30.808 45.172 30.808 45.59 30.962 45.887 31.226 46.206 31.534 46.316 31.886 46.316 32.579L46.316 36 45.48 36 45.48 32.766C45.48 32.315 45.425 32.073 45.293 31.897 45.139 31.688 44.842 31.556 44.501 31.556 44.127 31.556 43.786 31.699 43.533 31.985 43.291 32.249 43.203 32.491 43.203 32.909L43.203 36 42.367 36 42.367 30.929zM52.674 33.734L48.45 33.734C48.494 34.163 48.571 34.383 48.78 34.658 49.11 35.109 49.594 35.351 50.144 35.351 50.771 35.351 51.365 35.01 51.662 34.482L52.399 34.757C51.981 35.604 51.112 36.121 50.144 36.121 48.637 36.121 47.559 35.021 47.559 33.481 47.559 31.919 48.626 30.808 50.111 30.808 51.585 30.808 52.685 31.919 52.685 33.404 52.685 33.47 52.685 33.613 52.674 33.734zM48.461 33.118L51.794 33.118C51.761 32.722 51.684 32.502 51.508 32.249 51.189 31.82 50.672 31.556 50.111 31.556 49.55 31.556 49.044 31.82 48.747 32.26 48.593 32.502 48.527 32.711 48.461 33.118zM58.603 33.734L54.379 33.734C54.423 34.163 54.5 34.383 54.709 34.658 55.039 35.109 55.523 35.351 56.073 35.351 56.7 35.351 57.294 35.01 57.591 34.482L58.328 34.757C57.91 35.604 57.041 36.121 56.073 36.121 54.566 36.121 53.488 35.021 53.488 33.481 53.488 31.919 54.555 30.808 56.04 30.808 57.514 30.808 58.614 31.919 58.614 33.404 58.614 33.47 58.614 33.613 58.603 33.734zM54.39 33.118L57.723 33.118C57.69 32.722 57.613 32.502 57.437 32.249 57.118 31.82 56.601 31.556 56.04 31.556 55.479 31.556 54.973 31.82 54.676 32.26 54.522 32.502 54.456 32.711 54.39 33.118zM63.619 31.699L63.619 28.663 64.455 28.663 64.455 36 63.619 36 63.619 35.131C63.113 35.824 62.574 36.121 61.804 36.121 60.407 36.121 59.417 35.032 59.417 33.492 59.417 31.952 60.429 30.808 61.804 30.808 62.552 30.808 63.124 31.083 63.619 31.699zM61.98 31.556C60.979 31.556 60.297 32.348 60.297 33.503 60.297 34.614 60.968 35.395 61.925 35.395 62.904 35.395 63.619 34.581 63.619 33.481 63.619 32.337 62.948 31.556 61.98 31.556zM69.317 32.315L68.481 32.315 68.481 32.26C68.481 31.787 68.096 31.49 67.513 31.49 66.952 31.49 66.6 31.776 66.6 32.216 66.6 32.656 66.82 32.821 67.733 33.074 68.382 33.25 68.723 33.415 68.965 33.657 69.218 33.91 69.372 34.273 69.372 34.647 69.372 35.527 68.646 36.121 67.568 36.121 66.413 36.121 65.764 35.582 65.676 34.559L66.501 34.559C66.556 35.131 66.93 35.439 67.568 35.439 68.14 35.439 68.514 35.142 68.514 34.691 68.514 34.251 68.228 34.031 67.359 33.811 66.259 33.514 65.764 33.052 65.764 32.282 65.764 31.402 66.479 30.808 67.546 30.808 68.624 30.808 69.273 31.358 69.317 32.315zM74.85 31.666L74.85 34.966C74.861 35.219 74.927 35.274 75.235 35.274L75.62 35.274 75.62 36 74.839 36C74.245 35.989 74.014 35.769 74.014 35.208L74.014 31.666 73.31 31.666 73.31 30.929 74.014 30.929 74.014 29.334 74.85 29.334 74.85 30.929 75.62 30.929 75.62 31.666 74.85 31.666zM78.997 30.808C80.493 30.808 81.56 31.919 81.56 33.481 81.56 34.966 80.416 36.121 78.964 36.121 77.457 36.121 76.401 35.021 76.401 33.459 76.401 31.886 77.457 30.808 78.997 30.808zM78.997 31.578C77.952 31.578 77.259 32.337 77.259 33.47 77.259 34.592 77.952 35.351 78.986 35.351 79.987 35.351 80.702 34.57 80.702 33.47 80.702 32.337 80.02 31.578 78.997 31.578zM6.859 47.734L2.635 47.734C2.679 48.163 2.756 48.383 2.965 48.658 3.295 49.109 3.779 49.351 4.329 49.351 4.956 49.351 5.55 49.01 5.847 48.482L6.584 48.757C6.166 49.604 5.297 50.121 4.329 50.121 2.822 50.121 1.744 49.021 1.744 47.481 1.744 45.919 2.811 44.808 4.296 44.808 5.77 44.808 6.87 45.919 6.87 47.404 6.87 47.47 6.87 47.613 6.859 47.734zM2.646 47.118L5.979 47.118C5.946 46.722 5.869 46.502 5.693 46.249 5.374 45.82 4.857 45.556 4.296 45.556 3.735 45.556 3.229 45.82 2.932 46.26 2.778 46.502 2.712 46.711 2.646 47.118zM8.08 44.929L8.916 44.929 8.916 45.644C9.356 45.05 9.796 44.808 10.423 44.808 10.885 44.808 11.303 44.962 11.6 45.226 11.919 45.534 12.029 45.886 12.029 46.579L12.029 50 11.193 50 11.193 46.766C11.193 46.315 11.138 46.073 11.006 45.897 10.852 45.688 10.555 45.556 10.214 45.556 9.84 45.556 9.499 45.699 9.246 45.985 9.004 46.249 8.916 46.491 8.916 46.909L8.916 50 8.08 50 8.08 44.929zM16.858 46.315L16.022 46.315 16.022 46.26C16.022 45.787 15.637 45.49 15.054 45.49 14.493 45.49 14.141 45.776 14.141 46.216 14.141 46.656 14.361 46.821 15.274 47.074 15.923 47.25 16.264 47.415 16.506 47.657 16.759 47.91 16.913 48.273 16.913 48.647 16.913 49.527 16.187 50.121 15.109 50.121 13.954 50.121 13.305 49.582 13.217 48.559L14.042 48.559C14.097 49.131 14.471 49.439 15.109 49.439 15.681 49.439 16.055 49.142 16.055 48.691 16.055 48.251 15.769 48.031 14.9 47.811 13.8 47.514 13.305 47.052 13.305 46.282 13.305 45.402 14.02 44.808 15.087 44.808 16.165 44.808 16.814 45.358 16.858 46.315zM21.148 44.929L21.995 44.929 21.995 48.174C21.995 48.867 21.863 49.252 21.489 49.593 21.115 49.934 20.598 50.121 20.026 50.121 19.454 50.121 18.926 49.923 18.563 49.582 18.222 49.252 18.057 48.79 18.057 48.174L18.057 44.929 18.893 44.929 18.893 48.152C18.893 48.867 19.355 49.373 20.026 49.373 20.378 49.373 20.719 49.23 20.928 48.988 21.093 48.79 21.148 48.581 21.148 48.174L21.148 44.929zM23.535 44.929L24.371 44.929 24.371 45.787C24.525 45.424 24.635 45.27 24.833 45.116 25.086 44.918 25.438 44.808 25.801 44.808L25.999 44.808 25.999 45.655C25.911 45.644 25.823 45.644 25.768 45.644 25.317 45.644 24.921 45.853 24.668 46.227 24.448 46.546 24.371 46.843 24.371 47.426L24.371 50 23.535 50 23.535 44.929zM31.741 47.734L27.517 47.734C27.561 48.163 27.638 48.383 27.847 48.658 28.177 49.109 28.661 49.351 29.211 49.351 29.838 49.351 30.432 49.01 30.729 48.482L31.466 48.757C31.048 49.604 30.179 50.121 29.211 50.121 27.704 50.121 26.626 49.021 26.626 47.481 26.626 45.919 27.693 44.808 29.178 44.808 30.652 44.808 31.752 45.919 31.752 47.404 31.752 47.47 31.752 47.613 31.741 47.734zM27.528 47.118L30.861 47.118C30.828 46.722 30.751 46.502 30.575 46.249 30.256 45.82 29.739 45.556 29.178 45.556 28.617 45.556 28.111 45.82 27.814 46.26 27.66 46.502 27.594 46.711 27.528 47.118zM37.153 45.666L37.153 48.966C37.164 49.219 37.23 49.274 37.538 49.274L37.923 49.274 37.923 50 37.142 50C36.548 49.989 36.317 49.769 36.317 49.208L36.317 45.666 35.613 45.666 35.613 44.929 36.317 44.929 36.317 43.334 37.153 43.334 37.153 44.929 37.923 44.929 37.923 45.666 37.153 45.666zM42.939 45.765L42.939 44.929 43.775 44.929 43.775 50 42.939 50 42.939 49.021C42.433 49.78 41.861 50.121 41.091 50.121 39.694 50.121 38.704 49.021 38.704 47.481 38.704 45.93 39.716 44.808 41.113 44.808 41.883 44.808 42.444 45.105 42.939 45.765zM41.234 45.556C40.684 45.556 40.299 45.743 40.002 46.161 39.738 46.524 39.584 47.008 39.584 47.503 39.584 48.581 40.288 49.395 41.212 49.395 42.169 49.395 42.95 48.504 42.95 47.415 42.95 46.315 42.246 45.556 41.234 45.556zM45.458 44.929L46.294 44.929 46.294 45.853C46.778 45.105 47.295 44.808 48.142 44.808 49.55 44.808 50.529 45.886 50.529 47.426 50.529 49.021 49.55 50.121 48.142 50.121 47.746 50.121 47.383 50.033 47.031 49.857 46.723 49.703 46.569 49.571 46.294 49.208L46.294 52.376 45.458 52.376 45.458 44.929zM47.999 45.556C46.987 45.556 46.294 46.359 46.294 47.547 46.294 48.658 46.965 49.395 47.966 49.395 48.967 49.395 49.638 48.614 49.638 47.459 49.638 46.865 49.495 46.414 49.198 46.084 48.901 45.754 48.45 45.556 47.999 45.556zM55.985 45.666L55.985 48.966C55.996 49.219 56.062 49.274 56.37 49.274L56.755 49.274 56.755 50 55.974 50C55.38 49.989 55.149 49.769 55.149 49.208L55.149 45.666 54.445 45.666 54.445 44.929 55.149 44.929 55.149 43.334 55.985 43.334 55.985 44.929 56.755 44.929 56.755 45.666 55.985 45.666zM61.771 45.765L61.771 44.929 62.607 44.929 62.607 50 61.771 50 61.771 49.021C61.265 49.78 60.693 50.121 59.923 50.121 58.526 50.121 57.536 49.021 57.536 47.481 57.536 45.93 58.548 44.808 59.945 44.808 60.715 44.808 61.276 45.105 61.771 45.765zM60.066 45.556C59.516 45.556 59.131 45.743 58.834 46.161 58.57 46.524 58.416 47.008 58.416 47.503 58.416 48.581 59.12 49.395 60.044 49.395 61.001 49.395 61.782 48.504 61.782 47.415 61.782 46.315 61.078 45.556 60.066 45.556zM64.29 44.929L65.126 44.929 65.126 45.787C65.28 45.424 65.39 45.27 65.588 45.116 65.841 44.918 66.193 44.808 66.556 44.808L66.754 44.808 66.754 45.655C66.666 45.644 66.578 45.644 66.523 45.644 66.072 45.644 65.676 45.853 65.423 46.227 65.203 46.546 65.126 46.843 65.126 47.426L65.126 50 64.29 50 64.29 44.929zM71.539 45.798L71.539 44.929 72.375 44.929 72.375 50.033C72.375 50.88 72.166 51.452 71.704 51.892 71.253 52.332 70.604 52.563 69.834 52.563 68.888 52.563 68.14 52.255 67.59 51.639L68.162 51.067C68.393 51.309 68.503 51.408 68.646 51.507 68.932 51.683 69.405 51.804 69.834 51.804 70.362 51.804 70.868 51.617 71.154 51.309 71.407 51.034 71.539 50.627 71.539 50.099L71.539 49.032C71.044 49.78 70.461 50.121 69.669 50.121 68.327 50.121 67.326 48.988 67.326 47.481 67.326 46.667 67.623 45.886 68.129 45.402 68.536 45.006 69.086 44.808 69.735 44.808 70.505 44.808 71.022 45.094 71.539 45.798zM69.889 45.578C68.899 45.578 68.206 46.348 68.206 47.448 68.206 48.537 68.91 49.351 69.867 49.351 70.351 49.351 70.824 49.12 71.154 48.735 71.374 48.482 71.517 47.987 71.517 47.481 71.517 46.821 71.418 46.469 71.121 46.139 70.813 45.798 70.34 45.578 69.889 45.578zM78.766 47.734L74.542 47.734C74.586 48.163 74.663 48.383 74.872 48.658 75.202 49.109 75.686 49.351 76.236 49.351 76.863 49.351 77.457 49.01 77.754 48.482L78.491 48.757C78.073 49.604 77.204 50.121 76.236 50.121 74.729 50.121 73.651 49.021 73.651 47.481 73.651 45.919 74.718 44.808 76.203 44.808 77.677 44.808 78.777 45.919 78.777 47.404 78.777 47.47 78.777 47.613 78.766 47.734zM74.553 47.118L77.886 47.118C77.853 46.722 77.776 46.502 77.6 46.249 77.281 45.82 76.764 45.556 76.203 45.556 75.642 45.556 75.136 45.82 74.839 46.26 74.685 46.502 74.619 46.711 74.553 47.118zM80.878 45.666L80.878 48.966C80.889 49.219 80.955 49.274 81.263 49.274L81.648 49.274 81.648 50 80.867 50C80.273 49.989 80.042 49.769 80.042 49.208L80.042 45.666 79.338 45.666 79.338 44.929 80.042 44.929 80.042 43.334 80.878 43.334 80.878 44.929 81.648 44.929 81.648 45.666 80.878 45.666z"/>
      <rect width="65" height="44" x="95" y="19" fill="#25333D"/>
      <path fill="#C41261" fill-rule="nonzero" d="M81.017,72.663 L83.085,72.663 C84.581,72.663 85.428,73.367 85.428,74.61 C85.428,75.083 85.285,75.501 85.01,75.809 C84.834,76.018 84.658,76.128 84.262,76.282 C84.669,76.37 84.867,76.447 85.098,76.623 C85.494,76.942 85.703,77.437 85.703,78.031 C85.703,78.713 85.406,79.307 84.911,79.626 C84.482,79.901 84.009,80 83.085,80 L81.017,80 L81.017,72.663 Z M81.941,73.422 L81.941,75.963 L82.876,75.952 C83.459,75.952 83.811,75.875 84.075,75.666 C84.361,75.435 84.526,75.061 84.526,74.654 C84.526,74.181 84.295,73.763 83.943,73.598 C83.679,73.466 83.371,73.422 82.7,73.422 L81.941,73.422 Z M81.941,76.711 L81.941,79.252 L82.865,79.252 C83.635,79.252 83.932,79.197 84.251,79.01 C84.603,78.812 84.779,78.46 84.779,77.976 C84.779,77.096 84.262,76.711 83.096,76.711 L81.941,76.711 Z M89.949,74.929 L90.796,74.929 L90.796,78.174 C90.796,78.867 90.664,79.252 90.29,79.593 C89.916,79.934 89.399,80.121 88.827,80.121 C88.255,80.121 87.727,79.923 87.364,79.582 C87.023,79.252 86.858,78.79 86.858,78.174 L86.858,74.929 L87.694,74.929 L87.694,78.152 C87.694,78.867 88.156,79.373 88.827,79.373 C89.179,79.373 89.52,79.23 89.729,78.988 C89.894,78.79 89.949,78.581 89.949,78.174 L89.949,74.929 Z M93.227,75.666 L93.227,78.966 C93.238,79.219 93.304,79.274 93.612,79.274 L93.997,79.274 L93.997,80 L93.216,80 C92.622,79.989 92.391,79.769 92.391,79.208 L92.391,75.666 L91.687,75.666 L91.687,74.929 L92.391,74.929 L92.391,73.334 L93.227,73.334 L93.227,74.929 L93.997,74.929 L93.997,75.666 L93.227,75.666 Z M96.23,75.666 L96.23,78.966 C96.241,79.219 96.307,79.274 96.615,79.274 L97,79.274 L97,80 L96.219,80 C95.625,79.989 95.394,79.769 95.394,79.208 L95.394,75.666 L94.69,75.666 L94.69,74.929 L95.394,74.929 L95.394,73.334 L96.23,73.334 L96.23,74.929 L97,74.929 L97,75.666 L96.23,75.666 Z M100.278,74.808 C101.774,74.808 102.841,75.919 102.841,77.481 C102.841,78.966 101.697,80.121 100.245,80.121 C98.738,80.121 97.682,79.021 97.682,77.459 C97.682,75.886 98.738,74.808 100.278,74.808 Z M100.278,75.578 C99.233,75.578 98.54,76.337 98.54,77.47 C98.54,78.592 99.233,79.351 100.267,79.351 C101.268,79.351 101.983,78.57 101.983,77.47 C101.983,76.337 101.301,75.578 100.278,75.578 Z M104.117,74.929 L104.953,74.929 L104.953,75.644 C105.393,75.05 105.833,74.808 106.46,74.808 C106.922,74.808 107.34,74.962 107.637,75.226 C107.956,75.534 108.066,75.886 108.066,76.579 L108.066,80 L107.23,80 L107.23,76.766 C107.23,76.315 107.175,76.073 107.043,75.897 C106.889,75.688 106.592,75.556 106.251,75.556 C105.877,75.556 105.536,75.699 105.283,75.985 C105.041,76.249 104.953,76.491 104.953,76.909 L104.953,80 L104.117,80 L104.117,74.929 Z M113.016,74.929 L113.852,74.929 L113.852,75.633 C114.237,75.05 114.666,74.808 115.293,74.808 C115.986,74.808 116.426,75.105 116.657,75.732 C117.031,75.083 117.504,74.808 118.263,74.808 C118.846,74.808 119.286,74.995 119.55,75.347 C119.792,75.666 119.858,75.952 119.858,76.755 L119.858,80 L119.022,80 L119.022,76.953 C119.022,76.337 119,76.194 118.879,75.985 C118.725,75.721 118.395,75.556 117.999,75.556 C117.262,75.556 116.855,76.051 116.855,76.953 L116.855,80 L116.019,80 L116.019,76.964 C116.019,76.469 115.975,76.216 115.854,75.996 C115.711,75.71 115.403,75.556 115.029,75.556 C114.292,75.556 113.852,76.084 113.852,76.964 L113.852,80 L113.016,80 L113.016,74.929 Z M122.344,74.929 L122.344,80 L121.508,80 L121.508,74.929 L122.344,74.929 Z M121.937,72.96 C122.234,72.96 122.465,73.202 122.465,73.51 C122.465,73.807 122.223,74.038 121.926,74.038 C121.629,74.038 121.398,73.807 121.398,73.499 C121.398,73.191 121.629,72.96 121.937,72.96 Z M124.027,74.929 L124.863,74.929 L124.863,75.644 C125.303,75.05 125.743,74.808 126.37,74.808 C126.832,74.808 127.25,74.962 127.547,75.226 C127.866,75.534 127.976,75.886 127.976,76.579 L127.976,80 L127.14,80 L127.14,76.766 C127.14,76.315 127.085,76.073 126.953,75.897 C126.799,75.688 126.502,75.556 126.161,75.556 C125.787,75.556 125.446,75.699 125.193,75.985 C124.951,76.249 124.863,76.491 124.863,76.909 L124.863,80 L124.027,80 L124.027,74.929 Z M138.778,74.929 L139.636,74.929 L137.832,80 L137.073,80 L135.907,76.15 L134.686,80 L133.894,80 L132.156,74.929 L133.014,74.929 L134.312,78.658 L135.478,74.929 L136.303,74.929 L137.447,78.658 L138.778,74.929 Z M141.352,74.929 L141.352,80 L140.516,80 L140.516,74.929 L141.352,74.929 Z M140.945,72.96 C141.242,72.96 141.473,73.202 141.473,73.51 C141.473,73.807 141.231,74.038 140.934,74.038 C140.637,74.038 140.406,73.807 140.406,73.499 C140.406,73.191 140.637,72.96 140.945,72.96 Z M146.83,75.699 L146.83,72.663 L147.666,72.663 L147.666,80 L146.83,80 L146.83,79.131 C146.324,79.824 145.785,80.121 145.015,80.121 C143.618,80.121 142.628,79.032 142.628,77.492 C142.628,75.952 143.64,74.808 145.015,74.808 C145.763,74.808 146.335,75.083 146.83,75.699 Z M145.191,75.556 C144.19,75.556 143.508,76.348 143.508,77.503 C143.508,78.614 144.179,79.395 145.136,79.395 C146.115,79.395 146.83,78.581 146.83,77.481 C146.83,76.337 146.159,75.556 145.191,75.556 Z M150.24,75.666 L150.24,78.966 C150.251,79.219 150.317,79.274 150.625,79.274 L151.01,79.274 L151.01,80 L150.229,80 C149.635,79.989 149.404,79.769 149.404,79.208 L149.404,75.666 L148.7,75.666 L148.7,74.929 L149.404,74.929 L149.404,73.334 L150.24,73.334 L150.24,74.929 L151.01,74.929 L151.01,75.666 L150.24,75.666 Z M153.001,72.663 L153.001,75.633 C153.463,75.061 153.925,74.808 154.53,74.808 C154.97,74.808 155.432,74.984 155.707,75.27 C155.982,75.545 156.103,75.941 156.103,76.59 L156.103,80 L155.267,80 L155.267,76.634 C155.267,75.941 154.926,75.556 154.321,75.556 C153.936,75.556 153.595,75.71 153.331,76.007 C153.078,76.293 153.001,76.546 153.001,77.03 L153.001,80 L152.165,80 L152.165,72.663 L153.001,72.663 Z M158.182,78.944 C158.512,78.944 158.754,79.186 158.754,79.527 C158.754,79.846 158.501,80.088 158.182,80.088 C157.852,80.088 157.61,79.846 157.61,79.516 C157.61,79.186 157.852,78.944 158.182,78.944 Z M158.182,75.776 C158.512,75.776 158.754,76.018 158.754,76.359 C158.754,76.678 158.501,76.92 158.182,76.92 C157.852,76.92 157.61,76.678 157.61,76.348 C157.61,76.018 157.852,75.776 158.182,75.776 Z M166.498,73.587 L163.682,73.587 L163.682,72.773 L167.752,72.773 L164.848,80 L163.902,80 L166.498,73.587 Z M170.26,79.197 L172.845,79.197 L172.845,80 L168.731,80 L171.283,76.348 C172.02,75.281 172.185,74.951 172.185,74.511 C172.185,73.873 171.679,73.422 170.964,73.422 C170.469,73.422 170.062,73.653 169.897,74.038 C169.809,74.247 169.776,74.412 169.765,74.797 L168.94,74.797 C168.984,73.4 169.721,72.63 171.03,72.63 C172.229,72.63 173.065,73.378 173.065,74.445 C173.065,75.061 172.845,75.6 172.229,76.458 L170.26,79.197 Z M174.594,74.929 L175.43,74.929 L175.43,75.853 C175.914,75.105 176.431,74.808 177.278,74.808 C178.686,74.808 179.665,75.886 179.665,77.426 C179.665,79.021 178.686,80.121 177.278,80.121 C176.882,80.121 176.519,80.033 176.167,79.857 C175.859,79.703 175.705,79.571 175.43,79.208 L175.43,82.376 L174.594,82.376 L174.594,74.929 Z M177.135,75.556 C176.123,75.556 175.43,76.359 175.43,77.547 C175.43,78.658 176.101,79.395 177.102,79.395 C178.103,79.395 178.774,78.614 178.774,77.459 C178.774,76.865 178.631,76.414 178.334,76.084 C178.037,75.754 177.586,75.556 177.135,75.556 Z M182.547,78.163 L181.194,80 L180.171,80 L182.041,77.481 L180.138,74.929 L181.194,74.929 L182.547,76.788 L183.933,74.929 L184.956,74.929 L183.042,77.481 L184.868,80 L183.845,80 L182.547,78.163 Z"/>
      <use fill-rule="nonzero" stroke="#F897BF" stroke-dasharray="1" stroke-width="2" mask="url(#2-d)" transform="translate(102 36)" xlink:href="#2-a"/>
      <g fill="#F897BF" transform="translate(151 27)">
        <rect width="1" height="9"/>
        <rect width="1" height="9" x="8"/>
        <rect width="7" height="1" x="1" y="4"/>
      </g>
      <path fill="#89CBDF" d="M110.674316,47.8081055 L109.578613,44.6289062 L105.013184,44.6289062 L103.90918,47.8081055 L102,47.8081055 L106.324707,35.8300781 L108.325195,35.8300781 L112.649902,47.8081055 L110.674316,47.8081055 Z M107.229492,38.0048828 L105.486328,43.0683594 L109.105469,43.0683594 L107.370605,38.0048828 L107.229492,38.0048828 Z M121.271152,41.7236328 L119.536289,41.7236328 C119.32877,40.84375 118.598301,40.1879883 117.402988,40.1879883 C115.908848,40.1879883 114.995762,41.3334961 114.995762,43.2592773 C114.995762,45.2182617 115.917148,46.3886719 117.402988,46.3886719 C118.531895,46.3886719 119.303867,45.8740234 119.536289,44.902832 L121.271152,44.902832 C121.03873,46.7207031 119.644199,47.9824219 117.411289,47.9824219 C114.779941,47.9824219 113.16959,46.2060547 113.16959,43.2592773 C113.16959,40.3623047 114.771641,38.5942383 117.402988,38.5942383 C119.669102,38.5942383 121.03873,39.9140625 121.271152,41.7236328 Z M123.658516,36.519043 L125.443184,36.519043 L125.443184,38.8100586 L127.402168,38.8100586 L127.402168,40.3125 L125.443184,40.3125 L125.443184,44.9609375 C125.443184,45.9072266 125.83332,46.3222656 126.721504,46.3222656 C126.99543,46.3222656 127.153145,46.3056641 127.402168,46.2807617 L127.402168,47.7666016 C127.111641,47.8164062 126.779609,47.8579102 126.430977,47.8579102 C124.44709,47.8579102 123.658516,47.1606445 123.658516,45.4174805 L123.658516,40.3125 L122.22248,40.3125 L122.22248,38.8100586 L123.658516,38.8100586 L123.658516,36.519043 Z M129.125469,47.8081055 L129.125469,38.7685547 L130.901836,38.7685547 L130.901836,47.8081055 L129.125469,47.8081055 Z M130.013652,37.1831055 C129.34959,37.1831055 128.859844,36.7099609 128.859844,36.0957031 C128.859844,35.4731445 129.34959,35 130.013652,35 C130.677715,35 131.167461,35.4731445 131.167461,36.0957031 C131.167461,36.7099609 130.677715,37.1831055 130.013652,37.1831055 Z M136.933242,47.9824219 C134.285293,47.9824219 132.666641,46.2143555 132.666641,43.2841797 C132.666641,40.3706055 134.293594,38.5942383 136.933242,38.5942383 C139.56459,38.5942383 141.191543,40.3706055 141.191543,43.2841797 C141.191543,46.2143555 139.572891,47.9824219 136.933242,47.9824219 Z M136.933242,46.3969727 C138.477188,46.3969727 139.35707,45.2514648 139.35707,43.2841797 C139.35707,41.3251953 138.477188,40.1796875 136.933242,40.1796875 C135.380996,40.1796875 134.509414,41.3251953 134.509414,43.2841797 C134.509414,45.2597656 135.380996,46.3969727 136.933242,46.3969727 Z M142.923145,47.8081055 L142.923145,38.7685547 L144.641406,38.7685547 L144.641406,40.2045898 L144.774219,40.2045898 C145.21416,39.2001953 146.110645,38.5942383 147.471973,38.5942383 C149.489063,38.5942383 150.601367,39.8061523 150.601367,41.9560547 L150.601367,47.8081055 L148.816699,47.8081055 L148.816699,42.4042969 C148.816699,40.9516602 148.18584,40.2294922 146.866016,40.2294922 C145.546191,40.2294922 144.707813,41.109375 144.707813,42.5205078 L144.707813,47.8081055 L142.923145,47.8081055 Z"/>
      <g transform="translate(16 99)">
        <rect width="24" height="24" fill="#89CBDF" rx="2"/>
        <path fill="#C41261" d="M28.913,8.663 L30.981,8.663 C32.477,8.663 33.324,9.367 33.324,10.61 C33.324,11.083 33.181,11.501 32.906,11.809 C32.73,12.018 32.554,12.128 32.158,12.282 C32.565,12.37 32.763,12.447 32.994,12.623 C33.39,12.942 33.599,13.437 33.599,14.031 C33.599,14.713 33.302,15.307 32.807,15.626 C32.378,15.901 31.905,16 30.981,16 L28.913,16 L28.913,8.663 Z M29.837,9.422 L29.837,11.963 L30.772,11.952 C31.355,11.952 31.707,11.875 31.971,11.666 C32.257,11.435 32.422,11.061 32.422,10.654 C32.422,10.181 32.191,9.763 31.839,9.598 C31.575,9.466 31.267,9.422 30.596,9.422 L29.837,9.422 Z M29.837,12.711 L29.837,15.252 L30.761,15.252 C31.531,15.252 31.828,15.197 32.147,15.01 C32.499,14.812 32.675,14.46 32.675,13.976 C32.675,13.096 32.158,12.711 30.992,12.711 L29.837,12.711 Z M35.766,8.663 L35.766,13.03 C35.766,13.965 35.898,14.438 36.25,14.79 C36.558,15.087 37.086,15.285 37.548,15.285 C38.01,15.285 38.527,15.076 38.846,14.746 C39.242,14.361 39.341,13.987 39.341,13.008 L39.341,8.663 L40.287,8.663 L40.287,13.008 C40.287,14.108 40.111,14.735 39.638,15.263 C39.143,15.824 38.406,16.132 37.57,16.132 C36.712,16.132 35.931,15.802 35.436,15.208 C34.985,14.691 34.842,14.152 34.842,13.008 L34.842,8.663 L35.766,8.663 Z M43.961,9.455 L43.961,16 L43.037,16 L43.037,9.455 L41.167,9.455 L41.167,8.663 L45.82,8.663 L45.82,9.455 L43.961,9.455 Z M48.834,9.455 L48.834,16 L47.91,16 L47.91,9.455 L46.04,9.455 L46.04,8.663 L50.693,8.663 L50.693,9.455 L48.834,9.455 Z M54.917,8.531 C55.94,8.531 56.919,8.993 57.623,9.796 C58.217,10.489 58.481,11.303 58.481,12.403 C58.481,13.547 58.041,14.57 57.238,15.252 C56.578,15.824 55.742,16.132 54.895,16.132 C53.806,16.132 52.739,15.615 52.057,14.757 C51.551,14.119 51.287,13.294 51.287,12.37 C51.287,10.181 52.838,8.531 54.917,8.531 Z M54.895,9.389 C53.366,9.389 52.233,10.643 52.233,12.337 C52.233,14.042 53.355,15.285 54.873,15.285 C55.61,15.285 56.336,14.966 56.831,14.405 C57.26,13.932 57.535,13.14 57.535,12.392 C57.535,11.413 57.271,10.698 56.699,10.148 C56.215,9.675 55.544,9.389 54.895,9.389 Z M60.802,10.39 L60.802,16 L59.878,16 L59.878,8.663 L60.725,8.663 L64.641,14.185 L64.641,8.663 L65.565,8.663 L65.565,16 L64.751,16 L60.802,10.39 Z M67.743,14.944 C68.073,14.944 68.315,15.186 68.315,15.527 C68.315,15.846 68.062,16.088 67.743,16.088 C67.413,16.088 67.171,15.846 67.171,15.516 C67.171,15.186 67.413,14.944 67.743,14.944 Z M67.743,11.776 C68.073,11.776 68.315,12.018 68.315,12.359 C68.315,12.678 68.062,12.92 67.743,12.92 C67.413,12.92 67.171,12.678 67.171,12.348 C67.171,12.018 67.413,11.776 67.743,11.776 Z M73.232,16 L73.232,8.663 L75.179,8.663 C77.39,8.663 78.721,10.005 78.721,12.216 C78.721,13.459 78.314,14.482 77.566,15.153 C76.928,15.725 76.081,16 75.014,16 L73.232,16 Z M74.156,9.444 L74.156,15.208 L74.486,15.208 C75.729,15.208 76.257,15.076 76.785,14.658 C77.445,14.13 77.775,13.316 77.775,12.227 C77.775,10.456 76.829,9.444 75.146,9.444 L74.156,9.444 Z M84.749,13.734 L80.525,13.734 C80.569,14.163 80.646,14.383 80.855,14.658 C81.185,15.109 81.669,15.351 82.219,15.351 C82.846,15.351 83.44,15.01 83.737,14.482 L84.474,14.757 C84.056,15.604 83.187,16.121 82.219,16.121 C80.712,16.121 79.634,15.021 79.634,13.481 C79.634,11.919 80.701,10.808 82.186,10.808 C83.66,10.808 84.76,11.919 84.76,13.404 C84.76,13.47 84.76,13.613 84.749,13.734 Z M80.536,13.118 L83.869,13.118 C83.836,12.722 83.759,12.502 83.583,12.249 C83.264,11.82 82.747,11.556 82.186,11.556 C81.625,11.556 81.119,11.82 80.822,12.26 C80.668,12.502 80.602,12.711 80.536,13.118 Z M85.97,10.929 L86.806,10.929 L86.806,11.644 C87.246,11.05 87.686,10.808 88.313,10.808 C88.775,10.808 89.193,10.962 89.49,11.226 C89.809,11.534 89.919,11.886 89.919,12.579 L89.919,16 L89.083,16 L89.083,12.766 C89.083,12.315 89.028,12.073 88.896,11.897 C88.742,11.688 88.445,11.556 88.104,11.556 C87.73,11.556 87.389,11.699 87.136,11.985 C86.894,12.249 86.806,12.491 86.806,12.909 L86.806,16 L85.97,16 L85.97,10.929 Z M92.405,10.929 L92.405,16 L91.569,16 L91.569,10.929 L92.405,10.929 Z M91.998,8.96 C92.295,8.96 92.526,9.202 92.526,9.51 C92.526,9.807 92.284,10.038 91.987,10.038 C91.69,10.038 91.459,9.807 91.459,9.499 C91.459,9.191 91.69,8.96 91.998,8.96 Z M94.088,10.929 L94.924,10.929 L94.924,11.633 C95.309,11.05 95.738,10.808 96.365,10.808 C97.058,10.808 97.498,11.105 97.729,11.732 C98.103,11.083 98.576,10.808 99.335,10.808 C99.918,10.808 100.358,10.995 100.622,11.347 C100.864,11.666 100.93,11.952 100.93,12.755 L100.93,16 L100.094,16 L100.094,12.953 C100.094,12.337 100.072,12.194 99.951,11.985 C99.797,11.721 99.467,11.556 99.071,11.556 C98.334,11.556 97.927,12.051 97.927,12.953 L97.927,16 L97.091,16 L97.091,12.964 C97.091,12.469 97.047,12.216 96.926,11.996 C96.783,11.71 96.475,11.556 96.101,11.556 C95.364,11.556 94.924,12.084 94.924,12.964 L94.924,16 L94.088,16 L94.088,10.929 Z M105.836,8.773 L103.955,11.71 C104.263,11.6 104.406,11.567 104.67,11.567 C105.891,11.567 106.837,12.524 106.837,13.767 C106.837,15.065 105.77,16.132 104.472,16.132 C103.163,16.132 102.151,15.098 102.151,13.767 C102.151,13.228 102.294,12.821 102.712,12.15 L104.813,8.773 L105.836,8.773 Z M104.516,12.315 C103.68,12.315 103.02,12.953 103.02,13.767 C103.02,14.625 103.669,15.307 104.494,15.307 C105.319,15.307 105.979,14.636 105.979,13.8 C105.979,12.975 105.33,12.315 104.516,12.315 Z"/>
        <g transform="translate(129)">
          <rect width="23" height="23" x=".5" y=".5" stroke="#C41261" rx="2"/>
          <path fill="#C41261" d="M10.4655,14.306 L7.1765,14.306 L6.5055,16 L5.5485,16 L8.3095,8.663 L9.4095,8.663 L12.1045,16 L11.0705,16 L10.4655,14.306 Z M10.1795,13.514 L8.8375,9.829 L7.4515,13.514 L10.1795,13.514 Z M16.8235,11.765 L16.8235,10.929 L17.6595,10.929 L17.6595,16 L16.8235,16 L16.8235,15.021 C16.3175,15.78 15.7455,16.121 14.9755,16.121 C13.5785,16.121 12.5885,15.021 12.5885,13.481 C12.5885,11.93 13.6005,10.808 14.9975,10.808 C15.7675,10.808 16.3285,11.105 16.8235,11.765 Z M15.1185,11.556 C14.5685,11.556 14.1835,11.743 13.8865,12.161 C13.6225,12.524 13.4685,13.008 13.4685,13.503 C13.4685,14.581 14.1725,15.395 15.0965,15.395 C16.0535,15.395 16.8345,14.504 16.8345,13.415 C16.8345,12.315 16.1305,11.556 15.1185,11.556 Z"/>
          <path fill="#C41261" fill-rule="nonzero" d="M30.794,8.792 L30.794,15.337 L29.87,15.337 L29.87,8.792 L28,8.792 L28,8 L32.653,8 L32.653,8.792 L30.794,8.792 Z M37.779,13.071 L33.555,13.071 C33.599,13.5 33.676,13.72 33.885,13.995 C34.215,14.446 34.699,14.688 35.249,14.688 C35.876,14.688 36.47,14.347 36.767,13.819 L37.504,14.094 C37.086,14.941 36.217,15.458 35.249,15.458 C33.742,15.458 32.664,14.358 32.664,12.818 C32.664,11.256 33.731,10.145 35.216,10.145 C36.69,10.145 37.79,11.256 37.79,12.741 C37.79,12.807 37.79,12.95 37.779,13.071 Z M33.566,12.455 L36.899,12.455 C36.866,12.059 36.789,11.839 36.613,11.586 C36.294,11.157 35.777,10.893 35.216,10.893 C34.655,10.893 34.149,11.157 33.852,11.597 C33.698,11.839 33.632,12.048 33.566,12.455 Z M40.452,13.5 L39.099,15.337 L38.076,15.337 L39.946,12.818 L38.043,10.266 L39.099,10.266 L40.452,12.125 L41.838,10.266 L42.861,10.266 L40.947,12.818 L42.773,15.337 L41.75,15.337 L40.452,13.5 Z M44.632,11.003 L44.632,14.303 C44.643,14.556 44.709,14.611 45.017,14.611 L45.402,14.611 L45.402,15.337 L44.621,15.337 C44.027,15.326 43.796,15.106 43.796,14.545 L43.796,11.003 L43.092,11.003 L43.092,10.266 L43.796,10.266 L43.796,8.671 L44.632,8.671 L44.632,10.266 L45.402,10.266 L45.402,11.003 L44.632,11.003 Z M47.349,14.281 C47.679,14.281 47.921,14.523 47.921,14.864 C47.921,15.183 47.668,15.425 47.349,15.425 C47.019,15.425 46.777,15.183 46.777,14.853 C46.777,14.523 47.019,14.281 47.349,14.281 Z M47.349,11.113 C47.679,11.113 47.921,11.355 47.921,11.696 C47.921,12.015 47.668,12.257 47.349,12.257 C47.019,12.257 46.777,12.015 46.777,11.685 C46.777,11.355 47.019,11.113 47.349,11.113 Z M53.762,12.092 L53.762,15.337 L52.838,15.337 L52.838,8 L53.762,8 L53.762,11.3 L57.337,11.3 L57.337,8 L58.261,8 L58.261,15.337 L57.337,15.337 L57.337,12.092 L53.762,12.092 Z M64.718,13.071 L60.494,13.071 C60.538,13.5 60.615,13.72 60.824,13.995 C61.154,14.446 61.638,14.688 62.188,14.688 C62.815,14.688 63.409,14.347 63.706,13.819 L64.443,14.094 C64.025,14.941 63.156,15.458 62.188,15.458 C60.681,15.458 59.603,14.358 59.603,12.818 C59.603,11.256 60.67,10.145 62.155,10.145 C63.629,10.145 64.729,11.256 64.729,12.741 C64.729,12.807 64.729,12.95 64.718,13.071 Z M60.505,12.455 L63.838,12.455 C63.805,12.059 63.728,11.839 63.552,11.586 C63.233,11.157 62.716,10.893 62.155,10.893 C61.594,10.893 61.088,11.157 60.791,11.597 C60.637,11.839 60.571,12.048 60.505,12.455 Z M69.789,11.102 L69.789,10.266 L70.625,10.266 L70.625,15.337 L69.789,15.337 L69.789,14.358 C69.283,15.117 68.711,15.458 67.941,15.458 C66.544,15.458 65.554,14.358 65.554,12.818 C65.554,11.267 66.566,10.145 67.963,10.145 C68.733,10.145 69.294,10.442 69.789,11.102 Z M68.084,10.893 C67.534,10.893 67.149,11.08 66.852,11.498 C66.588,11.861 66.434,12.345 66.434,12.84 C66.434,13.918 67.138,14.732 68.062,14.732 C69.019,14.732 69.8,13.841 69.8,12.752 C69.8,11.652 69.096,10.893 68.084,10.893 Z M76.103,11.036 L76.103,8 L76.939,8 L76.939,15.337 L76.103,15.337 L76.103,14.468 C75.597,15.161 75.058,15.458 74.288,15.458 C72.891,15.458 71.901,14.369 71.901,12.829 C71.901,11.289 72.913,10.145 74.288,10.145 C75.036,10.145 75.608,10.42 76.103,11.036 Z M74.464,10.893 C73.463,10.893 72.781,11.685 72.781,12.84 C72.781,13.951 73.452,14.732 74.409,14.732 C75.388,14.732 76.103,13.918 76.103,12.818 C76.103,11.674 75.432,10.893 74.464,10.893 Z M79.458,15.337 L78.622,15.337 L78.622,8 L79.458,8 L79.458,15.337 Z M81.977,10.266 L81.977,15.337 L81.141,15.337 L81.141,10.266 L81.977,10.266 Z M81.57,8.297 C81.867,8.297 82.098,8.539 82.098,8.847 C82.098,9.144 81.856,9.375 81.559,9.375 C81.262,9.375 81.031,9.144 81.031,8.836 C81.031,8.528 81.262,8.297 81.57,8.297 Z M83.66,10.266 L84.496,10.266 L84.496,10.981 C84.936,10.387 85.376,10.145 86.003,10.145 C86.465,10.145 86.883,10.299 87.18,10.563 C87.499,10.871 87.609,11.223 87.609,11.916 L87.609,15.337 L86.773,15.337 L86.773,12.103 C86.773,11.652 86.718,11.41 86.586,11.234 C86.432,11.025 86.135,10.893 85.794,10.893 C85.42,10.893 85.079,11.036 84.826,11.322 C84.584,11.586 84.496,11.828 84.496,12.246 L84.496,15.337 L83.66,15.337 L83.66,10.266 Z M93.967,13.071 L89.743,13.071 C89.787,13.5 89.864,13.72 90.073,13.995 C90.403,14.446 90.887,14.688 91.437,14.688 C92.064,14.688 92.658,14.347 92.955,13.819 L93.692,14.094 C93.274,14.941 92.405,15.458 91.437,15.458 C89.93,15.458 88.852,14.358 88.852,12.818 C88.852,11.256 89.919,10.145 91.404,10.145 C92.878,10.145 93.978,11.256 93.978,12.741 C93.978,12.807 93.978,12.95 93.967,13.071 Z M89.754,12.455 L93.087,12.455 C93.054,12.059 92.977,11.839 92.801,11.586 C92.482,11.157 91.965,10.893 91.404,10.893 C90.843,10.893 90.337,11.157 90.04,11.597 C89.886,11.839 89.82,12.048 89.754,12.455 Z"/>
        </g>
      </g>
    </g>
    <g transform="translate(110 54)">
      <rect width="359" height="56" fill="#25333D" rx="14"/>
      <rect width="66" height="32" x="285" y="12"/>
      <path fill="#89CBDF" d="M302.271035,34 L301.175332,30.8208008 L296.609902,30.8208008 L295.505898,34 L293.596719,34 L297.921426,22.0219727 L299.921914,22.0219727 L304.246621,34 L302.271035,34 Z M298.826211,24.1967773 L297.083047,29.2602539 L300.702187,29.2602539 L298.967324,24.1967773 L298.826211,24.1967773 Z M312.867871,27.9155273 L311.133008,27.9155273 C310.925488,27.0356445 310.19502,26.3798828 308.999707,26.3798828 C307.505566,26.3798828 306.59248,27.5253906 306.59248,29.4511719 C306.59248,31.4101562 307.513867,32.5805664 308.999707,32.5805664 C310.128613,32.5805664 310.900586,32.065918 311.133008,31.0947266 L312.867871,31.0947266 C312.635449,32.9125977 311.240918,34.1743164 309.008008,34.1743164 C306.37666,34.1743164 304.766309,32.3979492 304.766309,29.4511719 C304.766309,26.5541992 306.368359,24.7861328 308.999707,24.7861328 C311.26582,24.7861328 312.635449,26.105957 312.867871,27.9155273 Z M315.255234,22.7109375 L317.039902,22.7109375 L317.039902,25.0019531 L318.998887,25.0019531 L318.998887,26.5043945 L317.039902,26.5043945 L317.039902,31.152832 C317.039902,32.0991211 317.430039,32.5141602 318.318223,32.5141602 C318.592148,32.5141602 318.749863,32.4975586 318.998887,32.4726562 L318.998887,33.9584961 C318.708359,34.0083008 318.376328,34.0498047 318.027695,34.0498047 C316.043809,34.0498047 315.255234,33.3525391 315.255234,31.609375 L315.255234,26.5043945 L313.819199,26.5043945 L313.819199,25.0019531 L315.255234,25.0019531 L315.255234,22.7109375 Z M320.722187,34 L320.722187,24.9604492 L322.498555,24.9604492 L322.498555,34 L320.722187,34 Z M321.610371,23.375 C320.946309,23.375 320.456562,22.9018555 320.456562,22.2875977 C320.456562,21.6650391 320.946309,21.1918945 321.610371,21.1918945 C322.274434,21.1918945 322.76418,21.6650391 322.76418,22.2875977 C322.76418,22.9018555 322.274434,23.375 321.610371,23.375 Z M328.529961,34.1743164 C325.882012,34.1743164 324.263359,32.40625 324.263359,29.4760742 C324.263359,26.5625 325.890312,24.7861328 328.529961,24.7861328 C331.161309,24.7861328 332.788262,26.5625 332.788262,29.4760742 C332.788262,32.40625 331.169609,34.1743164 328.529961,34.1743164 Z M328.529961,32.5888672 C330.073906,32.5888672 330.953789,31.4433594 330.953789,29.4760742 C330.953789,27.5170898 330.073906,26.371582 328.529961,26.371582 C326.977715,26.371582 326.106133,27.5170898 326.106133,29.4760742 C326.106133,31.4516602 326.977715,32.5888672 328.529961,32.5888672 Z M334.519863,34 L334.519863,24.9604492 L336.238125,24.9604492 L336.238125,26.3964844 L336.370937,26.3964844 C336.810879,25.3920898 337.707363,24.7861328 339.068691,24.7861328 C341.085781,24.7861328 342.198086,25.9980469 342.198086,28.1479492 L342.198086,34 L340.413418,34 L340.413418,28.5961914 C340.413418,27.1435547 339.782559,26.4213867 338.462734,26.4213867 C337.14291,26.4213867 336.304531,27.3012695 336.304531,28.7124023 L336.304531,34 L334.519863,34 Z"/>
      <path fill="#FFF" d="M16.8984375,30.0546875 L18.3203125,30.0546875 C18.4921875,31.234375 19.6171875,31.984375 21.21875,31.984375 C22.734375,31.984375 23.8515625,31.1640625 23.8515625,30.046875 C23.8515625,29.0859375 23.1484375,28.4765625 21.59375,28.0859375 L20.1484375,27.7109375 C18.109375,27.1953125 17.2265625,26.2734375 17.2265625,24.671875 C17.2265625,22.7578125 18.828125,21.4609375 21.2109375,21.4609375 C23.390625,21.4609375 25.015625,22.7578125 25.1328125,24.578125 L23.71875,24.578125 C23.5234375,23.421875 22.5703125,22.734375 21.1640625,22.734375 C19.6640625,22.734375 18.671875,23.484375 18.671875,24.625 C18.671875,25.5078125 19.2890625,26.015625 20.84375,26.4140625 L22.0234375,26.7265625 C24.359375,27.3125 25.296875,28.21875 25.296875,29.875 C25.296875,31.9453125 23.6640625,33.265625 21.0859375,33.265625 C18.6953125,33.265625 17.046875,32 16.8984375,30.0546875 Z M27.1721875,33 L27.1721875,24.578125 L28.5159375,24.578125 L28.5159375,33 L27.1721875,33 Z M27.8440625,22.8671875 C27.3284375,22.8671875 26.9065625,22.4453125 26.9065625,21.9296875 C26.9065625,21.4140625 27.3284375,20.9921875 27.8440625,20.9921875 C28.3596875,20.9921875 28.7815625,21.4140625 28.7815625,21.9296875 C28.7815625,22.4453125 28.3596875,22.8671875 27.8440625,22.8671875 Z M30.7584375,33 L30.7584375,24.578125 L32.0396875,24.578125 L32.0396875,25.90625 L32.1646875,25.90625 C32.5865625,24.9765625 33.406875,24.4296875 34.6959375,24.4296875 C36.5865625,24.4296875 37.64125,25.546875 37.64125,27.546875 L37.64125,33 L36.2975,33 L36.2975,27.875 C36.2975,26.359375 35.656875,25.640625 34.313125,25.640625 C32.969375,25.640625 32.1021875,26.5390625 32.1021875,28.015625 L32.1021875,33 L30.7584375,33 Z M43.180625,31.6875 C44.743125,31.6875 45.680625,30.5 45.680625,28.6640625 C45.680625,26.828125 44.7353125,25.640625 43.180625,25.640625 C41.618125,25.640625 40.743125,26.828125 40.743125,28.6640625 C40.743125,30.5 41.618125,31.6875 43.180625,31.6875 Z M43.243125,36.234375 C41.211875,36.234375 39.915,35.3203125 39.711875,33.9296875 L41.13375,33.9296875 C41.2821875,34.6171875 42.0321875,35.0625 43.243125,35.0625 C44.7509375,35.0625 45.649375,34.3203125 45.649375,33.078125 L45.649375,31.421875 L45.524375,31.421875 C44.993125,32.3515625 44.04,32.875 42.88375,32.875 C40.7040625,32.875 39.3525,31.1875 39.3525,28.6640625 C39.3525,26.140625 40.7196875,24.4296875 42.88375,24.4296875 C44.0634375,24.4296875 45.1025,25.0078125 45.586875,25.9140625 L45.711875,25.9140625 L45.711875,24.578125 L46.993125,24.578125 L46.993125,33.1484375 C46.993125,35.03125 45.54,36.234375 43.243125,36.234375 Z M49.2825,33 L49.2825,21.234375 L50.62625,21.234375 L50.62625,33 L49.2825,33 Z M56.275,25.6171875 C54.93125,25.6171875 53.99375,26.6015625 53.8921875,28.09375 L58.5328125,28.09375 C58.5015625,26.6015625 57.6109375,25.6171875 56.275,25.6171875 Z M58.49375,30.8203125 L59.8375,30.8203125 C59.43125,32.265625 58.134375,33.1484375 56.290625,33.1484375 C53.9546875,33.1484375 52.49375,31.4609375 52.49375,28.796875 C52.49375,26.1484375 53.978125,24.4296875 56.290625,24.4296875 C58.5640625,24.4296875 59.946875,26.046875 59.946875,28.6640625 L59.946875,29.1796875 L53.8921875,29.1796875 L53.8921875,29.2421875 C53.9625,30.90625 54.8921875,31.9609375 56.321875,31.9609375 C57.4078125,31.9609375 58.1421875,31.5625 58.49375,30.8203125 Z M66.0100001,33 L66.0100001,21.234375 L67.3537501,21.234375 L67.3537501,33 L66.0100001,33 Z M69.6743751,33 L69.6743751,24.578125 L71.0181251,24.578125 L71.0181251,33 L69.6743751,33 Z M70.3462501,22.8671875 C69.8306251,22.8671875 69.4087501,22.4453125 69.4087501,21.9296875 C69.4087501,21.4140625 69.8306251,20.9921875 70.3462501,20.9921875 C70.8618751,20.9921875 71.2837501,21.4140625 71.2837501,21.9296875 C71.2837501,22.4453125 70.8618751,22.8671875 70.3462501,22.8671875 Z M73.2606251,33 L73.2606251,24.578125 L74.5418751,24.578125 L74.5418751,25.90625 L74.6668751,25.90625 C75.0887501,24.9765625 75.9090626,24.4296875 77.1981251,24.4296875 C79.0887501,24.4296875 80.1434376,25.546875 80.1434376,27.546875 L80.1434376,33 L78.7996876,33 L78.7996876,27.875 C78.7996876,26.359375 78.1590626,25.640625 76.8153126,25.640625 C75.4715626,25.640625 74.6043751,26.5390625 74.6043751,28.015625 L74.6043751,33 L73.2606251,33 Z M85.6359376,25.6171875 C84.2921876,25.6171875 83.3546876,26.6015625 83.2531251,28.09375 L87.8937501,28.09375 C87.8625001,26.6015625 86.9718751,25.6171875 85.6359376,25.6171875 Z M87.8546876,30.8203125 L89.1984376,30.8203125 C88.7921876,32.265625 87.4953126,33.1484375 85.6515626,33.1484375 C83.3156251,33.1484375 81.8546876,31.4609375 81.8546876,28.796875 C81.8546876,26.1484375 83.3390626,24.4296875 85.6515626,24.4296875 C87.9250001,24.4296875 89.3078126,26.046875 89.3078126,28.6640625 L89.3078126,29.1796875 L83.2531251,29.1796875 L83.2531251,29.2421875 C83.3234376,30.90625 84.2531251,31.9609375 85.6828126,31.9609375 C86.7687501,31.9609375 87.5031251,31.5625 87.8546876,30.8203125 Z M95.2928126,33 L95.2928126,24.578125 L96.5740626,24.578125 L96.5740626,25.90625 L96.6990626,25.90625 C97.0818751,24.96875 97.9256251,24.4296875 99.0506251,24.4296875 C100.19125,24.4296875 100.988125,25.03125 101.37875,25.90625 L101.50375,25.90625 C101.956875,25.015625 102.917813,24.4296875 104.081875,24.4296875 C105.800625,24.4296875 106.761563,25.4140625 106.761563,27.1796875 L106.761563,33 L105.417813,33 L105.417813,27.4921875 C105.417813,26.25 104.831875,25.640625 103.644375,25.640625 C102.4725,25.640625 101.69125,26.515625 101.69125,27.5859375 L101.69125,33 L100.3475,33 L100.3475,27.28125 C100.3475,26.28125 99.6521876,25.640625 98.5896876,25.640625 C97.4881251,25.640625 96.6365626,26.59375 96.6365626,27.78125 L96.6365626,33 L95.2928126,33 Z M112.254063,25.6171875 C110.910313,25.6171875 109.972813,26.6015625 109.87125,28.09375 L114.511875,28.09375 C114.480625,26.6015625 113.59,25.6171875 112.254063,25.6171875 Z M114.472813,30.8203125 L115.816563,30.8203125 C115.410313,32.265625 114.113438,33.1484375 112.269688,33.1484375 C109.93375,33.1484375 108.472813,31.4609375 108.472813,28.796875 C108.472813,26.1484375 109.957188,24.4296875 112.269688,24.4296875 C114.543125,24.4296875 115.925938,26.046875 115.925938,28.6640625 L115.925938,29.1796875 L109.87125,29.1796875 L109.87125,29.2421875 C109.941563,30.90625 110.87125,31.9609375 112.300938,31.9609375 C113.386875,31.9609375 114.12125,31.5625 114.472813,30.8203125 Z M117.52,26.8828125 C117.52,25.484375 118.871563,24.4296875 120.660625,24.4296875 C122.42625,24.4296875 123.652813,25.3046875 123.8325,26.6875 L122.504375,26.6875 C122.324688,26.015625 121.668438,25.5703125 120.652813,25.5703125 C119.652813,25.5703125 118.871563,26.078125 118.871563,26.828125 C118.871563,27.40625 119.340313,27.765625 120.3325,28.0078125 L121.629375,28.3203125 C123.215313,28.703125 123.980938,29.390625 123.980938,30.6015625 C123.980938,32.109375 122.52,33.1484375 120.605938,33.1484375 C118.730938,33.1484375 117.441875,32.25 117.293438,30.8515625 L118.67625,30.8515625 C118.902813,31.5625 119.574688,32.015625 120.652813,32.015625 C121.785625,32.015625 122.598125,31.4765625 122.598125,30.703125 C122.598125,30.125 122.160625,29.734375 121.262188,29.515625 L119.816875,29.1640625 C118.23875,28.78125 117.52,28.1015625 117.52,26.8828125 Z M125.41875,26.8828125 C125.41875,25.484375 126.770313,24.4296875 128.559375,24.4296875 C130.325,24.4296875 131.551563,25.3046875 131.73125,26.6875 L130.403125,26.6875 C130.223438,26.015625 129.567188,25.5703125 128.551563,25.5703125 C127.551563,25.5703125 126.770313,26.078125 126.770313,26.828125 C126.770313,27.40625 127.239063,27.765625 128.23125,28.0078125 L129.528125,28.3203125 C131.114063,28.703125 131.879688,29.390625 131.879688,30.6015625 C131.879688,32.109375 130.41875,33.1484375 128.504688,33.1484375 C126.629688,33.1484375 125.340625,32.25 125.192188,30.8515625 L126.575,30.8515625 C126.801563,31.5625 127.473438,32.015625 128.551563,32.015625 C129.684375,32.015625 130.496875,31.4765625 130.496875,30.703125 C130.496875,30.125 130.059375,29.734375 129.160938,29.515625 L127.715625,29.1640625 C126.1375,28.78125 125.41875,28.1015625 125.41875,26.8828125 Z M136.262813,31.96875 C137.645625,31.96875 138.669063,31.0625 138.669063,29.859375 L138.669063,29.0859375 L136.403438,29.234375 C135.122188,29.3203125 134.559688,29.765625 134.559688,30.609375 C134.559688,31.46875 135.28625,31.96875 136.262813,31.96875 Z M136.012813,33.1484375 C134.38,33.1484375 133.169063,32.1796875 133.169063,30.640625 C133.169063,29.1328125 134.278438,28.265625 136.239375,28.1484375 L138.669063,28 L138.669063,27.234375 C138.669063,26.1953125 138.020625,25.625 136.762813,25.625 C135.755,25.625 135.051875,26.0078125 134.864375,26.671875 L133.505,26.671875 C133.684688,25.3203125 135.012813,24.4296875 136.809688,24.4296875 C138.864375,24.4296875 140.012813,25.484375 140.012813,27.234375 L140.012813,33 L138.731563,33 L138.731563,31.7578125 L138.606563,31.7578125 C138.059688,32.65625 137.137813,33.1484375 136.012813,33.1484375 Z M145.583438,31.6875 C147.145938,31.6875 148.083438,30.5 148.083438,28.6640625 C148.083438,26.828125 147.138125,25.640625 145.583438,25.640625 C144.020938,25.640625 143.145938,26.828125 143.145938,28.6640625 C143.145938,30.5 144.020938,31.6875 145.583438,31.6875 Z M145.645938,36.234375 C143.614688,36.234375 142.317813,35.3203125 142.114688,33.9296875 L143.536563,33.9296875 C143.685,34.6171875 144.435,35.0625 145.645938,35.0625 C147.15375,35.0625 148.052188,34.3203125 148.052188,33.078125 L148.052188,31.421875 L147.927188,31.421875 C147.395938,32.3515625 146.442813,32.875 145.286563,32.875 C143.106875,32.875 141.755313,31.1875 141.755313,28.6640625 C141.755313,26.140625 143.1225,24.4296875 145.286563,24.4296875 C146.46625,24.4296875 147.505313,25.0078125 147.989688,25.9140625 L148.114688,25.9140625 L148.114688,24.578125 L149.395938,24.578125 L149.395938,33.1484375 C149.395938,35.03125 147.942813,36.234375 145.645938,36.234375 Z M154.966563,25.6171875 C153.622813,25.6171875 152.685313,26.6015625 152.58375,28.09375 L157.224375,28.09375 C157.193125,26.6015625 156.3025,25.6171875 154.966563,25.6171875 Z M157.185313,30.8203125 L158.529063,30.8203125 C158.122813,32.265625 156.825938,33.1484375 154.982188,33.1484375 C152.64625,33.1484375 151.185313,31.4609375 151.185313,28.796875 C151.185313,26.1484375 152.669688,24.4296875 154.982188,24.4296875 C157.255625,24.4296875 158.638438,26.046875 158.638438,28.6640625 L158.638438,29.1796875 L152.58375,29.1796875 L152.58375,29.2421875 C152.654063,30.90625 153.58375,31.9609375 155.013438,31.9609375 C156.099375,31.9609375 156.83375,31.5625 157.185313,30.8203125 Z M167.217188,31.96875 C168.6,31.96875 169.623438,31.0625 169.623438,29.859375 L169.623438,29.0859375 L167.357813,29.234375 C166.076563,29.3203125 165.514063,29.765625 165.514063,30.609375 C165.514063,31.46875 166.240625,31.96875 167.217188,31.96875 Z M166.967188,33.1484375 C165.334375,33.1484375 164.123438,32.1796875 164.123438,30.640625 C164.123438,29.1328125 165.232813,28.265625 167.19375,28.1484375 L169.623438,28 L169.623438,27.234375 C169.623438,26.1953125 168.975,25.625 167.717188,25.625 C166.709375,25.625 166.00625,26.0078125 165.81875,26.671875 L164.459375,26.671875 C164.639063,25.3203125 165.967188,24.4296875 167.764063,24.4296875 C169.81875,24.4296875 170.967188,25.484375 170.967188,27.234375 L170.967188,33 L169.685938,33 L169.685938,31.7578125 L169.560938,31.7578125 C169.014063,32.65625 168.092188,33.1484375 166.967188,33.1484375 Z M180.100313,27.15625 L178.740938,27.15625 C178.522188,26.3203125 177.78,25.640625 176.569063,25.640625 C175.053438,25.640625 174.100313,26.8515625 174.100313,28.7578125 C174.100313,30.703125 175.069063,31.9375 176.569063,31.9375 C177.701875,31.9375 178.490938,31.4140625 178.740938,30.4609375 L180.100313,30.4609375 C179.858125,32.0078125 178.600313,33.1484375 176.576875,33.1484375 C174.2175,33.1484375 172.709688,31.4375 172.709688,28.7578125 C172.709688,26.1328125 174.209688,24.4296875 176.569063,24.4296875 C178.615938,24.4296875 179.865938,25.65625 180.100313,27.15625 Z M182.483438,22.3984375 L183.827188,22.3984375 L183.827188,24.578125 L185.702188,24.578125 L185.702188,25.703125 L183.827188,25.703125 L183.827188,30.46875 C183.827188,31.4609375 184.202188,31.8828125 185.077188,31.8828125 C185.319375,31.8828125 185.452188,31.875 185.702188,31.8515625 L185.702188,32.984375 C185.436563,33.03125 185.17875,33.0625 184.913125,33.0625 C183.17875,33.0625 182.483438,32.421875 182.483438,30.8125 L182.483438,25.703125 L181.124063,25.703125 L181.124063,24.578125 L182.483438,24.578125 L182.483438,22.3984375 Z M187.444688,33 L187.444688,24.578125 L188.788438,24.578125 L188.788438,33 L187.444688,33 Z M188.116563,22.8671875 C187.600938,22.8671875 187.179063,22.4453125 187.179063,21.9296875 C187.179063,21.4140625 187.600938,20.9921875 188.116563,20.9921875 C188.632188,20.9921875 189.054063,21.4140625 189.054063,21.9296875 C189.054063,22.4453125 188.632188,22.8671875 188.116563,22.8671875 Z M194.491875,33.1484375 C192.093438,33.1484375 190.609063,31.4921875 190.609063,28.7890625 C190.609063,26.078125 192.093438,24.4296875 194.491875,24.4296875 C196.890313,24.4296875 198.374688,26.078125 198.374688,28.7890625 C198.374688,31.4921875 196.890313,33.1484375 194.491875,33.1484375 Z M194.491875,31.9375 C196.085625,31.9375 196.984063,30.78125 196.984063,28.7890625 C196.984063,26.7890625 196.085625,25.640625 194.491875,25.640625 C192.898125,25.640625 191.999688,26.7890625 191.999688,28.7890625 C191.999688,30.78125 192.898125,31.9375 194.491875,31.9375 Z M200.164063,33 L200.164063,24.578125 L201.445313,24.578125 L201.445313,25.90625 L201.570313,25.90625 C201.992188,24.9765625 202.8125,24.4296875 204.101563,24.4296875 C205.992188,24.4296875 207.046875,25.546875 207.046875,27.546875 L207.046875,33 L205.703125,33 L205.703125,27.875 C205.703125,26.359375 205.0625,25.640625 203.71875,25.640625 C202.375,25.640625 201.507813,26.5390625 201.507813,28.015625 L201.507813,33 L200.164063,33 Z M210.289375,33.078125 C209.734688,33.078125 209.27375,32.6171875 209.27375,32.0625 C209.27375,31.5 209.734688,31.046875 210.289375,31.046875 C210.851875,31.046875 211.305,31.5 211.305,32.0625 C211.305,32.6171875 210.851875,33.078125 210.289375,33.078125 Z"/>
      <g fill="#C41261" transform="translate(351 9)">
        <rect width="1" height="9"/>
        <rect width="1" height="9" x="7"/>
        <rect width="6" height="1" x="1" y="4"/>
        <path d="M11.837,4.92 L11.837,8 L10.913,8 L10.913,0.663 L12.915,0.663 C14.477,0.663 15.423,1.466 15.423,2.797 C15.423,3.622 15.049,4.282 14.367,4.645 C14.015,4.832 13.685,4.909 13.014,4.953 L15.863,8 L14.686,8 L11.837,4.92 Z M11.837,4.293 L12.761,4.293 C13.872,4.293 14.477,3.787 14.477,2.863 C14.477,1.95 13.927,1.455 12.915,1.455 L11.837,1.455 L11.837,4.293 Z M17.425,6.944 C17.755,6.944 17.997,7.186 17.997,7.527 C17.997,7.846 17.744,8.088 17.425,8.088 C17.095,8.088 16.853,7.846 16.853,7.516 C16.853,7.186 17.095,6.944 17.425,6.944 Z M17.425,3.776 C17.755,3.776 17.997,4.018 17.997,4.359 C17.997,4.678 17.744,4.92 17.425,4.92 C17.095,4.92 16.853,4.678 16.853,4.348 C16.853,4.018 17.095,3.776 17.425,3.776 Z M22.331,4.018 C22.749,4.15 22.947,4.249 23.178,4.491 C23.541,4.854 23.728,5.338 23.728,5.91 C23.728,7.208 22.771,8.132 21.429,8.132 C20.098,8.132 19.163,7.241 19.163,5.987 C19.163,5.404 19.361,4.876 19.713,4.513 C19.944,4.271 20.131,4.161 20.571,4.018 C20.186,3.886 20.021,3.776 19.823,3.534 C19.581,3.237 19.449,2.863 19.449,2.456 C19.449,1.411 20.307,0.641 21.473,0.641 C22.628,0.641 23.464,1.4 23.464,2.445 C23.464,2.863 23.321,3.259 23.057,3.567 C22.859,3.787 22.705,3.886 22.331,4.018 Z M21.473,1.411 C20.769,1.411 20.285,1.851 20.285,2.467 C20.285,3.094 20.802,3.589 21.451,3.589 C22.078,3.589 22.639,3.072 22.639,2.478 C22.639,1.906 22.1,1.411 21.473,1.411 Z M21.462,4.48 C20.67,4.48 20.032,5.107 20.032,5.899 C20.032,6.68 20.659,7.318 21.44,7.318 C22.221,7.318 22.848,6.68 22.848,5.899 C22.848,5.129 22.221,4.48 21.462,4.48 Z M25.037,2.929 L25.873,2.929 L25.873,3.853 C26.357,3.105 26.874,2.808 27.721,2.808 C29.129,2.808 30.108,3.886 30.108,5.426 C30.108,7.021 29.129,8.121 27.721,8.121 C27.325,8.121 26.962,8.033 26.61,7.857 C26.302,7.703 26.148,7.571 25.873,7.208 L25.873,10.376 L25.037,10.376 L25.037,2.929 Z M27.578,3.556 C26.566,3.556 25.873,4.359 25.873,5.547 C25.873,6.658 26.544,7.395 27.545,7.395 C28.546,7.395 29.217,6.614 29.217,5.459 C29.217,4.865 29.074,4.414 28.777,4.084 C28.48,3.754 28.029,3.556 27.578,3.556 Z M32.99,6.163 L31.637,8 L30.614,8 L32.484,5.481 L30.581,2.929 L31.637,2.929 L32.99,4.788 L34.376,2.929 L35.399,2.929 L33.485,5.481 L35.311,8 L34.288,8 L32.99,6.163 Z M41.658,10.046 L41.108,10.574 C39.81,8.979 39.216,7.428 39.216,5.58 C39.216,3.688 39.909,1.818 41.13,0.443 L41.658,0.993 C40.547,2.368 39.997,3.897 39.997,5.547 C39.997,7.153 40.591,8.759 41.658,10.046 Z M43.814,3.666 L43.814,8 L42.978,8 L42.978,3.666 L42.285,3.666 L42.285,2.929 L42.978,2.929 L42.978,2.247 C42.978,1.246 43.495,0.652 44.375,0.652 C44.419,0.652 44.518,0.652 44.606,0.663 L44.606,1.411 C44.001,1.477 43.836,1.653 43.814,2.247 L43.814,2.929 L44.606,2.929 L44.606,3.666 L43.814,3.666 Z M46.806,2.929 L46.806,8 L45.97,8 L45.97,2.929 L46.806,2.929 Z M46.388,0.96 C46.685,0.96 46.916,1.202 46.916,1.51 C46.916,1.807 46.685,2.038 46.388,2.038 C46.08,2.038 45.849,1.807 45.849,1.499 C45.849,1.191 46.08,0.96 46.388,0.96 Z M50.106,6.163 L48.753,8 L47.73,8 L49.6,5.481 L47.697,2.929 L48.753,2.929 L50.106,4.788 L51.492,2.929 L52.515,2.929 L50.601,5.481 L52.427,8 L51.404,8 L50.106,6.163 Z M58.103,5.734 L53.879,5.734 C53.923,6.163 54,6.383 54.209,6.658 C54.539,7.109 55.023,7.351 55.573,7.351 C56.2,7.351 56.794,7.01 57.091,6.482 L57.828,6.757 C57.41,7.604 56.541,8.121 55.573,8.121 C54.066,8.121 52.988,7.021 52.988,5.481 C52.988,3.919 54.055,2.808 55.54,2.808 C57.014,2.808 58.114,3.919 58.114,5.404 C58.114,5.47 58.114,5.613 58.103,5.734 Z M53.89,5.118 L57.223,5.118 C57.19,4.722 57.113,4.502 56.937,4.249 C56.618,3.82 56.101,3.556 55.54,3.556 C54.979,3.556 54.473,3.82 54.176,4.26 C54.022,4.502 53.956,4.711 53.89,5.118 Z M63.119,3.699 L63.119,0.663 L63.955,0.663 L63.955,8 L63.119,8 L63.119,7.131 C62.613,7.824 62.074,8.121 61.304,8.121 C59.907,8.121 58.917,7.032 58.917,5.492 C58.917,3.952 59.929,2.808 61.304,2.808 C62.052,2.808 62.624,3.083 63.119,3.699 Z M61.48,3.556 C60.479,3.556 59.797,4.348 59.797,5.503 C59.797,6.614 60.468,7.395 61.425,7.395 C62.404,7.395 63.119,6.581 63.119,5.481 C63.119,4.337 62.448,3.556 61.48,3.556 Z M65.187,0.971 L65.737,0.443 C67.046,2.049 67.629,3.589 67.629,5.437 C67.629,7.34 66.936,9.188 65.715,10.574 L65.187,10.024 C66.298,8.649 66.848,7.12 66.848,5.47 C66.848,3.853 66.265,2.269 65.187,0.971 Z"/>
      </g>
      <use fill-rule="nonzero" stroke="#F897BF" stroke-dasharray="1" stroke-width="2" mask="url(#2-e)" transform="translate(290 6)" xlink:href="#2-b"/>
      <g fill="#F897BF" transform="translate(229 1)">
        <g transform="translate(53 5)">
          <rect width="1" height="9"/>
          <rect width="1" height="9" x="8"/>
          <rect width="7" height="1" x="1" y="4"/>
        </g>
        <path d="M2.581,10.164 L5.166,10.164 L5.166,11 L1.657,11 L1.657,3.663 L2.581,3.663 L2.581,10.164 Z M6.706,9.944 C7.036,9.944 7.278,10.186 7.278,10.527 C7.278,10.846 7.025,11.088 6.706,11.088 C6.376,11.088 6.134,10.846 6.134,10.516 C6.134,10.186 6.376,9.944 6.706,9.944 Z M6.706,6.776 C7.036,6.776 7.278,7.018 7.278,7.359 C7.278,7.678 7.025,7.92 6.706,7.92 C6.376,7.92 6.134,7.678 6.134,7.348 C6.134,7.018 6.376,6.776 6.706,6.776 Z M11.612,7.018 C12.03,7.15 12.228,7.249 12.459,7.491 C12.822,7.854 13.009,8.338 13.009,8.91 C13.009,10.208 12.052,11.132 10.71,11.132 C9.379,11.132 8.444,10.241 8.444,8.987 C8.444,8.404 8.642,7.876 8.994,7.513 C9.225,7.271 9.412,7.161 9.852,7.018 C9.467,6.886 9.302,6.776 9.104,6.534 C8.862,6.237 8.73,5.863 8.73,5.456 C8.73,4.411 9.588,3.641 10.754,3.641 C11.909,3.641 12.745,4.4 12.745,5.445 C12.745,5.863 12.602,6.259 12.338,6.567 C12.14,6.787 11.986,6.886 11.612,7.018 Z M10.754,4.411 C10.05,4.411 9.566,4.851 9.566,5.467 C9.566,6.094 10.083,6.589 10.732,6.589 C11.359,6.589 11.92,6.072 11.92,5.478 C11.92,4.906 11.381,4.411 10.754,4.411 Z M10.743,7.48 C9.951,7.48 9.313,8.107 9.313,8.899 C9.313,9.68 9.94,10.318 10.721,10.318 C11.502,10.318 12.129,9.68 12.129,8.899 C12.129,8.129 11.502,7.48 10.743,7.48 Z M14.318,5.929 L15.154,5.929 L15.154,6.853 C15.638,6.105 16.155,5.808 17.002,5.808 C18.41,5.808 19.389,6.886 19.389,8.426 C19.389,10.021 18.41,11.121 17.002,11.121 C16.606,11.121 16.243,11.033 15.891,10.857 C15.583,10.703 15.429,10.571 15.154,10.208 L15.154,13.376 L14.318,13.376 L14.318,5.929 Z M16.859,6.556 C15.847,6.556 15.154,7.359 15.154,8.547 C15.154,9.658 15.825,10.395 16.826,10.395 C17.827,10.395 18.498,9.614 18.498,8.459 C18.498,7.865 18.355,7.414 18.058,7.084 C17.761,6.754 17.31,6.556 16.859,6.556 Z M22.271,9.163 L20.918,11 L19.895,11 L21.765,8.481 L19.862,5.929 L20.918,5.929 L22.271,7.788 L23.657,5.929 L24.68,5.929 L22.766,8.481 L24.592,11 L23.569,11 L22.271,9.163 Z M30.939,13.046 L30.389,13.574 C29.091,11.979 28.497,10.428 28.497,8.58 C28.497,6.688 29.19,4.818 30.411,3.443 L30.939,3.993 C29.828,5.368 29.278,6.897 29.278,8.547 C29.278,10.153 29.872,11.759 30.939,13.046 Z M32.171,5.929 L33.007,5.929 L33.007,6.633 C33.392,6.05 33.821,5.808 34.448,5.808 C35.141,5.808 35.581,6.105 35.812,6.732 C36.186,6.083 36.659,5.808 37.418,5.808 C38.001,5.808 38.441,5.995 38.705,6.347 C38.947,6.666 39.013,6.952 39.013,7.755 L39.013,11 L38.177,11 L38.177,7.953 C38.177,7.337 38.155,7.194 38.034,6.985 C37.88,6.721 37.55,6.556 37.154,6.556 C36.417,6.556 36.01,7.051 36.01,7.953 L36.01,11 L35.174,11 L35.174,7.964 C35.174,7.469 35.13,7.216 35.009,6.996 C34.866,6.71 34.558,6.556 34.184,6.556 C33.447,6.556 33.007,7.084 33.007,7.964 L33.007,11 L32.171,11 L32.171,5.929 Z M41.499,5.929 L41.499,11 L40.663,11 L40.663,5.929 L41.499,5.929 Z M41.092,3.96 C41.389,3.96 41.62,4.202 41.62,4.51 C41.62,4.807 41.378,5.038 41.081,5.038 C40.784,5.038 40.553,4.807 40.553,4.499 C40.553,4.191 40.784,3.96 41.092,3.96 Z M43.182,5.929 L44.018,5.929 L44.018,6.644 C44.458,6.05 44.898,5.808 45.525,5.808 C45.987,5.808 46.405,5.962 46.702,6.226 C47.021,6.534 47.131,6.886 47.131,7.579 L47.131,11 L46.295,11 L46.295,7.766 C46.295,7.315 46.24,7.073 46.108,6.897 C45.954,6.688 45.657,6.556 45.316,6.556 C44.942,6.556 44.601,6.699 44.348,6.985 C44.106,7.249 44.018,7.491 44.018,7.909 L44.018,11 L43.182,11 L43.182,5.929 Z M48.33,3.971 L48.88,3.443 C50.189,5.049 50.772,6.589 50.772,8.437 C50.772,10.34 50.079,12.188 48.858,13.574 L48.33,13.024 C49.441,11.649 49.991,10.12 49.991,8.47 C49.991,6.853 49.408,5.269 48.33,3.971 Z"/>
      </g>
      <use fill-rule="nonzero" stroke="#6FEAD9" stroke-dasharray="1" stroke-width="2" mask="url(#2-f)" transform="translate(16 21)" xlink:href="#2-c"/>
      <g transform="translate(293 66)">
        <g transform="translate(0 2.48)">
          <polyline stroke="#979797" stroke-linecap="round" stroke-linejoin="round" points=".96 4.8 6.128 0 6.128 0 11.295 4.8" transform="rotate(180 6.128 2.4)"/>
          <polyline stroke="#979797" stroke-linecap="round" stroke-linejoin="round" points=".96 11.04 6.128 6.24 6.128 6.24 11.295 11.04" transform="matrix(-1 0 0 1 12.255 0)"/>
          <path stroke="#C41261" d="M0.1875,5.52 L11.8125,5.52"/>
        </g>
        <path fill="#C41261" d="M20.0835,5.929 L20.9525,5.929 L19.0385,11 L18.1585,11 L16.2995,5.929 L17.1795,5.929 L18.6095,9.801 L20.0835,5.929 Z M22.2835,9.944 C22.6135,9.944 22.8555,10.186 22.8555,10.527 C22.8555,10.846 22.6025,11.088 22.2835,11.088 C21.9535,11.088 21.7115,10.846 21.7115,10.516 C21.7115,10.186 21.9535,9.944 22.2835,9.944 Z M27.8275,9.801 L28.3445,10.373 C27.7725,10.89 27.2115,11.121 26.4745,11.121 C25.0225,11.121 23.9885,10.021 23.9885,8.481 C23.9885,6.908 25.0335,5.808 26.5185,5.808 C27.2445,5.808 27.8385,6.05 28.3665,6.567 L27.8275,7.106 C27.4425,6.754 27.0135,6.578 26.5405,6.578 C25.5395,6.578 24.8465,7.348 24.8465,8.448 C24.8465,9.57 25.5395,10.351 26.5295,10.351 C27.0245,10.351 27.4205,10.186 27.8275,9.801 Z M34.1305,8.734 L29.9065,8.734 C29.9505,9.163 30.0275,9.383 30.2365,9.658 C30.5665,10.109 31.0505,10.351 31.6005,10.351 C32.2275,10.351 32.8215,10.01 33.1185,9.482 L33.8555,9.757 C33.4375,10.604 32.5685,11.121 31.6005,11.121 C30.0935,11.121 29.0155,10.021 29.0155,8.481 C29.0155,6.919 30.0825,5.808 31.5675,5.808 C33.0415,5.808 34.1415,6.919 34.1415,8.404 C34.1415,8.47 34.1415,8.613 34.1305,8.734 Z M29.9175,8.118 L33.2505,8.118 C33.2175,7.722 33.1405,7.502 32.9645,7.249 C32.6455,6.82 32.1285,6.556 31.5675,6.556 C31.0065,6.556 30.5005,6.82 30.2035,7.26 C30.0495,7.502 29.9835,7.711 29.9175,8.118 Z M35.3515,5.929 L36.1875,5.929 L36.1875,6.644 C36.6275,6.05 37.0675,5.808 37.6945,5.808 C38.1565,5.808 38.5745,5.962 38.8715,6.226 C39.1905,6.534 39.3005,6.886 39.3005,7.579 L39.3005,11 L38.4645,11 L38.4645,7.766 C38.4645,7.315 38.4095,7.073 38.2775,6.897 C38.1235,6.688 37.8265,6.556 37.4855,6.556 C37.1115,6.556 36.7705,6.699 36.5175,6.985 C36.2755,7.249 36.1875,7.491 36.1875,7.909 L36.1875,11 L35.3515,11 L35.3515,5.929 Z M41.8415,6.666 L41.8415,9.966 C41.8525,10.219 41.9185,10.274 42.2265,10.274 L42.6115,10.274 L42.6115,11 L41.8305,11 C41.2365,10.989 41.0055,10.769 41.0055,10.208 L41.0055,6.666 L40.3015,6.666 L40.3015,5.929 L41.0055,5.929 L41.0055,4.334 L41.8415,4.334 L41.8415,5.929 L42.6115,5.929 L42.6115,6.666 L41.8415,6.666 Z M48.5075,8.734 L44.2835,8.734 C44.3275,9.163 44.4045,9.383 44.6135,9.658 C44.9435,10.109 45.4275,10.351 45.9775,10.351 C46.6045,10.351 47.1985,10.01 47.4955,9.482 L48.2325,9.757 C47.8145,10.604 46.9455,11.121 45.9775,11.121 C44.4705,11.121 43.3925,10.021 43.3925,8.481 C43.3925,6.919 44.4595,5.808 45.9445,5.808 C47.4185,5.808 48.5185,6.919 48.5185,8.404 C48.5185,8.47 48.5185,8.613 48.5075,8.734 Z M44.2945,8.118 L47.6275,8.118 C47.5945,7.722 47.5175,7.502 47.3415,7.249 C47.0225,6.82 46.5055,6.556 45.9445,6.556 C45.3835,6.556 44.8775,6.82 44.5805,7.26 C44.4265,7.502 44.3605,7.711 44.2945,8.118 Z M49.7285,5.929 L50.5645,5.929 L50.5645,6.787 C50.7185,6.424 50.8285,6.27 51.0265,6.116 C51.2795,5.918 51.6315,5.808 51.9945,5.808 L52.1925,5.808 L52.1925,6.655 C52.1045,6.644 52.0165,6.644 51.9615,6.644 C51.5105,6.644 51.1145,6.853 50.8615,7.227 C50.6415,7.546 50.5645,7.843 50.5645,8.426 L50.5645,11 L49.7285,11 L49.7285,5.929 Z M57.3625,10.131 L57.3625,11 L56.5265,11 L56.5265,3.663 L57.3625,3.663 L57.3625,6.798 C57.8685,6.105 58.4075,5.808 59.1445,5.808 C60.5635,5.808 61.5535,6.908 61.5535,8.481 C61.5535,10.032 60.5745,11.121 59.1885,11.121 C58.4075,11.121 57.8575,10.824 57.3625,10.131 Z M59.0345,6.556 C58.0665,6.556 57.3515,7.359 57.3515,8.47 C57.3515,9.625 58.0115,10.395 59.0015,10.395 C60.0025,10.395 60.6735,9.636 60.6735,8.503 C60.6735,7.37 59.9915,6.556 59.0345,6.556 Z M65.7775,5.929 L66.6245,5.929 L66.6245,9.174 C66.6245,9.867 66.4925,10.252 66.1185,10.593 C65.7445,10.934 65.2275,11.121 64.6555,11.121 C64.0835,11.121 63.5555,10.923 63.1925,10.582 C62.8515,10.252 62.6865,9.79 62.6865,9.174 L62.6865,5.929 L63.5225,5.929 L63.5225,9.152 C63.5225,9.867 63.9845,10.373 64.6555,10.373 C65.0075,10.373 65.3485,10.23 65.5575,9.988 C65.7225,9.79 65.7775,9.581 65.7775,9.174 L65.7775,5.929 Z M69.0555,6.666 L69.0555,9.966 C69.0665,10.219 69.1325,10.274 69.4405,10.274 L69.8255,10.274 L69.8255,11 L69.0445,11 C68.4505,10.989 68.2195,10.769 68.2195,10.208 L68.2195,6.666 L67.5155,6.666 L67.5155,5.929 L68.2195,5.929 L68.2195,4.334 L69.0555,4.334 L69.0555,5.929 L69.8255,5.929 L69.8255,6.666 L69.0555,6.666 Z M71.9045,6.666 L71.9045,9.966 C71.9155,10.219 71.9815,10.274 72.2895,10.274 L72.6745,10.274 L72.6745,11 L71.8935,11 C71.2995,10.989 71.0685,10.769 71.0685,10.208 L71.0685,6.666 L70.3645,6.666 L70.3645,5.929 L71.0685,5.929 L71.0685,4.334 L71.9045,4.334 L71.9045,5.929 L72.6745,5.929 L72.6745,6.666 L71.9045,6.666 Z M76.0515,5.808 C77.5475,5.808 78.6145,6.919 78.6145,8.481 C78.6145,9.966 77.4705,11.121 76.0185,11.121 C74.5115,11.121 73.4555,10.021 73.4555,8.459 C73.4555,6.886 74.5115,5.808 76.0515,5.808 Z M76.0515,6.578 C75.0065,6.578 74.3135,7.337 74.3135,8.47 C74.3135,9.592 75.0065,10.351 76.0405,10.351 C77.0415,10.351 77.7565,9.57 77.7565,8.47 C77.7565,7.337 77.0745,6.578 76.0515,6.578 Z M79.8905,5.929 L80.7265,5.929 L80.7265,6.644 C81.1665,6.05 81.6065,5.808 82.2335,5.808 C82.6955,5.808 83.1135,5.962 83.4105,6.226 C83.7295,6.534 83.8395,6.886 83.8395,7.579 L83.8395,11 L83.0035,11 L83.0035,7.766 C83.0035,7.315 82.9485,7.073 82.8165,6.897 C82.6625,6.688 82.3655,6.556 82.0245,6.556 C81.6505,6.556 81.3095,6.699 81.0565,6.985 C80.8145,7.249 80.7265,7.491 80.7265,7.909 L80.7265,11 L79.8905,11 L79.8905,5.929 Z M89.6255,5.929 L89.6255,11 L88.7895,11 L88.7895,5.929 L89.6255,5.929 Z M89.2185,3.96 C89.5155,3.96 89.7465,4.202 89.7465,4.51 C89.7465,4.807 89.5045,5.038 89.2075,5.038 C88.9105,5.038 88.6795,4.807 88.6795,4.499 C88.6795,4.191 88.9105,3.96 89.2185,3.96 Z M91.3085,5.929 L92.1445,5.929 L92.1445,6.644 C92.5845,6.05 93.0245,5.808 93.6515,5.808 C94.1135,5.808 94.5315,5.962 94.8285,6.226 C95.1475,6.534 95.2575,6.886 95.2575,7.579 L95.2575,11 L94.4215,11 L94.4215,7.766 C94.4215,7.315 94.3665,7.073 94.2345,6.897 C94.0805,6.688 93.7835,6.556 93.4425,6.556 C93.0685,6.556 92.7275,6.699 92.4745,6.985 C92.2325,7.249 92.1445,7.491 92.1445,7.909 L92.1445,11 L91.3085,11 L91.3085,5.929 Z M103.6395,9.801 L104.1565,10.373 C103.5845,10.89 103.0235,11.121 102.2865,11.121 C100.8345,11.121 99.8005,10.021 99.8005,8.481 C99.8005,6.908 100.8455,5.808 102.3305,5.808 C103.0565,5.808 103.6505,6.05 104.1785,6.567 L103.6395,7.106 C103.2545,6.754 102.8255,6.578 102.3525,6.578 C101.3515,6.578 100.6585,7.348 100.6585,8.448 C100.6585,9.57 101.3515,10.351 102.3415,10.351 C102.8365,10.351 103.2325,10.186 103.6395,9.801 Z M107.4235,5.808 C108.9195,5.808 109.9865,6.919 109.9865,8.481 C109.9865,9.966 108.8425,11.121 107.3905,11.121 C105.8835,11.121 104.8275,10.021 104.8275,8.459 C104.8275,6.886 105.8835,5.808 107.4235,5.808 Z M107.4235,6.578 C106.3785,6.578 105.6855,7.337 105.6855,8.47 C105.6855,9.592 106.3785,10.351 107.4125,10.351 C108.4135,10.351 109.1285,9.57 109.1285,8.47 C109.1285,7.337 108.4465,6.578 107.4235,6.578 Z M111.2625,5.929 L112.0985,5.929 L112.0985,6.644 C112.5385,6.05 112.9785,5.808 113.6055,5.808 C114.0675,5.808 114.4855,5.962 114.7825,6.226 C115.1015,6.534 115.2115,6.886 115.2115,7.579 L115.2115,11 L114.3755,11 L114.3755,7.766 C114.3755,7.315 114.3205,7.073 114.1885,6.897 C114.0345,6.688 113.7375,6.556 113.3965,6.556 C113.0225,6.556 112.6815,6.699 112.4285,6.985 C112.1865,7.249 112.0985,7.491 112.0985,7.909 L112.0985,11 L111.2625,11 L111.2625,5.929 Z M117.7525,6.666 L117.7525,9.966 C117.7635,10.219 117.8295,10.274 118.1375,10.274 L118.5225,10.274 L118.5225,11 L117.7415,11 C117.1475,10.989 116.9165,10.769 116.9165,10.208 L116.9165,6.666 L116.2125,6.666 L116.2125,5.929 L116.9165,5.929 L116.9165,4.334 L117.7525,4.334 L117.7525,5.929 L118.5225,5.929 L118.5225,6.666 L117.7525,6.666 Z M123.5385,6.765 L123.5385,5.929 L124.3745,5.929 L124.3745,11 L123.5385,11 L123.5385,10.021 C123.0325,10.78 122.4605,11.121 121.6905,11.121 C120.2935,11.121 119.3035,10.021 119.3035,8.481 C119.3035,6.93 120.3155,5.808 121.7125,5.808 C122.4825,5.808 123.0435,6.105 123.5385,6.765 Z M121.8335,6.556 C121.2835,6.556 120.8985,6.743 120.6015,7.161 C120.3375,7.524 120.1835,8.008 120.1835,8.503 C120.1835,9.581 120.8875,10.395 121.8115,10.395 C122.7685,10.395 123.5495,9.504 123.5495,8.415 C123.5495,7.315 122.8455,6.556 121.8335,6.556 Z M126.8935,5.929 L126.8935,11 L126.0575,11 L126.0575,5.929 L126.8935,5.929 Z M126.4865,3.96 C126.7835,3.96 127.0145,4.202 127.0145,4.51 C127.0145,4.807 126.7725,5.038 126.4755,5.038 C126.1785,5.038 125.9475,4.807 125.9475,4.499 C125.9475,4.191 126.1785,3.96 126.4865,3.96 Z M128.5765,5.929 L129.4125,5.929 L129.4125,6.644 C129.8525,6.05 130.2925,5.808 130.9195,5.808 C131.3815,5.808 131.7995,5.962 132.0965,6.226 C132.4155,6.534 132.5255,6.886 132.5255,7.579 L132.5255,11 L131.6895,11 L131.6895,7.766 C131.6895,7.315 131.6345,7.073 131.5025,6.897 C131.3485,6.688 131.0515,6.556 130.7105,6.556 C130.3365,6.556 129.9955,6.699 129.7425,6.985 C129.5005,7.249 129.4125,7.491 129.4125,7.909 L129.4125,11 L128.5765,11 L128.5765,5.929 Z M138.8835,8.734 L134.6595,8.734 C134.7035,9.163 134.7805,9.383 134.9895,9.658 C135.3195,10.109 135.8035,10.351 136.3535,10.351 C136.9805,10.351 137.5745,10.01 137.8715,9.482 L138.6085,9.757 C138.1905,10.604 137.3215,11.121 136.3535,11.121 C134.8465,11.121 133.7685,10.021 133.7685,8.481 C133.7685,6.919 134.8355,5.808 136.3205,5.808 C137.7945,5.808 138.8945,6.919 138.8945,8.404 C138.8945,8.47 138.8945,8.613 138.8835,8.734 Z M134.6705,8.118 L138.0035,8.118 C137.9705,7.722 137.8935,7.502 137.7175,7.249 C137.3985,6.82 136.8815,6.556 136.3205,6.556 C135.7595,6.556 135.2535,6.82 134.9565,7.26 C134.8025,7.502 134.7365,7.711 134.6705,8.118 Z M140.1045,5.929 L140.9405,5.929 L140.9405,6.787 C141.0945,6.424 141.2045,6.27 141.4025,6.116 C141.6555,5.918 142.0075,5.808 142.3705,5.808 L142.5685,5.808 L142.5685,6.655 C142.4805,6.644 142.3925,6.644 142.3375,6.644 C141.8865,6.644 141.4905,6.853 141.2375,7.227 C141.0175,7.546 140.9405,7.843 140.9405,8.426 L140.9405,11 L140.1045,11 L140.1045,5.929 Z"/>
      </g>
      <g transform="translate(16 64)">
        <g transform="translate(0 2.48)">
          <polyline stroke="#979797" stroke-linecap="round" stroke-linejoin="round" points=".96 4.8 6.128 0 6.128 0 11.295 4.8" transform="rotate(180 6.128 2.4)"/>
          <polyline stroke="#979797" stroke-linecap="round" stroke-linejoin="round" points=".96 11.04 6.128 6.24 6.128 6.24 11.295 11.04" transform="matrix(-1 0 0 1 12.255 0)"/>
          <path stroke="#00AB9A" d="M0.1875,5.52 L11.8125,5.52"/>
        </g>
        <path fill="#00AB9A" d="M20.2985,5.929 L21.1675,5.929 L19.2535,11 L18.3735,11 L16.5145,5.929 L17.3945,5.929 L18.8245,9.801 L20.2985,5.929 Z M22.4985,9.944 C22.8285,9.944 23.0705,10.186 23.0705,10.527 C23.0705,10.846 22.8175,11.088 22.4985,11.088 C22.1685,11.088 21.9265,10.846 21.9265,10.516 C21.9265,10.186 22.1685,9.944 22.4985,9.944 Z M28.0425,9.801 L28.5595,10.373 C27.9875,10.89 27.4265,11.121 26.6895,11.121 C25.2375,11.121 24.2035,10.021 24.2035,8.481 C24.2035,6.908 25.2485,5.808 26.7335,5.808 C27.4595,5.808 28.0535,6.05 28.5815,6.567 L28.0425,7.106 C27.6575,6.754 27.2285,6.578 26.7555,6.578 C25.7545,6.578 25.0615,7.348 25.0615,8.448 C25.0615,9.57 25.7545,10.351 26.7445,10.351 C27.2395,10.351 27.6355,10.186 28.0425,9.801 Z M34.3455,8.734 L30.1215,8.734 C30.1655,9.163 30.2425,9.383 30.4515,9.658 C30.7815,10.109 31.2655,10.351 31.8155,10.351 C32.4425,10.351 33.0365,10.01 33.3335,9.482 L34.0705,9.757 C33.6525,10.604 32.7835,11.121 31.8155,11.121 C30.3085,11.121 29.2305,10.021 29.2305,8.481 C29.2305,6.919 30.2975,5.808 31.7825,5.808 C33.2565,5.808 34.3565,6.919 34.3565,8.404 C34.3565,8.47 34.3565,8.613 34.3455,8.734 Z M30.1325,8.118 L33.4655,8.118 C33.4325,7.722 33.3555,7.502 33.1795,7.249 C32.8605,6.82 32.3435,6.556 31.7825,6.556 C31.2215,6.556 30.7155,6.82 30.4185,7.26 C30.2645,7.502 30.1985,7.711 30.1325,8.118 Z M35.5665,5.929 L36.4025,5.929 L36.4025,6.644 C36.8425,6.05 37.2825,5.808 37.9095,5.808 C38.3715,5.808 38.7895,5.962 39.0865,6.226 C39.4055,6.534 39.5155,6.886 39.5155,7.579 L39.5155,11 L38.6795,11 L38.6795,7.766 C38.6795,7.315 38.6245,7.073 38.4925,6.897 C38.3385,6.688 38.0415,6.556 37.7005,6.556 C37.3265,6.556 36.9855,6.699 36.7325,6.985 C36.4905,7.249 36.4025,7.491 36.4025,7.909 L36.4025,11 L35.5665,11 L35.5665,5.929 Z M42.0565,6.666 L42.0565,9.966 C42.0675,10.219 42.1335,10.274 42.4415,10.274 L42.8265,10.274 L42.8265,11 L42.0455,11 C41.4515,10.989 41.2205,10.769 41.2205,10.208 L41.2205,6.666 L40.5165,6.666 L40.5165,5.929 L41.2205,5.929 L41.2205,4.334 L42.0565,4.334 L42.0565,5.929 L42.8265,5.929 L42.8265,6.666 L42.0565,6.666 Z M48.7225,8.734 L44.4985,8.734 C44.5425,9.163 44.6195,9.383 44.8285,9.658 C45.1585,10.109 45.6425,10.351 46.1925,10.351 C46.8195,10.351 47.4135,10.01 47.7105,9.482 L48.4475,9.757 C48.0295,10.604 47.1605,11.121 46.1925,11.121 C44.6855,11.121 43.6075,10.021 43.6075,8.481 C43.6075,6.919 44.6745,5.808 46.1595,5.808 C47.6335,5.808 48.7335,6.919 48.7335,8.404 C48.7335,8.47 48.7335,8.613 48.7225,8.734 Z M44.5095,8.118 L47.8425,8.118 C47.8095,7.722 47.7325,7.502 47.5565,7.249 C47.2375,6.82 46.7205,6.556 46.1595,6.556 C45.5985,6.556 45.0925,6.82 44.7955,7.26 C44.6415,7.502 44.5755,7.711 44.5095,8.118 Z M49.9435,5.929 L50.7795,5.929 L50.7795,6.787 C50.9335,6.424 51.0435,6.27 51.2415,6.116 C51.4945,5.918 51.8465,5.808 52.2095,5.808 L52.4075,5.808 L52.4075,6.655 C52.3195,6.644 52.2315,6.644 52.1765,6.644 C51.7255,6.644 51.3295,6.853 51.0765,7.227 C50.8565,7.546 50.7795,7.843 50.7795,8.426 L50.7795,11 L49.9435,11 L49.9435,5.929 Z M57.6325,6.666 L57.6325,9.966 C57.6435,10.219 57.7095,10.274 58.0175,10.274 L58.4025,10.274 L58.4025,11 L57.6215,11 C57.0275,10.989 56.7965,10.769 56.7965,10.208 L56.7965,6.666 L56.0925,6.666 L56.0925,5.929 L56.7965,5.929 L56.7965,4.334 L57.6325,4.334 L57.6325,5.929 L58.4025,5.929 L58.4025,6.666 L57.6325,6.666 Z M64.2985,8.734 L60.0745,8.734 C60.1185,9.163 60.1955,9.383 60.4045,9.658 C60.7345,10.109 61.2185,10.351 61.7685,10.351 C62.3955,10.351 62.9895,10.01 63.2865,9.482 L64.0235,9.757 C63.6055,10.604 62.7365,11.121 61.7685,11.121 C60.2615,11.121 59.1835,10.021 59.1835,8.481 C59.1835,6.919 60.2505,5.808 61.7355,5.808 C63.2095,5.808 64.3095,6.919 64.3095,8.404 C64.3095,8.47 64.3095,8.613 64.2985,8.734 Z M60.0855,8.118 L63.4185,8.118 C63.3855,7.722 63.3085,7.502 63.1325,7.249 C62.8135,6.82 62.2965,6.556 61.7355,6.556 C61.1745,6.556 60.6685,6.82 60.3715,7.26 C60.2175,7.502 60.1515,7.711 60.0855,8.118 Z M67.1365,9.163 L65.7835,11 L64.7605,11 L66.6305,8.481 L64.7275,5.929 L65.7835,5.929 L67.1365,7.788 L68.5225,5.929 L69.5455,5.929 L67.6315,8.481 L69.4575,11 L68.4345,11 L67.1365,9.163 Z M71.3165,6.666 L71.3165,9.966 C71.3275,10.219 71.3935,10.274 71.7015,10.274 L72.0865,10.274 L72.0865,11 L71.3055,11 C70.7115,10.989 70.4805,10.769 70.4805,10.208 L70.4805,6.666 L69.7765,6.666 L69.7765,5.929 L70.4805,5.929 L70.4805,4.334 L71.3165,4.334 L71.3165,5.929 L72.0865,5.929 L72.0865,6.666 L71.3165,6.666 Z M77.4105,5.929 L77.4105,11 L76.5745,11 L76.5745,5.929 L77.4105,5.929 Z M77.0035,3.96 C77.3005,3.96 77.5315,4.202 77.5315,4.51 C77.5315,4.807 77.2895,5.038 76.9925,5.038 C76.6955,5.038 76.4645,4.807 76.4645,4.499 C76.4645,4.191 76.6955,3.96 77.0035,3.96 Z M79.0935,5.929 L79.9295,5.929 L79.9295,6.644 C80.3695,6.05 80.8095,5.808 81.4365,5.808 C81.8985,5.808 82.3165,5.962 82.6135,6.226 C82.9325,6.534 83.0425,6.886 83.0425,7.579 L83.0425,11 L82.2065,11 L82.2065,7.766 C82.2065,7.315 82.1515,7.073 82.0195,6.897 C81.8655,6.688 81.5685,6.556 81.2275,6.556 C80.8535,6.556 80.5125,6.699 80.2595,6.985 C80.0175,7.249 79.9295,7.491 79.9295,7.909 L79.9295,11 L79.0935,11 L79.0935,5.929 Z M91.4245,9.801 L91.9415,10.373 C91.3695,10.89 90.8085,11.121 90.0715,11.121 C88.6195,11.121 87.5855,10.021 87.5855,8.481 C87.5855,6.908 88.6305,5.808 90.1155,5.808 C90.8415,5.808 91.4355,6.05 91.9635,6.567 L91.4245,7.106 C91.0395,6.754 90.6105,6.578 90.1375,6.578 C89.1365,6.578 88.4435,7.348 88.4435,8.448 C88.4435,9.57 89.1365,10.351 90.1265,10.351 C90.6215,10.351 91.0175,10.186 91.4245,9.801 Z M95.2085,5.808 C96.7045,5.808 97.7715,6.919 97.7715,8.481 C97.7715,9.966 96.6275,11.121 95.1755,11.121 C93.6685,11.121 92.6125,10.021 92.6125,8.459 C92.6125,6.886 93.6685,5.808 95.2085,5.808 Z M95.2085,6.578 C94.1635,6.578 93.4705,7.337 93.4705,8.47 C93.4705,9.592 94.1635,10.351 95.1975,10.351 C96.1985,10.351 96.9135,9.57 96.9135,8.47 C96.9135,7.337 96.2315,6.578 95.2085,6.578 Z M99.0475,5.929 L99.8835,5.929 L99.8835,6.644 C100.3235,6.05 100.7635,5.808 101.3905,5.808 C101.8525,5.808 102.2705,5.962 102.5675,6.226 C102.8865,6.534 102.9965,6.886 102.9965,7.579 L102.9965,11 L102.1605,11 L102.1605,7.766 C102.1605,7.315 102.1055,7.073 101.9735,6.897 C101.8195,6.688 101.5225,6.556 101.1815,6.556 C100.8075,6.556 100.4665,6.699 100.2135,6.985 C99.9715,7.249 99.8835,7.491 99.8835,7.909 L99.8835,11 L99.0475,11 L99.0475,5.929 Z M105.5375,6.666 L105.5375,9.966 C105.5485,10.219 105.6145,10.274 105.9225,10.274 L106.3075,10.274 L106.3075,11 L105.5265,11 C104.9325,10.989 104.7015,10.769 104.7015,10.208 L104.7015,6.666 L103.9975,6.666 L103.9975,5.929 L104.7015,5.929 L104.7015,4.334 L105.5375,4.334 L105.5375,5.929 L106.3075,5.929 L106.3075,6.666 L105.5375,6.666 Z M111.3235,6.765 L111.3235,5.929 L112.1595,5.929 L112.1595,11 L111.3235,11 L111.3235,10.021 C110.8175,10.78 110.2455,11.121 109.4755,11.121 C108.0785,11.121 107.0885,10.021 107.0885,8.481 C107.0885,6.93 108.1005,5.808 109.4975,5.808 C110.2675,5.808 110.8285,6.105 111.3235,6.765 Z M109.6185,6.556 C109.0685,6.556 108.6835,6.743 108.3865,7.161 C108.1225,7.524 107.9685,8.008 107.9685,8.503 C107.9685,9.581 108.6725,10.395 109.5965,10.395 C110.5535,10.395 111.3345,9.504 111.3345,8.415 C111.3345,7.315 110.6305,6.556 109.6185,6.556 Z M114.6785,5.929 L114.6785,11 L113.8425,11 L113.8425,5.929 L114.6785,5.929 Z M114.2715,3.96 C114.5685,3.96 114.7995,4.202 114.7995,4.51 C114.7995,4.807 114.5575,5.038 114.2605,5.038 C113.9635,5.038 113.7325,4.807 113.7325,4.499 C113.7325,4.191 113.9635,3.96 114.2715,3.96 Z M116.3615,5.929 L117.1975,5.929 L117.1975,6.644 C117.6375,6.05 118.0775,5.808 118.7045,5.808 C119.1665,5.808 119.5845,5.962 119.8815,6.226 C120.2005,6.534 120.3105,6.886 120.3105,7.579 L120.3105,11 L119.4745,11 L119.4745,7.766 C119.4745,7.315 119.4195,7.073 119.2875,6.897 C119.1335,6.688 118.8365,6.556 118.4955,6.556 C118.1215,6.556 117.7805,6.699 117.5275,6.985 C117.2855,7.249 117.1975,7.491 117.1975,7.909 L117.1975,11 L116.3615,11 L116.3615,5.929 Z M126.6685,8.734 L122.4445,8.734 C122.4885,9.163 122.5655,9.383 122.7745,9.658 C123.1045,10.109 123.5885,10.351 124.1385,10.351 C124.7655,10.351 125.3595,10.01 125.6565,9.482 L126.3935,9.757 C125.9755,10.604 125.1065,11.121 124.1385,11.121 C122.6315,11.121 121.5535,10.021 121.5535,8.481 C121.5535,6.919 122.6205,5.808 124.1055,5.808 C125.5795,5.808 126.6795,6.919 126.6795,8.404 C126.6795,8.47 126.6795,8.613 126.6685,8.734 Z M122.4555,8.118 L125.7885,8.118 C125.7555,7.722 125.6785,7.502 125.5025,7.249 C125.1835,6.82 124.6665,6.556 124.1055,6.556 C123.5445,6.556 123.0385,6.82 122.7415,7.26 C122.5875,7.502 122.5215,7.711 122.4555,8.118 Z M127.8895,5.929 L128.7255,5.929 L128.7255,6.787 C128.8795,6.424 128.9895,6.27 129.1875,6.116 C129.4405,5.918 129.7925,5.808 130.1555,5.808 L130.3535,5.808 L130.3535,6.655 C130.2655,6.644 130.1775,6.644 130.1225,6.644 C129.6715,6.644 129.2755,6.853 129.0225,7.227 C128.8025,7.546 128.7255,7.843 128.7255,8.426 L128.7255,11 L127.8895,11 L127.8895,5.929 Z"/>
      </g>
    </g>
  </g>
</svg>
