<svg xmlns="http://www.w3.org/2000/svg" xmlns:xlink="http://www.w3.org/1999/xlink" width="580" height="180" viewBox="0 0 580 180">
  <defs>
    <rect id="3-a" width="62" height="44"/>
    <mask id="3-c" width="62" height="44" x="0" y="0" fill="#fff">
      <use xlink:href="#3-a"/>
    </mask>
    <rect id="3-b" width="267" height="38"/>
    <mask id="3-d" width="267" height="38" x="0" y="0" fill="#fff">
      <use xlink:href="#3-b"/>
    </mask>
  </defs>
  <g fill="none" fill-rule="evenodd">
    <rect width="580" height="180" fill="#FFF" fill-opacity=".01" fill-rule="nonzero"/>
    <g transform="translate(125 137)">
      <g transform="translate(0 2.48)">
        <polyline stroke="#979797" stroke-linecap="round" stroke-linejoin="round" points=".96 4.8 6.128 0 6.128 0 11.295 4.8" transform="rotate(180 6.128 2.4)"/>
        <polyline stroke="#979797" stroke-linecap="round" stroke-linejoin="round" points=".96 11.04 6.128 6.24 6.128 6.24 11.295 11.04" transform="matrix(-1 0 0 1 12.255 0)"/>
        <path stroke="#00AB9A" d="M0.1875,5.52 L11.8125,5.52"/>
      </g>
      <path fill="#00AB9A" d="M20.2985,5.929 L21.1675,5.929 L19.2535,11 L18.3735,11 L16.5145,5.929 L17.3945,5.929 L18.8245,9.801 L20.2985,5.929 Z M22.4985,9.944 C22.8285,9.944 23.0705,10.186 23.0705,10.527 C23.0705,10.846 22.8175,11.088 22.4985,11.088 C22.1685,11.088 21.9265,10.846 21.9265,10.516 C21.9265,10.186 22.1685,9.944 22.4985,9.944 Z M28.0425,9.801 L28.5595,10.373 C27.9875,10.89 27.4265,11.121 26.6895,11.121 C25.2375,11.121 24.2035,10.021 24.2035,8.481 C24.2035,6.908 25.2485,5.808 26.7335,5.808 C27.4595,5.808 28.0535,6.05 28.5815,6.567 L28.0425,7.106 C27.6575,6.754 27.2285,6.578 26.7555,6.578 C25.7545,6.578 25.0615,7.348 25.0615,8.448 C25.0615,9.57 25.7545,10.351 26.7445,10.351 C27.2395,10.351 27.6355,10.186 28.0425,9.801 Z M34.3455,8.734 L30.1215,8.734 C30.1655,9.163 30.2425,9.383 30.4515,9.658 C30.7815,10.109 31.2655,10.351 31.8155,10.351 C32.4425,10.351 33.0365,10.01 33.3335,9.482 L34.0705,9.757 C33.6525,10.604 32.7835,11.121 31.8155,11.121 C30.3085,11.121 29.2305,10.021 29.2305,8.481 C29.2305,6.919 30.2975,5.808 31.7825,5.808 C33.2565,5.808 34.3565,6.919 34.3565,8.404 C34.3565,8.47 34.3565,8.613 34.3455,8.734 Z M30.1325,8.118 L33.4655,8.118 C33.4325,7.722 33.3555,7.502 33.1795,7.249 C32.8605,6.82 32.3435,6.556 31.7825,6.556 C31.2215,6.556 30.7155,6.82 30.4185,7.26 C30.2645,7.502 30.1985,7.711 30.1325,8.118 Z M35.5665,5.929 L36.4025,5.929 L36.4025,6.644 C36.8425,6.05 37.2825,5.808 37.9095,5.808 C38.3715,5.808 38.7895,5.962 39.0865,6.226 C39.4055,6.534 39.5155,6.886 39.5155,7.579 L39.5155,11 L38.6795,11 L38.6795,7.766 C38.6795,7.315 38.6245,7.073 38.4925,6.897 C38.3385,6.688 38.0415,6.556 37.7005,6.556 C37.3265,6.556 36.9855,6.699 36.7325,6.985 C36.4905,7.249 36.4025,7.491 36.4025,7.909 L36.4025,11 L35.5665,11 L35.5665,5.929 Z M42.0565,6.666 L42.0565,9.966 C42.0675,10.219 42.1335,10.274 42.4415,10.274 L42.8265,10.274 L42.8265,11 L42.0455,11 C41.4515,10.989 41.2205,10.769 41.2205,10.208 L41.2205,6.666 L40.5165,6.666 L40.5165,5.929 L41.2205,5.929 L41.2205,4.334 L42.0565,4.334 L42.0565,5.929 L42.8265,5.929 L42.8265,6.666 L42.0565,6.666 Z M48.7225,8.734 L44.4985,8.734 C44.5425,9.163 44.6195,9.383 44.8285,9.658 C45.1585,10.109 45.6425,10.351 46.1925,10.351 C46.8195,10.351 47.4135,10.01 47.7105,9.482 L48.4475,9.757 C48.0295,10.604 47.1605,11.121 46.1925,11.121 C44.6855,11.121 43.6075,10.021 43.6075,8.481 C43.6075,6.919 44.6745,5.808 46.1595,5.808 C47.6335,5.808 48.7335,6.919 48.7335,8.404 C48.7335,8.47 48.7335,8.613 48.7225,8.734 Z M44.5095,8.118 L47.8425,8.118 C47.8095,7.722 47.7325,7.502 47.5565,7.249 C47.2375,6.82 46.7205,6.556 46.1595,6.556 C45.5985,6.556 45.0925,6.82 44.7955,7.26 C44.6415,7.502 44.5755,7.711 44.5095,8.118 Z M49.9435,5.929 L50.7795,5.929 L50.7795,6.787 C50.9335,6.424 51.0435,6.27 51.2415,6.116 C51.4945,5.918 51.8465,5.808 52.2095,5.808 L52.4075,5.808 L52.4075,6.655 C52.3195,6.644 52.2315,6.644 52.1765,6.644 C51.7255,6.644 51.3295,6.853 51.0765,7.227 C50.8565,7.546 50.7795,7.843 50.7795,8.426 L50.7795,11 L49.9435,11 L49.9435,5.929 Z M57.6325,6.666 L57.6325,9.966 C57.6435,10.219 57.7095,10.274 58.0175,10.274 L58.4025,10.274 L58.4025,11 L57.6215,11 C57.0275,10.989 56.7965,10.769 56.7965,10.208 L56.7965,6.666 L56.0925,6.666 L56.0925,5.929 L56.7965,5.929 L56.7965,4.334 L57.6325,4.334 L57.6325,5.929 L58.4025,5.929 L58.4025,6.666 L57.6325,6.666 Z M64.2985,8.734 L60.0745,8.734 C60.1185,9.163 60.1955,9.383 60.4045,9.658 C60.7345,10.109 61.2185,10.351 61.7685,10.351 C62.3955,10.351 62.9895,10.01 63.2865,9.482 L64.0235,9.757 C63.6055,10.604 62.7365,11.121 61.7685,11.121 C60.2615,11.121 59.1835,10.021 59.1835,8.481 C59.1835,6.919 60.2505,5.808 61.7355,5.808 C63.2095,5.808 64.3095,6.919 64.3095,8.404 C64.3095,8.47 64.3095,8.613 64.2985,8.734 Z M60.0855,8.118 L63.4185,8.118 C63.3855,7.722 63.3085,7.502 63.1325,7.249 C62.8135,6.82 62.2965,6.556 61.7355,6.556 C61.1745,6.556 60.6685,6.82 60.3715,7.26 C60.2175,7.502 60.1515,7.711 60.0855,8.118 Z M67.1365,9.163 L65.7835,11 L64.7605,11 L66.6305,8.481 L64.7275,5.929 L65.7835,5.929 L67.1365,7.788 L68.5225,5.929 L69.5455,5.929 L67.6315,8.481 L69.4575,11 L68.4345,11 L67.1365,9.163 Z M71.3165,6.666 L71.3165,9.966 C71.3275,10.219 71.3935,10.274 71.7015,10.274 L72.0865,10.274 L72.0865,11 L71.3055,11 C70.7115,10.989 70.4805,10.769 70.4805,10.208 L70.4805,6.666 L69.7765,6.666 L69.7765,5.929 L70.4805,5.929 L70.4805,4.334 L71.3165,4.334 L71.3165,5.929 L72.0865,5.929 L72.0865,6.666 L71.3165,6.666 Z M77.4105,5.929 L77.4105,11 L76.5745,11 L76.5745,5.929 L77.4105,5.929 Z M77.0035,3.96 C77.3005,3.96 77.5315,4.202 77.5315,4.51 C77.5315,4.807 77.2895,5.038 76.9925,5.038 C76.6955,5.038 76.4645,4.807 76.4645,4.499 C76.4645,4.191 76.6955,3.96 77.0035,3.96 Z M79.0935,5.929 L79.9295,5.929 L79.9295,6.644 C80.3695,6.05 80.8095,5.808 81.4365,5.808 C81.8985,5.808 82.3165,5.962 82.6135,6.226 C82.9325,6.534 83.0425,6.886 83.0425,7.579 L83.0425,11 L82.2065,11 L82.2065,7.766 C82.2065,7.315 82.1515,7.073 82.0195,6.897 C81.8655,6.688 81.5685,6.556 81.2275,6.556 C80.8535,6.556 80.5125,6.699 80.2595,6.985 C80.0175,7.249 79.9295,7.491 79.9295,7.909 L79.9295,11 L79.0935,11 L79.0935,5.929 Z M91.4245,9.801 L91.9415,10.373 C91.3695,10.89 90.8085,11.121 90.0715,11.121 C88.6195,11.121 87.5855,10.021 87.5855,8.481 C87.5855,6.908 88.6305,5.808 90.1155,5.808 C90.8415,5.808 91.4355,6.05 91.9635,6.567 L91.4245,7.106 C91.0395,6.754 90.6105,6.578 90.1375,6.578 C89.1365,6.578 88.4435,7.348 88.4435,8.448 C88.4435,9.57 89.1365,10.351 90.1265,10.351 C90.6215,10.351 91.0175,10.186 91.4245,9.801 Z M95.2085,5.808 C96.7045,5.808 97.7715,6.919 97.7715,8.481 C97.7715,9.966 96.6275,11.121 95.1755,11.121 C93.6685,11.121 92.6125,10.021 92.6125,8.459 C92.6125,6.886 93.6685,5.808 95.2085,5.808 Z M95.2085,6.578 C94.1635,6.578 93.4705,7.337 93.4705,8.47 C93.4705,9.592 94.1635,10.351 95.1975,10.351 C96.1985,10.351 96.9135,9.57 96.9135,8.47 C96.9135,7.337 96.2315,6.578 95.2085,6.578 Z M99.0475,5.929 L99.8835,5.929 L99.8835,6.644 C100.3235,6.05 100.7635,5.808 101.3905,5.808 C101.8525,5.808 102.2705,5.962 102.5675,6.226 C102.8865,6.534 102.9965,6.886 102.9965,7.579 L102.9965,11 L102.1605,11 L102.1605,7.766 C102.1605,7.315 102.1055,7.073 101.9735,6.897 C101.8195,6.688 101.5225,6.556 101.1815,6.556 C100.8075,6.556 100.4665,6.699 100.2135,6.985 C99.9715,7.249 99.8835,7.491 99.8835,7.909 L99.8835,11 L99.0475,11 L99.0475,5.929 Z M105.5375,6.666 L105.5375,9.966 C105.5485,10.219 105.6145,10.274 105.9225,10.274 L106.3075,10.274 L106.3075,11 L105.5265,11 C104.9325,10.989 104.7015,10.769 104.7015,10.208 L104.7015,6.666 L103.9975,6.666 L103.9975,5.929 L104.7015,5.929 L104.7015,4.334 L105.5375,4.334 L105.5375,5.929 L106.3075,5.929 L106.3075,6.666 L105.5375,6.666 Z M111.3235,6.765 L111.3235,5.929 L112.1595,5.929 L112.1595,11 L111.3235,11 L111.3235,10.021 C110.8175,10.78 110.2455,11.121 109.4755,11.121 C108.0785,11.121 107.0885,10.021 107.0885,8.481 C107.0885,6.93 108.1005,5.808 109.4975,5.808 C110.2675,5.808 110.8285,6.105 111.3235,6.765 Z M109.6185,6.556 C109.0685,6.556 108.6835,6.743 108.3865,7.161 C108.1225,7.524 107.9685,8.008 107.9685,8.503 C107.9685,9.581 108.6725,10.395 109.5965,10.395 C110.5535,10.395 111.3345,9.504 111.3345,8.415 C111.3345,7.315 110.6305,6.556 109.6185,6.556 Z M114.6785,5.929 L114.6785,11 L113.8425,11 L113.8425,5.929 L114.6785,5.929 Z M114.2715,3.96 C114.5685,3.96 114.7995,4.202 114.7995,4.51 C114.7995,4.807 114.5575,5.038 114.2605,5.038 C113.9635,5.038 113.7325,4.807 113.7325,4.499 C113.7325,4.191 113.9635,3.96 114.2715,3.96 Z M116.3615,5.929 L117.1975,5.929 L117.1975,6.644 C117.6375,6.05 118.0775,5.808 118.7045,5.808 C119.1665,5.808 119.5845,5.962 119.8815,6.226 C120.2005,6.534 120.3105,6.886 120.3105,7.579 L120.3105,11 L119.4745,11 L119.4745,7.766 C119.4745,7.315 119.4195,7.073 119.2875,6.897 C119.1335,6.688 118.8365,6.556 118.4955,6.556 C118.1215,6.556 117.7805,6.699 117.5275,6.985 C117.2855,7.249 117.1975,7.491 117.1975,7.909 L117.1975,11 L116.3615,11 L116.3615,5.929 Z M126.6685,8.734 L122.4445,8.734 C122.4885,9.163 122.5655,9.383 122.7745,9.658 C123.1045,10.109 123.5885,10.351 124.1385,10.351 C124.7655,10.351 125.3595,10.01 125.6565,9.482 L126.3935,9.757 C125.9755,10.604 125.1065,11.121 124.1385,11.121 C122.6315,11.121 121.5535,10.021 121.5535,8.481 C121.5535,6.919 122.6205,5.808 124.1055,5.808 C125.5795,5.808 126.6795,6.919 126.6795,8.404 C126.6795,8.47 126.6795,8.613 126.6685,8.734 Z M122.4555,8.118 L125.7885,8.118 C125.7555,7.722 125.6785,7.502 125.5025,7.249 C125.1835,6.82 124.6665,6.556 124.1055,6.556 C123.5445,6.556 123.0385,6.82 122.7415,7.26 C122.5875,7.502 122.5215,7.711 122.4555,8.118 Z M127.8895,5.929 L128.7255,5.929 L128.7255,6.787 C128.8795,6.424 128.9895,6.27 129.1875,6.116 C129.4405,5.918 129.7925,5.808 130.1555,5.808 L130.3535,5.808 L130.3535,6.655 C130.2655,6.644 130.1775,6.644 130.1225,6.644 C129.6715,6.644 129.2755,6.853 129.0225,7.227 C128.8025,7.546 128.7255,7.843 128.7255,8.426 L128.7255,11 L127.8895,11 L127.8895,5.929 Z"/>
    </g>
    <g transform="translate(398 137)">
      <g transform="translate(0 2.48)">
        <polyline stroke="#979797" stroke-linecap="round" stroke-linejoin="round" points=".96 4.8 6.128 0 6.128 0 11.295 4.8" transform="rotate(180 6.128 2.4)"/>
        <polyline stroke="#979797" stroke-linecap="round" stroke-linejoin="round" points=".96 11.04 6.128 6.24 6.128 6.24 11.295 11.04" transform="matrix(-1 0 0 1 12.255 0)"/>
        <path stroke="#C41261" d="M0.1875,5.52 L11.8125,5.52"/>
      </g>
      <path fill="#C41261" d="M20.0835,5.929 L20.9525,5.929 L19.0385,11 L18.1585,11 L16.2995,5.929 L17.1795,5.929 L18.6095,9.801 L20.0835,5.929 Z M22.2835,9.944 C22.6135,9.944 22.8555,10.186 22.8555,10.527 C22.8555,10.846 22.6025,11.088 22.2835,11.088 C21.9535,11.088 21.7115,10.846 21.7115,10.516 C21.7115,10.186 21.9535,9.944 22.2835,9.944 Z M27.8275,9.801 L28.3445,10.373 C27.7725,10.89 27.2115,11.121 26.4745,11.121 C25.0225,11.121 23.9885,10.021 23.9885,8.481 C23.9885,6.908 25.0335,5.808 26.5185,5.808 C27.2445,5.808 27.8385,6.05 28.3665,6.567 L27.8275,7.106 C27.4425,6.754 27.0135,6.578 26.5405,6.578 C25.5395,6.578 24.8465,7.348 24.8465,8.448 C24.8465,9.57 25.5395,10.351 26.5295,10.351 C27.0245,10.351 27.4205,10.186 27.8275,9.801 Z M34.1305,8.734 L29.9065,8.734 C29.9505,9.163 30.0275,9.383 30.2365,9.658 C30.5665,10.109 31.0505,10.351 31.6005,10.351 C32.2275,10.351 32.8215,10.01 33.1185,9.482 L33.8555,9.757 C33.4375,10.604 32.5685,11.121 31.6005,11.121 C30.0935,11.121 29.0155,10.021 29.0155,8.481 C29.0155,6.919 30.0825,5.808 31.5675,5.808 C33.0415,5.808 34.1415,6.919 34.1415,8.404 C34.1415,8.47 34.1415,8.613 34.1305,8.734 Z M29.9175,8.118 L33.2505,8.118 C33.2175,7.722 33.1405,7.502 32.9645,7.249 C32.6455,6.82 32.1285,6.556 31.5675,6.556 C31.0065,6.556 30.5005,6.82 30.2035,7.26 C30.0495,7.502 29.9835,7.711 29.9175,8.118 Z M35.3515,5.929 L36.1875,5.929 L36.1875,6.644 C36.6275,6.05 37.0675,5.808 37.6945,5.808 C38.1565,5.808 38.5745,5.962 38.8715,6.226 C39.1905,6.534 39.3005,6.886 39.3005,7.579 L39.3005,11 L38.4645,11 L38.4645,7.766 C38.4645,7.315 38.4095,7.073 38.2775,6.897 C38.1235,6.688 37.8265,6.556 37.4855,6.556 C37.1115,6.556 36.7705,6.699 36.5175,6.985 C36.2755,7.249 36.1875,7.491 36.1875,7.909 L36.1875,11 L35.3515,11 L35.3515,5.929 Z M41.8415,6.666 L41.8415,9.966 C41.8525,10.219 41.9185,10.274 42.2265,10.274 L42.6115,10.274 L42.6115,11 L41.8305,11 C41.2365,10.989 41.0055,10.769 41.0055,10.208 L41.0055,6.666 L40.3015,6.666 L40.3015,5.929 L41.0055,5.929 L41.0055,4.334 L41.8415,4.334 L41.8415,5.929 L42.6115,5.929 L42.6115,6.666 L41.8415,6.666 Z M48.5075,8.734 L44.2835,8.734 C44.3275,9.163 44.4045,9.383 44.6135,9.658 C44.9435,10.109 45.4275,10.351 45.9775,10.351 C46.6045,10.351 47.1985,10.01 47.4955,9.482 L48.2325,9.757 C47.8145,10.604 46.9455,11.121 45.9775,11.121 C44.4705,11.121 43.3925,10.021 43.3925,8.481 C43.3925,6.919 44.4595,5.808 45.9445,5.808 C47.4185,5.808 48.5185,6.919 48.5185,8.404 C48.5185,8.47 48.5185,8.613 48.5075,8.734 Z M44.2945,8.118 L47.6275,8.118 C47.5945,7.722 47.5175,7.502 47.3415,7.249 C47.0225,6.82 46.5055,6.556 45.9445,6.556 C45.3835,6.556 44.8775,6.82 44.5805,7.26 C44.4265,7.502 44.3605,7.711 44.2945,8.118 Z M49.7285,5.929 L50.5645,5.929 L50.5645,6.787 C50.7185,6.424 50.8285,6.27 51.0265,6.116 C51.2795,5.918 51.6315,5.808 51.9945,5.808 L52.1925,5.808 L52.1925,6.655 C52.1045,6.644 52.0165,6.644 51.9615,6.644 C51.5105,6.644 51.1145,6.853 50.8615,7.227 C50.6415,7.546 50.5645,7.843 50.5645,8.426 L50.5645,11 L49.7285,11 L49.7285,5.929 Z M57.3625,10.131 L57.3625,11 L56.5265,11 L56.5265,3.663 L57.3625,3.663 L57.3625,6.798 C57.8685,6.105 58.4075,5.808 59.1445,5.808 C60.5635,5.808 61.5535,6.908 61.5535,8.481 C61.5535,10.032 60.5745,11.121 59.1885,11.121 C58.4075,11.121 57.8575,10.824 57.3625,10.131 Z M59.0345,6.556 C58.0665,6.556 57.3515,7.359 57.3515,8.47 C57.3515,9.625 58.0115,10.395 59.0015,10.395 C60.0025,10.395 60.6735,9.636 60.6735,8.503 C60.6735,7.37 59.9915,6.556 59.0345,6.556 Z M65.7775,5.929 L66.6245,5.929 L66.6245,9.174 C66.6245,9.867 66.4925,10.252 66.1185,10.593 C65.7445,10.934 65.2275,11.121 64.6555,11.121 C64.0835,11.121 63.5555,10.923 63.1925,10.582 C62.8515,10.252 62.6865,9.79 62.6865,9.174 L62.6865,5.929 L63.5225,5.929 L63.5225,9.152 C63.5225,9.867 63.9845,10.373 64.6555,10.373 C65.0075,10.373 65.3485,10.23 65.5575,9.988 C65.7225,9.79 65.7775,9.581 65.7775,9.174 L65.7775,5.929 Z M69.0555,6.666 L69.0555,9.966 C69.0665,10.219 69.1325,10.274 69.4405,10.274 L69.8255,10.274 L69.8255,11 L69.0445,11 C68.4505,10.989 68.2195,10.769 68.2195,10.208 L68.2195,6.666 L67.5155,6.666 L67.5155,5.929 L68.2195,5.929 L68.2195,4.334 L69.0555,4.334 L69.0555,5.929 L69.8255,5.929 L69.8255,6.666 L69.0555,6.666 Z M71.9045,6.666 L71.9045,9.966 C71.9155,10.219 71.9815,10.274 72.2895,10.274 L72.6745,10.274 L72.6745,11 L71.8935,11 C71.2995,10.989 71.0685,10.769 71.0685,10.208 L71.0685,6.666 L70.3645,6.666 L70.3645,5.929 L71.0685,5.929 L71.0685,4.334 L71.9045,4.334 L71.9045,5.929 L72.6745,5.929 L72.6745,6.666 L71.9045,6.666 Z M76.0515,5.808 C77.5475,5.808 78.6145,6.919 78.6145,8.481 C78.6145,9.966 77.4705,11.121 76.0185,11.121 C74.5115,11.121 73.4555,10.021 73.4555,8.459 C73.4555,6.886 74.5115,5.808 76.0515,5.808 Z M76.0515,6.578 C75.0065,6.578 74.3135,7.337 74.3135,8.47 C74.3135,9.592 75.0065,10.351 76.0405,10.351 C77.0415,10.351 77.7565,9.57 77.7565,8.47 C77.7565,7.337 77.0745,6.578 76.0515,6.578 Z M79.8905,5.929 L80.7265,5.929 L80.7265,6.644 C81.1665,6.05 81.6065,5.808 82.2335,5.808 C82.6955,5.808 83.1135,5.962 83.4105,6.226 C83.7295,6.534 83.8395,6.886 83.8395,7.579 L83.8395,11 L83.0035,11 L83.0035,7.766 C83.0035,7.315 82.9485,7.073 82.8165,6.897 C82.6625,6.688 82.3655,6.556 82.0245,6.556 C81.6505,6.556 81.3095,6.699 81.0565,6.985 C80.8145,7.249 80.7265,7.491 80.7265,7.909 L80.7265,11 L79.8905,11 L79.8905,5.929 Z M89.6255,5.929 L89.6255,11 L88.7895,11 L88.7895,5.929 L89.6255,5.929 Z M89.2185,3.96 C89.5155,3.96 89.7465,4.202 89.7465,4.51 C89.7465,4.807 89.5045,5.038 89.2075,5.038 C88.9105,5.038 88.6795,4.807 88.6795,4.499 C88.6795,4.191 88.9105,3.96 89.2185,3.96 Z M91.3085,5.929 L92.1445,5.929 L92.1445,6.644 C92.5845,6.05 93.0245,5.808 93.6515,5.808 C94.1135,5.808 94.5315,5.962 94.8285,6.226 C95.1475,6.534 95.2575,6.886 95.2575,7.579 L95.2575,11 L94.4215,11 L94.4215,7.766 C94.4215,7.315 94.3665,7.073 94.2345,6.897 C94.0805,6.688 93.7835,6.556 93.4425,6.556 C93.0685,6.556 92.7275,6.699 92.4745,6.985 C92.2325,7.249 92.1445,7.491 92.1445,7.909 L92.1445,11 L91.3085,11 L91.3085,5.929 Z M103.6395,9.801 L104.1565,10.373 C103.5845,10.89 103.0235,11.121 102.2865,11.121 C100.8345,11.121 99.8005,10.021 99.8005,8.481 C99.8005,6.908 100.8455,5.808 102.3305,5.808 C103.0565,5.808 103.6505,6.05 104.1785,6.567 L103.6395,7.106 C103.2545,6.754 102.8255,6.578 102.3525,6.578 C101.3515,6.578 100.6585,7.348 100.6585,8.448 C100.6585,9.57 101.3515,10.351 102.3415,10.351 C102.8365,10.351 103.2325,10.186 103.6395,9.801 Z M107.4235,5.808 C108.9195,5.808 109.9865,6.919 109.9865,8.481 C109.9865,9.966 108.8425,11.121 107.3905,11.121 C105.8835,11.121 104.8275,10.021 104.8275,8.459 C104.8275,6.886 105.8835,5.808 107.4235,5.808 Z M107.4235,6.578 C106.3785,6.578 105.6855,7.337 105.6855,8.47 C105.6855,9.592 106.3785,10.351 107.4125,10.351 C108.4135,10.351 109.1285,9.57 109.1285,8.47 C109.1285,7.337 108.4465,6.578 107.4235,6.578 Z M111.2625,5.929 L112.0985,5.929 L112.0985,6.644 C112.5385,6.05 112.9785,5.808 113.6055,5.808 C114.0675,5.808 114.4855,5.962 114.7825,6.226 C115.1015,6.534 115.2115,6.886 115.2115,7.579 L115.2115,11 L114.3755,11 L114.3755,7.766 C114.3755,7.315 114.3205,7.073 114.1885,6.897 C114.0345,6.688 113.7375,6.556 113.3965,6.556 C113.0225,6.556 112.6815,6.699 112.4285,6.985 C112.1865,7.249 112.0985,7.491 112.0985,7.909 L112.0985,11 L111.2625,11 L111.2625,5.929 Z M117.7525,6.666 L117.7525,9.966 C117.7635,10.219 117.8295,10.274 118.1375,10.274 L118.5225,10.274 L118.5225,11 L117.7415,11 C117.1475,10.989 116.9165,10.769 116.9165,10.208 L116.9165,6.666 L116.2125,6.666 L116.2125,5.929 L116.9165,5.929 L116.9165,4.334 L117.7525,4.334 L117.7525,5.929 L118.5225,5.929 L118.5225,6.666 L117.7525,6.666 Z M123.5385,6.765 L123.5385,5.929 L124.3745,5.929 L124.3745,11 L123.5385,11 L123.5385,10.021 C123.0325,10.78 122.4605,11.121 121.6905,11.121 C120.2935,11.121 119.3035,10.021 119.3035,8.481 C119.3035,6.93 120.3155,5.808 121.7125,5.808 C122.4825,5.808 123.0435,6.105 123.5385,6.765 Z M121.8335,6.556 C121.2835,6.556 120.8985,6.743 120.6015,7.161 C120.3375,7.524 120.1835,8.008 120.1835,8.503 C120.1835,9.581 120.8875,10.395 121.8115,10.395 C122.7685,10.395 123.5495,9.504 123.5495,8.415 C123.5495,7.315 122.8455,6.556 121.8335,6.556 Z M126.8935,5.929 L126.8935,11 L126.0575,11 L126.0575,5.929 L126.8935,5.929 Z M126.4865,3.96 C126.7835,3.96 127.0145,4.202 127.0145,4.51 C127.0145,4.807 126.7725,5.038 126.4755,5.038 C126.1785,5.038 125.9475,4.807 125.9475,4.499 C125.9475,4.191 126.1785,3.96 126.4865,3.96 Z M128.5765,5.929 L129.4125,5.929 L129.4125,6.644 C129.8525,6.05 130.2925,5.808 130.9195,5.808 C131.3815,5.808 131.7995,5.962 132.0965,6.226 C132.4155,6.534 132.5255,6.886 132.5255,7.579 L132.5255,11 L131.6895,11 L131.6895,7.766 C131.6895,7.315 131.6345,7.073 131.5025,6.897 C131.3485,6.688 131.0515,6.556 130.7105,6.556 C130.3365,6.556 129.9955,6.699 129.7425,6.985 C129.5005,7.249 129.4125,7.491 129.4125,7.909 L129.4125,11 L128.5765,11 L128.5765,5.929 Z M138.8835,8.734 L134.6595,8.734 C134.7035,9.163 134.7805,9.383 134.9895,9.658 C135.3195,10.109 135.8035,10.351 136.3535,10.351 C136.9805,10.351 137.5745,10.01 137.8715,9.482 L138.6085,9.757 C138.1905,10.604 137.3215,11.121 136.3535,11.121 C134.8465,11.121 133.7685,10.021 133.7685,8.481 C133.7685,6.919 134.8355,5.808 136.3205,5.808 C137.7945,5.808 138.8945,6.919 138.8945,8.404 C138.8945,8.47 138.8945,8.613 138.8835,8.734 Z M134.6705,8.118 L138.0035,8.118 C137.9705,7.722 137.8935,7.502 137.7175,7.249 C137.3985,6.82 136.8815,6.556 136.3205,6.556 C135.7595,6.556 135.2535,6.82 134.9565,7.26 C134.8025,7.502 134.7365,7.711 134.6705,8.118 Z M140.1045,5.929 L140.9405,5.929 L140.9405,6.787 C141.0945,6.424 141.2045,6.27 141.4025,6.116 C141.6555,5.918 142.0075,5.808 142.3705,5.808 L142.5685,5.808 L142.5685,6.655 C142.4805,6.644 142.3925,6.644 142.3375,6.644 C141.8865,6.644 141.4905,6.853 141.2375,7.227 C141.0175,7.546 140.9405,7.843 140.9405,8.426 L140.9405,11 L140.1045,11 L140.1045,5.929 Z"/>
    </g>
    <path fill="#C41261" d="M209.78,37.808 L209.01,38.853 L208.57,38.523 L209.351,37.489 L208.119,37.093 L208.284,36.587 L209.516,36.95 L209.516,35.685 L210.044,35.685 L210.044,36.95 L211.298,36.554 L211.474,37.071 L210.187,37.489 L210.979,38.523 L210.572,38.853 L209.78,37.808 Z M220.406,41.306 L217.117,41.306 L216.446,43 L215.489,43 L218.25,35.663 L219.35,35.663 L222.045,43 L221.011,43 L220.406,41.306 Z M220.12,40.514 L218.778,36.829 L217.392,40.514 L220.12,40.514 Z M223.772,43 L222.936,43 L222.936,35.663 L223.772,35.663 L223.772,43 Z M226.291,43 L225.455,43 L225.455,35.663 L226.291,35.663 L226.291,43 Z M233.463,37.808 C234.959,37.808 236.026,38.919 236.026,40.481 C236.026,41.966 234.882,43.121 233.43,43.121 C231.923,43.121 230.867,42.021 230.867,40.459 C230.867,38.886 231.923,37.808 233.463,37.808 Z M233.463,38.578 C232.418,38.578 231.725,39.337 231.725,40.47 C231.725,41.592 232.418,42.351 233.452,42.351 C234.453,42.351 235.168,41.57 235.168,40.47 C235.168,39.337 234.486,38.578 233.463,38.578 Z M238.193,38.666 L238.193,41.966 C238.204,42.219 238.27,42.274 238.578,42.274 L238.963,42.274 L238.963,43 L238.182,43 C237.588,42.989 237.357,42.769 237.357,42.208 L237.357,38.666 L236.653,38.666 L236.653,37.929 L237.357,37.929 L237.357,36.334 L238.193,36.334 L238.193,37.929 L238.963,37.929 L238.963,38.666 L238.193,38.666 Z M240.987,35.663 L240.987,38.633 C241.449,38.061 241.911,37.808 242.516,37.808 C242.956,37.808 243.418,37.984 243.693,38.27 C243.968,38.545 244.089,38.941 244.089,39.59 L244.089,43 L243.253,43 L243.253,39.634 C243.253,38.941 242.912,38.556 242.307,38.556 C241.922,38.556 241.581,38.71 241.317,39.007 C241.064,39.293 240.987,39.546 240.987,40.03 L240.987,43 L240.151,43 L240.151,35.663 L240.987,35.663 Z M250.447,40.734 L246.223,40.734 C246.267,41.163 246.344,41.383 246.553,41.658 C246.883,42.109 247.367,42.351 247.917,42.351 C248.544,42.351 249.138,42.01 249.435,41.482 L250.172,41.757 C249.754,42.604 248.885,43.121 247.917,43.121 C246.41,43.121 245.332,42.021 245.332,40.481 C245.332,38.919 246.399,37.808 247.884,37.808 C249.358,37.808 250.458,38.919 250.458,40.404 C250.458,40.47 250.458,40.613 250.447,40.734 Z M246.234,40.118 L249.567,40.118 C249.534,39.722 249.457,39.502 249.281,39.249 C248.962,38.82 248.445,38.556 247.884,38.556 C247.323,38.556 246.817,38.82 246.52,39.26 C246.366,39.502 246.3,39.711 246.234,40.118 Z M251.668,37.929 L252.504,37.929 L252.504,38.787 C252.658,38.424 252.768,38.27 252.966,38.116 C253.219,37.918 253.571,37.808 253.934,37.808 L254.132,37.808 L254.132,38.655 C254.044,38.644 253.956,38.644 253.901,38.644 C253.45,38.644 253.054,38.853 252.801,39.227 C252.581,39.546 252.504,39.843 252.504,40.426 L252.504,43 L251.668,43 L251.668,37.929 Z M262.261,38.699 L262.261,35.663 L263.097,35.663 L263.097,43 L262.261,43 L262.261,42.131 C261.755,42.824 261.216,43.121 260.446,43.121 C259.049,43.121 258.059,42.032 258.059,40.492 C258.059,38.952 259.071,37.808 260.446,37.808 C261.194,37.808 261.766,38.083 262.261,38.699 Z M260.622,38.556 C259.621,38.556 258.939,39.348 258.939,40.503 C258.939,41.614 259.61,42.395 260.567,42.395 C261.546,42.395 262.261,41.581 262.261,40.481 C262.261,39.337 261.59,38.556 260.622,38.556 Z M265.616,37.929 L265.616,43 L264.78,43 L264.78,37.929 L265.616,37.929 Z M265.209,35.96 C265.506,35.96 265.737,36.202 265.737,36.51 C265.737,36.807 265.495,37.038 265.198,37.038 C264.901,37.038 264.67,36.807 264.67,36.499 C264.67,36.191 264.901,35.96 265.209,35.96 Z M267.299,37.929 L268.135,37.929 L268.135,38.633 C268.52,38.05 268.949,37.808 269.576,37.808 C270.269,37.808 270.709,38.105 270.94,38.732 C271.314,38.083 271.787,37.808 272.546,37.808 C273.129,37.808 273.569,37.995 273.833,38.347 C274.075,38.666 274.141,38.952 274.141,39.755 L274.141,43 L273.305,43 L273.305,39.953 C273.305,39.337 273.283,39.194 273.162,38.985 C273.008,38.721 272.678,38.556 272.282,38.556 C271.545,38.556 271.138,39.051 271.138,39.953 L271.138,43 L270.302,43 L270.302,39.964 C270.302,39.469 270.258,39.216 270.137,38.996 C269.994,38.71 269.686,38.556 269.312,38.556 C268.575,38.556 268.135,39.084 268.135,39.964 L268.135,43 L267.299,43 L267.299,37.929 Z M280.499,40.734 L276.275,40.734 C276.319,41.163 276.396,41.383 276.605,41.658 C276.935,42.109 277.419,42.351 277.969,42.351 C278.596,42.351 279.19,42.01 279.487,41.482 L280.224,41.757 C279.806,42.604 278.937,43.121 277.969,43.121 C276.462,43.121 275.384,42.021 275.384,40.481 C275.384,38.919 276.451,37.808 277.936,37.808 C279.41,37.808 280.51,38.919 280.51,40.404 C280.51,40.47 280.51,40.613 280.499,40.734 Z M276.286,40.118 L279.619,40.118 C279.586,39.722 279.509,39.502 279.333,39.249 C279.014,38.82 278.497,38.556 277.936,38.556 C277.375,38.556 276.869,38.82 276.572,39.26 C276.418,39.502 276.352,39.711 276.286,40.118 Z M281.72,37.929 L282.556,37.929 L282.556,38.644 C282.996,38.05 283.436,37.808 284.063,37.808 C284.525,37.808 284.943,37.962 285.24,38.226 C285.559,38.534 285.669,38.886 285.669,39.579 L285.669,43 L284.833,43 L284.833,39.766 C284.833,39.315 284.778,39.073 284.646,38.897 C284.492,38.688 284.195,38.556 283.854,38.556 C283.48,38.556 283.139,38.699 282.886,38.985 C282.644,39.249 282.556,39.491 282.556,39.909 L282.556,43 L281.72,43 L281.72,37.929 Z M290.498,39.315 L289.662,39.315 L289.662,39.26 C289.662,38.787 289.277,38.49 288.694,38.49 C288.133,38.49 287.781,38.776 287.781,39.216 C287.781,39.656 288.001,39.821 288.914,40.074 C289.563,40.25 289.904,40.415 290.146,40.657 C290.399,40.91 290.553,41.273 290.553,41.647 C290.553,42.527 289.827,43.121 288.749,43.121 C287.594,43.121 286.945,42.582 286.857,41.559 L287.682,41.559 C287.737,42.131 288.111,42.439 288.749,42.439 C289.321,42.439 289.695,42.142 289.695,41.691 C289.695,41.251 289.409,41.031 288.54,40.811 C287.44,40.514 286.945,40.052 286.945,39.282 C286.945,38.402 287.66,37.808 288.727,37.808 C289.805,37.808 290.454,38.358 290.498,39.315 Z M292.676,37.929 L292.676,43 L291.84,43 L291.84,37.929 L292.676,37.929 Z M292.269,35.96 C292.566,35.96 292.797,36.202 292.797,36.51 C292.797,36.807 292.555,37.038 292.258,37.038 C291.961,37.038 291.73,36.807 291.73,36.499 C291.73,36.191 291.961,35.96 292.269,35.96 Z M296.548,37.808 C298.044,37.808 299.111,38.919 299.111,40.481 C299.111,41.966 297.967,43.121 296.515,43.121 C295.008,43.121 293.952,42.021 293.952,40.459 C293.952,38.886 295.008,37.808 296.548,37.808 Z M296.548,38.578 C295.503,38.578 294.81,39.337 294.81,40.47 C294.81,41.592 295.503,42.351 296.537,42.351 C297.538,42.351 298.253,41.57 298.253,40.47 C298.253,39.337 297.571,38.578 296.548,38.578 Z M300.387,37.929 L301.223,37.929 L301.223,38.644 C301.663,38.05 302.103,37.808 302.73,37.808 C303.192,37.808 303.61,37.962 303.907,38.226 C304.226,38.534 304.336,38.886 304.336,39.579 L304.336,43 L303.5,43 L303.5,39.766 C303.5,39.315 303.445,39.073 303.313,38.897 C303.159,38.688 302.862,38.556 302.521,38.556 C302.147,38.556 301.806,38.699 301.553,38.985 C301.311,39.249 301.223,39.491 301.223,39.909 L301.223,43 L300.387,43 L300.387,37.929 Z M309.165,39.315 L308.329,39.315 L308.329,39.26 C308.329,38.787 307.944,38.49 307.361,38.49 C306.8,38.49 306.448,38.776 306.448,39.216 C306.448,39.656 306.668,39.821 307.581,40.074 C308.23,40.25 308.571,40.415 308.813,40.657 C309.066,40.91 309.22,41.273 309.22,41.647 C309.22,42.527 308.494,43.121 307.416,43.121 C306.261,43.121 305.612,42.582 305.524,41.559 L306.349,41.559 C306.404,42.131 306.778,42.439 307.416,42.439 C307.988,42.439 308.362,42.142 308.362,41.691 C308.362,41.251 308.076,41.031 307.207,40.811 C306.107,40.514 305.612,40.052 305.612,39.282 C305.612,38.402 306.327,37.808 307.394,37.808 C308.472,37.808 309.121,38.358 309.165,39.315 Z M317.635,38.765 L317.635,37.929 L318.471,37.929 L318.471,43 L317.635,43 L317.635,42.021 C317.129,42.78 316.557,43.121 315.787,43.121 C314.39,43.121 313.4,42.021 313.4,40.481 C313.4,38.93 314.412,37.808 315.809,37.808 C316.579,37.808 317.14,38.105 317.635,38.765 Z M315.93,38.556 C315.38,38.556 314.995,38.743 314.698,39.161 C314.434,39.524 314.28,40.008 314.28,40.503 C314.28,41.581 314.984,42.395 315.908,42.395 C316.865,42.395 317.646,41.504 317.646,40.415 C317.646,39.315 316.942,38.556 315.93,38.556 Z M320.154,37.929 L320.99,37.929 L320.99,38.787 C321.144,38.424 321.254,38.27 321.452,38.116 C321.705,37.918 322.057,37.808 322.42,37.808 L322.618,37.808 L322.618,38.655 C322.53,38.644 322.442,38.644 322.387,38.644 C321.936,38.644 321.54,38.853 321.287,39.227 C321.067,39.546 320.99,39.843 320.99,40.426 L320.99,43 L320.154,43 L320.154,37.929 Z M328.36,40.734 L324.136,40.734 C324.18,41.163 324.257,41.383 324.466,41.658 C324.796,42.109 325.28,42.351 325.83,42.351 C326.457,42.351 327.051,42.01 327.348,41.482 L328.085,41.757 C327.667,42.604 326.798,43.121 325.83,43.121 C324.323,43.121 323.245,42.021 323.245,40.481 C323.245,38.919 324.312,37.808 325.797,37.808 C327.271,37.808 328.371,38.919 328.371,40.404 C328.371,40.47 328.371,40.613 328.36,40.734 Z M324.147,40.118 L327.48,40.118 C327.447,39.722 327.37,39.502 327.194,39.249 C326.875,38.82 326.358,38.556 325.797,38.556 C325.236,38.556 324.73,38.82 324.433,39.26 C324.279,39.502 324.213,39.711 324.147,40.118 Z M333.772,38.666 L333.772,41.966 C333.783,42.219 333.849,42.274 334.157,42.274 L334.542,42.274 L334.542,43 L333.761,43 C333.167,42.989 332.936,42.769 332.936,42.208 L332.936,38.666 L332.232,38.666 L332.232,37.929 L332.936,37.929 L332.936,36.334 L333.772,36.334 L333.772,37.929 L334.542,37.929 L334.542,38.666 L333.772,38.666 Z M336.566,35.663 L336.566,38.633 C337.028,38.061 337.49,37.808 338.095,37.808 C338.535,37.808 338.997,37.984 339.272,38.27 C339.547,38.545 339.668,38.941 339.668,39.59 L339.668,43 L338.832,43 L338.832,39.634 C338.832,38.941 338.491,38.556 337.886,38.556 C337.501,38.556 337.16,38.71 336.896,39.007 C336.643,39.293 336.566,39.546 336.566,40.03 L336.566,43 L335.73,43 L335.73,35.663 L336.566,35.663 Z M346.026,40.734 L341.802,40.734 C341.846,41.163 341.923,41.383 342.132,41.658 C342.462,42.109 342.946,42.351 343.496,42.351 C344.123,42.351 344.717,42.01 345.014,41.482 L345.751,41.757 C345.333,42.604 344.464,43.121 343.496,43.121 C341.989,43.121 340.911,42.021 340.911,40.481 C340.911,38.919 341.978,37.808 343.463,37.808 C344.937,37.808 346.037,38.919 346.037,40.404 C346.037,40.47 346.037,40.613 346.026,40.734 Z M341.813,40.118 L345.146,40.118 C345.113,39.722 345.036,39.502 344.86,39.249 C344.541,38.82 344.024,38.556 343.463,38.556 C342.902,38.556 342.396,38.82 342.099,39.26 C341.945,39.502 341.879,39.711 341.813,40.118 Z M353.726,39.315 L352.89,39.315 L352.89,39.26 C352.89,38.787 352.505,38.49 351.922,38.49 C351.361,38.49 351.009,38.776 351.009,39.216 C351.009,39.656 351.229,39.821 352.142,40.074 C352.791,40.25 353.132,40.415 353.374,40.657 C353.627,40.91 353.781,41.273 353.781,41.647 C353.781,42.527 353.055,43.121 351.977,43.121 C350.822,43.121 350.173,42.582 350.085,41.559 L350.91,41.559 C350.965,42.131 351.339,42.439 351.977,42.439 C352.549,42.439 352.923,42.142 352.923,41.691 C352.923,41.251 352.637,41.031 351.768,40.811 C350.668,40.514 350.173,40.052 350.173,39.282 C350.173,38.402 350.888,37.808 351.955,37.808 C353.033,37.808 353.682,38.358 353.726,39.315 Z M358.896,38.765 L358.896,37.929 L359.732,37.929 L359.732,43 L358.896,43 L358.896,42.021 C358.39,42.78 357.818,43.121 357.048,43.121 C355.651,43.121 354.661,42.021 354.661,40.481 C354.661,38.93 355.673,37.808 357.07,37.808 C357.84,37.808 358.401,38.105 358.896,38.765 Z M357.191,38.556 C356.641,38.556 356.256,38.743 355.959,39.161 C355.695,39.524 355.541,40.008 355.541,40.503 C355.541,41.581 356.245,42.395 357.169,42.395 C358.126,42.395 358.907,41.504 358.907,40.415 C358.907,39.315 358.203,38.556 357.191,38.556 Z M361.415,37.929 L362.251,37.929 L362.251,38.633 C362.636,38.05 363.065,37.808 363.692,37.808 C364.385,37.808 364.825,38.105 365.056,38.732 C365.43,38.083 365.903,37.808 366.662,37.808 C367.245,37.808 367.685,37.995 367.949,38.347 C368.191,38.666 368.257,38.952 368.257,39.755 L368.257,43 L367.421,43 L367.421,39.953 C367.421,39.337 367.399,39.194 367.278,38.985 C367.124,38.721 366.794,38.556 366.398,38.556 C365.661,38.556 365.254,39.051 365.254,39.953 L365.254,43 L364.418,43 L364.418,39.964 C364.418,39.469 364.374,39.216 364.253,38.996 C364.11,38.71 363.802,38.556 363.428,38.556 C362.691,38.556 362.251,39.084 362.251,39.964 L362.251,43 L361.415,43 L361.415,37.929 Z M374.615,40.734 L370.391,40.734 C370.435,41.163 370.512,41.383 370.721,41.658 C371.051,42.109 371.535,42.351 372.085,42.351 C372.712,42.351 373.306,42.01 373.603,41.482 L374.34,41.757 C373.922,42.604 373.053,43.121 372.085,43.121 C370.578,43.121 369.5,42.021 369.5,40.481 C369.5,38.919 370.567,37.808 372.052,37.808 C373.526,37.808 374.626,38.919 374.626,40.404 C374.626,40.47 374.626,40.613 374.615,40.734 Z M370.402,40.118 L373.735,40.118 C373.702,39.722 373.625,39.502 373.449,39.249 C373.13,38.82 372.613,38.556 372.052,38.556 C371.491,38.556 370.985,38.82 370.688,39.26 C370.534,39.502 370.468,39.711 370.402,40.118 Z"/>
    <g transform="translate(110 54)">
      <rect width="359" height="72" fill="#25333D" rx="14"/>
      <rect width="66" height="44" x="285" y="14"/>
      <path fill="#89CBDF" d="M302.271035,42 L301.175332,38.8208008 L296.609902,38.8208008 L295.505898,42 L293.596719,42 L297.921426,30.0219727 L299.921914,30.0219727 L304.246621,42 L302.271035,42 Z M298.826211,32.1967773 L297.083047,37.2602539 L300.702187,37.2602539 L298.967324,32.1967773 L298.826211,32.1967773 Z M312.867871,35.9155273 L311.133008,35.9155273 C310.925488,35.0356445 310.19502,34.3798828 308.999707,34.3798828 C307.505566,34.3798828 306.59248,35.5253906 306.59248,37.4511719 C306.59248,39.4101562 307.513867,40.5805664 308.999707,40.5805664 C310.128613,40.5805664 310.900586,40.065918 311.133008,39.0947266 L312.867871,39.0947266 C312.635449,40.9125977 311.240918,42.1743164 309.008008,42.1743164 C306.37666,42.1743164 304.766309,40.3979492 304.766309,37.4511719 C304.766309,34.5541992 306.368359,32.7861328 308.999707,32.7861328 C311.26582,32.7861328 312.635449,34.105957 312.867871,35.9155273 Z M315.255234,30.7109375 L317.039902,30.7109375 L317.039902,33.0019531 L318.998887,33.0019531 L318.998887,34.5043945 L317.039902,34.5043945 L317.039902,39.152832 C317.039902,40.0991211 317.430039,40.5141602 318.318223,40.5141602 C318.592148,40.5141602 318.749863,40.4975586 318.998887,40.4726562 L318.998887,41.9584961 C318.708359,42.0083008 318.376328,42.0498047 318.027695,42.0498047 C316.043809,42.0498047 315.255234,41.3525391 315.255234,39.609375 L315.255234,34.5043945 L313.819199,34.5043945 L313.819199,33.0019531 L315.255234,33.0019531 L315.255234,30.7109375 Z M320.722187,42 L320.722187,32.9604492 L322.498555,32.9604492 L322.498555,42 L320.722187,42 Z M321.610371,31.375 C320.946309,31.375 320.456562,30.9018555 320.456562,30.2875977 C320.456562,29.6650391 320.946309,29.1918945 321.610371,29.1918945 C322.274434,29.1918945 322.76418,29.6650391 322.76418,30.2875977 C322.76418,30.9018555 322.274434,31.375 321.610371,31.375 Z M328.529961,42.1743164 C325.882012,42.1743164 324.263359,40.40625 324.263359,37.4760742 C324.263359,34.5625 325.890312,32.7861328 328.529961,32.7861328 C331.161309,32.7861328 332.788262,34.5625 332.788262,37.4760742 C332.788262,40.40625 331.169609,42.1743164 328.529961,42.1743164 Z M328.529961,40.5888672 C330.073906,40.5888672 330.953789,39.4433594 330.953789,37.4760742 C330.953789,35.5170898 330.073906,34.371582 328.529961,34.371582 C326.977715,34.371582 326.106133,35.5170898 326.106133,37.4760742 C326.106133,39.4516602 326.977715,40.5888672 328.529961,40.5888672 Z M334.519863,42 L334.519863,32.9604492 L336.238125,32.9604492 L336.238125,34.3964844 L336.370937,34.3964844 C336.810879,33.3920898 337.707363,32.7861328 339.068691,32.7861328 C341.085781,32.7861328 342.198086,33.9980469 342.198086,36.1479492 L342.198086,42 L340.413418,42 L340.413418,36.5961914 C340.413418,35.1435547 339.782559,34.4213867 338.462734,34.4213867 C337.14291,34.4213867 336.304531,35.3012695 336.304531,36.7124023 L336.304531,42 L334.519863,42 Z"/>
      <path fill="#FFF" d="M21.7734375,31 L20.3671875,31 L20.3671875,20.9921875 L16.734375,20.9921875 L16.734375,19.7265625 L25.40625,19.7265625 L25.40625,20.9921875 L21.7734375,20.9921875 L21.7734375,31 Z M27.164375,31 L27.164375,19.234375 L28.508125,19.234375 L28.508125,23.90625 L28.633125,23.90625 C29.055,22.9765625 29.9378125,22.4296875 31.226875,22.4296875 C33.008125,22.4296875 34.133125,23.5703125 34.133125,25.546875 L34.133125,31 L32.789375,31 L32.789375,25.875 C32.789375,24.3828125 32.1175,23.640625 30.8440625,23.640625 C29.33625,23.640625 28.508125,24.59375 28.508125,26.015625 L28.508125,31 L27.164375,31 Z M36.2975,31 L36.2975,22.578125 L37.64125,22.578125 L37.64125,31 L36.2975,31 Z M36.969375,20.8671875 C36.45375,20.8671875 36.031875,20.4453125 36.031875,19.9296875 C36.031875,19.4140625 36.45375,18.9921875 36.969375,18.9921875 C37.485,18.9921875 37.906875,19.4140625 37.906875,19.9296875 C37.906875,20.4453125 37.485,20.8671875 36.969375,20.8671875 Z M39.6884375,24.8828125 C39.6884375,23.484375 41.04,22.4296875 42.8290625,22.4296875 C44.5946875,22.4296875 45.82125,23.3046875 46.0009375,24.6875 L44.6728125,24.6875 C44.493125,24.015625 43.836875,23.5703125 42.82125,23.5703125 C41.82125,23.5703125 41.04,24.078125 41.04,24.828125 C41.04,25.40625 41.50875,25.765625 42.5009375,26.0078125 L43.7978125,26.3203125 C45.38375,26.703125 46.149375,27.390625 46.149375,28.6015625 C46.149375,30.109375 44.6884375,31.1484375 42.774375,31.1484375 C40.899375,31.1484375 39.6103125,30.25 39.461875,28.8515625 L40.8446875,28.8515625 C41.07125,29.5625 41.743125,30.015625 42.82125,30.015625 C43.9540625,30.015625 44.7665625,29.4765625 44.7665625,28.703125 C44.7665625,28.125 44.3290625,27.734375 43.430625,27.515625 L41.9853125,27.1640625 C40.4071875,26.78125 39.6884375,26.1015625 39.6884375,24.8828125 Z M52.134375,31 L52.134375,22.578125 L53.415625,22.578125 L53.415625,23.90625 L53.540625,23.90625 C53.9234375,22.96875 54.7671875,22.4296875 55.8921875,22.4296875 C57.0328125,22.4296875 57.8296875,23.03125 58.2203125,23.90625 L58.3453125,23.90625 C58.7984375,23.015625 59.759375,22.4296875 60.9234375,22.4296875 C62.6421875,22.4296875 63.603125,23.4140625 63.603125,25.1796875 L63.603125,31 L62.259375,31 L62.259375,25.4921875 C62.259375,24.25 61.6734375,23.640625 60.4859375,23.640625 C59.3140625,23.640625 58.5328125,24.515625 58.5328125,25.5859375 L58.5328125,31 L57.1890625,31 L57.1890625,25.28125 C57.1890625,24.28125 56.49375,23.640625 55.43125,23.640625 C54.3296875,23.640625 53.478125,24.59375 53.478125,25.78125 L53.478125,31 L52.134375,31 Z M69.095625,23.6171875 C67.751875,23.6171875 66.814375,24.6015625 66.7128125,26.09375 L71.3534375,26.09375 C71.3221875,24.6015625 70.4315625,23.6171875 69.095625,23.6171875 Z M71.314375,28.8203125 L72.658125,28.8203125 C72.251875,30.265625 70.955,31.1484375 69.11125,31.1484375 C66.7753125,31.1484375 65.314375,29.4609375 65.314375,26.796875 C65.314375,24.1484375 66.79875,22.4296875 69.11125,22.4296875 C71.3846875,22.4296875 72.7675,24.046875 72.7675,26.6640625 L72.7675,27.1796875 L66.7128125,27.1796875 L66.7128125,27.2421875 C66.783125,28.90625 67.7128125,29.9609375 69.1425,29.9609375 C70.2284375,29.9609375 70.9628125,29.5625 71.314375,28.8203125 Z M74.3615626,24.8828125 C74.3615626,23.484375 75.7131251,22.4296875 77.5021876,22.4296875 C79.2678126,22.4296875 80.4943751,23.3046875 80.6740626,24.6875 L79.3459376,24.6875 C79.1662501,24.015625 78.5100001,23.5703125 77.4943751,23.5703125 C76.4943751,23.5703125 75.7131251,24.078125 75.7131251,24.828125 C75.7131251,25.40625 76.1818751,25.765625 77.1740626,26.0078125 L78.4709376,26.3203125 C80.0568751,26.703125 80.8225001,27.390625 80.8225001,28.6015625 C80.8225001,30.109375 79.3615626,31.1484375 77.4475001,31.1484375 C75.5725001,31.1484375 74.2834376,30.25 74.1350001,28.8515625 L75.5178126,28.8515625 C75.7443751,29.5625 76.4162501,30.015625 77.4943751,30.015625 C78.6271876,30.015625 79.4396876,29.4765625 79.4396876,28.703125 C79.4396876,28.125 79.0021876,27.734375 78.1037501,27.515625 L76.6584376,27.1640625 C75.0803126,26.78125 74.3615626,26.1015625 74.3615626,24.8828125 Z M82.2603126,24.8828125 C82.2603126,23.484375 83.6118751,22.4296875 85.4009376,22.4296875 C87.1665626,22.4296875 88.3931251,23.3046875 88.5728126,24.6875 L87.2446876,24.6875 C87.0650001,24.015625 86.4087501,23.5703125 85.3931251,23.5703125 C84.3931251,23.5703125 83.6118751,24.078125 83.6118751,24.828125 C83.6118751,25.40625 84.0806251,25.765625 85.0728126,26.0078125 L86.3696876,26.3203125 C87.9556251,26.703125 88.7212501,27.390625 88.7212501,28.6015625 C88.7212501,30.109375 87.2603126,31.1484375 85.3462501,31.1484375 C83.4712501,31.1484375 82.1821876,30.25 82.0337501,28.8515625 L83.4165626,28.8515625 C83.6431251,29.5625 84.3150001,30.015625 85.3931251,30.015625 C86.5259376,30.015625 87.3384376,29.4765625 87.3384376,28.703125 C87.3384376,28.125 86.9009376,27.734375 86.0025001,27.515625 L84.5571876,27.1640625 C82.9790626,26.78125 82.2603126,26.1015625 82.2603126,24.8828125 Z M93.1043751,29.96875 C94.4871876,29.96875 95.5106251,29.0625 95.5106251,27.859375 L95.5106251,27.0859375 L93.2450001,27.234375 C91.9637501,27.3203125 91.4012501,27.765625 91.4012501,28.609375 C91.4012501,29.46875 92.1278126,29.96875 93.1043751,29.96875 Z M92.8543751,31.1484375 C91.2215626,31.1484375 90.0106251,30.1796875 90.0106251,28.640625 C90.0106251,27.1328125 91.1200001,26.265625 93.0809376,26.1484375 L95.5106251,26 L95.5106251,25.234375 C95.5106251,24.1953125 94.8621876,23.625 93.6043751,23.625 C92.5965626,23.625 91.8934376,24.0078125 91.7059376,24.671875 L90.3465626,24.671875 C90.5262501,23.3203125 91.8543751,22.4296875 93.6512501,22.4296875 C95.7059376,22.4296875 96.8543751,23.484375 96.8543751,25.234375 L96.8543751,31 L95.5731251,31 L95.5731251,29.7578125 L95.4481251,29.7578125 C94.9012501,30.65625 93.9793751,31.1484375 92.8543751,31.1484375 Z M102.425,29.6875 C103.9875,29.6875 104.925,28.5 104.925,26.6640625 C104.925,24.828125 103.979688,23.640625 102.425,23.640625 C100.8625,23.640625 99.9875001,24.828125 99.9875001,26.6640625 C99.9875001,28.5 100.8625,29.6875 102.425,29.6875 Z M102.4875,34.234375 C100.45625,34.234375 99.1593751,33.3203125 98.9562501,31.9296875 L100.378125,31.9296875 C100.526563,32.6171875 101.276563,33.0625 102.4875,33.0625 C103.995313,33.0625 104.89375,32.3203125 104.89375,31.078125 L104.89375,29.421875 L104.76875,29.421875 C104.2375,30.3515625 103.284375,30.875 102.128125,30.875 C99.9484376,30.875 98.5968751,29.1875 98.5968751,26.6640625 C98.5968751,24.140625 99.9640626,22.4296875 102.128125,22.4296875 C103.307813,22.4296875 104.346875,23.0078125 104.83125,23.9140625 L104.95625,23.9140625 L104.95625,22.578125 L106.2375,22.578125 L106.2375,31.1484375 C106.2375,33.03125 104.784375,34.234375 102.4875,34.234375 Z M111.808125,23.6171875 C110.464375,23.6171875 109.526875,24.6015625 109.425313,26.09375 L114.065938,26.09375 C114.034688,24.6015625 113.144063,23.6171875 111.808125,23.6171875 Z M114.026875,28.8203125 L115.370625,28.8203125 C114.964375,30.265625 113.6675,31.1484375 111.82375,31.1484375 C109.487813,31.1484375 108.026875,29.4609375 108.026875,26.796875 C108.026875,24.1484375 109.51125,22.4296875 111.82375,22.4296875 C114.097188,22.4296875 115.48,24.046875 115.48,26.6640625 L115.48,27.1796875 L109.425313,27.1796875 L109.425313,27.2421875 C109.495625,28.90625 110.425313,29.9609375 111.855,29.9609375 C112.940938,29.9609375 113.675313,29.5625 114.026875,28.8203125 Z M121.465,31 L121.465,22.578125 L122.74625,22.578125 L122.74625,23.828125 L122.87125,23.828125 C123.12125,23.0078125 124.09,22.4296875 125.207188,22.4296875 C125.425938,22.4296875 125.707188,22.4453125 125.879063,22.46875 L125.879063,23.8125 C125.769688,23.78125 125.285313,23.734375 125.019688,23.734375 C123.738438,23.734375 122.80875,24.59375 122.80875,25.78125 L122.80875,31 L121.465,31 Z M134.05125,22.578125 L134.05125,31 L132.77,31 L132.77,29.6796875 L132.645,29.6796875 C132.223125,30.6171875 131.324688,31.1484375 130.035625,31.1484375 C128.145,31.1484375 127.160625,30.0234375 127.160625,28.03125 L127.160625,22.578125 L128.504375,22.578125 L128.504375,27.703125 C128.504375,29.21875 129.066875,29.921875 130.410625,29.921875 C131.895,29.921875 132.7075,29.0390625 132.7075,27.5625 L132.7075,22.578125 L134.05125,22.578125 Z M136.2625,31 L136.2625,22.578125 L137.54375,22.578125 L137.54375,23.90625 L137.66875,23.90625 C138.090625,22.9765625 138.910938,22.4296875 140.2,22.4296875 C142.090625,22.4296875 143.145313,23.546875 143.145313,25.546875 L143.145313,31 L141.801563,31 L141.801563,25.875 C141.801563,24.359375 141.160938,23.640625 139.817188,23.640625 C138.473438,23.640625 137.60625,24.5390625 137.60625,26.015625 L137.60625,31 L136.2625,31 Z M145.083125,24.8828125 C145.083125,23.484375 146.434688,22.4296875 148.22375,22.4296875 C149.989375,22.4296875 151.215938,23.3046875 151.395625,24.6875 L150.0675,24.6875 C149.887813,24.015625 149.231563,23.5703125 148.215938,23.5703125 C147.215938,23.5703125 146.434688,24.078125 146.434688,24.828125 C146.434688,25.40625 146.903438,25.765625 147.895625,26.0078125 L149.1925,26.3203125 C150.778438,26.703125 151.544063,27.390625 151.544063,28.6015625 C151.544063,30.109375 150.083125,31.1484375 148.169063,31.1484375 C146.294063,31.1484375 145.005,30.25 144.856563,28.8515625 L146.239375,28.8515625 C146.465938,29.5625 147.137813,30.015625 148.215938,30.015625 C149.34875,30.015625 150.16125,29.4765625 150.16125,28.703125 C150.16125,28.125 149.72375,27.734375 148.825313,27.515625 L147.38,27.1640625 C145.801875,26.78125 145.083125,26.1015625 145.083125,24.8828125 Z M158.091563,20.3984375 L159.435313,20.3984375 L159.435313,22.578125 L161.310313,22.578125 L161.310313,23.703125 L159.435313,23.703125 L159.435313,28.46875 C159.435313,29.4609375 159.810313,29.8828125 160.685313,29.8828125 C160.9275,29.8828125 161.060313,29.875 161.310313,29.8515625 L161.310313,30.984375 C161.044688,31.03125 160.786875,31.0625 160.52125,31.0625 C158.786875,31.0625 158.091563,30.421875 158.091563,28.8125 L158.091563,23.703125 L156.732188,23.703125 L156.732188,22.578125 L158.091563,22.578125 L158.091563,20.3984375 Z M166.365313,31.1484375 C163.966875,31.1484375 162.4825,29.4921875 162.4825,26.7890625 C162.4825,24.078125 163.966875,22.4296875 166.365313,22.4296875 C168.76375,22.4296875 170.248125,24.078125 170.248125,26.7890625 C170.248125,29.4921875 168.76375,31.1484375 166.365313,31.1484375 Z M166.365313,29.9375 C167.959063,29.9375 168.8575,28.78125 168.8575,26.7890625 C168.8575,24.7890625 167.959063,23.640625 166.365313,23.640625 C164.771563,23.640625 163.873125,24.7890625 163.873125,26.7890625 C163.873125,28.78125 164.771563,29.9375 166.365313,29.9375 Z M176.795625,20.3984375 L178.139375,20.3984375 L178.139375,22.578125 L180.014375,22.578125 L180.014375,23.703125 L178.139375,23.703125 L178.139375,28.46875 C178.139375,29.4609375 178.514375,29.8828125 179.389375,29.8828125 C179.631563,29.8828125 179.764375,29.875 180.014375,29.8515625 L180.014375,30.984375 C179.74875,31.03125 179.490938,31.0625 179.225313,31.0625 C177.490938,31.0625 176.795625,30.421875 176.795625,28.8125 L176.795625,23.703125 L175.43625,23.703125 L175.43625,22.578125 L176.795625,22.578125 L176.795625,20.3984375 Z M192.319375,22.578125 L189.96,31 L188.592813,31 L186.71,24.484375 L186.585,24.484375 L184.71,31 L183.350625,31 L180.99125,22.578125 L182.350625,22.578125 L184.006875,29.3125 L184.131875,29.3125 L186.014688,22.578125 L187.30375,22.578125 L189.186563,29.3125 L189.311563,29.3125 L190.967813,22.578125 L192.319375,22.578125 Z M196.944688,31.1484375 C194.54625,31.1484375 193.061875,29.4921875 193.061875,26.7890625 C193.061875,24.078125 194.54625,22.4296875 196.944688,22.4296875 C199.343125,22.4296875 200.8275,24.078125 200.8275,26.7890625 C200.8275,29.4921875 199.343125,31.1484375 196.944688,31.1484375 Z M196.944688,29.9375 C198.538438,29.9375 199.436875,28.78125 199.436875,26.7890625 C199.436875,24.7890625 198.538438,23.640625 196.944688,23.640625 C195.350938,23.640625 194.4525,24.7890625 194.4525,26.7890625 C194.4525,28.78125 195.350938,29.9375 196.944688,29.9375 Z M206.890625,31 L206.890625,19.234375 L208.234375,19.234375 L208.234375,31 L206.890625,31 Z M210.555,31 L210.555,22.578125 L211.89875,22.578125 L211.89875,31 L210.555,31 Z M211.226875,20.8671875 C210.71125,20.8671875 210.289375,20.4453125 210.289375,19.9296875 C210.289375,19.4140625 210.71125,18.9921875 211.226875,18.9921875 C211.7425,18.9921875 212.164375,19.4140625 212.164375,19.9296875 C212.164375,20.4453125 211.7425,20.8671875 211.226875,20.8671875 Z M214.14125,31 L214.14125,22.578125 L215.4225,22.578125 L215.4225,23.90625 L215.5475,23.90625 C215.969375,22.9765625 216.789688,22.4296875 218.07875,22.4296875 C219.969375,22.4296875 221.024063,23.546875 221.024063,25.546875 L221.024063,31 L219.680313,31 L219.680313,25.875 C219.680313,24.359375 219.039688,23.640625 217.695938,23.640625 C216.352188,23.640625 215.485,24.5390625 215.485,26.015625 L215.485,31 L214.14125,31 Z M226.516563,23.6171875 C225.172813,23.6171875 224.235313,24.6015625 224.13375,26.09375 L228.774375,26.09375 C228.743125,24.6015625 227.8525,23.6171875 226.516563,23.6171875 Z M228.735313,28.8203125 L230.079063,28.8203125 C229.672813,30.265625 228.375938,31.1484375 226.532188,31.1484375 C224.19625,31.1484375 222.735313,29.4609375 222.735313,26.796875 C222.735313,24.1484375 224.219688,22.4296875 226.532188,22.4296875 C228.805625,22.4296875 230.188438,24.046875 230.188438,26.6640625 L230.188438,27.1796875 L224.13375,27.1796875 L224.13375,27.2421875 C224.204063,28.90625 225.13375,29.9609375 226.563438,29.9609375 C227.649375,29.9609375 228.38375,29.5625 228.735313,28.8203125 Z M231.7825,24.8828125 C231.7825,23.484375 233.134063,22.4296875 234.923125,22.4296875 C236.68875,22.4296875 237.915313,23.3046875 238.095,24.6875 L236.766875,24.6875 C236.587188,24.015625 235.930938,23.5703125 234.915313,23.5703125 C233.915313,23.5703125 233.134063,24.078125 233.134063,24.828125 C233.134063,25.40625 233.602813,25.765625 234.595,26.0078125 L235.891875,26.3203125 C237.477813,26.703125 238.243438,27.390625 238.243438,28.6015625 C238.243438,30.109375 236.7825,31.1484375 234.868438,31.1484375 C232.993438,31.1484375 231.704375,30.25 231.555938,28.8515625 L232.93875,28.8515625 C233.165313,29.5625 233.837188,30.015625 234.915313,30.015625 C236.048125,30.015625 236.860625,29.4765625 236.860625,28.703125 C236.860625,28.125 236.423125,27.734375 235.524688,27.515625 L234.079375,27.1640625 C232.50125,26.78125 231.7825,26.1015625 231.7825,24.8828125 Z M246.822188,29.96875 C248.205,29.96875 249.228438,29.0625 249.228438,27.859375 L249.228438,27.0859375 L246.962813,27.234375 C245.681563,27.3203125 245.119063,27.765625 245.119063,28.609375 C245.119063,29.46875 245.845625,29.96875 246.822188,29.96875 Z M246.572188,31.1484375 C244.939375,31.1484375 243.728438,30.1796875 243.728438,28.640625 C243.728438,27.1328125 244.837813,26.265625 246.79875,26.1484375 L249.228438,26 L249.228438,25.234375 C249.228438,24.1953125 248.58,23.625 247.322188,23.625 C246.314375,23.625 245.61125,24.0078125 245.42375,24.671875 L244.064375,24.671875 C244.244063,23.3203125 245.572188,22.4296875 247.369063,22.4296875 C249.42375,22.4296875 250.572188,23.484375 250.572188,25.234375 L250.572188,31 L249.290938,31 L249.290938,29.7578125 L249.165938,29.7578125 C248.619063,30.65625 247.697188,31.1484375 246.572188,31.1484375 Z M252.736563,31 L252.736563,22.578125 L254.017813,22.578125 L254.017813,23.90625 L254.142813,23.90625 C254.564688,22.9765625 255.385,22.4296875 256.674063,22.4296875 C258.564688,22.4296875 259.619375,23.546875 259.619375,25.546875 L259.619375,31 L258.275625,31 L258.275625,25.875 C258.275625,24.359375 257.635,23.640625 256.29125,23.640625 C254.9475,23.640625 254.080313,24.5390625 254.080313,26.015625 L254.080313,31 L252.736563,31 Z M264.869688,31.1484375 C262.713438,31.1484375 261.330625,29.4375 261.330625,26.7890625 C261.330625,24.1484375 262.729063,22.4296875 264.869688,22.4296875 C266.041563,22.4296875 267.03375,22.984375 267.510313,23.90625 L267.6275,23.90625 L267.6275,19.234375 L268.97125,19.234375 L268.97125,31 L267.69,31 L267.69,29.65625 L267.565,29.65625 C267.03375,30.59375 266.03375,31.1484375 264.869688,31.1484375 Z M265.182188,23.640625 C263.650938,23.640625 262.72125,24.828125 262.72125,26.7890625 C262.72125,28.7578125 263.643125,29.9375 265.182188,29.9375 C266.713438,29.9375 267.65875,28.734375 267.65875,26.7890625 C267.65875,24.859375 266.705625,23.640625 265.182188,23.640625 Z M17.34375,52 L17.34375,40.234375 L18.6875,40.234375 L18.6875,44.90625 L18.8125,44.90625 C19.234375,43.9765625 20.1171875,43.4296875 21.40625,43.4296875 C23.1875,43.4296875 24.3125,44.5703125 24.3125,46.546875 L24.3125,52 L22.96875,52 L22.96875,46.875 C22.96875,45.3828125 22.296875,44.640625 21.0234375,44.640625 C19.515625,44.640625 18.6875,45.59375 18.6875,47.015625 L18.6875,52 L17.34375,52 Z M29.039375,50.96875 C30.4221875,50.96875 31.445625,50.0625 31.445625,48.859375 L31.445625,48.0859375 L29.18,48.234375 C27.89875,48.3203125 27.33625,48.765625 27.33625,49.609375 C27.33625,50.46875 28.0628125,50.96875 29.039375,50.96875 Z M28.789375,52.1484375 C27.1565625,52.1484375 25.945625,51.1796875 25.945625,49.640625 C25.945625,48.1328125 27.055,47.265625 29.0159375,47.1484375 L31.445625,47 L31.445625,46.234375 C31.445625,45.1953125 30.7971875,44.625 29.539375,44.625 C28.5315625,44.625 27.8284375,45.0078125 27.6409375,45.671875 L26.2815625,45.671875 C26.46125,44.3203125 27.789375,43.4296875 29.58625,43.4296875 C31.6409375,43.4296875 32.789375,44.484375 32.789375,46.234375 L32.789375,52 L31.508125,52 L31.508125,50.7578125 L31.383125,50.7578125 C30.83625,51.65625 29.914375,52.1484375 28.789375,52.1484375 Z M34.7584375,45.8828125 C34.7584375,44.484375 36.11,43.4296875 37.8990625,43.4296875 C39.6646875,43.4296875 40.89125,44.3046875 41.0709375,45.6875 L39.7428125,45.6875 C39.563125,45.015625 38.906875,44.5703125 37.89125,44.5703125 C36.89125,44.5703125 36.11,45.078125 36.11,45.828125 C36.11,46.40625 36.57875,46.765625 37.5709375,47.0078125 L38.8678125,47.3203125 C40.45375,47.703125 41.219375,48.390625 41.219375,49.6015625 C41.219375,51.109375 39.7584375,52.1484375 37.844375,52.1484375 C35.969375,52.1484375 34.6803125,51.25 34.531875,49.8515625 L35.9146875,49.8515625 C36.14125,50.5625 36.813125,51.015625 37.89125,51.015625 C39.0240625,51.015625 39.8365625,50.4765625 39.8365625,49.703125 C39.8365625,49.125 39.3990625,48.734375 38.500625,48.515625 L37.0553125,48.1640625 C35.4771875,47.78125 34.7584375,47.1015625 34.7584375,45.8828125 Z M49.798125,50.96875 C51.1809375,50.96875 52.204375,50.0625 52.204375,48.859375 L52.204375,48.0859375 L49.93875,48.234375 C48.6575,48.3203125 48.095,48.765625 48.095,49.609375 C48.095,50.46875 48.8215625,50.96875 49.798125,50.96875 Z M49.548125,52.1484375 C47.9153125,52.1484375 46.704375,51.1796875 46.704375,49.640625 C46.704375,48.1328125 47.81375,47.265625 49.7746875,47.1484375 L52.204375,47 L52.204375,46.234375 C52.204375,45.1953125 51.5559375,44.625 50.298125,44.625 C49.2903125,44.625 48.5871875,45.0078125 48.3996875,45.671875 L47.0403125,45.671875 C47.22,44.3203125 48.548125,43.4296875 50.345,43.4296875 C52.3996875,43.4296875 53.548125,44.484375 53.548125,46.234375 L53.548125,52 L52.266875,52 L52.266875,50.7578125 L52.141875,50.7578125 C51.595,51.65625 50.673125,52.1484375 49.548125,52.1484375 Z M55.7125,52 L55.7125,43.578125 L56.99375,43.578125 L56.99375,44.90625 L57.11875,44.90625 C57.540625,43.9765625 58.3609375,43.4296875 59.65,43.4296875 C61.540625,43.4296875 62.5953125,44.546875 62.5953125,46.546875 L62.5953125,52 L61.2515625,52 L61.2515625,46.875 C61.2515625,45.359375 60.6109375,44.640625 59.2671875,44.640625 C57.9234375,44.640625 57.05625,45.5390625 57.05625,47.015625 L57.05625,52 L55.7125,52 Z M71.5178126,50.96875 C72.9006251,50.96875 73.9240626,50.0625 73.9240626,48.859375 L73.9240626,48.0859375 L71.6584376,48.234375 C70.3771876,48.3203125 69.8146876,48.765625 69.8146876,49.609375 C69.8146876,50.46875 70.5412501,50.96875 71.5178126,50.96875 Z M71.2678126,52.1484375 C69.6350001,52.1484375 68.4240626,51.1796875 68.4240626,49.640625 C68.4240626,48.1328125 69.5334376,47.265625 71.4943751,47.1484375 L73.9240626,47 L73.9240626,46.234375 C73.9240626,45.1953125 73.2756251,44.625 72.0178126,44.625 C71.0100001,44.625 70.3068751,45.0078125 70.1193751,45.671875 L68.7600001,45.671875 C68.9396876,44.3203125 70.2678126,43.4296875 72.0646876,43.4296875 C74.1193751,43.4296875 75.2678126,44.484375 75.2678126,46.234375 L75.2678126,52 L73.9865626,52 L73.9865626,50.7578125 L73.8615626,50.7578125 C73.3146876,51.65625 72.3928126,52.1484375 71.2678126,52.1484375 Z M84.4009376,46.15625 L83.0415626,46.15625 C82.8228126,45.3203125 82.0806251,44.640625 80.8696876,44.640625 C79.3540626,44.640625 78.4009376,45.8515625 78.4009376,47.7578125 C78.4009376,49.703125 79.3696876,50.9375 80.8696876,50.9375 C82.0025001,50.9375 82.7915626,50.4140625 83.0415626,49.4609375 L84.4009376,49.4609375 C84.1587501,51.0078125 82.9009376,52.1484375 80.8775001,52.1484375 C78.5181251,52.1484375 77.0103126,50.4375 77.0103126,47.7578125 C77.0103126,45.1328125 78.5103126,43.4296875 80.8696876,43.4296875 C82.9165626,43.4296875 84.1665626,44.65625 84.4009376,46.15625 Z M86.7840626,41.3984375 L88.1278126,41.3984375 L88.1278126,43.578125 L90.0028126,43.578125 L90.0028126,44.703125 L88.1278126,44.703125 L88.1278126,49.46875 C88.1278126,50.4609375 88.5028126,50.8828125 89.3778126,50.8828125 C89.6200001,50.8828125 89.7528126,50.875 90.0028126,50.8515625 L90.0028126,51.984375 C89.7371876,52.03125 89.4793751,52.0625 89.2137501,52.0625 C87.4793751,52.0625 86.7840626,51.421875 86.7840626,49.8125 L86.7840626,44.703125 L85.4246876,44.703125 L85.4246876,43.578125 L86.7840626,43.578125 L86.7840626,41.3984375 Z M91.7453126,52 L91.7453126,43.578125 L93.0890626,43.578125 L93.0890626,52 L91.7453126,52 Z M92.4171876,41.8671875 C91.9015626,41.8671875 91.4796876,41.4453125 91.4796876,40.9296875 C91.4796876,40.4140625 91.9015626,39.9921875 92.4171876,39.9921875 C92.9328126,39.9921875 93.3546876,40.4140625 93.3546876,40.9296875 C93.3546876,41.4453125 92.9328126,41.8671875 92.4171876,41.8671875 Z M98.7925001,52.1484375 C96.3940626,52.1484375 94.9096876,50.4921875 94.9096876,47.7890625 C94.9096876,45.078125 96.3940626,43.4296875 98.7925001,43.4296875 C101.190938,43.4296875 102.675313,45.078125 102.675313,47.7890625 C102.675313,50.4921875 101.190938,52.1484375 98.7925001,52.1484375 Z M98.7925001,50.9375 C100.38625,50.9375 101.284688,49.78125 101.284688,47.7890625 C101.284688,45.7890625 100.38625,44.640625 98.7925001,44.640625 C97.1987501,44.640625 96.3003126,45.7890625 96.3003126,47.7890625 C96.3003126,49.78125 97.1987501,50.9375 98.7925001,50.9375 Z M104.464688,52 L104.464688,43.578125 L105.745938,43.578125 L105.745938,44.90625 L105.870938,44.90625 C106.292813,43.9765625 107.113125,43.4296875 108.402188,43.4296875 C110.292813,43.4296875 111.3475,44.546875 111.3475,46.546875 L111.3475,52 L110.00375,52 L110.00375,46.875 C110.00375,45.359375 109.363125,44.640625 108.019375,44.640625 C106.675625,44.640625 105.808438,45.5390625 105.808438,47.015625 L105.808438,52 L104.464688,52 Z M114.59,52.078125 C114.035313,52.078125 113.574375,51.6171875 113.574375,51.0625 C113.574375,50.5 114.035313,50.046875 114.59,50.046875 C115.1525,50.046875 115.605625,50.5 115.605625,51.0625 C115.605625,51.6171875 115.1525,52.078125 114.59,52.078125 Z"/>
    </g>
    <use fill-rule="nonzero" stroke="#F897BF" stroke-dasharray="1" stroke-width="2" mask="url(#3-c)" transform="translate(398 68)" xlink:href="#3-a"/>
    <use fill-rule="nonzero" stroke="#6FEAD9" stroke-dasharray="1" stroke-width="2" mask="url(#3-d)" transform="translate(125 71)" xlink:href="#3-b"/>
    <g fill="#C41261" transform="translate(74 36)">
      <g transform="translate(28 18)">
        <rect width="1" height="70" x="4" y="1"/>
        <rect width="9" height="1"/>
        <rect width="9" height="1" y="71"/>
      </g>
      <path d="M1.986,7.755 L1.986,11 L1.062,11 L1.062,3.663 L1.986,3.663 L1.986,6.963 L5.561,6.963 L5.561,3.663 L6.485,3.663 L6.485,11 L5.561,11 L5.561,7.755 L1.986,7.755 Z M8.663,9.944 C8.993,9.944 9.235,10.186 9.235,10.527 C9.235,10.846 8.982,11.088 8.663,11.088 C8.333,11.088 8.091,10.846 8.091,10.516 C8.091,10.186 8.333,9.944 8.663,9.944 Z M8.663,6.776 C8.993,6.776 9.235,7.018 9.235,7.359 C9.235,7.678 8.982,7.92 8.663,7.92 C8.333,7.92 8.091,7.678 8.091,7.348 C8.091,7.018 8.333,6.776 8.663,6.776 Z M13.679,4.587 L10.863,4.587 L10.863,3.773 L14.933,3.773 L12.029,11 L11.083,11 L13.679,4.587 Z M17.441,10.197 L20.026,10.197 L20.026,11 L15.912,11 L18.464,7.348 C19.201,6.281 19.366,5.951 19.366,5.511 C19.366,4.873 18.86,4.422 18.145,4.422 C17.65,4.422 17.243,4.653 17.078,5.038 C16.99,5.247 16.957,5.412 16.946,5.797 L16.121,5.797 C16.165,4.4 16.902,3.63 18.211,3.63 C19.41,3.63 20.246,4.378 20.246,5.445 C20.246,6.061 20.026,6.6 19.41,7.458 L17.441,10.197 Z M21.775,5.929 L22.611,5.929 L22.611,6.853 C23.095,6.105 23.612,5.808 24.459,5.808 C25.867,5.808 26.846,6.886 26.846,8.426 C26.846,10.021 25.867,11.121 24.459,11.121 C24.063,11.121 23.7,11.033 23.348,10.857 C23.04,10.703 22.886,10.571 22.611,10.208 L22.611,13.376 L21.775,13.376 L21.775,5.929 Z M24.316,6.556 C23.304,6.556 22.611,7.359 22.611,8.547 C22.611,9.658 23.282,10.395 24.283,10.395 C25.284,10.395 25.955,9.614 25.955,8.459 C25.955,7.865 25.812,7.414 25.515,7.084 C25.218,6.754 24.767,6.556 24.316,6.556 Z M29.728,9.163 L28.375,11 L27.352,11 L29.222,8.481 L27.319,5.929 L28.375,5.929 L29.728,7.788 L31.114,5.929 L32.137,5.929 L30.223,8.481 L32.049,11 L31.026,11 L29.728,9.163 Z M38.396,13.046 L37.846,13.574 C36.548,11.979 35.954,10.428 35.954,8.58 C35.954,6.688 36.647,4.818 37.868,3.443 L38.396,3.993 C37.285,5.368 36.735,6.897 36.735,8.547 C36.735,10.153 37.329,11.759 38.396,13.046 Z M40.552,6.666 L40.552,11 L39.716,11 L39.716,6.666 L39.023,6.666 L39.023,5.929 L39.716,5.929 L39.716,5.247 C39.716,4.246 40.233,3.652 41.113,3.652 C41.157,3.652 41.256,3.652 41.344,3.663 L41.344,4.411 C40.739,4.477 40.574,4.653 40.552,5.247 L40.552,5.929 L41.344,5.929 L41.344,6.666 L40.552,6.666 Z M43.544,5.929 L43.544,11 L42.708,11 L42.708,5.929 L43.544,5.929 Z M43.126,3.96 C43.423,3.96 43.654,4.202 43.654,4.51 C43.654,4.807 43.423,5.038 43.126,5.038 C42.818,5.038 42.587,4.807 42.587,4.499 C42.587,4.191 42.818,3.96 43.126,3.96 Z M46.844,9.163 L45.491,11 L44.468,11 L46.338,8.481 L44.435,5.929 L45.491,5.929 L46.844,7.788 L48.23,5.929 L49.253,5.929 L47.339,8.481 L49.165,11 L48.142,11 L46.844,9.163 Z M54.841,8.734 L50.617,8.734 C50.661,9.163 50.738,9.383 50.947,9.658 C51.277,10.109 51.761,10.351 52.311,10.351 C52.938,10.351 53.532,10.01 53.829,9.482 L54.566,9.757 C54.148,10.604 53.279,11.121 52.311,11.121 C50.804,11.121 49.726,10.021 49.726,8.481 C49.726,6.919 50.793,5.808 52.278,5.808 C53.752,5.808 54.852,6.919 54.852,8.404 C54.852,8.47 54.852,8.613 54.841,8.734 Z M50.628,8.118 L53.961,8.118 C53.928,7.722 53.851,7.502 53.675,7.249 C53.356,6.82 52.839,6.556 52.278,6.556 C51.717,6.556 51.211,6.82 50.914,7.26 C50.76,7.502 50.694,7.711 50.628,8.118 Z M59.857,6.699 L59.857,3.663 L60.693,3.663 L60.693,11 L59.857,11 L59.857,10.131 C59.351,10.824 58.812,11.121 58.042,11.121 C56.645,11.121 55.655,10.032 55.655,8.492 C55.655,6.952 56.667,5.808 58.042,5.808 C58.79,5.808 59.362,6.083 59.857,6.699 Z M58.218,6.556 C57.217,6.556 56.535,7.348 56.535,8.503 C56.535,9.614 57.206,10.395 58.163,10.395 C59.142,10.395 59.857,9.581 59.857,8.481 C59.857,7.337 59.186,6.556 58.218,6.556 Z M61.925,3.971 L62.475,3.443 C63.784,5.049 64.367,6.589 64.367,8.437 C64.367,10.34 63.674,12.188 62.453,13.574 L61.925,13.024 C63.036,11.649 63.586,10.12 63.586,8.47 C63.586,6.853 63.003,5.269 61.925,3.971 Z"/>
    </g>
  </g>
</svg>
