<svg xmlns="http://www.w3.org/2000/svg" xmlns:xlink="http://www.w3.org/1999/xlink" width="580" height="180" viewBox="0 0 580 180">
  <defs>
    <rect id="4-a" width="329" height="41"/>
    <mask id="4-c" width="329" height="41" x="0" y="0" fill="#fff">
      <use xlink:href="#4-a"/>
    </mask>
    <rect id="4-b" width="158" height="44"/>
    <mask id="4-d" width="158" height="44" x="0" y="0" fill="#fff">
      <use xlink:href="#4-b"/>
    </mask>
  </defs>
  <g fill="none" fill-rule="evenodd">
    <rect width="580" height="180" fill="#FFF" fill-opacity=".01" fill-rule="nonzero"/>
    <g transform="translate(303 151)">
      <path fill="#C41261" d="M21.476,6.765 L21.476,5.929 L22.312,5.929 L22.312,11 L21.476,11 L21.476,10.021 C20.97,10.78 20.398,11.121 19.628,11.121 C18.231,11.121 17.241,10.021 17.241,8.481 C17.241,6.93 18.253,5.808 19.65,5.808 C20.42,5.808 20.981,6.105 21.476,6.765 Z M19.771,6.556 C19.221,6.556 18.836,6.743 18.539,7.161 C18.275,7.524 18.121,8.008 18.121,8.503 C18.121,9.581 18.825,10.395 19.749,10.395 C20.706,10.395 21.487,9.504 21.487,8.415 C21.487,7.315 20.783,6.556 19.771,6.556 Z M23.995,5.929 L24.831,5.929 L24.831,6.644 C25.271,6.05 25.711,5.808 26.338,5.808 C26.8,5.808 27.218,5.962 27.515,6.226 C27.834,6.534 27.944,6.886 27.944,7.579 L27.944,11 L27.108,11 L27.108,7.766 C27.108,7.315 27.053,7.073 26.921,6.897 C26.767,6.688 26.47,6.556 26.129,6.556 C25.755,6.556 25.414,6.699 25.161,6.985 C24.919,7.249 24.831,7.491 24.831,7.909 L24.831,11 L23.995,11 L23.995,5.929 Z M33.026,9.801 L33.543,10.373 C32.971,10.89 32.41,11.121 31.673,11.121 C30.221,11.121 29.187,10.021 29.187,8.481 C29.187,6.908 30.232,5.808 31.717,5.808 C32.443,5.808 33.037,6.05 33.565,6.567 L33.026,7.106 C32.641,6.754 32.212,6.578 31.739,6.578 C30.738,6.578 30.045,7.348 30.045,8.448 C30.045,9.57 30.738,10.351 31.728,10.351 C32.223,10.351 32.619,10.186 33.026,9.801 Z M35.457,3.663 L35.457,6.633 C35.919,6.061 36.381,5.808 36.986,5.808 C37.426,5.808 37.888,5.984 38.163,6.27 C38.438,6.545 38.559,6.941 38.559,7.59 L38.559,11 L37.723,11 L37.723,7.634 C37.723,6.941 37.382,6.556 36.777,6.556 C36.392,6.556 36.051,6.71 35.787,7.007 C35.534,7.293 35.457,7.546 35.457,8.03 L35.457,11 L34.621,11 L34.621,3.663 L35.457,3.663 Z M42.398,5.808 C43.894,5.808 44.961,6.919 44.961,8.481 C44.961,9.966 43.817,11.121 42.365,11.121 C40.858,11.121 39.802,10.021 39.802,8.459 C39.802,6.886 40.858,5.808 42.398,5.808 Z M42.398,6.578 C41.353,6.578 40.66,7.337 40.66,8.47 C40.66,9.592 41.353,10.351 42.387,10.351 C43.388,10.351 44.103,9.57 44.103,8.47 C44.103,7.337 43.421,6.578 42.398,6.578 Z M46.237,5.929 L47.073,5.929 L47.073,6.787 C47.227,6.424 47.337,6.27 47.535,6.116 C47.788,5.918 48.14,5.808 48.503,5.808 L48.701,5.808 L48.701,6.655 C48.613,6.644 48.525,6.644 48.47,6.644 C48.019,6.644 47.623,6.853 47.37,7.227 C47.15,7.546 47.073,7.843 47.073,8.426 L47.073,11 L46.237,11 L46.237,5.929 Z M53.871,10.131 L53.871,11 L53.035,11 L53.035,3.663 L53.871,3.663 L53.871,6.798 C54.377,6.105 54.916,5.808 55.653,5.808 C57.072,5.808 58.062,6.908 58.062,8.481 C58.062,10.032 57.083,11.121 55.697,11.121 C54.916,11.121 54.366,10.824 53.871,10.131 Z M55.543,6.556 C54.575,6.556 53.86,7.359 53.86,8.47 C53.86,9.625 54.52,10.395 55.51,10.395 C56.511,10.395 57.182,9.636 57.182,8.503 C57.182,7.37 56.5,6.556 55.543,6.556 Z M62.286,5.929 L63.133,5.929 L63.133,9.174 C63.133,9.867 63.001,10.252 62.627,10.593 C62.253,10.934 61.736,11.121 61.164,11.121 C60.592,11.121 60.064,10.923 59.701,10.582 C59.36,10.252 59.195,9.79 59.195,9.174 L59.195,5.929 L60.031,5.929 L60.031,9.152 C60.031,9.867 60.493,10.373 61.164,10.373 C61.516,10.373 61.857,10.23 62.066,9.988 C62.231,9.79 62.286,9.581 62.286,9.174 L62.286,5.929 Z M65.564,6.666 L65.564,9.966 C65.575,10.219 65.641,10.274 65.949,10.274 L66.334,10.274 L66.334,11 L65.553,11 C64.959,10.989 64.728,10.769 64.728,10.208 L64.728,6.666 L64.024,6.666 L64.024,5.929 L64.728,5.929 L64.728,4.334 L65.564,4.334 L65.564,5.929 L66.334,5.929 L66.334,6.666 L65.564,6.666 Z M68.413,6.666 L68.413,9.966 C68.424,10.219 68.49,10.274 68.798,10.274 L69.183,10.274 L69.183,11 L68.402,11 C67.808,10.989 67.577,10.769 67.577,10.208 L67.577,6.666 L66.873,6.666 L66.873,5.929 L67.577,5.929 L67.577,4.334 L68.413,4.334 L68.413,5.929 L69.183,5.929 L69.183,6.666 L68.413,6.666 Z M72.56,5.808 C74.056,5.808 75.123,6.919 75.123,8.481 C75.123,9.966 73.979,11.121 72.527,11.121 C71.02,11.121 69.964,10.021 69.964,8.459 C69.964,6.886 71.02,5.808 72.56,5.808 Z M72.56,6.578 C71.515,6.578 70.822,7.337 70.822,8.47 C70.822,9.592 71.515,10.351 72.549,10.351 C73.55,10.351 74.265,9.57 74.265,8.47 C74.265,7.337 73.583,6.578 72.56,6.578 Z M76.399,5.929 L77.235,5.929 L77.235,6.644 C77.675,6.05 78.115,5.808 78.742,5.808 C79.204,5.808 79.622,5.962 79.919,6.226 C80.238,6.534 80.348,6.886 80.348,7.579 L80.348,11 L79.512,11 L79.512,7.766 C79.512,7.315 79.457,7.073 79.325,6.897 C79.171,6.688 78.874,6.556 78.533,6.556 C78.159,6.556 77.818,6.699 77.565,6.985 C77.323,7.249 77.235,7.491 77.235,7.909 L77.235,11 L76.399,11 L76.399,5.929 Z M86.189,6.666 L86.189,9.966 C86.2,10.219 86.266,10.274 86.574,10.274 L86.959,10.274 L86.959,11 L86.178,11 C85.584,10.989 85.353,10.769 85.353,10.208 L85.353,6.666 L84.649,6.666 L84.649,5.929 L85.353,5.929 L85.353,4.334 L86.189,4.334 L86.189,5.929 L86.959,5.929 L86.959,6.666 L86.189,6.666 Z M90.336,5.808 C91.832,5.808 92.899,6.919 92.899,8.481 C92.899,9.966 91.755,11.121 90.303,11.121 C88.796,11.121 87.74,10.021 87.74,8.459 C87.74,6.886 88.796,5.808 90.336,5.808 Z M90.336,6.578 C89.291,6.578 88.598,7.337 88.598,8.47 C88.598,9.592 89.291,10.351 90.325,10.351 C91.326,10.351 92.041,9.57 92.041,8.47 C92.041,7.337 91.359,6.578 90.336,6.578 Z M98.311,10.131 L98.311,11 L97.475,11 L97.475,3.663 L98.311,3.663 L98.311,6.798 C98.817,6.105 99.356,5.808 100.093,5.808 C101.512,5.808 102.502,6.908 102.502,8.481 C102.502,10.032 101.523,11.121 100.137,11.121 C99.356,11.121 98.806,10.824 98.311,10.131 Z M99.983,6.556 C99.015,6.556 98.3,7.359 98.3,8.47 C98.3,9.625 98.96,10.395 99.95,10.395 C100.951,10.395 101.622,9.636 101.622,8.503 C101.622,7.37 100.94,6.556 99.983,6.556 Z M105.967,5.808 C107.463,5.808 108.53,6.919 108.53,8.481 C108.53,9.966 107.386,11.121 105.934,11.121 C104.427,11.121 103.371,10.021 103.371,8.459 C103.371,6.886 104.427,5.808 105.967,5.808 Z M105.967,6.578 C104.922,6.578 104.229,7.337 104.229,8.47 C104.229,9.592 104.922,10.351 105.956,10.351 C106.957,10.351 107.672,9.57 107.672,8.47 C107.672,7.337 106.99,6.578 105.967,6.578 Z M110.697,6.666 L110.697,9.966 C110.708,10.219 110.774,10.274 111.082,10.274 L111.467,10.274 L111.467,11 L110.686,11 C110.092,10.989 109.861,10.769 109.861,10.208 L109.861,6.666 L109.157,6.666 L109.157,5.929 L109.861,5.929 L109.861,4.334 L110.697,4.334 L110.697,5.929 L111.467,5.929 L111.467,6.666 L110.697,6.666 Z M113.546,6.666 L113.546,9.966 C113.557,10.219 113.623,10.274 113.931,10.274 L114.316,10.274 L114.316,11 L113.535,11 C112.941,10.989 112.71,10.769 112.71,10.208 L112.71,6.666 L112.006,6.666 L112.006,5.929 L112.71,5.929 L112.71,4.334 L113.546,4.334 L113.546,5.929 L114.316,5.929 L114.316,6.666 L113.546,6.666 Z M117.693,5.808 C119.189,5.808 120.256,6.919 120.256,8.481 C120.256,9.966 119.112,11.121 117.66,11.121 C116.153,11.121 115.097,10.021 115.097,8.459 C115.097,6.886 116.153,5.808 117.693,5.808 Z M117.693,6.578 C116.648,6.578 115.955,7.337 115.955,8.47 C115.955,9.592 116.648,10.351 117.682,10.351 C118.683,10.351 119.398,9.57 119.398,8.47 C119.398,7.337 118.716,6.578 117.693,6.578 Z M121.532,5.929 L122.368,5.929 L122.368,6.633 C122.753,6.05 123.182,5.808 123.809,5.808 C124.502,5.808 124.942,6.105 125.173,6.732 C125.547,6.083 126.02,5.808 126.779,5.808 C127.362,5.808 127.802,5.995 128.066,6.347 C128.308,6.666 128.374,6.952 128.374,7.755 L128.374,11 L127.538,11 L127.538,7.953 C127.538,7.337 127.516,7.194 127.395,6.985 C127.241,6.721 126.911,6.556 126.515,6.556 C125.778,6.556 125.371,7.051 125.371,7.953 L125.371,11 L124.535,11 L124.535,7.964 C124.535,7.469 124.491,7.216 124.37,6.996 C124.227,6.71 123.919,6.556 123.545,6.556 C122.808,6.556 122.368,7.084 122.368,7.964 L122.368,11 L121.532,11 L121.532,5.929 Z"/>
      <g transform="translate(0 6.28)">
        <polyline stroke="#979797" stroke-linecap="round" stroke-linejoin="round" points=".48 4.72 6 0 6 0 11.52 4.72" transform="rotate(180 6 2.36)"/>
        <path stroke="#C41261" d="M11.76,6.47 L0.24,6.47"/>
      </g>
    </g>
    <g fill="#C41261" transform="translate(66 20)">
      <g transform="translate(32 18)">
        <rect width="1" height="104" x="4" y="1"/>
        <rect width="9" height="1"/>
        <rect width="9" height="1" y="105"/>
      </g>
      <path d="M2.736,7.755 L2.736,11 L1.812,11 L1.812,3.663 L2.736,3.663 L2.736,6.963 L6.311,6.963 L6.311,3.663 L7.235,3.663 L7.235,11 L6.311,11 L6.311,7.755 L2.736,7.755 Z M9.413,9.944 C9.743,9.944 9.985,10.186 9.985,10.527 C9.985,10.846 9.732,11.088 9.413,11.088 C9.083,11.088 8.841,10.846 8.841,10.516 C8.841,10.186 9.083,9.944 9.413,9.944 Z M9.413,6.776 C9.743,6.776 9.985,7.018 9.985,7.359 C9.985,7.678 9.732,7.92 9.413,7.92 C9.083,7.92 8.841,7.678 8.841,7.348 C8.841,7.018 9.083,6.776 9.413,6.776 Z M13.527,4.994 L11.91,6.072 L11.91,5.236 L14.396,3.608 L14.396,11 L13.527,11 L13.527,4.994 Z M21.117,5.874 L21.117,8.789 C21.117,9.614 20.963,10.12 20.6,10.505 C20.215,10.912 19.632,11.121 18.939,11.121 C18.224,11.121 17.63,10.901 17.245,10.483 C16.86,10.076 16.761,9.658 16.761,8.547 L16.761,6.127 C16.761,5.17 16.871,4.719 17.201,4.323 C17.564,3.883 18.169,3.641 18.917,3.641 C19.588,3.641 20.138,3.828 20.545,4.191 C20.963,4.576 21.117,5.016 21.117,5.874 Z M17.63,6.149 L17.63,8.602 C17.63,9.449 17.663,9.603 17.905,9.878 C18.136,10.142 18.532,10.307 18.95,10.307 C19.401,10.307 19.819,10.12 20.028,9.823 C20.193,9.581 20.259,9.273 20.259,8.734 L20.259,5.929 C20.259,5.357 20.16,5.071 19.885,4.807 C19.643,4.587 19.313,4.466 18.95,4.466 C18.477,4.466 18.07,4.653 17.861,4.994 C17.674,5.258 17.63,5.511 17.63,6.149 Z M25.781,3.773 L23.9,6.71 C24.208,6.6 24.351,6.567 24.615,6.567 C25.836,6.567 26.782,7.524 26.782,8.767 C26.782,10.065 25.715,11.132 24.417,11.132 C23.108,11.132 22.096,10.098 22.096,8.767 C22.096,8.228 22.239,7.821 22.657,7.15 L24.758,3.773 L25.781,3.773 Z M24.461,7.315 C23.625,7.315 22.965,7.953 22.965,8.767 C22.965,9.625 23.614,10.307 24.439,10.307 C25.264,10.307 25.924,9.636 25.924,8.8 C25.924,7.975 25.275,7.315 24.461,7.315 Z M28.025,5.929 L28.861,5.929 L28.861,6.853 C29.345,6.105 29.862,5.808 30.709,5.808 C32.117,5.808 33.096,6.886 33.096,8.426 C33.096,10.021 32.117,11.121 30.709,11.121 C30.313,11.121 29.95,11.033 29.598,10.857 C29.29,10.703 29.136,10.571 28.861,10.208 L28.861,13.376 L28.025,13.376 L28.025,5.929 Z M30.566,6.556 C29.554,6.556 28.861,7.359 28.861,8.547 C28.861,9.658 29.532,10.395 30.533,10.395 C31.534,10.395 32.205,9.614 32.205,8.459 C32.205,7.865 32.062,7.414 31.765,7.084 C31.468,6.754 31.017,6.556 30.566,6.556 Z M35.978,9.163 L34.625,11 L33.602,11 L35.472,8.481 L33.569,5.929 L34.625,5.929 L35.978,7.788 L37.364,5.929 L38.387,5.929 L36.473,8.481 L38.299,11 L37.276,11 L35.978,9.163 Z M44.646,13.046 L44.096,13.574 C42.798,11.979 42.204,10.428 42.204,8.58 C42.204,6.688 42.897,4.818 44.118,3.443 L44.646,3.993 C43.535,5.368 42.985,6.897 42.985,8.547 C42.985,10.153 43.579,11.759 44.646,13.046 Z M46.802,6.666 L46.802,11 L45.966,11 L45.966,6.666 L45.273,6.666 L45.273,5.929 L45.966,5.929 L45.966,5.247 C45.966,4.246 46.483,3.652 47.363,3.652 C47.407,3.652 47.506,3.652 47.594,3.663 L47.594,4.411 C46.989,4.477 46.824,4.653 46.802,5.247 L46.802,5.929 L47.594,5.929 L47.594,6.666 L46.802,6.666 Z M49.794,5.929 L49.794,11 L48.958,11 L48.958,5.929 L49.794,5.929 Z M49.376,3.96 C49.673,3.96 49.904,4.202 49.904,4.51 C49.904,4.807 49.673,5.038 49.376,5.038 C49.068,5.038 48.837,4.807 48.837,4.499 C48.837,4.191 49.068,3.96 49.376,3.96 Z M53.094,9.163 L51.741,11 L50.718,11 L52.588,8.481 L50.685,5.929 L51.741,5.929 L53.094,7.788 L54.48,5.929 L55.503,5.929 L53.589,8.481 L55.415,11 L54.392,11 L53.094,9.163 Z M61.091,8.734 L56.867,8.734 C56.911,9.163 56.988,9.383 57.197,9.658 C57.527,10.109 58.011,10.351 58.561,10.351 C59.188,10.351 59.782,10.01 60.079,9.482 L60.816,9.757 C60.398,10.604 59.529,11.121 58.561,11.121 C57.054,11.121 55.976,10.021 55.976,8.481 C55.976,6.919 57.043,5.808 58.528,5.808 C60.002,5.808 61.102,6.919 61.102,8.404 C61.102,8.47 61.102,8.613 61.091,8.734 Z M56.878,8.118 L60.211,8.118 C60.178,7.722 60.101,7.502 59.925,7.249 C59.606,6.82 59.089,6.556 58.528,6.556 C57.967,6.556 57.461,6.82 57.164,7.26 C57.01,7.502 56.944,7.711 56.878,8.118 Z M66.107,6.699 L66.107,3.663 L66.943,3.663 L66.943,11 L66.107,11 L66.107,10.131 C65.601,10.824 65.062,11.121 64.292,11.121 C62.895,11.121 61.905,10.032 61.905,8.492 C61.905,6.952 62.917,5.808 64.292,5.808 C65.04,5.808 65.612,6.083 66.107,6.699 Z M64.468,6.556 C63.467,6.556 62.785,7.348 62.785,8.503 C62.785,9.614 63.456,10.395 64.413,10.395 C65.392,10.395 66.107,9.581 66.107,8.481 C66.107,7.337 65.436,6.556 64.468,6.556 Z M68.175,3.971 L68.725,3.443 C70.034,5.049 70.617,6.589 70.617,8.437 C70.617,10.34 69.924,12.188 68.703,13.574 L68.175,13.024 C69.286,11.649 69.836,10.12 69.836,8.47 C69.836,6.853 69.253,5.269 68.175,3.971 Z"/>
    </g>
    <g transform="translate(110 37)">
      <rect width="359" height="106" fill="#F7F7F7" rx="14"/>
      <rect width="359" height="106" fill="#25333D" rx="14"/>
      <rect width="158" height="44" x="193" y="62"/>
      <path fill="#89CBDF" d="M210.561641,88.2900391 L210.561641,90 L203.090937,90 L203.090937,78.0219727 L204.950312,78.0219727 L204.950312,88.2900391 L210.561641,88.2900391 Z M215.696562,90.1743164 C213.048613,90.1743164 211.429961,88.40625 211.429961,85.4760742 C211.429961,82.5625 213.056914,80.7861328 215.696562,80.7861328 C218.32791,80.7861328 219.954863,82.5625 219.954863,85.4760742 C219.954863,88.40625 218.336211,90.1743164 215.696562,90.1743164 Z M215.696562,88.5888672 C217.240508,88.5888672 218.120391,87.4433594 218.120391,85.4760742 C218.120391,83.5170898 217.240508,82.371582 215.696562,82.371582 C214.144316,82.371582 213.272734,83.5170898 213.272734,85.4760742 C213.272734,87.4516602 214.144316,88.5888672 215.696562,88.5888672 Z M221.686465,90 L221.686465,80.9604492 L223.404727,80.9604492 L223.404727,82.3964844 L223.537539,82.3964844 C223.97748,81.3920898 224.873965,80.7861328 226.235293,80.7861328 C228.252383,80.7861328 229.364687,81.9980469 229.364687,84.1479492 L229.364687,90 L227.580019,90 L227.580019,84.5961914 C227.580019,83.1435547 226.94916,82.4213867 225.629336,82.4213867 C224.309512,82.4213867 223.471133,83.3012695 223.471133,84.7124023 L223.471133,90 L221.686465,90 Z M235.24668,88.3232422 C236.774023,88.3232422 237.69541,87.1777344 237.69541,85.3681641 C237.69541,83.5668945 236.765723,82.4130859 235.24668,82.4130859 C233.711035,82.4130859 232.847754,83.5668945 232.847754,85.3681641 C232.847754,87.1694336 233.711035,88.3232422 235.24668,88.3232422 Z M235.271582,93.453125 C233.013769,93.453125 231.552832,92.4404297 231.361914,90.9047852 L233.188086,90.9047852 C233.3375,91.5605469 234.092871,91.9838867 235.296484,91.9838867 C236.782324,91.9838867 237.662207,91.2783203 237.662207,90.0830078 L237.662207,88.3481445 L237.529394,88.3481445 C236.981543,89.3276367 235.985449,89.8671875 234.740332,89.8671875 C232.432715,89.8671875 231.00498,88.0825195 231.00498,85.3764648 C231.00498,82.6206055 232.449316,80.8110352 234.756934,80.8110352 C236.002051,80.8110352 237.089453,81.425293 237.595801,82.4047852 L237.736914,82.4047852 L237.736914,80.9604492 L239.446875,80.9604492 L239.446875,90.074707 C239.446875,92.1416016 237.828223,93.453125 235.271582,93.453125 Z M245.337168,82.3051758 C244.017344,82.3051758 243.095957,83.2348633 242.996348,84.6459961 L247.561777,84.6459961 C247.520273,83.2265625 246.656992,82.3051758 245.337168,82.3051758 Z M247.553477,87.5595703 L249.271738,87.5595703 C248.865,89.1782227 247.420664,90.1743164 245.353769,90.1743164 C242.763926,90.1743164 241.178477,88.3979492 241.178477,85.5092773 C241.178477,82.6206055 242.797129,80.7861328 245.345469,80.7861328 C247.860605,80.7861328 249.379648,82.5043945 249.379648,85.3432617 L249.379648,85.9658203 L242.996348,85.9658203 L242.996348,86.0654297 C243.054453,87.6508789 243.97584,88.6552734 245.403574,88.6552734 C246.482676,88.6552734 247.221445,88.2651367 247.553477,87.5595703 Z M251.11125,90 L251.11125,80.9604492 L252.829512,80.9604492 L252.829512,82.3466797 L252.962324,82.3466797 C253.219648,81.4584961 254.224043,80.8110352 255.402754,80.8110352 C255.668379,80.8110352 256.008711,80.8359375 256.199629,80.8857422 L256.199629,82.6455078 C256.050215,82.5957031 255.518965,82.5375977 255.203535,82.5375977 C253.850508,82.5375977 252.895918,83.3925781 252.895918,84.6625977 L252.895918,90 L251.11125,90 Z M264.701406,88.6469727 C266.046133,88.6469727 267.042227,87.7919922 267.042227,86.6713867 L267.042227,85.9160156 L264.834219,86.0571289 C263.589102,86.1401367 263.024648,86.5634766 263.024648,87.3603516 C263.024648,88.1738281 263.730215,88.6469727 264.701406,88.6469727 Z M264.244863,90.1494141 C262.501699,90.1494141 261.23168,89.0952148 261.23168,87.4433594 C261.23168,85.8164062 262.443594,84.878418 264.593496,84.7456055 L267.042227,84.6044922 L267.042227,83.8242188 C267.042227,82.8696289 266.411367,82.3300781 265.191152,82.3300781 C264.195059,82.3300781 263.506094,82.6953125 263.306875,83.3344727 L261.580312,83.3344727 C261.76293,81.7822266 263.223867,80.7861328 265.27416,80.7861328 C267.540273,80.7861328 268.818594,81.9150391 268.818594,83.8242188 L268.818594,90 L267.100332,90 L267.100332,88.7299805 L266.959219,88.7299805 C266.419668,89.6347656 265.431875,90.1494141 264.244863,90.1494141 Z M278.601953,83.9155273 L276.86709,83.9155273 C276.65957,83.0356445 275.929102,82.3798828 274.733789,82.3798828 C273.239648,82.3798828 272.326562,83.5253906 272.326562,85.4511719 C272.326562,87.4101562 273.247949,88.5805664 274.733789,88.5805664 C275.862695,88.5805664 276.634668,88.065918 276.86709,87.0947266 L278.601953,87.0947266 C278.369531,88.9125977 276.975,90.1743164 274.74209,90.1743164 C272.110742,90.1743164 270.500391,88.3979492 270.500391,85.4511719 C270.500391,82.5541992 272.102441,80.7861328 274.733789,80.7861328 C276.999902,80.7861328 278.369531,82.105957 278.601953,83.9155273 Z M280.989316,78.7109375 L282.773984,78.7109375 L282.773984,81.0019531 L284.732969,81.0019531 L284.732969,82.5043945 L282.773984,82.5043945 L282.773984,87.152832 C282.773984,88.0991211 283.164121,88.5141602 284.052305,88.5141602 C284.32623,88.5141602 284.483945,88.4975586 284.732969,88.4726562 L284.732969,89.9584961 C284.442441,90.0083008 284.11041,90.0498047 283.761777,90.0498047 C281.777891,90.0498047 280.989316,89.3525391 280.989316,87.609375 L280.989316,82.5043945 L279.553281,82.5043945 L279.553281,81.0019531 L280.989316,81.0019531 L280.989316,78.7109375 Z M286.45627,90 L286.45627,80.9604492 L288.232637,80.9604492 L288.232637,90 L286.45627,90 Z M287.344453,79.375 C286.680391,79.375 286.190645,78.9018555 286.190645,78.2875977 C286.190645,77.6650391 286.680391,77.1918945 287.344453,77.1918945 C288.008516,77.1918945 288.498262,77.6650391 288.498262,78.2875977 C288.498262,78.9018555 288.008516,79.375 287.344453,79.375 Z M294.264043,90.1743164 C291.616094,90.1743164 289.997441,88.40625 289.997441,85.4760742 C289.997441,82.5625 291.624395,80.7861328 294.264043,80.7861328 C296.895391,80.7861328 298.522344,82.5625 298.522344,85.4760742 C298.522344,88.40625 296.903691,90.1743164 294.264043,90.1743164 Z M294.264043,88.5888672 C295.807988,88.5888672 296.687871,87.4433594 296.687871,85.4760742 C296.687871,83.5170898 295.807988,82.371582 294.264043,82.371582 C292.711797,82.371582 291.840215,83.5170898 291.840215,85.4760742 C291.840215,87.4516602 292.711797,88.5888672 294.264043,88.5888672 Z M300.253945,90 L300.253945,80.9604492 L301.972207,80.9604492 L301.972207,82.3964844 L302.10502,82.3964844 C302.544961,81.3920898 303.441445,80.7861328 304.802773,80.7861328 C306.819863,80.7861328 307.932168,81.9980469 307.932168,84.1479492 L307.932168,90 L306.1475,90 L306.1475,84.5961914 C306.1475,83.1435547 305.516641,82.4213867 304.196816,82.4213867 C302.876992,82.4213867 302.038613,83.3012695 302.038613,84.7124023 L302.038613,90 L300.253945,90 Z M314.898301,78.7109375 L316.682969,78.7109375 L316.682969,81.0019531 L318.641953,81.0019531 L318.641953,82.5043945 L316.682969,82.5043945 L316.682969,87.152832 C316.682969,88.0991211 317.073105,88.5141602 317.961289,88.5141602 C318.235215,88.5141602 318.39293,88.4975586 318.641953,88.4726562 L318.641953,89.9584961 C318.351426,90.0083008 318.019395,90.0498047 317.670762,90.0498047 C315.686875,90.0498047 314.898301,89.3525391 314.898301,87.609375 L314.898301,82.5043945 L313.462266,82.5043945 L313.462266,81.0019531 L314.898301,81.0019531 L314.898301,78.7109375 Z M323.942891,82.3051758 C322.623066,82.3051758 321.70168,83.2348633 321.60207,84.6459961 L326.1675,84.6459961 C326.125996,83.2265625 325.262715,82.3051758 323.942891,82.3051758 Z M326.159199,87.5595703 L327.877461,87.5595703 C327.470723,89.1782227 326.026387,90.1743164 323.959492,90.1743164 C321.369648,90.1743164 319.784199,88.3979492 319.784199,85.5092773 C319.784199,82.6206055 321.402852,80.7861328 323.951191,80.7861328 C326.466328,80.7861328 327.985371,82.5043945 327.985371,85.3432617 L327.985371,85.9658203 L321.60207,85.9658203 L321.60207,86.0654297 C321.660176,87.6508789 322.581562,88.6552734 324.009297,88.6552734 C325.088398,88.6552734 325.827168,88.2651367 326.159199,87.5595703 Z M332.746758,86.7958984 L332.613945,86.7958984 L330.638359,90 L328.679375,90 L331.675957,85.5009766 L328.654473,80.9604492 L330.737969,80.9604492 L332.680352,84.1479492 L332.821465,84.1479492 L334.747246,80.9604492 L336.731133,80.9604492 L333.751152,85.4262695 L336.764336,90 L334.714043,90 L332.746758,86.7958984 Z M338.861172,78.7109375 L340.64584,78.7109375 L340.64584,81.0019531 L342.604824,81.0019531 L342.604824,82.5043945 L340.64584,82.5043945 L340.64584,87.152832 C340.64584,88.0991211 341.035977,88.5141602 341.92416,88.5141602 C342.198086,88.5141602 342.355801,88.4975586 342.604824,88.4726562 L342.604824,89.9584961 C342.314297,90.0083008 341.982266,90.0498047 341.633633,90.0498047 C339.649746,90.0498047 338.861172,89.3525391 338.861172,87.609375 L338.861172,82.5043945 L337.425137,82.5043945 L337.425137,81.0019531 L338.861172,81.0019531 L338.861172,78.7109375 Z"/>
      <path fill="#FFF" d="M21.7734375,32 L20.3671875,32 L20.3671875,21.9921875 L16.734375,21.9921875 L16.734375,20.7265625 L25.40625,20.7265625 L25.40625,21.9921875 L21.7734375,21.9921875 L21.7734375,32 Z M36.664375,23.578125 L34.305,32 L32.9378125,32 L31.055,25.484375 L30.93,25.484375 L29.055,32 L27.695625,32 L25.33625,23.578125 L26.695625,23.578125 L28.351875,30.3125 L28.476875,30.3125 L30.3596875,23.578125 L31.64875,23.578125 L33.5315625,30.3125 L33.6565625,30.3125 L35.3128125,23.578125 L36.664375,23.578125 Z M41.2896875,32.1484375 C38.89125,32.1484375 37.406875,30.4921875 37.406875,27.7890625 C37.406875,25.078125 38.89125,23.4296875 41.2896875,23.4296875 C43.688125,23.4296875 45.1725,25.078125 45.1725,27.7890625 C45.1725,30.4921875 43.688125,32.1484375 41.2896875,32.1484375 Z M41.2896875,30.9375 C42.8834375,30.9375 43.781875,29.78125 43.781875,27.7890625 C43.781875,25.7890625 42.8834375,24.640625 41.2896875,24.640625 C39.6959375,24.640625 38.7975,25.7890625 38.7975,27.7890625 C38.7975,29.78125 39.6959375,30.9375 41.2896875,30.9375 Z M51.235625,32 L51.235625,20.234375 L52.579375,20.234375 L52.579375,32 L51.235625,32 Z M54.9,32 L54.9,23.578125 L56.24375,23.578125 L56.24375,32 L54.9,32 Z M55.571875,21.8671875 C55.05625,21.8671875 54.634375,21.4453125 54.634375,20.9296875 C54.634375,20.4140625 55.05625,19.9921875 55.571875,19.9921875 C56.0875,19.9921875 56.509375,20.4140625 56.509375,20.9296875 C56.509375,21.4453125 56.0875,21.8671875 55.571875,21.8671875 Z M58.48625,32 L58.48625,23.578125 L59.7675,23.578125 L59.7675,24.90625 L59.8925,24.90625 C60.314375,23.9765625 61.1346875,23.4296875 62.42375,23.4296875 C64.314375,23.4296875 65.3690625,24.546875 65.3690625,26.546875 L65.3690625,32 L64.0253125,32 L64.0253125,26.875 C64.0253125,25.359375 63.3846875,24.640625 62.0409375,24.640625 C60.6971875,24.640625 59.83,25.5390625 59.83,27.015625 L59.83,32 L58.48625,32 Z M70.8615626,24.6171875 C69.5178126,24.6171875 68.5803126,25.6015625 68.4787501,27.09375 L73.1193751,27.09375 C73.0881251,25.6015625 72.1975001,24.6171875 70.8615626,24.6171875 Z M73.0803126,29.8203125 L74.4240626,29.8203125 C74.0178126,31.265625 72.7209376,32.1484375 70.8771876,32.1484375 C68.5412501,32.1484375 67.0803126,30.4609375 67.0803126,27.796875 C67.0803126,25.1484375 68.5646876,23.4296875 70.8771876,23.4296875 C73.1506251,23.4296875 74.5334376,25.046875 74.5334376,27.6640625 L74.5334376,28.1796875 L68.4787501,28.1796875 L68.4787501,28.2421875 C68.5490626,29.90625 69.4787501,30.9609375 70.9084376,30.9609375 C71.9943751,30.9609375 72.7287501,30.5625 73.0803126,29.8203125 Z M80.5184376,32 L80.5184376,23.578125 L81.7996876,23.578125 L81.7996876,24.90625 L81.9246876,24.90625 C82.3075001,23.96875 83.1512501,23.4296875 84.2762501,23.4296875 C85.4168751,23.4296875 86.2137501,24.03125 86.6043751,24.90625 L86.7293751,24.90625 C87.1825001,24.015625 88.1434376,23.4296875 89.3075001,23.4296875 C91.0262501,23.4296875 91.9871876,24.4140625 91.9871876,26.1796875 L91.9871876,32 L90.6434376,32 L90.6434376,26.4921875 C90.6434376,25.25 90.0575001,24.640625 88.8700001,24.640625 C87.6981251,24.640625 86.9168751,25.515625 86.9168751,26.5859375 L86.9168751,32 L85.5731251,32 L85.5731251,26.28125 C85.5731251,25.28125 84.8778126,24.640625 83.8153126,24.640625 C82.7137501,24.640625 81.8621876,25.59375 81.8621876,26.78125 L81.8621876,32 L80.5184376,32 Z M97.4796876,24.6171875 C96.1359376,24.6171875 95.1984376,25.6015625 95.0968751,27.09375 L99.7375001,27.09375 C99.7062501,25.6015625 98.8156251,24.6171875 97.4796876,24.6171875 Z M99.6984376,29.8203125 L101.042188,29.8203125 C100.635938,31.265625 99.3390626,32.1484375 97.4953126,32.1484375 C95.1593751,32.1484375 93.6984376,30.4609375 93.6984376,27.796875 C93.6984376,25.1484375 95.1828126,23.4296875 97.4953126,23.4296875 C99.7687501,23.4296875 101.151563,25.046875 101.151563,27.6640625 L101.151563,28.1796875 L95.0968751,28.1796875 L95.0968751,28.2421875 C95.1671876,29.90625 96.0968751,30.9609375 97.5265626,30.9609375 C98.6125001,30.9609375 99.3468751,30.5625 99.6984376,29.8203125 Z M102.745625,25.8828125 C102.745625,24.484375 104.097188,23.4296875 105.88625,23.4296875 C107.651875,23.4296875 108.878438,24.3046875 109.058125,25.6875 L107.73,25.6875 C107.550313,25.015625 106.894063,24.5703125 105.878438,24.5703125 C104.878438,24.5703125 104.097188,25.078125 104.097188,25.828125 C104.097188,26.40625 104.565938,26.765625 105.558125,27.0078125 L106.855,27.3203125 C108.440938,27.703125 109.206563,28.390625 109.206563,29.6015625 C109.206563,31.109375 107.745625,32.1484375 105.831563,32.1484375 C103.956563,32.1484375 102.6675,31.25 102.519063,29.8515625 L103.901875,29.8515625 C104.128438,30.5625 104.800313,31.015625 105.878438,31.015625 C107.01125,31.015625 107.82375,30.4765625 107.82375,29.703125 C107.82375,29.125 107.38625,28.734375 106.487813,28.515625 L105.0425,28.1640625 C103.464375,27.78125 102.745625,27.1015625 102.745625,25.8828125 Z M110.644375,25.8828125 C110.644375,24.484375 111.995938,23.4296875 113.785,23.4296875 C115.550625,23.4296875 116.777188,24.3046875 116.956875,25.6875 L115.62875,25.6875 C115.449063,25.015625 114.792813,24.5703125 113.777188,24.5703125 C112.777188,24.5703125 111.995938,25.078125 111.995938,25.828125 C111.995938,26.40625 112.464688,26.765625 113.456875,27.0078125 L114.75375,27.3203125 C116.339688,27.703125 117.105313,28.390625 117.105313,29.6015625 C117.105313,31.109375 115.644375,32.1484375 113.730313,32.1484375 C111.855313,32.1484375 110.56625,31.25 110.417813,29.8515625 L111.800625,29.8515625 C112.027188,30.5625 112.699063,31.015625 113.777188,31.015625 C114.91,31.015625 115.7225,30.4765625 115.7225,29.703125 C115.7225,29.125 115.285,28.734375 114.386563,28.515625 L112.94125,28.1640625 C111.363125,27.78125 110.644375,27.1015625 110.644375,25.8828125 Z M121.488438,30.96875 C122.87125,30.96875 123.894688,30.0625 123.894688,28.859375 L123.894688,28.0859375 L121.629063,28.234375 C120.347813,28.3203125 119.785313,28.765625 119.785313,29.609375 C119.785313,30.46875 120.511875,30.96875 121.488438,30.96875 Z M121.238438,32.1484375 C119.605625,32.1484375 118.394688,31.1796875 118.394688,29.640625 C118.394688,28.1328125 119.504063,27.265625 121.465,27.1484375 L123.894688,27 L123.894688,26.234375 C123.894688,25.1953125 123.24625,24.625 121.988438,24.625 C120.980625,24.625 120.2775,25.0078125 120.09,25.671875 L118.730625,25.671875 C118.910313,24.3203125 120.238438,23.4296875 122.035313,23.4296875 C124.09,23.4296875 125.238438,24.484375 125.238438,26.234375 L125.238438,32 L123.957188,32 L123.957188,30.7578125 L123.832188,30.7578125 C123.285313,31.65625 122.363438,32.1484375 121.238438,32.1484375 Z M130.809063,30.6875 C132.371563,30.6875 133.309063,29.5 133.309063,27.6640625 C133.309063,25.828125 132.36375,24.640625 130.809063,24.640625 C129.246563,24.640625 128.371563,25.828125 128.371563,27.6640625 C128.371563,29.5 129.246563,30.6875 130.809063,30.6875 Z M130.871563,35.234375 C128.840313,35.234375 127.543438,34.3203125 127.340313,32.9296875 L128.762188,32.9296875 C128.910625,33.6171875 129.660625,34.0625 130.871563,34.0625 C132.379375,34.0625 133.277813,33.3203125 133.277813,32.078125 L133.277813,30.421875 L133.152813,30.421875 C132.621563,31.3515625 131.668438,31.875 130.512188,31.875 C128.3325,31.875 126.980938,30.1875 126.980938,27.6640625 C126.980938,25.140625 128.348125,23.4296875 130.512188,23.4296875 C131.691875,23.4296875 132.730938,24.0078125 133.215313,24.9140625 L133.340313,24.9140625 L133.340313,23.578125 L134.621563,23.578125 L134.621563,32.1484375 C134.621563,34.03125 133.168438,35.234375 130.871563,35.234375 Z M140.192188,24.6171875 C138.848438,24.6171875 137.910938,25.6015625 137.809375,27.09375 L142.45,27.09375 C142.41875,25.6015625 141.528125,24.6171875 140.192188,24.6171875 Z M142.410938,29.8203125 L143.754688,29.8203125 C143.348438,31.265625 142.051563,32.1484375 140.207813,32.1484375 C137.871875,32.1484375 136.410938,30.4609375 136.410938,27.796875 C136.410938,25.1484375 137.895313,23.4296875 140.207813,23.4296875 C142.48125,23.4296875 143.864063,25.046875 143.864063,27.6640625 L143.864063,28.1796875 L137.809375,28.1796875 L137.809375,28.2421875 C137.879688,29.90625 138.809375,30.9609375 140.239063,30.9609375 C141.325,30.9609375 142.059375,30.5625 142.410938,29.8203125 Z M160.442813,23.578125 L158.083438,32 L156.71625,32 L154.833438,25.484375 L154.708438,25.484375 L152.833438,32 L151.474063,32 L149.114688,23.578125 L150.474063,23.578125 L152.130313,30.3125 L152.255313,30.3125 L154.138125,23.578125 L155.427188,23.578125 L157.31,30.3125 L157.435,30.3125 L159.09125,23.578125 L160.442813,23.578125 Z M161.950938,32 L161.950938,23.578125 L163.294688,23.578125 L163.294688,32 L161.950938,32 Z M162.622813,21.8671875 C162.107188,21.8671875 161.685313,21.4453125 161.685313,20.9296875 C161.685313,20.4140625 162.107188,19.9921875 162.622813,19.9921875 C163.138438,19.9921875 163.560313,20.4140625 163.560313,20.9296875 C163.560313,21.4453125 163.138438,21.8671875 162.622813,21.8671875 Z M166.099688,21.3984375 L167.443438,21.3984375 L167.443438,23.578125 L169.318438,23.578125 L169.318438,24.703125 L167.443438,24.703125 L167.443438,29.46875 C167.443438,30.4609375 167.818438,30.8828125 168.693438,30.8828125 C168.935625,30.8828125 169.068438,30.875 169.318438,30.8515625 L169.318438,31.984375 C169.052813,32.03125 168.795,32.0625 168.529375,32.0625 C166.795,32.0625 166.099688,31.421875 166.099688,29.8125 L166.099688,24.703125 L164.740313,24.703125 L164.740313,23.578125 L166.099688,23.578125 L166.099688,21.3984375 Z M171.107813,32 L171.107813,20.234375 L172.451563,20.234375 L172.451563,24.90625 L172.576563,24.90625 C172.998438,23.9765625 173.88125,23.4296875 175.170313,23.4296875 C176.951563,23.4296875 178.076563,24.5703125 178.076563,26.546875 L178.076563,32 L176.732813,32 L176.732813,26.875 C176.732813,25.3828125 176.060938,24.640625 174.7875,24.640625 C173.279688,24.640625 172.451563,25.59375 172.451563,27.015625 L172.451563,32 L171.107813,32 Z M184.483438,32 L184.483438,20.234375 L185.827188,20.234375 L185.827188,32 L184.483438,32 Z M191.5775,32.1484375 C189.179063,32.1484375 187.694688,30.4921875 187.694688,27.7890625 C187.694688,25.078125 189.179063,23.4296875 191.5775,23.4296875 C193.975938,23.4296875 195.460313,25.078125 195.460313,27.7890625 C195.460313,30.4921875 193.975938,32.1484375 191.5775,32.1484375 Z M191.5775,30.9375 C193.17125,30.9375 194.069688,29.78125 194.069688,27.7890625 C194.069688,25.7890625 193.17125,24.640625 191.5775,24.640625 C189.98375,24.640625 189.085313,25.7890625 189.085313,27.7890625 C189.085313,29.78125 189.98375,30.9375 191.5775,30.9375 Z M197.249688,32 L197.249688,23.578125 L198.530938,23.578125 L198.530938,24.90625 L198.655938,24.90625 C199.077813,23.9765625 199.898125,23.4296875 201.187188,23.4296875 C203.077813,23.4296875 204.1325,24.546875 204.1325,26.546875 L204.1325,32 L202.78875,32 L202.78875,26.875 C202.78875,25.359375 202.148125,24.640625 200.804375,24.640625 C199.460625,24.640625 198.593438,25.5390625 198.593438,27.015625 L198.593438,32 L197.249688,32 Z M209.671875,30.6875 C211.234375,30.6875 212.171875,29.5 212.171875,27.6640625 C212.171875,25.828125 211.226563,24.640625 209.671875,24.640625 C208.109375,24.640625 207.234375,25.828125 207.234375,27.6640625 C207.234375,29.5 208.109375,30.6875 209.671875,30.6875 Z M209.734375,35.234375 C207.703125,35.234375 206.40625,34.3203125 206.203125,32.9296875 L207.625,32.9296875 C207.773438,33.6171875 208.523438,34.0625 209.734375,34.0625 C211.242188,34.0625 212.140625,33.3203125 212.140625,32.078125 L212.140625,30.421875 L212.015625,30.421875 C211.484375,31.3515625 210.53125,31.875 209.375,31.875 C207.195313,31.875 205.84375,30.1875 205.84375,27.6640625 C205.84375,25.140625 207.210938,23.4296875 209.375,23.4296875 C210.554688,23.4296875 211.59375,24.0078125 212.078125,24.9140625 L212.203125,24.9140625 L212.203125,23.578125 L213.484375,23.578125 L213.484375,32.1484375 C213.484375,34.03125 212.03125,35.234375 209.734375,35.234375 Z M219.055,24.6171875 C217.71125,24.6171875 216.77375,25.6015625 216.672188,27.09375 L221.312813,27.09375 C221.281563,25.6015625 220.390938,24.6171875 219.055,24.6171875 Z M221.27375,29.8203125 L222.6175,29.8203125 C222.21125,31.265625 220.914375,32.1484375 219.070625,32.1484375 C216.734688,32.1484375 215.27375,30.4609375 215.27375,27.796875 C215.27375,25.1484375 216.758125,23.4296875 219.070625,23.4296875 C221.344063,23.4296875 222.726875,25.046875 222.726875,27.6640625 L222.726875,28.1796875 L216.672188,28.1796875 L216.672188,28.2421875 C216.7425,29.90625 217.672188,30.9609375 219.101875,30.9609375 C220.187813,30.9609375 220.922188,30.5625 221.27375,29.8203125 Z M224.51625,32 L224.51625,23.578125 L225.7975,23.578125 L225.7975,24.828125 L225.9225,24.828125 C226.1725,24.0078125 227.14125,23.4296875 228.258438,23.4296875 C228.477188,23.4296875 228.758438,23.4453125 228.930313,23.46875 L228.930313,24.8125 C228.820938,24.78125 228.336563,24.734375 228.070938,24.734375 C226.789688,24.734375 225.86,25.59375 225.86,26.78125 L225.86,32 L224.51625,32 Z M237.079375,30.96875 C238.462188,30.96875 239.485625,30.0625 239.485625,28.859375 L239.485625,28.0859375 L237.22,28.234375 C235.93875,28.3203125 235.37625,28.765625 235.37625,29.609375 C235.37625,30.46875 236.102813,30.96875 237.079375,30.96875 Z M236.829375,32.1484375 C235.196563,32.1484375 233.985625,31.1796875 233.985625,29.640625 C233.985625,28.1328125 235.095,27.265625 237.055938,27.1484375 L239.485625,27 L239.485625,26.234375 C239.485625,25.1953125 238.837188,24.625 237.579375,24.625 C236.571563,24.625 235.868438,25.0078125 235.680938,25.671875 L234.321563,25.671875 C234.50125,24.3203125 235.829375,23.4296875 237.62625,23.4296875 C239.680938,23.4296875 240.829375,24.484375 240.829375,26.234375 L240.829375,32 L239.548125,32 L239.548125,30.7578125 L239.423125,30.7578125 C238.87625,31.65625 237.954375,32.1484375 236.829375,32.1484375 Z M249.9625,26.15625 L248.603125,26.15625 C248.384375,25.3203125 247.642188,24.640625 246.43125,24.640625 C244.915625,24.640625 243.9625,25.8515625 243.9625,27.7578125 C243.9625,29.703125 244.93125,30.9375 246.43125,30.9375 C247.564063,30.9375 248.353125,30.4140625 248.603125,29.4609375 L249.9625,29.4609375 C249.720313,31.0078125 248.4625,32.1484375 246.439063,32.1484375 C244.079688,32.1484375 242.571875,30.4375 242.571875,27.7578125 C242.571875,25.1328125 244.071875,23.4296875 246.43125,23.4296875 C248.478125,23.4296875 249.728125,24.65625 249.9625,26.15625 Z M252.345625,21.3984375 L253.689375,21.3984375 L253.689375,23.578125 L255.564375,23.578125 L255.564375,24.703125 L253.689375,24.703125 L253.689375,29.46875 C253.689375,30.4609375 254.064375,30.8828125 254.939375,30.8828125 C255.181563,30.8828125 255.314375,30.875 255.564375,30.8515625 L255.564375,31.984375 C255.29875,32.03125 255.040938,32.0625 254.775313,32.0625 C253.040938,32.0625 252.345625,31.421875 252.345625,29.8125 L252.345625,24.703125 L250.98625,24.703125 L250.98625,23.578125 L252.345625,23.578125 L252.345625,21.3984375 Z M257.306875,32 L257.306875,23.578125 L258.650625,23.578125 L258.650625,32 L257.306875,32 Z M257.97875,21.8671875 C257.463125,21.8671875 257.04125,21.4453125 257.04125,20.9296875 C257.04125,20.4140625 257.463125,19.9921875 257.97875,19.9921875 C258.494375,19.9921875 258.91625,20.4140625 258.91625,20.9296875 C258.91625,21.4453125 258.494375,21.8671875 257.97875,21.8671875 Z M264.354063,32.1484375 C261.955625,32.1484375 260.47125,30.4921875 260.47125,27.7890625 C260.47125,25.078125 261.955625,23.4296875 264.354063,23.4296875 C266.7525,23.4296875 268.236875,25.078125 268.236875,27.7890625 C268.236875,30.4921875 266.7525,32.1484375 264.354063,32.1484375 Z M264.354063,30.9375 C265.947813,30.9375 266.84625,29.78125 266.84625,27.7890625 C266.84625,25.7890625 265.947813,24.640625 264.354063,24.640625 C262.760313,24.640625 261.861875,25.7890625 261.861875,27.7890625 C261.861875,29.78125 262.760313,30.9375 264.354063,30.9375 Z M270.02625,32 L270.02625,23.578125 L271.3075,23.578125 L271.3075,24.90625 L271.4325,24.90625 C271.854375,23.9765625 272.674688,23.4296875 273.96375,23.4296875 C275.854375,23.4296875 276.909063,24.546875 276.909063,26.546875 L276.909063,32 L275.565313,32 L275.565313,26.875 C275.565313,25.359375 274.924688,24.640625 273.580938,24.640625 C272.237188,24.640625 271.37,25.5390625 271.37,27.015625 L271.37,32 L270.02625,32 Z M283.800313,21.3984375 L285.144063,21.3984375 L285.144063,23.578125 L287.019063,23.578125 L287.019063,24.703125 L285.144063,24.703125 L285.144063,29.46875 C285.144063,30.4609375 285.519063,30.8828125 286.394063,30.8828125 C286.63625,30.8828125 286.769063,30.875 287.019063,30.8515625 L287.019063,31.984375 C286.753438,32.03125 286.495625,32.0625 286.23,32.0625 C284.495625,32.0625 283.800313,31.421875 283.800313,29.8125 L283.800313,24.703125 L282.440938,24.703125 L282.440938,23.578125 L283.800313,23.578125 L283.800313,21.3984375 Z M291.9725,24.6171875 C290.62875,24.6171875 289.69125,25.6015625 289.589688,27.09375 L294.230313,27.09375 C294.199063,25.6015625 293.308438,24.6171875 291.9725,24.6171875 Z M294.19125,29.8203125 L295.535,29.8203125 C295.12875,31.265625 293.831875,32.1484375 291.988125,32.1484375 C289.652188,32.1484375 288.19125,30.4609375 288.19125,27.796875 C288.19125,25.1484375 289.675625,23.4296875 291.988125,23.4296875 C294.261563,23.4296875 295.644375,25.046875 295.644375,27.6640625 L295.644375,28.1796875 L289.589688,28.1796875 L289.589688,28.2421875 C289.66,29.90625 290.589688,30.9609375 292.019375,30.9609375 C293.105313,30.9609375 293.839688,30.5625 294.19125,29.8203125 Z M300.105625,28.8203125 L299.980625,28.8203125 L297.980625,32 L296.457188,32 L299.34,27.7890625 L296.425938,23.578125 L298.0275,23.578125 L300.0275,26.7109375 L300.1525,26.7109375 L302.129063,23.578125 L303.6525,23.578125 L300.793125,27.734375 L303.691563,32 L302.097813,32 L300.105625,28.8203125 Z M305.77,21.3984375 L307.11375,21.3984375 L307.11375,23.578125 L308.98875,23.578125 L308.98875,24.703125 L307.11375,24.703125 L307.11375,29.46875 C307.11375,30.4609375 307.48875,30.8828125 308.36375,30.8828125 C308.605938,30.8828125 308.73875,30.875 308.98875,30.8515625 L308.98875,31.984375 C308.723125,32.03125 308.465313,32.0625 308.199688,32.0625 C306.465313,32.0625 305.77,31.421875 305.77,29.8125 L305.77,24.703125 L304.410625,24.703125 L304.410625,23.578125 L305.77,23.578125 L305.77,21.3984375 Z M311.809375,32.078125 C311.254688,32.078125 310.79375,31.6171875 310.79375,31.0625 C310.79375,30.5 311.254688,30.046875 311.809375,30.046875 C312.371875,30.046875 312.825,30.5 312.825,31.0625 C312.825,31.6171875 312.371875,32.078125 311.809375,32.078125 Z M323.833438,32 L322.427188,32 L322.427188,21.9921875 L318.794375,21.9921875 L318.794375,20.7265625 L327.46625,20.7265625 L327.46625,21.9921875 L323.833438,21.9921875 L323.833438,32 Z M327.974375,32 L327.974375,23.578125 L329.255625,23.578125 L329.255625,24.828125 L329.380625,24.828125 C329.630625,24.0078125 330.599375,23.4296875 331.716563,23.4296875 C331.935313,23.4296875 332.216563,23.4453125 332.388438,23.46875 L332.388438,24.8125 C332.279063,24.78125 331.794688,24.734375 331.529063,24.734375 C330.247813,24.734375 329.318125,25.59375 329.318125,26.78125 L329.318125,32 L327.974375,32 Z M334.466875,35.046875 C334.287188,35.046875 334.052813,35.03125 333.865313,35 L333.865313,33.8515625 C334.029375,33.8828125 334.240313,33.890625 334.427813,33.890625 C335.20125,33.890625 335.623125,33.5234375 335.974688,32.5078125 L336.130938,32.0078125 L333.01375,23.578125 L334.466875,23.578125 L336.779375,30.5078125 L336.904375,30.5078125 L339.209063,23.578125 L340.63875,23.578125 L337.349688,32.515625 C336.630938,34.46875 335.959063,35.046875 334.466875,35.046875 Z M17.828125,42.3984375 L19.171875,42.3984375 L19.171875,44.578125 L21.046875,44.578125 L21.046875,45.703125 L19.171875,45.703125 L19.171875,50.46875 C19.171875,51.4609375 19.546875,51.8828125 20.421875,51.8828125 C20.6640625,51.8828125 20.796875,51.875 21.046875,51.8515625 L21.046875,52.984375 C20.78125,53.03125 20.5234375,53.0625 20.2578125,53.0625 C18.5234375,53.0625 17.828125,52.421875 17.828125,50.8125 L17.828125,45.703125 L16.46875,45.703125 L16.46875,44.578125 L17.828125,44.578125 L17.828125,42.3984375 Z M26.101875,53.1484375 C23.7034375,53.1484375 22.2190625,51.4921875 22.2190625,48.7890625 C22.2190625,46.078125 23.7034375,44.4296875 26.101875,44.4296875 C28.5003125,44.4296875 29.9846875,46.078125 29.9846875,48.7890625 C29.9846875,51.4921875 28.5003125,53.1484375 26.101875,53.1484375 Z M26.101875,51.9375 C27.695625,51.9375 28.5940625,50.78125 28.5940625,48.7890625 C28.5940625,46.7890625 27.695625,45.640625 26.101875,45.640625 C24.508125,45.640625 23.6096875,46.7890625 23.6096875,48.7890625 C23.6096875,50.78125 24.508125,51.9375 26.101875,51.9375 Z M42.7821875,44.578125 L42.7821875,53 L41.5009375,53 L41.5009375,51.6796875 L41.3759375,51.6796875 C40.9540625,52.6171875 40.055625,53.1484375 38.7665625,53.1484375 C36.8759375,53.1484375 35.8915625,52.0234375 35.8915625,50.03125 L35.8915625,44.578125 L37.2353125,44.578125 L37.2353125,49.703125 C37.2353125,51.21875 37.7978125,51.921875 39.1415625,51.921875 C40.6259375,51.921875 41.4384375,51.0390625 41.4384375,49.5625 L41.4384375,44.578125 L42.7821875,44.578125 Z M44.798125,46.8828125 C44.798125,45.484375 46.1496875,44.4296875 47.93875,44.4296875 C49.704375,44.4296875 50.9309375,45.3046875 51.110625,46.6875 L49.7825,46.6875 C49.6028125,46.015625 48.9465625,45.5703125 47.9309375,45.5703125 C46.9309375,45.5703125 46.1496875,46.078125 46.1496875,46.828125 C46.1496875,47.40625 46.6184375,47.765625 47.610625,48.0078125 L48.9075,48.3203125 C50.4934375,48.703125 51.2590625,49.390625 51.2590625,50.6015625 C51.2590625,52.109375 49.798125,53.1484375 47.8840625,53.1484375 C46.0090625,53.1484375 44.72,52.25 44.5715625,50.8515625 L45.954375,50.8515625 C46.1809375,51.5625 46.8528125,52.015625 47.9309375,52.015625 C49.06375,52.015625 49.87625,51.4765625 49.87625,50.703125 C49.87625,50.125 49.43875,49.734375 48.5403125,49.515625 L47.095,49.1640625 C45.516875,48.78125 44.798125,48.1015625 44.798125,46.8828125 Z M56.4078125,45.6171875 C55.0640625,45.6171875 54.1265625,46.6015625 54.025,48.09375 L58.665625,48.09375 C58.634375,46.6015625 57.74375,45.6171875 56.4078125,45.6171875 Z M58.6265625,50.8203125 L59.9703125,50.8203125 C59.5640625,52.265625 58.2671875,53.1484375 56.4234375,53.1484375 C54.0875,53.1484375 52.6265625,51.4609375 52.6265625,48.796875 C52.6265625,46.1484375 54.1109375,44.4296875 56.4234375,44.4296875 C58.696875,44.4296875 60.0796875,46.046875 60.0796875,48.6640625 L60.0796875,49.1796875 L54.025,49.1796875 L54.025,49.2421875 C54.0953125,50.90625 55.025,51.9609375 56.4546875,51.9609375 C57.540625,51.9609375 58.275,51.5625 58.6265625,50.8203125 Z M70.2521876,53.1484375 C69.0803126,53.1484375 68.0803126,52.59375 67.5490626,51.65625 L67.4240626,51.65625 L67.4240626,53 L66.1428126,53 L66.1428126,41.234375 L67.4865626,41.234375 L67.4865626,45.90625 L67.6115626,45.90625 C68.0725001,45 69.0959376,44.4296875 70.2521876,44.4296875 C72.3928126,44.4296875 73.7834376,46.140625 73.7834376,48.7890625 C73.7834376,51.421875 72.3850001,53.1484375 70.2521876,53.1484375 Z M69.9396876,45.640625 C68.4084376,45.640625 67.4553126,46.84375 67.4553126,48.7890625 C67.4553126,50.734375 68.4084376,51.9375 69.9396876,51.9375 C71.4787501,51.9375 72.3928126,50.7578125 72.3928126,48.7890625 C72.3928126,46.8203125 71.4787501,45.640625 69.9396876,45.640625 Z M78.1665626,51.96875 C79.5493751,51.96875 80.5728126,51.0625 80.5728126,49.859375 L80.5728126,49.0859375 L78.3071876,49.234375 C77.0259376,49.3203125 76.4634376,49.765625 76.4634376,50.609375 C76.4634376,51.46875 77.1900001,51.96875 78.1665626,51.96875 Z M77.9165626,53.1484375 C76.2837501,53.1484375 75.0728126,52.1796875 75.0728126,50.640625 C75.0728126,49.1328125 76.1821876,48.265625 78.1431251,48.1484375 L80.5728126,48 L80.5728126,47.234375 C80.5728126,46.1953125 79.9243751,45.625 78.6665626,45.625 C77.6587501,45.625 76.9556251,46.0078125 76.7681251,46.671875 L75.4087501,46.671875 C75.5884376,45.3203125 76.9165626,44.4296875 78.7134376,44.4296875 C80.7681251,44.4296875 81.9165626,45.484375 81.9165626,47.234375 L81.9165626,53 L80.6353126,53 L80.6353126,51.7578125 L80.5103126,51.7578125 C79.9634376,52.65625 79.0415626,53.1484375 77.9165626,53.1484375 Z M83.8856251,46.8828125 C83.8856251,45.484375 85.2371876,44.4296875 87.0262501,44.4296875 C88.7918751,44.4296875 90.0184376,45.3046875 90.1981251,46.6875 L88.8700001,46.6875 C88.6903126,46.015625 88.0340626,45.5703125 87.0184376,45.5703125 C86.0184376,45.5703125 85.2371876,46.078125 85.2371876,46.828125 C85.2371876,47.40625 85.7059376,47.765625 86.6981251,48.0078125 L87.9950001,48.3203125 C89.5809376,48.703125 90.3465626,49.390625 90.3465626,50.6015625 C90.3465626,52.109375 88.8856251,53.1484375 86.9715626,53.1484375 C85.0965626,53.1484375 83.8075001,52.25 83.6590626,50.8515625 L85.0418751,50.8515625 C85.2684376,51.5625 85.9403126,52.015625 87.0184376,52.015625 C88.1512501,52.015625 88.9637501,51.4765625 88.9637501,50.703125 C88.9637501,50.125 88.5262501,49.734375 87.6278126,49.515625 L86.1825001,49.1640625 C84.6043751,48.78125 83.8856251,48.1015625 83.8856251,46.8828125 Z M95.4953126,45.6171875 C94.1515626,45.6171875 93.2140626,46.6015625 93.1125001,48.09375 L97.7531251,48.09375 C97.7218751,46.6015625 96.8312501,45.6171875 95.4953126,45.6171875 Z M97.7140626,50.8203125 L99.0578126,50.8203125 C98.6515626,52.265625 97.3546876,53.1484375 95.5109376,53.1484375 C93.1750001,53.1484375 91.7140626,51.4609375 91.7140626,48.796875 C91.7140626,46.1484375 93.1984376,44.4296875 95.5109376,44.4296875 C97.7843751,44.4296875 99.1671876,46.046875 99.1671876,48.6640625 L99.1671876,49.1796875 L93.1125001,49.1796875 L93.1125001,49.2421875 C93.1828126,50.90625 94.1125001,51.9609375 95.5421876,51.9609375 C96.6281251,51.9609375 97.3625001,51.5625 97.7140626,50.8203125 Z M112.027188,44.578125 L108.91,53 L107.535,53 L104.417813,44.578125 L105.855313,44.578125 L108.16,51.515625 L108.285,51.515625 L110.589688,44.578125 L112.027188,44.578125 Z M115.785313,51.96875 C117.168125,51.96875 118.191563,51.0625 118.191563,49.859375 L118.191563,49.0859375 L115.925938,49.234375 C114.644688,49.3203125 114.082188,49.765625 114.082188,50.609375 C114.082188,51.46875 114.80875,51.96875 115.785313,51.96875 Z M115.535313,53.1484375 C113.9025,53.1484375 112.691563,52.1796875 112.691563,50.640625 C112.691563,49.1328125 113.800938,48.265625 115.761875,48.1484375 L118.191563,48 L118.191563,47.234375 C118.191563,46.1953125 117.543125,45.625 116.285313,45.625 C115.2775,45.625 114.574375,46.0078125 114.386875,46.671875 L113.0275,46.671875 C113.207188,45.3203125 114.535313,44.4296875 116.332188,44.4296875 C118.386875,44.4296875 119.535313,45.484375 119.535313,47.234375 L119.535313,53 L118.254063,53 L118.254063,51.7578125 L118.129063,51.7578125 C117.582188,52.65625 116.660313,53.1484375 115.535313,53.1484375 Z M121.699688,53 L121.699688,44.578125 L122.980938,44.578125 L122.980938,45.828125 L123.105938,45.828125 C123.355938,45.0078125 124.324688,44.4296875 125.441875,44.4296875 C125.660625,44.4296875 125.941875,44.4453125 126.11375,44.46875 L126.11375,45.8125 C126.004375,45.78125 125.52,45.734375 125.254375,45.734375 C123.973125,45.734375 123.043438,46.59375 123.043438,47.78125 L123.043438,53 L121.699688,53 Z M127.504688,53 L127.504688,44.578125 L128.848438,44.578125 L128.848438,53 L127.504688,53 Z M128.176563,42.8671875 C127.660938,42.8671875 127.239063,42.4453125 127.239063,41.9296875 C127.239063,41.4140625 127.660938,40.9921875 128.176563,40.9921875 C128.692188,40.9921875 129.114063,41.4140625 129.114063,41.9296875 C129.114063,42.4453125 128.692188,42.8671875 128.176563,42.8671875 Z M133.684688,51.96875 C135.0675,51.96875 136.090938,51.0625 136.090938,49.859375 L136.090938,49.0859375 L133.825313,49.234375 C132.544063,49.3203125 131.981563,49.765625 131.981563,50.609375 C131.981563,51.46875 132.708125,51.96875 133.684688,51.96875 Z M133.434688,53.1484375 C131.801875,53.1484375 130.590938,52.1796875 130.590938,50.640625 C130.590938,49.1328125 131.700313,48.265625 133.66125,48.1484375 L136.090938,48 L136.090938,47.234375 C136.090938,46.1953125 135.4425,45.625 134.184688,45.625 C133.176875,45.625 132.47375,46.0078125 132.28625,46.671875 L130.926875,46.671875 C131.106563,45.3203125 132.434688,44.4296875 134.231563,44.4296875 C136.28625,44.4296875 137.434688,45.484375 137.434688,47.234375 L137.434688,53 L136.153438,53 L136.153438,51.7578125 L136.028438,51.7578125 C135.481563,52.65625 134.559688,53.1484375 133.434688,53.1484375 Z M139.599063,53 L139.599063,44.578125 L140.880313,44.578125 L140.880313,45.90625 L141.005313,45.90625 C141.427188,44.9765625 142.2475,44.4296875 143.536563,44.4296875 C145.427188,44.4296875 146.481875,45.546875 146.481875,47.546875 L146.481875,53 L145.138125,53 L145.138125,47.875 C145.138125,46.359375 144.4975,45.640625 143.15375,45.640625 C141.81,45.640625 140.942813,46.5390625 140.942813,48.015625 L140.942813,53 L139.599063,53 Z M149.1775,42.3984375 L150.52125,42.3984375 L150.52125,44.578125 L152.39625,44.578125 L152.39625,45.703125 L150.52125,45.703125 L150.52125,50.46875 C150.52125,51.4609375 150.89625,51.8828125 151.77125,51.8828125 C152.013438,51.8828125 152.14625,51.875 152.39625,51.8515625 L152.39625,52.984375 C152.130625,53.03125 151.872813,53.0625 151.607188,53.0625 C149.872813,53.0625 149.1775,52.421875 149.1775,50.8125 L149.1775,45.703125 L147.818125,45.703125 L147.818125,44.578125 L149.1775,44.578125 L149.1775,42.3984375 Z M153.755938,46.8828125 C153.755938,45.484375 155.1075,44.4296875 156.896563,44.4296875 C158.662188,44.4296875 159.88875,45.3046875 160.068438,46.6875 L158.740313,46.6875 C158.560625,46.015625 157.904375,45.5703125 156.88875,45.5703125 C155.88875,45.5703125 155.1075,46.078125 155.1075,46.828125 C155.1075,47.40625 155.57625,47.765625 156.568438,48.0078125 L157.865313,48.3203125 C159.45125,48.703125 160.216875,49.390625 160.216875,50.6015625 C160.216875,52.109375 158.755938,53.1484375 156.841875,53.1484375 C154.966875,53.1484375 153.677813,52.25 153.529375,50.8515625 L154.912188,50.8515625 C155.13875,51.5625 155.810625,52.015625 156.88875,52.015625 C158.021563,52.015625 158.834063,51.4765625 158.834063,50.703125 C158.834063,50.125 158.396563,49.734375 157.498125,49.515625 L156.052813,49.1640625 C154.474688,48.78125 153.755938,48.1015625 153.755938,46.8828125 Z M166.764375,53 L166.764375,45.703125 L165.365938,45.703125 L165.365938,44.578125 L166.764375,44.578125 L166.764375,43.640625 C166.764375,41.9609375 167.608125,41.15625 169.209688,41.15625 C169.537813,41.15625 169.834688,41.1796875 170.115938,41.234375 L170.115938,42.328125 C169.951875,42.296875 169.725313,42.2890625 169.483125,42.2890625 C168.514375,42.2890625 168.108125,42.7578125 168.108125,43.6796875 L168.108125,44.578125 L170.037813,44.578125 L170.037813,45.703125 L168.108125,45.703125 L168.108125,53 L166.764375,53 Z M171.702188,53 L171.702188,44.578125 L173.045938,44.578125 L173.045938,53 L171.702188,53 Z M172.374063,42.8671875 C171.858438,42.8671875 171.436563,42.4453125 171.436563,41.9296875 C171.436563,41.4140625 171.858438,40.9921875 172.374063,40.9921875 C172.889688,40.9921875 173.311563,41.4140625 173.311563,41.9296875 C173.311563,42.4453125 172.889688,42.8671875 172.374063,42.8671875 Z M175.288438,53 L175.288438,44.578125 L176.569688,44.578125 L176.569688,45.828125 L176.694688,45.828125 C176.944688,45.0078125 177.913438,44.4296875 179.030625,44.4296875 C179.249375,44.4296875 179.530625,44.4453125 179.7025,44.46875 L179.7025,45.8125 C179.593125,45.78125 179.10875,45.734375 178.843125,45.734375 C177.561875,45.734375 176.632188,46.59375 176.632188,47.78125 L176.632188,53 L175.288438,53 Z M180.710625,46.8828125 C180.710625,45.484375 182.062188,44.4296875 183.85125,44.4296875 C185.616875,44.4296875 186.843438,45.3046875 187.023125,46.6875 L185.695,46.6875 C185.515313,46.015625 184.859063,45.5703125 183.843438,45.5703125 C182.843438,45.5703125 182.062188,46.078125 182.062188,46.828125 C182.062188,47.40625 182.530938,47.765625 183.523125,48.0078125 L184.82,48.3203125 C186.405938,48.703125 187.171563,49.390625 187.171563,50.6015625 C187.171563,52.109375 185.710625,53.1484375 183.796563,53.1484375 C181.921563,53.1484375 180.6325,52.25 180.484063,50.8515625 L181.866875,50.8515625 C182.093438,51.5625 182.765313,52.015625 183.843438,52.015625 C184.97625,52.015625 185.78875,51.4765625 185.78875,50.703125 C185.78875,50.125 185.35125,49.734375 184.452813,49.515625 L183.0075,49.1640625 C181.429375,48.78125 180.710625,48.1015625 180.710625,46.8828125 Z M189.445313,42.3984375 L190.789063,42.3984375 L190.789063,44.578125 L192.664063,44.578125 L192.664063,45.703125 L190.789063,45.703125 L190.789063,50.46875 C190.789063,51.4609375 191.164063,51.8828125 192.039063,51.8828125 C192.28125,51.8828125 192.414063,51.875 192.664063,51.8515625 L192.664063,52.984375 C192.398438,53.03125 192.140625,53.0625 191.875,53.0625 C190.140625,53.0625 189.445313,52.421875 189.445313,50.8125 L189.445313,45.703125 L188.085938,45.703125 L188.085938,44.578125 L189.445313,44.578125 L189.445313,42.3984375 Z M195.484688,53.078125 C194.93,53.078125 194.469063,52.6171875 194.469063,52.0625 C194.469063,51.5 194.93,51.046875 195.484688,51.046875 C196.047188,51.046875 196.500313,51.5 196.500313,52.0625 C196.500313,52.6171875 196.047188,53.078125 195.484688,53.078125 Z"/>
    </g>
    <g fill="#6FEAD9" transform="translate(109 42)">
      <g transform="translate(0 12)">
        <rect width="1" height="9"/>
        <rect width="1" height="9" x="16"/>
        <rect width="15" height="1" x="1" y="4"/>
      </g>
      <path d="M9.837,6.164 L12.422,6.164 L12.422,7 L8.913,7 L8.913,-0.337 L9.837,-0.337 L9.837,6.164 Z M13.962,5.944 C14.292,5.944 14.534,6.186 14.534,6.527 C14.534,6.846 14.281,7.088 13.962,7.088 C13.632,7.088 13.39,6.846 13.39,6.516 C13.39,6.186 13.632,5.944 13.962,5.944 Z M13.962,2.776 C14.292,2.776 14.534,3.018 14.534,3.359 C14.534,3.678 14.281,3.92 13.962,3.92 C13.632,3.92 13.39,3.678 13.39,3.348 C13.39,3.018 13.632,2.776 13.962,2.776 Z M18.076,0.994 L16.459,2.072 L16.459,1.236 L18.945,-0.392 L18.945,7 L18.076,7 L18.076,0.994 Z M24.83,-0.227 L22.949,2.71 C23.257,2.6 23.4,2.567 23.664,2.567 C24.885,2.567 25.831,3.524 25.831,4.767 C25.831,6.065 24.764,7.132 23.466,7.132 C22.157,7.132 21.145,6.098 21.145,4.767 C21.145,4.228 21.288,3.821 21.706,3.15 L23.807,-0.227 L24.83,-0.227 Z M23.51,3.315 C22.674,3.315 22.014,3.953 22.014,4.767 C22.014,5.625 22.663,6.307 23.488,6.307 C24.313,6.307 24.973,5.636 24.973,4.8 C24.973,3.975 24.324,3.315 23.51,3.315 Z M27.074,1.929 L27.91,1.929 L27.91,2.853 C28.394,2.105 28.911,1.808 29.758,1.808 C31.166,1.808 32.145,2.886 32.145,4.426 C32.145,6.021 31.166,7.121 29.758,7.121 C29.362,7.121 28.999,7.033 28.647,6.857 C28.339,6.703 28.185,6.571 27.91,6.208 L27.91,9.376 L27.074,9.376 L27.074,1.929 Z M29.615,2.556 C28.603,2.556 27.91,3.359 27.91,4.547 C27.91,5.658 28.581,6.395 29.582,6.395 C30.583,6.395 31.254,5.614 31.254,4.459 C31.254,3.865 31.111,3.414 30.814,3.084 C30.517,2.754 30.066,2.556 29.615,2.556 Z M35.027,5.163 L33.674,7 L32.651,7 L34.521,4.481 L32.618,1.929 L33.674,1.929 L35.027,3.788 L36.413,1.929 L37.436,1.929 L35.522,4.481 L37.348,7 L36.325,7 L35.027,5.163 Z M43.695,9.046 L43.145,9.574 C41.847,7.979 41.253,6.428 41.253,4.58 C41.253,2.688 41.946,0.818 43.167,-0.557 L43.695,-0.007 C42.584,1.368 42.034,2.897 42.034,4.547 C42.034,6.153 42.628,7.759 43.695,9.046 Z M45.851,2.666 L45.851,7 L45.015,7 L45.015,2.666 L44.322,2.666 L44.322,1.929 L45.015,1.929 L45.015,1.247 C45.015,0.246 45.532,-0.348 46.412,-0.348 C46.456,-0.348 46.555,-0.348 46.643,-0.337 L46.643,0.411 C46.038,0.477 45.873,0.653 45.851,1.247 L45.851,1.929 L46.643,1.929 L46.643,2.666 L45.851,2.666 Z M48.843,1.929 L48.843,7 L48.007,7 L48.007,1.929 L48.843,1.929 Z M48.425,-0.04 C48.722,-0.04 48.953,0.202 48.953,0.51 C48.953,0.807 48.722,1.038 48.425,1.038 C48.117,1.038 47.886,0.807 47.886,0.499 C47.886,0.191 48.117,-0.04 48.425,-0.04 Z M52.143,5.163 L50.79,7 L49.767,7 L51.637,4.481 L49.734,1.929 L50.79,1.929 L52.143,3.788 L53.529,1.929 L54.552,1.929 L52.638,4.481 L54.464,7 L53.441,7 L52.143,5.163 Z M60.14,4.734 L55.916,4.734 C55.96,5.163 56.037,5.383 56.246,5.658 C56.576,6.109 57.06,6.351 57.61,6.351 C58.237,6.351 58.831,6.01 59.128,5.482 L59.865,5.757 C59.447,6.604 58.578,7.121 57.61,7.121 C56.103,7.121 55.025,6.021 55.025,4.481 C55.025,2.919 56.092,1.808 57.577,1.808 C59.051,1.808 60.151,2.919 60.151,4.404 C60.151,4.47 60.151,4.613 60.14,4.734 Z M55.927,4.118 L59.26,4.118 C59.227,3.722 59.15,3.502 58.974,3.249 C58.655,2.82 58.138,2.556 57.577,2.556 C57.016,2.556 56.51,2.82 56.213,3.26 C56.059,3.502 55.993,3.711 55.927,4.118 Z M65.156,2.699 L65.156,-0.337 L65.992,-0.337 L65.992,7 L65.156,7 L65.156,6.131 C64.65,6.824 64.111,7.121 63.341,7.121 C61.944,7.121 60.954,6.032 60.954,4.492 C60.954,2.952 61.966,1.808 63.341,1.808 C64.089,1.808 64.661,2.083 65.156,2.699 Z M63.517,2.556 C62.516,2.556 61.834,3.348 61.834,4.503 C61.834,5.614 62.505,6.395 63.462,6.395 C64.441,6.395 65.156,5.581 65.156,4.481 C65.156,3.337 64.485,2.556 63.517,2.556 Z M67.224,-0.029 L67.774,-0.557 C69.083,1.049 69.666,2.589 69.666,4.437 C69.666,6.34 68.973,8.188 67.752,9.574 L67.224,9.024 C68.335,7.649 68.885,6.12 68.885,4.47 C68.885,2.853 68.302,1.269 67.224,-0.029 Z"/>
    </g>
    <use fill-rule="nonzero" stroke="#6FEAD9" stroke-dasharray="1" stroke-width="2" mask="url(#4-c)" transform="translate(125 54)" xlink:href="#4-a"/>
    <g transform="translate(453 54)">
      <g fill="#6FEAD9">
        <rect width="1" height="9"/>
        <rect width="1" height="9" x="16"/>
        <rect width="15" height="1" x="1" y="4"/>
      </g>
      <path fill="#00AB9A" d="M22.837,3.92 L22.837,7 L21.913,7 L21.913,-0.337 L23.915,-0.337 C25.477,-0.337 26.423,0.466 26.423,1.797 C26.423,2.622 26.049,3.282 25.367,3.645 C25.015,3.832 24.685,3.909 24.014,3.953 L26.863,7 L25.686,7 L22.837,3.92 Z M22.837,3.293 L23.761,3.293 C24.872,3.293 25.477,2.787 25.477,1.863 C25.477,0.95 24.927,0.455 23.915,0.455 L22.837,0.455 L22.837,3.293 Z M28.425,5.944 C28.755,5.944 28.997,6.186 28.997,6.527 C28.997,6.846 28.744,7.088 28.425,7.088 C28.095,7.088 27.853,6.846 27.853,6.516 C27.853,6.186 28.095,5.944 28.425,5.944 Z M28.425,2.776 C28.755,2.776 28.997,3.018 28.997,3.359 C28.997,3.678 28.744,3.92 28.425,3.92 C28.095,3.92 27.853,3.678 27.853,3.348 C27.853,3.018 28.095,2.776 28.425,2.776 Z M32.539,0.994 L30.922,2.072 L30.922,1.236 L33.408,-0.392 L33.408,7 L32.539,7 L32.539,0.994 Z M39.293,-0.227 L37.412,2.71 C37.72,2.6 37.863,2.567 38.127,2.567 C39.348,2.567 40.294,3.524 40.294,4.767 C40.294,6.065 39.227,7.132 37.929,7.132 C36.62,7.132 35.608,6.098 35.608,4.767 C35.608,4.228 35.751,3.821 36.169,3.15 L38.27,-0.227 L39.293,-0.227 Z M37.973,3.315 C37.137,3.315 36.477,3.953 36.477,4.767 C36.477,5.625 37.126,6.307 37.951,6.307 C38.776,6.307 39.436,5.636 39.436,4.8 C39.436,3.975 38.787,3.315 37.973,3.315 Z M41.537,1.929 L42.373,1.929 L42.373,2.853 C42.857,2.105 43.374,1.808 44.221,1.808 C45.629,1.808 46.608,2.886 46.608,4.426 C46.608,6.021 45.629,7.121 44.221,7.121 C43.825,7.121 43.462,7.033 43.11,6.857 C42.802,6.703 42.648,6.571 42.373,6.208 L42.373,9.376 L41.537,9.376 L41.537,1.929 Z M44.078,2.556 C43.066,2.556 42.373,3.359 42.373,4.547 C42.373,5.658 43.044,6.395 44.045,6.395 C45.046,6.395 45.717,5.614 45.717,4.459 C45.717,3.865 45.574,3.414 45.277,3.084 C44.98,2.754 44.529,2.556 44.078,2.556 Z M49.49,5.163 L48.137,7 L47.114,7 L48.984,4.481 L47.081,1.929 L48.137,1.929 L49.49,3.788 L50.876,1.929 L51.899,1.929 L49.985,4.481 L51.811,7 L50.788,7 L49.49,5.163 Z M58.158,9.046 L57.608,9.574 C56.31,7.979 55.716,6.428 55.716,4.58 C55.716,2.688 56.409,0.818 57.63,-0.557 L58.158,-0.007 C57.047,1.368 56.497,2.897 56.497,4.547 C56.497,6.153 57.091,7.759 58.158,9.046 Z M59.39,1.929 L60.226,1.929 L60.226,2.633 C60.611,2.05 61.04,1.808 61.667,1.808 C62.36,1.808 62.8,2.105 63.031,2.732 C63.405,2.083 63.878,1.808 64.637,1.808 C65.22,1.808 65.66,1.995 65.924,2.347 C66.166,2.666 66.232,2.952 66.232,3.755 L66.232,7 L65.396,7 L65.396,3.953 C65.396,3.337 65.374,3.194 65.253,2.985 C65.099,2.721 64.769,2.556 64.373,2.556 C63.636,2.556 63.229,3.051 63.229,3.953 L63.229,7 L62.393,7 L62.393,3.964 C62.393,3.469 62.349,3.216 62.228,2.996 C62.085,2.71 61.777,2.556 61.403,2.556 C60.666,2.556 60.226,3.084 60.226,3.964 L60.226,7 L59.39,7 L59.39,1.929 Z M68.718,1.929 L68.718,7 L67.882,7 L67.882,1.929 L68.718,1.929 Z M68.311,-0.04 C68.608,-0.04 68.839,0.202 68.839,0.51 C68.839,0.807 68.597,1.038 68.3,1.038 C68.003,1.038 67.772,0.807 67.772,0.499 C67.772,0.191 68.003,-0.04 68.311,-0.04 Z M70.401,1.929 L71.237,1.929 L71.237,2.644 C71.677,2.05 72.117,1.808 72.744,1.808 C73.206,1.808 73.624,1.962 73.921,2.226 C74.24,2.534 74.35,2.886 74.35,3.579 L74.35,7 L73.514,7 L73.514,3.766 C73.514,3.315 73.459,3.073 73.327,2.897 C73.173,2.688 72.876,2.556 72.535,2.556 C72.161,2.556 71.82,2.699 71.567,2.985 C71.325,3.249 71.237,3.491 71.237,3.909 L71.237,7 L70.401,7 L70.401,1.929 Z M75.549,-0.029 L76.099,-0.557 C77.408,1.049 77.991,2.589 77.991,4.437 C77.991,6.34 77.298,8.188 76.077,9.574 L75.549,9.024 C76.66,7.649 77.21,6.12 77.21,4.47 C77.21,2.853 76.627,1.269 75.549,-0.029 Z"/>
    </g>
    <g fill="#6FEAD9" transform="translate(223 37)">
      <path d="M11.904,4.455 L11.904,11 L10.98,11 L10.98,4.455 L9.11,4.455 L9.11,3.663 L13.763,3.663 L13.763,4.455 L11.904,4.455 Z M15.138,9.944 C15.468,9.944 15.71,10.186 15.71,10.527 C15.71,10.846 15.457,11.088 15.138,11.088 C14.808,11.088 14.566,10.846 14.566,10.516 C14.566,10.186 14.808,9.944 15.138,9.944 Z M15.138,6.776 C15.468,6.776 15.71,7.018 15.71,7.359 C15.71,7.678 15.457,7.92 15.138,7.92 C14.808,7.92 14.566,7.678 14.566,7.348 C14.566,7.018 14.808,6.776 15.138,6.776 Z M19.252,4.994 L17.635,6.072 L17.635,5.236 L20.121,3.608 L20.121,11 L19.252,11 L19.252,4.994 Z M26.006,3.773 L24.125,6.71 C24.433,6.6 24.576,6.567 24.84,6.567 C26.061,6.567 27.007,7.524 27.007,8.767 C27.007,10.065 25.94,11.132 24.642,11.132 C23.333,11.132 22.321,10.098 22.321,8.767 C22.321,8.228 22.464,7.821 22.882,7.15 L24.983,3.773 L26.006,3.773 Z M24.686,7.315 C23.85,7.315 23.19,7.953 23.19,8.767 C23.19,9.625 23.839,10.307 24.664,10.307 C25.489,10.307 26.149,9.636 26.149,8.8 C26.149,7.975 25.5,7.315 24.686,7.315 Z M28.25,5.929 L29.086,5.929 L29.086,6.853 C29.57,6.105 30.087,5.808 30.934,5.808 C32.342,5.808 33.321,6.886 33.321,8.426 C33.321,10.021 32.342,11.121 30.934,11.121 C30.538,11.121 30.175,11.033 29.823,10.857 C29.515,10.703 29.361,10.571 29.086,10.208 L29.086,13.376 L28.25,13.376 L28.25,5.929 Z M30.791,6.556 C29.779,6.556 29.086,7.359 29.086,8.547 C29.086,9.658 29.757,10.395 30.758,10.395 C31.759,10.395 32.43,9.614 32.43,8.459 C32.43,7.865 32.287,7.414 31.99,7.084 C31.693,6.754 31.242,6.556 30.791,6.556 Z M36.203,9.163 L34.85,11 L33.827,11 L35.697,8.481 L33.794,5.929 L34.85,5.929 L36.203,7.788 L37.589,5.929 L38.612,5.929 L36.698,8.481 L38.524,11 L37.501,11 L36.203,9.163 Z M44.871,13.046 L44.321,13.574 C43.023,11.979 42.429,10.428 42.429,8.58 C42.429,6.688 43.122,4.818 44.343,3.443 L44.871,3.993 C43.76,5.368 43.21,6.897 43.21,8.547 C43.21,10.153 43.804,11.759 44.871,13.046 Z M47.027,6.666 L47.027,11 L46.191,11 L46.191,6.666 L45.498,6.666 L45.498,5.929 L46.191,5.929 L46.191,5.247 C46.191,4.246 46.708,3.652 47.588,3.652 C47.632,3.652 47.731,3.652 47.819,3.663 L47.819,4.411 C47.214,4.477 47.049,4.653 47.027,5.247 L47.027,5.929 L47.819,5.929 L47.819,6.666 L47.027,6.666 Z M50.019,5.929 L50.019,11 L49.183,11 L49.183,5.929 L50.019,5.929 Z M49.601,3.96 C49.898,3.96 50.129,4.202 50.129,4.51 C50.129,4.807 49.898,5.038 49.601,5.038 C49.293,5.038 49.062,4.807 49.062,4.499 C49.062,4.191 49.293,3.96 49.601,3.96 Z M53.319,9.163 L51.966,11 L50.943,11 L52.813,8.481 L50.91,5.929 L51.966,5.929 L53.319,7.788 L54.705,5.929 L55.728,5.929 L53.814,8.481 L55.64,11 L54.617,11 L53.319,9.163 Z M61.316,8.734 L57.092,8.734 C57.136,9.163 57.213,9.383 57.422,9.658 C57.752,10.109 58.236,10.351 58.786,10.351 C59.413,10.351 60.007,10.01 60.304,9.482 L61.041,9.757 C60.623,10.604 59.754,11.121 58.786,11.121 C57.279,11.121 56.201,10.021 56.201,8.481 C56.201,6.919 57.268,5.808 58.753,5.808 C60.227,5.808 61.327,6.919 61.327,8.404 C61.327,8.47 61.327,8.613 61.316,8.734 Z M57.103,8.118 L60.436,8.118 C60.403,7.722 60.326,7.502 60.15,7.249 C59.831,6.82 59.314,6.556 58.753,6.556 C58.192,6.556 57.686,6.82 57.389,7.26 C57.235,7.502 57.169,7.711 57.103,8.118 Z M66.332,6.699 L66.332,3.663 L67.168,3.663 L67.168,11 L66.332,11 L66.332,10.131 C65.826,10.824 65.287,11.121 64.517,11.121 C63.12,11.121 62.13,10.032 62.13,8.492 C62.13,6.952 63.142,5.808 64.517,5.808 C65.265,5.808 65.837,6.083 66.332,6.699 Z M64.693,6.556 C63.692,6.556 63.01,7.348 63.01,8.503 C63.01,9.614 63.681,10.395 64.638,10.395 C65.617,10.395 66.332,9.581 66.332,8.481 C66.332,7.337 65.661,6.556 64.693,6.556 Z M68.4,3.971 L68.95,3.443 C70.259,5.049 70.842,6.589 70.842,8.437 C70.842,10.34 70.149,12.188 68.928,13.574 L68.4,13.024 C69.511,11.649 70.061,10.12 70.061,8.47 C70.061,6.853 69.478,5.269 68.4,3.971 Z"/>
      <rect width="1" height="15" x="4" y="1"/>
      <rect width="9" height="1"/>
      <rect width="9" height="1" y="16"/>
    </g>
    <g fill="#C41261" transform="translate(461 95)">
      <g transform="translate(0 3)">
        <rect width="1" height="9"/>
        <rect width="1" height="9" x="7"/>
        <rect width="6" height="1" x="1" y="4"/>
      </g>
      <path d="M11.837,7.92 L11.837,11 L10.913,11 L10.913,3.663 L12.915,3.663 C14.477,3.663 15.423,4.466 15.423,5.797 C15.423,6.622 15.049,7.282 14.367,7.645 C14.015,7.832 13.685,7.909 13.014,7.953 L15.863,11 L14.686,11 L11.837,7.92 Z M11.837,7.293 L12.761,7.293 C13.872,7.293 14.477,6.787 14.477,5.863 C14.477,4.95 13.927,4.455 12.915,4.455 L11.837,4.455 L11.837,7.293 Z M17.425,9.944 C17.755,9.944 17.997,10.186 17.997,10.527 C17.997,10.846 17.744,11.088 17.425,11.088 C17.095,11.088 16.853,10.846 16.853,10.516 C16.853,10.186 17.095,9.944 17.425,9.944 Z M17.425,6.776 C17.755,6.776 17.997,7.018 17.997,7.359 C17.997,7.678 17.744,7.92 17.425,7.92 C17.095,7.92 16.853,7.678 16.853,7.348 C16.853,7.018 17.095,6.776 17.425,6.776 Z M22.331,7.018 C22.749,7.15 22.947,7.249 23.178,7.491 C23.541,7.854 23.728,8.338 23.728,8.91 C23.728,10.208 22.771,11.132 21.429,11.132 C20.098,11.132 19.163,10.241 19.163,8.987 C19.163,8.404 19.361,7.876 19.713,7.513 C19.944,7.271 20.131,7.161 20.571,7.018 C20.186,6.886 20.021,6.776 19.823,6.534 C19.581,6.237 19.449,5.863 19.449,5.456 C19.449,4.411 20.307,3.641 21.473,3.641 C22.628,3.641 23.464,4.4 23.464,5.445 C23.464,5.863 23.321,6.259 23.057,6.567 C22.859,6.787 22.705,6.886 22.331,7.018 Z M21.473,4.411 C20.769,4.411 20.285,4.851 20.285,5.467 C20.285,6.094 20.802,6.589 21.451,6.589 C22.078,6.589 22.639,6.072 22.639,5.478 C22.639,4.906 22.1,4.411 21.473,4.411 Z M21.462,7.48 C20.67,7.48 20.032,8.107 20.032,8.899 C20.032,9.68 20.659,10.318 21.44,10.318 C22.221,10.318 22.848,9.68 22.848,8.899 C22.848,8.129 22.221,7.48 21.462,7.48 Z M25.037,5.929 L25.873,5.929 L25.873,6.853 C26.357,6.105 26.874,5.808 27.721,5.808 C29.129,5.808 30.108,6.886 30.108,8.426 C30.108,10.021 29.129,11.121 27.721,11.121 C27.325,11.121 26.962,11.033 26.61,10.857 C26.302,10.703 26.148,10.571 25.873,10.208 L25.873,13.376 L25.037,13.376 L25.037,5.929 Z M27.578,6.556 C26.566,6.556 25.873,7.359 25.873,8.547 C25.873,9.658 26.544,10.395 27.545,10.395 C28.546,10.395 29.217,9.614 29.217,8.459 C29.217,7.865 29.074,7.414 28.777,7.084 C28.48,6.754 28.029,6.556 27.578,6.556 Z M32.99,9.163 L31.637,11 L30.614,11 L32.484,8.481 L30.581,5.929 L31.637,5.929 L32.99,7.788 L34.376,5.929 L35.399,5.929 L33.485,8.481 L35.311,11 L34.288,11 L32.99,9.163 Z M41.658,13.046 L41.108,13.574 C39.81,11.979 39.216,10.428 39.216,8.58 C39.216,6.688 39.909,4.818 41.13,3.443 L41.658,3.993 C40.547,5.368 39.997,6.897 39.997,8.547 C39.997,10.153 40.591,11.759 41.658,13.046 Z M43.814,6.666 L43.814,11 L42.978,11 L42.978,6.666 L42.285,6.666 L42.285,5.929 L42.978,5.929 L42.978,5.247 C42.978,4.246 43.495,3.652 44.375,3.652 C44.419,3.652 44.518,3.652 44.606,3.663 L44.606,4.411 C44.001,4.477 43.836,4.653 43.814,5.247 L43.814,5.929 L44.606,5.929 L44.606,6.666 L43.814,6.666 Z M46.806,5.929 L46.806,11 L45.97,11 L45.97,5.929 L46.806,5.929 Z M46.388,3.96 C46.685,3.96 46.916,4.202 46.916,4.51 C46.916,4.807 46.685,5.038 46.388,5.038 C46.08,5.038 45.849,4.807 45.849,4.499 C45.849,4.191 46.08,3.96 46.388,3.96 Z M50.106,9.163 L48.753,11 L47.73,11 L49.6,8.481 L47.697,5.929 L48.753,5.929 L50.106,7.788 L51.492,5.929 L52.515,5.929 L50.601,8.481 L52.427,11 L51.404,11 L50.106,9.163 Z M58.103,8.734 L53.879,8.734 C53.923,9.163 54,9.383 54.209,9.658 C54.539,10.109 55.023,10.351 55.573,10.351 C56.2,10.351 56.794,10.01 57.091,9.482 L57.828,9.757 C57.41,10.604 56.541,11.121 55.573,11.121 C54.066,11.121 52.988,10.021 52.988,8.481 C52.988,6.919 54.055,5.808 55.54,5.808 C57.014,5.808 58.114,6.919 58.114,8.404 C58.114,8.47 58.114,8.613 58.103,8.734 Z M53.89,8.118 L57.223,8.118 C57.19,7.722 57.113,7.502 56.937,7.249 C56.618,6.82 56.101,6.556 55.54,6.556 C54.979,6.556 54.473,6.82 54.176,7.26 C54.022,7.502 53.956,7.711 53.89,8.118 Z M63.119,6.699 L63.119,3.663 L63.955,3.663 L63.955,11 L63.119,11 L63.119,10.131 C62.613,10.824 62.074,11.121 61.304,11.121 C59.907,11.121 58.917,10.032 58.917,8.492 C58.917,6.952 59.929,5.808 61.304,5.808 C62.052,5.808 62.624,6.083 63.119,6.699 Z M61.48,6.556 C60.479,6.556 59.797,7.348 59.797,8.503 C59.797,9.614 60.468,10.395 61.425,10.395 C62.404,10.395 63.119,9.581 63.119,8.481 C63.119,7.337 62.448,6.556 61.48,6.556 Z M65.187,3.971 L65.737,3.443 C67.046,5.049 67.629,6.589 67.629,8.437 C67.629,10.34 66.936,12.188 65.715,13.574 L65.187,13.024 C66.298,11.649 66.848,10.12 66.848,8.47 C66.848,6.853 66.265,5.269 65.187,3.971 Z"/>
    </g>
    <use fill-rule="nonzero" stroke="#F897BF" stroke-dasharray="1" stroke-width="2" mask="url(#4-d)" transform="translate(303 99)" xlink:href="#4-b"/>
  </g>
</svg>
