<svg xmlns="http://www.w3.org/2000/svg" xmlns:xlink="http://www.w3.org/1999/xlink" width="600" height="300" viewBox="0 0 600 300">
  <defs>
    <linearGradient id="1-c" x1="-12.779%" x2="65.803%" y1="-20.088%" y2="87.803%">
      <stop offset="0%" stop-color="#266900"/>
      <stop offset="10%" stop-color="#357A0C"/>
      <stop offset="34%" stop-color="#539D26"/>
      <stop offset="57%" stop-color="#6AB738"/>
      <stop offset="78%" stop-color="#77C743"/>
      <stop offset="94%" stop-color="#7CCC47"/>
    </linearGradient>
    <linearGradient id="1-d" x1="17.52%" x2="84.52%" y1="21.84%" y2="82.98%">
      <stop offset="0%" stop-color="#266900" stop-opacity=".94"/>
      <stop offset="72%" stop-color="#7CCC47" stop-opacity="0"/>
    </linearGradient>
    <linearGradient id="1-e" x1="-37.982%" y1="50.002%" y2="50.002%">
      <stop offset="0%" stop-color="#266900"/>
      <stop offset="10%" stop-color="#357A0C"/>
      <stop offset="34%" stop-color="#539D26"/>
      <stop offset="57%" stop-color="#6AB738"/>
      <stop offset="78%" stop-color="#77C743"/>
      <stop offset="94%" stop-color="#7CCC47"/>
    </linearGradient>
    <linearGradient id="1-f" x1="50.006%" x2="50.006%" y1="-68.257%" y2="163.674%">
      <stop offset="0%" stop-color="#6DB33F" stop-opacity=".94"/>
      <stop offset="29%" stop-color="#73BD42" stop-opacity=".96"/>
      <stop offset="79%" stop-color="#7CCC47"/>
    </linearGradient>
    <rect id="1-a" width="160" height="160"/>
    <mask id="1-g" width="160" height="160" x="0" y="0" fill="#fff">
      <use xlink:href="#1-a"/>
    </mask>
    <rect id="1-b" width="160" height="32"/>
    <mask id="1-h" width="160" height="32" x="0" y="0" fill="#fff">
      <use xlink:href="#1-b"/>
    </mask>
  </defs>
  <g fill="none" fill-rule="evenodd">
    <rect width="600" height="300" fill="#FFF" fill-opacity=".01" fill-rule="nonzero"/>
    <g transform="translate(35 7)">
      <g transform="translate(77 23)">
        <path fill="#3F5564" d="M2.145,207.596 C2.145,207.353 2.226,207.11 2.361,206.84 L9.381,191.18 C9.759,190.343 10.434,189.83 11.379,189.83 L11.541,189.83 C12.486,189.83 13.134,190.343 13.512,191.18 L20.532,206.84 C20.667,207.083 20.721,207.326 20.721,207.542 C20.721,208.433 20.046,209.135 19.155,209.135 C18.372,209.135 17.832,208.676 17.535,207.974 L15.996,204.437 L6.816,204.437 L5.223,208.082 C4.953,208.757 4.386,209.135 3.684,209.135 C2.82,209.135 2.145,208.46 2.145,207.596 Z M8.085,201.494 L14.727,201.494 L11.406,193.853 L8.085,201.494 Z M23.934,211.835 L23.934,196.229 C23.934,195.311 24.636,194.582 25.554,194.582 C26.472,194.582 27.201,195.311 27.201,196.229 L27.201,197.12 C28.254,195.635 29.739,194.447 32.061,194.447 C35.409,194.447 38.676,197.093 38.676,201.845 L38.676,201.899 C38.676,206.624 35.436,209.297 32.061,209.297 C29.685,209.297 28.2,208.109 27.201,206.786 L27.201,211.835 C27.201,212.753 26.472,213.455 25.554,213.455 C24.663,213.455 23.934,212.753 23.934,211.835 Z M31.278,206.462 C33.519,206.462 35.355,204.707 35.355,201.899 L35.355,201.845 C35.355,199.091 33.492,197.282 31.278,197.282 C29.064,197.282 27.12,199.118 27.12,201.845 L27.12,201.899 C27.12,204.626 29.064,206.462 31.278,206.462 Z M42.051,211.835 L42.051,196.229 C42.051,195.311 42.753,194.582 43.671,194.582 C44.589,194.582 45.318,195.311 45.318,196.229 L45.318,197.12 C46.371,195.635 47.856,194.447 50.178,194.447 C53.526,194.447 56.793,197.093 56.793,201.845 L56.793,201.899 C56.793,206.624 53.553,209.297 50.178,209.297 C47.802,209.297 46.317,208.109 45.318,206.786 L45.318,211.835 C45.318,212.753 44.589,213.455 43.671,213.455 C42.78,213.455 42.051,212.753 42.051,211.835 Z M49.395,206.462 C51.636,206.462 53.472,204.707 53.472,201.899 L53.472,201.845 C53.472,199.091 51.609,197.282 49.395,197.282 C47.181,197.282 45.237,199.118 45.237,201.845 L45.237,201.899 C45.237,204.626 47.181,206.462 49.395,206.462 Z M60.357,207.515 L60.357,190.775 C60.357,189.884 61.059,189.155 61.977,189.155 C62.895,189.155 63.624,189.884 63.624,190.775 L63.624,207.515 C63.624,208.433 62.895,209.135 61.977,209.135 C61.086,209.135 60.357,208.433 60.357,207.515 Z M67.836,191.072 L67.836,190.91 C67.836,189.938 68.646,189.317 69.699,189.317 C70.752,189.317 71.562,189.938 71.562,190.91 L71.562,191.072 C71.562,192.044 70.752,192.692 69.699,192.692 C68.646,192.692 67.836,192.044 67.836,191.072 Z M68.079,207.515 L68.079,196.229 C68.079,195.311 68.781,194.582 69.699,194.582 C70.617,194.582 71.346,195.311 71.346,196.229 L71.346,207.515 C71.346,208.433 70.617,209.135 69.699,209.135 C68.808,209.135 68.079,208.433 68.079,207.515 Z M82.2,209.324 C77.961,209.324 74.829,206.003 74.829,201.953 L74.829,201.899 C74.829,197.849 77.961,194.447 82.254,194.447 C84.495,194.447 86.034,195.176 87.249,196.229 C87.465,196.418 87.762,196.823 87.762,197.363 C87.762,198.2 87.087,198.848 86.25,198.848 C85.845,198.848 85.494,198.686 85.278,198.524 C84.441,197.822 83.523,197.309 82.227,197.309 C79.851,197.309 78.096,199.361 78.096,201.845 L78.096,201.899 C78.096,204.437 79.851,206.462 82.362,206.462 C83.658,206.462 84.657,205.949 85.548,205.193 C85.737,205.031 86.061,204.842 86.439,204.842 C87.222,204.842 87.843,205.49 87.843,206.273 C87.843,206.705 87.681,207.056 87.384,207.299 C86.115,208.514 84.576,209.324 82.2,209.324 Z M95.133,209.297 C92.46,209.297 90.084,207.758 90.084,204.896 L90.084,204.842 C90.084,201.764 92.487,200.252 95.97,200.252 C97.563,200.252 98.697,200.495 99.804,200.846 L99.804,200.495 C99.804,198.47 98.562,197.39 96.267,197.39 C95.025,197.39 93.999,197.606 93.108,197.957 C92.919,198.011 92.757,198.038 92.595,198.038 C91.839,198.038 91.218,197.444 91.218,196.688 C91.218,196.094 91.623,195.581 92.109,195.392 C93.459,194.879 94.836,194.555 96.699,194.555 C98.832,194.555 100.425,195.122 101.424,196.148 C102.477,197.174 102.963,198.686 102.963,200.549 L102.963,207.569 C102.963,208.46 102.261,209.135 101.37,209.135 C100.425,209.135 99.777,208.487 99.777,207.758 L99.777,207.218 C98.805,208.379 97.32,209.297 95.133,209.297 Z M96.051,206.921 C98.211,206.921 99.858,205.679 99.858,203.87 L99.858,202.898 C99.021,202.574 97.914,202.331 96.618,202.331 C94.512,202.331 93.27,203.222 93.27,204.707 L93.27,204.761 C93.27,206.138 94.485,206.921 96.051,206.921 Z M111.522,209.243 C109.119,209.243 107.418,208.19 107.418,205.058 L107.418,197.552 L106.878,197.552 C106.095,197.552 105.474,196.931 105.474,196.148 C105.474,195.365 106.095,194.744 106.878,194.744 L107.418,194.744 L107.418,192.314 C107.418,191.423 108.147,190.694 109.065,190.694 C109.956,190.694 110.685,191.423 110.685,192.314 L110.685,194.744 L113.25,194.744 C114.033,194.744 114.681,195.365 114.681,196.148 C114.681,196.931 114.033,197.552 113.25,197.552 L110.685,197.552 L110.685,204.545 C110.685,205.814 111.333,206.327 112.44,206.327 C112.818,206.327 113.142,206.246 113.25,206.246 C113.979,206.246 114.627,206.84 114.627,207.596 C114.627,208.19 114.222,208.676 113.763,208.865 C113.061,209.108 112.386,209.243 111.522,209.243 Z M117.786,191.072 L117.786,190.91 C117.786,189.938 118.596,189.317 119.649,189.317 C120.702,189.317 121.512,189.938 121.512,190.91 L121.512,191.072 C121.512,192.044 120.702,192.692 119.649,192.692 C118.596,192.692 117.786,192.044 117.786,191.072 Z M118.029,207.515 L118.029,196.229 C118.029,195.311 118.731,194.582 119.649,194.582 C120.567,194.582 121.296,195.311 121.296,196.229 L121.296,207.515 C121.296,208.433 120.567,209.135 119.649,209.135 C118.758,209.135 118.029,208.433 118.029,207.515 Z M132.339,209.324 C127.992,209.324 124.779,206.003 124.779,201.953 L124.779,201.899 C124.779,197.822 128.019,194.447 132.393,194.447 C136.767,194.447 139.98,197.768 139.98,201.845 L139.98,201.899 C139.98,205.949 136.74,209.324 132.339,209.324 Z M132.393,206.462 C135.039,206.462 136.713,204.41 136.713,201.953 L136.713,201.899 C136.713,199.388 134.904,197.309 132.339,197.309 C129.72,197.309 128.046,199.361 128.046,201.845 L128.046,201.899 C128.046,204.383 129.855,206.462 132.393,206.462 Z M143.301,207.515 L143.301,196.229 C143.301,195.311 144.003,194.582 144.921,194.582 C145.839,194.582 146.568,195.311 146.568,196.229 L146.568,196.931 C147.486,195.608 148.809,194.447 151.023,194.447 C154.236,194.447 156.099,196.607 156.099,199.901 L156.099,207.515 C156.099,208.433 155.397,209.135 154.479,209.135 C153.561,209.135 152.832,208.433 152.832,207.515 L152.832,200.9 C152.832,198.686 151.725,197.417 149.781,197.417 C147.891,197.417 146.568,198.74 146.568,200.954 L146.568,207.515 C146.568,208.433 145.839,209.135 144.921,209.135 C144.03,209.135 143.301,208.433 143.301,207.515 Z"/>
        <g transform="translate(16 16)">
          <rect width="128" height="128"/>
          <path fill="url(#1-c)" d="M109.976774,25.2123297 L73.7353405,4.58781362 C67.6998969,1.1517418 60.3001031,1.1517418 54.2646595,4.58781362 L18.0209319,25.2215054 C11.8756418,28.7206546 8.08095125,35.2486083 8.08143369,42.3202867 L8.08143369,58.4166308 L23.9415054,67.5739068 C25.0524584,68.2158709 26.4217762,68.2152273 27.5321253,67.5722192 C28.6424744,66.929211 29.3245712,65.7418713 29.3207168,64.4587814 L29.3207168,45.1899642 C29.321442,43.9098855 30.0041501,42.7271659 31.1122581,42.0863082 L62.2084588,24.1341935 C63.3170683,23.4941375 64.6829317,23.4941375 65.7915412,24.1341935 L96.8877419,42.0886022 C97.996542,42.7287681 98.6795031,43.9119261 98.6792832,45.1922581 L98.6792832,64.4587814 C98.680009,65.7391132 99.3634144,66.9218966 100.472278,67.561953 C101.581141,68.2020093 102.947164,68.2021939 104.056201,67.5624373 L119.916272,58.4051613 L119.916272,42.3111111 C119.916755,35.2394327 116.122064,28.711479 109.976774,25.2123297 Z"/>
          <path fill="url(#1-d)" d="M116.248315,97.5575627 L67.6702509,125.605161 C65.3990917,126.916416 62.6009083,126.916416 60.3297491,125.605161 L40.861362,114.365018 L103.489606,41.2903226 L119.916272,56.0332616 L119.916272,91.2034409 C119.915696,93.8244265 118.517683,96.2462509 116.248315,97.5575627 Z"/>
          <path fill="#FFF" d="M105.937204,83.2206452 L105.937204,48.5230108 C105.936468,44.2762291 103.67104,40.352167 99.9936918,38.227957 L69.9458065,20.874552 C66.2665286,18.7503199 61.7334714,18.7503199 58.0541935,20.874552 L28.0040143,38.2233692 C24.3266666,40.3475792 22.0612376,44.2716413 22.0605018,48.5184229 L22.0605018,83.2206452 C22.0604184,87.4682463 24.325957,91.3933729 28.0040143,93.5179928 L58.0541935,110.86681 C61.7341042,112.988679 66.2658958,112.988679 69.9458065,110.86681 L99.9959857,93.5179928 C103.67316,91.3927902 105.937761,87.4677734 105.937204,83.2206452 Z"/>
          <path fill="url(#1-e)" d="M119.916272,84.0785663 L119.916273,70.916129 L78.1121147,95.0526165 C69.3817132,100.090386 58.6274624,100.090386 49.8970609,95.0526165 L8.0837276,70.916129 L8.0837276,84.0785663 C8.08353575,91.1087205 11.8340017,97.6049229 17.9222939,101.12 L54.1660215,122.042724 C60.254401,125.556759 67.7547746,125.556759 73.8431541,122.042724 L110.086882,101.12 C116.171642,97.6025918 119.918357,91.1068284 119.916272,84.0785663 Z"/>
          <path fill="url(#1-f)" d="M39.8956272,50.3948387 C39.5355813,49.5781317 38.860974,48.9414369 38.0248293,48.6291783 C37.1886846,48.3169197 36.2618718,48.3555635 35.4546237,48.7363441 C34.6308846,49.0885114 33.9891684,49.7652556 33.6812362,50.6065318 C33.3733039,51.447808 33.4264999,52.3789108 33.8282437,53.1796416 L41.2719713,69.3562724 C42.4418638,71.8933333 43.6759857,73.2215054 45.9905376,73.2215054 C48.4656631,73.2215054 49.5437993,71.7740502 50.7136918,69.3562724 C50.7136918,69.3562724 57.205448,55.2189247 57.2696774,55.0744086 C57.4156871,54.6899045 57.795107,54.4453275 58.2055914,54.4711111 C58.4809685,54.4723105 58.7444507,54.5834921 58.9374428,54.7799305 C59.1304348,54.9763688 59.236936,55.2417774 59.2332616,55.5171326 L59.2332616,69.3149821 C59.2332616,71.4758423 60.4329749,73.2490323 62.7383513,73.2490323 C65.0437276,73.2490323 66.2939068,71.4758423 66.2939068,69.3149821 L66.2939068,57.9853763 C66.2939068,56.0194982 67.594552,54.6936201 69.4319713,54.5055197 C71.5400717,54.276129 73.3499642,56.0080287 73.3499642,58.1253047 L73.3499642,69.317276 C73.3499642,71.4758423 74.5496774,73.2467384 76.8504659,73.2467384 C79.1512545,73.2467384 80.4037276,71.4758423 80.4037276,69.317276 L80.4037276,57.9853763 C80.4037276,55.8589247 81.9222939,54.4802867 84.0005735,54.4802867 C86.078853,54.4802867 87.4597849,55.9070968 87.4597849,57.9853763 L87.4597849,69.3149821 C87.4597849,71.4758423 88.6594982,73.2490323 90.9625806,73.2490323 C93.2656631,73.2490323 94.5089606,71.4758423 94.5089606,69.3149821 L94.5089606,56.4691039 C94.5089606,51.7367742 90.707957,48.4243728 86.1270251,48.4243728 C81.5460932,48.4243728 78.6810036,51.5876703 78.6810036,51.5876703 C77.1601434,49.6126165 75.0612186,48.4266667 71.5102509,48.4266667 C67.7643011,48.4266667 64.4840143,51.5876703 64.4840143,51.5876703 C62.9608602,49.6126165 60.3664516,48.4266667 58.2193548,48.4266667 C54.9000717,48.4266667 52.2551971,49.8878853 50.6494624,53.5650179 L45.8964875,64.7684588 L39.7992832,50.3948387"/>
        </g>
      </g>
      <use fill-rule="nonzero" stroke="#F897BF" stroke-dasharray="1" stroke-width="2" mask="url(#1-g)" transform="translate(77 23)" xlink:href="#1-a"/>
      <use fill-rule="nonzero" stroke="#6FEAD9" stroke-dasharray="1" stroke-width="2" mask="url(#1-h)" transform="translate(77 207)" xlink:href="#1-b"/>
      <g fill="#C41261" transform="translate(77 14)">
        <rect width="1" height="9"/>
        <rect width="1" height="9" x="159"/>
        <rect width="158" height="1" x="1" y="4"/>
      </g>
      <g fill="#C41261" transform="translate(68 183)">
        <rect width="1" height="22" x="4" y="1"/>
        <rect width="9" height="1"/>
        <rect width="9" height="1" y="23"/>
      </g>
      <g fill="#00AB9A" transform="translate(237 207)">
        <rect width="1" height="30" x="4" y="1"/>
        <rect width="9" height="1"/>
        <rect width="9" height="1" y="31"/>
      </g>
      <path fill="#C41261" d="M106.906 2.929L106.906 8 106.07 8 106.07 2.929 106.906 2.929zM106.499.96C106.796.96 107.027 1.202 107.027 1.51 107.027 1.807 106.785 2.038 106.488 2.038 106.191 2.038 105.96 1.807 105.96 1.499 105.96 1.191 106.191.96 106.499.96zM112.021 6.801L112.538 7.373C111.966 7.89 111.405 8.121 110.668 8.121 109.216 8.121 108.182 7.021 108.182 5.481 108.182 3.908 109.227 2.808 110.712 2.808 111.438 2.808 112.032 3.05 112.56 3.567L112.021 4.106C111.636 3.754 111.207 3.578 110.734 3.578 109.733 3.578 109.04 4.348 109.04 5.448 109.04 6.57 109.733 7.351 110.723 7.351 111.218 7.351 111.614 7.186 112.021 6.801zM115.805 2.808C117.301 2.808 118.368 3.919 118.368 5.481 118.368 6.966 117.224 8.121 115.772 8.121 114.265 8.121 113.209 7.021 113.209 5.459 113.209 3.886 114.265 2.808 115.805 2.808zM115.805 3.578C114.76 3.578 114.067 4.337 114.067 5.47 114.067 6.592 114.76 7.351 115.794 7.351 116.795 7.351 117.51 6.57 117.51 5.47 117.51 4.337 116.828 3.578 115.805 3.578zM119.644 2.929L120.48 2.929 120.48 3.644C120.92 3.05 121.36 2.808 121.987 2.808 122.449 2.808 122.867 2.962 123.164 3.226 123.483 3.534 123.593 3.886 123.593 4.579L123.593 8 122.757 8 122.757 4.766C122.757 4.315 122.702 4.073 122.57 3.897 122.416 3.688 122.119 3.556 121.778 3.556 121.404 3.556 121.063 3.699 120.81 3.985 120.568 4.249 120.48 4.491 120.48 4.909L120.48 8 119.644 8 119.644 2.929zM125.672 6.944C126.002 6.944 126.244 7.186 126.244 7.527 126.244 7.846 125.991 8.088 125.672 8.088 125.342 8.088 125.1 7.846 125.1 7.516 125.1 7.186 125.342 6.944 125.672 6.944zM125.672 3.776C126.002 3.776 126.244 4.018 126.244 4.359 126.244 4.678 125.991 4.92 125.672 4.92 125.342 4.92 125.1 4.678 125.1 4.348 125.1 4.018 125.342 3.776 125.672 3.776zM129.786 1.994L128.169 3.072 128.169 2.236 130.655.608 130.655 8 129.786 8 129.786 1.994zM136.54.773L134.659 3.71C134.967 3.6 135.11 3.567 135.374 3.567 136.595 3.567 137.541 4.524 137.541 5.767 137.541 7.065 136.474 8.132 135.176 8.132 133.867 8.132 132.855 7.098 132.855 5.767 132.855 5.228 132.998 4.821 133.416 4.15L135.517.773 136.54.773zM135.22 4.315C134.384 4.315 133.724 4.953 133.724 5.767 133.724 6.625 134.373 7.307 135.198 7.307 136.023 7.307 136.683 6.636 136.683 5.8 136.683 4.975 136.034 4.315 135.22 4.315zM142.876 2.874L142.876 5.789C142.876 6.614 142.722 7.12 142.359 7.505 141.974 7.912 141.391 8.121 140.698 8.121 139.983 8.121 139.389 7.901 139.004 7.483 138.619 7.076 138.52 6.658 138.52 5.547L138.52 3.127C138.52 2.17 138.63 1.719 138.96 1.323 139.323.883 139.928.641 140.676.641 141.347.641 141.897.828 142.304 1.191 142.722 1.576 142.876 2.016 142.876 2.874zM139.389 3.149L139.389 5.602C139.389 6.449 139.422 6.603 139.664 6.878 139.895 7.142 140.291 7.307 140.709 7.307 141.16 7.307 141.578 7.12 141.787 6.823 141.952 6.581 142.018 6.273 142.018 5.734L142.018 2.929C142.018 2.357 141.919 2.071 141.644 1.807 141.402 1.587 141.072 1.466 140.709 1.466 140.236 1.466 139.829 1.653 139.62 1.994 139.433 2.258 139.389 2.511 139.389 3.149zM145.901 6.163L144.548 8 143.525 8 145.395 5.481 143.492 2.929 144.548 2.929 145.901 4.788 147.287 2.929 148.31 2.929 146.396 5.481 148.222 8 147.199 8 145.901 6.163zM151.192 1.994L149.575 3.072 149.575 2.236 152.061.608 152.061 8 151.192 8 151.192 1.994zM157.946.773L156.065 3.71C156.373 3.6 156.516 3.567 156.78 3.567 158.001 3.567 158.947 4.524 158.947 5.767 158.947 7.065 157.88 8.132 156.582 8.132 155.273 8.132 154.261 7.098 154.261 5.767 154.261 5.228 154.404 4.821 154.822 4.15L156.923.773 157.946.773zM156.626 4.315C155.79 4.315 155.13 4.953 155.13 5.767 155.13 6.625 155.779 7.307 156.604 7.307 157.429 7.307 158.089 6.636 158.089 5.8 158.089 4.975 157.44 4.315 156.626 4.315zM164.282 2.874L164.282 5.789C164.282 6.614 164.128 7.12 163.765 7.505 163.38 7.912 162.797 8.121 162.104 8.121 161.389 8.121 160.795 7.901 160.41 7.483 160.025 7.076 159.926 6.658 159.926 5.547L159.926 3.127C159.926 2.17 160.036 1.719 160.366 1.323 160.729.883 161.334.641 162.082.641 162.753.641 163.303.828 163.71 1.191 164.128 1.576 164.282 2.016 164.282 2.874zM160.795 3.149L160.795 5.602C160.795 6.449 160.828 6.603 161.07 6.878 161.301 7.142 161.697 7.307 162.115 7.307 162.566 7.307 162.984 7.12 163.193 6.823 163.358 6.581 163.424 6.273 163.424 5.734L163.424 2.929C163.424 2.357 163.325 2.071 163.05 1.807 162.808 1.587 162.478 1.466 162.115 1.466 161.642 1.466 161.235 1.653 161.026 1.994 160.839 2.258 160.795 2.511 160.795 3.149zM165.69 2.929L166.526 2.929 166.526 3.853C167.01 3.105 167.527 2.808 168.374 2.808 169.782 2.808 170.761 3.886 170.761 5.426 170.761 7.021 169.782 8.121 168.374 8.121 167.978 8.121 167.615 8.033 167.263 7.857 166.955 7.703 166.801 7.571 166.526 7.208L166.526 10.376 165.69 10.376 165.69 2.929zM168.231 3.556C167.219 3.556 166.526 4.359 166.526 5.547 166.526 6.658 167.197 7.395 168.198 7.395 169.199 7.395 169.87 6.614 169.87 5.459 169.87 4.865 169.727 4.414 169.43 4.084 169.133 3.754 168.682 3.556 168.231 3.556zM173.643 6.163L172.29 8 171.267 8 173.137 5.481 171.234 2.929 172.29 2.929 173.643 4.788 175.029 2.929 176.052 2.929 174.138 5.481 175.964 8 174.941 8 173.643 6.163zM182.311 10.046L181.761 10.574C180.463 8.979 179.869 7.428 179.869 5.58 179.869 3.688 180.562 1.818 181.783.443L182.311.993C181.2 2.368 180.65 3.897 180.65 5.547 180.65 7.153 181.244 8.759 182.311 10.046zM184.467 3.666L184.467 8 183.631 8 183.631 3.666 182.938 3.666 182.938 2.929 183.631 2.929 183.631 2.247C183.631 1.246 184.148.652 185.028.652 185.072.652 185.171.652 185.259.663L185.259 1.411C184.654 1.477 184.489 1.653 184.467 2.247L184.467 2.929 185.259 2.929 185.259 3.666 184.467 3.666zM187.459 2.929L187.459 8 186.623 8 186.623 2.929 187.459 2.929zM187.041.96C187.338.96 187.569 1.202 187.569 1.51 187.569 1.807 187.338 2.038 187.041 2.038 186.733 2.038 186.502 1.807 186.502 1.499 186.502 1.191 186.733.96 187.041.96zM190.759 6.163L189.406 8 188.383 8 190.253 5.481 188.35 2.929 189.406 2.929 190.759 4.788 192.145 2.929 193.168 2.929 191.254 5.481 193.08 8 192.057 8 190.759 6.163zM198.756 5.734L194.532 5.734C194.576 6.163 194.653 6.383 194.862 6.658 195.192 7.109 195.676 7.351 196.226 7.351 196.853 7.351 197.447 7.01 197.744 6.482L198.481 6.757C198.063 7.604 197.194 8.121 196.226 8.121 194.719 8.121 193.641 7.021 193.641 5.481 193.641 3.919 194.708 2.808 196.193 2.808 197.667 2.808 198.767 3.919 198.767 5.404 198.767 5.47 198.767 5.613 198.756 5.734zM194.543 5.118L197.876 5.118C197.843 4.722 197.766 4.502 197.59 4.249 197.271 3.82 196.754 3.556 196.193 3.556 195.632 3.556 195.126 3.82 194.829 4.26 194.675 4.502 194.609 4.711 194.543 5.118zM203.772 3.699L203.772.663 204.608.663 204.608 8 203.772 8 203.772 7.131C203.266 7.824 202.727 8.121 201.957 8.121 200.56 8.121 199.57 7.032 199.57 5.492 199.57 3.952 200.582 2.808 201.957 2.808 202.705 2.808 203.277 3.083 203.772 3.699zM202.133 3.556C201.132 3.556 200.45 4.348 200.45 5.503 200.45 6.614 201.121 7.395 202.078 7.395 203.057 7.395 203.772 6.581 203.772 5.481 203.772 4.337 203.101 3.556 202.133 3.556zM205.84.971L206.39.443C207.699 2.049 208.282 3.589 208.282 5.437 208.282 7.34 207.589 9.188 206.368 10.574L205.84 10.024C206.951 8.649 207.501 7.12 207.501 5.47 207.501 3.853 206.918 2.269 205.84.971zM.354 186.929L1.19 186.929 1.19 187.853C1.674 187.105 2.191 186.808 3.038 186.808 4.446 186.808 5.425 187.886 5.425 189.426 5.425 191.021 4.446 192.121 3.038 192.121 2.642 192.121 2.279 192.033 1.927 191.857 1.619 191.703 1.465 191.571 1.19 191.208L1.19 194.376.354 194.376.354 186.929zM2.895 187.556C1.883 187.556 1.19 188.359 1.19 189.547 1.19 190.658 1.861 191.395 2.862 191.395 3.863 191.395 4.534 190.614 4.534 189.459 4.534 188.865 4.391 188.414 4.094 188.084 3.797 187.754 3.346 187.556 2.895 187.556zM10.518 187.765L10.518 186.929 11.354 186.929 11.354 192 10.518 192 10.518 191.021C10.012 191.78 9.44 192.121 8.67 192.121 7.273 192.121 6.283 191.021 6.283 189.481 6.283 187.93 7.295 186.808 8.692 186.808 9.462 186.808 10.023 187.105 10.518 187.765zM8.813 187.556C8.263 187.556 7.878 187.743 7.581 188.161 7.317 188.524 7.163 189.008 7.163 189.503 7.163 190.581 7.867 191.395 8.791 191.395 9.748 191.395 10.529 190.504 10.529 189.415 10.529 188.315 9.825 187.556 8.813 187.556zM16.832 187.699L16.832 184.663 17.668 184.663 17.668 192 16.832 192 16.832 191.131C16.326 191.824 15.787 192.121 15.017 192.121 13.62 192.121 12.63 191.032 12.63 189.492 12.63 187.952 13.642 186.808 15.017 186.808 15.765 186.808 16.337 187.083 16.832 187.699zM15.193 187.556C14.192 187.556 13.51 188.348 13.51 189.503 13.51 190.614 14.181 191.395 15.138 191.395 16.117 191.395 16.832 190.581 16.832 189.481 16.832 188.337 16.161 187.556 15.193 187.556zM23.146 187.699L23.146 184.663 23.982 184.663 23.982 192 23.146 192 23.146 191.131C22.64 191.824 22.101 192.121 21.331 192.121 19.934 192.121 18.944 191.032 18.944 189.492 18.944 187.952 19.956 186.808 21.331 186.808 22.079 186.808 22.651 187.083 23.146 187.699zM21.507 187.556C20.506 187.556 19.824 188.348 19.824 189.503 19.824 190.614 20.495 191.395 21.452 191.395 22.431 191.395 23.146 190.581 23.146 189.481 23.146 188.337 22.475 187.556 21.507 187.556zM26.501 186.929L26.501 192 25.665 192 25.665 186.929 26.501 186.929zM26.094 184.96C26.391 184.96 26.622 185.202 26.622 185.51 26.622 185.807 26.38 186.038 26.083 186.038 25.786 186.038 25.555 185.807 25.555 185.499 25.555 185.191 25.786 184.96 26.094 184.96zM28.184 186.929L29.02 186.929 29.02 187.644C29.46 187.05 29.9 186.808 30.527 186.808 30.989 186.808 31.407 186.962 31.704 187.226 32.023 187.534 32.133 187.886 32.133 188.579L32.133 192 31.297 192 31.297 188.766C31.297 188.315 31.242 188.073 31.11 187.897 30.956 187.688 30.659 187.556 30.318 187.556 29.944 187.556 29.603 187.699 29.35 187.985 29.108 188.249 29.02 188.491 29.02 188.909L29.02 192 28.184 192 28.184 186.929zM37.534 187.798L37.534 186.929 38.37 186.929 38.37 192.033C38.37 192.88 38.161 193.452 37.699 193.892 37.248 194.332 36.599 194.563 35.829 194.563 34.883 194.563 34.135 194.255 33.585 193.639L34.157 193.067C34.388 193.309 34.498 193.408 34.641 193.507 34.927 193.683 35.4 193.804 35.829 193.804 36.357 193.804 36.863 193.617 37.149 193.309 37.402 193.034 37.534 192.627 37.534 192.099L37.534 191.032C37.039 191.78 36.456 192.121 35.664 192.121 34.322 192.121 33.321 190.988 33.321 189.481 33.321 188.667 33.618 187.886 34.124 187.402 34.531 187.006 35.081 186.808 35.73 186.808 36.5 186.808 37.017 187.094 37.534 187.798zM35.884 187.578C34.894 187.578 34.201 188.348 34.201 189.448 34.201 190.537 34.905 191.351 35.862 191.351 36.346 191.351 36.819 191.12 37.149 190.735 37.369 190.482 37.512 189.987 37.512 189.481 37.512 188.821 37.413 188.469 37.116 188.139 36.808 187.798 36.335 187.578 35.884 187.578zM40.482 190.944C40.812 190.944 41.054 191.186 41.054 191.527 41.054 191.846 40.801 192.088 40.482 192.088 40.152 192.088 39.91 191.846 39.91 191.516 39.91 191.186 40.152 190.944 40.482 190.944zM40.482 187.776C40.812 187.776 41.054 188.018 41.054 188.359 41.054 188.678 40.801 188.92 40.482 188.92 40.152 188.92 39.91 188.678 39.91 188.348 39.91 188.018 40.152 187.776 40.482 187.776zM43.76 191.197L46.345 191.197 46.345 192 42.231 192 44.783 188.348C45.52 187.281 45.685 186.951 45.685 186.511 45.685 185.873 45.179 185.422 44.464 185.422 43.969 185.422 43.562 185.653 43.397 186.038 43.309 186.247 43.276 186.412 43.265 186.797L42.44 186.797C42.484 185.4 43.221 184.63 44.53 184.63 45.729 184.63 46.565 185.378 46.565 186.445 46.565 187.061 46.345 187.6 45.729 188.458L43.76 191.197zM50.624 190.35L47.687 190.35 47.687 189.668 51.471 184.564 51.471 189.558 52.329 189.558 52.329 190.35 51.471 190.35 51.471 192 50.624 192 50.624 190.35zM50.624 189.558L50.624 186.753 48.567 189.558 50.624 189.558zM53.594 186.929L54.43 186.929 54.43 187.853C54.914 187.105 55.431 186.808 56.278 186.808 57.686 186.808 58.665 187.886 58.665 189.426 58.665 191.021 57.686 192.121 56.278 192.121 55.882 192.121 55.519 192.033 55.167 191.857 54.859 191.703 54.705 191.571 54.43 191.208L54.43 194.376 53.594 194.376 53.594 186.929zM56.135 187.556C55.123 187.556 54.43 188.359 54.43 189.547 54.43 190.658 55.101 191.395 56.102 191.395 57.103 191.395 57.774 190.614 57.774 189.459 57.774 188.865 57.631 188.414 57.334 188.084 57.037 187.754 56.586 187.556 56.135 187.556zM61.547 190.163L60.194 192 59.171 192 61.041 189.481 59.138 186.929 60.194 186.929 61.547 188.788 62.933 186.929 63.956 186.929 62.042 189.481 63.868 192 62.845 192 61.547 190.163zM37.545 208.046L36.995 208.574C35.697 206.979 35.103 205.428 35.103 203.58 35.103 201.688 35.796 199.818 37.017 198.443L37.545 198.993C36.434 200.368 35.884 201.897 35.884 203.547 35.884 205.153 36.478 206.759 37.545 208.046zM39.701 201.666L39.701 206 38.865 206 38.865 201.666 38.172 201.666 38.172 200.929 38.865 200.929 38.865 200.247C38.865 199.246 39.382 198.652 40.262 198.652 40.306 198.652 40.405 198.652 40.493 198.663L40.493 199.411C39.888 199.477 39.723 199.653 39.701 200.247L39.701 200.929 40.493 200.929 40.493 201.666 39.701 201.666zM42.693 200.929L42.693 206 41.857 206 41.857 200.929 42.693 200.929zM42.275 198.96C42.572 198.96 42.803 199.202 42.803 199.51 42.803 199.807 42.572 200.038 42.275 200.038 41.967 200.038 41.736 199.807 41.736 199.499 41.736 199.191 41.967 198.96 42.275 198.96zM45.993 204.163L44.64 206 43.617 206 45.487 203.481 43.584 200.929 44.64 200.929 45.993 202.788 47.379 200.929 48.402 200.929 46.488 203.481 48.314 206 47.291 206 45.993 204.163zM53.99 203.734L49.766 203.734C49.81 204.163 49.887 204.383 50.096 204.658 50.426 205.109 50.91 205.351 51.46 205.351 52.087 205.351 52.681 205.01 52.978 204.482L53.715 204.757C53.297 205.604 52.428 206.121 51.46 206.121 49.953 206.121 48.875 205.021 48.875 203.481 48.875 201.919 49.942 200.808 51.427 200.808 52.901 200.808 54.001 201.919 54.001 203.404 54.001 203.47 54.001 203.613 53.99 203.734zM49.777 203.118L53.11 203.118C53.077 202.722 53 202.502 52.824 202.249 52.505 201.82 51.988 201.556 51.427 201.556 50.866 201.556 50.36 201.82 50.063 202.26 49.909 202.502 49.843 202.711 49.777 203.118zM59.006 201.699L59.006 198.663 59.842 198.663 59.842 206 59.006 206 59.006 205.131C58.5 205.824 57.961 206.121 57.191 206.121 55.794 206.121 54.804 205.032 54.804 203.492 54.804 201.952 55.816 200.808 57.191 200.808 57.939 200.808 58.511 201.083 59.006 201.699zM57.367 201.556C56.366 201.556 55.684 202.348 55.684 203.503 55.684 204.614 56.355 205.395 57.312 205.395 58.291 205.395 59.006 204.581 59.006 203.481 59.006 202.337 58.335 201.556 57.367 201.556zM61.074 198.971L61.624 198.443C62.933 200.049 63.516 201.589 63.516 203.437 63.516 205.34 62.823 207.188 61.602 208.574L61.074 208.024C62.185 206.649 62.735 205.12 62.735 203.47 62.735 201.853 62.152 200.269 61.074 198.971z"/>
      <path fill="#00AB9A" d="M251.837 216.755L251.837 220 250.913 220 250.913 212.663 251.837 212.663 251.837 215.963 255.412 215.963 255.412 212.663 256.336 212.663 256.336 220 255.412 220 255.412 216.755 251.837 216.755zM262.793 217.734L258.569 217.734C258.613 218.163 258.69 218.383 258.899 218.658 259.229 219.109 259.713 219.351 260.263 219.351 260.89 219.351 261.484 219.01 261.781 218.482L262.518 218.757C262.1 219.604 261.231 220.121 260.263 220.121 258.756 220.121 257.678 219.021 257.678 217.481 257.678 215.919 258.745 214.808 260.23 214.808 261.704 214.808 262.804 215.919 262.804 217.404 262.804 217.47 262.804 217.613 262.793 217.734zM258.58 217.118L261.913 217.118C261.88 216.722 261.803 216.502 261.627 216.249 261.308 215.82 260.791 215.556 260.23 215.556 259.669 215.556 259.163 215.82 258.866 216.26 258.712 216.502 258.646 216.711 258.58 217.118zM264.85 214.929L264.85 220 264.014 220 264.014 214.929 264.85 214.929zM264.443 212.96C264.74 212.96 264.971 213.202 264.971 213.51 264.971 213.807 264.729 214.038 264.432 214.038 264.135 214.038 263.904 213.807 263.904 213.499 263.904 213.191 264.135 212.96 264.443 212.96zM270.284 215.798L270.284 214.929 271.12 214.929 271.12 220.033C271.12 220.88 270.911 221.452 270.449 221.892 269.998 222.332 269.349 222.563 268.579 222.563 267.633 222.563 266.885 222.255 266.335 221.639L266.907 221.067C267.138 221.309 267.248 221.408 267.391 221.507 267.677 221.683 268.15 221.804 268.579 221.804 269.107 221.804 269.613 221.617 269.899 221.309 270.152 221.034 270.284 220.627 270.284 220.099L270.284 219.032C269.789 219.78 269.206 220.121 268.414 220.121 267.072 220.121 266.071 218.988 266.071 217.481 266.071 216.667 266.368 215.886 266.874 215.402 267.281 215.006 267.831 214.808 268.48 214.808 269.25 214.808 269.767 215.094 270.284 215.798zM268.634 215.578C267.644 215.578 266.951 216.348 266.951 217.448 266.951 218.537 267.655 219.351 268.612 219.351 269.096 219.351 269.569 219.12 269.899 218.735 270.119 218.482 270.262 217.987 270.262 217.481 270.262 216.821 270.163 216.469 269.866 216.139 269.558 215.798 269.085 215.578 268.634 215.578zM273.639 212.663L273.639 215.633C274.101 215.061 274.563 214.808 275.168 214.808 275.608 214.808 276.07 214.984 276.345 215.27 276.62 215.545 276.741 215.941 276.741 216.59L276.741 220 275.905 220 275.905 216.634C275.905 215.941 275.564 215.556 274.959 215.556 274.574 215.556 274.233 215.71 273.969 216.007 273.716 216.293 273.639 216.546 273.639 217.03L273.639 220 272.803 220 272.803 212.663 273.639 212.663zM279.282 215.666L279.282 218.966C279.293 219.219 279.359 219.274 279.667 219.274L280.052 219.274 280.052 220 279.271 220C278.677 219.989 278.446 219.769 278.446 219.208L278.446 215.666 277.742 215.666 277.742 214.929 278.446 214.929 278.446 213.334 279.282 213.334 279.282 214.929 280.052 214.929 280.052 215.666 279.282 215.666zM281.669 218.944C281.999 218.944 282.241 219.186 282.241 219.527 282.241 219.846 281.988 220.088 281.669 220.088 281.339 220.088 281.097 219.846 281.097 219.516 281.097 219.186 281.339 218.944 281.669 218.944zM281.669 215.776C281.999 215.776 282.241 216.018 282.241 216.359 282.241 216.678 281.988 216.92 281.669 216.92 281.339 216.92 281.097 216.678 281.097 216.348 281.097 216.018 281.339 215.776 281.669 215.776zM286.3 213.565L283.737 213.565 283.737 212.773 287.895 212.773 285.739 215.512C287.015 215.512 287.917 216.425 287.917 217.723 287.917 219.098 286.883 220.121 285.486 220.121 284.331 220.121 283.506 219.472 283.253 218.361L284.045 218.218C284.243 218.922 284.76 219.318 285.442 219.318 286.333 219.318 287.037 218.647 287.037 217.789 287.037 216.909 286.377 216.293 285.42 216.293 285.079 216.293 284.859 216.359 284.54 216.546L284.177 216.227 286.3 213.565zM290.447 219.197L293.032 219.197 293.032 220 288.918 220 291.47 216.348C292.207 215.281 292.372 214.951 292.372 214.511 292.372 213.873 291.866 213.422 291.151 213.422 290.656 213.422 290.249 213.653 290.084 214.038 289.996 214.247 289.963 214.412 289.952 214.797L289.127 214.797C289.171 213.4 289.908 212.63 291.217 212.63 292.416 212.63 293.252 213.378 293.252 214.445 293.252 215.061 293.032 215.6 292.416 216.458L290.447 219.197zM294.781 214.929L295.617 214.929 295.617 215.853C296.101 215.105 296.618 214.808 297.465 214.808 298.873 214.808 299.852 215.886 299.852 217.426 299.852 219.021 298.873 220.121 297.465 220.121 297.069 220.121 296.706 220.033 296.354 219.857 296.046 219.703 295.892 219.571 295.617 219.208L295.617 222.376 294.781 222.376 294.781 214.929zM297.322 215.556C296.31 215.556 295.617 216.359 295.617 217.547 295.617 218.658 296.288 219.395 297.289 219.395 298.29 219.395 298.961 218.614 298.961 217.459 298.961 216.865 298.818 216.414 298.521 216.084 298.224 215.754 297.773 215.556 297.322 215.556zM302.734 218.163L301.381 220 300.358 220 302.228 217.481 300.325 214.929 301.381 214.929 302.734 216.788 304.12 214.929 305.143 214.929 303.229 217.481 305.055 220 304.032 220 302.734 218.163zM252.915 236.046L252.365 236.574C251.067 234.979 250.473 233.428 250.473 231.58 250.473 229.688 251.166 227.818 252.387 226.443L252.915 226.993C251.804 228.368 251.254 229.897 251.254 231.547 251.254 233.153 251.848 234.759 252.915 236.046zM255.071 229.666L255.071 234 254.235 234 254.235 229.666 253.542 229.666 253.542 228.929 254.235 228.929 254.235 228.247C254.235 227.246 254.752 226.652 255.632 226.652 255.676 226.652 255.775 226.652 255.863 226.663L255.863 227.411C255.258 227.477 255.093 227.653 255.071 228.247L255.071 228.929 255.863 228.929 255.863 229.666 255.071 229.666zM258.063 228.929L258.063 234 257.227 234 257.227 228.929 258.063 228.929zM257.645 226.96C257.942 226.96 258.173 227.202 258.173 227.51 258.173 227.807 257.942 228.038 257.645 228.038 257.337 228.038 257.106 227.807 257.106 227.499 257.106 227.191 257.337 226.96 257.645 226.96zM261.363 232.163L260.01 234 258.987 234 260.857 231.481 258.954 228.929 260.01 228.929 261.363 230.788 262.749 228.929 263.772 228.929 261.858 231.481 263.684 234 262.661 234 261.363 232.163zM269.36 231.734L265.136 231.734C265.18 232.163 265.257 232.383 265.466 232.658 265.796 233.109 266.28 233.351 266.83 233.351 267.457 233.351 268.051 233.01 268.348 232.482L269.085 232.757C268.667 233.604 267.798 234.121 266.83 234.121 265.323 234.121 264.245 233.021 264.245 231.481 264.245 229.919 265.312 228.808 266.797 228.808 268.271 228.808 269.371 229.919 269.371 231.404 269.371 231.47 269.371 231.613 269.36 231.734zM265.147 231.118L268.48 231.118C268.447 230.722 268.37 230.502 268.194 230.249 267.875 229.82 267.358 229.556 266.797 229.556 266.236 229.556 265.73 229.82 265.433 230.26 265.279 230.502 265.213 230.711 265.147 231.118zM274.376 229.699L274.376 226.663 275.212 226.663 275.212 234 274.376 234 274.376 233.131C273.87 233.824 273.331 234.121 272.561 234.121 271.164 234.121 270.174 233.032 270.174 231.492 270.174 229.952 271.186 228.808 272.561 228.808 273.309 228.808 273.881 229.083 274.376 229.699zM272.737 229.556C271.736 229.556 271.054 230.348 271.054 231.503 271.054 232.614 271.725 233.395 272.682 233.395 273.661 233.395 274.376 232.581 274.376 231.481 274.376 230.337 273.705 229.556 272.737 229.556zM276.444 226.971L276.994 226.443C278.303 228.049 278.886 229.589 278.886 231.437 278.886 233.34 278.193 235.188 276.972 236.574L276.444 236.024C277.555 234.649 278.105 233.12 278.105 231.47 278.105 229.853 277.522 228.269 276.444 226.971zM89.1245 263.929L89.9605 263.929 89.9605 264.644C90.4005 264.05 90.8405 263.808 91.4675 263.808 91.9295 263.808 92.3475 263.962 92.6445 264.226 92.9635 264.534 93.0735 264.886 93.0735 265.579L93.0735 269 92.2375 269 92.2375 265.766C92.2375 265.315 92.1825 265.073 92.0505 264.897 91.8965 264.688 91.5995 264.556 91.2585 264.556 90.8845 264.556 90.5435 264.699 90.2905 264.985 90.0485 265.249 89.9605 265.491 89.9605 265.909L89.9605 269 89.1245 269 89.1245 263.929zM96.9125 263.808C98.4085 263.808 99.4755 264.919 99.4755 266.481 99.4755 267.966 98.3315 269.121 96.8795 269.121 95.3725 269.121 94.3165 268.021 94.3165 266.459 94.3165 264.886 95.3725 263.808 96.9125 263.808zM96.9125 264.578C95.8675 264.578 95.1745 265.337 95.1745 266.47 95.1745 267.592 95.8675 268.351 96.9015 268.351 97.9025 268.351 98.6175 267.57 98.6175 266.47 98.6175 265.337 97.9355 264.578 96.9125 264.578zM104.9755 264.666L104.9755 269 104.1395 269 104.1395 264.666 103.4465 264.666 103.4465 263.929 104.1395 263.929 104.1395 263.247C104.1395 262.246 104.6565 261.652 105.5365 261.652 105.5805 261.652 105.6795 261.652 105.7675 261.663L105.7675 262.411C105.1625 262.477 104.9975 262.653 104.9755 263.247L104.9755 263.929 105.7675 263.929 105.7675 264.666 104.9755 264.666zM107.9675 263.929L107.9675 269 107.1315 269 107.1315 263.929 107.9675 263.929zM107.5495 261.96C107.8465 261.96 108.0775 262.202 108.0775 262.51 108.0775 262.807 107.8465 263.038 107.5495 263.038 107.2415 263.038 107.0105 262.807 107.0105 262.499 107.0105 262.191 107.2415 261.96 107.5495 261.96zM111.2675 267.163L109.9145 269 108.8915 269 110.7615 266.481 108.8585 263.929 109.9145 263.929 111.2675 265.788 112.6535 263.929 113.6765 263.929 111.7625 266.481 113.5885 269 112.5655 269 111.2675 267.163zM119.2645 266.734L115.0405 266.734C115.0845 267.163 115.1615 267.383 115.3705 267.658 115.7005 268.109 116.1845 268.351 116.7345 268.351 117.3615 268.351 117.9555 268.01 118.2525 267.482L118.9895 267.757C118.5715 268.604 117.7025 269.121 116.7345 269.121 115.2275 269.121 114.1495 268.021 114.1495 266.481 114.1495 264.919 115.2165 263.808 116.7015 263.808 118.1755 263.808 119.2755 264.919 119.2755 266.404 119.2755 266.47 119.2755 266.613 119.2645 266.734zM115.0515 266.118L118.3845 266.118C118.3515 265.722 118.2745 265.502 118.0985 265.249 117.7795 264.82 117.2625 264.556 116.7015 264.556 116.1405 264.556 115.6345 264.82 115.3375 265.26 115.1835 265.502 115.1175 265.711 115.0515 266.118zM124.2805 264.699L124.2805 261.663 125.1165 261.663 125.1165 269 124.2805 269 124.2805 268.131C123.7745 268.824 123.2355 269.121 122.4655 269.121 121.0685 269.121 120.0785 268.032 120.0785 266.492 120.0785 264.952 121.0905 263.808 122.4655 263.808 123.2135 263.808 123.7855 264.083 124.2805 264.699zM122.6415 264.556C121.6405 264.556 120.9585 265.348 120.9585 266.503 120.9585 267.614 121.6295 268.395 122.5865 268.395 123.5655 268.395 124.2805 267.581 124.2805 266.481 124.2805 265.337 123.6095 264.556 122.6415 264.556zM135.9515 263.929L136.8095 263.929 135.0055 269 134.2465 269 133.0805 265.15 131.8595 269 131.0675 269 129.3295 263.929 130.1875 263.929 131.4855 267.658 132.6515 263.929 133.4765 263.929 134.6205 267.658 135.9515 263.929zM138.5475 263.929L138.5475 269 137.7115 269 137.7115 263.929 138.5475 263.929zM138.1405 261.96C138.4375 261.96 138.6685 262.202 138.6685 262.51 138.6685 262.807 138.4265 263.038 138.1295 263.038 137.8325 263.038 137.6015 262.807 137.6015 262.499 137.6015 262.191 137.8325 261.96 138.1405 261.96zM144.0255 264.699L144.0255 261.663 144.8615 261.663 144.8615 269 144.0255 269 144.0255 268.131C143.5195 268.824 142.9805 269.121 142.2105 269.121 140.8135 269.121 139.8235 268.032 139.8235 266.492 139.8235 264.952 140.8355 263.808 142.2105 263.808 142.9585 263.808 143.5305 264.083 144.0255 264.699zM142.3865 264.556C141.3855 264.556 140.7035 265.348 140.7035 266.503 140.7035 267.614 141.3745 268.395 142.3315 268.395 143.3105 268.395 144.0255 267.581 144.0255 266.481 144.0255 265.337 143.3545 264.556 142.3865 264.556zM147.4355 264.666L147.4355 267.966C147.4465 268.219 147.5125 268.274 147.8205 268.274L148.2055 268.274 148.2055 269 147.4245 269C146.8305 268.989 146.5995 268.769 146.5995 268.208L146.5995 264.666 145.8955 264.666 145.8955 263.929 146.5995 263.929 146.5995 262.334 147.4355 262.334 147.4355 263.929 148.2055 263.929 148.2055 264.666 147.4355 264.666zM150.2295 261.663L150.2295 264.633C150.6915 264.061 151.1535 263.808 151.7585 263.808 152.1985 263.808 152.6605 263.984 152.9355 264.27 153.2105 264.545 153.3315 264.941 153.3315 265.59L153.3315 269 152.4955 269 152.4955 265.634C152.4955 264.941 152.1545 264.556 151.5495 264.556 151.1645 264.556 150.8235 264.71 150.5595 265.007 150.3065 265.293 150.2295 265.546 150.2295 266.03L150.2295 269 149.3935 269 149.3935 261.663 150.2295 261.663zM156.0045 268.142L154.8935 270.749 154.2885 270.562 155.2125 267.889 156.0045 268.142zM164.6175 264.699L164.6175 261.663 165.4535 261.663 165.4535 269 164.6175 269 164.6175 268.131C164.1115 268.824 163.5725 269.121 162.8025 269.121 161.4055 269.121 160.4155 268.032 160.4155 266.492 160.4155 264.952 161.4275 263.808 162.8025 263.808 163.5505 263.808 164.1225 264.083 164.6175 264.699zM162.9785 264.556C161.9775 264.556 161.2955 265.348 161.2955 266.503 161.2955 267.614 161.9665 268.395 162.9235 268.395 163.9025 268.395 164.6175 267.581 164.6175 266.481 164.6175 265.337 163.9465 264.556 162.9785 264.556zM171.8445 266.734L167.6205 266.734C167.6645 267.163 167.7415 267.383 167.9505 267.658 168.2805 268.109 168.7645 268.351 169.3145 268.351 169.9415 268.351 170.5355 268.01 170.8325 267.482L171.5695 267.757C171.1515 268.604 170.2825 269.121 169.3145 269.121 167.8075 269.121 166.7295 268.021 166.7295 266.481 166.7295 264.919 167.7965 263.808 169.2815 263.808 170.7555 263.808 171.8555 264.919 171.8555 266.404 171.8555 266.47 171.8555 266.613 171.8445 266.734zM167.6315 266.118L170.9645 266.118C170.9315 265.722 170.8545 265.502 170.6785 265.249 170.3595 264.82 169.8425 264.556 169.2815 264.556 168.7205 264.556 168.2145 264.82 167.9175 265.26 167.7635 265.502 167.6975 265.711 167.6315 266.118zM173.0655 263.929L173.9015 263.929 173.9015 264.853C174.3855 264.105 174.9025 263.808 175.7495 263.808 177.1575 263.808 178.1365 264.886 178.1365 266.426 178.1365 268.021 177.1575 269.121 175.7495 269.121 175.3535 269.121 174.9905 269.033 174.6385 268.857 174.3305 268.703 174.1765 268.571 173.9015 268.208L173.9015 271.376 173.0655 271.376 173.0655 263.929zM175.6065 264.556C174.5945 264.556 173.9015 265.359 173.9015 266.547 173.9015 267.658 174.5725 268.395 175.5735 268.395 176.5745 268.395 177.2455 267.614 177.2455 266.459 177.2455 265.865 177.1025 265.414 176.8055 265.084 176.5085 264.754 176.0575 264.556 175.6065 264.556zM184.1095 266.734L179.8855 266.734C179.9295 267.163 180.0065 267.383 180.2155 267.658 180.5455 268.109 181.0295 268.351 181.5795 268.351 182.2065 268.351 182.8005 268.01 183.0975 267.482L183.8345 267.757C183.4165 268.604 182.5475 269.121 181.5795 269.121 180.0725 269.121 178.9945 268.021 178.9945 266.481 178.9945 264.919 180.0615 263.808 181.5465 263.808 183.0205 263.808 184.1205 264.919 184.1205 266.404 184.1205 266.47 184.1205 266.613 184.1095 266.734zM179.8965 266.118L183.2295 266.118C183.1965 265.722 183.1195 265.502 182.9435 265.249 182.6245 264.82 182.1075 264.556 181.5465 264.556 180.9855 264.556 180.4795 264.82 180.1825 265.26 180.0285 265.502 179.9625 265.711 179.8965 266.118zM185.3305 263.929L186.1665 263.929 186.1665 264.644C186.6065 264.05 187.0465 263.808 187.6735 263.808 188.1355 263.808 188.5535 263.962 188.8505 264.226 189.1695 264.534 189.2795 264.886 189.2795 265.579L189.2795 269 188.4435 269 188.4435 265.766C188.4435 265.315 188.3885 265.073 188.2565 264.897 188.1025 264.688 187.8055 264.556 187.4645 264.556 187.0905 264.556 186.7495 264.699 186.4965 264.985 186.2545 265.249 186.1665 265.491 186.1665 265.909L186.1665 269 185.3305 269 185.3305 263.929zM194.7245 264.699L194.7245 261.663 195.5605 261.663 195.5605 269 194.7245 269 194.7245 268.131C194.2185 268.824 193.6795 269.121 192.9095 269.121 191.5125 269.121 190.5225 268.032 190.5225 266.492 190.5225 264.952 191.5345 263.808 192.9095 263.808 193.6575 263.808 194.2295 264.083 194.7245 264.699zM193.0855 264.556C192.0845 264.556 191.4025 265.348 191.4025 266.503 191.4025 267.614 192.0735 268.395 193.0305 268.395 194.0095 268.395 194.7245 267.581 194.7245 266.481 194.7245 265.337 194.0535 264.556 193.0855 264.556zM201.9515 266.734L197.7275 266.734C197.7715 267.163 197.8485 267.383 198.0575 267.658 198.3875 268.109 198.8715 268.351 199.4215 268.351 200.0485 268.351 200.6425 268.01 200.9395 267.482L201.6765 267.757C201.2585 268.604 200.3895 269.121 199.4215 269.121 197.9145 269.121 196.8365 268.021 196.8365 266.481 196.8365 264.919 197.9035 263.808 199.3885 263.808 200.8625 263.808 201.9625 264.919 201.9625 266.404 201.9625 266.47 201.9625 266.613 201.9515 266.734zM197.7385 266.118L201.0715 266.118C201.0385 265.722 200.9615 265.502 200.7855 265.249 200.4665 264.82 199.9495 264.556 199.3885 264.556 198.8275 264.556 198.3215 264.82 198.0245 265.26 197.8705 265.502 197.8045 265.711 197.7385 266.118zM203.1725 263.929L204.0085 263.929 204.0085 264.644C204.4485 264.05 204.8885 263.808 205.5155 263.808 205.9775 263.808 206.3955 263.962 206.6925 264.226 207.0115 264.534 207.1215 264.886 207.1215 265.579L207.1215 269 206.2855 269 206.2855 265.766C206.2855 265.315 206.2305 265.073 206.0985 264.897 205.9445 264.688 205.6475 264.556 205.3065 264.556 204.9325 264.556 204.5915 264.699 204.3385 264.985 204.0965 265.249 204.0085 265.491 204.0085 265.909L204.0085 269 203.1725 269 203.1725 263.929zM209.6625 264.666L209.6625 267.966C209.6735 268.219 209.7395 268.274 210.0475 268.274L210.4325 268.274 210.4325 269 209.6515 269C209.0575 268.989 208.8265 268.769 208.8265 268.208L208.8265 264.666 208.1225 264.666 208.1225 263.929 208.8265 263.929 208.8265 262.334 209.6625 262.334 209.6625 263.929 210.4325 263.929 210.4325 264.666 209.6625 264.666zM217.1095 263.808C218.6055 263.808 219.6725 264.919 219.6725 266.481 219.6725 267.966 218.5285 269.121 217.0765 269.121 215.5695 269.121 214.5135 268.021 214.5135 266.459 214.5135 264.886 215.5695 263.808 217.1095 263.808zM217.1095 264.578C216.0645 264.578 215.3715 265.337 215.3715 266.47 215.3715 267.592 216.0645 268.351 217.0985 268.351 218.0995 268.351 218.8145 267.57 218.8145 266.47 218.8145 265.337 218.1325 264.578 217.1095 264.578zM220.9485 263.929L221.7845 263.929 221.7845 264.644C222.2245 264.05 222.6645 263.808 223.2915 263.808 223.7535 263.808 224.1715 263.962 224.4685 264.226 224.7875 264.534 224.8975 264.886 224.8975 265.579L224.8975 269 224.0615 269 224.0615 265.766C224.0615 265.315 224.0065 265.073 223.8745 264.897 223.7205 264.688 223.4235 264.556 223.0825 264.556 222.7085 264.556 222.3675 264.699 222.1145 264.985 221.8725 265.249 221.7845 265.491 221.7845 265.909L221.7845 269 220.9485 269 220.9485 263.929zM112.2135 283L111.3775 283 111.3775 275.663 112.2135 275.663 112.2135 283zM118.6045 280.734L114.3805 280.734C114.4245 281.163 114.5015 281.383 114.7105 281.658 115.0405 282.109 115.5245 282.351 116.0745 282.351 116.7015 282.351 117.2955 282.01 117.5925 281.482L118.3295 281.757C117.9115 282.604 117.0425 283.121 116.0745 283.121 114.5675 283.121 113.4895 282.021 113.4895 280.481 113.4895 278.919 114.5565 277.808 116.0415 277.808 117.5155 277.808 118.6155 278.919 118.6155 280.404 118.6155 280.47 118.6155 280.613 118.6045 280.734zM114.3915 280.118L117.7245 280.118C117.6915 279.722 117.6145 279.502 117.4385 279.249 117.1195 278.82 116.6025 278.556 116.0415 278.556 115.4805 278.556 114.9745 278.82 114.6775 279.26 114.5235 279.502 114.4575 279.711 114.3915 280.118zM119.8255 277.929L120.6615 277.929 120.6615 278.644C121.1015 278.05 121.5415 277.808 122.1685 277.808 122.6305 277.808 123.0485 277.962 123.3455 278.226 123.6645 278.534 123.7745 278.886 123.7745 279.579L123.7745 283 122.9385 283 122.9385 279.766C122.9385 279.315 122.8835 279.073 122.7515 278.897 122.5975 278.688 122.3005 278.556 121.9595 278.556 121.5855 278.556 121.2445 278.699 120.9915 278.985 120.7495 279.249 120.6615 279.491 120.6615 279.909L120.6615 283 119.8255 283 119.8255 277.929zM129.1755 278.798L129.1755 277.929 130.0115 277.929 130.0115 283.033C130.0115 283.88 129.8025 284.452 129.3405 284.892 128.8895 285.332 128.2405 285.563 127.4705 285.563 126.5245 285.563 125.7765 285.255 125.2265 284.639L125.7985 284.067C126.0295 284.309 126.1395 284.408 126.2825 284.507 126.5685 284.683 127.0415 284.804 127.4705 284.804 127.9985 284.804 128.5045 284.617 128.7905 284.309 129.0435 284.034 129.1755 283.627 129.1755 283.099L129.1755 282.032C128.6805 282.78 128.0975 283.121 127.3055 283.121 125.9635 283.121 124.9625 281.988 124.9625 280.481 124.9625 279.667 125.2595 278.886 125.7655 278.402 126.1725 278.006 126.7225 277.808 127.3715 277.808 128.1415 277.808 128.6585 278.094 129.1755 278.798zM127.5255 278.578C126.5355 278.578 125.8425 279.348 125.8425 280.448 125.8425 281.537 126.5465 282.351 127.5035 282.351 127.9875 282.351 128.4605 282.12 128.7905 281.735 129.0105 281.482 129.1535 280.987 129.1535 280.481 129.1535 279.821 129.0545 279.469 128.7575 279.139 128.4495 278.798 127.9765 278.578 127.5255 278.578zM132.5855 278.666L132.5855 281.966C132.5965 282.219 132.6625 282.274 132.9705 282.274L133.3555 282.274 133.3555 283 132.5745 283C131.9805 282.989 131.7495 282.769 131.7495 282.208L131.7495 278.666 131.0455 278.666 131.0455 277.929 131.7495 277.929 131.7495 276.334 132.5855 276.334 132.5855 277.929 133.3555 277.929 133.3555 278.666 132.5855 278.666zM135.3795 275.663L135.3795 278.633C135.8415 278.061 136.3035 277.808 136.9085 277.808 137.3485 277.808 137.8105 277.984 138.0855 278.27 138.3605 278.545 138.4815 278.941 138.4815 279.59L138.4815 283 137.6455 283 137.6455 279.634C137.6455 278.941 137.3045 278.556 136.6995 278.556 136.3145 278.556 135.9735 278.71 135.7095 279.007 135.4565 279.293 135.3795 279.546 135.3795 280.03L135.3795 283 134.5435 283 134.5435 275.663 135.3795 275.663zM145.6205 277.808C147.1165 277.808 148.1835 278.919 148.1835 280.481 148.1835 281.966 147.0395 283.121 145.5875 283.121 144.0805 283.121 143.0245 282.021 143.0245 280.459 143.0245 278.886 144.0805 277.808 145.6205 277.808zM145.6205 278.578C144.5755 278.578 143.8825 279.337 143.8825 280.47 143.8825 281.592 144.5755 282.351 145.6095 282.351 146.6105 282.351 147.3255 281.57 147.3255 280.47 147.3255 279.337 146.6435 278.578 145.6205 278.578zM150.3835 278.666L150.3835 283 149.5475 283 149.5475 278.666 148.8545 278.666 148.8545 277.929 149.5475 277.929 149.5475 277.247C149.5475 276.246 150.0645 275.652 150.9445 275.652 150.9885 275.652 151.0875 275.652 151.1755 275.663L151.1755 276.411C150.5705 276.477 150.4055 276.653 150.3835 277.247L150.3835 277.929 151.1755 277.929 151.1755 278.666 150.3835 278.666zM159.4365 278.765L159.4365 277.929 160.2725 277.929 160.2725 283 159.4365 283 159.4365 282.021C158.9305 282.78 158.3585 283.121 157.5885 283.121 156.1915 283.121 155.2015 282.021 155.2015 280.481 155.2015 278.93 156.2135 277.808 157.6105 277.808 158.3805 277.808 158.9415 278.105 159.4365 278.765zM157.7315 278.556C157.1815 278.556 156.7965 278.743 156.4995 279.161 156.2355 279.524 156.0815 280.008 156.0815 280.503 156.0815 281.581 156.7855 282.395 157.7095 282.395 158.6665 282.395 159.4475 281.504 159.4475 280.415 159.4475 279.315 158.7435 278.556 157.7315 278.556zM161.9555 277.929L162.7915 277.929 162.7915 278.853C163.2755 278.105 163.7925 277.808 164.6395 277.808 166.0475 277.808 167.0265 278.886 167.0265 280.426 167.0265 282.021 166.0475 283.121 164.6395 283.121 164.2435 283.121 163.8805 283.033 163.5285 282.857 163.2205 282.703 163.0665 282.571 162.7915 282.208L162.7915 285.376 161.9555 285.376 161.9555 277.929zM164.4965 278.556C163.4845 278.556 162.7915 279.359 162.7915 280.547 162.7915 281.658 163.4625 282.395 164.4635 282.395 165.4645 282.395 166.1355 281.614 166.1355 280.459 166.1355 279.865 165.9925 279.414 165.6955 279.084 165.3985 278.754 164.9475 278.556 164.4965 278.556zM168.2915 277.929L169.1275 277.929 169.1275 278.853C169.6115 278.105 170.1285 277.808 170.9755 277.808 172.3835 277.808 173.3625 278.886 173.3625 280.426 173.3625 282.021 172.3835 283.121 170.9755 283.121 170.5795 283.121 170.2165 283.033 169.8645 282.857 169.5565 282.703 169.4025 282.571 169.1275 282.208L169.1275 285.376 168.2915 285.376 168.2915 277.929zM170.8325 278.556C169.8205 278.556 169.1275 279.359 169.1275 280.547 169.1275 281.658 169.7985 282.395 170.7995 282.395 171.8005 282.395 172.4715 281.614 172.4715 280.459 172.4715 279.865 172.3285 279.414 172.0315 279.084 171.7345 278.754 171.2835 278.556 170.8325 278.556zM177.9275 277.929L178.7635 277.929 178.7635 278.644C179.2035 278.05 179.6435 277.808 180.2705 277.808 180.7325 277.808 181.1505 277.962 181.4475 278.226 181.7665 278.534 181.8765 278.886 181.8765 279.579L181.8765 283 181.0405 283 181.0405 279.766C181.0405 279.315 180.9855 279.073 180.8535 278.897 180.6995 278.688 180.4025 278.556 180.0615 278.556 179.6875 278.556 179.3465 278.699 179.0935 278.985 178.8515 279.249 178.7635 279.491 178.7635 279.909L178.7635 283 177.9275 283 177.9275 277.929zM187.3545 278.765L187.3545 277.929 188.1905 277.929 188.1905 283 187.3545 283 187.3545 282.021C186.8485 282.78 186.2765 283.121 185.5065 283.121 184.1095 283.121 183.1195 282.021 183.1195 280.481 183.1195 278.93 184.1315 277.808 185.5285 277.808 186.2985 277.808 186.8595 278.105 187.3545 278.765zM185.6495 278.556C185.0995 278.556 184.7145 278.743 184.4175 279.161 184.1535 279.524 183.9995 280.008 183.9995 280.503 183.9995 281.581 184.7035 282.395 185.6275 282.395 186.5845 282.395 187.3655 281.504 187.3655 280.415 187.3655 279.315 186.6615 278.556 185.6495 278.556zM189.8735 277.929L190.7095 277.929 190.7095 278.633C191.0945 278.05 191.5235 277.808 192.1505 277.808 192.8435 277.808 193.2835 278.105 193.5145 278.732 193.8885 278.083 194.3615 277.808 195.1205 277.808 195.7035 277.808 196.1435 277.995 196.4075 278.347 196.6495 278.666 196.7155 278.952 196.7155 279.755L196.7155 283 195.8795 283 195.8795 279.953C195.8795 279.337 195.8575 279.194 195.7365 278.985 195.5825 278.721 195.2525 278.556 194.8565 278.556 194.1195 278.556 193.7125 279.051 193.7125 279.953L193.7125 283 192.8765 283 192.8765 279.964C192.8765 279.469 192.8325 279.216 192.7115 278.996 192.5685 278.71 192.2605 278.556 191.8865 278.556 191.1495 278.556 190.7095 279.084 190.7095 279.964L190.7095 283 189.8735 283 189.8735 277.929zM203.0735 280.734L198.8495 280.734C198.8935 281.163 198.9705 281.383 199.1795 281.658 199.5095 282.109 199.9935 282.351 200.5435 282.351 201.1705 282.351 201.7645 282.01 202.0615 281.482L202.7985 281.757C202.3805 282.604 201.5115 283.121 200.5435 283.121 199.0365 283.121 197.9585 282.021 197.9585 280.481 197.9585 278.919 199.0255 277.808 200.5105 277.808 201.9845 277.808 203.0845 278.919 203.0845 280.404 203.0845 280.47 203.0845 280.613 203.0735 280.734zM198.8605 280.118L202.1935 280.118C202.1605 279.722 202.0835 279.502 201.9075 279.249 201.5885 278.82 201.0715 278.556 200.5105 278.556 199.9495 278.556 199.4435 278.82 199.1465 279.26 198.9925 279.502 198.9265 279.711 198.8605 280.118z"/>
      <g fill="#00AB9A" transform="translate(77 249)">
        <rect width="150" height="1" x="5" y="2"/>
        <polygon points="157.5 0 160 5 155 5" transform="rotate(90 157.5 2.5)"/>
        <polygon points="2.5 0 5 5 0 5" transform="matrix(0 1 1 0 0 0)"/>
      </g>
      <g transform="translate(326 205)">
        <rect width="23" height="23" x=".5" y=".5" stroke="#00AB9A" rx="2"/>
        <path fill="#00AB9A" d="M10.4655 14.306L7.1765 14.306 6.5055 16 5.5485 16 8.3095 8.663 9.4095 8.663 12.1045 16 11.0705 16 10.4655 14.306zM10.1795 13.514L8.8375 9.829 7.4515 13.514 10.1795 13.514zM16.8235 11.765L16.8235 10.929 17.6595 10.929 17.6595 16 16.8235 16 16.8235 15.021C16.3175 15.78 15.7455 16.121 14.9755 16.121 13.5785 16.121 12.5885 15.021 12.5885 13.481 12.5885 11.93 13.6005 10.808 14.9975 10.808 15.7675 10.808 16.3285 11.105 16.8235 11.765zM15.1185 11.556C14.5685 11.556 14.1835 11.743 13.8865 12.161 13.6225 12.524 13.4685 13.008 13.4685 13.503 13.4685 14.581 14.1725 15.395 15.0965 15.395 16.0535 15.395 16.8345 14.504 16.8345 13.415 16.8345 12.315 16.1305 11.556 15.1185 11.556zM30.904 9.455L30.904 16 29.98 16 29.98 9.455 28.11 9.455 28.11 8.663 32.763 8.663 32.763 9.455 30.904 9.455zM34.622 9.455L34.622 11.908 37.515 11.908 37.515 12.7 34.622 12.7 34.622 15.208 37.515 15.208 37.515 16 33.698 16 33.698 8.663 37.515 8.663 37.515 9.455 34.622 9.455zM41.134 13.074L39.264 16 38.142 16 40.595 12.26 38.23 8.663 39.341 8.663 41.134 11.446 42.938 8.663 44.016 8.663 41.662 12.26 44.082 16 43.015 16 41.134 13.074zM47.052 9.455L47.052 16 46.128 16 46.128 9.455 44.258 9.455 44.258 8.663 48.911 8.663 48.911 9.455 47.052 9.455zM50.286 14.944C50.616 14.944 50.858 15.186 50.858 15.527 50.858 15.846 50.605 16.088 50.286 16.088 49.956 16.088 49.714 15.846 49.714 15.516 49.714 15.186 49.956 14.944 50.286 14.944zM50.286 11.776C50.616 11.776 50.858 12.018 50.858 12.359 50.858 12.678 50.605 12.92 50.286 12.92 49.956 12.92 49.714 12.678 49.714 12.348 49.714 12.018 49.956 11.776 50.286 11.776zM58.976 12.029L62.474 12.029C62.485 12.183 62.485 12.381 62.485 12.447 62.485 13.426 62.265 14.108 61.726 14.79 61.022 15.67 60.076 16.132 58.965 16.132 56.875 16.132 55.346 14.537 55.346 12.348 55.346 10.126 56.864 8.531 58.965 8.531 60.076 8.531 61.033 8.993 61.726 9.862L61.033 10.423C60.747 10.104 60.615 9.972 60.417 9.84 60.01 9.543 59.493 9.378 58.965 9.378 57.447 9.378 56.292 10.654 56.292 12.337 56.292 13.998 57.447 15.285 58.943 15.285 59.757 15.285 60.604 14.856 61.055 14.207 61.341 13.822 61.451 13.459 61.528 12.821L58.976 12.821 58.976 12.029zM65.939 10.808C67.435 10.808 68.502 11.919 68.502 13.481 68.502 14.966 67.358 16.121 65.906 16.121 64.399 16.121 63.343 15.021 63.343 13.459 63.343 11.886 64.399 10.808 65.939 10.808zM65.939 11.578C64.894 11.578 64.201 12.337 64.201 13.47 64.201 14.592 64.894 15.351 65.928 15.351 66.929 15.351 67.644 14.57 67.644 13.47 67.644 12.337 66.962 11.578 65.939 11.578zM70.669 11.666L70.669 14.966C70.68 15.219 70.746 15.274 71.054 15.274L71.439 15.274 71.439 16 70.658 16C70.064 15.989 69.833 15.769 69.833 15.208L69.833 11.666 69.129 11.666 69.129 10.929 69.833 10.929 69.833 9.334 70.669 9.334 70.669 10.929 71.439 10.929 71.439 11.666 70.669 11.666zM73.463 8.663L73.463 11.633C73.925 11.061 74.387 10.808 74.992 10.808 75.432 10.808 75.894 10.984 76.169 11.27 76.444 11.545 76.565 11.941 76.565 12.59L76.565 16 75.729 16 75.729 12.634C75.729 11.941 75.388 11.556 74.783 11.556 74.398 11.556 74.057 11.71 73.793 12.007 73.54 12.293 73.463 12.546 73.463 13.03L73.463 16 72.627 16 72.627 8.663 73.463 8.663zM82.043 11.765L82.043 10.929 82.879 10.929 82.879 16 82.043 16 82.043 15.021C81.537 15.78 80.965 16.121 80.195 16.121 78.798 16.121 77.808 15.021 77.808 13.481 77.808 11.93 78.82 10.808 80.217 10.808 80.987 10.808 81.548 11.105 82.043 11.765zM80.338 11.556C79.788 11.556 79.403 11.743 79.106 12.161 78.842 12.524 78.688 13.008 78.688 13.503 78.688 14.581 79.392 15.395 80.316 15.395 81.273 15.395 82.054 14.504 82.054 13.415 82.054 12.315 81.35 11.556 80.338 11.556zM84.562 10.929L85.398 10.929 85.398 11.633C85.783 11.05 86.212 10.808 86.839 10.808 87.532 10.808 87.972 11.105 88.203 11.732 88.577 11.083 89.05 10.808 89.809 10.808 90.392 10.808 90.832 10.995 91.096 11.347 91.338 11.666 91.404 11.952 91.404 12.755L91.404 16 90.568 16 90.568 12.953C90.568 12.337 90.546 12.194 90.425 11.985 90.271 11.721 89.941 11.556 89.545 11.556 88.808 11.556 88.401 12.051 88.401 12.953L88.401 16 87.565 16 87.565 12.964C87.565 12.469 87.521 12.216 87.4 11.996 87.257 11.71 86.949 11.556 86.575 11.556 85.838 11.556 85.398 12.084 85.398 12.964L85.398 16 84.562 16 84.562 10.929zM97.355 12.92L97.355 16 96.431 16 96.431 8.663 98.433 8.663C99.995 8.663 100.941 9.466 100.941 10.797 100.941 11.622 100.567 12.282 99.885 12.645 99.533 12.832 99.203 12.909 98.532 12.953L101.381 16 100.204 16 97.355 12.92zM97.355 12.293L98.279 12.293C99.39 12.293 99.995 11.787 99.995 10.863 99.995 9.95 99.445 9.455 98.433 9.455L97.355 9.455 97.355 12.293zM104.703 10.808C106.199 10.808 107.266 11.919 107.266 13.481 107.266 14.966 106.122 16.121 104.67 16.121 103.163 16.121 102.107 15.021 102.107 13.459 102.107 11.886 103.163 10.808 104.703 10.808zM104.703 11.578C103.658 11.578 102.965 12.337 102.965 13.47 102.965 14.592 103.658 15.351 104.692 15.351 105.693 15.351 106.408 14.57 106.408 13.47 106.408 12.337 105.726 11.578 104.703 11.578zM111.49 10.929L112.337 10.929 112.337 14.174C112.337 14.867 112.205 15.252 111.831 15.593 111.457 15.934 110.94 16.121 110.368 16.121 109.796 16.121 109.268 15.923 108.905 15.582 108.564 15.252 108.399 14.79 108.399 14.174L108.399 10.929 109.235 10.929 109.235 14.152C109.235 14.867 109.697 15.373 110.368 15.373 110.72 15.373 111.061 15.23 111.27 14.988 111.435 14.79 111.49 14.581 111.49 14.174L111.49 10.929zM113.877 10.929L114.713 10.929 114.713 11.644C115.153 11.05 115.593 10.808 116.22 10.808 116.682 10.808 117.1 10.962 117.397 11.226 117.716 11.534 117.826 11.886 117.826 12.579L117.826 16 116.99 16 116.99 12.766C116.99 12.315 116.935 12.073 116.803 11.897 116.649 11.688 116.352 11.556 116.011 11.556 115.637 11.556 115.296 11.699 115.043 11.985 114.801 12.249 114.713 12.491 114.713 12.909L114.713 16 113.877 16 113.877 10.929zM123.271 11.699L123.271 8.663 124.107 8.663 124.107 16 123.271 16 123.271 15.131C122.765 15.824 122.226 16.121 121.456 16.121 120.059 16.121 119.069 15.032 119.069 13.492 119.069 11.952 120.081 10.808 121.456 10.808 122.204 10.808 122.776 11.083 123.271 11.699zM121.632 11.556C120.631 11.556 119.949 12.348 119.949 13.503 119.949 14.614 120.62 15.395 121.577 15.395 122.556 15.395 123.271 14.581 123.271 13.481 123.271 12.337 122.6 11.556 121.632 11.556zM130.498 13.734L126.274 13.734C126.318 14.163 126.395 14.383 126.604 14.658 126.934 15.109 127.418 15.351 127.968 15.351 128.595 15.351 129.189 15.01 129.486 14.482L130.223 14.757C129.805 15.604 128.936 16.121 127.968 16.121 126.461 16.121 125.383 15.021 125.383 13.481 125.383 11.919 126.45 10.808 127.935 10.808 129.409 10.808 130.509 11.919 130.509 13.404 130.509 13.47 130.509 13.613 130.498 13.734zM126.285 13.118L129.618 13.118C129.585 12.722 129.508 12.502 129.332 12.249 129.013 11.82 128.496 11.556 127.935 11.556 127.374 11.556 126.868 11.82 126.571 12.26 126.417 12.502 126.351 12.711 126.285 13.118zM135.514 11.699L135.514 8.663 136.35 8.663 136.35 16 135.514 16 135.514 15.131C135.008 15.824 134.469 16.121 133.699 16.121 132.302 16.121 131.312 15.032 131.312 13.492 131.312 11.952 132.324 10.808 133.699 10.808 134.447 10.808 135.019 11.083 135.514 11.699zM133.875 11.556C132.874 11.556 132.192 12.348 132.192 13.503 132.192 14.614 132.863 15.395 133.82 15.395 134.799 15.395 135.514 14.581 135.514 13.481 135.514 12.337 134.843 11.556 133.875 11.556zM142.334 10.621L142.334 16 141.41 16 141.41 8.663 142.323 8.663 145.04 14.163 147.79 8.663 148.692 8.663 148.692 16 147.768 16 147.768 10.632 145.04 16.077 142.334 10.621zM155.149 13.734L150.925 13.734C150.969 14.163 151.046 14.383 151.255 14.658 151.585 15.109 152.069 15.351 152.619 15.351 153.246 15.351 153.84 15.01 154.137 14.482L154.874 14.757C154.456 15.604 153.587 16.121 152.619 16.121 151.112 16.121 150.034 15.021 150.034 13.481 150.034 11.919 151.101 10.808 152.586 10.808 154.06 10.808 155.16 11.919 155.16 13.404 155.16 13.47 155.16 13.613 155.149 13.734zM150.936 13.118L154.269 13.118C154.236 12.722 154.159 12.502 153.983 12.249 153.664 11.82 153.147 11.556 152.586 11.556 152.025 11.556 151.519 11.82 151.222 12.26 151.068 12.502 151.002 12.711 150.936 13.118zM160.165 11.699L160.165 8.663 161.001 8.663 161.001 16 160.165 16 160.165 15.131C159.659 15.824 159.12 16.121 158.35 16.121 156.953 16.121 155.963 15.032 155.963 13.492 155.963 11.952 156.975 10.808 158.35 10.808 159.098 10.808 159.67 11.083 160.165 11.699zM158.526 11.556C157.525 11.556 156.843 12.348 156.843 13.503 156.843 14.614 157.514 15.395 158.471 15.395 159.45 15.395 160.165 14.581 160.165 13.481 160.165 12.337 159.494 11.556 158.526 11.556zM163.52 10.929L163.52 16 162.684 16 162.684 10.929 163.52 10.929zM163.113 8.96C163.41 8.96 163.641 9.202 163.641 9.51 163.641 9.807 163.399 10.038 163.102 10.038 162.805 10.038 162.574 9.807 162.574 9.499 162.574 9.191 162.805 8.96 163.113 8.96zM168.151 10.929L168.998 10.929 168.998 14.174C168.998 14.867 168.866 15.252 168.492 15.593 168.118 15.934 167.601 16.121 167.029 16.121 166.457 16.121 165.929 15.923 165.566 15.582 165.225 15.252 165.06 14.79 165.06 14.174L165.06 10.929 165.896 10.929 165.896 14.152C165.896 14.867 166.358 15.373 167.029 15.373 167.381 15.373 167.722 15.23 167.931 14.988 168.096 14.79 168.151 14.581 168.151 14.174L168.151 10.929zM170.538 10.929L171.374 10.929 171.374 11.633C171.759 11.05 172.188 10.808 172.815 10.808 173.508 10.808 173.948 11.105 174.179 11.732 174.553 11.083 175.026 10.808 175.785 10.808 176.368 10.808 176.808 10.995 177.072 11.347 177.314 11.666 177.38 11.952 177.38 12.755L177.38 16 176.544 16 176.544 12.953C176.544 12.337 176.522 12.194 176.401 11.985 176.247 11.721 175.917 11.556 175.521 11.556 174.784 11.556 174.377 12.051 174.377 12.953L174.377 16 173.541 16 173.541 12.964C173.541 12.469 173.497 12.216 173.376 11.996 173.233 11.71 172.925 11.556 172.551 11.556 171.814 11.556 171.374 12.084 171.374 12.964L171.374 16 170.538 16 170.538 10.929zM180.053 15.142L178.942 17.749 178.337 17.562 179.261 14.889 180.053 15.142zM186.037 15.197L188.622 15.197 188.622 16 184.508 16 187.06 12.348C187.797 11.281 187.962 10.951 187.962 10.511 187.962 9.873 187.456 9.422 186.741 9.422 186.246 9.422 185.839 9.653 185.674 10.038 185.586 10.247 185.553 10.412 185.542 10.797L184.717 10.797C184.761 9.4 185.498 8.63 186.807 8.63 188.006 8.63 188.842 9.378 188.842 10.445 188.842 11.061 188.622 11.6 188.006 12.458L186.037 15.197zM193.275 9.587L190.459 9.587 190.459 8.773 194.529 8.773 191.625 16 190.679 16 193.275 9.587zM195.871 10.929L196.707 10.929 196.707 11.853C197.191 11.105 197.708 10.808 198.555 10.808 199.963 10.808 200.942 11.886 200.942 13.426 200.942 15.021 199.963 16.121 198.555 16.121 198.159 16.121 197.796 16.033 197.444 15.857 197.136 15.703 196.982 15.571 196.707 15.208L196.707 18.376 195.871 18.376 195.871 10.929zM198.412 11.556C197.4 11.556 196.707 12.359 196.707 13.547 196.707 14.658 197.378 15.395 198.379 15.395 199.38 15.395 200.051 14.614 200.051 13.459 200.051 12.865 199.908 12.414 199.611 12.084 199.314 11.754 198.863 11.556 198.412 11.556zM203.098 11.666L203.098 14.966C203.109 15.219 203.175 15.274 203.483 15.274L203.868 15.274 203.868 16 203.087 16C202.493 15.989 202.262 15.769 202.262 15.208L202.262 11.666 201.558 11.666 201.558 10.929 202.262 10.929 202.262 9.334 203.098 9.334 203.098 10.929 203.868 10.929 203.868 11.666 203.098 11.666z"/>
      </g>
      <g transform="translate(326 252)">
        <rect width="24" height="24" fill="#495A67" rx="2"/>
        <path fill="#2DB9AB" d="M30.904,9.455 L30.904,16 L29.98,16 L29.98,9.455 L28.11,9.455 L28.11,8.663 L32.763,8.663 L32.763,9.455 L30.904,9.455 Z M38.417,13.734 L34.193,13.734 C34.237,14.163 34.314,14.383 34.523,14.658 C34.853,15.109 35.337,15.351 35.887,15.351 C36.514,15.351 37.108,15.01 37.405,14.482 L38.142,14.757 C37.724,15.604 36.855,16.121 35.887,16.121 C34.38,16.121 33.302,15.021 33.302,13.481 C33.302,11.919 34.369,10.808 35.854,10.808 C37.328,10.808 38.428,11.919 38.428,13.404 C38.428,13.47 38.428,13.613 38.417,13.734 Z M34.204,13.118 L37.537,13.118 C37.504,12.722 37.427,12.502 37.251,12.249 C36.932,11.82 36.415,11.556 35.854,11.556 C35.293,11.556 34.787,11.82 34.49,12.26 C34.336,12.502 34.27,12.711 34.204,13.118 Z M41.255,14.163 L39.902,16 L38.879,16 L40.749,13.481 L38.846,10.929 L39.902,10.929 L41.255,12.788 L42.641,10.929 L43.664,10.929 L41.75,13.481 L43.576,16 L42.553,16 L41.255,14.163 Z M45.435,11.666 L45.435,14.966 C45.446,15.219 45.512,15.274 45.82,15.274 L46.205,15.274 L46.205,16 L45.424,16 C44.83,15.989 44.599,15.769 44.599,15.208 L44.599,11.666 L43.895,11.666 L43.895,10.929 L44.599,10.929 L44.599,9.334 L45.435,9.334 L45.435,10.929 L46.205,10.929 L46.205,11.666 L45.435,11.666 Z M47.822,14.944 C48.152,14.944 48.394,15.186 48.394,15.527 C48.394,15.846 48.141,16.088 47.822,16.088 C47.492,16.088 47.25,15.846 47.25,15.516 C47.25,15.186 47.492,14.944 47.822,14.944 Z M47.822,11.776 C48.152,11.776 48.394,12.018 48.394,12.359 C48.394,12.678 48.141,12.92 47.822,12.92 C47.492,12.92 47.25,12.678 47.25,12.348 C47.25,12.018 47.492,11.776 47.822,11.776 Z M56.512,8.531 C57.535,8.531 58.514,8.993 59.218,9.796 C59.812,10.489 60.076,11.303 60.076,12.403 C60.076,13.547 59.636,14.57 58.833,15.252 C58.173,15.824 57.337,16.132 56.49,16.132 C55.401,16.132 54.334,15.615 53.652,14.757 C53.146,14.119 52.882,13.294 52.882,12.37 C52.882,10.181 54.433,8.531 56.512,8.531 Z M56.49,9.389 C54.961,9.389 53.828,10.643 53.828,12.337 C53.828,14.042 54.95,15.285 56.468,15.285 C57.205,15.285 57.931,14.966 58.426,14.405 C58.855,13.932 59.13,13.14 59.13,12.392 C59.13,11.413 58.866,10.698 58.294,10.148 C57.81,9.675 57.139,9.389 56.49,9.389 Z M62.232,15.131 L62.232,16 L61.396,16 L61.396,8.663 L62.232,8.663 L62.232,11.798 C62.738,11.105 63.277,10.808 64.014,10.808 C65.433,10.808 66.423,11.908 66.423,13.481 C66.423,15.032 65.444,16.121 64.058,16.121 C63.277,16.121 62.727,15.824 62.232,15.131 Z M63.904,11.556 C62.936,11.556 62.221,12.359 62.221,13.47 C62.221,14.625 62.881,15.395 63.871,15.395 C64.872,15.395 65.543,14.636 65.543,13.503 C65.543,12.37 64.861,11.556 63.904,11.556 Z M70.878,12.315 L70.042,12.315 L70.042,12.26 C70.042,11.787 69.657,11.49 69.074,11.49 C68.513,11.49 68.161,11.776 68.161,12.216 C68.161,12.656 68.381,12.821 69.294,13.074 C69.943,13.25 70.284,13.415 70.526,13.657 C70.779,13.91 70.933,14.273 70.933,14.647 C70.933,15.527 70.207,16.121 69.129,16.121 C67.974,16.121 67.325,15.582 67.237,14.559 L68.062,14.559 C68.117,15.131 68.491,15.439 69.129,15.439 C69.701,15.439 70.075,15.142 70.075,14.691 C70.075,14.251 69.789,14.031 68.92,13.811 C67.82,13.514 67.325,13.052 67.325,12.282 C67.325,11.402 68.04,10.808 69.107,10.808 C70.185,10.808 70.834,11.358 70.878,12.315 Z M73.056,10.929 L73.056,16 L72.22,16 L72.22,10.929 L73.056,10.929 Z M72.649,8.96 C72.946,8.96 73.177,9.202 73.177,9.51 C73.177,9.807 72.935,10.038 72.638,10.038 C72.341,10.038 72.11,9.807 72.11,9.499 C72.11,9.191 72.341,8.96 72.649,8.96 Z M78.534,11.699 L78.534,8.663 L79.37,8.663 L79.37,16 L78.534,16 L78.534,15.131 C78.028,15.824 77.489,16.121 76.719,16.121 C75.322,16.121 74.332,15.032 74.332,13.492 C74.332,11.952 75.344,10.808 76.719,10.808 C77.467,10.808 78.039,11.083 78.534,11.699 Z M76.895,11.556 C75.894,11.556 75.212,12.348 75.212,13.503 C75.212,14.614 75.883,15.395 76.84,15.395 C77.819,15.395 78.534,14.581 78.534,13.481 C78.534,12.337 77.863,11.556 76.895,11.556 Z M81.889,10.929 L81.889,16 L81.053,16 L81.053,10.929 L81.889,10.929 Z M81.482,8.96 C81.779,8.96 82.01,9.202 82.01,9.51 C82.01,9.807 81.768,10.038 81.471,10.038 C81.174,10.038 80.943,9.807 80.943,9.499 C80.943,9.191 81.174,8.96 81.482,8.96 Z M87.4,11.765 L87.4,10.929 L88.236,10.929 L88.236,16 L87.4,16 L87.4,15.021 C86.894,15.78 86.322,16.121 85.552,16.121 C84.155,16.121 83.165,15.021 83.165,13.481 C83.165,11.93 84.177,10.808 85.574,10.808 C86.344,10.808 86.905,11.105 87.4,11.765 Z M85.695,11.556 C85.145,11.556 84.76,11.743 84.463,12.161 C84.199,12.524 84.045,13.008 84.045,13.503 C84.045,14.581 84.749,15.395 85.673,15.395 C86.63,15.395 87.411,14.504 87.411,13.415 C87.411,12.315 86.707,11.556 85.695,11.556 Z M89.919,10.929 L90.755,10.929 L90.755,11.644 C91.195,11.05 91.635,10.808 92.262,10.808 C92.724,10.808 93.142,10.962 93.439,11.226 C93.758,11.534 93.868,11.886 93.868,12.579 L93.868,16 L93.032,16 L93.032,12.766 C93.032,12.315 92.977,12.073 92.845,11.897 C92.691,11.688 92.394,11.556 92.053,11.556 C91.679,11.556 91.338,11.699 91.085,11.985 C90.843,12.249 90.755,12.491 90.755,12.909 L90.755,16 L89.919,16 L89.919,10.929 Z M98.037,9.565 L95.474,9.565 L95.474,8.773 L99.632,8.773 L97.476,11.512 C98.752,11.512 99.654,12.425 99.654,13.723 C99.654,15.098 98.62,16.121 97.223,16.121 C96.068,16.121 95.243,15.472 94.99,14.361 L95.782,14.218 C95.98,14.922 96.497,15.318 97.179,15.318 C98.07,15.318 98.774,14.647 98.774,13.789 C98.774,12.909 98.114,12.293 97.157,12.293 C96.816,12.293 96.596,12.359 96.277,12.546 L95.914,12.227 L98.037,9.565 Z"/>
      </g>
    </g>
  </g>
</svg>
