<svg xmlns="http://www.w3.org/2000/svg" xmlns:xlink="http://www.w3.org/1999/xlink" width="580" height="180" viewBox="0 0 580 180">
  <defs>
    <rect id="1-b" width="375" height="120"/>
    <filter id="1-a" width="106.7%" height="120.8%" x="-3.3%" y="-9.6%" filterUnits="objectBoundingBox">
      <feOffset dy="1" in="SourceAlpha" result="shadowOffsetOuter1"/>
      <feGaussianBlur in="shadowOffsetOuter1" result="shadowBlurOuter1" stdDeviation="4"/>
      <feColorMatrix in="shadowBlurOuter1" result="shadowMatrixOuter1" values="0 0 0 0 0   0 0 0 0 0   0 0 0 0 0  0 0 0 0.2 0"/>
      <feMorphology in="SourceAlpha" radius="1" result="shadowSpreadOuter2"/>
      <feOffset dy="3" in="shadowSpreadOuter2" result="shadowOffsetOuter2"/>
      <feGaussianBlur in="shadowOffsetOuter2" result="shadowBlurOuter2" stdDeviation="1.5"/>
      <feColorMatrix in="shadowBlurOuter2" result="shadowMatrixOuter2" values="0 0 0 0 0   0 0 0 0 0   0 0 0 0 0  0 0 0 0.12 0"/>
      <feOffset dy="3" in="SourceAlpha" result="shadowOffsetOuter3"/>
      <feGaussianBlur in="shadowOffsetOuter3" result="shadowBlurOuter3" stdDeviation="2"/>
      <feColorMatrix in="shadowBlurOuter3" result="shadowMatrixOuter3" values="0 0 0 0 0   0 0 0 0 0   0 0 0 0 0  0 0 0 0.14 0"/>
      <feMerge>
        <feMergeNode in="shadowMatrixOuter1"/>
        <feMergeNode in="shadowMatrixOuter2"/>
        <feMergeNode in="shadowMatrixOuter3"/>
      </feMerge>
    </filter>
    <rect id="1-d" width="375" height="48"/>
    <filter id="1-c" width="100.1%" height="102.1%" x="-.1%" y="-1.6%" filterUnits="objectBoundingBox">
      <feOffset dy="-.5" in="SourceAlpha" result="shadowOffsetOuter1"/>
      <feComposite in="shadowOffsetOuter1" in2="SourceAlpha" operator="out" result="shadowOffsetOuter1"/>
      <feColorMatrix in="shadowOffsetOuter1" values="0 0 0 0 0   0 0 0 0 0   0 0 0 0 0  0 0 0 0.2 0"/>
    </filter>
    <path id="1-e" d="M12,15 L12,15.5 C10.1086931,15.5 8.5,13.8914139 8.5,11.9994584 C8.5,10.1083874 10.1088918,8.5 12,8.5 C13.8911082,8.5 15.5,10.1083874 15.5,11.9994584 C15.5,13.8914139 13.8913069,15.5 12,15.5 L12,15 Z M14.5,11.9994584 C14.5,10.6607423 13.3388937,9.5 12,9.5 C10.6611063,9.5 9.5,10.6607423 9.5,11.9994584 C9.5,13.3391142 10.6609629,14.5 12,14.5 C13.3390371,14.5 14.5,13.3391142 14.5,11.9994584 Z M19.0606174,10.4703224 C17.9205476,10.3281283 17.3690987,8.99752677 18.0745815,8.08957943 L18.8318727,7.11651456 C19.261393,6.56383658 19.2123085,5.77774856 18.7170611,5.28250107 C18.222797,4.78762446 17.4368949,4.73873532 16.8835434,5.16891556 L15.9103794,5.92545049 C15.0034895,6.63108881 13.6727042,6.08027902 13.5305433,4.9404754 L13.3772079,3.71629172 C13.2901639,3.02116584 12.7000851,2.5 12,2.5 C11.2999149,2.5 10.7098361,3.02116584 10.62279,3.71630873 L10.4694891,4.9402159 C10.3272958,6.08027902 8.99651047,6.63108881 8.08978996,5.92558222 L7.11645383,5.16891338 C6.56310513,4.73873532 5.77720305,4.78762446 5.28272006,5.28272006 C4.78769155,5.77774856 4.73860701,6.56383658 5.16791847,7.1162461 L5.92565662,8.08988569 C6.63090129,8.99752677 6.07945241,10.3281283 4.93930951,10.4703315 L3.71551238,10.6227854 C3.0214033,10.7097787 2.5,11.3005186 2.5,12 C2.5,12.7002228 3.02131209,13.2910432 3.71514284,13.3780018 L4.93938256,13.5305109 C6.07945241,13.672705 6.63090129,15.0033066 5.92541847,15.9112539 L5.16812725,16.8843188 C4.73860701,17.4369968 4.78769155,18.2230848 5.28272006,18.7181133 C5.77735058,19.2127438 6.56345101,19.2618291 7.1162461,18.8320815 L8.08996185,18.0742842 C8.99699918,17.3697892 10.3273344,17.9208636 10.4694567,19.0603579 L10.6227921,20.2845416 C10.7098033,20.9794056 11.2996511,21.5 12,21.5 C12.7003489,21.5 13.2901967,20.9794056 13.37721,20.2845246 L13.5305109,19.0606174 C13.6726656,17.9208636 15.0030008,17.3697892 15.9104206,18.0745815 L16.8835462,18.83192 C17.436549,19.2618291 18.2226494,19.2127438 18.7172799,18.7181133 C19.2123085,18.2230848 19.261393,17.4369968 18.8320815,16.8845872 L18.0743434,15.9109476 C17.3690987,15.0033066 17.9205476,13.672705 19.0606905,13.5305018 L20.2844876,13.378048 C20.9786879,13.2910432 21.5,12.7002228 21.5,12 C21.5,11.3005759 20.9786822,10.7098756 20.2846584,10.6228068 L19.0606174,10.4703224 Z M22.5,12 C22.5,13.2043883 21.6033646,14.2205752 20.4084762,14.3703315 L19.1843826,14.5228224 C18.8139894,14.5690194 18.634521,15.002062 18.8637518,15.2970794 L19.6214606,16.2706812 C20.3603604,17.2214482 20.2759249,18.5736819 19.4243867,19.4252201 C18.5732284,20.2763784 17.2209037,20.3608196 16.2695794,19.6212518 L15.2966285,18.8640491 C15.0018151,18.6350678 14.5689722,18.8143675 14.52279,19.1846421 L14.3694588,20.4087917 C14.2197957,21.6039884 13.2045899,22.5 12,22.5 C10.7954101,22.5 9.78020428,21.6039884 9.63054333,20.4088087 L9.47717756,19.1843826 C9.43102778,18.8143675 8.99818488,18.6350678 8.7037539,18.8637518 L7.73021284,19.6214134 C6.77909628,20.3608196 5.4267716,20.2763784 4.57561328,19.4252201 C3.7240751,18.5736819 3.63963956,17.2214482 4.3787482,16.2704128 L5.13601004,15.2973857 C5.365479,15.002062 5.18601065,14.5690194 4.81569049,14.5228315 L3.59115429,14.3702854 C2.39663545,14.2205752 1.5,13.2043883 1.5,12 C1.5,10.7962868 2.39679235,9.78023852 3.59152382,9.63050179 L4.81561744,9.4780109 C5.18601065,9.43181395 5.365479,8.99877133 5.1362482,8.7037539 L4.37853941,7.73015211 C3.63963956,6.7793851 3.7240751,5.42715145 4.57539443,4.57583226 C5.42629673,3.72387555 6.7787477,3.63974273 7.73021004,4.37941778 L8.70371275,5.13621617 C8.9984227,5.36552585 9.43102706,5.18647164 9.47721,4.81619127 L9.6305412,3.59204161 C9.78021844,2.39673184 10.7955238,1.5 12,1.5 C13.2044762,1.5 14.2197816,2.39673184 14.3694567,3.5920246 L14.5228224,4.81645077 C14.5689729,5.18647164 15.0015773,5.36552585 15.2964566,5.13608444 L16.2697872,4.37941995 C17.2212523,3.63974273 18.5737033,3.72387555 19.4243867,4.57561328 C20.2759249,5.42715145 20.3603604,6.7793851 19.6212518,7.73042057 L18.86399,8.70344765 C18.634521,8.99877133 18.8139894,9.43181395 19.1843095,9.47800179 L20.4084762,9.63050179 C21.6032077,9.78023852 22.5,10.7962868 22.5,12 Z"/>
    <path id="1-f" d="M12.0001,11.014 C13.6541,11.014 15.0001,9.668 15.0001,8.014 C15.0001,6.36 13.6541,5.014 12.0001,5.014 C10.3461,5.014 9.0001,6.36 9.0001,8.014 C9.0001,9.668 10.3461,11.014 12.0001,11.014 Z M12.0001,4.014 C14.2061,4.014 16.0001,5.808 16.0001,8.014 C16.0001,10.22 14.2061,12.014 12.0001,12.014 C9.7941,12.014 8.0001,10.22 8.0001,8.014 C8.0001,5.808 9.7941,4.014 12.0001,4.014 Z M19.193,18.93 C20.926,17.13 22,14.69 22,11.999 C22,6.486 17.514,2 12,2 C6.486,2 2,6.486 2,11.999 C2,14.69 3.073,17.13 4.807,18.93 C5.711,15.803 8.582,13.514 12,13.514 C15.418,13.514 18.289,15.803 19.193,18.93 Z M12,1 C18.075,1 23,5.925 23,11.999 C23,18.075 18.075,22.999 12,22.999 C5.925,22.999 1,18.075 1,11.999 C1,5.925 5.925,1 12,1 Z M12.0494,14.3538 C8.9434,14.3538 6.2934,16.5548 5.6854,19.5518 C7.4804,21.0408 9.7204,21.8538 12.0494,21.8538 C14.3784,21.8538 16.6184,21.0408 18.4134,19.5518 C17.8054,16.5548 15.1554,14.3538 12.0494,14.3538 Z"/>
    <path id="1-g" d="M21.0000154,9.95921869 L21.0000154,20.0333192 C21.0000154,21.1404616 20.1021578,22.0383192 18.9950154,22.0383192 L16.0050154,22.0383192 C14.8978731,22.0383192 14.0000154,21.1404616 14.0000154,20.0333192 L14.0000154,17.0413192 C14.0000154,16.4874616 13.5508731,16.0383192 12.9970154,16.0383192 L11.0030154,16.0383192 C10.4491578,16.0383192 10.0000154,16.4874616 10.0000154,17.0413192 L10.0000154,20.0333192 C10.0000154,21.1404616 9.10215782,22.0383192 7.99501544,22.0383192 L5.00501544,22.0383192 C3.89787307,22.0383192 3.00001544,21.1404616 3.00001544,20.0333192 L3.00001544,9.95964705 L1.81613021,10.9257098 C1.6021803,11.1002952 1.28721023,11.0683839 1.11262487,10.854434 C0.938039506,10.6404841 0.969950772,10.325514 1.18390068,10.1509287 L10.3152218,2.70300627 C11.2455388,1.77142355 12.7544921,1.77142355 13.6471302,2.66892865 L22.8161302,10.1509287 C23.0300801,10.325514 23.0619914,10.6404841 22.887406,10.854434 C22.7128207,11.0683839 22.3978506,11.1002952 22.1839007,10.9257098 L21.0000154,9.95921869 Z M20.0000154,9.14284639 L12.9772218,3.40963219 C12.4375388,2.86921491 11.5624921,2.86921491 10.9851302,3.4437098 L4.00001544,9.14363658 L4.00001544,20.0333192 C4.00001544,20.5881769 4.45015782,21.0383192 5.00501544,21.0383192 L7.99501544,21.0383192 C8.54987307,21.0383192 9.00001544,20.5881769 9.00001544,20.0333192 L9.00001544,17.0413192 C9.00001544,15.9351769 9.89687307,15.0383192 11.0030154,15.0383192 L12.9970154,15.0383192 C14.1031578,15.0383192 15.0000154,15.9351769 15.0000154,17.0413192 L15.0000154,20.0333192 C15.0000154,20.5881769 15.4501578,21.0383192 16.0050154,21.0383192 L18.9950154,21.0383192 C19.5498731,21.0383192 20.0000154,20.5881769 20.0000154,20.0333192 L20.0000154,9.14284639 Z"/>
  </defs>
  <g fill="none" fill-rule="evenodd">
    <rect width="580" height="180" fill="#FFF" fill-opacity=".01" fill-rule="nonzero"/>
    <g transform="translate(103 30)">
      <use fill="#000" filter="url(#1-a)" xlink:href="#1-b"/>
      <use fill="#F7F7F7" xlink:href="#1-b"/>
      <rect width="375" height="120" fill="#FFF"/>
      <g transform="translate(0 6)">
        <rect width="375" height="1" y="105" fill="#C1CDD4"/>
        <path fill="#000" d="M335.64502 24L334.724609 21.378418 331.081055 21.378418 330.160645 24 328.960938 24 332.337891 14.840332 333.467773 14.840332 336.844727 24 335.64502 24zM332.852051 16.3193359L331.41748 20.4072266 334.388184 20.4072266 332.953613 16.3193359 332.852051 16.3193359zM343.528809 17.1572266L343.528809 24 342.487793 24 342.487793 22.9272461 342.38623 22.9272461C342.043457 23.6889648 341.313477 24.1206055 340.266113 24.1206055 338.72998 24.1206055 337.930176 23.206543 337.930176 21.5878906L337.930176 17.1572266 339.021973 17.1572266 339.021973 21.3212891C339.021973 22.5527344 339.479004 23.1240234 340.570801 23.1240234 341.776855 23.1240234 342.437012 22.4067383 342.437012 21.2070312L342.437012 17.1572266 343.528809 17.1572266zM348.353027 22.9335938C349.622559 22.9335938 350.384277 21.96875 350.384277 20.4770508 350.384277 18.9853516 349.616211 18.0205078 348.353027 18.0205078 347.083496 18.0205078 346.372559 18.9853516 346.372559 20.4770508 346.372559 21.96875 347.083496 22.9335938 348.353027 22.9335938zM348.403809 26.6279297C346.753418 26.6279297 345.699707 25.8852539 345.534668 24.7553711L346.689941 24.7553711C346.810547 25.3139648 347.419922 25.6757812 348.403809 25.6757812 349.628906 25.6757812 350.358887 25.0727539 350.358887 24.0634766L350.358887 22.7177734 350.257324 22.7177734C349.825684 23.4731445 349.05127 23.8984375 348.111816 23.8984375 346.34082 23.8984375 345.242676 22.5273438 345.242676 20.4770508 345.242676 18.4267578 346.353516 17.0366211 348.111816 17.0366211 349.070312 17.0366211 349.914551 17.5063477 350.308105 18.2426758L350.409668 18.2426758 350.409668 17.1572266 351.450684 17.1572266 351.450684 24.1206055C351.450684 25.6503906 350.27002 26.6279297 348.403809 26.6279297zM357.112793 17.4174805C357.112793 15.7924805 358.344238 14.6245117 360.04541 14.6245117 361.689453 14.6245117 362.946289 15.7416992 362.946289 17.1953125 362.946289 18.1474609 362.514648 18.8901367 361.010254 20.5024414L358.807617 22.8701172 358.807617 22.9716797 363.098633 22.9716797 363.098633 24 357.169922 24 357.169922 23.2128906 360.337402 19.753418C361.518066 18.4711914 361.803711 17.9760742 361.803711 17.2397461 361.803711 16.3256836 361.022949 15.6210938 360.013672 15.6210938 358.940918 15.6210938 358.217285 16.3383789 358.217285 17.4174805L358.217285 17.4238281 357.112793 17.4238281 357.112793 17.4174805zM35.4125977 70L34.0942383 70 34.0942383 60.6176758 30.6884766 60.6176758 30.6884766 59.4311523 38.8183594 59.4311523 38.8183594 60.6176758 35.4125977 60.6176758 35.4125977 70zM40.7666016 70L40.7666016 58.9697266 42.0263672 58.9697266 42.0263672 63.3496094 42.1435547 63.3496094C42.5390625 62.4780273 43.3666992 61.965332 44.5751953 61.965332 46.2451172 61.965332 47.2998047 63.034668 47.2998047 64.8876953L47.2998047 70 46.0400391 70 46.0400391 65.1953125C46.0400391 63.7963867 45.4101562 63.1005859 44.2163086 63.1005859 42.8027344 63.1005859 42.0263672 63.9941406 42.0263672 65.3271484L42.0263672 70 40.7666016 70zM49.6289062 70L49.6289062 62.1044922 50.8886719 62.1044922 50.8886719 70 49.6289062 70zM50.2587891 60.5004883C49.7753906 60.5004883 49.3798828 60.1049805 49.3798828 59.621582 49.3798828 59.1381836 49.7753906 58.7426758 50.2587891 58.7426758 50.7421875 58.7426758 51.1376953 59.1381836 51.1376953 59.621582 51.1376953 60.1049805 50.7421875 60.5004883 50.2587891 60.5004883zM53.1079102 64.2651367C53.1079102 62.9541016 54.375 61.965332 56.0522461 61.965332 57.7075195 61.965332 58.8574219 62.7856445 59.0258789 64.0820312L57.7807617 64.0820312C57.6123047 63.4521484 56.9970703 63.034668 56.0449219 63.034668 55.1074219 63.034668 54.375 63.5107422 54.375 64.2138672 54.375 64.7558594 54.8144531 65.0927734 55.7446289 65.3198242L56.9604492 65.612793C58.4472656 65.9716797 59.1650391 66.6162109 59.1650391 67.7514648 59.1650391 69.1650391 57.7954102 70.1391602 56.0009766 70.1391602 54.2431641 70.1391602 53.034668 69.296875 52.8955078 67.9858398L54.1918945 67.9858398C54.4042969 68.6523438 55.0341797 69.0771484 56.0449219 69.0771484 57.1069336 69.0771484 57.8686523 68.5717773 57.8686523 67.8466797 57.8686523 67.3046875 57.4584961 66.9384766 56.6162109 66.7333984L55.2612305 66.4038086C53.7817383 66.0449219 53.1079102 65.4077148 53.1079102 64.2651367zM65.3759766 70L65.3759766 62.1044922 66.5771484 62.1044922 66.5771484 63.3496094 66.6943359 63.3496094C67.0532227 62.4707031 67.8442383 61.965332 68.8989258 61.965332 69.9682617 61.965332 70.715332 62.5292969 71.081543 63.3496094L71.1987305 63.3496094C71.6235352 62.5146484 72.5244141 61.965332 73.6157227 61.965332 75.2270508 61.965332 76.1279297 62.8881836 76.1279297 64.543457L76.1279297 70 74.8681641 70 74.8681641 64.8364258C74.8681641 63.671875 74.3188477 63.1005859 73.2055664 63.1005859 72.1069336 63.1005859 71.3745117 63.9208984 71.3745117 64.9243164L71.3745117 70 70.1147461 70 70.1147461 64.6386719C70.1147461 63.7011719 69.4628906 63.1005859 68.4667969 63.1005859 67.434082 63.1005859 66.6357422 63.9941406 66.6357422 65.1074219L66.6357422 70 65.3759766 70zM81.5771484 63.0786133C80.3173828 63.0786133 79.4384766 64.0014648 79.3432617 65.4003906L83.6938477 65.4003906C83.6645508 64.0014648 82.8295898 63.0786133 81.5771484 63.0786133zM83.6572266 67.956543L84.9169922 67.956543C84.5361328 69.3115234 83.3203125 70.1391602 81.5917969 70.1391602 79.4018555 70.1391602 78.0322266 68.5571289 78.0322266 66.0595703 78.0322266 63.5766602 79.4238281 61.965332 81.5917969 61.965332 83.7231445 61.965332 85.0195312 63.4814453 85.0195312 65.9350586L85.0195312 66.418457 79.3432617 66.418457 79.3432617 66.4770508C79.4091797 68.0371094 80.2807617 69.0258789 81.6210938 69.0258789 82.6391602 69.0258789 83.3276367 68.6523438 83.6572266 67.956543zM86.8139648 64.2651367C86.8139648 62.9541016 88.0810547 61.965332 89.7583008 61.965332 91.4135742 61.965332 92.5634766 62.7856445 92.7319336 64.0820312L91.4868164 64.0820312C91.3183594 63.4521484 90.703125 63.034668 89.7509766 63.034668 88.8134766 63.034668 88.0810547 63.5107422 88.0810547 64.2138672 88.0810547 64.7558594 88.5205078 65.0927734 89.4506836 65.3198242L90.6665039 65.612793C92.1533203 65.9716797 92.8710938 66.6162109 92.8710938 67.7514648 92.8710938 69.1650391 91.5014648 70.1391602 89.7070312 70.1391602 87.9492188 70.1391602 86.7407227 69.296875 86.6015625 67.9858398L87.8979492 67.9858398C88.1103516 68.6523438 88.7402344 69.0771484 89.7509766 69.0771484 90.8129883 69.0771484 91.574707 68.5717773 91.574707 67.8466797 91.574707 67.3046875 91.1645508 66.9384766 90.3222656 66.7333984L88.9672852 66.4038086C87.487793 66.0449219 86.8139648 65.4077148 86.8139648 64.2651367zM94.519043 64.2651367C94.519043 62.9541016 95.7861328 61.965332 97.4633789 61.965332 99.1186523 61.965332 100.268555 62.7856445 100.437012 64.0820312L99.1918945 64.0820312C99.0234375 63.4521484 98.4082031 63.034668 97.4560547 63.034668 96.5185547 63.034668 95.7861328 63.5107422 95.7861328 64.2138672 95.7861328 64.7558594 96.2255859 65.0927734 97.1557617 65.3198242L98.371582 65.612793C99.8583984 65.9716797 100.576172 66.6162109 100.576172 67.7514648 100.576172 69.1650391 99.206543 70.1391602 97.4121094 70.1391602 95.6542969 70.1391602 94.4458008 69.296875 94.3066406 67.9858398L95.6030273 67.9858398C95.8154297 68.6523438 96.4453125 69.0771484 97.4560547 69.0771484 98.5180664 69.0771484 99.2797852 68.5717773 99.2797852 67.8466797 99.2797852 67.3046875 98.8696289 66.9384766 98.0273438 66.7333984L96.6723633 66.4038086C95.1928711 66.0449219 94.519043 65.4077148 94.519043 64.2651367zM104.985352 69.0332031C106.281738 69.0332031 107.241211 68.1835938 107.241211 67.0556641L107.241211 66.3305664 105.117188 66.4697266C103.916016 66.550293 103.388672 66.9677734 103.388672 67.7587891 103.388672 68.5644531 104.069824 69.0332031 104.985352 69.0332031zM104.750977 70.1391602C103.220215 70.1391602 102.084961 69.230957 102.084961 67.7880859 102.084961 66.3745117 103.125 65.5615234 104.963379 65.4516602L107.241211 65.3125 107.241211 64.5947266C107.241211 63.6206055 106.633301 63.0859375 105.454102 63.0859375 104.509277 63.0859375 103.850098 63.4448242 103.674316 64.0673828L102.399902 64.0673828C102.568359 62.800293 103.813477 61.965332 105.498047 61.965332 107.424316 61.965332 108.500977 62.9541016 108.500977 64.5947266L108.500977 70 107.299805 70 107.299805 68.8354492 107.182617 68.8354492C106.669922 69.6777344 105.805664 70.1391602 104.750977 70.1391602zM114.023438 68.7695312C115.488281 68.7695312 116.367188 67.65625 116.367188 65.9350586 116.367188 64.2138672 115.480957 63.1005859 114.023438 63.1005859 112.558594 63.1005859 111.738281 64.2138672 111.738281 65.9350586 111.738281 67.65625 112.558594 68.7695312 114.023438 68.7695312zM114.082031 73.0322266C112.177734 73.0322266 110.961914 72.175293 110.771484 70.871582L112.104492 70.871582C112.243652 71.5161133 112.946777 71.9335938 114.082031 71.9335938 115.495605 71.9335938 116.337891 71.237793 116.337891 70.0732422L116.337891 68.5205078 116.220703 68.5205078C115.722656 69.3920898 114.829102 69.8828125 113.745117 69.8828125 111.70166 69.8828125 110.43457 68.3007812 110.43457 65.9350586 110.43457 63.5693359 111.716309 61.965332 113.745117 61.965332 114.851074 61.965332 115.825195 62.5073242 116.279297 63.3569336L116.396484 63.3569336 116.396484 62.1044922 117.597656 62.1044922 117.597656 70.1391602C117.597656 71.9042969 116.235352 73.0322266 114.082031 73.0322266zM123.120117 63.0786133C121.860352 63.0786133 120.981445 64.0014648 120.88623 65.4003906L125.236816 65.4003906C125.20752 64.0014648 124.372559 63.0786133 123.120117 63.0786133zM125.200195 67.956543L126.459961 67.956543C126.079102 69.3115234 124.863281 70.1391602 123.134766 70.1391602 120.944824 70.1391602 119.575195 68.5571289 119.575195 66.0595703 119.575195 63.5766602 120.966797 61.965332 123.134766 61.965332 125.266113 61.965332 126.5625 63.4814453 126.5625 65.9350586L126.5625 66.418457 120.88623 66.418457 120.88623 66.4770508C120.952148 68.0371094 121.82373 69.0258789 123.164062 69.0258789 124.182129 69.0258789 124.870605 68.6523438 125.200195 67.956543zM132.84668 70L132.84668 58.9697266 134.106445 58.9697266 134.106445 63.3496094 134.223633 63.3496094C134.619141 62.4780273 135.446777 61.965332 136.655273 61.965332 138.325195 61.965332 139.379883 63.034668 139.379883 64.8876953L139.379883 70 138.120117 70 138.120117 65.1953125C138.120117 63.7963867 137.490234 63.1005859 136.296387 63.1005859 134.882812 63.1005859 134.106445 63.9941406 134.106445 65.3271484L134.106445 70 132.84668 70zM144.111328 69.0332031C145.407715 69.0332031 146.367188 68.1835938 146.367188 67.0556641L146.367188 66.3305664 144.243164 66.4697266C143.041992 66.550293 142.514648 66.9677734 142.514648 67.7587891 142.514648 68.5644531 143.195801 69.0332031 144.111328 69.0332031zM143.876953 70.1391602C142.346191 70.1391602 141.210938 69.230957 141.210938 67.7880859 141.210938 66.3745117 142.250977 65.5615234 144.089355 65.4516602L146.367188 65.3125 146.367188 64.5947266C146.367188 63.6206055 145.759277 63.0859375 144.580078 63.0859375 143.635254 63.0859375 142.976074 63.4448242 142.800293 64.0673828L141.525879 64.0673828C141.694336 62.800293 142.939453 61.965332 144.624023 61.965332 146.550293 61.965332 147.626953 62.9541016 147.626953 64.5947266L147.626953 70 146.425781 70 146.425781 68.8354492 146.308594 68.8354492C145.795898 69.6777344 144.931641 70.1391602 143.876953 70.1391602zM149.772949 64.2651367C149.772949 62.9541016 151.040039 61.965332 152.717285 61.965332 154.372559 61.965332 155.522461 62.7856445 155.690918 64.0820312L154.445801 64.0820312C154.277344 63.4521484 153.662109 63.034668 152.709961 63.034668 151.772461 63.034668 151.040039 63.5107422 151.040039 64.2138672 151.040039 64.7558594 151.479492 65.0927734 152.409668 65.3198242L153.625488 65.612793C155.112305 65.9716797 155.830078 66.6162109 155.830078 67.7514648 155.830078 69.1650391 154.460449 70.1391602 152.666016 70.1391602 150.908203 70.1391602 149.699707 69.296875 149.560547 67.9858398L150.856934 67.9858398C151.069336 68.6523438 151.699219 69.0771484 152.709961 69.0771484 153.771973 69.0771484 154.533691 68.5717773 154.533691 67.8466797 154.533691 67.3046875 154.123535 66.9384766 153.28125 66.7333984L151.92627 66.4038086C150.446777 66.0449219 149.772949 65.4077148 149.772949 64.2651367zM162.041016 70L162.041016 62.1044922 163.242188 62.1044922 163.242188 63.3496094 163.359375 63.3496094C163.754883 62.4780273 164.523926 61.965332 165.732422 61.965332 167.504883 61.965332 168.493652 63.0126953 168.493652 64.8876953L168.493652 70 167.233887 70 167.233887 65.1953125C167.233887 63.7744141 166.633301 63.1005859 165.373535 63.1005859 164.11377 63.1005859 163.300781 63.9428711 163.300781 65.3271484L163.300781 70 162.041016 70zM174.038086 70.1391602C171.789551 70.1391602 170.397949 68.5864258 170.397949 66.0522461 170.397949 63.5107422 171.789551 61.965332 174.038086 61.965332 176.286621 61.965332 177.678223 63.5107422 177.678223 66.0522461 177.678223 68.5864258 176.286621 70.1391602 174.038086 70.1391602zM174.038086 69.0039062C175.532227 69.0039062 176.374512 67.9199219 176.374512 66.0522461 176.374512 64.1772461 175.532227 63.1005859 174.038086 63.1005859 172.543945 63.1005859 171.70166 64.1772461 171.70166 66.0522461 171.70166 67.9199219 172.543945 69.0039062 174.038086 69.0039062zM190.422363 64.5214844L189.147949 64.5214844C188.942871 63.737793 188.24707 63.1005859 187.111816 63.1005859 185.690918 63.1005859 184.797363 64.2358398 184.797363 66.0229492 184.797363 67.8466797 185.705566 69.0039062 187.111816 69.0039062 188.173828 69.0039062 188.913574 68.5131836 189.147949 67.6196289L190.422363 67.6196289C190.195312 69.0698242 189.016113 70.1391602 187.119141 70.1391602 184.907227 70.1391602 183.493652 68.5351562 183.493652 66.0229492 183.493652 63.5620117 184.899902 61.965332 187.111816 61.965332 189.030762 61.965332 190.202637 63.1152344 190.422363 64.5214844zM195.527344 70.1391602C193.278809 70.1391602 191.887207 68.5864258 191.887207 66.0522461 191.887207 63.5107422 193.278809 61.965332 195.527344 61.965332 197.775879 61.965332 199.16748 63.5107422 199.16748 66.0522461 199.16748 68.5864258 197.775879 70.1391602 195.527344 70.1391602zM195.527344 69.0039062C197.021484 69.0039062 197.86377 67.9199219 197.86377 66.0522461 197.86377 64.1772461 197.021484 63.1005859 195.527344 63.1005859 194.033203 63.1005859 193.190918 64.1772461 193.190918 66.0522461 193.190918 67.9199219 194.033203 69.0039062 195.527344 69.0039062zM201.14502 70L201.14502 62.1044922 202.346191 62.1044922 202.346191 63.3496094 202.463379 63.3496094C202.858887 62.4780273 203.62793 61.965332 204.836426 61.965332 206.608887 61.965332 207.597656 63.0126953 207.597656 64.8876953L207.597656 70 206.337891 70 206.337891 65.1953125C206.337891 63.7744141 205.737305 63.1005859 204.477539 63.1005859 203.217773 63.1005859 202.404785 63.9428711 202.404785 65.3271484L202.404785 70 201.14502 70zM210.424805 60.0610352L211.68457 60.0610352 211.68457 62.1044922 213.442383 62.1044922 213.442383 63.1591797 211.68457 63.1591797 211.68457 67.6269531C211.68457 68.5571289 212.036133 68.9526367 212.856445 68.9526367 213.083496 68.9526367 213.208008 68.9453125 213.442383 68.9233398L213.442383 69.9853516C213.193359 70.0292969 212.95166 70.0585938 212.702637 70.0585938 211.07666 70.0585938 210.424805 69.4580078 210.424805 67.9492188L210.424805 63.1591797 209.150391 63.1591797 209.150391 62.1044922 210.424805 62.1044922 210.424805 60.0610352zM218.38623 63.0786133C217.126465 63.0786133 216.247559 64.0014648 216.152344 65.4003906L220.50293 65.4003906C220.473633 64.0014648 219.638672 63.0786133 218.38623 63.0786133zM220.466309 67.956543L221.726074 67.956543C221.345215 69.3115234 220.129395 70.1391602 218.400879 70.1391602 216.210938 70.1391602 214.841309 68.5571289 214.841309 66.0595703 214.841309 63.5766602 216.23291 61.965332 218.400879 61.965332 220.532227 61.965332 221.828613 63.4814453 221.828613 65.9350586L221.828613 66.418457 216.152344 66.418457 216.152344 66.4770508C216.218262 68.0371094 217.089844 69.0258789 218.430176 69.0258789 219.448242 69.0258789 220.136719 68.6523438 220.466309 67.956543zM223.806152 70L223.806152 62.1044922 225.007324 62.1044922 225.007324 63.3496094 225.124512 63.3496094C225.52002 62.4780273 226.289062 61.965332 227.497559 61.965332 229.27002 61.965332 230.258789 63.0126953 230.258789 64.8876953L230.258789 70 228.999023 70 228.999023 65.1953125C228.999023 63.7744141 228.398438 63.1005859 227.138672 63.1005859 225.878906 63.1005859 225.065918 63.9428711 225.065918 65.3271484L225.065918 70 223.806152 70zM233.085938 60.0610352L234.345703 60.0610352 234.345703 62.1044922 236.103516 62.1044922 236.103516 63.1591797 234.345703 63.1591797 234.345703 67.6269531C234.345703 68.5571289 234.697266 68.9526367 235.517578 68.9526367 235.744629 68.9526367 235.869141 68.9453125 236.103516 68.9233398L236.103516 69.9853516C235.854492 70.0292969 235.612793 70.0585938 235.36377 70.0585938 233.737793 70.0585938 233.085938 69.4580078 233.085938 67.9492188L233.085938 63.1591797 231.811523 63.1591797 231.811523 62.1044922 233.085938 62.1044922 233.085938 60.0610352zM239.047852 70.0732422C238.527832 70.0732422 238.095703 69.6411133 238.095703 69.1210938 238.095703 68.59375 238.527832 68.1689453 239.047852 68.1689453 239.575195 68.1689453 240 68.59375 240 69.1210938 240 69.6411133 239.575195 70.0732422 239.047852 70.0732422zM36.046875 49L31.4140625 49 31.4140625 37.7265625 35.9453125 37.7265625C38.0625 37.7265625 39.3359375 38.8046875 39.3359375 40.5390625 39.3359375 41.71875 38.46875 42.7734375 37.359375 42.9609375L37.359375 43.09375C38.8828125 43.25 39.8984375 44.3359375 39.8984375 45.8046875 39.8984375 47.7890625 38.453125 49 36.046875 49zM33.1640625 39.2109375L33.1640625 42.5 35.2421875 42.5C36.7890625 42.5 37.59375 41.9296875 37.59375 40.859375 37.59375 39.8203125 36.8359375 39.2109375 35.5390625 39.2109375L33.1640625 39.2109375zM33.1640625 47.515625L35.6953125 47.515625C37.2734375 47.515625 38.109375 46.875 38.109375 45.6796875 38.109375 44.5 37.2421875 43.8828125 35.59375 43.8828125L33.1640625 43.8828125 33.1640625 47.515625zM45.5390625 49.1640625C43.046875 49.1640625 41.5234375 47.5 41.5234375 44.7421875 41.5234375 42 43.0546875 40.328125 45.5390625 40.328125 48.015625 40.328125 49.546875 42 49.546875 44.7421875 49.546875 47.5 48.0234375 49.1640625 45.5390625 49.1640625zM45.5390625 47.671875C46.9921875 47.671875 47.8203125 46.59375 47.8203125 44.7421875 47.8203125 42.8984375 46.9921875 41.8203125 45.5390625 41.8203125 44.078125 41.8203125 43.2578125 42.8984375 43.2578125 44.7421875 43.2578125 46.6015625 44.078125 47.671875 45.5390625 47.671875zM55.15625 49.1640625C52.6640625 49.1640625 51.140625 47.5 51.140625 44.7421875 51.140625 42 52.671875 40.328125 55.15625 40.328125 57.6328125 40.328125 59.1640625 42 59.1640625 44.7421875 59.1640625 47.5 57.640625 49.1640625 55.15625 49.1640625zM55.15625 47.671875C56.609375 47.671875 57.4375 46.59375 57.4375 44.7421875 57.4375 42.8984375 56.609375 41.8203125 55.15625 41.8203125 53.6953125 41.8203125 52.875 42.8984375 52.875 44.7421875 52.875 46.6015625 53.6953125 47.671875 55.15625 47.671875zM63.0703125 44.0390625L66.4453125 40.4921875 68.4296875 40.4921875 64.9296875 44.140625 68.6640625 49 66.6015625 49 63.6796875 45.25 62.9375 45.953125 62.9375 49 61.2578125 49 61.2578125 37.171875 62.9375 37.171875 62.9375 44.0390625 63.0703125 44.0390625zM84.0546875 49L82.3125 49 82.3125 44.0546875 76.5234375 44.0546875 76.5234375 49 74.7734375 49 74.7734375 37.7265625 76.5234375 37.7265625 76.5234375 42.4609375 82.3125 42.4609375 82.3125 37.7265625 84.0546875 37.7265625 84.0546875 49zM90.28125 49.1640625C87.7890625 49.1640625 86.265625 47.5 86.265625 44.7421875 86.265625 42 87.796875 40.328125 90.28125 40.328125 92.7578125 40.328125 94.2890625 42 94.2890625 44.7421875 94.2890625 47.5 92.765625 49.1640625 90.28125 49.1640625zM90.28125 47.671875C91.734375 47.671875 92.5625 46.59375 92.5625 44.7421875 92.5625 42.8984375 91.734375 41.8203125 90.28125 41.8203125 88.8203125 41.8203125 88 42.8984375 88 44.7421875 88 46.6015625 88.8203125 47.671875 90.28125 47.671875zM96.8984375 38.375L98.578125 38.375 98.578125 40.53125 100.421875 40.53125 100.421875 41.9453125 98.578125 41.9453125 98.578125 46.3203125C98.578125 47.2109375 98.9453125 47.6015625 99.78125 47.6015625 100.039062 47.6015625 100.1875 47.5859375 100.421875 47.5625L100.421875 48.9609375C100.148438 49.0078125 99.8359375 49.046875 99.5078125 49.046875 97.640625 49.046875 96.8984375 48.390625 96.8984375 46.75L96.8984375 41.9453125 95.546875 41.9453125 95.546875 40.53125 96.8984375 40.53125 96.8984375 38.375zM105.796875 41.7578125C104.554688 41.7578125 103.6875 42.6328125 103.59375 43.9609375L107.890625 43.9609375C107.851562 42.625 107.039062 41.7578125 105.796875 41.7578125zM107.882812 46.703125L109.5 46.703125C109.117188 48.2265625 107.757812 49.1640625 105.8125 49.1640625 103.375 49.1640625 101.882812 47.4921875 101.882812 44.7734375 101.882812 42.0546875 103.40625 40.328125 105.804688 40.328125 108.171875 40.328125 109.601562 41.9453125 109.601562 44.6171875L109.601562 45.203125 103.59375 45.203125 103.59375 45.296875C103.648438 46.7890625 104.515625 47.734375 105.859375 47.734375 106.875 47.734375 107.570312 47.3671875 107.882812 46.703125zM111.695312 49L111.695312 37.171875 113.375 37.171875 113.375 49 111.695312 49zM44.1362305 27L41.8120117 27 41.8120117 18.9897461 41.6791992 18.9897461 38.6328125 26.3110352 36.9643555 26.3110352 33.909668 18.9897461 33.7768555 18.9897461 33.7768555 27 31.4526367 27 31.4526367 15.0219727 34.4077148 15.0219727 37.7197266 23.0737305 37.8691406 23.0737305 41.1894531 15.0219727 44.1362305 15.0219727 44.1362305 27zM50.1044922 25.3232422C51.2250977 25.3232422 52.0717773 24.609375 52.0717773 23.6796875L52.0717773 23.0073242 50.2207031 23.1235352C49.1831055 23.1982422 48.6767578 23.5717773 48.6767578 24.2275391 48.6767578 24.9082031 49.2661133 25.3232422 50.1044922 25.3232422zM49.3076172 27.1411133C47.5478516 27.1411133 46.3110352 26.0620117 46.3110352 24.3852539 46.3110352 22.7250977 47.5810547 21.762207 49.8554688 21.6293945L52.0717773 21.496582 52.0717773 20.7495117C52.0717773 19.9858398 51.5239258 19.5541992 50.527832 19.5541992 49.65625 19.5541992 49.0751953 19.8530273 48.8759766 20.4008789L46.6513672 20.4008789C46.809082 18.7075195 48.3613281 17.6450195 50.6606445 17.6450195 53.0844727 17.6450195 54.4541016 18.7905273 54.4541016 20.7495117L54.4541016 27 52.1132812 27 52.1132812 25.8046875 51.9638672 25.8046875C51.4907227 26.6430664 50.4946289 27.1411133 49.3076172 27.1411133zM62.2236328 27.1411133C60.9287109 27.1411133 59.8911133 26.5600586 59.4013672 25.5639648L59.2519531 25.5639648 59.2519531 27 56.9111328 27 56.9111328 14.3496094 59.3266602 14.3496094 59.3266602 19.3051758 59.4760742 19.3051758C59.940918 18.3007812 60.9702148 17.6948242 62.2236328 17.6948242 64.5395508 17.6948242 65.934082 19.4628906 65.934082 22.4179688 65.934082 25.3564453 64.5229492 27.1411133 62.2236328 27.1411133zM61.3852539 19.7202148C60.1152344 19.7202148 59.3100586 20.7578125 59.3017578 22.4262695 59.3100586 24.0864258 60.1069336 25.1240234 61.3852539 25.1240234 62.671875 25.1240234 63.4521484 24.0947266 63.4521484 22.4179688 63.4521484 20.7495117 62.6635742 19.7202148 61.3852539 19.7202148zM67.984375 27L67.984375 14.3496094 70.3999023 14.3496094 70.3999023 27 67.984375 27zM76.8662109 19.4960938C75.7456055 19.4960938 74.9570312 20.2763672 74.8740234 21.4633789L78.7753906 21.4633789C78.7255859 20.2514648 77.9951172 19.4960938 76.8662109 19.4960938zM78.8251953 24.3935547L81.074707 24.3935547C80.7094727 26.1201172 79.1323242 27.1992188 76.8911133 27.1992188 74.1020508 27.1992188 72.4584961 25.4394531 72.4584961 22.4677734 72.4584961 19.487793 74.1352539 17.6450195 76.8579102 17.6450195 79.5556641 17.6450195 81.1494141 19.3632812 81.1494141 22.2685547L81.1494141 23.0073242 74.8657227 23.0073242 74.8657227 23.1318359C74.8989258 24.4931641 75.6958008 25.3398438 76.9575195 25.3398438 77.9121094 25.3398438 78.5678711 24.9995117 78.8251953 24.3935547zM100.432129 27L98.1079102 27 98.1079102 18.9897461 97.9750977 18.9897461 94.9287109 26.3110352 93.2602539 26.3110352 90.2055664 18.9897461 90.0727539 18.9897461 90.0727539 27 87.7485352 27 87.7485352 15.0219727 90.7036133 15.0219727 94.015625 23.0737305 94.1650391 23.0737305 97.4853516 15.0219727 100.432129 15.0219727 100.432129 27zM107.155762 27.1992188C104.341797 27.1992188 102.648438 25.4145508 102.648438 22.4179688 102.648438 19.4545898 104.366699 17.6450195 107.155762 17.6450195 109.944824 17.6450195 111.663086 19.4462891 111.663086 22.4179688 111.663086 25.4145508 109.969727 27.1992188 107.155762 27.1992188zM107.155762 25.2236328C108.442383 25.2236328 109.181152 24.1943359 109.181152 22.4179688 109.181152 20.6582031 108.434082 19.6206055 107.155762 19.6206055 105.869141 19.6206055 105.130371 20.6582031 105.130371 22.4179688 105.130371 24.2026367 105.86084 25.2236328 107.155762 25.2236328zM113.630371 27L113.630371 17.8442383 115.971191 17.8442383 115.971191 19.3051758 116.120605 19.3051758C116.361328 18.3920898 117.307617 17.6948242 118.469727 17.6948242 118.801758 17.6948242 119.208496 17.7363281 119.416016 17.8110352L119.416016 20.0107422C119.225098 19.9360352 118.660645 19.8613281 118.270508 19.8613281 116.950684 19.8613281 116.045898 20.6416016 116.045898 21.9282227L116.045898 27 113.630371 27zM121.109375 27L121.109375 17.8442383 123.450195 17.8442383 123.450195 19.3051758 123.599609 19.3051758C123.840332 18.3920898 124.786621 17.6948242 125.94873 17.6948242 126.280762 17.6948242 126.6875 17.7363281 126.89502 17.8110352L126.89502 20.0107422C126.704102 19.9360352 126.139648 19.8613281 125.749512 19.8613281 124.429688 19.8613281 123.524902 20.6416016 123.524902 21.9282227L123.524902 27 121.109375 27zM128.521973 27L128.521973 17.8442383 130.9375 17.8442383 130.9375 27 128.521973 27zM129.733887 16.565918C128.862305 16.565918 128.306152 16.0595703 128.306152 15.3457031 128.306152 14.6235352 128.862305 14.1254883 129.733887 14.1254883 130.597168 14.1254883 131.161621 14.6235352 131.161621 15.3457031 131.161621 16.0595703 130.597168 16.565918 129.733887 16.565918zM133.17041 20.5336914C133.17041 18.7988281 134.697754 17.6450195 136.980469 17.6450195 139.304688 17.6450195 140.674316 18.6162109 140.807129 20.3676758L138.574219 20.3676758C138.449707 19.7783203 137.893555 19.4130859 136.99707 19.4130859 136.133789 19.4130859 135.494629 19.8032227 135.494629 20.3842773 135.494629 20.8325195 135.884766 21.1064453 136.731445 21.2973633L138.449707 21.6708984C140.226074 22.0610352 141.022949 22.8081055 141.022949 24.1777344 141.022949 26.0039062 139.387695 27.1992188 136.98877 27.1992188 134.573242 27.1992188 133.112305 26.2114258 132.946289 24.4516602L135.303711 24.4516602C135.486328 25.0742188 136.075684 25.4311523 137.038574 25.4311523 137.976562 25.4311523 138.624023 25.0410156 138.624023 24.4516602 138.624023 24.003418 138.275391 23.7294922 137.470215 23.5551758L135.810059 23.1816406C134.033691 22.7915039 133.17041 21.9448242 133.17041 20.5336914zM147.065918 27.1992188C144.251953 27.1992188 142.558594 25.4145508 142.558594 22.4179688 142.558594 19.4545898 144.276855 17.6450195 147.065918 17.6450195 149.85498 17.6450195 151.573242 19.4462891 151.573242 22.4179688 151.573242 25.4145508 149.879883 27.1992188 147.065918 27.1992188zM147.065918 25.2236328C148.352539 25.2236328 149.091309 24.1943359 149.091309 22.4179688 149.091309 20.6582031 148.344238 19.6206055 147.065918 19.6206055 145.779297 19.6206055 145.040527 20.6582031 145.040527 22.4179688 145.040527 24.2026367 145.770996 25.2236328 147.065918 25.2236328zM153.540527 27L153.540527 17.8442383 155.881348 17.8442383 155.881348 19.3134766 156.030762 19.3134766C156.454102 18.2841797 157.383789 17.6450195 158.736816 17.6450195 160.770508 17.6450195 161.866211 18.8901367 161.866211 21.081543L161.866211 27 159.450684 27 159.450684 21.6542969C159.450684 20.3925781 158.911133 19.7285156 157.765625 19.7285156 156.64502 19.7285156 155.956055 20.5170898 155.956055 21.7207031L155.956055 27 153.540527 27z"/>
      </g>
      <g transform="translate(0 72)">
        <rect width="375" height="48" fill="#FFF"/>
        <use fill="#000" filter="url(#1-c)" xlink:href="#1-d"/>
        <use fill="#FFF" fill-opacity="0" xlink:href="#1-d"/>
        <g transform="translate(298 5)">
          <path fill="#919FA8" d="M4.36923828,36 L3.4024414,36 L3.4024414,29.1196289 L0.904882811,29.1196289 L0.904882811,28.2495117 L6.86679687,28.2495117 L6.86679687,29.1196289 L4.36923828,29.1196289 L4.36923828,36 Z M9.54714844,30.9243164 C8.62332031,30.9243164 7.97878906,31.6010742 7.90896484,32.6269531 L11.0993945,32.6269531 C11.0779102,31.6010742 10.4656055,30.9243164 9.54714844,30.9243164 Z M11.0725391,34.5014648 L11.9963672,34.5014648 C11.7170703,35.4951172 10.8254687,36.1020508 9.55789062,36.1020508 C7.95193359,36.1020508 6.94753906,34.9418945 6.94753906,33.1103516 C6.94753906,31.2895508 7.96804687,30.1079102 9.55789062,30.1079102 C11.1208789,30.1079102 12.0715625,31.2197266 12.0715625,33.019043 L12.0715625,33.3735352 L7.90896484,33.3735352 L7.90896484,33.4165039 C7.95730469,34.5605469 8.59646484,35.2856445 9.579375,35.2856445 C10.325957,35.2856445 10.8308398,35.0117188 11.0725391,34.5014648 Z M15.4286719,33.8139648 L15.3427344,33.8139648 L13.9677344,36 L12.9203711,36 L14.9023047,33.1049805 L12.8988867,30.2099609 L13.9999609,30.2099609 L15.3749609,32.3637695 L15.4608984,32.3637695 L16.8197852,30.2099609 L17.8671484,30.2099609 L15.9013281,33.0673828 L17.8940039,36 L16.7983008,36 L15.4286719,33.8139648 Z M19.6129297,28.7114258 L20.5367578,28.7114258 L20.5367578,30.2099609 L21.8258203,30.2099609 L21.8258203,30.9833984 L20.5367578,30.9833984 L20.5367578,34.2597656 C20.5367578,34.9418945 20.7945703,35.2319336 21.3961328,35.2319336 C21.5626367,35.2319336 21.6539453,35.2265625 21.8258203,35.2104492 L21.8258203,35.9892578 C21.6432031,36.0214844 21.465957,36.0429688 21.2833398,36.0429688 C20.090957,36.0429688 19.6129297,35.6025391 19.6129297,34.4960938 L19.6129297,30.9833984 L18.6783594,30.9833984 L18.6783594,30.2099609 L19.6129297,30.2099609 L19.6129297,28.7114258 Z M26.5205078,36 L26.5205078,27.9111328 L27.4443359,27.9111328 L27.4443359,36 L26.5205078,36 Z M31.0914844,35.2910156 C32.042168,35.2910156 32.7457813,34.6679688 32.7457813,33.8408203 L32.7457813,33.309082 L31.1881641,33.4111328 C30.3073047,33.4702148 29.9205859,33.7763672 29.9205859,34.3564453 C29.9205859,34.9472656 30.4200977,35.2910156 31.0914844,35.2910156 Z M30.9196094,36.1020508 C29.7970508,36.1020508 28.9645313,35.4360352 28.9645313,34.3779297 C28.9645313,33.3413086 29.7272266,32.7451172 31.0753711,32.6645508 L32.7457813,32.5625 L32.7457813,32.0361328 C32.7457813,31.3217773 32.2999805,30.9296875 31.4352344,30.9296875 C30.7423633,30.9296875 30.2589648,31.1928711 30.1300586,31.6494141 L29.1954883,31.6494141 C29.3190234,30.7202148 30.2321094,30.1079102 31.4674609,30.1079102 C32.8800586,30.1079102 33.6696094,30.8330078 33.6696094,32.0361328 L33.6696094,36 L32.78875,36 L32.78875,35.1459961 L32.7028125,35.1459961 C32.3268359,35.7636719 31.6930469,36.1020508 30.9196094,36.1020508 Z M38.3265234,36.1020508 C37.5208594,36.1020508 36.8333594,35.7207031 36.468125,35.0761719 L36.3821875,35.0761719 L36.3821875,36 L35.5013281,36 L35.5013281,27.9111328 L36.4251563,27.9111328 L36.4251563,31.1230469 L36.5110938,31.1230469 C36.8279883,30.5 37.5316016,30.1079102 38.3265234,30.1079102 C39.7982031,30.1079102 40.7542578,31.2841797 40.7542578,33.1049805 C40.7542578,34.9150391 39.792832,36.1020508 38.3265234,36.1020508 Z M38.1116797,30.9404297 C37.0589453,30.9404297 36.4036719,31.7675781 36.4036719,33.1049805 C36.4036719,34.4423828 37.0589453,35.2695312 38.1116797,35.2695312 C39.1697852,35.2695312 39.7982031,34.4584961 39.7982031,33.1049805 C39.7982031,31.7514648 39.1697852,30.9404297 38.1116797,30.9404297 Z M44.5840234,30.9243164 C43.6601953,30.9243164 43.0156641,31.6010742 42.9458398,32.6269531 L46.1362695,32.6269531 C46.1147852,31.6010742 45.5024805,30.9243164 44.5840234,30.9243164 Z M46.1094141,34.5014648 L47.0332422,34.5014648 C46.7539453,35.4951172 45.8623438,36.1020508 44.5947656,36.1020508 C42.9888086,36.1020508 41.9844141,34.9418945 41.9844141,33.1103516 C41.9844141,31.2895508 43.0049219,30.1079102 44.5947656,30.1079102 C46.1577539,30.1079102 47.1084375,31.2197266 47.1084375,33.019043 L47.1084375,33.3735352 L42.9458398,33.3735352 L42.9458398,33.4165039 C42.9941797,34.5605469 43.6333398,35.2856445 44.61625,35.2856445 C45.362832,35.2856445 45.8677148,35.0117188 46.1094141,34.5014648 Z M48.6823438,36 L48.6823438,27.9111328 L49.6061719,27.9111328 L49.6061719,36 L48.6823438,36 Z"/>
          <g transform="translate(13)">
            <path d="M22.5,12 C22.5,13.2043883 21.6033646,14.2205752 20.4084762,14.3703315 L19.1843826,14.5228224 C18.8139894,14.5690194 18.634521,15.002062 18.8637518,15.2970794 L19.6214606,16.2706812 C20.3603604,17.2214482 20.2759249,18.5736819 19.4243867,19.4252201 C18.5732284,20.2763784 17.2209037,20.3608196 16.2695794,19.6212518 L15.2966285,18.8640491 C15.0018151,18.6350678 14.5689722,18.8143675 14.52279,19.1846421 L14.3694588,20.4087917 C14.2197957,21.6039884 13.2045899,22.5 12,22.5 C10.7954101,22.5 9.78020428,21.6039884 9.63054333,20.4088087 L9.47717756,19.1843826 C9.43102778,18.8143675 8.99818488,18.6350678 8.7037539,18.8637518 L7.73021284,19.6214134 C6.77909628,20.3608196 5.4267716,20.2763784 4.57561328,19.4252201 C3.7240751,18.5736819 3.63963956,17.2214482 4.3787482,16.2704128 L5.13601004,15.2973857 C5.365479,15.002062 5.18601065,14.5690194 4.81569049,14.5228315 L3.59115429,14.3702854 C2.39663545,14.2205752 1.5,13.2043883 1.5,12 C1.5,10.7962868 2.39679235,9.78023852 3.59152382,9.63050179 L4.81561744,9.4780109 C5.18601065,9.43181395 5.365479,8.99877133 5.1362482,8.7037539 L4.37853941,7.73015211 C3.63963956,6.7793851 3.7240751,5.42715145 4.57539443,4.57583226 C5.42629673,3.72387555 6.7787477,3.63974273 7.73021004,4.37941778 L8.70371275,5.13621617 C8.9984227,5.36552585 9.43102706,5.18647164 9.47721,4.81619127 L9.6305412,3.59204161 C9.78021844,2.39673184 10.7955238,1.5 12,1.5 C13.2044762,1.5 14.2197816,2.39673184 14.3694567,3.5920246 L14.5228224,4.81645077 C14.5689729,5.18647164 15.0015773,5.36552585 15.2964566,5.13608444 L16.2697872,4.37941995 C17.2212523,3.63974273 18.5737033,3.72387555 19.4243867,4.57561328 C20.2759249,5.42715145 20.3603604,6.7793851 19.6212518,7.73042057 L18.86399,8.70344765 C18.634521,8.99877133 18.8139894,9.43181395 19.1843095,9.47800179 L20.4084762,9.63050179 C21.6032077,9.78023852 22.5,10.7962868 22.5,12 Z M12,15 L12,15.5 C13.8913069,15.5 15.5,13.8914139 15.5,11.9994584 C15.5,10.1083874 13.8911082,8.5 12,8.5 C10.1088918,8.5 8.5,10.1083874 8.5,11.9994584 C8.5,13.8914139 10.1086931,15.5 12,15.5 L12,15 Z"/>
            <use fill="#A9B6BE" xlink:href="#1-e"/>
          </g>
        </g>
        <g transform="translate(208 5)">
          <path fill="#919FA8" d="M4.36923828,36 L3.4024414,36 L3.4024414,29.1196289 L0.904882811,29.1196289 L0.904882811,28.2495117 L6.86679687,28.2495117 L6.86679687,29.1196289 L4.36923828,29.1196289 L4.36923828,36 Z M9.54714844,30.9243164 C8.62332031,30.9243164 7.97878906,31.6010742 7.90896484,32.6269531 L11.0993945,32.6269531 C11.0779102,31.6010742 10.4656055,30.9243164 9.54714844,30.9243164 Z M11.0725391,34.5014648 L11.9963672,34.5014648 C11.7170703,35.4951172 10.8254687,36.1020508 9.55789062,36.1020508 C7.95193359,36.1020508 6.94753906,34.9418945 6.94753906,33.1103516 C6.94753906,31.2895508 7.96804687,30.1079102 9.55789062,30.1079102 C11.1208789,30.1079102 12.0715625,31.2197266 12.0715625,33.019043 L12.0715625,33.3735352 L7.90896484,33.3735352 L7.90896484,33.4165039 C7.95730469,34.5605469 8.59646484,35.2856445 9.579375,35.2856445 C10.325957,35.2856445 10.8308398,35.0117188 11.0725391,34.5014648 Z M15.4286719,33.8139648 L15.3427344,33.8139648 L13.9677344,36 L12.9203711,36 L14.9023047,33.1049805 L12.8988867,30.2099609 L13.9999609,30.2099609 L15.3749609,32.3637695 L15.4608984,32.3637695 L16.8197852,30.2099609 L17.8671484,30.2099609 L15.9013281,33.0673828 L17.8940039,36 L16.7983008,36 L15.4286719,33.8139648 Z M19.6129297,28.7114258 L20.5367578,28.7114258 L20.5367578,30.2099609 L21.8258203,30.2099609 L21.8258203,30.9833984 L20.5367578,30.9833984 L20.5367578,34.2597656 C20.5367578,34.9418945 20.7945703,35.2319336 21.3961328,35.2319336 C21.5626367,35.2319336 21.6539453,35.2265625 21.8258203,35.2104492 L21.8258203,35.9892578 C21.6432031,36.0214844 21.465957,36.0429688 21.2833398,36.0429688 C20.090957,36.0429688 19.6129297,35.6025391 19.6129297,34.4960938 L19.6129297,30.9833984 L18.6783594,30.9833984 L18.6783594,30.2099609 L19.6129297,30.2099609 L19.6129297,28.7114258 Z M26.5205078,36 L26.5205078,27.9111328 L27.4443359,27.9111328 L27.4443359,36 L26.5205078,36 Z M31.0914844,35.2910156 C32.042168,35.2910156 32.7457813,34.6679688 32.7457813,33.8408203 L32.7457813,33.309082 L31.1881641,33.4111328 C30.3073047,33.4702148 29.9205859,33.7763672 29.9205859,34.3564453 C29.9205859,34.9472656 30.4200977,35.2910156 31.0914844,35.2910156 Z M30.9196094,36.1020508 C29.7970508,36.1020508 28.9645313,35.4360352 28.9645313,34.3779297 C28.9645313,33.3413086 29.7272266,32.7451172 31.0753711,32.6645508 L32.7457813,32.5625 L32.7457813,32.0361328 C32.7457813,31.3217773 32.2999805,30.9296875 31.4352344,30.9296875 C30.7423633,30.9296875 30.2589648,31.1928711 30.1300586,31.6494141 L29.1954883,31.6494141 C29.3190234,30.7202148 30.2321094,30.1079102 31.4674609,30.1079102 C32.8800586,30.1079102 33.6696094,30.8330078 33.6696094,32.0361328 L33.6696094,36 L32.78875,36 L32.78875,35.1459961 L32.7028125,35.1459961 C32.3268359,35.7636719 31.6930469,36.1020508 30.9196094,36.1020508 Z M38.3265234,36.1020508 C37.5208594,36.1020508 36.8333594,35.7207031 36.468125,35.0761719 L36.3821875,35.0761719 L36.3821875,36 L35.5013281,36 L35.5013281,27.9111328 L36.4251563,27.9111328 L36.4251563,31.1230469 L36.5110938,31.1230469 C36.8279883,30.5 37.5316016,30.1079102 38.3265234,30.1079102 C39.7982031,30.1079102 40.7542578,31.2841797 40.7542578,33.1049805 C40.7542578,34.9150391 39.792832,36.1020508 38.3265234,36.1020508 Z M38.1116797,30.9404297 C37.0589453,30.9404297 36.4036719,31.7675781 36.4036719,33.1049805 C36.4036719,34.4423828 37.0589453,35.2695312 38.1116797,35.2695312 C39.1697852,35.2695312 39.7982031,34.4584961 39.7982031,33.1049805 C39.7982031,31.7514648 39.1697852,30.9404297 38.1116797,30.9404297 Z M44.5840234,30.9243164 C43.6601953,30.9243164 43.0156641,31.6010742 42.9458398,32.6269531 L46.1362695,32.6269531 C46.1147852,31.6010742 45.5024805,30.9243164 44.5840234,30.9243164 Z M46.1094141,34.5014648 L47.0332422,34.5014648 C46.7539453,35.4951172 45.8623438,36.1020508 44.5947656,36.1020508 C42.9888086,36.1020508 41.9844141,34.9418945 41.9844141,33.1103516 C41.9844141,31.2895508 43.0049219,30.1079102 44.5947656,30.1079102 C46.1577539,30.1079102 47.1084375,31.2197266 47.1084375,33.019043 L47.1084375,33.3735352 L42.9458398,33.3735352 L42.9458398,33.4165039 C42.9941797,34.5605469 43.6333398,35.2856445 44.61625,35.2856445 C45.362832,35.2856445 45.8677148,35.0117188 46.1094141,34.5014648 Z M48.6823438,36 L48.6823438,27.9111328 L49.6061719,27.9111328 L49.6061719,36 L48.6823438,36 Z"/>
          <path fill="#A9B6BE" d="M19.5713488,18.0016621 L4.4271902,18.0016621 C4.19258357,18.0016621 4.08430359,17.8396621 4.04921285,17.7706621 C4.01412212,17.6996621 3.94694842,17.5186621 4.08530618,17.3286621 L5.11196083,15.9366621 L5.11196083,11.2163 C5.11196083,8.1383 7.1151405,5.4273 9.98456003,4.6253 C10.2051304,4.5633 10.3414829,4.3613 10.3424855,4.1433 L10.3505063,3.7753 C10.3505063,2.7973 11.1485698,2.0003 12.1301078,2.0003 C13.1106432,2.0003 13.9087068,2.7973 13.9087068,3.7753 L13.9087068,4.1433 C13.9187327,4.3613 14.0540827,4.5633 14.274653,4.6253 C17.1440726,5.4273 19.1482548,8.1383 19.1482548,11.2163 L19.1482548,15.8986621 L19.9453158,17.3786621 C20.0475802,17.5696621 19.9723858,17.7336621 19.9352899,17.7956621 C19.898194,17.8576621 19.7889114,18.0016621 19.5713488,18.0016621 Z M13.6349991,19.5016621 C13.6349991,20.3296621 12.9602544,21.0036621 12.1301078,21.0036621 C11.2999613,21.0036621 10.624214,20.3296621 10.624214,19.5016621 L10.624214,19.0016621 L13.6349991,19.0016621 L13.6349991,19.5016621 Z M20.1508473,15.6466621 L20.1508473,11.2163 C20.1508473,7.8283 18.0093098,4.8453 14.9112992,3.7983 C14.9112992,2.2453 13.6640742,1.0003 12.1301078,1.0003 C10.5961414,1.0003 9.34791384,2.2453 9.34791384,3.7753 C6.25090582,4.8453 4.1093684,7.8283 4.1093684,11.2163 L4.1093684,15.6076621 L3.27721668,16.7366621 C2.9573897,17.1716621 2.91127044,17.7406621 3.1549004,18.2216621 C3.39953296,18.7026621 3.88679288,19.0016621 4.4271902,19.0016621 L9.62162157,19.0016621 L9.62162157,19.5016621 C9.62162157,20.8816621 10.7465303,22.0036621 12.1301078,22.0036621 C13.5126828,22.0036621 14.6375915,20.8816621 14.6375915,19.5016621 L14.6375915,19.0016621 L19.5713488,19.0016621 C20.0786606,19.0016621 20.5358427,18.7426621 20.7955142,18.3096621 C21.0561882,17.8756621 21.0682193,17.3516621 20.8285997,16.9056621 L20.1508473,15.6466621 Z" transform="translate(13)"/>
        </g>
        <g transform="translate(117 5)">
          <path fill="#919FA8" d="M4.36923828,36 L3.4024414,36 L3.4024414,29.1196289 L0.904882811,29.1196289 L0.904882811,28.2495117 L6.86679687,28.2495117 L6.86679687,29.1196289 L4.36923828,29.1196289 L4.36923828,36 Z M9.54714844,30.9243164 C8.62332031,30.9243164 7.97878906,31.6010742 7.90896484,32.6269531 L11.0993945,32.6269531 C11.0779102,31.6010742 10.4656055,30.9243164 9.54714844,30.9243164 Z M11.0725391,34.5014648 L11.9963672,34.5014648 C11.7170703,35.4951172 10.8254687,36.1020508 9.55789062,36.1020508 C7.95193359,36.1020508 6.94753906,34.9418945 6.94753906,33.1103516 C6.94753906,31.2895508 7.96804687,30.1079102 9.55789062,30.1079102 C11.1208789,30.1079102 12.0715625,31.2197266 12.0715625,33.019043 L12.0715625,33.3735352 L7.90896484,33.3735352 L7.90896484,33.4165039 C7.95730469,34.5605469 8.59646484,35.2856445 9.579375,35.2856445 C10.325957,35.2856445 10.8308398,35.0117188 11.0725391,34.5014648 Z M15.4286719,33.8139648 L15.3427344,33.8139648 L13.9677344,36 L12.9203711,36 L14.9023047,33.1049805 L12.8988867,30.2099609 L13.9999609,30.2099609 L15.3749609,32.3637695 L15.4608984,32.3637695 L16.8197852,30.2099609 L17.8671484,30.2099609 L15.9013281,33.0673828 L17.8940039,36 L16.7983008,36 L15.4286719,33.8139648 Z M19.6129297,28.7114258 L20.5367578,28.7114258 L20.5367578,30.2099609 L21.8258203,30.2099609 L21.8258203,30.9833984 L20.5367578,30.9833984 L20.5367578,34.2597656 C20.5367578,34.9418945 20.7945703,35.2319336 21.3961328,35.2319336 C21.5626367,35.2319336 21.6539453,35.2265625 21.8258203,35.2104492 L21.8258203,35.9892578 C21.6432031,36.0214844 21.465957,36.0429688 21.2833398,36.0429688 C20.090957,36.0429688 19.6129297,35.6025391 19.6129297,34.4960938 L19.6129297,30.9833984 L18.6783594,30.9833984 L18.6783594,30.2099609 L19.6129297,30.2099609 L19.6129297,28.7114258 Z M26.5205078,36 L26.5205078,27.9111328 L27.4443359,27.9111328 L27.4443359,36 L26.5205078,36 Z M31.0914844,35.2910156 C32.042168,35.2910156 32.7457813,34.6679688 32.7457813,33.8408203 L32.7457813,33.309082 L31.1881641,33.4111328 C30.3073047,33.4702148 29.9205859,33.7763672 29.9205859,34.3564453 C29.9205859,34.9472656 30.4200977,35.2910156 31.0914844,35.2910156 Z M30.9196094,36.1020508 C29.7970508,36.1020508 28.9645313,35.4360352 28.9645313,34.3779297 C28.9645313,33.3413086 29.7272266,32.7451172 31.0753711,32.6645508 L32.7457813,32.5625 L32.7457813,32.0361328 C32.7457813,31.3217773 32.2999805,30.9296875 31.4352344,30.9296875 C30.7423633,30.9296875 30.2589648,31.1928711 30.1300586,31.6494141 L29.1954883,31.6494141 C29.3190234,30.7202148 30.2321094,30.1079102 31.4674609,30.1079102 C32.8800586,30.1079102 33.6696094,30.8330078 33.6696094,32.0361328 L33.6696094,36 L32.78875,36 L32.78875,35.1459961 L32.7028125,35.1459961 C32.3268359,35.7636719 31.6930469,36.1020508 30.9196094,36.1020508 Z M38.3265234,36.1020508 C37.5208594,36.1020508 36.8333594,35.7207031 36.468125,35.0761719 L36.3821875,35.0761719 L36.3821875,36 L35.5013281,36 L35.5013281,27.9111328 L36.4251563,27.9111328 L36.4251563,31.1230469 L36.5110938,31.1230469 C36.8279883,30.5 37.5316016,30.1079102 38.3265234,30.1079102 C39.7982031,30.1079102 40.7542578,31.2841797 40.7542578,33.1049805 C40.7542578,34.9150391 39.792832,36.1020508 38.3265234,36.1020508 Z M38.1116797,30.9404297 C37.0589453,30.9404297 36.4036719,31.7675781 36.4036719,33.1049805 C36.4036719,34.4423828 37.0589453,35.2695312 38.1116797,35.2695312 C39.1697852,35.2695312 39.7982031,34.4584961 39.7982031,33.1049805 C39.7982031,31.7514648 39.1697852,30.9404297 38.1116797,30.9404297 Z M44.5840234,30.9243164 C43.6601953,30.9243164 43.0156641,31.6010742 42.9458398,32.6269531 L46.1362695,32.6269531 C46.1147852,31.6010742 45.5024805,30.9243164 44.5840234,30.9243164 Z M46.1094141,34.5014648 L47.0332422,34.5014648 C46.7539453,35.4951172 45.8623438,36.1020508 44.5947656,36.1020508 C42.9888086,36.1020508 41.9844141,34.9418945 41.9844141,33.1103516 C41.9844141,31.2895508 43.0049219,30.1079102 44.5947656,30.1079102 C46.1577539,30.1079102 47.1084375,31.2197266 47.1084375,33.019043 L47.1084375,33.3735352 L42.9458398,33.3735352 L42.9458398,33.4165039 C42.9941797,34.5605469 43.6333398,35.2856445 44.61625,35.2856445 C45.362832,35.2856445 45.8677148,35.0117188 46.1094141,34.5014648 Z M48.6823438,36 L48.6823438,27.9111328 L49.6061719,27.9111328 L49.6061719,36 L48.6823438,36 Z"/>
          <g transform="translate(13)">
            <path d="M12,11 C10.346,11 9,9.654 9,8 C9,6.346 10.346,5 12,5 C13.654,5 15,6.346 15,8 C15,9.654 13.654,11 12,11 Z M18.3594,19.6826 C18.6494,19.4426 18.9344,19.1956 19.1964,18.9236 C18.2954,15.7936 15.4204,13.4996 12.0004,13.4996 C8.5804,13.4996 5.7054,15.7936 4.8034,18.9236 C5.0654,19.1956 5.3504,19.4426 5.6404,19.6826 C6.2554,16.6936 8.8994,14.4996 12.0004,14.4996 C15.1004,14.4996 17.7454,16.6936 18.3594,19.6826 Z M12.0004,3.9996 C9.7944,3.9996 8.0004,5.7936 8.0004,7.9996 C8.0004,10.2056 9.7944,11.9996 12.0004,11.9996 C14.2064,11.9996 16.0004,10.2056 16.0004,7.9996 C16.0004,5.7936 14.2064,3.9996 12.0004,3.9996 Z M12.0004,0.9996 C18.0754,0.9996 23.0004,5.9246 23.0004,11.9996 C23.0004,18.0756 18.0754,22.9996 12.0004,22.9996 C5.9244,22.9996 1.0004,18.0756 1.0004,11.9996 C1.0004,5.9246 5.9244,0.9996 12.0004,0.9996 Z"/>
            <use fill="#A9B6BE" xlink:href="#1-f"/>
          </g>
        </g>
        <g transform="translate(27 5)">
          <path fill="#495A67" d="M4.36923828,36 L3.4024414,36 L3.4024414,29.1196289 L0.904882811,29.1196289 L0.904882811,28.2495117 L6.86679687,28.2495117 L6.86679687,29.1196289 L4.36923828,29.1196289 L4.36923828,36 Z M9.54714844,30.9243164 C8.62332031,30.9243164 7.97878906,31.6010742 7.90896484,32.6269531 L11.0993945,32.6269531 C11.0779102,31.6010742 10.4656055,30.9243164 9.54714844,30.9243164 Z M11.0725391,34.5014648 L11.9963672,34.5014648 C11.7170703,35.4951172 10.8254687,36.1020508 9.55789062,36.1020508 C7.95193359,36.1020508 6.94753906,34.9418945 6.94753906,33.1103516 C6.94753906,31.2895508 7.96804687,30.1079102 9.55789062,30.1079102 C11.1208789,30.1079102 12.0715625,31.2197266 12.0715625,33.019043 L12.0715625,33.3735352 L7.90896484,33.3735352 L7.90896484,33.4165039 C7.95730469,34.5605469 8.59646484,35.2856445 9.579375,35.2856445 C10.325957,35.2856445 10.8308398,35.0117188 11.0725391,34.5014648 Z M15.4286719,33.8139648 L15.3427344,33.8139648 L13.9677344,36 L12.9203711,36 L14.9023047,33.1049805 L12.8988867,30.2099609 L13.9999609,30.2099609 L15.3749609,32.3637695 L15.4608984,32.3637695 L16.8197852,30.2099609 L17.8671484,30.2099609 L15.9013281,33.0673828 L17.8940039,36 L16.7983008,36 L15.4286719,33.8139648 Z M19.6129297,28.7114258 L20.5367578,28.7114258 L20.5367578,30.2099609 L21.8258203,30.2099609 L21.8258203,30.9833984 L20.5367578,30.9833984 L20.5367578,34.2597656 C20.5367578,34.9418945 20.7945703,35.2319336 21.3961328,35.2319336 C21.5626367,35.2319336 21.6539453,35.2265625 21.8258203,35.2104492 L21.8258203,35.9892578 C21.6432031,36.0214844 21.465957,36.0429688 21.2833398,36.0429688 C20.090957,36.0429688 19.6129297,35.6025391 19.6129297,34.4960938 L19.6129297,30.9833984 L18.6783594,30.9833984 L18.6783594,30.2099609 L19.6129297,30.2099609 L19.6129297,28.7114258 Z M26.5205078,36 L26.5205078,27.9111328 L27.4443359,27.9111328 L27.4443359,36 L26.5205078,36 Z M31.0914844,35.2910156 C32.042168,35.2910156 32.7457813,34.6679688 32.7457813,33.8408203 L32.7457813,33.309082 L31.1881641,33.4111328 C30.3073047,33.4702148 29.9205859,33.7763672 29.9205859,34.3564453 C29.9205859,34.9472656 30.4200977,35.2910156 31.0914844,35.2910156 Z M30.9196094,36.1020508 C29.7970508,36.1020508 28.9645313,35.4360352 28.9645313,34.3779297 C28.9645313,33.3413086 29.7272266,32.7451172 31.0753711,32.6645508 L32.7457813,32.5625 L32.7457813,32.0361328 C32.7457813,31.3217773 32.2999805,30.9296875 31.4352344,30.9296875 C30.7423633,30.9296875 30.2589648,31.1928711 30.1300586,31.6494141 L29.1954883,31.6494141 C29.3190234,30.7202148 30.2321094,30.1079102 31.4674609,30.1079102 C32.8800586,30.1079102 33.6696094,30.8330078 33.6696094,32.0361328 L33.6696094,36 L32.78875,36 L32.78875,35.1459961 L32.7028125,35.1459961 C32.3268359,35.7636719 31.6930469,36.1020508 30.9196094,36.1020508 Z M38.3265234,36.1020508 C37.5208594,36.1020508 36.8333594,35.7207031 36.468125,35.0761719 L36.3821875,35.0761719 L36.3821875,36 L35.5013281,36 L35.5013281,27.9111328 L36.4251563,27.9111328 L36.4251563,31.1230469 L36.5110938,31.1230469 C36.8279883,30.5 37.5316016,30.1079102 38.3265234,30.1079102 C39.7982031,30.1079102 40.7542578,31.2841797 40.7542578,33.1049805 C40.7542578,34.9150391 39.792832,36.1020508 38.3265234,36.1020508 Z M38.1116797,30.9404297 C37.0589453,30.9404297 36.4036719,31.7675781 36.4036719,33.1049805 C36.4036719,34.4423828 37.0589453,35.2695312 38.1116797,35.2695312 C39.1697852,35.2695312 39.7982031,34.4584961 39.7982031,33.1049805 C39.7982031,31.7514648 39.1697852,30.9404297 38.1116797,30.9404297 Z M44.5840234,30.9243164 C43.6601953,30.9243164 43.0156641,31.6010742 42.9458398,32.6269531 L46.1362695,32.6269531 C46.1147852,31.6010742 45.5024805,30.9243164 44.5840234,30.9243164 Z M46.1094141,34.5014648 L47.0332422,34.5014648 C46.7539453,35.4951172 45.8623438,36.1020508 44.5947656,36.1020508 C42.9888086,36.1020508 41.9844141,34.9418945 41.9844141,33.1103516 C41.9844141,31.2895508 43.0049219,30.1079102 44.5947656,30.1079102 C46.1577539,30.1079102 47.1084375,31.2197266 47.1084375,33.019043 L47.1084375,33.3735352 L42.9458398,33.3735352 L42.9458398,33.4165039 C42.9941797,34.5605469 43.6333398,35.2856445 44.61625,35.2856445 C45.362832,35.2856445 45.8677148,35.0117188 46.1094141,34.5014648 Z M48.6823438,36 L48.6823438,27.9111328 L49.6061719,27.9111328 L49.6061719,36 L48.6823438,36 Z"/>
          <g transform="translate(13)">
            <path fill="#F3F6FA" d="M21.0084545,9.96610807 L21,20.0353752 C21,21.1403752 20.1,22.0403752 18.995,22.0403752 L16.005,22.0403752 C14.897,22.0403752 14,21.1423752 14,20.0353752 L14,17.0433752 C14,16.4913752 13.549,16.0403752 12.997,16.0403752 L11.003,16.0403752 C10.449,16.0403752 10,16.4893752 10,17.0433752 L10,20.0353752 C10,21.1423752 9.102,22.0403752 7.995,22.0403752 L5.005,22.0403752 C3.897,22.0403752 3,21.1423752 3,20.0353752 L3,9.95965965 L1.81613021,10.9257098 C1.6021803,11.1002952 1.28721023,11.0683839 1.11262487,10.854434 C0.938039506,10.6404841 0.969950772,10.325514 1.18390068,10.1509287 L10.3152218,2.70300627 C11.2455388,1.77142355 12.7544921,1.77142355 13.6471302,2.66892865 L22.8161302,10.1509287 C23.0300801,10.325514 23.0619914,10.6404841 22.887406,10.854434 C22.7128207,11.0683839 22.3978506,11.1002952 22.1839007,10.9257098 L21.0084545,9.96610807 Z"/>
            <use fill="#314351" xlink:href="#1-g"/>
          </g>
        </g>
      </g>
    </g>
  </g>
</svg>
