<svg xmlns="http://www.w3.org/2000/svg" xmlns:xlink="http://www.w3.org/1999/xlink" width="391" height="683" viewBox="0 0 391 683">
  <defs>
    <rect id="1-b" width="375" height="667"/>
    <filter id="1-a" width="106.7%" height="103.7%" x="-3.3%" y="-1.7%" filterUnits="objectBoundingBox">
      <feOffset dy="1" in="SourceAlpha" result="shadowOffsetOuter1"/>
      <feGaussianBlur in="shadowOffsetOuter1" result="shadowBlurOuter1" stdDeviation="4"/>
      <feColorMatrix in="shadowBlurOuter1" result="shadowMatrixOuter1" values="0 0 0 0 0   0 0 0 0 0   0 0 0 0 0  0 0 0 0.2 0"/>
      <feMorphology in="SourceAlpha" radius="1" result="shadowSpreadOuter2"/>
      <feOffset dy="3" in="shadowSpreadOuter2" result="shadowOffsetOuter2"/>
      <feGaussianBlur in="shadowOffsetOuter2" result="shadowBlurOuter2" stdDeviation="1.5"/>
      <feColorMatrix in="shadowBlurOuter2" result="shadowMatrixOuter2" values="0 0 0 0 0   0 0 0 0 0   0 0 0 0 0  0 0 0 0.12 0"/>
      <feOffset dy="3" in="SourceAlpha" result="shadowOffsetOuter3"/>
      <feGaussianBlur in="shadowOffsetOuter3" result="shadowBlurOuter3" stdDeviation="2"/>
      <feColorMatrix in="shadowBlurOuter3" result="shadowMatrixOuter3" values="0 0 0 0 0   0 0 0 0 0   0 0 0 0 0  0 0 0 0.14 0"/>
      <feMerge>
        <feMergeNode in="shadowMatrixOuter1"/>
        <feMergeNode in="shadowMatrixOuter2"/>
        <feMergeNode in="shadowMatrixOuter3"/>
      </feMerge>
    </filter>
    <linearGradient id="1-c" x1="-12.779%" x2="65.803%" y1="-20.088%" y2="87.803%">
      <stop offset="0%" stop-color="#266900"/>
      <stop offset="10%" stop-color="#357A0C"/>
      <stop offset="34%" stop-color="#539D26"/>
      <stop offset="57%" stop-color="#6AB738"/>
      <stop offset="78%" stop-color="#77C743"/>
      <stop offset="94%" stop-color="#7CCC47"/>
    </linearGradient>
    <linearGradient id="1-d" x1="17.52%" x2="84.52%" y1="21.84%" y2="82.98%">
      <stop offset="0%" stop-color="#266900" stop-opacity=".94"/>
      <stop offset="72%" stop-color="#7CCC47" stop-opacity="0"/>
    </linearGradient>
    <linearGradient id="1-e" x1="-37.982%" y1="50.002%" y2="50.002%">
      <stop offset="0%" stop-color="#266900"/>
      <stop offset="10%" stop-color="#357A0C"/>
      <stop offset="34%" stop-color="#539D26"/>
      <stop offset="57%" stop-color="#6AB738"/>
      <stop offset="78%" stop-color="#77C743"/>
      <stop offset="94%" stop-color="#7CCC47"/>
    </linearGradient>
    <linearGradient id="1-f" x1="50.006%" x2="50.006%" y1="-68.257%" y2="163.674%">
      <stop offset="0%" stop-color="#6DB33F" stop-opacity=".94"/>
      <stop offset="29%" stop-color="#73BD42" stop-opacity=".96"/>
      <stop offset="79%" stop-color="#7CCC47"/>
    </linearGradient>
  </defs>
  <g fill="none" fill-rule="evenodd" transform="translate(8 7)">
    <use fill="#000" filter="url(#1-a)" xlink:href="#1-b"/>
    <use fill="#F7F7F7" xlink:href="#1-b"/>
    <rect width="375" height="667" fill="#FFF"/>
    <g transform="translate(108 119)">
      <g fill="#61717D" transform="translate(38.08 492.19)">
        <path d="M35.9771037 12.2731896L32.3104576 1.67224141C32.26255 1.52598468 32.1929698 1.33235735 32.1929698 1.16300745 32.1929698.702920497 32.5671058.267110973 33.1026448.267110973 33.5703147.267110973 33.8748705.581533333 34.0157418 1.04162029L37.0527445 10.1758563 40.1125603 1.01615859C40.2517206.581533333 40.5334632.267110973 40.9982815.267110973L41.0929561.267110973C41.5845798.267110973 41.8879949.581533333 42.0271552 1.01615859L45.0630172 10.1758563 48.1496386.994249689C48.266556.605218634 48.5220635.267110973 49.0131169.267110973 49.5269834.267110973 49.9011194.677458799 49.9011194 1.13932215 49.9011194 1.30867205 49.8303985 1.50111511 49.7847722 1.64855611L46.0941723 12.2731896C45.9053934 12.8280178 45.5329685 13.119347 45.1120656 13.119347L45.0424854 13.119347C44.5742452 13.119347 44.2229224 12.8280178 44.0586676 12.2731896L41.0479001 3.26566998 38.0091864 12.2731896C37.8460723 12.8280178 37.4953199 13.119347 37.029361 13.119347L36.9803127 13.119347C36.5371669 13.119347 36.1641716 12.8280178 35.9771037 12.2731896M62.7065485 1.19125217C62.7065485.679649689 63.1034976.242655901 63.594551.242655901 64.1106988.242655901 64.5076479.655372257 64.5076479 1.19125217L64.5076479 3.34246957C65.3962207 1.25283395 67.3667079.266933333 68.6727616.266933333 69.2128633.266933333 69.5641861.679649689 69.5641861 1.21375321 69.5641861 1.72417143 69.2368172 2.08714865 68.7662956 2.16116522 66.4256648 2.45249441 64.5076479 4.27507826 64.5076479 7.89656066L64.5076479 12.1545855C64.5076479 12.6650037 64.133512 13.1014054 63.6190751 13.1014054 63.1034976 13.1014054 62.7065485 12.6875048 62.7065485 12.1545855L62.7065485 1.19125217M78.8529087 6.02980373C78.669833 3.76844969 77.4293671 1.79842484 75.0687748 1.79842484 73.0047537 1.79842484 71.4449035 3.59969193 71.2196234 6.02980373L78.8529087 6.02980373zM75.3448141 13.2206609C72.0888051 13.2206609 69.4287899 10.598106 69.4287899 6.75161325L69.4287899 6.70187412C69.4287899 3.12065673 71.8361492.234602899 75.1155418.234602899 78.6219254.234602899 80.619218 3.2384911 80.619218 6.53430062 80.619218 7.03998178 80.2256909 7.40118261 79.7922408 7.40118261L71.2196234 7.40118261C71.4699979 10.0924248 73.2802226 11.6082841 75.3915811 11.6082841 76.8584677 11.6082841 77.9346788 11.0060853 78.806712 10.164665 78.943591 10.0456464 79.1049942 9.94972091 79.3120236 9.94972091 79.7460441 9.94972091 80.0910932 10.3103296 80.0910932 10.7449549 80.0910932 10.959899 80.0004109 11.1766195 79.8150539 11.3436008 78.6926462 12.4733896 77.3620683 13.2206609 75.3448141 13.2206609zM58.8231774 8.35842402L58.8231774 7.14692091C57.9351749 6.88046128 56.7437573 6.61281739 55.2757301 6.61281739 53.0149454 6.61281739 51.7533773 7.6312853 51.7533773 9.20458137L51.7533773 9.25313623C51.7533773 10.8270244 53.152965 11.7477905 54.786958 11.7477905 57.0015461 11.7477905 58.8231774 10.34266 58.8231774 8.35842402M49.9340273 9.32774493L49.9340273 9.2780058C49.9340273 6.63827909 52.0339792 5.23255652 55.0886621 5.23255652 56.6291211 5.23255652 57.7252938 5.45046128 58.8009345 5.76666004L58.8009345 5.32907412C58.8009345 3.07778634 57.467505 1.91365383 55.2072906 1.91365383 53.9924895 1.91365383 53.286422 2.07412174 52.3984196 2.48446957 52.2832131 2.53361656 52.1657253 2.55848613 52.0739023 2.55848613 51.65414 2.55848613 51.2794338 2.19432464 51.2794338 1.75851511 51.2794338 1.37185259 51.4419776 1.13322319 51.7704872.9822294 52.9579125.446941615 53.8544699.268709731 55.3932179.268709731 57.0950801.268709731 58.4022744.727612422 59.2868549 1.64837847 60.1041366 2.49690435 60.5250395 3.70781532 60.5250395 5.30598095L60.5250395 12.2179437C60.5250395 12.7484944 60.1520443 13.1369333 59.6592799 13.1369333 59.148265 13.1369333 58.8009345 12.7484944 58.8009345 12.2653143L58.8009345 11.0697988C57.9602694 12.2096538 56.5589707 13.2263453 54.4396276 13.2263453 52.198234 13.2263453 49.9340273 11.8946393 49.9340273 9.32774493M3.29405002 1.05304845C2.89881193.153599172 1.92240844-.253787992 1.01045214.167218219.0979255136.588816563-.237998351 1.63925963.174349619 2.53930104L4.00239882 11.1779222C4.60466639 12.5327213 5.23944273 13.2420961 6.42971965 13.2420961 7.70212396 13.2420961 8.25705422 12.4693631 8.85818113 11.1779222 8.85818113 11.1779222 12.1974583 3.62941698 12.2311077 3.55125549 12.2653274 3.47072547 12.371979 3.22676687 12.7118951 3.22854327 12.999341 3.23209607 13.2411606 3.4695412 13.2411606 3.78810849L13.2411606 11.1708166C13.2411606 12.3083031 13.8491315 13.2420961 15.0183062 13.2420961 16.1869106 13.2420961 16.8188353 12.3083031 16.8188353 11.1708166L16.8188353 5.13106501C16.8188353 3.96574824 17.6229994 3.21018716 18.7186017 3.21018716 19.8147743 3.21018716 20.5442252 3.99180207 20.5442252 5.13106501L20.5442252 11.1708166C20.5442252 12.3083031 21.1539071 13.2420961 22.3213709 13.2420961 23.4899753 13.2420961 24.1247516 12.3083031 24.1247516 11.1708166L24.1247516 5.13106501C24.1247516 3.96574824 24.9254937 3.21018716 26.022807 3.21018716 27.1166983 3.21018716 27.8484306 3.99180207 27.8484306 5.13106501L27.8484306 11.1708166C27.8484306 12.3083031 28.4575421 13.2420961 29.6261465 13.2420961 30.7936103 13.2420961 31.4272459 12.3083031 31.4272459 11.1708166L31.4272459 4.29615818C31.4272459 1.76952878 29.4715873.000236853002 27.1166983.000236853002 24.7640906.000236853002 23.2915007 1.68899876 23.2915007 1.68899876 22.5084388.635002899 21.4288057.00142111801 19.6026118.00142111801 17.6754697.00142111801 15.9884361 1.68899876 15.9884361 1.68899876 15.2048038.635002899 13.870804.00142111801 12.7666467.00142111801 11.058511.00142111801 9.70226826.78185176 8.87472068 2.74595528L6.42971965 8.72886211 3.29405002 1.05304845M83.4617385 1.79120083L83.4617385 1.7870559C83.4617385 1.09189234 82.9444499.521668737 82.254922.521668737 81.5716677.521668737 81.0463946 1.10136646 81.0463946 1.79120083L81.0463946 1.79949068C81.0463946 2.49287785 81.5659644 3.06310145 82.254922 3.06310145 82.9370357 3.06310145 83.4617385 2.48340373 83.4617385 1.79120083M80.7640816 1.80185921L80.7640816 1.79120083C80.7640816.946227743 81.4245228.234484472 82.254922.234484472 83.0972982.234484472 83.7480437.939122153 83.7480437 1.78468737L83.7480437 1.79120083C83.7480437 2.63972671 83.0893135 3.35146998 82.254922 3.35146998 81.4131162 3.35146998 80.7640816 2.64920083 80.7640816 1.80185921"/>
        <path d="M82.3258139,1.74175776 C82.4803731,1.74175776 82.5664928,1.65767495 82.5664928,1.52977433 L82.5664928,1.52444513 C82.5664928,1.38470186 82.4746698,1.31009317 82.3201106,1.31009317 L82.0030076,1.31009317 L82.0030076,1.74175776 L82.3258139,1.74175776 Z M81.6841936,1.17804762 C81.6841936,1.08626708 81.7549145,1.01284265 81.8444561,1.01284265 L82.3429238,1.01284265 C82.5299918,1.01284265 82.6748554,1.06791097 82.7649674,1.16620497 C82.8470948,1.24910352 82.8910101,1.36871429 82.8910101,1.50786542 L82.8910101,1.51260248 C82.8910101,1.74945549 82.7763739,1.89334369 82.6024236,1.96913665 L82.8220003,2.24803106 C82.852798,2.2888882 82.8739002,2.32323188 82.8739002,2.37415528 C82.8739002,2.46593582 82.7991871,2.52633333 82.722763,2.52633333 C82.6520422,2.52633333 82.6047049,2.48902899 82.5664928,2.44165839 L82.2568041,2.03486335 L82.0030076,2.03486335 L82.0030076,2.3617205 C82.0030076,2.45350104 81.9339978,2.52633333 81.8444561,2.52633333 C81.7549145,2.52633333 81.6841936,2.45350104 81.6841936,2.3617205 L81.6841936,1.17804762 Z"/>
      </g>
      <path fill="#495A67" d="M2.145,207.596 C2.145,207.353 2.226,207.11 2.361,206.84 L9.381,191.18 C9.759,190.343 10.434,189.83 11.379,189.83 L11.541,189.83 C12.486,189.83 13.134,190.343 13.512,191.18 L20.532,206.84 C20.667,207.083 20.721,207.326 20.721,207.542 C20.721,208.433 20.046,209.135 19.155,209.135 C18.372,209.135 17.832,208.676 17.535,207.974 L15.996,204.437 L6.816,204.437 L5.223,208.082 C4.953,208.757 4.386,209.135 3.684,209.135 C2.82,209.135 2.145,208.46 2.145,207.596 Z M8.085,201.494 L14.727,201.494 L11.406,193.853 L8.085,201.494 Z M23.934,211.835 L23.934,196.229 C23.934,195.311 24.636,194.582 25.554,194.582 C26.472,194.582 27.201,195.311 27.201,196.229 L27.201,197.12 C28.254,195.635 29.739,194.447 32.061,194.447 C35.409,194.447 38.676,197.093 38.676,201.845 L38.676,201.899 C38.676,206.624 35.436,209.297 32.061,209.297 C29.685,209.297 28.2,208.109 27.201,206.786 L27.201,211.835 C27.201,212.753 26.472,213.455 25.554,213.455 C24.663,213.455 23.934,212.753 23.934,211.835 Z M31.278,206.462 C33.519,206.462 35.355,204.707 35.355,201.899 L35.355,201.845 C35.355,199.091 33.492,197.282 31.278,197.282 C29.064,197.282 27.12,199.118 27.12,201.845 L27.12,201.899 C27.12,204.626 29.064,206.462 31.278,206.462 Z M42.051,211.835 L42.051,196.229 C42.051,195.311 42.753,194.582 43.671,194.582 C44.589,194.582 45.318,195.311 45.318,196.229 L45.318,197.12 C46.371,195.635 47.856,194.447 50.178,194.447 C53.526,194.447 56.793,197.093 56.793,201.845 L56.793,201.899 C56.793,206.624 53.553,209.297 50.178,209.297 C47.802,209.297 46.317,208.109 45.318,206.786 L45.318,211.835 C45.318,212.753 44.589,213.455 43.671,213.455 C42.78,213.455 42.051,212.753 42.051,211.835 Z M49.395,206.462 C51.636,206.462 53.472,204.707 53.472,201.899 L53.472,201.845 C53.472,199.091 51.609,197.282 49.395,197.282 C47.181,197.282 45.237,199.118 45.237,201.845 L45.237,201.899 C45.237,204.626 47.181,206.462 49.395,206.462 Z M60.357,207.515 L60.357,190.775 C60.357,189.884 61.059,189.155 61.977,189.155 C62.895,189.155 63.624,189.884 63.624,190.775 L63.624,207.515 C63.624,208.433 62.895,209.135 61.977,209.135 C61.086,209.135 60.357,208.433 60.357,207.515 Z M67.836,191.072 L67.836,190.91 C67.836,189.938 68.646,189.317 69.699,189.317 C70.752,189.317 71.562,189.938 71.562,190.91 L71.562,191.072 C71.562,192.044 70.752,192.692 69.699,192.692 C68.646,192.692 67.836,192.044 67.836,191.072 Z M68.079,207.515 L68.079,196.229 C68.079,195.311 68.781,194.582 69.699,194.582 C70.617,194.582 71.346,195.311 71.346,196.229 L71.346,207.515 C71.346,208.433 70.617,209.135 69.699,209.135 C68.808,209.135 68.079,208.433 68.079,207.515 Z M82.2,209.324 C77.961,209.324 74.829,206.003 74.829,201.953 L74.829,201.899 C74.829,197.849 77.961,194.447 82.254,194.447 C84.495,194.447 86.034,195.176 87.249,196.229 C87.465,196.418 87.762,196.823 87.762,197.363 C87.762,198.2 87.087,198.848 86.25,198.848 C85.845,198.848 85.494,198.686 85.278,198.524 C84.441,197.822 83.523,197.309 82.227,197.309 C79.851,197.309 78.096,199.361 78.096,201.845 L78.096,201.899 C78.096,204.437 79.851,206.462 82.362,206.462 C83.658,206.462 84.657,205.949 85.548,205.193 C85.737,205.031 86.061,204.842 86.439,204.842 C87.222,204.842 87.843,205.49 87.843,206.273 C87.843,206.705 87.681,207.056 87.384,207.299 C86.115,208.514 84.576,209.324 82.2,209.324 Z M95.133,209.297 C92.46,209.297 90.084,207.758 90.084,204.896 L90.084,204.842 C90.084,201.764 92.487,200.252 95.97,200.252 C97.563,200.252 98.697,200.495 99.804,200.846 L99.804,200.495 C99.804,198.47 98.562,197.39 96.267,197.39 C95.025,197.39 93.999,197.606 93.108,197.957 C92.919,198.011 92.757,198.038 92.595,198.038 C91.839,198.038 91.218,197.444 91.218,196.688 C91.218,196.094 91.623,195.581 92.109,195.392 C93.459,194.879 94.836,194.555 96.699,194.555 C98.832,194.555 100.425,195.122 101.424,196.148 C102.477,197.174 102.963,198.686 102.963,200.549 L102.963,207.569 C102.963,208.46 102.261,209.135 101.37,209.135 C100.425,209.135 99.777,208.487 99.777,207.758 L99.777,207.218 C98.805,208.379 97.32,209.297 95.133,209.297 Z M96.051,206.921 C98.211,206.921 99.858,205.679 99.858,203.87 L99.858,202.898 C99.021,202.574 97.914,202.331 96.618,202.331 C94.512,202.331 93.27,203.222 93.27,204.707 L93.27,204.761 C93.27,206.138 94.485,206.921 96.051,206.921 Z M111.522,209.243 C109.119,209.243 107.418,208.19 107.418,205.058 L107.418,197.552 L106.878,197.552 C106.095,197.552 105.474,196.931 105.474,196.148 C105.474,195.365 106.095,194.744 106.878,194.744 L107.418,194.744 L107.418,192.314 C107.418,191.423 108.147,190.694 109.065,190.694 C109.956,190.694 110.685,191.423 110.685,192.314 L110.685,194.744 L113.25,194.744 C114.033,194.744 114.681,195.365 114.681,196.148 C114.681,196.931 114.033,197.552 113.25,197.552 L110.685,197.552 L110.685,204.545 C110.685,205.814 111.333,206.327 112.44,206.327 C112.818,206.327 113.142,206.246 113.25,206.246 C113.979,206.246 114.627,206.84 114.627,207.596 C114.627,208.19 114.222,208.676 113.763,208.865 C113.061,209.108 112.386,209.243 111.522,209.243 Z M117.786,191.072 L117.786,190.91 C117.786,189.938 118.596,189.317 119.649,189.317 C120.702,189.317 121.512,189.938 121.512,190.91 L121.512,191.072 C121.512,192.044 120.702,192.692 119.649,192.692 C118.596,192.692 117.786,192.044 117.786,191.072 Z M118.029,207.515 L118.029,196.229 C118.029,195.311 118.731,194.582 119.649,194.582 C120.567,194.582 121.296,195.311 121.296,196.229 L121.296,207.515 C121.296,208.433 120.567,209.135 119.649,209.135 C118.758,209.135 118.029,208.433 118.029,207.515 Z M132.339,209.324 C127.992,209.324 124.779,206.003 124.779,201.953 L124.779,201.899 C124.779,197.822 128.019,194.447 132.393,194.447 C136.767,194.447 139.98,197.768 139.98,201.845 L139.98,201.899 C139.98,205.949 136.74,209.324 132.339,209.324 Z M132.393,206.462 C135.039,206.462 136.713,204.41 136.713,201.953 L136.713,201.899 C136.713,199.388 134.904,197.309 132.339,197.309 C129.72,197.309 128.046,199.361 128.046,201.845 L128.046,201.899 C128.046,204.383 129.855,206.462 132.393,206.462 Z M143.301,207.515 L143.301,196.229 C143.301,195.311 144.003,194.582 144.921,194.582 C145.839,194.582 146.568,195.311 146.568,196.229 L146.568,196.931 C147.486,195.608 148.809,194.447 151.023,194.447 C154.236,194.447 156.099,196.607 156.099,199.901 L156.099,207.515 C156.099,208.433 155.397,209.135 154.479,209.135 C153.561,209.135 152.832,208.433 152.832,207.515 L152.832,200.9 C152.832,198.686 151.725,197.417 149.781,197.417 C147.891,197.417 146.568,198.74 146.568,200.954 L146.568,207.515 C146.568,208.433 145.839,209.135 144.921,209.135 C144.03,209.135 143.301,208.433 143.301,207.515 Z"/>
      <g transform="translate(16 16)">
        <rect width="128" height="128"/>
        <path fill="url(#1-c)" d="M109.976774,25.2123297 L73.7353405,4.58781362 C67.6998969,1.1517418 60.3001031,1.1517418 54.2646595,4.58781362 L18.0209319,25.2215054 C11.8756418,28.7206546 8.08095125,35.2486083 8.08143369,42.3202867 L8.08143369,58.4166308 L23.9415054,67.5739068 C25.0524584,68.2158709 26.4217762,68.2152273 27.5321253,67.5722192 C28.6424744,66.929211 29.3245712,65.7418713 29.3207168,64.4587814 L29.3207168,45.1899642 C29.321442,43.9098855 30.0041501,42.7271659 31.1122581,42.0863082 L62.2084588,24.1341935 C63.3170683,23.4941375 64.6829317,23.4941375 65.7915412,24.1341935 L96.8877419,42.0886022 C97.996542,42.7287681 98.6795031,43.9119261 98.6792832,45.1922581 L98.6792832,64.4587814 C98.680009,65.7391132 99.3634144,66.9218966 100.472278,67.561953 C101.581141,68.2020093 102.947164,68.2021939 104.056201,67.5624373 L119.916272,58.4051613 L119.916272,42.3111111 C119.916755,35.2394327 116.122064,28.711479 109.976774,25.2123297 Z"/>
        <path fill="url(#1-d)" d="M116.248315,97.5575627 L67.6702509,125.605161 C65.3990917,126.916416 62.6009083,126.916416 60.3297491,125.605161 L40.861362,114.365018 L103.489606,41.2903226 L119.916272,56.0332616 L119.916272,91.2034409 C119.915696,93.8244265 118.517683,96.2462509 116.248315,97.5575627 Z"/>
        <path fill="#FFF" d="M105.937204,83.2206452 L105.937204,48.5230108 C105.936468,44.2762291 103.67104,40.352167 99.9936918,38.227957 L69.9458065,20.874552 C66.2665286,18.7503199 61.7334714,18.7503199 58.0541935,20.874552 L28.0040143,38.2233692 C24.3266666,40.3475792 22.0612376,44.2716413 22.0605018,48.5184229 L22.0605018,83.2206452 C22.0604184,87.4682463 24.325957,91.3933729 28.0040143,93.5179928 L58.0541935,110.86681 C61.7341042,112.988679 66.2658958,112.988679 69.9458065,110.86681 L99.9959857,93.5179928 C103.67316,91.3927902 105.937761,87.4677734 105.937204,83.2206452 Z"/>
        <path fill="url(#1-e)" d="M119.916272,84.0785663 L119.916273,70.916129 L78.1121147,95.0526165 C69.3817132,100.090386 58.6274624,100.090386 49.8970609,95.0526165 L8.0837276,70.916129 L8.0837276,84.0785663 C8.08353575,91.1087205 11.8340017,97.6049229 17.9222939,101.12 L54.1660215,122.042724 C60.254401,125.556759 67.7547746,125.556759 73.8431541,122.042724 L110.086882,101.12 C116.171642,97.6025918 119.918357,91.1068284 119.916272,84.0785663 Z"/>
        <path fill="url(#1-f)" d="M39.8956272,50.3948387 C39.5355813,49.5781317 38.860974,48.9414369 38.0248293,48.6291783 C37.1886846,48.3169197 36.2618718,48.3555635 35.4546237,48.7363441 C34.6308846,49.0885114 33.9891684,49.7652556 33.6812362,50.6065318 C33.3733039,51.447808 33.4264999,52.3789108 33.8282437,53.1796416 L41.2719713,69.3562724 C42.4418638,71.8933333 43.6759857,73.2215054 45.9905376,73.2215054 C48.4656631,73.2215054 49.5437993,71.7740502 50.7136918,69.3562724 C50.7136918,69.3562724 57.205448,55.2189247 57.2696774,55.0744086 C57.4156871,54.6899045 57.795107,54.4453275 58.2055914,54.4711111 C58.4809685,54.4723105 58.7444507,54.5834921 58.9374428,54.7799305 C59.1304348,54.9763688 59.236936,55.2417774 59.2332616,55.5171326 L59.2332616,69.3149821 C59.2332616,71.4758423 60.4329749,73.2490323 62.7383513,73.2490323 C65.0437276,73.2490323 66.2939068,71.4758423 66.2939068,69.3149821 L66.2939068,57.9853763 C66.2939068,56.0194982 67.594552,54.6936201 69.4319713,54.5055197 C71.5400717,54.276129 73.3499642,56.0080287 73.3499642,58.1253047 L73.3499642,69.317276 C73.3499642,71.4758423 74.5496774,73.2467384 76.8504659,73.2467384 C79.1512545,73.2467384 80.4037276,71.4758423 80.4037276,69.317276 L80.4037276,57.9853763 C80.4037276,55.8589247 81.9222939,54.4802867 84.0005735,54.4802867 C86.078853,54.4802867 87.4597849,55.9070968 87.4597849,57.9853763 L87.4597849,69.3149821 C87.4597849,71.4758423 88.6594982,73.2490323 90.9625806,73.2490323 C93.2656631,73.2490323 94.5089606,71.4758423 94.5089606,69.3149821 L94.5089606,56.4691039 C94.5089606,51.7367742 90.707957,48.4243728 86.1270251,48.4243728 C81.5460932,48.4243728 78.6810036,51.5876703 78.6810036,51.5876703 C77.1601434,49.6126165 75.0612186,48.4266667 71.5102509,48.4266667 C67.7643011,48.4266667 64.4840143,51.5876703 64.4840143,51.5876703 C62.9608602,49.6126165 60.3664516,48.4266667 58.2193548,48.4266667 C54.9000717,48.4266667 52.2551971,49.8878853 50.6494624,53.5650179 L45.8964875,64.7684588 L39.7992832,50.3948387"/>
      </g>
    </g>
  </g>
</svg>
