<svg xmlns="http://www.w3.org/2000/svg" xmlns:xlink="http://www.w3.org/1999/xlink" width="391" height="683" viewBox="0 0 391 683">
  <defs>
    <rect id="3-b" width="375" height="667"/>
    <filter id="3-a" width="106.7%" height="103.7%" x="-3.3%" y="-1.7%" filterUnits="objectBoundingBox">
      <feOffset dy="1" in="SourceAlpha" result="shadowOffsetOuter1"/>
      <feGaussianBlur in="shadowOffsetOuter1" result="shadowBlurOuter1" stdDeviation="4"/>
      <feColorMatrix in="shadowBlurOuter1" result="shadowMatrixOuter1" values="0 0 0 0 0   0 0 0 0 0   0 0 0 0 0  0 0 0 0.2 0"/>
      <feMorphology in="SourceAlpha" radius="1" result="shadowSpreadOuter2"/>
      <feOffset dy="3" in="shadowSpreadOuter2" result="shadowOffsetOuter2"/>
      <feGaussianBlur in="shadowOffsetOuter2" result="shadowBlurOuter2" stdDeviation="1.5"/>
      <feColorMatrix in="shadowBlurOuter2" result="shadowMatrixOuter2" values="0 0 0 0 0   0 0 0 0 0   0 0 0 0 0  0 0 0 0.12 0"/>
      <feOffset dy="3" in="SourceAlpha" result="shadowOffsetOuter3"/>
      <feGaussianBlur in="shadowOffsetOuter3" result="shadowBlurOuter3" stdDeviation="2"/>
      <feColorMatrix in="shadowBlurOuter3" result="shadowMatrixOuter3" values="0 0 0 0 0   0 0 0 0 0   0 0 0 0 0  0 0 0 0.14 0"/>
      <feMerge>
        <feMergeNode in="shadowMatrixOuter1"/>
        <feMergeNode in="shadowMatrixOuter2"/>
        <feMergeNode in="shadowMatrixOuter3"/>
      </feMerge>
    </filter>
    <linearGradient id="3-c" x1="-12.779%" x2="65.803%" y1="-20.088%" y2="87.803%">
      <stop offset="0%" stop-color="#266900"/>
      <stop offset="10%" stop-color="#357A0C"/>
      <stop offset="34%" stop-color="#539D26"/>
      <stop offset="57%" stop-color="#6AB738"/>
      <stop offset="78%" stop-color="#77C743"/>
      <stop offset="94%" stop-color="#7CCC47"/>
    </linearGradient>
    <linearGradient id="3-d" x1="17.52%" x2="84.52%" y1="21.84%" y2="82.98%">
      <stop offset="0%" stop-color="#266900" stop-opacity=".94"/>
      <stop offset="72%" stop-color="#7CCC47" stop-opacity="0"/>
    </linearGradient>
    <linearGradient id="3-e" x1="-37.982%" y1="50.002%" y2="50.002%">
      <stop offset="0%" stop-color="#266900"/>
      <stop offset="10%" stop-color="#357A0C"/>
      <stop offset="34%" stop-color="#539D26"/>
      <stop offset="57%" stop-color="#6AB738"/>
      <stop offset="78%" stop-color="#77C743"/>
      <stop offset="94%" stop-color="#7CCC47"/>
    </linearGradient>
    <linearGradient id="3-f" x1="50.006%" x2="50.006%" y1="-68.257%" y2="163.674%">
      <stop offset="0%" stop-color="#6DB33F" stop-opacity=".94"/>
      <stop offset="29%" stop-color="#73BD42" stop-opacity=".96"/>
      <stop offset="79%" stop-color="#7CCC47"/>
    </linearGradient>
  </defs>
  <g fill="none" fill-rule="evenodd" transform="translate(8 7)">
    <use fill="#000" filter="url(#3-a)" xlink:href="#3-b"/>
    <use fill="#F7F7F7" xlink:href="#3-b"/>
    <rect width="375" height="667" fill="#FFF"/>
    <g transform="translate(108 119)">
      <path fill="#495A67" d="M2.145,207.596 C2.145,207.353 2.226,207.11 2.361,206.84 L9.381,191.18 C9.759,190.343 10.434,189.83 11.379,189.83 L11.541,189.83 C12.486,189.83 13.134,190.343 13.512,191.18 L20.532,206.84 C20.667,207.083 20.721,207.326 20.721,207.542 C20.721,208.433 20.046,209.135 19.155,209.135 C18.372,209.135 17.832,208.676 17.535,207.974 L15.996,204.437 L6.816,204.437 L5.223,208.082 C4.953,208.757 4.386,209.135 3.684,209.135 C2.82,209.135 2.145,208.46 2.145,207.596 Z M8.085,201.494 L14.727,201.494 L11.406,193.853 L8.085,201.494 Z M23.934,211.835 L23.934,196.229 C23.934,195.311 24.636,194.582 25.554,194.582 C26.472,194.582 27.201,195.311 27.201,196.229 L27.201,197.12 C28.254,195.635 29.739,194.447 32.061,194.447 C35.409,194.447 38.676,197.093 38.676,201.845 L38.676,201.899 C38.676,206.624 35.436,209.297 32.061,209.297 C29.685,209.297 28.2,208.109 27.201,206.786 L27.201,211.835 C27.201,212.753 26.472,213.455 25.554,213.455 C24.663,213.455 23.934,212.753 23.934,211.835 Z M31.278,206.462 C33.519,206.462 35.355,204.707 35.355,201.899 L35.355,201.845 C35.355,199.091 33.492,197.282 31.278,197.282 C29.064,197.282 27.12,199.118 27.12,201.845 L27.12,201.899 C27.12,204.626 29.064,206.462 31.278,206.462 Z M42.051,211.835 L42.051,196.229 C42.051,195.311 42.753,194.582 43.671,194.582 C44.589,194.582 45.318,195.311 45.318,196.229 L45.318,197.12 C46.371,195.635 47.856,194.447 50.178,194.447 C53.526,194.447 56.793,197.093 56.793,201.845 L56.793,201.899 C56.793,206.624 53.553,209.297 50.178,209.297 C47.802,209.297 46.317,208.109 45.318,206.786 L45.318,211.835 C45.318,212.753 44.589,213.455 43.671,213.455 C42.78,213.455 42.051,212.753 42.051,211.835 Z M49.395,206.462 C51.636,206.462 53.472,204.707 53.472,201.899 L53.472,201.845 C53.472,199.091 51.609,197.282 49.395,197.282 C47.181,197.282 45.237,199.118 45.237,201.845 L45.237,201.899 C45.237,204.626 47.181,206.462 49.395,206.462 Z M60.357,207.515 L60.357,190.775 C60.357,189.884 61.059,189.155 61.977,189.155 C62.895,189.155 63.624,189.884 63.624,190.775 L63.624,207.515 C63.624,208.433 62.895,209.135 61.977,209.135 C61.086,209.135 60.357,208.433 60.357,207.515 Z M67.836,191.072 L67.836,190.91 C67.836,189.938 68.646,189.317 69.699,189.317 C70.752,189.317 71.562,189.938 71.562,190.91 L71.562,191.072 C71.562,192.044 70.752,192.692 69.699,192.692 C68.646,192.692 67.836,192.044 67.836,191.072 Z M68.079,207.515 L68.079,196.229 C68.079,195.311 68.781,194.582 69.699,194.582 C70.617,194.582 71.346,195.311 71.346,196.229 L71.346,207.515 C71.346,208.433 70.617,209.135 69.699,209.135 C68.808,209.135 68.079,208.433 68.079,207.515 Z M82.2,209.324 C77.961,209.324 74.829,206.003 74.829,201.953 L74.829,201.899 C74.829,197.849 77.961,194.447 82.254,194.447 C84.495,194.447 86.034,195.176 87.249,196.229 C87.465,196.418 87.762,196.823 87.762,197.363 C87.762,198.2 87.087,198.848 86.25,198.848 C85.845,198.848 85.494,198.686 85.278,198.524 C84.441,197.822 83.523,197.309 82.227,197.309 C79.851,197.309 78.096,199.361 78.096,201.845 L78.096,201.899 C78.096,204.437 79.851,206.462 82.362,206.462 C83.658,206.462 84.657,205.949 85.548,205.193 C85.737,205.031 86.061,204.842 86.439,204.842 C87.222,204.842 87.843,205.49 87.843,206.273 C87.843,206.705 87.681,207.056 87.384,207.299 C86.115,208.514 84.576,209.324 82.2,209.324 Z M95.133,209.297 C92.46,209.297 90.084,207.758 90.084,204.896 L90.084,204.842 C90.084,201.764 92.487,200.252 95.97,200.252 C97.563,200.252 98.697,200.495 99.804,200.846 L99.804,200.495 C99.804,198.47 98.562,197.39 96.267,197.39 C95.025,197.39 93.999,197.606 93.108,197.957 C92.919,198.011 92.757,198.038 92.595,198.038 C91.839,198.038 91.218,197.444 91.218,196.688 C91.218,196.094 91.623,195.581 92.109,195.392 C93.459,194.879 94.836,194.555 96.699,194.555 C98.832,194.555 100.425,195.122 101.424,196.148 C102.477,197.174 102.963,198.686 102.963,200.549 L102.963,207.569 C102.963,208.46 102.261,209.135 101.37,209.135 C100.425,209.135 99.777,208.487 99.777,207.758 L99.777,207.218 C98.805,208.379 97.32,209.297 95.133,209.297 Z M96.051,206.921 C98.211,206.921 99.858,205.679 99.858,203.87 L99.858,202.898 C99.021,202.574 97.914,202.331 96.618,202.331 C94.512,202.331 93.27,203.222 93.27,204.707 L93.27,204.761 C93.27,206.138 94.485,206.921 96.051,206.921 Z M111.522,209.243 C109.119,209.243 107.418,208.19 107.418,205.058 L107.418,197.552 L106.878,197.552 C106.095,197.552 105.474,196.931 105.474,196.148 C105.474,195.365 106.095,194.744 106.878,194.744 L107.418,194.744 L107.418,192.314 C107.418,191.423 108.147,190.694 109.065,190.694 C109.956,190.694 110.685,191.423 110.685,192.314 L110.685,194.744 L113.25,194.744 C114.033,194.744 114.681,195.365 114.681,196.148 C114.681,196.931 114.033,197.552 113.25,197.552 L110.685,197.552 L110.685,204.545 C110.685,205.814 111.333,206.327 112.44,206.327 C112.818,206.327 113.142,206.246 113.25,206.246 C113.979,206.246 114.627,206.84 114.627,207.596 C114.627,208.19 114.222,208.676 113.763,208.865 C113.061,209.108 112.386,209.243 111.522,209.243 Z M117.786,191.072 L117.786,190.91 C117.786,189.938 118.596,189.317 119.649,189.317 C120.702,189.317 121.512,189.938 121.512,190.91 L121.512,191.072 C121.512,192.044 120.702,192.692 119.649,192.692 C118.596,192.692 117.786,192.044 117.786,191.072 Z M118.029,207.515 L118.029,196.229 C118.029,195.311 118.731,194.582 119.649,194.582 C120.567,194.582 121.296,195.311 121.296,196.229 L121.296,207.515 C121.296,208.433 120.567,209.135 119.649,209.135 C118.758,209.135 118.029,208.433 118.029,207.515 Z M132.339,209.324 C127.992,209.324 124.779,206.003 124.779,201.953 L124.779,201.899 C124.779,197.822 128.019,194.447 132.393,194.447 C136.767,194.447 139.98,197.768 139.98,201.845 L139.98,201.899 C139.98,205.949 136.74,209.324 132.339,209.324 Z M132.393,206.462 C135.039,206.462 136.713,204.41 136.713,201.953 L136.713,201.899 C136.713,199.388 134.904,197.309 132.339,197.309 C129.72,197.309 128.046,199.361 128.046,201.845 L128.046,201.899 C128.046,204.383 129.855,206.462 132.393,206.462 Z M143.301,207.515 L143.301,196.229 C143.301,195.311 144.003,194.582 144.921,194.582 C145.839,194.582 146.568,195.311 146.568,196.229 L146.568,196.931 C147.486,195.608 148.809,194.447 151.023,194.447 C154.236,194.447 156.099,196.607 156.099,199.901 L156.099,207.515 C156.099,208.433 155.397,209.135 154.479,209.135 C153.561,209.135 152.832,208.433 152.832,207.515 L152.832,200.9 C152.832,198.686 151.725,197.417 149.781,197.417 C147.891,197.417 146.568,198.74 146.568,200.954 L146.568,207.515 C146.568,208.433 145.839,209.135 144.921,209.135 C144.03,209.135 143.301,208.433 143.301,207.515 Z"/>
      <g transform="translate(16 16)">
        <rect width="128" height="128"/>
        <path fill="url(#3-c)" d="M109.976774,25.2123297 L73.7353405,4.58781362 C67.6998969,1.1517418 60.3001031,1.1517418 54.2646595,4.58781362 L18.0209319,25.2215054 C11.8756418,28.7206546 8.08095125,35.2486083 8.08143369,42.3202867 L8.08143369,58.4166308 L23.9415054,67.5739068 C25.0524584,68.2158709 26.4217762,68.2152273 27.5321253,67.5722192 C28.6424744,66.929211 29.3245712,65.7418713 29.3207168,64.4587814 L29.3207168,45.1899642 C29.321442,43.9098855 30.0041501,42.7271659 31.1122581,42.0863082 L62.2084588,24.1341935 C63.3170683,23.4941375 64.6829317,23.4941375 65.7915412,24.1341935 L96.8877419,42.0886022 C97.996542,42.7287681 98.6795031,43.9119261 98.6792832,45.1922581 L98.6792832,64.4587814 C98.680009,65.7391132 99.3634144,66.9218966 100.472278,67.561953 C101.581141,68.2020093 102.947164,68.2021939 104.056201,67.5624373 L119.916272,58.4051613 L119.916272,42.3111111 C119.916755,35.2394327 116.122064,28.711479 109.976774,25.2123297 Z"/>
        <path fill="url(#3-d)" d="M116.248315,97.5575627 L67.6702509,125.605161 C65.3990917,126.916416 62.6009083,126.916416 60.3297491,125.605161 L40.861362,114.365018 L103.489606,41.2903226 L119.916272,56.0332616 L119.916272,91.2034409 C119.915696,93.8244265 118.517683,96.2462509 116.248315,97.5575627 Z"/>
        <path fill="#FFF" d="M105.937204,83.2206452 L105.937204,48.5230108 C105.936468,44.2762291 103.67104,40.352167 99.9936918,38.227957 L69.9458065,20.874552 C66.2665286,18.7503199 61.7334714,18.7503199 58.0541935,20.874552 L28.0040143,38.2233692 C24.3266666,40.3475792 22.0612376,44.2716413 22.0605018,48.5184229 L22.0605018,83.2206452 C22.0604184,87.4682463 24.325957,91.3933729 28.0040143,93.5179928 L58.0541935,110.86681 C61.7341042,112.988679 66.2658958,112.988679 69.9458065,110.86681 L99.9959857,93.5179928 C103.67316,91.3927902 105.937761,87.4677734 105.937204,83.2206452 Z"/>
        <path fill="url(#3-e)" d="M119.916272,84.0785663 L119.916273,70.916129 L78.1121147,95.0526165 C69.3817132,100.090386 58.6274624,100.090386 49.8970609,95.0526165 L8.0837276,70.916129 L8.0837276,84.0785663 C8.08353575,91.1087205 11.8340017,97.6049229 17.9222939,101.12 L54.1660215,122.042724 C60.254401,125.556759 67.7547746,125.556759 73.8431541,122.042724 L110.086882,101.12 C116.171642,97.6025918 119.918357,91.1068284 119.916272,84.0785663 Z"/>
        <path fill="url(#3-f)" d="M39.8956272,50.3948387 C39.5355813,49.5781317 38.860974,48.9414369 38.0248293,48.6291783 C37.1886846,48.3169197 36.2618718,48.3555635 35.4546237,48.7363441 C34.6308846,49.0885114 33.9891684,49.7652556 33.6812362,50.6065318 C33.3733039,51.447808 33.4264999,52.3789108 33.8282437,53.1796416 L41.2719713,69.3562724 C42.4418638,71.8933333 43.6759857,73.2215054 45.9905376,73.2215054 C48.4656631,73.2215054 49.5437993,71.7740502 50.7136918,69.3562724 C50.7136918,69.3562724 57.205448,55.2189247 57.2696774,55.0744086 C57.4156871,54.6899045 57.795107,54.4453275 58.2055914,54.4711111 C58.4809685,54.4723105 58.7444507,54.5834921 58.9374428,54.7799305 C59.1304348,54.9763688 59.236936,55.2417774 59.2332616,55.5171326 L59.2332616,69.3149821 C59.2332616,71.4758423 60.4329749,73.2490323 62.7383513,73.2490323 C65.0437276,73.2490323 66.2939068,71.4758423 66.2939068,69.3149821 L66.2939068,57.9853763 C66.2939068,56.0194982 67.594552,54.6936201 69.4319713,54.5055197 C71.5400717,54.276129 73.3499642,56.0080287 73.3499642,58.1253047 L73.3499642,69.317276 C73.3499642,71.4758423 74.5496774,73.2467384 76.8504659,73.2467384 C79.1512545,73.2467384 80.4037276,71.4758423 80.4037276,69.317276 L80.4037276,57.9853763 C80.4037276,55.8589247 81.9222939,54.4802867 84.0005735,54.4802867 C86.078853,54.4802867 87.4597849,55.9070968 87.4597849,57.9853763 L87.4597849,69.3149821 C87.4597849,71.4758423 88.6594982,73.2490323 90.9625806,73.2490323 C93.2656631,73.2490323 94.5089606,71.4758423 94.5089606,69.3149821 L94.5089606,56.4691039 C94.5089606,51.7367742 90.707957,48.4243728 86.1270251,48.4243728 C81.5460932,48.4243728 78.6810036,51.5876703 78.6810036,51.5876703 C77.1601434,49.6126165 75.0612186,48.4266667 71.5102509,48.4266667 C67.7643011,48.4266667 64.4840143,51.5876703 64.4840143,51.5876703 C62.9608602,49.6126165 60.3664516,48.4266667 58.2193548,48.4266667 C54.9000717,48.4266667 52.2551971,49.8878853 50.6494624,53.5650179 L45.8964875,64.7684588 L39.7992832,50.3948387"/>
      </g>
    </g>
    <g fill="#61717D" transform="translate(146.08 609.19)">
      <path d="M35.9771037 12.2731896L32.3104576 1.67224141C32.26255 1.52598468 32.1929698 1.33235735 32.1929698 1.16300745 32.1929698.702920497 32.5671058.267110973 33.1026448.267110973 33.5703147.267110973 33.8748705.581533333 34.0157418 1.04162029L37.0527445 10.1758563 40.1125603 1.01615859C40.2517206.581533333 40.5334632.267110973 40.9982815.267110973L41.0929561.267110973C41.5845798.267110973 41.8879949.581533333 42.0271552 1.01615859L45.0630172 10.1758563 48.1496386.994249689C48.266556.605218634 48.5220635.267110973 49.0131169.267110973 49.5269834.267110973 49.9011194.677458799 49.9011194 1.13932215 49.9011194 1.30867205 49.8303985 1.50111511 49.7847722 1.64855611L46.0941723 12.2731896C45.9053934 12.8280178 45.5329685 13.119347 45.1120656 13.119347L45.0424854 13.119347C44.5742452 13.119347 44.2229224 12.8280178 44.0586676 12.2731896L41.0479001 3.26566998 38.0091864 12.2731896C37.8460723 12.8280178 37.4953199 13.119347 37.029361 13.119347L36.9803127 13.119347C36.5371669 13.119347 36.1641716 12.8280178 35.9771037 12.2731896M62.7065485 1.19125217C62.7065485.679649689 63.1034976.242655901 63.594551.242655901 64.1106988.242655901 64.5076479.655372257 64.5076479 1.19125217L64.5076479 3.34246957C65.3962207 1.25283395 67.3667079.266933333 68.6727616.266933333 69.2128633.266933333 69.5641861.679649689 69.5641861 1.21375321 69.5641861 1.72417143 69.2368172 2.08714865 68.7662956 2.16116522 66.4256648 2.45249441 64.5076479 4.27507826 64.5076479 7.89656066L64.5076479 12.1545855C64.5076479 12.6650037 64.133512 13.1014054 63.6190751 13.1014054 63.1034976 13.1014054 62.7065485 12.6875048 62.7065485 12.1545855L62.7065485 1.19125217M78.8529087 6.02980373C78.669833 3.76844969 77.4293671 1.79842484 75.0687748 1.79842484 73.0047537 1.79842484 71.4449035 3.59969193 71.2196234 6.02980373L78.8529087 6.02980373zM75.3448141 13.2206609C72.0888051 13.2206609 69.4287899 10.598106 69.4287899 6.75161325L69.4287899 6.70187412C69.4287899 3.12065673 71.8361492.234602899 75.1155418.234602899 78.6219254.234602899 80.619218 3.2384911 80.619218 6.53430062 80.619218 7.03998178 80.2256909 7.40118261 79.7922408 7.40118261L71.2196234 7.40118261C71.4699979 10.0924248 73.2802226 11.6082841 75.3915811 11.6082841 76.8584677 11.6082841 77.9346788 11.0060853 78.806712 10.164665 78.943591 10.0456464 79.1049942 9.94972091 79.3120236 9.94972091 79.7460441 9.94972091 80.0910932 10.3103296 80.0910932 10.7449549 80.0910932 10.959899 80.0004109 11.1766195 79.8150539 11.3436008 78.6926462 12.4733896 77.3620683 13.2206609 75.3448141 13.2206609zM58.8231774 8.35842402L58.8231774 7.14692091C57.9351749 6.88046128 56.7437573 6.61281739 55.2757301 6.61281739 53.0149454 6.61281739 51.7533773 7.6312853 51.7533773 9.20458137L51.7533773 9.25313623C51.7533773 10.8270244 53.152965 11.7477905 54.786958 11.7477905 57.0015461 11.7477905 58.8231774 10.34266 58.8231774 8.35842402M49.9340273 9.32774493L49.9340273 9.2780058C49.9340273 6.63827909 52.0339792 5.23255652 55.0886621 5.23255652 56.6291211 5.23255652 57.7252938 5.45046128 58.8009345 5.76666004L58.8009345 5.32907412C58.8009345 3.07778634 57.467505 1.91365383 55.2072906 1.91365383 53.9924895 1.91365383 53.286422 2.07412174 52.3984196 2.48446957 52.2832131 2.53361656 52.1657253 2.55848613 52.0739023 2.55848613 51.65414 2.55848613 51.2794338 2.19432464 51.2794338 1.75851511 51.2794338 1.37185259 51.4419776 1.13322319 51.7704872.9822294 52.9579125.446941615 53.8544699.268709731 55.3932179.268709731 57.0950801.268709731 58.4022744.727612422 59.2868549 1.64837847 60.1041366 2.49690435 60.5250395 3.70781532 60.5250395 5.30598095L60.5250395 12.2179437C60.5250395 12.7484944 60.1520443 13.1369333 59.6592799 13.1369333 59.148265 13.1369333 58.8009345 12.7484944 58.8009345 12.2653143L58.8009345 11.0697988C57.9602694 12.2096538 56.5589707 13.2263453 54.4396276 13.2263453 52.198234 13.2263453 49.9340273 11.8946393 49.9340273 9.32774493M3.29405002 1.05304845C2.89881193.153599172 1.92240844-.253787992 1.01045214.167218219.0979255136.588816563-.237998351 1.63925963.174349619 2.53930104L4.00239882 11.1779222C4.60466639 12.5327213 5.23944273 13.2420961 6.42971965 13.2420961 7.70212396 13.2420961 8.25705422 12.4693631 8.85818113 11.1779222 8.85818113 11.1779222 12.1974583 3.62941698 12.2311077 3.55125549 12.2653274 3.47072547 12.371979 3.22676687 12.7118951 3.22854327 12.999341 3.23209607 13.2411606 3.4695412 13.2411606 3.78810849L13.2411606 11.1708166C13.2411606 12.3083031 13.8491315 13.2420961 15.0183062 13.2420961 16.1869106 13.2420961 16.8188353 12.3083031 16.8188353 11.1708166L16.8188353 5.13106501C16.8188353 3.96574824 17.6229994 3.21018716 18.7186017 3.21018716 19.8147743 3.21018716 20.5442252 3.99180207 20.5442252 5.13106501L20.5442252 11.1708166C20.5442252 12.3083031 21.1539071 13.2420961 22.3213709 13.2420961 23.4899753 13.2420961 24.1247516 12.3083031 24.1247516 11.1708166L24.1247516 5.13106501C24.1247516 3.96574824 24.9254937 3.21018716 26.022807 3.21018716 27.1166983 3.21018716 27.8484306 3.99180207 27.8484306 5.13106501L27.8484306 11.1708166C27.8484306 12.3083031 28.4575421 13.2420961 29.6261465 13.2420961 30.7936103 13.2420961 31.4272459 12.3083031 31.4272459 11.1708166L31.4272459 4.29615818C31.4272459 1.76952878 29.4715873.000236853002 27.1166983.000236853002 24.7640906.000236853002 23.2915007 1.68899876 23.2915007 1.68899876 22.5084388.635002899 21.4288057.00142111801 19.6026118.00142111801 17.6754697.00142111801 15.9884361 1.68899876 15.9884361 1.68899876 15.2048038.635002899 13.870804.00142111801 12.7666467.00142111801 11.058511.00142111801 9.70226826.78185176 8.87472068 2.74595528L6.42971965 8.72886211 3.29405002 1.05304845M83.4617385 1.79120083L83.4617385 1.7870559C83.4617385 1.09189234 82.9444499.521668737 82.254922.521668737 81.5716677.521668737 81.0463946 1.10136646 81.0463946 1.79120083L81.0463946 1.79949068C81.0463946 2.49287785 81.5659644 3.06310145 82.254922 3.06310145 82.9370357 3.06310145 83.4617385 2.48340373 83.4617385 1.79120083M80.7640816 1.80185921L80.7640816 1.79120083C80.7640816.946227743 81.4245228.234484472 82.254922.234484472 83.0972982.234484472 83.7480437.939122153 83.7480437 1.78468737L83.7480437 1.79120083C83.7480437 2.63972671 83.0893135 3.35146998 82.254922 3.35146998 81.4131162 3.35146998 80.7640816 2.64920083 80.7640816 1.80185921"/>
      <path d="M82.3258139,1.74175776 C82.4803731,1.74175776 82.5664928,1.65767495 82.5664928,1.52977433 L82.5664928,1.52444513 C82.5664928,1.38470186 82.4746698,1.31009317 82.3201106,1.31009317 L82.0030076,1.31009317 L82.0030076,1.74175776 L82.3258139,1.74175776 Z M81.6841936,1.17804762 C81.6841936,1.08626708 81.7549145,1.01284265 81.8444561,1.01284265 L82.3429238,1.01284265 C82.5299918,1.01284265 82.6748554,1.06791097 82.7649674,1.16620497 C82.8470948,1.24910352 82.8910101,1.36871429 82.8910101,1.50786542 L82.8910101,1.51260248 C82.8910101,1.74945549 82.7763739,1.89334369 82.6024236,1.96913665 L82.8220003,2.24803106 C82.852798,2.2888882 82.8739002,2.32323188 82.8739002,2.37415528 C82.8739002,2.46593582 82.7991871,2.52633333 82.722763,2.52633333 C82.6520422,2.52633333 82.6047049,2.48902899 82.5664928,2.44165839 L82.2568041,2.03486335 L82.0030076,2.03486335 L82.0030076,2.3617205 C82.0030076,2.45350104 81.9339978,2.52633333 81.8444561,2.52633333 C81.7549145,2.52633333 81.6841936,2.45350104 81.6841936,2.3617205 L81.6841936,1.17804762 Z"/>
    </g>
    <path fill="#495A67" d="M61.6284999,374.473 C61.6284999,374.371 61.6454999,374.252 61.7134999,374.116 L66.5414999,363.559 C66.7114999,363.185 66.9664999,362.964 67.3914999,362.964 L67.4594999,362.964 C67.8674999,362.964 68.1394999,363.185 68.2924999,363.559 L73.1204999,374.099 C73.1714999,374.218 73.2054999,374.337 73.2054999,374.439 C73.2054999,374.796 72.9164999,375.085 72.5594999,375.085 C72.2364999,375.085 72.0154999,374.864 71.8964999,374.592 L70.6554999,371.855 L64.1274999,371.855 L62.8864999,374.626 C62.7674999,374.915 62.5464999,375.085 62.2404999,375.085 C61.9004999,375.085 61.6284999,374.813 61.6284999,374.473 Z M64.6544999,370.631 L70.1284999,370.631 L67.3914999,364.545 L64.6544999,370.631 Z M75.1414999,374.422 L75.1414999,366.789 C75.1414999,366.432 75.4304999,366.126 75.7874999,366.126 C76.1614999,366.126 76.4504999,366.415 76.4504999,366.789 L76.4504999,367.741 C77.0284999,366.789 77.9464999,366.024 79.4594999,366.024 C81.5844999,366.024 82.8254999,367.452 82.8254999,369.543 L82.8254999,374.422 C82.8254999,374.796 82.5364999,375.085 82.1794999,375.085 C81.8054999,375.085 81.5164999,374.796 81.5164999,374.422 L81.5164999,369.866 C81.5164999,368.234 80.6324999,367.214 79.0854999,367.214 C77.5724999,367.214 76.4504999,368.319 76.4504999,369.968 L76.4504999,374.422 C76.4504999,374.796 76.1784999,375.085 75.8044999,375.085 C75.4304999,375.085 75.1414999,374.796 75.1414999,374.422 Z M92.5115,375.187 C90.8795,375.187 89.2305,374.252 89.2305,372.45 L89.2305,372.416 C89.2305,370.563 90.7605,369.577 92.9875,369.577 C94.1095,369.577 94.9085,369.73 95.6905,369.951 L95.6905,369.645 C95.6905,368.064 94.7215,367.248 93.0725,367.248 C92.1885,367.248 91.4405,367.452 90.7945,367.741 C90.7095,367.775 90.6245,367.792 90.5565,367.792 C90.2505,367.792 89.9785,367.537 89.9785,367.231 C89.9785,366.959 90.1655,366.755 90.3355,366.687 C91.2025,366.313 92.0865,366.092 93.2085,366.092 C94.4495,366.092 95.4015,366.415 96.0475,367.061 C96.6425,367.656 96.9485,368.506 96.9485,369.628 L96.9485,374.439 C96.9485,374.813 96.6765,375.085 96.3195,375.085 C95.9455,375.085 95.6905,374.813 95.6905,374.473 L95.6905,373.674 C95.0785,374.473 94.0585,375.187 92.5115,375.187 Z M92.7665,374.15 C94.3815,374.15 95.7075,373.164 95.7075,371.77 L95.7075,370.92 C95.0615,370.733 94.1945,370.546 93.1235,370.546 C91.4745,370.546 90.5565,371.26 90.5565,372.365 L90.5565,372.399 C90.5565,373.504 91.5765,374.15 92.7665,374.15 Z M99.3265,377.142 L99.3265,366.789 C99.3265,366.415 99.6155,366.126 99.9725,366.126 C100.3465,366.126 100.6355,366.415 100.6355,366.789 L100.6355,367.979 C101.3495,366.925 102.3865,366.024 104.0015,366.024 C106.1095,366.024 108.2005,367.69 108.2005,370.58 L108.2005,370.614 C108.2005,373.487 106.1265,375.187 104.0015,375.187 C102.3695,375.187 101.3155,374.303 100.6355,373.317 L100.6355,377.142 C100.6355,377.516 100.3635,377.805 99.9895,377.805 C99.6155,377.805 99.3265,377.516 99.3265,377.142 Z M103.7635,374.014 C105.4635,374.014 106.8575,372.756 106.8575,370.631 L106.8575,370.597 C106.8575,368.523 105.4295,367.197 103.7635,367.197 C102.1315,367.197 100.5845,368.574 100.5845,370.58 L100.5845,370.614 C100.5845,372.654 102.1315,374.014 103.7635,374.014 Z M110.2045,377.142 L110.2045,366.789 C110.2045,366.415 110.4935,366.126 110.8505,366.126 C111.2245,366.126 111.5135,366.415 111.5135,366.789 L111.5135,367.979 C112.2275,366.925 113.2645,366.024 114.8795,366.024 C116.9875,366.024 119.0785,367.69 119.0785,370.58 L119.0785,370.614 C119.0785,373.487 117.0045,375.187 114.8795,375.187 C113.2475,375.187 112.1935,374.303 111.5135,373.317 L111.5135,377.142 C111.5135,377.516 111.2415,377.805 110.8675,377.805 C110.4935,377.805 110.2045,377.516 110.2045,377.142 Z M114.6415,374.014 C116.3415,374.014 117.7355,372.756 117.7355,370.631 L117.7355,370.597 C117.7355,368.523 116.3075,367.197 114.6415,367.197 C113.0095,367.197 111.4625,368.574 111.4625,370.58 L111.4625,370.614 C111.4625,372.654 113.0095,374.014 114.6415,374.014 Z M128.7135,375.153 C127.3025,375.153 126.2315,374.456 126.2315,372.671 L126.2315,367.367 L125.5175,367.367 C125.2115,367.367 124.9395,367.095 124.9395,366.789 C124.9395,366.466 125.2115,366.211 125.5175,366.211 L126.2315,366.211 L126.2315,364.137 C126.2315,363.78 126.5035,363.474 126.8775,363.474 C127.2345,363.474 127.5405,363.78 127.5405,364.137 L127.5405,366.211 L129.8185,366.211 C130.1415,366.211 130.4135,366.483 130.4135,366.789 C130.4135,367.112 130.1415,367.367 129.8185,367.367 L127.5405,367.367 L127.5405,372.501 C127.5405,373.572 128.1355,373.963 129.0195,373.963 C129.4785,373.963 129.7165,373.844 129.8185,373.844 C130.1245,373.844 130.3795,374.099 130.3795,374.405 C130.3795,374.643 130.2265,374.83 130.0055,374.915 C129.6315,375.068 129.2235,375.153 128.7135,375.153 Z M132.2305,374.422 L132.2305,363.168 C132.2305,362.811 132.5195,362.505 132.8765,362.505 C133.2505,362.505 133.5395,362.811 133.5395,363.168 L133.5395,367.741 C134.1175,366.789 135.0355,366.024 136.5485,366.024 C138.6735,366.024 139.9145,367.452 139.9145,369.543 L139.9145,374.422 C139.9145,374.796 139.6255,375.085 139.2685,375.085 C138.8945,375.085 138.6055,374.796 138.6055,374.422 L138.6055,369.866 C138.6055,368.234 137.7215,367.214 136.1745,367.214 C134.6615,367.214 133.5395,368.319 133.5395,369.968 L133.5395,374.422 C133.5395,374.796 133.2675,375.085 132.8935,375.085 C132.5195,375.085 132.2305,374.796 132.2305,374.422 Z M144.9105,375.187 C143.2785,375.187 141.6295,374.252 141.6295,372.45 L141.6295,372.416 C141.6295,370.563 143.1595,369.577 145.3865,369.577 C146.5085,369.577 147.3075,369.73 148.0895,369.951 L148.0895,369.645 C148.0895,368.064 147.1205,367.248 145.4715,367.248 C144.5875,367.248 143.8395,367.452 143.1935,367.741 C143.1085,367.775 143.0235,367.792 142.9555,367.792 C142.6495,367.792 142.3775,367.537 142.3775,367.231 C142.3775,366.959 142.5645,366.755 142.7345,366.687 C143.6015,366.313 144.4855,366.092 145.6075,366.092 C146.8485,366.092 147.8005,366.415 148.4465,367.061 C149.0415,367.656 149.3475,368.506 149.3475,369.628 L149.3475,374.439 C149.3475,374.813 149.0755,375.085 148.7185,375.085 C148.3445,375.085 148.0895,374.813 148.0895,374.473 L148.0895,373.674 C147.4775,374.473 146.4575,375.187 144.9105,375.187 Z M145.1655,374.15 C146.7805,374.15 148.1065,373.164 148.1065,371.77 L148.1065,370.92 C147.4605,370.733 146.5935,370.546 145.5225,370.546 C143.8735,370.546 142.9555,371.26 142.9555,372.365 L142.9555,372.399 C142.9555,373.504 143.9755,374.15 145.1655,374.15 Z M154.5815,375.153 C153.1705,375.153 152.0995,374.456 152.0995,372.671 L152.0995,367.367 L151.3855,367.367 C151.0795,367.367 150.8075,367.095 150.8075,366.789 C150.8075,366.466 151.0795,366.211 151.3855,366.211 L152.0995,366.211 L152.0995,364.137 C152.0995,363.78 152.3715,363.474 152.7455,363.474 C153.1025,363.474 153.4085,363.78 153.4085,364.137 L153.4085,366.211 L155.6865,366.211 C156.0095,366.211 156.2815,366.483 156.2815,366.789 C156.2815,367.112 156.0095,367.367 155.6865,367.367 L153.4085,367.367 L153.4085,372.501 C153.4085,373.572 154.0035,373.963 154.8875,373.963 C155.3465,373.963 155.5845,373.844 155.6865,373.844 C155.9925,373.844 156.2475,374.099 156.2475,374.405 C156.2475,374.643 156.0945,374.83 155.8735,374.915 C155.4995,375.068 155.0915,375.153 154.5815,375.153 Z M165.4065,375.187 C163.7745,375.187 162.1255,374.252 162.1255,372.45 L162.1255,372.416 C162.1255,370.563 163.6555,369.577 165.8825,369.577 C167.0045,369.577 167.8035,369.73 168.5855,369.951 L168.5855,369.645 C168.5855,368.064 167.6165,367.248 165.9675,367.248 C165.0835,367.248 164.3355,367.452 163.6895,367.741 C163.6045,367.775 163.5195,367.792 163.4515,367.792 C163.1455,367.792 162.8735,367.537 162.8735,367.231 C162.8735,366.959 163.0605,366.755 163.2305,366.687 C164.0975,366.313 164.9815,366.092 166.1035,366.092 C167.3445,366.092 168.2965,366.415 168.9425,367.061 C169.5375,367.656 169.8435,368.506 169.8435,369.628 L169.8435,374.439 C169.8435,374.813 169.5715,375.085 169.2145,375.085 C168.8405,375.085 168.5855,374.813 168.5855,374.473 L168.5855,373.674 C167.9735,374.473 166.9535,375.187 165.4065,375.187 Z M165.6615,374.15 C167.2765,374.15 168.6025,373.164 168.6025,371.77 L168.6025,370.92 C167.9565,370.733 167.0895,370.546 166.0185,370.546 C164.3695,370.546 163.4515,371.26 163.4515,372.365 L163.4515,372.399 C163.4515,373.504 164.4715,374.15 165.6615,374.15 Z M172.3405,374.422 L172.3405,363.168 C172.3405,362.811 172.6295,362.505 172.9865,362.505 C173.3605,362.505 173.6495,362.811 173.6495,363.168 L173.6495,374.422 C173.6495,374.796 173.3775,375.085 173.0035,375.085 C172.6295,375.085 172.3405,374.796 172.3405,374.422 Z M177.0645,370.121 L182.7255,370.121 C182.5895,368.523 181.6715,367.129 179.9205,367.129 C178.3905,367.129 177.2345,368.404 177.0645,370.121 Z M183.4395,373.878 C182.6065,374.677 181.6205,375.204 180.1245,375.204 C177.7105,375.204 175.7385,373.351 175.7385,370.631 L175.7385,370.597 C175.7385,368.064 177.5235,366.024 179.9545,366.024 C182.5555,366.024 184.0345,368.149 184.0345,370.478 C184.0345,370.835 183.7455,371.09 183.4225,371.09 L177.0645,371.09 C177.2515,372.994 178.5945,374.065 180.1585,374.065 C181.2465,374.065 182.0455,373.64 182.6915,373.045 C182.7935,372.96 182.9125,372.892 183.0655,372.892 C183.3885,372.892 183.6435,373.147 183.6435,373.453 C183.6435,373.606 183.5755,373.759 183.4395,373.878 Z M185.9365,374.422 L185.9365,366.789 C185.9365,366.432 186.2255,366.126 186.5825,366.126 C186.9565,366.126 187.2455,366.415 187.2455,366.789 L187.2455,368.438 C187.8915,366.976 189.1665,366.092 190.2715,366.092 C190.6625,366.092 190.9175,366.381 190.9175,366.755 C190.9175,367.112 190.6795,367.367 190.3395,367.418 C188.6395,367.622 187.2455,368.897 187.2455,371.43 L187.2455,374.422 C187.2455,374.779 186.9735,375.085 186.5995,375.085 C186.2255,375.085 185.9365,374.796 185.9365,374.422 Z M195.3525,375.153 C193.9415,375.153 192.8705,374.456 192.8705,372.671 L192.8705,367.367 L192.1565,367.367 C191.8505,367.367 191.5785,367.095 191.5785,366.789 C191.5785,366.466 191.8505,366.211 192.1565,366.211 L192.8705,366.211 L192.8705,364.137 C192.8705,363.78 193.1425,363.474 193.5165,363.474 C193.8735,363.474 194.1795,363.78 194.1795,364.137 L194.1795,366.211 L196.4575,366.211 C196.7805,366.211 197.0525,366.483 197.0525,366.789 C197.0525,367.112 196.7805,367.367 196.4575,367.367 L194.1795,367.367 L194.1795,372.501 C194.1795,373.572 194.7745,373.963 195.6585,373.963 C196.1175,373.963 196.3555,373.844 196.4575,373.844 C196.7635,373.844 197.0185,374.099 197.0185,374.405 C197.0185,374.643 196.8655,374.83 196.6445,374.915 C196.2705,375.068 195.8625,375.153 195.3525,375.153 Z M201.7765,375.17 C200.6205,375.17 199.3455,374.745 198.3935,374.065 C198.2745,373.98 198.1555,373.81 198.1555,373.589 C198.1555,373.283 198.4105,373.028 198.7335,373.028 C198.8525,373.028 198.9715,373.062 199.0565,373.13 C199.9575,373.742 200.8925,374.065 201.8445,374.065 C202.8985,374.065 203.6635,373.521 203.6635,372.671 L203.6635,372.637 C203.6635,371.753 202.6265,371.413 201.4705,371.09 C200.0935,370.699 198.5635,370.223 198.5635,368.608 L198.5635,368.574 C198.5635,367.061 199.8215,366.058 201.5555,366.058 C202.4905,366.058 203.5105,366.347 204.3605,366.806 C204.5305,366.908 204.6835,367.095 204.6835,367.35 C204.6835,367.656 204.4285,367.911 204.1055,367.911 C203.9865,367.911 203.8845,367.877 203.8165,367.843 C203.0685,367.418 202.2695,367.163 201.5215,367.163 C200.4845,367.163 199.8215,367.707 199.8215,368.438 L199.8215,368.472 C199.8215,369.305 200.9095,369.628 202.0825,369.985 C203.4425,370.393 204.9045,370.92 204.9045,372.501 L204.9045,372.535 C204.9045,374.201 203.5275,375.17 201.7765,375.17 Z M212.8905,377.771 C212.3125,377.771 211.8875,377.669 211.4455,377.516 C211.2415,377.431 211.0375,377.261 211.0375,376.955 C211.0375,376.632 211.3095,376.394 211.5985,376.394 C211.7175,376.394 211.8195,376.428 211.9215,376.462 C212.1765,376.547 212.4315,376.615 212.8735,376.615 C213.6895,376.615 214.1655,376.122 214.6415,375.051 L214.7095,374.915 L211.0375,367.129 C210.9865,367.01 210.9525,366.891 210.9525,366.772 C210.9525,366.415 211.2415,366.126 211.6155,366.126 C211.9725,366.126 212.1595,366.347 212.2785,366.636 L215.3385,373.538 L218.0585,366.619 C218.1605,366.347 218.3475,366.126 218.6875,366.126 C219.0445,366.126 219.3335,366.415 219.3335,366.772 C219.3335,366.874 219.2995,366.993 219.2655,367.095 L215.8315,375.289 C215.0665,377.108 214.2165,377.771 212.8905,377.771 Z M224.7545,375.204 C222.1195,375.204 220.1985,373.13 220.1985,370.648 L220.1985,370.614 C220.1985,368.132 222.1365,366.024 224.7885,366.024 C227.4235,366.024 229.3615,368.098 229.3615,370.58 L229.3615,370.614 C229.3615,373.096 227.4065,375.204 224.7545,375.204 Z M224.7885,374.031 C226.6925,374.031 228.0185,372.501 228.0185,370.648 L228.0185,370.614 C228.0185,368.727 226.6075,367.18 224.7545,367.18 C222.8505,367.18 221.5415,368.727 221.5415,370.58 L221.5415,370.614 C221.5415,372.501 222.9355,374.031 224.7885,374.031 Z M238.8455,366.789 L238.8455,374.422 C238.8455,374.779 238.5735,375.085 238.1995,375.085 C237.8425,375.085 237.5535,374.796 237.5535,374.422 L237.5535,373.47 C236.9585,374.422 236.0575,375.187 234.5445,375.187 C232.4195,375.187 231.1785,373.759 231.1785,371.668 L231.1785,366.789 C231.1785,366.415 231.4505,366.126 231.8245,366.126 C232.1815,366.126 232.4875,366.415 232.4875,366.789 L232.4875,371.345 C232.4875,372.977 233.3715,373.997 234.9185,373.997 C236.4145,373.997 237.5535,372.892 237.5535,371.243 L237.5535,366.789 C237.5535,366.415 237.8255,366.126 238.1995,366.126 C238.5565,366.126 238.8455,366.415 238.8455,366.789 Z M248.9395,375.136 C248.6165,375.136 248.3445,374.932 248.2085,374.541 L245.5395,367.112 C245.5055,367.01 245.4545,366.874 245.4545,366.755 C245.4545,366.432 245.7265,366.126 246.1175,366.126 C246.4575,366.126 246.6785,366.347 246.7805,366.67 L248.9905,373.266 L251.2175,366.653 C251.3195,366.347 251.5235,366.126 251.8635,366.126 L251.9315,366.126 C252.2885,366.126 252.5095,366.347 252.6115,366.653 L254.8215,373.266 L257.0655,366.636 C257.1505,366.364 257.3375,366.126 257.6945,366.126 C258.0685,366.126 258.3405,366.415 258.3405,366.738 C258.3405,366.857 258.2895,366.993 258.2555,367.095 L255.5695,374.541 C255.4335,374.932 255.1615,375.136 254.8555,375.136 L254.8045,375.136 C254.4645,375.136 254.2095,374.932 254.0905,374.541 L251.8975,368.132 L249.6875,374.541 C249.5685,374.932 249.3135,375.136 248.9735,375.136 L248.9395,375.136 Z M260.2425,374.422 L260.2425,363.168 C260.2425,362.811 260.5315,362.505 260.8885,362.505 C261.2625,362.505 261.5515,362.811 261.5515,363.168 L261.5515,367.741 C262.1295,366.789 263.0475,366.024 264.5605,366.024 C266.6855,366.024 267.9265,367.452 267.9265,369.543 L267.9265,374.422 C267.9265,374.796 267.6375,375.085 267.2805,375.085 C266.9065,375.085 266.6175,374.796 266.6175,374.422 L266.6175,369.866 C266.6175,368.234 265.7335,367.214 264.1865,367.214 C262.6735,367.214 261.5515,368.319 261.5515,369.968 L261.5515,374.422 C261.5515,374.796 261.2795,375.085 260.9055,375.085 C260.5315,375.085 260.2425,374.796 260.2425,374.422 Z M271.0865,370.121 L276.7475,370.121 C276.6115,368.523 275.6935,367.129 273.9425,367.129 C272.4125,367.129 271.2565,368.404 271.0865,370.121 Z M277.4615,373.878 C276.6285,374.677 275.6425,375.204 274.1465,375.204 C271.7325,375.204 269.7605,373.351 269.7605,370.631 L269.7605,370.597 C269.7605,368.064 271.5455,366.024 273.9765,366.024 C276.5775,366.024 278.0565,368.149 278.0565,370.478 C278.0565,370.835 277.7675,371.09 277.4445,371.09 L271.0865,371.09 C271.2735,372.994 272.6165,374.065 274.1805,374.065 C275.2685,374.065 276.0675,373.64 276.7135,373.045 C276.8155,372.96 276.9345,372.892 277.0875,372.892 C277.4105,372.892 277.6655,373.147 277.6655,373.453 C277.6655,373.606 277.5975,373.759 277.4615,373.878 Z M279.9585,374.422 L279.9585,366.789 C279.9585,366.432 280.2475,366.126 280.6045,366.126 C280.9785,366.126 281.2675,366.415 281.2675,366.789 L281.2675,367.741 C281.8455,366.789 282.7635,366.024 284.2765,366.024 C286.4015,366.024 287.6425,367.452 287.6425,369.543 L287.6425,374.422 C287.6425,374.796 287.3535,375.085 286.9965,375.085 C286.6225,375.085 286.3335,374.796 286.3335,374.422 L286.3335,369.866 C286.3335,368.234 285.4495,367.214 283.9025,367.214 C282.3895,367.214 281.2675,368.319 281.2675,369.968 L281.2675,374.422 C281.2675,374.796 280.9955,375.085 280.6215,375.085 C280.2475,375.085 279.9585,374.796 279.9585,374.422 Z M294.9315,374.32 L294.9315,363.695 C294.9315,363.321 295.2375,363.015 295.5945,363.015 C295.9685,363.015 296.2745,363.321 296.2745,363.695 L296.2745,373.759 L302.4455,373.759 C302.7855,373.759 303.0575,374.048 303.0575,374.388 C303.0575,374.728 302.7855,375 302.4455,375 L295.5945,375 C295.2375,375 294.9315,374.694 294.9315,374.32 Z M304.8235,363.678 L304.8235,363.457 C304.8235,363.032 305.1635,362.76 305.5885,362.76 C306.0305,362.76 306.3705,363.032 306.3705,363.457 L306.3705,363.678 C306.3705,364.086 306.0305,364.375 305.5885,364.375 C305.1635,364.375 304.8235,364.086 304.8235,363.678 Z M304.9425,374.422 L304.9425,366.789 C304.9425,366.432 305.2315,366.126 305.5885,366.126 C305.9625,366.126 306.2515,366.415 306.2515,366.789 L306.2515,374.422 C306.2515,374.796 305.9795,375.085 305.6055,375.085 C305.2315,375.085 304.9425,374.796 304.9425,374.422 Z M309.0035,374.422 L309.0035,363.168 C309.0035,362.811 309.2925,362.505 309.6495,362.505 C310.0235,362.505 310.3125,362.811 310.3125,363.168 L310.3125,374.422 C310.3125,374.796 310.0405,375.085 309.6665,375.085 C309.2925,375.085 309.0035,374.796 309.0035,374.422 Z M312.3335,366.602 C312.3335,366.449 312.4185,366.33 312.5545,366.279 C313.2515,365.973 313.5405,365.548 313.5065,364.885 C313.1495,364.8 312.8435,364.528 312.8435,364.086 L312.8435,363.814 C312.8435,363.372 313.1835,363.015 313.6255,363.015 C314.1185,363.015 314.4585,363.406 314.4585,363.95 L314.4585,364.273 C314.4585,365.31 314.2375,365.922 313.8465,366.313 C313.4895,366.687 312.9625,366.942 312.6905,366.942 C312.4695,366.942 312.3335,366.806 312.3335,366.602 Z M112.235,398.17 C110.501,398.17 109.056,397.626 107.73,396.572 C107.577,396.47 107.475,396.283 107.475,396.062 C107.475,395.688 107.764,395.399 108.121,395.399 C108.291,395.399 108.444,395.467 108.529,395.552 C109.651,396.504 110.773,396.963 112.286,396.963 C113.884,396.963 114.938,396.113 114.938,394.94 L114.938,394.906 C114.938,393.801 114.343,393.172 111.844,392.645 C109.107,392.05 107.849,391.166 107.849,389.211 L107.849,389.177 C107.849,387.307 109.498,385.93 111.759,385.93 C113.323,385.93 114.462,386.321 115.55,387.103 C115.686,387.205 115.839,387.392 115.839,387.647 C115.839,388.004 115.55,388.293 115.193,388.293 C115.04,388.293 114.921,388.259 114.802,388.174 C113.799,387.443 112.83,387.137 111.725,387.137 C110.178,387.137 109.192,387.987 109.192,389.058 L109.192,389.092 C109.192,390.214 109.804,390.843 112.422,391.404 C115.074,391.982 116.298,392.951 116.298,394.77 L116.298,394.804 C116.298,396.844 114.598,398.17 112.235,398.17 Z M119.186,393.121 L124.847,393.121 C124.711,391.523 123.793,390.129 122.042,390.129 C120.512,390.129 119.356,391.404 119.186,393.121 Z M125.561,396.878 C124.728,397.677 123.742,398.204 122.246,398.204 C119.832,398.204 117.86,396.351 117.86,393.631 L117.86,393.597 C117.86,391.064 119.645,389.024 122.076,389.024 C124.677,389.024 126.156,391.149 126.156,393.478 C126.156,393.835 125.867,394.09 125.544,394.09 L119.186,394.09 C119.373,395.994 120.716,397.065 122.28,397.065 C123.368,397.065 124.167,396.64 124.813,396.045 C124.915,395.96 125.034,395.892 125.187,395.892 C125.51,395.892 125.765,396.147 125.765,396.453 C125.765,396.606 125.697,396.759 125.561,396.878 Z M128.058,397.422 L128.058,386.168 C128.058,385.794 128.347,385.505 128.704,385.505 C129.078,385.505 129.367,385.794 129.367,386.168 L129.367,390.979 C130.081,389.925 131.118,389.024 132.733,389.024 C134.841,389.024 136.932,390.69 136.932,393.58 L136.932,393.614 C136.932,396.487 134.858,398.187 132.733,398.187 C131.101,398.187 130.047,397.303 129.367,396.317 L129.367,397.422 C129.367,397.779 129.095,398.085 128.721,398.085 C128.347,398.085 128.058,397.779 128.058,397.422 Z M132.495,397.014 C134.195,397.014 135.589,395.756 135.589,393.631 L135.589,393.597 C135.589,391.523 134.161,390.197 132.495,390.197 C130.863,390.197 129.316,391.574 129.316,393.58 L129.316,393.614 C129.316,395.654 130.863,397.014 132.495,397.014 Z M141.554,398.187 C139.922,398.187 138.273,397.252 138.273,395.45 L138.273,395.416 C138.273,393.563 139.803,392.577 142.03,392.577 C143.152,392.577 143.951,392.73 144.733,392.951 L144.733,392.645 C144.733,391.064 143.764,390.248 142.115,390.248 C141.231,390.248 140.483,390.452 139.837,390.741 C139.752,390.775 139.667,390.792 139.599,390.792 C139.293,390.792 139.021,390.537 139.021,390.231 C139.021,389.959 139.208,389.755 139.378,389.687 C140.245,389.313 141.129,389.092 142.251,389.092 C143.492,389.092 144.444,389.415 145.09,390.061 C145.685,390.656 145.991,391.506 145.991,392.628 L145.991,397.439 C145.991,397.813 145.719,398.085 145.362,398.085 C144.988,398.085 144.733,397.813 144.733,397.473 L144.733,396.674 C144.121,397.473 143.101,398.187 141.554,398.187 Z M141.809,397.15 C143.424,397.15 144.75,396.164 144.75,394.77 L144.75,393.92 C144.104,393.733 143.237,393.546 142.166,393.546 C140.517,393.546 139.599,394.26 139.599,395.365 L139.599,395.399 C139.599,396.504 140.619,397.15 141.809,397.15 Z M151.276,398.17 C150.12,398.17 148.845,397.745 147.893,397.065 C147.774,396.98 147.655,396.81 147.655,396.589 C147.655,396.283 147.91,396.028 148.233,396.028 C148.352,396.028 148.471,396.062 148.556,396.13 C149.457,396.742 150.392,397.065 151.344,397.065 C152.398,397.065 153.163,396.521 153.163,395.671 L153.163,395.637 C153.163,394.753 152.126,394.413 150.97,394.09 C149.593,393.699 148.063,393.223 148.063,391.608 L148.063,391.574 C148.063,390.061 149.321,389.058 151.055,389.058 C151.99,389.058 153.01,389.347 153.86,389.806 C154.03,389.908 154.183,390.095 154.183,390.35 C154.183,390.656 153.928,390.911 153.605,390.911 C153.486,390.911 153.384,390.877 153.316,390.843 C152.568,390.418 151.769,390.163 151.021,390.163 C149.984,390.163 149.321,390.707 149.321,391.438 L149.321,391.472 C149.321,392.305 150.409,392.628 151.582,392.985 C152.942,393.393 154.404,393.92 154.404,395.501 L154.404,395.535 C154.404,397.201 153.027,398.17 151.276,398.17 Z M159.196,398.153 C157.785,398.153 156.714,397.456 156.714,395.671 L156.714,390.367 L156,390.367 C155.694,390.367 155.422,390.095 155.422,389.789 C155.422,389.466 155.694,389.211 156,389.211 L156.714,389.211 L156.714,387.137 C156.714,386.78 156.986,386.474 157.36,386.474 C157.717,386.474 158.023,386.78 158.023,387.137 L158.023,389.211 L160.301,389.211 C160.624,389.211 160.896,389.483 160.896,389.789 C160.896,390.112 160.624,390.367 160.301,390.367 L158.023,390.367 L158.023,395.501 C158.023,396.572 158.618,396.963 159.502,396.963 C159.961,396.963 160.199,396.844 160.301,396.844 C160.607,396.844 160.862,397.099 160.862,397.405 C160.862,397.643 160.709,397.83 160.488,397.915 C160.114,398.068 159.706,398.153 159.196,398.153 Z M162.713,386.678 L162.713,386.457 C162.713,386.032 163.053,385.76 163.478,385.76 C163.92,385.76 164.26,386.032 164.26,386.457 L164.26,386.678 C164.26,387.086 163.92,387.375 163.478,387.375 C163.053,387.375 162.713,387.086 162.713,386.678 Z M162.832,397.422 L162.832,389.789 C162.832,389.432 163.121,389.126 163.478,389.126 C163.852,389.126 164.141,389.415 164.141,389.789 L164.141,397.422 C164.141,397.796 163.869,398.085 163.495,398.085 C163.121,398.085 162.832,397.796 162.832,397.422 Z M169.392,398.187 C167.76,398.187 166.111,397.252 166.111,395.45 L166.111,395.416 C166.111,393.563 167.641,392.577 169.868,392.577 C170.99,392.577 171.789,392.73 172.571,392.951 L172.571,392.645 C172.571,391.064 171.602,390.248 169.953,390.248 C169.069,390.248 168.321,390.452 167.675,390.741 C167.59,390.775 167.505,390.792 167.437,390.792 C167.131,390.792 166.859,390.537 166.859,390.231 C166.859,389.959 167.046,389.755 167.216,389.687 C168.083,389.313 168.967,389.092 170.089,389.092 C171.33,389.092 172.282,389.415 172.928,390.061 C173.523,390.656 173.829,391.506 173.829,392.628 L173.829,397.439 C173.829,397.813 173.557,398.085 173.2,398.085 C172.826,398.085 172.571,397.813 172.571,397.473 L172.571,396.674 C171.959,397.473 170.939,398.187 169.392,398.187 Z M169.647,397.15 C171.262,397.15 172.588,396.164 172.588,394.77 L172.588,393.92 C171.942,393.733 171.075,393.546 170.004,393.546 C168.355,393.546 167.437,394.26 167.437,395.365 L167.437,395.399 C167.437,396.504 168.457,397.15 169.647,397.15 Z M176.207,397.422 L176.207,389.789 C176.207,389.432 176.496,389.126 176.853,389.126 C177.227,389.126 177.516,389.415 177.516,389.789 L177.516,390.741 C178.094,389.789 179.012,389.024 180.525,389.024 C182.65,389.024 183.891,390.452 183.891,392.543 L183.891,397.422 C183.891,397.796 183.602,398.085 183.245,398.085 C182.871,398.085 182.582,397.796 182.582,397.422 L182.582,392.866 C182.582,391.234 181.698,390.214 180.151,390.214 C178.638,390.214 177.516,391.319 177.516,392.968 L177.516,397.422 C177.516,397.796 177.244,398.085 176.87,398.085 C176.496,398.085 176.207,397.796 176.207,397.422 Z M190.959,386.678 L190.959,386.457 C190.959,386.032 191.299,385.76 191.724,385.76 C192.166,385.76 192.506,386.032 192.506,386.457 L192.506,386.678 C192.506,387.086 192.166,387.375 191.724,387.375 C191.299,387.375 190.959,387.086 190.959,386.678 Z M191.078,397.422 L191.078,389.789 C191.078,389.432 191.367,389.126 191.724,389.126 C192.098,389.126 192.387,389.415 192.387,389.789 L192.387,397.422 C192.387,397.796 192.115,398.085 191.741,398.085 C191.367,398.085 191.078,397.796 191.078,397.422 Z M197.927,398.17 C196.771,398.17 195.496,397.745 194.544,397.065 C194.425,396.98 194.306,396.81 194.306,396.589 C194.306,396.283 194.561,396.028 194.884,396.028 C195.003,396.028 195.122,396.062 195.207,396.13 C196.108,396.742 197.043,397.065 197.995,397.065 C199.049,397.065 199.814,396.521 199.814,395.671 L199.814,395.637 C199.814,394.753 198.777,394.413 197.621,394.09 C196.244,393.699 194.714,393.223 194.714,391.608 L194.714,391.574 C194.714,390.061 195.972,389.058 197.706,389.058 C198.641,389.058 199.661,389.347 200.511,389.806 C200.681,389.908 200.834,390.095 200.834,390.35 C200.834,390.656 200.579,390.911 200.256,390.911 C200.137,390.911 200.035,390.877 199.967,390.843 C199.219,390.418 198.42,390.163 197.672,390.163 C196.635,390.163 195.972,390.707 195.972,391.438 L195.972,391.472 C195.972,392.305 197.06,392.628 198.233,392.985 C199.593,393.393 201.055,393.92 201.055,395.501 L201.055,395.535 C201.055,397.201 199.678,398.17 197.927,398.17 Z M207.766,386.678 L207.766,386.457 C207.766,386.032 208.106,385.76 208.531,385.76 C208.973,385.76 209.313,386.032 209.313,386.457 L209.313,386.678 C209.313,387.086 208.973,387.375 208.531,387.375 C208.106,387.375 207.766,387.086 207.766,386.678 Z M207.885,397.422 L207.885,389.789 C207.885,389.432 208.174,389.126 208.531,389.126 C208.905,389.126 209.194,389.415 209.194,389.789 L209.194,397.422 C209.194,397.796 208.922,398.085 208.548,398.085 C208.174,398.085 207.885,397.796 207.885,397.422 Z M211.827,397.422 L211.827,389.789 C211.827,389.432 212.116,389.126 212.473,389.126 C212.847,389.126 213.136,389.415 213.136,389.789 L213.136,390.741 C213.714,389.789 214.632,389.024 216.145,389.024 C218.27,389.024 219.511,390.452 219.511,392.543 L219.511,397.422 C219.511,397.796 219.222,398.085 218.865,398.085 C218.491,398.085 218.202,397.796 218.202,397.422 L218.202,392.866 C218.202,391.234 217.318,390.214 215.771,390.214 C214.258,390.214 213.136,391.319 213.136,392.968 L213.136,397.422 C213.136,397.796 212.864,398.085 212.49,398.085 C212.116,398.085 211.827,397.796 211.827,397.422 Z M229.52,398.153 C228.109,398.153 227.038,397.456 227.038,395.671 L227.038,390.367 L226.324,390.367 C226.018,390.367 225.746,390.095 225.746,389.789 C225.746,389.466 226.018,389.211 226.324,389.211 L227.038,389.211 L227.038,387.137 C227.038,386.78 227.31,386.474 227.684,386.474 C228.041,386.474 228.347,386.78 228.347,387.137 L228.347,389.211 L230.625,389.211 C230.948,389.211 231.22,389.483 231.22,389.789 C231.22,390.112 230.948,390.367 230.625,390.367 L228.347,390.367 L228.347,395.501 C228.347,396.572 228.942,396.963 229.826,396.963 C230.285,396.963 230.523,396.844 230.625,396.844 C230.931,396.844 231.186,397.099 231.186,397.405 C231.186,397.643 231.033,397.83 230.812,397.915 C230.438,398.068 230.03,398.153 229.52,398.153 Z M236.794,398.204 C234.159,398.204 232.238,396.13 232.238,393.648 L232.238,393.614 C232.238,391.132 234.176,389.024 236.828,389.024 C239.463,389.024 241.401,391.098 241.401,393.58 L241.401,393.614 C241.401,396.096 239.446,398.204 236.794,398.204 Z M236.828,397.031 C238.732,397.031 240.058,395.501 240.058,393.648 L240.058,393.614 C240.058,391.727 238.647,390.18 236.794,390.18 C234.89,390.18 233.581,391.727 233.581,393.58 L233.581,393.614 C233.581,395.501 234.975,397.031 236.828,397.031 Z M245.87,398.136 C245.547,398.136 245.275,397.932 245.139,397.541 L242.47,390.112 C242.436,390.01 242.385,389.874 242.385,389.755 C242.385,389.432 242.657,389.126 243.048,389.126 C243.388,389.126 243.609,389.347 243.711,389.67 L245.921,396.266 L248.148,389.653 C248.25,389.347 248.454,389.126 248.794,389.126 L248.862,389.126 C249.219,389.126 249.44,389.347 249.542,389.653 L251.752,396.266 L253.996,389.636 C254.081,389.364 254.268,389.126 254.625,389.126 C254.999,389.126 255.271,389.415 255.271,389.738 C255.271,389.857 255.22,389.993 255.186,390.095 L252.5,397.541 C252.364,397.932 252.092,398.136 251.786,398.136 L251.735,398.136 C251.395,398.136 251.14,397.932 251.021,397.541 L248.828,391.132 L246.618,397.541 C246.499,397.932 246.244,398.136 245.904,398.136 L245.87,398.136 Z M257.173,397.422 L257.173,389.789 C257.173,389.432 257.462,389.126 257.819,389.126 C258.193,389.126 258.482,389.415 258.482,389.789 L258.482,390.741 C259.06,389.789 259.978,389.024 261.491,389.024 C263.616,389.024 264.857,390.452 264.857,392.543 L264.857,397.422 C264.857,397.796 264.568,398.085 264.211,398.085 C263.837,398.085 263.548,397.796 263.548,397.422 L263.548,392.866 C263.548,391.234 262.664,390.214 261.117,390.214 C259.604,390.214 258.482,391.319 258.482,392.968 L258.482,397.422 C258.482,397.796 258.21,398.085 257.836,398.085 C257.462,398.085 257.173,397.796 257.173,397.422 Z M267.048,396.929 C267.048,396.47 267.388,396.13 267.864,396.13 C268.323,396.13 268.663,396.47 268.663,396.929 L268.663,397.269 C268.663,397.728 268.323,398.085 267.864,398.085 C267.388,398.085 267.048,397.728 267.048,397.269 L267.048,396.929 Z"/>
  </g>
</svg>
