<svg xmlns="http://www.w3.org/2000/svg" xmlns:xlink="http://www.w3.org/1999/xlink" width="240" height="180" viewBox="0 0 240 180">
  <defs>
    <rect id="1-b" width="200" height="48" x="0" y="0" rx="4"/>
    <filter id="1-a" width="108%" height="133.3%" x="-4%" y="-14.6%" filterUnits="objectBoundingBox">
      <feOffset dy="1" in="SourceAlpha" result="shadowOffsetOuter1"/>
      <feGaussianBlur in="shadowOffsetOuter1" result="shadowBlurOuter1" stdDeviation="2.5"/>
      <feColorMatrix in="shadowBlurOuter1" result="shadowMatrixOuter1" values="0 0 0 0 0   0 0 0 0 0   0 0 0 0 0  0 0 0 0.2 0"/>
      <feMorphology in="SourceAlpha" radius="1" result="shadowSpreadOuter2"/>
      <feOffset dy="3" in="shadowSpreadOuter2" result="shadowOffsetOuter2"/>
      <feGaussianBlur in="shadowOffsetOuter2" result="shadowBlurOuter2" stdDeviation=".5"/>
      <feColorMatrix in="shadowBlurOuter2" result="shadowMatrixOuter2" values="0 0 0 0 0   0 0 0 0 0   0 0 0 0 0  0 0 0 0.12 0"/>
      <feOffset dy="2" in="SourceAlpha" result="shadowOffsetOuter3"/>
      <feGaussianBlur in="shadowOffsetOuter3" result="shadowBlurOuter3" stdDeviation="1"/>
      <feColorMatrix in="shadowBlurOuter3" result="shadowMatrixOuter3" values="0 0 0 0 0   0 0 0 0 0   0 0 0 0 0  0 0 0 0.14 0"/>
      <feMerge>
        <feMergeNode in="shadowMatrixOuter1"/>
        <feMergeNode in="shadowMatrixOuter2"/>
        <feMergeNode in="shadowMatrixOuter3"/>
      </feMerge>
    </filter>
  </defs>
  <g fill="none" fill-rule="evenodd">
    <rect width="240" height="180" fill="#FFF" fill-opacity=".01" fill-rule="nonzero"/>
    <g transform="translate(4 41)">
      <path fill="#C41261" d="M1,79 L231,79 L231,1 L1,1 L1,79 Z M1,80 L0,80 L0,1 L0,0 L232,0 L232,1 L232,80 L231,80 L1,80 Z" transform="translate(0 18)"/>
      <g transform="translate(16 34)">
        <use fill="#000" filter="url(#1-a)" xlink:href="#1-b"/>
        <use fill="#FAFAFA" xlink:href="#1-b"/>
        <rect width="200" height="48" fill="#314351" rx="4"/>
        <path fill="#FFF" fill-rule="nonzero" d="M72,29.0898438 L72,19.1367188 L75.4111328,19.1367188 C76.5367895,19.1367188 77.3935517,19.3623024 77.9814453,19.8134766 C78.5693389,20.2646507 78.8632812,20.9368445 78.8632812,21.8300781 C78.8632812,22.2858096 78.7402356,22.6959617 78.4941406,23.0605469 C78.2480456,23.425132 77.8880232,23.7076813 77.4140625,23.9082031 C77.9518256,24.0540372 78.3676743,24.3286113 78.6616211,24.7319336 C78.9555679,25.1352559 79.1025391,25.6194633 79.1025391,26.1845703 C79.1025391,27.1188198 78.8029001,27.836586 78.2036133,28.3378906 C77.6043264,28.8391952 76.7464249,29.0898438 75.6298828,29.0898438 L72,29.0898438 Z M73.7294922,24.5986328 L73.7294922,27.7089844 L75.6503906,27.7089844 C76.192711,27.7089844 76.6165349,27.5745456 76.921875,27.3056641 C77.2272151,27.0367825 77.3798828,26.6630883 77.3798828,26.1845703 C77.3798828,25.1500599 76.8512423,24.6214194 75.7939453,24.5986328 L73.7294922,24.5986328 Z M73.7294922,23.3271484 L75.4248047,23.3271484 C75.9625678,23.3271484 76.3829737,23.2052421 76.6860352,22.9614258 C76.9890966,22.7176095 77.140625,22.3723981 77.140625,21.9257812 C77.140625,21.4335913 77.0004897,21.0781261 76.7202148,20.859375 C76.43994,20.6406239 76.0035837,20.53125 75.4111328,20.53125 L73.7294922,20.53125 L73.7294922,23.3271484 Z M88.8623047,19.1367188 L88.8623047,25.7880859 C88.8623047,26.8453829 88.5239292,27.6827769 87.847168,28.300293 C87.1704068,28.9178091 86.2692114,29.2265625 85.1435547,29.2265625 C84.0042261,29.2265625 83.0996127,28.9223663 82.4296875,28.3139648 C81.7597623,27.7055634 81.4248047,26.8613335 81.4248047,25.78125 L81.4248047,19.1367188 L83.1474609,19.1367188 L83.1474609,25.7949219 C83.1474609,26.4602898 83.316079,26.9684227 83.6533203,27.3193359 C83.9905616,27.6702492 84.4873014,27.8457031 85.1435547,27.8457031 C86.4742905,27.8457031 87.1396484,27.1438872 87.1396484,25.7402344 L87.1396484,19.1367188 L88.8623047,19.1367188 Z M98.6494141,20.53125 L95.5458984,20.53125 L95.5458984,29.0898438 L93.8300781,29.0898438 L93.8300781,20.53125 L90.7539062,20.53125 L90.7539062,19.1367188 L98.6494141,19.1367188 L98.6494141,20.53125 Z M108.005859,20.53125 L104.902344,20.53125 L104.902344,29.0898438 L103.186523,29.0898438 L103.186523,20.53125 L100.110352,20.53125 L100.110352,19.1367188 L108.005859,19.1367188 L108.005859,20.53125 Z M117.813477,24.3730469 C117.813477,25.3483122 117.644858,26.2039351 117.307617,26.9399414 C116.970376,27.6759477 116.488447,28.2410462 115.861816,28.6352539 C115.235186,29.0294616 114.514001,29.2265625 113.698242,29.2265625 C112.891598,29.2265625 112.172692,29.0294616 111.541504,28.6352539 C110.910316,28.2410462 110.422691,27.6793656 110.078613,26.9501953 C109.734536,26.221025 109.560221,25.3802131 109.555664,24.4277344 L109.555664,23.8671875 C109.555664,22.8964795 109.7277,22.0397173 110.071777,21.296875 C110.415855,20.5540327 110.901201,19.9855163 111.527832,19.5913086 C112.154463,19.1971009 112.873368,19 113.68457,19 C114.495772,19 115.214678,19.1948223 115.841309,19.5844727 C116.467939,19.974123 116.952147,20.5346643 117.293945,21.2661133 C117.635744,21.9975623 117.808919,22.848628 117.813477,23.8193359 L117.813477,24.3730469 Z M116.083984,23.8535156 C116.083984,22.7506455 115.87549,21.9052764 115.458496,21.3173828 C115.041502,20.7294892 114.450199,20.4355469 113.68457,20.4355469 C112.937171,20.4355469 112.352704,20.7283499 111.931152,21.3139648 C111.509601,21.8995798 111.294271,22.7278592 111.285156,23.7988281 L111.285156,24.3730469 C111.285156,25.4668023 111.498208,26.3121715 111.924316,26.9091797 C112.350425,27.5061879 112.941728,27.8046875 113.698242,27.8046875 C114.463871,27.8046875 115.052895,27.5130238 115.465332,26.9296875 C115.877769,26.3463512 116.083984,25.4941462 116.083984,24.3730469 L116.083984,23.8535156 Z M128.181641,29.0898438 L126.452148,29.0898438 L122.015625,22.0283203 L122.015625,29.0898438 L120.286133,29.0898438 L120.286133,19.1367188 L122.015625,19.1367188 L126.46582,26.2255859 L126.46582,19.1367188 L128.181641,19.1367188 L128.181641,29.0898438 Z"/>
      </g>
      <path fill="#C8226C" fill-rule="nonzero" d="M26.176,2.562 L26.176,9.408 L25,9.408 L25,0.07 L26.162,0.07 L29.62,7.07 L33.12,0.07 L34.268,0.07 L34.268,9.408 L33.092,9.408 L33.092,2.576 L29.62,9.506 L26.176,2.562 Z M37.558,2.954 L37.558,9.408 L36.494,9.408 L36.494,2.954 L37.558,2.954 Z M37.04,0.448 C37.418,0.448 37.712,0.756 37.712,1.148 C37.712,1.526 37.404,1.82 37.026,1.82 C36.648,1.82 36.354,1.526 36.354,1.134 C36.354,0.742 36.648,0.448 37.04,0.448 Z M39.7,2.954 L40.764,2.954 L40.764,3.864 C41.324,3.108 41.884,2.8 42.682,2.8 C43.27,2.8 43.802,2.996 44.18,3.332 C44.586,3.724 44.726,4.172 44.726,5.054 L44.726,9.408 L43.662,9.408 L43.662,5.292 C43.662,4.718 43.592,4.41 43.424,4.186 C43.228,3.92 42.85,3.752 42.416,3.752 C41.94,3.752 41.506,3.934 41.184,4.298 C40.876,4.634 40.764,4.942 40.764,5.474 L40.764,9.408 L39.7,9.408 L39.7,2.954 Z M53.574,1.764 L51.516,3.136 L51.516,2.072 L54.68,0 L54.68,9.408 L53.574,9.408 L53.574,1.764 Z M62.17,0.21 L59.776,3.948 C60.168,3.808 60.35,3.766 60.686,3.766 C62.24,3.766 63.444,4.984 63.444,6.566 C63.444,8.218 62.086,9.576 60.434,9.576 C58.768,9.576 57.48,8.26 57.48,6.566 C57.48,5.88 57.662,5.362 58.194,4.508 L60.868,0.21 L62.17,0.21 Z M60.49,4.718 C59.426,4.718 58.586,5.53 58.586,6.566 C58.586,7.658 59.412,8.526 60.462,8.526 C61.512,8.526 62.352,7.672 62.352,6.608 C62.352,5.558 61.526,4.718 60.49,4.718 Z M69.856,3.934 L69.856,0.07 L70.92,0.07 L70.92,9.408 L69.856,9.408 L69.856,8.302 C69.212,9.184 68.526,9.562 67.546,9.562 C65.768,9.562 64.508,8.176 64.508,6.216 C64.508,4.256 65.796,2.8 67.546,2.8 C68.498,2.8 69.226,3.15 69.856,3.934 Z M67.77,3.752 C66.496,3.752 65.628,4.76 65.628,6.23 C65.628,7.644 66.482,8.638 67.7,8.638 C68.946,8.638 69.856,7.602 69.856,6.202 C69.856,4.746 69.002,3.752 67.77,3.752 Z M73.062,2.954 L74.126,2.954 L74.126,4.13 C74.742,3.178 75.4,2.8 76.478,2.8 C78.27,2.8 79.516,4.172 79.516,6.132 C79.516,8.162 78.27,9.562 76.478,9.562 C75.974,9.562 75.512,9.45 75.064,9.226 C74.672,9.03 74.476,8.862 74.126,8.4 L74.126,12.432 L73.062,12.432 L73.062,2.954 Z M76.296,3.752 C75.008,3.752 74.126,4.774 74.126,6.286 C74.126,7.7 74.98,8.638 76.254,8.638 C77.528,8.638 78.382,7.644 78.382,6.174 C78.382,5.418 78.2,4.844 77.822,4.424 C77.444,4.004 76.87,3.752 76.296,3.752 Z M85.326,2.954 L86.39,2.954 L86.39,4.13 C87.006,3.178 87.664,2.8 88.742,2.8 C90.534,2.8 91.78,4.172 91.78,6.132 C91.78,8.162 90.534,9.562 88.742,9.562 C88.238,9.562 87.776,9.45 87.328,9.226 C86.936,9.03 86.74,8.862 86.39,8.4 L86.39,12.432 L85.326,12.432 L85.326,2.954 Z M88.56,3.752 C87.272,3.752 86.39,4.774 86.39,6.286 C86.39,7.7 87.244,8.638 88.518,8.638 C89.792,8.638 90.646,7.644 90.646,6.174 C90.646,5.418 90.464,4.844 90.086,4.424 C89.708,4.004 89.134,3.752 88.56,3.752 Z M98.262,4.018 L98.262,2.954 L99.326,2.954 L99.326,9.408 L98.262,9.408 L98.262,8.162 C97.618,9.128 96.89,9.562 95.91,9.562 C94.132,9.562 92.872,8.162 92.872,6.202 C92.872,4.228 94.16,2.8 95.938,2.8 C96.918,2.8 97.632,3.178 98.262,4.018 Z M96.092,3.752 C95.392,3.752 94.902,3.99 94.524,4.522 C94.188,4.984 93.992,5.6 93.992,6.23 C93.992,7.602 94.888,8.638 96.064,8.638 C97.282,8.638 98.276,7.504 98.276,6.118 C98.276,4.718 97.38,3.752 96.092,3.752 Z M106.298,3.934 L106.298,0.07 L107.362,0.07 L107.362,9.408 L106.298,9.408 L106.298,8.302 C105.654,9.184 104.968,9.562 103.988,9.562 C102.21,9.562 100.95,8.176 100.95,6.216 C100.95,4.256 102.238,2.8 103.988,2.8 C104.94,2.8 105.668,3.15 106.298,3.934 Z M104.212,3.752 C102.938,3.752 102.07,4.76 102.07,6.23 C102.07,7.644 102.924,8.638 104.142,8.638 C105.388,8.638 106.298,7.602 106.298,6.202 C106.298,4.746 105.444,3.752 104.212,3.752 Z M114.334,3.934 L114.334,0.07 L115.398,0.07 L115.398,9.408 L114.334,9.408 L114.334,8.302 C113.69,9.184 113.004,9.562 112.024,9.562 C110.246,9.562 108.986,8.176 108.986,6.216 C108.986,4.256 110.274,2.8 112.024,2.8 C112.976,2.8 113.704,3.15 114.334,3.934 Z M112.248,3.752 C110.974,3.752 110.106,4.76 110.106,6.23 C110.106,7.644 110.96,8.638 112.178,8.638 C113.424,8.638 114.334,7.602 114.334,6.202 C114.334,4.746 113.48,3.752 112.248,3.752 Z M118.604,2.954 L118.604,9.408 L117.54,9.408 L117.54,2.954 L118.604,2.954 Z M118.086,0.448 C118.464,0.448 118.758,0.756 118.758,1.148 C118.758,1.526 118.45,1.82 118.072,1.82 C117.694,1.82 117.4,1.526 117.4,1.134 C117.4,0.742 117.694,0.448 118.086,0.448 Z M120.746,2.954 L121.81,2.954 L121.81,3.864 C122.37,3.108 122.93,2.8 123.728,2.8 C124.316,2.8 124.848,2.996 125.226,3.332 C125.632,3.724 125.772,4.172 125.772,5.054 L125.772,9.408 L124.708,9.408 L124.708,5.292 C124.708,4.718 124.638,4.41 124.47,4.186 C124.274,3.92 123.896,3.752 123.462,3.752 C122.986,3.752 122.552,3.934 122.23,4.298 C121.922,4.634 121.81,4.942 121.81,5.474 L121.81,9.408 L120.746,9.408 L120.746,2.954 Z M132.646,4.06 L132.646,2.954 L133.71,2.954 L133.71,9.45 C133.71,10.528 133.444,11.256 132.856,11.816 C132.282,12.376 131.456,12.67 130.476,12.67 C129.272,12.67 128.32,12.278 127.62,11.494 L128.348,10.766 C128.642,11.074 128.782,11.2 128.964,11.326 C129.328,11.55 129.93,11.704 130.476,11.704 C131.148,11.704 131.792,11.466 132.156,11.074 C132.478,10.724 132.646,10.206 132.646,9.534 L132.646,8.176 C132.016,9.128 131.274,9.562 130.266,9.562 C128.558,9.562 127.284,8.12 127.284,6.202 C127.284,5.166 127.662,4.172 128.306,3.556 C128.824,3.052 129.524,2.8 130.35,2.8 C131.33,2.8 131.988,3.164 132.646,4.06 Z M130.546,3.78 C129.286,3.78 128.404,4.76 128.404,6.16 C128.404,7.546 129.3,8.582 130.518,8.582 C131.134,8.582 131.736,8.288 132.156,7.798 C132.436,7.476 132.618,6.846 132.618,6.202 C132.618,5.362 132.492,4.914 132.114,4.494 C131.722,4.06 131.12,3.78 130.546,3.78 Z M142.838,2.8 C144.742,2.8 146.1,4.214 146.1,6.202 C146.1,8.092 144.644,9.562 142.796,9.562 C140.878,9.562 139.534,8.162 139.534,6.174 C139.534,4.172 140.878,2.8 142.838,2.8 Z M142.838,3.78 C141.508,3.78 140.626,4.746 140.626,6.188 C140.626,7.616 141.508,8.582 142.824,8.582 C144.098,8.582 145.008,7.588 145.008,6.188 C145.008,4.746 144.14,3.78 142.838,3.78 Z M147.724,2.954 L148.788,2.954 L148.788,3.864 C149.348,3.108 149.908,2.8 150.706,2.8 C151.294,2.8 151.826,2.996 152.204,3.332 C152.61,3.724 152.75,4.172 152.75,5.054 L152.75,9.408 L151.686,9.408 L151.686,5.292 C151.686,4.718 151.616,4.41 151.448,4.186 C151.252,3.92 150.874,3.752 150.44,3.752 C149.964,3.752 149.53,3.934 149.208,4.298 C148.9,4.634 148.788,4.942 148.788,5.474 L148.788,9.408 L147.724,9.408 L147.724,2.954 Z M163.922,4.018 L163.922,2.954 L164.986,2.954 L164.986,9.408 L163.922,9.408 L163.922,8.162 C163.278,9.128 162.55,9.562 161.57,9.562 C159.792,9.562 158.532,8.162 158.532,6.202 C158.532,4.228 159.82,2.8 161.598,2.8 C162.578,2.8 163.292,3.178 163.922,4.018 Z M161.752,3.752 C161.052,3.752 160.562,3.99 160.184,4.522 C159.848,4.984 159.652,5.6 159.652,6.23 C159.652,7.602 160.548,8.638 161.724,8.638 C162.942,8.638 163.936,7.504 163.936,6.118 C163.936,4.718 163.04,3.752 161.752,3.752 Z M168.192,9.408 L167.128,9.408 L167.128,0.07 L168.192,0.07 L168.192,9.408 Z M171.398,9.408 L170.334,9.408 L170.334,0.07 L171.398,0.07 L171.398,9.408 Z M181.786,4.718 L180.722,4.718 L180.722,4.648 C180.722,4.046 180.232,3.668 179.49,3.668 C178.776,3.668 178.328,4.032 178.328,4.592 C178.328,5.152 178.608,5.362 179.77,5.684 C180.596,5.908 181.03,6.118 181.338,6.426 C181.66,6.748 181.856,7.21 181.856,7.686 C181.856,8.806 180.932,9.562 179.56,9.562 C178.09,9.562 177.264,8.876 177.152,7.574 L178.202,7.574 C178.272,8.302 178.748,8.694 179.56,8.694 C180.288,8.694 180.764,8.316 180.764,7.742 C180.764,7.182 180.4,6.902 179.294,6.622 C177.894,6.244 177.264,5.656 177.264,4.676 C177.264,3.556 178.174,2.8 179.532,2.8 C180.904,2.8 181.73,3.5 181.786,4.718 Z M184.558,2.954 L184.558,9.408 L183.494,9.408 L183.494,2.954 L184.558,2.954 Z M184.04,0.448 C184.418,0.448 184.712,0.756 184.712,1.148 C184.712,1.526 184.404,1.82 184.026,1.82 C183.648,1.82 183.354,1.526 183.354,1.134 C183.354,0.742 183.648,0.448 184.04,0.448 Z M191.53,3.934 L191.53,0.07 L192.594,0.07 L192.594,9.408 L191.53,9.408 L191.53,8.302 C190.886,9.184 190.2,9.562 189.22,9.562 C187.442,9.562 186.182,8.176 186.182,6.216 C186.182,4.256 187.47,2.8 189.22,2.8 C190.172,2.8 190.9,3.15 191.53,3.934 Z M189.444,3.752 C188.17,3.752 187.302,4.76 187.302,6.23 C187.302,7.644 188.156,8.638 189.374,8.638 C190.62,8.638 191.53,7.602 191.53,6.202 C191.53,4.746 190.676,3.752 189.444,3.752 Z M200.728,6.524 L195.352,6.524 C195.408,7.07 195.506,7.35 195.772,7.7 C196.192,8.274 196.808,8.582 197.508,8.582 C198.306,8.582 199.062,8.148 199.44,7.476 L200.378,7.826 C199.846,8.904 198.74,9.562 197.508,9.562 C195.59,9.562 194.218,8.162 194.218,6.202 C194.218,4.214 195.576,2.8 197.466,2.8 C199.342,2.8 200.742,4.214 200.742,6.104 C200.742,6.188 200.742,6.37 200.728,6.524 Z M195.366,5.74 L199.608,5.74 C199.566,5.236 199.468,4.956 199.244,4.634 C198.838,4.088 198.18,3.752 197.466,3.752 C196.752,3.752 196.108,4.088 195.73,4.648 C195.534,4.956 195.45,5.222 195.366,5.74 Z M206.328,4.718 L205.264,4.718 L205.264,4.648 C205.264,4.046 204.774,3.668 204.032,3.668 C203.318,3.668 202.87,4.032 202.87,4.592 C202.87,5.152 203.15,5.362 204.312,5.684 C205.138,5.908 205.572,6.118 205.88,6.426 C206.202,6.748 206.398,7.21 206.398,7.686 C206.398,8.806 205.474,9.562 204.102,9.562 C202.632,9.562 201.806,8.876 201.694,7.574 L202.744,7.574 C202.814,8.302 203.29,8.694 204.102,8.694 C204.83,8.694 205.306,8.316 205.306,7.742 C205.306,7.182 204.942,6.902 203.836,6.622 C202.436,6.244 201.806,5.656 201.806,4.676 C201.806,3.556 202.716,2.8 204.074,2.8 C205.446,2.8 206.272,3.5 206.328,4.718 Z"/>
      <g fill="#C41261" transform="translate(112 18)">
        <rect width="1" height="14" x="4" y="1"/>
        <rect width="9" height="1"/>
        <rect width="9" height="1" y="15"/>
      </g>
    </g>
  </g>
</svg>
