<svg xmlns="http://www.w3.org/2000/svg" width="480" height="180" viewBox="0 0 480 180">
  <g fill="none" fill-rule="evenodd">
    <rect width="480" height="180" fill="#FFF" fill-opacity=".01" fill-rule="nonzero"/>
    <g transform="translate(80 66)">
      <rect width="319" height="47" x=".5" y=".5" stroke="#A9B6BE" rx="4"/>
      <path fill="#314351" fill-rule="nonzero" d="M132,29.0898438 L132,19.1367188 L135.411133,19.1367188 C136.536789,19.1367188 137.393552,19.3623024 137.981445,19.8134766 C138.569339,20.2646507 138.863281,20.9368445 138.863281,21.8300781 C138.863281,22.2858096 138.740236,22.6959617 138.494141,23.0605469 C138.248046,23.425132 137.888023,23.7076813 137.414062,23.9082031 C137.951826,24.0540372 138.367674,24.3286113 138.661621,24.7319336 C138.955568,25.1352559 139.102539,25.6194633 139.102539,26.1845703 C139.102539,27.1188198 138.8029,27.836586 138.203613,28.3378906 C137.604326,28.8391952 136.746425,29.0898438 135.629883,29.0898438 L132,29.0898438 Z M133.729492,24.5986328 L133.729492,27.7089844 L135.650391,27.7089844 C136.192711,27.7089844 136.616535,27.5745456 136.921875,27.3056641 C137.227215,27.0367825 137.379883,26.6630883 137.379883,26.1845703 C137.379883,25.1500599 136.851242,24.6214194 135.793945,24.5986328 L133.729492,24.5986328 Z M133.729492,23.3271484 L135.424805,23.3271484 C135.962568,23.3271484 136.382974,23.2052421 136.686035,22.9614258 C136.989097,22.7176095 137.140625,22.3723981 137.140625,21.9257812 C137.140625,21.4335913 137.00049,21.0781261 136.720215,20.859375 C136.43994,20.6406239 136.003584,20.53125 135.411133,20.53125 L133.729492,20.53125 L133.729492,23.3271484 Z M148.862305,19.1367188 L148.862305,25.7880859 C148.862305,26.8453829 148.523929,27.6827769 147.847168,28.300293 C147.170407,28.9178091 146.269211,29.2265625 145.143555,29.2265625 C144.004226,29.2265625 143.099613,28.9223663 142.429688,28.3139648 C141.759762,27.7055634 141.424805,26.8613335 141.424805,25.78125 L141.424805,19.1367188 L143.147461,19.1367188 L143.147461,25.7949219 C143.147461,26.4602898 143.316079,26.9684227 143.65332,27.3193359 C143.990562,27.6702492 144.487301,27.8457031 145.143555,27.8457031 C146.474291,27.8457031 147.139648,27.1438872 147.139648,25.7402344 L147.139648,19.1367188 L148.862305,19.1367188 Z M158.649414,20.53125 L155.545898,20.53125 L155.545898,29.0898438 L153.830078,29.0898438 L153.830078,20.53125 L150.753906,20.53125 L150.753906,19.1367188 L158.649414,19.1367188 L158.649414,20.53125 Z M168.005859,20.53125 L164.902344,20.53125 L164.902344,29.0898438 L163.186523,29.0898438 L163.186523,20.53125 L160.110352,20.53125 L160.110352,19.1367188 L168.005859,19.1367188 L168.005859,20.53125 Z M177.813477,24.3730469 C177.813477,25.3483122 177.644858,26.2039351 177.307617,26.9399414 C176.970376,27.6759477 176.488447,28.2410462 175.861816,28.6352539 C175.235186,29.0294616 174.514001,29.2265625 173.698242,29.2265625 C172.891598,29.2265625 172.172692,29.0294616 171.541504,28.6352539 C170.910316,28.2410462 170.422691,27.6793656 170.078613,26.9501953 C169.734536,26.221025 169.560221,25.3802131 169.555664,24.4277344 L169.555664,23.8671875 C169.555664,22.8964795 169.7277,22.0397173 170.071777,21.296875 C170.415855,20.5540327 170.901201,19.9855163 171.527832,19.5913086 C172.154463,19.1971009 172.873368,19 173.68457,19 C174.495772,19 175.214678,19.1948223 175.841309,19.5844727 C176.467939,19.974123 176.952147,20.5346643 177.293945,21.2661133 C177.635744,21.9975623 177.808919,22.848628 177.813477,23.8193359 L177.813477,24.3730469 Z M176.083984,23.8535156 C176.083984,22.7506455 175.87549,21.9052764 175.458496,21.3173828 C175.041502,20.7294892 174.450199,20.4355469 173.68457,20.4355469 C172.937171,20.4355469 172.352704,20.7283499 171.931152,21.3139648 C171.509601,21.8995798 171.294271,22.7278592 171.285156,23.7988281 L171.285156,24.3730469 C171.285156,25.4668023 171.498208,26.3121715 171.924316,26.9091797 C172.350425,27.5061879 172.941728,27.8046875 173.698242,27.8046875 C174.463871,27.8046875 175.052895,27.5130238 175.465332,26.9296875 C175.877769,26.3463512 176.083984,25.4941462 176.083984,24.3730469 L176.083984,23.8535156 Z M188.181641,29.0898438 L186.452148,29.0898438 L182.015625,22.0283203 L182.015625,29.0898438 L180.286133,29.0898438 L180.286133,19.1367188 L182.015625,19.1367188 L186.46582,26.2255859 L186.46582,19.1367188 L188.181641,19.1367188 L188.181641,29.0898438 Z"/>
    </g>
  </g>
</svg>
