<svg xmlns="http://www.w3.org/2000/svg" xmlns:xlink="http://www.w3.org/1999/xlink" width="391" height="196" viewBox="0 0 391 196">
  <defs>
    <rect id="3-b" width="375" height="180" x="0" y="0"/>
    <filter id="3-a" width="106.7%" height="113.9%" x="-3.3%" y="-6.4%" filterUnits="objectBoundingBox">
      <feOffset dy="1" in="SourceAlpha" result="shadowOffsetOuter1"/>
      <feGaussianBlur in="shadowOffsetOuter1" result="shadowBlurOuter1" stdDeviation="4"/>
      <feColorMatrix in="shadowBlurOuter1" result="shadowMatrixOuter1" values="0 0 0 0 0   0 0 0 0 0   0 0 0 0 0  0 0 0 0.2 0"/>
      <feMorphology in="SourceAlpha" radius="1" result="shadowSpreadOuter2"/>
      <feOffset dy="3" in="shadowSpreadOuter2" result="shadowOffsetOuter2"/>
      <feGaussianBlur in="shadowOffsetOuter2" result="shadowBlurOuter2" stdDeviation="1.5"/>
      <feColorMatrix in="shadowBlurOuter2" result="shadowMatrixOuter2" values="0 0 0 0 0   0 0 0 0 0   0 0 0 0 0  0 0 0 0.12 0"/>
      <feOffset dy="3" in="SourceAlpha" result="shadowOffsetOuter3"/>
      <feGaussianBlur in="shadowOffsetOuter3" result="shadowBlurOuter3" stdDeviation="2"/>
      <feColorMatrix in="shadowBlurOuter3" result="shadowMatrixOuter3" values="0 0 0 0 0   0 0 0 0 0   0 0 0 0 0  0 0 0 0.14 0"/>
      <feMerge>
        <feMergeNode in="shadowMatrixOuter1"/>
        <feMergeNode in="shadowMatrixOuter2"/>
        <feMergeNode in="shadowMatrixOuter3"/>
      </feMerge>
    </filter>
    <rect id="3-d" width="163" height="48" x="0" y="0" rx="4"/>
    <filter id="3-c" width="109.8%" height="133.3%" x="-4.9%" y="-14.6%" filterUnits="objectBoundingBox">
      <feOffset dy="1" in="SourceAlpha" result="shadowOffsetOuter1"/>
      <feGaussianBlur in="shadowOffsetOuter1" result="shadowBlurOuter1" stdDeviation="2.5"/>
      <feColorMatrix in="shadowBlurOuter1" result="shadowMatrixOuter1" values="0 0 0 0 0   0 0 0 0 0   0 0 0 0 0  0 0 0 0.2 0"/>
      <feMorphology in="SourceAlpha" radius="1" result="shadowSpreadOuter2"/>
      <feOffset dy="3" in="shadowSpreadOuter2" result="shadowOffsetOuter2"/>
      <feGaussianBlur in="shadowOffsetOuter2" result="shadowBlurOuter2" stdDeviation=".5"/>
      <feColorMatrix in="shadowBlurOuter2" result="shadowMatrixOuter2" values="0 0 0 0 0   0 0 0 0 0   0 0 0 0 0  0 0 0 0.12 0"/>
      <feOffset dy="2" in="SourceAlpha" result="shadowOffsetOuter3"/>
      <feGaussianBlur in="shadowOffsetOuter3" result="shadowBlurOuter3" stdDeviation="1"/>
      <feColorMatrix in="shadowBlurOuter3" result="shadowMatrixOuter3" values="0 0 0 0 0   0 0 0 0 0   0 0 0 0 0  0 0 0 0.14 0"/>
      <feMerge>
        <feMergeNode in="shadowMatrixOuter1"/>
        <feMergeNode in="shadowMatrixOuter2"/>
        <feMergeNode in="shadowMatrixOuter3"/>
      </feMerge>
    </filter>
  </defs>
  <g fill="none" fill-rule="evenodd" transform="translate(8 7)">
    <rect width="375" height="180" fill="#FFF" fill-opacity=".01" fill-rule="nonzero"/>
    <use fill="#000" filter="url(#3-a)" xlink:href="#3-b"/>
    <use fill="#F7F7F7" xlink:href="#3-b"/>
    <rect width="375" height="180" fill="#F2F2F2"/>
    <g transform="translate(16 92)">
      <g transform="translate(179)">
        <use fill="#000" filter="url(#3-c)" xlink:href="#3-d"/>
        <use fill="#FAFAFA" xlink:href="#3-d"/>
        <rect width="163" height="48" fill="#314351" rx="4"/>
        <path fill="#FFF" fill-rule="nonzero" d="M54.2382812,26.6826172 L50.3828125,26.6826172 L49.5761719,29 L47.7783203,29 L51.5380859,19.046875 L53.0898438,19.046875 L56.8564453,29 L55.0517578,29 L54.2382812,26.6826172 Z M50.8681641,25.2880859 L53.7529297,25.2880859 L52.3105469,21.1591797 L50.8681641,25.2880859 Z M60.4638672,25.3017578 L60.4638672,29 L58.734375,29 L58.734375,19.046875 L62.5419922,19.046875 C63.6539769,19.046875 64.5369433,19.3362601 65.190918,19.9150391 C65.8448926,20.493818 66.171875,21.2594353 66.171875,22.2119141 C66.171875,23.1871794 65.8517285,23.9459608 65.2114258,24.4882812 C64.5711231,25.0306017 63.6744849,25.3017578 62.5214844,25.3017578 L60.4638672,25.3017578 Z M60.4638672,23.9140625 L62.5419922,23.9140625 C63.1572296,23.9140625 63.626626,23.7693699 63.9501953,23.4799805 C64.2737646,23.190591 64.4355469,22.7724637 64.4355469,22.2255859 C64.4355469,21.6878228 64.271486,21.2583024 63.9433594,20.9370117 C63.6152327,20.615721 63.1640654,20.4505209 62.5898438,20.4414062 L60.4638672,20.4414062 L60.4638672,23.9140625 Z M70.1621094,25.3017578 L70.1621094,29 L68.4326172,29 L68.4326172,19.046875 L72.2402344,19.046875 C73.3522191,19.046875 74.2351855,19.3362601 74.8891602,19.9150391 C75.5431348,20.493818 75.8701172,21.2594353 75.8701172,22.2119141 C75.8701172,23.1871794 75.5499706,23.9459608 74.909668,24.4882812 C74.2693653,25.0306017 73.3727271,25.3017578 72.2197266,25.3017578 L70.1621094,25.3017578 Z M70.1621094,23.9140625 L72.2402344,23.9140625 C72.8554718,23.9140625 73.3248682,23.7693699 73.6484375,23.4799805 C73.9720068,23.190591 74.1337891,22.7724637 74.1337891,22.2255859 C74.1337891,21.6878228 73.9697282,21.2583024 73.6416016,20.9370117 C73.3134749,20.615721 72.8623076,20.4505209 72.2880859,20.4414062 L70.1621094,20.4414062 L70.1621094,23.9140625 Z M81.7880859,25.1650391 L79.8603516,25.1650391 L79.8603516,29 L78.1308594,29 L78.1308594,19.046875 L81.6308594,19.046875 C82.7793026,19.046875 83.665687,19.3043594 84.2900391,19.8193359 C84.9143911,20.3343125 85.2265625,21.0794222 85.2265625,22.0546875 C85.2265625,22.7200554 85.0659196,23.2771787 84.7446289,23.7260742 C84.4233382,24.1749697 83.9755888,24.5201811 83.4013672,24.7617188 L85.6367188,28.9111328 L85.6367188,29 L83.7841797,29 L81.7880859,25.1650391 Z M79.8603516,23.7773438 L81.6376953,23.7773438 C82.2210316,23.7773438 82.6767562,23.6303726 83.0048828,23.3364258 C83.3330095,23.042479 83.4970703,22.640302 83.4970703,22.1298828 C83.4970703,21.596677 83.3455419,21.1842463 83.0424805,20.8925781 C82.7394191,20.60091 82.2871124,20.4505209 81.6855469,20.4414062 L79.8603516,20.4414062 L79.8603516,23.7773438 Z M95.5605469,24.2832031 C95.5605469,25.2584684 95.3919288,26.1140914 95.0546875,26.8500977 C94.7174462,27.5861039 94.2355175,28.1512025 93.6088867,28.5454102 C92.982256,28.9396179 92.2610718,29.1367188 91.4453125,29.1367188 C90.6386678,29.1367188 89.9197623,28.9396179 89.2885742,28.5454102 C88.6573862,28.1512025 88.1697608,27.5895219 87.8256836,26.8603516 C87.4816064,26.1311812 87.3072917,25.2903693 87.3027344,24.3378906 L87.3027344,23.7773438 C87.3027344,22.8066358 87.4747704,21.9498735 87.8188477,21.2070312 C88.1629249,20.464189 88.6482716,19.8956725 89.2749023,19.5014648 C89.9015331,19.1072571 90.6204387,18.9101562 91.4316406,18.9101562 C92.2428426,18.9101562 92.9617482,19.1049785 93.5883789,19.4946289 C94.2150096,19.8842793 94.699217,20.4448206 95.0410156,21.1762695 C95.3828142,21.9077185 95.5559896,22.7587842 95.5605469,23.7294922 L95.5605469,24.2832031 Z M93.8310547,23.7636719 C93.8310547,22.6608018 93.6225607,21.8154326 93.2055664,21.2275391 C92.7885721,20.6396455 92.1972695,20.3457031 91.4316406,20.3457031 C90.6842411,20.3457031 90.0997742,20.6385062 89.6782227,21.2241211 C89.2566711,21.809736 89.0413412,22.6380155 89.0322266,23.7089844 L89.0322266,24.2832031 C89.0322266,25.3769586 89.2452778,26.2223277 89.6713867,26.8193359 C90.0974956,27.4163441 90.6887983,27.7148438 91.4453125,27.7148438 C92.2109413,27.7148438 92.7999654,27.42318 93.2124023,26.8398438 C93.6248393,26.2565075 93.8310547,25.4043025 93.8310547,24.2832031 L93.8310547,23.7636719 Z M101.389648,26.8330078 L103.918945,19.046875 L105.819336,19.046875 L102.237305,29 L100.5625,29 L96.9941406,19.046875 L98.8876953,19.046875 L101.389648,26.8330078 Z M113.507812,24.5566406 L109.419922,24.5566406 L109.419922,27.6191406 L114.198242,27.6191406 L114.198242,29 L107.69043,29 L107.69043,19.046875 L114.150391,19.046875 L114.150391,20.4414062 L109.419922,20.4414062 L109.419922,23.1894531 L113.507812,23.1894531 L113.507812,24.5566406 Z"/>
      </g>
      <rect width="162" height="47" x=".5" y=".5" stroke="#A9B6BE" rx="4"/>
      <path fill="#314351" fill-rule="nonzero" d="M63.3408203,29 L63.3408203,19.046875 L66.2802734,19.046875 C67.1598351,19.046875 67.9402635,19.2428366 68.621582,19.6347656 C69.3029005,20.0266947 69.8304018,20.5826787 70.2041016,21.3027344 C70.5778013,22.0227901 70.7646484,22.8476516 70.7646484,23.7773438 L70.7646484,24.2763672 C70.7646484,25.2197313 70.576662,26.0491501 70.2006836,26.7646484 C69.8247052,27.4801468 69.2892287,28.0315736 68.5942383,28.4189453 C67.8992478,28.806317 67.1028691,29 66.2050781,29 L63.3408203,29 Z M65.0703125,20.4414062 L65.0703125,27.6191406 L66.1982422,27.6191406 C67.1051478,27.6191406 67.8012671,27.3354521 68.2866211,26.7680664 C68.7719751,26.2006808 69.0192057,25.386073 69.0283203,24.3242188 L69.0283203,23.7705078 C69.0283203,22.6904243 68.7936221,21.8655627 68.3242188,21.2958984 C67.8548154,20.7262341 67.1735071,20.4414062 66.2802734,20.4414062 L65.0703125,20.4414062 Z M79.0546875,24.5566406 L74.9667969,24.5566406 L74.9667969,27.6191406 L79.7451172,27.6191406 L79.7451172,29 L73.2373047,29 L73.2373047,19.046875 L79.6972656,19.046875 L79.6972656,20.4414062 L74.9667969,20.4414062 L74.9667969,23.1894531 L79.0546875,23.1894531 L79.0546875,24.5566406 Z M89.7988281,29 L88.0693359,29 L83.6328125,21.9384766 L83.6328125,29 L81.9033203,29 L81.9033203,19.046875 L83.6328125,19.046875 L88.0830078,26.1357422 L88.0830078,19.046875 L89.7988281,19.046875 L89.7988281,29 Z M95.6484375,23.7636719 L97.9384766,19.046875 L99.8525391,19.046875 L96.5166016,25.3359375 L96.5166016,29 L94.7802734,29 L94.7802734,25.3359375 L91.4375,19.046875 L93.3583984,19.046875 L95.6484375,23.7636719 Z"/>
    </g>
    <g fill="#C41261" transform="translate(180 83)">
      <rect width="1" height="9"/>
      <rect width="1" height="9" x="15"/>
      <rect width="14" height="1" x="1" y="4"/>
    </g>
    <path fill="#C8226C" fill-rule="nonzero" d="M81.058,66.764 L79,68.136 L79,67.072 L82.164,65 L82.164,74.408 L81.058,74.408 L81.058,66.764 Z M89.654,65.21 L87.26,68.948 C87.652,68.808 87.834,68.766 88.17,68.766 C89.724,68.766 90.928,69.984 90.928,71.566 C90.928,73.218 89.57,74.576 87.918,74.576 C86.252,74.576 84.964,73.26 84.964,71.566 C84.964,70.88 85.146,70.362 85.678,69.508 L88.352,65.21 L89.654,65.21 Z M87.974,69.718 C86.91,69.718 86.07,70.53 86.07,71.566 C86.07,72.658 86.896,73.526 87.946,73.526 C88.996,73.526 89.836,72.672 89.836,71.608 C89.836,70.558 89.01,69.718 87.974,69.718 Z M97.34,68.934 L97.34,65.07 L98.404,65.07 L98.404,74.408 L97.34,74.408 L97.34,73.302 C96.696,74.184 96.01,74.562 95.03,74.562 C93.252,74.562 91.992,73.176 91.992,71.216 C91.992,69.256 93.28,67.8 95.03,67.8 C95.982,67.8 96.71,68.15 97.34,68.934 Z M95.254,68.752 C93.98,68.752 93.112,69.76 93.112,71.23 C93.112,72.644 93.966,73.638 95.184,73.638 C96.43,73.638 97.34,72.602 97.34,71.202 C97.34,69.746 96.486,68.752 95.254,68.752 Z M100.546,67.954 L101.61,67.954 L101.61,69.13 C102.226,68.178 102.884,67.8 103.962,67.8 C105.754,67.8 107,69.172 107,71.132 C107,73.162 105.754,74.562 103.962,74.562 C103.458,74.562 102.996,74.45 102.548,74.226 C102.156,74.03 101.96,73.862 101.61,73.4 L101.61,77.432 L100.546,77.432 L100.546,67.954 Z M103.78,68.752 C102.492,68.752 101.61,69.774 101.61,71.286 C101.61,72.7 102.464,73.638 103.738,73.638 C105.012,73.638 105.866,72.644 105.866,71.174 C105.866,70.418 105.684,69.844 105.306,69.424 C104.928,69.004 104.354,68.752 103.78,68.752 Z M113.986,68.892 L113.986,74.408 L112.922,74.408 L112.922,68.892 L112.04,68.892 L112.04,67.954 L112.922,67.954 L112.922,67.086 C112.922,65.812 113.58,65.056 114.7,65.056 C114.756,65.056 114.882,65.056 114.994,65.07 L114.994,66.022 C114.224,66.106 114.014,66.33 113.986,67.086 L113.986,67.954 L114.994,67.954 L114.994,68.892 L113.986,68.892 Z M117.794,67.954 L117.794,74.408 L116.73,74.408 L116.73,67.954 L117.794,67.954 Z M117.262,65.448 C117.64,65.448 117.934,65.756 117.934,66.148 C117.934,66.526 117.64,66.82 117.262,66.82 C116.87,66.82 116.576,66.526 116.576,66.134 C116.576,65.742 116.87,65.448 117.262,65.448 Z M121.994,72.07 L120.272,74.408 L118.97,74.408 L121.35,71.202 L118.928,67.954 L120.272,67.954 L121.994,70.32 L123.758,67.954 L125.06,67.954 L122.624,71.202 L124.948,74.408 L123.646,74.408 L121.994,72.07 Z M132.172,71.524 L126.796,71.524 C126.852,72.07 126.95,72.35 127.216,72.7 C127.636,73.274 128.252,73.582 128.952,73.582 C129.75,73.582 130.506,73.148 130.884,72.476 L131.822,72.826 C131.29,73.904 130.184,74.562 128.952,74.562 C127.034,74.562 125.662,73.162 125.662,71.202 C125.662,69.214 127.02,67.8 128.91,67.8 C130.786,67.8 132.186,69.214 132.186,71.104 C132.186,71.188 132.186,71.37 132.172,71.524 Z M126.81,70.74 L131.052,70.74 C131.01,70.236 130.912,69.956 130.688,69.634 C130.282,69.088 129.624,68.752 128.91,68.752 C128.196,68.752 127.552,69.088 127.174,69.648 C126.978,69.956 126.894,70.222 126.81,70.74 Z M138.556,68.934 L138.556,65.07 L139.62,65.07 L139.62,74.408 L138.556,74.408 L138.556,73.302 C137.912,74.184 137.226,74.562 136.246,74.562 C134.468,74.562 133.208,73.176 133.208,71.216 C133.208,69.256 134.496,67.8 136.246,67.8 C137.198,67.8 137.926,68.15 138.556,68.934 Z M136.47,68.752 C135.196,68.752 134.328,69.76 134.328,71.23 C134.328,72.644 135.182,73.638 136.4,73.638 C137.646,73.638 138.556,72.602 138.556,71.202 C138.556,69.746 137.702,68.752 136.47,68.752 Z M145.962,67.954 L147.026,67.954 L147.026,69.13 C147.642,68.178 148.3,67.8 149.378,67.8 C151.17,67.8 152.416,69.172 152.416,71.132 C152.416,73.162 151.17,74.562 149.378,74.562 C148.874,74.562 148.412,74.45 147.964,74.226 C147.572,74.03 147.376,73.862 147.026,73.4 L147.026,77.432 L145.962,77.432 L145.962,67.954 Z M149.196,68.752 C147.908,68.752 147.026,69.774 147.026,71.286 C147.026,72.7 147.88,73.638 149.154,73.638 C150.428,73.638 151.282,72.644 151.282,71.174 C151.282,70.418 151.1,69.844 150.722,69.424 C150.344,69.004 149.77,68.752 149.196,68.752 Z M158.898,69.018 L158.898,67.954 L159.962,67.954 L159.962,74.408 L158.898,74.408 L158.898,73.162 C158.254,74.128 157.526,74.562 156.546,74.562 C154.768,74.562 153.508,73.162 153.508,71.202 C153.508,69.228 154.796,67.8 156.574,67.8 C157.554,67.8 158.268,68.178 158.898,69.018 Z M156.728,68.752 C156.028,68.752 155.538,68.99 155.16,69.522 C154.824,69.984 154.628,70.6 154.628,71.23 C154.628,72.602 155.524,73.638 156.7,73.638 C157.918,73.638 158.912,72.504 158.912,71.118 C158.912,69.718 158.016,68.752 156.728,68.752 Z M166.934,68.934 L166.934,65.07 L167.998,65.07 L167.998,74.408 L166.934,74.408 L166.934,73.302 C166.29,74.184 165.604,74.562 164.624,74.562 C162.846,74.562 161.586,73.176 161.586,71.216 C161.586,69.256 162.874,67.8 164.624,67.8 C165.576,67.8 166.304,68.15 166.934,68.934 Z M164.848,68.752 C163.574,68.752 162.706,69.76 162.706,71.23 C162.706,72.644 163.56,73.638 164.778,73.638 C166.024,73.638 166.934,72.602 166.934,71.202 C166.934,69.746 166.08,68.752 164.848,68.752 Z M174.97,68.934 L174.97,65.07 L176.034,65.07 L176.034,74.408 L174.97,74.408 L174.97,73.302 C174.326,74.184 173.64,74.562 172.66,74.562 C170.882,74.562 169.622,73.176 169.622,71.216 C169.622,69.256 170.91,67.8 172.66,67.8 C173.612,67.8 174.34,68.15 174.97,68.934 Z M172.884,68.752 C171.61,68.752 170.742,69.76 170.742,71.23 C170.742,72.644 171.596,73.638 172.814,73.638 C174.06,73.638 174.97,72.602 174.97,71.202 C174.97,69.746 174.116,68.752 172.884,68.752 Z M179.24,67.954 L179.24,74.408 L178.176,74.408 L178.176,67.954 L179.24,67.954 Z M178.722,65.448 C179.1,65.448 179.394,65.756 179.394,66.148 C179.394,66.526 179.086,66.82 178.708,66.82 C178.33,66.82 178.036,66.526 178.036,66.134 C178.036,65.742 178.33,65.448 178.722,65.448 Z M181.382,67.954 L182.446,67.954 L182.446,68.864 C183.006,68.108 183.566,67.8 184.364,67.8 C184.952,67.8 185.484,67.996 185.862,68.332 C186.268,68.724 186.408,69.172 186.408,70.054 L186.408,74.408 L185.344,74.408 L185.344,70.292 C185.344,69.718 185.274,69.41 185.106,69.186 C184.91,68.92 184.532,68.752 184.098,68.752 C183.622,68.752 183.188,68.934 182.866,69.298 C182.558,69.634 182.446,69.942 182.446,70.474 L182.446,74.408 L181.382,74.408 L181.382,67.954 Z M193.282,69.06 L193.282,67.954 L194.346,67.954 L194.346,74.45 C194.346,75.528 194.08,76.256 193.492,76.816 C192.918,77.376 192.092,77.67 191.112,77.67 C189.908,77.67 188.956,77.278 188.256,76.494 L188.984,75.766 C189.278,76.074 189.418,76.2 189.6,76.326 C189.964,76.55 190.566,76.704 191.112,76.704 C191.784,76.704 192.428,76.466 192.792,76.074 C193.114,75.724 193.282,75.206 193.282,74.534 L193.282,73.176 C192.652,74.128 191.91,74.562 190.902,74.562 C189.194,74.562 187.92,73.12 187.92,71.202 C187.92,70.166 188.298,69.172 188.942,68.556 C189.46,68.052 190.16,67.8 190.986,67.8 C191.966,67.8 192.624,68.164 193.282,69.06 Z M191.182,68.78 C189.922,68.78 189.04,69.76 189.04,71.16 C189.04,72.546 189.936,73.582 191.154,73.582 C191.77,73.582 192.372,73.288 192.792,72.798 C193.072,72.476 193.254,71.846 193.254,71.202 C193.254,70.362 193.128,69.914 192.75,69.494 C192.358,69.06 191.756,68.78 191.182,68.78 Z M201.752,73.302 L201.752,74.408 L200.688,74.408 L200.688,65.07 L201.752,65.07 L201.752,69.06 C202.396,68.178 203.082,67.8 204.02,67.8 C205.826,67.8 207.086,69.2 207.086,71.202 C207.086,73.176 205.84,74.562 204.076,74.562 C203.082,74.562 202.382,74.184 201.752,73.302 Z M203.88,68.752 C202.648,68.752 201.738,69.774 201.738,71.188 C201.738,72.658 202.578,73.638 203.838,73.638 C205.112,73.638 205.966,72.672 205.966,71.23 C205.966,69.788 205.098,68.752 203.88,68.752 Z M214.702,71.524 L209.326,71.524 C209.382,72.07 209.48,72.35 209.746,72.7 C210.166,73.274 210.782,73.582 211.482,73.582 C212.28,73.582 213.036,73.148 213.414,72.476 L214.352,72.826 C213.82,73.904 212.714,74.562 211.482,74.562 C209.564,74.562 208.192,73.162 208.192,71.202 C208.192,69.214 209.55,67.8 211.44,67.8 C213.316,67.8 214.716,69.214 214.716,71.104 C214.716,71.188 214.716,71.37 214.702,71.524 Z M209.34,70.74 L213.582,70.74 C213.54,70.236 213.442,69.956 213.218,69.634 C212.812,69.088 212.154,68.752 211.44,68.752 C210.726,68.752 210.082,69.088 209.704,69.648 C209.508,69.956 209.424,70.222 209.34,70.74 Z M217.39,68.892 L217.39,73.092 C217.404,73.414 217.488,73.484 217.88,73.484 L218.37,73.484 L218.37,74.408 L217.376,74.408 C216.62,74.394 216.326,74.114 216.326,73.4 L216.326,68.892 L215.43,68.892 L215.43,67.954 L216.326,67.954 L216.326,65.924 L217.39,65.924 L217.39,67.954 L218.37,67.954 L218.37,68.892 L217.39,68.892 Z M227.33,67.954 L228.422,67.954 L226.126,74.408 L225.16,74.408 L223.676,69.508 L222.122,74.408 L221.114,74.408 L218.902,67.954 L219.994,67.954 L221.646,72.7 L223.13,67.954 L224.18,67.954 L225.636,72.7 L227.33,67.954 Z M235.562,71.524 L230.186,71.524 C230.242,72.07 230.34,72.35 230.606,72.7 C231.026,73.274 231.642,73.582 232.342,73.582 C233.14,73.582 233.896,73.148 234.274,72.476 L235.212,72.826 C234.68,73.904 233.574,74.562 232.342,74.562 C230.424,74.562 229.052,73.162 229.052,71.202 C229.052,69.214 230.41,67.8 232.3,67.8 C234.176,67.8 235.576,69.214 235.576,71.104 C235.576,71.188 235.576,71.37 235.562,71.524 Z M230.2,70.74 L234.442,70.74 C234.4,70.236 234.302,69.956 234.078,69.634 C233.672,69.088 233.014,68.752 232.3,68.752 C231.586,68.752 230.942,69.088 230.564,69.648 C230.368,69.956 230.284,70.222 230.2,70.74 Z M243.108,71.524 L237.732,71.524 C237.788,72.07 237.886,72.35 238.152,72.7 C238.572,73.274 239.188,73.582 239.888,73.582 C240.686,73.582 241.442,73.148 241.82,72.476 L242.758,72.826 C242.226,73.904 241.12,74.562 239.888,74.562 C237.97,74.562 236.598,73.162 236.598,71.202 C236.598,69.214 237.956,67.8 239.846,67.8 C241.722,67.8 243.122,69.214 243.122,71.104 C243.122,71.188 243.122,71.37 243.108,71.524 Z M237.746,70.74 L241.988,70.74 C241.946,70.236 241.848,69.956 241.624,69.634 C241.218,69.088 240.56,68.752 239.846,68.752 C239.132,68.752 238.488,69.088 238.11,69.648 C237.914,69.956 237.83,70.222 237.746,70.74 Z M244.662,67.954 L245.726,67.954 L245.726,68.864 C246.286,68.108 246.846,67.8 247.644,67.8 C248.232,67.8 248.764,67.996 249.142,68.332 C249.548,68.724 249.688,69.172 249.688,70.054 L249.688,74.408 L248.624,74.408 L248.624,70.292 C248.624,69.718 248.554,69.41 248.386,69.186 C248.19,68.92 247.812,68.752 247.378,68.752 C246.902,68.752 246.468,68.934 246.146,69.298 C245.838,69.634 245.726,69.942 245.726,70.474 L245.726,74.408 L244.662,74.408 L244.662,67.954 Z M257.052,73.302 L257.052,74.408 L255.988,74.408 L255.988,65.07 L257.052,65.07 L257.052,69.06 C257.696,68.178 258.382,67.8 259.32,67.8 C261.126,67.8 262.386,69.2 262.386,71.202 C262.386,73.176 261.14,74.562 259.376,74.562 C258.382,74.562 257.682,74.184 257.052,73.302 Z M259.18,68.752 C257.948,68.752 257.038,69.774 257.038,71.188 C257.038,72.658 257.878,73.638 259.138,73.638 C260.412,73.638 261.266,72.672 261.266,71.23 C261.266,69.788 260.398,68.752 259.18,68.752 Z M267.762,67.954 L268.84,67.954 L268.84,72.084 C268.84,72.966 268.672,73.456 268.196,73.89 C267.72,74.324 267.062,74.562 266.334,74.562 C265.606,74.562 264.934,74.31 264.472,73.876 C264.038,73.456 263.828,72.868 263.828,72.084 L263.828,67.954 L264.892,67.954 L264.892,72.056 C264.892,72.966 265.48,73.61 266.334,73.61 C266.782,73.61 267.216,73.428 267.482,73.12 C267.692,72.868 267.762,72.602 267.762,72.084 L267.762,67.954 Z M271.934,68.892 L271.934,73.092 C271.948,73.414 272.032,73.484 272.424,73.484 L272.914,73.484 L272.914,74.408 L271.92,74.408 C271.164,74.394 270.87,74.114 270.87,73.4 L270.87,68.892 L269.974,68.892 L269.974,67.954 L270.87,67.954 L270.87,65.924 L271.934,65.924 L271.934,67.954 L272.914,67.954 L272.914,68.892 L271.934,68.892 Z M275.56,68.892 L275.56,73.092 C275.574,73.414 275.658,73.484 276.05,73.484 L276.54,73.484 L276.54,74.408 L275.546,74.408 C274.79,74.394 274.496,74.114 274.496,73.4 L274.496,68.892 L273.6,68.892 L273.6,67.954 L274.496,67.954 L274.496,65.924 L275.56,65.924 L275.56,67.954 L276.54,67.954 L276.54,68.892 L275.56,68.892 Z M280.838,67.8 C282.742,67.8 284.1,69.214 284.1,71.202 C284.1,73.092 282.644,74.562 280.796,74.562 C278.878,74.562 277.534,73.162 277.534,71.174 C277.534,69.172 278.878,67.8 280.838,67.8 Z M280.838,68.78 C279.508,68.78 278.626,69.746 278.626,71.188 C278.626,72.616 279.508,73.582 280.824,73.582 C282.098,73.582 283.008,72.588 283.008,71.188 C283.008,69.746 282.14,68.78 280.838,68.78 Z M285.724,67.954 L286.788,67.954 L286.788,68.864 C287.348,68.108 287.908,67.8 288.706,67.8 C289.294,67.8 289.826,67.996 290.204,68.332 C290.61,68.724 290.75,69.172 290.75,70.054 L290.75,74.408 L289.686,74.408 L289.686,70.292 C289.686,69.718 289.616,69.41 289.448,69.186 C289.252,68.92 288.874,68.752 288.44,68.752 C287.964,68.752 287.53,68.934 287.208,69.298 C286.9,69.634 286.788,69.942 286.788,70.474 L286.788,74.408 L285.724,74.408 L285.724,67.954 Z M296.896,69.718 L295.832,69.718 L295.832,69.648 C295.832,69.046 295.342,68.668 294.6,68.668 C293.886,68.668 293.438,69.032 293.438,69.592 C293.438,70.152 293.718,70.362 294.88,70.684 C295.706,70.908 296.14,71.118 296.448,71.426 C296.77,71.748 296.966,72.21 296.966,72.686 C296.966,73.806 296.042,74.562 294.67,74.562 C293.2,74.562 292.374,73.876 292.262,72.574 L293.312,72.574 C293.382,73.302 293.858,73.694 294.67,73.694 C295.398,73.694 295.874,73.316 295.874,72.742 C295.874,72.182 295.51,71.902 294.404,71.622 C293.004,71.244 292.374,70.656 292.374,69.676 C292.374,68.556 293.284,67.8 294.642,67.8 C296.014,67.8 296.84,68.5 296.896,69.718 Z"/>
  </g>
</svg>
