<svg xmlns="http://www.w3.org/2000/svg" xmlns:xlink="http://www.w3.org/1999/xlink" width="391" height="196" viewBox="0 0 391 196">
  <defs>
    <rect id="4-b" width="375" height="180" x="0" y="0"/>
    <filter id="4-a" width="106.7%" height="113.9%" x="-3.3%" y="-6.4%" filterUnits="objectBoundingBox">
      <feOffset dy="1" in="SourceAlpha" result="shadowOffsetOuter1"/>
      <feGaussianBlur in="shadowOffsetOuter1" result="shadowBlurOuter1" stdDeviation="4"/>
      <feColorMatrix in="shadowBlurOuter1" result="shadowMatrixOuter1" values="0 0 0 0 0   0 0 0 0 0   0 0 0 0 0  0 0 0 0.2 0"/>
      <feMorphology in="SourceAlpha" radius="1" result="shadowSpreadOuter2"/>
      <feOffset dy="3" in="shadowSpreadOuter2" result="shadowOffsetOuter2"/>
      <feGaussianBlur in="shadowOffsetOuter2" result="shadowBlurOuter2" stdDeviation="1.5"/>
      <feColorMatrix in="shadowBlurOuter2" result="shadowMatrixOuter2" values="0 0 0 0 0   0 0 0 0 0   0 0 0 0 0  0 0 0 0.12 0"/>
      <feOffset dy="3" in="SourceAlpha" result="shadowOffsetOuter3"/>
      <feGaussianBlur in="shadowOffsetOuter3" result="shadowBlurOuter3" stdDeviation="2"/>
      <feColorMatrix in="shadowBlurOuter3" result="shadowMatrixOuter3" values="0 0 0 0 0   0 0 0 0 0   0 0 0 0 0  0 0 0 0.14 0"/>
      <feMerge>
        <feMergeNode in="shadowMatrixOuter1"/>
        <feMergeNode in="shadowMatrixOuter2"/>
        <feMergeNode in="shadowMatrixOuter3"/>
      </feMerge>
    </filter>
    <rect id="4-d" width="163" height="48" x="0" y="0" rx="4"/>
    <filter id="4-c" width="109.8%" height="133.3%" x="-4.9%" y="-14.6%" filterUnits="objectBoundingBox">
      <feOffset dy="1" in="SourceAlpha" result="shadowOffsetOuter1"/>
      <feGaussianBlur in="shadowOffsetOuter1" result="shadowBlurOuter1" stdDeviation="2.5"/>
      <feColorMatrix in="shadowBlurOuter1" result="shadowMatrixOuter1" values="0 0 0 0 0   0 0 0 0 0   0 0 0 0 0  0 0 0 0.2 0"/>
      <feMorphology in="SourceAlpha" radius="1" result="shadowSpreadOuter2"/>
      <feOffset dy="3" in="shadowSpreadOuter2" result="shadowOffsetOuter2"/>
      <feGaussianBlur in="shadowOffsetOuter2" result="shadowBlurOuter2" stdDeviation=".5"/>
      <feColorMatrix in="shadowBlurOuter2" result="shadowMatrixOuter2" values="0 0 0 0 0   0 0 0 0 0   0 0 0 0 0  0 0 0 0.12 0"/>
      <feOffset dy="2" in="SourceAlpha" result="shadowOffsetOuter3"/>
      <feGaussianBlur in="shadowOffsetOuter3" result="shadowBlurOuter3" stdDeviation="1"/>
      <feColorMatrix in="shadowBlurOuter3" result="shadowMatrixOuter3" values="0 0 0 0 0   0 0 0 0 0   0 0 0 0 0  0 0 0 0.14 0"/>
      <feMerge>
        <feMergeNode in="shadowMatrixOuter1"/>
        <feMergeNode in="shadowMatrixOuter2"/>
        <feMergeNode in="shadowMatrixOuter3"/>
      </feMerge>
    </filter>
  </defs>
  <g fill="none" fill-rule="evenodd" transform="translate(8 7)">
    <rect width="375" height="180" fill="#FFF" fill-opacity=".01" fill-rule="nonzero"/>
    <use fill="#000" filter="url(#4-a)" xlink:href="#4-b"/>
    <use fill="#F7F7F7" xlink:href="#4-b"/>
    <rect width="375" height="180" fill="#F2F2F2"/>
    <g transform="translate(16 66)">
      <g transform="translate(179)">
        <use fill="#000" filter="url(#4-c)" xlink:href="#4-d"/>
        <use fill="#FAFAFA" xlink:href="#4-d"/>
        <rect width="163" height="48" fill="#314351" rx="4"/>
        <path fill="#FFF" fill-rule="nonzero" d="M54.2382812,26.6826172 L50.3828125,26.6826172 L49.5761719,29 L47.7783203,29 L51.5380859,19.046875 L53.0898438,19.046875 L56.8564453,29 L55.0517578,29 L54.2382812,26.6826172 Z M50.8681641,25.2880859 L53.7529297,25.2880859 L52.3105469,21.1591797 L50.8681641,25.2880859 Z M60.4638672,25.3017578 L60.4638672,29 L58.734375,29 L58.734375,19.046875 L62.5419922,19.046875 C63.6539769,19.046875 64.5369433,19.3362601 65.190918,19.9150391 C65.8448926,20.493818 66.171875,21.2594353 66.171875,22.2119141 C66.171875,23.1871794 65.8517285,23.9459608 65.2114258,24.4882812 C64.5711231,25.0306017 63.6744849,25.3017578 62.5214844,25.3017578 L60.4638672,25.3017578 Z M60.4638672,23.9140625 L62.5419922,23.9140625 C63.1572296,23.9140625 63.626626,23.7693699 63.9501953,23.4799805 C64.2737646,23.190591 64.4355469,22.7724637 64.4355469,22.2255859 C64.4355469,21.6878228 64.271486,21.2583024 63.9433594,20.9370117 C63.6152327,20.615721 63.1640654,20.4505209 62.5898438,20.4414062 L60.4638672,20.4414062 L60.4638672,23.9140625 Z M70.1621094,25.3017578 L70.1621094,29 L68.4326172,29 L68.4326172,19.046875 L72.2402344,19.046875 C73.3522191,19.046875 74.2351855,19.3362601 74.8891602,19.9150391 C75.5431348,20.493818 75.8701172,21.2594353 75.8701172,22.2119141 C75.8701172,23.1871794 75.5499706,23.9459608 74.909668,24.4882812 C74.2693653,25.0306017 73.3727271,25.3017578 72.2197266,25.3017578 L70.1621094,25.3017578 Z M70.1621094,23.9140625 L72.2402344,23.9140625 C72.8554718,23.9140625 73.3248682,23.7693699 73.6484375,23.4799805 C73.9720068,23.190591 74.1337891,22.7724637 74.1337891,22.2255859 C74.1337891,21.6878228 73.9697282,21.2583024 73.6416016,20.9370117 C73.3134749,20.615721 72.8623076,20.4505209 72.2880859,20.4414062 L70.1621094,20.4414062 L70.1621094,23.9140625 Z M81.7880859,25.1650391 L79.8603516,25.1650391 L79.8603516,29 L78.1308594,29 L78.1308594,19.046875 L81.6308594,19.046875 C82.7793026,19.046875 83.665687,19.3043594 84.2900391,19.8193359 C84.9143911,20.3343125 85.2265625,21.0794222 85.2265625,22.0546875 C85.2265625,22.7200554 85.0659196,23.2771787 84.7446289,23.7260742 C84.4233382,24.1749697 83.9755888,24.5201811 83.4013672,24.7617188 L85.6367188,28.9111328 L85.6367188,29 L83.7841797,29 L81.7880859,25.1650391 Z M79.8603516,23.7773438 L81.6376953,23.7773438 C82.2210316,23.7773438 82.6767562,23.6303726 83.0048828,23.3364258 C83.3330095,23.042479 83.4970703,22.640302 83.4970703,22.1298828 C83.4970703,21.596677 83.3455419,21.1842463 83.0424805,20.8925781 C82.7394191,20.60091 82.2871124,20.4505209 81.6855469,20.4414062 L79.8603516,20.4414062 L79.8603516,23.7773438 Z M95.5605469,24.2832031 C95.5605469,25.2584684 95.3919288,26.1140914 95.0546875,26.8500977 C94.7174462,27.5861039 94.2355175,28.1512025 93.6088867,28.5454102 C92.982256,28.9396179 92.2610718,29.1367188 91.4453125,29.1367188 C90.6386678,29.1367188 89.9197623,28.9396179 89.2885742,28.5454102 C88.6573862,28.1512025 88.1697608,27.5895219 87.8256836,26.8603516 C87.4816064,26.1311812 87.3072917,25.2903693 87.3027344,24.3378906 L87.3027344,23.7773438 C87.3027344,22.8066358 87.4747704,21.9498735 87.8188477,21.2070312 C88.1629249,20.464189 88.6482716,19.8956725 89.2749023,19.5014648 C89.9015331,19.1072571 90.6204387,18.9101562 91.4316406,18.9101562 C92.2428426,18.9101562 92.9617482,19.1049785 93.5883789,19.4946289 C94.2150096,19.8842793 94.699217,20.4448206 95.0410156,21.1762695 C95.3828142,21.9077185 95.5559896,22.7587842 95.5605469,23.7294922 L95.5605469,24.2832031 Z M93.8310547,23.7636719 C93.8310547,22.6608018 93.6225607,21.8154326 93.2055664,21.2275391 C92.7885721,20.6396455 92.1972695,20.3457031 91.4316406,20.3457031 C90.6842411,20.3457031 90.0997742,20.6385062 89.6782227,21.2241211 C89.2566711,21.809736 89.0413412,22.6380155 89.0322266,23.7089844 L89.0322266,24.2832031 C89.0322266,25.3769586 89.2452778,26.2223277 89.6713867,26.8193359 C90.0974956,27.4163441 90.6887983,27.7148438 91.4453125,27.7148438 C92.2109413,27.7148438 92.7999654,27.42318 93.2124023,26.8398438 C93.6248393,26.2565075 93.8310547,25.4043025 93.8310547,24.2832031 L93.8310547,23.7636719 Z M101.389648,26.8330078 L103.918945,19.046875 L105.819336,19.046875 L102.237305,29 L100.5625,29 L96.9941406,19.046875 L98.8876953,19.046875 L101.389648,26.8330078 Z M113.507812,24.5566406 L109.419922,24.5566406 L109.419922,27.6191406 L114.198242,27.6191406 L114.198242,29 L107.69043,29 L107.69043,19.046875 L114.150391,19.046875 L114.150391,20.4414062 L109.419922,20.4414062 L109.419922,23.1894531 L113.507812,23.1894531 L113.507812,24.5566406 Z"/>
      </g>
      <rect width="162" height="47" x=".5" y=".5" stroke="#A9B6BE" rx="4"/>
      <path fill="#314351" fill-rule="nonzero" d="M63.3408203,29 L63.3408203,19.046875 L66.2802734,19.046875 C67.1598351,19.046875 67.9402635,19.2428366 68.621582,19.6347656 C69.3029005,20.0266947 69.8304018,20.5826787 70.2041016,21.3027344 C70.5778013,22.0227901 70.7646484,22.8476516 70.7646484,23.7773438 L70.7646484,24.2763672 C70.7646484,25.2197313 70.576662,26.0491501 70.2006836,26.7646484 C69.8247052,27.4801468 69.2892287,28.0315736 68.5942383,28.4189453 C67.8992478,28.806317 67.1028691,29 66.2050781,29 L63.3408203,29 Z M65.0703125,20.4414062 L65.0703125,27.6191406 L66.1982422,27.6191406 C67.1051478,27.6191406 67.8012671,27.3354521 68.2866211,26.7680664 C68.7719751,26.2006808 69.0192057,25.386073 69.0283203,24.3242188 L69.0283203,23.7705078 C69.0283203,22.6904243 68.7936221,21.8655627 68.3242188,21.2958984 C67.8548154,20.7262341 67.1735071,20.4414062 66.2802734,20.4414062 L65.0703125,20.4414062 Z M79.0546875,24.5566406 L74.9667969,24.5566406 L74.9667969,27.6191406 L79.7451172,27.6191406 L79.7451172,29 L73.2373047,29 L73.2373047,19.046875 L79.6972656,19.046875 L79.6972656,20.4414062 L74.9667969,20.4414062 L74.9667969,23.1894531 L79.0546875,23.1894531 L79.0546875,24.5566406 Z M89.7988281,29 L88.0693359,29 L83.6328125,21.9384766 L83.6328125,29 L81.9033203,29 L81.9033203,19.046875 L83.6328125,19.046875 L88.0830078,26.1357422 L88.0830078,19.046875 L89.7988281,19.046875 L89.7988281,29 Z M95.6484375,23.7636719 L97.9384766,19.046875 L99.8525391,19.046875 L96.5166016,25.3359375 L96.5166016,29 L94.7802734,29 L94.7802734,25.3359375 L91.4375,19.046875 L93.3583984,19.046875 L95.6484375,23.7636719 Z"/>
    </g>
  </g>
</svg>
