<svg xmlns="http://www.w3.org/2000/svg" xmlns:xlink="http://www.w3.org/1999/xlink" width="391" height="196" viewBox="0 0 391 196">
  <defs>
    <rect id="5-b" width="375" height="180" x="0" y="0"/>
    <filter id="5-a" width="106.7%" height="113.9%" x="-3.3%" y="-6.4%" filterUnits="objectBoundingBox">
      <feOffset dy="1" in="SourceAlpha" result="shadowOffsetOuter1"/>
      <feGaussianBlur in="shadowOffsetOuter1" result="shadowBlurOuter1" stdDeviation="4"/>
      <feColorMatrix in="shadowBlurOuter1" result="shadowMatrixOuter1" values="0 0 0 0 0   0 0 0 0 0   0 0 0 0 0  0 0 0 0.2 0"/>
      <feMorphology in="SourceAlpha" radius="1" result="shadowSpreadOuter2"/>
      <feOffset dy="3" in="shadowSpreadOuter2" result="shadowOffsetOuter2"/>
      <feGaussianBlur in="shadowOffsetOuter2" result="shadowBlurOuter2" stdDeviation="1.5"/>
      <feColorMatrix in="shadowBlurOuter2" result="shadowMatrixOuter2" values="0 0 0 0 0   0 0 0 0 0   0 0 0 0 0  0 0 0 0.12 0"/>
      <feOffset dy="3" in="SourceAlpha" result="shadowOffsetOuter3"/>
      <feGaussianBlur in="shadowOffsetOuter3" result="shadowBlurOuter3" stdDeviation="2"/>
      <feColorMatrix in="shadowBlurOuter3" result="shadowMatrixOuter3" values="0 0 0 0 0   0 0 0 0 0   0 0 0 0 0  0 0 0 0.14 0"/>
      <feMerge>
        <feMergeNode in="shadowMatrixOuter1"/>
        <feMergeNode in="shadowMatrixOuter2"/>
        <feMergeNode in="shadowMatrixOuter3"/>
      </feMerge>
    </filter>
    <rect id="5-d" width="344" height="48" x="0" y="0" rx="4"/>
    <filter id="5-c" width="104.7%" height="133.3%" x="-2.3%" y="-14.6%" filterUnits="objectBoundingBox">
      <feOffset dy="1" in="SourceAlpha" result="shadowOffsetOuter1"/>
      <feGaussianBlur in="shadowOffsetOuter1" result="shadowBlurOuter1" stdDeviation="2.5"/>
      <feColorMatrix in="shadowBlurOuter1" result="shadowMatrixOuter1" values="0 0 0 0 0   0 0 0 0 0   0 0 0 0 0  0 0 0 0.2 0"/>
      <feMorphology in="SourceAlpha" radius="1" result="shadowSpreadOuter2"/>
      <feOffset dy="3" in="shadowSpreadOuter2" result="shadowOffsetOuter2"/>
      <feGaussianBlur in="shadowOffsetOuter2" result="shadowBlurOuter2" stdDeviation=".5"/>
      <feColorMatrix in="shadowBlurOuter2" result="shadowMatrixOuter2" values="0 0 0 0 0   0 0 0 0 0   0 0 0 0 0  0 0 0 0.12 0"/>
      <feOffset dy="2" in="SourceAlpha" result="shadowOffsetOuter3"/>
      <feGaussianBlur in="shadowOffsetOuter3" result="shadowBlurOuter3" stdDeviation="1"/>
      <feColorMatrix in="shadowBlurOuter3" result="shadowMatrixOuter3" values="0 0 0 0 0   0 0 0 0 0   0 0 0 0 0  0 0 0 0.14 0"/>
      <feMerge>
        <feMergeNode in="shadowMatrixOuter1"/>
        <feMergeNode in="shadowMatrixOuter2"/>
        <feMergeNode in="shadowMatrixOuter3"/>
      </feMerge>
    </filter>
  </defs>
  <g fill="none" fill-rule="evenodd" transform="translate(8 7)">
    <rect width="375" height="180" fill="#FFF" fill-opacity=".01" fill-rule="nonzero"/>
    <use fill="#000" filter="url(#5-a)" xlink:href="#5-b"/>
    <use fill="#F7F7F7" xlink:href="#5-b"/>
    <rect width="375" height="180" fill="#F2F2F2"/>
    <g transform="translate(16 28)">
      <g transform="translate(0 64)">
        <use fill="#000" filter="url(#5-c)" xlink:href="#5-d"/>
        <use fill="#FAFAFA" xlink:href="#5-d"/>
        <rect width="344" height="48" fill="#314351" rx="4"/>
        <path fill="#FFF" fill-rule="nonzero" d="M145.459961,26.7724609 L141.604492,26.7724609 L140.797852,29.0898438 L139,29.0898438 L142.759766,19.1367188 L144.311523,19.1367188 L148.078125,29.0898438 L146.273438,29.0898438 L145.459961,26.7724609 Z M142.089844,25.3779297 L144.974609,25.3779297 L143.532227,21.2490234 L142.089844,25.3779297 Z M151.685547,25.3916016 L151.685547,29.0898438 L149.956055,29.0898438 L149.956055,19.1367188 L153.763672,19.1367188 C154.875657,19.1367188 155.758623,19.4261039 156.412598,20.0048828 C157.066572,20.5836617 157.393555,21.3492791 157.393555,22.3017578 C157.393555,23.2770231 157.073408,24.0358046 156.433105,24.578125 C155.792803,25.1204454 154.896165,25.3916016 153.743164,25.3916016 L151.685547,25.3916016 Z M151.685547,24.0039062 L153.763672,24.0039062 C154.378909,24.0039062 154.848306,23.8592137 155.171875,23.5698242 C155.495444,23.2804348 155.657227,22.8623074 155.657227,22.3154297 C155.657227,21.7776666 155.493166,21.3481461 155.165039,21.0268555 C154.836912,20.7055648 154.385745,20.5403646 153.811523,20.53125 L151.685547,20.53125 L151.685547,24.0039062 Z M161.383789,25.3916016 L161.383789,29.0898438 L159.654297,29.0898438 L159.654297,19.1367188 L163.461914,19.1367188 C164.573899,19.1367188 165.456865,19.4261039 166.11084,20.0048828 C166.764814,20.5836617 167.091797,21.3492791 167.091797,22.3017578 C167.091797,23.2770231 166.77165,24.0358046 166.131348,24.578125 C165.491045,25.1204454 164.594407,25.3916016 163.441406,25.3916016 L161.383789,25.3916016 Z M161.383789,24.0039062 L163.461914,24.0039062 C164.077152,24.0039062 164.546548,23.8592137 164.870117,23.5698242 C165.193687,23.2804348 165.355469,22.8623074 165.355469,22.3154297 C165.355469,21.7776666 165.191408,21.3481461 164.863281,21.0268555 C164.535155,20.7055648 164.083987,20.5403646 163.509766,20.53125 L161.383789,20.53125 L161.383789,24.0039062 Z M173.009766,25.2548828 L171.082031,25.2548828 L171.082031,29.0898438 L169.352539,29.0898438 L169.352539,19.1367188 L172.852539,19.1367188 C174.000982,19.1367188 174.887367,19.3942032 175.511719,19.9091797 C176.136071,20.4241562 176.448242,21.169266 176.448242,22.1445312 C176.448242,22.8098992 176.287599,23.3670225 175.966309,23.815918 C175.645018,24.2648134 175.197268,24.6100248 174.623047,24.8515625 L176.858398,29.0009766 L176.858398,29.0898438 L175.005859,29.0898438 L173.009766,25.2548828 Z M171.082031,23.8671875 L172.859375,23.8671875 C173.442711,23.8671875 173.898436,23.7202163 174.226562,23.4262695 C174.554689,23.1323227 174.71875,22.7301458 174.71875,22.2197266 C174.71875,21.6865208 174.567222,21.27409 174.26416,20.9824219 C173.961099,20.6907537 173.508792,20.5403646 172.907227,20.53125 L171.082031,20.53125 L171.082031,23.8671875 Z M186.782227,24.3730469 C186.782227,25.3483122 186.613608,26.2039351 186.276367,26.9399414 C185.939126,27.6759477 185.457197,28.2410462 184.830566,28.6352539 C184.203936,29.0294616 183.482751,29.2265625 182.666992,29.2265625 C181.860348,29.2265625 181.141442,29.0294616 180.510254,28.6352539 C179.879066,28.2410462 179.391441,27.6793656 179.047363,26.9501953 C178.703286,26.221025 178.528971,25.3802131 178.524414,24.4277344 L178.524414,23.8671875 C178.524414,22.8964795 178.69645,22.0397173 179.040527,21.296875 C179.384605,20.5540327 179.869951,19.9855163 180.496582,19.5913086 C181.123213,19.1971009 181.842118,19 182.65332,19 C183.464522,19 184.183428,19.1948223 184.810059,19.5844727 C185.436689,19.974123 185.920897,20.5346643 186.262695,21.2661133 C186.604494,21.9975623 186.777669,22.848628 186.782227,23.8193359 L186.782227,24.3730469 Z M185.052734,23.8535156 C185.052734,22.7506455 184.84424,21.9052764 184.427246,21.3173828 C184.010252,20.7294892 183.418949,20.4355469 182.65332,20.4355469 C181.905921,20.4355469 181.321454,20.7283499 180.899902,21.3139648 C180.478351,21.8995798 180.263021,22.7278592 180.253906,23.7988281 L180.253906,24.3730469 C180.253906,25.4668023 180.466958,26.3121715 180.893066,26.9091797 C181.319175,27.5061879 181.910478,27.8046875 182.666992,27.8046875 C183.432621,27.8046875 184.021645,27.5130238 184.434082,26.9296875 C184.846519,26.3463512 185.052734,25.4941462 185.052734,24.3730469 L185.052734,23.8535156 Z M192.611328,26.9228516 L195.140625,19.1367188 L197.041016,19.1367188 L193.458984,29.0898438 L191.78418,29.0898438 L188.21582,19.1367188 L190.109375,19.1367188 L192.611328,26.9228516 Z M204.729492,24.6464844 L200.641602,24.6464844 L200.641602,27.7089844 L205.419922,27.7089844 L205.419922,29.0898438 L198.912109,29.0898438 L198.912109,19.1367188 L205.37207,19.1367188 L205.37207,20.53125 L200.641602,20.53125 L200.641602,23.2792969 L204.729492,23.2792969 L204.729492,24.6464844 Z"/>
      </g>
      <g transform="translate(2)">
        <rect width="340" height="47" x=".5" y=".5" stroke="#A9B6BE" rx="4"/>
        <path fill="#314351" fill-rule="nonzero" d="M152.34082,29 L152.34082,19.046875 L155.280273,19.046875 C156.159835,19.046875 156.940264,19.2428366 157.621582,19.6347656 C158.302901,20.0266947 158.830402,20.5826787 159.204102,21.3027344 C159.577801,22.0227901 159.764648,22.8476516 159.764648,23.7773438 L159.764648,24.2763672 C159.764648,25.2197313 159.576662,26.0491501 159.200684,26.7646484 C158.824705,27.4801468 158.289229,28.0315736 157.594238,28.4189453 C156.899248,28.806317 156.102869,29 155.205078,29 L152.34082,29 Z M154.070312,20.4414062 L154.070312,27.6191406 L155.198242,27.6191406 C156.105148,27.6191406 156.801267,27.3354521 157.286621,26.7680664 C157.771975,26.2006808 158.019206,25.386073 158.02832,24.3242188 L158.02832,23.7705078 C158.02832,22.6904243 157.793622,21.8655627 157.324219,21.2958984 C156.854815,20.7262341 156.173507,20.4414062 155.280273,20.4414062 L154.070312,20.4414062 Z M168.054688,24.5566406 L163.966797,24.5566406 L163.966797,27.6191406 L168.745117,27.6191406 L168.745117,29 L162.237305,29 L162.237305,19.046875 L168.697266,19.046875 L168.697266,20.4414062 L163.966797,20.4414062 L163.966797,23.1894531 L168.054688,23.1894531 L168.054688,24.5566406 Z M178.798828,29 L177.069336,29 L172.632812,21.9384766 L172.632812,29 L170.90332,29 L170.90332,19.046875 L172.632812,19.046875 L177.083008,26.1357422 L177.083008,19.046875 L178.798828,19.046875 L178.798828,29 Z M184.648438,23.7636719 L186.938477,19.046875 L188.852539,19.046875 L185.516602,25.3359375 L185.516602,29 L183.780273,29 L183.780273,25.3359375 L180.4375,19.046875 L182.358398,19.046875 L184.648438,23.7636719 Z"/>
      </g>
    </g>
  </g>
</svg>
