<svg xmlns="http://www.w3.org/2000/svg" xmlns:xlink="http://www.w3.org/1999/xlink" width="391" height="196" viewBox="0 0 391 196">
  <defs>
    <rect id="6-b" width="375" height="180" x="0" y="0"/>
    <filter id="6-a" width="106.7%" height="113.9%" x="-3.3%" y="-6.4%" filterUnits="objectBoundingBox">
      <feOffset dy="1" in="SourceAlpha" result="shadowOffsetOuter1"/>
      <feGaussianBlur in="shadowOffsetOuter1" result="shadowBlurOuter1" stdDeviation="4"/>
      <feColorMatrix in="shadowBlurOuter1" result="shadowMatrixOuter1" values="0 0 0 0 0   0 0 0 0 0   0 0 0 0 0  0 0 0 0.2 0"/>
      <feMorphology in="SourceAlpha" radius="1" result="shadowSpreadOuter2"/>
      <feOffset dy="3" in="shadowSpreadOuter2" result="shadowOffsetOuter2"/>
      <feGaussianBlur in="shadowOffsetOuter2" result="shadowBlurOuter2" stdDeviation="1.5"/>
      <feColorMatrix in="shadowBlurOuter2" result="shadowMatrixOuter2" values="0 0 0 0 0   0 0 0 0 0   0 0 0 0 0  0 0 0 0.12 0"/>
      <feOffset dy="3" in="SourceAlpha" result="shadowOffsetOuter3"/>
      <feGaussianBlur in="shadowOffsetOuter3" result="shadowBlurOuter3" stdDeviation="2"/>
      <feColorMatrix in="shadowBlurOuter3" result="shadowMatrixOuter3" values="0 0 0 0 0   0 0 0 0 0   0 0 0 0 0  0 0 0 0.14 0"/>
      <feMerge>
        <feMergeNode in="shadowMatrixOuter1"/>
        <feMergeNode in="shadowMatrixOuter2"/>
        <feMergeNode in="shadowMatrixOuter3"/>
      </feMerge>
    </filter>
    <rect id="6-d" width="100" height="48" x="0" y="0" rx="4"/>
    <filter id="6-c" width="116%" height="133.3%" x="-8%" y="-14.6%" filterUnits="objectBoundingBox">
      <feOffset dy="1" in="SourceAlpha" result="shadowOffsetOuter1"/>
      <feGaussianBlur in="shadowOffsetOuter1" result="shadowBlurOuter1" stdDeviation="2.5"/>
      <feColorMatrix in="shadowBlurOuter1" result="shadowMatrixOuter1" values="0 0 0 0 0   0 0 0 0 0   0 0 0 0 0  0 0 0 0.2 0"/>
      <feMorphology in="SourceAlpha" radius="1" result="shadowSpreadOuter2"/>
      <feOffset dy="3" in="shadowSpreadOuter2" result="shadowOffsetOuter2"/>
      <feGaussianBlur in="shadowOffsetOuter2" result="shadowBlurOuter2" stdDeviation=".5"/>
      <feColorMatrix in="shadowBlurOuter2" result="shadowMatrixOuter2" values="0 0 0 0 0   0 0 0 0 0   0 0 0 0 0  0 0 0 0.12 0"/>
      <feOffset dy="2" in="SourceAlpha" result="shadowOffsetOuter3"/>
      <feGaussianBlur in="shadowOffsetOuter3" result="shadowBlurOuter3" stdDeviation="1"/>
      <feColorMatrix in="shadowBlurOuter3" result="shadowMatrixOuter3" values="0 0 0 0 0   0 0 0 0 0   0 0 0 0 0  0 0 0 0.14 0"/>
      <feMerge>
        <feMergeNode in="shadowMatrixOuter1"/>
        <feMergeNode in="shadowMatrixOuter2"/>
        <feMergeNode in="shadowMatrixOuter3"/>
      </feMerge>
    </filter>
  </defs>
  <g fill="none" fill-rule="evenodd" transform="translate(8 7)">
    <rect width="375" height="180" fill="#FFF" fill-opacity=".01" fill-rule="nonzero"/>
    <use fill="#000" filter="url(#6-a)" xlink:href="#6-b"/>
    <use fill="#F7F7F7" xlink:href="#6-b"/>
    <rect width="375" height="180" fill="#F2F2F2"/>
    <g transform="translate(94 66)">
      <rect width="70" height="47" x=".5" y=".5" stroke="#A9B6BE" rx="4"/>
      <path fill="#314351" fill-rule="nonzero" d="M17.3408203,29 L17.3408203,19.046875 L20.2802734,19.046875 C21.1598351,19.046875 21.9402635,19.2428366 22.621582,19.6347656 C23.3029005,20.0266947 23.8304018,20.5826787 24.2041016,21.3027344 C24.5778013,22.0227901 24.7646484,22.8476516 24.7646484,23.7773438 L24.7646484,24.2763672 C24.7646484,25.2197313 24.576662,26.0491501 24.2006836,26.7646484 C23.8247052,27.4801468 23.2892287,28.0315736 22.5942383,28.4189453 C21.8992478,28.806317 21.1028691,29 20.2050781,29 L17.3408203,29 Z M19.0703125,20.4414062 L19.0703125,27.6191406 L20.1982422,27.6191406 C21.1051478,27.6191406 21.8012671,27.3354521 22.2866211,26.7680664 C22.7719751,26.2006808 23.0192057,25.386073 23.0283203,24.3242188 L23.0283203,23.7705078 C23.0283203,22.6904243 22.7936221,21.8655627 22.3242188,21.2958984 C21.8548154,20.7262341 21.1735071,20.4414062 20.2802734,20.4414062 L19.0703125,20.4414062 Z M33.0546875,24.5566406 L28.9667969,24.5566406 L28.9667969,27.6191406 L33.7451172,27.6191406 L33.7451172,29 L27.2373047,29 L27.2373047,19.046875 L33.6972656,19.046875 L33.6972656,20.4414062 L28.9667969,20.4414062 L28.9667969,23.1894531 L33.0546875,23.1894531 L33.0546875,24.5566406 Z M43.7988281,29 L42.0693359,29 L37.6328125,21.9384766 L37.6328125,29 L35.9033203,29 L35.9033203,19.046875 L37.6328125,19.046875 L42.0830078,26.1357422 L42.0830078,19.046875 L43.7988281,19.046875 L43.7988281,29 Z M49.6484375,23.7636719 L51.9384766,19.046875 L53.8525391,19.046875 L50.5166016,25.3359375 L50.5166016,29 L48.7802734,29 L48.7802734,25.3359375 L45.4375,19.046875 L47.3583984,19.046875 L49.6484375,23.7636719 Z"/>
      <g transform="translate(87)">
        <g transform="translate(.5)">
          <use fill="#000" filter="url(#6-c)" xlink:href="#6-d"/>
          <use fill="#FAFAFA" xlink:href="#6-d"/>
          <rect width="100" height="48" fill="#314351" rx="4"/>
        </g>
        <path fill="#FFF" fill-rule="nonzero" d="M23.2382812,26.6826172 L19.3828125,26.6826172 L18.5761719,29 L16.7783203,29 L20.5380859,19.046875 L22.0898438,19.046875 L25.8564453,29 L24.0517578,29 L23.2382812,26.6826172 Z M19.8681641,25.2880859 L22.7529297,25.2880859 L21.3105469,21.1591797 L19.8681641,25.2880859 Z M29.4638672,25.3017578 L29.4638672,29 L27.734375,29 L27.734375,19.046875 L31.5419922,19.046875 C32.6539769,19.046875 33.5369433,19.3362601 34.190918,19.9150391 C34.8448926,20.493818 35.171875,21.2594353 35.171875,22.2119141 C35.171875,23.1871794 34.8517285,23.9459608 34.2114258,24.4882812 C33.5711231,25.0306017 32.6744849,25.3017578 31.5214844,25.3017578 L29.4638672,25.3017578 Z M29.4638672,23.9140625 L31.5419922,23.9140625 C32.1572296,23.9140625 32.626626,23.7693699 32.9501953,23.4799805 C33.2737646,23.190591 33.4355469,22.7724637 33.4355469,22.2255859 C33.4355469,21.6878228 33.271486,21.2583024 32.9433594,20.9370117 C32.6152327,20.615721 32.1640654,20.4505209 31.5898438,20.4414062 L29.4638672,20.4414062 L29.4638672,23.9140625 Z M39.1621094,25.3017578 L39.1621094,29 L37.4326172,29 L37.4326172,19.046875 L41.2402344,19.046875 C42.3522191,19.046875 43.2351855,19.3362601 43.8891602,19.9150391 C44.5431348,20.493818 44.8701172,21.2594353 44.8701172,22.2119141 C44.8701172,23.1871794 44.5499706,23.9459608 43.909668,24.4882812 C43.2693653,25.0306017 42.3727271,25.3017578 41.2197266,25.3017578 L39.1621094,25.3017578 Z M39.1621094,23.9140625 L41.2402344,23.9140625 C41.8554718,23.9140625 42.3248682,23.7693699 42.6484375,23.4799805 C42.9720068,23.190591 43.1337891,22.7724637 43.1337891,22.2255859 C43.1337891,21.6878228 42.9697282,21.2583024 42.6416016,20.9370117 C42.3134749,20.615721 41.8623076,20.4505209 41.2880859,20.4414062 L39.1621094,20.4414062 L39.1621094,23.9140625 Z M50.7880859,25.1650391 L48.8603516,25.1650391 L48.8603516,29 L47.1308594,29 L47.1308594,19.046875 L50.6308594,19.046875 C51.7793026,19.046875 52.665687,19.3043594 53.2900391,19.8193359 C53.9143911,20.3343125 54.2265625,21.0794222 54.2265625,22.0546875 C54.2265625,22.7200554 54.0659196,23.2771787 53.7446289,23.7260742 C53.4233382,24.1749697 52.9755888,24.5201811 52.4013672,24.7617188 L54.6367188,28.9111328 L54.6367188,29 L52.7841797,29 L50.7880859,25.1650391 Z M48.8603516,23.7773438 L50.6376953,23.7773438 C51.2210316,23.7773438 51.6767562,23.6303726 52.0048828,23.3364258 C52.3330095,23.042479 52.4970703,22.640302 52.4970703,22.1298828 C52.4970703,21.596677 52.3455419,21.1842463 52.0424805,20.8925781 C51.7394191,20.60091 51.2871124,20.4505209 50.6855469,20.4414062 L48.8603516,20.4414062 L48.8603516,23.7773438 Z M64.5605469,24.2832031 C64.5605469,25.2584684 64.3919288,26.1140914 64.0546875,26.8500977 C63.7174462,27.5861039 63.2355175,28.1512025 62.6088867,28.5454102 C61.982256,28.9396179 61.2610718,29.1367188 60.4453125,29.1367188 C59.6386678,29.1367188 58.9197623,28.9396179 58.2885742,28.5454102 C57.6573862,28.1512025 57.1697608,27.5895219 56.8256836,26.8603516 C56.4816064,26.1311812 56.3072917,25.2903693 56.3027344,24.3378906 L56.3027344,23.7773438 C56.3027344,22.8066358 56.4747704,21.9498735 56.8188477,21.2070312 C57.1629249,20.464189 57.6482716,19.8956725 58.2749023,19.5014648 C58.9015331,19.1072571 59.6204387,18.9101562 60.4316406,18.9101562 C61.2428426,18.9101562 61.9617482,19.1049785 62.5883789,19.4946289 C63.2150096,19.8842793 63.699217,20.4448206 64.0410156,21.1762695 C64.3828142,21.9077185 64.5559896,22.7587842 64.5605469,23.7294922 L64.5605469,24.2832031 Z M62.8310547,23.7636719 C62.8310547,22.6608018 62.6225607,21.8154326 62.2055664,21.2275391 C61.7885721,20.6396455 61.1972695,20.3457031 60.4316406,20.3457031 C59.6842411,20.3457031 59.0997742,20.6385062 58.6782227,21.2241211 C58.2566711,21.809736 58.0413412,22.6380155 58.0322266,23.7089844 L58.0322266,24.2832031 C58.0322266,25.3769586 58.2452778,26.2223277 58.6713867,26.8193359 C59.0974956,27.4163441 59.6887983,27.7148438 60.4453125,27.7148438 C61.2109413,27.7148438 61.7999654,27.42318 62.2124023,26.8398438 C62.6248393,26.2565075 62.8310547,25.4043025 62.8310547,24.2832031 L62.8310547,23.7636719 Z M70.3896484,26.8330078 L72.9189453,19.046875 L74.8193359,19.046875 L71.2373047,29 L69.5625,29 L65.9941406,19.046875 L67.8876953,19.046875 L70.3896484,26.8330078 Z M82.5078125,24.5566406 L78.4199219,24.5566406 L78.4199219,27.6191406 L83.1982422,27.6191406 L83.1982422,29 L76.6904297,29 L76.6904297,19.046875 L83.1503906,19.046875 L83.1503906,20.4414062 L78.4199219,20.4414062 L78.4199219,23.1894531 L82.5078125,23.1894531 L82.5078125,24.5566406 Z"/>
      </g>
    </g>
  </g>
</svg>
