<svg xmlns="http://www.w3.org/2000/svg" width="30" height="40" viewBox="0 0 30 40">
  <g fill="none" fill-rule="evenodd">
    <rect width="30" height="40" fill="#FFF" fill-opacity=".01" fill-rule="nonzero"/>
    <g transform="translate(3 8)">
      <path d="M12,2 C17.522,2 22,6.477 22,12 C22,17.523 17.522,22 12,22 C6.478,22 2,17.523 2,12 C2,6.477 6.478,2 12,2 Z M12.796,7.749 C12.796,7.335 12.461,7 12.048,7 C11.635,7 11.3,7.335 11.3,7.749 C11.3,8.163 11.635,8.498 12.048,8.498 C12.461,8.498 12.796,8.163 12.796,7.749 Z M12,10 C11.7238576,10 11.5,10.2238576 11.5,10.5 L11.5,16.5 C11.5,16.7761424 11.7238576,17 12,17 C12.2761424,17 12.5,16.7761424 12.5,16.5 L12.5,10.5 C12.5,10.2238576 12.2761424,10 12,10 Z"/>
      <path fill="#CCC" d="M12,2 C17.522,2 22,6.477 22,12 C22,17.523 17.522,22 12,22 C6.478,22 2,17.523 2,12 C2,6.477 6.478,2 12,2 Z M12,3 C7.037,3 3,7.037 3,12 C3,16.963 7.037,21 12,21 C16.963,21 21,16.963 21,12 C21,7.037 16.963,3 12,3 Z M12.748,16.251 C12.748,16.665 12.413,17 12,17 C11.587,17 11.252,16.665 11.252,16.251 C11.252,15.837 11.587,15.502 12,15.502 C12.413,15.502 12.748,15.837 12.748,16.251 Z M12,7 C12.2761424,7 12.5,7.22385763 12.5,7.5 L12.5,13.5 C12.5,13.7761424 12.2761424,14 12,14 C11.7238576,14 11.5,13.7761424 11.5,13.5 L11.5,7.5 C11.5,7.22385763 11.7238576,7 12,7 Z" transform="rotate(-180 12 12)"/>
    </g>
  </g>
</svg>
