<svg xmlns="http://www.w3.org/2000/svg" xmlns:xlink="http://www.w3.org/1999/xlink" width="85" height="48" viewBox="0 0 85 48">
  <defs>
    <rect id="6-a" width="85" height="48" x="0" y="0" rx="8"/>
  </defs>
  <g fill="none" fill-rule="evenodd">
    <mask id="6-b" fill="#fff">
      <use xlink:href="#6-a"/>
    </mask>
    <path fill="#314351" fill-rule="nonzero" d="M22.7082715,30 L17.7859082,30 L17.7859082,18.0219727 L22.6003613,18.0219727 C24.849873,18.0219727 26.2029004,19.1674805 26.2029004,21.0102539 C26.2029004,22.2636719 25.2815137,23.3842773 24.1028027,23.5834961 L24.1028027,23.7246094 C25.7214551,23.890625 26.8005566,25.0444336 26.8005566,26.6049805 C26.8005566,28.7133789 25.2649121,30 22.7082715,30 Z M19.6452832,19.5991211 L19.6452832,23.09375 L21.853291,23.09375 C23.4968457,23.09375 24.3518262,22.487793 24.3518262,21.3505859 C24.3518262,20.246582 23.5466504,19.5991211 22.1687207,19.5991211 L19.6452832,19.5991211 Z M19.6452832,28.4228516 L22.3347363,28.4228516 C24.0114941,28.4228516 24.8996777,27.7421875 24.8996777,26.472168 C24.8996777,25.21875 23.978291,24.5629883 22.2268262,24.5629883 L19.6452832,24.5629883 L19.6452832,28.4228516 Z M36.1854785,20.9604492 L36.1854785,30 L34.4672168,30 L34.4672168,28.5639648 L34.3261035,28.5639648 C33.8861621,29.5932617 32.9647754,30.1743164 31.5951465,30.1743164 C29.5946582,30.1743164 28.4823535,28.9541016 28.4823535,26.8291016 L28.4823535,20.9604492 L30.2670215,20.9604492 L30.2670215,26.3642578 C30.2670215,27.8251953 30.8563769,28.5224609 32.1679004,28.5224609 C33.6122363,28.5224609 34.4008105,27.6674805 34.4008105,26.2480469 L34.4008105,20.9604492 L36.1854785,20.9604492 Z M38.9961816,18.7109375 L40.7808496,18.7109375 L40.7808496,21.0019531 L42.739834,21.0019531 L42.739834,22.5043945 L40.7808496,22.5043945 L40.7808496,27.152832 C40.7808496,28.0991211 41.1709863,28.5141602 42.0591699,28.5141602 C42.3330957,28.5141602 42.4908105,28.4975586 42.739834,28.4726562 L42.739834,29.9584961 C42.4493066,30.0083008 42.1172754,30.0498047 41.7686426,30.0498047 C39.7847559,30.0498047 38.9961816,29.3525391 38.9961816,27.609375 L38.9961816,22.5043945 L37.5601465,22.5043945 L37.5601465,21.0019531 L38.9961816,21.0019531 L38.9961816,18.7109375 Z M45.0939941,18.7109375 L46.8786621,18.7109375 L46.8786621,21.0019531 L48.8376465,21.0019531 L48.8376465,22.5043945 L46.8786621,22.5043945 L46.8786621,27.152832 C46.8786621,28.0991211 47.2687988,28.5141602 48.1569824,28.5141602 C48.4309082,28.5141602 48.588623,28.4975586 48.8376465,28.4726562 L48.8376465,29.9584961 C48.5471191,30.0083008 48.2150879,30.0498047 47.8664551,30.0498047 C45.8825684,30.0498047 45.0939941,29.3525391 45.0939941,27.609375 L45.0939941,22.5043945 L43.657959,22.5043945 L43.657959,21.0019531 L45.0939941,21.0019531 L45.0939941,18.7109375 Z M54.2464941,30.1743164 C51.5985449,30.1743164 49.9798926,28.40625 49.9798926,25.4760742 C49.9798926,22.5625 51.6068457,20.7861328 54.2464941,20.7861328 C56.8778418,20.7861328 58.5047949,22.5625 58.5047949,25.4760742 C58.5047949,28.40625 56.8861426,30.1743164 54.2464941,30.1743164 Z M54.2464941,28.5888672 C55.7904395,28.5888672 56.6703223,27.4433594 56.6703223,25.4760742 C56.6703223,23.5170898 55.7904395,22.371582 54.2464941,22.371582 C52.6942481,22.371582 51.822666,23.5170898 51.822666,25.4760742 C51.822666,27.4516602 52.6942481,28.5888672 54.2464941,28.5888672 Z M60.2363965,30 L60.2363965,20.9604492 L61.9546582,20.9604492 L61.9546582,22.3964844 L62.0874707,22.3964844 C62.5274121,21.3920898 63.4238965,20.7861328 64.7852246,20.7861328 C66.8023145,20.7861328 67.9146191,21.9980469 67.9146191,24.1479492 L67.9146191,30 L66.1299512,30 L66.1299512,24.5961914 C66.1299512,23.1435547 65.4990918,22.4213867 64.1792676,22.4213867 C62.8594434,22.4213867 62.0210645,23.3012695 62.0210645,24.7124023 L62.0210645,30 L60.2363965,30 Z" mask="url(#6-b)"/>
    <rect width="66" height="66" x="10" y="-9" fill="#314351" fill-opacity=".16" mask="url(#6-b)" rx="33"/>
    <rect width="84" height="47" x=".5" y=".5" stroke="#A9B6BE" rx="8"/>
  </g>
</svg>
