<svg xmlns="http://www.w3.org/2000/svg" xmlns:xlink="http://www.w3.org/1999/xlink" width="85" height="66" viewBox="0 0 85 66">
  <defs>
    <rect id="9-a" width="85" height="48" x="0" y="0" rx="8"/>
  </defs>
  <g fill="none" fill-rule="evenodd">
    <rect width="85" height="66" fill="#FFF" fill-opacity=".01" fill-rule="nonzero"/>
    <g transform="translate(0 9)">
      <path fill="#314351" fill-rule="nonzero" d="M4.92236328,11.9780273 L0,11.9780273 L0,0 L4.81445312,0 C7.06396484,0 8.41699219,1.14550781 8.41699219,2.98828125 C8.41699219,4.24169922 7.49560547,5.36230469 6.31689453,5.56152344 L6.31689453,5.70263672 C7.93554688,5.86865234 9.01464844,7.02246094 9.01464844,8.58300781 C9.01464844,10.6914062 7.47900391,11.9780273 4.92236328,11.9780273 Z M1.859375,1.57714844 L1.859375,5.07177734 L4.06738281,5.07177734 C5.7109375,5.07177734 6.56591797,4.46582031 6.56591797,3.32861328 C6.56591797,2.22460938 5.76074219,1.57714844 4.3828125,1.57714844 L1.859375,1.57714844 Z M1.859375,10.4008789 L4.54882812,10.4008789 C6.22558594,10.4008789 7.11376953,9.72021484 7.11376953,8.45019531 C7.11376953,7.19677734 6.19238281,6.54101562 4.44091797,6.54101562 L1.859375,6.54101562 L1.859375,10.4008789 Z M18.3995703,2.93847656 L18.3995703,11.9780273 L16.6813086,11.9780273 L16.6813086,10.5419922 L16.5401953,10.5419922 C16.1002539,11.5712891 15.1788672,12.1523438 13.8092383,12.1523438 C11.80875,12.1523438 10.6964453,10.9321289 10.6964453,8.80712891 L10.6964453,2.93847656 L12.4811133,2.93847656 L12.4811133,8.34228516 C12.4811133,9.80322266 13.0704688,10.5004883 14.3819922,10.5004883 C15.8263281,10.5004883 16.6149023,9.64550781 16.6149023,8.22607422 L16.6149023,2.93847656 L18.3995703,2.93847656 Z M21.2102734,0.688964844 L22.9949414,0.688964844 L22.9949414,2.97998047 L24.9539258,2.97998047 L24.9539258,4.48242188 L22.9949414,4.48242188 L22.9949414,9.13085938 C22.9949414,10.0771484 23.3850781,10.4921875 24.2732617,10.4921875 C24.5471875,10.4921875 24.7049024,10.4755859 24.9539258,10.4506836 L24.9539258,11.9365234 C24.6633984,11.9863281 24.3313672,12.027832 23.9827344,12.027832 C21.9988477,12.027832 21.2102734,11.3305664 21.2102734,9.58740234 L21.2102734,4.48242188 L19.7742383,4.48242188 L19.7742383,2.97998047 L21.2102734,2.97998047 L21.2102734,0.688964844 Z M27.3080859,0.688964844 L29.0927539,0.688964844 L29.0927539,2.97998047 L31.0517383,2.97998047 L31.0517383,4.48242188 L29.0927539,4.48242188 L29.0927539,9.13085938 C29.0927539,10.0771484 29.4828906,10.4921875 30.3710742,10.4921875 C30.645,10.4921875 30.8027149,10.4755859 31.0517383,10.4506836 L31.0517383,11.9365234 C30.7612109,11.9863281 30.4291797,12.027832 30.0805469,12.027832 C28.0966602,12.027832 27.3080859,11.3305664 27.3080859,9.58740234 L27.3080859,4.48242188 L25.8720508,4.48242188 L25.8720508,2.97998047 L27.3080859,2.97998047 L27.3080859,0.688964844 Z M36.460586,12.1523438 C33.8126367,12.1523438 32.1939844,10.3842773 32.1939844,7.45410156 C32.1939844,4.54052734 33.8209375,2.76416016 36.460586,2.76416016 C39.0919336,2.76416016 40.7188867,4.54052734 40.7188867,7.45410156 C40.7188867,10.3842773 39.1002344,12.1523438 36.460586,12.1523438 Z M36.460586,10.5668945 C38.0045313,10.5668945 38.8844141,9.42138672 38.8844141,7.45410156 C38.8844141,5.49511719 38.0045313,4.34960938 36.460586,4.34960938 C34.9083399,4.34960938 34.0367578,5.49511719 34.0367578,7.45410156 C34.0367578,9.4296875 34.9083399,10.5668945 36.460586,10.5668945 Z M42.4504883,11.9780273 L42.4504883,2.93847656 L44.16875,2.93847656 L44.16875,4.37451172 L44.3015625,4.37451172 C44.7415039,3.37011719 45.6379883,2.76416016 46.9993164,2.76416016 C49.0164063,2.76416016 50.128711,3.97607422 50.128711,6.12597656 L50.128711,11.9780273 L48.344043,11.9780273 L48.344043,6.57421875 C48.344043,5.12158203 47.7131836,4.39941406 46.3933594,4.39941406 C45.0735352,4.39941406 44.2351563,5.27929688 44.2351563,6.69042969 L44.2351563,11.9780273 L42.4504883,11.9780273 Z" transform="translate(17 18)"/>
      <use fill="#314351" fill-opacity=".16" xlink:href="#9-a"/>
    </g>
  </g>
</svg>
