<svg xmlns="http://www.w3.org/2000/svg" width="380" height="180" viewBox="0 0 380 180">
  <g fill="none" fill-rule="evenodd">
    <rect width="380" height="180" fill="#FFF" fill-opacity=".01" fill-rule="nonzero"/>
    <g transform="translate(18 36)">
      <rect width="344" height="108" fill="#25333D" rx="4"/>
      <rect width="173" height="48" x="163" y="60"/>
      <path fill="#F3F6FA" d="M18.4229863,27.1742322 L18.4229863,31 L17.1343066,31 L17.1343066,21.2275125 L20.7385825,21.2275125 C21.808013,21.2275125 22.6458702,21.5004593 23.2521791,22.046361 C23.858488,22.5922628 24.1616379,23.3149006 24.1616379,24.2142961 C24.1616379,25.1629123 23.8651998,25.8933805 23.2723147,26.4057227 C22.6794296,26.918065 21.8303861,27.1742322 20.7251588,27.1742322 L18.4229863,27.1742322 Z M18.4229863,26.1204681 L20.7385825,26.1204681 C21.4276717,26.1204681 21.9556671,25.9582661 22.3225846,25.6338573 C22.6895022,25.3094485 22.8729583,24.8407407 22.8729583,24.2277198 C22.8729583,23.6460212 22.6895022,23.1806694 22.3225846,22.8316502 C21.9556671,22.482631 21.4522816,22.3014123 20.8124132,22.2879885 L18.4229863,22.2879885 L18.4229863,26.1204681 Z M30.2711033,31 C30.1995096,30.8568127 30.1413407,30.601764 30.0965946,30.2348464 C29.5193706,30.8344435 28.8302919,31.1342375 28.0293376,31.1342375 C27.3134009,31.1342375 26.7261179,30.9317646 26.2674709,30.5268129 C25.8088239,30.1218612 25.5795039,29.608408 25.5795039,28.986438 C25.5795039,28.2302298 25.8669929,27.6429468 26.4419796,27.2245713 C27.0169663,26.8061957 27.8257389,26.5970111 28.8683218,26.5970111 L30.076459,26.5970111 L30.076459,26.0265019 C30.076459,25.5924652 29.9466974,25.2468072 29.6871703,24.9895175 C29.4276433,24.7322277 29.0450703,24.6035847 28.53944,24.6035847 C28.0964542,24.6035847 27.7250675,24.7154482 27.425269,24.9391784 C27.1254705,25.1629086 26.9755735,25.4336182 26.9755735,25.7513151 L25.7271651,25.7513151 C25.7271651,25.3888721 25.855808,25.0387396 26.1130978,24.7009069 C26.3703876,24.3630743 26.7194015,24.0957207 27.16015,23.8988381 C27.6008986,23.7019554 28.0852673,23.6035156 28.6132706,23.6035156 C29.4500217,23.6035156 30.1055414,23.8127003 30.5798495,24.2310758 C31.0541576,24.6494513 31.3002571,25.225548 31.3181556,25.9593832 L31.3181556,29.3018961 C31.3181556,29.9686121 31.4031718,30.4988448 31.5732067,30.89261 L31.5732067,31 L30.2711033,31 Z M28.2105582,30.0536259 C28.5998488,30.0536259 28.9689982,29.9529488 29.3180173,29.7515916 C29.6670365,29.5502344 29.9198478,29.2884739 30.076459,28.9663024 L30.076459,27.4762665 L29.1032374,27.4762665 C27.5818718,27.4762665 26.8212004,27.921483 26.8212004,28.8119293 C26.8212004,29.2012199 26.950962,29.5054884 27.2104891,29.7247441 C27.4700162,29.9439997 27.8033692,30.0536259 28.2105582,30.0536259 Z M37.743079,29.0736924 C37.743079,28.738097 37.6166733,28.4774552 37.3638581,28.2917591 C37.111043,28.106063 36.6703011,27.9460983 36.0416191,27.8118602 C35.4129372,27.677622 34.9140262,27.5165387 34.5448714,27.3286053 C34.1757165,27.1406719 33.9027697,26.916945 33.7260228,26.657418 C33.5492759,26.3978909 33.4609038,26.0891478 33.4609038,25.7311795 C33.4609038,25.1360571 33.7125966,24.6326716 34.2159896,24.221008 C34.7193826,23.8093443 35.3625973,23.6035156 36.1456531,23.6035156 C36.9689804,23.6035156 37.6368051,23.8160562 38.1491473,24.2411436 C38.6614895,24.666231 38.9176568,25.2098873 38.9176568,25.8721288 L37.6692484,25.8721288 C37.6692484,25.5320589 37.5249446,25.2389766 37.2363326,24.9928734 C36.9477206,24.7467701 36.5841644,24.6237204 36.1456531,24.6237204 C35.6937181,24.6237204 35.3402296,24.7221602 35.0851772,24.9190428 C34.8301247,25.1159254 34.7026004,25.3732113 34.7026004,25.6909082 C34.7026004,25.9907067 34.8211756,26.2166709 35.0583297,26.3688074 C35.2954837,26.520944 35.7239207,26.6663664 36.3436534,26.8050792 C36.9633861,26.9437919 37.465653,27.1093498 37.850469,27.3017578 C38.235285,27.4941658 38.5205367,27.7257231 38.7062328,27.9964367 C38.8919289,28.2671503 38.9847756,28.5971474 38.9847756,28.986438 C38.9847756,29.6352557 38.7252524,30.1554207 38.2061982,30.5469486 C37.6871441,30.9384765 37.0137262,31.1342375 36.1859244,31.1342375 C35.6042258,31.1342375 35.089654,31.0313231 34.6421935,30.8254913 C34.1947331,30.6196595 33.8446005,30.3321705 33.5917854,29.9630156 C33.3389702,29.5938607 33.2125645,29.1945082 33.2125645,28.7649462 L34.4542611,28.7649462 C34.4766341,29.1810844 34.6433106,29.5110816 34.9542956,29.7549475 C35.2652807,29.9988135 35.6758195,30.1207446 36.1859244,30.1207446 C36.6557579,30.1207446 37.0327376,30.0256607 37.316875,29.83549 C37.6010124,29.6453193 37.743079,29.3913893 37.743079,29.0736924 Z M45.0808172,29.0736924 C45.0808172,28.738097 44.9544115,28.4774552 44.7015964,28.2917591 C44.4487812,28.106063 44.0080393,27.9460983 43.3793573,27.8118602 C42.7506754,27.677622 42.2517644,27.5165387 41.8826096,27.3286053 C41.5134547,27.1406719 41.2405079,26.916945 41.063761,26.657418 C40.8870141,26.3978909 40.798642,26.0891478 40.798642,25.7311795 C40.798642,25.1360571 41.0503348,24.6326716 41.5537278,24.221008 C42.0571208,23.8093443 42.7003355,23.6035156 43.4833913,23.6035156 C44.3067186,23.6035156 44.9745433,23.8160562 45.4868855,24.2411436 C45.9992278,24.666231 46.255395,25.2098873 46.255395,25.8721288 L45.0069866,25.8721288 C45.0069866,25.5320589 44.8626828,25.2389766 44.5740708,24.9928734 C44.2854588,24.7467701 43.9219026,24.6237204 43.4833913,24.6237204 C43.0314563,24.6237204 42.6779678,24.7221602 42.4229154,24.9190428 C42.1678629,25.1159254 42.0403386,25.3732113 42.0403386,25.6909082 C42.0403386,25.9907067 42.1589138,26.2166709 42.3960679,26.3688074 C42.6332219,26.520944 43.0616589,26.6663664 43.6813916,26.8050792 C44.3011243,26.9437919 44.8033912,27.1093498 45.1882072,27.3017578 C45.5730232,27.4941658 45.8582749,27.7257231 46.043971,27.9964367 C46.2296671,28.2671503 46.3225138,28.5971474 46.3225138,28.986438 C46.3225138,29.6352557 46.0629906,30.1554207 45.5439365,30.5469486 C45.0248823,30.9384765 44.3514644,31.1342375 43.5236626,31.1342375 C42.941964,31.1342375 42.4273922,31.0313231 41.9799317,30.8254913 C41.5324713,30.6196595 41.1823387,30.3321705 40.9295236,29.9630156 C40.6767084,29.5938607 40.5503027,29.1945082 40.5503027,28.7649462 L41.7919993,28.7649462 C41.8143723,29.1810844 41.9810488,29.5110816 42.2920338,29.7549475 C42.6030189,29.9988135 43.0135577,30.1207446 43.5236626,30.1207446 C43.9934961,30.1207446 44.3704758,30.0256607 44.6546132,29.83549 C44.9387506,29.6453193 45.0808172,29.3913893 45.0808172,29.0736924 Z M51.1030282,30.1207446 C51.5460141,30.1207446 51.9330616,29.9865085 52.2641823,29.7180322 C52.595303,29.4495559 52.7787591,29.1139656 52.8145559,28.7112512 L53.9891337,28.7112512 C53.9667607,29.1273894 53.8235755,29.523386 53.5595739,29.8992528 C53.2955722,30.2751196 52.9432024,30.5749136 52.5024538,30.7986438 C52.0617053,31.022374 51.5952347,31.1342375 51.1030282,31.1342375 C50.1141406,31.1342375 49.3277407,30.8042403 48.7438048,30.1442362 C48.1598689,29.484232 47.8679053,28.581494 47.8679053,27.4359953 L47.8679053,27.2279272 C47.8679053,26.5209397 47.9976669,25.8922672 48.257194,25.3418908 C48.516721,24.7915144 48.8892263,24.3641961 49.3747209,24.059923 C49.8602155,23.7556499 50.4340749,23.6035156 51.0963164,23.6035156 C51.9106944,23.6035156 52.5874682,23.8473779 53.126658,24.3351098 C53.6658479,24.8228417 53.9533369,25.4559888 53.9891337,26.23457 L52.8145559,26.23457 C52.7787591,25.7647365 52.6008962,25.3788076 52.280962,25.0767718 C51.9610278,24.774736 51.5661498,24.6237204 51.0963164,24.6237204 C50.4653971,24.6237204 49.9765539,24.8508031 49.629772,25.3049755 C49.2829902,25.7591479 49.1096019,26.4157862 49.1096019,27.2749103 L49.1096019,27.5098259 C49.1096019,28.3465769 49.2818716,28.9909103 49.6264161,29.4428454 C49.9709607,29.8947805 50.4631598,30.1207446 51.1030282,30.1207446 Z M55.3063216,27.3017578 C55.3063216,26.5902957 55.4461509,25.9504368 55.7258137,25.382162 C56.0054765,24.8138873 56.3947612,24.3753826 56.8936796,24.0666349 C57.392598,23.7578872 57.9619829,23.6035156 58.6018514,23.6035156 C59.590739,23.6035156 60.3905626,23.9458177 61.0013461,24.6304322 C61.6121296,25.3150467 61.9175168,26.2256151 61.9175168,27.3621647 L61.9175168,27.449419 C61.9175168,28.1564065 61.782162,28.7906722 61.5114485,29.3522351 C61.2407349,29.913798 60.8536874,30.351184 60.3502944,30.6644063 C59.8469014,30.9776287 59.2685674,31.1342375 58.6152751,31.1342375 C57.6308621,31.1342375 56.8332758,30.7919354 56.2224923,30.1073209 C55.6117088,29.4227064 55.3063216,28.5166125 55.3063216,27.3890122 L55.3063216,27.3017578 Z M56.55473,27.449419 C56.55473,28.2548478 56.741542,28.9014185 57.1151715,29.3891504 C57.4888009,29.8768823 57.9888305,30.1207446 58.6152751,30.1207446 C59.2461944,30.1207446 59.7473426,29.8735264 60.1187348,29.3790826 C60.4901269,28.8846388 60.6758202,28.1922041 60.6758202,27.3017578 C60.6758202,26.5052782 60.486771,25.8598262 60.1086669,25.3653824 C59.7305629,24.8709386 59.228296,24.6237204 58.6018514,24.6237204 C57.9888306,24.6237204 57.4943942,24.8675827 57.1185274,25.3553146 C56.7426606,25.8430465 56.55473,26.5410743 56.55473,27.449419 Z M63.4226371,27.3084697 C63.4226371,26.1942931 63.6866348,25.298267 64.2146382,24.6203644 C64.7426415,23.9424618 65.4339575,23.6035156 66.288607,23.6035156 C67.1387819,23.6035156 67.8121998,23.8943606 68.3088809,24.4760592 L68.3088809,20.6905626 L69.5505774,20.6905626 L69.5505774,31 L68.409559,31 L68.3491521,30.2214227 C67.852471,30.8299689 67.161155,31.1342375 66.2751833,31.1342375 C65.4339576,31.1342375 64.7482347,30.7896981 64.2179941,30.100609 C63.6877535,29.4115199 63.4226371,28.5121378 63.4226371,27.4024359 L63.4226371,27.3084697 Z M64.6643337,27.449419 C64.6643337,28.2727463 64.8343661,28.9170797 65.174436,29.3824385 C65.514506,29.8477974 65.9843324,30.0804734 66.5839294,30.0804734 C67.3714598,30.0804734 67.9464379,29.7269849 68.3088809,29.0199974 L68.3088809,25.6841963 C67.9374887,24.9995818 67.3669852,24.6572797 66.5973532,24.6572797 C65.988807,24.6572797 65.514506,24.8921929 65.174436,25.3620264 C64.8343661,25.8318599 64.6643337,26.5276505 64.6643337,27.449419 Z M74.7405162,31.1342375 C73.7561032,31.1342375 72.955161,30.8109521 72.3376655,30.1643718 C71.7201701,29.5177914 71.411427,28.6530871 71.411427,27.5702327 L71.411427,27.3420291 C71.411427,26.6216177 71.549019,25.978403 71.8242072,25.4123655 C72.0993954,24.846328 72.4842056,24.4033488 72.9786494,24.0834146 C73.4730932,23.7634803 74.0089191,23.6035156 74.5861431,23.6035156 C75.5302847,23.6035156 76.2641088,23.914496 76.7876375,24.536466 C77.3111663,25.158436 77.5729267,26.048869 77.5729267,27.2077916 L77.5729267,27.7246058 L72.6531236,27.7246058 C72.671022,28.4405426 72.8802066,29.0188765 73.2806837,29.4596251 C73.6811608,29.9003736 74.1901395,30.1207446 74.8076349,30.1207446 C75.2461462,30.1207446 75.6175328,30.0312538 75.9218059,29.8522697 C76.226079,29.6732855 76.492314,29.436135 76.7205188,29.1408111 L77.4789605,29.7314559 C76.8704143,30.6666483 75.9576086,31.1342375 74.7405162,31.1342375 Z M74.5861431,24.6237204 C74.0849874,24.6237204 73.6643809,24.8060578 73.3243109,25.170738 C72.984241,25.5354183 72.7739377,26.0466342 72.6933948,26.7044011 L76.3312301,26.7044011 L76.3312301,26.6104349 C76.2954333,25.9795156 76.1254009,25.4906724 75.8211278,25.1438905 C75.5168547,24.7971087 75.1051972,24.6237204 74.5861431,24.6237204 Z M84.0867652,23.7377531 L84.1270364,24.6505679 C84.6818874,23.9525295 85.4067625,23.6035156 86.3016834,23.6035156 C87.8364727,23.6035156 88.6105677,24.4693386 88.6239915,26.2010106 L88.6239915,31 L87.382295,31 L87.382295,26.1942987 C87.3778204,25.67077 87.2581265,25.2837225 87.0232098,25.0331446 C86.788293,24.7825668 86.4224996,24.6572797 85.9258185,24.6572797 C85.5231041,24.6572797 85.1696156,24.7646686 84.8653425,24.9794497 C84.5610694,25.1942307 84.3239189,25.4761265 84.1538839,25.8251457 L84.1538839,31 L82.9121874,31 L82.9121874,23.7377531 L84.0867652,23.7377531 Z M93.7602353,31.1342375 C92.7758223,31.1342375 91.9748801,30.8109521 91.3573847,30.1643718 C90.7398892,29.5177914 90.4311461,28.6530871 90.4311461,27.5702327 L90.4311461,27.3420291 C90.4311461,26.6216177 90.5687382,25.978403 90.8439263,25.4123655 C91.1191145,24.846328 91.5039248,24.4033488 91.9983686,24.0834146 C92.4928124,23.7634803 93.0286382,23.6035156 93.6058622,23.6035156 C94.5500038,23.6035156 95.2838279,23.914496 95.8073567,24.536466 C96.3308854,25.158436 96.5926458,26.048869 96.5926458,27.2077916 L96.5926458,27.7246058 L91.6728427,27.7246058 C91.6907411,28.4405426 91.8999257,29.0188765 92.3004029,29.4596251 C92.70088,29.9003736 93.2098586,30.1207446 93.827354,30.1207446 C94.2658653,30.1207446 94.6372519,30.0312538 94.941525,29.8522697 C95.2457981,29.6732855 95.5120331,29.436135 95.7402379,29.1408111 L96.4986796,29.7314559 C95.8901334,30.6666483 94.9773277,31.1342375 93.7602353,31.1342375 Z M93.6058622,24.6237204 C93.1047065,24.6237204 92.6841,24.8060578 92.34403,25.170738 C92.0039601,25.5354183 91.7936568,26.0466342 91.7131139,26.7044011 L95.3509493,26.7044011 L95.3509493,26.6104349 C95.3151524,25.9795156 95.14512,25.4906724 94.8408469,25.1438905 C94.5365738,24.7971087 94.1249163,24.6237204 93.6058622,24.6237204 Z M101.292618,31.1342375 C100.308205,31.1342375 99.5072626,30.8109521 98.8897672,30.1643718 C98.2722718,29.5177914 97.9635287,28.6530871 97.9635287,27.5702327 L97.9635287,27.3420291 C97.9635287,26.6216177 98.1011207,25.978403 98.3763089,25.4123655 C98.6514971,24.846328 99.0363073,24.4033488 99.5307511,24.0834146 C100.025195,23.7634803 100.561021,23.6035156 101.138245,23.6035156 C102.082386,23.6035156 102.81621,23.914496 103.339739,24.536466 C103.863268,25.158436 104.125028,26.048869 104.125028,27.2077916 L104.125028,27.7246058 L99.2052252,27.7246058 C99.2231236,28.4405426 99.4323083,29.0188765 99.8327854,29.4596251 C100.233262,29.9003736 100.742241,30.1207446 101.359737,30.1207446 C101.798248,30.1207446 102.169634,30.0312538 102.473908,29.8522697 C102.778181,29.6732855 103.044416,29.436135 103.27262,29.1408111 L104.031062,29.7314559 C103.422516,30.6666483 102.50971,31.1342375 101.292618,31.1342375 Z M101.138245,24.6237204 C100.637089,24.6237204 100.216483,24.8060578 99.8764126,25.170738 C99.5363426,25.5354183 99.3260394,26.0466342 99.2454965,26.7044011 L102.883332,26.7044011 L102.883332,26.6104349 C102.847535,25.9795156 102.677503,25.4906724 102.373229,25.1438905 C102.068956,24.7971087 101.657299,24.6237204 101.138245,24.6237204 Z M105.509335,27.3084697 C105.509335,26.1942931 105.773333,25.298267 106.301336,24.6203644 C106.829339,23.9424618 107.520655,23.6035156 108.375305,23.6035156 C109.22548,23.6035156 109.898898,23.8943606 110.395579,24.4760592 L110.395579,20.6905626 L111.637275,20.6905626 L111.637275,31 L110.496257,31 L110.43585,30.2214227 C109.939169,30.8299689 109.247853,31.1342375 108.361881,31.1342375 C107.520655,31.1342375 106.834933,30.7896981 106.304692,30.100609 C105.774451,29.4115199 105.509335,28.5121378 105.509335,27.4024359 L105.509335,27.3084697 Z M106.751032,27.449419 C106.751032,28.2727463 106.921064,28.9170797 107.261134,29.3824385 C107.601204,29.8477974 108.07103,30.0804734 108.670627,30.0804734 C109.458158,30.0804734 110.033136,29.7269849 110.395579,29.0199974 L110.395579,25.6841963 C110.024187,24.9995818 109.453683,24.6572797 108.684051,24.6572797 C108.075505,24.6572797 107.601204,24.8921929 107.261134,25.3620264 C106.921064,25.8318599 106.751032,26.5276505 106.751032,27.449419 Z M118.042063,29.0736924 C118.042063,28.738097 117.915657,28.4774552 117.662842,28.2917591 C117.410027,28.106063 116.969285,27.9460983 116.340603,27.8118602 C115.711921,27.677622 115.21301,27.5165387 114.843855,27.3286053 C114.474701,27.1406719 114.201754,26.916945 114.025007,26.657418 C113.84826,26.3978909 113.759888,26.0891478 113.759888,25.7311795 C113.759888,25.1360571 114.011581,24.6326716 114.514974,24.221008 C115.018367,23.8093443 115.661581,23.6035156 116.444637,23.6035156 C117.267964,23.6035156 117.935789,23.8160562 118.448131,24.2411436 C118.960474,24.666231 119.216641,25.2098873 119.216641,25.8721288 L117.968232,25.8721288 C117.968232,25.5320589 117.823929,25.2389766 117.535317,24.9928734 C117.246705,24.7467701 116.883148,24.6237204 116.444637,24.6237204 C115.992702,24.6237204 115.639214,24.7221602 115.384161,24.9190428 C115.129109,25.1159254 115.001584,25.3732113 115.001584,25.6909082 C115.001584,25.9907067 115.12016,26.2166709 115.357314,26.3688074 C115.594468,26.520944 116.022905,26.6663664 116.642637,26.8050792 C117.26237,26.9437919 117.764637,27.1093498 118.149453,27.3017578 C118.534269,27.4941658 118.819521,27.7257231 119.005217,27.9964367 C119.190913,28.2671503 119.28376,28.5971474 119.28376,28.986438 C119.28376,29.6352557 119.024236,30.1554207 118.505182,30.5469486 C117.986128,30.9384765 117.31271,31.1342375 116.484908,31.1342375 C115.90321,31.1342375 115.388638,31.0313231 114.941178,30.8254913 C114.493717,30.6196595 114.143585,30.3321705 113.890769,29.9630156 C113.637954,29.5938607 113.511549,29.1945082 113.511549,28.7649462 L114.753245,28.7649462 C114.775618,29.1810844 114.942295,29.5110816 115.25328,29.7549475 C115.564265,29.9988135 115.974804,30.1207446 116.484908,30.1207446 C116.954742,30.1207446 117.331722,30.0256607 117.615859,29.83549 C117.899997,29.6453193 118.042063,29.3913893 118.042063,29.0736924 Z M126.488921,21.9792423 L126.488921,23.7377531 L127.844719,23.7377531 L127.844719,24.697551 L126.488921,24.697551 L126.488921,29.201218 C126.488921,29.4920673 126.549327,29.710201 126.670142,29.8556256 C126.790956,30.0010503 126.996785,30.0737615 127.287634,30.0737615 C127.430821,30.0737615 127.627701,30.0469143 127.878279,29.993219 L127.878279,31 C127.551633,31.0894921 127.233941,31.1342375 126.925193,31.1342375 C126.370342,31.1342375 125.951973,30.9664423 125.670073,30.630847 C125.388172,30.2952516 125.247225,29.8187134 125.247225,29.201218 L125.247225,24.697551 L123.924985,24.697551 L123.924985,23.7377531 L125.247225,23.7377531 L125.247225,21.9792423 L126.488921,21.9792423 Z M129.081365,27.3017578 C129.081365,26.5902957 129.221194,25.9504368 129.500857,25.382162 C129.78052,24.8138873 130.169804,24.3753826 130.668723,24.0666349 C131.167641,23.7578872 131.737026,23.6035156 132.376895,23.6035156 C133.365782,23.6035156 134.165606,23.9458177 134.776389,24.6304322 C135.387173,25.3150467 135.69256,26.2256151 135.69256,27.3621647 L135.69256,27.449419 C135.69256,28.1564065 135.557205,28.7906722 135.286492,29.3522351 C135.015778,29.913798 134.628731,30.351184 134.125338,30.6644063 C133.621945,30.9776287 133.043611,31.1342375 132.390318,31.1342375 C131.405905,31.1342375 130.608319,30.7919354 129.997536,30.1073209 C129.386752,29.4227064 129.081365,28.5166125 129.081365,27.3890122 L129.081365,27.3017578 Z M130.329773,27.449419 C130.329773,28.2548478 130.516585,28.9014185 130.890215,29.3891504 C131.263844,29.8768823 131.763874,30.1207446 132.390318,30.1207446 C133.021238,30.1207446 133.522386,29.8735264 133.893778,29.3790826 C134.26517,28.8846388 134.450863,28.1922041 134.450863,27.3017578 C134.450863,26.5052782 134.261814,25.8598262 133.88371,25.3653824 C133.505606,24.8709386 133.003339,24.6237204 132.376895,24.6237204 C131.763874,24.6237204 131.269437,24.8675827 130.893571,25.3553146 C130.517704,25.8430465 130.329773,26.5410743 130.329773,27.449419 Z M147.30071,27.449419 C147.30071,28.559121 147.045662,29.4506725 146.535557,30.1241005 C146.025452,30.7975285 145.340848,31.1342375 144.481724,31.1342375 C143.56443,31.1342375 142.855215,30.8098335 142.35406,30.1610158 L142.293653,31 L141.152634,31 L141.152634,20.6905626 L142.394331,20.6905626 L142.394331,24.536466 C142.895487,23.914496 143.586803,23.6035156 144.4683,23.6035156 C145.349797,23.6035156 146.042232,23.9368687 146.545625,24.6035847 C147.049018,25.2703008 147.30071,26.1831065 147.30071,27.3420291 L147.30071,27.449419 Z M146.059014,27.3084697 C146.059014,26.4627694 145.895693,25.809487 145.569047,25.3486027 C145.242401,24.8877184 144.772574,24.6572797 144.159554,24.6572797 C143.340701,24.6572797 142.752299,25.0376154 142.394331,25.7982982 L142.394331,28.9394549 C142.774672,29.7001377 143.367549,30.0804734 144.172977,30.0804734 C144.7681,30.0804734 145.231214,29.8500347 145.562335,29.3891504 C145.893456,28.9282661 146.059014,28.2347128 146.059014,27.3084697 Z M152.128208,31.1342375 C151.143795,31.1342375 150.342853,30.8109521 149.725357,30.1643718 C149.107862,29.5177914 148.799119,28.6530871 148.799119,27.5702327 L148.799119,27.3420291 C148.799119,26.6216177 148.936711,25.978403 149.211899,25.4123655 C149.487087,24.846328 149.871897,24.4033488 150.366341,24.0834146 C150.860785,23.7634803 151.396611,23.6035156 151.973835,23.6035156 C152.917976,23.6035156 153.651801,23.914496 154.175329,24.536466 C154.698858,25.158436 154.960618,26.048869 154.960618,27.2077916 L154.960618,27.7246058 L150.040815,27.7246058 C150.058714,28.4405426 150.267898,29.0188765 150.668376,29.4596251 C151.068853,29.9003736 151.577831,30.1207446 152.195327,30.1207446 C152.633838,30.1207446 153.005225,30.0312538 153.309498,29.8522697 C153.613771,29.6732855 153.880006,29.436135 154.108211,29.1408111 L154.866652,29.7314559 C154.258106,30.6666483 153.3453,31.1342375 152.128208,31.1342375 Z M151.973835,24.6237204 C151.472679,24.6237204 151.052073,24.8060578 150.712003,25.170738 C150.371933,25.5354183 150.161629,26.0466342 150.081087,26.7044011 L153.718922,26.7044011 L153.718922,26.6104349 C153.683125,25.9795156 153.513093,25.4906724 153.20882,25.1438905 C152.904546,24.7971087 152.492889,24.6237204 151.973835,24.6237204 Z M165.045174,21.2208006 L165.045174,22.2745647 L164.81697,22.2745647 C163.850455,22.2924631 163.080835,22.5788335 162.508085,23.1336845 C161.935336,23.6885355 161.60422,24.4693422 161.514728,25.4761283 C162.029308,24.8854805 162.73181,24.590161 163.622256,24.590161 C164.472431,24.590161 165.151442,24.889955 165.65931,25.489552 C166.167178,26.089149 166.421108,26.863244 166.421108,27.8118602 C166.421108,28.8186462 166.147042,29.624063 165.598903,30.2281346 C165.050764,30.8322062 164.315821,31.1342375 163.394053,31.1342375 C162.45886,31.1342375 161.700426,30.7751558 161.118728,30.0569818 C160.537029,29.3388078 160.246184,28.4136971 160.246184,27.2816222 L160.246184,26.8050792 C160.246184,25.0062882 160.629876,23.6314865 161.39727,22.680633 C162.164665,21.7297796 163.306791,21.2431736 164.823682,21.2208006 L165.045174,21.2208006 Z M163.414188,25.6237895 C162.989101,25.6237895 162.597579,25.7513138 162.239611,26.0063663 C161.881642,26.2614187 161.633305,26.5813482 161.494593,26.9661641 L161.494593,27.4225715 C161.494593,28.2280004 161.675811,28.8768083 162.038254,29.3690148 C162.400697,29.8612213 162.852626,30.1073209 163.394053,30.1073209 C163.953378,30.1073209 164.393002,29.9014921 164.712936,29.4898285 C165.03287,29.0781649 165.192835,28.5389831 165.192835,27.872267 C165.192835,27.2010764 165.030633,26.6585387 164.706224,26.2446378 C164.381815,25.8307368 163.951141,25.6237895 163.414188,25.6237895 Z M174.834406,30.1207446 C175.277392,30.1207446 175.66444,29.9865085 175.99556,29.7180322 C176.326681,29.4495559 176.510137,29.1139656 176.545934,28.7112512 L177.720512,28.7112512 C177.698139,29.1273894 177.554953,29.523386 177.290952,29.8992528 C177.02695,30.2751196 176.67458,30.5749136 176.233832,30.7986438 C175.793083,31.022374 175.326613,31.1342375 174.834406,31.1342375 C173.845519,31.1342375 173.059119,30.8042403 172.475183,30.1442362 C171.891247,29.484232 171.599283,28.581494 171.599283,27.4359953 L171.599283,27.2279272 C171.599283,26.5209397 171.729045,25.8922672 171.988572,25.3418908 C172.248099,24.7915144 172.620604,24.3641961 173.106099,24.059923 C173.591593,23.7556499 174.165453,23.6035156 174.827694,23.6035156 C175.642072,23.6035156 176.318846,23.8473779 176.858036,24.3351098 C177.397226,24.8228417 177.684715,25.4559888 177.720512,26.23457 L176.545934,26.23457 C176.510137,25.7647365 176.332274,25.3788076 176.01234,25.0767718 C175.692406,24.774736 175.297528,24.6237204 174.827694,24.6237204 C174.196775,24.6237204 173.707932,24.8508031 173.36115,25.3049755 C173.014368,25.7591479 172.84098,26.4157862 172.84098,27.2749103 L172.84098,27.5098259 C172.84098,28.3465769 173.01325,28.9909103 173.357794,29.4428454 C173.702339,29.8947805 174.194538,30.1207446 174.834406,30.1207446 Z M180.608278,24.6170085 C181.158654,23.9413432 181.87458,23.6035156 182.756077,23.6035156 C184.290867,23.6035156 185.064962,24.4693386 185.078386,26.2010106 L185.078386,31 L183.836689,31 L183.836689,26.1942987 C183.832214,25.67077 183.71252,25.2837225 183.477604,25.0331446 C183.242687,24.7825668 182.876894,24.6572797 182.380212,24.6572797 C181.977498,24.6572797 181.62401,24.7646686 181.319736,24.9794497 C181.015463,25.1942307 180.778313,25.4761265 180.608278,25.8251457 L180.608278,31 L179.366581,31 L179.366581,20.6905626 L180.608278,20.6905626 L180.608278,24.6170085 Z M191.671106,31 C191.599512,30.8568127 191.541343,30.601764 191.496597,30.2348464 C190.919373,30.8344435 190.230294,31.1342375 189.42934,31.1342375 C188.713403,31.1342375 188.12612,30.9317646 187.667473,30.5268129 C187.208826,30.1218612 186.979506,29.608408 186.979506,28.986438 C186.979506,28.2302298 187.266995,27.6429468 187.841982,27.2245713 C188.416969,26.8061957 189.225741,26.5970111 190.268324,26.5970111 L191.476461,26.5970111 L191.476461,26.0265019 C191.476461,25.5924652 191.3467,25.2468072 191.087173,24.9895175 C190.827646,24.7322277 190.445073,24.6035847 189.939442,24.6035847 C189.496457,24.6035847 189.12507,24.7154482 188.825272,24.9391784 C188.525473,25.1629086 188.375576,25.4336182 188.375576,25.7513151 L187.127168,25.7513151 C187.127168,25.3888721 187.255811,25.0387396 187.5131,24.7009069 C187.77039,24.3630743 188.119404,24.0957207 188.560153,23.8988381 C189.000901,23.7019554 189.48527,23.6035156 190.013273,23.6035156 C190.850024,23.6035156 191.505544,23.8127003 191.979852,24.2310758 C192.45416,24.6494513 192.70026,25.225548 192.718158,25.9593832 L192.718158,29.3018961 C192.718158,29.9686121 192.803174,30.4988448 192.973209,30.89261 L192.973209,31 L191.671106,31 Z M189.610561,30.0536259 C189.999851,30.0536259 190.369001,29.9529488 190.71802,29.7515916 C191.067039,29.5502344 191.31985,29.2884739 191.476461,28.9663024 L191.476461,27.4762665 L190.50324,27.4762665 C188.981874,27.4762665 188.221203,27.921483 188.221203,28.8119293 C188.221203,29.2012199 188.350965,29.5054884 188.610492,29.7247441 C188.870019,29.9439997 189.203372,30.0536259 189.610561,30.0536259 Z M198.424911,24.8519241 C198.236978,24.8206018 198.033386,24.8049409 197.814131,24.8049409 C196.999753,24.8049409 196.447147,25.1517176 196.156298,25.8452813 L196.156298,31 L194.914601,31 L194.914601,23.7377531 L196.122738,23.7377531 L196.142874,24.5767373 C196.550063,23.9279196 197.127278,23.6035156 197.874537,23.6035156 C198.116166,23.6035156 198.299622,23.6348374 198.424911,23.6974819 L198.424911,24.8519241 Z M204.030986,31 C203.959392,30.8568127 203.901223,30.601764 203.856477,30.2348464 C203.279253,30.8344435 202.590174,31.1342375 201.78922,31.1342375 C201.073284,31.1342375 200.486,30.9317646 200.027353,30.5268129 C199.568707,30.1218612 199.339386,29.608408 199.339386,28.986438 C199.339386,28.2302298 199.626876,27.6429468 200.201862,27.2245713 C200.776849,26.8061957 201.585622,26.5970111 202.628204,26.5970111 L203.836342,26.5970111 L203.836342,26.0265019 C203.836342,25.5924652 203.70658,25.2468072 203.447053,24.9895175 C203.187526,24.7322277 202.804953,24.6035847 202.299323,24.6035847 C201.856337,24.6035847 201.48495,24.7154482 201.185152,24.9391784 C200.885353,25.1629086 200.735456,25.4336182 200.735456,25.7513151 L199.487048,25.7513151 C199.487048,25.3888721 199.615691,25.0387396 199.87298,24.7009069 C200.13027,24.3630743 200.479284,24.0957207 200.920033,23.8988381 C201.360781,23.7019554 201.84515,23.6035156 202.373153,23.6035156 C203.209904,23.6035156 203.865424,23.8127003 204.339732,24.2310758 C204.81404,24.6494513 205.06014,25.225548 205.078038,25.9593832 L205.078038,29.3018961 C205.078038,29.9686121 205.163054,30.4988448 205.333089,30.89261 L205.333089,31 L204.030986,31 Z M201.970441,30.0536259 C202.359731,30.0536259 202.728881,29.9529488 203.0779,29.7515916 C203.426919,29.5502344 203.67973,29.2884739 203.836342,28.9663024 L203.836342,27.4762665 L202.86312,27.4762665 C201.341754,27.4762665 200.581083,27.921483 200.581083,28.8119293 C200.581083,29.2012199 200.710845,29.5054884 200.970372,29.7247441 C201.229899,29.9439997 201.563252,30.0536259 201.970441,30.0536259 Z M210.187434,30.1207446 C210.63042,30.1207446 211.017468,29.9865085 211.348589,29.7180322 C211.679709,29.4495559 211.863165,29.1139656 211.898962,28.7112512 L213.07354,28.7112512 C213.051167,29.1273894 212.907982,29.523386 212.64398,29.8992528 C212.379978,30.2751196 212.027609,30.5749136 211.58686,30.7986438 C211.146111,31.022374 210.679641,31.1342375 210.187434,31.1342375 C209.198547,31.1342375 208.412147,30.8042403 207.828211,30.1442362 C207.244275,29.484232 206.952311,28.581494 206.952311,27.4359953 L206.952311,27.2279272 C206.952311,26.5209397 207.082073,25.8922672 207.3416,25.3418908 C207.601127,24.7915144 207.973632,24.3641961 208.459127,24.059923 C208.944622,23.7556499 209.518481,23.6035156 210.180723,23.6035156 C210.995101,23.6035156 211.671874,23.8473779 212.211064,24.3351098 C212.750254,24.8228417 213.037743,25.4559888 213.07354,26.23457 L211.898962,26.23457 C211.863165,25.7647365 211.685302,25.3788076 211.365368,25.0767718 C211.045434,24.774736 210.650556,24.6237204 210.180723,24.6237204 C209.549803,24.6237204 209.06096,24.8508031 208.714178,25.3049755 C208.367396,25.7591479 208.194008,26.4157862 208.194008,27.2749103 L208.194008,27.5098259 C208.194008,28.3465769 208.366278,28.9909103 208.710822,29.4428454 C209.055367,29.8947805 209.547566,30.1207446 210.187434,30.1207446 Z M216.40429,21.9792423 L216.40429,23.7377531 L217.760088,23.7377531 L217.760088,24.697551 L216.40429,24.697551 L216.40429,29.201218 C216.40429,29.4920673 216.464696,29.710201 216.58551,29.8556256 C216.706325,30.0010503 216.912153,30.0737615 217.203003,30.0737615 C217.34619,30.0737615 217.54307,30.0469143 217.793648,29.993219 L217.793648,31 C217.467001,31.0894921 217.149309,31.1342375 216.840562,31.1342375 C216.285711,31.1342375 215.867341,30.9664423 215.585441,30.630847 C215.303541,30.2952516 215.162593,29.8187134 215.162593,29.201218 L215.162593,24.697551 L213.840354,24.697551 L213.840354,23.7377531 L215.162593,23.7377531 L215.162593,21.9792423 L216.40429,21.9792423 Z M222.473484,31.1342375 C221.489071,31.1342375 220.688129,30.8109521 220.070633,30.1643718 C219.453138,29.5177914 219.144395,28.6530871 219.144395,27.5702327 L219.144395,27.3420291 C219.144395,26.6216177 219.281987,25.978403 219.557175,25.4123655 C219.832363,24.846328 220.217173,24.4033488 220.711617,24.0834146 C221.206061,23.7634803 221.741887,23.6035156 222.319111,23.6035156 C223.263252,23.6035156 223.997077,23.914496 224.520605,24.536466 C225.044134,25.158436 225.305894,26.048869 225.305894,27.2077916 L225.305894,27.7246058 L220.386091,27.7246058 C220.40399,28.4405426 220.613174,29.0188765 221.013651,29.4596251 C221.414129,29.9003736 221.923107,30.1207446 222.540603,30.1207446 C222.979114,30.1207446 223.350501,30.0312538 223.654774,29.8522697 C223.959047,29.6732855 224.225282,29.436135 224.453487,29.1408111 L225.211928,29.7314559 C224.603382,30.6666483 223.690576,31.1342375 222.473484,31.1342375 Z M222.319111,24.6237204 C221.817955,24.6237204 221.397349,24.8060578 221.057279,25.170738 C220.717209,25.5354183 220.506905,26.0466342 220.426363,26.7044011 L224.064198,26.7044011 L224.064198,26.6104349 C224.028401,25.9795156 223.858369,25.4906724 223.554096,25.1438905 C223.249822,24.7971087 222.838165,24.6237204 222.319111,24.6237204 Z M230.502545,24.8519241 C230.314612,24.8206018 230.11102,24.8049409 229.891765,24.8049409 C229.077387,24.8049409 228.524781,25.1517176 228.233932,25.8452813 L228.233932,31 L226.992235,31 L226.992235,23.7377531 L228.200373,23.7377531 L228.220508,24.5767373 C228.627697,23.9279196 229.204913,23.6035156 229.952171,23.6035156 C230.1938,23.6035156 230.377256,23.6348374 230.502545,23.6974819 L230.502545,24.8519241 Z M236.122044,29.0736924 C236.122044,28.738097 235.995638,28.4774552 235.742823,28.2917591 C235.490008,28.106063 235.049266,27.9460983 234.420584,27.8118602 C233.791902,27.677622 233.292991,27.5165387 232.923836,27.3286053 C232.554681,27.1406719 232.281734,26.916945 232.104988,26.657418 C231.928241,26.3978909 231.839869,26.0891478 231.839869,25.7311795 C231.839869,25.1360571 232.091561,24.6326716 232.594954,24.221008 C233.098347,23.8093443 233.741562,23.6035156 234.524618,23.6035156 C235.347945,23.6035156 236.01577,23.8160562 236.528112,24.2411436 C237.040454,24.666231 237.296622,25.2098873 237.296622,25.8721288 L236.048213,25.8721288 C236.048213,25.5320589 235.903909,25.2389766 235.615297,24.9928734 C235.326685,24.7467701 234.963129,24.6237204 234.524618,24.6237204 C234.072683,24.6237204 233.719194,24.7221602 233.464142,24.9190428 C233.209089,25.1159254 233.081565,25.3732113 233.081565,25.6909082 C233.081565,25.9907067 233.20014,26.2166709 233.437294,26.3688074 C233.674448,26.520944 234.102885,26.6663664 234.722618,26.8050792 C235.342351,26.9437919 235.844618,27.1093498 236.229434,27.3017578 C236.61425,27.4941658 236.899501,27.7257231 237.085198,27.9964367 C237.270894,28.2671503 237.36374,28.5971474 237.36374,28.986438 C237.36374,29.6352557 237.104217,30.1554207 236.585163,30.5469486 C236.066109,30.9384765 235.392691,31.1342375 234.564889,31.1342375 C233.983191,31.1342375 233.468619,31.0313231 233.021158,30.8254913 C232.573698,30.6196595 232.223565,30.3321705 231.97075,29.9630156 C231.717935,29.5938607 231.591529,29.1945082 231.591529,28.7649462 L232.833226,28.7649462 C232.855599,29.1810844 233.022275,29.5110816 233.33326,29.7549475 C233.644245,29.9988135 234.054784,30.1207446 234.564889,30.1207446 C235.034723,30.1207446 235.411702,30.0256607 235.69584,29.83549 C235.979977,29.6453193 236.122044,29.3913893 236.122044,29.0736924 Z M244.233308,31 L242.991611,31 L242.991611,20.6905626 L244.233308,20.6905626 L244.233308,31 Z M246.141141,27.3017578 C246.141141,26.5902957 246.28097,25.9504368 246.560633,25.382162 C246.840296,24.8138873 247.22958,24.3753826 247.728499,24.0666349 C248.227417,23.7578872 248.796802,23.6035156 249.436671,23.6035156 C250.425558,23.6035156 251.225382,23.9458177 251.836165,24.6304322 C252.446949,25.3150467 252.752336,26.2256151 252.752336,27.3621647 L252.752336,27.449419 C252.752336,28.1564065 252.616981,28.7906722 252.346268,29.3522351 C252.075554,29.913798 251.688507,30.351184 251.185114,30.6644063 C250.681721,30.9776287 250.103387,31.1342375 249.450094,31.1342375 C248.465681,31.1342375 247.668095,30.7919354 247.057311,30.1073209 C246.446528,29.4227064 246.141141,28.5166125 246.141141,27.3890122 L246.141141,27.3017578 Z M247.389549,27.449419 C247.389549,28.2548478 247.576361,28.9014185 247.949991,29.3891504 C248.32362,29.8768823 248.82365,30.1207446 249.450094,30.1207446 C250.081014,30.1207446 250.582162,29.8735264 250.953554,29.3790826 C251.324946,28.8846388 251.510639,28.1922041 251.510639,27.3017578 C251.510639,26.5052782 251.32159,25.8598262 250.943486,25.3653824 C250.565382,24.8709386 250.063115,24.6237204 249.436671,24.6237204 C248.82365,24.6237204 248.329213,24.8675827 247.953347,25.3553146 C247.57748,25.8430465 247.389549,26.5410743 247.389549,27.449419 Z M255.734068,23.7377531 L255.77434,24.6505679 C256.329191,23.9525295 257.054066,23.6035156 257.948987,23.6035156 C259.483776,23.6035156 260.257871,24.4693386 260.271295,26.2010106 L260.271295,31 L259.029598,31 L259.029598,26.1942987 C259.025124,25.67077 258.90543,25.2837225 258.670513,25.0331446 C258.435596,24.7825668 258.069803,24.6572797 257.573122,24.6572797 C257.170407,24.6572797 256.816919,24.7646686 256.512646,24.9794497 C256.208373,25.1942307 255.971222,25.4761265 255.801187,25.8251457 L255.801187,31 L254.559491,31 L254.559491,23.7377531 L255.734068,23.7377531 Z M262.098585,27.3084697 C262.098585,26.1763947 262.360345,25.2758941 262.883874,24.6069407 C263.407403,23.9379873 264.100956,23.6035156 264.964555,23.6035156 C265.850527,23.6035156 266.541843,23.9167332 267.038524,24.5431779 L267.098931,23.7377531 L268.233237,23.7377531 L268.233237,30.8254913 C268.233237,31.7651583 267.954697,32.5056942 267.397609,33.0471214 C266.840521,33.5885485 266.092154,33.859258 265.152487,33.859258 C264.628959,33.859258 264.116624,33.7473946 263.615468,33.5236644 C263.114313,33.2999341 262.73174,32.9934283 262.467738,32.6041377 L263.112078,31.8591198 C263.644556,32.5168867 264.295601,32.8457652 265.065233,32.8457652 C265.669305,32.8457652 266.14025,32.6757327 266.478082,32.3356628 C266.815915,31.9955928 266.984829,31.5168173 266.984829,30.8993219 L266.984829,30.2751177 C266.488148,30.8478671 265.810255,31.1342375 264.951131,31.1342375 C264.100956,31.1342375 263.412996,30.7919354 262.88723,30.1073209 C262.361464,29.4227064 262.098585,28.4897653 262.098585,27.3084697 Z M263.346993,27.449419 C263.346993,28.2682717 263.514789,28.9114864 263.850384,29.3790826 C264.185979,29.8466788 264.655806,30.0804734 265.259877,30.0804734 C266.042933,30.0804734 266.617911,29.7247476 266.984829,29.0132855 L266.984829,25.6976201 C266.604487,25.0040564 266.033984,24.6572797 265.273301,24.6572797 C264.669229,24.6572797 264.197166,24.8921929 263.857096,25.3620264 C263.517026,25.8318599 263.346993,26.5276505 263.346993,27.449419 Z M270.315579,32.9464433 L269.610832,32.4631884 C270.031445,31.8770152 270.250697,31.2729526 270.268595,30.6509826 L270.268595,29.5300997 L271.483445,29.5300997 L271.483445,30.5033214 C271.483445,30.9552564 271.3727,31.4071847 271.151207,31.8591198 C270.929714,32.3110548 270.651174,32.6734924 270.315579,32.9464433 Z M19.8526153,50.1207446 C20.2956011,50.1207446 20.6826486,49.9865085 21.0137694,49.7180322 C21.3448901,49.4495559 21.5283461,49.1139656 21.564143,48.7112512 L22.7387208,48.7112512 C22.7163478,49.1273894 22.5731626,49.523386 22.3091609,49.8992528 C22.0451592,50.2751196 21.6927894,50.5749136 21.2520409,50.7986438 C20.8112923,51.022374 20.3448218,51.1342375 19.8526153,51.1342375 C18.8637277,51.1342375 18.0773277,50.8042403 17.4933918,50.1442362 C16.9094559,49.484232 16.6174923,48.581494 16.6174923,47.4359953 L16.6174923,47.2279272 C16.6174923,46.5209397 16.7472539,45.8922672 17.006781,45.3418908 C17.2663081,44.7915144 17.6388133,44.3641961 18.1243079,44.059923 C18.6098025,43.7556499 19.1836619,43.6035156 19.8459034,43.6035156 C20.6602814,43.6035156 21.3370552,43.8473779 21.8762451,44.3351098 C22.4154349,44.8228417 22.702924,45.4559888 22.7387208,46.23457 L21.564143,46.23457 C21.5283461,45.7647365 21.3504833,45.3788076 21.030549,45.0767718 C20.7106148,44.774736 20.3157369,44.6237204 19.8459034,44.6237204 C19.2149842,44.6237204 18.7261409,44.8508031 18.3793591,45.3049755 C18.0325772,45.7591479 17.8591889,46.4157862 17.8591889,47.2749103 L17.8591889,47.5098259 C17.8591889,48.3465769 18.0314586,48.9909103 18.3760031,49.4428454 C18.7205477,49.8947805 19.2127468,50.1207446 19.8526153,50.1207446 Z M24.0559086,47.3017578 C24.0559086,46.5902957 24.1957379,45.9504368 24.4754007,45.382162 C24.7550635,44.8138873 25.1443483,44.3753826 25.6432667,44.0666349 C26.1421851,43.7578872 26.71157,43.6035156 27.3514384,43.6035156 C28.340326,43.6035156 29.1401496,43.9458177 29.7509331,44.6304322 C30.3617167,45.3150467 30.6671038,46.2256151 30.6671038,47.3621647 L30.6671038,47.449419 C30.6671038,48.1564065 30.5317491,48.7906722 30.2610355,49.3522351 C29.9903219,49.913798 29.6032744,50.351184 29.0998814,50.6644063 C28.5964884,50.9776287 28.0181544,51.1342375 27.3648622,51.1342375 C26.3804492,51.1342375 25.5828629,50.7919354 24.9720794,50.1073209 C24.3612958,49.4227064 24.0559086,48.5166125 24.0559086,47.3890122 L24.0559086,47.3017578 Z M25.3043171,47.449419 C25.3043171,48.2548478 25.491129,48.9014185 25.8647585,49.3891504 C26.238388,49.8768823 26.7384175,50.1207446 27.3648622,50.1207446 C27.9957814,50.1207446 28.4969296,49.8735264 28.8683218,49.3790826 C29.239714,48.8846388 29.4254073,48.1922041 29.4254073,47.3017578 C29.4254073,46.5052782 29.2363581,45.8598262 28.858254,45.3653824 C28.4801499,44.8709386 27.9778831,44.6237204 27.3514384,44.6237204 C26.7384176,44.6237204 26.2439812,44.8675827 25.8681144,45.3553146 C25.4922477,45.8430465 25.3043171,46.5410743 25.3043171,47.449419 Z M33.6421244,43.7377531 L33.6756838,44.5431779 C34.2081617,43.9167332 34.926325,43.6035156 35.8301951,43.6035156 C36.8459303,43.6035156 37.5372464,43.9928004 37.9041639,44.7713816 C38.1457926,44.4223624 38.4601289,44.1404666 38.8471821,43.9256855 C39.2342354,43.7109045 39.6917569,43.6035156 40.2197602,43.6035156 C41.8127195,43.6035156 42.6226107,44.4469659 42.6494584,46.1338919 L42.6494584,51 L41.4077618,51 L41.4077618,46.2077225 C41.4077618,45.6886683 41.2891866,45.3005022 41.0520325,45.0432124 C40.8148785,44.7859227 40.4166447,44.6572797 39.8573191,44.6572797 C39.3964348,44.6572797 39.0138619,44.7948718 38.7095887,45.0700599 C38.4053156,45.3452481 38.2285714,45.7155161 38.1793508,46.180875 L38.1793508,51 L36.9309423,51 L36.9309423,46.2412818 C36.9309423,45.1852752 36.4141332,44.6572797 35.3804996,44.6572797 C34.5661216,44.6572797 34.0090416,45.0040564 33.7092431,45.6976201 L33.7092431,51 L32.4675466,51 L32.4675466,43.7377531 L33.6421244,43.7377531 Z M50.9067232,47.449419 C50.9067232,48.5546464 50.6539119,49.4450793 50.1482815,50.1207446 C49.6426512,50.7964099 48.958047,51.1342375 48.0944483,51.1342375 C47.2129512,51.1342375 46.5193979,50.8545789 46.0137676,50.2952533 L46.0137676,53.7921393 L44.772071,53.7921393 L44.772071,43.7377531 L45.9063776,43.7377531 L45.9667845,44.5431779 C46.4724148,43.9167332 47.1749172,43.6035156 48.0743127,43.6035156 C48.9468606,43.6035156 49.637058,43.9323941 50.1449256,44.590161 C50.6527932,45.2479279 50.9067232,46.1629708 50.9067232,47.3353172 L50.9067232,47.449419 Z M49.6650267,47.3084697 C49.6650267,46.489617 49.4905197,45.8430464 49.1415005,45.3687383 C48.7924814,44.8944302 48.3137059,44.6572797 47.7051597,44.6572797 C46.9534261,44.6572797 46.3896344,44.9906328 46.0137676,45.6573489 L46.0137676,49.1273873 C46.3851598,49.7896288 46.953426,50.1207446 47.7185834,50.1207446 C48.3137058,50.1207446 48.7868881,49.8847127 49.1381446,49.412642 C49.4894011,48.9405712 49.6650267,48.2391874 49.6650267,47.3084697 Z M52.4051316,47.3017578 C52.4051316,46.5902957 52.5449609,45.9504368 52.8246237,45.382162 C53.1042865,44.8138873 53.4935713,44.3753826 53.9924897,44.0666349 C54.4914081,43.7578872 55.060793,43.6035156 55.7006614,43.6035156 C56.689549,43.6035156 57.4893726,43.9458177 58.1001561,44.6304322 C58.7109397,45.3150467 59.0163268,46.2256151 59.0163268,47.3621647 L59.0163268,47.449419 C59.0163268,48.1564065 58.8809721,48.7906722 58.6102585,49.3522351 C58.3395449,49.913798 57.9524974,50.351184 57.4491044,50.6644063 C56.9457114,50.9776287 56.3673775,51.1342375 55.7140852,51.1342375 C54.7296722,51.1342375 53.9320859,50.7919354 53.3213024,50.1073209 C52.7105188,49.4227064 52.4051316,48.5166125 52.4051316,47.3890122 L52.4051316,47.3017578 Z M53.6535401,47.449419 C53.6535401,48.2548478 53.840352,48.9014185 54.2139815,49.3891504 C54.587611,49.8768823 55.0876405,50.1207446 55.7140852,50.1207446 C56.3450044,50.1207446 56.8461526,49.8735264 57.2175448,49.3790826 C57.588937,48.8846388 57.7746303,48.1922041 57.7746303,47.3017578 C57.7746303,46.5052782 57.5855811,45.8598262 57.207477,45.3653824 C56.8293729,44.8709386 56.3271061,44.6237204 55.7006614,44.6237204 C55.0876406,44.6237204 54.5932042,44.8675827 54.2173374,45.3553146 C53.8414707,45.8430465 53.6535401,46.5410743 53.6535401,47.449419 Z M65.0519616,49.0736924 C65.0519616,48.738097 64.9255559,48.4774552 64.6727408,48.2917591 C64.4199256,48.106063 63.9791837,47.9460983 63.3505018,47.8118602 C62.7218198,47.677622 62.2229089,47.5165387 61.853754,47.3286053 C61.4845991,47.1406719 61.2116523,46.916945 61.0349055,46.657418 C60.8581586,46.3978909 60.7697865,46.0891478 60.7697865,45.7311795 C60.7697865,45.1360571 61.0214792,44.6326716 61.5248722,44.221008 C62.0282652,43.8093443 62.67148,43.6035156 63.4545358,43.6035156 C64.277863,43.6035156 64.9456877,43.8160562 65.45803,44.2411436 C65.9703722,44.666231 66.2265395,45.2098873 66.2265395,45.8721288 L64.978131,45.8721288 C64.978131,45.5320589 64.8338272,45.2389766 64.5452152,44.9928734 C64.2566032,44.7467701 63.893047,44.6237204 63.4545358,44.6237204 C63.0026007,44.6237204 62.6491123,44.7221602 62.3940598,44.9190428 C62.1390073,45.1159254 62.011483,45.3732113 62.011483,45.6909082 C62.011483,45.9907067 62.1300583,46.2166709 62.3672123,46.3688074 C62.6043664,46.520944 63.0328033,46.6663664 63.652536,46.8050792 C64.2722688,46.9437919 64.7745356,47.1093498 65.1593516,47.3017578 C65.5441676,47.4941658 65.8294194,47.7257231 66.0151155,47.9964367 C66.2008115,48.2671503 66.2936582,48.5971474 66.2936582,48.986438 C66.2936582,49.6352557 66.034135,50.1554207 65.5150809,50.5469486 C64.9960268,50.9384765 64.3226089,51.1342375 63.494807,51.1342375 C62.9131084,51.1342375 62.3985366,51.0313231 61.9510762,50.8254913 C61.5036157,50.6196595 61.1534832,50.3321705 60.900668,49.9630156 C60.6478528,49.5938607 60.5214472,49.1945082 60.5214472,48.7649462 L61.7631437,48.7649462 C61.7855167,49.1810844 61.9521933,49.5110816 62.2631783,49.7549475 C62.5741633,49.9988135 62.9847021,50.1207446 63.494807,50.1207446 C63.9646405,50.1207446 64.3416203,50.0256607 64.6257577,49.83549 C64.9098951,49.6453193 65.0519616,49.3913893 65.0519616,49.0736924 Z M71.1748508,51.1342375 C70.1904378,51.1342375 69.3894956,50.8109521 68.7720001,50.1643718 C68.1545047,49.5177914 67.8457616,48.6530871 67.8457616,47.5702327 L67.8457616,47.3420291 C67.8457616,46.6216177 67.9833536,45.978403 68.2585418,45.4123655 C68.53373,44.846328 68.9185402,44.4033488 69.412984,44.0834146 C69.9074278,43.7634803 70.4432537,43.6035156 71.0204777,43.6035156 C71.9646192,43.6035156 72.6984434,43.914496 73.2219721,44.536466 C73.7455009,45.158436 74.0072613,46.048869 74.0072613,47.2077916 L74.0072613,47.7246058 L69.0874582,47.7246058 C69.1053566,48.4405426 69.3145412,49.0188765 69.7150183,49.4596251 C70.1154954,49.9003736 70.6244741,50.1207446 71.2419695,50.1207446 C71.6804807,50.1207446 72.0518674,50.0312538 72.3561405,49.8522697 C72.6604136,49.6732855 72.9266486,49.436135 73.1548534,49.1408111 L73.9132951,49.7314559 C73.3047489,50.6666483 72.3919432,51.1342375 71.1748508,51.1342375 Z M71.0204777,44.6237204 C70.519322,44.6237204 70.0987154,44.8060578 69.7586455,45.170738 C69.4185756,45.5354183 69.2082723,46.0466342 69.1277294,46.7044011 L72.7655647,46.7044011 L72.7655647,46.6104349 C72.7297679,45.9795156 72.5597355,45.4906724 72.2554624,45.1438905 C71.9511893,44.7971087 71.5395318,44.6237204 71.0204777,44.6237204 Z M75.3915679,47.3084697 C75.3915679,46.1942931 75.6555656,45.298267 76.1835689,44.6203644 C76.7115723,43.9424618 77.4028883,43.6035156 78.2575378,43.6035156 C79.1077127,43.6035156 79.7811305,43.8943606 80.2778116,44.4760592 L80.2778116,40.6905626 L81.5195082,40.6905626 L81.5195082,51 L80.3784897,51 L80.3180829,50.2214227 C79.8214018,50.8299689 79.1300857,51.1342375 78.244114,51.1342375 C77.4028884,51.1342375 76.7171655,50.7896981 76.1869249,50.100609 C75.6566842,49.4115199 75.3915679,48.5121378 75.3915679,47.4024359 L75.3915679,47.3084697 Z M76.6332644,47.449419 C76.6332644,48.2727463 76.8032969,48.9170797 77.1433668,49.3824385 C77.4834368,49.8477974 77.9532632,50.0804734 78.5528602,50.0804734 C79.3403906,50.0804734 79.9153687,49.7269849 80.2778116,49.0199974 L80.2778116,45.6841963 C79.9064195,44.9995818 79.3359159,44.6572797 78.566284,44.6572797 C77.9577377,44.6572797 77.4834368,44.8921929 77.1433668,45.3620264 C76.8032969,45.8318599 76.6332644,46.5276505 76.6332644,47.449419 Z M87.0198538,47.3017578 C87.0198538,46.5902957 87.1596831,45.9504368 87.4393459,45.382162 C87.7190087,44.8138873 88.1082934,44.3753826 88.6072119,44.0666349 C89.1061303,43.7578872 89.6755152,43.6035156 90.3153836,43.6035156 C91.3042712,43.6035156 92.1040948,43.9458177 92.7148783,44.6304322 C93.3256618,45.3150467 93.631049,46.2256151 93.631049,47.3621647 L93.631049,47.449419 C93.631049,48.1564065 93.4956943,48.7906722 93.2249807,49.3522351 C92.9542671,49.913798 92.5672196,50.351184 92.0638266,50.6644063 C91.5604336,50.9776287 90.9820996,51.1342375 90.3288074,51.1342375 C89.3443943,51.1342375 88.546808,50.7919354 87.9360245,50.1073209 C87.325241,49.4227064 87.0198538,48.5166125 87.0198538,47.3890122 L87.0198538,47.3017578 Z M88.2682623,47.449419 C88.2682623,48.2548478 88.4550742,48.9014185 88.8287037,49.3891504 C89.2023332,49.8768823 89.7023627,50.1207446 90.3288074,50.1207446 C90.9597266,50.1207446 91.4608748,49.8735264 91.832267,49.3790826 C92.2036592,48.8846388 92.3893525,48.1922041 92.3893525,47.3017578 C92.3893525,46.5052782 92.2003032,45.8598262 91.8221992,45.3653824 C91.4440951,44.8709386 90.9418282,44.6237204 90.3153836,44.6237204 C89.7023628,44.6237204 89.2079264,44.8675827 88.8320596,45.3553146 C88.4561928,45.8430465 88.2682623,46.5410743 88.2682623,47.449419 Z M96.0489841,51 L96.0489841,44.697551 L94.9012538,44.697551 L94.9012538,43.7377531 L96.0489841,43.7377531 L96.0489841,42.9927352 C96.0489841,42.214154 96.2570501,41.6123287 96.6731883,41.1872412 C97.0893265,40.7621538 97.6777282,40.5496133 98.438411,40.5496133 C98.7247857,40.5496133 99.0089188,40.5876468 99.2908189,40.6637151 L99.2237002,41.6704961 C99.0133937,41.6302247 98.7896669,41.6100893 98.5525128,41.6100893 C98.1497984,41.6100893 97.8388181,41.7275459 97.6195624,41.9624626 C97.4003068,42.1973793 97.2906807,42.5340883 97.2906807,42.9725995 L97.2906807,43.7377531 L98.8411234,43.7377531 L98.8411234,44.697551 L97.2906807,44.697551 L97.2906807,51 L96.0489841,51 Z M103.784384,47.3017578 C103.784384,46.5902957 103.924213,45.9504368 104.203876,45.382162 C104.483538,44.8138873 104.872823,44.3753826 105.371742,44.0666349 C105.87066,43.7578872 106.440045,43.6035156 107.079913,43.6035156 C108.068801,43.6035156 108.868624,43.9458177 109.479408,44.6304322 C110.090192,45.3150467 110.395579,46.2256151 110.395579,47.3621647 L110.395579,47.449419 C110.395579,48.1564065 110.260224,48.7906722 109.98951,49.3522351 C109.718797,49.913798 109.331749,50.351184 108.828356,50.6644063 C108.324963,50.9776287 107.746629,51.1342375 107.093337,51.1342375 C106.108924,51.1342375 105.311338,50.7919354 104.700554,50.1073209 C104.089771,49.4227064 103.784384,48.5166125 103.784384,47.3890122 L103.784384,47.3017578 Z M105.032792,47.449419 C105.032792,48.2548478 105.219604,48.9014185 105.593233,49.3891504 C105.966863,49.8768823 106.466892,50.1207446 107.093337,50.1207446 C107.724256,50.1207446 108.225404,49.8735264 108.596797,49.3790826 C108.968189,48.8846388 109.153882,48.1922041 109.153882,47.3017578 C109.153882,46.5052782 108.964833,45.8598262 108.586729,45.3653824 C108.208625,44.8709386 107.706358,44.6237204 107.079913,44.6237204 C106.466892,44.6237204 105.972456,44.8675827 105.596589,45.3553146 C105.220723,45.8430465 105.032792,46.5410743 105.032792,47.449419 Z M113.377311,43.7377531 L113.417582,44.6505679 C113.972433,43.9525295 114.697308,43.6035156 115.592229,43.6035156 C117.127019,43.6035156 117.901114,44.4693386 117.914537,46.2010106 L117.914537,51 L116.672841,51 L116.672841,46.1942987 C116.668366,45.67077 116.548672,45.2837225 116.313756,45.0331446 C116.078839,44.7825668 115.713046,44.6572797 115.216364,44.6572797 C114.81365,44.6572797 114.460162,44.7646686 114.155888,44.9794497 C113.851615,45.1942307 113.614465,45.4761265 113.44443,45.8251457 L113.44443,51 L112.202733,51 L112.202733,43.7377531 L113.377311,43.7377531 Z M121.386237,51 L120.14454,51 L120.14454,40.6905626 L121.386237,40.6905626 L121.386237,51 Z M125.998954,49.1810823 L127.690346,43.7377531 L129.019297,43.7377531 L126.099632,52.1208828 C125.647697,53.3290261 124.929534,53.9330886 123.945121,53.9330886 L123.710206,53.912953 L123.247086,53.8256987 L123.247086,52.8189177 L123.58268,52.8457652 C124.003293,52.8457652 124.331053,52.7607489 124.565969,52.590714 C124.800886,52.420679 124.99441,52.1096986 125.146546,51.6577636 L125.421733,50.9194575 L122.83095,43.7377531 L124.186749,43.7377531 L125.998954,49.1810823 Z M135.204254,43.7377531 L135.244525,44.6505679 C135.799376,43.9525295 136.524251,43.6035156 137.419172,43.6035156 C138.953962,43.6035156 139.728057,44.4693386 139.74148,46.2010106 L139.74148,51 L138.499784,51 L138.499784,46.1942987 C138.495309,45.67077 138.375615,45.2837225 138.140699,45.0331446 C137.905782,44.7825668 137.539988,44.6572797 137.043307,44.6572797 C136.640593,44.6572797 136.287104,44.7646686 135.982831,44.9794497 C135.678558,45.1942307 135.441408,45.4761265 135.271373,45.8251457 L135.271373,51 L134.029676,51 L134.029676,43.7377531 L135.204254,43.7377531 Z M146.347624,50.2818296 C145.864367,50.8501043 145.155153,51.1342375 144.219961,51.1342375 C143.445854,51.1342375 142.856334,50.909392 142.451382,50.4596942 C142.04643,50.0099964 141.84172,49.344409 141.837245,48.4629119 L141.837245,43.7377531 L143.078942,43.7377531 L143.078942,48.4293525 C143.078942,49.5301053 143.526396,50.0804734 144.421317,50.0804734 C145.369933,50.0804734 146.000843,49.7269849 146.314065,49.0199974 L146.314065,43.7377531 L147.555762,43.7377531 L147.555762,51 L146.374472,51 L146.347624,50.2818296 Z M150.859664,43.7377531 L150.893223,44.5431779 C151.425701,43.9167332 152.143864,43.6035156 153.047735,43.6035156 C154.06347,43.6035156 154.754786,43.9928004 155.121703,44.7713816 C155.363332,44.4223624 155.677668,44.1404666 156.064722,43.9256855 C156.451775,43.7109045 156.909296,43.6035156 157.4373,43.6035156 C159.030259,43.6035156 159.84015,44.4469659 159.866998,46.1338919 L159.866998,51 L158.625301,51 L158.625301,46.2077225 C158.625301,45.6886683 158.506726,45.3005022 158.269572,45.0432124 C158.032418,44.7859227 157.634184,44.6572797 157.074859,44.6572797 C156.613974,44.6572797 156.231401,44.7948718 155.927128,45.0700599 C155.622855,45.3452481 155.446111,45.7155161 155.39689,46.180875 L155.39689,51 L154.148482,51 L154.148482,46.2412818 C154.148482,45.1852752 153.631673,44.6572797 152.598039,44.6572797 C151.783661,44.6572797 151.226581,45.0040564 150.926783,45.6976201 L150.926783,51 L149.685086,51 L149.685086,43.7377531 L150.859664,43.7377531 Z M165.003242,51.1342375 C164.018829,51.1342375 163.217886,50.8109521 162.600391,50.1643718 C161.982896,49.5177914 161.674152,48.6530871 161.674152,47.5702327 L161.674152,47.3420291 C161.674152,46.6216177 161.811744,45.978403 162.086933,45.4123655 C162.362121,44.846328 162.746931,44.4033488 163.241375,44.0834146 C163.735819,43.7634803 164.271645,43.6035156 164.848869,43.6035156 C165.79301,43.6035156 166.526834,43.914496 167.050363,44.536466 C167.573892,45.158436 167.835652,46.048869 167.835652,47.2077916 L167.835652,47.7246058 L162.915849,47.7246058 C162.933747,48.4405426 163.142932,49.0188765 163.543409,49.4596251 C163.943886,49.9003736 164.452865,50.1207446 165.07036,50.1207446 C165.508872,50.1207446 165.880258,50.0312538 166.184531,49.8522697 C166.488804,49.6732855 166.755039,49.436135 166.983244,49.1408111 L167.741686,49.7314559 C167.13314,50.6666483 166.220334,51.1342375 165.003242,51.1342375 Z M164.848869,44.6237204 C164.347713,44.6237204 163.927106,44.8060578 163.587036,45.170738 C163.246966,45.5354183 163.036663,46.0466342 162.95612,46.7044011 L166.593956,46.7044011 L166.593956,46.6104349 C166.558159,45.9795156 166.388126,45.4906724 166.083853,45.1438905 C165.77958,44.7971087 165.367923,44.6237204 164.848869,44.6237204 Z M173.032303,44.8519241 C172.844369,44.8206018 172.640778,44.8049409 172.421522,44.8049409 C171.607144,44.8049409 171.054539,45.1517176 170.76369,45.8452813 L170.76369,51 L169.521993,51 L169.521993,43.7377531 L170.73013,43.7377531 L170.750266,44.5767373 C171.157455,43.9279196 171.73467,43.6035156 172.481929,43.6035156 C172.723558,43.6035156 172.907014,43.6348374 173.032303,43.6974819 L173.032303,44.8519241 Z M178.638378,51 C178.566784,50.8568127 178.508615,50.601764 178.463869,50.2348464 C177.886645,50.8344435 177.197566,51.1342375 176.396612,51.1342375 C175.680675,51.1342375 175.093392,50.9317646 174.634745,50.5268129 C174.176098,50.1218612 173.946778,49.608408 173.946778,48.986438 C173.946778,48.2302298 174.234267,47.6429468 174.809254,47.2245713 C175.384241,46.8061957 176.193013,46.5970111 177.235596,46.5970111 L178.443733,46.5970111 L178.443733,46.0265019 C178.443733,45.5924652 178.313972,45.2468072 178.054445,44.9895175 C177.794918,44.7322277 177.412345,44.6035847 176.906714,44.6035847 C176.463729,44.6035847 176.092342,44.7154482 175.792543,44.9391784 C175.492745,45.1629086 175.342848,45.4336182 175.342848,45.7513151 L174.094439,45.7513151 C174.094439,45.3888721 174.223082,45.0387396 174.480372,44.7009069 C174.737662,44.3630743 175.086676,44.0957207 175.527424,43.8988381 C175.968173,43.7019554 176.452542,43.6035156 176.980545,43.6035156 C177.817296,43.6035156 178.472816,43.8127003 178.947124,44.2310758 C179.421432,44.6494513 179.667531,45.225548 179.68543,45.9593832 L179.68543,49.3018961 C179.68543,49.9686121 179.770446,50.4988448 179.940481,50.89261 L179.940481,51 L178.638378,51 Z M176.577833,50.0536259 C176.967123,50.0536259 177.336273,49.9529488 177.685292,49.7515916 C178.034311,49.5502344 178.287122,49.2884739 178.443733,48.9663024 L178.443733,47.4762665 L177.470512,47.4762665 C175.949146,47.4762665 175.188475,47.921483 175.188475,48.8119293 C175.188475,49.2012199 175.318236,49.5054884 175.577763,49.7247441 C175.837291,49.9439997 176.170644,50.0536259 176.577833,50.0536259 Z M183.23096,51 L181.989263,51 L181.989263,40.6905626 L183.23096,40.6905626 L183.23096,51 Z M189.696154,49.0736924 C189.696154,48.738097 189.569749,48.4774552 189.316934,48.2917591 C189.064118,48.106063 188.623376,47.9460983 187.994694,47.8118602 C187.366013,47.677622 186.867102,47.5165387 186.497947,47.3286053 C186.128792,47.1406719 185.855845,46.916945 185.679098,46.657418 C185.502351,46.3978909 185.413979,46.0891478 185.413979,45.7311795 C185.413979,45.1360571 185.665672,44.6326716 186.169065,44.221008 C186.672458,43.8093443 187.315673,43.6035156 188.098729,43.6035156 C188.922056,43.6035156 189.58988,43.8160562 190.102223,44.2411436 C190.614565,44.666231 190.870732,45.2098873 190.870732,45.8721288 L189.622324,45.8721288 C189.622324,45.5320589 189.47802,45.2389766 189.189408,44.9928734 C188.900796,44.7467701 188.53724,44.6237204 188.098729,44.6237204 C187.646793,44.6237204 187.293305,44.7221602 187.038253,44.9190428 C186.7832,45.1159254 186.655676,45.3732113 186.655676,45.6909082 C186.655676,45.9907067 186.774251,46.2166709 187.011405,46.3688074 C187.248559,46.520944 187.676996,46.6663664 188.296729,46.8050792 C188.916462,46.9437919 189.418728,47.1093498 189.803544,47.3017578 C190.18836,47.4941658 190.473612,47.7257231 190.659308,47.9964367 C190.845004,48.2671503 190.937851,48.5971474 190.937851,48.986438 C190.937851,49.6352557 190.678328,50.1554207 190.159274,50.5469486 C189.640219,50.9384765 188.966802,51.1342375 188.139,51.1342375 C187.557301,51.1342375 187.042729,51.0313231 186.595269,50.8254913 C186.147808,50.6196595 185.797676,50.3321705 185.544861,49.9630156 C185.292046,49.5938607 185.16564,49.1945082 185.16564,48.7649462 L186.407336,48.7649462 C186.429709,49.1810844 186.596386,49.5110816 186.907371,49.7549475 C187.218356,49.9988135 187.628895,50.1207446 188.139,50.1207446 C188.608833,50.1207446 188.985813,50.0256607 189.26995,49.83549 C189.554088,49.6453193 189.696154,49.3913893 189.696154,49.0736924 Z M192.765141,52.9464433 L192.060394,52.4631884 C192.481007,51.8770152 192.70026,51.2729526 192.718158,50.6509826 L192.718158,49.5300997 L193.933007,49.5300997 L193.933007,50.5033214 C193.933007,50.9552564 193.822262,51.4071847 193.600769,51.8591198 C193.379276,52.3110548 193.100736,52.6734924 192.765141,52.9464433 Z M205.83648,49.2884723 L207.232549,43.7377531 L208.474246,43.7377531 L206.360006,51 L205.353225,51 L203.588002,45.4962639 L201.869763,51 L200.862982,51 L198.755454,43.7377531 L199.990438,43.7377531 L201.420067,49.1743705 L203.111459,43.7377531 L204.111528,43.7377531 L205.83648,49.2884723 Z M211.335165,51 L210.093468,51 L210.093468,43.7377531 L211.335165,43.7377531 L211.335165,51 Z M209.99279,41.8114455 C209.99279,41.6100882 210.054315,41.4400558 210.177367,41.3013431 C210.300418,41.1626303 210.482756,41.093275 210.724384,41.093275 C210.966013,41.093275 211.149469,41.1626303 211.274758,41.3013431 C211.400047,41.4400558 211.46269,41.6100882 211.46269,41.8114455 C211.46269,42.0128027 211.400047,42.1805978 211.274758,42.314836 C211.149469,42.4490741 210.966013,42.5161922 210.724384,42.5161922 C210.482756,42.5161922 210.300418,42.4490741 210.177367,42.314836 C210.054315,42.1805978 209.99279,42.0128027 209.99279,41.8114455 Z M215.256559,41.9792423 L215.256559,43.7377531 L216.612358,43.7377531 L216.612358,44.697551 L215.256559,44.697551 L215.256559,49.201218 C215.256559,49.4920673 215.316966,49.710201 215.43778,49.8556256 C215.558594,50.0010503 215.764423,50.0737615 216.055272,50.0737615 C216.19846,50.0737615 216.395339,50.0469143 216.645917,49.993219 L216.645917,51 C216.319271,51.0894921 216.001579,51.1342375 215.692831,51.1342375 C215.13798,51.1342375 214.719611,50.9664423 214.437711,50.630847 C214.155811,50.2952516 214.014863,49.8187134 214.014863,49.201218 L214.014863,44.697551 L212.692624,44.697551 L212.692624,43.7377531 L214.014863,43.7377531 L214.014863,41.9792423 L215.256559,41.9792423 Z M219.553819,44.6170085 C220.104195,43.9413432 220.820121,43.6035156 221.701619,43.6035156 C223.236408,43.6035156 224.010503,44.4693386 224.023927,46.2010106 L224.023927,51 L222.78223,51 L222.78223,46.1942987 C222.777756,45.67077 222.658062,45.2837225 222.423145,45.0331446 C222.188228,44.7825668 221.822435,44.6572797 221.325754,44.6572797 C220.923039,44.6572797 220.569551,44.7646686 220.265278,44.9794497 C219.961005,45.1942307 219.723854,45.4761265 219.553819,45.8251457 L219.553819,51 L218.312122,51 L218.312122,40.6905626 L219.553819,40.6905626 L219.553819,44.6170085 Z M230.960613,43.7377531 L231.000884,44.6505679 C231.555735,43.9525295 232.28061,43.6035156 233.175531,43.6035156 C234.710321,43.6035156 235.484416,44.4693386 235.49784,46.2010106 L235.49784,51 L234.256143,51 L234.256143,46.1942987 C234.251668,45.67077 234.131974,45.2837225 233.897058,45.0331446 C233.662141,44.7825668 233.296348,44.6572797 232.799666,44.6572797 C232.396952,44.6572797 232.043464,44.7646686 231.73919,44.9794497 C231.434917,45.1942307 231.197767,45.4761265 231.027732,45.8251457 L231.027732,51 L229.786035,51 L229.786035,43.7377531 L230.960613,43.7377531 Z M237.29157,47.3017578 C237.29157,46.5902957 237.4314,45.9504368 237.711062,45.382162 C237.990725,44.8138873 238.38001,44.3753826 238.878928,44.0666349 C239.377847,43.7578872 239.947232,43.6035156 240.5871,43.6035156 C241.575988,43.6035156 242.375811,43.9458177 242.986595,44.6304322 C243.597378,45.3150467 243.902766,46.2256151 243.902766,47.3621647 L243.902766,47.449419 C243.902766,48.1564065 243.767411,48.7906722 243.496697,49.3522351 C243.225984,49.913798 242.838936,50.351184 242.335543,50.6644063 C241.83215,50.9776287 241.253816,51.1342375 240.600524,51.1342375 C239.616111,51.1342375 238.818525,50.7919354 238.207741,50.1073209 C237.596958,49.4227064 237.29157,48.5166125 237.29157,47.3890122 L237.29157,47.3017578 Z M238.539979,47.449419 C238.539979,48.2548478 238.726791,48.9014185 239.10042,49.3891504 C239.47405,49.8768823 239.974079,50.1207446 240.600524,50.1207446 C241.231443,50.1207446 241.732591,49.8735264 242.103984,49.3790826 C242.475376,48.8846388 242.661069,48.1922041 242.661069,47.3017578 C242.661069,46.5052782 242.47202,45.8598262 242.093916,45.3653824 C241.715812,44.8709386 241.213545,44.6237204 240.5871,44.6237204 C239.974079,44.6237204 239.479643,44.8675827 239.103776,45.3553146 C238.727909,45.8430465 238.539979,46.5410743 238.539979,47.449419 Z M252.87315,44.8519241 C252.685216,44.8206018 252.481625,44.8049409 252.262369,44.8049409 C251.447991,44.8049409 250.895386,45.1517176 250.604536,45.8452813 L250.604536,51 L249.36284,51 L249.36284,43.7377531 L250.570977,43.7377531 L250.591113,44.5767373 C250.998302,43.9279196 251.575517,43.6035156 252.322776,43.6035156 C252.564405,43.6035156 252.747861,43.6348374 252.87315,43.6974819 L252.87315,44.8519241 Z M257.150274,51.1342375 C256.165861,51.1342375 255.364918,50.8109521 254.747423,50.1643718 C254.129928,49.5177914 253.821184,48.6530871 253.821184,47.5702327 L253.821184,47.3420291 C253.821184,46.6216177 253.958777,45.978403 254.233965,45.4123655 C254.509153,44.846328 254.893963,44.4033488 255.388407,44.0834146 C255.882851,43.7634803 256.418677,43.6035156 256.995901,43.6035156 C257.940042,43.6035156 258.673866,43.914496 259.197395,44.536466 C259.720924,45.158436 259.982684,46.048869 259.982684,47.2077916 L259.982684,47.7246058 L255.062881,47.7246058 C255.080779,48.4405426 255.289964,49.0188765 255.690441,49.4596251 C256.090918,49.9003736 256.599897,50.1207446 257.217392,50.1207446 C257.655904,50.1207446 258.02729,50.0312538 258.331563,49.8522697 C258.635836,49.6732855 258.902071,49.436135 259.130276,49.1408111 L259.888718,49.7314559 C259.280172,50.6666483 258.367366,51.1342375 257.150274,51.1342375 Z M256.995901,44.6237204 C256.494745,44.6237204 256.074138,44.8060578 255.734068,45.170738 C255.393998,45.5354183 255.183695,46.0466342 255.103152,46.7044011 L258.740988,46.7044011 L258.740988,46.6104349 C258.705191,45.9795156 258.535158,45.4906724 258.230885,45.1438905 C257.926612,44.7971087 257.514955,44.6237204 256.995901,44.6237204 Z M267.803677,47.449419 C267.803677,48.5546464 267.550866,49.4450793 267.045236,50.1207446 C266.539605,50.7964099 265.855001,51.1342375 264.991402,51.1342375 C264.109905,51.1342375 263.416352,50.8545789 262.910722,50.2952533 L262.910722,53.7921393 L261.669025,53.7921393 L261.669025,43.7377531 L262.803332,43.7377531 L262.863739,44.5431779 C263.369369,43.9167332 264.071871,43.6035156 264.971267,43.6035156 C265.843815,43.6035156 266.534012,43.9323941 267.04188,44.590161 C267.549747,45.2479279 267.803677,46.1629708 267.803677,47.3353172 L267.803677,47.449419 Z M266.561981,47.3084697 C266.561981,46.489617 266.387474,45.8430464 266.038455,45.3687383 C265.689435,44.8944302 265.21066,44.6572797 264.602114,44.6572797 C263.85038,44.6572797 263.286588,44.9906328 262.910722,45.6573489 L262.910722,49.1273873 C263.282114,49.7896288 263.85038,50.1207446 264.615537,50.1207446 C265.21066,50.1207446 265.683842,49.8847127 266.035099,49.412642 C266.386355,48.9405712 266.561981,48.2391874 266.561981,47.3084697 Z M272.644599,51.1342375 C271.660186,51.1342375 270.859243,50.8109521 270.241748,50.1643718 C269.624253,49.5177914 269.315509,48.6530871 269.315509,47.5702327 L269.315509,47.3420291 C269.315509,46.6216177 269.453101,45.978403 269.72829,45.4123655 C270.003478,44.846328 270.388288,44.4033488 270.882732,44.0834146 C271.377176,43.7634803 271.913002,43.6035156 272.490226,43.6035156 C273.434367,43.6035156 274.168191,43.914496 274.69172,44.536466 C275.215249,45.158436 275.477009,46.048869 275.477009,47.2077916 L275.477009,47.7246058 L270.557206,47.7246058 C270.575104,48.4405426 270.784289,49.0188765 271.184766,49.4596251 C271.585243,49.9003736 272.094222,50.1207446 272.711717,50.1207446 C273.150229,50.1207446 273.521615,50.0312538 273.825888,49.8522697 C274.130161,49.6732855 274.396396,49.436135 274.624601,49.1408111 L275.383043,49.7314559 C274.774497,50.6666483 273.861691,51.1342375 272.644599,51.1342375 Z M272.490226,44.6237204 C271.98907,44.6237204 271.568463,44.8060578 271.228393,45.170738 C270.888323,45.5354183 270.67802,46.0466342 270.597477,46.7044011 L274.235313,46.7044011 L274.235313,46.6104349 C274.199516,45.9795156 274.029483,45.4906724 273.72521,45.1438905 C273.420937,44.7971087 273.00928,44.6237204 272.490226,44.6237204 Z M281.646881,51 C281.575288,50.8568127 281.517119,50.601764 281.472373,50.2348464 C280.895149,50.8344435 280.20607,51.1342375 279.405116,51.1342375 C278.689179,51.1342375 278.101896,50.9317646 277.643249,50.5268129 C277.184602,50.1218612 276.955282,49.608408 276.955282,48.986438 C276.955282,48.2302298 277.242771,47.6429468 277.817758,47.2245713 C278.392744,46.8061957 279.201517,46.5970111 280.2441,46.5970111 L281.452237,46.5970111 L281.452237,46.0265019 C281.452237,45.5924652 281.322475,45.2468072 281.062948,44.9895175 C280.803421,44.7322277 280.420848,44.6035847 279.915218,44.6035847 C279.472232,44.6035847 279.100846,44.7154482 278.801047,44.9391784 C278.501249,45.1629086 278.351352,45.4336182 278.351352,45.7513151 L277.102943,45.7513151 C277.102943,45.3888721 277.231586,45.0387396 277.488876,44.7009069 C277.746166,44.3630743 278.09518,44.0957207 278.535928,43.8988381 C278.976677,43.7019554 279.461045,43.6035156 279.989049,43.6035156 C280.8258,43.6035156 281.481319,43.8127003 281.955628,44.2310758 C282.429936,44.6494513 282.676035,45.225548 282.693934,45.9593832 L282.693934,49.3018961 C282.693934,49.9686121 282.77895,50.4988448 282.948985,50.89261 L282.948985,51 L281.646881,51 Z M279.586336,50.0536259 C279.975627,50.0536259 280.344776,49.9529488 280.693795,49.7515916 C281.042815,49.5502344 281.295626,49.2884739 281.452237,48.9663024 L281.452237,47.4762665 L280.479015,47.4762665 C278.95765,47.4762665 278.196979,47.921483 278.196979,48.8119293 C278.196979,49.2012199 278.32674,49.5054884 278.586267,49.7247441 C278.845794,49.9439997 279.179147,50.0536259 279.586336,50.0536259 Z M286.575057,41.9792423 L286.575057,43.7377531 L287.930855,43.7377531 L287.930855,44.697551 L286.575057,44.697551 L286.575057,49.201218 C286.575057,49.4920673 286.635463,49.710201 286.756278,49.8556256 C286.877092,50.0010503 287.082921,50.0737615 287.37377,50.0737615 C287.516957,50.0737615 287.713837,50.0469143 287.964415,49.993219 L287.964415,51 C287.637769,51.0894921 287.320077,51.1342375 287.011329,51.1342375 C286.456478,51.1342375 286.038109,50.9664423 285.756209,50.630847 C285.474308,50.2952516 285.333361,49.8187134 285.333361,49.201218 L285.333361,44.697551 L284.011121,44.697551 L284.011121,43.7377531 L285.333361,43.7377531 L285.333361,41.9792423 L286.575057,41.9792423 Z M290.979707,51 L289.73801,51 L289.73801,43.7377531 L290.979707,43.7377531 L290.979707,51 Z M289.637332,41.8114455 C289.637332,41.6100882 289.698857,41.4400558 289.821908,41.3013431 C289.94496,41.1626303 290.127298,41.093275 290.368926,41.093275 C290.610555,41.093275 290.794011,41.1626303 290.9193,41.3013431 C291.044589,41.4400558 291.107232,41.6100882 291.107232,41.8114455 C291.107232,42.0128027 291.044589,42.1805978 290.9193,42.314836 C290.794011,42.4490741 290.610555,42.5161922 290.368926,42.5161922 C290.127298,42.5161922 289.94496,42.4490741 289.821908,42.314836 C289.698857,42.1805978 289.637332,42.0128027 289.637332,41.8114455 Z M294.390999,43.7377531 L294.43127,44.6505679 C294.986121,43.9525295 295.710996,43.6035156 296.605917,43.6035156 C298.140707,43.6035156 298.914802,44.4693386 298.928225,46.2010106 L298.928225,51 L297.686529,51 L297.686529,46.1942987 C297.682054,45.67077 297.56236,45.2837225 297.327444,45.0331446 C297.092527,44.7825668 296.726733,44.6572797 296.230052,44.6572797 C295.827338,44.6572797 295.473849,44.7646686 295.169576,44.9794497 C294.865303,45.1942307 294.628153,45.4761265 294.458118,45.8251457 L294.458118,51 L293.216421,51 L293.216421,43.7377531 L294.390999,43.7377531 Z M300.755516,47.3084697 C300.755516,46.1763947 301.017276,45.2758941 301.540805,44.6069407 C302.064333,43.9379873 302.757887,43.6035156 303.621485,43.6035156 C304.507457,43.6035156 305.198773,43.9167332 305.695454,44.5431779 L305.755861,43.7377531 L306.890168,43.7377531 L306.890168,50.8254913 C306.890168,51.7651583 306.611628,52.5056942 306.05454,53.0471214 C305.497451,53.5885485 304.749085,53.859258 303.809418,53.859258 C303.285889,53.859258 302.773555,53.7473946 302.272399,53.5236644 C301.771243,53.2999341 301.38867,52.9934283 301.124669,52.6041377 L301.769008,51.8591198 C302.301486,52.5168867 302.952532,52.8457652 303.722164,52.8457652 C304.326235,52.8457652 304.79718,52.6757327 305.135013,52.3356628 C305.472846,51.9955928 305.641759,51.5168173 305.641759,50.8993219 L305.641759,50.2751177 C305.145078,50.8478671 304.467186,51.1342375 303.608062,51.1342375 C302.757887,51.1342375 302.069927,50.7919354 301.544161,50.1073209 C301.018395,49.4227064 300.755516,48.4897653 300.755516,47.3084697 Z M302.003924,47.449419 C302.003924,48.2682717 302.171719,48.9114864 302.507314,49.3790826 C302.84291,49.8466788 303.312736,50.0804734 303.916808,50.0804734 C304.699864,50.0804734 305.274842,49.7247476 305.641759,49.0132855 L305.641759,45.6976201 C305.261418,45.0040564 304.690914,44.6572797 303.930232,44.6572797 C303.32616,44.6572797 302.854096,44.8921929 302.514026,45.3620264 C302.173956,45.8318599 302.003924,46.5276505 302.003924,47.449419 Z M21.1681424,69.0736924 C21.1681424,68.738097 21.0417368,68.4774552 20.7889216,68.2917591 C20.5361064,68.106063 20.0953645,67.9460983 19.4666826,67.8118602 C18.8380006,67.677622 18.3390897,67.5165387 17.9699348,67.3286053 C17.6007799,67.1406719 17.3278332,66.916945 17.1510863,66.657418 C16.9743394,66.3978909 16.8859673,66.0891478 16.8859673,65.7311795 C16.8859673,65.1360571 17.13766,64.6326716 17.641053,64.221008 C18.144446,63.8093443 18.7876608,63.6035156 19.5707166,63.6035156 C20.3940438,63.6035156 21.0618686,63.8160562 21.5742108,64.2411436 C22.086553,64.666231 22.3427203,65.2098873 22.3427203,65.8721288 L21.0943118,65.8721288 C21.0943118,65.5320589 20.950008,65.2389766 20.661396,64.9928734 C20.372784,64.7467701 20.0092278,64.6237204 19.5707166,64.6237204 C19.1187815,64.6237204 18.7652931,64.7221602 18.5102406,64.9190428 C18.2551882,65.1159254 18.1276638,65.3732113 18.1276638,65.6909082 C18.1276638,65.9907067 18.2462391,66.2166709 18.4833931,66.3688074 C18.7205472,66.520944 19.1489841,66.6663664 19.7687169,66.8050792 C20.3884496,66.9437919 20.8907164,67.1093498 21.2755324,67.3017578 C21.6603484,67.4941658 21.9456002,67.7257231 22.1312963,67.9964367 C22.3169923,68.2671503 22.409839,68.5971474 22.409839,68.986438 C22.409839,69.6352557 22.1503158,70.1554207 21.6312617,70.5469486 C21.1122076,70.9384765 20.4387897,71.1342375 19.6109878,71.1342375 C19.0292892,71.1342375 18.5147174,71.0313231 18.067257,70.8254913 C17.6197965,70.6196595 17.269664,70.3321705 17.0168488,69.9630156 C16.7640336,69.5938607 16.637628,69.1945082 16.637628,68.7649462 L17.8793245,68.7649462 C17.9016975,69.1810844 18.0683741,69.5110816 18.3793591,69.7549475 C18.6903441,69.9988135 19.1008829,70.1207446 19.6109878,70.1207446 C20.0808213,70.1207446 20.4578011,70.0256607 20.7419385,69.83549 C21.0260759,69.6453193 21.1681424,69.3913893 21.1681424,69.0736924 Z M27.2910316,71.1342375 C26.3066186,71.1342375 25.5056764,70.8109521 24.8881809,70.1643718 C24.2706855,69.5177914 23.9619424,68.6530871 23.9619424,67.5702327 L23.9619424,67.3420291 C23.9619424,66.6216177 24.0995344,65.978403 24.3747226,65.4123655 C24.6499108,64.846328 25.034721,64.4033488 25.5291648,64.0834146 C26.0236086,63.7634803 26.5594345,63.6035156 27.1366585,63.6035156 C28.0808001,63.6035156 28.8146242,63.914496 29.3381529,64.536466 C29.8616817,65.158436 30.1234421,66.048869 30.1234421,67.2077916 L30.1234421,67.7246058 L25.203639,67.7246058 C25.2215374,68.4405426 25.430722,69.0188765 25.8311991,69.4596251 C26.2316762,69.9003736 26.7406549,70.1207446 27.3581503,70.1207446 C27.7966616,70.1207446 28.1680482,70.0312538 28.4723213,69.8522697 C28.7765944,69.6732855 29.0428294,69.436135 29.2710342,69.1408111 L30.0294759,69.7314559 C29.4209297,70.6666483 28.508124,71.1342375 27.2910316,71.1342375 Z M27.1366585,64.6237204 C26.6355028,64.6237204 26.2148963,64.8060578 25.8748263,65.170738 C25.5347564,65.5354183 25.3244531,66.0466342 25.2439102,66.7044011 L28.8817455,66.7044011 L28.8817455,66.6104349 C28.8459487,65.9795156 28.6759163,65.4906724 28.3716432,65.1438905 C28.0673701,64.7971087 27.6557126,64.6237204 27.1366585,64.6237204 Z M31.5077487,67.3084697 C31.5077487,66.1674455 31.7695091,65.2647076 32.2930379,64.6002288 C32.8165666,63.93575 33.519069,63.6035156 34.4005661,63.6035156 C35.2596902,63.6035156 35.9375826,63.8921233 36.4342637,64.4693473 L36.4879587,63.7377531 L37.6289771,63.7377531 L37.6289771,73.7921393 L36.3872806,73.7921393 L36.3872806,70.3288127 C35.8861249,70.8657652 35.2194188,71.1342375 34.3871423,71.1342375 C33.5101198,71.1342375 32.8109734,70.793054 32.2896819,70.1106768 C31.7683905,69.4282996 31.5077487,68.5233244 31.5077487,67.395724 L31.5077487,67.3084697 Z M32.7494453,67.449419 C32.7494453,68.2816955 32.9250709,68.9349779 33.2763273,69.409286 C33.6275838,69.8835941 34.1007661,70.1207446 34.6958885,70.1207446 C35.4341983,70.1207446 35.99799,69.7941034 36.3872806,69.1408111 L36.3872806,65.5835182 C35.9935154,64.9436498 35.4341982,64.6237204 34.7093123,64.6237204 C34.1097152,64.6237204 33.633177,64.8619895 33.2796832,65.3385349 C32.9261895,65.8150803 32.7494453,66.5187013 32.7494453,67.449419 Z M44.3559349,70.2818296 C43.8726776,70.8501043 43.1634634,71.1342375 42.228271,71.1342375 C41.4541645,71.1342375 40.8646441,70.909392 40.4596924,70.4596942 C40.0547407,70.0099964 39.8500306,69.344409 39.845556,68.4629119 L39.845556,63.7377531 L41.0872526,63.7377531 L41.0872526,68.4293525 C41.0872526,69.5301053 41.5347063,70.0804734 42.4296272,70.0804734 C43.3782434,70.0804734 44.0091532,69.7269849 44.3223755,69.0199974 L44.3223755,63.7377531 L45.5640721,63.7377531 L45.5640721,71 L44.3827824,71 L44.3559349,70.2818296 Z M50.7137396,71.1342375 C49.7293266,71.1342375 48.9283844,70.8109521 48.3108889,70.1643718 C47.6933935,69.5177914 47.3846504,68.6530871 47.3846504,67.5702327 L47.3846504,67.3420291 C47.3846504,66.6216177 47.5222424,65.978403 47.7974306,65.4123655 C48.0726188,64.846328 48.457429,64.4033488 48.9518728,64.0834146 C49.4463166,63.7634803 49.9821425,63.6035156 50.5593665,63.6035156 C51.5035081,63.6035156 52.2373322,63.914496 52.7608609,64.536466 C53.2843897,65.158436 53.5461501,66.048869 53.5461501,67.2077916 L53.5461501,67.7246058 L48.626347,67.7246058 C48.6442454,68.4405426 48.85343,69.0188765 49.2539071,69.4596251 C49.6543842,69.9003736 50.1633629,70.1207446 50.7808583,70.1207446 C51.2193696,70.1207446 51.5907562,70.0312538 51.8950293,69.8522697 C52.1993024,69.6732855 52.4655374,69.436135 52.6937422,69.1408111 L53.4521839,69.7314559 C52.8436377,70.6666483 51.930832,71.1342375 50.7137396,71.1342375 Z M50.5593665,64.6237204 C50.0582108,64.6237204 49.6376043,64.8060578 49.2975343,65.170738 C48.9574644,65.5354183 48.7471611,66.0466342 48.6666182,66.7044011 L52.3044536,66.7044011 L52.3044536,66.6104349 C52.2686567,65.9795156 52.0986243,65.4906724 51.7943512,65.1438905 C51.4900781,64.7971087 51.0784206,64.6237204 50.5593665,64.6237204 Z M56.4070688,63.7377531 L56.4473401,64.6505679 C57.002191,63.9525295 57.7270661,63.6035156 58.621987,63.6035156 C60.1567764,63.6035156 60.9308714,64.4693386 60.9442952,66.2010106 L60.9442952,71 L59.7025986,71 L59.7025986,66.1942987 C59.698124,65.67077 59.5784301,65.2837225 59.3435134,65.0331446 C59.1085967,64.7825668 58.7428032,64.6572797 58.2461221,64.6572797 C57.8434077,64.6572797 57.4899192,64.7646686 57.1856461,64.9794497 C56.881373,65.1942307 56.6442225,65.4761265 56.4741876,65.8251457 L56.4741876,71 L55.232491,71 L55.232491,63.7377531 L56.4070688,63.7377531 Z M65.9798608,70.1207446 C66.4228467,70.1207446 66.8098942,69.9865085 67.1410149,69.7180322 C67.4721357,69.4495559 67.6555917,69.1139656 67.6913885,68.7112512 L68.8659664,68.7112512 C68.8435933,69.1273894 68.7004081,69.523386 68.4364065,69.8992528 C68.1724048,70.2751196 67.820035,70.5749136 67.3792864,70.7986438 C66.9385379,71.022374 66.4720673,71.1342375 65.9798608,71.1342375 C64.9909732,71.1342375 64.2045733,70.8042403 63.6206374,70.1442362 C63.0367015,69.484232 62.7447379,68.581494 62.7447379,67.4359953 L62.7447379,67.2279272 C62.7447379,66.5209397 62.8744995,65.8922672 63.1340266,65.3418908 C63.3935536,64.7915144 63.7660589,64.3641961 64.2515535,64.059923 C64.7370481,63.7556499 65.3109075,63.6035156 65.973149,63.6035156 C66.787527,63.6035156 67.4643008,63.8473779 68.0034906,64.3351098 C68.5426805,64.8228417 68.8301695,65.4559888 68.8659664,66.23457 L67.6913885,66.23457 C67.6555917,65.7647365 67.4777288,65.3788076 67.1577946,65.0767718 C66.8378604,64.774736 66.4429824,64.6237204 65.973149,64.6237204 C65.3422297,64.6237204 64.8533865,64.8508031 64.5066046,65.3049755 C64.1598228,65.7591479 63.9864345,66.4157862 63.9864345,67.2749103 L63.9864345,67.5098259 C63.9864345,68.3465769 64.1587042,68.9909103 64.5032487,69.4428454 C64.8477933,69.8947805 65.3399924,70.1207446 65.9798608,70.1207446 Z M73.5256671,71.1342375 C72.5412541,71.1342375 71.7403119,70.8109521 71.1228165,70.1643718 C70.505321,69.5177914 70.196578,68.6530871 70.196578,67.5702327 L70.196578,67.3420291 C70.196578,66.6216177 70.33417,65.978403 70.6093582,65.4123655 C70.8845463,64.846328 71.2693566,64.4033488 71.7638004,64.0834146 C72.2582442,63.7634803 72.79407,63.6035156 73.371294,63.6035156 C74.3154356,63.6035156 75.0492597,63.914496 75.5727885,64.536466 C76.0963172,65.158436 76.3580776,66.048869 76.3580776,67.2077916 L76.3580776,67.7246058 L71.4382745,67.7246058 C71.4561729,68.4405426 71.6653576,69.0188765 72.0658347,69.4596251 C72.4663118,69.9003736 72.9752904,70.1207446 73.5927858,70.1207446 C74.0312971,70.1207446 74.4026837,70.0312538 74.7069568,69.8522697 C75.0112299,69.6732855 75.2774649,69.436135 75.5056697,69.1408111 L76.2641114,69.7314559 C75.6555652,70.6666483 74.7427596,71.1342375 73.5256671,71.1342375 Z M73.371294,64.6237204 C72.8701383,64.6237204 72.4495318,64.8060578 72.1094618,65.170738 C71.7693919,65.5354183 71.5590886,66.0466342 71.4785458,66.7044011 L75.1163811,66.7044011 L75.1163811,66.6104349 C75.0805842,65.9795156 74.9105518,65.4906724 74.6062787,65.1438905 C74.3020056,64.7971087 73.8903482,64.6237204 73.371294,64.6237204 Z M82.2728987,69.0736924 C82.2728987,68.738097 82.146493,68.4774552 81.8936779,68.2917591 C81.6408627,68.106063 81.2001208,67.9460983 80.5714388,67.8118602 C79.9427569,67.677622 79.443846,67.5165387 79.0746911,67.3286053 C78.7055362,67.1406719 78.4325894,66.916945 78.2558425,66.657418 C78.0790957,66.3978909 77.9907235,66.0891478 77.9907235,65.7311795 C77.9907235,65.1360571 78.2424163,64.6326716 78.7458093,64.221008 C79.2492023,63.8093443 79.8924171,63.6035156 80.6754729,63.6035156 C81.4988001,63.6035156 82.1666248,63.8160562 82.678967,64.2411436 C83.1913093,64.666231 83.4474765,65.2098873 83.4474765,65.8721288 L82.1990681,65.8721288 C82.1990681,65.5320589 82.0547643,65.2389766 81.7661523,64.9928734 C81.4775403,64.7467701 81.1139841,64.6237204 80.6754729,64.6237204 C80.2235378,64.6237204 79.8700493,64.7221602 79.6149969,64.9190428 C79.3599444,65.1159254 79.2324201,65.3732113 79.2324201,65.6909082 C79.2324201,65.9907067 79.3509953,66.2166709 79.5881494,66.3688074 C79.8253034,66.520944 80.2537404,66.6663664 80.8734731,66.8050792 C81.4932059,66.9437919 81.9954727,67.1093498 82.3802887,67.3017578 C82.7651047,67.4941658 83.0503564,67.7257231 83.2360525,67.9964367 C83.4217486,68.2671503 83.5145953,68.5971474 83.5145953,68.986438 C83.5145953,69.6352557 83.2550721,70.1554207 82.736018,70.5469486 C82.2169638,70.9384765 81.5435459,71.1342375 80.7157441,71.1342375 C80.1340455,71.1342375 79.6194737,71.0313231 79.1720132,70.8254913 C78.7245528,70.6196595 78.3744202,70.3321705 78.1216051,69.9630156 C77.8687899,69.5938607 77.7423842,69.1945082 77.7423842,68.7649462 L78.9840808,68.7649462 C79.0064538,69.1810844 79.1731303,69.5110816 79.4841154,69.7549475 C79.7951004,69.9988135 80.2056392,70.1207446 80.7157441,70.1207446 C81.1855776,70.1207446 81.5625574,70.0256607 81.8466948,69.83549 C82.1308321,69.6453193 82.2728987,69.3913893 82.2728987,69.0736924 Z M85.4090042,70.3489483 C85.4090042,70.1341673 85.4727664,69.9551858 85.6002926,69.8119984 C85.7278188,69.6688111 85.9191053,69.5972185 86.1741578,69.5972185 C86.4292102,69.5972185 86.622734,69.6688111 86.7547348,69.8119984 C86.8867357,69.9551858 86.9527351,70.1341673 86.9527351,70.3489483 C86.9527351,70.5547801 86.8867357,70.7270498 86.7547348,70.8657625 C86.622734,71.0044753 86.4292102,71.0738306 86.1741578,71.0738306 C85.9191053,71.0738306 85.7278188,71.0044753 85.6002926,70.8657625 C85.4727664,70.7270498 85.4090042,70.5547801 85.4090042,70.3489483 Z"/>
    </g>
  </g>
</svg>
