<svg xmlns="http://www.w3.org/2000/svg" width="379" height="179" viewBox="0 0 379 179">
  <g fill="none" fill-rule="evenodd">
    <rect width="379" height="179" fill="#FFF" fill-opacity=".01" fill-rule="nonzero"/>
    <g transform="translate(24 69)">
      <g transform="translate(.637)">
        <rect width="328.411" height="48" fill="#25333D" rx="4"/>
        <rect width="69.691" height="48" x="251.079"/>
        <path fill="#89CBDF" d="M279.776669,19.046875 L279.776669,25.6982422 C279.776669,26.7555391 279.438293,27.5929331 278.761532,28.2104492 C278.084771,28.8279653 277.183575,29.1367188 276.057919,29.1367188 C274.91859,29.1367188 274.013977,28.8325226 273.344052,28.2241211 C272.674126,27.6157196 272.339169,26.7714898 272.339169,25.6914062 L272.339169,19.046875 L274.061825,19.046875 L274.061825,25.7050781 C274.061825,26.370446 274.230443,26.878579 274.567684,27.2294922 C274.904926,27.5804054 275.401665,27.7558594 276.057919,27.7558594 C277.388655,27.7558594 278.054012,27.0540435 278.054012,25.6503906 L278.054012,19.046875 L279.776669,19.046875 Z M290.26788,29 L288.538387,29 L284.101864,21.9384766 L284.101864,29 L282.372372,29 L282.372372,19.046875 L284.101864,19.046875 L288.552059,26.1357422 L288.552059,19.046875 L290.26788,19.046875 L290.26788,29 Z M293.061825,29 L293.061825,19.046875 L296.001278,19.046875 C296.88084,19.046875 297.661268,19.2428366 298.342587,19.6347656 C299.023905,20.0266947 299.551406,20.5826787 299.925106,21.3027344 C300.298806,22.0227901 300.485653,22.8476516 300.485653,23.7773438 L300.485653,24.2763672 C300.485653,25.2197313 300.297667,26.0491501 299.921688,26.7646484 C299.54571,27.4801468 299.010233,28.0315736 298.315243,28.4189453 C297.620252,28.806317 296.823874,29 295.926083,29 L293.061825,29 Z M294.791317,20.4414062 L294.791317,27.6191406 L295.919247,27.6191406 C296.826152,27.6191406 297.522272,27.3354521 298.007626,26.7680664 C298.49298,26.2006808 298.74021,25.386073 298.749325,24.3242188 L298.749325,23.7705078 C298.749325,22.6904243 298.514627,21.8655627 298.045223,21.2958984 C297.57582,20.7262341 296.894512,20.4414062 296.001278,20.4414062 L294.791317,20.4414062 Z M310.901669,24.2832031 C310.901669,25.2584684 310.733051,26.1140914 310.395809,26.8500977 C310.058568,27.5861039 309.576639,28.1512025 308.950009,28.5454102 C308.323378,28.9396179 307.602194,29.1367188 306.786434,29.1367188 C305.97979,29.1367188 305.260884,28.9396179 304.629696,28.5454102 C303.998508,28.1512025 303.510883,27.5895219 303.166805,26.8603516 C302.822728,26.1311812 302.648414,25.2903693 302.643856,24.3378906 L302.643856,23.7773438 C302.643856,22.8066358 302.815892,21.9498735 303.15997,21.2070312 C303.504047,20.464189 303.989393,19.8956725 304.616024,19.5014648 C305.242655,19.1072571 305.961561,18.9101562 306.772762,18.9101562 C307.583964,18.9101562 308.30287,19.1049785 308.929501,19.4946289 C309.556132,19.8842793 310.040339,20.4448206 310.382137,21.1762695 C310.723936,21.9077185 310.897111,22.7587842 310.901669,23.7294922 L310.901669,24.2832031 Z M309.172177,23.7636719 C309.172177,22.6608018 308.963683,21.8154326 308.546688,21.2275391 C308.129694,20.6396455 307.538391,20.3457031 306.772762,20.3457031 C306.025363,20.3457031 305.440896,20.6385062 305.019345,21.2241211 C304.597793,21.809736 304.382463,22.6380155 304.373348,23.7089844 L304.373348,24.2832031 C304.373348,25.3769586 304.5864,26.2223277 305.012509,26.8193359 C305.438617,27.4163441 306.02992,27.7148438 306.786434,27.7148438 C307.552063,27.7148438 308.141087,27.42318 308.553524,26.8398438 C308.965961,26.2565075 309.172177,25.4043025 309.172177,24.2832031 L309.172177,23.7636719 Z"/>
      </g>
      <path fill="#F3F6FA" d="M23.5306527,26.4494881 L19.43641,26.4494881 L18.5168834,29 L17.1879325,29 L20.919734,19.2275125 L22.0473287,19.2275125 L25.7858421,29 L24.4636031,29 L23.5306527,26.4494881 Z M19.8256987,25.3890122 L23.1480759,25.3890122 L21.4835314,20.8182264 L19.8256987,25.3890122 Z M30.6670347,22.8519241 C30.4791013,22.8206018 30.2755099,22.8049409 30.0562543,22.8049409 C29.2418762,22.8049409 28.6892708,23.1517176 28.3984215,23.8452813 L28.3984215,29 L27.156725,29 L27.156725,21.7377531 L28.3648622,21.7377531 L28.3849978,22.5767373 C28.7921868,21.9279196 29.3694021,21.6035156 30.1166611,21.6035156 C30.3582898,21.6035156 30.5417458,21.6348374 30.6670347,21.6974819 L30.6670347,22.8519241 Z M34.8434806,28.1207446 C35.2864665,28.1207446 35.6735139,27.9865085 36.0046347,27.7180322 C36.3357554,27.4495559 36.5192115,27.1139656 36.5550083,26.7112512 L37.7295861,26.7112512 C37.7072131,27.1273894 37.5640279,27.523386 37.3000262,27.8992528 C37.0360246,28.2751196 36.6836547,28.5749136 36.2429062,28.7986438 C35.8021576,29.022374 35.3356871,29.1342375 34.8434806,29.1342375 C33.854593,29.1342375 33.068193,28.8042403 32.4842571,28.1442362 C31.9003212,27.484232 31.6083577,26.581494 31.6083577,25.4359953 L31.6083577,25.2279272 C31.6083577,24.5209397 31.7381193,23.8922672 31.9976463,23.3418908 C32.2571734,22.7915144 32.6296786,22.3641961 33.1151732,22.059923 C33.6006678,21.7556499 34.1745273,21.6035156 34.8367687,21.6035156 C35.6511468,21.6035156 36.3279206,21.8473779 36.8671104,22.3351098 C37.4063003,22.8228417 37.6937893,23.4559888 37.7295861,24.23457 L36.5550083,24.23457 C36.5192115,23.7647365 36.3413486,23.3788076 36.0214144,23.0767718 C35.7014801,22.774736 35.3066022,22.6237204 34.8367687,22.6237204 C34.2058495,22.6237204 33.7170063,22.8508031 33.3702244,23.3049755 C33.0234426,23.7591479 32.8500542,24.4157862 32.8500542,25.2749103 L32.8500542,25.5098259 C32.8500542,26.3465769 33.0223239,26.9909103 33.3668685,27.4428454 C33.711413,27.8947805 34.2036121,28.1207446 34.8434806,28.1207446 Z M40.6173523,22.6170085 C41.1677287,21.9413432 41.8836547,21.6035156 42.7651518,21.6035156 C44.2999412,21.6035156 45.0740361,22.4693386 45.0874599,24.2010106 L45.0874599,29 L43.8457634,29 L43.8457634,24.1942987 C43.8412888,23.67077 43.7215949,23.2837225 43.4866782,23.0331446 C43.2517614,22.7825668 42.885968,22.6572797 42.3892869,22.6572797 C41.9865725,22.6572797 41.633084,22.7646686 41.3288109,22.9794497 C41.0245378,23.1942307 40.7873873,23.4761265 40.6173523,23.8251457 L40.6173523,29 L39.3756558,29 L39.3756558,18.6905626 L40.6173523,18.6905626 L40.6173523,22.6170085 Z M48.5457354,29 L47.3040388,29 L47.3040388,21.7377531 L48.5457354,21.7377531 L48.5457354,29 Z M47.2033607,19.8114455 C47.2033607,19.6100882 47.2648856,19.4400558 47.3879372,19.3013431 C47.5109889,19.1626303 47.6933263,19.093275 47.9349549,19.093275 C48.1765836,19.093275 48.3600396,19.1626303 48.4853285,19.3013431 C48.6106175,19.4400558 48.673261,19.6100882 48.673261,19.8114455 C48.673261,20.0128027 48.6106175,20.1805978 48.4853285,20.314836 C48.3600396,20.4490741 48.1765836,20.5161922 47.9349549,20.5161922 C47.6933263,20.5161922 47.5109889,20.4490741 47.3879372,20.314836 C47.2648856,20.1805978 47.2033607,20.0128027 47.2033607,19.8114455 Z M53.1785886,27.3153198 L54.9773707,21.7377531 L56.2459147,21.7377531 L53.6417079,29 L52.6953338,29 L50.0642794,21.7377531 L51.3328235,21.7377531 L53.1785886,27.3153198 Z M60.6170049,29.1342375 C59.6325919,29.1342375 58.8316497,28.8109521 58.2141543,28.1643718 C57.5966589,27.5177914 57.2879158,26.6530871 57.2879158,25.5702327 L57.2879158,25.3420291 C57.2879158,24.6216177 57.4255078,23.978403 57.700696,23.4123655 C57.9758842,22.846328 58.3606944,22.4033488 58.8551382,22.0834146 C59.349582,21.7634803 59.8854079,21.6035156 60.4626319,21.6035156 C61.4067734,21.6035156 62.1405976,21.914496 62.6641263,22.536466 C63.187655,23.158436 63.4494155,24.048869 63.4494155,25.2077916 L63.4494155,25.7246058 L58.5296124,25.7246058 C58.5475108,26.4405426 58.7566954,27.0188765 59.1571725,27.4596251 C59.5576496,27.9003736 60.0666283,28.1207446 60.6841237,28.1207446 C61.1226349,28.1207446 61.4940215,28.0312538 61.7982946,27.8522697 C62.1025678,27.6732855 62.3688027,27.436135 62.5970076,27.1408111 L63.3554493,27.7314559 C62.746903,28.6666483 61.8340974,29.1342375 60.6170049,29.1342375 Z M60.4626319,22.6237204 C59.9614762,22.6237204 59.5408696,22.8060578 59.2007997,23.170738 C58.8607297,23.5354183 58.6504265,24.0466342 58.5698836,24.7044011 L62.2077189,24.7044011 L62.2077189,24.6104349 C62.1719221,23.9795156 62.0018897,23.4906724 61.6976165,23.1438905 C61.3933434,22.7971087 60.981686,22.6237204 60.4626319,22.6237204 Z M64.8337221,25.3084697 C64.8337221,24.1942931 65.0977198,23.298267 65.6257231,22.6203644 C66.1537265,21.9424618 66.8450425,21.6035156 67.699692,21.6035156 C68.5498668,21.6035156 69.2232847,21.8943606 69.7199658,22.4760592 L69.7199658,18.6905626 L70.9616624,18.6905626 L70.9616624,29 L69.8206439,29 L69.7602371,28.2214227 C69.263556,28.8299689 68.5722399,29.1342375 67.6862682,29.1342375 C66.8450426,29.1342375 66.1593197,28.7896981 65.6290791,28.100609 C65.0988384,27.4115199 64.8337221,26.5121378 64.8337221,25.4024359 L64.8337221,25.3084697 Z M66.0754186,25.449419 C66.0754186,26.2727463 66.2454511,26.9170797 66.585521,27.3824385 C66.9255909,27.8477974 67.3954174,28.0804734 67.9950144,28.0804734 C68.7825448,28.0804734 69.3575229,27.7269849 69.7199658,27.0199974 L69.7199658,23.6841963 C69.3485736,22.9995818 68.7780701,22.6572797 68.0084381,22.6572797 C67.3998919,22.6572797 66.9255909,22.8921929 66.585521,23.3620264 C66.2454511,23.8318599 66.0754186,24.5276505 66.0754186,25.449419 Z M78.6500787,19.2275125 L81.8449304,27.201218 L85.0397821,19.2275125 L86.7110385,19.2275125 L86.7110385,29 L85.4223589,29 L85.4223589,25.1943678 L85.5431726,21.0867014 L82.3348971,29 L81.3482518,29 L78.1466882,21.106837 L78.2742138,25.1943678 L78.2742138,29 L76.9855341,29 L76.9855341,19.2275125 L78.6500787,19.2275125 Z M92.0553504,29.1342375 C91.0709374,29.1342375 90.2699951,28.8109521 89.6524997,28.1643718 C89.0350043,27.5177914 88.7262612,26.6530871 88.7262612,25.5702327 L88.7262612,25.3420291 C88.7262612,24.6216177 88.8638532,23.978403 89.1390414,23.4123655 C89.4142296,22.846328 89.7990398,22.4033488 90.2934836,22.0834146 C90.7879274,21.7634803 91.3237533,21.6035156 91.9009773,21.6035156 C92.8451188,21.6035156 93.578943,21.914496 94.1024717,22.536466 C94.6260004,23.158436 94.8877609,24.048869 94.8877609,25.2077916 L94.8877609,25.7246058 L89.9679578,25.7246058 C89.9858562,26.4405426 90.1950408,27.0188765 90.5955179,27.4596251 C90.995995,27.9003736 91.5049737,28.1207446 92.1224691,28.1207446 C92.5609803,28.1207446 92.9323669,28.0312538 93.2366401,27.8522697 C93.5409132,27.6732855 93.8071481,27.436135 94.035353,27.1408111 L94.7937947,27.7314559 C94.1852484,28.6666483 93.2724428,29.1342375 92.0553504,29.1342375 Z M91.9009773,22.6237204 C91.3998216,22.6237204 90.979215,22.8060578 90.6391451,23.170738 C90.2990751,23.5354183 90.0887719,24.0466342 90.008229,24.7044011 L93.6460643,24.7044011 L93.6460643,24.6104349 C93.6102675,23.9795156 93.4402351,23.4906724 93.135962,23.1438905 C92.8316888,22.7971087 92.4200314,22.6237204 91.9009773,22.6237204 Z M99.5877329,29.1342375 C98.6033199,29.1342375 97.8023777,28.8109521 97.1848822,28.1643718 C96.5673868,27.5177914 96.2586437,26.6530871 96.2586437,25.5702327 L96.2586437,25.3420291 C96.2586437,24.6216177 96.3962358,23.978403 96.6714239,23.4123655 C96.9466121,22.846328 97.3314223,22.4033488 97.8258661,22.0834146 C98.32031,21.7634803 98.8561358,21.6035156 99.4333598,21.6035156 C100.377501,21.6035156 101.111326,21.914496 101.634854,22.536466 C102.158383,23.158436 102.420143,24.048869 102.420143,25.2077916 L102.420143,25.7246058 L97.5003403,25.7246058 C97.5182387,26.4405426 97.7274233,27.0188765 98.1279004,27.4596251 C98.5283776,27.9003736 99.0373562,28.1207446 99.6548516,28.1207446 C100.093363,28.1207446 100.464749,28.0312538 100.769023,27.8522697 C101.073296,27.6732855 101.339531,27.436135 101.567736,27.1408111 L102.326177,27.7314559 C101.717631,28.6666483 100.804825,29.1342375 99.5877329,29.1342375 Z M99.4333598,22.6237204 C98.9322041,22.6237204 98.5115976,22.8060578 98.1715276,23.170738 C97.8314577,23.5354183 97.6211544,24.0466342 97.5406115,24.7044011 L101.178447,24.7044011 L101.178447,24.6104349 C101.14265,23.9795156 100.972618,23.4906724 100.668344,23.1438905 C100.364071,22.7971087 99.9524139,22.6237204 99.4333598,22.6237204 Z M105.791165,19.9792423 L105.791165,21.7377531 L107.146963,21.7377531 L107.146963,22.697551 L105.791165,22.697551 L105.791165,27.201218 C105.791165,27.4920673 105.851571,27.710201 105.972385,27.8556256 C106.093199,28.0010503 106.299028,28.0737615 106.589877,28.0737615 C106.733065,28.0737615 106.929944,28.0469143 107.180522,27.993219 L107.180522,29 C106.853876,29.0894921 106.536184,29.1342375 106.227436,29.1342375 C105.672585,29.1342375 105.254216,28.9664423 104.972316,28.630847 C104.690416,28.2952516 104.549468,27.8187134 104.549468,27.201218 L104.549468,22.697551 L103.227229,22.697551 L103.227229,21.7377531 L104.549468,21.7377531 L104.549468,19.9792423 L105.791165,19.9792423 Z M110.195814,29 L108.954118,29 L108.954118,21.7377531 L110.195814,21.7377531 L110.195814,29 Z M108.853439,19.8114455 C108.853439,19.6100882 108.914964,19.4400558 109.038016,19.3013431 C109.161068,19.1626303 109.343405,19.093275 109.585034,19.093275 C109.826662,19.093275 110.010118,19.1626303 110.135407,19.3013431 C110.260696,19.4400558 110.32334,19.6100882 110.32334,19.8114455 C110.32334,20.0128027 110.260696,20.1805978 110.135407,20.314836 C110.010118,20.4490741 109.826662,20.5161922 109.585034,20.5161922 C109.343405,20.5161922 109.161068,20.4490741 109.038016,20.314836 C108.914964,20.1805978 108.853439,20.0128027 108.853439,19.8114455 Z M113.607106,21.7377531 L113.647378,22.6505679 C114.202229,21.9525295 114.927104,21.6035156 115.822025,21.6035156 C117.356814,21.6035156 118.130909,22.4693386 118.144333,24.2010106 L118.144333,29 L116.902636,29 L116.902636,24.1942987 C116.898162,23.67077 116.778468,23.2837225 116.543551,23.0331446 C116.308634,22.7825668 115.942841,22.6572797 115.44616,22.6572797 C115.043445,22.6572797 114.689957,22.7646686 114.385684,22.9794497 C114.081411,23.1942307 113.84426,23.4761265 113.674225,23.8251457 L113.674225,29 L112.432529,29 L112.432529,21.7377531 L113.607106,21.7377531 Z M119.971623,25.3084697 C119.971623,24.1763947 120.233383,23.2758941 120.756912,22.6069407 C121.280441,21.9379873 121.973994,21.6035156 122.837593,21.6035156 C123.723565,21.6035156 124.414881,21.9167332 124.911562,22.5431779 L124.971969,21.7377531 L126.106275,21.7377531 L126.106275,28.8254913 C126.106275,29.7651583 125.827735,30.5056942 125.270647,31.0471214 C124.713559,31.5885485 123.965192,31.859258 123.025525,31.859258 C122.501997,31.859258 121.989662,31.7473946 121.488506,31.5236644 C120.987351,31.2999341 120.604778,30.9934283 120.340776,30.6041377 L120.985116,29.8591198 C121.517594,30.5168867 122.168639,30.8457652 122.938271,30.8457652 C123.542343,30.8457652 124.013288,30.6757327 124.35112,30.3356628 C124.688953,29.9955928 124.857867,29.5168173 124.857867,28.8993219 L124.857867,28.2751177 C124.361186,28.8478671 123.683293,29.1342375 122.824169,29.1342375 C121.973994,29.1342375 121.286034,28.7919354 120.760268,28.1073209 C120.234502,27.4227064 119.971623,26.4897653 119.971623,25.3084697 Z M121.220031,25.449419 C121.220031,26.2682717 121.387827,26.9114864 121.723422,27.3790826 C122.059017,27.8466788 122.528844,28.0804734 123.132915,28.0804734 C123.915971,28.0804734 124.490949,27.7247476 124.857867,27.0132855 L124.857867,23.6976201 C124.477525,23.0040564 123.907022,22.6572797 123.146339,22.6572797 C122.542267,22.6572797 122.070204,22.8921929 121.730134,23.3620264 C121.390064,23.8318599 121.220031,24.5276505 121.220031,25.449419 Z M139.587038,29 L138.291647,29 L133.371843,21.4692782 L133.371843,29 L132.076452,29 L132.076452,19.2275125 L133.371843,19.2275125 L138.30507,26.7917937 L138.30507,19.2275125 L139.587038,19.2275125 L139.587038,29 Z M141.602261,25.3017578 C141.602261,24.5902957 141.74209,23.9504368 142.021753,23.382162 C142.301416,22.8138873 142.6907,22.3753826 143.189619,22.0666349 C143.688537,21.7578872 144.257922,21.6035156 144.897791,21.6035156 C145.886678,21.6035156 146.686502,21.9458177 147.297285,22.6304322 C147.908069,23.3150467 148.213456,24.2256151 148.213456,25.3621647 L148.213456,25.449419 C148.213456,26.1564065 148.078101,26.7906722 147.807388,27.3522351 C147.536674,27.913798 147.149627,28.351184 146.646234,28.6644063 C146.142841,28.9776287 145.564507,29.1342375 144.911214,29.1342375 C143.926801,29.1342375 143.129215,28.7919354 142.518432,28.1073209 C141.907648,27.4227064 141.602261,26.5166125 141.602261,25.3890122 L141.602261,25.3017578 Z M142.850669,25.449419 C142.850669,26.2548478 143.037481,26.9014185 143.411111,27.3891504 C143.78474,27.8768823 144.28477,28.1207446 144.911214,28.1207446 C145.542134,28.1207446 146.043282,27.8735264 146.414674,27.3790826 C146.786066,26.8846388 146.971759,26.1922041 146.971759,25.3017578 C146.971759,24.5052782 146.78271,23.8598262 146.404606,23.3653824 C146.026502,22.8709386 145.524235,22.6237204 144.897791,22.6237204 C144.28477,22.6237204 143.790333,22.8675827 143.414467,23.3553146 C143.0386,23.8430465 142.850669,24.5410743 142.850669,25.449419 Z M151.705291,19.9792423 L151.705291,21.7377531 L153.061089,21.7377531 L153.061089,22.697551 L151.705291,22.697551 L151.705291,27.201218 C151.705291,27.4920673 151.765697,27.710201 151.886511,27.8556256 C152.007326,28.0010503 152.213154,28.0737615 152.504004,28.0737615 C152.647191,28.0737615 152.844071,28.0469143 153.094649,27.993219 L153.094649,29 C152.768002,29.0894921 152.45031,29.1342375 152.141563,29.1342375 C151.586712,29.1342375 151.168342,28.9664423 150.886442,28.630847 C150.604542,28.2952516 150.463594,27.8187134 150.463594,27.201218 L150.463594,22.697551 L149.141355,22.697551 L149.141355,21.7377531 L150.463594,21.7377531 L150.463594,19.9792423 L151.705291,19.9792423 Z M157.774485,29.1342375 C156.790072,29.1342375 155.98913,28.8109521 155.371634,28.1643718 C154.754139,27.5177914 154.445396,26.6530871 154.445396,25.5702327 L154.445396,25.3420291 C154.445396,24.6216177 154.582988,23.978403 154.858176,23.4123655 C155.133364,22.846328 155.518174,22.4033488 156.012618,22.0834146 C156.507062,21.7634803 157.042888,21.6035156 157.620112,21.6035156 C158.564253,21.6035156 159.298078,21.914496 159.821606,22.536466 C160.345135,23.158436 160.606895,24.048869 160.606895,25.2077916 L160.606895,25.7246058 L155.687092,25.7246058 C155.704991,26.4405426 155.914175,27.0188765 156.314653,27.4596251 C156.71513,27.9003736 157.224108,28.1207446 157.841604,28.1207446 C158.280115,28.1207446 158.651502,28.0312538 158.955775,27.8522697 C159.260048,27.6732855 159.526283,27.436135 159.754488,27.1408111 L160.512929,27.7314559 C159.904383,28.6666483 158.991577,29.1342375 157.774485,29.1342375 Z M157.620112,22.6237204 C157.118956,22.6237204 156.69835,22.8060578 156.35828,23.170738 C156.01821,23.5354183 155.807906,24.0466342 155.727364,24.7044011 L159.365199,24.7044011 L159.365199,24.6104349 C159.329402,23.9795156 159.15937,23.4906724 158.855097,23.1438905 C158.550823,22.7971087 158.139166,22.6237204 157.620112,22.6237204 Z M166.521717,27.0736924 C166.521717,26.738097 166.395311,26.4774552 166.142496,26.2917591 C165.889681,26.106063 165.448939,25.9460983 164.820257,25.8118602 C164.191575,25.677622 163.692664,25.5165387 163.323509,25.3286053 C162.954354,25.1406719 162.681407,24.916945 162.50466,24.657418 C162.327914,24.3978909 162.239541,24.0891478 162.239541,23.7311795 C162.239541,23.1360571 162.491234,22.6326716 162.994627,22.221008 C163.49802,21.8093443 164.141235,21.6035156 164.924291,21.6035156 C165.747618,21.6035156 166.415443,21.8160562 166.927785,22.2411436 C167.440127,22.666231 167.696294,23.2098873 167.696294,23.8721288 L166.447886,23.8721288 C166.447886,23.5320589 166.303582,23.2389766 166.01497,22.9928734 C165.726358,22.7467701 165.362802,22.6237204 164.924291,22.6237204 C164.472356,22.6237204 164.118867,22.7221602 163.863815,22.9190428 C163.608762,23.1159254 163.481238,23.3732113 163.481238,23.6909082 C163.481238,23.9907067 163.599813,24.2166709 163.836967,24.3688074 C164.074121,24.520944 164.502558,24.6663664 165.122291,24.8050792 C165.742024,24.9437919 166.244291,25.1093498 166.629107,25.3017578 C167.013923,25.4941658 167.299174,25.7257231 167.48487,25.9964367 C167.670566,26.2671503 167.763413,26.5971474 167.763413,26.986438 C167.763413,27.6352557 167.50389,28.1554207 166.984836,28.5469486 C166.465782,28.9384765 165.792364,29.1342375 164.964562,29.1342375 C164.382863,29.1342375 163.868292,29.0313231 163.420831,28.8254913 C162.973371,28.6196595 162.623238,28.3321705 162.370423,27.9630156 C162.117608,27.5938607 161.991202,27.1945082 161.991202,26.7649462 L163.232899,26.7649462 C163.255272,27.1810844 163.421948,27.5110816 163.732933,27.7549475 C164.043918,27.9988135 164.454457,28.1207446 164.964562,28.1207446 C165.434395,28.1207446 165.811375,28.0256607 166.095513,27.83549 C166.37965,27.6453193 166.521717,27.3913893 166.521717,27.0736924 Z M179.559496,29 L173.156369,29 L173.156369,28.1073209 L176.539153,24.3486718 C177.040309,23.780397 177.385967,23.318401 177.576137,22.96267 C177.766308,22.6069389 177.861392,22.2389082 177.861392,21.8585668 C177.861392,21.3484619 177.70702,20.9300926 177.398273,20.6034465 C177.089525,20.2768004 176.677868,20.1134798 176.163288,20.1134798 C175.545793,20.1134798 175.065898,20.2891053 174.723591,20.6403618 C174.381284,20.9916183 174.210133,21.4804615 174.210133,22.1069061 L172.968436,22.1069061 C172.968436,21.2075106 173.258163,20.4803983 173.837624,19.9255473 C174.417085,19.3706963 175.192299,19.093275 176.163288,19.093275 C177.071633,19.093275 177.789796,19.3315441 178.317799,19.8080895 C178.845803,20.2846349 179.1098,20.9189006 179.1098,21.7109056 C179.1098,22.6729456 178.496789,23.8184272 177.270747,25.1473847 L174.653116,27.9865071 L179.559496,27.9865071 L179.559496,29 Z M182.930517,23.5096876 L183.863467,23.5096876 C184.449641,23.5007384 184.910518,23.3463669 185.246113,23.0465684 C185.581709,22.7467699 185.749504,22.3418242 185.749504,21.8317193 C185.749504,20.6862205 185.179,20.1134798 184.037976,20.1134798 C183.501024,20.1134798 183.072587,20.2667327 182.752652,20.5732431 C182.432718,20.8797535 182.272753,21.2858178 182.272753,21.7914481 L181.031057,21.7914481 C181.031057,21.0173415 181.314071,20.3741267 181.880109,19.8617845 C182.446146,19.3494423 183.165428,19.093275 184.037976,19.093275 C184.959745,19.093275 185.682382,19.3371373 186.205911,19.8248692 C186.72944,20.3126011 186.9912,20.9904935 186.9912,21.8585668 C186.9912,22.2836542 186.853608,22.6953117 186.57842,23.0935515 C186.303232,23.4917913 185.928489,23.789348 185.454181,23.9862306 C185.991134,24.1562656 186.406147,24.4381615 186.699234,24.8319267 C186.99232,25.2256919 187.138862,25.7067047 187.138862,26.2749794 C187.138862,27.1520019 186.852491,27.8477925 186.279742,28.362372 C185.706992,28.8769516 184.961982,29.1342375 184.044688,29.1342375 C183.127394,29.1342375 182.381265,28.8859006 181.806278,28.3892195 C181.231291,27.8925384 180.943802,27.2370187 180.943802,26.4226407 L182.192211,26.4226407 C182.192211,26.9372202 182.360006,27.3488776 182.695601,27.6576253 C183.031197,27.9663731 183.480888,28.1207446 184.044688,28.1207446 C184.644285,28.1207446 185.102925,27.9641358 185.420622,27.6509135 C185.738319,27.3376911 185.897165,26.8880001 185.897165,26.3018269 C185.897165,25.7335522 185.722658,25.2972848 185.373639,24.9930116 C185.02462,24.6887385 184.521234,24.5321297 183.863467,24.5231805 L182.930517,24.5231805 L182.930517,23.5096876 Z M189.469542,29.8389842 L188.402354,29.8389842 L192.483173,19.2275125 L193.543649,19.2275125 L189.469542,29.8389842 Z M199.089317,29 L197.840909,29 L197.840909,20.7242602 L195.33738,21.6437869 L195.33738,20.5161922 L198.894673,19.1805294 L199.089317,19.1805294 L199.089317,29 Z M209.105093,24.8319267 C209.105093,26.2861732 208.856756,27.366774 208.360075,28.0737615 C207.863394,28.780749 207.087062,29.1342375 206.031055,29.1342375 C204.988472,29.1342375 204.216614,28.7885794 203.715459,28.097253 C203.214303,27.4059266 202.95478,26.3734271 202.936881,24.9997235 L202.936881,23.3418908 C202.936881,21.9055427 203.185218,20.8383656 203.681899,20.1403272 C204.17858,19.4422889 204.95715,19.093275 206.017631,19.093275 C207.069163,19.093275 207.843258,19.429984 208.339939,20.1034119 C208.836621,20.7768399 209.091669,21.8160513 209.105093,23.2210771 L209.105093,24.8319267 Z M207.863396,23.1338227 C207.863396,22.0822907 207.715737,21.3160261 207.420413,20.8350061 C207.125089,20.3539861 206.6575,20.1134798 206.017631,20.1134798 C205.382237,20.1134798 204.919123,20.3528675 204.628274,20.8316502 C204.337424,21.3104329 204.187527,22.0464943 204.178578,23.0398565 L204.178578,25.026571 C204.178578,26.0825777 204.331831,26.8622658 204.638341,27.3656589 C204.944852,27.8690519 205.409085,28.1207446 206.031055,28.1207446 C206.644076,28.1207446 207.09936,27.8835941 207.396921,27.409286 C207.694482,26.9349779 207.849973,26.1877302 207.863396,25.1675203 L207.863396,23.1338227 Z M211.10018,28.3489483 C211.10018,28.1341673 211.163942,27.9551858 211.291468,27.8119984 C211.418995,27.6688111 211.610281,27.5972185 211.865334,27.5972185 C212.120386,27.5972185 212.31391,27.6688111 212.445911,27.8119984 C212.577912,27.9551858 212.643911,28.1341673 212.643911,28.3489483 C212.643911,28.5547801 212.577912,28.7270498 212.445911,28.8657625 C212.31391,29.0044753 212.120386,29.0738306 211.865334,29.0738306 C211.610281,29.0738306 211.418995,29.0044753 211.291468,28.8657625 C211.163942,28.7270498 211.10018,28.5547801 211.10018,28.3489483 Z"/>
    </g>
  </g>
</svg>
