<svg xmlns="http://www.w3.org/2000/svg" xmlns:xlink="http://www.w3.org/1999/xlink" width="180" height="180" viewBox="0 0 180 180">
  <defs>
    <path id="3-a" d="M2.50026926,11.0066265 L2.13216926,11.307 C1.70316926,11.659 1.07316926,11.592 0.726169261,11.165 C0.376169261,10.737 0.439169261,10.107 0.868169261,9.759 L10.0021693,2.304 C11.1151693,1.232 12.8851693,1.232 13.9981693,2.304 L23.1321693,9.759 C23.5611693,10.107 23.6241693,10.737 23.2741693,11.165 C23.0771693,11.407 22.7891693,11.533 22.4991693,11.533 C22.2771693,11.533 22.0541693,11.46 21.8681693,11.307 L21.5002693,11.0065589 L21.5002693,20.028 C21.5002693,21.409 20.3762693,22.533 18.9952693,22.533 L16.0052693,22.533 C14.6242693,22.533 13.5002693,21.409 13.5002693,20.028 L13.5002693,17.037 C13.5002693,16.759 13.2742693,16.533 12.9972693,16.533 L11.0032693,16.533 C10.7252693,16.533 10.5002693,16.759 10.5002693,17.037 L10.5002693,20.028 C10.5002693,21.409 9.37626926,22.533 7.99526926,22.533 L5.00526926,22.533 C3.62426926,22.533 2.50026926,21.409 2.50026926,20.028 L2.50026926,11.0066265 Z M4.50026926,9.37460561 L4.50026926,20.028 C4.50026926,20.306 4.72626926,20.533 5.00526926,20.533 L7.99526926,20.533 C8.27326926,20.533 8.50026926,20.306 8.50026926,20.028 L8.50026926,17.037 C8.50026926,15.656 9.62326926,14.533 11.0032693,14.533 L12.9972693,14.533 C14.3772693,14.533 15.5002693,15.656 15.5002693,17.037 L15.5002693,20.028 C15.5002693,20.306 15.7262693,20.533 16.0052693,20.533 L18.9952693,20.533 C19.2732693,20.533 19.5002693,20.306 19.5002693,20.028 L19.5002693,9.37328331 L12.6241693,3.758 C12.2801693,3.414 11.7201693,3.414 11.3761693,3.758 L11.3011693,3.825 L4.50026926,9.37460561 Z"/>
  </defs>
  <g fill="none" fill-rule="evenodd">
    <rect width="180" height="180" fill="#FFF" fill-opacity=".01" fill-rule="nonzero"/>
    <g transform="translate(16 30)">
      <g transform="translate(0 65)">
        <rect width="24" height="24" fill="#A9B6BE" rx="2"/>
        <path fill="#C41261" d="M29.837,8.663 L29.837,16 L28.913,16 L28.913,8.663 L29.837,8.663 Z M35.018,14.801 L35.535,15.373 C34.963,15.89 34.402,16.121 33.665,16.121 C32.213,16.121 31.179,15.021 31.179,13.481 C31.179,11.908 32.224,10.808 33.709,10.808 C34.435,10.808 35.029,11.05 35.557,11.567 L35.018,12.106 C34.633,11.754 34.204,11.578 33.731,11.578 C32.73,11.578 32.037,12.348 32.037,13.448 C32.037,14.57 32.73,15.351 33.72,15.351 C34.215,15.351 34.611,15.186 35.018,14.801 Z M38.802,10.808 C40.298,10.808 41.365,11.919 41.365,13.481 C41.365,14.966 40.221,16.121 38.769,16.121 C37.262,16.121 36.206,15.021 36.206,13.459 C36.206,11.886 37.262,10.808 38.802,10.808 Z M38.802,11.578 C37.757,11.578 37.064,12.337 37.064,13.47 C37.064,14.592 37.757,15.351 38.791,15.351 C39.792,15.351 40.507,14.57 40.507,13.47 C40.507,12.337 39.825,11.578 38.802,11.578 Z M42.641,10.929 L43.477,10.929 L43.477,11.644 C43.917,11.05 44.357,10.808 44.984,10.808 C45.446,10.808 45.864,10.962 46.161,11.226 C46.48,11.534 46.59,11.886 46.59,12.579 L46.59,16 L45.754,16 L45.754,12.766 C45.754,12.315 45.699,12.073 45.567,11.897 C45.413,11.688 45.116,11.556 44.775,11.556 C44.401,11.556 44.06,11.699 43.807,11.985 C43.565,12.249 43.477,12.491 43.477,12.909 L43.477,16 L42.641,16 L42.641,10.929 Z M51.122,14.031 L52.002,14.031 C52.046,14.867 52.497,15.307 53.3,15.307 C54.125,15.307 54.708,14.801 54.708,14.064 C54.708,13.426 54.378,13.129 53.223,12.744 C52.354,12.447 52.068,12.304 51.738,12.007 C51.364,11.666 51.166,11.182 51.166,10.621 C51.166,9.378 52.057,8.531 53.355,8.531 C54.653,8.531 55.5,9.356 55.533,10.632 L54.609,10.632 C54.598,10.258 54.554,10.082 54.433,9.873 C54.224,9.554 53.817,9.356 53.344,9.356 C52.618,9.356 52.101,9.851 52.101,10.555 C52.101,10.907 52.255,11.215 52.519,11.402 C52.75,11.567 52.948,11.655 53.696,11.919 C54.477,12.194 54.851,12.392 55.148,12.711 C55.467,13.052 55.643,13.514 55.643,14.009 C55.643,15.274 54.708,16.132 53.333,16.132 C52.398,16.132 51.76,15.802 51.375,15.142 C51.199,14.845 51.122,14.537 51.122,14.185 L51.122,14.031 Z M57.821,11.666 L57.821,14.966 C57.832,15.219 57.898,15.274 58.206,15.274 L58.591,15.274 L58.591,16 L57.81,16 C57.216,15.989 56.985,15.769 56.985,15.208 L56.985,11.666 L56.281,11.666 L56.281,10.929 L56.985,10.929 L56.985,9.334 L57.821,9.334 L57.821,10.929 L58.591,10.929 L58.591,11.666 L57.821,11.666 Z M59.779,10.929 L60.615,10.929 L60.615,11.787 C60.769,11.424 60.879,11.27 61.077,11.116 C61.33,10.918 61.682,10.808 62.045,10.808 L62.243,10.808 L62.243,11.655 C62.155,11.644 62.067,11.644 62.012,11.644 C61.561,11.644 61.165,11.853 60.912,12.227 C60.692,12.546 60.615,12.843 60.615,13.426 L60.615,16 L59.779,16 L59.779,10.929 Z M65.466,10.808 C66.962,10.808 68.029,11.919 68.029,13.481 C68.029,14.966 66.885,16.121 65.433,16.121 C63.926,16.121 62.87,15.021 62.87,13.459 C62.87,11.886 63.926,10.808 65.466,10.808 Z M65.466,11.578 C64.421,11.578 63.728,12.337 63.728,13.47 C63.728,14.592 64.421,15.351 65.455,15.351 C66.456,15.351 67.171,14.57 67.171,13.47 C67.171,12.337 66.489,11.578 65.466,11.578 Z M70.141,13.734 L70.141,16 L69.305,16 L69.305,8.663 L70.141,8.663 L70.141,13.151 L72.165,10.929 L73.221,10.929 L70.955,13.404 L73.21,16 L72.165,16 L70.141,13.734 Z M78.897,13.734 L74.673,13.734 C74.717,14.163 74.794,14.383 75.003,14.658 C75.333,15.109 75.817,15.351 76.367,15.351 C76.994,15.351 77.588,15.01 77.885,14.482 L78.622,14.757 C78.204,15.604 77.335,16.121 76.367,16.121 C74.86,16.121 73.782,15.021 73.782,13.481 C73.782,11.919 74.849,10.808 76.334,10.808 C77.808,10.808 78.908,11.919 78.908,13.404 C78.908,13.47 78.908,13.613 78.897,13.734 Z M74.684,13.118 L78.017,13.118 C77.984,12.722 77.907,12.502 77.731,12.249 C77.412,11.82 76.895,11.556 76.334,11.556 C75.773,11.556 75.267,11.82 74.97,12.26 C74.816,12.502 74.75,12.711 74.684,13.118 Z M80.547,14.944 C80.877,14.944 81.119,15.186 81.119,15.527 C81.119,15.846 80.866,16.088 80.547,16.088 C80.217,16.088 79.975,15.846 79.975,15.516 C79.975,15.186 80.217,14.944 80.547,14.944 Z M80.547,11.776 C80.877,11.776 81.119,12.018 81.119,12.359 C81.119,12.678 80.866,12.92 80.547,12.92 C80.217,12.92 79.975,12.678 79.975,12.348 C79.975,12.018 80.217,11.776 80.547,11.776 Z M89.237,8.531 C90.26,8.531 91.239,8.993 91.943,9.796 C92.537,10.489 92.801,11.303 92.801,12.403 C92.801,13.547 92.361,14.57 91.558,15.252 C90.898,15.824 90.062,16.132 89.215,16.132 C88.126,16.132 87.059,15.615 86.377,14.757 C85.871,14.119 85.607,13.294 85.607,12.37 C85.607,10.181 87.158,8.531 89.237,8.531 Z M89.215,9.389 C87.686,9.389 86.553,10.643 86.553,12.337 C86.553,14.042 87.675,15.285 89.193,15.285 C89.93,15.285 90.656,14.966 91.151,14.405 C91.58,13.932 91.855,13.14 91.855,12.392 C91.855,11.413 91.591,10.698 91.019,10.148 C90.535,9.675 89.864,9.389 89.215,9.389 Z M94.957,15.131 L94.957,16 L94.121,16 L94.121,8.663 L94.957,8.663 L94.957,11.798 C95.463,11.105 96.002,10.808 96.739,10.808 C98.158,10.808 99.148,11.908 99.148,13.481 C99.148,15.032 98.169,16.121 96.783,16.121 C96.002,16.121 95.452,15.824 94.957,15.131 Z M96.629,11.556 C95.661,11.556 94.946,12.359 94.946,13.47 C94.946,14.625 95.606,15.395 96.596,15.395 C97.597,15.395 98.268,14.636 98.268,13.503 C98.268,12.37 97.586,11.556 96.629,11.556 Z M103.603,12.315 L102.767,12.315 L102.767,12.26 C102.767,11.787 102.382,11.49 101.799,11.49 C101.238,11.49 100.886,11.776 100.886,12.216 C100.886,12.656 101.106,12.821 102.019,13.074 C102.668,13.25 103.009,13.415 103.251,13.657 C103.504,13.91 103.658,14.273 103.658,14.647 C103.658,15.527 102.932,16.121 101.854,16.121 C100.699,16.121 100.05,15.582 99.962,14.559 L100.787,14.559 C100.842,15.131 101.216,15.439 101.854,15.439 C102.426,15.439 102.8,15.142 102.8,14.691 C102.8,14.251 102.514,14.031 101.645,13.811 C100.545,13.514 100.05,13.052 100.05,12.282 C100.05,11.402 100.765,10.808 101.832,10.808 C102.91,10.808 103.559,11.358 103.603,12.315 Z M105.781,10.929 L105.781,16 L104.945,16 L104.945,10.929 L105.781,10.929 Z M105.374,8.96 C105.671,8.96 105.902,9.202 105.902,9.51 C105.902,9.807 105.66,10.038 105.363,10.038 C105.066,10.038 104.835,9.807 104.835,9.499 C104.835,9.191 105.066,8.96 105.374,8.96 Z M111.259,11.699 L111.259,8.663 L112.095,8.663 L112.095,16 L111.259,16 L111.259,15.131 C110.753,15.824 110.214,16.121 109.444,16.121 C108.047,16.121 107.057,15.032 107.057,13.492 C107.057,11.952 108.069,10.808 109.444,10.808 C110.192,10.808 110.764,11.083 111.259,11.699 Z M109.62,11.556 C108.619,11.556 107.937,12.348 107.937,13.503 C107.937,14.614 108.608,15.395 109.565,15.395 C110.544,15.395 111.259,14.581 111.259,13.481 C111.259,12.337 110.588,11.556 109.62,11.556 Z M114.614,10.929 L114.614,16 L113.778,16 L113.778,10.929 L114.614,10.929 Z M114.207,8.96 C114.504,8.96 114.735,9.202 114.735,9.51 C114.735,9.807 114.493,10.038 114.196,10.038 C113.899,10.038 113.668,9.807 113.668,9.499 C113.668,9.191 113.899,8.96 114.207,8.96 Z M120.125,11.765 L120.125,10.929 L120.961,10.929 L120.961,16 L120.125,16 L120.125,15.021 C119.619,15.78 119.047,16.121 118.277,16.121 C116.88,16.121 115.89,15.021 115.89,13.481 C115.89,11.93 116.902,10.808 118.299,10.808 C119.069,10.808 119.63,11.105 120.125,11.765 Z M118.42,11.556 C117.87,11.556 117.485,11.743 117.188,12.161 C116.924,12.524 116.77,13.008 116.77,13.503 C116.77,14.581 117.474,15.395 118.398,15.395 C119.355,15.395 120.136,14.504 120.136,13.415 C120.136,12.315 119.432,11.556 118.42,11.556 Z M122.644,10.929 L123.48,10.929 L123.48,11.644 C123.92,11.05 124.36,10.808 124.987,10.808 C125.449,10.808 125.867,10.962 126.164,11.226 C126.483,11.534 126.593,11.886 126.593,12.579 L126.593,16 L125.757,16 L125.757,12.766 C125.757,12.315 125.702,12.073 125.57,11.897 C125.416,11.688 125.119,11.556 124.778,11.556 C124.404,11.556 124.063,11.699 123.81,11.985 C123.568,12.249 123.48,12.491 123.48,12.909 L123.48,16 L122.644,16 L122.644,10.929 Z M131.499,8.773 L129.618,11.71 C129.926,11.6 130.069,11.567 130.333,11.567 C131.554,11.567 132.5,12.524 132.5,13.767 C132.5,15.065 131.433,16.132 130.135,16.132 C128.826,16.132 127.814,15.098 127.814,13.767 C127.814,13.228 127.957,12.821 128.375,12.15 L130.476,8.773 L131.499,8.773 Z M130.179,12.315 C129.343,12.315 128.683,12.953 128.683,13.767 C128.683,14.625 129.332,15.307 130.157,15.307 C130.982,15.307 131.642,14.636 131.642,13.8 C131.642,12.975 130.993,12.315 130.179,12.315 Z"/>
        <g transform="translate(0 34)">
          <rect width="24" height="24" fill="#919FA8" rx="2"/>
          <path fill="#C41261" d="M29.837,15.164 L32.422,15.164 L32.422,16 L28.913,16 L28.913,8.663 L29.837,8.663 L29.837,15.164 Z M37.361,11.765 L37.361,10.929 L38.197,10.929 L38.197,16 L37.361,16 L37.361,15.021 C36.855,15.78 36.283,16.121 35.513,16.121 C34.116,16.121 33.126,15.021 33.126,13.481 C33.126,11.93 34.138,10.808 35.535,10.808 C36.305,10.808 36.866,11.105 37.361,11.765 Z M35.656,11.556 C35.106,11.556 34.721,11.743 34.424,12.161 C34.16,12.524 34.006,13.008 34.006,13.503 C34.006,14.581 34.71,15.395 35.634,15.395 C36.591,15.395 37.372,14.504 37.372,13.415 C37.372,12.315 36.668,11.556 35.656,11.556 Z M40.716,15.131 L40.716,16 L39.88,16 L39.88,8.663 L40.716,8.663 L40.716,11.798 C41.222,11.105 41.761,10.808 42.498,10.808 C43.917,10.808 44.907,11.908 44.907,13.481 C44.907,15.032 43.928,16.121 42.542,16.121 C41.761,16.121 41.211,15.824 40.716,15.131 Z M42.388,11.556 C41.42,11.556 40.705,12.359 40.705,13.47 C40.705,14.625 41.365,15.395 42.355,15.395 C43.356,15.395 44.027,14.636 44.027,13.503 C44.027,12.37 43.345,11.556 42.388,11.556 Z M50.891,13.734 L46.667,13.734 C46.711,14.163 46.788,14.383 46.997,14.658 C47.327,15.109 47.811,15.351 48.361,15.351 C48.988,15.351 49.582,15.01 49.879,14.482 L50.616,14.757 C50.198,15.604 49.329,16.121 48.361,16.121 C46.854,16.121 45.776,15.021 45.776,13.481 C45.776,11.919 46.843,10.808 48.328,10.808 C49.802,10.808 50.902,11.919 50.902,13.404 C50.902,13.47 50.902,13.613 50.891,13.734 Z M46.678,13.118 L50.011,13.118 C49.978,12.722 49.901,12.502 49.725,12.249 C49.406,11.82 48.889,11.556 48.328,11.556 C47.767,11.556 47.261,11.82 46.964,12.26 C46.81,12.502 46.744,12.711 46.678,13.118 Z M52.948,16 L52.112,16 L52.112,8.663 L52.948,8.663 L52.948,16 Z M55.06,14.944 C55.39,14.944 55.632,15.186 55.632,15.527 C55.632,15.846 55.379,16.088 55.06,16.088 C54.73,16.088 54.488,15.846 54.488,15.516 C54.488,15.186 54.73,14.944 55.06,14.944 Z M55.06,11.776 C55.39,11.776 55.632,12.018 55.632,12.359 C55.632,12.678 55.379,12.92 55.06,12.92 C54.73,12.92 54.488,12.678 54.488,12.348 C54.488,12.018 54.73,11.776 55.06,11.776 Z M63.75,8.531 C64.773,8.531 65.752,8.993 66.456,9.796 C67.05,10.489 67.314,11.303 67.314,12.403 C67.314,13.547 66.874,14.57 66.071,15.252 C65.411,15.824 64.575,16.132 63.728,16.132 C62.639,16.132 61.572,15.615 60.89,14.757 C60.384,14.119 60.12,13.294 60.12,12.37 C60.12,10.181 61.671,8.531 63.75,8.531 Z M63.728,9.389 C62.199,9.389 61.066,10.643 61.066,12.337 C61.066,14.042 62.188,15.285 63.706,15.285 C64.443,15.285 65.169,14.966 65.664,14.405 C66.093,13.932 66.368,13.14 66.368,12.392 C66.368,11.413 66.104,10.698 65.532,10.148 C65.048,9.675 64.377,9.389 63.728,9.389 Z M69.47,15.131 L69.47,16 L68.634,16 L68.634,8.663 L69.47,8.663 L69.47,11.798 C69.976,11.105 70.515,10.808 71.252,10.808 C72.671,10.808 73.661,11.908 73.661,13.481 C73.661,15.032 72.682,16.121 71.296,16.121 C70.515,16.121 69.965,15.824 69.47,15.131 Z M71.142,11.556 C70.174,11.556 69.459,12.359 69.459,13.47 C69.459,14.625 70.119,15.395 71.109,15.395 C72.11,15.395 72.781,14.636 72.781,13.503 C72.781,12.37 72.099,11.556 71.142,11.556 Z M78.116,12.315 L77.28,12.315 L77.28,12.26 C77.28,11.787 76.895,11.49 76.312,11.49 C75.751,11.49 75.399,11.776 75.399,12.216 C75.399,12.656 75.619,12.821 76.532,13.074 C77.181,13.25 77.522,13.415 77.764,13.657 C78.017,13.91 78.171,14.273 78.171,14.647 C78.171,15.527 77.445,16.121 76.367,16.121 C75.212,16.121 74.563,15.582 74.475,14.559 L75.3,14.559 C75.355,15.131 75.729,15.439 76.367,15.439 C76.939,15.439 77.313,15.142 77.313,14.691 C77.313,14.251 77.027,14.031 76.158,13.811 C75.058,13.514 74.563,13.052 74.563,12.282 C74.563,11.402 75.278,10.808 76.345,10.808 C77.423,10.808 78.072,11.358 78.116,12.315 Z M80.294,10.929 L80.294,16 L79.458,16 L79.458,10.929 L80.294,10.929 Z M79.887,8.96 C80.184,8.96 80.415,9.202 80.415,9.51 C80.415,9.807 80.173,10.038 79.876,10.038 C79.579,10.038 79.348,9.807 79.348,9.499 C79.348,9.191 79.579,8.96 79.887,8.96 Z M85.772,11.699 L85.772,8.663 L86.608,8.663 L86.608,16 L85.772,16 L85.772,15.131 C85.266,15.824 84.727,16.121 83.957,16.121 C82.56,16.121 81.57,15.032 81.57,13.492 C81.57,11.952 82.582,10.808 83.957,10.808 C84.705,10.808 85.277,11.083 85.772,11.699 Z M84.133,11.556 C83.132,11.556 82.45,12.348 82.45,13.503 C82.45,14.614 83.121,15.395 84.078,15.395 C85.057,15.395 85.772,14.581 85.772,13.481 C85.772,12.337 85.101,11.556 84.133,11.556 Z M89.127,10.929 L89.127,16 L88.291,16 L88.291,10.929 L89.127,10.929 Z M88.72,8.96 C89.017,8.96 89.248,9.202 89.248,9.51 C89.248,9.807 89.006,10.038 88.709,10.038 C88.412,10.038 88.181,9.807 88.181,9.499 C88.181,9.191 88.412,8.96 88.72,8.96 Z M94.638,11.765 L94.638,10.929 L95.474,10.929 L95.474,16 L94.638,16 L94.638,15.021 C94.132,15.78 93.56,16.121 92.79,16.121 C91.393,16.121 90.403,15.021 90.403,13.481 C90.403,11.93 91.415,10.808 92.812,10.808 C93.582,10.808 94.143,11.105 94.638,11.765 Z M92.933,11.556 C92.383,11.556 91.998,11.743 91.701,12.161 C91.437,12.524 91.283,13.008 91.283,13.503 C91.283,14.581 91.987,15.395 92.911,15.395 C93.868,15.395 94.649,14.504 94.649,13.415 C94.649,12.315 93.945,11.556 92.933,11.556 Z M97.157,10.929 L97.993,10.929 L97.993,11.644 C98.433,11.05 98.873,10.808 99.5,10.808 C99.962,10.808 100.38,10.962 100.677,11.226 C100.996,11.534 101.106,11.886 101.106,12.579 L101.106,16 L100.27,16 L100.27,12.766 C100.27,12.315 100.215,12.073 100.083,11.897 C99.929,11.688 99.632,11.556 99.291,11.556 C98.917,11.556 98.576,11.699 98.323,11.985 C98.081,12.249 97.993,12.491 97.993,12.909 L97.993,16 L97.157,16 L97.157,10.929 Z M105.99,8.663 L105.99,9.499 L103.625,9.499 L103.625,11.468 C103.999,11.325 104.329,11.259 104.703,11.259 C105.99,11.259 106.958,12.271 106.958,13.646 C106.958,15.054 105.924,16.077 104.483,16.077 C103.449,16.077 102.668,15.538 102.294,14.57 L103.086,14.273 C103.262,14.592 103.339,14.724 103.46,14.834 C103.691,15.065 104.098,15.208 104.505,15.208 C105.385,15.208 106.056,14.526 106.056,13.624 C106.056,12.689 105.396,12.062 104.428,12.062 C103.856,12.062 103.273,12.326 102.8,12.81 L102.8,8.663 L105.99,8.663 Z"/>
        </g>
      </g>
      <g transform="translate(46)">
        <path fill="#919FA8" d="M7.27636716,28.3945312 L4.53417966,28.3945312 L4.53417966,36 L3.41503903,36 L3.41503903,28.3945312 L0.678710908,28.3945312 L0.678710908,27.46875 L7.27636716,27.46875 L7.27636716,28.3945312 Z M10.8228515,36.1171875 C9.96347224,36.1171875 9.26426048,35.8349638 8.72519529,35.2705078 C8.18613009,34.7060519 7.91660154,33.9511766 7.91660154,33.0058594 L7.91660154,32.8066406 C7.91660154,32.1777312 8.03671752,31.6162134 8.2769531,31.1220703 C8.51718868,30.6279272 8.85312282,30.2412123 9.2847656,29.9619141 C9.71640838,29.6826158 10.1841771,29.5429688 10.6880859,29.5429688 C11.5123088,29.5429688 12.1529274,29.8144504 12.6099609,30.3574219 C13.0669944,30.9003933 13.2955078,31.6777293 13.2955078,32.6894531 L13.2955078,33.140625 L9.00058591,33.140625 C9.01621099,33.7656281 9.19882635,34.2705059 9.54843748,34.6552734 C9.8980486,35.040041 10.3423801,35.2324219 10.8814453,35.2324219 C11.2642597,35.2324219 11.5884752,35.1542977 11.8541015,34.9980469 C12.1197279,34.8417961 12.3521474,34.6347669 12.5513672,34.3769531 L13.2134765,34.8925781 C12.6822239,35.7089885 11.8853569,36.1171875 10.8228515,36.1171875 Z M10.6880859,30.4335938 C10.2505837,30.4335938 9.8833999,30.5927718 9.58652341,30.9111328 C9.28964693,31.2294938 9.10605502,31.6757784 9.03574216,32.25 L12.2115234,32.25 L12.2115234,32.1679688 C12.1802733,31.6171847 12.0318372,31.1904312 11.7662109,30.8876953 C11.5005846,30.5849594 11.1412132,30.4335938 10.6880859,30.4335938 Z M17.0763672,31.9746094 L18.4826172,29.6601562 L19.7482422,29.6601562 L17.6740234,32.7949219 L19.8126953,36 L18.558789,36 L17.0939453,33.6269531 L15.6291015,36 L14.3693359,36 L16.5080078,32.7949219 L14.433789,29.6601562 L15.6876953,29.6601562 L17.0763672,31.9746094 Z M22.7673828,28.125 L22.7673828,29.6601562 L23.9509766,29.6601562 L23.9509766,30.4980469 L22.7673828,30.4980469 L22.7673828,34.4296875 C22.7673828,34.683595 22.8201166,34.8740228 22.9255859,35.0009766 C23.0310552,35.1279303 23.2107409,35.1914062 23.4646484,35.1914062 C23.5896491,35.1914062 23.7615223,35.167969 23.9802734,35.1210938 L23.9802734,36 C23.6951157,36.0781254 23.4177748,36.1171875 23.1482422,36.1171875 C22.6638648,36.1171875 22.298634,35.9707046 22.0525391,35.6777344 C21.8064441,35.3847642 21.6833984,34.9687527 21.6833984,34.4296875 L21.6833984,30.4980469 L20.5291016,30.4980469 L20.5291016,29.6601562 L21.6833984,29.6601562 L21.6833984,28.125 L22.7673828,28.125 Z M30.1650391,36 L29.0810547,36 L29.0810547,27 L30.1650391,27 L30.1650391,36 Z M36.2134766,36 C36.1509763,35.8749994 36.1001955,35.6523454 36.0611328,35.3320312 C35.557224,35.8554714 34.9556676,36.1171875 34.2564453,36.1171875 C33.6314422,36.1171875 33.118752,35.9404315 32.7183594,35.5869141 C32.3179668,35.2333967 32.1177734,34.785159 32.1177734,34.2421875 C32.1177734,33.5820279 32.3687475,33.0693378 32.8707031,32.7041016 C33.3726588,32.3388654 34.0787064,32.15625 34.9888672,32.15625 L36.0435547,32.15625 L36.0435547,31.6582031 C36.0435547,31.279295 35.9302746,30.9775402 35.7037109,30.7529297 C35.4771473,30.5283192 35.1431663,30.4160156 34.7017578,30.4160156 C34.3150371,30.4160156 33.9908216,30.5136709 33.7291016,30.7089844 C33.4673815,30.9042979 33.3365234,31.1406236 33.3365234,31.4179688 L32.2466797,31.4179688 C32.2466797,31.1015609 32.3589833,30.7958999 32.5835938,30.5009766 C32.8082043,30.2060532 33.1128887,29.9726571 33.4976563,29.8007812 C33.8824238,29.6289054 34.3052711,29.5429688 34.7662109,29.5429688 C35.4966833,29.5429688 36.0689432,29.7255841 36.4830078,30.0908203 C36.8970724,30.4560565 37.111914,30.9589812 37.1275391,31.5996094 L37.1275391,34.5175781 C37.1275391,35.0996123 37.2017571,35.5624983 37.3501953,35.90625 L37.3501953,36 L36.2134766,36 Z M34.4146484,35.1738281 C34.7544939,35.1738281 35.0767563,35.0859384 35.3814453,34.9101562 C35.6861343,34.7343741 35.9068353,34.5058608 36.0435547,34.2246094 L36.0435547,32.9238281 L35.1939453,32.9238281 C33.8658137,32.9238281 33.2017578,33.3124961 33.2017578,34.0898438 C33.2017578,34.4296892 33.3150379,34.6953115 33.5416016,34.8867188 C33.7681652,35.078126 34.0591779,35.1738281 34.4146484,35.1738281 Z M44.5939453,32.9003906 C44.5939453,33.8691455 44.3712913,34.647458 43.9259766,35.2353516 C43.4806618,35.8232451 42.8830116,36.1171875 42.1330078,36.1171875 C41.3322226,36.1171875 40.7130881,35.8339872 40.2755859,35.2675781 L40.2228516,36 L39.2267578,36 L39.2267578,27 L40.3107422,27 L40.3107422,30.3574219 C40.7482444,29.8144504 41.351754,29.5429688 42.1212891,29.5429688 C42.8908242,29.5429688 43.4953103,29.8339815 43.9347656,30.4160156 C44.374221,30.9980498 44.5939453,31.7949168 44.5939453,32.8066406 L44.5939453,32.9003906 Z M43.5099609,32.7773438 C43.5099609,32.0390588 43.3673843,31.468752 43.0822266,31.0664062 C42.7970689,30.6640605 42.3869168,30.4628906 41.8517578,30.4628906 C41.1369105,30.4628906 40.6232438,30.7949186 40.3107422,31.4589844 L40.3107422,34.2011719 C40.6427751,34.8652377 41.1603481,35.1972656 41.8634766,35.1972656 C42.3830104,35.1972656 42.7873033,34.9960958 43.0763672,34.59375 C43.3654311,34.1914042 43.5099609,33.5859415 43.5099609,32.7773438 Z M48.9900391,36.1171875 C48.1306598,36.1171875 47.431448,35.8349638 46.8923828,35.2705078 C46.3533176,34.7060519 46.0837891,33.9511766 46.0837891,33.0058594 L46.0837891,32.8066406 C46.0837891,32.1777312 46.2039051,31.6162134 46.4441406,31.1220703 C46.6843762,30.6279272 47.0203104,30.2412123 47.4519531,29.9619141 C47.8835959,29.6826158 48.3513647,29.5429688 48.8552735,29.5429688 C49.6794963,29.5429688 50.3201149,29.8144504 50.7771485,30.3574219 C51.234182,30.9003933 51.4626953,31.6777293 51.4626953,32.6894531 L51.4626953,33.140625 L47.1677735,33.140625 C47.1833985,33.7656281 47.3660139,34.2705059 47.715625,34.6552734 C48.0652361,35.040041 48.5095676,35.2324219 49.0486328,35.2324219 C49.4314472,35.2324219 49.7556628,35.1542977 50.0212891,34.9980469 C50.2869154,34.8417961 50.519335,34.6347669 50.7185547,34.3769531 L51.3806641,34.8925781 C50.8494114,35.7089885 50.0525444,36.1171875 48.9900391,36.1171875 Z M48.8552735,30.4335938 C48.4177713,30.4335938 48.0505874,30.5927718 47.753711,30.9111328 C47.4568345,31.2294938 47.2732426,31.6757784 47.2029297,32.25 L50.378711,32.25 L50.378711,32.1679688 C50.3474608,31.6171847 50.1990248,31.1904312 49.9333985,30.8876953 C49.6677721,30.5849594 49.3084007,30.4335938 48.8552735,30.4335938 Z M54.294336,36 L53.2103516,36 L53.2103516,27 L54.294336,27 L54.294336,36 Z"/>
        <g transform="translate(16)">
          <path d="M23.1318492,9.758 L13.9978492,2.304 C12.8848492,1.232 11.1148492,1.232 10.0018492,2.304 L0.867849181,9.758 C0.439849181,10.107 0.375849181,10.737 0.725849181,11.164 C1.07284918,11.591 1.70284918,11.658 2.13184918,11.307 L2.49984918,11.006 L2.49984918,20.028 C2.49984918,21.408 3.62384918,22.532 5.00484918,22.532 L7.99484918,22.532 C9.37584918,22.532 10.4998492,21.408 10.4998492,20.028 L10.4998492,17.036 C10.4998492,16.758 10.7258492,16.532 11.0028492,16.532 L12.9968492,16.532 C13.2748492,16.532 13.4998492,16.758 13.4998492,17.036 L13.4998492,20.028 C13.4998492,21.408 14.6238492,22.532 16.0048492,22.532 L18.9948492,22.532 C20.3758492,22.532 21.4998492,21.408 21.4998492,20.028 L21.4998492,11.006 L21.8678492,11.307 C22.0538492,11.459 22.2778492,11.532 22.4988492,11.532 C22.7888492,11.532 23.0768492,11.406 23.2748492,11.164 C23.6238492,10.737 23.5608492,10.107 23.1318492,9.758"/>
          <use fill="#A9B6BE" xlink:href="#3-a"/>
        </g>
      </g>
    </g>
  </g>
</svg>
