<svg xmlns="http://www.w3.org/2000/svg" xmlns:xlink="http://www.w3.org/1999/xlink" width="580" height="180" viewBox="0 0 580 180">
  <defs>
    <rect id="1-b" width="375" height="48"/>
    <filter id="1-a" width="100.1%" height="102.1%" x="-.1%" y="-1.6%" filterUnits="objectBoundingBox">
      <feOffset dy="-.5" in="SourceAlpha" result="shadowOffsetOuter1"/>
      <feComposite in="shadowOffsetOuter1" in2="SourceAlpha" operator="out" result="shadowOffsetOuter1"/>
      <feColorMatrix in="shadowOffsetOuter1" values="0 0 0 0 0   0 0 0 0 0   0 0 0 0 0  0 0 0 0.2 0"/>
    </filter>
    <path id="1-c" d="M12,15 L12,15.5 C10.1086931,15.5 8.5,13.8914139 8.5,11.9994584 C8.5,10.1083874 10.1088918,8.5 12,8.5 C13.8911082,8.5 15.5,10.1083874 15.5,11.9994584 C15.5,13.8914139 13.8913069,15.5 12,15.5 L12,15 Z M14.5,11.9994584 C14.5,10.6607423 13.3388937,9.5 12,9.5 C10.6611063,9.5 9.5,10.6607423 9.5,11.9994584 C9.5,13.3391142 10.6609629,14.5 12,14.5 C13.3390371,14.5 14.5,13.3391142 14.5,11.9994584 Z M19.0606174,10.4703224 C17.9205476,10.3281283 17.3690987,8.99752677 18.0745815,8.08957943 L18.8318727,7.11651456 C19.261393,6.56383658 19.2123085,5.77774856 18.7170611,5.28250107 C18.222797,4.78762446 17.4368949,4.73873532 16.8835434,5.16891556 L15.9103794,5.92545049 C15.0034895,6.63108881 13.6727042,6.08027902 13.5305433,4.9404754 L13.3772079,3.71629172 C13.2901639,3.02116584 12.7000851,2.5 12,2.5 C11.2999149,2.5 10.7098361,3.02116584 10.62279,3.71630873 L10.4694891,4.9402159 C10.3272958,6.08027902 8.99651047,6.63108881 8.08978996,5.92558222 L7.11645383,5.16891338 C6.56310513,4.73873532 5.77720305,4.78762446 5.28272006,5.28272006 C4.78769155,5.77774856 4.73860701,6.56383658 5.16791847,7.1162461 L5.92565662,8.08988569 C6.63090129,8.99752677 6.07945241,10.3281283 4.93930951,10.4703315 L3.71551238,10.6227854 C3.0214033,10.7097787 2.5,11.3005186 2.5,12 C2.5,12.7002228 3.02131209,13.2910432 3.71514284,13.3780018 L4.93938256,13.5305109 C6.07945241,13.672705 6.63090129,15.0033066 5.92541847,15.9112539 L5.16812725,16.8843188 C4.73860701,17.4369968 4.78769155,18.2230848 5.28272006,18.7181133 C5.77735058,19.2127438 6.56345101,19.2618291 7.1162461,18.8320815 L8.08996185,18.0742842 C8.99699918,17.3697892 10.3273344,17.9208636 10.4694567,19.0603579 L10.6227921,20.2845416 C10.7098033,20.9794056 11.2996511,21.5 12,21.5 C12.7003489,21.5 13.2901967,20.9794056 13.37721,20.2845246 L13.5305109,19.0606174 C13.6726656,17.9208636 15.0030008,17.3697892 15.9104206,18.0745815 L16.8835462,18.83192 C17.436549,19.2618291 18.2226494,19.2127438 18.7172799,18.7181133 C19.2123085,18.2230848 19.261393,17.4369968 18.8320815,16.8845872 L18.0743434,15.9109476 C17.3690987,15.0033066 17.9205476,13.672705 19.0606905,13.5305018 L20.2844876,13.378048 C20.9786879,13.2910432 21.5,12.7002228 21.5,12 C21.5,11.3005759 20.9786822,10.7098756 20.2846584,10.6228068 L19.0606174,10.4703224 Z M22.5,12 C22.5,13.2043883 21.6033646,14.2205752 20.4084762,14.3703315 L19.1843826,14.5228224 C18.8139894,14.5690194 18.634521,15.002062 18.8637518,15.2970794 L19.6214606,16.2706812 C20.3603604,17.2214482 20.2759249,18.5736819 19.4243867,19.4252201 C18.5732284,20.2763784 17.2209037,20.3608196 16.2695794,19.6212518 L15.2966285,18.8640491 C15.0018151,18.6350678 14.5689722,18.8143675 14.52279,19.1846421 L14.3694588,20.4087917 C14.2197957,21.6039884 13.2045899,22.5 12,22.5 C10.7954101,22.5 9.78020428,21.6039884 9.63054333,20.4088087 L9.47717756,19.1843826 C9.43102778,18.8143675 8.99818488,18.6350678 8.7037539,18.8637518 L7.73021284,19.6214134 C6.77909628,20.3608196 5.4267716,20.2763784 4.57561328,19.4252201 C3.7240751,18.5736819 3.63963956,17.2214482 4.3787482,16.2704128 L5.13601004,15.2973857 C5.365479,15.002062 5.18601065,14.5690194 4.81569049,14.5228315 L3.59115429,14.3702854 C2.39663545,14.2205752 1.5,13.2043883 1.5,12 C1.5,10.7962868 2.39679235,9.78023852 3.59152382,9.63050179 L4.81561744,9.4780109 C5.18601065,9.43181395 5.365479,8.99877133 5.1362482,8.7037539 L4.37853941,7.73015211 C3.63963956,6.7793851 3.7240751,5.42715145 4.57539443,4.57583226 C5.42629673,3.72387555 6.7787477,3.63974273 7.73021004,4.37941778 L8.70371275,5.13621617 C8.9984227,5.36552585 9.43102706,5.18647164 9.47721,4.81619127 L9.6305412,3.59204161 C9.78021844,2.39673184 10.7955238,1.5 12,1.5 C13.2044762,1.5 14.2197816,2.39673184 14.3694567,3.5920246 L14.5228224,4.81645077 C14.5689729,5.18647164 15.0015773,5.36552585 15.2964566,5.13608444 L16.2697872,4.37941995 C17.2212523,3.63974273 18.5737033,3.72387555 19.4243867,4.57561328 C20.2759249,5.42715145 20.3603604,6.7793851 19.6212518,7.73042057 L18.86399,8.70344765 C18.634521,8.99877133 18.8139894,9.43181395 19.1843095,9.47800179 L20.4084762,9.63050179 C21.6032077,9.78023852 22.5,10.7962868 22.5,12 Z"/>
    <path id="1-d" d="M13.4905339,2 L10.5144746,2 C5.81248122,2 2,5.79935114 2,10.485151 C2,15.1709508 5.81248122,18.970302 10.5144746,18.970302 L11.1615747,18.970302 C18.8396274,18.970302 18.3297606,20.362865 20.3982771,21.8183179 C20.5765802,21.9430996 20.772914,22 20.9652409,22 C21.4981468,22 22,21.5667582 22,20.9648116 L22,10.4801597 C22,5.79635638 18.1895222,2 13.4905339,2 M13.4905339,2.99825306 C17.630572,2.99825306 20.9982971,6.35437984 20.9982971,10.4801597 L20.9982971,20.9648116 C20.9982971,20.9877714 20.9772613,20.9977539 20.9742562,21.0007487 C20.6066313,20.7412029 20.331163,20.4836536 20.0406691,20.2111305 C18.5561454,18.8175693 17.2168687,17.9720489 11.1615747,17.9720489 L10.5144746,17.9720489 C6.37243314,17.9720489 3.00170289,14.6139256 3.00170289,10.485151 C3.00170289,6.35637634 6.37243314,2.99825306 10.5144746,2.99825306 L13.4905339,2.99825306 M16,9 C16.2761424,9 16.5,9.22385763 16.5,9.5 C16.5,9.77614237 16.2761424,10 16,10 L8,10 C7.72385763,10 7.5,9.77614237 7.5,9.5 C7.5,9.22385763 7.72385763,9 8,9 L16,9 Z M14,12 C14.2761424,12 14.5,12.2238576 14.5,12.5 C14.5,12.7761424 14.2761424,13 14,13 L10,13 C9.72385763,13 9.5,12.7761424 9.5,12.5 C9.5,12.2238576 9.72385763,12 10,12 L14,12 Z"/>
    <path id="1-e" d="M12.0001,11.014 C13.6541,11.014 15.0001,9.668 15.0001,8.014 C15.0001,6.36 13.6541,5.014 12.0001,5.014 C10.3461,5.014 9.0001,6.36 9.0001,8.014 C9.0001,9.668 10.3461,11.014 12.0001,11.014 Z M12.0001,4.014 C14.2061,4.014 16.0001,5.808 16.0001,8.014 C16.0001,10.22 14.2061,12.014 12.0001,12.014 C9.7941,12.014 8.0001,10.22 8.0001,8.014 C8.0001,5.808 9.7941,4.014 12.0001,4.014 Z M19.193,18.93 C20.926,17.13 22,14.69 22,11.999 C22,6.486 17.514,2 12,2 C6.486,2 2,6.486 2,11.999 C2,14.69 3.073,17.13 4.807,18.93 C5.711,15.803 8.582,13.514 12,13.514 C15.418,13.514 18.289,15.803 19.193,18.93 Z M12,1 C18.075,1 23,5.925 23,11.999 C23,18.075 18.075,22.999 12,22.999 C5.925,22.999 1,18.075 1,11.999 C1,5.925 5.925,1 12,1 Z M12.0494,14.3538 C8.9434,14.3538 6.2934,16.5548 5.6854,19.5518 C7.4804,21.0408 9.7204,21.8538 12.0494,21.8538 C14.3784,21.8538 16.6184,21.0408 18.4134,19.5518 C17.8054,16.5548 15.1554,14.3538 12.0494,14.3538 Z"/>
    <path id="1-f" d="M21.0000154,9.95921869 L21.0000154,20.0333192 C21.0000154,21.1404616 20.1021578,22.0383192 18.9950154,22.0383192 L16.0050154,22.0383192 C14.8978731,22.0383192 14.0000154,21.1404616 14.0000154,20.0333192 L14.0000154,17.0413192 C14.0000154,16.4874616 13.5508731,16.0383192 12.9970154,16.0383192 L11.0030154,16.0383192 C10.4491578,16.0383192 10.0000154,16.4874616 10.0000154,17.0413192 L10.0000154,20.0333192 C10.0000154,21.1404616 9.10215782,22.0383192 7.99501544,22.0383192 L5.00501544,22.0383192 C3.89787307,22.0383192 3.00001544,21.1404616 3.00001544,20.0333192 L3.00001544,9.95964705 L1.81613021,10.9257098 C1.6021803,11.1002952 1.28721023,11.0683839 1.11262487,10.854434 C0.938039506,10.6404841 0.969950772,10.325514 1.18390068,10.1509287 L10.3152218,2.70300627 C11.2455388,1.77142355 12.7544921,1.77142355 13.6471302,2.66892865 L22.8161302,10.1509287 C23.0300801,10.325514 23.0619914,10.6404841 22.887406,10.854434 C22.7128207,11.0683839 22.3978506,11.1002952 22.1839007,10.9257098 L21.0000154,9.95921869 Z M20.0000154,9.14284639 L12.9772218,3.40963219 C12.4375388,2.86921491 11.5624921,2.86921491 10.9851302,3.4437098 L4.00001544,9.14363658 L4.00001544,20.0333192 C4.00001544,20.5881769 4.45015782,21.0383192 5.00501544,21.0383192 L7.99501544,21.0383192 C8.54987307,21.0383192 9.00001544,20.5881769 9.00001544,20.0333192 L9.00001544,17.0413192 C9.00001544,15.9351769 9.89687307,15.0383192 11.0030154,15.0383192 L12.9970154,15.0383192 C14.1031578,15.0383192 15.0000154,15.9351769 15.0000154,17.0413192 L15.0000154,20.0333192 C15.0000154,20.5881769 15.4501578,21.0383192 16.0050154,21.0383192 L18.9950154,21.0383192 C19.5498731,21.0383192 20.0000154,20.5881769 20.0000154,20.0333192 L20.0000154,9.14284639 Z"/>
  </defs>
  <g fill="none" fill-rule="evenodd">
    <rect width="580" height="180" fill="#FFF" fill-opacity=".01" fill-rule="nonzero"/>
    <g transform="translate(103 31)">
      <g transform="translate(0 37)">
        <rect width="375" height="48" fill="#FFF"/>
        <use fill="#000" filter="url(#1-a)" xlink:href="#1-b"/>
        <use fill="#FFF" fill-opacity="0" xlink:href="#1-b"/>
        <g transform="translate(314 5)">
          <path fill="#919FA8" d="M4.36923828,36 L3.4024414,36 L3.4024414,29.1196289 L0.904882811,29.1196289 L0.904882811,28.2495117 L6.86679687,28.2495117 L6.86679687,29.1196289 L4.36923828,29.1196289 L4.36923828,36 Z M9.54714844,30.9243164 C8.62332031,30.9243164 7.97878906,31.6010742 7.90896484,32.6269531 L11.0993945,32.6269531 C11.0779102,31.6010742 10.4656055,30.9243164 9.54714844,30.9243164 Z M11.0725391,34.5014648 L11.9963672,34.5014648 C11.7170703,35.4951172 10.8254687,36.1020508 9.55789062,36.1020508 C7.95193359,36.1020508 6.94753906,34.9418945 6.94753906,33.1103516 C6.94753906,31.2895508 7.96804687,30.1079102 9.55789062,30.1079102 C11.1208789,30.1079102 12.0715625,31.2197266 12.0715625,33.019043 L12.0715625,33.3735352 L7.90896484,33.3735352 L7.90896484,33.4165039 C7.95730469,34.5605469 8.59646484,35.2856445 9.579375,35.2856445 C10.325957,35.2856445 10.8308398,35.0117188 11.0725391,34.5014648 Z M15.4286719,33.8139648 L15.3427344,33.8139648 L13.9677344,36 L12.9203711,36 L14.9023047,33.1049805 L12.8988867,30.2099609 L13.9999609,30.2099609 L15.3749609,32.3637695 L15.4608984,32.3637695 L16.8197852,30.2099609 L17.8671484,30.2099609 L15.9013281,33.0673828 L17.8940039,36 L16.7983008,36 L15.4286719,33.8139648 Z M19.6129297,28.7114258 L20.5367578,28.7114258 L20.5367578,30.2099609 L21.8258203,30.2099609 L21.8258203,30.9833984 L20.5367578,30.9833984 L20.5367578,34.2597656 C20.5367578,34.9418945 20.7945703,35.2319336 21.3961328,35.2319336 C21.5626367,35.2319336 21.6539453,35.2265625 21.8258203,35.2104492 L21.8258203,35.9892578 C21.6432031,36.0214844 21.465957,36.0429688 21.2833398,36.0429688 C20.090957,36.0429688 19.6129297,35.6025391 19.6129297,34.4960938 L19.6129297,30.9833984 L18.6783594,30.9833984 L18.6783594,30.2099609 L19.6129297,30.2099609 L19.6129297,28.7114258 Z M26.5205078,36 L26.5205078,27.9111328 L27.4443359,27.9111328 L27.4443359,36 L26.5205078,36 Z M31.0914844,35.2910156 C32.042168,35.2910156 32.7457813,34.6679688 32.7457813,33.8408203 L32.7457813,33.309082 L31.1881641,33.4111328 C30.3073047,33.4702148 29.9205859,33.7763672 29.9205859,34.3564453 C29.9205859,34.9472656 30.4200977,35.2910156 31.0914844,35.2910156 Z M30.9196094,36.1020508 C29.7970508,36.1020508 28.9645313,35.4360352 28.9645313,34.3779297 C28.9645313,33.3413086 29.7272266,32.7451172 31.0753711,32.6645508 L32.7457813,32.5625 L32.7457813,32.0361328 C32.7457813,31.3217773 32.2999805,30.9296875 31.4352344,30.9296875 C30.7423633,30.9296875 30.2589648,31.1928711 30.1300586,31.6494141 L29.1954883,31.6494141 C29.3190234,30.7202148 30.2321094,30.1079102 31.4674609,30.1079102 C32.8800586,30.1079102 33.6696094,30.8330078 33.6696094,32.0361328 L33.6696094,36 L32.78875,36 L32.78875,35.1459961 L32.7028125,35.1459961 C32.3268359,35.7636719 31.6930469,36.1020508 30.9196094,36.1020508 Z M38.3265234,36.1020508 C37.5208594,36.1020508 36.8333594,35.7207031 36.468125,35.0761719 L36.3821875,35.0761719 L36.3821875,36 L35.5013281,36 L35.5013281,27.9111328 L36.4251563,27.9111328 L36.4251563,31.1230469 L36.5110938,31.1230469 C36.8279883,30.5 37.5316016,30.1079102 38.3265234,30.1079102 C39.7982031,30.1079102 40.7542578,31.2841797 40.7542578,33.1049805 C40.7542578,34.9150391 39.792832,36.1020508 38.3265234,36.1020508 Z M38.1116797,30.9404297 C37.0589453,30.9404297 36.4036719,31.7675781 36.4036719,33.1049805 C36.4036719,34.4423828 37.0589453,35.2695312 38.1116797,35.2695312 C39.1697852,35.2695312 39.7982031,34.4584961 39.7982031,33.1049805 C39.7982031,31.7514648 39.1697852,30.9404297 38.1116797,30.9404297 Z M44.5840234,30.9243164 C43.6601953,30.9243164 43.0156641,31.6010742 42.9458398,32.6269531 L46.1362695,32.6269531 C46.1147852,31.6010742 45.5024805,30.9243164 44.5840234,30.9243164 Z M46.1094141,34.5014648 L47.0332422,34.5014648 C46.7539453,35.4951172 45.8623438,36.1020508 44.5947656,36.1020508 C42.9888086,36.1020508 41.9844141,34.9418945 41.9844141,33.1103516 C41.9844141,31.2895508 43.0049219,30.1079102 44.5947656,30.1079102 C46.1577539,30.1079102 47.1084375,31.2197266 47.1084375,33.019043 L47.1084375,33.3735352 L42.9458398,33.3735352 L42.9458398,33.4165039 C42.9941797,34.5605469 43.6333398,35.2856445 44.61625,35.2856445 C45.362832,35.2856445 45.8677148,35.0117188 46.1094141,34.5014648 Z M48.6823438,36 L48.6823438,27.9111328 L49.6061719,27.9111328 L49.6061719,36 L48.6823438,36 Z"/>
          <g transform="translate(13)">
            <path d="M22.5,12 C22.5,13.2043883 21.6033646,14.2205752 20.4084762,14.3703315 L19.1843826,14.5228224 C18.8139894,14.5690194 18.634521,15.002062 18.8637518,15.2970794 L19.6214606,16.2706812 C20.3603604,17.2214482 20.2759249,18.5736819 19.4243867,19.4252201 C18.5732284,20.2763784 17.2209037,20.3608196 16.2695794,19.6212518 L15.2966285,18.8640491 C15.0018151,18.6350678 14.5689722,18.8143675 14.52279,19.1846421 L14.3694588,20.4087917 C14.2197957,21.6039884 13.2045899,22.5 12,22.5 C10.7954101,22.5 9.78020428,21.6039884 9.63054333,20.4088087 L9.47717756,19.1843826 C9.43102778,18.8143675 8.99818488,18.6350678 8.7037539,18.8637518 L7.73021284,19.6214134 C6.77909628,20.3608196 5.4267716,20.2763784 4.57561328,19.4252201 C3.7240751,18.5736819 3.63963956,17.2214482 4.3787482,16.2704128 L5.13601004,15.2973857 C5.365479,15.002062 5.18601065,14.5690194 4.81569049,14.5228315 L3.59115429,14.3702854 C2.39663545,14.2205752 1.5,13.2043883 1.5,12 C1.5,10.7962868 2.39679235,9.78023852 3.59152382,9.63050179 L4.81561744,9.4780109 C5.18601065,9.43181395 5.365479,8.99877133 5.1362482,8.7037539 L4.37853941,7.73015211 C3.63963956,6.7793851 3.7240751,5.42715145 4.57539443,4.57583226 C5.42629673,3.72387555 6.7787477,3.63974273 7.73021004,4.37941778 L8.70371275,5.13621617 C8.9984227,5.36552585 9.43102706,5.18647164 9.47721,4.81619127 L9.6305412,3.59204161 C9.78021844,2.39673184 10.7955238,1.5 12,1.5 C13.2044762,1.5 14.2197816,2.39673184 14.3694567,3.5920246 L14.5228224,4.81645077 C14.5689729,5.18647164 15.0015773,5.36552585 15.2964566,5.13608444 L16.2697872,4.37941995 C17.2212523,3.63974273 18.5737033,3.72387555 19.4243867,4.57561328 C20.2759249,5.42715145 20.3603604,6.7793851 19.6212518,7.73042057 L18.86399,8.70344765 C18.634521,8.99877133 18.8139894,9.43181395 19.1843095,9.47800179 L20.4084762,9.63050179 C21.6032077,9.78023852 22.5,10.7962868 22.5,12 Z M12,15 L12,15.5 C13.8913069,15.5 15.5,13.8914139 15.5,11.9994584 C15.5,10.1083874 13.8911082,8.5 12,8.5 C10.1088918,8.5 8.5,10.1083874 8.5,11.9994584 C8.5,13.8914139 10.1086931,15.5 12,15.5 L12,15 Z"/>
            <use fill="#A9B6BE" xlink:href="#1-c"/>
          </g>
        </g>
        <g transform="translate(238 5)">
          <path fill="#919FA8" d="M4.36923828,36 L3.4024414,36 L3.4024414,29.1196289 L0.904882811,29.1196289 L0.904882811,28.2495117 L6.86679687,28.2495117 L6.86679687,29.1196289 L4.36923828,29.1196289 L4.36923828,36 Z M9.54714844,30.9243164 C8.62332031,30.9243164 7.97878906,31.6010742 7.90896484,32.6269531 L11.0993945,32.6269531 C11.0779102,31.6010742 10.4656055,30.9243164 9.54714844,30.9243164 Z M11.0725391,34.5014648 L11.9963672,34.5014648 C11.7170703,35.4951172 10.8254687,36.1020508 9.55789062,36.1020508 C7.95193359,36.1020508 6.94753906,34.9418945 6.94753906,33.1103516 C6.94753906,31.2895508 7.96804687,30.1079102 9.55789062,30.1079102 C11.1208789,30.1079102 12.0715625,31.2197266 12.0715625,33.019043 L12.0715625,33.3735352 L7.90896484,33.3735352 L7.90896484,33.4165039 C7.95730469,34.5605469 8.59646484,35.2856445 9.579375,35.2856445 C10.325957,35.2856445 10.8308398,35.0117188 11.0725391,34.5014648 Z M15.4286719,33.8139648 L15.3427344,33.8139648 L13.9677344,36 L12.9203711,36 L14.9023047,33.1049805 L12.8988867,30.2099609 L13.9999609,30.2099609 L15.3749609,32.3637695 L15.4608984,32.3637695 L16.8197852,30.2099609 L17.8671484,30.2099609 L15.9013281,33.0673828 L17.8940039,36 L16.7983008,36 L15.4286719,33.8139648 Z M19.6129297,28.7114258 L20.5367578,28.7114258 L20.5367578,30.2099609 L21.8258203,30.2099609 L21.8258203,30.9833984 L20.5367578,30.9833984 L20.5367578,34.2597656 C20.5367578,34.9418945 20.7945703,35.2319336 21.3961328,35.2319336 C21.5626367,35.2319336 21.6539453,35.2265625 21.8258203,35.2104492 L21.8258203,35.9892578 C21.6432031,36.0214844 21.465957,36.0429688 21.2833398,36.0429688 C20.090957,36.0429688 19.6129297,35.6025391 19.6129297,34.4960938 L19.6129297,30.9833984 L18.6783594,30.9833984 L18.6783594,30.2099609 L19.6129297,30.2099609 L19.6129297,28.7114258 Z M26.5205078,36 L26.5205078,27.9111328 L27.4443359,27.9111328 L27.4443359,36 L26.5205078,36 Z M31.0914844,35.2910156 C32.042168,35.2910156 32.7457813,34.6679688 32.7457813,33.8408203 L32.7457813,33.309082 L31.1881641,33.4111328 C30.3073047,33.4702148 29.9205859,33.7763672 29.9205859,34.3564453 C29.9205859,34.9472656 30.4200977,35.2910156 31.0914844,35.2910156 Z M30.9196094,36.1020508 C29.7970508,36.1020508 28.9645313,35.4360352 28.9645313,34.3779297 C28.9645313,33.3413086 29.7272266,32.7451172 31.0753711,32.6645508 L32.7457813,32.5625 L32.7457813,32.0361328 C32.7457813,31.3217773 32.2999805,30.9296875 31.4352344,30.9296875 C30.7423633,30.9296875 30.2589648,31.1928711 30.1300586,31.6494141 L29.1954883,31.6494141 C29.3190234,30.7202148 30.2321094,30.1079102 31.4674609,30.1079102 C32.8800586,30.1079102 33.6696094,30.8330078 33.6696094,32.0361328 L33.6696094,36 L32.78875,36 L32.78875,35.1459961 L32.7028125,35.1459961 C32.3268359,35.7636719 31.6930469,36.1020508 30.9196094,36.1020508 Z M38.3265234,36.1020508 C37.5208594,36.1020508 36.8333594,35.7207031 36.468125,35.0761719 L36.3821875,35.0761719 L36.3821875,36 L35.5013281,36 L35.5013281,27.9111328 L36.4251563,27.9111328 L36.4251563,31.1230469 L36.5110938,31.1230469 C36.8279883,30.5 37.5316016,30.1079102 38.3265234,30.1079102 C39.7982031,30.1079102 40.7542578,31.2841797 40.7542578,33.1049805 C40.7542578,34.9150391 39.792832,36.1020508 38.3265234,36.1020508 Z M38.1116797,30.9404297 C37.0589453,30.9404297 36.4036719,31.7675781 36.4036719,33.1049805 C36.4036719,34.4423828 37.0589453,35.2695312 38.1116797,35.2695312 C39.1697852,35.2695312 39.7982031,34.4584961 39.7982031,33.1049805 C39.7982031,31.7514648 39.1697852,30.9404297 38.1116797,30.9404297 Z M44.5840234,30.9243164 C43.6601953,30.9243164 43.0156641,31.6010742 42.9458398,32.6269531 L46.1362695,32.6269531 C46.1147852,31.6010742 45.5024805,30.9243164 44.5840234,30.9243164 Z M46.1094141,34.5014648 L47.0332422,34.5014648 C46.7539453,35.4951172 45.8623438,36.1020508 44.5947656,36.1020508 C42.9888086,36.1020508 41.9844141,34.9418945 41.9844141,33.1103516 C41.9844141,31.2895508 43.0049219,30.1079102 44.5947656,30.1079102 C46.1577539,30.1079102 47.1084375,31.2197266 47.1084375,33.019043 L47.1084375,33.3735352 L42.9458398,33.3735352 L42.9458398,33.4165039 C42.9941797,34.5605469 43.6333398,35.2856445 44.61625,35.2856445 C45.362832,35.2856445 45.8677148,35.0117188 46.1094141,34.5014648 Z M48.6823438,36 L48.6823438,27.9111328 L49.6061719,27.9111328 L49.6061719,36 L48.6823438,36 Z"/>
          <path fill="#A9B6BE" d="M19.5713488,18.0016621 L4.4271902,18.0016621 C4.19258357,18.0016621 4.08430359,17.8396621 4.04921285,17.7706621 C4.01412212,17.6996621 3.94694842,17.5186621 4.08530618,17.3286621 L5.11196083,15.9366621 L5.11196083,11.2163 C5.11196083,8.1383 7.1151405,5.4273 9.98456003,4.6253 C10.2051304,4.5633 10.3414829,4.3613 10.3424855,4.1433 L10.3505063,3.7753 C10.3505063,2.7973 11.1485698,2.0003 12.1301078,2.0003 C13.1106432,2.0003 13.9087068,2.7973 13.9087068,3.7753 L13.9087068,4.1433 C13.9187327,4.3613 14.0540827,4.5633 14.274653,4.6253 C17.1440726,5.4273 19.1482548,8.1383 19.1482548,11.2163 L19.1482548,15.8986621 L19.9453158,17.3786621 C20.0475802,17.5696621 19.9723858,17.7336621 19.9352899,17.7956621 C19.898194,17.8576621 19.7889114,18.0016621 19.5713488,18.0016621 Z M13.6349991,19.5016621 C13.6349991,20.3296621 12.9602544,21.0036621 12.1301078,21.0036621 C11.2999613,21.0036621 10.624214,20.3296621 10.624214,19.5016621 L10.624214,19.0016621 L13.6349991,19.0016621 L13.6349991,19.5016621 Z M20.1508473,15.6466621 L20.1508473,11.2163 C20.1508473,7.8283 18.0093098,4.8453 14.9112992,3.7983 C14.9112992,2.2453 13.6640742,1.0003 12.1301078,1.0003 C10.5961414,1.0003 9.34791384,2.2453 9.34791384,3.7753 C6.25090582,4.8453 4.1093684,7.8283 4.1093684,11.2163 L4.1093684,15.6076621 L3.27721668,16.7366621 C2.9573897,17.1716621 2.91127044,17.7406621 3.1549004,18.2216621 C3.39953296,18.7026621 3.88679288,19.0016621 4.4271902,19.0016621 L9.62162157,19.0016621 L9.62162157,19.5016621 C9.62162157,20.8816621 10.7465303,22.0036621 12.1301078,22.0036621 C13.5126828,22.0036621 14.6375915,20.8816621 14.6375915,19.5016621 L14.6375915,19.0016621 L19.5713488,19.0016621 C20.0786606,19.0016621 20.5358427,18.7426621 20.7955142,18.3096621 C21.0561882,17.8756621 21.0682193,17.3516621 20.8285997,16.9056621 L20.1508473,15.6466621 Z" transform="translate(13)"/>
        </g>
        <g transform="translate(163 5)">
          <path fill="#919FA8" d="M4.36923828,36 L3.4024414,36 L3.4024414,29.1196289 L0.904882811,29.1196289 L0.904882811,28.2495117 L6.86679687,28.2495117 L6.86679687,29.1196289 L4.36923828,29.1196289 L4.36923828,36 Z M9.54714844,30.9243164 C8.62332031,30.9243164 7.97878906,31.6010742 7.90896484,32.6269531 L11.0993945,32.6269531 C11.0779102,31.6010742 10.4656055,30.9243164 9.54714844,30.9243164 Z M11.0725391,34.5014648 L11.9963672,34.5014648 C11.7170703,35.4951172 10.8254687,36.1020508 9.55789062,36.1020508 C7.95193359,36.1020508 6.94753906,34.9418945 6.94753906,33.1103516 C6.94753906,31.2895508 7.96804687,30.1079102 9.55789062,30.1079102 C11.1208789,30.1079102 12.0715625,31.2197266 12.0715625,33.019043 L12.0715625,33.3735352 L7.90896484,33.3735352 L7.90896484,33.4165039 C7.95730469,34.5605469 8.59646484,35.2856445 9.579375,35.2856445 C10.325957,35.2856445 10.8308398,35.0117188 11.0725391,34.5014648 Z M15.4286719,33.8139648 L15.3427344,33.8139648 L13.9677344,36 L12.9203711,36 L14.9023047,33.1049805 L12.8988867,30.2099609 L13.9999609,30.2099609 L15.3749609,32.3637695 L15.4608984,32.3637695 L16.8197852,30.2099609 L17.8671484,30.2099609 L15.9013281,33.0673828 L17.8940039,36 L16.7983008,36 L15.4286719,33.8139648 Z M19.6129297,28.7114258 L20.5367578,28.7114258 L20.5367578,30.2099609 L21.8258203,30.2099609 L21.8258203,30.9833984 L20.5367578,30.9833984 L20.5367578,34.2597656 C20.5367578,34.9418945 20.7945703,35.2319336 21.3961328,35.2319336 C21.5626367,35.2319336 21.6539453,35.2265625 21.8258203,35.2104492 L21.8258203,35.9892578 C21.6432031,36.0214844 21.465957,36.0429688 21.2833398,36.0429688 C20.090957,36.0429688 19.6129297,35.6025391 19.6129297,34.4960938 L19.6129297,30.9833984 L18.6783594,30.9833984 L18.6783594,30.2099609 L19.6129297,30.2099609 L19.6129297,28.7114258 Z M26.5205078,36 L26.5205078,27.9111328 L27.4443359,27.9111328 L27.4443359,36 L26.5205078,36 Z M31.0914844,35.2910156 C32.042168,35.2910156 32.7457813,34.6679688 32.7457813,33.8408203 L32.7457813,33.309082 L31.1881641,33.4111328 C30.3073047,33.4702148 29.9205859,33.7763672 29.9205859,34.3564453 C29.9205859,34.9472656 30.4200977,35.2910156 31.0914844,35.2910156 Z M30.9196094,36.1020508 C29.7970508,36.1020508 28.9645313,35.4360352 28.9645313,34.3779297 C28.9645313,33.3413086 29.7272266,32.7451172 31.0753711,32.6645508 L32.7457813,32.5625 L32.7457813,32.0361328 C32.7457813,31.3217773 32.2999805,30.9296875 31.4352344,30.9296875 C30.7423633,30.9296875 30.2589648,31.1928711 30.1300586,31.6494141 L29.1954883,31.6494141 C29.3190234,30.7202148 30.2321094,30.1079102 31.4674609,30.1079102 C32.8800586,30.1079102 33.6696094,30.8330078 33.6696094,32.0361328 L33.6696094,36 L32.78875,36 L32.78875,35.1459961 L32.7028125,35.1459961 C32.3268359,35.7636719 31.6930469,36.1020508 30.9196094,36.1020508 Z M38.3265234,36.1020508 C37.5208594,36.1020508 36.8333594,35.7207031 36.468125,35.0761719 L36.3821875,35.0761719 L36.3821875,36 L35.5013281,36 L35.5013281,27.9111328 L36.4251563,27.9111328 L36.4251563,31.1230469 L36.5110938,31.1230469 C36.8279883,30.5 37.5316016,30.1079102 38.3265234,30.1079102 C39.7982031,30.1079102 40.7542578,31.2841797 40.7542578,33.1049805 C40.7542578,34.9150391 39.792832,36.1020508 38.3265234,36.1020508 Z M38.1116797,30.9404297 C37.0589453,30.9404297 36.4036719,31.7675781 36.4036719,33.1049805 C36.4036719,34.4423828 37.0589453,35.2695312 38.1116797,35.2695312 C39.1697852,35.2695312 39.7982031,34.4584961 39.7982031,33.1049805 C39.7982031,31.7514648 39.1697852,30.9404297 38.1116797,30.9404297 Z M44.5840234,30.9243164 C43.6601953,30.9243164 43.0156641,31.6010742 42.9458398,32.6269531 L46.1362695,32.6269531 C46.1147852,31.6010742 45.5024805,30.9243164 44.5840234,30.9243164 Z M46.1094141,34.5014648 L47.0332422,34.5014648 C46.7539453,35.4951172 45.8623438,36.1020508 44.5947656,36.1020508 C42.9888086,36.1020508 41.9844141,34.9418945 41.9844141,33.1103516 C41.9844141,31.2895508 43.0049219,30.1079102 44.5947656,30.1079102 C46.1577539,30.1079102 47.1084375,31.2197266 47.1084375,33.019043 L47.1084375,33.3735352 L42.9458398,33.3735352 L42.9458398,33.4165039 C42.9941797,34.5605469 43.6333398,35.2856445 44.61625,35.2856445 C45.362832,35.2856445 45.8677148,35.0117188 46.1094141,34.5014648 Z M48.6823438,36 L48.6823438,27.9111328 L49.6061719,27.9111328 L49.6061719,36 L48.6823438,36 Z"/>
          <g transform="translate(13)">
            <path d="M13.4905339,2 C18.1895222,2 22,5.79635638 22,10.4801597 L22,20.9648116 C22,21.5667582 21.4981468,22 20.9652409,22 C20.772914,22 20.5765802,21.9430996 20.3982771,21.8183179 C18.3297606,20.362865 18.8396274,18.970302 11.1615747,18.970302 L10.5144746,18.970302 C5.81248122,18.970302 2,15.1709508 2,10.485151 C2,5.79935114 5.81248122,2 10.5144746,2 L13.4905339,2 Z M16,9 L8,9 C7.72385763,9 7.5,9.22385763 7.5,9.5 C7.5,9.77614237 7.72385763,10 8,10 L16,10 C16.2761424,10 16.5,9.77614237 16.5,9.5 C16.5,9.22385763 16.2761424,9 16,9 Z M14,12 L10,12 C9.72385763,12 9.5,12.2238576 9.5,12.5 C9.5,12.7761424 9.72385763,13 10,13 L14,13 C14.2761424,13 14.5,12.7761424 14.5,12.5 C14.5,12.2238576 14.2761424,12 14,12 Z"/>
            <use fill="#A9B6BE" xlink:href="#1-d"/>
          </g>
        </g>
        <g transform="translate(87 5)">
          <path fill="#919FA8" d="M4.36923828,36 L3.4024414,36 L3.4024414,29.1196289 L0.904882811,29.1196289 L0.904882811,28.2495117 L6.86679687,28.2495117 L6.86679687,29.1196289 L4.36923828,29.1196289 L4.36923828,36 Z M9.54714844,30.9243164 C8.62332031,30.9243164 7.97878906,31.6010742 7.90896484,32.6269531 L11.0993945,32.6269531 C11.0779102,31.6010742 10.4656055,30.9243164 9.54714844,30.9243164 Z M11.0725391,34.5014648 L11.9963672,34.5014648 C11.7170703,35.4951172 10.8254687,36.1020508 9.55789062,36.1020508 C7.95193359,36.1020508 6.94753906,34.9418945 6.94753906,33.1103516 C6.94753906,31.2895508 7.96804687,30.1079102 9.55789062,30.1079102 C11.1208789,30.1079102 12.0715625,31.2197266 12.0715625,33.019043 L12.0715625,33.3735352 L7.90896484,33.3735352 L7.90896484,33.4165039 C7.95730469,34.5605469 8.59646484,35.2856445 9.579375,35.2856445 C10.325957,35.2856445 10.8308398,35.0117188 11.0725391,34.5014648 Z M15.4286719,33.8139648 L15.3427344,33.8139648 L13.9677344,36 L12.9203711,36 L14.9023047,33.1049805 L12.8988867,30.2099609 L13.9999609,30.2099609 L15.3749609,32.3637695 L15.4608984,32.3637695 L16.8197852,30.2099609 L17.8671484,30.2099609 L15.9013281,33.0673828 L17.8940039,36 L16.7983008,36 L15.4286719,33.8139648 Z M19.6129297,28.7114258 L20.5367578,28.7114258 L20.5367578,30.2099609 L21.8258203,30.2099609 L21.8258203,30.9833984 L20.5367578,30.9833984 L20.5367578,34.2597656 C20.5367578,34.9418945 20.7945703,35.2319336 21.3961328,35.2319336 C21.5626367,35.2319336 21.6539453,35.2265625 21.8258203,35.2104492 L21.8258203,35.9892578 C21.6432031,36.0214844 21.465957,36.0429688 21.2833398,36.0429688 C20.090957,36.0429688 19.6129297,35.6025391 19.6129297,34.4960938 L19.6129297,30.9833984 L18.6783594,30.9833984 L18.6783594,30.2099609 L19.6129297,30.2099609 L19.6129297,28.7114258 Z M26.5205078,36 L26.5205078,27.9111328 L27.4443359,27.9111328 L27.4443359,36 L26.5205078,36 Z M31.0914844,35.2910156 C32.042168,35.2910156 32.7457813,34.6679688 32.7457813,33.8408203 L32.7457813,33.309082 L31.1881641,33.4111328 C30.3073047,33.4702148 29.9205859,33.7763672 29.9205859,34.3564453 C29.9205859,34.9472656 30.4200977,35.2910156 31.0914844,35.2910156 Z M30.9196094,36.1020508 C29.7970508,36.1020508 28.9645313,35.4360352 28.9645313,34.3779297 C28.9645313,33.3413086 29.7272266,32.7451172 31.0753711,32.6645508 L32.7457813,32.5625 L32.7457813,32.0361328 C32.7457813,31.3217773 32.2999805,30.9296875 31.4352344,30.9296875 C30.7423633,30.9296875 30.2589648,31.1928711 30.1300586,31.6494141 L29.1954883,31.6494141 C29.3190234,30.7202148 30.2321094,30.1079102 31.4674609,30.1079102 C32.8800586,30.1079102 33.6696094,30.8330078 33.6696094,32.0361328 L33.6696094,36 L32.78875,36 L32.78875,35.1459961 L32.7028125,35.1459961 C32.3268359,35.7636719 31.6930469,36.1020508 30.9196094,36.1020508 Z M38.3265234,36.1020508 C37.5208594,36.1020508 36.8333594,35.7207031 36.468125,35.0761719 L36.3821875,35.0761719 L36.3821875,36 L35.5013281,36 L35.5013281,27.9111328 L36.4251563,27.9111328 L36.4251563,31.1230469 L36.5110938,31.1230469 C36.8279883,30.5 37.5316016,30.1079102 38.3265234,30.1079102 C39.7982031,30.1079102 40.7542578,31.2841797 40.7542578,33.1049805 C40.7542578,34.9150391 39.792832,36.1020508 38.3265234,36.1020508 Z M38.1116797,30.9404297 C37.0589453,30.9404297 36.4036719,31.7675781 36.4036719,33.1049805 C36.4036719,34.4423828 37.0589453,35.2695312 38.1116797,35.2695312 C39.1697852,35.2695312 39.7982031,34.4584961 39.7982031,33.1049805 C39.7982031,31.7514648 39.1697852,30.9404297 38.1116797,30.9404297 Z M44.5840234,30.9243164 C43.6601953,30.9243164 43.0156641,31.6010742 42.9458398,32.6269531 L46.1362695,32.6269531 C46.1147852,31.6010742 45.5024805,30.9243164 44.5840234,30.9243164 Z M46.1094141,34.5014648 L47.0332422,34.5014648 C46.7539453,35.4951172 45.8623438,36.1020508 44.5947656,36.1020508 C42.9888086,36.1020508 41.9844141,34.9418945 41.9844141,33.1103516 C41.9844141,31.2895508 43.0049219,30.1079102 44.5947656,30.1079102 C46.1577539,30.1079102 47.1084375,31.2197266 47.1084375,33.019043 L47.1084375,33.3735352 L42.9458398,33.3735352 L42.9458398,33.4165039 C42.9941797,34.5605469 43.6333398,35.2856445 44.61625,35.2856445 C45.362832,35.2856445 45.8677148,35.0117188 46.1094141,34.5014648 Z M48.6823438,36 L48.6823438,27.9111328 L49.6061719,27.9111328 L49.6061719,36 L48.6823438,36 Z"/>
          <g transform="translate(13)">
            <path d="M12,11 C10.346,11 9,9.654 9,8 C9,6.346 10.346,5 12,5 C13.654,5 15,6.346 15,8 C15,9.654 13.654,11 12,11 Z M18.3594,19.6826 C18.6494,19.4426 18.9344,19.1956 19.1964,18.9236 C18.2954,15.7936 15.4204,13.4996 12.0004,13.4996 C8.5804,13.4996 5.7054,15.7936 4.8034,18.9236 C5.0654,19.1956 5.3504,19.4426 5.6404,19.6826 C6.2554,16.6936 8.8994,14.4996 12.0004,14.4996 C15.1004,14.4996 17.7454,16.6936 18.3594,19.6826 Z M12.0004,3.9996 C9.7944,3.9996 8.0004,5.7936 8.0004,7.9996 C8.0004,10.2056 9.7944,11.9996 12.0004,11.9996 C14.2064,11.9996 16.0004,10.2056 16.0004,7.9996 C16.0004,5.7936 14.2064,3.9996 12.0004,3.9996 Z M12.0004,0.9996 C18.0754,0.9996 23.0004,5.9246 23.0004,11.9996 C23.0004,18.0756 18.0754,22.9996 12.0004,22.9996 C5.9244,22.9996 1.0004,18.0756 1.0004,11.9996 C1.0004,5.9246 5.9244,0.9996 12.0004,0.9996 Z"/>
            <use fill="#A9B6BE" xlink:href="#1-e"/>
          </g>
        </g>
        <g transform="translate(11 5)">
          <path fill="#495A67" d="M4.36923828,36 L3.4024414,36 L3.4024414,29.1196289 L0.904882811,29.1196289 L0.904882811,28.2495117 L6.86679687,28.2495117 L6.86679687,29.1196289 L4.36923828,29.1196289 L4.36923828,36 Z M9.54714844,30.9243164 C8.62332031,30.9243164 7.97878906,31.6010742 7.90896484,32.6269531 L11.0993945,32.6269531 C11.0779102,31.6010742 10.4656055,30.9243164 9.54714844,30.9243164 Z M11.0725391,34.5014648 L11.9963672,34.5014648 C11.7170703,35.4951172 10.8254687,36.1020508 9.55789062,36.1020508 C7.95193359,36.1020508 6.94753906,34.9418945 6.94753906,33.1103516 C6.94753906,31.2895508 7.96804687,30.1079102 9.55789062,30.1079102 C11.1208789,30.1079102 12.0715625,31.2197266 12.0715625,33.019043 L12.0715625,33.3735352 L7.90896484,33.3735352 L7.90896484,33.4165039 C7.95730469,34.5605469 8.59646484,35.2856445 9.579375,35.2856445 C10.325957,35.2856445 10.8308398,35.0117188 11.0725391,34.5014648 Z M15.4286719,33.8139648 L15.3427344,33.8139648 L13.9677344,36 L12.9203711,36 L14.9023047,33.1049805 L12.8988867,30.2099609 L13.9999609,30.2099609 L15.3749609,32.3637695 L15.4608984,32.3637695 L16.8197852,30.2099609 L17.8671484,30.2099609 L15.9013281,33.0673828 L17.8940039,36 L16.7983008,36 L15.4286719,33.8139648 Z M19.6129297,28.7114258 L20.5367578,28.7114258 L20.5367578,30.2099609 L21.8258203,30.2099609 L21.8258203,30.9833984 L20.5367578,30.9833984 L20.5367578,34.2597656 C20.5367578,34.9418945 20.7945703,35.2319336 21.3961328,35.2319336 C21.5626367,35.2319336 21.6539453,35.2265625 21.8258203,35.2104492 L21.8258203,35.9892578 C21.6432031,36.0214844 21.465957,36.0429688 21.2833398,36.0429688 C20.090957,36.0429688 19.6129297,35.6025391 19.6129297,34.4960938 L19.6129297,30.9833984 L18.6783594,30.9833984 L18.6783594,30.2099609 L19.6129297,30.2099609 L19.6129297,28.7114258 Z M26.5205078,36 L26.5205078,27.9111328 L27.4443359,27.9111328 L27.4443359,36 L26.5205078,36 Z M31.0914844,35.2910156 C32.042168,35.2910156 32.7457813,34.6679688 32.7457813,33.8408203 L32.7457813,33.309082 L31.1881641,33.4111328 C30.3073047,33.4702148 29.9205859,33.7763672 29.9205859,34.3564453 C29.9205859,34.9472656 30.4200977,35.2910156 31.0914844,35.2910156 Z M30.9196094,36.1020508 C29.7970508,36.1020508 28.9645313,35.4360352 28.9645313,34.3779297 C28.9645313,33.3413086 29.7272266,32.7451172 31.0753711,32.6645508 L32.7457813,32.5625 L32.7457813,32.0361328 C32.7457813,31.3217773 32.2999805,30.9296875 31.4352344,30.9296875 C30.7423633,30.9296875 30.2589648,31.1928711 30.1300586,31.6494141 L29.1954883,31.6494141 C29.3190234,30.7202148 30.2321094,30.1079102 31.4674609,30.1079102 C32.8800586,30.1079102 33.6696094,30.8330078 33.6696094,32.0361328 L33.6696094,36 L32.78875,36 L32.78875,35.1459961 L32.7028125,35.1459961 C32.3268359,35.7636719 31.6930469,36.1020508 30.9196094,36.1020508 Z M38.3265234,36.1020508 C37.5208594,36.1020508 36.8333594,35.7207031 36.468125,35.0761719 L36.3821875,35.0761719 L36.3821875,36 L35.5013281,36 L35.5013281,27.9111328 L36.4251563,27.9111328 L36.4251563,31.1230469 L36.5110938,31.1230469 C36.8279883,30.5 37.5316016,30.1079102 38.3265234,30.1079102 C39.7982031,30.1079102 40.7542578,31.2841797 40.7542578,33.1049805 C40.7542578,34.9150391 39.792832,36.1020508 38.3265234,36.1020508 Z M38.1116797,30.9404297 C37.0589453,30.9404297 36.4036719,31.7675781 36.4036719,33.1049805 C36.4036719,34.4423828 37.0589453,35.2695312 38.1116797,35.2695312 C39.1697852,35.2695312 39.7982031,34.4584961 39.7982031,33.1049805 C39.7982031,31.7514648 39.1697852,30.9404297 38.1116797,30.9404297 Z M44.5840234,30.9243164 C43.6601953,30.9243164 43.0156641,31.6010742 42.9458398,32.6269531 L46.1362695,32.6269531 C46.1147852,31.6010742 45.5024805,30.9243164 44.5840234,30.9243164 Z M46.1094141,34.5014648 L47.0332422,34.5014648 C46.7539453,35.4951172 45.8623438,36.1020508 44.5947656,36.1020508 C42.9888086,36.1020508 41.9844141,34.9418945 41.9844141,33.1103516 C41.9844141,31.2895508 43.0049219,30.1079102 44.5947656,30.1079102 C46.1577539,30.1079102 47.1084375,31.2197266 47.1084375,33.019043 L47.1084375,33.3735352 L42.9458398,33.3735352 L42.9458398,33.4165039 C42.9941797,34.5605469 43.6333398,35.2856445 44.61625,35.2856445 C45.362832,35.2856445 45.8677148,35.0117188 46.1094141,34.5014648 Z M48.6823438,36 L48.6823438,27.9111328 L49.6061719,27.9111328 L49.6061719,36 L48.6823438,36 Z"/>
          <g transform="translate(13)">
            <path fill="#F3F6FA" d="M21.0084545,9.96610807 L21,20.0353752 C21,21.1403752 20.1,22.0403752 18.995,22.0403752 L16.005,22.0403752 C14.897,22.0403752 14,21.1423752 14,20.0353752 L14,17.0433752 C14,16.4913752 13.549,16.0403752 12.997,16.0403752 L11.003,16.0403752 C10.449,16.0403752 10,16.4893752 10,17.0433752 L10,20.0353752 C10,21.1423752 9.102,22.0403752 7.995,22.0403752 L5.005,22.0403752 C3.897,22.0403752 3,21.1423752 3,20.0353752 L3,9.95965965 L1.81613021,10.9257098 C1.6021803,11.1002952 1.28721023,11.0683839 1.11262487,10.854434 C0.938039506,10.6404841 0.969950772,10.325514 1.18390068,10.1509287 L10.3152218,2.70300627 C11.2455388,1.77142355 12.7544921,1.77142355 13.6471302,2.66892865 L22.8161302,10.1509287 C23.0300801,10.325514 23.0619914,10.6404841 22.887406,10.854434 C22.7128207,11.0683839 22.3978506,11.1002952 22.1839007,10.9257098 L21.0084545,9.96610807 Z"/>
            <use fill="#314351" xlink:href="#1-f"/>
          </g>
        </g>
      </g>
      <g fill="#C41261" transform="translate(0 22)">
        <rect width="365" height="1" x="5" y="2"/>
        <polygon points="372.5 0 375 5 370 5" transform="rotate(90 372.5 2.5)"/>
        <polygon points="2.5 0 5 5 0 5" transform="matrix(0 1 1 0 0 0)"/>
      </g>
      <path fill="#C41261" d="M23.97,0.661 L23.97,12 L22.542,12 L22.542,0.661 L23.97,0.661 Z M28.05,5.302 L28.05,10.402 C28.067,10.793 28.169,10.878 28.645,10.878 L29.24,10.878 L29.24,12 L28.033,12 C27.115,11.983 26.758,11.643 26.758,10.776 L26.758,5.302 L25.67,5.302 L25.67,4.163 L26.758,4.163 L26.758,1.698 L28.05,1.698 L28.05,4.163 L29.24,4.163 L29.24,5.302 L28.05,5.302 Z M38.352,8.498 L31.824,8.498 C31.892,9.161 32.011,9.501 32.334,9.926 C32.844,10.623 33.592,10.997 34.442,10.997 C35.411,10.997 36.329,10.47 36.788,9.654 L37.927,10.079 C37.281,11.388 35.938,12.187 34.442,12.187 C32.113,12.187 30.447,10.487 30.447,8.107 C30.447,5.693 32.096,3.976 34.391,3.976 C36.669,3.976 38.369,5.693 38.369,7.988 C38.369,8.09 38.369,8.311 38.352,8.498 Z M31.841,7.546 L36.992,7.546 C36.941,6.934 36.822,6.594 36.55,6.203 C36.057,5.54 35.258,5.132 34.391,5.132 C33.524,5.132 32.742,5.54 32.283,6.22 C32.045,6.594 31.943,6.917 31.841,7.546 Z M40.239,4.163 L41.531,4.163 L41.531,5.251 C42.126,4.35 42.789,3.976 43.758,3.976 C44.829,3.976 45.509,4.435 45.866,5.404 C46.444,4.401 47.175,3.976 48.348,3.976 C49.249,3.976 49.929,4.265 50.337,4.809 C50.711,5.302 50.813,5.744 50.813,6.985 L50.813,12 L49.521,12 L49.521,7.291 C49.521,6.339 49.487,6.118 49.3,5.795 C49.062,5.387 48.552,5.132 47.94,5.132 C46.801,5.132 46.172,5.897 46.172,7.291 L46.172,12 L44.88,12 L44.88,7.308 C44.88,6.543 44.812,6.152 44.625,5.812 C44.404,5.37 43.928,5.132 43.35,5.132 C42.211,5.132 41.531,5.948 41.531,7.308 L41.531,12 L40.239,12 L40.239,4.163 Z M58.463,4.163 L59.755,4.163 L59.755,5.591 C60.503,4.435 61.302,3.976 62.611,3.976 C64.787,3.976 66.3,5.642 66.3,8.022 C66.3,10.487 64.787,12.187 62.611,12.187 C61.999,12.187 61.438,12.051 60.894,11.779 C60.418,11.541 60.18,11.337 59.755,10.776 L59.755,15.672 L58.463,15.672 L58.463,4.163 Z M62.39,5.132 C60.826,5.132 59.755,6.373 59.755,8.209 C59.755,9.926 60.792,11.065 62.339,11.065 C63.886,11.065 64.923,9.858 64.923,8.073 C64.923,7.155 64.702,6.458 64.243,5.948 C63.784,5.438 63.087,5.132 62.39,5.132 Z M71.638,3.976 C73.95,3.976 75.599,5.693 75.599,8.107 C75.599,10.402 73.831,12.187 71.587,12.187 C69.258,12.187 67.626,10.487 67.626,8.073 C67.626,5.642 69.258,3.976 71.638,3.976 Z M71.638,5.166 C70.023,5.166 68.952,6.339 68.952,8.09 C68.952,9.824 70.023,10.997 71.621,10.997 C73.168,10.997 74.273,9.79 74.273,8.09 C74.273,6.339 73.219,5.166 71.638,5.166 Z M82.484,6.305 L81.192,6.305 L81.192,6.22 C81.192,5.489 80.597,5.03 79.696,5.03 C78.829,5.03 78.285,5.472 78.285,6.152 C78.285,6.832 78.625,7.087 80.036,7.478 C81.039,7.75 81.566,8.005 81.94,8.379 C82.331,8.77 82.569,9.331 82.569,9.909 C82.569,11.269 81.447,12.187 79.781,12.187 C77.996,12.187 76.993,11.354 76.857,9.773 L78.132,9.773 C78.217,10.657 78.795,11.133 79.781,11.133 C80.665,11.133 81.243,10.674 81.243,9.977 C81.243,9.297 80.801,8.957 79.458,8.617 C77.758,8.158 76.993,7.444 76.993,6.254 C76.993,4.894 78.098,3.976 79.747,3.976 C81.413,3.976 82.416,4.826 82.484,6.305 Z M85.85,4.163 L85.85,12 L84.558,12 L84.558,4.163 L85.85,4.163 Z M85.221,1.12 C85.68,1.12 86.037,1.494 86.037,1.97 C86.037,2.429 85.663,2.786 85.204,2.786 C84.745,2.786 84.388,2.429 84.388,1.953 C84.388,1.477 84.745,1.12 85.221,1.12 Z M89.828,5.302 L89.828,10.402 C89.845,10.793 89.947,10.878 90.423,10.878 L91.018,10.878 L91.018,12 L89.811,12 C88.893,11.983 88.536,11.643 88.536,10.776 L88.536,5.302 L87.448,5.302 L87.448,4.163 L88.536,4.163 L88.536,1.698 L89.828,1.698 L89.828,4.163 L91.018,4.163 L91.018,5.302 L89.828,5.302 Z M94.146,4.163 L94.146,12 L92.854,12 L92.854,4.163 L94.146,4.163 Z M93.517,1.12 C93.976,1.12 94.333,1.494 94.333,1.97 C94.333,2.429 93.959,2.786 93.5,2.786 C93.041,2.786 92.684,2.429 92.684,1.953 C92.684,1.477 93.041,1.12 93.517,1.12 Z M100.13,3.976 C102.442,3.976 104.091,5.693 104.091,8.107 C104.091,10.402 102.323,12.187 100.079,12.187 C97.75,12.187 96.118,10.487 96.118,8.073 C96.118,5.642 97.75,3.976 100.13,3.976 Z M100.13,5.166 C98.515,5.166 97.444,6.339 97.444,8.09 C97.444,9.824 98.515,10.997 100.113,10.997 C101.66,10.997 102.765,9.79 102.765,8.09 C102.765,6.339 101.711,5.166 100.13,5.166 Z M106.063,4.163 L107.355,4.163 L107.355,5.268 C108.035,4.35 108.715,3.976 109.684,3.976 C110.398,3.976 111.044,4.214 111.503,4.622 C111.996,5.098 112.166,5.642 112.166,6.713 L112.166,12 L110.874,12 L110.874,7.002 C110.874,6.305 110.789,5.931 110.585,5.659 C110.347,5.336 109.888,5.132 109.361,5.132 C108.783,5.132 108.256,5.353 107.865,5.795 C107.491,6.203 107.355,6.577 107.355,7.223 L107.355,12 L106.063,12 L106.063,4.163 Z M116.008,4.163 L116.008,12 L114.716,12 L114.716,4.163 L116.008,4.163 Z M115.379,1.12 C115.838,1.12 116.195,1.494 116.195,1.97 C116.195,2.429 115.821,2.786 115.362,2.786 C114.903,2.786 114.546,2.429 114.546,1.953 C114.546,1.477 114.903,1.12 115.379,1.12 Z M118.609,4.163 L119.901,4.163 L119.901,5.268 C120.581,4.35 121.261,3.976 122.23,3.976 C122.944,3.976 123.59,4.214 124.049,4.622 C124.542,5.098 124.712,5.642 124.712,6.713 L124.712,12 L123.42,12 L123.42,7.002 C123.42,6.305 123.335,5.931 123.131,5.659 C122.893,5.336 122.434,5.132 121.907,5.132 C121.329,5.132 120.802,5.353 120.411,5.795 C120.037,6.203 119.901,6.577 119.901,7.223 L119.901,12 L118.609,12 L118.609,4.163 Z M133.059,5.506 L133.059,4.163 L134.351,4.163 L134.351,12.051 C134.351,13.36 134.028,14.244 133.314,14.924 C132.617,15.604 131.614,15.961 130.424,15.961 C128.962,15.961 127.806,15.485 126.956,14.533 L127.84,13.649 C128.197,14.023 128.367,14.176 128.588,14.329 C129.03,14.601 129.761,14.788 130.424,14.788 C131.24,14.788 132.022,14.499 132.464,14.023 C132.855,13.598 133.059,12.969 133.059,12.153 L133.059,10.504 C132.294,11.66 131.393,12.187 130.169,12.187 C128.095,12.187 126.548,10.436 126.548,8.107 C126.548,6.849 127.007,5.642 127.789,4.894 C128.418,4.282 129.268,3.976 130.271,3.976 C131.461,3.976 132.26,4.418 133.059,5.506 Z M130.509,5.166 C128.979,5.166 127.908,6.356 127.908,8.056 C127.908,9.739 128.996,10.997 130.475,10.997 C131.223,10.997 131.954,10.64 132.464,10.045 C132.804,9.654 133.025,8.889 133.025,8.107 C133.025,7.087 132.872,6.543 132.413,6.033 C131.937,5.506 131.206,5.166 130.509,5.166 Z M137.615,10.368 C138.125,10.368 138.499,10.742 138.499,11.269 C138.499,11.762 138.108,12.136 137.615,12.136 C137.105,12.136 136.731,11.762 136.731,11.252 C136.731,10.742 137.105,10.368 137.615,10.368 Z M137.615,5.472 C138.125,5.472 138.499,5.846 138.499,6.373 C138.499,6.866 138.108,7.24 137.615,7.24 C137.105,7.24 136.731,6.866 136.731,6.356 C136.731,5.846 137.105,5.472 137.615,5.472 Z M147.526,1.885 L147.526,5.676 L151.946,5.676 L151.946,6.9 L147.526,6.9 L147.526,12 L146.098,12 L146.098,0.661 L151.946,0.661 L151.946,1.885 L147.526,1.885 Z M155.023,4.163 L155.023,12 L153.731,12 L153.731,4.163 L155.023,4.163 Z M154.394,1.12 C154.853,1.12 155.21,1.494 155.21,1.97 C155.21,2.429 154.836,2.786 154.377,2.786 C153.918,2.786 153.561,2.429 153.561,1.953 C153.561,1.477 153.918,1.12 154.394,1.12 Z M158.916,12 L157.624,12 L157.624,0.661 L158.916,0.661 L158.916,12 Z M162.809,12 L161.517,12 L161.517,0.661 L162.809,0.661 L162.809,12 Z M173.723,15.162 L172.873,15.978 C170.867,13.513 169.949,11.116 169.949,8.26 C169.949,5.336 171.02,2.446 172.907,0.321 L173.723,1.171 C172.006,3.296 171.156,5.659 171.156,8.209 C171.156,10.691 172.074,13.173 173.723,15.162 Z M181.543,5.455 L181.543,4.163 L182.835,4.163 L182.835,12 L181.543,12 L181.543,10.487 C180.761,11.66 179.877,12.187 178.687,12.187 C176.528,12.187 174.998,10.487 174.998,8.107 C174.998,5.71 176.562,3.976 178.721,3.976 C179.911,3.976 180.778,4.435 181.543,5.455 Z M178.908,5.132 C178.058,5.132 177.463,5.421 177.004,6.067 C176.596,6.628 176.358,7.376 176.358,8.141 C176.358,9.807 177.446,11.065 178.874,11.065 C180.353,11.065 181.56,9.688 181.56,8.005 C181.56,6.305 180.472,5.132 178.908,5.132 Z M190.349,6.305 L189.057,6.305 L189.057,6.22 C189.057,5.489 188.462,5.03 187.561,5.03 C186.694,5.03 186.15,5.472 186.15,6.152 C186.15,6.832 186.49,7.087 187.901,7.478 C188.904,7.75 189.431,8.005 189.805,8.379 C190.196,8.77 190.434,9.331 190.434,9.909 C190.434,11.269 189.312,12.187 187.646,12.187 C185.861,12.187 184.858,11.354 184.722,9.773 L185.997,9.773 C186.082,10.657 186.66,11.133 187.646,11.133 C188.53,11.133 189.108,10.674 189.108,9.977 C189.108,9.297 188.666,8.957 187.323,8.617 C185.623,8.158 184.858,7.444 184.858,6.254 C184.858,4.894 185.963,3.976 187.612,3.976 C189.278,3.976 190.281,4.826 190.349,6.305 Z M200.906,3.976 C203.218,3.976 204.867,5.693 204.867,8.107 C204.867,10.402 203.099,12.187 200.855,12.187 C198.526,12.187 196.894,10.487 196.894,8.073 C196.894,5.642 198.526,3.976 200.906,3.976 Z M200.906,5.166 C199.291,5.166 198.22,6.339 198.22,8.09 C198.22,9.824 199.291,10.997 200.889,10.997 C202.436,10.997 203.541,9.79 203.541,8.09 C203.541,6.339 202.487,5.166 200.906,5.166 Z M206.839,4.163 L208.131,4.163 L208.131,5.591 C208.879,4.435 209.678,3.976 210.987,3.976 C213.163,3.976 214.676,5.642 214.676,8.022 C214.676,10.487 213.163,12.187 210.987,12.187 C210.375,12.187 209.814,12.051 209.27,11.779 C208.794,11.541 208.556,11.337 208.131,10.776 L208.131,15.672 L206.839,15.672 L206.839,4.163 Z M210.766,5.132 C209.202,5.132 208.131,6.373 208.131,8.209 C208.131,9.926 209.168,11.065 210.715,11.065 C212.262,11.065 213.299,9.858 213.299,8.073 C213.299,7.155 213.078,6.458 212.619,5.948 C212.16,5.438 211.463,5.132 210.766,5.132 Z M216.631,4.163 L217.923,4.163 L217.923,5.591 C218.671,4.435 219.47,3.976 220.779,3.976 C222.955,3.976 224.468,5.642 224.468,8.022 C224.468,10.487 222.955,12.187 220.779,12.187 C220.167,12.187 219.606,12.051 219.062,11.779 C218.586,11.541 218.348,11.337 217.923,10.776 L217.923,15.672 L216.631,15.672 L216.631,4.163 Z M220.558,5.132 C218.994,5.132 217.923,6.373 217.923,8.209 C217.923,9.926 218.96,11.065 220.507,11.065 C222.054,11.065 223.091,9.858 223.091,8.073 C223.091,7.155 222.87,6.458 222.411,5.948 C221.952,5.438 221.255,5.132 220.558,5.132 Z M229.806,3.976 C232.118,3.976 233.767,5.693 233.767,8.107 C233.767,10.402 231.999,12.187 229.755,12.187 C227.426,12.187 225.794,10.487 225.794,8.073 C225.794,5.642 227.426,3.976 229.806,3.976 Z M229.806,5.166 C228.191,5.166 227.12,6.339 227.12,8.09 C227.12,9.824 228.191,10.997 229.789,10.997 C231.336,10.997 232.441,9.79 232.441,8.09 C232.441,6.339 231.387,5.166 229.806,5.166 Z M240.652,6.305 L239.36,6.305 L239.36,6.22 C239.36,5.489 238.765,5.03 237.864,5.03 C236.997,5.03 236.453,5.472 236.453,6.152 C236.453,6.832 236.793,7.087 238.204,7.478 C239.207,7.75 239.734,8.005 240.108,8.379 C240.499,8.77 240.737,9.331 240.737,9.909 C240.737,11.269 239.615,12.187 237.949,12.187 C236.164,12.187 235.161,11.354 235.025,9.773 L236.3,9.773 C236.385,10.657 236.963,11.133 237.949,11.133 C238.833,11.133 239.411,10.674 239.411,9.977 C239.411,9.297 238.969,8.957 237.626,8.617 C235.926,8.158 235.161,7.444 235.161,6.254 C235.161,4.894 236.266,3.976 237.915,3.976 C239.581,3.976 240.584,4.826 240.652,6.305 Z M250.002,8.498 L243.474,8.498 C243.542,9.161 243.661,9.501 243.984,9.926 C244.494,10.623 245.242,10.997 246.092,10.997 C247.061,10.997 247.979,10.47 248.438,9.654 L249.577,10.079 C248.931,11.388 247.588,12.187 246.092,12.187 C243.763,12.187 242.097,10.487 242.097,8.107 C242.097,5.693 243.746,3.976 246.041,3.976 C248.319,3.976 250.019,5.693 250.019,7.988 C250.019,8.09 250.019,8.311 250.002,8.498 Z M243.491,7.546 L248.642,7.546 C248.591,6.934 248.472,6.594 248.2,6.203 C247.707,5.54 246.908,5.132 246.041,5.132 C245.174,5.132 244.392,5.54 243.933,6.22 C243.695,6.594 243.593,6.917 243.491,7.546 Z M257.754,5.353 L257.754,0.661 L259.046,0.661 L259.046,12 L257.754,12 L257.754,10.657 C256.972,11.728 256.139,12.187 254.949,12.187 C252.79,12.187 251.26,10.504 251.26,8.124 C251.26,5.744 252.824,3.976 254.949,3.976 C256.105,3.976 256.989,4.401 257.754,5.353 Z M255.221,5.132 C253.674,5.132 252.62,6.356 252.62,8.141 C252.62,9.858 253.657,11.065 255.136,11.065 C256.649,11.065 257.754,9.807 257.754,8.107 C257.754,6.339 256.717,5.132 255.221,5.132 Z M268.124,5.302 L268.124,10.402 C268.141,10.793 268.243,10.878 268.719,10.878 L269.314,10.878 L269.314,12 L268.107,12 C267.189,11.983 266.832,11.643 266.832,10.776 L266.832,5.302 L265.744,5.302 L265.744,4.163 L266.832,4.163 L266.832,1.698 L268.124,1.698 L268.124,4.163 L269.314,4.163 L269.314,5.302 L268.124,5.302 Z M274.533,3.976 C276.845,3.976 278.494,5.693 278.494,8.107 C278.494,10.402 276.726,12.187 274.482,12.187 C272.153,12.187 270.521,10.487 270.521,8.073 C270.521,5.642 272.153,3.976 274.533,3.976 Z M274.533,5.166 C272.918,5.166 271.847,6.339 271.847,8.09 C271.847,9.824 272.918,10.997 274.516,10.997 C276.063,10.997 277.168,9.79 277.168,8.09 C277.168,6.339 276.114,5.166 274.533,5.166 Z M290.87,10.147 L291.669,11.031 C290.785,11.83 289.918,12.187 288.779,12.187 C286.535,12.187 284.937,10.487 284.937,8.107 C284.937,5.676 286.552,3.976 288.847,3.976 C289.969,3.976 290.887,4.35 291.703,5.149 L290.87,5.982 C290.275,5.438 289.612,5.166 288.881,5.166 C287.334,5.166 286.263,6.356 286.263,8.056 C286.263,9.79 287.334,10.997 288.864,10.997 C289.629,10.997 290.241,10.742 290.87,10.147 Z M300.611,8.498 L294.083,8.498 C294.151,9.161 294.27,9.501 294.593,9.926 C295.103,10.623 295.851,10.997 296.701,10.997 C297.67,10.997 298.588,10.47 299.047,9.654 L300.186,10.079 C299.54,11.388 298.197,12.187 296.701,12.187 C294.372,12.187 292.706,10.487 292.706,8.107 C292.706,5.693 294.355,3.976 296.65,3.976 C298.928,3.976 300.628,5.693 300.628,7.988 C300.628,8.09 300.628,8.311 300.611,8.498 Z M294.1,7.546 L299.251,7.546 C299.2,6.934 299.081,6.594 298.809,6.203 C298.316,5.54 297.517,5.132 296.65,5.132 C295.783,5.132 295.001,5.54 294.542,6.22 C294.304,6.594 294.202,6.917 294.1,7.546 Z M302.498,4.163 L303.79,4.163 L303.79,5.268 C304.47,4.35 305.15,3.976 306.119,3.976 C306.833,3.976 307.479,4.214 307.938,4.622 C308.431,5.098 308.601,5.642 308.601,6.713 L308.601,12 L307.309,12 L307.309,7.002 C307.309,6.305 307.224,5.931 307.02,5.659 C306.782,5.336 306.323,5.132 305.796,5.132 C305.218,5.132 304.691,5.353 304.3,5.795 C303.926,6.203 303.79,6.577 303.79,7.223 L303.79,12 L302.498,12 L302.498,4.163 Z M312.528,5.302 L312.528,10.402 C312.545,10.793 312.647,10.878 313.123,10.878 L313.718,10.878 L313.718,12 L312.511,12 C311.593,11.983 311.236,11.643 311.236,10.776 L311.236,5.302 L310.148,5.302 L310.148,4.163 L311.236,4.163 L311.236,1.698 L312.528,1.698 L312.528,4.163 L313.718,4.163 L313.718,5.302 L312.528,5.302 Z M322.83,8.498 L316.302,8.498 C316.37,9.161 316.489,9.501 316.812,9.926 C317.322,10.623 318.07,10.997 318.92,10.997 C319.889,10.997 320.807,10.47 321.266,9.654 L322.405,10.079 C321.759,11.388 320.416,12.187 318.92,12.187 C316.591,12.187 314.925,10.487 314.925,8.107 C314.925,5.693 316.574,3.976 318.869,3.976 C321.147,3.976 322.847,5.693 322.847,7.988 C322.847,8.09 322.847,8.311 322.83,8.498 Z M316.319,7.546 L321.47,7.546 C321.419,6.934 321.3,6.594 321.028,6.203 C320.535,5.54 319.736,5.132 318.869,5.132 C318.002,5.132 317.22,5.54 316.761,6.22 C316.523,6.594 316.421,6.917 316.319,7.546 Z M324.717,4.163 L326.009,4.163 L326.009,5.489 C326.247,4.928 326.417,4.69 326.723,4.452 C327.114,4.146 327.658,3.976 328.219,3.976 L328.525,3.976 L328.525,5.285 C328.389,5.268 328.253,5.268 328.168,5.268 C327.471,5.268 326.859,5.591 326.468,6.169 C326.128,6.662 326.009,7.121 326.009,8.022 L326.009,12 L324.717,12 L324.717,4.163 Z M337.399,8.498 L330.871,8.498 C330.939,9.161 331.058,9.501 331.381,9.926 C331.891,10.623 332.639,10.997 333.489,10.997 C334.458,10.997 335.376,10.47 335.835,9.654 L336.974,10.079 C336.328,11.388 334.985,12.187 333.489,12.187 C331.16,12.187 329.494,10.487 329.494,8.107 C329.494,5.693 331.143,3.976 333.438,3.976 C335.716,3.976 337.416,5.693 337.416,7.988 C337.416,8.09 337.416,8.311 337.399,8.498 Z M330.888,7.546 L336.039,7.546 C335.988,6.934 335.869,6.594 335.597,6.203 C335.104,5.54 334.305,5.132 333.438,5.132 C332.571,5.132 331.789,5.54 331.33,6.22 C331.092,6.594 330.99,6.917 330.888,7.546 Z M345.151,5.353 L345.151,0.661 L346.443,0.661 L346.443,12 L345.151,12 L345.151,10.657 C344.369,11.728 343.536,12.187 342.346,12.187 C340.187,12.187 338.657,10.504 338.657,8.124 C338.657,5.744 340.221,3.976 342.346,3.976 C343.502,3.976 344.386,4.401 345.151,5.353 Z M342.618,5.132 C341.071,5.132 340.017,6.356 340.017,8.141 C340.017,9.858 341.054,11.065 342.533,11.065 C344.046,11.065 345.151,9.807 345.151,8.107 C345.151,6.339 344.114,5.132 342.618,5.132 Z M348.347,1.137 L349.197,0.321 C351.22,2.803 352.121,5.183 352.121,8.039 C352.121,10.98 351.05,13.836 349.163,15.978 L348.347,15.128 C350.064,13.003 350.914,10.64 350.914,8.09 C350.914,5.591 350.013,3.143 348.347,1.137 Z"/>
      <g transform="translate(0 95)">
        <rect width="24" height="24" fill="#FFF" rx="2"/>
        <path fill="#C41261" d="M30.904,9.455 L30.904,16 L29.98,16 L29.98,9.455 L28.11,9.455 L28.11,8.663 L32.763,8.663 L32.763,9.455 L30.904,9.455 Z M37.537,11.765 L37.537,10.929 L38.373,10.929 L38.373,16 L37.537,16 L37.537,15.021 C37.031,15.78 36.459,16.121 35.689,16.121 C34.292,16.121 33.302,15.021 33.302,13.481 C33.302,11.93 34.314,10.808 35.711,10.808 C36.481,10.808 37.042,11.105 37.537,11.765 Z M35.832,11.556 C35.282,11.556 34.897,11.743 34.6,12.161 C34.336,12.524 34.182,13.008 34.182,13.503 C34.182,14.581 34.886,15.395 35.81,15.395 C36.767,15.395 37.548,14.504 37.548,13.415 C37.548,12.315 36.844,11.556 35.832,11.556 Z M40.892,15.131 L40.892,16 L40.056,16 L40.056,8.663 L40.892,8.663 L40.892,11.798 C41.398,11.105 41.937,10.808 42.674,10.808 C44.093,10.808 45.083,11.908 45.083,13.481 C45.083,15.032 44.104,16.121 42.718,16.121 C41.937,16.121 41.387,15.824 40.892,15.131 Z M42.564,11.556 C41.596,11.556 40.881,12.359 40.881,13.47 C40.881,14.625 41.541,15.395 42.531,15.395 C43.532,15.395 44.203,14.636 44.203,13.503 C44.203,12.37 43.521,11.556 42.564,11.556 Z M49.736,8.663 L51.804,8.663 C53.3,8.663 54.147,9.367 54.147,10.61 C54.147,11.083 54.004,11.501 53.729,11.809 C53.553,12.018 53.377,12.128 52.981,12.282 C53.388,12.37 53.586,12.447 53.817,12.623 C54.213,12.942 54.422,13.437 54.422,14.031 C54.422,14.713 54.125,15.307 53.63,15.626 C53.201,15.901 52.728,16 51.804,16 L49.736,16 L49.736,8.663 Z M50.66,9.422 L50.66,11.963 L51.595,11.952 C52.178,11.952 52.53,11.875 52.794,11.666 C53.08,11.435 53.245,11.061 53.245,10.654 C53.245,10.181 53.014,9.763 52.662,9.598 C52.398,9.466 52.09,9.422 51.419,9.422 L50.66,9.422 Z M50.66,12.711 L50.66,15.252 L51.584,15.252 C52.354,15.252 52.651,15.197 52.97,15.01 C53.322,14.812 53.498,14.46 53.498,13.976 C53.498,13.096 52.981,12.711 51.815,12.711 L50.66,12.711 Z M59.548,11.765 L59.548,10.929 L60.384,10.929 L60.384,16 L59.548,16 L59.548,15.021 C59.042,15.78 58.47,16.121 57.7,16.121 C56.303,16.121 55.313,15.021 55.313,13.481 C55.313,11.93 56.325,10.808 57.722,10.808 C58.492,10.808 59.053,11.105 59.548,11.765 Z M57.843,11.556 C57.293,11.556 56.908,11.743 56.611,12.161 C56.347,12.524 56.193,13.008 56.193,13.503 C56.193,14.581 56.897,15.395 57.821,15.395 C58.778,15.395 59.559,14.504 59.559,13.415 C59.559,12.315 58.855,11.556 57.843,11.556 Z M62.067,10.929 L62.903,10.929 L62.903,11.787 C63.057,11.424 63.167,11.27 63.365,11.116 C63.618,10.918 63.97,10.808 64.333,10.808 L64.531,10.808 L64.531,11.655 C64.443,11.644 64.355,11.644 64.3,11.644 C63.849,11.644 63.453,11.853 63.2,12.227 C62.98,12.546 62.903,12.843 62.903,13.426 L62.903,16 L62.067,16 L62.067,10.929 Z M68.942,8.663 L71.01,8.663 C72.506,8.663 73.353,9.367 73.353,10.61 C73.353,11.083 73.21,11.501 72.935,11.809 C72.759,12.018 72.583,12.128 72.187,12.282 C72.594,12.37 72.792,12.447 73.023,12.623 C73.419,12.942 73.628,13.437 73.628,14.031 C73.628,14.713 73.331,15.307 72.836,15.626 C72.407,15.901 71.934,16 71.01,16 L68.942,16 L68.942,8.663 Z M69.866,9.422 L69.866,11.963 L70.801,11.952 C71.384,11.952 71.736,11.875 72,11.666 C72.286,11.435 72.451,11.061 72.451,10.654 C72.451,10.181 72.22,9.763 71.868,9.598 C71.604,9.466 71.296,9.422 70.625,9.422 L69.866,9.422 Z M69.866,12.711 L69.866,15.252 L70.79,15.252 C71.56,15.252 71.857,15.197 72.176,15.01 C72.528,14.812 72.704,14.46 72.704,13.976 C72.704,13.096 72.187,12.711 71.021,12.711 L69.866,12.711 Z M78.754,11.765 L78.754,10.929 L79.59,10.929 L79.59,16 L78.754,16 L78.754,15.021 C78.248,15.78 77.676,16.121 76.906,16.121 C75.509,16.121 74.519,15.021 74.519,13.481 C74.519,11.93 75.531,10.808 76.928,10.808 C77.698,10.808 78.259,11.105 78.754,11.765 Z M77.049,11.556 C76.499,11.556 76.114,11.743 75.817,12.161 C75.553,12.524 75.399,13.008 75.399,13.503 C75.399,14.581 76.103,15.395 77.027,15.395 C77.984,15.395 78.765,14.504 78.765,13.415 C78.765,12.315 78.061,11.556 77.049,11.556 Z M84.705,14.801 L85.222,15.373 C84.65,15.89 84.089,16.121 83.352,16.121 C81.9,16.121 80.866,15.021 80.866,13.481 C80.866,11.908 81.911,10.808 83.396,10.808 C84.122,10.808 84.716,11.05 85.244,11.567 L84.705,12.106 C84.32,11.754 83.891,11.578 83.418,11.578 C82.417,11.578 81.724,12.348 81.724,13.448 C81.724,14.57 82.417,15.351 83.407,15.351 C83.902,15.351 84.298,15.186 84.705,14.801 Z M87.136,13.734 L87.136,16 L86.3,16 L86.3,8.663 L87.136,8.663 L87.136,13.151 L89.16,10.929 L90.216,10.929 L87.95,13.404 L90.205,16 L89.16,16 L87.136,13.734 Z M94.935,11.798 L94.935,10.929 L95.771,10.929 L95.771,16.033 C95.771,16.88 95.562,17.452 95.1,17.892 C94.649,18.332 94,18.563 93.23,18.563 C92.284,18.563 91.536,18.255 90.986,17.639 L91.558,17.067 C91.789,17.309 91.899,17.408 92.042,17.507 C92.328,17.683 92.801,17.804 93.23,17.804 C93.758,17.804 94.264,17.617 94.55,17.309 C94.803,17.034 94.935,16.627 94.935,16.099 L94.935,15.032 C94.44,15.78 93.857,16.121 93.065,16.121 C91.723,16.121 90.722,14.988 90.722,13.481 C90.722,12.667 91.019,11.886 91.525,11.402 C91.932,11.006 92.482,10.808 93.131,10.808 C93.901,10.808 94.418,11.094 94.935,11.798 Z M93.285,11.578 C92.295,11.578 91.602,12.348 91.602,13.448 C91.602,14.537 92.306,15.351 93.263,15.351 C93.747,15.351 94.22,15.12 94.55,14.735 C94.77,14.482 94.913,13.987 94.913,13.481 C94.913,12.821 94.814,12.469 94.517,12.139 C94.209,11.798 93.736,11.578 93.285,11.578 Z M97.454,10.929 L98.29,10.929 L98.29,11.787 C98.444,11.424 98.554,11.27 98.752,11.116 C99.005,10.918 99.357,10.808 99.72,10.808 L99.918,10.808 L99.918,11.655 C99.83,11.644 99.742,11.644 99.687,11.644 C99.236,11.644 98.84,11.853 98.587,12.227 C98.367,12.546 98.29,12.843 98.29,13.426 L98.29,16 L97.454,16 L97.454,10.929 Z M103.141,10.808 C104.637,10.808 105.704,11.919 105.704,13.481 C105.704,14.966 104.56,16.121 103.108,16.121 C101.601,16.121 100.545,15.021 100.545,13.459 C100.545,11.886 101.601,10.808 103.141,10.808 Z M103.141,11.578 C102.096,11.578 101.403,12.337 101.403,13.47 C101.403,14.592 102.096,15.351 103.13,15.351 C104.131,15.351 104.846,14.57 104.846,13.47 C104.846,12.337 104.164,11.578 103.141,11.578 Z M109.928,10.929 L110.775,10.929 L110.775,14.174 C110.775,14.867 110.643,15.252 110.269,15.593 C109.895,15.934 109.378,16.121 108.806,16.121 C108.234,16.121 107.706,15.923 107.343,15.582 C107.002,15.252 106.837,14.79 106.837,14.174 L106.837,10.929 L107.673,10.929 L107.673,14.152 C107.673,14.867 108.135,15.373 108.806,15.373 C109.158,15.373 109.499,15.23 109.708,14.988 C109.873,14.79 109.928,14.581 109.928,14.174 L109.928,10.929 Z M112.315,10.929 L113.151,10.929 L113.151,11.644 C113.591,11.05 114.031,10.808 114.658,10.808 C115.12,10.808 115.538,10.962 115.835,11.226 C116.154,11.534 116.264,11.886 116.264,12.579 L116.264,16 L115.428,16 L115.428,12.766 C115.428,12.315 115.373,12.073 115.241,11.897 C115.087,11.688 114.79,11.556 114.449,11.556 C114.075,11.556 113.734,11.699 113.481,11.985 C113.239,12.249 113.151,12.491 113.151,12.909 L113.151,16 L112.315,16 L112.315,10.929 Z M121.709,11.699 L121.709,8.663 L122.545,8.663 L122.545,16 L121.709,16 L121.709,15.131 C121.203,15.824 120.664,16.121 119.894,16.121 C118.497,16.121 117.507,15.032 117.507,13.492 C117.507,11.952 118.519,10.808 119.894,10.808 C120.642,10.808 121.214,11.083 121.709,11.699 Z M120.07,11.556 C119.069,11.556 118.387,12.348 118.387,13.503 C118.387,14.614 119.058,15.395 120.015,15.395 C120.994,15.395 121.709,14.581 121.709,13.481 C121.709,12.337 121.038,11.556 120.07,11.556 Z M124.657,14.944 C124.987,14.944 125.229,15.186 125.229,15.527 C125.229,15.846 124.976,16.088 124.657,16.088 C124.327,16.088 124.085,15.846 124.085,15.516 C124.085,15.186 124.327,14.944 124.657,14.944 Z M124.657,11.776 C124.987,11.776 125.229,12.018 125.229,12.359 C125.229,12.678 124.976,12.92 124.657,12.92 C124.327,12.92 124.085,12.678 124.085,12.348 C124.085,12.018 124.327,11.776 124.657,11.776 Z M136.009,14.306 L137.692,8.663 L138.649,8.663 L136.405,16 L135.591,16 L133.974,10.236 L132.346,16 L131.532,16 L129.288,8.663 L130.267,8.663 L131.939,14.284 L133.567,8.663 L134.436,8.663 L136.009,14.306 Z M140.376,8.663 L140.376,11.633 C140.838,11.061 141.3,10.808 141.905,10.808 C142.345,10.808 142.807,10.984 143.082,11.27 C143.357,11.545 143.478,11.941 143.478,12.59 L143.478,16 L142.642,16 L142.642,12.634 C142.642,11.941 142.301,11.556 141.696,11.556 C141.311,11.556 140.97,11.71 140.706,12.007 C140.453,12.293 140.376,12.546 140.376,13.03 L140.376,16 L139.54,16 L139.54,8.663 L140.376,8.663 Z M145.964,10.929 L145.964,16 L145.128,16 L145.128,10.929 L145.964,10.929 Z M145.557,8.96 C145.854,8.96 146.085,9.202 146.085,9.51 C146.085,9.807 145.843,10.038 145.546,10.038 C145.249,10.038 145.018,9.807 145.018,9.499 C145.018,9.191 145.249,8.96 145.557,8.96 Z M148.538,11.666 L148.538,14.966 C148.549,15.219 148.615,15.274 148.923,15.274 L149.308,15.274 L149.308,16 L148.527,16 C147.933,15.989 147.702,15.769 147.702,15.208 L147.702,11.666 L146.998,11.666 L146.998,10.929 L147.702,10.929 L147.702,9.334 L148.538,9.334 L148.538,10.929 L149.308,10.929 L149.308,11.666 L148.538,11.666 Z M155.204,13.734 L150.98,13.734 C151.024,14.163 151.101,14.383 151.31,14.658 C151.64,15.109 152.124,15.351 152.674,15.351 C153.301,15.351 153.895,15.01 154.192,14.482 L154.929,14.757 C154.511,15.604 153.642,16.121 152.674,16.121 C151.167,16.121 150.089,15.021 150.089,13.481 C150.089,11.919 151.156,10.808 152.641,10.808 C154.115,10.808 155.215,11.919 155.215,13.404 C155.215,13.47 155.215,13.613 155.204,13.734 Z M150.991,13.118 L154.324,13.118 C154.291,12.722 154.214,12.502 154.038,12.249 C153.719,11.82 153.202,11.556 152.641,11.556 C152.08,11.556 151.574,11.82 151.277,12.26 C151.123,12.502 151.057,12.711 150.991,13.118 Z"/>
      </g>
    </g>
  </g>
</svg>
