<svg xmlns="http://www.w3.org/2000/svg" xmlns:xlink="http://www.w3.org/1999/xlink" width="200" height="180" viewBox="0 0 200 180">
  <defs>
    <path id="2-a" d="M21.0000154,9.95921869 L21.0000154,20.0333192 C21.0000154,21.1404616 20.1021578,22.0383192 18.9950154,22.0383192 L16.0050154,22.0383192 C14.8978731,22.0383192 14.0000154,21.1404616 14.0000154,20.0333192 L14.0000154,17.0413192 C14.0000154,16.4874616 13.5508731,16.0383192 12.9970154,16.0383192 L11.0030154,16.0383192 C10.4491578,16.0383192 10.0000154,16.4874616 10.0000154,17.0413192 L10.0000154,20.0333192 C10.0000154,21.1404616 9.10215782,22.0383192 7.99501544,22.0383192 L5.00501544,22.0383192 C3.89787307,22.0383192 3.00001544,21.1404616 3.00001544,20.0333192 L3.00001544,9.95964705 L1.81613021,10.9257098 C1.6021803,11.1002952 1.28721023,11.0683839 1.11262487,10.854434 C0.938039506,10.6404841 0.969950772,10.325514 1.18390068,10.1509287 L10.3152218,2.70300627 C11.2455388,1.77142355 12.7544921,1.77142355 13.6471302,2.66892865 L22.8161302,10.1509287 C23.0300801,10.325514 23.0619914,10.6404841 22.887406,10.854434 C22.7128207,11.0683839 22.3978506,11.1002952 22.1839007,10.9257098 L21.0000154,9.95921869 Z M20.0000154,9.14284639 L12.9772218,3.40963219 C12.4375388,2.86921491 11.5624921,2.86921491 10.9851302,3.4437098 L4.00001544,9.14363658 L4.00001544,20.0333192 C4.00001544,20.5881769 4.45015782,21.0383192 5.00501544,21.0383192 L7.99501544,21.0383192 C8.54987307,21.0383192 9.00001544,20.5881769 9.00001544,20.0333192 L9.00001544,17.0413192 C9.00001544,15.9351769 9.89687307,15.0383192 11.0030154,15.0383192 L12.9970154,15.0383192 C14.1031578,15.0383192 15.0000154,15.9351769 15.0000154,17.0413192 L15.0000154,20.0333192 C15.0000154,20.5881769 15.4501578,21.0383192 16.0050154,21.0383192 L18.9950154,21.0383192 C19.5498731,21.0383192 20.0000154,20.5881769 20.0000154,20.0333192 L20.0000154,9.14284639 Z"/>
  </defs>
  <g fill="none" fill-rule="evenodd">
    <rect width="200" height="180" fill="#FFF" fill-opacity=".01" fill-rule="nonzero"/>
    <g transform="translate(9 27)">
      <g transform="translate(0 68)">
        <rect width="24" height="24" fill="#004D8A" rx="2"/>
        <path fill="#C41261" d="M32.972,14.306 L29.683,14.306 L29.012,16 L28.055,16 L30.816,8.663 L31.916,8.663 L34.611,16 L33.577,16 L32.972,14.306 Z M32.686,13.514 L31.344,9.829 L29.958,13.514 L32.686,13.514 Z M35.502,10.929 L36.338,10.929 L36.338,11.853 C36.822,11.105 37.339,10.808 38.186,10.808 C39.594,10.808 40.573,11.886 40.573,13.426 C40.573,15.021 39.594,16.121 38.186,16.121 C37.79,16.121 37.427,16.033 37.075,15.857 C36.767,15.703 36.613,15.571 36.338,15.208 L36.338,18.376 L35.502,18.376 L35.502,10.929 Z M38.043,11.556 C37.031,11.556 36.338,12.359 36.338,13.547 C36.338,14.658 37.009,15.395 38.01,15.395 C39.011,15.395 39.682,14.614 39.682,13.459 C39.682,12.865 39.539,12.414 39.242,12.084 C38.945,11.754 38.494,11.556 38.043,11.556 Z M41.838,10.929 L42.674,10.929 L42.674,11.853 C43.158,11.105 43.675,10.808 44.522,10.808 C45.93,10.808 46.909,11.886 46.909,13.426 C46.909,15.021 45.93,16.121 44.522,16.121 C44.126,16.121 43.763,16.033 43.411,15.857 C43.103,15.703 42.949,15.571 42.674,15.208 L42.674,18.376 L41.838,18.376 L41.838,10.929 Z M44.379,11.556 C43.367,11.556 42.674,12.359 42.674,13.547 C42.674,14.658 43.345,15.395 44.346,15.395 C45.347,15.395 46.018,14.614 46.018,13.459 C46.018,12.865 45.875,12.414 45.578,12.084 C45.281,11.754 44.83,11.556 44.379,11.556 Z M52.31,15.131 L52.31,16 L51.474,16 L51.474,8.663 L52.31,8.663 L52.31,11.798 C52.816,11.105 53.355,10.808 54.092,10.808 C55.511,10.808 56.501,11.908 56.501,13.481 C56.501,15.032 55.522,16.121 54.136,16.121 C53.355,16.121 52.805,15.824 52.31,15.131 Z M53.982,11.556 C53.014,11.556 52.299,12.359 52.299,13.47 C52.299,14.625 52.959,15.395 53.949,15.395 C54.95,15.395 55.621,14.636 55.621,13.503 C55.621,12.37 54.939,11.556 53.982,11.556 Z M57.777,10.929 L58.613,10.929 L58.613,11.787 C58.767,11.424 58.877,11.27 59.075,11.116 C59.328,10.918 59.68,10.808 60.043,10.808 L60.241,10.808 L60.241,11.655 C60.153,11.644 60.065,11.644 60.01,11.644 C59.559,11.644 59.163,11.853 58.91,12.227 C58.69,12.546 58.613,12.843 58.613,13.426 L58.613,16 L57.777,16 L57.777,10.929 Z M65.103,11.765 L65.103,10.929 L65.939,10.929 L65.939,16 L65.103,16 L65.103,15.021 C64.597,15.78 64.025,16.121 63.255,16.121 C61.858,16.121 60.868,15.021 60.868,13.481 C60.868,11.93 61.88,10.808 63.277,10.808 C64.047,10.808 64.608,11.105 65.103,11.765 Z M63.398,11.556 C62.848,11.556 62.463,11.743 62.166,12.161 C61.902,12.524 61.748,13.008 61.748,13.503 C61.748,14.581 62.452,15.395 63.376,15.395 C64.333,15.395 65.114,14.504 65.114,13.415 C65.114,12.315 64.41,11.556 63.398,11.556 Z M67.622,10.929 L68.458,10.929 L68.458,11.644 C68.898,11.05 69.338,10.808 69.965,10.808 C70.427,10.808 70.845,10.962 71.142,11.226 C71.461,11.534 71.571,11.886 71.571,12.579 L71.571,16 L70.735,16 L70.735,12.766 C70.735,12.315 70.68,12.073 70.548,11.897 C70.394,11.688 70.097,11.556 69.756,11.556 C69.382,11.556 69.041,11.699 68.788,11.985 C68.546,12.249 68.458,12.491 68.458,12.909 L68.458,16 L67.622,16 L67.622,10.929 Z M77.016,11.699 L77.016,8.663 L77.852,8.663 L77.852,16 L77.016,16 L77.016,15.131 C76.51,15.824 75.971,16.121 75.201,16.121 C73.804,16.121 72.814,15.032 72.814,13.492 C72.814,11.952 73.826,10.808 75.201,10.808 C75.949,10.808 76.521,11.083 77.016,11.699 Z M75.377,11.556 C74.376,11.556 73.694,12.348 73.694,13.503 C73.694,14.614 74.365,15.395 75.322,15.395 C76.301,15.395 77.016,14.581 77.016,13.481 C77.016,12.337 76.345,11.556 75.377,11.556 Z M80.371,10.929 L80.371,16 L79.535,16 L79.535,10.929 L80.371,10.929 Z M79.964,8.96 C80.261,8.96 80.492,9.202 80.492,9.51 C80.492,9.807 80.25,10.038 79.953,10.038 C79.656,10.038 79.425,9.807 79.425,9.499 C79.425,9.191 79.656,8.96 79.964,8.96 Z M82.054,10.929 L82.89,10.929 L82.89,11.644 C83.33,11.05 83.77,10.808 84.397,10.808 C84.859,10.808 85.277,10.962 85.574,11.226 C85.893,11.534 86.003,11.886 86.003,12.579 L86.003,16 L85.167,16 L85.167,12.766 C85.167,12.315 85.112,12.073 84.98,11.897 C84.826,11.688 84.529,11.556 84.188,11.556 C83.814,11.556 83.473,11.699 83.22,11.985 C82.978,12.249 82.89,12.491 82.89,12.909 L82.89,16 L82.054,16 L82.054,10.929 Z M91.404,11.798 L91.404,10.929 L92.24,10.929 L92.24,16.033 C92.24,16.88 92.031,17.452 91.569,17.892 C91.118,18.332 90.469,18.563 89.699,18.563 C88.753,18.563 88.005,18.255 87.455,17.639 L88.027,17.067 C88.258,17.309 88.368,17.408 88.511,17.507 C88.797,17.683 89.27,17.804 89.699,17.804 C90.227,17.804 90.733,17.617 91.019,17.309 C91.272,17.034 91.404,16.627 91.404,16.099 L91.404,15.032 C90.909,15.78 90.326,16.121 89.534,16.121 C88.192,16.121 87.191,14.988 87.191,13.481 C87.191,12.667 87.488,11.886 87.994,11.402 C88.401,11.006 88.951,10.808 89.6,10.808 C90.37,10.808 90.887,11.094 91.404,11.798 Z M89.754,11.578 C88.764,11.578 88.071,12.348 88.071,13.448 C88.071,14.537 88.775,15.351 89.732,15.351 C90.216,15.351 90.689,15.12 91.019,14.735 C91.239,14.482 91.382,13.987 91.382,13.481 C91.382,12.821 91.283,12.469 90.986,12.139 C90.678,11.798 90.205,11.578 89.754,11.578 Z M99.302,18.046 L98.752,18.574 C97.454,16.979 96.86,15.428 96.86,13.58 C96.86,11.688 97.553,9.818 98.774,8.443 L99.302,8.993 C98.191,10.368 97.641,11.897 97.641,13.547 C97.641,15.153 98.235,16.759 99.302,18.046 Z M105.242,13.734 L101.018,13.734 C101.062,14.163 101.139,14.383 101.348,14.658 C101.678,15.109 102.162,15.351 102.712,15.351 C103.339,15.351 103.933,15.01 104.23,14.482 L104.967,14.757 C104.549,15.604 103.68,16.121 102.712,16.121 C101.205,16.121 100.127,15.021 100.127,13.481 C100.127,11.919 101.194,10.808 102.679,10.808 C104.153,10.808 105.253,11.919 105.253,13.404 C105.253,13.47 105.253,13.613 105.242,13.734 Z M101.029,13.118 L104.362,13.118 C104.329,12.722 104.252,12.502 104.076,12.249 C103.757,11.82 103.24,11.556 102.679,11.556 C102.118,11.556 101.612,11.82 101.315,12.26 C101.161,12.502 101.095,12.711 101.029,13.118 Z M110.214,11.798 L110.214,10.929 L111.05,10.929 L111.05,16.033 C111.05,16.88 110.841,17.452 110.379,17.892 C109.928,18.332 109.279,18.563 108.509,18.563 C107.563,18.563 106.815,18.255 106.265,17.639 L106.837,17.067 C107.068,17.309 107.178,17.408 107.321,17.507 C107.607,17.683 108.08,17.804 108.509,17.804 C109.037,17.804 109.543,17.617 109.829,17.309 C110.082,17.034 110.214,16.627 110.214,16.099 L110.214,15.032 C109.719,15.78 109.136,16.121 108.344,16.121 C107.002,16.121 106.001,14.988 106.001,13.481 C106.001,12.667 106.298,11.886 106.804,11.402 C107.211,11.006 107.761,10.808 108.41,10.808 C109.18,10.808 109.697,11.094 110.214,11.798 Z M108.564,11.578 C107.574,11.578 106.881,12.348 106.881,13.448 C106.881,14.537 107.585,15.351 108.542,15.351 C109.026,15.351 109.499,15.12 109.829,14.735 C110.049,14.482 110.192,13.987 110.192,13.481 C110.192,12.821 110.093,12.469 109.796,12.139 C109.488,11.798 109.015,11.578 108.564,11.578 Z M113.162,14.944 C113.492,14.944 113.734,15.186 113.734,15.527 C113.734,15.846 113.481,16.088 113.162,16.088 C112.832,16.088 112.59,15.846 112.59,15.516 C112.59,15.186 112.832,14.944 113.162,14.944 Z M113.162,11.776 C113.492,11.776 113.734,12.018 113.734,12.359 C113.734,12.678 113.481,12.92 113.162,12.92 C112.832,12.92 112.59,12.678 112.59,12.348 C112.59,12.018 112.832,11.776 113.162,11.776 Z M118.651,16 L118.651,8.663 L120.598,8.663 C122.809,8.663 124.14,10.005 124.14,12.216 C124.14,13.459 123.733,14.482 122.985,15.153 C122.347,15.725 121.5,16 120.433,16 L118.651,16 Z M119.575,9.444 L119.575,15.208 L119.905,15.208 C121.148,15.208 121.676,15.076 122.204,14.658 C122.864,14.13 123.194,13.316 123.194,12.227 C123.194,10.456 122.248,9.444 120.565,9.444 L119.575,9.444 Z M130.168,13.734 L125.944,13.734 C125.988,14.163 126.065,14.383 126.274,14.658 C126.604,15.109 127.088,15.351 127.638,15.351 C128.265,15.351 128.859,15.01 129.156,14.482 L129.893,14.757 C129.475,15.604 128.606,16.121 127.638,16.121 C126.131,16.121 125.053,15.021 125.053,13.481 C125.053,11.919 126.12,10.808 127.605,10.808 C129.079,10.808 130.179,11.919 130.179,13.404 C130.179,13.47 130.179,13.613 130.168,13.734 Z M125.955,13.118 L129.288,13.118 C129.255,12.722 129.178,12.502 129.002,12.249 C128.683,11.82 128.166,11.556 127.605,11.556 C127.044,11.556 126.538,11.82 126.241,12.26 C126.087,12.502 126.021,12.711 125.955,13.118 Z M131.389,10.929 L132.225,10.929 L132.225,11.644 C132.665,11.05 133.105,10.808 133.732,10.808 C134.194,10.808 134.612,10.962 134.909,11.226 C135.228,11.534 135.338,11.886 135.338,12.579 L135.338,16 L134.502,16 L134.502,12.766 C134.502,12.315 134.447,12.073 134.315,11.897 C134.161,11.688 133.864,11.556 133.523,11.556 C133.149,11.556 132.808,11.699 132.555,11.985 C132.313,12.249 132.225,12.491 132.225,12.909 L132.225,16 L131.389,16 L131.389,10.929 Z M137.824,10.929 L137.824,16 L136.988,16 L136.988,10.929 L137.824,10.929 Z M137.417,8.96 C137.714,8.96 137.945,9.202 137.945,9.51 C137.945,9.807 137.703,10.038 137.406,10.038 C137.109,10.038 136.878,9.807 136.878,9.499 C136.878,9.191 137.109,8.96 137.417,8.96 Z M139.507,10.929 L140.343,10.929 L140.343,11.633 C140.728,11.05 141.157,10.808 141.784,10.808 C142.477,10.808 142.917,11.105 143.148,11.732 C143.522,11.083 143.995,10.808 144.754,10.808 C145.337,10.808 145.777,10.995 146.041,11.347 C146.283,11.666 146.349,11.952 146.349,12.755 L146.349,16 L145.513,16 L145.513,12.953 C145.513,12.337 145.491,12.194 145.37,11.985 C145.216,11.721 144.886,11.556 144.49,11.556 C143.753,11.556 143.346,12.051 143.346,12.953 L143.346,16 L142.51,16 L142.51,12.964 C142.51,12.469 142.466,12.216 142.345,11.996 C142.202,11.71 141.894,11.556 141.52,11.556 C140.783,11.556 140.343,12.084 140.343,12.964 L140.343,16 L139.507,16 L139.507,10.929 Z M149.165,15.197 L151.75,15.197 L151.75,16 L147.636,16 L150.188,12.348 C150.925,11.281 151.09,10.951 151.09,10.511 C151.09,9.873 150.584,9.422 149.869,9.422 C149.374,9.422 148.967,9.653 148.802,10.038 C148.714,10.247 148.681,10.412 148.67,10.797 L147.845,10.797 C147.889,9.4 148.626,8.63 149.935,8.63 C151.134,8.63 151.97,9.378 151.97,10.445 C151.97,11.061 151.75,11.6 151.134,12.458 L149.165,15.197 Z M153.048,8.971 L153.598,8.443 C154.907,10.049 155.49,11.589 155.49,13.437 C155.49,15.34 154.797,17.188 153.576,18.574 L153.048,18.024 C154.159,16.649 154.709,15.12 154.709,13.47 C154.709,11.853 154.126,10.269 153.048,8.971 Z"/>
        <g transform="translate(0 34)">
          <rect width="24" height="24" fill="#E1F1F6" rx="2"/>
          <path fill="#C41261" d="M32.972,14.306 L29.683,14.306 L29.012,16 L28.055,16 L30.816,8.663 L31.916,8.663 L34.611,16 L33.577,16 L32.972,14.306 Z M32.686,13.514 L31.344,9.829 L29.958,13.514 L32.686,13.514 Z M35.502,10.929 L36.338,10.929 L36.338,11.853 C36.822,11.105 37.339,10.808 38.186,10.808 C39.594,10.808 40.573,11.886 40.573,13.426 C40.573,15.021 39.594,16.121 38.186,16.121 C37.79,16.121 37.427,16.033 37.075,15.857 C36.767,15.703 36.613,15.571 36.338,15.208 L36.338,18.376 L35.502,18.376 L35.502,10.929 Z M38.043,11.556 C37.031,11.556 36.338,12.359 36.338,13.547 C36.338,14.658 37.009,15.395 38.01,15.395 C39.011,15.395 39.682,14.614 39.682,13.459 C39.682,12.865 39.539,12.414 39.242,12.084 C38.945,11.754 38.494,11.556 38.043,11.556 Z M41.838,10.929 L42.674,10.929 L42.674,11.853 C43.158,11.105 43.675,10.808 44.522,10.808 C45.93,10.808 46.909,11.886 46.909,13.426 C46.909,15.021 45.93,16.121 44.522,16.121 C44.126,16.121 43.763,16.033 43.411,15.857 C43.103,15.703 42.949,15.571 42.674,15.208 L42.674,18.376 L41.838,18.376 L41.838,10.929 Z M44.379,11.556 C43.367,11.556 42.674,12.359 42.674,13.547 C42.674,14.658 43.345,15.395 44.346,15.395 C45.347,15.395 46.018,14.614 46.018,13.459 C46.018,12.865 45.875,12.414 45.578,12.084 C45.281,11.754 44.83,11.556 44.379,11.556 Z M52.31,15.131 L52.31,16 L51.474,16 L51.474,8.663 L52.31,8.663 L52.31,11.798 C52.816,11.105 53.355,10.808 54.092,10.808 C55.511,10.808 56.501,11.908 56.501,13.481 C56.501,15.032 55.522,16.121 54.136,16.121 C53.355,16.121 52.805,15.824 52.31,15.131 Z M53.982,11.556 C53.014,11.556 52.299,12.359 52.299,13.47 C52.299,14.625 52.959,15.395 53.949,15.395 C54.95,15.395 55.621,14.636 55.621,13.503 C55.621,12.37 54.939,11.556 53.982,11.556 Z M57.777,10.929 L58.613,10.929 L58.613,11.787 C58.767,11.424 58.877,11.27 59.075,11.116 C59.328,10.918 59.68,10.808 60.043,10.808 L60.241,10.808 L60.241,11.655 C60.153,11.644 60.065,11.644 60.01,11.644 C59.559,11.644 59.163,11.853 58.91,12.227 C58.69,12.546 58.613,12.843 58.613,13.426 L58.613,16 L57.777,16 L57.777,10.929 Z M65.103,11.765 L65.103,10.929 L65.939,10.929 L65.939,16 L65.103,16 L65.103,15.021 C64.597,15.78 64.025,16.121 63.255,16.121 C61.858,16.121 60.868,15.021 60.868,13.481 C60.868,11.93 61.88,10.808 63.277,10.808 C64.047,10.808 64.608,11.105 65.103,11.765 Z M63.398,11.556 C62.848,11.556 62.463,11.743 62.166,12.161 C61.902,12.524 61.748,13.008 61.748,13.503 C61.748,14.581 62.452,15.395 63.376,15.395 C64.333,15.395 65.114,14.504 65.114,13.415 C65.114,12.315 64.41,11.556 63.398,11.556 Z M67.622,10.929 L68.458,10.929 L68.458,11.644 C68.898,11.05 69.338,10.808 69.965,10.808 C70.427,10.808 70.845,10.962 71.142,11.226 C71.461,11.534 71.571,11.886 71.571,12.579 L71.571,16 L70.735,16 L70.735,12.766 C70.735,12.315 70.68,12.073 70.548,11.897 C70.394,11.688 70.097,11.556 69.756,11.556 C69.382,11.556 69.041,11.699 68.788,11.985 C68.546,12.249 68.458,12.491 68.458,12.909 L68.458,16 L67.622,16 L67.622,10.929 Z M77.016,11.699 L77.016,8.663 L77.852,8.663 L77.852,16 L77.016,16 L77.016,15.131 C76.51,15.824 75.971,16.121 75.201,16.121 C73.804,16.121 72.814,15.032 72.814,13.492 C72.814,11.952 73.826,10.808 75.201,10.808 C75.949,10.808 76.521,11.083 77.016,11.699 Z M75.377,11.556 C74.376,11.556 73.694,12.348 73.694,13.503 C73.694,14.614 74.365,15.395 75.322,15.395 C76.301,15.395 77.016,14.581 77.016,13.481 C77.016,12.337 76.345,11.556 75.377,11.556 Z M80.371,10.929 L80.371,16 L79.535,16 L79.535,10.929 L80.371,10.929 Z M79.964,8.96 C80.261,8.96 80.492,9.202 80.492,9.51 C80.492,9.807 80.25,10.038 79.953,10.038 C79.656,10.038 79.425,9.807 79.425,9.499 C79.425,9.191 79.656,8.96 79.964,8.96 Z M82.054,10.929 L82.89,10.929 L82.89,11.644 C83.33,11.05 83.77,10.808 84.397,10.808 C84.859,10.808 85.277,10.962 85.574,11.226 C85.893,11.534 86.003,11.886 86.003,12.579 L86.003,16 L85.167,16 L85.167,12.766 C85.167,12.315 85.112,12.073 84.98,11.897 C84.826,11.688 84.529,11.556 84.188,11.556 C83.814,11.556 83.473,11.699 83.22,11.985 C82.978,12.249 82.89,12.491 82.89,12.909 L82.89,16 L82.054,16 L82.054,10.929 Z M91.404,11.798 L91.404,10.929 L92.24,10.929 L92.24,16.033 C92.24,16.88 92.031,17.452 91.569,17.892 C91.118,18.332 90.469,18.563 89.699,18.563 C88.753,18.563 88.005,18.255 87.455,17.639 L88.027,17.067 C88.258,17.309 88.368,17.408 88.511,17.507 C88.797,17.683 89.27,17.804 89.699,17.804 C90.227,17.804 90.733,17.617 91.019,17.309 C91.272,17.034 91.404,16.627 91.404,16.099 L91.404,15.032 C90.909,15.78 90.326,16.121 89.534,16.121 C88.192,16.121 87.191,14.988 87.191,13.481 C87.191,12.667 87.488,11.886 87.994,11.402 C88.401,11.006 88.951,10.808 89.6,10.808 C90.37,10.808 90.887,11.094 91.404,11.798 Z M89.754,11.578 C88.764,11.578 88.071,12.348 88.071,13.448 C88.071,14.537 88.775,15.351 89.732,15.351 C90.216,15.351 90.689,15.12 91.019,14.735 C91.239,14.482 91.382,13.987 91.382,13.481 C91.382,12.821 91.283,12.469 90.986,12.139 C90.678,11.798 90.205,11.578 89.754,11.578 Z M98.059,16 L97.223,16 L97.223,8.663 L98.059,8.663 L98.059,16 Z M100.578,10.929 L100.578,16 L99.742,16 L99.742,10.929 L100.578,10.929 Z M100.171,8.96 C100.468,8.96 100.699,9.202 100.699,9.51 C100.699,9.807 100.457,10.038 100.16,10.038 C99.863,10.038 99.632,9.807 99.632,9.499 C99.632,9.191 99.863,8.96 100.171,8.96 Z M106.012,11.798 L106.012,10.929 L106.848,10.929 L106.848,16.033 C106.848,16.88 106.639,17.452 106.177,17.892 C105.726,18.332 105.077,18.563 104.307,18.563 C103.361,18.563 102.613,18.255 102.063,17.639 L102.635,17.067 C102.866,17.309 102.976,17.408 103.119,17.507 C103.405,17.683 103.878,17.804 104.307,17.804 C104.835,17.804 105.341,17.617 105.627,17.309 C105.88,17.034 106.012,16.627 106.012,16.099 L106.012,15.032 C105.517,15.78 104.934,16.121 104.142,16.121 C102.8,16.121 101.799,14.988 101.799,13.481 C101.799,12.667 102.096,11.886 102.602,11.402 C103.009,11.006 103.559,10.808 104.208,10.808 C104.978,10.808 105.495,11.094 106.012,11.798 Z M104.362,11.578 C103.372,11.578 102.679,12.348 102.679,13.448 C102.679,14.537 103.383,15.351 104.34,15.351 C104.824,15.351 105.297,15.12 105.627,14.735 C105.847,14.482 105.99,13.987 105.99,13.481 C105.99,12.821 105.891,12.469 105.594,12.139 C105.286,11.798 104.813,11.578 104.362,11.578 Z M109.367,8.663 L109.367,11.633 C109.829,11.061 110.291,10.808 110.896,10.808 C111.336,10.808 111.798,10.984 112.073,11.27 C112.348,11.545 112.469,11.941 112.469,12.59 L112.469,16 L111.633,16 L111.633,12.634 C111.633,11.941 111.292,11.556 110.687,11.556 C110.302,11.556 109.961,11.71 109.697,12.007 C109.444,12.293 109.367,12.546 109.367,13.03 L109.367,16 L108.531,16 L108.531,8.663 L109.367,8.663 Z M115.01,11.666 L115.01,14.966 C115.021,15.219 115.087,15.274 115.395,15.274 L115.78,15.274 L115.78,16 L114.999,16 C114.405,15.989 114.174,15.769 114.174,15.208 L114.174,11.666 L113.47,11.666 L113.47,10.929 L114.174,10.929 L114.174,9.334 L115.01,9.334 L115.01,10.929 L115.78,10.929 L115.78,11.666 L115.01,11.666 Z M117.991,15.142 L116.88,17.749 L116.275,17.562 L117.199,14.889 L117.991,15.142 Z M124.888,18.046 L124.338,18.574 C123.04,16.979 122.446,15.428 122.446,13.58 C122.446,11.688 123.139,9.818 124.36,8.443 L124.888,8.993 C123.777,10.368 123.227,11.897 123.227,13.547 C123.227,15.153 123.821,16.759 124.888,18.046 Z M130.828,13.734 L126.604,13.734 C126.648,14.163 126.725,14.383 126.934,14.658 C127.264,15.109 127.748,15.351 128.298,15.351 C128.925,15.351 129.519,15.01 129.816,14.482 L130.553,14.757 C130.135,15.604 129.266,16.121 128.298,16.121 C126.791,16.121 125.713,15.021 125.713,13.481 C125.713,11.919 126.78,10.808 128.265,10.808 C129.739,10.808 130.839,11.919 130.839,13.404 C130.839,13.47 130.839,13.613 130.828,13.734 Z M126.615,13.118 L129.948,13.118 C129.915,12.722 129.838,12.502 129.662,12.249 C129.343,11.82 128.826,11.556 128.265,11.556 C127.704,11.556 127.198,11.82 126.901,12.26 C126.747,12.502 126.681,12.711 126.615,13.118 Z M135.8,11.798 L135.8,10.929 L136.636,10.929 L136.636,16.033 C136.636,16.88 136.427,17.452 135.965,17.892 C135.514,18.332 134.865,18.563 134.095,18.563 C133.149,18.563 132.401,18.255 131.851,17.639 L132.423,17.067 C132.654,17.309 132.764,17.408 132.907,17.507 C133.193,17.683 133.666,17.804 134.095,17.804 C134.623,17.804 135.129,17.617 135.415,17.309 C135.668,17.034 135.8,16.627 135.8,16.099 L135.8,15.032 C135.305,15.78 134.722,16.121 133.93,16.121 C132.588,16.121 131.587,14.988 131.587,13.481 C131.587,12.667 131.884,11.886 132.39,11.402 C132.797,11.006 133.347,10.808 133.996,10.808 C134.766,10.808 135.283,11.094 135.8,11.798 Z M134.15,11.578 C133.16,11.578 132.467,12.348 132.467,13.448 C132.467,14.537 133.171,15.351 134.128,15.351 C134.612,15.351 135.085,15.12 135.415,14.735 C135.635,14.482 135.778,13.987 135.778,13.481 C135.778,12.821 135.679,12.469 135.382,12.139 C135.074,11.798 134.601,11.578 134.15,11.578 Z M138.748,14.944 C139.078,14.944 139.32,15.186 139.32,15.527 C139.32,15.846 139.067,16.088 138.748,16.088 C138.418,16.088 138.176,15.846 138.176,15.516 C138.176,15.186 138.418,14.944 138.748,14.944 Z M138.748,11.776 C139.078,11.776 139.32,12.018 139.32,12.359 C139.32,12.678 139.067,12.92 138.748,12.92 C138.418,12.92 138.176,12.678 138.176,12.348 C138.176,12.018 138.418,11.776 138.748,11.776 Z M144.237,16 L144.237,8.663 L146.184,8.663 C148.395,8.663 149.726,10.005 149.726,12.216 C149.726,13.459 149.319,14.482 148.571,15.153 C147.933,15.725 147.086,16 146.019,16 L144.237,16 Z M145.161,9.444 L145.161,15.208 L145.491,15.208 C146.734,15.208 147.262,15.076 147.79,14.658 C148.45,14.13 148.78,13.316 148.78,12.227 C148.78,10.456 147.834,9.444 146.151,9.444 L145.161,9.444 Z M155.754,13.734 L151.53,13.734 C151.574,14.163 151.651,14.383 151.86,14.658 C152.19,15.109 152.674,15.351 153.224,15.351 C153.851,15.351 154.445,15.01 154.742,14.482 L155.479,14.757 C155.061,15.604 154.192,16.121 153.224,16.121 C151.717,16.121 150.639,15.021 150.639,13.481 C150.639,11.919 151.706,10.808 153.191,10.808 C154.665,10.808 155.765,11.919 155.765,13.404 C155.765,13.47 155.765,13.613 155.754,13.734 Z M151.541,13.118 L154.874,13.118 C154.841,12.722 154.764,12.502 154.588,12.249 C154.269,11.82 153.752,11.556 153.191,11.556 C152.63,11.556 152.124,11.82 151.827,12.26 C151.673,12.502 151.607,12.711 151.541,13.118 Z M156.975,10.929 L157.811,10.929 L157.811,11.644 C158.251,11.05 158.691,10.808 159.318,10.808 C159.78,10.808 160.198,10.962 160.495,11.226 C160.814,11.534 160.924,11.886 160.924,12.579 L160.924,16 L160.088,16 L160.088,12.766 C160.088,12.315 160.033,12.073 159.901,11.897 C159.747,11.688 159.45,11.556 159.109,11.556 C158.735,11.556 158.394,11.699 158.141,11.985 C157.899,12.249 157.811,12.491 157.811,12.909 L157.811,16 L156.975,16 L156.975,10.929 Z M163.41,10.929 L163.41,16 L162.574,16 L162.574,10.929 L163.41,10.929 Z M163.003,8.96 C163.3,8.96 163.531,9.202 163.531,9.51 C163.531,9.807 163.289,10.038 162.992,10.038 C162.695,10.038 162.464,9.807 162.464,9.499 C162.464,9.191 162.695,8.96 163.003,8.96 Z M165.093,10.929 L165.929,10.929 L165.929,11.633 C166.314,11.05 166.743,10.808 167.37,10.808 C168.063,10.808 168.503,11.105 168.734,11.732 C169.108,11.083 169.581,10.808 170.34,10.808 C170.923,10.808 171.363,10.995 171.627,11.347 C171.869,11.666 171.935,11.952 171.935,12.755 L171.935,16 L171.099,16 L171.099,12.953 C171.099,12.337 171.077,12.194 170.956,11.985 C170.802,11.721 170.472,11.556 170.076,11.556 C169.339,11.556 168.932,12.051 168.932,12.953 L168.932,16 L168.096,16 L168.096,12.964 C168.096,12.469 168.052,12.216 167.931,11.996 C167.788,11.71 167.48,11.556 167.106,11.556 C166.369,11.556 165.929,12.084 165.929,12.964 L165.929,16 L165.093,16 L165.093,10.929 Z M174.201,16 L176.049,13.063 C175.741,13.173 175.598,13.206 175.345,13.206 C174.113,13.206 173.156,12.238 173.156,10.984 C173.156,9.675 174.201,8.641 175.532,8.641 C176.852,8.641 177.842,9.642 177.842,10.951 C177.842,11.512 177.699,11.941 177.336,12.546 L175.224,16 L174.201,16 Z M175.532,9.455 C174.696,9.455 174.025,10.115 174.025,10.951 C174.025,11.776 174.663,12.436 175.488,12.436 C176.335,12.436 176.973,11.798 176.973,10.962 C176.973,10.115 176.335,9.455 175.532,9.455 Z M178.634,8.971 L179.184,8.443 C180.493,10.049 181.076,11.589 181.076,13.437 C181.076,15.34 180.383,17.188 179.162,18.574 L178.634,18.024 C179.745,16.649 180.295,15.12 180.295,13.47 C180.295,11.853 179.712,10.269 178.634,8.971 Z"/>
        </g>
      </g>
      <g transform="translate(55)">
        <rect width="72" height="48" fill="#FFF"/>
        <g transform="translate(10 5)">
          <path fill="#004D8A" d="M4.36923828,36 L3.4024414,36 L3.4024414,29.1196289 L0.904882811,29.1196289 L0.904882811,28.2495117 L6.86679687,28.2495117 L6.86679687,29.1196289 L4.36923828,29.1196289 L4.36923828,36 Z M9.54714844,30.9243164 C8.62332031,30.9243164 7.97878906,31.6010742 7.90896484,32.6269531 L11.0993945,32.6269531 C11.0779102,31.6010742 10.4656055,30.9243164 9.54714844,30.9243164 Z M11.0725391,34.5014648 L11.9963672,34.5014648 C11.7170703,35.4951172 10.8254687,36.1020508 9.55789062,36.1020508 C7.95193359,36.1020508 6.94753906,34.9418945 6.94753906,33.1103516 C6.94753906,31.2895508 7.96804687,30.1079102 9.55789062,30.1079102 C11.1208789,30.1079102 12.0715625,31.2197266 12.0715625,33.019043 L12.0715625,33.3735352 L7.90896484,33.3735352 L7.90896484,33.4165039 C7.95730469,34.5605469 8.59646484,35.2856445 9.579375,35.2856445 C10.325957,35.2856445 10.8308398,35.0117188 11.0725391,34.5014648 Z M15.4286719,33.8139648 L15.3427344,33.8139648 L13.9677344,36 L12.9203711,36 L14.9023047,33.1049805 L12.8988867,30.2099609 L13.9999609,30.2099609 L15.3749609,32.3637695 L15.4608984,32.3637695 L16.8197852,30.2099609 L17.8671484,30.2099609 L15.9013281,33.0673828 L17.8940039,36 L16.7983008,36 L15.4286719,33.8139648 Z M19.6129297,28.7114258 L20.5367578,28.7114258 L20.5367578,30.2099609 L21.8258203,30.2099609 L21.8258203,30.9833984 L20.5367578,30.9833984 L20.5367578,34.2597656 C20.5367578,34.9418945 20.7945703,35.2319336 21.3961328,35.2319336 C21.5626367,35.2319336 21.6539453,35.2265625 21.8258203,35.2104492 L21.8258203,35.9892578 C21.6432031,36.0214844 21.465957,36.0429688 21.2833398,36.0429688 C20.090957,36.0429688 19.6129297,35.6025391 19.6129297,34.4960938 L19.6129297,30.9833984 L18.6783594,30.9833984 L18.6783594,30.2099609 L19.6129297,30.2099609 L19.6129297,28.7114258 Z M26.5205078,36 L26.5205078,27.9111328 L27.4443359,27.9111328 L27.4443359,36 L26.5205078,36 Z M31.0914844,35.2910156 C32.042168,35.2910156 32.7457813,34.6679688 32.7457813,33.8408203 L32.7457813,33.309082 L31.1881641,33.4111328 C30.3073047,33.4702148 29.9205859,33.7763672 29.9205859,34.3564453 C29.9205859,34.9472656 30.4200977,35.2910156 31.0914844,35.2910156 Z M30.9196094,36.1020508 C29.7970508,36.1020508 28.9645313,35.4360352 28.9645313,34.3779297 C28.9645313,33.3413086 29.7272266,32.7451172 31.0753711,32.6645508 L32.7457813,32.5625 L32.7457813,32.0361328 C32.7457813,31.3217773 32.2999805,30.9296875 31.4352344,30.9296875 C30.7423633,30.9296875 30.2589648,31.1928711 30.1300586,31.6494141 L29.1954883,31.6494141 C29.3190234,30.7202148 30.2321094,30.1079102 31.4674609,30.1079102 C32.8800586,30.1079102 33.6696094,30.8330078 33.6696094,32.0361328 L33.6696094,36 L32.78875,36 L32.78875,35.1459961 L32.7028125,35.1459961 C32.3268359,35.7636719 31.6930469,36.1020508 30.9196094,36.1020508 Z M38.3265234,36.1020508 C37.5208594,36.1020508 36.8333594,35.7207031 36.468125,35.0761719 L36.3821875,35.0761719 L36.3821875,36 L35.5013281,36 L35.5013281,27.9111328 L36.4251563,27.9111328 L36.4251563,31.1230469 L36.5110938,31.1230469 C36.8279883,30.5 37.5316016,30.1079102 38.3265234,30.1079102 C39.7982031,30.1079102 40.7542578,31.2841797 40.7542578,33.1049805 C40.7542578,34.9150391 39.792832,36.1020508 38.3265234,36.1020508 Z M38.1116797,30.9404297 C37.0589453,30.9404297 36.4036719,31.7675781 36.4036719,33.1049805 C36.4036719,34.4423828 37.0589453,35.2695312 38.1116797,35.2695312 C39.1697852,35.2695312 39.7982031,34.4584961 39.7982031,33.1049805 C39.7982031,31.7514648 39.1697852,30.9404297 38.1116797,30.9404297 Z M44.5840234,30.9243164 C43.6601953,30.9243164 43.0156641,31.6010742 42.9458398,32.6269531 L46.1362695,32.6269531 C46.1147852,31.6010742 45.5024805,30.9243164 44.5840234,30.9243164 Z M46.1094141,34.5014648 L47.0332422,34.5014648 C46.7539453,35.4951172 45.8623438,36.1020508 44.5947656,36.1020508 C42.9888086,36.1020508 41.9844141,34.9418945 41.9844141,33.1103516 C41.9844141,31.2895508 43.0049219,30.1079102 44.5947656,30.1079102 C46.1577539,30.1079102 47.1084375,31.2197266 47.1084375,33.019043 L47.1084375,33.3735352 L42.9458398,33.3735352 L42.9458398,33.4165039 C42.9941797,34.5605469 43.6333398,35.2856445 44.61625,35.2856445 C45.362832,35.2856445 45.8677148,35.0117188 46.1094141,34.5014648 Z M48.6823438,36 L48.6823438,27.9111328 L49.6061719,27.9111328 L49.6061719,36 L48.6823438,36 Z"/>
          <g transform="translate(13)">
            <path fill="#E1F1F6" d="M21.0084545,9.96610807 L21,20.0353752 C21,21.1403752 20.1,22.0403752 18.995,22.0403752 L16.005,22.0403752 C14.897,22.0403752 14,21.1423752 14,20.0353752 L14,17.0433752 C14,16.4913752 13.549,16.0403752 12.997,16.0403752 L11.003,16.0403752 C10.449,16.0403752 10,16.4893752 10,17.0433752 L10,20.0353752 C10,21.1423752 9.102,22.0403752 7.995,22.0403752 L5.005,22.0403752 C3.897,22.0403752 3,21.1423752 3,20.0353752 L3,9.95965965 L1.81613021,10.9257098 C1.6021803,11.1002952 1.28721023,11.0683839 1.11262487,10.854434 C0.938039506,10.6404841 0.969950772,10.325514 1.18390068,10.1509287 L10.3152218,2.70300627 C11.2455388,1.77142355 12.7544921,1.77142355 13.6471302,2.66892865 L22.8161302,10.1509287 C23.0300801,10.325514 23.0619914,10.6404841 22.887406,10.854434 C22.7128207,11.0683839 22.3978506,11.1002952 22.1839007,10.9257098 L21.0084545,9.96610807 Z"/>
            <use fill="#004D8A" xlink:href="#2-a"/>
          </g>
        </g>
      </g>
    </g>
  </g>
</svg>
