<svg xmlns="http://www.w3.org/2000/svg" xmlns:xlink="http://www.w3.org/1999/xlink" width="200" height="180" viewBox="0 0 200 180">
  <defs>
    <path id="2-a" d="M21.0000154,9.95921869 L21.0000154,20.0333192 C21.0000154,21.1404616 20.1021578,22.0383192 18.9950154,22.0383192 L16.0050154,22.0383192 C14.8978731,22.0383192 14.0000154,21.1404616 14.0000154,20.0333192 L14.0000154,17.0413192 C14.0000154,16.4874616 13.5508731,16.0383192 12.9970154,16.0383192 L11.0030154,16.0383192 C10.4491578,16.0383192 10.0000154,16.4874616 10.0000154,17.0413192 L10.0000154,20.0333192 C10.0000154,21.1404616 9.10215782,22.0383192 7.99501544,22.0383192 L5.00501544,22.0383192 C3.89787307,22.0383192 3.00001544,21.1404616 3.00001544,20.0333192 L3.00001544,9.95964705 L1.81613021,10.9257098 C1.6021803,11.1002952 1.28721023,11.0683839 1.11262487,10.854434 C0.938039506,10.6404841 0.969950772,10.325514 1.18390068,10.1509287 L10.3152218,2.70300627 C11.2455388,1.77142355 12.7544921,1.77142355 13.6471302,2.66892865 L22.8161302,10.1509287 C23.0300801,10.325514 23.0619914,10.6404841 22.887406,10.854434 C22.7128207,11.0683839 22.3978506,11.1002952 22.1839007,10.9257098 L21.0000154,9.95921869 Z M20.0000154,9.14284639 L12.9772218,3.40963219 C12.4375388,2.86921491 11.5624921,2.86921491 10.9851302,3.4437098 L4.00001544,9.14363658 L4.00001544,20.0333192 C4.00001544,20.5881769 4.45015782,21.0383192 5.00501544,21.0383192 L7.99501544,21.0383192 C8.54987307,21.0383192 9.00001544,20.5881769 9.00001544,20.0333192 L9.00001544,17.0413192 C9.00001544,15.9351769 9.89687307,15.0383192 11.0030154,15.0383192 L12.9970154,15.0383192 C14.1031578,15.0383192 15.0000154,15.9351769 15.0000154,17.0413192 L15.0000154,20.0333192 C15.0000154,20.5881769 15.4501578,21.0383192 16.0050154,21.0383192 L18.9950154,21.0383192 C19.5498731,21.0383192 20.0000154,20.5881769 20.0000154,20.0333192 L20.0000154,9.14284639 Z"/>
  </defs>
  <g fill="none" fill-rule="evenodd">
    <rect width="200" height="180" fill="#FFF" fill-opacity=".01" fill-rule="nonzero"/>
    <g transform="translate(9 27)">
      <g transform="translate(0 68)">
        <rect width="24" height="24" fill="#004D8A" rx="2"/>
        <text fill="#C41261" font-family="NeuzeitGro-Reg, Neuzeit Grotesk" font-size="11">
          <tspan x="28" y="12">App branding (eg: Denim2)</tspan>
        </text>
        <g transform="translate(0 34)">
          <rect width="24" height="24" fill="#E1F1F6" rx="2"/>
          <text fill="#C41261" font-family="NeuzeitGro-Reg, Neuzeit Grotesk" font-size="11">
            <tspan x="28" y="12">App branding light, (eg: Denim9)</tspan>
          </text>
        </g>
      </g>
      <g transform="translate(55)">
        <rect width="72" height="48" fill="#FFF"/>
        <g transform="translate(10 5)">
          <path fill="#004D8A" d="M4.36923828,36 L3.4024414,36 L3.4024414,29.1196289 L0.904882811,29.1196289 L0.904882811,28.2495117 L6.86679687,28.2495117 L6.86679687,29.1196289 L4.36923828,29.1196289 L4.36923828,36 Z M9.54714844,30.9243164 C8.62332031,30.9243164 7.97878906,31.6010742 7.90896484,32.6269531 L11.0993945,32.6269531 C11.0779102,31.6010742 10.4656055,30.9243164 9.54714844,30.9243164 Z M11.0725391,34.5014648 L11.9963672,34.5014648 C11.7170703,35.4951172 10.8254687,36.1020508 9.55789062,36.1020508 C7.95193359,36.1020508 6.94753906,34.9418945 6.94753906,33.1103516 C6.94753906,31.2895508 7.96804687,30.1079102 9.55789062,30.1079102 C11.1208789,30.1079102 12.0715625,31.2197266 12.0715625,33.019043 L12.0715625,33.3735352 L7.90896484,33.3735352 L7.90896484,33.4165039 C7.95730469,34.5605469 8.59646484,35.2856445 9.579375,35.2856445 C10.325957,35.2856445 10.8308398,35.0117188 11.0725391,34.5014648 Z M15.4286719,33.8139648 L15.3427344,33.8139648 L13.9677344,36 L12.9203711,36 L14.9023047,33.1049805 L12.8988867,30.2099609 L13.9999609,30.2099609 L15.3749609,32.3637695 L15.4608984,32.3637695 L16.8197852,30.2099609 L17.8671484,30.2099609 L15.9013281,33.0673828 L17.8940039,36 L16.7983008,36 L15.4286719,33.8139648 Z M19.6129297,28.7114258 L20.5367578,28.7114258 L20.5367578,30.2099609 L21.8258203,30.2099609 L21.8258203,30.9833984 L20.5367578,30.9833984 L20.5367578,34.2597656 C20.5367578,34.9418945 20.7945703,35.2319336 21.3961328,35.2319336 C21.5626367,35.2319336 21.6539453,35.2265625 21.8258203,35.2104492 L21.8258203,35.9892578 C21.6432031,36.0214844 21.465957,36.0429688 21.2833398,36.0429688 C20.090957,36.0429688 19.6129297,35.6025391 19.6129297,34.4960938 L19.6129297,30.9833984 L18.6783594,30.9833984 L18.6783594,30.2099609 L19.6129297,30.2099609 L19.6129297,28.7114258 Z M26.5205078,36 L26.5205078,27.9111328 L27.4443359,27.9111328 L27.4443359,36 L26.5205078,36 Z M31.0914844,35.2910156 C32.042168,35.2910156 32.7457813,34.6679688 32.7457813,33.8408203 L32.7457813,33.309082 L31.1881641,33.4111328 C30.3073047,33.4702148 29.9205859,33.7763672 29.9205859,34.3564453 C29.9205859,34.9472656 30.4200977,35.2910156 31.0914844,35.2910156 Z M30.9196094,36.1020508 C29.7970508,36.1020508 28.9645313,35.4360352 28.9645313,34.3779297 C28.9645313,33.3413086 29.7272266,32.7451172 31.0753711,32.6645508 L32.7457813,32.5625 L32.7457813,32.0361328 C32.7457813,31.3217773 32.2999805,30.9296875 31.4352344,30.9296875 C30.7423633,30.9296875 30.2589648,31.1928711 30.1300586,31.6494141 L29.1954883,31.6494141 C29.3190234,30.7202148 30.2321094,30.1079102 31.4674609,30.1079102 C32.8800586,30.1079102 33.6696094,30.8330078 33.6696094,32.0361328 L33.6696094,36 L32.78875,36 L32.78875,35.1459961 L32.7028125,35.1459961 C32.3268359,35.7636719 31.6930469,36.1020508 30.9196094,36.1020508 Z M38.3265234,36.1020508 C37.5208594,36.1020508 36.8333594,35.7207031 36.468125,35.0761719 L36.3821875,35.0761719 L36.3821875,36 L35.5013281,36 L35.5013281,27.9111328 L36.4251563,27.9111328 L36.4251563,31.1230469 L36.5110938,31.1230469 C36.8279883,30.5 37.5316016,30.1079102 38.3265234,30.1079102 C39.7982031,30.1079102 40.7542578,31.2841797 40.7542578,33.1049805 C40.7542578,34.9150391 39.792832,36.1020508 38.3265234,36.1020508 Z M38.1116797,30.9404297 C37.0589453,30.9404297 36.4036719,31.7675781 36.4036719,33.1049805 C36.4036719,34.4423828 37.0589453,35.2695312 38.1116797,35.2695312 C39.1697852,35.2695312 39.7982031,34.4584961 39.7982031,33.1049805 C39.7982031,31.7514648 39.1697852,30.9404297 38.1116797,30.9404297 Z M44.5840234,30.9243164 C43.6601953,30.9243164 43.0156641,31.6010742 42.9458398,32.6269531 L46.1362695,32.6269531 C46.1147852,31.6010742 45.5024805,30.9243164 44.5840234,30.9243164 Z M46.1094141,34.5014648 L47.0332422,34.5014648 C46.7539453,35.4951172 45.8623438,36.1020508 44.5947656,36.1020508 C42.9888086,36.1020508 41.9844141,34.9418945 41.9844141,33.1103516 C41.9844141,31.2895508 43.0049219,30.1079102 44.5947656,30.1079102 C46.1577539,30.1079102 47.1084375,31.2197266 47.1084375,33.019043 L47.1084375,33.3735352 L42.9458398,33.3735352 L42.9458398,33.4165039 C42.9941797,34.5605469 43.6333398,35.2856445 44.61625,35.2856445 C45.362832,35.2856445 45.8677148,35.0117188 46.1094141,34.5014648 Z M48.6823438,36 L48.6823438,27.9111328 L49.6061719,27.9111328 L49.6061719,36 L48.6823438,36 Z"/>
          <g transform="translate(13)">
            <path fill="#E1F1F6" d="M21.0084545,9.96610807 L21,20.0353752 C21,21.1403752 20.1,22.0403752 18.995,22.0403752 L16.005,22.0403752 C14.897,22.0403752 14,21.1423752 14,20.0353752 L14,17.0433752 C14,16.4913752 13.549,16.0403752 12.997,16.0403752 L11.003,16.0403752 C10.449,16.0403752 10,16.4893752 10,17.0433752 L10,20.0353752 C10,21.1423752 9.102,22.0403752 7.995,22.0403752 L5.005,22.0403752 C3.897,22.0403752 3,21.1423752 3,20.0353752 L3,9.95965965 L1.81613021,10.9257098 C1.6021803,11.1002952 1.28721023,11.0683839 1.11262487,10.854434 C0.938039506,10.6404841 0.969950772,10.325514 1.18390068,10.1509287 L10.3152218,2.70300627 C11.2455388,1.77142355 12.7544921,1.77142355 13.6471302,2.66892865 L22.8161302,10.1509287 C23.0300801,10.325514 23.0619914,10.6404841 22.887406,10.854434 C22.7128207,11.0683839 22.3978506,11.1002952 22.1839007,10.9257098 L21.0084545,9.96610807 Z"/>
            <use fill="#004D8A" xlink:href="#2-a"/>
          </g>
        </g>
      </g>
    </g>
  </g>
</svg>
