<svg xmlns="http://www.w3.org/2000/svg" xmlns:xlink="http://www.w3.org/1999/xlink" width="1024" height="180" viewBox="0 0 1024 180">
  <defs>
    <rect id="2-b" width="1024" height="48"/>
    <filter id="2-a" width="100%" height="102.1%" x="0%" y="-1.6%" filterUnits="objectBoundingBox">
      <feOffset dy="-.5" in="SourceAlpha" result="shadowOffsetOuter1"/>
      <feComposite in="shadowOffsetOuter1" in2="SourceAlpha" operator="out" result="shadowOffsetOuter1"/>
      <feColorMatrix in="shadowOffsetOuter1" values="0 0 0 0 0   0 0 0 0 0   0 0 0 0 0  0 0 0 0.2 0"/>
    </filter>
    <path id="2-c" d="M12,15 L12,15.5 C10.1086931,15.5 8.5,13.8914139 8.5,11.9994584 C8.5,10.1083874 10.1088918,8.5 12,8.5 C13.8911082,8.5 15.5,10.1083874 15.5,11.9994584 C15.5,13.8914139 13.8913069,15.5 12,15.5 L12,15 Z M14.5,11.9994584 C14.5,10.6607423 13.3388937,9.5 12,9.5 C10.6611063,9.5 9.5,10.6607423 9.5,11.9994584 C9.5,13.3391142 10.6609629,14.5 12,14.5 C13.3390371,14.5 14.5,13.3391142 14.5,11.9994584 Z M19.0606174,10.4703224 C17.9205476,10.3281283 17.3690987,8.99752677 18.0745815,8.08957943 L18.8318727,7.11651456 C19.261393,6.56383658 19.2123085,5.77774856 18.7170611,5.28250107 C18.222797,4.78762446 17.4368949,4.73873532 16.8835434,5.16891556 L15.9103794,5.92545049 C15.0034895,6.63108881 13.6727042,6.08027902 13.5305433,4.9404754 L13.3772079,3.71629172 C13.2901639,3.02116584 12.7000851,2.5 12,2.5 C11.2999149,2.5 10.7098361,3.02116584 10.62279,3.71630873 L10.4694891,4.9402159 C10.3272958,6.08027902 8.99651047,6.63108881 8.08978996,5.92558222 L7.11645383,5.16891338 C6.56310513,4.73873532 5.77720305,4.78762446 5.28272006,5.28272006 C4.78769155,5.77774856 4.73860701,6.56383658 5.16791847,7.1162461 L5.92565662,8.08988569 C6.63090129,8.99752677 6.07945241,10.3281283 4.93930951,10.4703315 L3.71551238,10.6227854 C3.0214033,10.7097787 2.5,11.3005186 2.5,12 C2.5,12.7002228 3.02131209,13.2910432 3.71514284,13.3780018 L4.93938256,13.5305109 C6.07945241,13.672705 6.63090129,15.0033066 5.92541847,15.9112539 L5.16812725,16.8843188 C4.73860701,17.4369968 4.78769155,18.2230848 5.28272006,18.7181133 C5.77735058,19.2127438 6.56345101,19.2618291 7.1162461,18.8320815 L8.08996185,18.0742842 C8.99699918,17.3697892 10.3273344,17.9208636 10.4694567,19.0603579 L10.6227921,20.2845416 C10.7098033,20.9794056 11.2996511,21.5 12,21.5 C12.7003489,21.5 13.2901967,20.9794056 13.37721,20.2845246 L13.5305109,19.0606174 C13.6726656,17.9208636 15.0030008,17.3697892 15.9104206,18.0745815 L16.8835462,18.83192 C17.436549,19.2618291 18.2226494,19.2127438 18.7172799,18.7181133 C19.2123085,18.2230848 19.261393,17.4369968 18.8320815,16.8845872 L18.0743434,15.9109476 C17.3690987,15.0033066 17.9205476,13.672705 19.0606905,13.5305018 L20.2844876,13.378048 C20.9786879,13.2910432 21.5,12.7002228 21.5,12 C21.5,11.3005759 20.9786822,10.7098756 20.2846584,10.6228068 L19.0606174,10.4703224 Z M22.5,12 C22.5,13.2043883 21.6033646,14.2205752 20.4084762,14.3703315 L19.1843826,14.5228224 C18.8139894,14.5690194 18.634521,15.002062 18.8637518,15.2970794 L19.6214606,16.2706812 C20.3603604,17.2214482 20.2759249,18.5736819 19.4243867,19.4252201 C18.5732284,20.2763784 17.2209037,20.3608196 16.2695794,19.6212518 L15.2966285,18.8640491 C15.0018151,18.6350678 14.5689722,18.8143675 14.52279,19.1846421 L14.3694588,20.4087917 C14.2197957,21.6039884 13.2045899,22.5 12,22.5 C10.7954101,22.5 9.78020428,21.6039884 9.63054333,20.4088087 L9.47717756,19.1843826 C9.43102778,18.8143675 8.99818488,18.6350678 8.7037539,18.8637518 L7.73021284,19.6214134 C6.77909628,20.3608196 5.4267716,20.2763784 4.57561328,19.4252201 C3.7240751,18.5736819 3.63963956,17.2214482 4.3787482,16.2704128 L5.13601004,15.2973857 C5.365479,15.002062 5.18601065,14.5690194 4.81569049,14.5228315 L3.59115429,14.3702854 C2.39663545,14.2205752 1.5,13.2043883 1.5,12 C1.5,10.7962868 2.39679235,9.78023852 3.59152382,9.63050179 L4.81561744,9.4780109 C5.18601065,9.43181395 5.365479,8.99877133 5.1362482,8.7037539 L4.37853941,7.73015211 C3.63963956,6.7793851 3.7240751,5.42715145 4.57539443,4.57583226 C5.42629673,3.72387555 6.7787477,3.63974273 7.73021004,4.37941778 L8.70371275,5.13621617 C8.9984227,5.36552585 9.43102706,5.18647164 9.47721,4.81619127 L9.6305412,3.59204161 C9.78021844,2.39673184 10.7955238,1.5 12,1.5 C13.2044762,1.5 14.2197816,2.39673184 14.3694567,3.5920246 L14.5228224,4.81645077 C14.5689729,5.18647164 15.0015773,5.36552585 15.2964566,5.13608444 L16.2697872,4.37941995 C17.2212523,3.63974273 18.5737033,3.72387555 19.4243867,4.57561328 C20.2759249,5.42715145 20.3603604,6.7793851 19.6212518,7.73042057 L18.86399,8.70344765 C18.634521,8.99877133 18.8139894,9.43181395 19.1843095,9.47800179 L20.4084762,9.63050179 C21.6032077,9.78023852 22.5,10.7962868 22.5,12 Z"/>
    <path id="2-d" d="M13.4905339,2 L10.5144746,2 C5.81248122,2 2,5.79935114 2,10.485151 C2,15.1709508 5.81248122,18.970302 10.5144746,18.970302 L11.1615747,18.970302 C18.8396274,18.970302 18.3297606,20.362865 20.3982771,21.8183179 C20.5765802,21.9430996 20.772914,22 20.9652409,22 C21.4981468,22 22,21.5667582 22,20.9648116 L22,10.4801597 C22,5.79635638 18.1895222,2 13.4905339,2 M13.4905339,2.99825306 C17.630572,2.99825306 20.9982971,6.35437984 20.9982971,10.4801597 L20.9982971,20.9648116 C20.9982971,20.9877714 20.9772613,20.9977539 20.9742562,21.0007487 C20.6066313,20.7412029 20.331163,20.4836536 20.0406691,20.2111305 C18.5561454,18.8175693 17.2168687,17.9720489 11.1615747,17.9720489 L10.5144746,17.9720489 C6.37243314,17.9720489 3.00170289,14.6139256 3.00170289,10.485151 C3.00170289,6.35637634 6.37243314,2.99825306 10.5144746,2.99825306 L13.4905339,2.99825306 M16,9 C16.2761424,9 16.5,9.22385763 16.5,9.5 C16.5,9.77614237 16.2761424,10 16,10 L8,10 C7.72385763,10 7.5,9.77614237 7.5,9.5 C7.5,9.22385763 7.72385763,9 8,9 L16,9 Z M14,12 C14.2761424,12 14.5,12.2238576 14.5,12.5 C14.5,12.7761424 14.2761424,13 14,13 L10,13 C9.72385763,13 9.5,12.7761424 9.5,12.5 C9.5,12.2238576 9.72385763,12 10,12 L14,12 Z"/>
    <path id="2-e" d="M12.0001,11.014 C13.6541,11.014 15.0001,9.668 15.0001,8.014 C15.0001,6.36 13.6541,5.014 12.0001,5.014 C10.3461,5.014 9.0001,6.36 9.0001,8.014 C9.0001,9.668 10.3461,11.014 12.0001,11.014 Z M12.0001,4.014 C14.2061,4.014 16.0001,5.808 16.0001,8.014 C16.0001,10.22 14.2061,12.014 12.0001,12.014 C9.7941,12.014 8.0001,10.22 8.0001,8.014 C8.0001,5.808 9.7941,4.014 12.0001,4.014 Z M19.193,18.93 C20.926,17.13 22,14.69 22,11.999 C22,6.486 17.514,2 12,2 C6.486,2 2,6.486 2,11.999 C2,14.69 3.073,17.13 4.807,18.93 C5.711,15.803 8.582,13.514 12,13.514 C15.418,13.514 18.289,15.803 19.193,18.93 Z M12,1 C18.075,1 23,5.925 23,11.999 C23,18.075 18.075,22.999 12,22.999 C5.925,22.999 1,18.075 1,11.999 C1,5.925 5.925,1 12,1 Z M12.0494,14.3538 C8.9434,14.3538 6.2934,16.5548 5.6854,19.5518 C7.4804,21.0408 9.7204,21.8538 12.0494,21.8538 C14.3784,21.8538 16.6184,21.0408 18.4134,19.5518 C17.8054,16.5548 15.1554,14.3538 12.0494,14.3538 Z"/>
    <path id="2-f" d="M21.0000154,9.95921869 L21.0000154,20.0333192 C21.0000154,21.1404616 20.1021578,22.0383192 18.9950154,22.0383192 L16.0050154,22.0383192 C14.8978731,22.0383192 14.0000154,21.1404616 14.0000154,20.0333192 L14.0000154,17.0413192 C14.0000154,16.4874616 13.5508731,16.0383192 12.9970154,16.0383192 L11.0030154,16.0383192 C10.4491578,16.0383192 10.0000154,16.4874616 10.0000154,17.0413192 L10.0000154,20.0333192 C10.0000154,21.1404616 9.10215782,22.0383192 7.99501544,22.0383192 L5.00501544,22.0383192 C3.89787307,22.0383192 3.00001544,21.1404616 3.00001544,20.0333192 L3.00001544,9.95964705 L1.81613021,10.9257098 C1.6021803,11.1002952 1.28721023,11.0683839 1.11262487,10.854434 C0.938039506,10.6404841 0.969950772,10.325514 1.18390068,10.1509287 L10.3152218,2.70300627 C11.2455388,1.77142355 12.7544921,1.77142355 13.6471302,2.66892865 L22.8161302,10.1509287 C23.0300801,10.325514 23.0619914,10.6404841 22.887406,10.854434 C22.7128207,11.0683839 22.3978506,11.1002952 22.1839007,10.9257098 L21.0000154,9.95921869 Z M20.0000154,9.14284639 L12.9772218,3.40963219 C12.4375388,2.86921491 11.5624921,2.86921491 10.9851302,3.4437098 L4.00001544,9.14363658 L4.00001544,20.0333192 C4.00001544,20.5881769 4.45015782,21.0383192 5.00501544,21.0383192 L7.99501544,21.0383192 C8.54987307,21.0383192 9.00001544,20.5881769 9.00001544,20.0333192 L9.00001544,17.0413192 C9.00001544,15.9351769 9.89687307,15.0383192 11.0030154,15.0383192 L12.9970154,15.0383192 C14.1031578,15.0383192 15.0000154,15.9351769 15.0000154,17.0413192 L15.0000154,20.0333192 C15.0000154,20.5881769 15.4501578,21.0383192 16.0050154,21.0383192 L18.9950154,21.0383192 C19.5498731,21.0383192 20.0000154,20.5881769 20.0000154,20.0333192 L20.0000154,9.14284639 Z"/>
  </defs>
  <g fill="none" fill-rule="evenodd">
    <rect width="1024" height="180" fill="#FFF" fill-opacity=".01" fill-rule="nonzero"/>
    <g transform="translate(0 25)">
      <g transform="translate(0 39)">
        <rect width="1024" height="48" fill="#FFF"/>
        <use fill="#000" filter="url(#2-a)" xlink:href="#2-b"/>
        <use fill="#FFF" fill-opacity="0" xlink:href="#2-b"/>
        <g transform="translate(854 12)">
          <path fill="#919FA8" d="M36.3692383,17 L35.4024414,17 L35.4024414,10.1196289 L32.9048828,10.1196289 L32.9048828,9.24951172 L38.8667969,9.24951172 L38.8667969,10.1196289 L36.3692383,10.1196289 L36.3692383,17 Z M41.5471484,11.9243164 C40.6233203,11.9243164 39.9787891,12.6010742 39.9089648,13.6269531 L43.0993945,13.6269531 C43.0779102,12.6010742 42.4656055,11.9243164 41.5471484,11.9243164 Z M43.0725391,15.5014648 L43.9963672,15.5014648 C43.7170703,16.4951172 42.8254687,17.1020508 41.5578906,17.1020508 C39.9519336,17.1020508 38.9475391,15.9418945 38.9475391,14.1103516 C38.9475391,12.2895508 39.9680469,11.1079102 41.5578906,11.1079102 C43.1208789,11.1079102 44.0715625,12.2197266 44.0715625,14.019043 L44.0715625,14.3735352 L39.9089648,14.3735352 L39.9089648,14.4165039 C39.9573047,15.5605469 40.5964648,16.2856445 41.579375,16.2856445 C42.325957,16.2856445 42.8308398,16.0117188 43.0725391,15.5014648 Z M47.4286719,14.8139648 L47.3427344,14.8139648 L45.9677344,17 L44.9203711,17 L46.9023047,14.1049805 L44.8988867,11.2099609 L45.9999609,11.2099609 L47.3749609,13.3637695 L47.4608984,13.3637695 L48.8197852,11.2099609 L49.8671484,11.2099609 L47.9013281,14.0673828 L49.8940039,17 L48.7983008,17 L47.4286719,14.8139648 Z M51.6129297,9.71142578 L52.5367578,9.71142578 L52.5367578,11.2099609 L53.8258203,11.2099609 L53.8258203,11.9833984 L52.5367578,11.9833984 L52.5367578,15.2597656 C52.5367578,15.9418945 52.7945703,16.2319336 53.3961328,16.2319336 C53.5626367,16.2319336 53.6539453,16.2265625 53.8258203,16.2104492 L53.8258203,16.9892578 C53.6432031,17.0214844 53.465957,17.0429688 53.2833398,17.0429688 C52.090957,17.0429688 51.6129297,16.6025391 51.6129297,15.4960938 L51.6129297,11.9833984 L50.6783594,11.9833984 L50.6783594,11.2099609 L51.6129297,11.2099609 L51.6129297,9.71142578 Z M58.5205078,17 L58.5205078,8.91113281 L59.4443359,8.91113281 L59.4443359,17 L58.5205078,17 Z M63.0914844,16.2910156 C64.042168,16.2910156 64.7457813,15.6679688 64.7457813,14.8408203 L64.7457813,14.309082 L63.1881641,14.4111328 C62.3073047,14.4702148 61.9205859,14.7763672 61.9205859,15.3564453 C61.9205859,15.9472656 62.4200977,16.2910156 63.0914844,16.2910156 Z M62.9196094,17.1020508 C61.7970508,17.1020508 60.9645313,16.4360352 60.9645313,15.3779297 C60.9645313,14.3413086 61.7272266,13.7451172 63.0753711,13.6645508 L64.7457813,13.5625 L64.7457813,13.0361328 C64.7457813,12.3217773 64.2999805,11.9296875 63.4352344,11.9296875 C62.7423633,11.9296875 62.2589648,12.1928711 62.1300586,12.6494141 L61.1954883,12.6494141 C61.3190234,11.7202148 62.2321094,11.1079102 63.4674609,11.1079102 C64.8800586,11.1079102 65.6696094,11.8330078 65.6696094,13.0361328 L65.6696094,17 L64.78875,17 L64.78875,16.1459961 L64.7028125,16.1459961 C64.3268359,16.7636719 63.6930469,17.1020508 62.9196094,17.1020508 Z M70.3265234,17.1020508 C69.5208594,17.1020508 68.8333594,16.7207031 68.468125,16.0761719 L68.3821875,16.0761719 L68.3821875,17 L67.5013281,17 L67.5013281,8.91113281 L68.4251563,8.91113281 L68.4251563,12.1230469 L68.5110938,12.1230469 C68.8279883,11.5 69.5316016,11.1079102 70.3265234,11.1079102 C71.7982031,11.1079102 72.7542578,12.2841797 72.7542578,14.1049805 C72.7542578,15.9150391 71.792832,17.1020508 70.3265234,17.1020508 Z M70.1116797,11.9404297 C69.0589453,11.9404297 68.4036719,12.7675781 68.4036719,14.1049805 C68.4036719,15.4423828 69.0589453,16.2695312 70.1116797,16.2695312 C71.1697852,16.2695312 71.7982031,15.4584961 71.7982031,14.1049805 C71.7982031,12.7514648 71.1697852,11.9404297 70.1116797,11.9404297 Z M76.5840234,11.9243164 C75.6601953,11.9243164 75.0156641,12.6010742 74.9458398,13.6269531 L78.1362695,13.6269531 C78.1147852,12.6010742 77.5024805,11.9243164 76.5840234,11.9243164 Z M78.1094141,15.5014648 L79.0332422,15.5014648 C78.7539453,16.4951172 77.8623438,17.1020508 76.5947656,17.1020508 C74.9888086,17.1020508 73.9844141,15.9418945 73.9844141,14.1103516 C73.9844141,12.2895508 75.0049219,11.1079102 76.5947656,11.1079102 C78.1577539,11.1079102 79.1084375,12.2197266 79.1084375,14.019043 L79.1084375,14.3735352 L74.9458398,14.3735352 L74.9458398,14.4165039 C74.9941797,15.5605469 75.6333398,16.2856445 76.61625,16.2856445 C77.362832,16.2856445 77.8677148,16.0117188 78.1094141,15.5014648 Z M80.6823438,17 L80.6823438,8.91113281 L81.6061719,8.91113281 L81.6061719,17 L80.6823438,17 Z"/>
          <path d="M22.5,12 C22.5,13.2043883 21.6033646,14.2205752 20.4084762,14.3703315 L19.1843826,14.5228224 C18.8139894,14.5690194 18.634521,15.002062 18.8637518,15.2970794 L19.6214606,16.2706812 C20.3603604,17.2214482 20.2759249,18.5736819 19.4243867,19.4252201 C18.5732284,20.2763784 17.2209037,20.3608196 16.2695794,19.6212518 L15.2966285,18.8640491 C15.0018151,18.6350678 14.5689722,18.8143675 14.52279,19.1846421 L14.3694588,20.4087917 C14.2197957,21.6039884 13.2045899,22.5 12,22.5 C10.7954101,22.5 9.78020428,21.6039884 9.63054333,20.4088087 L9.47717756,19.1843826 C9.43102778,18.8143675 8.99818488,18.6350678 8.7037539,18.8637518 L7.73021284,19.6214134 C6.77909628,20.3608196 5.4267716,20.2763784 4.57561328,19.4252201 C3.7240751,18.5736819 3.63963956,17.2214482 4.3787482,16.2704128 L5.13601004,15.2973857 C5.365479,15.002062 5.18601065,14.5690194 4.81569049,14.5228315 L3.59115429,14.3702854 C2.39663545,14.2205752 1.5,13.2043883 1.5,12 C1.5,10.7962868 2.39679235,9.78023852 3.59152382,9.63050179 L4.81561744,9.4780109 C5.18601065,9.43181395 5.365479,8.99877133 5.1362482,8.7037539 L4.37853941,7.73015211 C3.63963956,6.7793851 3.7240751,5.42715145 4.57539443,4.57583226 C5.42629673,3.72387555 6.7787477,3.63974273 7.73021004,4.37941778 L8.70371275,5.13621617 C8.9984227,5.36552585 9.43102706,5.18647164 9.47721,4.81619127 L9.6305412,3.59204161 C9.78021844,2.39673184 10.7955238,1.5 12,1.5 C13.2044762,1.5 14.2197816,2.39673184 14.3694567,3.5920246 L14.5228224,4.81645077 C14.5689729,5.18647164 15.0015773,5.36552585 15.2964566,5.13608444 L16.2697872,4.37941995 C17.2212523,3.63974273 18.5737033,3.72387555 19.4243867,4.57561328 C20.2759249,5.42715145 20.3603604,6.7793851 19.6212518,7.73042057 L18.86399,8.70344765 C18.634521,8.99877133 18.8139894,9.43181395 19.1843095,9.47800179 L20.4084762,9.63050179 C21.6032077,9.78023852 22.5,10.7962868 22.5,12 Z M12,15 L12,15.5 C13.8913069,15.5 15.5,13.8914139 15.5,11.9994584 C15.5,10.1083874 13.8911082,8.5 12,8.5 C10.1088918,8.5 8.5,10.1083874 8.5,11.9994584 C8.5,13.8914139 10.1086931,15.5 12,15.5 L12,15 Z"/>
          <use fill="#A9B6BE" xlink:href="#2-c"/>
        </g>
        <g transform="translate(662 12)">
          <path fill="#919FA8" d="M36.3692383,17 L35.4024414,17 L35.4024414,10.1196289 L32.9048828,10.1196289 L32.9048828,9.24951172 L38.8667969,9.24951172 L38.8667969,10.1196289 L36.3692383,10.1196289 L36.3692383,17 Z M41.5471484,11.9243164 C40.6233203,11.9243164 39.9787891,12.6010742 39.9089648,13.6269531 L43.0993945,13.6269531 C43.0779102,12.6010742 42.4656055,11.9243164 41.5471484,11.9243164 Z M43.0725391,15.5014648 L43.9963672,15.5014648 C43.7170703,16.4951172 42.8254687,17.1020508 41.5578906,17.1020508 C39.9519336,17.1020508 38.9475391,15.9418945 38.9475391,14.1103516 C38.9475391,12.2895508 39.9680469,11.1079102 41.5578906,11.1079102 C43.1208789,11.1079102 44.0715625,12.2197266 44.0715625,14.019043 L44.0715625,14.3735352 L39.9089648,14.3735352 L39.9089648,14.4165039 C39.9573047,15.5605469 40.5964648,16.2856445 41.579375,16.2856445 C42.325957,16.2856445 42.8308398,16.0117188 43.0725391,15.5014648 Z M47.4286719,14.8139648 L47.3427344,14.8139648 L45.9677344,17 L44.9203711,17 L46.9023047,14.1049805 L44.8988867,11.2099609 L45.9999609,11.2099609 L47.3749609,13.3637695 L47.4608984,13.3637695 L48.8197852,11.2099609 L49.8671484,11.2099609 L47.9013281,14.0673828 L49.8940039,17 L48.7983008,17 L47.4286719,14.8139648 Z M51.6129297,9.71142578 L52.5367578,9.71142578 L52.5367578,11.2099609 L53.8258203,11.2099609 L53.8258203,11.9833984 L52.5367578,11.9833984 L52.5367578,15.2597656 C52.5367578,15.9418945 52.7945703,16.2319336 53.3961328,16.2319336 C53.5626367,16.2319336 53.6539453,16.2265625 53.8258203,16.2104492 L53.8258203,16.9892578 C53.6432031,17.0214844 53.465957,17.0429688 53.2833398,17.0429688 C52.090957,17.0429688 51.6129297,16.6025391 51.6129297,15.4960938 L51.6129297,11.9833984 L50.6783594,11.9833984 L50.6783594,11.2099609 L51.6129297,11.2099609 L51.6129297,9.71142578 Z M58.5205078,17 L58.5205078,8.91113281 L59.4443359,8.91113281 L59.4443359,17 L58.5205078,17 Z M63.0914844,16.2910156 C64.042168,16.2910156 64.7457813,15.6679688 64.7457813,14.8408203 L64.7457813,14.309082 L63.1881641,14.4111328 C62.3073047,14.4702148 61.9205859,14.7763672 61.9205859,15.3564453 C61.9205859,15.9472656 62.4200977,16.2910156 63.0914844,16.2910156 Z M62.9196094,17.1020508 C61.7970508,17.1020508 60.9645313,16.4360352 60.9645313,15.3779297 C60.9645313,14.3413086 61.7272266,13.7451172 63.0753711,13.6645508 L64.7457813,13.5625 L64.7457813,13.0361328 C64.7457813,12.3217773 64.2999805,11.9296875 63.4352344,11.9296875 C62.7423633,11.9296875 62.2589648,12.1928711 62.1300586,12.6494141 L61.1954883,12.6494141 C61.3190234,11.7202148 62.2321094,11.1079102 63.4674609,11.1079102 C64.8800586,11.1079102 65.6696094,11.8330078 65.6696094,13.0361328 L65.6696094,17 L64.78875,17 L64.78875,16.1459961 L64.7028125,16.1459961 C64.3268359,16.7636719 63.6930469,17.1020508 62.9196094,17.1020508 Z M70.3265234,17.1020508 C69.5208594,17.1020508 68.8333594,16.7207031 68.468125,16.0761719 L68.3821875,16.0761719 L68.3821875,17 L67.5013281,17 L67.5013281,8.91113281 L68.4251563,8.91113281 L68.4251563,12.1230469 L68.5110938,12.1230469 C68.8279883,11.5 69.5316016,11.1079102 70.3265234,11.1079102 C71.7982031,11.1079102 72.7542578,12.2841797 72.7542578,14.1049805 C72.7542578,15.9150391 71.792832,17.1020508 70.3265234,17.1020508 Z M70.1116797,11.9404297 C69.0589453,11.9404297 68.4036719,12.7675781 68.4036719,14.1049805 C68.4036719,15.4423828 69.0589453,16.2695312 70.1116797,16.2695312 C71.1697852,16.2695312 71.7982031,15.4584961 71.7982031,14.1049805 C71.7982031,12.7514648 71.1697852,11.9404297 70.1116797,11.9404297 Z M76.5840234,11.9243164 C75.6601953,11.9243164 75.0156641,12.6010742 74.9458398,13.6269531 L78.1362695,13.6269531 C78.1147852,12.6010742 77.5024805,11.9243164 76.5840234,11.9243164 Z M78.1094141,15.5014648 L79.0332422,15.5014648 C78.7539453,16.4951172 77.8623438,17.1020508 76.5947656,17.1020508 C74.9888086,17.1020508 73.9844141,15.9418945 73.9844141,14.1103516 C73.9844141,12.2895508 75.0049219,11.1079102 76.5947656,11.1079102 C78.1577539,11.1079102 79.1084375,12.2197266 79.1084375,14.019043 L79.1084375,14.3735352 L74.9458398,14.3735352 L74.9458398,14.4165039 C74.9941797,15.5605469 75.6333398,16.2856445 76.61625,16.2856445 C77.362832,16.2856445 77.8677148,16.0117188 78.1094141,15.5014648 Z M80.6823438,17 L80.6823438,8.91113281 L81.6061719,8.91113281 L81.6061719,17 L80.6823438,17 Z"/>
          <path fill="#A9B6BE" d="M19.5713488,18.0016621 L4.4271902,18.0016621 C4.19258357,18.0016621 4.08430359,17.8396621 4.04921285,17.7706621 C4.01412212,17.6996621 3.94694842,17.5186621 4.08530618,17.3286621 L5.11196083,15.9366621 L5.11196083,11.2163 C5.11196083,8.1383 7.1151405,5.4273 9.98456003,4.6253 C10.2051304,4.5633 10.3414829,4.3613 10.3424855,4.1433 L10.3505063,3.7753 C10.3505063,2.7973 11.1485698,2.0003 12.1301078,2.0003 C13.1106432,2.0003 13.9087068,2.7973 13.9087068,3.7753 L13.9087068,4.1433 C13.9187327,4.3613 14.0540827,4.5633 14.274653,4.6253 C17.1440726,5.4273 19.1482548,8.1383 19.1482548,11.2163 L19.1482548,15.8986621 L19.9453158,17.3786621 C20.0475802,17.5696621 19.9723858,17.7336621 19.9352899,17.7956621 C19.898194,17.8576621 19.7889114,18.0016621 19.5713488,18.0016621 Z M13.6349991,19.5016621 C13.6349991,20.3296621 12.9602544,21.0036621 12.1301078,21.0036621 C11.2999613,21.0036621 10.624214,20.3296621 10.624214,19.5016621 L10.624214,19.0016621 L13.6349991,19.0016621 L13.6349991,19.5016621 Z M20.1508473,15.6466621 L20.1508473,11.2163 C20.1508473,7.8283 18.0093098,4.8453 14.9112992,3.7983 C14.9112992,2.2453 13.6640742,1.0003 12.1301078,1.0003 C10.5961414,1.0003 9.34791384,2.2453 9.34791384,3.7753 C6.25090582,4.8453 4.1093684,7.8283 4.1093684,11.2163 L4.1093684,15.6076621 L3.27721668,16.7366621 C2.9573897,17.1716621 2.91127044,17.7406621 3.1549004,18.2216621 C3.39953296,18.7026621 3.88679288,19.0016621 4.4271902,19.0016621 L9.62162157,19.0016621 L9.62162157,19.5016621 C9.62162157,20.8816621 10.7465303,22.0036621 12.1301078,22.0036621 C13.5126828,22.0036621 14.6375915,20.8816621 14.6375915,19.5016621 L14.6375915,19.0016621 L19.5713488,19.0016621 C20.0786606,19.0016621 20.5358427,18.7426621 20.7955142,18.3096621 C21.0561882,17.8756621 21.0682193,17.3516621 20.8285997,16.9056621 L20.1508473,15.6466621 Z"/>
        </g>
        <g transform="translate(470 12)">
          <path fill="#919FA8" d="M36.3692383,17 L35.4024414,17 L35.4024414,10.1196289 L32.9048828,10.1196289 L32.9048828,9.24951172 L38.8667969,9.24951172 L38.8667969,10.1196289 L36.3692383,10.1196289 L36.3692383,17 Z M41.5471484,11.9243164 C40.6233203,11.9243164 39.9787891,12.6010742 39.9089648,13.6269531 L43.0993945,13.6269531 C43.0779102,12.6010742 42.4656055,11.9243164 41.5471484,11.9243164 Z M43.0725391,15.5014648 L43.9963672,15.5014648 C43.7170703,16.4951172 42.8254687,17.1020508 41.5578906,17.1020508 C39.9519336,17.1020508 38.9475391,15.9418945 38.9475391,14.1103516 C38.9475391,12.2895508 39.9680469,11.1079102 41.5578906,11.1079102 C43.1208789,11.1079102 44.0715625,12.2197266 44.0715625,14.019043 L44.0715625,14.3735352 L39.9089648,14.3735352 L39.9089648,14.4165039 C39.9573047,15.5605469 40.5964648,16.2856445 41.579375,16.2856445 C42.325957,16.2856445 42.8308398,16.0117188 43.0725391,15.5014648 Z M47.4286719,14.8139648 L47.3427344,14.8139648 L45.9677344,17 L44.9203711,17 L46.9023047,14.1049805 L44.8988867,11.2099609 L45.9999609,11.2099609 L47.3749609,13.3637695 L47.4608984,13.3637695 L48.8197852,11.2099609 L49.8671484,11.2099609 L47.9013281,14.0673828 L49.8940039,17 L48.7983008,17 L47.4286719,14.8139648 Z M51.6129297,9.71142578 L52.5367578,9.71142578 L52.5367578,11.2099609 L53.8258203,11.2099609 L53.8258203,11.9833984 L52.5367578,11.9833984 L52.5367578,15.2597656 C52.5367578,15.9418945 52.7945703,16.2319336 53.3961328,16.2319336 C53.5626367,16.2319336 53.6539453,16.2265625 53.8258203,16.2104492 L53.8258203,16.9892578 C53.6432031,17.0214844 53.465957,17.0429688 53.2833398,17.0429688 C52.090957,17.0429688 51.6129297,16.6025391 51.6129297,15.4960938 L51.6129297,11.9833984 L50.6783594,11.9833984 L50.6783594,11.2099609 L51.6129297,11.2099609 L51.6129297,9.71142578 Z M58.5205078,17 L58.5205078,8.91113281 L59.4443359,8.91113281 L59.4443359,17 L58.5205078,17 Z M63.0914844,16.2910156 C64.042168,16.2910156 64.7457813,15.6679688 64.7457813,14.8408203 L64.7457813,14.309082 L63.1881641,14.4111328 C62.3073047,14.4702148 61.9205859,14.7763672 61.9205859,15.3564453 C61.9205859,15.9472656 62.4200977,16.2910156 63.0914844,16.2910156 Z M62.9196094,17.1020508 C61.7970508,17.1020508 60.9645313,16.4360352 60.9645313,15.3779297 C60.9645313,14.3413086 61.7272266,13.7451172 63.0753711,13.6645508 L64.7457813,13.5625 L64.7457813,13.0361328 C64.7457813,12.3217773 64.2999805,11.9296875 63.4352344,11.9296875 C62.7423633,11.9296875 62.2589648,12.1928711 62.1300586,12.6494141 L61.1954883,12.6494141 C61.3190234,11.7202148 62.2321094,11.1079102 63.4674609,11.1079102 C64.8800586,11.1079102 65.6696094,11.8330078 65.6696094,13.0361328 L65.6696094,17 L64.78875,17 L64.78875,16.1459961 L64.7028125,16.1459961 C64.3268359,16.7636719 63.6930469,17.1020508 62.9196094,17.1020508 Z M70.3265234,17.1020508 C69.5208594,17.1020508 68.8333594,16.7207031 68.468125,16.0761719 L68.3821875,16.0761719 L68.3821875,17 L67.5013281,17 L67.5013281,8.91113281 L68.4251563,8.91113281 L68.4251563,12.1230469 L68.5110938,12.1230469 C68.8279883,11.5 69.5316016,11.1079102 70.3265234,11.1079102 C71.7982031,11.1079102 72.7542578,12.2841797 72.7542578,14.1049805 C72.7542578,15.9150391 71.792832,17.1020508 70.3265234,17.1020508 Z M70.1116797,11.9404297 C69.0589453,11.9404297 68.4036719,12.7675781 68.4036719,14.1049805 C68.4036719,15.4423828 69.0589453,16.2695312 70.1116797,16.2695312 C71.1697852,16.2695312 71.7982031,15.4584961 71.7982031,14.1049805 C71.7982031,12.7514648 71.1697852,11.9404297 70.1116797,11.9404297 Z M76.5840234,11.9243164 C75.6601953,11.9243164 75.0156641,12.6010742 74.9458398,13.6269531 L78.1362695,13.6269531 C78.1147852,12.6010742 77.5024805,11.9243164 76.5840234,11.9243164 Z M78.1094141,15.5014648 L79.0332422,15.5014648 C78.7539453,16.4951172 77.8623438,17.1020508 76.5947656,17.1020508 C74.9888086,17.1020508 73.9844141,15.9418945 73.9844141,14.1103516 C73.9844141,12.2895508 75.0049219,11.1079102 76.5947656,11.1079102 C78.1577539,11.1079102 79.1084375,12.2197266 79.1084375,14.019043 L79.1084375,14.3735352 L74.9458398,14.3735352 L74.9458398,14.4165039 C74.9941797,15.5605469 75.6333398,16.2856445 76.61625,16.2856445 C77.362832,16.2856445 77.8677148,16.0117188 78.1094141,15.5014648 Z M80.6823438,17 L80.6823438,8.91113281 L81.6061719,8.91113281 L81.6061719,17 L80.6823438,17 Z"/>
          <path d="M13.4905339,2 C18.1895222,2 22,5.79635638 22,10.4801597 L22,20.9648116 C22,21.5667582 21.4981468,22 20.9652409,22 C20.772914,22 20.5765802,21.9430996 20.3982771,21.8183179 C18.3297606,20.362865 18.8396274,18.970302 11.1615747,18.970302 L10.5144746,18.970302 C5.81248122,18.970302 2,15.1709508 2,10.485151 C2,5.79935114 5.81248122,2 10.5144746,2 L13.4905339,2 Z M16,9 L8,9 C7.72385763,9 7.5,9.22385763 7.5,9.5 C7.5,9.77614237 7.72385763,10 8,10 L16,10 C16.2761424,10 16.5,9.77614237 16.5,9.5 C16.5,9.22385763 16.2761424,9 16,9 Z M14,12 L10,12 C9.72385763,12 9.5,12.2238576 9.5,12.5 C9.5,12.7761424 9.72385763,13 10,13 L14,13 C14.2761424,13 14.5,12.7761424 14.5,12.5 C14.5,12.2238576 14.2761424,12 14,12 Z"/>
          <use fill="#A9B6BE" xlink:href="#2-d"/>
        </g>
        <g transform="translate(278 12)">
          <path fill="#919FA8" d="M36.3692383,17 L35.4024414,17 L35.4024414,10.1196289 L32.9048828,10.1196289 L32.9048828,9.24951172 L38.8667969,9.24951172 L38.8667969,10.1196289 L36.3692383,10.1196289 L36.3692383,17 Z M41.5471484,11.9243164 C40.6233203,11.9243164 39.9787891,12.6010742 39.9089648,13.6269531 L43.0993945,13.6269531 C43.0779102,12.6010742 42.4656055,11.9243164 41.5471484,11.9243164 Z M43.0725391,15.5014648 L43.9963672,15.5014648 C43.7170703,16.4951172 42.8254687,17.1020508 41.5578906,17.1020508 C39.9519336,17.1020508 38.9475391,15.9418945 38.9475391,14.1103516 C38.9475391,12.2895508 39.9680469,11.1079102 41.5578906,11.1079102 C43.1208789,11.1079102 44.0715625,12.2197266 44.0715625,14.019043 L44.0715625,14.3735352 L39.9089648,14.3735352 L39.9089648,14.4165039 C39.9573047,15.5605469 40.5964648,16.2856445 41.579375,16.2856445 C42.325957,16.2856445 42.8308398,16.0117188 43.0725391,15.5014648 Z M47.4286719,14.8139648 L47.3427344,14.8139648 L45.9677344,17 L44.9203711,17 L46.9023047,14.1049805 L44.8988867,11.2099609 L45.9999609,11.2099609 L47.3749609,13.3637695 L47.4608984,13.3637695 L48.8197852,11.2099609 L49.8671484,11.2099609 L47.9013281,14.0673828 L49.8940039,17 L48.7983008,17 L47.4286719,14.8139648 Z M51.6129297,9.71142578 L52.5367578,9.71142578 L52.5367578,11.2099609 L53.8258203,11.2099609 L53.8258203,11.9833984 L52.5367578,11.9833984 L52.5367578,15.2597656 C52.5367578,15.9418945 52.7945703,16.2319336 53.3961328,16.2319336 C53.5626367,16.2319336 53.6539453,16.2265625 53.8258203,16.2104492 L53.8258203,16.9892578 C53.6432031,17.0214844 53.465957,17.0429688 53.2833398,17.0429688 C52.090957,17.0429688 51.6129297,16.6025391 51.6129297,15.4960938 L51.6129297,11.9833984 L50.6783594,11.9833984 L50.6783594,11.2099609 L51.6129297,11.2099609 L51.6129297,9.71142578 Z M58.5205078,17 L58.5205078,8.91113281 L59.4443359,8.91113281 L59.4443359,17 L58.5205078,17 Z M63.0914844,16.2910156 C64.042168,16.2910156 64.7457813,15.6679688 64.7457813,14.8408203 L64.7457813,14.309082 L63.1881641,14.4111328 C62.3073047,14.4702148 61.9205859,14.7763672 61.9205859,15.3564453 C61.9205859,15.9472656 62.4200977,16.2910156 63.0914844,16.2910156 Z M62.9196094,17.1020508 C61.7970508,17.1020508 60.9645313,16.4360352 60.9645313,15.3779297 C60.9645313,14.3413086 61.7272266,13.7451172 63.0753711,13.6645508 L64.7457813,13.5625 L64.7457813,13.0361328 C64.7457813,12.3217773 64.2999805,11.9296875 63.4352344,11.9296875 C62.7423633,11.9296875 62.2589648,12.1928711 62.1300586,12.6494141 L61.1954883,12.6494141 C61.3190234,11.7202148 62.2321094,11.1079102 63.4674609,11.1079102 C64.8800586,11.1079102 65.6696094,11.8330078 65.6696094,13.0361328 L65.6696094,17 L64.78875,17 L64.78875,16.1459961 L64.7028125,16.1459961 C64.3268359,16.7636719 63.6930469,17.1020508 62.9196094,17.1020508 Z M70.3265234,17.1020508 C69.5208594,17.1020508 68.8333594,16.7207031 68.468125,16.0761719 L68.3821875,16.0761719 L68.3821875,17 L67.5013281,17 L67.5013281,8.91113281 L68.4251563,8.91113281 L68.4251563,12.1230469 L68.5110938,12.1230469 C68.8279883,11.5 69.5316016,11.1079102 70.3265234,11.1079102 C71.7982031,11.1079102 72.7542578,12.2841797 72.7542578,14.1049805 C72.7542578,15.9150391 71.792832,17.1020508 70.3265234,17.1020508 Z M70.1116797,11.9404297 C69.0589453,11.9404297 68.4036719,12.7675781 68.4036719,14.1049805 C68.4036719,15.4423828 69.0589453,16.2695312 70.1116797,16.2695312 C71.1697852,16.2695312 71.7982031,15.4584961 71.7982031,14.1049805 C71.7982031,12.7514648 71.1697852,11.9404297 70.1116797,11.9404297 Z M76.5840234,11.9243164 C75.6601953,11.9243164 75.0156641,12.6010742 74.9458398,13.6269531 L78.1362695,13.6269531 C78.1147852,12.6010742 77.5024805,11.9243164 76.5840234,11.9243164 Z M78.1094141,15.5014648 L79.0332422,15.5014648 C78.7539453,16.4951172 77.8623438,17.1020508 76.5947656,17.1020508 C74.9888086,17.1020508 73.9844141,15.9418945 73.9844141,14.1103516 C73.9844141,12.2895508 75.0049219,11.1079102 76.5947656,11.1079102 C78.1577539,11.1079102 79.1084375,12.2197266 79.1084375,14.019043 L79.1084375,14.3735352 L74.9458398,14.3735352 L74.9458398,14.4165039 C74.9941797,15.5605469 75.6333398,16.2856445 76.61625,16.2856445 C77.362832,16.2856445 77.8677148,16.0117188 78.1094141,15.5014648 Z M80.6823438,17 L80.6823438,8.91113281 L81.6061719,8.91113281 L81.6061719,17 L80.6823438,17 Z"/>
          <path d="M12,11 C10.346,11 9,9.654 9,8 C9,6.346 10.346,5 12,5 C13.654,5 15,6.346 15,8 C15,9.654 13.654,11 12,11 Z M18.3594,19.6826 C18.6494,19.4426 18.9344,19.1956 19.1964,18.9236 C18.2954,15.7936 15.4204,13.4996 12.0004,13.4996 C8.5804,13.4996 5.7054,15.7936 4.8034,18.9236 C5.0654,19.1956 5.3504,19.4426 5.6404,19.6826 C6.2554,16.6936 8.8994,14.4996 12.0004,14.4996 C15.1004,14.4996 17.7454,16.6936 18.3594,19.6826 Z M12.0004,3.9996 C9.7944,3.9996 8.0004,5.7936 8.0004,7.9996 C8.0004,10.2056 9.7944,11.9996 12.0004,11.9996 C14.2064,11.9996 16.0004,10.2056 16.0004,7.9996 C16.0004,5.7936 14.2064,3.9996 12.0004,3.9996 Z M12.0004,0.9996 C18.0754,0.9996 23.0004,5.9246 23.0004,11.9996 C23.0004,18.0756 18.0754,22.9996 12.0004,22.9996 C5.9244,22.9996 1.0004,18.0756 1.0004,11.9996 C1.0004,5.9246 5.9244,0.9996 12.0004,0.9996 Z"/>
          <use fill="#A9B6BE" xlink:href="#2-e"/>
        </g>
        <g transform="translate(86 12)">
          <path fill="#495A67" d="M36.3692383,17 L35.4024414,17 L35.4024414,10.1196289 L32.9048828,10.1196289 L32.9048828,9.24951172 L38.8667969,9.24951172 L38.8667969,10.1196289 L36.3692383,10.1196289 L36.3692383,17 Z M41.5471484,11.9243164 C40.6233203,11.9243164 39.9787891,12.6010742 39.9089648,13.6269531 L43.0993945,13.6269531 C43.0779102,12.6010742 42.4656055,11.9243164 41.5471484,11.9243164 Z M43.0725391,15.5014648 L43.9963672,15.5014648 C43.7170703,16.4951172 42.8254687,17.1020508 41.5578906,17.1020508 C39.9519336,17.1020508 38.9475391,15.9418945 38.9475391,14.1103516 C38.9475391,12.2895508 39.9680469,11.1079102 41.5578906,11.1079102 C43.1208789,11.1079102 44.0715625,12.2197266 44.0715625,14.019043 L44.0715625,14.3735352 L39.9089648,14.3735352 L39.9089648,14.4165039 C39.9573047,15.5605469 40.5964648,16.2856445 41.579375,16.2856445 C42.325957,16.2856445 42.8308398,16.0117188 43.0725391,15.5014648 Z M47.4286719,14.8139648 L47.3427344,14.8139648 L45.9677344,17 L44.9203711,17 L46.9023047,14.1049805 L44.8988867,11.2099609 L45.9999609,11.2099609 L47.3749609,13.3637695 L47.4608984,13.3637695 L48.8197852,11.2099609 L49.8671484,11.2099609 L47.9013281,14.0673828 L49.8940039,17 L48.7983008,17 L47.4286719,14.8139648 Z M51.6129297,9.71142578 L52.5367578,9.71142578 L52.5367578,11.2099609 L53.8258203,11.2099609 L53.8258203,11.9833984 L52.5367578,11.9833984 L52.5367578,15.2597656 C52.5367578,15.9418945 52.7945703,16.2319336 53.3961328,16.2319336 C53.5626367,16.2319336 53.6539453,16.2265625 53.8258203,16.2104492 L53.8258203,16.9892578 C53.6432031,17.0214844 53.465957,17.0429688 53.2833398,17.0429688 C52.090957,17.0429688 51.6129297,16.6025391 51.6129297,15.4960938 L51.6129297,11.9833984 L50.6783594,11.9833984 L50.6783594,11.2099609 L51.6129297,11.2099609 L51.6129297,9.71142578 Z M58.5205078,17 L58.5205078,8.91113281 L59.4443359,8.91113281 L59.4443359,17 L58.5205078,17 Z M63.0914844,16.2910156 C64.042168,16.2910156 64.7457813,15.6679688 64.7457813,14.8408203 L64.7457813,14.309082 L63.1881641,14.4111328 C62.3073047,14.4702148 61.9205859,14.7763672 61.9205859,15.3564453 C61.9205859,15.9472656 62.4200977,16.2910156 63.0914844,16.2910156 Z M62.9196094,17.1020508 C61.7970508,17.1020508 60.9645313,16.4360352 60.9645313,15.3779297 C60.9645313,14.3413086 61.7272266,13.7451172 63.0753711,13.6645508 L64.7457813,13.5625 L64.7457813,13.0361328 C64.7457813,12.3217773 64.2999805,11.9296875 63.4352344,11.9296875 C62.7423633,11.9296875 62.2589648,12.1928711 62.1300586,12.6494141 L61.1954883,12.6494141 C61.3190234,11.7202148 62.2321094,11.1079102 63.4674609,11.1079102 C64.8800586,11.1079102 65.6696094,11.8330078 65.6696094,13.0361328 L65.6696094,17 L64.78875,17 L64.78875,16.1459961 L64.7028125,16.1459961 C64.3268359,16.7636719 63.6930469,17.1020508 62.9196094,17.1020508 Z M70.3265234,17.1020508 C69.5208594,17.1020508 68.8333594,16.7207031 68.468125,16.0761719 L68.3821875,16.0761719 L68.3821875,17 L67.5013281,17 L67.5013281,8.91113281 L68.4251563,8.91113281 L68.4251563,12.1230469 L68.5110938,12.1230469 C68.8279883,11.5 69.5316016,11.1079102 70.3265234,11.1079102 C71.7982031,11.1079102 72.7542578,12.2841797 72.7542578,14.1049805 C72.7542578,15.9150391 71.792832,17.1020508 70.3265234,17.1020508 Z M70.1116797,11.9404297 C69.0589453,11.9404297 68.4036719,12.7675781 68.4036719,14.1049805 C68.4036719,15.4423828 69.0589453,16.2695312 70.1116797,16.2695312 C71.1697852,16.2695312 71.7982031,15.4584961 71.7982031,14.1049805 C71.7982031,12.7514648 71.1697852,11.9404297 70.1116797,11.9404297 Z M76.5840234,11.9243164 C75.6601953,11.9243164 75.0156641,12.6010742 74.9458398,13.6269531 L78.1362695,13.6269531 C78.1147852,12.6010742 77.5024805,11.9243164 76.5840234,11.9243164 Z M78.1094141,15.5014648 L79.0332422,15.5014648 C78.7539453,16.4951172 77.8623438,17.1020508 76.5947656,17.1020508 C74.9888086,17.1020508 73.9844141,15.9418945 73.9844141,14.1103516 C73.9844141,12.2895508 75.0049219,11.1079102 76.5947656,11.1079102 C78.1577539,11.1079102 79.1084375,12.2197266 79.1084375,14.019043 L79.1084375,14.3735352 L74.9458398,14.3735352 L74.9458398,14.4165039 C74.9941797,15.5605469 75.6333398,16.2856445 76.61625,16.2856445 C77.362832,16.2856445 77.8677148,16.0117188 78.1094141,15.5014648 Z M80.6823438,17 L80.6823438,8.91113281 L81.6061719,8.91113281 L81.6061719,17 L80.6823438,17 Z"/>
          <path fill="#F3F6FA" d="M21.0084545,9.96610807 L21,20.0353752 C21,21.1403752 20.1,22.0403752 18.995,22.0403752 L16.005,22.0403752 C14.897,22.0403752 14,21.1423752 14,20.0353752 L14,17.0433752 C14,16.4913752 13.549,16.0403752 12.997,16.0403752 L11.003,16.0403752 C10.449,16.0403752 10,16.4893752 10,17.0433752 L10,20.0353752 C10,21.1423752 9.102,22.0403752 7.995,22.0403752 L5.005,22.0403752 C3.897,22.0403752 3,21.1423752 3,20.0353752 L3,9.95965965 L1.81613021,10.9257098 C1.6021803,11.1002952 1.28721023,11.0683839 1.11262487,10.854434 C0.938039506,10.6404841 0.969950772,10.325514 1.18390068,10.1509287 L10.3152218,2.70300627 C11.2455388,1.77142355 12.7544921,1.77142355 13.6471302,2.66892865 L22.8161302,10.1509287 C23.0300801,10.325514 23.0619914,10.6404841 22.887406,10.854434 C22.7128207,11.0683839 22.3978506,11.1002952 22.1839007,10.9257098 L21.0084545,9.96610807 Z"/>
          <use fill="#314351" xlink:href="#2-f"/>
        </g>
      </g>
      <g fill="#C41261">
        <g transform="translate(0 22)">
          <rect width="1014" height="1" x="5" y="2"/>
          <polygon points="1021.5 0 1024 5 1019 5" transform="rotate(90 1021.5 2.5)"/>
          <polygon points="2.5 0 5 5 0 5" transform="matrix(0 1 1 0 0 0)"/>
        </g>
        <path d="M348.428,0.34 L348.428,11.679 L347,11.679 L347,0.34 L348.428,0.34 Z M352.508,4.981 L352.508,10.081 C352.525,10.472 352.627,10.557 353.103,10.557 L353.698,10.557 L353.698,11.679 L352.491,11.679 C351.573,11.662 351.216,11.322 351.216,10.455 L351.216,4.981 L350.128,4.981 L350.128,3.842 L351.216,3.842 L351.216,1.377 L352.508,1.377 L352.508,3.842 L353.698,3.842 L353.698,4.981 L352.508,4.981 Z M362.81,8.177 L356.282,8.177 C356.35,8.84 356.469,9.18 356.792,9.605 C357.302,10.302 358.05,10.676 358.9,10.676 C359.869,10.676 360.787,10.149 361.246,9.333 L362.385,9.758 C361.739,11.067 360.396,11.866 358.9,11.866 C356.571,11.866 354.905,10.166 354.905,7.786 C354.905,5.372 356.554,3.655 358.849,3.655 C361.127,3.655 362.827,5.372 362.827,7.667 C362.827,7.769 362.827,7.99 362.81,8.177 Z M356.299,7.225 L361.45,7.225 C361.399,6.613 361.28,6.273 361.008,5.882 C360.515,5.219 359.716,4.811 358.849,4.811 C357.982,4.811 357.2,5.219 356.741,5.899 C356.503,6.273 356.401,6.596 356.299,7.225 Z M364.697,3.842 L365.989,3.842 L365.989,4.93 C366.584,4.029 367.247,3.655 368.216,3.655 C369.287,3.655 369.967,4.114 370.324,5.083 C370.902,4.08 371.633,3.655 372.806,3.655 C373.707,3.655 374.387,3.944 374.795,4.488 C375.169,4.981 375.271,5.423 375.271,6.664 L375.271,11.679 L373.979,11.679 L373.979,6.97 C373.979,6.018 373.945,5.797 373.758,5.474 C373.52,5.066 373.01,4.811 372.398,4.811 C371.259,4.811 370.63,5.576 370.63,6.97 L370.63,11.679 L369.338,11.679 L369.338,6.987 C369.338,6.222 369.27,5.831 369.083,5.491 C368.862,5.049 368.386,4.811 367.808,4.811 C366.669,4.811 365.989,5.627 365.989,6.987 L365.989,11.679 L364.697,11.679 L364.697,3.842 Z M382.921,3.842 L384.213,3.842 L384.213,5.27 C384.961,4.114 385.76,3.655 387.069,3.655 C389.245,3.655 390.758,5.321 390.758,7.701 C390.758,10.166 389.245,11.866 387.069,11.866 C386.457,11.866 385.896,11.73 385.352,11.458 C384.876,11.22 384.638,11.016 384.213,10.455 L384.213,15.351 L382.921,15.351 L382.921,3.842 Z M386.848,4.811 C385.284,4.811 384.213,6.052 384.213,7.888 C384.213,9.605 385.25,10.744 386.797,10.744 C388.344,10.744 389.381,9.537 389.381,7.752 C389.381,6.834 389.16,6.137 388.701,5.627 C388.242,5.117 387.545,4.811 386.848,4.811 Z M396.096,3.655 C398.408,3.655 400.057,5.372 400.057,7.786 C400.057,10.081 398.289,11.866 396.045,11.866 C393.716,11.866 392.084,10.166 392.084,7.752 C392.084,5.321 393.716,3.655 396.096,3.655 Z M396.096,4.845 C394.481,4.845 393.41,6.018 393.41,7.769 C393.41,9.503 394.481,10.676 396.079,10.676 C397.626,10.676 398.731,9.469 398.731,7.769 C398.731,6.018 397.677,4.845 396.096,4.845 Z M406.942,5.984 L405.65,5.984 L405.65,5.899 C405.65,5.168 405.055,4.709 404.154,4.709 C403.287,4.709 402.743,5.151 402.743,5.831 C402.743,6.511 403.083,6.766 404.494,7.157 C405.497,7.429 406.024,7.684 406.398,8.058 C406.789,8.449 407.027,9.01 407.027,9.588 C407.027,10.948 405.905,11.866 404.239,11.866 C402.454,11.866 401.451,11.033 401.315,9.452 L402.59,9.452 C402.675,10.336 403.253,10.812 404.239,10.812 C405.123,10.812 405.701,10.353 405.701,9.656 C405.701,8.976 405.259,8.636 403.916,8.296 C402.216,7.837 401.451,7.123 401.451,5.933 C401.451,4.573 402.556,3.655 404.205,3.655 C405.871,3.655 406.874,4.505 406.942,5.984 Z M410.308,3.842 L410.308,11.679 L409.016,11.679 L409.016,3.842 L410.308,3.842 Z M409.679,0.799 C410.138,0.799 410.495,1.173 410.495,1.649 C410.495,2.108 410.121,2.465 409.662,2.465 C409.203,2.465 408.846,2.108 408.846,1.632 C408.846,1.156 409.203,0.799 409.679,0.799 Z M414.286,4.981 L414.286,10.081 C414.303,10.472 414.405,10.557 414.881,10.557 L415.476,10.557 L415.476,11.679 L414.269,11.679 C413.351,11.662 412.994,11.322 412.994,10.455 L412.994,4.981 L411.906,4.981 L411.906,3.842 L412.994,3.842 L412.994,1.377 L414.286,1.377 L414.286,3.842 L415.476,3.842 L415.476,4.981 L414.286,4.981 Z M418.604,3.842 L418.604,11.679 L417.312,11.679 L417.312,3.842 L418.604,3.842 Z M417.975,0.799 C418.434,0.799 418.791,1.173 418.791,1.649 C418.791,2.108 418.417,2.465 417.958,2.465 C417.499,2.465 417.142,2.108 417.142,1.632 C417.142,1.156 417.499,0.799 417.975,0.799 Z M424.588,3.655 C426.9,3.655 428.549,5.372 428.549,7.786 C428.549,10.081 426.781,11.866 424.537,11.866 C422.208,11.866 420.576,10.166 420.576,7.752 C420.576,5.321 422.208,3.655 424.588,3.655 Z M424.588,4.845 C422.973,4.845 421.902,6.018 421.902,7.769 C421.902,9.503 422.973,10.676 424.571,10.676 C426.118,10.676 427.223,9.469 427.223,7.769 C427.223,6.018 426.169,4.845 424.588,4.845 Z M430.521,3.842 L431.813,3.842 L431.813,4.947 C432.493,4.029 433.173,3.655 434.142,3.655 C434.856,3.655 435.502,3.893 435.961,4.301 C436.454,4.777 436.624,5.321 436.624,6.392 L436.624,11.679 L435.332,11.679 L435.332,6.681 C435.332,5.984 435.247,5.61 435.043,5.338 C434.805,5.015 434.346,4.811 433.819,4.811 C433.241,4.811 432.714,5.032 432.323,5.474 C431.949,5.882 431.813,6.256 431.813,6.902 L431.813,11.679 L430.521,11.679 L430.521,3.842 Z M440.466,3.842 L440.466,11.679 L439.174,11.679 L439.174,3.842 L440.466,3.842 Z M439.837,0.799 C440.296,0.799 440.653,1.173 440.653,1.649 C440.653,2.108 440.279,2.465 439.82,2.465 C439.361,2.465 439.004,2.108 439.004,1.632 C439.004,1.156 439.361,0.799 439.837,0.799 Z M443.067,3.842 L444.359,3.842 L444.359,4.947 C445.039,4.029 445.719,3.655 446.688,3.655 C447.402,3.655 448.048,3.893 448.507,4.301 C449,4.777 449.17,5.321 449.17,6.392 L449.17,11.679 L447.878,11.679 L447.878,6.681 C447.878,5.984 447.793,5.61 447.589,5.338 C447.351,5.015 446.892,4.811 446.365,4.811 C445.787,4.811 445.26,5.032 444.869,5.474 C444.495,5.882 444.359,6.256 444.359,6.902 L444.359,11.679 L443.067,11.679 L443.067,3.842 Z M457.517,5.185 L457.517,3.842 L458.809,3.842 L458.809,11.73 C458.809,13.039 458.486,13.923 457.772,14.603 C457.075,15.283 456.072,15.64 454.882,15.64 C453.42,15.64 452.264,15.164 451.414,14.212 L452.298,13.328 C452.655,13.702 452.825,13.855 453.046,14.008 C453.488,14.28 454.219,14.467 454.882,14.467 C455.698,14.467 456.48,14.178 456.922,13.702 C457.313,13.277 457.517,12.648 457.517,11.832 L457.517,10.183 C456.752,11.339 455.851,11.866 454.627,11.866 C452.553,11.866 451.006,10.115 451.006,7.786 C451.006,6.528 451.465,5.321 452.247,4.573 C452.876,3.961 453.726,3.655 454.729,3.655 C455.919,3.655 456.718,4.097 457.517,5.185 Z M454.967,4.845 C453.437,4.845 452.366,6.035 452.366,7.735 C452.366,9.418 453.454,10.676 454.933,10.676 C455.681,10.676 456.412,10.319 456.922,9.724 C457.262,9.333 457.483,8.568 457.483,7.786 C457.483,6.766 457.33,6.222 456.871,5.712 C456.395,5.185 455.664,4.845 454.967,4.845 Z M462.073,10.047 C462.583,10.047 462.957,10.421 462.957,10.948 C462.957,11.441 462.566,11.815 462.073,11.815 C461.563,11.815 461.189,11.441 461.189,10.931 C461.189,10.421 461.563,10.047 462.073,10.047 Z M462.073,5.151 C462.583,5.151 462.957,5.525 462.957,6.052 C462.957,6.545 462.566,6.919 462.073,6.919 C461.563,6.919 461.189,6.545 461.189,6.035 C461.189,5.525 461.563,5.151 462.073,5.151 Z M471.984,1.564 L471.984,5.355 L476.404,5.355 L476.404,6.579 L471.984,6.579 L471.984,11.679 L470.556,11.679 L470.556,0.34 L476.404,0.34 L476.404,1.564 L471.984,1.564 Z M479.481,3.842 L479.481,11.679 L478.189,11.679 L478.189,3.842 L479.481,3.842 Z M478.852,0.799 C479.311,0.799 479.668,1.173 479.668,1.649 C479.668,2.108 479.294,2.465 478.835,2.465 C478.376,2.465 478.019,2.108 478.019,1.632 C478.019,1.156 478.376,0.799 478.852,0.799 Z M483.374,11.679 L482.082,11.679 L482.082,0.34 L483.374,0.34 L483.374,11.679 Z M487.267,11.679 L485.975,11.679 L485.975,0.34 L487.267,0.34 L487.267,11.679 Z M498.181,14.841 L497.331,15.657 C495.325,13.192 494.407,10.795 494.407,7.939 C494.407,5.015 495.478,2.125 497.365,0 L498.181,0.85 C496.464,2.975 495.614,5.338 495.614,7.888 C495.614,10.37 496.532,12.852 498.181,14.841 Z M506.001,5.134 L506.001,3.842 L507.293,3.842 L507.293,11.679 L506.001,11.679 L506.001,10.166 C505.219,11.339 504.335,11.866 503.145,11.866 C500.986,11.866 499.456,10.166 499.456,7.786 C499.456,5.389 501.02,3.655 503.179,3.655 C504.369,3.655 505.236,4.114 506.001,5.134 Z M503.366,4.811 C502.516,4.811 501.921,5.1 501.462,5.746 C501.054,6.307 500.816,7.055 500.816,7.82 C500.816,9.486 501.904,10.744 503.332,10.744 C504.811,10.744 506.018,9.367 506.018,7.684 C506.018,5.984 504.93,4.811 503.366,4.811 Z M514.807,5.984 L513.515,5.984 L513.515,5.899 C513.515,5.168 512.92,4.709 512.019,4.709 C511.152,4.709 510.608,5.151 510.608,5.831 C510.608,6.511 510.948,6.766 512.359,7.157 C513.362,7.429 513.889,7.684 514.263,8.058 C514.654,8.449 514.892,9.01 514.892,9.588 C514.892,10.948 513.77,11.866 512.104,11.866 C510.319,11.866 509.316,11.033 509.18,9.452 L510.455,9.452 C510.54,10.336 511.118,10.812 512.104,10.812 C512.988,10.812 513.566,10.353 513.566,9.656 C513.566,8.976 513.124,8.636 511.781,8.296 C510.081,7.837 509.316,7.123 509.316,5.933 C509.316,4.573 510.421,3.655 512.07,3.655 C513.736,3.655 514.739,4.505 514.807,5.984 Z M525.364,3.655 C527.676,3.655 529.325,5.372 529.325,7.786 C529.325,10.081 527.557,11.866 525.313,11.866 C522.984,11.866 521.352,10.166 521.352,7.752 C521.352,5.321 522.984,3.655 525.364,3.655 Z M525.364,4.845 C523.749,4.845 522.678,6.018 522.678,7.769 C522.678,9.503 523.749,10.676 525.347,10.676 C526.894,10.676 527.999,9.469 527.999,7.769 C527.999,6.018 526.945,4.845 525.364,4.845 Z M531.297,3.842 L532.589,3.842 L532.589,5.27 C533.337,4.114 534.136,3.655 535.445,3.655 C537.621,3.655 539.134,5.321 539.134,7.701 C539.134,10.166 537.621,11.866 535.445,11.866 C534.833,11.866 534.272,11.73 533.728,11.458 C533.252,11.22 533.014,11.016 532.589,10.455 L532.589,15.351 L531.297,15.351 L531.297,3.842 Z M535.224,4.811 C533.66,4.811 532.589,6.052 532.589,7.888 C532.589,9.605 533.626,10.744 535.173,10.744 C536.72,10.744 537.757,9.537 537.757,7.752 C537.757,6.834 537.536,6.137 537.077,5.627 C536.618,5.117 535.921,4.811 535.224,4.811 Z M541.089,3.842 L542.381,3.842 L542.381,5.27 C543.129,4.114 543.928,3.655 545.237,3.655 C547.413,3.655 548.926,5.321 548.926,7.701 C548.926,10.166 547.413,11.866 545.237,11.866 C544.625,11.866 544.064,11.73 543.52,11.458 C543.044,11.22 542.806,11.016 542.381,10.455 L542.381,15.351 L541.089,15.351 L541.089,3.842 Z M545.016,4.811 C543.452,4.811 542.381,6.052 542.381,7.888 C542.381,9.605 543.418,10.744 544.965,10.744 C546.512,10.744 547.549,9.537 547.549,7.752 C547.549,6.834 547.328,6.137 546.869,5.627 C546.41,5.117 545.713,4.811 545.016,4.811 Z M554.264,3.655 C556.576,3.655 558.225,5.372 558.225,7.786 C558.225,10.081 556.457,11.866 554.213,11.866 C551.884,11.866 550.252,10.166 550.252,7.752 C550.252,5.321 551.884,3.655 554.264,3.655 Z M554.264,4.845 C552.649,4.845 551.578,6.018 551.578,7.769 C551.578,9.503 552.649,10.676 554.247,10.676 C555.794,10.676 556.899,9.469 556.899,7.769 C556.899,6.018 555.845,4.845 554.264,4.845 Z M565.11,5.984 L563.818,5.984 L563.818,5.899 C563.818,5.168 563.223,4.709 562.322,4.709 C561.455,4.709 560.911,5.151 560.911,5.831 C560.911,6.511 561.251,6.766 562.662,7.157 C563.665,7.429 564.192,7.684 564.566,8.058 C564.957,8.449 565.195,9.01 565.195,9.588 C565.195,10.948 564.073,11.866 562.407,11.866 C560.622,11.866 559.619,11.033 559.483,9.452 L560.758,9.452 C560.843,10.336 561.421,10.812 562.407,10.812 C563.291,10.812 563.869,10.353 563.869,9.656 C563.869,8.976 563.427,8.636 562.084,8.296 C560.384,7.837 559.619,7.123 559.619,5.933 C559.619,4.573 560.724,3.655 562.373,3.655 C564.039,3.655 565.042,4.505 565.11,5.984 Z M574.46,8.177 L567.932,8.177 C568,8.84 568.119,9.18 568.442,9.605 C568.952,10.302 569.7,10.676 570.55,10.676 C571.519,10.676 572.437,10.149 572.896,9.333 L574.035,9.758 C573.389,11.067 572.046,11.866 570.55,11.866 C568.221,11.866 566.555,10.166 566.555,7.786 C566.555,5.372 568.204,3.655 570.499,3.655 C572.777,3.655 574.477,5.372 574.477,7.667 C574.477,7.769 574.477,7.99 574.46,8.177 Z M567.949,7.225 L573.1,7.225 C573.049,6.613 572.93,6.273 572.658,5.882 C572.165,5.219 571.366,4.811 570.499,4.811 C569.632,4.811 568.85,5.219 568.391,5.899 C568.153,6.273 568.051,6.596 567.949,7.225 Z M582.212,5.032 L582.212,0.34 L583.504,0.34 L583.504,11.679 L582.212,11.679 L582.212,10.336 C581.43,11.407 580.597,11.866 579.407,11.866 C577.248,11.866 575.718,10.183 575.718,7.803 C575.718,5.423 577.282,3.655 579.407,3.655 C580.563,3.655 581.447,4.08 582.212,5.032 Z M579.679,4.811 C578.132,4.811 577.078,6.035 577.078,7.82 C577.078,9.537 578.115,10.744 579.594,10.744 C581.107,10.744 582.212,9.486 582.212,7.786 C582.212,6.018 581.175,4.811 579.679,4.811 Z M592.582,4.981 L592.582,10.081 C592.599,10.472 592.701,10.557 593.177,10.557 L593.772,10.557 L593.772,11.679 L592.565,11.679 C591.647,11.662 591.29,11.322 591.29,10.455 L591.29,4.981 L590.202,4.981 L590.202,3.842 L591.29,3.842 L591.29,1.377 L592.582,1.377 L592.582,3.842 L593.772,3.842 L593.772,4.981 L592.582,4.981 Z M598.991,3.655 C601.303,3.655 602.952,5.372 602.952,7.786 C602.952,10.081 601.184,11.866 598.94,11.866 C596.611,11.866 594.979,10.166 594.979,7.752 C594.979,5.321 596.611,3.655 598.991,3.655 Z M598.991,4.845 C597.376,4.845 596.305,6.018 596.305,7.769 C596.305,9.503 597.376,10.676 598.974,10.676 C600.521,10.676 601.626,9.469 601.626,7.769 C601.626,6.018 600.572,4.845 598.991,4.845 Z M615.328,9.826 L616.127,10.71 C615.243,11.509 614.376,11.866 613.237,11.866 C610.993,11.866 609.395,10.166 609.395,7.786 C609.395,5.355 611.01,3.655 613.305,3.655 C614.427,3.655 615.345,4.029 616.161,4.828 L615.328,5.661 C614.733,5.117 614.07,4.845 613.339,4.845 C611.792,4.845 610.721,6.035 610.721,7.735 C610.721,9.469 611.792,10.676 613.322,10.676 C614.087,10.676 614.699,10.421 615.328,9.826 Z M625.069,8.177 L618.541,8.177 C618.609,8.84 618.728,9.18 619.051,9.605 C619.561,10.302 620.309,10.676 621.159,10.676 C622.128,10.676 623.046,10.149 623.505,9.333 L624.644,9.758 C623.998,11.067 622.655,11.866 621.159,11.866 C618.83,11.866 617.164,10.166 617.164,7.786 C617.164,5.372 618.813,3.655 621.108,3.655 C623.386,3.655 625.086,5.372 625.086,7.667 C625.086,7.769 625.086,7.99 625.069,8.177 Z M618.558,7.225 L623.709,7.225 C623.658,6.613 623.539,6.273 623.267,5.882 C622.774,5.219 621.975,4.811 621.108,4.811 C620.241,4.811 619.459,5.219 619,5.899 C618.762,6.273 618.66,6.596 618.558,7.225 Z M626.956,3.842 L628.248,3.842 L628.248,4.947 C628.928,4.029 629.608,3.655 630.577,3.655 C631.291,3.655 631.937,3.893 632.396,4.301 C632.889,4.777 633.059,5.321 633.059,6.392 L633.059,11.679 L631.767,11.679 L631.767,6.681 C631.767,5.984 631.682,5.61 631.478,5.338 C631.24,5.015 630.781,4.811 630.254,4.811 C629.676,4.811 629.149,5.032 628.758,5.474 C628.384,5.882 628.248,6.256 628.248,6.902 L628.248,11.679 L626.956,11.679 L626.956,3.842 Z M636.986,4.981 L636.986,10.081 C637.003,10.472 637.105,10.557 637.581,10.557 L638.176,10.557 L638.176,11.679 L636.969,11.679 C636.051,11.662 635.694,11.322 635.694,10.455 L635.694,4.981 L634.606,4.981 L634.606,3.842 L635.694,3.842 L635.694,1.377 L636.986,1.377 L636.986,3.842 L638.176,3.842 L638.176,4.981 L636.986,4.981 Z M647.288,8.177 L640.76,8.177 C640.828,8.84 640.947,9.18 641.27,9.605 C641.78,10.302 642.528,10.676 643.378,10.676 C644.347,10.676 645.265,10.149 645.724,9.333 L646.863,9.758 C646.217,11.067 644.874,11.866 643.378,11.866 C641.049,11.866 639.383,10.166 639.383,7.786 C639.383,5.372 641.032,3.655 643.327,3.655 C645.605,3.655 647.305,5.372 647.305,7.667 C647.305,7.769 647.305,7.99 647.288,8.177 Z M640.777,7.225 L645.928,7.225 C645.877,6.613 645.758,6.273 645.486,5.882 C644.993,5.219 644.194,4.811 643.327,4.811 C642.46,4.811 641.678,5.219 641.219,5.899 C640.981,6.273 640.879,6.596 640.777,7.225 Z M649.175,3.842 L650.467,3.842 L650.467,5.168 C650.705,4.607 650.875,4.369 651.181,4.131 C651.572,3.825 652.116,3.655 652.677,3.655 L652.983,3.655 L652.983,4.964 C652.847,4.947 652.711,4.947 652.626,4.947 C651.929,4.947 651.317,5.27 650.926,5.848 C650.586,6.341 650.467,6.8 650.467,7.701 L650.467,11.679 L649.175,11.679 L649.175,3.842 Z M661.857,8.177 L655.329,8.177 C655.397,8.84 655.516,9.18 655.839,9.605 C656.349,10.302 657.097,10.676 657.947,10.676 C658.916,10.676 659.834,10.149 660.293,9.333 L661.432,9.758 C660.786,11.067 659.443,11.866 657.947,11.866 C655.618,11.866 653.952,10.166 653.952,7.786 C653.952,5.372 655.601,3.655 657.896,3.655 C660.174,3.655 661.874,5.372 661.874,7.667 C661.874,7.769 661.874,7.99 661.857,8.177 Z M655.346,7.225 L660.497,7.225 C660.446,6.613 660.327,6.273 660.055,5.882 C659.562,5.219 658.763,4.811 657.896,4.811 C657.029,4.811 656.247,5.219 655.788,5.899 C655.55,6.273 655.448,6.596 655.346,7.225 Z M669.609,5.032 L669.609,0.34 L670.901,0.34 L670.901,11.679 L669.609,11.679 L669.609,10.336 C668.827,11.407 667.994,11.866 666.804,11.866 C664.645,11.866 663.115,10.183 663.115,7.803 C663.115,5.423 664.679,3.655 666.804,3.655 C667.96,3.655 668.844,4.08 669.609,5.032 Z M667.076,4.811 C665.529,4.811 664.475,6.035 664.475,7.82 C664.475,9.537 665.512,10.744 666.991,10.744 C668.504,10.744 669.609,9.486 669.609,7.786 C669.609,6.018 668.572,4.811 667.076,4.811 Z M672.805,0.816 L673.655,0 C675.678,2.482 676.579,4.862 676.579,7.718 C676.579,10.659 675.508,13.515 673.621,15.657 L672.805,14.807 C674.522,12.682 675.372,10.319 675.372,7.769 C675.372,5.27 674.471,2.822 672.805,0.816 Z"/>
      </g>
      <g transform="translate(434 107)">
        <rect width="24" height="24" fill="#FFF" rx="2"/>
        <path fill="#C41261" d="M30.904,9.455 L30.904,16 L29.98,16 L29.98,9.455 L28.11,9.455 L28.11,8.663 L32.763,8.663 L32.763,9.455 L30.904,9.455 Z M37.537,11.765 L37.537,10.929 L38.373,10.929 L38.373,16 L37.537,16 L37.537,15.021 C37.031,15.78 36.459,16.121 35.689,16.121 C34.292,16.121 33.302,15.021 33.302,13.481 C33.302,11.93 34.314,10.808 35.711,10.808 C36.481,10.808 37.042,11.105 37.537,11.765 Z M35.832,11.556 C35.282,11.556 34.897,11.743 34.6,12.161 C34.336,12.524 34.182,13.008 34.182,13.503 C34.182,14.581 34.886,15.395 35.81,15.395 C36.767,15.395 37.548,14.504 37.548,13.415 C37.548,12.315 36.844,11.556 35.832,11.556 Z M40.892,15.131 L40.892,16 L40.056,16 L40.056,8.663 L40.892,8.663 L40.892,11.798 C41.398,11.105 41.937,10.808 42.674,10.808 C44.093,10.808 45.083,11.908 45.083,13.481 C45.083,15.032 44.104,16.121 42.718,16.121 C41.937,16.121 41.387,15.824 40.892,15.131 Z M42.564,11.556 C41.596,11.556 40.881,12.359 40.881,13.47 C40.881,14.625 41.541,15.395 42.531,15.395 C43.532,15.395 44.203,14.636 44.203,13.503 C44.203,12.37 43.521,11.556 42.564,11.556 Z M49.736,8.663 L51.804,8.663 C53.3,8.663 54.147,9.367 54.147,10.61 C54.147,11.083 54.004,11.501 53.729,11.809 C53.553,12.018 53.377,12.128 52.981,12.282 C53.388,12.37 53.586,12.447 53.817,12.623 C54.213,12.942 54.422,13.437 54.422,14.031 C54.422,14.713 54.125,15.307 53.63,15.626 C53.201,15.901 52.728,16 51.804,16 L49.736,16 L49.736,8.663 Z M50.66,9.422 L50.66,11.963 L51.595,11.952 C52.178,11.952 52.53,11.875 52.794,11.666 C53.08,11.435 53.245,11.061 53.245,10.654 C53.245,10.181 53.014,9.763 52.662,9.598 C52.398,9.466 52.09,9.422 51.419,9.422 L50.66,9.422 Z M50.66,12.711 L50.66,15.252 L51.584,15.252 C52.354,15.252 52.651,15.197 52.97,15.01 C53.322,14.812 53.498,14.46 53.498,13.976 C53.498,13.096 52.981,12.711 51.815,12.711 L50.66,12.711 Z M59.548,11.765 L59.548,10.929 L60.384,10.929 L60.384,16 L59.548,16 L59.548,15.021 C59.042,15.78 58.47,16.121 57.7,16.121 C56.303,16.121 55.313,15.021 55.313,13.481 C55.313,11.93 56.325,10.808 57.722,10.808 C58.492,10.808 59.053,11.105 59.548,11.765 Z M57.843,11.556 C57.293,11.556 56.908,11.743 56.611,12.161 C56.347,12.524 56.193,13.008 56.193,13.503 C56.193,14.581 56.897,15.395 57.821,15.395 C58.778,15.395 59.559,14.504 59.559,13.415 C59.559,12.315 58.855,11.556 57.843,11.556 Z M62.067,10.929 L62.903,10.929 L62.903,11.787 C63.057,11.424 63.167,11.27 63.365,11.116 C63.618,10.918 63.97,10.808 64.333,10.808 L64.531,10.808 L64.531,11.655 C64.443,11.644 64.355,11.644 64.3,11.644 C63.849,11.644 63.453,11.853 63.2,12.227 C62.98,12.546 62.903,12.843 62.903,13.426 L62.903,16 L62.067,16 L62.067,10.929 Z M68.942,8.663 L71.01,8.663 C72.506,8.663 73.353,9.367 73.353,10.61 C73.353,11.083 73.21,11.501 72.935,11.809 C72.759,12.018 72.583,12.128 72.187,12.282 C72.594,12.37 72.792,12.447 73.023,12.623 C73.419,12.942 73.628,13.437 73.628,14.031 C73.628,14.713 73.331,15.307 72.836,15.626 C72.407,15.901 71.934,16 71.01,16 L68.942,16 L68.942,8.663 Z M69.866,9.422 L69.866,11.963 L70.801,11.952 C71.384,11.952 71.736,11.875 72,11.666 C72.286,11.435 72.451,11.061 72.451,10.654 C72.451,10.181 72.22,9.763 71.868,9.598 C71.604,9.466 71.296,9.422 70.625,9.422 L69.866,9.422 Z M69.866,12.711 L69.866,15.252 L70.79,15.252 C71.56,15.252 71.857,15.197 72.176,15.01 C72.528,14.812 72.704,14.46 72.704,13.976 C72.704,13.096 72.187,12.711 71.021,12.711 L69.866,12.711 Z M78.754,11.765 L78.754,10.929 L79.59,10.929 L79.59,16 L78.754,16 L78.754,15.021 C78.248,15.78 77.676,16.121 76.906,16.121 C75.509,16.121 74.519,15.021 74.519,13.481 C74.519,11.93 75.531,10.808 76.928,10.808 C77.698,10.808 78.259,11.105 78.754,11.765 Z M77.049,11.556 C76.499,11.556 76.114,11.743 75.817,12.161 C75.553,12.524 75.399,13.008 75.399,13.503 C75.399,14.581 76.103,15.395 77.027,15.395 C77.984,15.395 78.765,14.504 78.765,13.415 C78.765,12.315 78.061,11.556 77.049,11.556 Z M84.705,14.801 L85.222,15.373 C84.65,15.89 84.089,16.121 83.352,16.121 C81.9,16.121 80.866,15.021 80.866,13.481 C80.866,11.908 81.911,10.808 83.396,10.808 C84.122,10.808 84.716,11.05 85.244,11.567 L84.705,12.106 C84.32,11.754 83.891,11.578 83.418,11.578 C82.417,11.578 81.724,12.348 81.724,13.448 C81.724,14.57 82.417,15.351 83.407,15.351 C83.902,15.351 84.298,15.186 84.705,14.801 Z M87.136,13.734 L87.136,16 L86.3,16 L86.3,8.663 L87.136,8.663 L87.136,13.151 L89.16,10.929 L90.216,10.929 L87.95,13.404 L90.205,16 L89.16,16 L87.136,13.734 Z M94.935,11.798 L94.935,10.929 L95.771,10.929 L95.771,16.033 C95.771,16.88 95.562,17.452 95.1,17.892 C94.649,18.332 94,18.563 93.23,18.563 C92.284,18.563 91.536,18.255 90.986,17.639 L91.558,17.067 C91.789,17.309 91.899,17.408 92.042,17.507 C92.328,17.683 92.801,17.804 93.23,17.804 C93.758,17.804 94.264,17.617 94.55,17.309 C94.803,17.034 94.935,16.627 94.935,16.099 L94.935,15.032 C94.44,15.78 93.857,16.121 93.065,16.121 C91.723,16.121 90.722,14.988 90.722,13.481 C90.722,12.667 91.019,11.886 91.525,11.402 C91.932,11.006 92.482,10.808 93.131,10.808 C93.901,10.808 94.418,11.094 94.935,11.798 Z M93.285,11.578 C92.295,11.578 91.602,12.348 91.602,13.448 C91.602,14.537 92.306,15.351 93.263,15.351 C93.747,15.351 94.22,15.12 94.55,14.735 C94.77,14.482 94.913,13.987 94.913,13.481 C94.913,12.821 94.814,12.469 94.517,12.139 C94.209,11.798 93.736,11.578 93.285,11.578 Z M97.454,10.929 L98.29,10.929 L98.29,11.787 C98.444,11.424 98.554,11.27 98.752,11.116 C99.005,10.918 99.357,10.808 99.72,10.808 L99.918,10.808 L99.918,11.655 C99.83,11.644 99.742,11.644 99.687,11.644 C99.236,11.644 98.84,11.853 98.587,12.227 C98.367,12.546 98.29,12.843 98.29,13.426 L98.29,16 L97.454,16 L97.454,10.929 Z M103.141,10.808 C104.637,10.808 105.704,11.919 105.704,13.481 C105.704,14.966 104.56,16.121 103.108,16.121 C101.601,16.121 100.545,15.021 100.545,13.459 C100.545,11.886 101.601,10.808 103.141,10.808 Z M103.141,11.578 C102.096,11.578 101.403,12.337 101.403,13.47 C101.403,14.592 102.096,15.351 103.13,15.351 C104.131,15.351 104.846,14.57 104.846,13.47 C104.846,12.337 104.164,11.578 103.141,11.578 Z M109.928,10.929 L110.775,10.929 L110.775,14.174 C110.775,14.867 110.643,15.252 110.269,15.593 C109.895,15.934 109.378,16.121 108.806,16.121 C108.234,16.121 107.706,15.923 107.343,15.582 C107.002,15.252 106.837,14.79 106.837,14.174 L106.837,10.929 L107.673,10.929 L107.673,14.152 C107.673,14.867 108.135,15.373 108.806,15.373 C109.158,15.373 109.499,15.23 109.708,14.988 C109.873,14.79 109.928,14.581 109.928,14.174 L109.928,10.929 Z M112.315,10.929 L113.151,10.929 L113.151,11.644 C113.591,11.05 114.031,10.808 114.658,10.808 C115.12,10.808 115.538,10.962 115.835,11.226 C116.154,11.534 116.264,11.886 116.264,12.579 L116.264,16 L115.428,16 L115.428,12.766 C115.428,12.315 115.373,12.073 115.241,11.897 C115.087,11.688 114.79,11.556 114.449,11.556 C114.075,11.556 113.734,11.699 113.481,11.985 C113.239,12.249 113.151,12.491 113.151,12.909 L113.151,16 L112.315,16 L112.315,10.929 Z M121.709,11.699 L121.709,8.663 L122.545,8.663 L122.545,16 L121.709,16 L121.709,15.131 C121.203,15.824 120.664,16.121 119.894,16.121 C118.497,16.121 117.507,15.032 117.507,13.492 C117.507,11.952 118.519,10.808 119.894,10.808 C120.642,10.808 121.214,11.083 121.709,11.699 Z M120.07,11.556 C119.069,11.556 118.387,12.348 118.387,13.503 C118.387,14.614 119.058,15.395 120.015,15.395 C120.994,15.395 121.709,14.581 121.709,13.481 C121.709,12.337 121.038,11.556 120.07,11.556 Z M124.657,14.944 C124.987,14.944 125.229,15.186 125.229,15.527 C125.229,15.846 124.976,16.088 124.657,16.088 C124.327,16.088 124.085,15.846 124.085,15.516 C124.085,15.186 124.327,14.944 124.657,14.944 Z M124.657,11.776 C124.987,11.776 125.229,12.018 125.229,12.359 C125.229,12.678 124.976,12.92 124.657,12.92 C124.327,12.92 124.085,12.678 124.085,12.348 C124.085,12.018 124.327,11.776 124.657,11.776 Z M136.009,14.306 L137.692,8.663 L138.649,8.663 L136.405,16 L135.591,16 L133.974,10.236 L132.346,16 L131.532,16 L129.288,8.663 L130.267,8.663 L131.939,14.284 L133.567,8.663 L134.436,8.663 L136.009,14.306 Z M140.376,8.663 L140.376,11.633 C140.838,11.061 141.3,10.808 141.905,10.808 C142.345,10.808 142.807,10.984 143.082,11.27 C143.357,11.545 143.478,11.941 143.478,12.59 L143.478,16 L142.642,16 L142.642,12.634 C142.642,11.941 142.301,11.556 141.696,11.556 C141.311,11.556 140.97,11.71 140.706,12.007 C140.453,12.293 140.376,12.546 140.376,13.03 L140.376,16 L139.54,16 L139.54,8.663 L140.376,8.663 Z M145.964,10.929 L145.964,16 L145.128,16 L145.128,10.929 L145.964,10.929 Z M145.557,8.96 C145.854,8.96 146.085,9.202 146.085,9.51 C146.085,9.807 145.843,10.038 145.546,10.038 C145.249,10.038 145.018,9.807 145.018,9.499 C145.018,9.191 145.249,8.96 145.557,8.96 Z M148.538,11.666 L148.538,14.966 C148.549,15.219 148.615,15.274 148.923,15.274 L149.308,15.274 L149.308,16 L148.527,16 C147.933,15.989 147.702,15.769 147.702,15.208 L147.702,11.666 L146.998,11.666 L146.998,10.929 L147.702,10.929 L147.702,9.334 L148.538,9.334 L148.538,10.929 L149.308,10.929 L149.308,11.666 L148.538,11.666 Z M155.204,13.734 L150.98,13.734 C151.024,14.163 151.101,14.383 151.31,14.658 C151.64,15.109 152.124,15.351 152.674,15.351 C153.301,15.351 153.895,15.01 154.192,14.482 L154.929,14.757 C154.511,15.604 153.642,16.121 152.674,16.121 C151.167,16.121 150.089,15.021 150.089,13.481 C150.089,11.919 151.156,10.808 152.641,10.808 C154.115,10.808 155.215,11.919 155.215,13.404 C155.215,13.47 155.215,13.613 155.204,13.734 Z M150.991,13.118 L154.324,13.118 C154.291,12.722 154.214,12.502 154.038,12.249 C153.719,11.82 153.202,11.556 152.641,11.556 C152.08,11.556 151.574,11.82 151.277,12.26 C151.123,12.502 151.057,12.711 150.991,13.118 Z"/>
      </g>
    </g>
  </g>
</svg>
