<svg xmlns="http://www.w3.org/2000/svg" xmlns:xlink="http://www.w3.org/1999/xlink" width="180" height="180" viewBox="0 0 180 180">
  <defs>
    <path id="3-a" d="M63.0000463,29.8776561 L63.0000463,60.0999577 C63.0000463,63.4213848 60.3064735,66.1149577 56.9850463,66.1149577 L48.0150463,66.1149577 C44.6936192,66.1149577 42.0000463,63.4213848 42.0000463,60.0999577 L42.0000463,51.1239577 C42.0000463,49.4623848 40.6526192,48.1149577 38.9910463,48.1149577 L33.0090463,48.1149577 C31.3474735,48.1149577 30.0000463,49.4623848 30.0000463,51.1239577 L30.0000463,60.0999577 C30.0000463,63.4213848 27.3064735,66.1149577 23.9850463,66.1149577 L15.0150463,66.1149577 C11.6936192,66.1149577 9.00004633,63.4213848 9.00004633,60.0999577 L9.00004633,29.8789412 L5.44839062,32.7771294 C4.8065409,33.3008855 3.8616307,33.2051517 3.33787461,32.563302 C2.81411852,31.9214523 2.90985232,30.9765421 3.55170203,30.452786 L30.9456654,8.1090188 C33.7366163,5.31427064 38.2634764,5.31427064 40.9413906,8.00678596 L68.4483906,30.452786 C69.0902403,30.9765421 69.1859741,31.9214523 68.662218,32.563302 C68.138462,33.2051517 67.1935518,33.3008855 66.551702,32.7771294 L63.0000463,29.8776561 Z M60.0000463,27.4285392 L38.9316654,10.2288966 C37.3126163,8.60764472 34.6874764,8.60764472 32.9553906,10.3311294 L12.0000463,27.4309097 L12.0000463,60.0999577 C12.0000463,61.7645306 13.3504735,63.1149577 15.0150463,63.1149577 L23.9850463,63.1149577 C25.6496192,63.1149577 27.0000463,61.7645306 27.0000463,60.0999577 L27.0000463,51.1239577 C27.0000463,47.8055306 29.6906192,45.1149577 33.0090463,45.1149577 L38.9910463,45.1149577 C42.3094735,45.1149577 45.0000463,47.8055306 45.0000463,51.1239577 L45.0000463,60.0999577 C45.0000463,61.7645306 46.3504735,63.1149577 48.0150463,63.1149577 L56.9850463,63.1149577 C58.6496192,63.1149577 60.0000463,61.7645306 60.0000463,60.0999577 L60.0000463,27.4285392 Z"/>
  </defs>
  <g fill="none" fill-rule="evenodd">
    <rect width="180" height="180" fill="#FFF" fill-opacity=".01" fill-rule="nonzero"/>
    <g transform="translate(54 54)">
      <path fill="#E1F1F6" d="M63.0253634,29.8983242 L63,60.1061255 C63,63.4211255 60.3,66.1211255 56.985,66.1211255 L48.015,66.1211255 C44.691,66.1211255 42,63.4271255 42,60.1061255 L42,51.1301255 C42,49.4741255 40.647,48.1211255 38.991,48.1211255 L33.009,48.1211255 C31.347,48.1211255 30,49.4681255 30,51.1301255 L30,60.1061255 C30,63.4271255 27.306,66.1211255 23.985,66.1211255 L15.015,66.1211255 C11.691,66.1211255 9,63.4271255 9,60.1061255 L9,29.878979 L5.44839062,32.7771294 C4.8065409,33.3008855 3.8616307,33.2051517 3.33787461,32.563302 C2.81411852,31.9214523 2.90985232,30.9765421 3.55170203,30.452786 L30.9456654,8.1090188 C33.7366163,5.31427064 38.2634764,5.31427064 40.9413906,8.00678596 L68.4483906,30.452786 C69.0902403,30.9765421 69.1859741,31.9214523 68.662218,32.563302 C68.138462,33.2051517 67.1935518,33.3008855 66.551702,32.7771294 L63.0253634,29.8983242 Z"/>
      <use fill="#004D8A" xlink:href="#3-a"/>
    </g>
  </g>
</svg>
