<svg xmlns="http://www.w3.org/2000/svg" xmlns:xlink="http://www.w3.org/1999/xlink" width="180" height="180" viewBox="0 0 180 180">
  <defs>
    <path id="4-a" d="M21.0000154,9.95921869 L21.0000154,20.0333192 C21.0000154,21.1404616 20.1021578,22.0383192 18.9950154,22.0383192 L16.0050154,22.0383192 C14.8978731,22.0383192 14.0000154,21.1404616 14.0000154,20.0333192 L14.0000154,17.0413192 C14.0000154,16.4874616 13.5508731,16.0383192 12.9970154,16.0383192 L11.0030154,16.0383192 C10.4491578,16.0383192 10.0000154,16.4874616 10.0000154,17.0413192 L10.0000154,20.0333192 C10.0000154,21.1404616 9.10215782,22.0383192 7.99501544,22.0383192 L5.00501544,22.0383192 C3.89787307,22.0383192 3.00001544,21.1404616 3.00001544,20.0333192 L3.00001544,9.95964705 L1.81613021,10.9257098 C1.6021803,11.1002952 1.28721023,11.0683839 1.11262487,10.854434 C0.938039506,10.6404841 0.969950772,10.325514 1.18390068,10.1509287 L10.3152218,2.70300627 C11.2455388,1.77142355 12.7544921,1.77142355 13.6471302,2.66892865 L22.8161302,10.1509287 C23.0300801,10.325514 23.0619914,10.6404841 22.887406,10.854434 C22.7128207,11.0683839 22.3978506,11.1002952 22.1839007,10.9257098 L21.0000154,9.95921869 Z M20.0000154,9.14284639 L12.9772218,3.40963219 C12.4375388,2.86921491 11.5624921,2.86921491 10.9851302,3.4437098 L4.00001544,9.14363658 L4.00001544,20.0333192 C4.00001544,20.5881769 4.45015782,21.0383192 5.00501544,21.0383192 L7.99501544,21.0383192 C8.54987307,21.0383192 9.00001544,20.5881769 9.00001544,20.0333192 L9.00001544,17.0413192 C9.00001544,15.9351769 9.89687307,15.0383192 11.0030154,15.0383192 L12.9970154,15.0383192 C14.1031578,15.0383192 15.0000154,15.9351769 15.0000154,17.0413192 L15.0000154,20.0333192 C15.0000154,20.5881769 15.4501578,21.0383192 16.0050154,21.0383192 L18.9950154,21.0383192 C19.5498731,21.0383192 20.0000154,20.5881769 20.0000154,20.0333192 L20.0000154,9.14284639 Z"/>
  </defs>
  <g fill="none" fill-rule="evenodd">
    <rect width="180" height="180" fill="#FFF" fill-opacity=".01" fill-rule="nonzero"/>
    <g transform="translate(24 27)">
      <g transform="translate(0 68)">
        <rect width="24" height="24" fill="#A9B6BE" rx="2"/>
        <path fill="#C41261" d="M29.837,8.663 L29.837,16 L28.913,16 L28.913,8.663 L29.837,8.663 Z M35.018,14.801 L35.535,15.373 C34.963,15.89 34.402,16.121 33.665,16.121 C32.213,16.121 31.179,15.021 31.179,13.481 C31.179,11.908 32.224,10.808 33.709,10.808 C34.435,10.808 35.029,11.05 35.557,11.567 L35.018,12.106 C34.633,11.754 34.204,11.578 33.731,11.578 C32.73,11.578 32.037,12.348 32.037,13.448 C32.037,14.57 32.73,15.351 33.72,15.351 C34.215,15.351 34.611,15.186 35.018,14.801 Z M38.802,10.808 C40.298,10.808 41.365,11.919 41.365,13.481 C41.365,14.966 40.221,16.121 38.769,16.121 C37.262,16.121 36.206,15.021 36.206,13.459 C36.206,11.886 37.262,10.808 38.802,10.808 Z M38.802,11.578 C37.757,11.578 37.064,12.337 37.064,13.47 C37.064,14.592 37.757,15.351 38.791,15.351 C39.792,15.351 40.507,14.57 40.507,13.47 C40.507,12.337 39.825,11.578 38.802,11.578 Z M42.641,10.929 L43.477,10.929 L43.477,11.644 C43.917,11.05 44.357,10.808 44.984,10.808 C45.446,10.808 45.864,10.962 46.161,11.226 C46.48,11.534 46.59,11.886 46.59,12.579 L46.59,16 L45.754,16 L45.754,12.766 C45.754,12.315 45.699,12.073 45.567,11.897 C45.413,11.688 45.116,11.556 44.775,11.556 C44.401,11.556 44.06,11.699 43.807,11.985 C43.565,12.249 43.477,12.491 43.477,12.909 L43.477,16 L42.641,16 L42.641,10.929 Z M51.122,14.031 L52.002,14.031 C52.046,14.867 52.497,15.307 53.3,15.307 C54.125,15.307 54.708,14.801 54.708,14.064 C54.708,13.426 54.378,13.129 53.223,12.744 C52.354,12.447 52.068,12.304 51.738,12.007 C51.364,11.666 51.166,11.182 51.166,10.621 C51.166,9.378 52.057,8.531 53.355,8.531 C54.653,8.531 55.5,9.356 55.533,10.632 L54.609,10.632 C54.598,10.258 54.554,10.082 54.433,9.873 C54.224,9.554 53.817,9.356 53.344,9.356 C52.618,9.356 52.101,9.851 52.101,10.555 C52.101,10.907 52.255,11.215 52.519,11.402 C52.75,11.567 52.948,11.655 53.696,11.919 C54.477,12.194 54.851,12.392 55.148,12.711 C55.467,13.052 55.643,13.514 55.643,14.009 C55.643,15.274 54.708,16.132 53.333,16.132 C52.398,16.132 51.76,15.802 51.375,15.142 C51.199,14.845 51.122,14.537 51.122,14.185 L51.122,14.031 Z M57.821,11.666 L57.821,14.966 C57.832,15.219 57.898,15.274 58.206,15.274 L58.591,15.274 L58.591,16 L57.81,16 C57.216,15.989 56.985,15.769 56.985,15.208 L56.985,11.666 L56.281,11.666 L56.281,10.929 L56.985,10.929 L56.985,9.334 L57.821,9.334 L57.821,10.929 L58.591,10.929 L58.591,11.666 L57.821,11.666 Z M59.779,10.929 L60.615,10.929 L60.615,11.787 C60.769,11.424 60.879,11.27 61.077,11.116 C61.33,10.918 61.682,10.808 62.045,10.808 L62.243,10.808 L62.243,11.655 C62.155,11.644 62.067,11.644 62.012,11.644 C61.561,11.644 61.165,11.853 60.912,12.227 C60.692,12.546 60.615,12.843 60.615,13.426 L60.615,16 L59.779,16 L59.779,10.929 Z M65.466,10.808 C66.962,10.808 68.029,11.919 68.029,13.481 C68.029,14.966 66.885,16.121 65.433,16.121 C63.926,16.121 62.87,15.021 62.87,13.459 C62.87,11.886 63.926,10.808 65.466,10.808 Z M65.466,11.578 C64.421,11.578 63.728,12.337 63.728,13.47 C63.728,14.592 64.421,15.351 65.455,15.351 C66.456,15.351 67.171,14.57 67.171,13.47 C67.171,12.337 66.489,11.578 65.466,11.578 Z M70.141,13.734 L70.141,16 L69.305,16 L69.305,8.663 L70.141,8.663 L70.141,13.151 L72.165,10.929 L73.221,10.929 L70.955,13.404 L73.21,16 L72.165,16 L70.141,13.734 Z M78.897,13.734 L74.673,13.734 C74.717,14.163 74.794,14.383 75.003,14.658 C75.333,15.109 75.817,15.351 76.367,15.351 C76.994,15.351 77.588,15.01 77.885,14.482 L78.622,14.757 C78.204,15.604 77.335,16.121 76.367,16.121 C74.86,16.121 73.782,15.021 73.782,13.481 C73.782,11.919 74.849,10.808 76.334,10.808 C77.808,10.808 78.908,11.919 78.908,13.404 C78.908,13.47 78.908,13.613 78.897,13.734 Z M74.684,13.118 L78.017,13.118 C77.984,12.722 77.907,12.502 77.731,12.249 C77.412,11.82 76.895,11.556 76.334,11.556 C75.773,11.556 75.267,11.82 74.97,12.26 C74.816,12.502 74.75,12.711 74.684,13.118 Z M80.547,14.944 C80.877,14.944 81.119,15.186 81.119,15.527 C81.119,15.846 80.866,16.088 80.547,16.088 C80.217,16.088 79.975,15.846 79.975,15.516 C79.975,15.186 80.217,14.944 80.547,14.944 Z M80.547,11.776 C80.877,11.776 81.119,12.018 81.119,12.359 C81.119,12.678 80.866,12.92 80.547,12.92 C80.217,12.92 79.975,12.678 79.975,12.348 C79.975,12.018 80.217,11.776 80.547,11.776 Z M89.237,8.531 C90.26,8.531 91.239,8.993 91.943,9.796 C92.537,10.489 92.801,11.303 92.801,12.403 C92.801,13.547 92.361,14.57 91.558,15.252 C90.898,15.824 90.062,16.132 89.215,16.132 C88.126,16.132 87.059,15.615 86.377,14.757 C85.871,14.119 85.607,13.294 85.607,12.37 C85.607,10.181 87.158,8.531 89.237,8.531 Z M89.215,9.389 C87.686,9.389 86.553,10.643 86.553,12.337 C86.553,14.042 87.675,15.285 89.193,15.285 C89.93,15.285 90.656,14.966 91.151,14.405 C91.58,13.932 91.855,13.14 91.855,12.392 C91.855,11.413 91.591,10.698 91.019,10.148 C90.535,9.675 89.864,9.389 89.215,9.389 Z M94.957,15.131 L94.957,16 L94.121,16 L94.121,8.663 L94.957,8.663 L94.957,11.798 C95.463,11.105 96.002,10.808 96.739,10.808 C98.158,10.808 99.148,11.908 99.148,13.481 C99.148,15.032 98.169,16.121 96.783,16.121 C96.002,16.121 95.452,15.824 94.957,15.131 Z M96.629,11.556 C95.661,11.556 94.946,12.359 94.946,13.47 C94.946,14.625 95.606,15.395 96.596,15.395 C97.597,15.395 98.268,14.636 98.268,13.503 C98.268,12.37 97.586,11.556 96.629,11.556 Z M103.603,12.315 L102.767,12.315 L102.767,12.26 C102.767,11.787 102.382,11.49 101.799,11.49 C101.238,11.49 100.886,11.776 100.886,12.216 C100.886,12.656 101.106,12.821 102.019,13.074 C102.668,13.25 103.009,13.415 103.251,13.657 C103.504,13.91 103.658,14.273 103.658,14.647 C103.658,15.527 102.932,16.121 101.854,16.121 C100.699,16.121 100.05,15.582 99.962,14.559 L100.787,14.559 C100.842,15.131 101.216,15.439 101.854,15.439 C102.426,15.439 102.8,15.142 102.8,14.691 C102.8,14.251 102.514,14.031 101.645,13.811 C100.545,13.514 100.05,13.052 100.05,12.282 C100.05,11.402 100.765,10.808 101.832,10.808 C102.91,10.808 103.559,11.358 103.603,12.315 Z M105.781,10.929 L105.781,16 L104.945,16 L104.945,10.929 L105.781,10.929 Z M105.374,8.96 C105.671,8.96 105.902,9.202 105.902,9.51 C105.902,9.807 105.66,10.038 105.363,10.038 C105.066,10.038 104.835,9.807 104.835,9.499 C104.835,9.191 105.066,8.96 105.374,8.96 Z M111.259,11.699 L111.259,8.663 L112.095,8.663 L112.095,16 L111.259,16 L111.259,15.131 C110.753,15.824 110.214,16.121 109.444,16.121 C108.047,16.121 107.057,15.032 107.057,13.492 C107.057,11.952 108.069,10.808 109.444,10.808 C110.192,10.808 110.764,11.083 111.259,11.699 Z M109.62,11.556 C108.619,11.556 107.937,12.348 107.937,13.503 C107.937,14.614 108.608,15.395 109.565,15.395 C110.544,15.395 111.259,14.581 111.259,13.481 C111.259,12.337 110.588,11.556 109.62,11.556 Z M114.614,10.929 L114.614,16 L113.778,16 L113.778,10.929 L114.614,10.929 Z M114.207,8.96 C114.504,8.96 114.735,9.202 114.735,9.51 C114.735,9.807 114.493,10.038 114.196,10.038 C113.899,10.038 113.668,9.807 113.668,9.499 C113.668,9.191 113.899,8.96 114.207,8.96 Z M120.125,11.765 L120.125,10.929 L120.961,10.929 L120.961,16 L120.125,16 L120.125,15.021 C119.619,15.78 119.047,16.121 118.277,16.121 C116.88,16.121 115.89,15.021 115.89,13.481 C115.89,11.93 116.902,10.808 118.299,10.808 C119.069,10.808 119.63,11.105 120.125,11.765 Z M118.42,11.556 C117.87,11.556 117.485,11.743 117.188,12.161 C116.924,12.524 116.77,13.008 116.77,13.503 C116.77,14.581 117.474,15.395 118.398,15.395 C119.355,15.395 120.136,14.504 120.136,13.415 C120.136,12.315 119.432,11.556 118.42,11.556 Z M122.644,10.929 L123.48,10.929 L123.48,11.644 C123.92,11.05 124.36,10.808 124.987,10.808 C125.449,10.808 125.867,10.962 126.164,11.226 C126.483,11.534 126.593,11.886 126.593,12.579 L126.593,16 L125.757,16 L125.757,12.766 C125.757,12.315 125.702,12.073 125.57,11.897 C125.416,11.688 125.119,11.556 124.778,11.556 C124.404,11.556 124.063,11.699 123.81,11.985 C123.568,12.249 123.48,12.491 123.48,12.909 L123.48,16 L122.644,16 L122.644,10.929 Z M131.499,8.773 L129.618,11.71 C129.926,11.6 130.069,11.567 130.333,11.567 C131.554,11.567 132.5,12.524 132.5,13.767 C132.5,15.065 131.433,16.132 130.135,16.132 C128.826,16.132 127.814,15.098 127.814,13.767 C127.814,13.228 127.957,12.821 128.375,12.15 L130.476,8.773 L131.499,8.773 Z M130.179,12.315 C129.343,12.315 128.683,12.953 128.683,13.767 C128.683,14.625 129.332,15.307 130.157,15.307 C130.982,15.307 131.642,14.636 131.642,13.8 C131.642,12.975 130.993,12.315 130.179,12.315 Z"/>
        <g transform="translate(0 34)">
          <rect width="24" height="24" fill="#919FA8" rx="2"/>
          <path fill="#C41261" d="M29.837,15.164 L32.422,15.164 L32.422,16 L28.913,16 L28.913,8.663 L29.837,8.663 L29.837,15.164 Z M37.361,11.765 L37.361,10.929 L38.197,10.929 L38.197,16 L37.361,16 L37.361,15.021 C36.855,15.78 36.283,16.121 35.513,16.121 C34.116,16.121 33.126,15.021 33.126,13.481 C33.126,11.93 34.138,10.808 35.535,10.808 C36.305,10.808 36.866,11.105 37.361,11.765 Z M35.656,11.556 C35.106,11.556 34.721,11.743 34.424,12.161 C34.16,12.524 34.006,13.008 34.006,13.503 C34.006,14.581 34.71,15.395 35.634,15.395 C36.591,15.395 37.372,14.504 37.372,13.415 C37.372,12.315 36.668,11.556 35.656,11.556 Z M40.716,15.131 L40.716,16 L39.88,16 L39.88,8.663 L40.716,8.663 L40.716,11.798 C41.222,11.105 41.761,10.808 42.498,10.808 C43.917,10.808 44.907,11.908 44.907,13.481 C44.907,15.032 43.928,16.121 42.542,16.121 C41.761,16.121 41.211,15.824 40.716,15.131 Z M42.388,11.556 C41.42,11.556 40.705,12.359 40.705,13.47 C40.705,14.625 41.365,15.395 42.355,15.395 C43.356,15.395 44.027,14.636 44.027,13.503 C44.027,12.37 43.345,11.556 42.388,11.556 Z M50.891,13.734 L46.667,13.734 C46.711,14.163 46.788,14.383 46.997,14.658 C47.327,15.109 47.811,15.351 48.361,15.351 C48.988,15.351 49.582,15.01 49.879,14.482 L50.616,14.757 C50.198,15.604 49.329,16.121 48.361,16.121 C46.854,16.121 45.776,15.021 45.776,13.481 C45.776,11.919 46.843,10.808 48.328,10.808 C49.802,10.808 50.902,11.919 50.902,13.404 C50.902,13.47 50.902,13.613 50.891,13.734 Z M46.678,13.118 L50.011,13.118 C49.978,12.722 49.901,12.502 49.725,12.249 C49.406,11.82 48.889,11.556 48.328,11.556 C47.767,11.556 47.261,11.82 46.964,12.26 C46.81,12.502 46.744,12.711 46.678,13.118 Z M52.948,16 L52.112,16 L52.112,8.663 L52.948,8.663 L52.948,16 Z M55.06,14.944 C55.39,14.944 55.632,15.186 55.632,15.527 C55.632,15.846 55.379,16.088 55.06,16.088 C54.73,16.088 54.488,15.846 54.488,15.516 C54.488,15.186 54.73,14.944 55.06,14.944 Z M55.06,11.776 C55.39,11.776 55.632,12.018 55.632,12.359 C55.632,12.678 55.379,12.92 55.06,12.92 C54.73,12.92 54.488,12.678 54.488,12.348 C54.488,12.018 54.73,11.776 55.06,11.776 Z M63.75,8.531 C64.773,8.531 65.752,8.993 66.456,9.796 C67.05,10.489 67.314,11.303 67.314,12.403 C67.314,13.547 66.874,14.57 66.071,15.252 C65.411,15.824 64.575,16.132 63.728,16.132 C62.639,16.132 61.572,15.615 60.89,14.757 C60.384,14.119 60.12,13.294 60.12,12.37 C60.12,10.181 61.671,8.531 63.75,8.531 Z M63.728,9.389 C62.199,9.389 61.066,10.643 61.066,12.337 C61.066,14.042 62.188,15.285 63.706,15.285 C64.443,15.285 65.169,14.966 65.664,14.405 C66.093,13.932 66.368,13.14 66.368,12.392 C66.368,11.413 66.104,10.698 65.532,10.148 C65.048,9.675 64.377,9.389 63.728,9.389 Z M69.47,15.131 L69.47,16 L68.634,16 L68.634,8.663 L69.47,8.663 L69.47,11.798 C69.976,11.105 70.515,10.808 71.252,10.808 C72.671,10.808 73.661,11.908 73.661,13.481 C73.661,15.032 72.682,16.121 71.296,16.121 C70.515,16.121 69.965,15.824 69.47,15.131 Z M71.142,11.556 C70.174,11.556 69.459,12.359 69.459,13.47 C69.459,14.625 70.119,15.395 71.109,15.395 C72.11,15.395 72.781,14.636 72.781,13.503 C72.781,12.37 72.099,11.556 71.142,11.556 Z M78.116,12.315 L77.28,12.315 L77.28,12.26 C77.28,11.787 76.895,11.49 76.312,11.49 C75.751,11.49 75.399,11.776 75.399,12.216 C75.399,12.656 75.619,12.821 76.532,13.074 C77.181,13.25 77.522,13.415 77.764,13.657 C78.017,13.91 78.171,14.273 78.171,14.647 C78.171,15.527 77.445,16.121 76.367,16.121 C75.212,16.121 74.563,15.582 74.475,14.559 L75.3,14.559 C75.355,15.131 75.729,15.439 76.367,15.439 C76.939,15.439 77.313,15.142 77.313,14.691 C77.313,14.251 77.027,14.031 76.158,13.811 C75.058,13.514 74.563,13.052 74.563,12.282 C74.563,11.402 75.278,10.808 76.345,10.808 C77.423,10.808 78.072,11.358 78.116,12.315 Z M80.294,10.929 L80.294,16 L79.458,16 L79.458,10.929 L80.294,10.929 Z M79.887,8.96 C80.184,8.96 80.415,9.202 80.415,9.51 C80.415,9.807 80.173,10.038 79.876,10.038 C79.579,10.038 79.348,9.807 79.348,9.499 C79.348,9.191 79.579,8.96 79.887,8.96 Z M85.772,11.699 L85.772,8.663 L86.608,8.663 L86.608,16 L85.772,16 L85.772,15.131 C85.266,15.824 84.727,16.121 83.957,16.121 C82.56,16.121 81.57,15.032 81.57,13.492 C81.57,11.952 82.582,10.808 83.957,10.808 C84.705,10.808 85.277,11.083 85.772,11.699 Z M84.133,11.556 C83.132,11.556 82.45,12.348 82.45,13.503 C82.45,14.614 83.121,15.395 84.078,15.395 C85.057,15.395 85.772,14.581 85.772,13.481 C85.772,12.337 85.101,11.556 84.133,11.556 Z M89.127,10.929 L89.127,16 L88.291,16 L88.291,10.929 L89.127,10.929 Z M88.72,8.96 C89.017,8.96 89.248,9.202 89.248,9.51 C89.248,9.807 89.006,10.038 88.709,10.038 C88.412,10.038 88.181,9.807 88.181,9.499 C88.181,9.191 88.412,8.96 88.72,8.96 Z M94.638,11.765 L94.638,10.929 L95.474,10.929 L95.474,16 L94.638,16 L94.638,15.021 C94.132,15.78 93.56,16.121 92.79,16.121 C91.393,16.121 90.403,15.021 90.403,13.481 C90.403,11.93 91.415,10.808 92.812,10.808 C93.582,10.808 94.143,11.105 94.638,11.765 Z M92.933,11.556 C92.383,11.556 91.998,11.743 91.701,12.161 C91.437,12.524 91.283,13.008 91.283,13.503 C91.283,14.581 91.987,15.395 92.911,15.395 C93.868,15.395 94.649,14.504 94.649,13.415 C94.649,12.315 93.945,11.556 92.933,11.556 Z M97.157,10.929 L97.993,10.929 L97.993,11.644 C98.433,11.05 98.873,10.808 99.5,10.808 C99.962,10.808 100.38,10.962 100.677,11.226 C100.996,11.534 101.106,11.886 101.106,12.579 L101.106,16 L100.27,16 L100.27,12.766 C100.27,12.315 100.215,12.073 100.083,11.897 C99.929,11.688 99.632,11.556 99.291,11.556 C98.917,11.556 98.576,11.699 98.323,11.985 C98.081,12.249 97.993,12.491 97.993,12.909 L97.993,16 L97.157,16 L97.157,10.929 Z M105.99,8.663 L105.99,9.499 L103.625,9.499 L103.625,11.468 C103.999,11.325 104.329,11.259 104.703,11.259 C105.99,11.259 106.958,12.271 106.958,13.646 C106.958,15.054 105.924,16.077 104.483,16.077 C103.449,16.077 102.668,15.538 102.294,14.57 L103.086,14.273 C103.262,14.592 103.339,14.724 103.46,14.834 C103.691,15.065 104.098,15.208 104.505,15.208 C105.385,15.208 106.056,14.526 106.056,13.624 C106.056,12.689 105.396,12.062 104.428,12.062 C103.856,12.062 103.273,12.326 102.8,12.81 L102.8,8.663 L105.99,8.663 Z"/>
        </g>
      </g>
      <g transform="translate(30)">
        <rect width="72" height="48" fill="#FFF"/>
        <g transform="translate(10 5)">
          <path fill="#919FA8" d="M4.36923828,36 L3.4024414,36 L3.4024414,29.1196289 L0.904882811,29.1196289 L0.904882811,28.2495117 L6.86679687,28.2495117 L6.86679687,29.1196289 L4.36923828,29.1196289 L4.36923828,36 Z M9.54714844,30.9243164 C8.62332031,30.9243164 7.97878906,31.6010742 7.90896484,32.6269531 L11.0993945,32.6269531 C11.0779102,31.6010742 10.4656055,30.9243164 9.54714844,30.9243164 Z M11.0725391,34.5014648 L11.9963672,34.5014648 C11.7170703,35.4951172 10.8254687,36.1020508 9.55789062,36.1020508 C7.95193359,36.1020508 6.94753906,34.9418945 6.94753906,33.1103516 C6.94753906,31.2895508 7.96804687,30.1079102 9.55789062,30.1079102 C11.1208789,30.1079102 12.0715625,31.2197266 12.0715625,33.019043 L12.0715625,33.3735352 L7.90896484,33.3735352 L7.90896484,33.4165039 C7.95730469,34.5605469 8.59646484,35.2856445 9.579375,35.2856445 C10.325957,35.2856445 10.8308398,35.0117188 11.0725391,34.5014648 Z M15.4286719,33.8139648 L15.3427344,33.8139648 L13.9677344,36 L12.9203711,36 L14.9023047,33.1049805 L12.8988867,30.2099609 L13.9999609,30.2099609 L15.3749609,32.3637695 L15.4608984,32.3637695 L16.8197852,30.2099609 L17.8671484,30.2099609 L15.9013281,33.0673828 L17.8940039,36 L16.7983008,36 L15.4286719,33.8139648 Z M19.6129297,28.7114258 L20.5367578,28.7114258 L20.5367578,30.2099609 L21.8258203,30.2099609 L21.8258203,30.9833984 L20.5367578,30.9833984 L20.5367578,34.2597656 C20.5367578,34.9418945 20.7945703,35.2319336 21.3961328,35.2319336 C21.5626367,35.2319336 21.6539453,35.2265625 21.8258203,35.2104492 L21.8258203,35.9892578 C21.6432031,36.0214844 21.465957,36.0429688 21.2833398,36.0429688 C20.090957,36.0429688 19.6129297,35.6025391 19.6129297,34.4960938 L19.6129297,30.9833984 L18.6783594,30.9833984 L18.6783594,30.2099609 L19.6129297,30.2099609 L19.6129297,28.7114258 Z M26.5205078,36 L26.5205078,27.9111328 L27.4443359,27.9111328 L27.4443359,36 L26.5205078,36 Z M31.0914844,35.2910156 C32.042168,35.2910156 32.7457813,34.6679688 32.7457813,33.8408203 L32.7457813,33.309082 L31.1881641,33.4111328 C30.3073047,33.4702148 29.9205859,33.7763672 29.9205859,34.3564453 C29.9205859,34.9472656 30.4200977,35.2910156 31.0914844,35.2910156 Z M30.9196094,36.1020508 C29.7970508,36.1020508 28.9645313,35.4360352 28.9645313,34.3779297 C28.9645313,33.3413086 29.7272266,32.7451172 31.0753711,32.6645508 L32.7457813,32.5625 L32.7457813,32.0361328 C32.7457813,31.3217773 32.2999805,30.9296875 31.4352344,30.9296875 C30.7423633,30.9296875 30.2589648,31.1928711 30.1300586,31.6494141 L29.1954883,31.6494141 C29.3190234,30.7202148 30.2321094,30.1079102 31.4674609,30.1079102 C32.8800586,30.1079102 33.6696094,30.8330078 33.6696094,32.0361328 L33.6696094,36 L32.78875,36 L32.78875,35.1459961 L32.7028125,35.1459961 C32.3268359,35.7636719 31.6930469,36.1020508 30.9196094,36.1020508 Z M38.3265234,36.1020508 C37.5208594,36.1020508 36.8333594,35.7207031 36.468125,35.0761719 L36.3821875,35.0761719 L36.3821875,36 L35.5013281,36 L35.5013281,27.9111328 L36.4251563,27.9111328 L36.4251563,31.1230469 L36.5110938,31.1230469 C36.8279883,30.5 37.5316016,30.1079102 38.3265234,30.1079102 C39.7982031,30.1079102 40.7542578,31.2841797 40.7542578,33.1049805 C40.7542578,34.9150391 39.792832,36.1020508 38.3265234,36.1020508 Z M38.1116797,30.9404297 C37.0589453,30.9404297 36.4036719,31.7675781 36.4036719,33.1049805 C36.4036719,34.4423828 37.0589453,35.2695312 38.1116797,35.2695312 C39.1697852,35.2695312 39.7982031,34.4584961 39.7982031,33.1049805 C39.7982031,31.7514648 39.1697852,30.9404297 38.1116797,30.9404297 Z M44.5840234,30.9243164 C43.6601953,30.9243164 43.0156641,31.6010742 42.9458398,32.6269531 L46.1362695,32.6269531 C46.1147852,31.6010742 45.5024805,30.9243164 44.5840234,30.9243164 Z M46.1094141,34.5014648 L47.0332422,34.5014648 C46.7539453,35.4951172 45.8623438,36.1020508 44.5947656,36.1020508 C42.9888086,36.1020508 41.9844141,34.9418945 41.9844141,33.1103516 C41.9844141,31.2895508 43.0049219,30.1079102 44.5947656,30.1079102 C46.1577539,30.1079102 47.1084375,31.2197266 47.1084375,33.019043 L47.1084375,33.3735352 L42.9458398,33.3735352 L42.9458398,33.4165039 C42.9941797,34.5605469 43.6333398,35.2856445 44.61625,35.2856445 C45.362832,35.2856445 45.8677148,35.0117188 46.1094141,34.5014648 Z M48.6823438,36 L48.6823438,27.9111328 L49.6061719,27.9111328 L49.6061719,36 L48.6823438,36 Z"/>
          <g transform="translate(13)">
            <path d="M21.0084545,9.96610807 L21,20.0353752 C21,21.1403752 20.1,22.0403752 18.995,22.0403752 L16.005,22.0403752 C14.897,22.0403752 14,21.1423752 14,20.0353752 L14,17.0433752 C14,16.4913752 13.549,16.0403752 12.997,16.0403752 L11.003,16.0403752 C10.449,16.0403752 10,16.4893752 10,17.0433752 L10,20.0353752 C10,21.1423752 9.102,22.0403752 7.995,22.0403752 L5.005,22.0403752 C3.897,22.0403752 3,21.1423752 3,20.0353752 L3,9.95965965 L1.81613021,10.9257098 C1.6021803,11.1002952 1.28721023,11.0683839 1.11262487,10.854434 C0.938039506,10.6404841 0.969950772,10.325514 1.18390068,10.1509287 L10.3152218,2.70300627 C11.2455388,1.77142355 12.7544921,1.77142355 13.6471302,2.66892865 L22.8161302,10.1509287 C23.0300801,10.325514 23.0619914,10.6404841 22.887406,10.854434 C22.7128207,11.0683839 22.3978506,11.1002952 22.1839007,10.9257098 L21.0084545,9.96610807 Z"/>
            <use fill="#A9B6BE" xlink:href="#4-a"/>
          </g>
        </g>
      </g>
    </g>
  </g>
</svg>
