<svg xmlns="http://www.w3.org/2000/svg" xmlns:xlink="http://www.w3.org/1999/xlink" width="380" height="180" viewBox="0 0 380 180">
  <defs>
    <rect id="5-b" width="375" height="48"/>
    <filter id="5-a" width="100.1%" height="102.1%" x="-.1%" y="-1.6%" filterUnits="objectBoundingBox">
      <feOffset dy="-.5" in="SourceAlpha" result="shadowOffsetOuter1"/>
      <feComposite in="shadowOffsetOuter1" in2="SourceAlpha" operator="out" result="shadowOffsetOuter1"/>
      <feColorMatrix in="shadowOffsetOuter1" values="0 0 0 0 0   0 0 0 0 0   0 0 0 0 0  0 0 0 0.2 0"/>
    </filter>
    <path id="5-c" d="M12,15 L12,15.5 C10.1086931,15.5 8.5,13.8914139 8.5,11.9994584 C8.5,10.1083874 10.1088918,8.5 12,8.5 C13.8911082,8.5 15.5,10.1083874 15.5,11.9994584 C15.5,13.8914139 13.8913069,15.5 12,15.5 L12,15 Z M14.5,11.9994584 C14.5,10.6607423 13.3388937,9.5 12,9.5 C10.6611063,9.5 9.5,10.6607423 9.5,11.9994584 C9.5,13.3391142 10.6609629,14.5 12,14.5 C13.3390371,14.5 14.5,13.3391142 14.5,11.9994584 Z M19.0606174,10.4703224 C17.9205476,10.3281283 17.3690987,8.99752677 18.0745815,8.08957943 L18.8318727,7.11651456 C19.261393,6.56383658 19.2123085,5.77774856 18.7170611,5.28250107 C18.222797,4.78762446 17.4368949,4.73873532 16.8835434,5.16891556 L15.9103794,5.92545049 C15.0034895,6.63108881 13.6727042,6.08027902 13.5305433,4.9404754 L13.3772079,3.71629172 C13.2901639,3.02116584 12.7000851,2.5 12,2.5 C11.2999149,2.5 10.7098361,3.02116584 10.62279,3.71630873 L10.4694891,4.9402159 C10.3272958,6.08027902 8.99651047,6.63108881 8.08978996,5.92558222 L7.11645383,5.16891338 C6.56310513,4.73873532 5.77720305,4.78762446 5.28272006,5.28272006 C4.78769155,5.77774856 4.73860701,6.56383658 5.16791847,7.1162461 L5.92565662,8.08988569 C6.63090129,8.99752677 6.07945241,10.3281283 4.93930951,10.4703315 L3.71551238,10.6227854 C3.0214033,10.7097787 2.5,11.3005186 2.5,12 C2.5,12.7002228 3.02131209,13.2910432 3.71514284,13.3780018 L4.93938256,13.5305109 C6.07945241,13.672705 6.63090129,15.0033066 5.92541847,15.9112539 L5.16812725,16.8843188 C4.73860701,17.4369968 4.78769155,18.2230848 5.28272006,18.7181133 C5.77735058,19.2127438 6.56345101,19.2618291 7.1162461,18.8320815 L8.08996185,18.0742842 C8.99699918,17.3697892 10.3273344,17.9208636 10.4694567,19.0603579 L10.6227921,20.2845416 C10.7098033,20.9794056 11.2996511,21.5 12,21.5 C12.7003489,21.5 13.2901967,20.9794056 13.37721,20.2845246 L13.5305109,19.0606174 C13.6726656,17.9208636 15.0030008,17.3697892 15.9104206,18.0745815 L16.8835462,18.83192 C17.436549,19.2618291 18.2226494,19.2127438 18.7172799,18.7181133 C19.2123085,18.2230848 19.261393,17.4369968 18.8320815,16.8845872 L18.0743434,15.9109476 C17.3690987,15.0033066 17.9205476,13.672705 19.0606905,13.5305018 L20.2844876,13.378048 C20.9786879,13.2910432 21.5,12.7002228 21.5,12 C21.5,11.3005759 20.9786822,10.7098756 20.2846584,10.6228068 L19.0606174,10.4703224 Z M22.5,12 C22.5,13.2043883 21.6033646,14.2205752 20.4084762,14.3703315 L19.1843826,14.5228224 C18.8139894,14.5690194 18.634521,15.002062 18.8637518,15.2970794 L19.6214606,16.2706812 C20.3603604,17.2214482 20.2759249,18.5736819 19.4243867,19.4252201 C18.5732284,20.2763784 17.2209037,20.3608196 16.2695794,19.6212518 L15.2966285,18.8640491 C15.0018151,18.6350678 14.5689722,18.8143675 14.52279,19.1846421 L14.3694588,20.4087917 C14.2197957,21.6039884 13.2045899,22.5 12,22.5 C10.7954101,22.5 9.78020428,21.6039884 9.63054333,20.4088087 L9.47717756,19.1843826 C9.43102778,18.8143675 8.99818488,18.6350678 8.7037539,18.8637518 L7.73021284,19.6214134 C6.77909628,20.3608196 5.4267716,20.2763784 4.57561328,19.4252201 C3.7240751,18.5736819 3.63963956,17.2214482 4.3787482,16.2704128 L5.13601004,15.2973857 C5.365479,15.002062 5.18601065,14.5690194 4.81569049,14.5228315 L3.59115429,14.3702854 C2.39663545,14.2205752 1.5,13.2043883 1.5,12 C1.5,10.7962868 2.39679235,9.78023852 3.59152382,9.63050179 L4.81561744,9.4780109 C5.18601065,9.43181395 5.365479,8.99877133 5.1362482,8.7037539 L4.37853941,7.73015211 C3.63963956,6.7793851 3.7240751,5.42715145 4.57539443,4.57583226 C5.42629673,3.72387555 6.7787477,3.63974273 7.73021004,4.37941778 L8.70371275,5.13621617 C8.9984227,5.36552585 9.43102706,5.18647164 9.47721,4.81619127 L9.6305412,3.59204161 C9.78021844,2.39673184 10.7955238,1.5 12,1.5 C13.2044762,1.5 14.2197816,2.39673184 14.3694567,3.5920246 L14.5228224,4.81645077 C14.5689729,5.18647164 15.0015773,5.36552585 15.2964566,5.13608444 L16.2697872,4.37941995 C17.2212523,3.63974273 18.5737033,3.72387555 19.4243867,4.57561328 C20.2759249,5.42715145 20.3603604,6.7793851 19.6212518,7.73042057 L18.86399,8.70344765 C18.634521,8.99877133 18.8139894,9.43181395 19.1843095,9.47800179 L20.4084762,9.63050179 C21.6032077,9.78023852 22.5,10.7962868 22.5,12 Z"/>
    <path id="5-d" d="M13.4905339,2 L10.5144746,2 C5.81248122,2 2,5.79935114 2,10.485151 C2,15.1709508 5.81248122,18.970302 10.5144746,18.970302 L11.1615747,18.970302 C18.8396274,18.970302 18.3297606,20.362865 20.3982771,21.8183179 C20.5765802,21.9430996 20.772914,22 20.9652409,22 C21.4981468,22 22,21.5667582 22,20.9648116 L22,10.4801597 C22,5.79635638 18.1895222,2 13.4905339,2 M13.4905339,2.99825306 C17.630572,2.99825306 20.9982971,6.35437984 20.9982971,10.4801597 L20.9982971,20.9648116 C20.9982971,20.9877714 20.9772613,20.9977539 20.9742562,21.0007487 C20.6066313,20.7412029 20.331163,20.4836536 20.0406691,20.2111305 C18.5561454,18.8175693 17.2168687,17.9720489 11.1615747,17.9720489 L10.5144746,17.9720489 C6.37243314,17.9720489 3.00170289,14.6139256 3.00170289,10.485151 C3.00170289,6.35637634 6.37243314,2.99825306 10.5144746,2.99825306 L13.4905339,2.99825306 M16,9 C16.2761424,9 16.5,9.22385763 16.5,9.5 C16.5,9.77614237 16.2761424,10 16,10 L8,10 C7.72385763,10 7.5,9.77614237 7.5,9.5 C7.5,9.22385763 7.72385763,9 8,9 L16,9 Z M14,12 C14.2761424,12 14.5,12.2238576 14.5,12.5 C14.5,12.7761424 14.2761424,13 14,13 L10,13 C9.72385763,13 9.5,12.7761424 9.5,12.5 C9.5,12.2238576 9.72385763,12 10,12 L14,12 Z"/>
    <path id="5-e" d="M12.0001,11.014 C13.6541,11.014 15.0001,9.668 15.0001,8.014 C15.0001,6.36 13.6541,5.014 12.0001,5.014 C10.3461,5.014 9.0001,6.36 9.0001,8.014 C9.0001,9.668 10.3461,11.014 12.0001,11.014 Z M12.0001,4.014 C14.2061,4.014 16.0001,5.808 16.0001,8.014 C16.0001,10.22 14.2061,12.014 12.0001,12.014 C9.7941,12.014 8.0001,10.22 8.0001,8.014 C8.0001,5.808 9.7941,4.014 12.0001,4.014 Z M19.193,18.93 C20.926,17.13 22,14.69 22,11.999 C22,6.486 17.514,2 12,2 C6.486,2 2,6.486 2,11.999 C2,14.69 3.073,17.13 4.807,18.93 C5.711,15.803 8.582,13.514 12,13.514 C15.418,13.514 18.289,15.803 19.193,18.93 Z M12,1 C18.075,1 23,5.925 23,11.999 C23,18.075 18.075,22.999 12,22.999 C5.925,22.999 1,18.075 1,11.999 C1,5.925 5.925,1 12,1 Z M12.0494,14.3538 C8.9434,14.3538 6.2934,16.5548 5.6854,19.5518 C7.4804,21.0408 9.7204,21.8538 12.0494,21.8538 C14.3784,21.8538 16.6184,21.0408 18.4134,19.5518 C17.8054,16.5548 15.1554,14.3538 12.0494,14.3538 Z"/>
    <path id="5-f" d="M21.0000154,9.95921869 L21.0000154,20.0333192 C21.0000154,21.1404616 20.1021578,22.0383192 18.9950154,22.0383192 L16.0050154,22.0383192 C14.8978731,22.0383192 14.0000154,21.1404616 14.0000154,20.0333192 L14.0000154,17.0413192 C14.0000154,16.4874616 13.5508731,16.0383192 12.9970154,16.0383192 L11.0030154,16.0383192 C10.4491578,16.0383192 10.0000154,16.4874616 10.0000154,17.0413192 L10.0000154,20.0333192 C10.0000154,21.1404616 9.10215782,22.0383192 7.99501544,22.0383192 L5.00501544,22.0383192 C3.89787307,22.0383192 3.00001544,21.1404616 3.00001544,20.0333192 L3.00001544,9.95964705 L1.81613021,10.9257098 C1.6021803,11.1002952 1.28721023,11.0683839 1.11262487,10.854434 C0.938039506,10.6404841 0.969950772,10.325514 1.18390068,10.1509287 L10.3152218,2.70300627 C11.2455388,1.77142355 12.7544921,1.77142355 13.6471302,2.66892865 L22.8161302,10.1509287 C23.0300801,10.325514 23.0619914,10.6404841 22.887406,10.854434 C22.7128207,11.0683839 22.3978506,11.1002952 22.1839007,10.9257098 L21.0000154,9.95921869 Z M20.0000154,9.14284639 L12.9772218,3.40963219 C12.4375388,2.86921491 11.5624921,2.86921491 10.9851302,3.4437098 L4.00001544,9.14363658 L4.00001544,20.0333192 C4.00001544,20.5881769 4.45015782,21.0383192 5.00501544,21.0383192 L7.99501544,21.0383192 C8.54987307,21.0383192 9.00001544,20.5881769 9.00001544,20.0333192 L9.00001544,17.0413192 C9.00001544,15.9351769 9.89687307,15.0383192 11.0030154,15.0383192 L12.9970154,15.0383192 C14.1031578,15.0383192 15.0000154,15.9351769 15.0000154,17.0413192 L15.0000154,20.0333192 C15.0000154,20.5881769 15.4501578,21.0383192 16.0050154,21.0383192 L18.9950154,21.0383192 C19.5498731,21.0383192 20.0000154,20.5881769 20.0000154,20.0333192 L20.0000154,9.14284639 Z"/>
  </defs>
  <g fill="none" fill-rule="evenodd">
    <rect width="380" height="180" fill="#FFF" fill-opacity=".01" fill-rule="nonzero"/>
    <g transform="translate(3 66)">
      <rect width="375" height="48" fill="#FFF"/>
      <use fill="#000" filter="url(#5-a)" xlink:href="#5-b"/>
      <use fill="#FFF" fill-opacity="0" xlink:href="#5-b"/>
      <g transform="translate(327 12)">
        <path d="M22.5,12 C22.5,13.2043883 21.6033646,14.2205752 20.4084762,14.3703315 L19.1843826,14.5228224 C18.8139894,14.5690194 18.634521,15.002062 18.8637518,15.2970794 L19.6214606,16.2706812 C20.3603604,17.2214482 20.2759249,18.5736819 19.4243867,19.4252201 C18.5732284,20.2763784 17.2209037,20.3608196 16.2695794,19.6212518 L15.2966285,18.8640491 C15.0018151,18.6350678 14.5689722,18.8143675 14.52279,19.1846421 L14.3694588,20.4087917 C14.2197957,21.6039884 13.2045899,22.5 12,22.5 C10.7954101,22.5 9.78020428,21.6039884 9.63054333,20.4088087 L9.47717756,19.1843826 C9.43102778,18.8143675 8.99818488,18.6350678 8.7037539,18.8637518 L7.73021284,19.6214134 C6.77909628,20.3608196 5.4267716,20.2763784 4.57561328,19.4252201 C3.7240751,18.5736819 3.63963956,17.2214482 4.3787482,16.2704128 L5.13601004,15.2973857 C5.365479,15.002062 5.18601065,14.5690194 4.81569049,14.5228315 L3.59115429,14.3702854 C2.39663545,14.2205752 1.5,13.2043883 1.5,12 C1.5,10.7962868 2.39679235,9.78023852 3.59152382,9.63050179 L4.81561744,9.4780109 C5.18601065,9.43181395 5.365479,8.99877133 5.1362482,8.7037539 L4.37853941,7.73015211 C3.63963956,6.7793851 3.7240751,5.42715145 4.57539443,4.57583226 C5.42629673,3.72387555 6.7787477,3.63974273 7.73021004,4.37941778 L8.70371275,5.13621617 C8.9984227,5.36552585 9.43102706,5.18647164 9.47721,4.81619127 L9.6305412,3.59204161 C9.78021844,2.39673184 10.7955238,1.5 12,1.5 C13.2044762,1.5 14.2197816,2.39673184 14.3694567,3.5920246 L14.5228224,4.81645077 C14.5689729,5.18647164 15.0015773,5.36552585 15.2964566,5.13608444 L16.2697872,4.37941995 C17.2212523,3.63974273 18.5737033,3.72387555 19.4243867,4.57561328 C20.2759249,5.42715145 20.3603604,6.7793851 19.6212518,7.73042057 L18.86399,8.70344765 C18.634521,8.99877133 18.8139894,9.43181395 19.1843095,9.47800179 L20.4084762,9.63050179 C21.6032077,9.78023852 22.5,10.7962868 22.5,12 Z M12,15 L12,15.5 C13.8913069,15.5 15.5,13.8914139 15.5,11.9994584 C15.5,10.1083874 13.8911082,8.5 12,8.5 C10.1088918,8.5 8.5,10.1083874 8.5,11.9994584 C8.5,13.8914139 10.1086931,15.5 12,15.5 L12,15 Z"/>
        <use fill="#A9B6BE" xlink:href="#5-c"/>
      </g>
      <path fill="#A9B6BE" d="M19.5713488,18.0016621 L4.4271902,18.0016621 C4.19258357,18.0016621 4.08430359,17.8396621 4.04921285,17.7706621 C4.01412212,17.6996621 3.94694842,17.5186621 4.08530618,17.3286621 L5.11196083,15.9366621 L5.11196083,11.2163 C5.11196083,8.1383 7.1151405,5.4273 9.98456003,4.6253 C10.2051304,4.5633 10.3414829,4.3613 10.3424855,4.1433 L10.3505063,3.7753 C10.3505063,2.7973 11.1485698,2.0003 12.1301078,2.0003 C13.1106432,2.0003 13.9087068,2.7973 13.9087068,3.7753 L13.9087068,4.1433 C13.9187327,4.3613 14.0540827,4.5633 14.274653,4.6253 C17.1440726,5.4273 19.1482548,8.1383 19.1482548,11.2163 L19.1482548,15.8986621 L19.9453158,17.3786621 C20.0475802,17.5696621 19.9723858,17.7336621 19.9352899,17.7956621 C19.898194,17.8576621 19.7889114,18.0016621 19.5713488,18.0016621 Z M13.6349991,19.5016621 C13.6349991,20.3296621 12.9602544,21.0036621 12.1301078,21.0036621 C11.2999613,21.0036621 10.624214,20.3296621 10.624214,19.5016621 L10.624214,19.0016621 L13.6349991,19.0016621 L13.6349991,19.5016621 Z M20.1508473,15.6466621 L20.1508473,11.2163 C20.1508473,7.8283 18.0093098,4.8453 14.9112992,3.7983 C14.9112992,2.2453 13.6640742,1.0003 12.1301078,1.0003 C10.5961414,1.0003 9.34791384,2.2453 9.34791384,3.7753 C6.25090582,4.8453 4.1093684,7.8283 4.1093684,11.2163 L4.1093684,15.6076621 L3.27721668,16.7366621 C2.9573897,17.1716621 2.91127044,17.7406621 3.1549004,18.2216621 C3.39953296,18.7026621 3.88679288,19.0016621 4.4271902,19.0016621 L9.62162157,19.0016621 L9.62162157,19.5016621 C9.62162157,20.8816621 10.7465303,22.0036621 12.1301078,22.0036621 C13.5126828,22.0036621 14.6375915,20.8816621 14.6375915,19.5016621 L14.6375915,19.0016621 L19.5713488,19.0016621 C20.0786606,19.0016621 20.5358427,18.7426621 20.7955142,18.3096621 C21.0561882,17.8756621 21.0682193,17.3516621 20.8285997,16.9056621 L20.1508473,15.6466621 Z" transform="translate(251 12)"/>
      <g transform="translate(176 12)">
        <path d="M13.4905339,2 C18.1895222,2 22,5.79635638 22,10.4801597 L22,20.9648116 C22,21.5667582 21.4981468,22 20.9652409,22 C20.772914,22 20.5765802,21.9430996 20.3982771,21.8183179 C18.3297606,20.362865 18.8396274,18.970302 11.1615747,18.970302 L10.5144746,18.970302 C5.81248122,18.970302 2,15.1709508 2,10.485151 C2,5.79935114 5.81248122,2 10.5144746,2 L13.4905339,2 Z M16,9 L8,9 C7.72385763,9 7.5,9.22385763 7.5,9.5 C7.5,9.77614237 7.72385763,10 8,10 L16,10 C16.2761424,10 16.5,9.77614237 16.5,9.5 C16.5,9.22385763 16.2761424,9 16,9 Z M14,12 L10,12 C9.72385763,12 9.5,12.2238576 9.5,12.5 C9.5,12.7761424 9.72385763,13 10,13 L14,13 C14.2761424,13 14.5,12.7761424 14.5,12.5 C14.5,12.2238576 14.2761424,12 14,12 Z"/>
        <use fill="#A9B6BE" xlink:href="#5-d"/>
      </g>
      <g transform="translate(100 12)">
        <path d="M12,11 C10.346,11 9,9.654 9,8 C9,6.346 10.346,5 12,5 C13.654,5 15,6.346 15,8 C15,9.654 13.654,11 12,11 Z M18.3594,19.6826 C18.6494,19.4426 18.9344,19.1956 19.1964,18.9236 C18.2954,15.7936 15.4204,13.4996 12.0004,13.4996 C8.5804,13.4996 5.7054,15.7936 4.8034,18.9236 C5.0654,19.1956 5.3504,19.4426 5.6404,19.6826 C6.2554,16.6936 8.8994,14.4996 12.0004,14.4996 C15.1004,14.4996 17.7454,16.6936 18.3594,19.6826 Z M12.0004,3.9996 C9.7944,3.9996 8.0004,5.7936 8.0004,7.9996 C8.0004,10.2056 9.7944,11.9996 12.0004,11.9996 C14.2064,11.9996 16.0004,10.2056 16.0004,7.9996 C16.0004,5.7936 14.2064,3.9996 12.0004,3.9996 Z M12.0004,0.9996 C18.0754,0.9996 23.0004,5.9246 23.0004,11.9996 C23.0004,18.0756 18.0754,22.9996 12.0004,22.9996 C5.9244,22.9996 1.0004,18.0756 1.0004,11.9996 C1.0004,5.9246 5.9244,0.9996 12.0004,0.9996 Z"/>
        <use fill="#A9B6BE" xlink:href="#5-e"/>
      </g>
      <g transform="translate(24 12)">
        <path fill="#F3F6FA" d="M21.0084545,9.96610807 L21,20.0353752 C21,21.1403752 20.1,22.0403752 18.995,22.0403752 L16.005,22.0403752 C14.897,22.0403752 14,21.1423752 14,20.0353752 L14,17.0433752 C14,16.4913752 13.549,16.0403752 12.997,16.0403752 L11.003,16.0403752 C10.449,16.0403752 10,16.4893752 10,17.0433752 L10,20.0353752 C10,21.1423752 9.102,22.0403752 7.995,22.0403752 L5.005,22.0403752 C3.897,22.0403752 3,21.1423752 3,20.0353752 L3,9.95965965 L1.81613021,10.9257098 C1.6021803,11.1002952 1.28721023,11.0683839 1.11262487,10.854434 C0.938039506,10.6404841 0.969950772,10.325514 1.18390068,10.1509287 L10.3152218,2.70300627 C11.2455388,1.77142355 12.7544921,1.77142355 13.6471302,2.66892865 L22.8161302,10.1509287 C23.0300801,10.325514 23.0619914,10.6404841 22.887406,10.854434 C22.7128207,11.0683839 22.3978506,11.1002952 22.1839007,10.9257098 L21.0084545,9.96610807 Z"/>
        <use fill="#314351" xlink:href="#5-f"/>
      </g>
    </g>
  </g>
</svg>
