<svg xmlns="http://www.w3.org/2000/svg" xmlns:xlink="http://www.w3.org/1999/xlink" width="320" height="400" viewBox="0 0 320 400">
  <defs>
    <linearGradient id="1-c" x1="-12.779%" x2="65.803%" y1="-20.088%" y2="87.803%">
      <stop offset="0%" stop-color="#266900"/>
      <stop offset="10%" stop-color="#357A0C"/>
      <stop offset="34%" stop-color="#539D26"/>
      <stop offset="57%" stop-color="#6AB738"/>
      <stop offset="78%" stop-color="#77C743"/>
      <stop offset="94%" stop-color="#7CCC47"/>
    </linearGradient>
    <linearGradient id="1-d" x1="17.52%" x2="84.52%" y1="21.84%" y2="82.98%">
      <stop offset="0%" stop-color="#266900" stop-opacity=".94"/>
      <stop offset="72%" stop-color="#7CCC47" stop-opacity="0"/>
    </linearGradient>
    <linearGradient id="1-e" x1="-37.982%" y1="50.002%" y2="50.002%">
      <stop offset="0%" stop-color="#266900"/>
      <stop offset="10%" stop-color="#357A0C"/>
      <stop offset="34%" stop-color="#539D26"/>
      <stop offset="57%" stop-color="#6AB738"/>
      <stop offset="78%" stop-color="#77C743"/>
      <stop offset="94%" stop-color="#7CCC47"/>
    </linearGradient>
    <linearGradient id="1-f" x1="50.006%" x2="50.006%" y1="-68.257%" y2="163.674%">
      <stop offset="0%" stop-color="#6DB33F" stop-opacity=".94"/>
      <stop offset="29%" stop-color="#73BD42" stop-opacity=".96"/>
      <stop offset="79%" stop-color="#7CCC47"/>
    </linearGradient>
    <rect id="1-a" width="160" height="160"/>
    <mask id="1-g" width="160" height="160" x="0" y="0" fill="#fff">
      <use xlink:href="#1-a"/>
    </mask>
    <rect id="1-b" width="160" height="32"/>
    <mask id="1-h" width="160" height="32" x="0" y="0" fill="#fff">
      <use xlink:href="#1-b"/>
    </mask>
  </defs>
  <g fill="none" fill-rule="evenodd">
    <rect width="320" height="400" fill="#FFF" fill-opacity=".01" fill-rule="nonzero"/>
    <g transform="translate(6 12)">
      <g transform="translate(79 20)">
        <path fill="#3F5564" d="M2.145,207.596 C2.145,207.353 2.226,207.11 2.361,206.84 L9.381,191.18 C9.759,190.343 10.434,189.83 11.379,189.83 L11.541,189.83 C12.486,189.83 13.134,190.343 13.512,191.18 L20.532,206.84 C20.667,207.083 20.721,207.326 20.721,207.542 C20.721,208.433 20.046,209.135 19.155,209.135 C18.372,209.135 17.832,208.676 17.535,207.974 L15.996,204.437 L6.816,204.437 L5.223,208.082 C4.953,208.757 4.386,209.135 3.684,209.135 C2.82,209.135 2.145,208.46 2.145,207.596 Z M8.085,201.494 L14.727,201.494 L11.406,193.853 L8.085,201.494 Z M23.934,211.835 L23.934,196.229 C23.934,195.311 24.636,194.582 25.554,194.582 C26.472,194.582 27.201,195.311 27.201,196.229 L27.201,197.12 C28.254,195.635 29.739,194.447 32.061,194.447 C35.409,194.447 38.676,197.093 38.676,201.845 L38.676,201.899 C38.676,206.624 35.436,209.297 32.061,209.297 C29.685,209.297 28.2,208.109 27.201,206.786 L27.201,211.835 C27.201,212.753 26.472,213.455 25.554,213.455 C24.663,213.455 23.934,212.753 23.934,211.835 Z M31.278,206.462 C33.519,206.462 35.355,204.707 35.355,201.899 L35.355,201.845 C35.355,199.091 33.492,197.282 31.278,197.282 C29.064,197.282 27.12,199.118 27.12,201.845 L27.12,201.899 C27.12,204.626 29.064,206.462 31.278,206.462 Z M42.051,211.835 L42.051,196.229 C42.051,195.311 42.753,194.582 43.671,194.582 C44.589,194.582 45.318,195.311 45.318,196.229 L45.318,197.12 C46.371,195.635 47.856,194.447 50.178,194.447 C53.526,194.447 56.793,197.093 56.793,201.845 L56.793,201.899 C56.793,206.624 53.553,209.297 50.178,209.297 C47.802,209.297 46.317,208.109 45.318,206.786 L45.318,211.835 C45.318,212.753 44.589,213.455 43.671,213.455 C42.78,213.455 42.051,212.753 42.051,211.835 Z M49.395,206.462 C51.636,206.462 53.472,204.707 53.472,201.899 L53.472,201.845 C53.472,199.091 51.609,197.282 49.395,197.282 C47.181,197.282 45.237,199.118 45.237,201.845 L45.237,201.899 C45.237,204.626 47.181,206.462 49.395,206.462 Z M60.357,207.515 L60.357,190.775 C60.357,189.884 61.059,189.155 61.977,189.155 C62.895,189.155 63.624,189.884 63.624,190.775 L63.624,207.515 C63.624,208.433 62.895,209.135 61.977,209.135 C61.086,209.135 60.357,208.433 60.357,207.515 Z M67.836,191.072 L67.836,190.91 C67.836,189.938 68.646,189.317 69.699,189.317 C70.752,189.317 71.562,189.938 71.562,190.91 L71.562,191.072 C71.562,192.044 70.752,192.692 69.699,192.692 C68.646,192.692 67.836,192.044 67.836,191.072 Z M68.079,207.515 L68.079,196.229 C68.079,195.311 68.781,194.582 69.699,194.582 C70.617,194.582 71.346,195.311 71.346,196.229 L71.346,207.515 C71.346,208.433 70.617,209.135 69.699,209.135 C68.808,209.135 68.079,208.433 68.079,207.515 Z M82.2,209.324 C77.961,209.324 74.829,206.003 74.829,201.953 L74.829,201.899 C74.829,197.849 77.961,194.447 82.254,194.447 C84.495,194.447 86.034,195.176 87.249,196.229 C87.465,196.418 87.762,196.823 87.762,197.363 C87.762,198.2 87.087,198.848 86.25,198.848 C85.845,198.848 85.494,198.686 85.278,198.524 C84.441,197.822 83.523,197.309 82.227,197.309 C79.851,197.309 78.096,199.361 78.096,201.845 L78.096,201.899 C78.096,204.437 79.851,206.462 82.362,206.462 C83.658,206.462 84.657,205.949 85.548,205.193 C85.737,205.031 86.061,204.842 86.439,204.842 C87.222,204.842 87.843,205.49 87.843,206.273 C87.843,206.705 87.681,207.056 87.384,207.299 C86.115,208.514 84.576,209.324 82.2,209.324 Z M95.133,209.297 C92.46,209.297 90.084,207.758 90.084,204.896 L90.084,204.842 C90.084,201.764 92.487,200.252 95.97,200.252 C97.563,200.252 98.697,200.495 99.804,200.846 L99.804,200.495 C99.804,198.47 98.562,197.39 96.267,197.39 C95.025,197.39 93.999,197.606 93.108,197.957 C92.919,198.011 92.757,198.038 92.595,198.038 C91.839,198.038 91.218,197.444 91.218,196.688 C91.218,196.094 91.623,195.581 92.109,195.392 C93.459,194.879 94.836,194.555 96.699,194.555 C98.832,194.555 100.425,195.122 101.424,196.148 C102.477,197.174 102.963,198.686 102.963,200.549 L102.963,207.569 C102.963,208.46 102.261,209.135 101.37,209.135 C100.425,209.135 99.777,208.487 99.777,207.758 L99.777,207.218 C98.805,208.379 97.32,209.297 95.133,209.297 Z M96.051,206.921 C98.211,206.921 99.858,205.679 99.858,203.87 L99.858,202.898 C99.021,202.574 97.914,202.331 96.618,202.331 C94.512,202.331 93.27,203.222 93.27,204.707 L93.27,204.761 C93.27,206.138 94.485,206.921 96.051,206.921 Z M111.522,209.243 C109.119,209.243 107.418,208.19 107.418,205.058 L107.418,197.552 L106.878,197.552 C106.095,197.552 105.474,196.931 105.474,196.148 C105.474,195.365 106.095,194.744 106.878,194.744 L107.418,194.744 L107.418,192.314 C107.418,191.423 108.147,190.694 109.065,190.694 C109.956,190.694 110.685,191.423 110.685,192.314 L110.685,194.744 L113.25,194.744 C114.033,194.744 114.681,195.365 114.681,196.148 C114.681,196.931 114.033,197.552 113.25,197.552 L110.685,197.552 L110.685,204.545 C110.685,205.814 111.333,206.327 112.44,206.327 C112.818,206.327 113.142,206.246 113.25,206.246 C113.979,206.246 114.627,206.84 114.627,207.596 C114.627,208.19 114.222,208.676 113.763,208.865 C113.061,209.108 112.386,209.243 111.522,209.243 Z M117.786,191.072 L117.786,190.91 C117.786,189.938 118.596,189.317 119.649,189.317 C120.702,189.317 121.512,189.938 121.512,190.91 L121.512,191.072 C121.512,192.044 120.702,192.692 119.649,192.692 C118.596,192.692 117.786,192.044 117.786,191.072 Z M118.029,207.515 L118.029,196.229 C118.029,195.311 118.731,194.582 119.649,194.582 C120.567,194.582 121.296,195.311 121.296,196.229 L121.296,207.515 C121.296,208.433 120.567,209.135 119.649,209.135 C118.758,209.135 118.029,208.433 118.029,207.515 Z M132.339,209.324 C127.992,209.324 124.779,206.003 124.779,201.953 L124.779,201.899 C124.779,197.822 128.019,194.447 132.393,194.447 C136.767,194.447 139.98,197.768 139.98,201.845 L139.98,201.899 C139.98,205.949 136.74,209.324 132.339,209.324 Z M132.393,206.462 C135.039,206.462 136.713,204.41 136.713,201.953 L136.713,201.899 C136.713,199.388 134.904,197.309 132.339,197.309 C129.72,197.309 128.046,199.361 128.046,201.845 L128.046,201.899 C128.046,204.383 129.855,206.462 132.393,206.462 Z M143.301,207.515 L143.301,196.229 C143.301,195.311 144.003,194.582 144.921,194.582 C145.839,194.582 146.568,195.311 146.568,196.229 L146.568,196.931 C147.486,195.608 148.809,194.447 151.023,194.447 C154.236,194.447 156.099,196.607 156.099,199.901 L156.099,207.515 C156.099,208.433 155.397,209.135 154.479,209.135 C153.561,209.135 152.832,208.433 152.832,207.515 L152.832,200.9 C152.832,198.686 151.725,197.417 149.781,197.417 C147.891,197.417 146.568,198.74 146.568,200.954 L146.568,207.515 C146.568,208.433 145.839,209.135 144.921,209.135 C144.03,209.135 143.301,208.433 143.301,207.515 Z"/>
        <g transform="translate(16 16)">
          <rect width="128" height="128"/>
          <path fill="url(#1-c)" d="M109.976774,25.2123297 L73.7353405,4.58781362 C67.6998969,1.1517418 60.3001031,1.1517418 54.2646595,4.58781362 L18.0209319,25.2215054 C11.8756418,28.7206546 8.08095125,35.2486083 8.08143369,42.3202867 L8.08143369,58.4166308 L23.9415054,67.5739068 C25.0524584,68.2158709 26.4217762,68.2152273 27.5321253,67.5722192 C28.6424744,66.929211 29.3245712,65.7418713 29.3207168,64.4587814 L29.3207168,45.1899642 C29.321442,43.9098855 30.0041501,42.7271659 31.1122581,42.0863082 L62.2084588,24.1341935 C63.3170683,23.4941375 64.6829317,23.4941375 65.7915412,24.1341935 L96.8877419,42.0886022 C97.996542,42.7287681 98.6795031,43.9119261 98.6792832,45.1922581 L98.6792832,64.4587814 C98.680009,65.7391132 99.3634144,66.9218966 100.472278,67.561953 C101.581141,68.2020093 102.947164,68.2021939 104.056201,67.5624373 L119.916272,58.4051613 L119.916272,42.3111111 C119.916755,35.2394327 116.122064,28.711479 109.976774,25.2123297 Z"/>
          <path fill="url(#1-d)" d="M116.248315,97.5575627 L67.6702509,125.605161 C65.3990917,126.916416 62.6009083,126.916416 60.3297491,125.605161 L40.861362,114.365018 L103.489606,41.2903226 L119.916272,56.0332616 L119.916272,91.2034409 C119.915696,93.8244265 118.517683,96.2462509 116.248315,97.5575627 Z"/>
          <path fill="#FFF" d="M105.937204,83.2206452 L105.937204,48.5230108 C105.936468,44.2762291 103.67104,40.352167 99.9936918,38.227957 L69.9458065,20.874552 C66.2665286,18.7503199 61.7334714,18.7503199 58.0541935,20.874552 L28.0040143,38.2233692 C24.3266666,40.3475792 22.0612376,44.2716413 22.0605018,48.5184229 L22.0605018,83.2206452 C22.0604184,87.4682463 24.325957,91.3933729 28.0040143,93.5179928 L58.0541935,110.86681 C61.7341042,112.988679 66.2658958,112.988679 69.9458065,110.86681 L99.9959857,93.5179928 C103.67316,91.3927902 105.937761,87.4677734 105.937204,83.2206452 Z"/>
          <path fill="url(#1-e)" d="M119.916272,84.0785663 L119.916273,70.916129 L78.1121147,95.0526165 C69.3817132,100.090386 58.6274624,100.090386 49.8970609,95.0526165 L8.0837276,70.916129 L8.0837276,84.0785663 C8.08353575,91.1087205 11.8340017,97.6049229 17.9222939,101.12 L54.1660215,122.042724 C60.254401,125.556759 67.7547746,125.556759 73.8431541,122.042724 L110.086882,101.12 C116.171642,97.6025918 119.918357,91.1068284 119.916272,84.0785663 Z"/>
          <path fill="url(#1-f)" d="M39.8956272,50.3948387 C39.5355813,49.5781317 38.860974,48.9414369 38.0248293,48.6291783 C37.1886846,48.3169197 36.2618718,48.3555635 35.4546237,48.7363441 C34.6308846,49.0885114 33.9891684,49.7652556 33.6812362,50.6065318 C33.3733039,51.447808 33.4264999,52.3789108 33.8282437,53.1796416 L41.2719713,69.3562724 C42.4418638,71.8933333 43.6759857,73.2215054 45.9905376,73.2215054 C48.4656631,73.2215054 49.5437993,71.7740502 50.7136918,69.3562724 C50.7136918,69.3562724 57.205448,55.2189247 57.2696774,55.0744086 C57.4156871,54.6899045 57.795107,54.4453275 58.2055914,54.4711111 C58.4809685,54.4723105 58.7444507,54.5834921 58.9374428,54.7799305 C59.1304348,54.9763688 59.236936,55.2417774 59.2332616,55.5171326 L59.2332616,69.3149821 C59.2332616,71.4758423 60.4329749,73.2490323 62.7383513,73.2490323 C65.0437276,73.2490323 66.2939068,71.4758423 66.2939068,69.3149821 L66.2939068,57.9853763 C66.2939068,56.0194982 67.594552,54.6936201 69.4319713,54.5055197 C71.5400717,54.276129 73.3499642,56.0080287 73.3499642,58.1253047 L73.3499642,69.317276 C73.3499642,71.4758423 74.5496774,73.2467384 76.8504659,73.2467384 C79.1512545,73.2467384 80.4037276,71.4758423 80.4037276,69.317276 L80.4037276,57.9853763 C80.4037276,55.8589247 81.9222939,54.4802867 84.0005735,54.4802867 C86.078853,54.4802867 87.4597849,55.9070968 87.4597849,57.9853763 L87.4597849,69.3149821 C87.4597849,71.4758423 88.6594982,73.2490323 90.9625806,73.2490323 C93.2656631,73.2490323 94.5089606,71.4758423 94.5089606,69.3149821 L94.5089606,56.4691039 C94.5089606,51.7367742 90.707957,48.4243728 86.1270251,48.4243728 C81.5460932,48.4243728 78.6810036,51.5876703 78.6810036,51.5876703 C77.1601434,49.6126165 75.0612186,48.4266667 71.5102509,48.4266667 C67.7643011,48.4266667 64.4840143,51.5876703 64.4840143,51.5876703 C62.9608602,49.6126165 60.3664516,48.4266667 58.2193548,48.4266667 C54.9000717,48.4266667 52.2551971,49.8878853 50.6494624,53.5650179 L45.8964875,64.7684588 L39.7992832,50.3948387"/>
        </g>
      </g>
      <use fill-rule="nonzero" stroke="#F897BF" stroke-dasharray="1" stroke-width="2" mask="url(#1-g)" transform="translate(79 20)" xlink:href="#1-a"/>
      <use fill-rule="nonzero" stroke="#6FEAD9" stroke-dasharray="1" stroke-width="2" mask="url(#1-h)" transform="translate(79 204)" xlink:href="#1-b"/>
      <g fill="#C41261" transform="translate(79 11)">
        <rect width="1" height="9"/>
        <rect width="1" height="9" x="159"/>
        <rect width="158" height="1" x="1" y="4"/>
      </g>
      <g fill="#C41261" transform="translate(70 180)">
        <rect width="1" height="22" x="4" y="1"/>
        <rect width="9" height="1"/>
        <rect width="9" height="1" y="23"/>
      </g>
      <g fill="#00AB9A" transform="translate(239 204)">
        <rect width="1" height="30" x="4" y="1"/>
        <rect width="9" height="1"/>
        <rect width="9" height="1" y="31"/>
      </g>
      <path fill="#00AB9A" d="M91.1245,260.929 L91.9605,260.929 L91.9605,261.644 C92.4005,261.05 92.8405,260.808 93.4675,260.808 C93.9295,260.808 94.3475,260.962 94.6445,261.226 C94.9635,261.534 95.0735,261.886 95.0735,262.579 L95.0735,266 L94.2375,266 L94.2375,262.766 C94.2375,262.315 94.1825,262.073 94.0505,261.897 C93.8965,261.688 93.5995,261.556 93.2585,261.556 C92.8845,261.556 92.5435,261.699 92.2905,261.985 C92.0485,262.249 91.9605,262.491 91.9605,262.909 L91.9605,266 L91.1245,266 L91.1245,260.929 Z M98.9125,260.808 C100.4085,260.808 101.4755,261.919 101.4755,263.481 C101.4755,264.966 100.3315,266.121 98.8795,266.121 C97.3725,266.121 96.3165,265.021 96.3165,263.459 C96.3165,261.886 97.3725,260.808 98.9125,260.808 Z M98.9125,261.578 C97.8675,261.578 97.1745,262.337 97.1745,263.47 C97.1745,264.592 97.8675,265.351 98.9015,265.351 C99.9025,265.351 100.6175,264.57 100.6175,263.47 C100.6175,262.337 99.9355,261.578 98.9125,261.578 Z M106.9755,261.666 L106.9755,266 L106.1395,266 L106.1395,261.666 L105.4465,261.666 L105.4465,260.929 L106.1395,260.929 L106.1395,260.247 C106.1395,259.246 106.6565,258.652 107.5365,258.652 C107.5805,258.652 107.6795,258.652 107.7675,258.663 L107.7675,259.411 C107.1625,259.477 106.9975,259.653 106.9755,260.247 L106.9755,260.929 L107.7675,260.929 L107.7675,261.666 L106.9755,261.666 Z M109.9675,260.929 L109.9675,266 L109.1315,266 L109.1315,260.929 L109.9675,260.929 Z M109.5495,258.96 C109.8465,258.96 110.0775,259.202 110.0775,259.51 C110.0775,259.807 109.8465,260.038 109.5495,260.038 C109.2415,260.038 109.0105,259.807 109.0105,259.499 C109.0105,259.191 109.2415,258.96 109.5495,258.96 Z M113.2675,264.163 L111.9145,266 L110.8915,266 L112.7615,263.481 L110.8585,260.929 L111.9145,260.929 L113.2675,262.788 L114.6535,260.929 L115.6765,260.929 L113.7625,263.481 L115.5885,266 L114.5655,266 L113.2675,264.163 Z M121.2645,263.734 L117.0405,263.734 C117.0845,264.163 117.1615,264.383 117.3705,264.658 C117.7005,265.109 118.1845,265.351 118.7345,265.351 C119.3615,265.351 119.9555,265.01 120.2525,264.482 L120.9895,264.757 C120.5715,265.604 119.7025,266.121 118.7345,266.121 C117.2275,266.121 116.1495,265.021 116.1495,263.481 C116.1495,261.919 117.2165,260.808 118.7015,260.808 C120.1755,260.808 121.2755,261.919 121.2755,263.404 C121.2755,263.47 121.2755,263.613 121.2645,263.734 Z M117.0515,263.118 L120.3845,263.118 C120.3515,262.722 120.2745,262.502 120.0985,262.249 C119.7795,261.82 119.2625,261.556 118.7015,261.556 C118.1405,261.556 117.6345,261.82 117.3375,262.26 C117.1835,262.502 117.1175,262.711 117.0515,263.118 Z M126.2805,261.699 L126.2805,258.663 L127.1165,258.663 L127.1165,266 L126.2805,266 L126.2805,265.131 C125.7745,265.824 125.2355,266.121 124.4655,266.121 C123.0685,266.121 122.0785,265.032 122.0785,263.492 C122.0785,261.952 123.0905,260.808 124.4655,260.808 C125.2135,260.808 125.7855,261.083 126.2805,261.699 Z M124.6415,261.556 C123.6405,261.556 122.9585,262.348 122.9585,263.503 C122.9585,264.614 123.6295,265.395 124.5865,265.395 C125.5655,265.395 126.2805,264.581 126.2805,263.481 C126.2805,262.337 125.6095,261.556 124.6415,261.556 Z M137.9515,260.929 L138.8095,260.929 L137.0055,266 L136.2465,266 L135.0805,262.15 L133.8595,266 L133.0675,266 L131.3295,260.929 L132.1875,260.929 L133.4855,264.658 L134.6515,260.929 L135.4765,260.929 L136.6205,264.658 L137.9515,260.929 Z M140.5475,260.929 L140.5475,266 L139.7115,266 L139.7115,260.929 L140.5475,260.929 Z M140.1405,258.96 C140.4375,258.96 140.6685,259.202 140.6685,259.51 C140.6685,259.807 140.4265,260.038 140.1295,260.038 C139.8325,260.038 139.6015,259.807 139.6015,259.499 C139.6015,259.191 139.8325,258.96 140.1405,258.96 Z M146.0255,261.699 L146.0255,258.663 L146.8615,258.663 L146.8615,266 L146.0255,266 L146.0255,265.131 C145.5195,265.824 144.9805,266.121 144.2105,266.121 C142.8135,266.121 141.8235,265.032 141.8235,263.492 C141.8235,261.952 142.8355,260.808 144.2105,260.808 C144.9585,260.808 145.5305,261.083 146.0255,261.699 Z M144.3865,261.556 C143.3855,261.556 142.7035,262.348 142.7035,263.503 C142.7035,264.614 143.3745,265.395 144.3315,265.395 C145.3105,265.395 146.0255,264.581 146.0255,263.481 C146.0255,262.337 145.3545,261.556 144.3865,261.556 Z M149.4355,261.666 L149.4355,264.966 C149.4465,265.219 149.5125,265.274 149.8205,265.274 L150.2055,265.274 L150.2055,266 L149.4245,266 C148.8305,265.989 148.5995,265.769 148.5995,265.208 L148.5995,261.666 L147.8955,261.666 L147.8955,260.929 L148.5995,260.929 L148.5995,259.334 L149.4355,259.334 L149.4355,260.929 L150.2055,260.929 L150.2055,261.666 L149.4355,261.666 Z M152.2295,258.663 L152.2295,261.633 C152.6915,261.061 153.1535,260.808 153.7585,260.808 C154.1985,260.808 154.6605,260.984 154.9355,261.27 C155.2105,261.545 155.3315,261.941 155.3315,262.59 L155.3315,266 L154.4955,266 L154.4955,262.634 C154.4955,261.941 154.1545,261.556 153.5495,261.556 C153.1645,261.556 152.8235,261.71 152.5595,262.007 C152.3065,262.293 152.2295,262.546 152.2295,263.03 L152.2295,266 L151.3935,266 L151.3935,258.663 L152.2295,258.663 Z M158.0045,265.142 L156.8935,267.749 L156.2885,267.562 L157.2125,264.889 L158.0045,265.142 Z M166.6175,261.699 L166.6175,258.663 L167.4535,258.663 L167.4535,266 L166.6175,266 L166.6175,265.131 C166.1115,265.824 165.5725,266.121 164.8025,266.121 C163.4055,266.121 162.4155,265.032 162.4155,263.492 C162.4155,261.952 163.4275,260.808 164.8025,260.808 C165.5505,260.808 166.1225,261.083 166.6175,261.699 Z M164.9785,261.556 C163.9775,261.556 163.2955,262.348 163.2955,263.503 C163.2955,264.614 163.9665,265.395 164.9235,265.395 C165.9025,265.395 166.6175,264.581 166.6175,263.481 C166.6175,262.337 165.9465,261.556 164.9785,261.556 Z M173.8445,263.734 L169.6205,263.734 C169.6645,264.163 169.7415,264.383 169.9505,264.658 C170.2805,265.109 170.7645,265.351 171.3145,265.351 C171.9415,265.351 172.5355,265.01 172.8325,264.482 L173.5695,264.757 C173.1515,265.604 172.2825,266.121 171.3145,266.121 C169.8075,266.121 168.7295,265.021 168.7295,263.481 C168.7295,261.919 169.7965,260.808 171.2815,260.808 C172.7555,260.808 173.8555,261.919 173.8555,263.404 C173.8555,263.47 173.8555,263.613 173.8445,263.734 Z M169.6315,263.118 L172.9645,263.118 C172.9315,262.722 172.8545,262.502 172.6785,262.249 C172.3595,261.82 171.8425,261.556 171.2815,261.556 C170.7205,261.556 170.2145,261.82 169.9175,262.26 C169.7635,262.502 169.6975,262.711 169.6315,263.118 Z M175.0655,260.929 L175.9015,260.929 L175.9015,261.853 C176.3855,261.105 176.9025,260.808 177.7495,260.808 C179.1575,260.808 180.1365,261.886 180.1365,263.426 C180.1365,265.021 179.1575,266.121 177.7495,266.121 C177.3535,266.121 176.9905,266.033 176.6385,265.857 C176.3305,265.703 176.1765,265.571 175.9015,265.208 L175.9015,268.376 L175.0655,268.376 L175.0655,260.929 Z M177.6065,261.556 C176.5945,261.556 175.9015,262.359 175.9015,263.547 C175.9015,264.658 176.5725,265.395 177.5735,265.395 C178.5745,265.395 179.2455,264.614 179.2455,263.459 C179.2455,262.865 179.1025,262.414 178.8055,262.084 C178.5085,261.754 178.0575,261.556 177.6065,261.556 Z M186.1095,263.734 L181.8855,263.734 C181.9295,264.163 182.0065,264.383 182.2155,264.658 C182.5455,265.109 183.0295,265.351 183.5795,265.351 C184.2065,265.351 184.8005,265.01 185.0975,264.482 L185.8345,264.757 C185.4165,265.604 184.5475,266.121 183.5795,266.121 C182.0725,266.121 180.9945,265.021 180.9945,263.481 C180.9945,261.919 182.0615,260.808 183.5465,260.808 C185.0205,260.808 186.1205,261.919 186.1205,263.404 C186.1205,263.47 186.1205,263.613 186.1095,263.734 Z M181.8965,263.118 L185.2295,263.118 C185.1965,262.722 185.1195,262.502 184.9435,262.249 C184.6245,261.82 184.1075,261.556 183.5465,261.556 C182.9855,261.556 182.4795,261.82 182.1825,262.26 C182.0285,262.502 181.9625,262.711 181.8965,263.118 Z M187.3305,260.929 L188.1665,260.929 L188.1665,261.644 C188.6065,261.05 189.0465,260.808 189.6735,260.808 C190.1355,260.808 190.5535,260.962 190.8505,261.226 C191.1695,261.534 191.2795,261.886 191.2795,262.579 L191.2795,266 L190.4435,266 L190.4435,262.766 C190.4435,262.315 190.3885,262.073 190.2565,261.897 C190.1025,261.688 189.8055,261.556 189.4645,261.556 C189.0905,261.556 188.7495,261.699 188.4965,261.985 C188.2545,262.249 188.1665,262.491 188.1665,262.909 L188.1665,266 L187.3305,266 L187.3305,260.929 Z M196.7245,261.699 L196.7245,258.663 L197.5605,258.663 L197.5605,266 L196.7245,266 L196.7245,265.131 C196.2185,265.824 195.6795,266.121 194.9095,266.121 C193.5125,266.121 192.5225,265.032 192.5225,263.492 C192.5225,261.952 193.5345,260.808 194.9095,260.808 C195.6575,260.808 196.2295,261.083 196.7245,261.699 Z M195.0855,261.556 C194.0845,261.556 193.4025,262.348 193.4025,263.503 C193.4025,264.614 194.0735,265.395 195.0305,265.395 C196.0095,265.395 196.7245,264.581 196.7245,263.481 C196.7245,262.337 196.0535,261.556 195.0855,261.556 Z M203.9515,263.734 L199.7275,263.734 C199.7715,264.163 199.8485,264.383 200.0575,264.658 C200.3875,265.109 200.8715,265.351 201.4215,265.351 C202.0485,265.351 202.6425,265.01 202.9395,264.482 L203.6765,264.757 C203.2585,265.604 202.3895,266.121 201.4215,266.121 C199.9145,266.121 198.8365,265.021 198.8365,263.481 C198.8365,261.919 199.9035,260.808 201.3885,260.808 C202.8625,260.808 203.9625,261.919 203.9625,263.404 C203.9625,263.47 203.9625,263.613 203.9515,263.734 Z M199.7385,263.118 L203.0715,263.118 C203.0385,262.722 202.9615,262.502 202.7855,262.249 C202.4665,261.82 201.9495,261.556 201.3885,261.556 C200.8275,261.556 200.3215,261.82 200.0245,262.26 C199.8705,262.502 199.8045,262.711 199.7385,263.118 Z M205.1725,260.929 L206.0085,260.929 L206.0085,261.644 C206.4485,261.05 206.8885,260.808 207.5155,260.808 C207.9775,260.808 208.3955,260.962 208.6925,261.226 C209.0115,261.534 209.1215,261.886 209.1215,262.579 L209.1215,266 L208.2855,266 L208.2855,262.766 C208.2855,262.315 208.2305,262.073 208.0985,261.897 C207.9445,261.688 207.6475,261.556 207.3065,261.556 C206.9325,261.556 206.5915,261.699 206.3385,261.985 C206.0965,262.249 206.0085,262.491 206.0085,262.909 L206.0085,266 L205.1725,266 L205.1725,260.929 Z M211.6625,261.666 L211.6625,264.966 C211.6735,265.219 211.7395,265.274 212.0475,265.274 L212.4325,265.274 L212.4325,266 L211.6515,266 C211.0575,265.989 210.8265,265.769 210.8265,265.208 L210.8265,261.666 L210.1225,261.666 L210.1225,260.929 L210.8265,260.929 L210.8265,259.334 L211.6625,259.334 L211.6625,260.929 L212.4325,260.929 L212.4325,261.666 L211.6625,261.666 Z M219.1095,260.808 C220.6055,260.808 221.6725,261.919 221.6725,263.481 C221.6725,264.966 220.5285,266.121 219.0765,266.121 C217.5695,266.121 216.5135,265.021 216.5135,263.459 C216.5135,261.886 217.5695,260.808 219.1095,260.808 Z M219.1095,261.578 C218.0645,261.578 217.3715,262.337 217.3715,263.47 C217.3715,264.592 218.0645,265.351 219.0985,265.351 C220.0995,265.351 220.8145,264.57 220.8145,263.47 C220.8145,262.337 220.1325,261.578 219.1095,261.578 Z M222.9485,260.929 L223.7845,260.929 L223.7845,261.644 C224.2245,261.05 224.6645,260.808 225.2915,260.808 C225.7535,260.808 226.1715,260.962 226.4685,261.226 C226.7875,261.534 226.8975,261.886 226.8975,262.579 L226.8975,266 L226.0615,266 L226.0615,262.766 C226.0615,262.315 226.0065,262.073 225.8745,261.897 C225.7205,261.688 225.4235,261.556 225.0825,261.556 C224.7085,261.556 224.3675,261.699 224.1145,261.985 C223.8725,262.249 223.7845,262.491 223.7845,262.909 L223.7845,266 L222.9485,266 L222.9485,260.929 Z M114.2135,280 L113.3775,280 L113.3775,272.663 L114.2135,272.663 L114.2135,280 Z M120.6045,277.734 L116.3805,277.734 C116.4245,278.163 116.5015,278.383 116.7105,278.658 C117.0405,279.109 117.5245,279.351 118.0745,279.351 C118.7015,279.351 119.2955,279.01 119.5925,278.482 L120.3295,278.757 C119.9115,279.604 119.0425,280.121 118.0745,280.121 C116.5675,280.121 115.4895,279.021 115.4895,277.481 C115.4895,275.919 116.5565,274.808 118.0415,274.808 C119.5155,274.808 120.6155,275.919 120.6155,277.404 C120.6155,277.47 120.6155,277.613 120.6045,277.734 Z M116.3915,277.118 L119.7245,277.118 C119.6915,276.722 119.6145,276.502 119.4385,276.249 C119.1195,275.82 118.6025,275.556 118.0415,275.556 C117.4805,275.556 116.9745,275.82 116.6775,276.26 C116.5235,276.502 116.4575,276.711 116.3915,277.118 Z M121.8255,274.929 L122.6615,274.929 L122.6615,275.644 C123.1015,275.05 123.5415,274.808 124.1685,274.808 C124.6305,274.808 125.0485,274.962 125.3455,275.226 C125.6645,275.534 125.7745,275.886 125.7745,276.579 L125.7745,280 L124.9385,280 L124.9385,276.766 C124.9385,276.315 124.8835,276.073 124.7515,275.897 C124.5975,275.688 124.3005,275.556 123.9595,275.556 C123.5855,275.556 123.2445,275.699 122.9915,275.985 C122.7495,276.249 122.6615,276.491 122.6615,276.909 L122.6615,280 L121.8255,280 L121.8255,274.929 Z M131.1755,275.798 L131.1755,274.929 L132.0115,274.929 L132.0115,280.033 C132.0115,280.88 131.8025,281.452 131.3405,281.892 C130.8895,282.332 130.2405,282.563 129.4705,282.563 C128.5245,282.563 127.7765,282.255 127.2265,281.639 L127.7985,281.067 C128.0295,281.309 128.1395,281.408 128.2825,281.507 C128.5685,281.683 129.0415,281.804 129.4705,281.804 C129.9985,281.804 130.5045,281.617 130.7905,281.309 C131.0435,281.034 131.1755,280.627 131.1755,280.099 L131.1755,279.032 C130.6805,279.78 130.0975,280.121 129.3055,280.121 C127.9635,280.121 126.9625,278.988 126.9625,277.481 C126.9625,276.667 127.2595,275.886 127.7655,275.402 C128.1725,275.006 128.7225,274.808 129.3715,274.808 C130.1415,274.808 130.6585,275.094 131.1755,275.798 Z M129.5255,275.578 C128.5355,275.578 127.8425,276.348 127.8425,277.448 C127.8425,278.537 128.5465,279.351 129.5035,279.351 C129.9875,279.351 130.4605,279.12 130.7905,278.735 C131.0105,278.482 131.1535,277.987 131.1535,277.481 C131.1535,276.821 131.0545,276.469 130.7575,276.139 C130.4495,275.798 129.9765,275.578 129.5255,275.578 Z M134.5855,275.666 L134.5855,278.966 C134.5965,279.219 134.6625,279.274 134.9705,279.274 L135.3555,279.274 L135.3555,280 L134.5745,280 C133.9805,279.989 133.7495,279.769 133.7495,279.208 L133.7495,275.666 L133.0455,275.666 L133.0455,274.929 L133.7495,274.929 L133.7495,273.334 L134.5855,273.334 L134.5855,274.929 L135.3555,274.929 L135.3555,275.666 L134.5855,275.666 Z M137.3795,272.663 L137.3795,275.633 C137.8415,275.061 138.3035,274.808 138.9085,274.808 C139.3485,274.808 139.8105,274.984 140.0855,275.27 C140.3605,275.545 140.4815,275.941 140.4815,276.59 L140.4815,280 L139.6455,280 L139.6455,276.634 C139.6455,275.941 139.3045,275.556 138.6995,275.556 C138.3145,275.556 137.9735,275.71 137.7095,276.007 C137.4565,276.293 137.3795,276.546 137.3795,277.03 L137.3795,280 L136.5435,280 L136.5435,272.663 L137.3795,272.663 Z M147.6205,274.808 C149.1165,274.808 150.1835,275.919 150.1835,277.481 C150.1835,278.966 149.0395,280.121 147.5875,280.121 C146.0805,280.121 145.0245,279.021 145.0245,277.459 C145.0245,275.886 146.0805,274.808 147.6205,274.808 Z M147.6205,275.578 C146.5755,275.578 145.8825,276.337 145.8825,277.47 C145.8825,278.592 146.5755,279.351 147.6095,279.351 C148.6105,279.351 149.3255,278.57 149.3255,277.47 C149.3255,276.337 148.6435,275.578 147.6205,275.578 Z M152.3835,275.666 L152.3835,280 L151.5475,280 L151.5475,275.666 L150.8545,275.666 L150.8545,274.929 L151.5475,274.929 L151.5475,274.247 C151.5475,273.246 152.0645,272.652 152.9445,272.652 C152.9885,272.652 153.0875,272.652 153.1755,272.663 L153.1755,273.411 C152.5705,273.477 152.4055,273.653 152.3835,274.247 L152.3835,274.929 L153.1755,274.929 L153.1755,275.666 L152.3835,275.666 Z M161.4365,275.765 L161.4365,274.929 L162.2725,274.929 L162.2725,280 L161.4365,280 L161.4365,279.021 C160.9305,279.78 160.3585,280.121 159.5885,280.121 C158.1915,280.121 157.2015,279.021 157.2015,277.481 C157.2015,275.93 158.2135,274.808 159.6105,274.808 C160.3805,274.808 160.9415,275.105 161.4365,275.765 Z M159.7315,275.556 C159.1815,275.556 158.7965,275.743 158.4995,276.161 C158.2355,276.524 158.0815,277.008 158.0815,277.503 C158.0815,278.581 158.7855,279.395 159.7095,279.395 C160.6665,279.395 161.4475,278.504 161.4475,277.415 C161.4475,276.315 160.7435,275.556 159.7315,275.556 Z M163.9555,274.929 L164.7915,274.929 L164.7915,275.853 C165.2755,275.105 165.7925,274.808 166.6395,274.808 C168.0475,274.808 169.0265,275.886 169.0265,277.426 C169.0265,279.021 168.0475,280.121 166.6395,280.121 C166.2435,280.121 165.8805,280.033 165.5285,279.857 C165.2205,279.703 165.0665,279.571 164.7915,279.208 L164.7915,282.376 L163.9555,282.376 L163.9555,274.929 Z M166.4965,275.556 C165.4845,275.556 164.7915,276.359 164.7915,277.547 C164.7915,278.658 165.4625,279.395 166.4635,279.395 C167.4645,279.395 168.1355,278.614 168.1355,277.459 C168.1355,276.865 167.9925,276.414 167.6955,276.084 C167.3985,275.754 166.9475,275.556 166.4965,275.556 Z M170.2915,274.929 L171.1275,274.929 L171.1275,275.853 C171.6115,275.105 172.1285,274.808 172.9755,274.808 C174.3835,274.808 175.3625,275.886 175.3625,277.426 C175.3625,279.021 174.3835,280.121 172.9755,280.121 C172.5795,280.121 172.2165,280.033 171.8645,279.857 C171.5565,279.703 171.4025,279.571 171.1275,279.208 L171.1275,282.376 L170.2915,282.376 L170.2915,274.929 Z M172.8325,275.556 C171.8205,275.556 171.1275,276.359 171.1275,277.547 C171.1275,278.658 171.7985,279.395 172.7995,279.395 C173.8005,279.395 174.4715,278.614 174.4715,277.459 C174.4715,276.865 174.3285,276.414 174.0315,276.084 C173.7345,275.754 173.2835,275.556 172.8325,275.556 Z M179.9275,274.929 L180.7635,274.929 L180.7635,275.644 C181.2035,275.05 181.6435,274.808 182.2705,274.808 C182.7325,274.808 183.1505,274.962 183.4475,275.226 C183.7665,275.534 183.8765,275.886 183.8765,276.579 L183.8765,280 L183.0405,280 L183.0405,276.766 C183.0405,276.315 182.9855,276.073 182.8535,275.897 C182.6995,275.688 182.4025,275.556 182.0615,275.556 C181.6875,275.556 181.3465,275.699 181.0935,275.985 C180.8515,276.249 180.7635,276.491 180.7635,276.909 L180.7635,280 L179.9275,280 L179.9275,274.929 Z M189.3545,275.765 L189.3545,274.929 L190.1905,274.929 L190.1905,280 L189.3545,280 L189.3545,279.021 C188.8485,279.78 188.2765,280.121 187.5065,280.121 C186.1095,280.121 185.1195,279.021 185.1195,277.481 C185.1195,275.93 186.1315,274.808 187.5285,274.808 C188.2985,274.808 188.8595,275.105 189.3545,275.765 Z M187.6495,275.556 C187.0995,275.556 186.7145,275.743 186.4175,276.161 C186.1535,276.524 185.9995,277.008 185.9995,277.503 C185.9995,278.581 186.7035,279.395 187.6275,279.395 C188.5845,279.395 189.3655,278.504 189.3655,277.415 C189.3655,276.315 188.6615,275.556 187.6495,275.556 Z M191.8735,274.929 L192.7095,274.929 L192.7095,275.633 C193.0945,275.05 193.5235,274.808 194.1505,274.808 C194.8435,274.808 195.2835,275.105 195.5145,275.732 C195.8885,275.083 196.3615,274.808 197.1205,274.808 C197.7035,274.808 198.1435,274.995 198.4075,275.347 C198.6495,275.666 198.7155,275.952 198.7155,276.755 L198.7155,280 L197.8795,280 L197.8795,276.953 C197.8795,276.337 197.8575,276.194 197.7365,275.985 C197.5825,275.721 197.2525,275.556 196.8565,275.556 C196.1195,275.556 195.7125,276.051 195.7125,276.953 L195.7125,280 L194.8765,280 L194.8765,276.964 C194.8765,276.469 194.8325,276.216 194.7115,275.996 C194.5685,275.71 194.2605,275.556 193.8865,275.556 C193.1495,275.556 192.7095,276.084 192.7095,276.964 L192.7095,280 L191.8735,280 L191.8735,274.929 Z M205.0735,277.734 L200.8495,277.734 C200.8935,278.163 200.9705,278.383 201.1795,278.658 C201.5095,279.109 201.9935,279.351 202.5435,279.351 C203.1705,279.351 203.7645,279.01 204.0615,278.482 L204.7985,278.757 C204.3805,279.604 203.5115,280.121 202.5435,280.121 C201.0365,280.121 199.9585,279.021 199.9585,277.481 C199.9585,275.919 201.0255,274.808 202.5105,274.808 C203.9845,274.808 205.0845,275.919 205.0845,277.404 C205.0845,277.47 205.0845,277.613 205.0735,277.734 Z M200.8605,277.118 L204.1935,277.118 C204.1605,276.722 204.0835,276.502 203.9075,276.249 C203.5885,275.82 203.0715,275.556 202.5105,275.556 C201.9495,275.556 201.4435,275.82 201.1465,276.26 C200.9925,276.502 200.9265,276.711 200.8605,277.118 Z"/>
      <g fill="#00AB9A" transform="translate(79 246)">
        <rect width="150" height="1" x="5" y="2"/>
        <polygon points="157.5 0 160 5 155 5" transform="rotate(90 157.5 2.5)"/>
        <polygon points="2.5 0 5 5 0 5" transform="matrix(0 1 1 0 0 0)"/>
      </g>
      <g transform="translate(79 305.989)">
        <rect width="23" height="23" x=".5" y=".5" stroke="#00AB9A" rx="2"/>
        <path fill="#00AB9A" d="M10.4655 14.306L7.1765 14.306 6.5055 16 5.5485 16 8.3095 8.663 9.4095 8.663 12.1045 16 11.0705 16 10.4655 14.306zM10.1795 13.514L8.8375 9.829 7.4515 13.514 10.1795 13.514zM16.8235 11.765L16.8235 10.929 17.6595 10.929 17.6595 16 16.8235 16 16.8235 15.021C16.3175 15.78 15.7455 16.121 14.9755 16.121 13.5785 16.121 12.5885 15.021 12.5885 13.481 12.5885 11.93 13.6005 10.808 14.9975 10.808 15.7675 10.808 16.3285 11.105 16.8235 11.765zM15.1185 11.556C14.5685 11.556 14.1835 11.743 13.8865 12.161 13.6225 12.524 13.4685 13.008 13.4685 13.503 13.4685 14.581 14.1725 15.395 15.0965 15.395 16.0535 15.395 16.8345 14.504 16.8345 13.415 16.8345 12.315 16.1305 11.556 15.1185 11.556zM30.904 9.455L30.904 16 29.98 16 29.98 9.455 28.11 9.455 28.11 8.663 32.763 8.663 32.763 9.455 30.904 9.455zM34.622 9.455L34.622 11.908 37.515 11.908 37.515 12.7 34.622 12.7 34.622 15.208 37.515 15.208 37.515 16 33.698 16 33.698 8.663 37.515 8.663 37.515 9.455 34.622 9.455zM41.134 13.074L39.264 16 38.142 16 40.595 12.26 38.23 8.663 39.341 8.663 41.134 11.446 42.938 8.663 44.016 8.663 41.662 12.26 44.082 16 43.015 16 41.134 13.074zM47.052 9.455L47.052 16 46.128 16 46.128 9.455 44.258 9.455 44.258 8.663 48.911 8.663 48.911 9.455 47.052 9.455zM50.286 14.944C50.616 14.944 50.858 15.186 50.858 15.527 50.858 15.846 50.605 16.088 50.286 16.088 49.956 16.088 49.714 15.846 49.714 15.516 49.714 15.186 49.956 14.944 50.286 14.944zM50.286 11.776C50.616 11.776 50.858 12.018 50.858 12.359 50.858 12.678 50.605 12.92 50.286 12.92 49.956 12.92 49.714 12.678 49.714 12.348 49.714 12.018 49.956 11.776 50.286 11.776zM58.976 12.029L62.474 12.029C62.485 12.183 62.485 12.381 62.485 12.447 62.485 13.426 62.265 14.108 61.726 14.79 61.022 15.67 60.076 16.132 58.965 16.132 56.875 16.132 55.346 14.537 55.346 12.348 55.346 10.126 56.864 8.531 58.965 8.531 60.076 8.531 61.033 8.993 61.726 9.862L61.033 10.423C60.747 10.104 60.615 9.972 60.417 9.84 60.01 9.543 59.493 9.378 58.965 9.378 57.447 9.378 56.292 10.654 56.292 12.337 56.292 13.998 57.447 15.285 58.943 15.285 59.757 15.285 60.604 14.856 61.055 14.207 61.341 13.822 61.451 13.459 61.528 12.821L58.976 12.821 58.976 12.029zM65.939 10.808C67.435 10.808 68.502 11.919 68.502 13.481 68.502 14.966 67.358 16.121 65.906 16.121 64.399 16.121 63.343 15.021 63.343 13.459 63.343 11.886 64.399 10.808 65.939 10.808zM65.939 11.578C64.894 11.578 64.201 12.337 64.201 13.47 64.201 14.592 64.894 15.351 65.928 15.351 66.929 15.351 67.644 14.57 67.644 13.47 67.644 12.337 66.962 11.578 65.939 11.578zM70.669 11.666L70.669 14.966C70.68 15.219 70.746 15.274 71.054 15.274L71.439 15.274 71.439 16 70.658 16C70.064 15.989 69.833 15.769 69.833 15.208L69.833 11.666 69.129 11.666 69.129 10.929 69.833 10.929 69.833 9.334 70.669 9.334 70.669 10.929 71.439 10.929 71.439 11.666 70.669 11.666zM73.463 8.663L73.463 11.633C73.925 11.061 74.387 10.808 74.992 10.808 75.432 10.808 75.894 10.984 76.169 11.27 76.444 11.545 76.565 11.941 76.565 12.59L76.565 16 75.729 16 75.729 12.634C75.729 11.941 75.388 11.556 74.783 11.556 74.398 11.556 74.057 11.71 73.793 12.007 73.54 12.293 73.463 12.546 73.463 13.03L73.463 16 72.627 16 72.627 8.663 73.463 8.663zM82.043 11.765L82.043 10.929 82.879 10.929 82.879 16 82.043 16 82.043 15.021C81.537 15.78 80.965 16.121 80.195 16.121 78.798 16.121 77.808 15.021 77.808 13.481 77.808 11.93 78.82 10.808 80.217 10.808 80.987 10.808 81.548 11.105 82.043 11.765zM80.338 11.556C79.788 11.556 79.403 11.743 79.106 12.161 78.842 12.524 78.688 13.008 78.688 13.503 78.688 14.581 79.392 15.395 80.316 15.395 81.273 15.395 82.054 14.504 82.054 13.415 82.054 12.315 81.35 11.556 80.338 11.556zM84.562 10.929L85.398 10.929 85.398 11.633C85.783 11.05 86.212 10.808 86.839 10.808 87.532 10.808 87.972 11.105 88.203 11.732 88.577 11.083 89.05 10.808 89.809 10.808 90.392 10.808 90.832 10.995 91.096 11.347 91.338 11.666 91.404 11.952 91.404 12.755L91.404 16 90.568 16 90.568 12.953C90.568 12.337 90.546 12.194 90.425 11.985 90.271 11.721 89.941 11.556 89.545 11.556 88.808 11.556 88.401 12.051 88.401 12.953L88.401 16 87.565 16 87.565 12.964C87.565 12.469 87.521 12.216 87.4 11.996 87.257 11.71 86.949 11.556 86.575 11.556 85.838 11.556 85.398 12.084 85.398 12.964L85.398 16 84.562 16 84.562 10.929zM97.355 12.92L97.355 16 96.431 16 96.431 8.663 98.433 8.663C99.995 8.663 100.941 9.466 100.941 10.797 100.941 11.622 100.567 12.282 99.885 12.645 99.533 12.832 99.203 12.909 98.532 12.953L101.381 16 100.204 16 97.355 12.92zM97.355 12.293L98.279 12.293C99.39 12.293 99.995 11.787 99.995 10.863 99.995 9.95 99.445 9.455 98.433 9.455L97.355 9.455 97.355 12.293zM104.703 10.808C106.199 10.808 107.266 11.919 107.266 13.481 107.266 14.966 106.122 16.121 104.67 16.121 103.163 16.121 102.107 15.021 102.107 13.459 102.107 11.886 103.163 10.808 104.703 10.808zM104.703 11.578C103.658 11.578 102.965 12.337 102.965 13.47 102.965 14.592 103.658 15.351 104.692 15.351 105.693 15.351 106.408 14.57 106.408 13.47 106.408 12.337 105.726 11.578 104.703 11.578zM111.49 10.929L112.337 10.929 112.337 14.174C112.337 14.867 112.205 15.252 111.831 15.593 111.457 15.934 110.94 16.121 110.368 16.121 109.796 16.121 109.268 15.923 108.905 15.582 108.564 15.252 108.399 14.79 108.399 14.174L108.399 10.929 109.235 10.929 109.235 14.152C109.235 14.867 109.697 15.373 110.368 15.373 110.72 15.373 111.061 15.23 111.27 14.988 111.435 14.79 111.49 14.581 111.49 14.174L111.49 10.929zM113.877 10.929L114.713 10.929 114.713 11.644C115.153 11.05 115.593 10.808 116.22 10.808 116.682 10.808 117.1 10.962 117.397 11.226 117.716 11.534 117.826 11.886 117.826 12.579L117.826 16 116.99 16 116.99 12.766C116.99 12.315 116.935 12.073 116.803 11.897 116.649 11.688 116.352 11.556 116.011 11.556 115.637 11.556 115.296 11.699 115.043 11.985 114.801 12.249 114.713 12.491 114.713 12.909L114.713 16 113.877 16 113.877 10.929zM123.271 11.699L123.271 8.663 124.107 8.663 124.107 16 123.271 16 123.271 15.131C122.765 15.824 122.226 16.121 121.456 16.121 120.059 16.121 119.069 15.032 119.069 13.492 119.069 11.952 120.081 10.808 121.456 10.808 122.204 10.808 122.776 11.083 123.271 11.699zM121.632 11.556C120.631 11.556 119.949 12.348 119.949 13.503 119.949 14.614 120.62 15.395 121.577 15.395 122.556 15.395 123.271 14.581 123.271 13.481 123.271 12.337 122.6 11.556 121.632 11.556zM130.498 13.734L126.274 13.734C126.318 14.163 126.395 14.383 126.604 14.658 126.934 15.109 127.418 15.351 127.968 15.351 128.595 15.351 129.189 15.01 129.486 14.482L130.223 14.757C129.805 15.604 128.936 16.121 127.968 16.121 126.461 16.121 125.383 15.021 125.383 13.481 125.383 11.919 126.45 10.808 127.935 10.808 129.409 10.808 130.509 11.919 130.509 13.404 130.509 13.47 130.509 13.613 130.498 13.734zM126.285 13.118L129.618 13.118C129.585 12.722 129.508 12.502 129.332 12.249 129.013 11.82 128.496 11.556 127.935 11.556 127.374 11.556 126.868 11.82 126.571 12.26 126.417 12.502 126.351 12.711 126.285 13.118zM135.514 11.699L135.514 8.663 136.35 8.663 136.35 16 135.514 16 135.514 15.131C135.008 15.824 134.469 16.121 133.699 16.121 132.302 16.121 131.312 15.032 131.312 13.492 131.312 11.952 132.324 10.808 133.699 10.808 134.447 10.808 135.019 11.083 135.514 11.699zM133.875 11.556C132.874 11.556 132.192 12.348 132.192 13.503 132.192 14.614 132.863 15.395 133.82 15.395 134.799 15.395 135.514 14.581 135.514 13.481 135.514 12.337 134.843 11.556 133.875 11.556zM142.334 10.621L142.334 16 141.41 16 141.41 8.663 142.323 8.663 145.04 14.163 147.79 8.663 148.692 8.663 148.692 16 147.768 16 147.768 10.632 145.04 16.077 142.334 10.621zM155.149 13.734L150.925 13.734C150.969 14.163 151.046 14.383 151.255 14.658 151.585 15.109 152.069 15.351 152.619 15.351 153.246 15.351 153.84 15.01 154.137 14.482L154.874 14.757C154.456 15.604 153.587 16.121 152.619 16.121 151.112 16.121 150.034 15.021 150.034 13.481 150.034 11.919 151.101 10.808 152.586 10.808 154.06 10.808 155.16 11.919 155.16 13.404 155.16 13.47 155.16 13.613 155.149 13.734zM150.936 13.118L154.269 13.118C154.236 12.722 154.159 12.502 153.983 12.249 153.664 11.82 153.147 11.556 152.586 11.556 152.025 11.556 151.519 11.82 151.222 12.26 151.068 12.502 151.002 12.711 150.936 13.118zM160.165 11.699L160.165 8.663 161.001 8.663 161.001 16 160.165 16 160.165 15.131C159.659 15.824 159.12 16.121 158.35 16.121 156.953 16.121 155.963 15.032 155.963 13.492 155.963 11.952 156.975 10.808 158.35 10.808 159.098 10.808 159.67 11.083 160.165 11.699zM158.526 11.556C157.525 11.556 156.843 12.348 156.843 13.503 156.843 14.614 157.514 15.395 158.471 15.395 159.45 15.395 160.165 14.581 160.165 13.481 160.165 12.337 159.494 11.556 158.526 11.556zM163.52 10.929L163.52 16 162.684 16 162.684 10.929 163.52 10.929zM163.113 8.96C163.41 8.96 163.641 9.202 163.641 9.51 163.641 9.807 163.399 10.038 163.102 10.038 162.805 10.038 162.574 9.807 162.574 9.499 162.574 9.191 162.805 8.96 163.113 8.96zM168.151 10.929L168.998 10.929 168.998 14.174C168.998 14.867 168.866 15.252 168.492 15.593 168.118 15.934 167.601 16.121 167.029 16.121 166.457 16.121 165.929 15.923 165.566 15.582 165.225 15.252 165.06 14.79 165.06 14.174L165.06 10.929 165.896 10.929 165.896 14.152C165.896 14.867 166.358 15.373 167.029 15.373 167.381 15.373 167.722 15.23 167.931 14.988 168.096 14.79 168.151 14.581 168.151 14.174L168.151 10.929zM170.538 10.929L171.374 10.929 171.374 11.633C171.759 11.05 172.188 10.808 172.815 10.808 173.508 10.808 173.948 11.105 174.179 11.732 174.553 11.083 175.026 10.808 175.785 10.808 176.368 10.808 176.808 10.995 177.072 11.347 177.314 11.666 177.38 11.952 177.38 12.755L177.38 16 176.544 16 176.544 12.953C176.544 12.337 176.522 12.194 176.401 11.985 176.247 11.721 175.917 11.556 175.521 11.556 174.784 11.556 174.377 12.051 174.377 12.953L174.377 16 173.541 16 173.541 12.964C173.541 12.469 173.497 12.216 173.376 11.996 173.233 11.71 172.925 11.556 172.551 11.556 171.814 11.556 171.374 12.084 171.374 12.964L171.374 16 170.538 16 170.538 10.929zM180.053 15.142L178.942 17.749 178.337 17.562 179.261 14.889 180.053 15.142zM186.037 15.197L188.622 15.197 188.622 16 184.508 16 187.06 12.348C187.797 11.281 187.962 10.951 187.962 10.511 187.962 9.873 187.456 9.422 186.741 9.422 186.246 9.422 185.839 9.653 185.674 10.038 185.586 10.247 185.553 10.412 185.542 10.797L184.717 10.797C184.761 9.4 185.498 8.63 186.807 8.63 188.006 8.63 188.842 9.378 188.842 10.445 188.842 11.061 188.622 11.6 188.006 12.458L186.037 15.197zM193.275 9.587L190.459 9.587 190.459 8.773 194.529 8.773 191.625 16 190.679 16 193.275 9.587zM195.871 10.929L196.707 10.929 196.707 11.853C197.191 11.105 197.708 10.808 198.555 10.808 199.963 10.808 200.942 11.886 200.942 13.426 200.942 15.021 199.963 16.121 198.555 16.121 198.159 16.121 197.796 16.033 197.444 15.857 197.136 15.703 196.982 15.571 196.707 15.208L196.707 18.376 195.871 18.376 195.871 10.929zM198.412 11.556C197.4 11.556 196.707 12.359 196.707 13.547 196.707 14.658 197.378 15.395 198.379 15.395 199.38 15.395 200.051 14.614 200.051 13.459 200.051 12.865 199.908 12.414 199.611 12.084 199.314 11.754 198.863 11.556 198.412 11.556zM203.098 11.666L203.098 14.966C203.109 15.219 203.175 15.274 203.483 15.274L203.868 15.274 203.868 16 203.087 16C202.493 15.989 202.262 15.769 202.262 15.208L202.262 11.666 201.558 11.666 201.558 10.929 202.262 10.929 202.262 9.334 203.098 9.334 203.098 10.929 203.868 10.929 203.868 11.666 203.098 11.666z"/>
      </g>
      <g transform="translate(79 352.989)">
        <rect width="24" height="24" fill="#495A67" rx="2"/>
        <path fill="#2DB9AB" d="M30.904,9.455 L30.904,16 L29.98,16 L29.98,9.455 L28.11,9.455 L28.11,8.663 L32.763,8.663 L32.763,9.455 L30.904,9.455 Z M38.417,13.734 L34.193,13.734 C34.237,14.163 34.314,14.383 34.523,14.658 C34.853,15.109 35.337,15.351 35.887,15.351 C36.514,15.351 37.108,15.01 37.405,14.482 L38.142,14.757 C37.724,15.604 36.855,16.121 35.887,16.121 C34.38,16.121 33.302,15.021 33.302,13.481 C33.302,11.919 34.369,10.808 35.854,10.808 C37.328,10.808 38.428,11.919 38.428,13.404 C38.428,13.47 38.428,13.613 38.417,13.734 Z M34.204,13.118 L37.537,13.118 C37.504,12.722 37.427,12.502 37.251,12.249 C36.932,11.82 36.415,11.556 35.854,11.556 C35.293,11.556 34.787,11.82 34.49,12.26 C34.336,12.502 34.27,12.711 34.204,13.118 Z M41.255,14.163 L39.902,16 L38.879,16 L40.749,13.481 L38.846,10.929 L39.902,10.929 L41.255,12.788 L42.641,10.929 L43.664,10.929 L41.75,13.481 L43.576,16 L42.553,16 L41.255,14.163 Z M45.435,11.666 L45.435,14.966 C45.446,15.219 45.512,15.274 45.82,15.274 L46.205,15.274 L46.205,16 L45.424,16 C44.83,15.989 44.599,15.769 44.599,15.208 L44.599,11.666 L43.895,11.666 L43.895,10.929 L44.599,10.929 L44.599,9.334 L45.435,9.334 L45.435,10.929 L46.205,10.929 L46.205,11.666 L45.435,11.666 Z M47.822,14.944 C48.152,14.944 48.394,15.186 48.394,15.527 C48.394,15.846 48.141,16.088 47.822,16.088 C47.492,16.088 47.25,15.846 47.25,15.516 C47.25,15.186 47.492,14.944 47.822,14.944 Z M47.822,11.776 C48.152,11.776 48.394,12.018 48.394,12.359 C48.394,12.678 48.141,12.92 47.822,12.92 C47.492,12.92 47.25,12.678 47.25,12.348 C47.25,12.018 47.492,11.776 47.822,11.776 Z M56.512,8.531 C57.535,8.531 58.514,8.993 59.218,9.796 C59.812,10.489 60.076,11.303 60.076,12.403 C60.076,13.547 59.636,14.57 58.833,15.252 C58.173,15.824 57.337,16.132 56.49,16.132 C55.401,16.132 54.334,15.615 53.652,14.757 C53.146,14.119 52.882,13.294 52.882,12.37 C52.882,10.181 54.433,8.531 56.512,8.531 Z M56.49,9.389 C54.961,9.389 53.828,10.643 53.828,12.337 C53.828,14.042 54.95,15.285 56.468,15.285 C57.205,15.285 57.931,14.966 58.426,14.405 C58.855,13.932 59.13,13.14 59.13,12.392 C59.13,11.413 58.866,10.698 58.294,10.148 C57.81,9.675 57.139,9.389 56.49,9.389 Z M62.232,15.131 L62.232,16 L61.396,16 L61.396,8.663 L62.232,8.663 L62.232,11.798 C62.738,11.105 63.277,10.808 64.014,10.808 C65.433,10.808 66.423,11.908 66.423,13.481 C66.423,15.032 65.444,16.121 64.058,16.121 C63.277,16.121 62.727,15.824 62.232,15.131 Z M63.904,11.556 C62.936,11.556 62.221,12.359 62.221,13.47 C62.221,14.625 62.881,15.395 63.871,15.395 C64.872,15.395 65.543,14.636 65.543,13.503 C65.543,12.37 64.861,11.556 63.904,11.556 Z M70.878,12.315 L70.042,12.315 L70.042,12.26 C70.042,11.787 69.657,11.49 69.074,11.49 C68.513,11.49 68.161,11.776 68.161,12.216 C68.161,12.656 68.381,12.821 69.294,13.074 C69.943,13.25 70.284,13.415 70.526,13.657 C70.779,13.91 70.933,14.273 70.933,14.647 C70.933,15.527 70.207,16.121 69.129,16.121 C67.974,16.121 67.325,15.582 67.237,14.559 L68.062,14.559 C68.117,15.131 68.491,15.439 69.129,15.439 C69.701,15.439 70.075,15.142 70.075,14.691 C70.075,14.251 69.789,14.031 68.92,13.811 C67.82,13.514 67.325,13.052 67.325,12.282 C67.325,11.402 68.04,10.808 69.107,10.808 C70.185,10.808 70.834,11.358 70.878,12.315 Z M73.056,10.929 L73.056,16 L72.22,16 L72.22,10.929 L73.056,10.929 Z M72.649,8.96 C72.946,8.96 73.177,9.202 73.177,9.51 C73.177,9.807 72.935,10.038 72.638,10.038 C72.341,10.038 72.11,9.807 72.11,9.499 C72.11,9.191 72.341,8.96 72.649,8.96 Z M78.534,11.699 L78.534,8.663 L79.37,8.663 L79.37,16 L78.534,16 L78.534,15.131 C78.028,15.824 77.489,16.121 76.719,16.121 C75.322,16.121 74.332,15.032 74.332,13.492 C74.332,11.952 75.344,10.808 76.719,10.808 C77.467,10.808 78.039,11.083 78.534,11.699 Z M76.895,11.556 C75.894,11.556 75.212,12.348 75.212,13.503 C75.212,14.614 75.883,15.395 76.84,15.395 C77.819,15.395 78.534,14.581 78.534,13.481 C78.534,12.337 77.863,11.556 76.895,11.556 Z M81.889,10.929 L81.889,16 L81.053,16 L81.053,10.929 L81.889,10.929 Z M81.482,8.96 C81.779,8.96 82.01,9.202 82.01,9.51 C82.01,9.807 81.768,10.038 81.471,10.038 C81.174,10.038 80.943,9.807 80.943,9.499 C80.943,9.191 81.174,8.96 81.482,8.96 Z M87.4,11.765 L87.4,10.929 L88.236,10.929 L88.236,16 L87.4,16 L87.4,15.021 C86.894,15.78 86.322,16.121 85.552,16.121 C84.155,16.121 83.165,15.021 83.165,13.481 C83.165,11.93 84.177,10.808 85.574,10.808 C86.344,10.808 86.905,11.105 87.4,11.765 Z M85.695,11.556 C85.145,11.556 84.76,11.743 84.463,12.161 C84.199,12.524 84.045,13.008 84.045,13.503 C84.045,14.581 84.749,15.395 85.673,15.395 C86.63,15.395 87.411,14.504 87.411,13.415 C87.411,12.315 86.707,11.556 85.695,11.556 Z M89.919,10.929 L90.755,10.929 L90.755,11.644 C91.195,11.05 91.635,10.808 92.262,10.808 C92.724,10.808 93.142,10.962 93.439,11.226 C93.758,11.534 93.868,11.886 93.868,12.579 L93.868,16 L93.032,16 L93.032,12.766 C93.032,12.315 92.977,12.073 92.845,11.897 C92.691,11.688 92.394,11.556 92.053,11.556 C91.679,11.556 91.338,11.699 91.085,11.985 C90.843,12.249 90.755,12.491 90.755,12.909 L90.755,16 L89.919,16 L89.919,10.929 Z M98.037,9.565 L95.474,9.565 L95.474,8.773 L99.632,8.773 L97.476,11.512 C98.752,11.512 99.654,12.425 99.654,13.723 C99.654,15.098 98.62,16.121 97.223,16.121 C96.068,16.121 95.243,15.472 94.99,14.361 L95.782,14.218 C95.98,14.922 96.497,15.318 97.179,15.318 C98.07,15.318 98.774,14.647 98.774,13.789 C98.774,12.909 98.114,12.293 97.157,12.293 C96.816,12.293 96.596,12.359 96.277,12.546 L95.914,12.227 L98.037,9.565 Z"/>
      </g>
      <path fill="#C41261" d="M0.946,182.929 L1.782,182.929 L1.782,183.853 C2.266,183.105 2.783,182.808 3.63,182.808 C5.038,182.808 6.017,183.886 6.017,185.426 C6.017,187.021 5.038,188.121 3.63,188.121 C3.234,188.121 2.871,188.033 2.519,187.857 C2.211,187.703 2.057,187.571 1.782,187.208 L1.782,190.376 L0.946,190.376 L0.946,182.929 Z M3.487,183.556 C2.475,183.556 1.782,184.359 1.782,185.547 C1.782,186.658 2.453,187.395 3.454,187.395 C4.455,187.395 5.126,186.614 5.126,185.459 C5.126,184.865 4.983,184.414 4.686,184.084 C4.389,183.754 3.938,183.556 3.487,183.556 Z M11.11,183.765 L11.11,182.929 L11.946,182.929 L11.946,188 L11.11,188 L11.11,187.021 C10.604,187.78 10.032,188.121 9.262,188.121 C7.865,188.121 6.875,187.021 6.875,185.481 C6.875,183.93 7.887,182.808 9.284,182.808 C10.054,182.808 10.615,183.105 11.11,183.765 Z M9.405,183.556 C8.855,183.556 8.47,183.743 8.173,184.161 C7.909,184.524 7.755,185.008 7.755,185.503 C7.755,186.581 8.459,187.395 9.383,187.395 C10.34,187.395 11.121,186.504 11.121,185.415 C11.121,184.315 10.417,183.556 9.405,183.556 Z M17.424,183.699 L17.424,180.663 L18.26,180.663 L18.26,188 L17.424,188 L17.424,187.131 C16.918,187.824 16.379,188.121 15.609,188.121 C14.212,188.121 13.222,187.032 13.222,185.492 C13.222,183.952 14.234,182.808 15.609,182.808 C16.357,182.808 16.929,183.083 17.424,183.699 Z M15.785,183.556 C14.784,183.556 14.102,184.348 14.102,185.503 C14.102,186.614 14.773,187.395 15.73,187.395 C16.709,187.395 17.424,186.581 17.424,185.481 C17.424,184.337 16.753,183.556 15.785,183.556 Z M23.738,183.699 L23.738,180.663 L24.574,180.663 L24.574,188 L23.738,188 L23.738,187.131 C23.232,187.824 22.693,188.121 21.923,188.121 C20.526,188.121 19.536,187.032 19.536,185.492 C19.536,183.952 20.548,182.808 21.923,182.808 C22.671,182.808 23.243,183.083 23.738,183.699 Z M22.099,183.556 C21.098,183.556 20.416,184.348 20.416,185.503 C20.416,186.614 21.087,187.395 22.044,187.395 C23.023,187.395 23.738,186.581 23.738,185.481 C23.738,184.337 23.067,183.556 22.099,183.556 Z M27.093,182.929 L27.093,188 L26.257,188 L26.257,182.929 L27.093,182.929 Z M26.686,180.96 C26.983,180.96 27.214,181.202 27.214,181.51 C27.214,181.807 26.972,182.038 26.675,182.038 C26.378,182.038 26.147,181.807 26.147,181.499 C26.147,181.191 26.378,180.96 26.686,180.96 Z M28.776,182.929 L29.612,182.929 L29.612,183.644 C30.052,183.05 30.492,182.808 31.119,182.808 C31.581,182.808 31.999,182.962 32.296,183.226 C32.615,183.534 32.725,183.886 32.725,184.579 L32.725,188 L31.889,188 L31.889,184.766 C31.889,184.315 31.834,184.073 31.702,183.897 C31.548,183.688 31.251,183.556 30.91,183.556 C30.536,183.556 30.195,183.699 29.942,183.985 C29.7,184.249 29.612,184.491 29.612,184.909 L29.612,188 L28.776,188 L28.776,182.929 Z M38.126,183.798 L38.126,182.929 L38.962,182.929 L38.962,188.033 C38.962,188.88 38.753,189.452 38.291,189.892 C37.84,190.332 37.191,190.563 36.421,190.563 C35.475,190.563 34.727,190.255 34.177,189.639 L34.749,189.067 C34.98,189.309 35.09,189.408 35.233,189.507 C35.519,189.683 35.992,189.804 36.421,189.804 C36.949,189.804 37.455,189.617 37.741,189.309 C37.994,189.034 38.126,188.627 38.126,188.099 L38.126,187.032 C37.631,187.78 37.048,188.121 36.256,188.121 C34.914,188.121 33.913,186.988 33.913,185.481 C33.913,184.667 34.21,183.886 34.716,183.402 C35.123,183.006 35.673,182.808 36.322,182.808 C37.092,182.808 37.609,183.094 38.126,183.798 Z M36.476,183.578 C35.486,183.578 34.793,184.348 34.793,185.448 C34.793,186.537 35.497,187.351 36.454,187.351 C36.938,187.351 37.411,187.12 37.741,186.735 C37.961,186.482 38.104,185.987 38.104,185.481 C38.104,184.821 38.005,184.469 37.708,184.139 C37.4,183.798 36.927,183.578 36.476,183.578 Z M41.074,186.944 C41.404,186.944 41.646,187.186 41.646,187.527 C41.646,187.846 41.393,188.088 41.074,188.088 C40.744,188.088 40.502,187.846 40.502,187.516 C40.502,187.186 40.744,186.944 41.074,186.944 Z M41.074,183.776 C41.404,183.776 41.646,184.018 41.646,184.359 C41.646,184.678 41.393,184.92 41.074,184.92 C40.744,184.92 40.502,184.678 40.502,184.348 C40.502,184.018 40.744,183.776 41.074,183.776 Z M44.352,187.197 L46.937,187.197 L46.937,188 L42.823,188 L45.375,184.348 C46.112,183.281 46.277,182.951 46.277,182.511 C46.277,181.873 45.771,181.422 45.056,181.422 C44.561,181.422 44.154,181.653 43.989,182.038 C43.901,182.247 43.868,182.412 43.857,182.797 L43.032,182.797 C43.076,181.4 43.813,180.63 45.122,180.63 C46.321,180.63 47.157,181.378 47.157,182.445 C47.157,183.061 46.937,183.6 46.321,184.458 L44.352,187.197 Z M51.216,186.35 L48.279,186.35 L48.279,185.668 L52.063,180.564 L52.063,185.558 L52.921,185.558 L52.921,186.35 L52.063,186.35 L52.063,188 L51.216,188 L51.216,186.35 Z M51.216,185.558 L51.216,182.753 L49.159,185.558 L51.216,185.558 Z M57.981,183.699 L57.981,180.663 L58.817,180.663 L58.817,188 L57.981,188 L57.981,187.131 C57.475,187.824 56.936,188.121 56.166,188.121 C54.769,188.121 53.779,187.032 53.779,185.492 C53.779,183.952 54.791,182.808 56.166,182.808 C56.914,182.808 57.486,183.083 57.981,183.699 Z M56.342,183.556 C55.341,183.556 54.659,184.348 54.659,185.503 C54.659,186.614 55.33,187.395 56.287,187.395 C57.266,187.395 57.981,186.581 57.981,185.481 C57.981,184.337 57.31,183.556 56.342,183.556 Z M60.5,182.929 L61.336,182.929 L61.336,183.853 C61.82,183.105 62.337,182.808 63.184,182.808 C64.592,182.808 65.571,183.886 65.571,185.426 C65.571,187.021 64.592,188.121 63.184,188.121 C62.788,188.121 62.425,188.033 62.073,187.857 C61.765,187.703 61.611,187.571 61.336,187.208 L61.336,190.376 L60.5,190.376 L60.5,182.929 Z M63.041,183.556 C62.029,183.556 61.336,184.359 61.336,185.547 C61.336,186.658 62.007,187.395 63.008,187.395 C64.009,187.395 64.68,186.614 64.68,185.459 C64.68,184.865 64.537,184.414 64.24,184.084 C63.943,183.754 63.492,183.556 63.041,183.556 Z M39.545,204.046 L38.995,204.574 C37.697,202.979 37.103,201.428 37.103,199.58 C37.103,197.688 37.796,195.818 39.017,194.443 L39.545,194.993 C38.434,196.368 37.884,197.897 37.884,199.547 C37.884,201.153 38.478,202.759 39.545,204.046 Z M41.701,197.666 L41.701,202 L40.865,202 L40.865,197.666 L40.172,197.666 L40.172,196.929 L40.865,196.929 L40.865,196.247 C40.865,195.246 41.382,194.652 42.262,194.652 C42.306,194.652 42.405,194.652 42.493,194.663 L42.493,195.411 C41.888,195.477 41.723,195.653 41.701,196.247 L41.701,196.929 L42.493,196.929 L42.493,197.666 L41.701,197.666 Z M44.693,196.929 L44.693,202 L43.857,202 L43.857,196.929 L44.693,196.929 Z M44.275,194.96 C44.572,194.96 44.803,195.202 44.803,195.51 C44.803,195.807 44.572,196.038 44.275,196.038 C43.967,196.038 43.736,195.807 43.736,195.499 C43.736,195.191 43.967,194.96 44.275,194.96 Z M47.993,200.163 L46.64,202 L45.617,202 L47.487,199.481 L45.584,196.929 L46.64,196.929 L47.993,198.788 L49.379,196.929 L50.402,196.929 L48.488,199.481 L50.314,202 L49.291,202 L47.993,200.163 Z M55.99,199.734 L51.766,199.734 C51.81,200.163 51.887,200.383 52.096,200.658 C52.426,201.109 52.91,201.351 53.46,201.351 C54.087,201.351 54.681,201.01 54.978,200.482 L55.715,200.757 C55.297,201.604 54.428,202.121 53.46,202.121 C51.953,202.121 50.875,201.021 50.875,199.481 C50.875,197.919 51.942,196.808 53.427,196.808 C54.901,196.808 56.001,197.919 56.001,199.404 C56.001,199.47 56.001,199.613 55.99,199.734 Z M51.777,199.118 L55.11,199.118 C55.077,198.722 55,198.502 54.824,198.249 C54.505,197.82 53.988,197.556 53.427,197.556 C52.866,197.556 52.36,197.82 52.063,198.26 C51.909,198.502 51.843,198.711 51.777,199.118 Z M61.006,197.699 L61.006,194.663 L61.842,194.663 L61.842,202 L61.006,202 L61.006,201.131 C60.5,201.824 59.961,202.121 59.191,202.121 C57.794,202.121 56.804,201.032 56.804,199.492 C56.804,197.952 57.816,196.808 59.191,196.808 C59.939,196.808 60.511,197.083 61.006,197.699 Z M59.367,197.556 C58.366,197.556 57.684,198.348 57.684,199.503 C57.684,200.614 58.355,201.395 59.312,201.395 C60.291,201.395 61.006,200.581 61.006,199.481 C61.006,198.337 60.335,197.556 59.367,197.556 Z M63.074,194.971 L63.624,194.443 C64.933,196.049 65.516,197.589 65.516,199.437 C65.516,201.34 64.823,203.188 63.602,204.574 L63.074,204.024 C64.185,202.649 64.735,201.12 64.735,199.47 C64.735,197.853 64.152,196.269 63.074,194.971 Z"/>
      <path fill="#00AB9A" d="M253.837,213.755 L253.837,217 L252.913,217 L252.913,209.663 L253.837,209.663 L253.837,212.963 L257.412,212.963 L257.412,209.663 L258.336,209.663 L258.336,217 L257.412,217 L257.412,213.755 L253.837,213.755 Z M264.793,214.734 L260.569,214.734 C260.613,215.163 260.69,215.383 260.899,215.658 C261.229,216.109 261.713,216.351 262.263,216.351 C262.89,216.351 263.484,216.01 263.781,215.482 L264.518,215.757 C264.1,216.604 263.231,217.121 262.263,217.121 C260.756,217.121 259.678,216.021 259.678,214.481 C259.678,212.919 260.745,211.808 262.23,211.808 C263.704,211.808 264.804,212.919 264.804,214.404 C264.804,214.47 264.804,214.613 264.793,214.734 Z M260.58,214.118 L263.913,214.118 C263.88,213.722 263.803,213.502 263.627,213.249 C263.308,212.82 262.791,212.556 262.23,212.556 C261.669,212.556 261.163,212.82 260.866,213.26 C260.712,213.502 260.646,213.711 260.58,214.118 Z M266.85,211.929 L266.85,217 L266.014,217 L266.014,211.929 L266.85,211.929 Z M266.443,209.96 C266.74,209.96 266.971,210.202 266.971,210.51 C266.971,210.807 266.729,211.038 266.432,211.038 C266.135,211.038 265.904,210.807 265.904,210.499 C265.904,210.191 266.135,209.96 266.443,209.96 Z M272.284,212.798 L272.284,211.929 L273.12,211.929 L273.12,217.033 C273.12,217.88 272.911,218.452 272.449,218.892 C271.998,219.332 271.349,219.563 270.579,219.563 C269.633,219.563 268.885,219.255 268.335,218.639 L268.907,218.067 C269.138,218.309 269.248,218.408 269.391,218.507 C269.677,218.683 270.15,218.804 270.579,218.804 C271.107,218.804 271.613,218.617 271.899,218.309 C272.152,218.034 272.284,217.627 272.284,217.099 L272.284,216.032 C271.789,216.78 271.206,217.121 270.414,217.121 C269.072,217.121 268.071,215.988 268.071,214.481 C268.071,213.667 268.368,212.886 268.874,212.402 C269.281,212.006 269.831,211.808 270.48,211.808 C271.25,211.808 271.767,212.094 272.284,212.798 Z M270.634,212.578 C269.644,212.578 268.951,213.348 268.951,214.448 C268.951,215.537 269.655,216.351 270.612,216.351 C271.096,216.351 271.569,216.12 271.899,215.735 C272.119,215.482 272.262,214.987 272.262,214.481 C272.262,213.821 272.163,213.469 271.866,213.139 C271.558,212.798 271.085,212.578 270.634,212.578 Z M275.639,209.663 L275.639,212.633 C276.101,212.061 276.563,211.808 277.168,211.808 C277.608,211.808 278.07,211.984 278.345,212.27 C278.62,212.545 278.741,212.941 278.741,213.59 L278.741,217 L277.905,217 L277.905,213.634 C277.905,212.941 277.564,212.556 276.959,212.556 C276.574,212.556 276.233,212.71 275.969,213.007 C275.716,213.293 275.639,213.546 275.639,214.03 L275.639,217 L274.803,217 L274.803,209.663 L275.639,209.663 Z M281.282,212.666 L281.282,215.966 C281.293,216.219 281.359,216.274 281.667,216.274 L282.052,216.274 L282.052,217 L281.271,217 C280.677,216.989 280.446,216.769 280.446,216.208 L280.446,212.666 L279.742,212.666 L279.742,211.929 L280.446,211.929 L280.446,210.334 L281.282,210.334 L281.282,211.929 L282.052,211.929 L282.052,212.666 L281.282,212.666 Z M283.669,215.944 C283.999,215.944 284.241,216.186 284.241,216.527 C284.241,216.846 283.988,217.088 283.669,217.088 C283.339,217.088 283.097,216.846 283.097,216.516 C283.097,216.186 283.339,215.944 283.669,215.944 Z M283.669,212.776 C283.999,212.776 284.241,213.018 284.241,213.359 C284.241,213.678 283.988,213.92 283.669,213.92 C283.339,213.92 283.097,213.678 283.097,213.348 C283.097,213.018 283.339,212.776 283.669,212.776 Z M288.3,210.565 L285.737,210.565 L285.737,209.773 L289.895,209.773 L287.739,212.512 C289.015,212.512 289.917,213.425 289.917,214.723 C289.917,216.098 288.883,217.121 287.486,217.121 C286.331,217.121 285.506,216.472 285.253,215.361 L286.045,215.218 C286.243,215.922 286.76,216.318 287.442,216.318 C288.333,216.318 289.037,215.647 289.037,214.789 C289.037,213.909 288.377,213.293 287.42,213.293 C287.079,213.293 286.859,213.359 286.54,213.546 L286.177,213.227 L288.3,210.565 Z M292.447,216.197 L295.032,216.197 L295.032,217 L290.918,217 L293.47,213.348 C294.207,212.281 294.372,211.951 294.372,211.511 C294.372,210.873 293.866,210.422 293.151,210.422 C292.656,210.422 292.249,210.653 292.084,211.038 C291.996,211.247 291.963,211.412 291.952,211.797 L291.127,211.797 C291.171,210.4 291.908,209.63 293.217,209.63 C294.416,209.63 295.252,210.378 295.252,211.445 C295.252,212.061 295.032,212.6 294.416,213.458 L292.447,216.197 Z M300.576,212.699 L300.576,209.663 L301.412,209.663 L301.412,217 L300.576,217 L300.576,216.131 C300.07,216.824 299.531,217.121 298.761,217.121 C297.364,217.121 296.374,216.032 296.374,214.492 C296.374,212.952 297.386,211.808 298.761,211.808 C299.509,211.808 300.081,212.083 300.576,212.699 Z M298.937,212.556 C297.936,212.556 297.254,213.348 297.254,214.503 C297.254,215.614 297.925,216.395 298.882,216.395 C299.861,216.395 300.576,215.581 300.576,214.481 C300.576,213.337 299.905,212.556 298.937,212.556 Z M303.095,211.929 L303.931,211.929 L303.931,212.853 C304.415,212.105 304.932,211.808 305.779,211.808 C307.187,211.808 308.166,212.886 308.166,214.426 C308.166,216.021 307.187,217.121 305.779,217.121 C305.383,217.121 305.02,217.033 304.668,216.857 C304.36,216.703 304.206,216.571 303.931,216.208 L303.931,219.376 L303.095,219.376 L303.095,211.929 Z M305.636,212.556 C304.624,212.556 303.931,213.359 303.931,214.547 C303.931,215.658 304.602,216.395 305.603,216.395 C306.604,216.395 307.275,215.614 307.275,214.459 C307.275,213.865 307.132,213.414 306.835,213.084 C306.538,212.754 306.087,212.556 305.636,212.556 Z M254.915,233.046 L254.365,233.574 C253.067,231.979 252.473,230.428 252.473,228.58 C252.473,226.688 253.166,224.818 254.387,223.443 L254.915,223.993 C253.804,225.368 253.254,226.897 253.254,228.547 C253.254,230.153 253.848,231.759 254.915,233.046 Z M257.071,226.666 L257.071,231 L256.235,231 L256.235,226.666 L255.542,226.666 L255.542,225.929 L256.235,225.929 L256.235,225.247 C256.235,224.246 256.752,223.652 257.632,223.652 C257.676,223.652 257.775,223.652 257.863,223.663 L257.863,224.411 C257.258,224.477 257.093,224.653 257.071,225.247 L257.071,225.929 L257.863,225.929 L257.863,226.666 L257.071,226.666 Z M260.063,225.929 L260.063,231 L259.227,231 L259.227,225.929 L260.063,225.929 Z M259.645,223.96 C259.942,223.96 260.173,224.202 260.173,224.51 C260.173,224.807 259.942,225.038 259.645,225.038 C259.337,225.038 259.106,224.807 259.106,224.499 C259.106,224.191 259.337,223.96 259.645,223.96 Z M263.363,229.163 L262.01,231 L260.987,231 L262.857,228.481 L260.954,225.929 L262.01,225.929 L263.363,227.788 L264.749,225.929 L265.772,225.929 L263.858,228.481 L265.684,231 L264.661,231 L263.363,229.163 Z M271.36,228.734 L267.136,228.734 C267.18,229.163 267.257,229.383 267.466,229.658 C267.796,230.109 268.28,230.351 268.83,230.351 C269.457,230.351 270.051,230.01 270.348,229.482 L271.085,229.757 C270.667,230.604 269.798,231.121 268.83,231.121 C267.323,231.121 266.245,230.021 266.245,228.481 C266.245,226.919 267.312,225.808 268.797,225.808 C270.271,225.808 271.371,226.919 271.371,228.404 C271.371,228.47 271.371,228.613 271.36,228.734 Z M267.147,228.118 L270.48,228.118 C270.447,227.722 270.37,227.502 270.194,227.249 C269.875,226.82 269.358,226.556 268.797,226.556 C268.236,226.556 267.73,226.82 267.433,227.26 C267.279,227.502 267.213,227.711 267.147,228.118 Z M276.376,226.699 L276.376,223.663 L277.212,223.663 L277.212,231 L276.376,231 L276.376,230.131 C275.87,230.824 275.331,231.121 274.561,231.121 C273.164,231.121 272.174,230.032 272.174,228.492 C272.174,226.952 273.186,225.808 274.561,225.808 C275.309,225.808 275.881,226.083 276.376,226.699 Z M274.737,226.556 C273.736,226.556 273.054,227.348 273.054,228.503 C273.054,229.614 273.725,230.395 274.682,230.395 C275.661,230.395 276.376,229.581 276.376,228.481 C276.376,227.337 275.705,226.556 274.737,226.556 Z M278.444,223.971 L278.994,223.443 C280.303,225.049 280.886,226.589 280.886,228.437 C280.886,230.34 280.193,232.188 278.972,233.574 L278.444,233.024 C279.555,231.649 280.105,230.12 280.105,228.47 C280.105,226.853 279.522,225.269 278.444,223.971 Z"/>
      <path fill="#C41261" d="M109.702,1.929 L109.702,7 L108.866,7 L108.866,1.929 L109.702,1.929 Z M109.295,-0.04 C109.592,-0.04 109.823,0.202 109.823,0.51 C109.823,0.807 109.581,1.038 109.284,1.038 C108.987,1.038 108.756,0.807 108.756,0.499 C108.756,0.191 108.987,-0.04 109.295,-0.04 Z M114.817,5.801 L115.334,6.373 C114.762,6.89 114.201,7.121 113.464,7.121 C112.012,7.121 110.978,6.021 110.978,4.481 C110.978,2.908 112.023,1.808 113.508,1.808 C114.234,1.808 114.828,2.05 115.356,2.567 L114.817,3.106 C114.432,2.754 114.003,2.578 113.53,2.578 C112.529,2.578 111.836,3.348 111.836,4.448 C111.836,5.57 112.529,6.351 113.519,6.351 C114.014,6.351 114.41,6.186 114.817,5.801 Z M118.601,1.808 C120.097,1.808 121.164,2.919 121.164,4.481 C121.164,5.966 120.02,7.121 118.568,7.121 C117.061,7.121 116.005,6.021 116.005,4.459 C116.005,2.886 117.061,1.808 118.601,1.808 Z M118.601,2.578 C117.556,2.578 116.863,3.337 116.863,4.47 C116.863,5.592 117.556,6.351 118.59,6.351 C119.591,6.351 120.306,5.57 120.306,4.47 C120.306,3.337 119.624,2.578 118.601,2.578 Z M122.44,1.929 L123.276,1.929 L123.276,2.644 C123.716,2.05 124.156,1.808 124.783,1.808 C125.245,1.808 125.663,1.962 125.96,2.226 C126.279,2.534 126.389,2.886 126.389,3.579 L126.389,7 L125.553,7 L125.553,3.766 C125.553,3.315 125.498,3.073 125.366,2.897 C125.212,2.688 124.915,2.556 124.574,2.556 C124.2,2.556 123.859,2.699 123.606,2.985 C123.364,3.249 123.276,3.491 123.276,3.909 L123.276,7 L122.44,7 L122.44,1.929 Z M128.468,5.944 C128.798,5.944 129.04,6.186 129.04,6.527 C129.04,6.846 128.787,7.088 128.468,7.088 C128.138,7.088 127.896,6.846 127.896,6.516 C127.896,6.186 128.138,5.944 128.468,5.944 Z M128.468,2.776 C128.798,2.776 129.04,3.018 129.04,3.359 C129.04,3.678 128.787,3.92 128.468,3.92 C128.138,3.92 127.896,3.678 127.896,3.348 C127.896,3.018 128.138,2.776 128.468,2.776 Z M132.582,0.994 L130.965,2.072 L130.965,1.236 L133.451,-0.392 L133.451,7 L132.582,7 L132.582,0.994 Z M139.336,-0.227 L137.455,2.71 C137.763,2.6 137.906,2.567 138.17,2.567 C139.391,2.567 140.337,3.524 140.337,4.767 C140.337,6.065 139.27,7.132 137.972,7.132 C136.663,7.132 135.651,6.098 135.651,4.767 C135.651,4.228 135.794,3.821 136.212,3.15 L138.313,-0.227 L139.336,-0.227 Z M138.016,3.315 C137.18,3.315 136.52,3.953 136.52,4.767 C136.52,5.625 137.169,6.307 137.994,6.307 C138.819,6.307 139.479,5.636 139.479,4.8 C139.479,3.975 138.83,3.315 138.016,3.315 Z M145.672,1.874 L145.672,4.789 C145.672,5.614 145.518,6.12 145.155,6.505 C144.77,6.912 144.187,7.121 143.494,7.121 C142.779,7.121 142.185,6.901 141.8,6.483 C141.415,6.076 141.316,5.658 141.316,4.547 L141.316,2.127 C141.316,1.17 141.426,0.719 141.756,0.323 C142.119,-0.117 142.724,-0.359 143.472,-0.359 C144.143,-0.359 144.693,-0.172 145.1,0.191 C145.518,0.576 145.672,1.016 145.672,1.874 Z M142.185,2.149 L142.185,4.602 C142.185,5.449 142.218,5.603 142.46,5.878 C142.691,6.142 143.087,6.307 143.505,6.307 C143.956,6.307 144.374,6.12 144.583,5.823 C144.748,5.581 144.814,5.273 144.814,4.734 L144.814,1.929 C144.814,1.357 144.715,1.071 144.44,0.807 C144.198,0.587 143.868,0.466 143.505,0.466 C143.032,0.466 142.625,0.653 142.416,0.994 C142.229,1.258 142.185,1.511 142.185,2.149 Z M148.697,5.163 L147.344,7 L146.321,7 L148.191,4.481 L146.288,1.929 L147.344,1.929 L148.697,3.788 L150.083,1.929 L151.106,1.929 L149.192,4.481 L151.018,7 L149.995,7 L148.697,5.163 Z M153.988,0.994 L152.371,2.072 L152.371,1.236 L154.857,-0.392 L154.857,7 L153.988,7 L153.988,0.994 Z M160.742,-0.227 L158.861,2.71 C159.169,2.6 159.312,2.567 159.576,2.567 C160.797,2.567 161.743,3.524 161.743,4.767 C161.743,6.065 160.676,7.132 159.378,7.132 C158.069,7.132 157.057,6.098 157.057,4.767 C157.057,4.228 157.2,3.821 157.618,3.15 L159.719,-0.227 L160.742,-0.227 Z M159.422,3.315 C158.586,3.315 157.926,3.953 157.926,4.767 C157.926,5.625 158.575,6.307 159.4,6.307 C160.225,6.307 160.885,5.636 160.885,4.8 C160.885,3.975 160.236,3.315 159.422,3.315 Z M167.078,1.874 L167.078,4.789 C167.078,5.614 166.924,6.12 166.561,6.505 C166.176,6.912 165.593,7.121 164.9,7.121 C164.185,7.121 163.591,6.901 163.206,6.483 C162.821,6.076 162.722,5.658 162.722,4.547 L162.722,2.127 C162.722,1.17 162.832,0.719 163.162,0.323 C163.525,-0.117 164.13,-0.359 164.878,-0.359 C165.549,-0.359 166.099,-0.172 166.506,0.191 C166.924,0.576 167.078,1.016 167.078,1.874 Z M163.591,2.149 L163.591,4.602 C163.591,5.449 163.624,5.603 163.866,5.878 C164.097,6.142 164.493,6.307 164.911,6.307 C165.362,6.307 165.78,6.12 165.989,5.823 C166.154,5.581 166.22,5.273 166.22,4.734 L166.22,1.929 C166.22,1.357 166.121,1.071 165.846,0.807 C165.604,0.587 165.274,0.466 164.911,0.466 C164.438,0.466 164.031,0.653 163.822,0.994 C163.635,1.258 163.591,1.511 163.591,2.149 Z M172.281,2.699 L172.281,-0.337 L173.117,-0.337 L173.117,7 L172.281,7 L172.281,6.131 C171.775,6.824 171.236,7.121 170.466,7.121 C169.069,7.121 168.079,6.032 168.079,4.492 C168.079,2.952 169.091,1.808 170.466,1.808 C171.214,1.808 171.786,2.083 172.281,2.699 Z M170.642,2.556 C169.641,2.556 168.959,3.348 168.959,4.503 C168.959,5.614 169.63,6.395 170.587,6.395 C171.566,6.395 172.281,5.581 172.281,4.481 C172.281,3.337 171.61,2.556 170.642,2.556 Z M174.8,1.929 L175.636,1.929 L175.636,2.853 C176.12,2.105 176.637,1.808 177.484,1.808 C178.892,1.808 179.871,2.886 179.871,4.426 C179.871,6.021 178.892,7.121 177.484,7.121 C177.088,7.121 176.725,7.033 176.373,6.857 C176.065,6.703 175.911,6.571 175.636,6.208 L175.636,9.376 L174.8,9.376 L174.8,1.929 Z M177.341,2.556 C176.329,2.556 175.636,3.359 175.636,4.547 C175.636,5.658 176.307,6.395 177.308,6.395 C178.309,6.395 178.98,5.614 178.98,4.459 C178.98,3.865 178.837,3.414 178.54,3.084 C178.243,2.754 177.792,2.556 177.341,2.556 Z M186.515,9.046 L185.965,9.574 C184.667,7.979 184.073,6.428 184.073,4.58 C184.073,2.688 184.766,0.818 185.987,-0.557 L186.515,-0.007 C185.404,1.368 184.854,2.897 184.854,4.547 C184.854,6.153 185.448,7.759 186.515,9.046 Z M188.671,2.666 L188.671,7 L187.835,7 L187.835,2.666 L187.142,2.666 L187.142,1.929 L187.835,1.929 L187.835,1.247 C187.835,0.246 188.352,-0.348 189.232,-0.348 C189.276,-0.348 189.375,-0.348 189.463,-0.337 L189.463,0.411 C188.858,0.477 188.693,0.653 188.671,1.247 L188.671,1.929 L189.463,1.929 L189.463,2.666 L188.671,2.666 Z M191.663,1.929 L191.663,7 L190.827,7 L190.827,1.929 L191.663,1.929 Z M191.245,-0.04 C191.542,-0.04 191.773,0.202 191.773,0.51 C191.773,0.807 191.542,1.038 191.245,1.038 C190.937,1.038 190.706,0.807 190.706,0.499 C190.706,0.191 190.937,-0.04 191.245,-0.04 Z M194.963,5.163 L193.61,7 L192.587,7 L194.457,4.481 L192.554,1.929 L193.61,1.929 L194.963,3.788 L196.349,1.929 L197.372,1.929 L195.458,4.481 L197.284,7 L196.261,7 L194.963,5.163 Z M202.96,4.734 L198.736,4.734 C198.78,5.163 198.857,5.383 199.066,5.658 C199.396,6.109 199.88,6.351 200.43,6.351 C201.057,6.351 201.651,6.01 201.948,5.482 L202.685,5.757 C202.267,6.604 201.398,7.121 200.43,7.121 C198.923,7.121 197.845,6.021 197.845,4.481 C197.845,2.919 198.912,1.808 200.397,1.808 C201.871,1.808 202.971,2.919 202.971,4.404 C202.971,4.47 202.971,4.613 202.96,4.734 Z M198.747,4.118 L202.08,4.118 C202.047,3.722 201.97,3.502 201.794,3.249 C201.475,2.82 200.958,2.556 200.397,2.556 C199.836,2.556 199.33,2.82 199.033,3.26 C198.879,3.502 198.813,3.711 198.747,4.118 Z M207.976,2.699 L207.976,-0.337 L208.812,-0.337 L208.812,7 L207.976,7 L207.976,6.131 C207.47,6.824 206.931,7.121 206.161,7.121 C204.764,7.121 203.774,6.032 203.774,4.492 C203.774,2.952 204.786,1.808 206.161,1.808 C206.909,1.808 207.481,2.083 207.976,2.699 Z M206.337,2.556 C205.336,2.556 204.654,3.348 204.654,4.503 C204.654,5.614 205.325,6.395 206.282,6.395 C207.261,6.395 207.976,5.581 207.976,4.481 C207.976,3.337 207.305,2.556 206.337,2.556 Z M210.044,-0.029 L210.594,-0.557 C211.903,1.049 212.486,2.589 212.486,4.437 C212.486,6.34 211.793,8.188 210.572,9.574 L210.044,9.024 C211.155,7.649 211.705,6.12 211.705,4.47 C211.705,2.853 211.122,1.269 210.044,-0.029 Z"/>
    </g>
  </g>
</svg>
