<svg xmlns="http://www.w3.org/2000/svg" width="240" height="180" viewBox="0 0 240 180">
  <g fill="none" fill-rule="evenodd">
    <rect width="240" height="180" fill="#FFF" fill-opacity=".01" fill-rule="nonzero"/>
    <g transform="translate(4 41)">
      <path fill="#C41261" d="M1,79 L231,79 L231,1 L1,1 L1,79 Z M1,80 L0,80 L0,1 L0,0 L232,0 L232,1 L232,80 L231,80 L1,80 Z" transform="translate(0 18.408)"/>
      <g transform="translate(16 34.408)">
        <rect width="200" height="48" fill="#314351" rx="8"/>
        <path fill="#FFF" fill-rule="nonzero" d="M80.2082715,30 L75.2859082,30 L75.2859082,18.0219727 L80.1003613,18.0219727 C82.349873,18.0219727 83.7029004,19.1674805 83.7029004,21.0102539 C83.7029004,22.2636719 82.7815137,23.3842773 81.6028027,23.5834961 L81.6028027,23.7246094 C83.2214551,23.890625 84.3005566,25.0444336 84.3005566,26.6049805 C84.3005566,28.7133789 82.7649121,30 80.2082715,30 Z M77.1452832,19.5991211 L77.1452832,23.09375 L79.353291,23.09375 C80.9968457,23.09375 81.8518262,22.487793 81.8518262,21.3505859 C81.8518262,20.246582 81.0466504,19.5991211 79.6687207,19.5991211 L77.1452832,19.5991211 Z M77.1452832,28.4228516 L79.8347363,28.4228516 C81.5114941,28.4228516 82.3996777,27.7421875 82.3996777,26.472168 C82.3996777,25.21875 81.478291,24.5629883 79.7268262,24.5629883 L77.1452832,24.5629883 L77.1452832,28.4228516 Z M93.6854785,20.9604492 L93.6854785,30 L91.9672168,30 L91.9672168,28.5639648 L91.8261035,28.5639648 C91.3861621,29.5932617 90.4647754,30.1743164 89.0951465,30.1743164 C87.0946582,30.1743164 85.9823535,28.9541016 85.9823535,26.8291016 L85.9823535,20.9604492 L87.7670215,20.9604492 L87.7670215,26.3642578 C87.7670215,27.8251953 88.3563769,28.5224609 89.6679004,28.5224609 C91.1122363,28.5224609 91.9008105,27.6674805 91.9008105,26.2480469 L91.9008105,20.9604492 L93.6854785,20.9604492 Z M96.4961816,18.7109375 L98.2808496,18.7109375 L98.2808496,21.0019531 L100.239834,21.0019531 L100.239834,22.5043945 L98.2808496,22.5043945 L98.2808496,27.152832 C98.2808496,28.0991211 98.6709863,28.5141602 99.5591699,28.5141602 C99.8330957,28.5141602 99.9908105,28.4975586 100.239834,28.4726562 L100.239834,29.9584961 C99.9493066,30.0083008 99.6172754,30.0498047 99.2686426,30.0498047 C97.2847559,30.0498047 96.4961816,29.3525391 96.4961816,27.609375 L96.4961816,22.5043945 L95.0601465,22.5043945 L95.0601465,21.0019531 L96.4961816,21.0019531 L96.4961816,18.7109375 Z M102.593994,18.7109375 L104.378662,18.7109375 L104.378662,21.0019531 L106.337646,21.0019531 L106.337646,22.5043945 L104.378662,22.5043945 L104.378662,27.152832 C104.378662,28.0991211 104.768799,28.5141602 105.656982,28.5141602 C105.930908,28.5141602 106.088623,28.4975586 106.337646,28.4726562 L106.337646,29.9584961 C106.047119,30.0083008 105.715088,30.0498047 105.366455,30.0498047 C103.382568,30.0498047 102.593994,29.3525391 102.593994,27.609375 L102.593994,22.5043945 L101.157959,22.5043945 L101.157959,21.0019531 L102.593994,21.0019531 L102.593994,18.7109375 Z M111.746494,30.1743164 C109.098545,30.1743164 107.479893,28.40625 107.479893,25.4760742 C107.479893,22.5625 109.106846,20.7861328 111.746494,20.7861328 C114.377842,20.7861328 116.004795,22.5625 116.004795,25.4760742 C116.004795,28.40625 114.386143,30.1743164 111.746494,30.1743164 Z M111.746494,28.5888672 C113.290439,28.5888672 114.170322,27.4433594 114.170322,25.4760742 C114.170322,23.5170898 113.290439,22.371582 111.746494,22.371582 C110.194248,22.371582 109.322666,23.5170898 109.322666,25.4760742 C109.322666,27.4516602 110.194248,28.5888672 111.746494,28.5888672 Z M117.736396,30 L117.736396,20.9604492 L119.454658,20.9604492 L119.454658,22.3964844 L119.587471,22.3964844 C120.027412,21.3920898 120.923896,20.7861328 122.285225,20.7861328 C124.302314,20.7861328 125.414619,21.9980469 125.414619,24.1479492 L125.414619,30 L123.629951,30 L123.629951,24.5961914 C123.629951,23.1435547 122.999092,22.4213867 121.679268,22.4213867 C120.359443,22.4213867 119.521064,23.3012695 119.521064,24.7124023 L119.521064,30 L117.736396,30 Z"/>
      </g>
      <path fill="#C8226C" fill-rule="nonzero" d="M27.695,2.562 L27.695,9.408 L26.519,9.408 L26.519,0.07 L27.681,0.07 L31.139,7.07 L34.639,0.07 L35.787,0.07 L35.787,9.408 L34.611,9.408 L34.611,2.576 L31.139,9.506 L27.695,2.562 Z M39.077,2.954 L39.077,9.408 L38.013,9.408 L38.013,2.954 L39.077,2.954 Z M38.559,0.448 C38.937,0.448 39.231,0.756 39.231,1.148 C39.231,1.526 38.923,1.82 38.545,1.82 C38.167,1.82 37.873,1.526 37.873,1.134 C37.873,0.742 38.167,0.448 38.559,0.448 Z M41.219,2.954 L42.283,2.954 L42.283,3.864 C42.843,3.108 43.403,2.8 44.201,2.8 C44.789,2.8 45.321,2.996 45.699,3.332 C46.105,3.724 46.245,4.172 46.245,5.054 L46.245,9.408 L45.181,9.408 L45.181,5.292 C45.181,4.718 45.111,4.41 44.943,4.186 C44.747,3.92 44.369,3.752 43.935,3.752 C43.459,3.752 43.025,3.934 42.703,4.298 C42.395,4.634 42.283,4.942 42.283,5.474 L42.283,9.408 L41.219,9.408 L41.219,2.954 Z M55.093,1.764 L53.035,3.136 L53.035,2.072 L56.199,-5.68434189e-14 L56.199,9.408 L55.093,9.408 L55.093,1.764 Z M63.689,0.21 L61.295,3.948 C61.687,3.808 61.869,3.766 62.205,3.766 C63.759,3.766 64.963,4.984 64.963,6.566 C64.963,8.218 63.605,9.576 61.953,9.576 C60.287,9.576 58.999,8.26 58.999,6.566 C58.999,5.88 59.181,5.362 59.713,4.508 L62.387,0.21 L63.689,0.21 Z M62.009,4.718 C60.945,4.718 60.105,5.53 60.105,6.566 C60.105,7.658 60.931,8.526 61.981,8.526 C63.031,8.526 63.871,7.672 63.871,6.608 C63.871,5.558 63.045,4.718 62.009,4.718 Z M66.545,2.954 L67.609,2.954 L67.609,4.13 C68.225,3.178 68.883,2.8 69.961,2.8 C71.753,2.8 72.999,4.172 72.999,6.132 C72.999,8.162 71.753,9.562 69.961,9.562 C69.457,9.562 68.995,9.45 68.547,9.226 C68.155,9.03 67.959,8.862 67.609,8.4 L67.609,12.432 L66.545,12.432 L66.545,2.954 Z M69.779,3.752 C68.491,3.752 67.609,4.774 67.609,6.286 C67.609,7.7 68.463,8.638 69.737,8.638 C71.011,8.638 71.865,7.644 71.865,6.174 C71.865,5.418 71.683,4.844 71.305,4.424 C70.927,4.004 70.353,3.752 69.779,3.752 Z M76.667,7.07 L74.945,9.408 L73.643,9.408 L76.023,6.202 L73.601,2.954 L74.945,2.954 L76.667,5.32 L78.431,2.954 L79.733,2.954 L77.297,6.202 L79.621,9.408 L78.319,9.408 L76.667,7.07 Z M85.053,2.954 L86.117,2.954 L86.117,4.13 C86.733,3.178 87.391,2.8 88.469,2.8 C90.261,2.8 91.507,4.172 91.507,6.132 C91.507,8.162 90.261,9.562 88.469,9.562 C87.965,9.562 87.503,9.45 87.055,9.226 C86.663,9.03 86.467,8.862 86.117,8.4 L86.117,12.432 L85.053,12.432 L85.053,2.954 Z M88.287,3.752 C86.999,3.752 86.117,4.774 86.117,6.286 C86.117,7.7 86.971,8.638 88.245,8.638 C89.519,8.638 90.373,7.644 90.373,6.174 C90.373,5.418 90.191,4.844 89.813,4.424 C89.435,4.004 88.861,3.752 88.287,3.752 Z M97.989,4.018 L97.989,2.954 L99.053,2.954 L99.053,9.408 L97.989,9.408 L97.989,8.162 C97.345,9.128 96.617,9.562 95.637,9.562 C93.859,9.562 92.599,8.162 92.599,6.202 C92.599,4.228 93.887,2.8 95.665,2.8 C96.645,2.8 97.359,3.178 97.989,4.018 Z M95.819,3.752 C95.119,3.752 94.629,3.99 94.251,4.522 C93.915,4.984 93.719,5.6 93.719,6.23 C93.719,7.602 94.615,8.638 95.791,8.638 C97.009,8.638 98.003,7.504 98.003,6.118 C98.003,4.718 97.107,3.752 95.819,3.752 Z M106.025,3.934 L106.025,0.07 L107.089,0.07 L107.089,9.408 L106.025,9.408 L106.025,8.302 C105.381,9.184 104.695,9.562 103.715,9.562 C101.937,9.562 100.677,8.176 100.677,6.216 C100.677,4.256 101.965,2.8 103.715,2.8 C104.667,2.8 105.395,3.15 106.025,3.934 Z M103.939,3.752 C102.665,3.752 101.797,4.76 101.797,6.23 C101.797,7.644 102.651,8.638 103.869,8.638 C105.115,8.638 106.025,7.602 106.025,6.202 C106.025,4.746 105.171,3.752 103.939,3.752 Z M114.061,3.934 L114.061,0.07 L115.125,0.07 L115.125,9.408 L114.061,9.408 L114.061,8.302 C113.417,9.184 112.731,9.562 111.751,9.562 C109.973,9.562 108.713,8.176 108.713,6.216 C108.713,4.256 110.001,2.8 111.751,2.8 C112.703,2.8 113.431,3.15 114.061,3.934 Z M111.975,3.752 C110.701,3.752 109.833,4.76 109.833,6.23 C109.833,7.644 110.687,8.638 111.905,8.638 C113.151,8.638 114.061,7.602 114.061,6.202 C114.061,4.746 113.207,3.752 111.975,3.752 Z M118.331,2.954 L118.331,9.408 L117.267,9.408 L117.267,2.954 L118.331,2.954 Z M117.813,0.448 C118.191,0.448 118.485,0.756 118.485,1.148 C118.485,1.526 118.177,1.82 117.799,1.82 C117.421,1.82 117.127,1.526 117.127,1.134 C117.127,0.742 117.421,0.448 117.813,0.448 Z M120.473,2.954 L121.537,2.954 L121.537,3.864 C122.097,3.108 122.657,2.8 123.455,2.8 C124.043,2.8 124.575,2.996 124.953,3.332 C125.359,3.724 125.499,4.172 125.499,5.054 L125.499,9.408 L124.435,9.408 L124.435,5.292 C124.435,4.718 124.365,4.41 124.197,4.186 C124.001,3.92 123.623,3.752 123.189,3.752 C122.713,3.752 122.279,3.934 121.957,4.298 C121.649,4.634 121.537,4.942 121.537,5.474 L121.537,9.408 L120.473,9.408 L120.473,2.954 Z M132.345,4.06 L132.345,2.954 L133.409,2.954 L133.409,9.45 C133.409,10.528 133.143,11.256 132.555,11.816 C131.981,12.376 131.155,12.67 130.175,12.67 C128.971,12.67 128.019,12.278 127.319,11.494 L128.047,10.766 C128.341,11.074 128.481,11.2 128.663,11.326 C129.027,11.55 129.629,11.704 130.175,11.704 C130.847,11.704 131.491,11.466 131.855,11.074 C132.177,10.724 132.345,10.206 132.345,9.534 L132.345,8.176 C131.715,9.128 130.973,9.562 129.965,9.562 C128.257,9.562 126.983,8.12 126.983,6.202 C126.983,5.166 127.361,4.172 128.005,3.556 C128.523,3.052 129.223,2.8 130.049,2.8 C131.029,2.8 131.687,3.164 132.345,4.06 Z M130.245,3.78 C128.985,3.78 128.103,4.76 128.103,6.16 C128.103,7.546 128.999,8.582 130.217,8.582 C130.833,8.582 131.435,8.288 131.855,7.798 C132.135,7.476 132.317,6.846 132.317,6.202 C132.317,5.362 132.191,4.914 131.813,4.494 C131.421,4.06 130.819,3.78 130.245,3.78 Z M142.537,2.8 C144.441,2.8 145.799,4.214 145.799,6.202 C145.799,8.092 144.343,9.562 142.495,9.562 C140.577,9.562 139.233,8.162 139.233,6.174 C139.233,4.172 140.577,2.8 142.537,2.8 Z M142.537,3.78 C141.207,3.78 140.325,4.746 140.325,6.188 C140.325,7.616 141.207,8.582 142.523,8.582 C143.797,8.582 144.707,7.588 144.707,6.188 C144.707,4.746 143.839,3.78 142.537,3.78 Z M147.423,2.954 L148.487,2.954 L148.487,3.864 C149.047,3.108 149.607,2.8 150.405,2.8 C150.993,2.8 151.525,2.996 151.903,3.332 C152.309,3.724 152.449,4.172 152.449,5.054 L152.449,9.408 L151.385,9.408 L151.385,5.292 C151.385,4.718 151.315,4.41 151.147,4.186 C150.951,3.92 150.573,3.752 150.139,3.752 C149.663,3.752 149.229,3.934 148.907,4.298 C148.599,4.634 148.487,4.942 148.487,5.474 L148.487,9.408 L147.423,9.408 L147.423,2.954 Z M163.621,4.018 L163.621,2.954 L164.685,2.954 L164.685,9.408 L163.621,9.408 L163.621,8.162 C162.977,9.128 162.249,9.562 161.269,9.562 C159.491,9.562 158.231,8.162 158.231,6.202 C158.231,4.228 159.519,2.8 161.297,2.8 C162.277,2.8 162.991,3.178 163.621,4.018 Z M161.451,3.752 C160.751,3.752 160.261,3.99 159.883,4.522 C159.547,4.984 159.351,5.6 159.351,6.23 C159.351,7.602 160.247,8.638 161.423,8.638 C162.641,8.638 163.635,7.504 163.635,6.118 C163.635,4.718 162.739,3.752 161.451,3.752 Z M167.891,9.408 L166.827,9.408 L166.827,0.07 L167.891,0.07 L167.891,9.408 Z M171.097,9.408 L170.033,9.408 L170.033,0.07 L171.097,0.07 L171.097,9.408 Z M181.485,4.718 L180.421,4.718 L180.421,4.648 C180.421,4.046 179.931,3.668 179.189,3.668 C178.475,3.668 178.027,4.032 178.027,4.592 C178.027,5.152 178.307,5.362 179.469,5.684 C180.295,5.908 180.729,6.118 181.037,6.426 C181.359,6.748 181.555,7.21 181.555,7.686 C181.555,8.806 180.631,9.562 179.259,9.562 C177.789,9.562 176.963,8.876 176.851,7.574 L177.901,7.574 C177.971,8.302 178.447,8.694 179.259,8.694 C179.987,8.694 180.463,8.316 180.463,7.742 C180.463,7.182 180.099,6.902 178.993,6.622 C177.593,6.244 176.963,5.656 176.963,4.676 C176.963,3.556 177.873,2.8 179.231,2.8 C180.603,2.8 181.429,3.5 181.485,4.718 Z M184.257,2.954 L184.257,9.408 L183.193,9.408 L183.193,2.954 L184.257,2.954 Z M183.739,0.448 C184.117,0.448 184.411,0.756 184.411,1.148 C184.411,1.526 184.103,1.82 183.725,1.82 C183.347,1.82 183.053,1.526 183.053,1.134 C183.053,0.742 183.347,0.448 183.739,0.448 Z M191.229,3.934 L191.229,0.07 L192.293,0.07 L192.293,9.408 L191.229,9.408 L191.229,8.302 C190.585,9.184 189.899,9.562 188.919,9.562 C187.141,9.562 185.881,8.176 185.881,6.216 C185.881,4.256 187.169,2.8 188.919,2.8 C189.871,2.8 190.599,3.15 191.229,3.934 Z M189.143,3.752 C187.869,3.752 187.001,4.76 187.001,6.23 C187.001,7.644 187.855,8.638 189.073,8.638 C190.319,8.638 191.229,7.602 191.229,6.202 C191.229,4.746 190.375,3.752 189.143,3.752 Z M200.427,6.524 L195.051,6.524 C195.107,7.07 195.205,7.35 195.471,7.7 C195.891,8.274 196.507,8.582 197.207,8.582 C198.005,8.582 198.761,8.148 199.139,7.476 L200.077,7.826 C199.545,8.904 198.439,9.562 197.207,9.562 C195.289,9.562 193.917,8.162 193.917,6.202 C193.917,4.214 195.275,2.8 197.165,2.8 C199.041,2.8 200.441,4.214 200.441,6.104 C200.441,6.188 200.441,6.37 200.427,6.524 Z M195.065,5.74 L199.307,5.74 C199.265,5.236 199.167,4.956 198.943,4.634 C198.537,4.088 197.879,3.752 197.165,3.752 C196.451,3.752 195.807,4.088 195.429,4.648 C195.233,4.956 195.149,5.222 195.065,5.74 Z M205.999,4.718 L204.935,4.718 L204.935,4.648 C204.935,4.046 204.445,3.668 203.703,3.668 C202.989,3.668 202.541,4.032 202.541,4.592 C202.541,5.152 202.821,5.362 203.983,5.684 C204.809,5.908 205.243,6.118 205.551,6.426 C205.873,6.748 206.069,7.21 206.069,7.686 C206.069,8.806 205.145,9.562 203.773,9.562 C202.303,9.562 201.477,8.876 201.365,7.574 L202.415,7.574 C202.485,8.302 202.961,8.694 203.773,8.694 C204.501,8.694 204.977,8.316 204.977,7.742 C204.977,7.182 204.613,6.902 203.507,6.622 C202.107,6.244 201.477,5.656 201.477,4.676 C201.477,3.556 202.387,2.8 203.745,2.8 C205.117,2.8 205.943,3.5 205.999,4.718 Z"/>
      <g fill="#C41261" transform="translate(112 18.408)">
        <rect width="1" height="14" x="4" y="1"/>
        <rect width="9" height="1"/>
        <rect width="9" height="1" y="15"/>
      </g>
    </g>
  </g>
</svg>
