<svg xmlns="http://www.w3.org/2000/svg" width="480" height="180" viewBox="0 0 480 180">
  <g fill="none" fill-rule="evenodd">
    <rect width="480" height="180" fill="#FFF" fill-opacity=".01" fill-rule="nonzero"/>
    <g transform="translate(90 66)">
      <rect width="299" height="47" x=".5" y=".5" stroke="#A9B6BE" rx="8"/>
      <path fill="#314351" fill-rule="nonzero" d="M130.208271,30 L125.285908,30 L125.285908,18.0219727 L130.100361,18.0219727 C132.349873,18.0219727 133.7029,19.1674805 133.7029,21.0102539 C133.7029,22.2636719 132.781514,23.3842773 131.602803,23.5834961 L131.602803,23.7246094 C133.221455,23.890625 134.300557,25.0444336 134.300557,26.6049805 C134.300557,28.7133789 132.764912,30 130.208271,30 Z M127.145283,19.5991211 L127.145283,23.09375 L129.353291,23.09375 C130.996846,23.09375 131.851826,22.487793 131.851826,21.3505859 C131.851826,20.246582 131.04665,19.5991211 129.668721,19.5991211 L127.145283,19.5991211 Z M127.145283,28.4228516 L129.834736,28.4228516 C131.511494,28.4228516 132.399678,27.7421875 132.399678,26.472168 C132.399678,25.21875 131.478291,24.5629883 129.726826,24.5629883 L127.145283,24.5629883 L127.145283,28.4228516 Z M143.685479,20.9604492 L143.685479,30 L141.967217,30 L141.967217,28.5639648 L141.826104,28.5639648 C141.386162,29.5932617 140.464775,30.1743164 139.095146,30.1743164 C137.094658,30.1743164 135.982354,28.9541016 135.982354,26.8291016 L135.982354,20.9604492 L137.767021,20.9604492 L137.767021,26.3642578 C137.767021,27.8251953 138.356377,28.5224609 139.6679,28.5224609 C141.112236,28.5224609 141.900811,27.6674805 141.900811,26.2480469 L141.900811,20.9604492 L143.685479,20.9604492 Z M146.496182,18.7109375 L148.28085,18.7109375 L148.28085,21.0019531 L150.239834,21.0019531 L150.239834,22.5043945 L148.28085,22.5043945 L148.28085,27.152832 C148.28085,28.0991211 148.670986,28.5141602 149.55917,28.5141602 C149.833096,28.5141602 149.990811,28.4975586 150.239834,28.4726562 L150.239834,29.9584961 C149.949307,30.0083008 149.617275,30.0498047 149.268643,30.0498047 C147.284756,30.0498047 146.496182,29.3525391 146.496182,27.609375 L146.496182,22.5043945 L145.060146,22.5043945 L145.060146,21.0019531 L146.496182,21.0019531 L146.496182,18.7109375 Z M152.593994,18.7109375 L154.378662,18.7109375 L154.378662,21.0019531 L156.337646,21.0019531 L156.337646,22.5043945 L154.378662,22.5043945 L154.378662,27.152832 C154.378662,28.0991211 154.768799,28.5141602 155.656982,28.5141602 C155.930908,28.5141602 156.088623,28.4975586 156.337646,28.4726562 L156.337646,29.9584961 C156.047119,30.0083008 155.715088,30.0498047 155.366455,30.0498047 C153.382568,30.0498047 152.593994,29.3525391 152.593994,27.609375 L152.593994,22.5043945 L151.157959,22.5043945 L151.157959,21.0019531 L152.593994,21.0019531 L152.593994,18.7109375 Z M161.746494,30.1743164 C159.098545,30.1743164 157.479893,28.40625 157.479893,25.4760742 C157.479893,22.5625 159.106846,20.7861328 161.746494,20.7861328 C164.377842,20.7861328 166.004795,22.5625 166.004795,25.4760742 C166.004795,28.40625 164.386143,30.1743164 161.746494,30.1743164 Z M161.746494,28.5888672 C163.290439,28.5888672 164.170322,27.4433594 164.170322,25.4760742 C164.170322,23.5170898 163.290439,22.371582 161.746494,22.371582 C160.194248,22.371582 159.322666,23.5170898 159.322666,25.4760742 C159.322666,27.4516602 160.194248,28.5888672 161.746494,28.5888672 Z M167.736396,30 L167.736396,20.9604492 L169.454658,20.9604492 L169.454658,22.3964844 L169.587471,22.3964844 C170.027412,21.3920898 170.923896,20.7861328 172.285225,20.7861328 C174.302314,20.7861328 175.414619,21.9980469 175.414619,24.1479492 L175.414619,30 L173.629951,30 L173.629951,24.5961914 C173.629951,23.1435547 172.999092,22.4213867 171.679268,22.4213867 C170.359443,22.4213867 169.521064,23.3012695 169.521064,24.7124023 L169.521064,30 L167.736396,30 Z"/>
    </g>
  </g>
</svg>
