<svg xmlns="http://www.w3.org/2000/svg" xmlns:xlink="http://www.w3.org/1999/xlink" width="391" height="196" viewBox="0 0 391 196">
  <defs>
    <rect id="3-b" width="375" height="180" x="0" y="0"/>
    <filter id="3-a" width="106.7%" height="113.9%" x="-3.3%" y="-6.4%" filterUnits="objectBoundingBox">
      <feOffset dy="1" in="SourceAlpha" result="shadowOffsetOuter1"/>
      <feGaussianBlur in="shadowOffsetOuter1" result="shadowBlurOuter1" stdDeviation="4"/>
      <feColorMatrix in="shadowBlurOuter1" result="shadowMatrixOuter1" values="0 0 0 0 0   0 0 0 0 0   0 0 0 0 0  0 0 0 0.2 0"/>
      <feMorphology in="SourceAlpha" radius="1" result="shadowSpreadOuter2"/>
      <feOffset dy="3" in="shadowSpreadOuter2" result="shadowOffsetOuter2"/>
      <feGaussianBlur in="shadowOffsetOuter2" result="shadowBlurOuter2" stdDeviation="1.5"/>
      <feColorMatrix in="shadowBlurOuter2" result="shadowMatrixOuter2" values="0 0 0 0 0   0 0 0 0 0   0 0 0 0 0  0 0 0 0.12 0"/>
      <feOffset dy="3" in="SourceAlpha" result="shadowOffsetOuter3"/>
      <feGaussianBlur in="shadowOffsetOuter3" result="shadowBlurOuter3" stdDeviation="2"/>
      <feColorMatrix in="shadowBlurOuter3" result="shadowMatrixOuter3" values="0 0 0 0 0   0 0 0 0 0   0 0 0 0 0  0 0 0 0.14 0"/>
      <feMerge>
        <feMergeNode in="shadowMatrixOuter1"/>
        <feMergeNode in="shadowMatrixOuter2"/>
        <feMergeNode in="shadowMatrixOuter3"/>
      </feMerge>
    </filter>
  </defs>
  <g fill="none" fill-rule="evenodd" transform="translate(8 7)">
    <rect width="375" height="180" fill="#FFF" fill-opacity=".01" fill-rule="nonzero"/>
    <use fill="#000" filter="url(#3-a)" xlink:href="#3-b"/>
    <use fill="#F7F7F7" xlink:href="#3-b"/>
    <rect width="375" height="180" fill="#F2F2F2"/>
    <g transform="translate(16 92)">
      <g transform="translate(179)">
        <rect width="164" height="48" fill="#314351" rx="8"/>
        <path fill="#FFF" fill-rule="nonzero" d="M58.4745508,30 L57.3788476,26.8208008 L52.813418,26.8208008 L51.709414,30 L49.8002344,30 L54.1249414,18.0219727 L56.1254297,18.0219727 L60.4501367,30 L58.4745508,30 Z M55.0297265,20.1967773 L53.2865625,25.2602539 L56.9057031,25.2602539 L55.1708398,20.1967773 L55.0297265,20.1967773 Z M66.6060547,20.8110352 C68.9053711,20.8110352 70.3580078,22.6040039 70.3580078,25.4760742 C70.3580078,28.3481445 68.9053711,30.1494141 66.6226562,30.1494141 C65.3360351,30.1494141 64.3150391,29.5849609 63.8418945,28.6303711 L63.7007812,28.6303711 L63.7007812,33.0048828 L61.9161133,33.0048828 L61.9161133,20.9604492 L63.634375,20.9604492 L63.634375,22.4545898 L63.7671875,22.4545898 C64.3150391,21.425293 65.3775391,20.8110352 66.6060547,20.8110352 Z M66.099707,28.5473633 C67.61875,28.5473633 68.5235351,27.3935547 68.5235351,25.4760742 C68.5235351,23.5668945 67.61875,22.4130859 66.1080078,22.4130859 C64.6055664,22.4130859 63.6675781,23.5917969 63.6675781,25.484375 C63.6675781,27.3686523 64.6055664,28.5473633 66.099707,28.5473633 Z M76.7795508,20.8110352 C79.0788672,20.8110352 80.5315039,22.6040039 80.5315039,25.4760742 C80.5315039,28.3481445 79.0788672,30.1494141 76.7961523,30.1494141 C75.5095312,30.1494141 74.4885352,29.5849609 74.0153906,28.6303711 L73.8742773,28.6303711 L73.8742773,33.0048828 L72.0896094,33.0048828 L72.0896094,20.9604492 L73.8078711,20.9604492 L73.8078711,22.4545898 L73.9406836,22.4545898 C74.4885352,21.425293 75.5510352,20.8110352 76.7795508,20.8110352 Z M76.2732031,28.5473633 C77.7922461,28.5473633 78.6970312,27.3935547 78.6970312,25.4760742 C78.6970312,23.5668945 77.7922461,22.4130859 76.2815039,22.4130859 C74.7790625,22.4130859 73.8410742,23.5917969 73.8410742,25.484375 C73.8410742,27.3686523 74.7790625,28.5473633 76.2732031,28.5473633 Z M82.2631055,30 L82.2631055,20.9604492 L83.9813672,20.9604492 L83.9813672,22.3466797 L84.1141797,22.3466797 C84.3715039,21.4584961 85.3758984,20.8110352 86.5546094,20.8110352 C86.8202344,20.8110352 87.1605664,20.8359375 87.3514844,20.8857422 L87.3514844,22.6455078 C87.2020703,22.5957031 86.6708203,22.5375977 86.3553906,22.5375977 C85.0023633,22.5375977 84.0477734,23.3925781 84.0477734,24.6625977 L84.0477734,30 L82.2631055,30 Z M92.2456836,30.1743164 C89.5977344,30.1743164 87.979082,28.40625 87.979082,25.4760742 C87.979082,22.5625 89.6060352,20.7861328 92.2456836,20.7861328 C94.8770313,20.7861328 96.5039844,22.5625 96.5039844,25.4760742 C96.5039844,28.40625 94.885332,30.1743164 92.2456836,30.1743164 Z M92.2456836,28.5888672 C93.7896289,28.5888672 94.6695117,27.4433594 94.6695117,25.4760742 C94.6695117,23.5170898 93.7896289,22.371582 92.2456836,22.371582 C90.6934375,22.371582 89.8218555,23.5170898 89.8218555,25.4760742 C89.8218555,27.4516602 90.6934375,28.5888672 92.2456836,28.5888672 Z M105.540273,20.9604492 L102.286367,30 L100.368887,30 L97.1066797,20.9604492 L99.0158594,20.9604492 L101.265371,28.0908203 L101.406484,28.0908203 L103.647695,20.9604492 L105.540273,20.9604492 Z M110.30166,22.3051758 C108.981836,22.3051758 108.060449,23.2348633 107.96084,24.6459961 L112.52627,24.6459961 C112.484766,23.2265625 111.621484,22.3051758 110.30166,22.3051758 Z M112.517969,27.5595703 L114.23623,27.5595703 C113.829492,29.1782227 112.385156,30.1743164 110.318262,30.1743164 C107.728418,30.1743164 106.142969,28.3979492 106.142969,25.5092773 C106.142969,22.6206055 107.761621,20.7861328 110.309961,20.7861328 C112.825098,20.7861328 114.344141,22.5043945 114.344141,25.3432617 L114.344141,25.9658203 L107.96084,25.9658203 L107.96084,26.0654297 C108.018945,27.6508789 108.940332,28.6552734 110.368066,28.6552734 C111.447168,28.6552734 112.185938,28.2651367 112.517969,27.5595703 Z"/>
      </g>
      <rect width="162" height="47" x=".5" y=".5" stroke="#A9B6BE" rx="8"/>
      <path fill="#314351" fill-rule="nonzero" d="M62.9169238,18.0219727 L67.2416309,18.0219727 C70.7943652,18.0219727 72.8778613,20.2050781 72.8778613,23.9736328 C72.8778613,27.800293 70.8109668,30 67.2416309,30 L62.9169238,30 L62.9169238,18.0219727 Z M64.7762988,19.715332 L64.7762988,28.3066406 L67.0341113,28.3066406 C69.5409473,28.3066406 70.9852832,26.7460938 70.9852832,23.9985352 C70.9852832,21.2924805 69.5160449,19.715332 67.0341113,19.715332 L64.7762988,19.715332 Z M78.4776269,22.3051758 C77.1578027,22.3051758 76.236416,23.2348633 76.1368066,24.6459961 L80.7022363,24.6459961 C80.6607324,23.2265625 79.7974512,22.3051758 78.4776269,22.3051758 Z M80.6939355,27.5595703 L82.4121973,27.5595703 C82.005459,29.1782227 80.561123,30.1743164 78.4942285,30.1743164 C75.9043848,30.1743164 74.3189355,28.3979492 74.3189355,25.5092773 C74.3189355,22.6206055 75.9375879,20.7861328 78.4859277,20.7861328 C81.0010644,20.7861328 82.5201074,22.5043945 82.5201074,25.3432617 L82.5201074,25.9658203 L76.1368066,25.9658203 L76.1368066,26.0654297 C76.1949121,27.6508789 77.1162988,28.6552734 78.5440332,28.6552734 C79.6231348,28.6552734 80.3619043,28.2651367 80.6939355,27.5595703 Z M84.251709,30 L84.251709,20.9604492 L85.9699707,20.9604492 L85.9699707,22.3964844 L86.1027832,22.3964844 C86.5427246,21.3920898 87.439209,20.7861328 88.8005371,20.7861328 C90.817627,20.7861328 91.9299316,21.9980469 91.9299316,24.1479492 L91.9299316,30 L90.1452637,30 L90.1452637,24.5961914 C90.1452637,23.1435547 89.5144043,22.4213867 88.1945801,22.4213867 C86.8747559,22.4213867 86.036377,23.3012695 86.036377,24.7124023 L86.036377,30 L84.251709,30 Z M94.6244238,33.2788086 C94.4750098,33.2788086 94.0516699,33.262207 93.8856543,33.2373047 L93.8856543,31.7016602 C94.0267676,31.7265625 94.3006934,31.7348633 94.466709,31.7348633 C95.3133887,31.7348633 95.794834,31.3862305 96.1019629,30.4731445 L96.2347754,30.0332031 L92.9642676,20.9604492 L94.9066504,20.9604492 L97.1727637,28.140625 L97.313877,28.140625 L99.5716895,20.9604492 L101.464268,20.9604492 L98.0941504,30.3735352 C97.3221777,32.5732422 96.4671973,33.2788086 94.6244238,33.2788086 Z"/>
    </g>
    <g fill="#C41261" transform="translate(180 83)">
      <rect width="1" height="9"/>
      <rect width="1" height="9" x="15"/>
      <rect width="14" height="1" x="1" y="4"/>
    </g>
    <path fill="#C8226C" fill-rule="nonzero" d="M83.024,66.356 L80.966,67.728 L80.966,66.664 L84.13,64.592 L84.13,74 L83.024,74 L83.024,66.356 Z M91.62,64.802 L89.226,68.54 C89.618,68.4 89.8,68.358 90.136,68.358 C91.69,68.358 92.894,69.576 92.894,71.158 C92.894,72.81 91.536,74.168 89.884,74.168 C88.218,74.168 86.93,72.852 86.93,71.158 C86.93,70.472 87.112,69.954 87.644,69.1 L90.318,64.802 L91.62,64.802 Z M89.94,69.31 C88.876,69.31 88.036,70.122 88.036,71.158 C88.036,72.25 88.862,73.118 89.912,73.118 C90.962,73.118 91.802,72.264 91.802,71.2 C91.802,70.15 90.976,69.31 89.94,69.31 Z M94.476,67.546 L95.54,67.546 L95.54,68.722 C96.156,67.77 96.814,67.392 97.892,67.392 C99.684,67.392 100.93,68.764 100.93,70.724 C100.93,72.754 99.684,74.154 97.892,74.154 C97.388,74.154 96.926,74.042 96.478,73.818 C96.086,73.622 95.89,73.454 95.54,72.992 L95.54,77.024 L94.476,77.024 L94.476,67.546 Z M97.71,68.344 C96.422,68.344 95.54,69.366 95.54,70.878 C95.54,72.292 96.394,73.23 97.668,73.23 C98.942,73.23 99.796,72.236 99.796,70.766 C99.796,70.01 99.614,69.436 99.236,69.016 C98.858,68.596 98.284,68.344 97.71,68.344 Z M104.598,71.662 L102.876,74 L101.574,74 L103.954,70.794 L101.532,67.546 L102.876,67.546 L104.598,69.912 L106.362,67.546 L107.664,67.546 L105.228,70.794 L107.552,74 L106.25,74 L104.598,71.662 Z M114.16,68.484 L114.16,74 L113.096,74 L113.096,68.484 L112.214,68.484 L112.214,67.546 L113.096,67.546 L113.096,66.678 C113.096,65.404 113.754,64.648 114.874,64.648 C114.93,64.648 115.056,64.648 115.168,64.662 L115.168,65.614 C114.398,65.698 114.188,65.922 114.16,66.678 L114.16,67.546 L115.168,67.546 L115.168,68.484 L114.16,68.484 Z M117.968,67.546 L117.968,74 L116.904,74 L116.904,67.546 L117.968,67.546 Z M117.436,65.04 C117.814,65.04 118.108,65.348 118.108,65.74 C118.108,66.118 117.814,66.412 117.436,66.412 C117.044,66.412 116.75,66.118 116.75,65.726 C116.75,65.334 117.044,65.04 117.436,65.04 Z M122.168,71.662 L120.446,74 L119.144,74 L121.524,70.794 L119.102,67.546 L120.446,67.546 L122.168,69.912 L123.932,67.546 L125.234,67.546 L122.798,70.794 L125.122,74 L123.82,74 L122.168,71.662 Z M132.15,71.116 L126.774,71.116 C126.83,71.662 126.928,71.942 127.194,72.292 C127.614,72.866 128.23,73.174 128.93,73.174 C129.728,73.174 130.484,72.74 130.862,72.068 L131.8,72.418 C131.268,73.496 130.162,74.154 128.93,74.154 C127.012,74.154 125.64,72.754 125.64,70.794 C125.64,68.806 126.998,67.392 128.888,67.392 C130.764,67.392 132.164,68.806 132.164,70.696 C132.164,70.78 132.164,70.962 132.15,71.116 Z M126.788,70.332 L131.03,70.332 C130.988,69.828 130.89,69.548 130.666,69.226 C130.26,68.68 129.602,68.344 128.888,68.344 C128.174,68.344 127.53,68.68 127.152,69.24 C126.956,69.548 126.872,69.814 126.788,70.332 Z M138.534,68.526 L138.534,64.662 L139.598,64.662 L139.598,74 L138.534,74 L138.534,72.894 C137.89,73.776 137.204,74.154 136.224,74.154 C134.446,74.154 133.186,72.768 133.186,70.808 C133.186,68.848 134.474,67.392 136.224,67.392 C137.176,67.392 137.904,67.742 138.534,68.526 Z M136.448,68.344 C135.174,68.344 134.306,69.352 134.306,70.822 C134.306,72.236 135.16,73.23 136.378,73.23 C137.624,73.23 138.534,72.194 138.534,70.794 C138.534,69.338 137.68,68.344 136.448,68.344 Z M145.94,67.546 L147.004,67.546 L147.004,68.722 C147.62,67.77 148.278,67.392 149.356,67.392 C151.148,67.392 152.394,68.764 152.394,70.724 C152.394,72.754 151.148,74.154 149.356,74.154 C148.852,74.154 148.39,74.042 147.942,73.818 C147.55,73.622 147.354,73.454 147.004,72.992 L147.004,77.024 L145.94,77.024 L145.94,67.546 Z M149.174,68.344 C147.886,68.344 147.004,69.366 147.004,70.878 C147.004,72.292 147.858,73.23 149.132,73.23 C150.406,73.23 151.26,72.236 151.26,70.766 C151.26,70.01 151.078,69.436 150.7,69.016 C150.322,68.596 149.748,68.344 149.174,68.344 Z M158.876,68.61 L158.876,67.546 L159.94,67.546 L159.94,74 L158.876,74 L158.876,72.754 C158.232,73.72 157.504,74.154 156.524,74.154 C154.746,74.154 153.486,72.754 153.486,70.794 C153.486,68.82 154.774,67.392 156.552,67.392 C157.532,67.392 158.246,67.77 158.876,68.61 Z M156.706,68.344 C156.006,68.344 155.516,68.582 155.138,69.114 C154.802,69.576 154.606,70.192 154.606,70.822 C154.606,72.194 155.502,73.23 156.678,73.23 C157.896,73.23 158.89,72.096 158.89,70.71 C158.89,69.31 157.994,68.344 156.706,68.344 Z M166.912,68.526 L166.912,64.662 L167.976,64.662 L167.976,74 L166.912,74 L166.912,72.894 C166.268,73.776 165.582,74.154 164.602,74.154 C162.824,74.154 161.564,72.768 161.564,70.808 C161.564,68.848 162.852,67.392 164.602,67.392 C165.554,67.392 166.282,67.742 166.912,68.526 Z M164.826,68.344 C163.552,68.344 162.684,69.352 162.684,70.822 C162.684,72.236 163.538,73.23 164.756,73.23 C166.002,73.23 166.912,72.194 166.912,70.794 C166.912,69.338 166.058,68.344 164.826,68.344 Z M174.948,68.526 L174.948,64.662 L176.012,64.662 L176.012,74 L174.948,74 L174.948,72.894 C174.304,73.776 173.618,74.154 172.638,74.154 C170.86,74.154 169.6,72.768 169.6,70.808 C169.6,68.848 170.888,67.392 172.638,67.392 C173.59,67.392 174.318,67.742 174.948,68.526 Z M172.862,68.344 C171.588,68.344 170.72,69.352 170.72,70.822 C170.72,72.236 171.574,73.23 172.792,73.23 C174.038,73.23 174.948,72.194 174.948,70.794 C174.948,69.338 174.094,68.344 172.862,68.344 Z M179.218,67.546 L179.218,74 L178.154,74 L178.154,67.546 L179.218,67.546 Z M178.7,65.04 C179.078,65.04 179.372,65.348 179.372,65.74 C179.372,66.118 179.064,66.412 178.686,66.412 C178.308,66.412 178.014,66.118 178.014,65.726 C178.014,65.334 178.308,65.04 178.7,65.04 Z M181.36,67.546 L182.424,67.546 L182.424,68.456 C182.984,67.7 183.544,67.392 184.342,67.392 C184.93,67.392 185.462,67.588 185.84,67.924 C186.246,68.316 186.386,68.764 186.386,69.646 L186.386,74 L185.322,74 L185.322,69.884 C185.322,69.31 185.252,69.002 185.084,68.778 C184.888,68.512 184.51,68.344 184.076,68.344 C183.6,68.344 183.166,68.526 182.844,68.89 C182.536,69.226 182.424,69.534 182.424,70.066 L182.424,74 L181.36,74 L181.36,67.546 Z M193.232,68.652 L193.232,67.546 L194.296,67.546 L194.296,74.042 C194.296,75.12 194.03,75.848 193.442,76.408 C192.868,76.968 192.042,77.262 191.062,77.262 C189.858,77.262 188.906,76.87 188.206,76.086 L188.934,75.358 C189.228,75.666 189.368,75.792 189.55,75.918 C189.914,76.142 190.516,76.296 191.062,76.296 C191.734,76.296 192.378,76.058 192.742,75.666 C193.064,75.316 193.232,74.798 193.232,74.126 L193.232,72.768 C192.602,73.72 191.86,74.154 190.852,74.154 C189.144,74.154 187.87,72.712 187.87,70.794 C187.87,69.758 188.248,68.764 188.892,68.148 C189.41,67.644 190.11,67.392 190.936,67.392 C191.916,67.392 192.574,67.756 193.232,68.652 Z M191.132,68.372 C189.872,68.372 188.99,69.352 188.99,70.752 C188.99,72.138 189.886,73.174 191.104,73.174 C191.72,73.174 192.322,72.88 192.742,72.39 C193.022,72.068 193.204,71.438 193.204,70.794 C193.204,69.954 193.078,69.506 192.7,69.086 C192.308,68.652 191.706,68.372 191.132,68.372 Z M201.702,72.894 L201.702,74 L200.638,74 L200.638,64.662 L201.702,64.662 L201.702,68.652 C202.346,67.77 203.032,67.392 203.97,67.392 C205.776,67.392 207.036,68.792 207.036,70.794 C207.036,72.768 205.79,74.154 204.026,74.154 C203.032,74.154 202.332,73.776 201.702,72.894 Z M203.83,68.344 C202.598,68.344 201.688,69.366 201.688,70.78 C201.688,72.25 202.528,73.23 203.788,73.23 C205.062,73.23 205.916,72.264 205.916,70.822 C205.916,69.38 205.048,68.344 203.83,68.344 Z M214.652,71.116 L209.276,71.116 C209.332,71.662 209.43,71.942 209.696,72.292 C210.116,72.866 210.732,73.174 211.432,73.174 C212.23,73.174 212.986,72.74 213.364,72.068 L214.302,72.418 C213.77,73.496 212.664,74.154 211.432,74.154 C209.514,74.154 208.142,72.754 208.142,70.794 C208.142,68.806 209.5,67.392 211.39,67.392 C213.266,67.392 214.666,68.806 214.666,70.696 C214.666,70.78 214.666,70.962 214.652,71.116 Z M209.29,70.332 L213.532,70.332 C213.49,69.828 213.392,69.548 213.168,69.226 C212.762,68.68 212.104,68.344 211.39,68.344 C210.676,68.344 210.032,68.68 209.654,69.24 C209.458,69.548 209.374,69.814 209.29,70.332 Z M217.228,68.484 L217.228,72.684 C217.242,73.006 217.326,73.076 217.718,73.076 L218.208,73.076 L218.208,74 L217.214,74 C216.458,73.986 216.164,73.706 216.164,72.992 L216.164,68.484 L215.268,68.484 L215.268,67.546 L216.164,67.546 L216.164,65.516 L217.228,65.516 L217.228,67.546 L218.208,67.546 L218.208,68.484 L217.228,68.484 Z M227.42,67.546 L228.512,67.546 L226.216,74 L225.25,74 L223.766,69.1 L222.212,74 L221.204,74 L218.992,67.546 L220.084,67.546 L221.736,72.292 L223.22,67.546 L224.27,67.546 L225.726,72.292 L227.42,67.546 Z M235.54,71.116 L230.164,71.116 C230.22,71.662 230.318,71.942 230.584,72.292 C231.004,72.866 231.62,73.174 232.32,73.174 C233.118,73.174 233.874,72.74 234.252,72.068 L235.19,72.418 C234.658,73.496 233.552,74.154 232.32,74.154 C230.402,74.154 229.03,72.754 229.03,70.794 C229.03,68.806 230.388,67.392 232.278,67.392 C234.154,67.392 235.554,68.806 235.554,70.696 C235.554,70.78 235.554,70.962 235.54,71.116 Z M230.178,70.332 L234.42,70.332 C234.378,69.828 234.28,69.548 234.056,69.226 C233.65,68.68 232.992,68.344 232.278,68.344 C231.564,68.344 230.92,68.68 230.542,69.24 C230.346,69.548 230.262,69.814 230.178,70.332 Z M243.086,71.116 L237.71,71.116 C237.766,71.662 237.864,71.942 238.13,72.292 C238.55,72.866 239.166,73.174 239.866,73.174 C240.664,73.174 241.42,72.74 241.798,72.068 L242.736,72.418 C242.204,73.496 241.098,74.154 239.866,74.154 C237.948,74.154 236.576,72.754 236.576,70.794 C236.576,68.806 237.934,67.392 239.824,67.392 C241.7,67.392 243.1,68.806 243.1,70.696 C243.1,70.78 243.1,70.962 243.086,71.116 Z M237.724,70.332 L241.966,70.332 C241.924,69.828 241.826,69.548 241.602,69.226 C241.196,68.68 240.538,68.344 239.824,68.344 C239.11,68.344 238.466,68.68 238.088,69.24 C237.892,69.548 237.808,69.814 237.724,70.332 Z M244.64,67.546 L245.704,67.546 L245.704,68.456 C246.264,67.7 246.824,67.392 247.622,67.392 C248.21,67.392 248.742,67.588 249.12,67.924 C249.526,68.316 249.666,68.764 249.666,69.646 L249.666,74 L248.602,74 L248.602,69.884 C248.602,69.31 248.532,69.002 248.364,68.778 C248.168,68.512 247.79,68.344 247.356,68.344 C246.88,68.344 246.446,68.526 246.124,68.89 C245.816,69.226 245.704,69.534 245.704,70.066 L245.704,74 L244.64,74 L244.64,67.546 Z M257.03,72.894 L257.03,74 L255.966,74 L255.966,64.662 L257.03,64.662 L257.03,68.652 C257.674,67.77 258.36,67.392 259.298,67.392 C261.104,67.392 262.364,68.792 262.364,70.794 C262.364,72.768 261.118,74.154 259.354,74.154 C258.36,74.154 257.66,73.776 257.03,72.894 Z M259.158,68.344 C257.926,68.344 257.016,69.366 257.016,70.78 C257.016,72.25 257.856,73.23 259.116,73.23 C260.39,73.23 261.244,72.264 261.244,70.822 C261.244,69.38 260.376,68.344 259.158,68.344 Z M267.74,67.546 L268.818,67.546 L268.818,71.676 C268.818,72.558 268.65,73.048 268.174,73.482 C267.698,73.916 267.04,74.154 266.312,74.154 C265.584,74.154 264.912,73.902 264.45,73.468 C264.016,73.048 263.806,72.46 263.806,71.676 L263.806,67.546 L264.87,67.546 L264.87,71.648 C264.87,72.558 265.458,73.202 266.312,73.202 C266.76,73.202 267.194,73.02 267.46,72.712 C267.67,72.46 267.74,72.194 267.74,71.676 L267.74,67.546 Z M271.912,68.484 L271.912,72.684 C271.926,73.006 272.01,73.076 272.402,73.076 L272.892,73.076 L272.892,74 L271.898,74 C271.142,73.986 270.848,73.706 270.848,72.992 L270.848,68.484 L269.952,68.484 L269.952,67.546 L270.848,67.546 L270.848,65.516 L271.912,65.516 L271.912,67.546 L272.892,67.546 L272.892,68.484 L271.912,68.484 Z M275.734,68.484 L275.734,72.684 C275.748,73.006 275.832,73.076 276.224,73.076 L276.714,73.076 L276.714,74 L275.72,74 C274.964,73.986 274.67,73.706 274.67,72.992 L274.67,68.484 L273.774,68.484 L273.774,67.546 L274.67,67.546 L274.67,65.516 L275.734,65.516 L275.734,67.546 L276.714,67.546 L276.714,68.484 L275.734,68.484 Z M280.886,67.392 C282.79,67.392 284.148,68.806 284.148,70.794 C284.148,72.684 282.692,74.154 280.844,74.154 C278.926,74.154 277.582,72.754 277.582,70.766 C277.582,68.764 278.926,67.392 280.886,67.392 Z M280.886,68.372 C279.556,68.372 278.674,69.338 278.674,70.78 C278.674,72.208 279.556,73.174 280.872,73.174 C282.146,73.174 283.056,72.18 283.056,70.78 C283.056,69.338 282.188,68.372 280.886,68.372 Z M285.772,67.546 L286.836,67.546 L286.836,68.456 C287.396,67.7 287.956,67.392 288.754,67.392 C289.342,67.392 289.874,67.588 290.252,67.924 C290.658,68.316 290.798,68.764 290.798,69.646 L290.798,74 L289.734,74 L289.734,69.884 C289.734,69.31 289.664,69.002 289.496,68.778 C289.3,68.512 288.922,68.344 288.488,68.344 C288.012,68.344 287.578,68.526 287.256,68.89 C286.948,69.226 286.836,69.534 286.836,70.066 L286.836,74 L285.772,74 L285.772,67.546 Z M296.944,69.31 L295.88,69.31 L295.88,69.24 C295.88,68.638 295.39,68.26 294.648,68.26 C293.934,68.26 293.486,68.624 293.486,69.184 C293.486,69.744 293.766,69.954 294.928,70.276 C295.754,70.5 296.188,70.71 296.496,71.018 C296.818,71.34 297.014,71.802 297.014,72.278 C297.014,73.398 296.09,74.154 294.718,74.154 C293.248,74.154 292.422,73.468 292.31,72.166 L293.36,72.166 C293.43,72.894 293.906,73.286 294.718,73.286 C295.446,73.286 295.922,72.908 295.922,72.334 C295.922,71.774 295.558,71.494 294.452,71.214 C293.052,70.836 292.422,70.248 292.422,69.268 C292.422,68.148 293.332,67.392 294.69,67.392 C296.062,67.392 296.888,68.092 296.944,69.31 Z"/>
  </g>
</svg>
