<svg xmlns="http://www.w3.org/2000/svg" xmlns:xlink="http://www.w3.org/1999/xlink" width="391" height="196" viewBox="0 0 391 196">
  <defs>
    <rect id="4-b" width="375" height="180" x="0" y="0"/>
    <filter id="4-a" width="106.7%" height="113.9%" x="-3.3%" y="-6.4%" filterUnits="objectBoundingBox">
      <feOffset dy="1" in="SourceAlpha" result="shadowOffsetOuter1"/>
      <feGaussianBlur in="shadowOffsetOuter1" result="shadowBlurOuter1" stdDeviation="4"/>
      <feColorMatrix in="shadowBlurOuter1" result="shadowMatrixOuter1" values="0 0 0 0 0   0 0 0 0 0   0 0 0 0 0  0 0 0 0.2 0"/>
      <feMorphology in="SourceAlpha" radius="1" result="shadowSpreadOuter2"/>
      <feOffset dy="3" in="shadowSpreadOuter2" result="shadowOffsetOuter2"/>
      <feGaussianBlur in="shadowOffsetOuter2" result="shadowBlurOuter2" stdDeviation="1.5"/>
      <feColorMatrix in="shadowBlurOuter2" result="shadowMatrixOuter2" values="0 0 0 0 0   0 0 0 0 0   0 0 0 0 0  0 0 0 0.12 0"/>
      <feOffset dy="3" in="SourceAlpha" result="shadowOffsetOuter3"/>
      <feGaussianBlur in="shadowOffsetOuter3" result="shadowBlurOuter3" stdDeviation="2"/>
      <feColorMatrix in="shadowBlurOuter3" result="shadowMatrixOuter3" values="0 0 0 0 0   0 0 0 0 0   0 0 0 0 0  0 0 0 0.14 0"/>
      <feMerge>
        <feMergeNode in="shadowMatrixOuter1"/>
        <feMergeNode in="shadowMatrixOuter2"/>
        <feMergeNode in="shadowMatrixOuter3"/>
      </feMerge>
    </filter>
  </defs>
  <g fill="none" fill-rule="evenodd" transform="translate(8 7)">
    <rect width="375" height="180" fill="#FFF" fill-opacity=".01" fill-rule="nonzero"/>
    <use fill="#000" filter="url(#4-a)" xlink:href="#4-b"/>
    <use fill="#F7F7F7" xlink:href="#4-b"/>
    <rect width="375" height="180" fill="#F2F2F2"/>
    <g transform="translate(16 28)">
      <g transform="translate(0 64)">
        <rect width="343" height="48" fill="#314351" rx="8"/>
        <path fill="#FFF" fill-rule="nonzero" d="M148.053341,30 L146.957638,26.8208008 L142.392208,26.8208008 L141.288204,30 L139.379024,30 L143.703731,18.0219727 L145.70422,18.0219727 L150.028927,30 L148.053341,30 Z M144.608517,20.1967773 L142.865353,25.2602539 L146.484493,25.2602539 L144.74963,20.1967773 L144.608517,20.1967773 Z M156.184845,20.8110352 C158.484161,20.8110352 159.936798,22.6040039 159.936798,25.4760742 C159.936798,28.3481445 158.484161,30.1494141 156.201446,30.1494141 C154.914825,30.1494141 153.893829,29.5849609 153.420685,28.6303711 L153.279571,28.6303711 L153.279571,33.0048828 L151.494903,33.0048828 L151.494903,20.9604492 L153.213165,20.9604492 L153.213165,22.4545898 L153.345978,22.4545898 C153.893829,21.425293 154.956329,20.8110352 156.184845,20.8110352 Z M155.678497,28.5473633 C157.19754,28.5473633 158.102325,27.3935547 158.102325,25.4760742 C158.102325,23.5668945 157.19754,22.4130859 155.686798,22.4130859 C154.184356,22.4130859 153.246368,23.5917969 153.246368,25.484375 C153.246368,27.3686523 154.184356,28.5473633 155.678497,28.5473633 Z M166.358341,20.8110352 C168.657657,20.8110352 170.110294,22.6040039 170.110294,25.4760742 C170.110294,28.3481445 168.657657,30.1494141 166.374942,30.1494141 C165.088321,30.1494141 164.067325,29.5849609 163.594181,28.6303711 L163.453067,28.6303711 L163.453067,33.0048828 L161.668399,33.0048828 L161.668399,20.9604492 L163.386661,20.9604492 L163.386661,22.4545898 L163.519474,22.4545898 C164.067325,21.425293 165.129825,20.8110352 166.358341,20.8110352 Z M165.851993,28.5473633 C167.371036,28.5473633 168.275821,27.3935547 168.275821,25.4760742 C168.275821,23.5668945 167.371036,22.4130859 165.860294,22.4130859 C164.357853,22.4130859 163.419864,23.5917969 163.419864,25.484375 C163.419864,27.3686523 164.357853,28.5473633 165.851993,28.5473633 Z M171.841895,30 L171.841895,20.9604492 L173.560157,20.9604492 L173.560157,22.3466797 L173.69297,22.3466797 C173.950294,21.4584961 174.954688,20.8110352 176.133399,20.8110352 C176.399024,20.8110352 176.739356,20.8359375 176.930274,20.8857422 L176.930274,22.6455078 C176.78086,22.5957031 176.24961,22.5375977 175.934181,22.5375977 C174.581153,22.5375977 173.626563,23.3925781 173.626563,24.6625977 L173.626563,30 L171.841895,30 Z M181.824474,30.1743164 C179.176524,30.1743164 177.557872,28.40625 177.557872,25.4760742 C177.557872,22.5625 179.184825,20.7861328 181.824474,20.7861328 C184.455821,20.7861328 186.082774,22.5625 186.082774,25.4760742 C186.082774,28.40625 184.464122,30.1743164 181.824474,30.1743164 Z M181.824474,28.5888672 C183.368419,28.5888672 184.248302,27.4433594 184.248302,25.4760742 C184.248302,23.5170898 183.368419,22.371582 181.824474,22.371582 C180.272228,22.371582 179.400645,23.5170898 179.400645,25.4760742 C179.400645,27.4516602 180.272228,28.5888672 181.824474,28.5888672 Z M195.119063,20.9604492 L191.865157,30 L189.947677,30 L186.68547,20.9604492 L188.594649,20.9604492 L190.844161,28.0908203 L190.985274,28.0908203 L193.226485,20.9604492 L195.119063,20.9604492 Z M199.88045,22.3051758 C198.560626,22.3051758 197.639239,23.2348633 197.53963,24.6459961 L202.10506,24.6459961 C202.063556,23.2265625 201.200274,22.3051758 199.88045,22.3051758 Z M202.096759,27.5595703 L203.81502,27.5595703 C203.408282,29.1782227 201.963946,30.1743164 199.897052,30.1743164 C197.307208,30.1743164 195.721759,28.3979492 195.721759,25.5092773 C195.721759,22.6206055 197.340411,20.7861328 199.888751,20.7861328 C202.403888,20.7861328 203.922931,22.5043945 203.922931,25.3432617 L203.922931,25.9658203 L197.53963,25.9658203 L197.53963,26.0654297 C197.597735,27.6508789 198.519122,28.6552734 199.946856,28.6552734 C201.025958,28.6552734 201.764728,28.2651367 202.096759,27.5595703 Z"/>
      </g>
      <g transform="translate(2)">
        <rect width="340" height="47" x=".5" y=".5" stroke="#A9B6BE" rx="8"/>
        <path fill="#314351" fill-rule="nonzero" d="M152.671071,18.0219727 L156.995778,18.0219727 C160.548513,18.0219727 162.632009,20.2050781 162.632009,23.9736328 C162.632009,27.800293 160.565114,30 156.995778,30 L152.671071,30 L152.671071,18.0219727 Z M154.530446,19.715332 L154.530446,28.3066406 L156.788259,28.3066406 C159.295095,28.3066406 160.739431,26.7460938 160.739431,23.9985352 C160.739431,21.2924805 159.270192,19.715332 156.788259,19.715332 L154.530446,19.715332 Z M168.231774,22.3051758 C166.91195,22.3051758 165.990563,23.2348633 165.890954,24.6459961 L170.456384,24.6459961 C170.41488,23.2265625 169.551599,22.3051758 168.231774,22.3051758 Z M170.448083,27.5595703 L172.166345,27.5595703 C171.759606,29.1782227 170.31527,30.1743164 168.248376,30.1743164 C165.658532,30.1743164 164.073083,28.3979492 164.073083,25.5092773 C164.073083,22.6206055 165.691735,20.7861328 168.240075,20.7861328 C170.755212,20.7861328 172.274255,22.5043945 172.274255,25.3432617 L172.274255,25.9658203 L165.890954,25.9658203 L165.890954,26.0654297 C165.94906,27.6508789 166.870446,28.6552734 168.298181,28.6552734 C169.377282,28.6552734 170.116052,28.2651367 170.448083,27.5595703 Z M174.005856,30 L174.005856,20.9604492 L175.724118,20.9604492 L175.724118,22.3964844 L175.856931,22.3964844 C176.296872,21.3920898 177.193356,20.7861328 178.554685,20.7861328 C180.571774,20.7861328 181.684079,21.9980469 181.684079,24.1479492 L181.684079,30 L179.899411,30 L179.899411,24.5961914 C179.899411,23.1435547 179.268552,22.4213867 177.948728,22.4213867 C176.628903,22.4213867 175.790524,23.3012695 175.790524,24.7124023 L175.790524,30 L174.005856,30 Z M184.378571,33.2788086 C184.229157,33.2788086 183.805817,33.262207 183.639802,33.2373047 L183.639802,31.7016602 C183.780915,31.7265625 184.054841,31.7348633 184.220856,31.7348633 C185.067536,31.7348633 185.548981,31.3862305 185.85611,30.4731445 L185.988923,30.0332031 L182.718415,20.9604492 L184.660798,20.9604492 L186.926911,28.140625 L187.068024,28.140625 L189.325837,20.9604492 L191.218415,20.9604492 L187.848298,30.3735352 C187.076325,32.5732422 186.221345,33.2788086 184.378571,33.2788086 Z"/>
      </g>
    </g>
  </g>
</svg>
