<svg xmlns="http://www.w3.org/2000/svg" xmlns:xlink="http://www.w3.org/1999/xlink" width="391" height="196" viewBox="0 0 391 196">
  <defs>
    <rect id="5-b" width="375" height="180" x="0" y="0"/>
    <filter id="5-a" width="106.7%" height="113.9%" x="-3.3%" y="-6.4%" filterUnits="objectBoundingBox">
      <feOffset dy="1" in="SourceAlpha" result="shadowOffsetOuter1"/>
      <feGaussianBlur in="shadowOffsetOuter1" result="shadowBlurOuter1" stdDeviation="4"/>
      <feColorMatrix in="shadowBlurOuter1" result="shadowMatrixOuter1" values="0 0 0 0 0   0 0 0 0 0   0 0 0 0 0  0 0 0 0.2 0"/>
      <feMorphology in="SourceAlpha" radius="1" result="shadowSpreadOuter2"/>
      <feOffset dy="3" in="shadowSpreadOuter2" result="shadowOffsetOuter2"/>
      <feGaussianBlur in="shadowOffsetOuter2" result="shadowBlurOuter2" stdDeviation="1.5"/>
      <feColorMatrix in="shadowBlurOuter2" result="shadowMatrixOuter2" values="0 0 0 0 0   0 0 0 0 0   0 0 0 0 0  0 0 0 0.12 0"/>
      <feOffset dy="3" in="SourceAlpha" result="shadowOffsetOuter3"/>
      <feGaussianBlur in="shadowOffsetOuter3" result="shadowBlurOuter3" stdDeviation="2"/>
      <feColorMatrix in="shadowBlurOuter3" result="shadowMatrixOuter3" values="0 0 0 0 0   0 0 0 0 0   0 0 0 0 0  0 0 0 0.14 0"/>
      <feMerge>
        <feMergeNode in="shadowMatrixOuter1"/>
        <feMergeNode in="shadowMatrixOuter2"/>
        <feMergeNode in="shadowMatrixOuter3"/>
      </feMerge>
    </filter>
  </defs>
  <g fill="none" fill-rule="evenodd" transform="translate(8 7)">
    <rect width="375" height="180" fill="#FFF" fill-opacity=".01" fill-rule="nonzero"/>
    <use fill="#000" filter="url(#5-a)" xlink:href="#5-b"/>
    <use fill="#F7F7F7" xlink:href="#5-b"/>
    <rect width="375" height="180" fill="#F2F2F2"/>
    <g transform="translate(16 66)">
      <g transform="translate(179)">
        <rect width="164" height="48" fill="#314351" rx="8"/>
        <path fill="#FFF" fill-rule="nonzero" d="M58.4745508,30 L57.3788476,26.8208008 L52.813418,26.8208008 L51.709414,30 L49.8002344,30 L54.1249414,18.0219727 L56.1254297,18.0219727 L60.4501367,30 L58.4745508,30 Z M55.0297265,20.1967773 L53.2865625,25.2602539 L56.9057031,25.2602539 L55.1708398,20.1967773 L55.0297265,20.1967773 Z M66.6060547,20.8110352 C68.9053711,20.8110352 70.3580078,22.6040039 70.3580078,25.4760742 C70.3580078,28.3481445 68.9053711,30.1494141 66.6226562,30.1494141 C65.3360351,30.1494141 64.3150391,29.5849609 63.8418945,28.6303711 L63.7007812,28.6303711 L63.7007812,33.0048828 L61.9161133,33.0048828 L61.9161133,20.9604492 L63.634375,20.9604492 L63.634375,22.4545898 L63.7671875,22.4545898 C64.3150391,21.425293 65.3775391,20.8110352 66.6060547,20.8110352 Z M66.099707,28.5473633 C67.61875,28.5473633 68.5235351,27.3935547 68.5235351,25.4760742 C68.5235351,23.5668945 67.61875,22.4130859 66.1080078,22.4130859 C64.6055664,22.4130859 63.6675781,23.5917969 63.6675781,25.484375 C63.6675781,27.3686523 64.6055664,28.5473633 66.099707,28.5473633 Z M76.7795508,20.8110352 C79.0788672,20.8110352 80.5315039,22.6040039 80.5315039,25.4760742 C80.5315039,28.3481445 79.0788672,30.1494141 76.7961523,30.1494141 C75.5095312,30.1494141 74.4885352,29.5849609 74.0153906,28.6303711 L73.8742773,28.6303711 L73.8742773,33.0048828 L72.0896094,33.0048828 L72.0896094,20.9604492 L73.8078711,20.9604492 L73.8078711,22.4545898 L73.9406836,22.4545898 C74.4885352,21.425293 75.5510352,20.8110352 76.7795508,20.8110352 Z M76.2732031,28.5473633 C77.7922461,28.5473633 78.6970312,27.3935547 78.6970312,25.4760742 C78.6970312,23.5668945 77.7922461,22.4130859 76.2815039,22.4130859 C74.7790625,22.4130859 73.8410742,23.5917969 73.8410742,25.484375 C73.8410742,27.3686523 74.7790625,28.5473633 76.2732031,28.5473633 Z M82.2631055,30 L82.2631055,20.9604492 L83.9813672,20.9604492 L83.9813672,22.3466797 L84.1141797,22.3466797 C84.3715039,21.4584961 85.3758984,20.8110352 86.5546094,20.8110352 C86.8202344,20.8110352 87.1605664,20.8359375 87.3514844,20.8857422 L87.3514844,22.6455078 C87.2020703,22.5957031 86.6708203,22.5375977 86.3553906,22.5375977 C85.0023633,22.5375977 84.0477734,23.3925781 84.0477734,24.6625977 L84.0477734,30 L82.2631055,30 Z M92.2456836,30.1743164 C89.5977344,30.1743164 87.979082,28.40625 87.979082,25.4760742 C87.979082,22.5625 89.6060352,20.7861328 92.2456836,20.7861328 C94.8770313,20.7861328 96.5039844,22.5625 96.5039844,25.4760742 C96.5039844,28.40625 94.885332,30.1743164 92.2456836,30.1743164 Z M92.2456836,28.5888672 C93.7896289,28.5888672 94.6695117,27.4433594 94.6695117,25.4760742 C94.6695117,23.5170898 93.7896289,22.371582 92.2456836,22.371582 C90.6934375,22.371582 89.8218555,23.5170898 89.8218555,25.4760742 C89.8218555,27.4516602 90.6934375,28.5888672 92.2456836,28.5888672 Z M105.540273,20.9604492 L102.286367,30 L100.368887,30 L97.1066797,20.9604492 L99.0158594,20.9604492 L101.265371,28.0908203 L101.406484,28.0908203 L103.647695,20.9604492 L105.540273,20.9604492 Z M110.30166,22.3051758 C108.981836,22.3051758 108.060449,23.2348633 107.96084,24.6459961 L112.52627,24.6459961 C112.484766,23.2265625 111.621484,22.3051758 110.30166,22.3051758 Z M112.517969,27.5595703 L114.23623,27.5595703 C113.829492,29.1782227 112.385156,30.1743164 110.318262,30.1743164 C107.728418,30.1743164 106.142969,28.3979492 106.142969,25.5092773 C106.142969,22.6206055 107.761621,20.7861328 110.309961,20.7861328 C112.825098,20.7861328 114.344141,22.5043945 114.344141,25.3432617 L114.344141,25.9658203 L107.96084,25.9658203 L107.96084,26.0654297 C108.018945,27.6508789 108.940332,28.6552734 110.368066,28.6552734 C111.447168,28.6552734 112.185938,28.2651367 112.517969,27.5595703 Z"/>
      </g>
      <rect width="162" height="47" x=".5" y=".5" stroke="#A9B6BE" rx="8"/>
      <path fill="#314351" fill-rule="nonzero" d="M62.9169238,18.0219727 L67.2416309,18.0219727 C70.7943652,18.0219727 72.8778613,20.2050781 72.8778613,23.9736328 C72.8778613,27.800293 70.8109668,30 67.2416309,30 L62.9169238,30 L62.9169238,18.0219727 Z M64.7762988,19.715332 L64.7762988,28.3066406 L67.0341113,28.3066406 C69.5409473,28.3066406 70.9852832,26.7460938 70.9852832,23.9985352 C70.9852832,21.2924805 69.5160449,19.715332 67.0341113,19.715332 L64.7762988,19.715332 Z M78.4776269,22.3051758 C77.1578027,22.3051758 76.236416,23.2348633 76.1368066,24.6459961 L80.7022363,24.6459961 C80.6607324,23.2265625 79.7974512,22.3051758 78.4776269,22.3051758 Z M80.6939355,27.5595703 L82.4121973,27.5595703 C82.005459,29.1782227 80.561123,30.1743164 78.4942285,30.1743164 C75.9043848,30.1743164 74.3189355,28.3979492 74.3189355,25.5092773 C74.3189355,22.6206055 75.9375879,20.7861328 78.4859277,20.7861328 C81.0010644,20.7861328 82.5201074,22.5043945 82.5201074,25.3432617 L82.5201074,25.9658203 L76.1368066,25.9658203 L76.1368066,26.0654297 C76.1949121,27.6508789 77.1162988,28.6552734 78.5440332,28.6552734 C79.6231348,28.6552734 80.3619043,28.2651367 80.6939355,27.5595703 Z M84.251709,30 L84.251709,20.9604492 L85.9699707,20.9604492 L85.9699707,22.3964844 L86.1027832,22.3964844 C86.5427246,21.3920898 87.439209,20.7861328 88.8005371,20.7861328 C90.817627,20.7861328 91.9299316,21.9980469 91.9299316,24.1479492 L91.9299316,30 L90.1452637,30 L90.1452637,24.5961914 C90.1452637,23.1435547 89.5144043,22.4213867 88.1945801,22.4213867 C86.8747559,22.4213867 86.036377,23.3012695 86.036377,24.7124023 L86.036377,30 L84.251709,30 Z M94.6244238,33.2788086 C94.4750098,33.2788086 94.0516699,33.262207 93.8856543,33.2373047 L93.8856543,31.7016602 C94.0267676,31.7265625 94.3006934,31.7348633 94.466709,31.7348633 C95.3133887,31.7348633 95.794834,31.3862305 96.1019629,30.4731445 L96.2347754,30.0332031 L92.9642676,20.9604492 L94.9066504,20.9604492 L97.1727637,28.140625 L97.313877,28.140625 L99.5716895,20.9604492 L101.464268,20.9604492 L98.0941504,30.3735352 C97.3221777,32.5732422 96.4671973,33.2788086 94.6244238,33.2788086 Z"/>
    </g>
  </g>
</svg>
