<svg xmlns="http://www.w3.org/2000/svg" xmlns:xlink="http://www.w3.org/1999/xlink" width="391" height="196" viewBox="0 0 391 196">
  <defs>
    <rect id="6-b" width="375" height="180" x="0" y="0"/>
    <filter id="6-a" width="106.7%" height="113.9%" x="-3.3%" y="-6.4%" filterUnits="objectBoundingBox">
      <feOffset dy="1" in="SourceAlpha" result="shadowOffsetOuter1"/>
      <feGaussianBlur in="shadowOffsetOuter1" result="shadowBlurOuter1" stdDeviation="4"/>
      <feColorMatrix in="shadowBlurOuter1" result="shadowMatrixOuter1" values="0 0 0 0 0   0 0 0 0 0   0 0 0 0 0  0 0 0 0.2 0"/>
      <feMorphology in="SourceAlpha" radius="1" result="shadowSpreadOuter2"/>
      <feOffset dy="3" in="shadowSpreadOuter2" result="shadowOffsetOuter2"/>
      <feGaussianBlur in="shadowOffsetOuter2" result="shadowBlurOuter2" stdDeviation="1.5"/>
      <feColorMatrix in="shadowBlurOuter2" result="shadowMatrixOuter2" values="0 0 0 0 0   0 0 0 0 0   0 0 0 0 0  0 0 0 0.12 0"/>
      <feOffset dy="3" in="SourceAlpha" result="shadowOffsetOuter3"/>
      <feGaussianBlur in="shadowOffsetOuter3" result="shadowBlurOuter3" stdDeviation="2"/>
      <feColorMatrix in="shadowBlurOuter3" result="shadowMatrixOuter3" values="0 0 0 0 0   0 0 0 0 0   0 0 0 0 0  0 0 0 0.14 0"/>
      <feMerge>
        <feMergeNode in="shadowMatrixOuter1"/>
        <feMergeNode in="shadowMatrixOuter2"/>
        <feMergeNode in="shadowMatrixOuter3"/>
      </feMerge>
    </filter>
  </defs>
  <g fill="none" fill-rule="evenodd" transform="translate(8 7)">
    <rect width="375" height="180" fill="#FFF" fill-opacity=".01" fill-rule="nonzero"/>
    <use fill="#000" filter="url(#6-a)" xlink:href="#6-b"/>
    <use fill="#F7F7F7" xlink:href="#6-b"/>
    <rect width="375" height="180" fill="#F2F2F2"/>
    <g transform="translate(94 66)">
      <g transform="translate(90 5)">
        <rect width="96.544" height="40.983" x=".3" y=".022" fill="#314351" rx="8"/>
        <path fill="#FFF" fill-rule="nonzero" d="M24.9745508,25 L23.8788476,21.8208008 L19.313418,21.8208008 L18.209414,25 L16.3002344,25 L20.6249414,13.0219727 L22.6254297,13.0219727 L26.9501367,25 L24.9745508,25 Z M21.5297265,15.1967773 L19.7865625,20.2602539 L23.4057031,20.2602539 L21.6708398,15.1967773 L21.5297265,15.1967773 Z M33.1060547,15.8110352 C35.4053711,15.8110352 36.8580078,17.6040039 36.8580078,20.4760742 C36.8580078,23.3481445 35.4053711,25.1494141 33.1226562,25.1494141 C31.8360351,25.1494141 30.8150391,24.5849609 30.3418945,23.6303711 L30.2007812,23.6303711 L30.2007812,28.0048828 L28.4161133,28.0048828 L28.4161133,15.9604492 L30.134375,15.9604492 L30.134375,17.4545898 L30.2671875,17.4545898 C30.8150391,16.425293 31.8775391,15.8110352 33.1060547,15.8110352 Z M32.599707,23.5473633 C34.11875,23.5473633 35.0235351,22.3935547 35.0235351,20.4760742 C35.0235351,18.5668945 34.11875,17.4130859 32.6080078,17.4130859 C31.1055664,17.4130859 30.1675781,18.5917969 30.1675781,20.484375 C30.1675781,22.3686523 31.1055664,23.5473633 32.599707,23.5473633 Z M43.2795508,15.8110352 C45.5788672,15.8110352 47.0315039,17.6040039 47.0315039,20.4760742 C47.0315039,23.3481445 45.5788672,25.1494141 43.2961523,25.1494141 C42.0095312,25.1494141 40.9885352,24.5849609 40.5153906,23.6303711 L40.3742773,23.6303711 L40.3742773,28.0048828 L38.5896094,28.0048828 L38.5896094,15.9604492 L40.3078711,15.9604492 L40.3078711,17.4545898 L40.4406836,17.4545898 C40.9885352,16.425293 42.0510352,15.8110352 43.2795508,15.8110352 Z M42.7732031,23.5473633 C44.2922461,23.5473633 45.1970312,22.3935547 45.1970312,20.4760742 C45.1970312,18.5668945 44.2922461,17.4130859 42.7815039,17.4130859 C41.2790625,17.4130859 40.3410742,18.5917969 40.3410742,20.484375 C40.3410742,22.3686523 41.2790625,23.5473633 42.7732031,23.5473633 Z M48.7631055,25 L48.7631055,15.9604492 L50.4813672,15.9604492 L50.4813672,17.3466797 L50.6141797,17.3466797 C50.8715039,16.4584961 51.8758984,15.8110352 53.0546094,15.8110352 C53.3202344,15.8110352 53.6605664,15.8359375 53.8514844,15.8857422 L53.8514844,17.6455078 C53.7020703,17.5957031 53.1708203,17.5375977 52.8553906,17.5375977 C51.5023633,17.5375977 50.5477734,18.3925781 50.5477734,19.6625977 L50.5477734,25 L48.7631055,25 Z M58.7456836,25.1743164 C56.0977344,25.1743164 54.479082,23.40625 54.479082,20.4760742 C54.479082,17.5625 56.1060352,15.7861328 58.7456836,15.7861328 C61.3770313,15.7861328 63.0039844,17.5625 63.0039844,20.4760742 C63.0039844,23.40625 61.385332,25.1743164 58.7456836,25.1743164 Z M58.7456836,23.5888672 C60.2896289,23.5888672 61.1695117,22.4433594 61.1695117,20.4760742 C61.1695117,18.5170898 60.2896289,17.371582 58.7456836,17.371582 C57.1934375,17.371582 56.3218555,18.5170898 56.3218555,20.4760742 C56.3218555,22.4516602 57.1934375,23.5888672 58.7456836,23.5888672 Z M72.0402734,15.9604492 L68.7863672,25 L66.8688867,25 L63.6066797,15.9604492 L65.5158594,15.9604492 L67.7653711,23.0908203 L67.9064844,23.0908203 L70.1476953,15.9604492 L72.0402734,15.9604492 Z M76.8016602,17.3051758 C75.4818359,17.3051758 74.5604492,18.2348633 74.4608399,19.6459961 L79.0262695,19.6459961 C78.9847656,18.2265625 78.1214844,17.3051758 76.8016602,17.3051758 Z M79.0179688,22.5595703 L80.7362305,22.5595703 C80.3294922,24.1782227 78.8851563,25.1743164 76.8182617,25.1743164 C74.228418,25.1743164 72.6429688,23.3979492 72.6429688,20.5092773 C72.6429688,17.6206055 74.2616211,15.7861328 76.8099609,15.7861328 C79.3250977,15.7861328 80.8441406,17.5043945 80.8441406,20.3432617 L80.8441406,20.9658203 L74.4608399,20.9658203 L74.4608399,21.0654297 C74.5189453,22.6508789 75.440332,23.6552734 76.8680664,23.6552734 C77.947168,23.6552734 78.6859375,23.2651367 79.0179688,22.5595703 Z"/>
      </g>
      <g transform="translate(1 5)">
        <rect width="69.547" height="40.257" x="1.417" y=".522" stroke="#A9B6BE" rx="8"/>
        <path fill="#314351" fill-rule="nonzero" d="M16.9169238,13.0219727 L21.2416309,13.0219727 C24.7943652,13.0219727 26.8778613,15.2050781 26.8778613,18.9736328 C26.8778613,22.800293 24.8109668,25 21.2416309,25 L16.9169238,25 L16.9169238,13.0219727 Z M18.7762988,14.715332 L18.7762988,23.3066406 L21.0341113,23.3066406 C23.5409473,23.3066406 24.9852832,21.7460938 24.9852832,18.9985352 C24.9852832,16.2924805 23.5160449,14.715332 21.0341113,14.715332 L18.7762988,14.715332 Z M32.4776269,17.3051758 C31.1578027,17.3051758 30.236416,18.2348633 30.1368066,19.6459961 L34.7022363,19.6459961 C34.6607324,18.2265625 33.7974512,17.3051758 32.4776269,17.3051758 Z M34.6939355,22.5595703 L36.4121973,22.5595703 C36.005459,24.1782227 34.561123,25.1743164 32.4942285,25.1743164 C29.9043848,25.1743164 28.3189355,23.3979492 28.3189355,20.5092773 C28.3189355,17.6206055 29.9375879,15.7861328 32.4859277,15.7861328 C35.0010644,15.7861328 36.5201074,17.5043945 36.5201074,20.3432617 L36.5201074,20.9658203 L30.1368066,20.9658203 L30.1368066,21.0654297 C30.1949121,22.6508789 31.1162988,23.6552734 32.5440332,23.6552734 C33.6231348,23.6552734 34.3619043,23.2651367 34.6939355,22.5595703 Z M38.251709,25 L38.251709,15.9604492 L39.9699707,15.9604492 L39.9699707,17.3964844 L40.1027832,17.3964844 C40.5427246,16.3920898 41.439209,15.7861328 42.8005371,15.7861328 C44.817627,15.7861328 45.9299316,16.9980469 45.9299316,19.1479492 L45.9299316,25 L44.1452637,25 L44.1452637,19.5961914 C44.1452637,18.1435547 43.5144043,17.4213867 42.1945801,17.4213867 C40.8747559,17.4213867 40.036377,18.3012695 40.036377,19.7124023 L40.036377,25 L38.251709,25 Z M48.6244238,28.2788086 C48.4750098,28.2788086 48.0516699,28.262207 47.8856543,28.2373047 L47.8856543,26.7016602 C48.0267676,26.7265625 48.3006934,26.7348633 48.466709,26.7348633 C49.3133887,26.7348633 49.794834,26.3862305 50.1019629,25.4731445 L50.2347754,25.0332031 L46.9642676,15.9604492 L48.9066504,15.9604492 L51.1727637,23.140625 L51.313877,23.140625 L53.5716895,15.9604492 L55.4642676,15.9604492 L52.0941504,25.3735352 C51.3221777,27.5732422 50.4671973,28.2788086 48.6244238,28.2788086 Z"/>
      </g>
    </g>
  </g>
</svg>
