<svg xmlns="http://www.w3.org/2000/svg" xmlns:xlink="http://www.w3.org/1999/xlink" width="300" height="180" viewBox="0 0 300 180">
  <defs>
    <rect id="6-b" width="240" height="48" x="0" y="0" rx="4"/>
    <filter id="6-a" width="106.7%" height="133.3%" x="-3.3%" y="-14.6%" filterUnits="objectBoundingBox">
      <feOffset dy="1" in="SourceAlpha" result="shadowOffsetOuter1"/>
      <feGaussianBlur in="shadowOffsetOuter1" result="shadowBlurOuter1" stdDeviation="2.5"/>
      <feColorMatrix in="shadowBlurOuter1" result="shadowMatrixOuter1" values="0 0 0 0 0   0 0 0 0 0   0 0 0 0 0  0 0 0 0.2 0"/>
      <feMorphology in="SourceAlpha" radius="1" result="shadowSpreadOuter2"/>
      <feOffset dy="3" in="shadowSpreadOuter2" result="shadowOffsetOuter2"/>
      <feGaussianBlur in="shadowOffsetOuter2" result="shadowBlurOuter2" stdDeviation=".5"/>
      <feColorMatrix in="shadowBlurOuter2" result="shadowMatrixOuter2" values="0 0 0 0 0   0 0 0 0 0   0 0 0 0 0  0 0 0 0.12 0"/>
      <feOffset dy="2" in="SourceAlpha" result="shadowOffsetOuter3"/>
      <feGaussianBlur in="shadowOffsetOuter3" result="shadowBlurOuter3" stdDeviation="1"/>
      <feColorMatrix in="shadowBlurOuter3" result="shadowMatrixOuter3" values="0 0 0 0 0   0 0 0 0 0   0 0 0 0 0  0 0 0 0.14 0"/>
      <feMerge>
        <feMergeNode in="shadowMatrixOuter1"/>
        <feMergeNode in="shadowMatrixOuter2"/>
        <feMergeNode in="shadowMatrixOuter3"/>
      </feMerge>
    </filter>
  </defs>
  <g fill="none" fill-rule="evenodd">
    <rect width="300" height="180" fill="#FFF" fill-opacity=".01" fill-rule="nonzero"/>
    <g transform="translate(30 48)">
      <g transform="translate(0 37)">
        <use fill="#000" filter="url(#6-a)" xlink:href="#6-b"/>
        <use fill="#FAFAFA" xlink:href="#6-b"/>
        <rect width="240" height="48" fill="#314351" rx="4"/>
        <path fill="#FFF" fill-rule="nonzero" d="M43.9951172,25.1650391 L42.0673828,25.1650391 L42.0673828,29 L40.3378906,29 L40.3378906,19.046875 L43.8378906,19.046875 C44.9863339,19.046875 45.8727182,19.3043594 46.4970703,19.8193359 C47.1214224,20.3343125 47.4335938,21.0794222 47.4335938,22.0546875 C47.4335938,22.7200554 47.2729508,23.2771787 46.9516602,23.7260742 C46.6303695,24.1749697 46.1826201,24.5201811 45.6083984,24.7617188 L47.84375,28.9111328 L47.84375,29 L45.9912109,29 L43.9951172,25.1650391 Z M42.0673828,23.7773438 L43.8447266,23.7773438 C44.4280628,23.7773438 44.8837874,23.6303726 45.2119141,23.3364258 C45.5400407,23.042479 45.7041016,22.640302 45.7041016,22.1298828 C45.7041016,21.596677 45.5525731,21.1842463 45.2495117,20.8925781 C44.9464503,20.60091 44.4941436,20.4505209 43.8925781,20.4414062 L42.0673828,20.4414062 L42.0673828,23.7773438 Z M55.6416016,24.5566406 L51.5537109,24.5566406 L51.5537109,27.6191406 L56.3320312,27.6191406 L56.3320312,29 L49.8242188,29 L49.8242188,19.046875 L56.2841797,19.046875 L56.2841797,20.4414062 L51.5537109,20.4414062 L51.5537109,23.1894531 L55.6416016,23.1894531 L55.6416016,24.5566406 Z M60.7324219,19.046875 L63.6035156,26.6757812 L66.4677734,19.046875 L68.703125,19.046875 L68.703125,29 L66.9804688,29 L66.9804688,25.71875 L67.1513672,21.3300781 L64.2119141,29 L62.9746094,29 L60.0419922,21.3369141 L60.2128906,25.71875 L60.2128906,29 L58.4902344,29 L58.4902344,19.046875 L60.7324219,19.046875 Z M79.4404297,24.2832031 C79.4404297,25.2584684 79.2718116,26.1140914 78.9345703,26.8500977 C78.597329,27.5861039 78.1154003,28.1512025 77.4887695,28.5454102 C76.8621388,28.9396179 76.1409546,29.1367188 75.3251953,29.1367188 C74.5185507,29.1367188 73.7996451,28.9396179 73.168457,28.5454102 C72.537269,28.1512025 72.0496436,27.5895219 71.7055664,26.8603516 C71.3614892,26.1311812 71.1871745,25.2903693 71.1826172,24.3378906 L71.1826172,23.7773438 C71.1826172,22.8066358 71.3546532,21.9498735 71.6987305,21.2070312 C72.0428077,20.464189 72.5281544,19.8956725 73.1547852,19.5014648 C73.7814159,19.1072571 74.5003215,18.9101562 75.3115234,18.9101562 C76.1227254,18.9101562 76.841631,19.1049785 77.4682617,19.4946289 C78.0948925,19.8842793 78.5790999,20.4448206 78.9208984,21.1762695 C79.262697,21.9077185 79.4358724,22.7587842 79.4404297,23.7294922 L79.4404297,24.2832031 Z M77.7109375,23.7636719 C77.7109375,22.6608018 77.5024435,21.8154326 77.0854492,21.2275391 C76.6684549,20.6396455 76.0771523,20.3457031 75.3115234,20.3457031 C74.5641239,20.3457031 73.9796571,20.6385062 73.5581055,21.2241211 C73.1365539,21.809736 72.921224,22.6380155 72.9121094,23.7089844 L72.9121094,24.2832031 C72.9121094,25.3769586 73.1251606,26.2223277 73.5512695,26.8193359 C73.9773784,27.4163441 74.5686811,27.7148438 75.3251953,27.7148438 C76.0908241,27.7148438 76.6798482,27.42318 77.0922852,26.8398438 C77.5047221,26.2565075 77.7109375,25.4043025 77.7109375,24.2832031 L77.7109375,23.7636719 Z M85.2695312,26.8330078 L87.7988281,19.046875 L89.6992188,19.046875 L86.1171875,29 L84.4423828,29 L80.8740234,19.046875 L82.7675781,19.046875 L85.2695312,26.8330078 Z M97.3876953,24.5566406 L93.2998047,24.5566406 L93.2998047,27.6191406 L98.078125,27.6191406 L98.078125,29 L91.5703125,29 L91.5703125,19.046875 L98.0302734,19.046875 L98.0302734,20.4414062 L93.2998047,20.4414062 L93.2998047,23.1894531 L97.3876953,23.1894531 L97.3876953,24.5566406 Z M110.208008,24.7822266 L106.202148,24.7822266 L106.202148,29 L104.472656,29 L104.472656,19.046875 L110.795898,19.046875 L110.795898,20.4414062 L106.202148,20.4414062 L106.202148,23.4013672 L110.208008,23.4013672 L110.208008,24.7822266 Z M116.570312,25.1650391 L114.642578,25.1650391 L114.642578,29 L112.913086,29 L112.913086,19.046875 L116.413086,19.046875 C117.561529,19.046875 118.447914,19.3043594 119.072266,19.8193359 C119.696618,20.3343125 120.008789,21.0794222 120.008789,22.0546875 C120.008789,22.7200554 119.848146,23.2771787 119.526855,23.7260742 C119.205565,24.1749697 118.757815,24.5201811 118.183594,24.7617188 L120.418945,28.9111328 L120.418945,29 L118.566406,29 L116.570312,25.1650391 Z M114.642578,23.7773438 L116.419922,23.7773438 C117.003258,23.7773438 117.458983,23.6303726 117.787109,23.3364258 C118.115236,23.042479 118.279297,22.640302 118.279297,22.1298828 C118.279297,21.596677 118.127768,21.1842463 117.824707,20.8925781 C117.521646,20.60091 117.069339,20.4505209 116.467773,20.4414062 L114.642578,20.4414062 L114.642578,23.7773438 Z M130.342773,24.2832031 C130.342773,25.2584684 130.174155,26.1140914 129.836914,26.8500977 C129.499673,27.5861039 129.017744,28.1512025 128.391113,28.5454102 C127.764483,28.9396179 127.043298,29.1367188 126.227539,29.1367188 C125.420894,29.1367188 124.701989,28.9396179 124.070801,28.5454102 C123.439613,28.1512025 122.951987,27.5895219 122.60791,26.8603516 C122.263833,26.1311812 122.089518,25.2903693 122.084961,24.3378906 L122.084961,23.7773438 C122.084961,22.8066358 122.256997,21.9498735 122.601074,21.2070312 C122.945151,20.464189 123.430498,19.8956725 124.057129,19.5014648 C124.68376,19.1072571 125.402665,18.9101562 126.213867,18.9101562 C127.025069,18.9101562 127.743975,19.1049785 128.370605,19.4946289 C128.997236,19.8842793 129.481444,20.4448206 129.823242,21.1762695 C130.165041,21.9077185 130.338216,22.7587842 130.342773,23.7294922 L130.342773,24.2832031 Z M128.613281,23.7636719 C128.613281,22.6608018 128.404787,21.8154326 127.987793,21.2275391 C127.570799,20.6396455 126.979496,20.3457031 126.213867,20.3457031 C125.466468,20.3457031 124.882001,20.6385062 124.460449,21.2241211 C124.038898,21.809736 123.823568,22.6380155 123.814453,23.7089844 L123.814453,24.2832031 C123.814453,25.3769586 124.027504,26.2223277 124.453613,26.8193359 C124.879722,27.4163441 125.471025,27.7148438 126.227539,27.7148438 C126.993168,27.7148438 127.582192,27.42318 127.994629,26.8398438 C128.407066,26.2565075 128.613281,25.4043025 128.613281,24.2832031 L128.613281,23.7636719 Z M135.057617,19.046875 L137.928711,26.6757812 L140.792969,19.046875 L143.02832,19.046875 L143.02832,29 L141.305664,29 L141.305664,25.71875 L141.476562,21.3300781 L138.537109,29 L137.299805,29 L134.367188,21.3369141 L134.538086,25.71875 L134.538086,29 L132.81543,29 L132.81543,19.046875 L135.057617,19.046875 Z M150.058594,29 L150.058594,19.046875 L152.998047,19.046875 C153.877609,19.046875 154.658037,19.2428366 155.339355,19.6347656 C156.020674,20.0266947 156.548175,20.5826787 156.921875,21.3027344 C157.295575,22.0227901 157.482422,22.8476516 157.482422,23.7773438 L157.482422,24.2763672 C157.482422,25.2197313 157.294435,26.0491501 156.918457,26.7646484 C156.542479,27.4801468 156.007002,28.0315736 155.312012,28.4189453 C154.617021,28.806317 153.820643,29 152.922852,29 L150.058594,29 Z M151.788086,20.4414062 L151.788086,27.6191406 L152.916016,27.6191406 C153.822921,27.6191406 154.519041,27.3354521 155.004395,26.7680664 C155.489749,26.2006808 155.736979,25.386073 155.746094,24.3242188 L155.746094,23.7705078 C155.746094,22.6904243 155.511396,21.8655627 155.041992,21.2958984 C154.572589,20.7262341 153.891281,20.4414062 152.998047,20.4414062 L151.788086,20.4414062 Z M165.772461,24.5566406 L161.68457,24.5566406 L161.68457,27.6191406 L166.462891,27.6191406 L166.462891,29 L159.955078,29 L159.955078,19.046875 L166.415039,19.046875 L166.415039,20.4414062 L161.68457,20.4414062 L161.68457,23.1894531 L165.772461,23.1894531 L165.772461,24.5566406 Z M172.12793,26.8330078 L174.657227,19.046875 L176.557617,19.046875 L172.975586,29 L171.300781,29 L167.732422,19.046875 L169.625977,19.046875 L172.12793,26.8330078 Z M180.253906,29 L178.53125,29 L178.53125,19.046875 L180.253906,19.046875 L180.253906,29 Z M190.724609,25.7597656 C190.624348,26.8216199 190.232425,27.6498994 189.548828,28.2446289 C188.865231,28.8393584 187.95606,29.1367188 186.821289,29.1367188 C186.028316,29.1367188 185.329918,28.9487323 184.726074,28.5727539 C184.12223,28.1967755 183.656252,27.6624384 183.328125,26.9697266 C182.999998,26.2770148 182.829102,25.4726608 182.81543,24.5566406 L182.81543,23.6269531 C182.81543,22.6881463 182.981769,21.8610062 183.314453,21.1455078 C183.647137,20.4300094 184.124509,19.8785827 184.746582,19.4912109 C185.368655,19.1038392 186.087561,18.9101562 186.90332,18.9101562 C188.001633,18.9101562 188.885739,19.2086559 189.555664,19.8056641 C190.225589,20.4026723 190.615234,21.2457628 190.724609,22.3349609 L189.001953,22.3349609 C188.919921,21.6194626 188.711427,21.1033544 188.376465,20.7866211 C188.041502,20.4698877 187.550459,20.3115234 186.90332,20.3115234 C186.151363,20.3115234 185.573732,20.5860975 185.17041,21.1352539 C184.767088,21.6844103 184.560872,22.4899035 184.551758,23.5517578 L184.551758,24.4335938 C184.551758,25.50912 184.744301,26.3294243 185.129395,26.8945312 C185.514488,27.4596382 186.078447,27.7421875 186.821289,27.7421875 C187.500329,27.7421875 188.01074,27.5895198 188.352539,27.2841797 C188.694338,26.9788396 188.910807,26.4707067 189.001953,25.7597656 L190.724609,25.7597656 Z M198.836914,24.5566406 L194.749023,24.5566406 L194.749023,27.6191406 L199.527344,27.6191406 L199.527344,29 L193.019531,29 L193.019531,19.046875 L199.479492,19.046875 L199.479492,20.4414062 L194.749023,20.4414062 L194.749023,23.1894531 L198.836914,23.1894531 L198.836914,24.5566406 Z"/>
      </g>
      <path fill="#C8226C" fill-rule="nonzero" d="M62.539,8.942 L58,8.942 L58,7.888 L63.848,0 L63.848,7.718 L65.174,7.718 L65.174,8.942 L63.848,8.942 L63.848,11.492 L62.539,11.492 L62.539,8.942 Z M62.539,7.718 L62.539,3.383 L59.36,7.718 L62.539,7.718 Z M71.447,5.338 C72.093,5.542 72.399,5.695 72.756,6.069 C73.317,6.63 73.606,7.378 73.606,8.262 C73.606,10.268 72.127,11.696 70.053,11.696 C67.996,11.696 66.551,10.319 66.551,8.381 C66.551,7.48 66.857,6.664 67.401,6.103 C67.758,5.729 68.047,5.559 68.727,5.338 C68.132,5.134 67.877,4.964 67.571,4.59 C67.197,4.131 66.993,3.553 66.993,2.924 C66.993,1.309 68.319,0.119 70.121,0.119 C71.906,0.119 73.198,1.292 73.198,2.907 C73.198,3.553 72.977,4.165 72.569,4.641 C72.263,4.981 72.025,5.134 71.447,5.338 Z M70.121,1.309 C69.033,1.309 68.285,1.989 68.285,2.941 C68.285,3.91 69.084,4.675 70.087,4.675 C71.056,4.675 71.923,3.876 71.923,2.958 C71.923,2.074 71.09,1.309 70.121,1.309 Z M70.104,6.052 C68.88,6.052 67.894,7.021 67.894,8.245 C67.894,9.452 68.863,10.438 70.07,10.438 C71.277,10.438 72.246,9.452 72.246,8.245 C72.246,7.055 71.277,6.052 70.104,6.052 Z M81.494,4.845 L81.494,0.153 L82.786,0.153 L82.786,11.492 L81.494,11.492 L81.494,10.149 C80.712,11.22 79.879,11.679 78.689,11.679 C76.53,11.679 75,9.996 75,7.616 C75,5.236 76.564,3.468 78.689,3.468 C79.845,3.468 80.729,3.893 81.494,4.845 Z M78.961,4.624 C77.414,4.624 76.36,5.848 76.36,7.633 C76.36,9.35 77.397,10.557 78.876,10.557 C80.389,10.557 81.494,9.299 81.494,7.599 C81.494,5.831 80.457,4.624 78.961,4.624 Z M85.387,3.655 L86.679,3.655 L86.679,5.083 C87.427,3.927 88.226,3.468 89.535,3.468 C91.711,3.468 93.224,5.134 93.224,7.514 C93.224,9.979 91.711,11.679 89.535,11.679 C88.923,11.679 88.362,11.543 87.818,11.271 C87.342,11.033 87.104,10.829 86.679,10.268 L86.679,15.164 L85.387,15.164 L85.387,3.655 Z M89.314,4.624 C87.75,4.624 86.679,5.865 86.679,7.701 C86.679,9.418 87.716,10.557 89.263,10.557 C90.81,10.557 91.847,9.35 91.847,7.565 C91.847,6.647 91.626,5.95 91.167,5.44 C90.708,4.93 90.011,4.624 89.314,4.624 Z M95.842,9.86 C96.352,9.86 96.726,10.234 96.726,10.761 C96.726,11.254 96.335,11.628 95.842,11.628 C95.332,11.628 94.958,11.254 94.958,10.744 C94.958,10.234 95.332,9.86 95.842,9.86 Z M95.842,4.964 C96.352,4.964 96.726,5.338 96.726,5.865 C96.726,6.358 96.335,6.732 95.842,6.732 C95.332,6.732 94.958,6.358 94.958,5.848 C94.958,5.338 95.332,4.964 95.842,4.964 Z M105.549,0.153 L105.549,6.902 C105.549,8.347 105.753,9.078 106.297,9.622 C106.773,10.081 107.589,10.387 108.303,10.387 C109.017,10.387 109.816,10.064 110.309,9.554 C110.921,8.959 111.074,8.381 111.074,6.868 L111.074,0.153 L112.536,0.153 L112.536,6.868 C112.536,8.568 112.264,9.537 111.533,10.353 C110.768,11.22 109.629,11.696 108.337,11.696 C107.011,11.696 105.804,11.186 105.039,10.268 C104.342,9.469 104.121,8.636 104.121,6.868 L104.121,0.153 L105.549,0.153 Z M115.018,3.655 L116.31,3.655 L116.31,5.083 C117.058,3.927 117.857,3.468 119.166,3.468 C121.342,3.468 122.855,5.134 122.855,7.514 C122.855,9.979 121.342,11.679 119.166,11.679 C118.554,11.679 117.993,11.543 117.449,11.271 C116.973,11.033 116.735,10.829 116.31,10.268 L116.31,15.164 L115.018,15.164 L115.018,3.655 Z M118.945,4.624 C117.381,4.624 116.31,5.865 116.31,7.701 C116.31,9.418 117.347,10.557 118.894,10.557 C120.441,10.557 121.478,9.35 121.478,7.565 C121.478,6.647 121.257,5.95 120.798,5.44 C120.339,4.93 119.642,4.624 118.945,4.624 Z M124.81,3.655 L126.102,3.655 L126.102,5.083 C126.85,3.927 127.649,3.468 128.958,3.468 C131.134,3.468 132.647,5.134 132.647,7.514 C132.647,9.979 131.134,11.679 128.958,11.679 C128.346,11.679 127.785,11.543 127.241,11.271 C126.765,11.033 126.527,10.829 126.102,10.268 L126.102,15.164 L124.81,15.164 L124.81,3.655 Z M128.737,4.624 C127.173,4.624 126.102,5.865 126.102,7.701 C126.102,9.418 127.139,10.557 128.686,10.557 C130.233,10.557 131.27,9.35 131.27,7.565 C131.27,6.647 131.049,5.95 130.59,5.44 C130.131,4.93 129.434,4.624 128.737,4.624 Z M141.878,7.99 L135.35,7.99 C135.418,8.653 135.537,8.993 135.86,9.418 C136.37,10.115 137.118,10.489 137.968,10.489 C138.937,10.489 139.855,9.962 140.314,9.146 L141.453,9.571 C140.807,10.88 139.464,11.679 137.968,11.679 C135.639,11.679 133.973,9.979 133.973,7.599 C133.973,5.185 135.622,3.468 137.917,3.468 C140.195,3.468 141.895,5.185 141.895,7.48 C141.895,7.582 141.895,7.803 141.878,7.99 Z M135.367,7.038 L140.518,7.038 C140.467,6.426 140.348,6.086 140.076,5.695 C139.583,5.032 138.784,4.624 137.917,4.624 C137.05,4.624 136.268,5.032 135.809,5.712 C135.571,6.086 135.469,6.409 135.367,7.038 Z M143.765,3.655 L145.057,3.655 L145.057,4.981 C145.295,4.42 145.465,4.182 145.771,3.944 C146.162,3.638 146.706,3.468 147.267,3.468 L147.573,3.468 L147.573,4.777 C147.437,4.76 147.301,4.76 147.216,4.76 C146.519,4.76 145.907,5.083 145.516,5.661 C145.176,6.154 145.057,6.613 145.057,7.514 L145.057,11.492 L143.765,11.492 L143.765,3.655 Z M154.475,9.639 L155.274,10.523 C154.39,11.322 153.523,11.679 152.384,11.679 C150.14,11.679 148.542,9.979 148.542,7.599 C148.542,5.168 150.157,3.468 152.452,3.468 C153.574,3.468 154.492,3.842 155.308,4.641 L154.475,5.474 C153.88,4.93 153.217,4.658 152.486,4.658 C150.939,4.658 149.868,5.848 149.868,7.548 C149.868,9.282 150.939,10.489 152.469,10.489 C153.234,10.489 153.846,10.234 154.475,9.639 Z M162.856,4.947 L162.856,3.655 L164.148,3.655 L164.148,11.492 L162.856,11.492 L162.856,9.979 C162.074,11.152 161.19,11.679 160,11.679 C157.841,11.679 156.311,9.979 156.311,7.599 C156.311,5.202 157.875,3.468 160.034,3.468 C161.224,3.468 162.091,3.927 162.856,4.947 Z M160.221,4.624 C159.371,4.624 158.776,4.913 158.317,5.559 C157.909,6.12 157.671,6.868 157.671,7.633 C157.671,9.299 158.759,10.557 160.187,10.557 C161.666,10.557 162.873,9.18 162.873,7.497 C162.873,5.797 161.785,4.624 160.221,4.624 Z M171.662,5.797 L170.37,5.797 L170.37,5.712 C170.37,4.981 169.775,4.522 168.874,4.522 C168.007,4.522 167.463,4.964 167.463,5.644 C167.463,6.324 167.803,6.579 169.214,6.97 C170.217,7.242 170.744,7.497 171.118,7.871 C171.509,8.262 171.747,8.823 171.747,9.401 C171.747,10.761 170.625,11.679 168.959,11.679 C167.174,11.679 166.171,10.846 166.035,9.265 L167.31,9.265 C167.395,10.149 167.973,10.625 168.959,10.625 C169.843,10.625 170.421,10.166 170.421,9.469 C170.421,8.789 169.979,8.449 168.636,8.109 C166.936,7.65 166.171,6.936 166.171,5.746 C166.171,4.386 167.276,3.468 168.925,3.468 C170.591,3.468 171.594,4.318 171.662,5.797 Z M181.012,7.99 L174.484,7.99 C174.552,8.653 174.671,8.993 174.994,9.418 C175.504,10.115 176.252,10.489 177.102,10.489 C178.071,10.489 178.989,9.962 179.448,9.146 L180.587,9.571 C179.941,10.88 178.598,11.679 177.102,11.679 C174.773,11.679 173.107,9.979 173.107,7.599 C173.107,5.185 174.756,3.468 177.051,3.468 C179.329,3.468 181.029,5.185 181.029,7.48 C181.029,7.582 181.029,7.803 181.012,7.99 Z M174.501,7.038 L179.652,7.038 C179.601,6.426 179.482,6.086 179.21,5.695 C178.717,5.032 177.918,4.624 177.051,4.624 C176.184,4.624 175.402,5.032 174.943,5.712 C174.705,6.086 174.603,6.409 174.501,7.038 Z"/>
    </g>
  </g>
</svg>
