<svg xmlns="http://www.w3.org/2000/svg" xmlns:xlink="http://www.w3.org/1999/xlink" width="300" height="180" viewBox="0 0 300 180">
  <defs>
    <rect id="7-b" width="240" height="36" x="0" y="0" rx="4"/>
    <filter id="7-a" width="106.7%" height="144.4%" x="-3.3%" y="-19.4%" filterUnits="objectBoundingBox">
      <feOffset dy="1" in="SourceAlpha" result="shadowOffsetOuter1"/>
      <feGaussianBlur in="shadowOffsetOuter1" result="shadowBlurOuter1" stdDeviation="2.5"/>
      <feColorMatrix in="shadowBlurOuter1" result="shadowMatrixOuter1" values="0 0 0 0 0   0 0 0 0 0   0 0 0 0 0  0 0 0 0.2 0"/>
      <feMorphology in="SourceAlpha" radius="1" result="shadowSpreadOuter2"/>
      <feOffset dy="3" in="shadowSpreadOuter2" result="shadowOffsetOuter2"/>
      <feGaussianBlur in="shadowOffsetOuter2" result="shadowBlurOuter2" stdDeviation=".5"/>
      <feColorMatrix in="shadowBlurOuter2" result="shadowMatrixOuter2" values="0 0 0 0 0   0 0 0 0 0   0 0 0 0 0  0 0 0 0.12 0"/>
      <feOffset dy="2" in="SourceAlpha" result="shadowOffsetOuter3"/>
      <feGaussianBlur in="shadowOffsetOuter3" result="shadowBlurOuter3" stdDeviation="1"/>
      <feColorMatrix in="shadowBlurOuter3" result="shadowMatrixOuter3" values="0 0 0 0 0   0 0 0 0 0   0 0 0 0 0  0 0 0 0.14 0"/>
      <feMerge>
        <feMergeNode in="shadowMatrixOuter1"/>
        <feMergeNode in="shadowMatrixOuter2"/>
        <feMergeNode in="shadowMatrixOuter3"/>
      </feMerge>
    </filter>
  </defs>
  <g fill="none" fill-rule="evenodd">
    <rect width="300" height="180" fill="#FFF" fill-opacity=".01" fill-rule="nonzero"/>
    <g transform="translate(30 54)">
      <g transform="translate(0 37)">
        <use fill="#000" filter="url(#7-a)" xlink:href="#7-b"/>
        <use fill="#FAFAFA" xlink:href="#7-b"/>
        <rect width="240" height="36" fill="#314351" rx="4"/>
        <path fill="#FFF" fill-rule="nonzero" d="M43.9951172,19.1650391 L42.0673828,19.1650391 L42.0673828,23 L40.3378906,23 L40.3378906,13.046875 L43.8378906,13.046875 C44.9863339,13.046875 45.8727182,13.3043594 46.4970703,13.8193359 C47.1214224,14.3343125 47.4335938,15.0794222 47.4335938,16.0546875 C47.4335938,16.7200554 47.2729508,17.2771787 46.9516602,17.7260742 C46.6303695,18.1749697 46.1826201,18.5201811 45.6083984,18.7617188 L47.84375,22.9111328 L47.84375,23 L45.9912109,23 L43.9951172,19.1650391 Z M42.0673828,17.7773438 L43.8447266,17.7773438 C44.4280628,17.7773438 44.8837874,17.6303726 45.2119141,17.3364258 C45.5400407,17.042479 45.7041016,16.640302 45.7041016,16.1298828 C45.7041016,15.596677 45.5525731,15.1842463 45.2495117,14.8925781 C44.9464503,14.60091 44.4941436,14.4505209 43.8925781,14.4414062 L42.0673828,14.4414062 L42.0673828,17.7773438 Z M55.6416016,18.5566406 L51.5537109,18.5566406 L51.5537109,21.6191406 L56.3320312,21.6191406 L56.3320312,23 L49.8242188,23 L49.8242188,13.046875 L56.2841797,13.046875 L56.2841797,14.4414062 L51.5537109,14.4414062 L51.5537109,17.1894531 L55.6416016,17.1894531 L55.6416016,18.5566406 Z M60.7324219,13.046875 L63.6035156,20.6757812 L66.4677734,13.046875 L68.703125,13.046875 L68.703125,23 L66.9804688,23 L66.9804688,19.71875 L67.1513672,15.3300781 L64.2119141,23 L62.9746094,23 L60.0419922,15.3369141 L60.2128906,19.71875 L60.2128906,23 L58.4902344,23 L58.4902344,13.046875 L60.7324219,13.046875 Z M79.4404297,18.2832031 C79.4404297,19.2584684 79.2718116,20.1140914 78.9345703,20.8500977 C78.597329,21.5861039 78.1154003,22.1512025 77.4887695,22.5454102 C76.8621388,22.9396179 76.1409546,23.1367188 75.3251953,23.1367188 C74.5185507,23.1367188 73.7996451,22.9396179 73.168457,22.5454102 C72.537269,22.1512025 72.0496436,21.5895219 71.7055664,20.8603516 C71.3614892,20.1311812 71.1871745,19.2903693 71.1826172,18.3378906 L71.1826172,17.7773438 C71.1826172,16.8066358 71.3546532,15.9498735 71.6987305,15.2070312 C72.0428077,14.464189 72.5281544,13.8956725 73.1547852,13.5014648 C73.7814159,13.1072571 74.5003215,12.9101562 75.3115234,12.9101562 C76.1227254,12.9101562 76.841631,13.1049785 77.4682617,13.4946289 C78.0948925,13.8842793 78.5790999,14.4448206 78.9208984,15.1762695 C79.262697,15.9077185 79.4358724,16.7587842 79.4404297,17.7294922 L79.4404297,18.2832031 Z M77.7109375,17.7636719 C77.7109375,16.6608018 77.5024435,15.8154326 77.0854492,15.2275391 C76.6684549,14.6396455 76.0771523,14.3457031 75.3115234,14.3457031 C74.5641239,14.3457031 73.9796571,14.6385062 73.5581055,15.2241211 C73.1365539,15.809736 72.921224,16.6380155 72.9121094,17.7089844 L72.9121094,18.2832031 C72.9121094,19.3769586 73.1251606,20.2223277 73.5512695,20.8193359 C73.9773784,21.4163441 74.5686811,21.7148438 75.3251953,21.7148438 C76.0908241,21.7148438 76.6798482,21.42318 77.0922852,20.8398438 C77.5047221,20.2565075 77.7109375,19.4043025 77.7109375,18.2832031 L77.7109375,17.7636719 Z M85.2695312,20.8330078 L87.7988281,13.046875 L89.6992188,13.046875 L86.1171875,23 L84.4423828,23 L80.8740234,13.046875 L82.7675781,13.046875 L85.2695312,20.8330078 Z M97.3876953,18.5566406 L93.2998047,18.5566406 L93.2998047,21.6191406 L98.078125,21.6191406 L98.078125,23 L91.5703125,23 L91.5703125,13.046875 L98.0302734,13.046875 L98.0302734,14.4414062 L93.2998047,14.4414062 L93.2998047,17.1894531 L97.3876953,17.1894531 L97.3876953,18.5566406 Z M110.208008,18.7822266 L106.202148,18.7822266 L106.202148,23 L104.472656,23 L104.472656,13.046875 L110.795898,13.046875 L110.795898,14.4414062 L106.202148,14.4414062 L106.202148,17.4013672 L110.208008,17.4013672 L110.208008,18.7822266 Z M116.570312,19.1650391 L114.642578,19.1650391 L114.642578,23 L112.913086,23 L112.913086,13.046875 L116.413086,13.046875 C117.561529,13.046875 118.447914,13.3043594 119.072266,13.8193359 C119.696618,14.3343125 120.008789,15.0794222 120.008789,16.0546875 C120.008789,16.7200554 119.848146,17.2771787 119.526855,17.7260742 C119.205565,18.1749697 118.757815,18.5201811 118.183594,18.7617188 L120.418945,22.9111328 L120.418945,23 L118.566406,23 L116.570312,19.1650391 Z M114.642578,17.7773438 L116.419922,17.7773438 C117.003258,17.7773438 117.458983,17.6303726 117.787109,17.3364258 C118.115236,17.042479 118.279297,16.640302 118.279297,16.1298828 C118.279297,15.596677 118.127768,15.1842463 117.824707,14.8925781 C117.521646,14.60091 117.069339,14.4505209 116.467773,14.4414062 L114.642578,14.4414062 L114.642578,17.7773438 Z M130.342773,18.2832031 C130.342773,19.2584684 130.174155,20.1140914 129.836914,20.8500977 C129.499673,21.5861039 129.017744,22.1512025 128.391113,22.5454102 C127.764483,22.9396179 127.043298,23.1367188 126.227539,23.1367188 C125.420894,23.1367188 124.701989,22.9396179 124.070801,22.5454102 C123.439613,22.1512025 122.951987,21.5895219 122.60791,20.8603516 C122.263833,20.1311812 122.089518,19.2903693 122.084961,18.3378906 L122.084961,17.7773438 C122.084961,16.8066358 122.256997,15.9498735 122.601074,15.2070312 C122.945151,14.464189 123.430498,13.8956725 124.057129,13.5014648 C124.68376,13.1072571 125.402665,12.9101562 126.213867,12.9101562 C127.025069,12.9101562 127.743975,13.1049785 128.370605,13.4946289 C128.997236,13.8842793 129.481444,14.4448206 129.823242,15.1762695 C130.165041,15.9077185 130.338216,16.7587842 130.342773,17.7294922 L130.342773,18.2832031 Z M128.613281,17.7636719 C128.613281,16.6608018 128.404787,15.8154326 127.987793,15.2275391 C127.570799,14.6396455 126.979496,14.3457031 126.213867,14.3457031 C125.466468,14.3457031 124.882001,14.6385062 124.460449,15.2241211 C124.038898,15.809736 123.823568,16.6380155 123.814453,17.7089844 L123.814453,18.2832031 C123.814453,19.3769586 124.027504,20.2223277 124.453613,20.8193359 C124.879722,21.4163441 125.471025,21.7148438 126.227539,21.7148438 C126.993168,21.7148438 127.582192,21.42318 127.994629,20.8398438 C128.407066,20.2565075 128.613281,19.4043025 128.613281,18.2832031 L128.613281,17.7636719 Z M135.057617,13.046875 L137.928711,20.6757812 L140.792969,13.046875 L143.02832,13.046875 L143.02832,23 L141.305664,23 L141.305664,19.71875 L141.476562,15.3300781 L138.537109,23 L137.299805,23 L134.367188,15.3369141 L134.538086,19.71875 L134.538086,23 L132.81543,23 L132.81543,13.046875 L135.057617,13.046875 Z M150.058594,23 L150.058594,13.046875 L152.998047,13.046875 C153.877609,13.046875 154.658037,13.2428366 155.339355,13.6347656 C156.020674,14.0266947 156.548175,14.5826787 156.921875,15.3027344 C157.295575,16.0227901 157.482422,16.8476516 157.482422,17.7773438 L157.482422,18.2763672 C157.482422,19.2197313 157.294435,20.0491501 156.918457,20.7646484 C156.542479,21.4801468 156.007002,22.0315736 155.312012,22.4189453 C154.617021,22.806317 153.820643,23 152.922852,23 L150.058594,23 Z M151.788086,14.4414062 L151.788086,21.6191406 L152.916016,21.6191406 C153.822921,21.6191406 154.519041,21.3354521 155.004395,20.7680664 C155.489749,20.2006808 155.736979,19.386073 155.746094,18.3242188 L155.746094,17.7705078 C155.746094,16.6904243 155.511396,15.8655627 155.041992,15.2958984 C154.572589,14.7262341 153.891281,14.4414062 152.998047,14.4414062 L151.788086,14.4414062 Z M165.772461,18.5566406 L161.68457,18.5566406 L161.68457,21.6191406 L166.462891,21.6191406 L166.462891,23 L159.955078,23 L159.955078,13.046875 L166.415039,13.046875 L166.415039,14.4414062 L161.68457,14.4414062 L161.68457,17.1894531 L165.772461,17.1894531 L165.772461,18.5566406 Z M172.12793,20.8330078 L174.657227,13.046875 L176.557617,13.046875 L172.975586,23 L171.300781,23 L167.732422,13.046875 L169.625977,13.046875 L172.12793,20.8330078 Z M180.253906,23 L178.53125,23 L178.53125,13.046875 L180.253906,13.046875 L180.253906,23 Z M190.724609,19.7597656 C190.624348,20.8216199 190.232425,21.6498994 189.548828,22.2446289 C188.865231,22.8393584 187.95606,23.1367188 186.821289,23.1367188 C186.028316,23.1367188 185.329918,22.9487323 184.726074,22.5727539 C184.12223,22.1967755 183.656252,21.6624384 183.328125,20.9697266 C182.999998,20.2770148 182.829102,19.4726608 182.81543,18.5566406 L182.81543,17.6269531 C182.81543,16.6881463 182.981769,15.8610062 183.314453,15.1455078 C183.647137,14.4300094 184.124509,13.8785827 184.746582,13.4912109 C185.368655,13.1038392 186.087561,12.9101562 186.90332,12.9101562 C188.001633,12.9101562 188.885739,13.2086559 189.555664,13.8056641 C190.225589,14.4026723 190.615234,15.2457628 190.724609,16.3349609 L189.001953,16.3349609 C188.919921,15.6194626 188.711427,15.1033544 188.376465,14.7866211 C188.041502,14.4698877 187.550459,14.3115234 186.90332,14.3115234 C186.151363,14.3115234 185.573732,14.5860975 185.17041,15.1352539 C184.767088,15.6844103 184.560872,16.4899035 184.551758,17.5517578 L184.551758,18.4335938 C184.551758,19.50912 184.744301,20.3294243 185.129395,20.8945312 C185.514488,21.4596382 186.078447,21.7421875 186.821289,21.7421875 C187.500329,21.7421875 188.01074,21.5895198 188.352539,21.2841797 C188.694338,20.9788396 188.910807,20.4707067 189.001953,19.7597656 L190.724609,19.7597656 Z M198.836914,18.5566406 L194.749023,18.5566406 L194.749023,21.6191406 L199.527344,21.6191406 L199.527344,23 L193.019531,23 L193.019531,13.046875 L199.479492,13.046875 L199.479492,14.4414062 L194.749023,14.4414062 L194.749023,17.1894531 L198.836914,17.1894531 L198.836914,18.5566406 Z"/>
      </g>
      <path fill="#C8226C" fill-rule="nonzero" d="M62.709,1.394 L58.748,1.394 L58.748,0.17 L65.174,0.17 L61.842,4.403 C63.814,4.403 65.208,5.814 65.208,7.82 C65.208,9.945 63.61,11.526 61.451,11.526 C59.666,11.526 58.391,10.523 58,8.806 L59.224,8.585 C59.53,9.673 60.329,10.285 61.383,10.285 C62.76,10.285 63.848,9.248 63.848,7.922 C63.848,6.562 62.828,5.61 61.349,5.61 C60.822,5.61 60.482,5.712 59.989,6.001 L59.428,5.508 L62.709,1.394 Z M72.348,0.17 L69.441,4.709 C69.917,4.539 70.138,4.488 70.546,4.488 C72.433,4.488 73.895,5.967 73.895,7.888 C73.895,9.894 72.246,11.543 70.24,11.543 C68.217,11.543 66.653,9.945 66.653,7.888 C66.653,7.055 66.874,6.426 67.52,5.389 L70.767,0.17 L72.348,0.17 Z M70.308,5.644 C69.016,5.644 67.996,6.63 67.996,7.888 C67.996,9.214 68.999,10.268 70.274,10.268 C71.549,10.268 72.569,9.231 72.569,7.939 C72.569,6.664 71.566,5.644 70.308,5.644 Z M81.681,4.692 L81.681,0 L82.973,0 L82.973,11.339 L81.681,11.339 L81.681,9.996 C80.899,11.067 80.066,11.526 78.876,11.526 C76.717,11.526 75.187,9.843 75.187,7.463 C75.187,5.083 76.751,3.315 78.876,3.315 C80.032,3.315 80.916,3.74 81.681,4.692 Z M79.148,4.471 C77.601,4.471 76.547,5.695 76.547,7.48 C76.547,9.197 77.584,10.404 79.063,10.404 C80.576,10.404 81.681,9.146 81.681,7.446 C81.681,5.678 80.644,4.471 79.148,4.471 Z M85.574,3.502 L86.866,3.502 L86.866,4.93 C87.614,3.774 88.413,3.315 89.722,3.315 C91.898,3.315 93.411,4.981 93.411,7.361 C93.411,9.826 91.898,11.526 89.722,11.526 C89.11,11.526 88.549,11.39 88.005,11.118 C87.529,10.88 87.291,10.676 86.866,10.115 L86.866,15.011 L85.574,15.011 L85.574,3.502 Z M89.501,4.471 C87.937,4.471 86.866,5.712 86.866,7.548 C86.866,9.265 87.903,10.404 89.45,10.404 C90.997,10.404 92.034,9.197 92.034,7.412 C92.034,6.494 91.813,5.797 91.354,5.287 C90.895,4.777 90.198,4.471 89.501,4.471 Z M96.029,9.707 C96.539,9.707 96.913,10.081 96.913,10.608 C96.913,11.101 96.522,11.475 96.029,11.475 C95.519,11.475 95.145,11.101 95.145,10.591 C95.145,10.081 95.519,9.707 96.029,9.707 Z M96.029,4.811 C96.539,4.811 96.913,5.185 96.913,5.712 C96.913,6.205 96.522,6.579 96.029,6.579 C95.519,6.579 95.145,6.205 95.145,5.695 C95.145,5.185 95.519,4.811 96.029,4.811 Z M105.736,0 L105.736,6.749 C105.736,8.194 105.94,8.925 106.484,9.469 C106.96,9.928 107.776,10.234 108.49,10.234 C109.204,10.234 110.003,9.911 110.496,9.401 C111.108,8.806 111.261,8.228 111.261,6.715 L111.261,0 L112.723,0 L112.723,6.715 C112.723,8.415 112.451,9.384 111.72,10.2 C110.955,11.067 109.816,11.543 108.524,11.543 C107.198,11.543 105.991,11.033 105.226,10.115 C104.529,9.316 104.308,8.483 104.308,6.715 L104.308,0 L105.736,0 Z M115.205,3.502 L116.497,3.502 L116.497,4.93 C117.245,3.774 118.044,3.315 119.353,3.315 C121.529,3.315 123.042,4.981 123.042,7.361 C123.042,9.826 121.529,11.526 119.353,11.526 C118.741,11.526 118.18,11.39 117.636,11.118 C117.16,10.88 116.922,10.676 116.497,10.115 L116.497,15.011 L115.205,15.011 L115.205,3.502 Z M119.132,4.471 C117.568,4.471 116.497,5.712 116.497,7.548 C116.497,9.265 117.534,10.404 119.081,10.404 C120.628,10.404 121.665,9.197 121.665,7.412 C121.665,6.494 121.444,5.797 120.985,5.287 C120.526,4.777 119.829,4.471 119.132,4.471 Z M124.997,3.502 L126.289,3.502 L126.289,4.93 C127.037,3.774 127.836,3.315 129.145,3.315 C131.321,3.315 132.834,4.981 132.834,7.361 C132.834,9.826 131.321,11.526 129.145,11.526 C128.533,11.526 127.972,11.39 127.428,11.118 C126.952,10.88 126.714,10.676 126.289,10.115 L126.289,15.011 L124.997,15.011 L124.997,3.502 Z M128.924,4.471 C127.36,4.471 126.289,5.712 126.289,7.548 C126.289,9.265 127.326,10.404 128.873,10.404 C130.42,10.404 131.457,9.197 131.457,7.412 C131.457,6.494 131.236,5.797 130.777,5.287 C130.318,4.777 129.621,4.471 128.924,4.471 Z M142.065,7.837 L135.537,7.837 C135.605,8.5 135.724,8.84 136.047,9.265 C136.557,9.962 137.305,10.336 138.155,10.336 C139.124,10.336 140.042,9.809 140.501,8.993 L141.64,9.418 C140.994,10.727 139.651,11.526 138.155,11.526 C135.826,11.526 134.16,9.826 134.16,7.446 C134.16,5.032 135.809,3.315 138.104,3.315 C140.382,3.315 142.082,5.032 142.082,7.327 C142.082,7.429 142.082,7.65 142.065,7.837 Z M135.554,6.885 L140.705,6.885 C140.654,6.273 140.535,5.933 140.263,5.542 C139.77,4.879 138.971,4.471 138.104,4.471 C137.237,4.471 136.455,4.879 135.996,5.559 C135.758,5.933 135.656,6.256 135.554,6.885 Z M143.952,3.502 L145.244,3.502 L145.244,4.828 C145.482,4.267 145.652,4.029 145.958,3.791 C146.349,3.485 146.893,3.315 147.454,3.315 L147.76,3.315 L147.76,4.624 C147.624,4.607 147.488,4.607 147.403,4.607 C146.706,4.607 146.094,4.93 145.703,5.508 C145.363,6.001 145.244,6.46 145.244,7.361 L145.244,11.339 L143.952,11.339 L143.952,3.502 Z M154.662,9.486 L155.461,10.37 C154.577,11.169 153.71,11.526 152.571,11.526 C150.327,11.526 148.729,9.826 148.729,7.446 C148.729,5.015 150.344,3.315 152.639,3.315 C153.761,3.315 154.679,3.689 155.495,4.488 L154.662,5.321 C154.067,4.777 153.404,4.505 152.673,4.505 C151.126,4.505 150.055,5.695 150.055,7.395 C150.055,9.129 151.126,10.336 152.656,10.336 C153.421,10.336 154.033,10.081 154.662,9.486 Z M163.043,4.794 L163.043,3.502 L164.335,3.502 L164.335,11.339 L163.043,11.339 L163.043,9.826 C162.261,10.999 161.377,11.526 160.187,11.526 C158.028,11.526 156.498,9.826 156.498,7.446 C156.498,5.049 158.062,3.315 160.221,3.315 C161.411,3.315 162.278,3.774 163.043,4.794 Z M160.408,4.471 C159.558,4.471 158.963,4.76 158.504,5.406 C158.096,5.967 157.858,6.715 157.858,7.48 C157.858,9.146 158.946,10.404 160.374,10.404 C161.853,10.404 163.06,9.027 163.06,7.344 C163.06,5.644 161.972,4.471 160.408,4.471 Z M171.849,5.644 L170.557,5.644 L170.557,5.559 C170.557,4.828 169.962,4.369 169.061,4.369 C168.194,4.369 167.65,4.811 167.65,5.491 C167.65,6.171 167.99,6.426 169.401,6.817 C170.404,7.089 170.931,7.344 171.305,7.718 C171.696,8.109 171.934,8.67 171.934,9.248 C171.934,10.608 170.812,11.526 169.146,11.526 C167.361,11.526 166.358,10.693 166.222,9.112 L167.497,9.112 C167.582,9.996 168.16,10.472 169.146,10.472 C170.03,10.472 170.608,10.013 170.608,9.316 C170.608,8.636 170.166,8.296 168.823,7.956 C167.123,7.497 166.358,6.783 166.358,5.593 C166.358,4.233 167.463,3.315 169.112,3.315 C170.778,3.315 171.781,4.165 171.849,5.644 Z M181.199,7.837 L174.671,7.837 C174.739,8.5 174.858,8.84 175.181,9.265 C175.691,9.962 176.439,10.336 177.289,10.336 C178.258,10.336 179.176,9.809 179.635,8.993 L180.774,9.418 C180.128,10.727 178.785,11.526 177.289,11.526 C174.96,11.526 173.294,9.826 173.294,7.446 C173.294,5.032 174.943,3.315 177.238,3.315 C179.516,3.315 181.216,5.032 181.216,7.327 C181.216,7.429 181.216,7.65 181.199,7.837 Z M174.688,6.885 L179.839,6.885 C179.788,6.273 179.669,5.933 179.397,5.542 C178.904,4.879 178.105,4.471 177.238,4.471 C176.371,4.471 175.589,4.879 175.13,5.559 C174.892,5.933 174.79,6.256 174.688,6.885 Z"/>
    </g>
  </g>
</svg>
