<svg xmlns="http://www.w3.org/2000/svg" xmlns:xlink="http://www.w3.org/1999/xlink" width="300" height="180" viewBox="0 0 300 180">
  <defs>
    <rect id="8-b" width="240" height="24" x="0" y="0" rx="4"/>
    <filter id="8-a" width="106.7%" height="166.7%" x="-3.3%" y="-29.2%" filterUnits="objectBoundingBox">
      <feOffset dy="1" in="SourceAlpha" result="shadowOffsetOuter1"/>
      <feGaussianBlur in="shadowOffsetOuter1" result="shadowBlurOuter1" stdDeviation="2.5"/>
      <feColorMatrix in="shadowBlurOuter1" result="shadowMatrixOuter1" values="0 0 0 0 0   0 0 0 0 0   0 0 0 0 0  0 0 0 0.2 0"/>
      <feMorphology in="SourceAlpha" radius="1" result="shadowSpreadOuter2"/>
      <feOffset dy="3" in="shadowSpreadOuter2" result="shadowOffsetOuter2"/>
      <feGaussianBlur in="shadowOffsetOuter2" result="shadowBlurOuter2" stdDeviation=".5"/>
      <feColorMatrix in="shadowBlurOuter2" result="shadowMatrixOuter2" values="0 0 0 0 0   0 0 0 0 0   0 0 0 0 0  0 0 0 0.12 0"/>
      <feOffset dy="2" in="SourceAlpha" result="shadowOffsetOuter3"/>
      <feGaussianBlur in="shadowOffsetOuter3" result="shadowBlurOuter3" stdDeviation="1"/>
      <feColorMatrix in="shadowBlurOuter3" result="shadowMatrixOuter3" values="0 0 0 0 0   0 0 0 0 0   0 0 0 0 0  0 0 0 0.14 0"/>
      <feMerge>
        <feMergeNode in="shadowMatrixOuter1"/>
        <feMergeNode in="shadowMatrixOuter2"/>
        <feMergeNode in="shadowMatrixOuter3"/>
      </feMerge>
    </filter>
  </defs>
  <g fill="none" fill-rule="evenodd">
    <rect width="300" height="180" fill="#FFF" fill-opacity=".01" fill-rule="nonzero"/>
    <g transform="translate(30 60)">
      <g transform="translate(0 37)">
        <use fill="#000" filter="url(#8-a)" xlink:href="#8-b"/>
        <use fill="#FAFAFA" xlink:href="#8-b"/>
        <rect width="240" height="24" fill="#314351" rx="4"/>
        <path fill="#FFF" fill-rule="nonzero" d="M43.9951172,13.1650391 L42.0673828,13.1650391 L42.0673828,17 L40.3378906,17 L40.3378906,7.046875 L43.8378906,7.046875 C44.9863339,7.046875 45.8727182,7.3043594 46.4970703,7.81933594 C47.1214224,8.33431247 47.4335938,9.07942221 47.4335938,10.0546875 C47.4335938,10.7200554 47.2729508,11.2771787 46.9516602,11.7260742 C46.6303695,12.1749697 46.1826201,12.5201811 45.6083984,12.7617188 L47.84375,16.9111328 L47.84375,17 L45.9912109,17 L43.9951172,13.1650391 Z M42.0673828,11.7773438 L43.8447266,11.7773438 C44.4280628,11.7773438 44.8837874,11.6303726 45.2119141,11.3364258 C45.5400407,11.042479 45.7041016,10.640302 45.7041016,10.1298828 C45.7041016,9.59667702 45.5525731,9.18424625 45.2495117,8.89257812 C44.9464503,8.60091 44.4941436,8.45052088 43.8925781,8.44140625 L42.0673828,8.44140625 L42.0673828,11.7773438 Z M55.6416016,12.5566406 L51.5537109,12.5566406 L51.5537109,15.6191406 L56.3320312,15.6191406 L56.3320312,17 L49.8242188,17 L49.8242188,7.046875 L56.2841797,7.046875 L56.2841797,8.44140625 L51.5537109,8.44140625 L51.5537109,11.1894531 L55.6416016,11.1894531 L55.6416016,12.5566406 Z M60.7324219,7.046875 L63.6035156,14.6757812 L66.4677734,7.046875 L68.703125,7.046875 L68.703125,17 L66.9804688,17 L66.9804688,13.71875 L67.1513672,9.33007812 L64.2119141,17 L62.9746094,17 L60.0419922,9.33691406 L60.2128906,13.71875 L60.2128906,17 L58.4902344,17 L58.4902344,7.046875 L60.7324219,7.046875 Z M79.4404297,12.2832031 C79.4404297,13.2584684 79.2718116,14.1140914 78.9345703,14.8500977 C78.597329,15.5861039 78.1154003,16.1512025 77.4887695,16.5454102 C76.8621388,16.9396179 76.1409546,17.1367188 75.3251953,17.1367188 C74.5185507,17.1367188 73.7996451,16.9396179 73.168457,16.5454102 C72.537269,16.1512025 72.0496436,15.5895219 71.7055664,14.8603516 C71.3614892,14.1311812 71.1871745,13.2903693 71.1826172,12.3378906 L71.1826172,11.7773438 C71.1826172,10.8066358 71.3546532,9.94987351 71.6987305,9.20703125 C72.0428077,8.46418899 72.5281544,7.89567254 73.1547852,7.50146484 C73.7814159,7.10725714 74.5003215,6.91015625 75.3115234,6.91015625 C76.1227254,6.91015625 76.841631,7.10497852 77.4682617,7.49462891 C78.0948925,7.88427929 78.5790999,8.44482056 78.9208984,9.17626953 C79.262697,9.9077185 79.4358724,10.7587842 79.4404297,11.7294922 L79.4404297,12.2832031 Z M77.7109375,11.7636719 C77.7109375,10.6608018 77.5024435,9.81543263 77.0854492,9.22753906 C76.6684549,8.6396455 76.0771523,8.34570312 75.3115234,8.34570312 C74.5641239,8.34570312 73.9796571,8.63850619 73.5581055,9.22412109 C73.1365539,9.809736 72.921224,10.6380155 72.9121094,11.7089844 L72.9121094,12.2832031 C72.9121094,13.3769586 73.1251606,14.2223277 73.5512695,14.8193359 C73.9773784,15.4163441 74.5686811,15.7148438 75.3251953,15.7148438 C76.0908241,15.7148438 76.6798482,15.42318 77.0922852,14.8398438 C77.5047221,14.2565075 77.7109375,13.4043025 77.7109375,12.2832031 L77.7109375,11.7636719 Z M85.2695312,14.8330078 L87.7988281,7.046875 L89.6992188,7.046875 L86.1171875,17 L84.4423828,17 L80.8740234,7.046875 L82.7675781,7.046875 L85.2695312,14.8330078 Z M97.3876953,12.5566406 L93.2998047,12.5566406 L93.2998047,15.6191406 L98.078125,15.6191406 L98.078125,17 L91.5703125,17 L91.5703125,7.046875 L98.0302734,7.046875 L98.0302734,8.44140625 L93.2998047,8.44140625 L93.2998047,11.1894531 L97.3876953,11.1894531 L97.3876953,12.5566406 Z M110.208008,12.7822266 L106.202148,12.7822266 L106.202148,17 L104.472656,17 L104.472656,7.046875 L110.795898,7.046875 L110.795898,8.44140625 L106.202148,8.44140625 L106.202148,11.4013672 L110.208008,11.4013672 L110.208008,12.7822266 Z M116.570312,13.1650391 L114.642578,13.1650391 L114.642578,17 L112.913086,17 L112.913086,7.046875 L116.413086,7.046875 C117.561529,7.046875 118.447914,7.3043594 119.072266,7.81933594 C119.696618,8.33431247 120.008789,9.07942221 120.008789,10.0546875 C120.008789,10.7200554 119.848146,11.2771787 119.526855,11.7260742 C119.205565,12.1749697 118.757815,12.5201811 118.183594,12.7617188 L120.418945,16.9111328 L120.418945,17 L118.566406,17 L116.570312,13.1650391 Z M114.642578,11.7773438 L116.419922,11.7773438 C117.003258,11.7773438 117.458983,11.6303726 117.787109,11.3364258 C118.115236,11.042479 118.279297,10.640302 118.279297,10.1298828 C118.279297,9.59667702 118.127768,9.18424625 117.824707,8.89257812 C117.521646,8.60091 117.069339,8.45052088 116.467773,8.44140625 L114.642578,8.44140625 L114.642578,11.7773438 Z M130.342773,12.2832031 C130.342773,13.2584684 130.174155,14.1140914 129.836914,14.8500977 C129.499673,15.5861039 129.017744,16.1512025 128.391113,16.5454102 C127.764483,16.9396179 127.043298,17.1367188 126.227539,17.1367188 C125.420894,17.1367188 124.701989,16.9396179 124.070801,16.5454102 C123.439613,16.1512025 122.951987,15.5895219 122.60791,14.8603516 C122.263833,14.1311812 122.089518,13.2903693 122.084961,12.3378906 L122.084961,11.7773438 C122.084961,10.8066358 122.256997,9.94987351 122.601074,9.20703125 C122.945151,8.46418899 123.430498,7.89567254 124.057129,7.50146484 C124.68376,7.10725714 125.402665,6.91015625 126.213867,6.91015625 C127.025069,6.91015625 127.743975,7.10497852 128.370605,7.49462891 C128.997236,7.88427929 129.481444,8.44482056 129.823242,9.17626953 C130.165041,9.9077185 130.338216,10.7587842 130.342773,11.7294922 L130.342773,12.2832031 Z M128.613281,11.7636719 C128.613281,10.6608018 128.404787,9.81543263 127.987793,9.22753906 C127.570799,8.6396455 126.979496,8.34570312 126.213867,8.34570312 C125.466468,8.34570312 124.882001,8.63850619 124.460449,9.22412109 C124.038898,9.809736 123.823568,10.6380155 123.814453,11.7089844 L123.814453,12.2832031 C123.814453,13.3769586 124.027504,14.2223277 124.453613,14.8193359 C124.879722,15.4163441 125.471025,15.7148438 126.227539,15.7148438 C126.993168,15.7148438 127.582192,15.42318 127.994629,14.8398438 C128.407066,14.2565075 128.613281,13.4043025 128.613281,12.2832031 L128.613281,11.7636719 Z M135.057617,7.046875 L137.928711,14.6757812 L140.792969,7.046875 L143.02832,7.046875 L143.02832,17 L141.305664,17 L141.305664,13.71875 L141.476562,9.33007812 L138.537109,17 L137.299805,17 L134.367188,9.33691406 L134.538086,13.71875 L134.538086,17 L132.81543,17 L132.81543,7.046875 L135.057617,7.046875 Z M150.058594,17 L150.058594,7.046875 L152.998047,7.046875 C153.877609,7.046875 154.658037,7.24283658 155.339355,7.63476562 C156.020674,8.02669467 156.548175,8.58267869 156.921875,9.30273438 C157.295575,10.0227901 157.482422,10.8476516 157.482422,11.7773438 L157.482422,12.2763672 C157.482422,13.2197313 157.294435,14.0491501 156.918457,14.7646484 C156.542479,15.4801468 156.007002,16.0315736 155.312012,16.4189453 C154.617021,16.806317 153.820643,17 152.922852,17 L150.058594,17 Z M151.788086,8.44140625 L151.788086,15.6191406 L152.916016,15.6191406 C153.822921,15.6191406 154.519041,15.3354521 155.004395,14.7680664 C155.489749,14.2006808 155.736979,13.386073 155.746094,12.3242188 L155.746094,11.7705078 C155.746094,10.6904243 155.511396,9.86556274 155.041992,9.29589844 C154.572589,8.72623413 153.891281,8.44140625 152.998047,8.44140625 L151.788086,8.44140625 Z M165.772461,12.5566406 L161.68457,12.5566406 L161.68457,15.6191406 L166.462891,15.6191406 L166.462891,17 L159.955078,17 L159.955078,7.046875 L166.415039,7.046875 L166.415039,8.44140625 L161.68457,8.44140625 L161.68457,11.1894531 L165.772461,11.1894531 L165.772461,12.5566406 Z M172.12793,14.8330078 L174.657227,7.046875 L176.557617,7.046875 L172.975586,17 L171.300781,17 L167.732422,7.046875 L169.625977,7.046875 L172.12793,14.8330078 Z M180.253906,17 L178.53125,17 L178.53125,7.046875 L180.253906,7.046875 L180.253906,17 Z M190.724609,13.7597656 C190.624348,14.8216199 190.232425,15.6498994 189.548828,16.2446289 C188.865231,16.8393584 187.95606,17.1367188 186.821289,17.1367188 C186.028316,17.1367188 185.329918,16.9487323 184.726074,16.5727539 C184.12223,16.1967755 183.656252,15.6624384 183.328125,14.9697266 C182.999998,14.2770148 182.829102,13.4726608 182.81543,12.5566406 L182.81543,11.6269531 C182.81543,10.6881463 182.981769,9.86100618 183.314453,9.14550781 C183.647137,8.43000944 184.124509,7.87858267 184.746582,7.49121094 C185.368655,7.10383921 186.087561,6.91015625 186.90332,6.91015625 C188.001633,6.91015625 188.885739,7.20865587 189.555664,7.80566406 C190.225589,8.40267226 190.615234,9.24576278 190.724609,10.3349609 L189.001953,10.3349609 C188.919921,9.61946257 188.711427,9.10335445 188.376465,8.78662109 C188.041502,8.46988774 187.550459,8.31152344 186.90332,8.31152344 C186.151363,8.31152344 185.573732,8.58609751 185.17041,9.13525391 C184.767088,9.6844103 184.560872,10.4899035 184.551758,11.5517578 L184.551758,12.4335938 C184.551758,13.50912 184.744301,14.3294243 185.129395,14.8945312 C185.514488,15.4596382 186.078447,15.7421875 186.821289,15.7421875 C187.500329,15.7421875 188.01074,15.5895198 188.352539,15.2841797 C188.694338,14.9788396 188.910807,14.4707067 189.001953,13.7597656 L190.724609,13.7597656 Z M198.836914,12.5566406 L194.749023,12.5566406 L194.749023,15.6191406 L199.527344,15.6191406 L199.527344,17 L193.019531,17 L193.019531,7.046875 L199.479492,7.046875 L199.479492,8.44140625 L194.749023,8.44140625 L194.749023,11.1894531 L198.836914,11.1894531 L198.836914,12.5566406 Z"/>
      </g>
      <path fill="#C8226C" fill-rule="nonzero" d="M61.363,10.251 L65.358,10.251 L65.358,11.492 L59,11.492 L62.944,5.848 C64.083,4.199 64.338,3.689 64.338,3.009 C64.338,2.023 63.556,1.326 62.451,1.326 C61.686,1.326 61.057,1.683 60.802,2.278 C60.666,2.601 60.615,2.856 60.598,3.451 L59.323,3.451 C59.391,1.292 60.53,0.102 62.553,0.102 C64.406,0.102 65.698,1.258 65.698,2.907 C65.698,3.859 65.358,4.692 64.406,6.018 L61.363,10.251 Z M71.971,8.942 L67.432,8.942 L67.432,7.888 L73.28,0 L73.28,7.718 L74.606,7.718 L74.606,8.942 L73.28,8.942 L73.28,11.492 L71.971,11.492 L71.971,8.942 Z M71.971,7.718 L71.971,3.383 L68.792,7.718 L71.971,7.718 Z M82.426,4.845 L82.426,0.153 L83.718,0.153 L83.718,11.492 L82.426,11.492 L82.426,10.149 C81.644,11.22 80.811,11.679 79.621,11.679 C77.462,11.679 75.932,9.996 75.932,7.616 C75.932,5.236 77.496,3.468 79.621,3.468 C80.777,3.468 81.661,3.893 82.426,4.845 Z M79.893,4.624 C78.346,4.624 77.292,5.848 77.292,7.633 C77.292,9.35 78.329,10.557 79.808,10.557 C81.321,10.557 82.426,9.299 82.426,7.599 C82.426,5.831 81.389,4.624 79.893,4.624 Z M86.319,3.655 L87.611,3.655 L87.611,5.083 C88.359,3.927 89.158,3.468 90.467,3.468 C92.643,3.468 94.156,5.134 94.156,7.514 C94.156,9.979 92.643,11.679 90.467,11.679 C89.855,11.679 89.294,11.543 88.75,11.271 C88.274,11.033 88.036,10.829 87.611,10.268 L87.611,15.164 L86.319,15.164 L86.319,3.655 Z M90.246,4.624 C88.682,4.624 87.611,5.865 87.611,7.701 C87.611,9.418 88.648,10.557 90.195,10.557 C91.742,10.557 92.779,9.35 92.779,7.565 C92.779,6.647 92.558,5.95 92.099,5.44 C91.64,4.93 90.943,4.624 90.246,4.624 Z M96.774,9.86 C97.284,9.86 97.658,10.234 97.658,10.761 C97.658,11.254 97.267,11.628 96.774,11.628 C96.264,11.628 95.89,11.254 95.89,10.744 C95.89,10.234 96.264,9.86 96.774,9.86 Z M96.774,4.964 C97.284,4.964 97.658,5.338 97.658,5.865 C97.658,6.358 97.267,6.732 96.774,6.732 C96.264,6.732 95.89,6.358 95.89,5.848 C95.89,5.338 96.264,4.964 96.774,4.964 Z M106.481,0.153 L106.481,6.902 C106.481,8.347 106.685,9.078 107.229,9.622 C107.705,10.081 108.521,10.387 109.235,10.387 C109.949,10.387 110.748,10.064 111.241,9.554 C111.853,8.959 112.006,8.381 112.006,6.868 L112.006,0.153 L113.468,0.153 L113.468,6.868 C113.468,8.568 113.196,9.537 112.465,10.353 C111.7,11.22 110.561,11.696 109.269,11.696 C107.943,11.696 106.736,11.186 105.971,10.268 C105.274,9.469 105.053,8.636 105.053,6.868 L105.053,0.153 L106.481,0.153 Z M115.95,3.655 L117.242,3.655 L117.242,5.083 C117.99,3.927 118.789,3.468 120.098,3.468 C122.274,3.468 123.787,5.134 123.787,7.514 C123.787,9.979 122.274,11.679 120.098,11.679 C119.486,11.679 118.925,11.543 118.381,11.271 C117.905,11.033 117.667,10.829 117.242,10.268 L117.242,15.164 L115.95,15.164 L115.95,3.655 Z M119.877,4.624 C118.313,4.624 117.242,5.865 117.242,7.701 C117.242,9.418 118.279,10.557 119.826,10.557 C121.373,10.557 122.41,9.35 122.41,7.565 C122.41,6.647 122.189,5.95 121.73,5.44 C121.271,4.93 120.574,4.624 119.877,4.624 Z M125.742,3.655 L127.034,3.655 L127.034,5.083 C127.782,3.927 128.581,3.468 129.89,3.468 C132.066,3.468 133.579,5.134 133.579,7.514 C133.579,9.979 132.066,11.679 129.89,11.679 C129.278,11.679 128.717,11.543 128.173,11.271 C127.697,11.033 127.459,10.829 127.034,10.268 L127.034,15.164 L125.742,15.164 L125.742,3.655 Z M129.669,4.624 C128.105,4.624 127.034,5.865 127.034,7.701 C127.034,9.418 128.071,10.557 129.618,10.557 C131.165,10.557 132.202,9.35 132.202,7.565 C132.202,6.647 131.981,5.95 131.522,5.44 C131.063,4.93 130.366,4.624 129.669,4.624 Z M142.81,7.99 L136.282,7.99 C136.35,8.653 136.469,8.993 136.792,9.418 C137.302,10.115 138.05,10.489 138.9,10.489 C139.869,10.489 140.787,9.962 141.246,9.146 L142.385,9.571 C141.739,10.88 140.396,11.679 138.9,11.679 C136.571,11.679 134.905,9.979 134.905,7.599 C134.905,5.185 136.554,3.468 138.849,3.468 C141.127,3.468 142.827,5.185 142.827,7.48 C142.827,7.582 142.827,7.803 142.81,7.99 Z M136.299,7.038 L141.45,7.038 C141.399,6.426 141.28,6.086 141.008,5.695 C140.515,5.032 139.716,4.624 138.849,4.624 C137.982,4.624 137.2,5.032 136.741,5.712 C136.503,6.086 136.401,6.409 136.299,7.038 Z M144.697,3.655 L145.989,3.655 L145.989,4.981 C146.227,4.42 146.397,4.182 146.703,3.944 C147.094,3.638 147.638,3.468 148.199,3.468 L148.505,3.468 L148.505,4.777 C148.369,4.76 148.233,4.76 148.148,4.76 C147.451,4.76 146.839,5.083 146.448,5.661 C146.108,6.154 145.989,6.613 145.989,7.514 L145.989,11.492 L144.697,11.492 L144.697,3.655 Z M155.407,9.639 L156.206,10.523 C155.322,11.322 154.455,11.679 153.316,11.679 C151.072,11.679 149.474,9.979 149.474,7.599 C149.474,5.168 151.089,3.468 153.384,3.468 C154.506,3.468 155.424,3.842 156.24,4.641 L155.407,5.474 C154.812,4.93 154.149,4.658 153.418,4.658 C151.871,4.658 150.8,5.848 150.8,7.548 C150.8,9.282 151.871,10.489 153.401,10.489 C154.166,10.489 154.778,10.234 155.407,9.639 Z M163.788,4.947 L163.788,3.655 L165.08,3.655 L165.08,11.492 L163.788,11.492 L163.788,9.979 C163.006,11.152 162.122,11.679 160.932,11.679 C158.773,11.679 157.243,9.979 157.243,7.599 C157.243,5.202 158.807,3.468 160.966,3.468 C162.156,3.468 163.023,3.927 163.788,4.947 Z M161.153,4.624 C160.303,4.624 159.708,4.913 159.249,5.559 C158.841,6.12 158.603,6.868 158.603,7.633 C158.603,9.299 159.691,10.557 161.119,10.557 C162.598,10.557 163.805,9.18 163.805,7.497 C163.805,5.797 162.717,4.624 161.153,4.624 Z M172.594,5.797 L171.302,5.797 L171.302,5.712 C171.302,4.981 170.707,4.522 169.806,4.522 C168.939,4.522 168.395,4.964 168.395,5.644 C168.395,6.324 168.735,6.579 170.146,6.97 C171.149,7.242 171.676,7.497 172.05,7.871 C172.441,8.262 172.679,8.823 172.679,9.401 C172.679,10.761 171.557,11.679 169.891,11.679 C168.106,11.679 167.103,10.846 166.967,9.265 L168.242,9.265 C168.327,10.149 168.905,10.625 169.891,10.625 C170.775,10.625 171.353,10.166 171.353,9.469 C171.353,8.789 170.911,8.449 169.568,8.109 C167.868,7.65 167.103,6.936 167.103,5.746 C167.103,4.386 168.208,3.468 169.857,3.468 C171.523,3.468 172.526,4.318 172.594,5.797 Z M181.944,7.99 L175.416,7.99 C175.484,8.653 175.603,8.993 175.926,9.418 C176.436,10.115 177.184,10.489 178.034,10.489 C179.003,10.489 179.921,9.962 180.38,9.146 L181.519,9.571 C180.873,10.88 179.53,11.679 178.034,11.679 C175.705,11.679 174.039,9.979 174.039,7.599 C174.039,5.185 175.688,3.468 177.983,3.468 C180.261,3.468 181.961,5.185 181.961,7.48 C181.961,7.582 181.961,7.803 181.944,7.99 Z M175.433,7.038 L180.584,7.038 C180.533,6.426 180.414,6.086 180.142,5.695 C179.649,5.032 178.85,4.624 177.983,4.624 C177.116,4.624 176.334,5.032 175.875,5.712 C175.637,6.086 175.535,6.409 175.433,7.038 Z"/>
    </g>
  </g>
</svg>
