<svg xmlns="http://www.w3.org/2000/svg" xmlns:xlink="http://www.w3.org/1999/xlink" width="366" height="62" viewBox="0 0 366 62">
  <defs>
    <rect id="2-b" width="360" height="56"/>
    <filter id="2-a" width="102.8%" height="117.9%" x="-1.4%" y="-7.1%" filterUnits="objectBoundingBox">
      <feOffset dy="1" in="SourceAlpha" result="shadowOffsetOuter1"/>
      <feGaussianBlur in="shadowOffsetOuter1" result="shadowBlurOuter1" stdDeviation="1.5"/>
      <feColorMatrix in="shadowBlurOuter1" result="shadowMatrixOuter1" values="0 0 0 0 0   0 0 0 0 0   0 0 0 0 0  0 0 0 0.2 0"/>
      <feMorphology in="SourceAlpha" radius=".5" result="shadowSpreadOuter2"/>
      <feOffset dy="2" in="shadowSpreadOuter2" result="shadowOffsetOuter2"/>
      <feGaussianBlur in="shadowOffsetOuter2" result="shadowBlurOuter2" stdDeviation=".5"/>
      <feColorMatrix in="shadowBlurOuter2" result="shadowMatrixOuter2" values="0 0 0 0 0   0 0 0 0 0   0 0 0 0 0  0 0 0 0.12 0"/>
      <feOffset dy="1" in="SourceAlpha" result="shadowOffsetOuter3"/>
      <feGaussianBlur in="shadowOffsetOuter3" result="shadowBlurOuter3" stdDeviation=".5"/>
      <feColorMatrix in="shadowBlurOuter3" result="shadowMatrixOuter3" values="0 0 0 0 0   0 0 0 0 0   0 0 0 0 0  0 0 0 0.14 0"/>
      <feMerge>
        <feMergeNode in="shadowMatrixOuter1"/>
        <feMergeNode in="shadowMatrixOuter2"/>
        <feMergeNode in="shadowMatrixOuter3"/>
      </feMerge>
    </filter>
    <path id="2-c" d="M11.98,6.976 C14.741,6.976 16.98,9.215 16.98,11.976 C16.98,14.737 14.741,16.976 11.98,16.976 C9.219,16.976 6.98,14.737 6.98,11.976 C6.98,9.215 9.219,6.976 11.98,6.976 Z M11.98,8.976 C10.326,8.976 8.98,10.322 8.98,11.976 C8.98,13.63 10.326,14.976 11.98,14.976 C13.634,14.976 14.98,13.63 14.98,11.976 C14.98,10.322 13.634,8.976 11.98,8.976 Z M6.7934,16.9575 L7.3314,17.4175 C7.9974,17.9875 8.7584,18.4255 9.5924,18.7215 L10.2594,18.9575 L10.2594,20.5275 C10.2594,20.7615 10.4494,20.9525 10.6824,20.9525 L13.2774,20.9525 C13.5104,20.9525 13.7004,20.7625 13.7004,20.5285 L13.7004,18.9575 L14.3674,18.7215 C15.2014,18.4255 15.9624,17.9875 16.6284,17.4175 L17.1664,16.9575 L18.5264,17.7425 C18.7284,17.8615 18.9874,17.7905 19.1044,17.5875 L20.4014,15.3405 C20.4784,15.2075 20.4614,15.0825 20.4444,15.0195 C20.4274,14.9555 20.3794,14.8385 20.2474,14.7625 L18.8894,13.9785 L19.0174,13.2845 C19.1014,12.8265 19.1424,12.3985 19.1424,11.9765 C19.1424,11.5535 19.1014,11.1255 19.0174,10.6675 L18.8894,9.9745 L20.2474,9.1895 C20.3794,9.1135 20.4274,8.9965 20.4444,8.9335 C20.4614,8.8705 20.4784,8.7445 20.4014,8.6115 L19.1044,6.3645 C18.9874,6.1625 18.7284,6.0925 18.5264,6.2095 L17.1664,6.9945 L16.6284,6.5345 C15.9624,5.9645 15.2014,5.5265 14.3674,5.2305 L13.7004,4.9955 L13.7004,3.4245 C13.7004,3.1905 13.5104,2.9995 13.2774,2.9995 L10.6824,2.9995 C10.4494,2.9995 10.2594,3.1895 10.2594,3.4235 L10.2594,4.9955 L9.5924,5.2305 C8.7584,5.5265 7.9974,5.9645 7.3314,6.5345 L6.7934,6.9945 L5.4334,6.2095 C5.2314,6.0925 4.9724,6.1625 4.8554,6.3645 L3.5584,8.6115 C3.4814,8.7445 3.4984,8.8705 3.5154,8.9335 C3.5324,8.9965 3.5804,9.1135 3.7124,9.1895 L5.0704,9.9745 L4.9424,10.6675 C4.8584,11.1255 4.8174,11.5535 4.8174,11.9765 C4.8174,12.3985 4.8584,12.8265 4.9424,13.2845 L5.0704,13.9785 L3.7124,14.7625 C3.5804,14.8385 3.5324,14.9555 3.5154,15.0195 C3.4984,15.0825 3.4814,15.2075 3.5584,15.3405 L4.8554,17.5875 C4.9724,17.7905 5.2314,17.8615 5.4334,17.7425 L6.7934,16.9575 Z M13.2774,22.9525 L10.6824,22.9525 C9.3464,22.9525 8.2594,21.8645 8.2594,20.5275 L8.2594,20.3415 C7.6694,20.0805 7.1134,19.7595 6.5944,19.3815 L6.4334,19.4755 C5.2764,20.1425 3.7924,19.7445 3.1234,18.5875 L1.8254,16.3405 C1.5024,15.7795 1.4164,15.1265 1.5834,14.5015 C1.7514,13.8755 2.1524,13.3535 2.7124,13.0295 L2.8714,12.9385 C2.8354,12.6135 2.8174,12.2945 2.8174,11.9765 C2.8174,11.6575 2.8354,11.3385 2.8714,11.0135 L2.7124,10.9225 C2.1524,10.5985 1.7514,10.0765 1.5834,9.4505 C1.4164,8.8255 1.5024,8.1725 1.8254,7.6115 L3.1234,5.3645 C3.7914,4.2075 5.2754,3.8095 6.4334,4.4775 L6.5944,4.5705 C7.1134,4.1925 7.6694,3.8715 8.2594,3.6105 L8.2594,3.4235 C8.2594,2.0865 9.3464,0.9995 10.6824,0.9995 L13.2774,0.9995 C14.6134,0.9995 15.7004,2.0875 15.7004,3.4245 L15.7004,3.6105 C16.2904,3.8715 16.8464,4.1925 17.3654,4.5705 L17.5264,4.4775 C18.6834,3.8105 20.1684,4.2075 20.8364,5.3645 L22.1344,7.6115 C22.4574,8.1725 22.5434,8.8255 22.3764,9.4505 C22.2094,10.0765 21.8074,10.5985 21.2474,10.9225 L21.0884,11.0135 C21.1244,11.3385 21.1424,11.6575 21.1424,11.9765 C21.1424,12.2945 21.1244,12.6135 21.0884,12.9385 L21.2474,13.0295 C21.8074,13.3535 22.2094,13.8755 22.3764,14.5015 C22.5434,15.1265 22.4574,15.7795 22.1344,16.3405 L20.8364,18.5875 C20.1684,19.7445 18.6844,20.1425 17.5264,19.4755 L17.3654,19.3815 C16.8464,19.7595 16.2904,20.0805 15.7004,20.3415 L15.7004,20.5285 C15.7004,21.8655 14.6134,22.9525 13.2774,22.9525 Z"/>
    <path id="2-d" d="M15.3614839,3.66595361 C18.483676,4.87177205 20.6064378,7.97635927 20.6064378,11.4658 L20.6064378,16.1688 L21.2224378,17.3178 C21.5464378,17.9198 21.5294378,18.6288 21.1784378,19.2138 C20.8294378,19.7998 20.2124378,20.1498 19.5294378,20.1498 L15.1085378,20.1498 C15.1085378,21.8043 13.7615378,23.1513 12.1065378,23.1513 C10.4515378,23.1513 9.10453783,21.8043 9.10453783,20.1503 L4.42443783,20.1498 C3.69443783,20.1498 3.03743783,19.7458 2.70843783,19.0948 C2.37943783,18.4448 2.44343783,17.6758 2.87543783,17.0878 L3.60643783,16.0928 L3.60643783,11.4658 C3.60643783,7.97635915 5.72919981,4.87177184 8.8513921,3.66595349 C9.03035736,2.02869253 10.4219766,0.75 12.1069378,0.75 C13.7909661,0.75 15.1825229,2.0286926 15.3614839,3.66595361 Z M13.3809378,4.37314574 L13.3809378,4.024 C13.3809378,3.322 12.8099378,2.75 12.1069378,2.75 C11.4029378,2.75 10.8319378,3.322 10.8319378,4.024 L10.8319378,4.35300558 C10.8499747,4.80492036 10.5567157,5.22747291 10.1024378,5.3558 C7.45543783,6.0978 5.60643783,8.6108 5.60643783,11.4658 L5.60643783,16.7478 L4.57743783,18.1498 L19.3994378,18.1498 L18.6064378,16.6718 L18.6064378,11.4658 C18.6064378,8.6108 16.7584378,6.0978 14.1104378,5.3558 C13.6629152,5.22938119 13.3716583,4.81742238 13.3809378,4.37314574 Z M11.1045378,20.1503 C11.1045378,20.7023 11.5535378,21.1513 12.1065378,21.1513 C12.6595378,21.1513 13.1085378,20.7023 13.1085378,20.1503 L11.1045378,20.1498 Z"/>
    <path id="2-e" d="M2.50026926,11.0066265 L2.13216926,11.307 C1.70316926,11.659 1.07316926,11.592 0.726169261,11.165 C0.376169261,10.737 0.439169261,10.107 0.868169261,9.759 L10.0021693,2.304 C11.1151693,1.232 12.8851693,1.232 13.9981693,2.304 L23.1321693,9.759 C23.5611693,10.107 23.6241693,10.737 23.2741693,11.165 C23.0771693,11.407 22.7891693,11.533 22.4991693,11.533 C22.2771693,11.533 22.0541693,11.46 21.8681693,11.307 L21.5002693,11.0065589 L21.5002693,20.028 C21.5002693,21.409 20.3762693,22.533 18.9952693,22.533 L16.0052693,22.533 C14.6242693,22.533 13.5002693,21.409 13.5002693,20.028 L13.5002693,17.037 C13.5002693,16.759 13.2742693,16.533 12.9972693,16.533 L11.0032693,16.533 C10.7252693,16.533 10.5002693,16.759 10.5002693,17.037 L10.5002693,20.028 C10.5002693,21.409 9.37626926,22.533 7.99526926,22.533 L5.00526926,22.533 C3.62426926,22.533 2.50026926,21.409 2.50026926,20.028 L2.50026926,11.0066265 Z M4.50026926,9.37460561 L4.50026926,20.028 C4.50026926,20.306 4.72626926,20.533 5.00526926,20.533 L7.99526926,20.533 C8.27326926,20.533 8.50026926,20.306 8.50026926,20.028 L8.50026926,17.037 C8.50026926,15.656 9.62326926,14.533 11.0032693,14.533 L12.9972693,14.533 C14.3772693,14.533 15.5002693,15.656 15.5002693,17.037 L15.5002693,20.028 C15.5002693,20.306 15.7262693,20.533 16.0052693,20.533 L18.9952693,20.533 C19.2732693,20.533 19.5002693,20.306 19.5002693,20.028 L19.5002693,9.37328331 L12.6241693,3.758 C12.2801693,3.414 11.7201693,3.414 11.3761693,3.758 L11.3011693,3.825 L4.50026926,9.37460561 Z"/>
  </defs>
  <g fill="none" fill-rule="evenodd" transform="translate(3 2)">
    <use fill="#000" filter="url(#2-a)" xlink:href="#2-b"/>
    <use fill="#FAFAFA" xlink:href="#2-b"/>
    <rect width="360" height="56" fill="#FFF"/>
    <g transform="translate(300 16)">
      <path d="M13.2774,22.9525 L10.6824,22.9525 C9.3464,22.9525 8.2594,21.8645 8.2594,20.5275 L8.2594,20.3415 C7.6694,20.0805 7.1134,19.7595 6.5944,19.3815 L6.4334,19.4755 C5.2764,20.1425 3.7924,19.7445 3.1234,18.5875 L1.8254,16.3405 C1.5024,15.7795 1.4164,15.1265 1.5834,14.5015 C1.7514,13.8755 2.1524,13.3535 2.7124,13.0295 L2.8714,12.9385 C2.8354,12.6135 2.8174,12.2945 2.8174,11.9765 C2.8174,11.6575 2.8354,11.3385 2.8714,11.0135 L2.7124,10.9225 C2.1524,10.5985 1.7514,10.0765 1.5834,9.4505 C1.4164,8.8255 1.5024,8.1725 1.8254,7.6115 L3.1234,5.3645 C3.7914,4.2075 5.2754,3.8095 6.4334,4.4775 L6.5944,4.5705 C7.1134,4.1925 7.6694,3.8715 8.2594,3.6105 L8.2594,3.4235 C8.2594,2.0865 9.3464,0.9995 10.6824,0.9995 L13.2774,0.9995 C14.6134,0.9995 15.7004,2.0875 15.7004,3.4245 L15.7004,3.6105 C16.2904,3.8715 16.8464,4.1925 17.3654,4.5705 L17.5264,4.4775 C18.6834,3.8105 20.1684,4.2075 20.8364,5.3645 L22.1344,7.6115 C22.4574,8.1725 22.5434,8.8255 22.3764,9.4505 C22.2094,10.0765 21.8074,10.5985 21.2474,10.9225 L21.0884,11.0135 C21.1244,11.3385 21.1424,11.6575 21.1424,11.9765 C21.1424,12.2945 21.1244,12.6135 21.0884,12.9385 L21.2474,13.0295 C21.8074,13.3535 22.2094,13.8755 22.3764,14.5015 C22.5434,15.1265 22.4574,15.7795 22.1344,16.3405 L20.8364,18.5875 C20.1684,19.7445 18.6844,20.1425 17.5264,19.4755 L17.3654,19.3815 C16.8464,19.7595 16.2904,20.0805 15.7004,20.3415 L15.7004,20.5285 C15.7004,21.8655 14.6134,22.9525 13.2774,22.9525 Z M11.98,6.976 C9.219,6.976 6.98,9.215 6.98,11.976 C6.98,14.737 9.219,16.976 11.98,16.976 C14.741,16.976 16.98,14.737 16.98,11.976 C16.98,9.215 14.741,6.976 11.98,6.976 Z M11.98,8.976 C13.634,8.976 14.98,10.322 14.98,11.976 C14.98,13.63 13.634,14.976 11.98,14.976 C10.326,14.976 8.98,13.63 8.98,11.976 C8.98,10.322 10.326,8.976 11.98,8.976 Z"/>
      <use fill="#A9B6BE" xlink:href="#2-c"/>
    </g>
    <g transform="translate(212 16)">
      <path d="M15.0936379,20.15 C14.965877,21.6874228 13.6726388,22.9006 12.102,22.9006 C10.5313612,22.9006 9.23812303,21.6874228 9.11036213,20.15 L4.42443783,20.15 C3.69443783,20.15 3.03743783,19.745 2.70843783,19.095 C2.37943783,18.444 2.44343783,17.675 2.87543783,17.088 L3.60643783,16.092 L3.60643783,11.466 C3.60643783,7.97 5.73843783,4.862 8.86843783,3.661 C9.05243783,2.028 10.4254378,0.75 12.1064378,0.75 C13.7874378,0.75 15.1604378,2.028 15.3444378,3.661 C18.4754378,4.862 20.6064378,7.97 20.6064378,11.466 L20.6064378,16.169 L21.2224378,17.318 C21.5454378,17.919 21.5294378,18.628 21.1784378,19.214 C20.8284378,19.8 20.2124378,20.15 19.5294378,20.15 L15.0936379,20.15 Z"/>
      <use fill="#A9B6BE" xlink:href="#2-d"/>
    </g>
    <g transform="translate(124 16)">
      <path d="M11.7680169,22.9975941 C11.8451508,22.9991981 11.9224818,23 12,23 C12.1791381,23 12.3572762,22.9957176 12.5343176,22.9872495 L12.5342927,22.9871506 C12.3572948,22.9956832 12.1791666,23 12,23 C11.9199826,23 11.8401724,22.999139 11.7605774,22.9974259 C5.79613338,22.8700797 1,17.9949945 1,12 C1,5.925 5.925,1 12,1 C18.075,1 23,5.925 23,12 C23,18.075 18.075,23 12,23 C11.9224823,23 11.8451519,22.9991981 11.7680165,22.9976022 Z M18.8133997,17.8740877 C17.6291168,15.292895 15.0255789,13.5 12,13.5 C8.97442111,13.5 6.3708832,15.292895 5.18660033,17.8740877 C6.83836535,19.7872936 9.28039884,21 12,21 C14.7196012,21 17.1616346,19.7872936 18.8133997,17.8740877 Z M12,12 C14.206,12 16,10.206 16,8 C16,5.794 14.206,4 12,4 C9.794,4 8,5.794 8,8 C8,10.206 9.794,12 12,12 Z M12,6 C13.103,6 14,6.897 14,8 C14,9.103 13.103,10 12,10 C10.897,10 10,9.103 10,8 C10,6.897 10.897,6 12,6 Z M12,15.5 C14.42,15.5 16.514,17.08 17.23,19.311 C15.707,20.406 13.886,21 12,21 C10.114,21 8.293,20.406 6.77,19.311 C7.486,17.08 9.58,15.5 12,15.5 Z"/>
      <path fill="#A9B6BE" d="M18.8133997,17.8740877 C20.1753332,16.2965877 21,14.2428508 21,12 C21,7.037 16.962,3 12,3 C7.038,3 3,7.037 3,12 C3,14.2428508 3.82466681,16.2965877 5.18660033,17.8740877 C6.3708832,15.292895 8.97442111,13.5 12,13.5 C15.0255789,13.5 17.6291168,15.292895 18.8133997,17.8740877 Z M12,1 C18.075,1 23,5.925 23,12 C23,18.075 18.075,23 12,23 C5.925,23 1,18.075 1,12 C1,5.925 5.925,1 12,1 Z M12,15.5 C9.58,15.5 7.486,17.08 6.77,19.311 C8.293,20.406 10.114,21 12,21 C13.886,21 15.707,20.406 17.23,19.311 C16.514,17.08 14.42,15.5 12,15.5 Z M12,6 C10.897,6 10,6.897 10,8 C10,9.103 10.897,10 12,10 C13.103,10 14,9.103 14,8 C14,6.897 13.103,6 12,6 Z M12,12 C9.794,12 8,10.206 8,8 C8,5.794 9.794,4 12,4 C14.206,4 16,5.794 16,8 C16,10.206 14.206,12 12,12 Z"/>
    </g>
    <g transform="translate(36 16)">
      <path fill="#D9E4EA" d="M23.1318492,9.758 L13.9978492,2.304 C12.8848492,1.232 11.1148492,1.232 10.0018492,2.304 L0.867849181,9.758 C0.439849181,10.107 0.375849181,10.737 0.725849181,11.164 C1.07284918,11.591 1.70284918,11.658 2.13184918,11.307 L2.49984918,11.006 L2.49984918,20.028 C2.49984918,21.408 3.62384918,22.532 5.00484918,22.532 L7.99484918,22.532 C9.37584918,22.532 10.4998492,21.408 10.4998492,20.028 L10.4998492,17.036 C10.4998492,16.758 10.7258492,16.532 11.0028492,16.532 L12.9968492,16.532 C13.2748492,16.532 13.4998492,16.758 13.4998492,17.036 L13.4998492,20.028 C13.4998492,21.408 14.6238492,22.532 16.0048492,22.532 L18.9948492,22.532 C20.3758492,22.532 21.4998492,21.408 21.4998492,20.028 L21.4998492,11.006 L21.8678492,11.307 C22.0538492,11.459 22.2778492,11.532 22.4988492,11.532 C22.7888492,11.532 23.0768492,11.406 23.2748492,11.164 C23.6238492,10.737 23.5608492,10.107 23.1318492,9.758"/>
      <use fill="#314351" xlink:href="#2-e"/>
    </g>
  </g>
</svg>
