<svg xmlns="http://www.w3.org/2000/svg" xmlns:xlink="http://www.w3.org/1999/xlink" width="366" height="128" viewBox="0 0 366 128">
  <defs>
    <rect id="3-b" width="360" height="56"/>
    <filter id="3-a" width="102.8%" height="117.9%" x="-1.4%" y="-7.1%" filterUnits="objectBoundingBox">
      <feOffset dy="1" in="SourceAlpha" result="shadowOffsetOuter1"/>
      <feGaussianBlur in="shadowOffsetOuter1" result="shadowBlurOuter1" stdDeviation="1.5"/>
      <feColorMatrix in="shadowBlurOuter1" result="shadowMatrixOuter1" values="0 0 0 0 0   0 0 0 0 0   0 0 0 0 0  0 0 0 0.2 0"/>
      <feMorphology in="SourceAlpha" radius=".5" result="shadowSpreadOuter2"/>
      <feOffset dy="2" in="shadowSpreadOuter2" result="shadowOffsetOuter2"/>
      <feGaussianBlur in="shadowOffsetOuter2" result="shadowBlurOuter2" stdDeviation=".5"/>
      <feColorMatrix in="shadowBlurOuter2" result="shadowMatrixOuter2" values="0 0 0 0 0   0 0 0 0 0   0 0 0 0 0  0 0 0 0.12 0"/>
      <feOffset dy="1" in="SourceAlpha" result="shadowOffsetOuter3"/>
      <feGaussianBlur in="shadowOffsetOuter3" result="shadowBlurOuter3" stdDeviation=".5"/>
      <feColorMatrix in="shadowBlurOuter3" result="shadowMatrixOuter3" values="0 0 0 0 0   0 0 0 0 0   0 0 0 0 0  0 0 0 0.14 0"/>
      <feMerge>
        <feMergeNode in="shadowMatrixOuter1"/>
        <feMergeNode in="shadowMatrixOuter2"/>
        <feMergeNode in="shadowMatrixOuter3"/>
      </feMerge>
    </filter>
    <path id="3-c" d="M7.98666667,4.65066667 C9.82733333,4.65066667 11.32,6.14333333 11.32,7.984 C11.32,9.82466667 9.82733333,11.3173333 7.98666667,11.3173333 C6.146,11.3173333 4.65333333,9.82466667 4.65333333,7.984 C4.65333333,6.14333333 6.146,4.65066667 7.98666667,4.65066667 Z M7.98666667,5.984 C6.884,5.984 5.98666667,6.88133333 5.98666667,7.984 C5.98666667,9.08666667 6.884,9.984 7.98666667,9.984 C9.08933333,9.984 9.98666667,9.08666667 9.98666667,7.984 C9.98666667,6.88133333 9.08933333,5.984 7.98666667,5.984 Z M4.52893333,11.305 L4.8876,11.6116667 C5.3316,11.9916667 5.83893333,12.2836667 6.39493333,12.481 L6.8396,12.6383333 L6.8396,13.685 C6.8396,13.841 6.96626667,13.9683333 7.1216,13.9683333 L8.8516,13.9683333 C9.00693333,13.9683333 9.1336,13.8416667 9.1336,13.6856667 L9.1336,12.6383333 L9.57826667,12.481 C10.1342667,12.2836667 10.6416,11.9916667 11.0856,11.6116667 L11.4442667,11.305 L12.3509333,11.8283333 C12.4856,11.9076667 12.6582667,11.8603333 12.7362667,11.725 L13.6009333,10.227 C13.6522667,10.1383333 13.6409333,10.055 13.6296,10.013 C13.6182667,9.97033333 13.5862667,9.89233333 13.4982667,9.84166667 L12.5929333,9.319 L12.6782667,8.85633333 C12.7342667,8.551 12.7616,8.26566667 12.7616,7.98433333 C12.7616,7.70233333 12.7342667,7.417 12.6782667,7.11166667 L12.5929333,6.64966667 L13.4982667,6.12633333 C13.5862667,6.07566667 13.6182667,5.99766667 13.6296,5.95566667 C13.6409333,5.91366667 13.6522667,5.82966667 13.6009333,5.741 L12.7362667,4.243 C12.6582667,4.10833333 12.4856,4.06166667 12.3509333,4.13966667 L11.4442667,4.663 L11.0856,4.35633333 C10.6416,3.97633333 10.1342667,3.68433333 9.57826667,3.487 L9.1336,3.33033333 L9.1336,2.283 C9.1336,2.127 9.00693333,1.99966667 8.8516,1.99966667 L7.1216,1.99966667 C6.96626667,1.99966667 6.8396,2.12633333 6.8396,2.28233333 L6.8396,3.33033333 L6.39493333,3.487 C5.83893333,3.68433333 5.3316,3.97633333 4.8876,4.35633333 L4.52893333,4.663 L3.62226667,4.13966667 C3.4876,4.06166667 3.31493333,4.10833333 3.23693333,4.243 L2.37226667,5.741 C2.32093333,5.82966667 2.33226667,5.91366667 2.3436,5.95566667 C2.35493333,5.99766667 2.38693333,6.07566667 2.47493333,6.12633333 L3.38026667,6.64966667 L3.29493333,7.11166667 C3.23893333,7.417 3.2116,7.70233333 3.2116,7.98433333 C3.2116,8.26566667 3.23893333,8.551 3.29493333,8.85633333 L3.38026667,9.319 L2.47493333,9.84166667 C2.38693333,9.89233333 2.35493333,9.97033333 2.3436,10.013 C2.33226667,10.055 2.32093333,10.1383333 2.37226667,10.227 L3.23693333,11.725 C3.31493333,11.8603333 3.4876,11.9076667 3.62226667,11.8283333 L4.52893333,11.305 Z M8.8516,15.3016667 L7.1216,15.3016667 C6.23093333,15.3016667 5.50626667,14.5763333 5.50626667,13.685 L5.50626667,13.561 C5.11293333,13.387 4.74226667,13.173 4.39626667,12.921 L4.28893333,12.9836667 C3.5176,13.4283333 2.52826667,13.163 2.08226667,12.3916667 L1.21693333,10.8936667 C1.0016,10.5196667 0.944266667,10.0843333 1.0556,9.66766667 C1.1676,9.25033333 1.43493333,8.90233333 1.80826667,8.68633333 L1.91426667,8.62566667 C1.89026667,8.409 1.87826667,8.19633333 1.87826667,7.98433333 C1.87826667,7.77166667 1.89026667,7.559 1.91426667,7.34233333 L1.80826667,7.28166667 C1.43493333,7.06566667 1.1676,6.71766667 1.0556,6.30033333 C0.944266667,5.88366667 1.0016,5.44833333 1.21693333,5.07433333 L2.08226667,3.57633333 C2.5276,2.805 3.51693333,2.53966667 4.28893333,2.985 L4.39626667,3.047 C4.74226667,2.795 5.11293333,2.581 5.50626667,2.407 L5.50626667,2.28233333 C5.50626667,1.391 6.23093333,0.666333333 7.1216,0.666333333 L8.8516,0.666333333 C9.74226667,0.666333333 10.4669333,1.39166667 10.4669333,2.283 L10.4669333,2.407 C10.8602667,2.581 11.2309333,2.795 11.5769333,3.047 L11.6842667,2.985 C12.4556,2.54033333 13.4456,2.805 13.8909333,3.57633333 L14.7562667,5.07433333 C14.9716,5.44833333 15.0289333,5.88366667 14.9176,6.30033333 C14.8062667,6.71766667 14.5382667,7.06566667 14.1649333,7.28166667 L14.0589333,7.34233333 C14.0829333,7.559 14.0949333,7.77166667 14.0949333,7.98433333 C14.0949333,8.19633333 14.0829333,8.409 14.0589333,8.62566667 L14.1649333,8.68633333 C14.5382667,8.90233333 14.8062667,9.25033333 14.9176,9.66766667 C15.0289333,10.0843333 14.9716,10.5196667 14.7562667,10.8936667 L13.8909333,12.3916667 C13.4456,13.163 12.4562667,13.4283333 11.6842667,12.9836667 L11.5769333,12.921 C11.2309333,13.173 10.8602667,13.387 10.4669333,13.561 L10.4669333,13.6856667 C10.4669333,14.577 9.74226667,15.3016667 8.8516,15.3016667 Z"/>
    <path id="3-d" d="M10.2409892,2.44396907 C12.3224507,3.24784804 13.7376252,5.31757285 13.7376252,7.64386667 L13.7376252,10.7792 L14.1482919,11.5452 C14.3642919,11.9465333 14.3529586,12.4192 14.1189586,12.8092 C13.8862919,13.1998667 13.4749586,13.4332 13.0196252,13.4332 L10.0723586,13.4332 C10.0723586,14.5362 9.17435855,15.4342 8.07102522,15.4342 C6.96769188,15.4342 6.06969188,14.5362 6.06969188,13.4335333 L2.94962522,13.4332 C2.46295855,13.4332 2.02495855,13.1638667 1.80562522,12.7298667 C1.58629188,12.2965333 1.62895855,11.7838667 1.91695855,11.3918667 L2.40429188,10.7285333 L2.40429188,7.64386667 C2.40429188,5.31757277 3.81946654,3.2478479 5.90092807,2.44396899 C6.02023824,1.35246169 6.9479844,0.5 8.07129188,0.5 C9.19397741,0.5 10.1216819,1.35246173 10.2409892,2.44396907 Z M8.92062522,2.9154305 L8.92062522,2.68266667 C8.92062522,2.21466667 8.53995855,1.83333333 8.07129188,1.83333333 C7.60195855,1.83333333 7.22129188,2.21466667 7.22129188,2.68266667 L7.22129188,2.90200372 C7.23331649,3.20328024 7.03781049,3.48498194 6.73495855,3.57053333 C4.97029188,4.0652 3.73762522,5.74053333 3.73762522,7.64386667 L3.73762522,11.1652 L3.05162522,12.0998667 L12.9329586,12.0998667 L12.4042919,11.1145333 L12.4042919,7.64386667 C12.4042919,5.74053333 11.1722919,4.0652 9.40695855,3.57053333 C9.10861015,3.48625413 8.91443887,3.21161492 8.92062522,2.9154305 Z M7.40302522,13.4335333 C7.40302522,13.8015333 7.70235855,14.1008667 8.07102522,14.1008667 C8.43969188,14.1008667 8.73902522,13.8015333 8.73902522,13.4335333 L7.40302522,13.4332 Z"/>
    <path id="3-e" d="M2.50026926,11.0066265 L2.13216926,11.307 C1.70316926,11.659 1.07316926,11.592 0.726169261,11.165 C0.376169261,10.737 0.439169261,10.107 0.868169261,9.759 L10.0021693,2.304 C11.1151693,1.232 12.8851693,1.232 13.9981693,2.304 L23.1321693,9.759 C23.5611693,10.107 23.6241693,10.737 23.2741693,11.165 C23.0771693,11.407 22.7891693,11.533 22.4991693,11.533 C22.2771693,11.533 22.0541693,11.46 21.8681693,11.307 L21.5002693,11.0065589 L21.5002693,20.028 C21.5002693,21.409 20.3762693,22.533 18.9952693,22.533 L16.0052693,22.533 C14.6242693,22.533 13.5002693,21.409 13.5002693,20.028 L13.5002693,17.037 C13.5002693,16.759 13.2742693,16.533 12.9972693,16.533 L11.0032693,16.533 C10.7252693,16.533 10.5002693,16.759 10.5002693,17.037 L10.5002693,20.028 C10.5002693,21.409 9.37626926,22.533 7.99526926,22.533 L5.00526926,22.533 C3.62426926,22.533 2.50026926,21.409 2.50026926,20.028 L2.50026926,11.0066265 Z M4.50026926,9.37460561 L4.50026926,20.028 C4.50026926,20.306 4.72626926,20.533 5.00526926,20.533 L7.99526926,20.533 C8.27326926,20.533 8.50026926,20.306 8.50026926,20.028 L8.50026926,17.037 C8.50026926,15.656 9.62326926,14.533 11.0032693,14.533 L12.9972693,14.533 C14.3772693,14.533 15.5002693,15.656 15.5002693,17.037 L15.5002693,20.028 C15.5002693,20.306 15.7262693,20.533 16.0052693,20.533 L18.9952693,20.533 C19.2732693,20.533 19.5002693,20.306 19.5002693,20.028 L19.5002693,9.37328331 L12.6241693,3.758 C12.2801693,3.414 11.7201693,3.414 11.3761693,3.758 L11.3011693,3.825 L4.50026926,9.37460561 Z"/>
    <rect id="3-g" width="360" height="56"/>
    <filter id="3-f" width="102.8%" height="117.9%" x="-1.4%" y="-7.1%" filterUnits="objectBoundingBox">
      <feOffset dy="1" in="SourceAlpha" result="shadowOffsetOuter1"/>
      <feGaussianBlur in="shadowOffsetOuter1" result="shadowBlurOuter1" stdDeviation="1.5"/>
      <feColorMatrix in="shadowBlurOuter1" result="shadowMatrixOuter1" values="0 0 0 0 0   0 0 0 0 0   0 0 0 0 0  0 0 0 0.2 0"/>
      <feMorphology in="SourceAlpha" radius=".5" result="shadowSpreadOuter2"/>
      <feOffset dy="2" in="shadowSpreadOuter2" result="shadowOffsetOuter2"/>
      <feGaussianBlur in="shadowOffsetOuter2" result="shadowBlurOuter2" stdDeviation=".5"/>
      <feColorMatrix in="shadowBlurOuter2" result="shadowMatrixOuter2" values="0 0 0 0 0   0 0 0 0 0   0 0 0 0 0  0 0 0 0.12 0"/>
      <feOffset dy="1" in="SourceAlpha" result="shadowOffsetOuter3"/>
      <feGaussianBlur in="shadowOffsetOuter3" result="shadowBlurOuter3" stdDeviation=".5"/>
      <feColorMatrix in="shadowBlurOuter3" result="shadowMatrixOuter3" values="0 0 0 0 0   0 0 0 0 0   0 0 0 0 0  0 0 0 0.14 0"/>
      <feMerge>
        <feMergeNode in="shadowMatrixOuter1"/>
        <feMergeNode in="shadowMatrixOuter2"/>
        <feMergeNode in="shadowMatrixOuter3"/>
      </feMerge>
    </filter>
    <path id="3-h" d="M11.98,6.976 C14.741,6.976 16.98,9.215 16.98,11.976 C16.98,14.737 14.741,16.976 11.98,16.976 C9.219,16.976 6.98,14.737 6.98,11.976 C6.98,9.215 9.219,6.976 11.98,6.976 Z M11.98,8.976 C10.326,8.976 8.98,10.322 8.98,11.976 C8.98,13.63 10.326,14.976 11.98,14.976 C13.634,14.976 14.98,13.63 14.98,11.976 C14.98,10.322 13.634,8.976 11.98,8.976 Z M6.7934,16.9575 L7.3314,17.4175 C7.9974,17.9875 8.7584,18.4255 9.5924,18.7215 L10.2594,18.9575 L10.2594,20.5275 C10.2594,20.7615 10.4494,20.9525 10.6824,20.9525 L13.2774,20.9525 C13.5104,20.9525 13.7004,20.7625 13.7004,20.5285 L13.7004,18.9575 L14.3674,18.7215 C15.2014,18.4255 15.9624,17.9875 16.6284,17.4175 L17.1664,16.9575 L18.5264,17.7425 C18.7284,17.8615 18.9874,17.7905 19.1044,17.5875 L20.4014,15.3405 C20.4784,15.2075 20.4614,15.0825 20.4444,15.0195 C20.4274,14.9555 20.3794,14.8385 20.2474,14.7625 L18.8894,13.9785 L19.0174,13.2845 C19.1014,12.8265 19.1424,12.3985 19.1424,11.9765 C19.1424,11.5535 19.1014,11.1255 19.0174,10.6675 L18.8894,9.9745 L20.2474,9.1895 C20.3794,9.1135 20.4274,8.9965 20.4444,8.9335 C20.4614,8.8705 20.4784,8.7445 20.4014,8.6115 L19.1044,6.3645 C18.9874,6.1625 18.7284,6.0925 18.5264,6.2095 L17.1664,6.9945 L16.6284,6.5345 C15.9624,5.9645 15.2014,5.5265 14.3674,5.2305 L13.7004,4.9955 L13.7004,3.4245 C13.7004,3.1905 13.5104,2.9995 13.2774,2.9995 L10.6824,2.9995 C10.4494,2.9995 10.2594,3.1895 10.2594,3.4235 L10.2594,4.9955 L9.5924,5.2305 C8.7584,5.5265 7.9974,5.9645 7.3314,6.5345 L6.7934,6.9945 L5.4334,6.2095 C5.2314,6.0925 4.9724,6.1625 4.8554,6.3645 L3.5584,8.6115 C3.4814,8.7445 3.4984,8.8705 3.5154,8.9335 C3.5324,8.9965 3.5804,9.1135 3.7124,9.1895 L5.0704,9.9745 L4.9424,10.6675 C4.8584,11.1255 4.8174,11.5535 4.8174,11.9765 C4.8174,12.3985 4.8584,12.8265 4.9424,13.2845 L5.0704,13.9785 L3.7124,14.7625 C3.5804,14.8385 3.5324,14.9555 3.5154,15.0195 C3.4984,15.0825 3.4814,15.2075 3.5584,15.3405 L4.8554,17.5875 C4.9724,17.7905 5.2314,17.8615 5.4334,17.7425 L6.7934,16.9575 Z M13.2774,22.9525 L10.6824,22.9525 C9.3464,22.9525 8.2594,21.8645 8.2594,20.5275 L8.2594,20.3415 C7.6694,20.0805 7.1134,19.7595 6.5944,19.3815 L6.4334,19.4755 C5.2764,20.1425 3.7924,19.7445 3.1234,18.5875 L1.8254,16.3405 C1.5024,15.7795 1.4164,15.1265 1.5834,14.5015 C1.7514,13.8755 2.1524,13.3535 2.7124,13.0295 L2.8714,12.9385 C2.8354,12.6135 2.8174,12.2945 2.8174,11.9765 C2.8174,11.6575 2.8354,11.3385 2.8714,11.0135 L2.7124,10.9225 C2.1524,10.5985 1.7514,10.0765 1.5834,9.4505 C1.4164,8.8255 1.5024,8.1725 1.8254,7.6115 L3.1234,5.3645 C3.7914,4.2075 5.2754,3.8095 6.4334,4.4775 L6.5944,4.5705 C7.1134,4.1925 7.6694,3.8715 8.2594,3.6105 L8.2594,3.4235 C8.2594,2.0865 9.3464,0.9995 10.6824,0.9995 L13.2774,0.9995 C14.6134,0.9995 15.7004,2.0875 15.7004,3.4245 L15.7004,3.6105 C16.2904,3.8715 16.8464,4.1925 17.3654,4.5705 L17.5264,4.4775 C18.6834,3.8105 20.1684,4.2075 20.8364,5.3645 L22.1344,7.6115 C22.4574,8.1725 22.5434,8.8255 22.3764,9.4505 C22.2094,10.0765 21.8074,10.5985 21.2474,10.9225 L21.0884,11.0135 C21.1244,11.3385 21.1424,11.6575 21.1424,11.9765 C21.1424,12.2945 21.1244,12.6135 21.0884,12.9385 L21.2474,13.0295 C21.8074,13.3535 22.2094,13.8755 22.3764,14.5015 C22.5434,15.1265 22.4574,15.7795 22.1344,16.3405 L20.8364,18.5875 C20.1684,19.7445 18.6844,20.1425 17.5264,19.4755 L17.3654,19.3815 C16.8464,19.7595 16.2904,20.0805 15.7004,20.3415 L15.7004,20.5285 C15.7004,21.8655 14.6134,22.9525 13.2774,22.9525 Z"/>
    <path id="3-i" d="M15.3614839,3.66595361 C18.483676,4.87177205 20.6064378,7.97635927 20.6064378,11.4658 L20.6064378,16.1688 L21.2224378,17.3178 C21.5464378,17.9198 21.5294378,18.6288 21.1784378,19.2138 C20.8294378,19.7998 20.2124378,20.1498 19.5294378,20.1498 L15.1085378,20.1498 C15.1085378,21.8043 13.7615378,23.1513 12.1065378,23.1513 C10.4515378,23.1513 9.10453783,21.8043 9.10453783,20.1503 L4.42443783,20.1498 C3.69443783,20.1498 3.03743783,19.7458 2.70843783,19.0948 C2.37943783,18.4448 2.44343783,17.6758 2.87543783,17.0878 L3.60643783,16.0928 L3.60643783,11.4658 C3.60643783,7.97635915 5.72919981,4.87177184 8.8513921,3.66595349 C9.03035736,2.02869253 10.4219766,0.75 12.1069378,0.75 C13.7909661,0.75 15.1825229,2.0286926 15.3614839,3.66595361 Z M13.3809378,4.37314574 L13.3809378,4.024 C13.3809378,3.322 12.8099378,2.75 12.1069378,2.75 C11.4029378,2.75 10.8319378,3.322 10.8319378,4.024 L10.8319378,4.35300558 C10.8499747,4.80492036 10.5567157,5.22747291 10.1024378,5.3558 C7.45543783,6.0978 5.60643783,8.6108 5.60643783,11.4658 L5.60643783,16.7478 L4.57743783,18.1498 L19.3994378,18.1498 L18.6064378,16.6718 L18.6064378,11.4658 C18.6064378,8.6108 16.7584378,6.0978 14.1104378,5.3558 C13.6629152,5.22938119 13.3716583,4.81742238 13.3809378,4.37314574 Z M11.1045378,20.1503 C11.1045378,20.7023 11.5535378,21.1513 12.1065378,21.1513 C12.6595378,21.1513 13.1085378,20.7023 13.1085378,20.1503 L11.1045378,20.1498 Z"/>
    <path id="3-j" d="M2.50026926,11.0066265 L2.13216926,11.307 C1.70316926,11.659 1.07316926,11.592 0.726169261,11.165 C0.376169261,10.737 0.439169261,10.107 0.868169261,9.759 L10.0021693,2.304 C11.1151693,1.232 12.8851693,1.232 13.9981693,2.304 L23.1321693,9.759 C23.5611693,10.107 23.6241693,10.737 23.2741693,11.165 C23.0771693,11.407 22.7891693,11.533 22.4991693,11.533 C22.2771693,11.533 22.0541693,11.46 21.8681693,11.307 L21.5002693,11.0065589 L21.5002693,20.028 C21.5002693,21.409 20.3762693,22.533 18.9952693,22.533 L16.0052693,22.533 C14.6242693,22.533 13.5002693,21.409 13.5002693,20.028 L13.5002693,17.037 C13.5002693,16.759 13.2742693,16.533 12.9972693,16.533 L11.0032693,16.533 C10.7252693,16.533 10.5002693,16.759 10.5002693,17.037 L10.5002693,20.028 C10.5002693,21.409 9.37626926,22.533 7.99526926,22.533 L5.00526926,22.533 C3.62426926,22.533 2.50026926,21.409 2.50026926,20.028 L2.50026926,11.0066265 Z M4.50026926,9.37460561 L4.50026926,20.028 C4.50026926,20.306 4.72626926,20.533 5.00526926,20.533 L7.99526926,20.533 C8.27326926,20.533 8.50026926,20.306 8.50026926,20.028 L8.50026926,17.037 C8.50026926,15.656 9.62326926,14.533 11.0032693,14.533 L12.9972693,14.533 C14.3772693,14.533 15.5002693,15.656 15.5002693,17.037 L15.5002693,20.028 C15.5002693,20.306 15.7262693,20.533 16.0052693,20.533 L18.9952693,20.533 C19.2732693,20.533 19.5002693,20.306 19.5002693,20.028 L19.5002693,9.37328331 L12.6241693,3.758 C12.2801693,3.414 11.7201693,3.414 11.3761693,3.758 L11.3011693,3.825 L4.50026926,9.37460561 Z"/>
  </defs>
  <g fill="none" fill-rule="evenodd" transform="translate(3 2)">
    <rect width="360" height="122" fill="#FFF" fill-opacity=".01" fill-rule="nonzero"/>
    <use fill="#000" filter="url(#3-a)" xlink:href="#3-b"/>
    <use fill="#FAFAFA" xlink:href="#3-b"/>
    <rect width="360" height="56" fill="#FFF"/>
    <g transform="translate(291 12)">
      <path fill="#798893" fill-rule="nonzero" d="M5.45727533,21.2958984 L3.40063471,21.2958984 L3.40063471,27 L2.56127924,27 L2.56127924,21.2958984 L0.509033144,21.2958984 L0.509033144,20.6015625 L5.45727533,20.6015625 L5.45727533,21.2958984 Z M8.11713862,27.0878906 C7.47260415,27.0878906 6.94819533,26.8762228 6.54389644,26.4528809 C6.13959754,26.0295389 5.93745112,25.4633825 5.93745112,24.7543945 L5.93745112,24.6049805 C5.93745112,24.1332984 6.02753811,23.7121601 6.2077148,23.3415527 C6.38789148,22.9709454 6.63984208,22.6809093 6.96357417,22.4714355 C7.28730626,22.2619618 7.63813283,22.1572266 8.01606441,22.1572266 C8.63423156,22.1572266 9.1146955,22.3608378 9.45747066,22.7680664 C9.80024581,23.175295 9.97163081,23.758297 9.97163081,24.5170898 L9.97163081,24.8554688 L6.75043941,24.8554688 C6.76215821,25.3242211 6.89911974,25.7028794 7.16132808,25.9914551 C7.42353642,26.2800307 7.75678504,26.4243164 8.16108394,26.4243164 C8.44819475,26.4243164 8.69135638,26.3657232 8.89057612,26.2485352 C9.08979587,26.1313471 9.26411053,25.9760752 9.41352534,25.7827148 L9.91010737,26.1694336 C9.51166788,26.7817413 8.91401761,27.0878906 8.11713862,27.0878906 Z M8.01606441,22.8251953 C7.68793776,22.8251953 7.41254989,22.9445789 7.18989253,23.1833496 C6.96723517,23.4221203 6.82954123,23.7568338 6.77680659,24.1875 L9.15864253,24.1875 L9.15864253,24.1259766 C9.13520491,23.7128886 9.0238779,23.3928234 8.82465816,23.1657715 C8.62543841,22.9387196 8.35590985,22.8251953 8.01606441,22.8251953 Z M12.8072754,23.980957 L13.8619629,22.2451172 L14.8111816,22.2451172 L13.2555175,24.5961914 L14.8595214,27 L13.9190918,27 L12.8204589,25.2202148 L11.7218261,27 L10.7770019,27 L12.3810058,24.5961914 L10.8253418,22.2451172 L11.7657714,22.2451172 L12.8072754,23.980957 Z M17.0755371,21.09375 L17.0755371,22.2451172 L17.9632324,22.2451172 L17.9632324,22.8735352 L17.0755371,22.8735352 L17.0755371,25.8222656 C17.0755371,26.0126963 17.1150875,26.1555171 17.1941894,26.2507324 C17.2732914,26.3459477 17.4080557,26.3935547 17.5984863,26.3935547 C17.6922368,26.3935547 17.8211417,26.3759767 17.9852051,26.3408203 L17.9852051,27 C17.7713368,27.058594 17.5633311,27.0878906 17.3611816,27.0878906 C16.9978986,27.0878906 16.7239755,26.9780284 16.5394043,26.7583008 C16.354833,26.5385731 16.2625488,26.2265645 16.2625488,25.8222656 L16.2625488,22.8735352 L15.3968261,22.8735352 L15.3968261,22.2451172 L16.2625488,22.2451172 L16.2625488,21.09375 L17.0755371,21.09375 Z M22.6237793,27 L21.810791,27 L21.810791,20.25 L22.6237793,20.25 L22.6237793,27 Z M27.1601074,27 C27.1132322,26.9062495 27.0751466,26.739259 27.0458496,26.4990234 C26.667918,26.8916035 26.2167507,27.0878906 25.692334,27.0878906 C25.2235817,27.0878906 24.839064,26.9553236 24.5387695,26.6901855 C24.2384751,26.4250475 24.0883301,26.0888692 24.0883301,25.6816406 C24.0883301,25.186521 24.2765606,24.8020033 24.6530274,24.5280762 C25.0294941,24.254149 25.5590298,24.1171875 26.2416504,24.1171875 L27.032666,24.1171875 L27.032666,23.7436523 C27.032666,23.4594712 26.9477059,23.2331551 26.7777832,23.0646973 C26.6078605,22.8962394 26.3573747,22.8120117 26.0263184,22.8120117 C25.7362779,22.8120117 25.4931162,22.8852532 25.2968262,23.0317383 C25.1005361,23.1782234 25.0023926,23.3554677 25.0023926,23.5634766 L24.1850098,23.5634766 C24.1850098,23.3261707 24.2692375,23.0969249 24.4376953,22.8757324 C24.6061532,22.6545399 24.8346665,22.4794928 25.1232422,22.3505859 C25.4118179,22.221679 25.7289534,22.1572266 26.0746582,22.1572266 C26.6225125,22.1572266 27.0517074,22.2941881 27.3622559,22.5681152 C27.6728043,22.8420424 27.8339355,23.2192359 27.8456543,23.699707 L27.8456543,25.8881836 C27.8456543,26.3247092 27.9013178,26.6718737 28.0126465,26.9296875 L28.0126465,27 L27.1601074,27 Z M25.8109863,26.3803711 C26.0658704,26.3803711 26.3075672,26.3144538 26.536084,26.1826172 C26.7646008,26.0507806 26.9301265,25.8793956 27.032666,25.668457 L27.032666,24.6928711 L26.395459,24.6928711 C25.3993603,24.6928711 24.9013184,24.9843721 24.9013184,25.5673828 C24.9013184,25.8222669 24.9862785,26.0214837 25.1562012,26.1650391 C25.3261239,26.3085945 25.5443834,26.3803711 25.8109863,26.3803711 Z M33.445459,24.675293 C33.445459,25.4018591 33.2784685,25.9855935 32.9444824,26.4265137 C32.6104964,26.8674338 32.1622587,27.0878906 31.5997559,27.0878906 C30.9991669,27.0878906 30.5348161,26.8754904 30.2066895,26.4506836 L30.1671387,27 L29.4200684,27 L29.4200684,20.25 L30.2330567,20.25 L30.2330567,22.7680664 C30.5611833,22.3608378 31.0138155,22.1572266 31.5909668,22.1572266 C32.1681181,22.1572266 32.6214828,22.3754861 32.9510742,22.8120117 C33.2806657,23.2485373 33.445459,23.8461876 33.445459,24.6049805 L33.445459,24.675293 Z M32.6324707,24.5830078 C32.6324707,24.0292941 32.5255382,23.601564 32.3116699,23.2998047 C32.0978017,22.9980454 31.7901876,22.847168 31.3888184,22.847168 C30.8526829,22.847168 30.4674328,23.0961889 30.2330567,23.5942383 L30.2330567,25.6508789 C30.4820813,26.1489283 30.8702611,26.3979492 31.3976074,26.3979492 C31.7872578,26.3979492 32.0904775,26.2470718 32.3072754,25.9453125 C32.5240734,25.6435532 32.6324707,25.1894562 32.6324707,24.5830078 Z M36.7425293,27.0878906 C36.0979949,27.0878906 35.573586,26.8762228 35.1692871,26.4528809 C34.7649882,26.0295389 34.5628418,25.4633825 34.5628418,24.7543945 L34.5628418,24.6049805 C34.5628418,24.1332984 34.6529288,23.7121601 34.8331055,23.3415527 C35.0132822,22.9709454 35.2652328,22.6809093 35.5889649,22.4714355 C35.912697,22.2619618 36.2635235,22.1572266 36.6414551,22.1572266 C37.2596223,22.1572266 37.7400862,22.3608378 38.0828614,22.7680664 C38.4256365,23.175295 38.5970215,23.758297 38.5970215,24.5170898 L38.5970215,24.8554688 L35.3758301,24.8554688 C35.3875489,25.3242211 35.5245104,25.7028794 35.7867188,25.9914551 C36.0489271,26.2800307 36.3821757,26.4243164 36.7864746,26.4243164 C37.0735855,26.4243164 37.3167471,26.3657232 37.5159668,26.2485352 C37.7151866,26.1313471 37.8895012,25.9760752 38.0389161,25.7827148 L38.5354981,26.1694336 C38.1370586,26.7817413 37.5394083,27.0878906 36.7425293,27.0878906 Z M36.6414551,22.8251953 C36.3133285,22.8251953 36.0379406,22.9445789 35.8152832,23.1833496 C35.5926259,23.4221203 35.4549319,23.7568338 35.4021973,24.1875 L37.7840332,24.1875 L37.7840332,24.1259766 C37.7605956,23.7128886 37.6492686,23.3928234 37.4500489,23.1657715 C37.2508291,22.9387196 36.9813006,22.8251953 36.6414551,22.8251953 Z M40.720752,27 L39.9077637,27 L39.9077637,20.25 L40.720752,20.25 L40.720752,27 Z"/>
      <g transform="translate(13)">
        <path d="M8.8516,15.3016667 L7.1216,15.3016667 C6.23093333,15.3016667 5.50626667,14.5763333 5.50626667,13.685 L5.50626667,13.561 C5.11293333,13.387 4.74226667,13.173 4.39626667,12.921 L4.28893333,12.9836667 C3.5176,13.4283333 2.52826667,13.163 2.08226667,12.3916667 L1.21693333,10.8936667 C1.0016,10.5196667 0.944266667,10.0843333 1.0556,9.66766667 C1.1676,9.25033333 1.43493333,8.90233333 1.80826667,8.68633333 L1.91426667,8.62566667 C1.89026667,8.409 1.87826667,8.19633333 1.87826667,7.98433333 C1.87826667,7.77166667 1.89026667,7.559 1.91426667,7.34233333 L1.80826667,7.28166667 C1.43493333,7.06566667 1.1676,6.71766667 1.0556,6.30033333 C0.944266667,5.88366667 1.0016,5.44833333 1.21693333,5.07433333 L2.08226667,3.57633333 C2.5276,2.805 3.51693333,2.53966667 4.28893333,2.985 L4.39626667,3.047 C4.74226667,2.795 5.11293333,2.581 5.50626667,2.407 L5.50626667,2.28233333 C5.50626667,1.391 6.23093333,0.666333333 7.1216,0.666333333 L8.8516,0.666333333 C9.74226667,0.666333333 10.4669333,1.39166667 10.4669333,2.283 L10.4669333,2.407 C10.8602667,2.581 11.2309333,2.795 11.5769333,3.047 L11.6842667,2.985 C12.4556,2.54033333 13.4456,2.805 13.8909333,3.57633333 L14.7562667,5.07433333 C14.9716,5.44833333 15.0289333,5.88366667 14.9176,6.30033333 C14.8062667,6.71766667 14.5382667,7.06566667 14.1649333,7.28166667 L14.0589333,7.34233333 C14.0829333,7.559 14.0949333,7.77166667 14.0949333,7.98433333 C14.0949333,8.19633333 14.0829333,8.409 14.0589333,8.62566667 L14.1649333,8.68633333 C14.5382667,8.90233333 14.8062667,9.25033333 14.9176,9.66766667 C15.0289333,10.0843333 14.9716,10.5196667 14.7562667,10.8936667 L13.8909333,12.3916667 C13.4456,13.163 12.4562667,13.4283333 11.6842667,12.9836667 L11.5769333,12.921 C11.2309333,13.173 10.8602667,13.387 10.4669333,13.561 L10.4669333,13.6856667 C10.4669333,14.577 9.74226667,15.3016667 8.8516,15.3016667 Z M7.98666667,4.65066667 C6.146,4.65066667 4.65333333,6.14333333 4.65333333,7.984 C4.65333333,9.82466667 6.146,11.3173333 7.98666667,11.3173333 C9.82733333,11.3173333 11.32,9.82466667 11.32,7.984 C11.32,6.14333333 9.82733333,4.65066667 7.98666667,4.65066667 Z M7.98666667,5.984 C9.08933333,5.984 9.98666667,6.88133333 9.98666667,7.984 C9.98666667,9.08666667 9.08933333,9.984 7.98666667,9.984 C6.884,9.984 5.98666667,9.08666667 5.98666667,7.984 C5.98666667,6.88133333 6.884,5.984 7.98666667,5.984 Z"/>
        <use fill="#A9B6BE" xlink:href="#3-c"/>
      </g>
    </g>
    <g transform="translate(203 12)">
      <path fill="#798893" fill-rule="nonzero" d="M5.45727533,21.2958984 L3.40063471,21.2958984 L3.40063471,27 L2.56127924,27 L2.56127924,21.2958984 L0.509033144,21.2958984 L0.509033144,20.6015625 L5.45727533,20.6015625 L5.45727533,21.2958984 Z M8.11713862,27.0878906 C7.47260415,27.0878906 6.94819533,26.8762228 6.54389644,26.4528809 C6.13959754,26.0295389 5.93745112,25.4633825 5.93745112,24.7543945 L5.93745112,24.6049805 C5.93745112,24.1332984 6.02753811,23.7121601 6.2077148,23.3415527 C6.38789148,22.9709454 6.63984208,22.6809093 6.96357417,22.4714355 C7.28730626,22.2619618 7.63813283,22.1572266 8.01606441,22.1572266 C8.63423156,22.1572266 9.1146955,22.3608378 9.45747066,22.7680664 C9.80024581,23.175295 9.97163081,23.758297 9.97163081,24.5170898 L9.97163081,24.8554688 L6.75043941,24.8554688 C6.76215821,25.3242211 6.89911974,25.7028794 7.16132808,25.9914551 C7.42353642,26.2800307 7.75678504,26.4243164 8.16108394,26.4243164 C8.44819475,26.4243164 8.69135638,26.3657232 8.89057612,26.2485352 C9.08979587,26.1313471 9.26411053,25.9760752 9.41352534,25.7827148 L9.91010737,26.1694336 C9.51166788,26.7817413 8.91401761,27.0878906 8.11713862,27.0878906 Z M8.01606441,22.8251953 C7.68793776,22.8251953 7.41254989,22.9445789 7.18989253,23.1833496 C6.96723517,23.4221203 6.82954123,23.7568338 6.77680659,24.1875 L9.15864253,24.1875 L9.15864253,24.1259766 C9.13520491,23.7128886 9.0238779,23.3928234 8.82465816,23.1657715 C8.62543841,22.9387196 8.35590985,22.8251953 8.01606441,22.8251953 Z M12.8072754,23.980957 L13.8619629,22.2451172 L14.8111816,22.2451172 L13.2555175,24.5961914 L14.8595214,27 L13.9190918,27 L12.8204589,25.2202148 L11.7218261,27 L10.7770019,27 L12.3810058,24.5961914 L10.8253418,22.2451172 L11.7657714,22.2451172 L12.8072754,23.980957 Z M17.0755371,21.09375 L17.0755371,22.2451172 L17.9632324,22.2451172 L17.9632324,22.8735352 L17.0755371,22.8735352 L17.0755371,25.8222656 C17.0755371,26.0126963 17.1150875,26.1555171 17.1941894,26.2507324 C17.2732914,26.3459477 17.4080557,26.3935547 17.5984863,26.3935547 C17.6922368,26.3935547 17.8211417,26.3759767 17.9852051,26.3408203 L17.9852051,27 C17.7713368,27.058594 17.5633311,27.0878906 17.3611816,27.0878906 C16.9978986,27.0878906 16.7239755,26.9780284 16.5394043,26.7583008 C16.354833,26.5385731 16.2625488,26.2265645 16.2625488,25.8222656 L16.2625488,22.8735352 L15.3968261,22.8735352 L15.3968261,22.2451172 L16.2625488,22.2451172 L16.2625488,21.09375 L17.0755371,21.09375 Z M22.6237793,27 L21.810791,27 L21.810791,20.25 L22.6237793,20.25 L22.6237793,27 Z M27.1601074,27 C27.1132322,26.9062495 27.0751466,26.739259 27.0458496,26.4990234 C26.667918,26.8916035 26.2167507,27.0878906 25.692334,27.0878906 C25.2235817,27.0878906 24.839064,26.9553236 24.5387695,26.6901855 C24.2384751,26.4250475 24.0883301,26.0888692 24.0883301,25.6816406 C24.0883301,25.186521 24.2765606,24.8020033 24.6530274,24.5280762 C25.0294941,24.254149 25.5590298,24.1171875 26.2416504,24.1171875 L27.032666,24.1171875 L27.032666,23.7436523 C27.032666,23.4594712 26.9477059,23.2331551 26.7777832,23.0646973 C26.6078605,22.8962394 26.3573747,22.8120117 26.0263184,22.8120117 C25.7362779,22.8120117 25.4931162,22.8852532 25.2968262,23.0317383 C25.1005361,23.1782234 25.0023926,23.3554677 25.0023926,23.5634766 L24.1850098,23.5634766 C24.1850098,23.3261707 24.2692375,23.0969249 24.4376953,22.8757324 C24.6061532,22.6545399 24.8346665,22.4794928 25.1232422,22.3505859 C25.4118179,22.221679 25.7289534,22.1572266 26.0746582,22.1572266 C26.6225125,22.1572266 27.0517074,22.2941881 27.3622559,22.5681152 C27.6728043,22.8420424 27.8339355,23.2192359 27.8456543,23.699707 L27.8456543,25.8881836 C27.8456543,26.3247092 27.9013178,26.6718737 28.0126465,26.9296875 L28.0126465,27 L27.1601074,27 Z M25.8109863,26.3803711 C26.0658704,26.3803711 26.3075672,26.3144538 26.536084,26.1826172 C26.7646008,26.0507806 26.9301265,25.8793956 27.032666,25.668457 L27.032666,24.6928711 L26.395459,24.6928711 C25.3993603,24.6928711 24.9013184,24.9843721 24.9013184,25.5673828 C24.9013184,25.8222669 24.9862785,26.0214837 25.1562012,26.1650391 C25.3261239,26.3085945 25.5443834,26.3803711 25.8109863,26.3803711 Z M33.445459,24.675293 C33.445459,25.4018591 33.2784685,25.9855935 32.9444824,26.4265137 C32.6104964,26.8674338 32.1622587,27.0878906 31.5997559,27.0878906 C30.9991669,27.0878906 30.5348161,26.8754904 30.2066895,26.4506836 L30.1671387,27 L29.4200684,27 L29.4200684,20.25 L30.2330567,20.25 L30.2330567,22.7680664 C30.5611833,22.3608378 31.0138155,22.1572266 31.5909668,22.1572266 C32.1681181,22.1572266 32.6214828,22.3754861 32.9510742,22.8120117 C33.2806657,23.2485373 33.445459,23.8461876 33.445459,24.6049805 L33.445459,24.675293 Z M32.6324707,24.5830078 C32.6324707,24.0292941 32.5255382,23.601564 32.3116699,23.2998047 C32.0978017,22.9980454 31.7901876,22.847168 31.3888184,22.847168 C30.8526829,22.847168 30.4674328,23.0961889 30.2330567,23.5942383 L30.2330567,25.6508789 C30.4820813,26.1489283 30.8702611,26.3979492 31.3976074,26.3979492 C31.7872578,26.3979492 32.0904775,26.2470718 32.3072754,25.9453125 C32.5240734,25.6435532 32.6324707,25.1894562 32.6324707,24.5830078 Z M36.7425293,27.0878906 C36.0979949,27.0878906 35.573586,26.8762228 35.1692871,26.4528809 C34.7649882,26.0295389 34.5628418,25.4633825 34.5628418,24.7543945 L34.5628418,24.6049805 C34.5628418,24.1332984 34.6529288,23.7121601 34.8331055,23.3415527 C35.0132822,22.9709454 35.2652328,22.6809093 35.5889649,22.4714355 C35.912697,22.2619618 36.2635235,22.1572266 36.6414551,22.1572266 C37.2596223,22.1572266 37.7400862,22.3608378 38.0828614,22.7680664 C38.4256365,23.175295 38.5970215,23.758297 38.5970215,24.5170898 L38.5970215,24.8554688 L35.3758301,24.8554688 C35.3875489,25.3242211 35.5245104,25.7028794 35.7867188,25.9914551 C36.0489271,26.2800307 36.3821757,26.4243164 36.7864746,26.4243164 C37.0735855,26.4243164 37.3167471,26.3657232 37.5159668,26.2485352 C37.7151866,26.1313471 37.8895012,25.9760752 38.0389161,25.7827148 L38.5354981,26.1694336 C38.1370586,26.7817413 37.5394083,27.0878906 36.7425293,27.0878906 Z M36.6414551,22.8251953 C36.3133285,22.8251953 36.0379406,22.9445789 35.8152832,23.1833496 C35.5926259,23.4221203 35.4549319,23.7568338 35.4021973,24.1875 L37.7840332,24.1875 L37.7840332,24.1259766 C37.7605956,23.7128886 37.6492686,23.3928234 37.4500489,23.1657715 C37.2508291,22.9387196 36.9813006,22.8251953 36.6414551,22.8251953 Z M40.720752,27 L39.9077637,27 L39.9077637,20.25 L40.720752,20.25 L40.720752,27 Z"/>
      <g transform="translate(13)">
        <path d="M10.0624252,13.4333333 C9.97725131,14.4582819 9.11509251,15.2670667 8.068,15.2670667 C7.02090749,15.2670667 6.15874869,14.4582819 6.07357476,13.4333333 L2.94962522,13.4333333 C2.46295855,13.4333333 2.02495855,13.1633333 1.80562522,12.73 C1.58629188,12.296 1.62895855,11.7833333 1.91695855,11.392 L2.40429188,10.728 L2.40429188,7.644 C2.40429188,5.31333333 3.82562522,3.24133333 5.91229188,2.44066667 C6.03495855,1.352 6.95029188,0.5 8.07095855,0.5 C9.19162522,0.5 10.1069586,1.352 10.2296252,2.44066667 C12.3169586,3.24133333 13.7376252,5.31333333 13.7376252,7.644 L13.7376252,10.7793333 L14.1482919,11.5453333 C14.3636252,11.946 14.3529586,12.4186667 14.1189586,12.8093333 C13.8856252,13.2 13.4749586,13.4333333 13.0196252,13.4333333 L10.0624252,13.4333333 Z"/>
        <use fill="#A9B6BE" xlink:href="#3-d"/>
      </g>
    </g>
    <g transform="translate(115 12)">
      <path fill="#798893" fill-rule="nonzero" d="M5.45727533,21.2958984 L3.40063471,21.2958984 L3.40063471,27 L2.56127924,27 L2.56127924,21.2958984 L0.509033144,21.2958984 L0.509033144,20.6015625 L5.45727533,20.6015625 L5.45727533,21.2958984 Z M8.11713862,27.0878906 C7.47260415,27.0878906 6.94819533,26.8762228 6.54389644,26.4528809 C6.13959754,26.0295389 5.93745112,25.4633825 5.93745112,24.7543945 L5.93745112,24.6049805 C5.93745112,24.1332984 6.02753811,23.7121601 6.2077148,23.3415527 C6.38789148,22.9709454 6.63984208,22.6809093 6.96357417,22.4714355 C7.28730626,22.2619618 7.63813283,22.1572266 8.01606441,22.1572266 C8.63423156,22.1572266 9.1146955,22.3608378 9.45747066,22.7680664 C9.80024581,23.175295 9.97163081,23.758297 9.97163081,24.5170898 L9.97163081,24.8554688 L6.75043941,24.8554688 C6.76215821,25.3242211 6.89911974,25.7028794 7.16132808,25.9914551 C7.42353642,26.2800307 7.75678504,26.4243164 8.16108394,26.4243164 C8.44819475,26.4243164 8.69135638,26.3657232 8.89057612,26.2485352 C9.08979587,26.1313471 9.26411053,25.9760752 9.41352534,25.7827148 L9.91010737,26.1694336 C9.51166788,26.7817413 8.91401761,27.0878906 8.11713862,27.0878906 Z M8.01606441,22.8251953 C7.68793776,22.8251953 7.41254989,22.9445789 7.18989253,23.1833496 C6.96723517,23.4221203 6.82954123,23.7568338 6.77680659,24.1875 L9.15864253,24.1875 L9.15864253,24.1259766 C9.13520491,23.7128886 9.0238779,23.3928234 8.82465816,23.1657715 C8.62543841,22.9387196 8.35590985,22.8251953 8.01606441,22.8251953 Z M12.8072754,23.980957 L13.8619629,22.2451172 L14.8111816,22.2451172 L13.2555175,24.5961914 L14.8595214,27 L13.9190918,27 L12.8204589,25.2202148 L11.7218261,27 L10.7770019,27 L12.3810058,24.5961914 L10.8253418,22.2451172 L11.7657714,22.2451172 L12.8072754,23.980957 Z M17.0755371,21.09375 L17.0755371,22.2451172 L17.9632324,22.2451172 L17.9632324,22.8735352 L17.0755371,22.8735352 L17.0755371,25.8222656 C17.0755371,26.0126963 17.1150875,26.1555171 17.1941894,26.2507324 C17.2732914,26.3459477 17.4080557,26.3935547 17.5984863,26.3935547 C17.6922368,26.3935547 17.8211417,26.3759767 17.9852051,26.3408203 L17.9852051,27 C17.7713368,27.058594 17.5633311,27.0878906 17.3611816,27.0878906 C16.9978986,27.0878906 16.7239755,26.9780284 16.5394043,26.7583008 C16.354833,26.5385731 16.2625488,26.2265645 16.2625488,25.8222656 L16.2625488,22.8735352 L15.3968261,22.8735352 L15.3968261,22.2451172 L16.2625488,22.2451172 L16.2625488,21.09375 L17.0755371,21.09375 Z M22.6237793,27 L21.810791,27 L21.810791,20.25 L22.6237793,20.25 L22.6237793,27 Z M27.1601074,27 C27.1132322,26.9062495 27.0751466,26.739259 27.0458496,26.4990234 C26.667918,26.8916035 26.2167507,27.0878906 25.692334,27.0878906 C25.2235817,27.0878906 24.839064,26.9553236 24.5387695,26.6901855 C24.2384751,26.4250475 24.0883301,26.0888692 24.0883301,25.6816406 C24.0883301,25.186521 24.2765606,24.8020033 24.6530274,24.5280762 C25.0294941,24.254149 25.5590298,24.1171875 26.2416504,24.1171875 L27.032666,24.1171875 L27.032666,23.7436523 C27.032666,23.4594712 26.9477059,23.2331551 26.7777832,23.0646973 C26.6078605,22.8962394 26.3573747,22.8120117 26.0263184,22.8120117 C25.7362779,22.8120117 25.4931162,22.8852532 25.2968262,23.0317383 C25.1005361,23.1782234 25.0023926,23.3554677 25.0023926,23.5634766 L24.1850098,23.5634766 C24.1850098,23.3261707 24.2692375,23.0969249 24.4376953,22.8757324 C24.6061532,22.6545399 24.8346665,22.4794928 25.1232422,22.3505859 C25.4118179,22.221679 25.7289534,22.1572266 26.0746582,22.1572266 C26.6225125,22.1572266 27.0517074,22.2941881 27.3622559,22.5681152 C27.6728043,22.8420424 27.8339355,23.2192359 27.8456543,23.699707 L27.8456543,25.8881836 C27.8456543,26.3247092 27.9013178,26.6718737 28.0126465,26.9296875 L28.0126465,27 L27.1601074,27 Z M25.8109863,26.3803711 C26.0658704,26.3803711 26.3075672,26.3144538 26.536084,26.1826172 C26.7646008,26.0507806 26.9301265,25.8793956 27.032666,25.668457 L27.032666,24.6928711 L26.395459,24.6928711 C25.3993603,24.6928711 24.9013184,24.9843721 24.9013184,25.5673828 C24.9013184,25.8222669 24.9862785,26.0214837 25.1562012,26.1650391 C25.3261239,26.3085945 25.5443834,26.3803711 25.8109863,26.3803711 Z M33.445459,24.675293 C33.445459,25.4018591 33.2784685,25.9855935 32.9444824,26.4265137 C32.6104964,26.8674338 32.1622587,27.0878906 31.5997559,27.0878906 C30.9991669,27.0878906 30.5348161,26.8754904 30.2066895,26.4506836 L30.1671387,27 L29.4200684,27 L29.4200684,20.25 L30.2330567,20.25 L30.2330567,22.7680664 C30.5611833,22.3608378 31.0138155,22.1572266 31.5909668,22.1572266 C32.1681181,22.1572266 32.6214828,22.3754861 32.9510742,22.8120117 C33.2806657,23.2485373 33.445459,23.8461876 33.445459,24.6049805 L33.445459,24.675293 Z M32.6324707,24.5830078 C32.6324707,24.0292941 32.5255382,23.601564 32.3116699,23.2998047 C32.0978017,22.9980454 31.7901876,22.847168 31.3888184,22.847168 C30.8526829,22.847168 30.4674328,23.0961889 30.2330567,23.5942383 L30.2330567,25.6508789 C30.4820813,26.1489283 30.8702611,26.3979492 31.3976074,26.3979492 C31.7872578,26.3979492 32.0904775,26.2470718 32.3072754,25.9453125 C32.5240734,25.6435532 32.6324707,25.1894562 32.6324707,24.5830078 Z M36.7425293,27.0878906 C36.0979949,27.0878906 35.573586,26.8762228 35.1692871,26.4528809 C34.7649882,26.0295389 34.5628418,25.4633825 34.5628418,24.7543945 L34.5628418,24.6049805 C34.5628418,24.1332984 34.6529288,23.7121601 34.8331055,23.3415527 C35.0132822,22.9709454 35.2652328,22.6809093 35.5889649,22.4714355 C35.912697,22.2619618 36.2635235,22.1572266 36.6414551,22.1572266 C37.2596223,22.1572266 37.7400862,22.3608378 38.0828614,22.7680664 C38.4256365,23.175295 38.5970215,23.758297 38.5970215,24.5170898 L38.5970215,24.8554688 L35.3758301,24.8554688 C35.3875489,25.3242211 35.5245104,25.7028794 35.7867188,25.9914551 C36.0489271,26.2800307 36.3821757,26.4243164 36.7864746,26.4243164 C37.0735855,26.4243164 37.3167471,26.3657232 37.5159668,26.2485352 C37.7151866,26.1313471 37.8895012,25.9760752 38.0389161,25.7827148 L38.5354981,26.1694336 C38.1370586,26.7817413 37.5394083,27.0878906 36.7425293,27.0878906 Z M36.6414551,22.8251953 C36.3133285,22.8251953 36.0379406,22.9445789 35.8152832,23.1833496 C35.5926259,23.4221203 35.4549319,23.7568338 35.4021973,24.1875 L37.7840332,24.1875 L37.7840332,24.1259766 C37.7605956,23.7128886 37.6492686,23.3928234 37.4500489,23.1657715 C37.2508291,22.9387196 36.9813006,22.8251953 36.6414551,22.8251953 Z M40.720752,27 L39.9077637,27 L39.9077637,20.25 L40.720752,20.25 L40.720752,27 Z"/>
      <g transform="translate(13)">
        <path d="M7.84534462,15.3317294 C7.8967672,15.3327987 7.94832118,15.3333333 8,15.3333333 C8.1194254,15.3333333 8.23818416,15.3304784 8.35621175,15.324833 L8.35619512,15.3247671 C8.23819651,15.3304554 8.11944438,15.3333333 8,15.3333333 C7.94665508,15.3333333 7.89344824,15.3327593 7.84038493,15.3316173 C3.86408892,15.2467198 0.666666667,11.996663 0.666666667,8 C0.666666667,3.95 3.95,0.666666667 8,0.666666667 C12.05,0.666666667 15.3333333,3.95 15.3333333,8 C15.3333333,12.05 12.05,15.3333333 8,15.3333333 C7.94832155,15.3333333 7.89676793,15.3327987 7.84534436,15.3317348 Z M12.5422664,11.9160585 C11.7527445,10.1952633 10.0170526,9 8,9 C5.9829474,9 4.24725547,10.1952633 3.45773355,11.9160585 C4.55891024,13.1915291 6.18693256,14 8,14 C9.81306744,14 11.4410898,13.1915291 12.5422664,11.9160585 Z M8,8 C9.47066667,8 10.6666667,6.804 10.6666667,5.33333333 C10.6666667,3.86266667 9.47066667,2.66666667 8,2.66666667 C6.52933333,2.66666667 5.33333333,3.86266667 5.33333333,5.33333333 C5.33333333,6.804 6.52933333,8 8,8 Z M8,4 C8.73533333,4 9.33333333,4.598 9.33333333,5.33333333 C9.33333333,6.06866667 8.73533333,6.66666667 8,6.66666667 C7.26466667,6.66666667 6.66666667,6.06866667 6.66666667,5.33333333 C6.66666667,4.598 7.26466667,4 8,4 Z M8,10.3333333 C9.61333333,10.3333333 11.0093333,11.3866667 11.4866667,12.874 C10.4713333,13.604 9.25733333,14 8,14 C6.74266667,14 5.52866667,13.604 4.51333333,12.874 C4.99066667,11.3866667 6.38666667,10.3333333 8,10.3333333 Z"/>
        <path fill="#A9B6BE" d="M12.5422664,11.9160585 C13.4502221,10.8643918 14,9.49523384 14,8 C14,4.69133333 11.308,2 8,2 C4.692,2 2,4.69133333 2,8 C2,9.49523384 2.54977787,10.8643918 3.45773355,11.9160585 C4.24725547,10.1952633 5.9829474,9 8,9 C10.0170526,9 11.7527445,10.1952633 12.5422664,11.9160585 Z M8,0.666666667 C12.05,0.666666667 15.3333333,3.95 15.3333333,8 C15.3333333,12.05 12.05,15.3333333 8,15.3333333 C3.95,15.3333333 0.666666667,12.05 0.666666667,8 C0.666666667,3.95 3.95,0.666666667 8,0.666666667 Z M8,10.3333333 C6.38666667,10.3333333 4.99066667,11.3866667 4.51333333,12.874 C5.52866667,13.604 6.74266667,14 8,14 C9.25733333,14 10.4713333,13.604 11.4866667,12.874 C11.0093333,11.3866667 9.61333333,10.3333333 8,10.3333333 Z M8,4 C7.26466667,4 6.66666667,4.598 6.66666667,5.33333333 C6.66666667,6.06866667 7.26466667,6.66666667 8,6.66666667 C8.73533333,6.66666667 9.33333333,6.06866667 9.33333333,5.33333333 C9.33333333,4.598 8.73533333,4 8,4 Z M8,8 C6.52933333,8 5.33333333,6.804 5.33333333,5.33333333 C5.33333333,3.86266667 6.52933333,2.66666667 8,2.66666667 C9.47066667,2.66666667 10.6666667,3.86266667 10.6666667,5.33333333 C10.6666667,6.804 9.47066667,8 8,8 Z"/>
      </g>
    </g>
    <g transform="translate(20 8)">
      <path fill="#314351" fill-rule="nonzero" d="M7.27636716,28.3945312 L4.53417966,28.3945312 L4.53417966,36 L3.41503903,36 L3.41503903,28.3945312 L0.678710908,28.3945312 L0.678710908,27.46875 L7.27636716,27.46875 L7.27636716,28.3945312 Z M10.8228515,36.1171875 C9.96347224,36.1171875 9.26426048,35.8349638 8.72519529,35.2705078 C8.18613009,34.7060519 7.91660154,33.9511766 7.91660154,33.0058594 L7.91660154,32.8066406 C7.91660154,32.1777312 8.03671752,31.6162134 8.2769531,31.1220703 C8.51718868,30.6279272 8.85312282,30.2412123 9.2847656,29.9619141 C9.71640838,29.6826158 10.1841771,29.5429688 10.6880859,29.5429688 C11.5123088,29.5429688 12.1529274,29.8144504 12.6099609,30.3574219 C13.0669944,30.9003933 13.2955078,31.6777293 13.2955078,32.6894531 L13.2955078,33.140625 L9.00058591,33.140625 C9.01621099,33.7656281 9.19882635,34.2705059 9.54843748,34.6552734 C9.8980486,35.040041 10.3423801,35.2324219 10.8814453,35.2324219 C11.2642597,35.2324219 11.5884752,35.1542977 11.8541015,34.9980469 C12.1197279,34.8417961 12.3521474,34.6347669 12.5513672,34.3769531 L13.2134765,34.8925781 C12.6822239,35.7089885 11.8853569,36.1171875 10.8228515,36.1171875 Z M10.6880859,30.4335938 C10.2505837,30.4335938 9.8833999,30.5927718 9.58652341,30.9111328 C9.28964693,31.2294938 9.10605502,31.6757784 9.03574216,32.25 L12.2115234,32.25 L12.2115234,32.1679688 C12.1802733,31.6171847 12.0318372,31.1904312 11.7662109,30.8876953 C11.5005846,30.5849594 11.1412132,30.4335938 10.6880859,30.4335938 Z M17.0763672,31.9746094 L18.4826172,29.6601562 L19.7482422,29.6601562 L17.6740234,32.7949219 L19.8126953,36 L18.558789,36 L17.0939453,33.6269531 L15.6291015,36 L14.3693359,36 L16.5080078,32.7949219 L14.433789,29.6601562 L15.6876953,29.6601562 L17.0763672,31.9746094 Z M22.7673828,28.125 L22.7673828,29.6601562 L23.9509766,29.6601562 L23.9509766,30.4980469 L22.7673828,30.4980469 L22.7673828,34.4296875 C22.7673828,34.683595 22.8201166,34.8740228 22.9255859,35.0009766 C23.0310552,35.1279303 23.2107409,35.1914062 23.4646484,35.1914062 C23.5896491,35.1914062 23.7615223,35.167969 23.9802734,35.1210938 L23.9802734,36 C23.6951157,36.0781254 23.4177748,36.1171875 23.1482422,36.1171875 C22.6638648,36.1171875 22.298634,35.9707046 22.0525391,35.6777344 C21.8064441,35.3847642 21.6833984,34.9687527 21.6833984,34.4296875 L21.6833984,30.4980469 L20.5291016,30.4980469 L20.5291016,29.6601562 L21.6833984,29.6601562 L21.6833984,28.125 L22.7673828,28.125 Z M30.1650391,36 L29.0810547,36 L29.0810547,27 L30.1650391,27 L30.1650391,36 Z M36.2134766,36 C36.1509763,35.8749994 36.1001955,35.6523454 36.0611328,35.3320312 C35.557224,35.8554714 34.9556676,36.1171875 34.2564453,36.1171875 C33.6314422,36.1171875 33.118752,35.9404315 32.7183594,35.5869141 C32.3179668,35.2333967 32.1177734,34.785159 32.1177734,34.2421875 C32.1177734,33.5820279 32.3687475,33.0693378 32.8707031,32.7041016 C33.3726588,32.3388654 34.0787064,32.15625 34.9888672,32.15625 L36.0435547,32.15625 L36.0435547,31.6582031 C36.0435547,31.279295 35.9302746,30.9775402 35.7037109,30.7529297 C35.4771473,30.5283192 35.1431663,30.4160156 34.7017578,30.4160156 C34.3150371,30.4160156 33.9908216,30.5136709 33.7291016,30.7089844 C33.4673815,30.9042979 33.3365234,31.1406236 33.3365234,31.4179688 L32.2466797,31.4179688 C32.2466797,31.1015609 32.3589833,30.7958999 32.5835938,30.5009766 C32.8082043,30.2060532 33.1128887,29.9726571 33.4976563,29.8007812 C33.8824238,29.6289054 34.3052711,29.5429688 34.7662109,29.5429688 C35.4966833,29.5429688 36.0689432,29.7255841 36.4830078,30.0908203 C36.8970724,30.4560565 37.111914,30.9589812 37.1275391,31.5996094 L37.1275391,34.5175781 C37.1275391,35.0996123 37.2017571,35.5624983 37.3501953,35.90625 L37.3501953,36 L36.2134766,36 Z M34.4146484,35.1738281 C34.7544939,35.1738281 35.0767563,35.0859384 35.3814453,34.9101562 C35.6861343,34.7343741 35.9068353,34.5058608 36.0435547,34.2246094 L36.0435547,32.9238281 L35.1939453,32.9238281 C33.8658137,32.9238281 33.2017578,33.3124961 33.2017578,34.0898438 C33.2017578,34.4296892 33.3150379,34.6953115 33.5416016,34.8867188 C33.7681652,35.078126 34.0591779,35.1738281 34.4146484,35.1738281 Z M44.5939453,32.9003906 C44.5939453,33.8691455 44.3712913,34.647458 43.9259766,35.2353516 C43.4806618,35.8232451 42.8830116,36.1171875 42.1330078,36.1171875 C41.3322226,36.1171875 40.7130881,35.8339872 40.2755859,35.2675781 L40.2228516,36 L39.2267578,36 L39.2267578,27 L40.3107422,27 L40.3107422,30.3574219 C40.7482444,29.8144504 41.351754,29.5429688 42.1212891,29.5429688 C42.8908242,29.5429688 43.4953103,29.8339815 43.9347656,30.4160156 C44.374221,30.9980498 44.5939453,31.7949168 44.5939453,32.8066406 L44.5939453,32.9003906 Z M43.5099609,32.7773438 C43.5099609,32.0390588 43.3673843,31.468752 43.0822266,31.0664062 C42.7970689,30.6640605 42.3869168,30.4628906 41.8517578,30.4628906 C41.1369105,30.4628906 40.6232438,30.7949186 40.3107422,31.4589844 L40.3107422,34.2011719 C40.6427751,34.8652377 41.1603481,35.1972656 41.8634766,35.1972656 C42.3830104,35.1972656 42.7873033,34.9960958 43.0763672,34.59375 C43.3654311,34.1914042 43.5099609,33.5859415 43.5099609,32.7773438 Z M48.9900391,36.1171875 C48.1306598,36.1171875 47.431448,35.8349638 46.8923828,35.2705078 C46.3533176,34.7060519 46.0837891,33.9511766 46.0837891,33.0058594 L46.0837891,32.8066406 C46.0837891,32.1777312 46.2039051,31.6162134 46.4441406,31.1220703 C46.6843762,30.6279272 47.0203104,30.2412123 47.4519531,29.9619141 C47.8835959,29.6826158 48.3513647,29.5429688 48.8552735,29.5429688 C49.6794963,29.5429688 50.3201149,29.8144504 50.7771485,30.3574219 C51.234182,30.9003933 51.4626953,31.6777293 51.4626953,32.6894531 L51.4626953,33.140625 L47.1677735,33.140625 C47.1833985,33.7656281 47.3660139,34.2705059 47.715625,34.6552734 C48.0652361,35.040041 48.5095676,35.2324219 49.0486328,35.2324219 C49.4314472,35.2324219 49.7556628,35.1542977 50.0212891,34.9980469 C50.2869154,34.8417961 50.519335,34.6347669 50.7185547,34.3769531 L51.3806641,34.8925781 C50.8494114,35.7089885 50.0525444,36.1171875 48.9900391,36.1171875 Z M48.8552735,30.4335938 C48.4177713,30.4335938 48.0505874,30.5927718 47.753711,30.9111328 C47.4568345,31.2294938 47.2732426,31.6757784 47.2029297,32.25 L50.378711,32.25 L50.378711,32.1679688 C50.3474608,31.6171847 50.1990248,31.1904312 49.9333985,30.8876953 C49.6677721,30.5849594 49.3084007,30.4335938 48.8552735,30.4335938 Z M54.294336,36 L53.2103516,36 L53.2103516,27 L54.294336,27 L54.294336,36 Z"/>
      <g transform="translate(16)">
        <path fill="#D9E4EA" d="M23.1318492,9.758 L13.9978492,2.304 C12.8848492,1.232 11.1148492,1.232 10.0018492,2.304 L0.867849181,9.758 C0.439849181,10.107 0.375849181,10.737 0.725849181,11.164 C1.07284918,11.591 1.70284918,11.658 2.13184918,11.307 L2.49984918,11.006 L2.49984918,20.028 C2.49984918,21.408 3.62384918,22.532 5.00484918,22.532 L7.99484918,22.532 C9.37584918,22.532 10.4998492,21.408 10.4998492,20.028 L10.4998492,17.036 C10.4998492,16.758 10.7258492,16.532 11.0028492,16.532 L12.9968492,16.532 C13.2748492,16.532 13.4998492,16.758 13.4998492,17.036 L13.4998492,20.028 C13.4998492,21.408 14.6238492,22.532 16.0048492,22.532 L18.9948492,22.532 C20.3758492,22.532 21.4998492,21.408 21.4998492,20.028 L21.4998492,11.006 L21.8678492,11.307 C22.0538492,11.459 22.2778492,11.532 22.4988492,11.532 C22.7888492,11.532 23.0768492,11.406 23.2748492,11.164 C23.6238492,10.737 23.5608492,10.107 23.1318492,9.758"/>
        <use fill="#314351" xlink:href="#3-e"/>
      </g>
    </g>
    <g transform="translate(0 66)">
      <use fill="#000" filter="url(#3-f)" xlink:href="#3-g"/>
      <use fill="#FAFAFA" xlink:href="#3-g"/>
      <rect width="360" height="56" fill="#FFF"/>
      <g transform="translate(300 16)">
        <path d="M13.2774,22.9525 L10.6824,22.9525 C9.3464,22.9525 8.2594,21.8645 8.2594,20.5275 L8.2594,20.3415 C7.6694,20.0805 7.1134,19.7595 6.5944,19.3815 L6.4334,19.4755 C5.2764,20.1425 3.7924,19.7445 3.1234,18.5875 L1.8254,16.3405 C1.5024,15.7795 1.4164,15.1265 1.5834,14.5015 C1.7514,13.8755 2.1524,13.3535 2.7124,13.0295 L2.8714,12.9385 C2.8354,12.6135 2.8174,12.2945 2.8174,11.9765 C2.8174,11.6575 2.8354,11.3385 2.8714,11.0135 L2.7124,10.9225 C2.1524,10.5985 1.7514,10.0765 1.5834,9.4505 C1.4164,8.8255 1.5024,8.1725 1.8254,7.6115 L3.1234,5.3645 C3.7914,4.2075 5.2754,3.8095 6.4334,4.4775 L6.5944,4.5705 C7.1134,4.1925 7.6694,3.8715 8.2594,3.6105 L8.2594,3.4235 C8.2594,2.0865 9.3464,0.9995 10.6824,0.9995 L13.2774,0.9995 C14.6134,0.9995 15.7004,2.0875 15.7004,3.4245 L15.7004,3.6105 C16.2904,3.8715 16.8464,4.1925 17.3654,4.5705 L17.5264,4.4775 C18.6834,3.8105 20.1684,4.2075 20.8364,5.3645 L22.1344,7.6115 C22.4574,8.1725 22.5434,8.8255 22.3764,9.4505 C22.2094,10.0765 21.8074,10.5985 21.2474,10.9225 L21.0884,11.0135 C21.1244,11.3385 21.1424,11.6575 21.1424,11.9765 C21.1424,12.2945 21.1244,12.6135 21.0884,12.9385 L21.2474,13.0295 C21.8074,13.3535 22.2094,13.8755 22.3764,14.5015 C22.5434,15.1265 22.4574,15.7795 22.1344,16.3405 L20.8364,18.5875 C20.1684,19.7445 18.6844,20.1425 17.5264,19.4755 L17.3654,19.3815 C16.8464,19.7595 16.2904,20.0805 15.7004,20.3415 L15.7004,20.5285 C15.7004,21.8655 14.6134,22.9525 13.2774,22.9525 Z M11.98,6.976 C9.219,6.976 6.98,9.215 6.98,11.976 C6.98,14.737 9.219,16.976 11.98,16.976 C14.741,16.976 16.98,14.737 16.98,11.976 C16.98,9.215 14.741,6.976 11.98,6.976 Z M11.98,8.976 C13.634,8.976 14.98,10.322 14.98,11.976 C14.98,13.63 13.634,14.976 11.98,14.976 C10.326,14.976 8.98,13.63 8.98,11.976 C8.98,10.322 10.326,8.976 11.98,8.976 Z"/>
        <use fill="#A9B6BE" xlink:href="#3-h"/>
      </g>
      <g transform="translate(212 16)">
        <path d="M15.0936379,20.15 C14.965877,21.6874228 13.6726388,22.9006 12.102,22.9006 C10.5313612,22.9006 9.23812303,21.6874228 9.11036213,20.15 L4.42443783,20.15 C3.69443783,20.15 3.03743783,19.745 2.70843783,19.095 C2.37943783,18.444 2.44343783,17.675 2.87543783,17.088 L3.60643783,16.092 L3.60643783,11.466 C3.60643783,7.97 5.73843783,4.862 8.86843783,3.661 C9.05243783,2.028 10.4254378,0.75 12.1064378,0.75 C13.7874378,0.75 15.1604378,2.028 15.3444378,3.661 C18.4754378,4.862 20.6064378,7.97 20.6064378,11.466 L20.6064378,16.169 L21.2224378,17.318 C21.5454378,17.919 21.5294378,18.628 21.1784378,19.214 C20.8284378,19.8 20.2124378,20.15 19.5294378,20.15 L15.0936379,20.15 Z"/>
        <use fill="#A9B6BE" xlink:href="#3-i"/>
      </g>
      <g transform="translate(124 16)">
        <path d="M11.7680169,22.9975941 C11.8451508,22.9991981 11.9224818,23 12,23 C12.1791381,23 12.3572762,22.9957176 12.5343176,22.9872495 L12.5342927,22.9871506 C12.3572948,22.9956832 12.1791666,23 12,23 C11.9199826,23 11.8401724,22.999139 11.7605774,22.9974259 C5.79613338,22.8700797 1,17.9949945 1,12 C1,5.925 5.925,1 12,1 C18.075,1 23,5.925 23,12 C23,18.075 18.075,23 12,23 C11.9224823,23 11.8451519,22.9991981 11.7680165,22.9976022 Z M18.8133997,17.8740877 C17.6291168,15.292895 15.0255789,13.5 12,13.5 C8.97442111,13.5 6.3708832,15.292895 5.18660033,17.8740877 C6.83836535,19.7872936 9.28039884,21 12,21 C14.7196012,21 17.1616346,19.7872936 18.8133997,17.8740877 Z M12,12 C14.206,12 16,10.206 16,8 C16,5.794 14.206,4 12,4 C9.794,4 8,5.794 8,8 C8,10.206 9.794,12 12,12 Z M12,6 C13.103,6 14,6.897 14,8 C14,9.103 13.103,10 12,10 C10.897,10 10,9.103 10,8 C10,6.897 10.897,6 12,6 Z M12,15.5 C14.42,15.5 16.514,17.08 17.23,19.311 C15.707,20.406 13.886,21 12,21 C10.114,21 8.293,20.406 6.77,19.311 C7.486,17.08 9.58,15.5 12,15.5 Z"/>
        <path fill="#A9B6BE" d="M18.8133997,17.8740877 C20.1753332,16.2965877 21,14.2428508 21,12 C21,7.037 16.962,3 12,3 C7.038,3 3,7.037 3,12 C3,14.2428508 3.82466681,16.2965877 5.18660033,17.8740877 C6.3708832,15.292895 8.97442111,13.5 12,13.5 C15.0255789,13.5 17.6291168,15.292895 18.8133997,17.8740877 Z M12,1 C18.075,1 23,5.925 23,12 C23,18.075 18.075,23 12,23 C5.925,23 1,18.075 1,12 C1,5.925 5.925,1 12,1 Z M12,15.5 C9.58,15.5 7.486,17.08 6.77,19.311 C8.293,20.406 10.114,21 12,21 C13.886,21 15.707,20.406 17.23,19.311 C16.514,17.08 14.42,15.5 12,15.5 Z M12,6 C10.897,6 10,6.897 10,8 C10,9.103 10.897,10 12,10 C13.103,10 14,9.103 14,8 C14,6.897 13.103,6 12,6 Z M12,12 C9.794,12 8,10.206 8,8 C8,5.794 9.794,4 12,4 C14.206,4 16,5.794 16,8 C16,10.206 14.206,12 12,12 Z"/>
      </g>
      <g transform="translate(20 8)">
        <path fill="#314351" fill-rule="nonzero" d="M7.27636716,28.3945312 L4.53417966,28.3945312 L4.53417966,36 L3.41503903,36 L3.41503903,28.3945312 L0.678710908,28.3945312 L0.678710908,27.46875 L7.27636716,27.46875 L7.27636716,28.3945312 Z M10.8228515,36.1171875 C9.96347224,36.1171875 9.26426048,35.8349638 8.72519529,35.2705078 C8.18613009,34.7060519 7.91660154,33.9511766 7.91660154,33.0058594 L7.91660154,32.8066406 C7.91660154,32.1777312 8.03671752,31.6162134 8.2769531,31.1220703 C8.51718868,30.6279272 8.85312282,30.2412123 9.2847656,29.9619141 C9.71640838,29.6826158 10.1841771,29.5429688 10.6880859,29.5429688 C11.5123088,29.5429688 12.1529274,29.8144504 12.6099609,30.3574219 C13.0669944,30.9003933 13.2955078,31.6777293 13.2955078,32.6894531 L13.2955078,33.140625 L9.00058591,33.140625 C9.01621099,33.7656281 9.19882635,34.2705059 9.54843748,34.6552734 C9.8980486,35.040041 10.3423801,35.2324219 10.8814453,35.2324219 C11.2642597,35.2324219 11.5884752,35.1542977 11.8541015,34.9980469 C12.1197279,34.8417961 12.3521474,34.6347669 12.5513672,34.3769531 L13.2134765,34.8925781 C12.6822239,35.7089885 11.8853569,36.1171875 10.8228515,36.1171875 Z M10.6880859,30.4335938 C10.2505837,30.4335938 9.8833999,30.5927718 9.58652341,30.9111328 C9.28964693,31.2294938 9.10605502,31.6757784 9.03574216,32.25 L12.2115234,32.25 L12.2115234,32.1679688 C12.1802733,31.6171847 12.0318372,31.1904312 11.7662109,30.8876953 C11.5005846,30.5849594 11.1412132,30.4335938 10.6880859,30.4335938 Z M17.0763672,31.9746094 L18.4826172,29.6601562 L19.7482422,29.6601562 L17.6740234,32.7949219 L19.8126953,36 L18.558789,36 L17.0939453,33.6269531 L15.6291015,36 L14.3693359,36 L16.5080078,32.7949219 L14.433789,29.6601562 L15.6876953,29.6601562 L17.0763672,31.9746094 Z M22.7673828,28.125 L22.7673828,29.6601562 L23.9509766,29.6601562 L23.9509766,30.4980469 L22.7673828,30.4980469 L22.7673828,34.4296875 C22.7673828,34.683595 22.8201166,34.8740228 22.9255859,35.0009766 C23.0310552,35.1279303 23.2107409,35.1914062 23.4646484,35.1914062 C23.5896491,35.1914062 23.7615223,35.167969 23.9802734,35.1210938 L23.9802734,36 C23.6951157,36.0781254 23.4177748,36.1171875 23.1482422,36.1171875 C22.6638648,36.1171875 22.298634,35.9707046 22.0525391,35.6777344 C21.8064441,35.3847642 21.6833984,34.9687527 21.6833984,34.4296875 L21.6833984,30.4980469 L20.5291016,30.4980469 L20.5291016,29.6601562 L21.6833984,29.6601562 L21.6833984,28.125 L22.7673828,28.125 Z M30.1650391,36 L29.0810547,36 L29.0810547,27 L30.1650391,27 L30.1650391,36 Z M36.2134766,36 C36.1509763,35.8749994 36.1001955,35.6523454 36.0611328,35.3320312 C35.557224,35.8554714 34.9556676,36.1171875 34.2564453,36.1171875 C33.6314422,36.1171875 33.118752,35.9404315 32.7183594,35.5869141 C32.3179668,35.2333967 32.1177734,34.785159 32.1177734,34.2421875 C32.1177734,33.5820279 32.3687475,33.0693378 32.8707031,32.7041016 C33.3726588,32.3388654 34.0787064,32.15625 34.9888672,32.15625 L36.0435547,32.15625 L36.0435547,31.6582031 C36.0435547,31.279295 35.9302746,30.9775402 35.7037109,30.7529297 C35.4771473,30.5283192 35.1431663,30.4160156 34.7017578,30.4160156 C34.3150371,30.4160156 33.9908216,30.5136709 33.7291016,30.7089844 C33.4673815,30.9042979 33.3365234,31.1406236 33.3365234,31.4179688 L32.2466797,31.4179688 C32.2466797,31.1015609 32.3589833,30.7958999 32.5835938,30.5009766 C32.8082043,30.2060532 33.1128887,29.9726571 33.4976563,29.8007812 C33.8824238,29.6289054 34.3052711,29.5429688 34.7662109,29.5429688 C35.4966833,29.5429688 36.0689432,29.7255841 36.4830078,30.0908203 C36.8970724,30.4560565 37.111914,30.9589812 37.1275391,31.5996094 L37.1275391,34.5175781 C37.1275391,35.0996123 37.2017571,35.5624983 37.3501953,35.90625 L37.3501953,36 L36.2134766,36 Z M34.4146484,35.1738281 C34.7544939,35.1738281 35.0767563,35.0859384 35.3814453,34.9101562 C35.6861343,34.7343741 35.9068353,34.5058608 36.0435547,34.2246094 L36.0435547,32.9238281 L35.1939453,32.9238281 C33.8658137,32.9238281 33.2017578,33.3124961 33.2017578,34.0898438 C33.2017578,34.4296892 33.3150379,34.6953115 33.5416016,34.8867188 C33.7681652,35.078126 34.0591779,35.1738281 34.4146484,35.1738281 Z M44.5939453,32.9003906 C44.5939453,33.8691455 44.3712913,34.647458 43.9259766,35.2353516 C43.4806618,35.8232451 42.8830116,36.1171875 42.1330078,36.1171875 C41.3322226,36.1171875 40.7130881,35.8339872 40.2755859,35.2675781 L40.2228516,36 L39.2267578,36 L39.2267578,27 L40.3107422,27 L40.3107422,30.3574219 C40.7482444,29.8144504 41.351754,29.5429688 42.1212891,29.5429688 C42.8908242,29.5429688 43.4953103,29.8339815 43.9347656,30.4160156 C44.374221,30.9980498 44.5939453,31.7949168 44.5939453,32.8066406 L44.5939453,32.9003906 Z M43.5099609,32.7773438 C43.5099609,32.0390588 43.3673843,31.468752 43.0822266,31.0664062 C42.7970689,30.6640605 42.3869168,30.4628906 41.8517578,30.4628906 C41.1369105,30.4628906 40.6232438,30.7949186 40.3107422,31.4589844 L40.3107422,34.2011719 C40.6427751,34.8652377 41.1603481,35.1972656 41.8634766,35.1972656 C42.3830104,35.1972656 42.7873033,34.9960958 43.0763672,34.59375 C43.3654311,34.1914042 43.5099609,33.5859415 43.5099609,32.7773438 Z M48.9900391,36.1171875 C48.1306598,36.1171875 47.431448,35.8349638 46.8923828,35.2705078 C46.3533176,34.7060519 46.0837891,33.9511766 46.0837891,33.0058594 L46.0837891,32.8066406 C46.0837891,32.1777312 46.2039051,31.6162134 46.4441406,31.1220703 C46.6843762,30.6279272 47.0203104,30.2412123 47.4519531,29.9619141 C47.8835959,29.6826158 48.3513647,29.5429688 48.8552735,29.5429688 C49.6794963,29.5429688 50.3201149,29.8144504 50.7771485,30.3574219 C51.234182,30.9003933 51.4626953,31.6777293 51.4626953,32.6894531 L51.4626953,33.140625 L47.1677735,33.140625 C47.1833985,33.7656281 47.3660139,34.2705059 47.715625,34.6552734 C48.0652361,35.040041 48.5095676,35.2324219 49.0486328,35.2324219 C49.4314472,35.2324219 49.7556628,35.1542977 50.0212891,34.9980469 C50.2869154,34.8417961 50.519335,34.6347669 50.7185547,34.3769531 L51.3806641,34.8925781 C50.8494114,35.7089885 50.0525444,36.1171875 48.9900391,36.1171875 Z M48.8552735,30.4335938 C48.4177713,30.4335938 48.0505874,30.5927718 47.753711,30.9111328 C47.4568345,31.2294938 47.2732426,31.6757784 47.2029297,32.25 L50.378711,32.25 L50.378711,32.1679688 C50.3474608,31.6171847 50.1990248,31.1904312 49.9333985,30.8876953 C49.6677721,30.5849594 49.3084007,30.4335938 48.8552735,30.4335938 Z M54.294336,36 L53.2103516,36 L53.2103516,27 L54.294336,27 L54.294336,36 Z"/>
        <g transform="translate(16)">
          <path fill="#D9E4EA" d="M23.1318492,9.758 L13.9978492,2.304 C12.8848492,1.232 11.1148492,1.232 10.0018492,2.304 L0.867849181,9.758 C0.439849181,10.107 0.375849181,10.737 0.725849181,11.164 C1.07284918,11.591 1.70284918,11.658 2.13184918,11.307 L2.49984918,11.006 L2.49984918,20.028 C2.49984918,21.408 3.62384918,22.532 5.00484918,22.532 L7.99484918,22.532 C9.37584918,22.532 10.4998492,21.408 10.4998492,20.028 L10.4998492,17.036 C10.4998492,16.758 10.7258492,16.532 11.0028492,16.532 L12.9968492,16.532 C13.2748492,16.532 13.4998492,16.758 13.4998492,17.036 L13.4998492,20.028 C13.4998492,21.408 14.6238492,22.532 16.0048492,22.532 L18.9948492,22.532 C20.3758492,22.532 21.4998492,21.408 21.4998492,20.028 L21.4998492,11.006 L21.8678492,11.307 C22.0538492,11.459 22.2778492,11.532 22.4988492,11.532 C22.7888492,11.532 23.0768492,11.406 23.2748492,11.164 C23.6238492,10.737 23.5608492,10.107 23.1318492,9.758"/>
          <use fill="#314351" xlink:href="#3-j"/>
        </g>
      </g>
    </g>
  </g>
</svg>
