<svg xmlns="http://www.w3.org/2000/svg" xmlns:xlink="http://www.w3.org/1999/xlink" width="366" height="102" viewBox="0 0 366 102">
  <defs>
    <rect id="4-b" width="360" height="56"/>
    <filter id="4-a" width="102.8%" height="117.9%" x="-1.4%" y="-7.1%" filterUnits="objectBoundingBox">
      <feOffset dy="1" in="SourceAlpha" result="shadowOffsetOuter1"/>
      <feGaussianBlur in="shadowOffsetOuter1" result="shadowBlurOuter1" stdDeviation="1.5"/>
      <feColorMatrix in="shadowBlurOuter1" result="shadowMatrixOuter1" values="0 0 0 0 0   0 0 0 0 0   0 0 0 0 0  0 0 0 0.2 0"/>
      <feMorphology in="SourceAlpha" radius=".5" result="shadowSpreadOuter2"/>
      <feOffset dy="2" in="shadowSpreadOuter2" result="shadowOffsetOuter2"/>
      <feGaussianBlur in="shadowOffsetOuter2" result="shadowBlurOuter2" stdDeviation=".5"/>
      <feColorMatrix in="shadowBlurOuter2" result="shadowMatrixOuter2" values="0 0 0 0 0   0 0 0 0 0   0 0 0 0 0  0 0 0 0.12 0"/>
      <feOffset dy="1" in="SourceAlpha" result="shadowOffsetOuter3"/>
      <feGaussianBlur in="shadowOffsetOuter3" result="shadowBlurOuter3" stdDeviation=".5"/>
      <feColorMatrix in="shadowBlurOuter3" result="shadowMatrixOuter3" values="0 0 0 0 0   0 0 0 0 0   0 0 0 0 0  0 0 0 0.14 0"/>
      <feMerge>
        <feMergeNode in="shadowMatrixOuter1"/>
        <feMergeNode in="shadowMatrixOuter2"/>
        <feMergeNode in="shadowMatrixOuter3"/>
      </feMerge>
    </filter>
    <path id="4-c" d="M11.98,6.976 C14.741,6.976 16.98,9.215 16.98,11.976 C16.98,14.737 14.741,16.976 11.98,16.976 C9.219,16.976 6.98,14.737 6.98,11.976 C6.98,9.215 9.219,6.976 11.98,6.976 Z M11.98,8.976 C10.326,8.976 8.98,10.322 8.98,11.976 C8.98,13.63 10.326,14.976 11.98,14.976 C13.634,14.976 14.98,13.63 14.98,11.976 C14.98,10.322 13.634,8.976 11.98,8.976 Z M6.7934,16.9575 L7.3314,17.4175 C7.9974,17.9875 8.7584,18.4255 9.5924,18.7215 L10.2594,18.9575 L10.2594,20.5275 C10.2594,20.7615 10.4494,20.9525 10.6824,20.9525 L13.2774,20.9525 C13.5104,20.9525 13.7004,20.7625 13.7004,20.5285 L13.7004,18.9575 L14.3674,18.7215 C15.2014,18.4255 15.9624,17.9875 16.6284,17.4175 L17.1664,16.9575 L18.5264,17.7425 C18.7284,17.8615 18.9874,17.7905 19.1044,17.5875 L20.4014,15.3405 C20.4784,15.2075 20.4614,15.0825 20.4444,15.0195 C20.4274,14.9555 20.3794,14.8385 20.2474,14.7625 L18.8894,13.9785 L19.0174,13.2845 C19.1014,12.8265 19.1424,12.3985 19.1424,11.9765 C19.1424,11.5535 19.1014,11.1255 19.0174,10.6675 L18.8894,9.9745 L20.2474,9.1895 C20.3794,9.1135 20.4274,8.9965 20.4444,8.9335 C20.4614,8.8705 20.4784,8.7445 20.4014,8.6115 L19.1044,6.3645 C18.9874,6.1625 18.7284,6.0925 18.5264,6.2095 L17.1664,6.9945 L16.6284,6.5345 C15.9624,5.9645 15.2014,5.5265 14.3674,5.2305 L13.7004,4.9955 L13.7004,3.4245 C13.7004,3.1905 13.5104,2.9995 13.2774,2.9995 L10.6824,2.9995 C10.4494,2.9995 10.2594,3.1895 10.2594,3.4235 L10.2594,4.9955 L9.5924,5.2305 C8.7584,5.5265 7.9974,5.9645 7.3314,6.5345 L6.7934,6.9945 L5.4334,6.2095 C5.2314,6.0925 4.9724,6.1625 4.8554,6.3645 L3.5584,8.6115 C3.4814,8.7445 3.4984,8.8705 3.5154,8.9335 C3.5324,8.9965 3.5804,9.1135 3.7124,9.1895 L5.0704,9.9745 L4.9424,10.6675 C4.8584,11.1255 4.8174,11.5535 4.8174,11.9765 C4.8174,12.3985 4.8584,12.8265 4.9424,13.2845 L5.0704,13.9785 L3.7124,14.7625 C3.5804,14.8385 3.5324,14.9555 3.5154,15.0195 C3.4984,15.0825 3.4814,15.2075 3.5584,15.3405 L4.8554,17.5875 C4.9724,17.7905 5.2314,17.8615 5.4334,17.7425 L6.7934,16.9575 Z M13.2774,22.9525 L10.6824,22.9525 C9.3464,22.9525 8.2594,21.8645 8.2594,20.5275 L8.2594,20.3415 C7.6694,20.0805 7.1134,19.7595 6.5944,19.3815 L6.4334,19.4755 C5.2764,20.1425 3.7924,19.7445 3.1234,18.5875 L1.8254,16.3405 C1.5024,15.7795 1.4164,15.1265 1.5834,14.5015 C1.7514,13.8755 2.1524,13.3535 2.7124,13.0295 L2.8714,12.9385 C2.8354,12.6135 2.8174,12.2945 2.8174,11.9765 C2.8174,11.6575 2.8354,11.3385 2.8714,11.0135 L2.7124,10.9225 C2.1524,10.5985 1.7514,10.0765 1.5834,9.4505 C1.4164,8.8255 1.5024,8.1725 1.8254,7.6115 L3.1234,5.3645 C3.7914,4.2075 5.2754,3.8095 6.4334,4.4775 L6.5944,4.5705 C7.1134,4.1925 7.6694,3.8715 8.2594,3.6105 L8.2594,3.4235 C8.2594,2.0865 9.3464,0.9995 10.6824,0.9995 L13.2774,0.9995 C14.6134,0.9995 15.7004,2.0875 15.7004,3.4245 L15.7004,3.6105 C16.2904,3.8715 16.8464,4.1925 17.3654,4.5705 L17.5264,4.4775 C18.6834,3.8105 20.1684,4.2075 20.8364,5.3645 L22.1344,7.6115 C22.4574,8.1725 22.5434,8.8255 22.3764,9.4505 C22.2094,10.0765 21.8074,10.5985 21.2474,10.9225 L21.0884,11.0135 C21.1244,11.3385 21.1424,11.6575 21.1424,11.9765 C21.1424,12.2945 21.1244,12.6135 21.0884,12.9385 L21.2474,13.0295 C21.8074,13.3535 22.2094,13.8755 22.3764,14.5015 C22.5434,15.1265 22.4574,15.7795 22.1344,16.3405 L20.8364,18.5875 C20.1684,19.7445 18.6844,20.1425 17.5264,19.4755 L17.3654,19.3815 C16.8464,19.7595 16.2904,20.0805 15.7004,20.3415 L15.7004,20.5285 C15.7004,21.8655 14.6134,22.9525 13.2774,22.9525 Z"/>
    <path id="4-d" d="M15.3614839,3.66595361 C18.483676,4.87177205 20.6064378,7.97635927 20.6064378,11.4658 L20.6064378,16.1688 L21.2224378,17.3178 C21.5464378,17.9198 21.5294378,18.6288 21.1784378,19.2138 C20.8294378,19.7998 20.2124378,20.1498 19.5294378,20.1498 L15.1085378,20.1498 C15.1085378,21.8043 13.7615378,23.1513 12.1065378,23.1513 C10.4515378,23.1513 9.10453783,21.8043 9.10453783,20.1503 L4.42443783,20.1498 C3.69443783,20.1498 3.03743783,19.7458 2.70843783,19.0948 C2.37943783,18.4448 2.44343783,17.6758 2.87543783,17.0878 L3.60643783,16.0928 L3.60643783,11.4658 C3.60643783,7.97635915 5.72919981,4.87177184 8.8513921,3.66595349 C9.03035736,2.02869253 10.4219766,0.75 12.1069378,0.75 C13.7909661,0.75 15.1825229,2.0286926 15.3614839,3.66595361 Z M13.3809378,4.37314574 L13.3809378,4.024 C13.3809378,3.322 12.8099378,2.75 12.1069378,2.75 C11.4029378,2.75 10.8319378,3.322 10.8319378,4.024 L10.8319378,4.35300558 C10.8499747,4.80492036 10.5567157,5.22747291 10.1024378,5.3558 C7.45543783,6.0978 5.60643783,8.6108 5.60643783,11.4658 L5.60643783,16.7478 L4.57743783,18.1498 L19.3994378,18.1498 L18.6064378,16.6718 L18.6064378,11.4658 C18.6064378,8.6108 16.7584378,6.0978 14.1104378,5.3558 C13.6629152,5.22938119 13.3716583,4.81742238 13.3809378,4.37314574 Z M11.1045378,20.1503 C11.1045378,20.7023 11.5535378,21.1513 12.1065378,21.1513 C12.6595378,21.1513 13.1085378,20.7023 13.1085378,20.1503 L11.1045378,20.1498 Z"/>
    <path id="4-e" d="M2.50026926,11.0066265 L2.13216926,11.307 C1.70316926,11.659 1.07316926,11.592 0.726169261,11.165 C0.376169261,10.737 0.439169261,10.107 0.868169261,9.759 L10.0021693,2.304 C11.1151693,1.232 12.8851693,1.232 13.9981693,2.304 L23.1321693,9.759 C23.5611693,10.107 23.6241693,10.737 23.2741693,11.165 C23.0771693,11.407 22.7891693,11.533 22.4991693,11.533 C22.2771693,11.533 22.0541693,11.46 21.8681693,11.307 L21.5002693,11.0065589 L21.5002693,20.028 C21.5002693,21.409 20.3762693,22.533 18.9952693,22.533 L16.0052693,22.533 C14.6242693,22.533 13.5002693,21.409 13.5002693,20.028 L13.5002693,17.037 C13.5002693,16.759 13.2742693,16.533 12.9972693,16.533 L11.0032693,16.533 C10.7252693,16.533 10.5002693,16.759 10.5002693,17.037 L10.5002693,20.028 C10.5002693,21.409 9.37626926,22.533 7.99526926,22.533 L5.00526926,22.533 C3.62426926,22.533 2.50026926,21.409 2.50026926,20.028 L2.50026926,11.0066265 Z M4.50026926,9.37460561 L4.50026926,20.028 C4.50026926,20.306 4.72626926,20.533 5.00526926,20.533 L7.99526926,20.533 C8.27326926,20.533 8.50026926,20.306 8.50026926,20.028 L8.50026926,17.037 C8.50026926,15.656 9.62326926,14.533 11.0032693,14.533 L12.9972693,14.533 C14.3772693,14.533 15.5002693,15.656 15.5002693,17.037 L15.5002693,20.028 C15.5002693,20.306 15.7262693,20.533 16.0052693,20.533 L18.9952693,20.533 C19.2732693,20.533 19.5002693,20.306 19.5002693,20.028 L19.5002693,9.37328331 L12.6241693,3.758 C12.2801693,3.414 11.7201693,3.414 11.3761693,3.758 L11.3011693,3.825 L4.50026926,9.37460561 Z"/>
  </defs>
  <g fill="none" fill-rule="evenodd" transform="translate(3 2)">
    <rect width="360" height="100" fill="#FFF" fill-opacity=".01" fill-rule="nonzero" transform="matrix(-1 0 0 1 360 0)"/>
    <use fill="#000" filter="url(#4-a)" xlink:href="#4-b"/>
    <use fill="#FAFAFA" xlink:href="#4-b"/>
    <rect width="360" height="56" fill="#FFF"/>
    <g transform="translate(284 8)">
      <path fill="#798893" fill-rule="nonzero" d="M7.27636716,28.3945312 L4.53417966,28.3945312 L4.53417966,36 L3.41503903,36 L3.41503903,28.3945312 L0.678710908,28.3945312 L0.678710908,27.46875 L7.27636716,27.46875 L7.27636716,28.3945312 Z M10.8228515,36.1171875 C9.96347224,36.1171875 9.26426048,35.8349638 8.72519529,35.2705078 C8.18613009,34.7060519 7.91660154,33.9511766 7.91660154,33.0058594 L7.91660154,32.8066406 C7.91660154,32.1777312 8.03671752,31.6162134 8.2769531,31.1220703 C8.51718868,30.6279272 8.85312282,30.2412123 9.2847656,29.9619141 C9.71640838,29.6826158 10.1841771,29.5429688 10.6880859,29.5429688 C11.5123088,29.5429688 12.1529274,29.8144504 12.6099609,30.3574219 C13.0669944,30.9003933 13.2955078,31.6777293 13.2955078,32.6894531 L13.2955078,33.140625 L9.00058591,33.140625 C9.01621099,33.7656281 9.19882635,34.2705059 9.54843748,34.6552734 C9.8980486,35.040041 10.3423801,35.2324219 10.8814453,35.2324219 C11.2642597,35.2324219 11.5884752,35.1542977 11.8541015,34.9980469 C12.1197279,34.8417961 12.3521474,34.6347669 12.5513672,34.3769531 L13.2134765,34.8925781 C12.6822239,35.7089885 11.8853569,36.1171875 10.8228515,36.1171875 Z M10.6880859,30.4335938 C10.2505837,30.4335938 9.8833999,30.5927718 9.58652341,30.9111328 C9.28964693,31.2294938 9.10605502,31.6757784 9.03574216,32.25 L12.2115234,32.25 L12.2115234,32.1679688 C12.1802733,31.6171847 12.0318372,31.1904312 11.7662109,30.8876953 C11.5005846,30.5849594 11.1412132,30.4335938 10.6880859,30.4335938 Z M17.0763672,31.9746094 L18.4826172,29.6601562 L19.7482422,29.6601562 L17.6740234,32.7949219 L19.8126953,36 L18.558789,36 L17.0939453,33.6269531 L15.6291015,36 L14.3693359,36 L16.5080078,32.7949219 L14.433789,29.6601562 L15.6876953,29.6601562 L17.0763672,31.9746094 Z M22.7673828,28.125 L22.7673828,29.6601562 L23.9509766,29.6601562 L23.9509766,30.4980469 L22.7673828,30.4980469 L22.7673828,34.4296875 C22.7673828,34.683595 22.8201166,34.8740228 22.9255859,35.0009766 C23.0310552,35.1279303 23.2107409,35.1914062 23.4646484,35.1914062 C23.5896491,35.1914062 23.7615223,35.167969 23.9802734,35.1210938 L23.9802734,36 C23.6951157,36.0781254 23.4177748,36.1171875 23.1482422,36.1171875 C22.6638648,36.1171875 22.298634,35.9707046 22.0525391,35.6777344 C21.8064441,35.3847642 21.6833984,34.9687527 21.6833984,34.4296875 L21.6833984,30.4980469 L20.5291016,30.4980469 L20.5291016,29.6601562 L21.6833984,29.6601562 L21.6833984,28.125 L22.7673828,28.125 Z M30.1650391,36 L29.0810547,36 L29.0810547,27 L30.1650391,27 L30.1650391,36 Z M36.2134766,36 C36.1509763,35.8749994 36.1001955,35.6523454 36.0611328,35.3320312 C35.557224,35.8554714 34.9556676,36.1171875 34.2564453,36.1171875 C33.6314422,36.1171875 33.118752,35.9404315 32.7183594,35.5869141 C32.3179668,35.2333967 32.1177734,34.785159 32.1177734,34.2421875 C32.1177734,33.5820279 32.3687475,33.0693378 32.8707031,32.7041016 C33.3726588,32.3388654 34.0787064,32.15625 34.9888672,32.15625 L36.0435547,32.15625 L36.0435547,31.6582031 C36.0435547,31.279295 35.9302746,30.9775402 35.7037109,30.7529297 C35.4771473,30.5283192 35.1431663,30.4160156 34.7017578,30.4160156 C34.3150371,30.4160156 33.9908216,30.5136709 33.7291016,30.7089844 C33.4673815,30.9042979 33.3365234,31.1406236 33.3365234,31.4179688 L32.2466797,31.4179688 C32.2466797,31.1015609 32.3589833,30.7958999 32.5835938,30.5009766 C32.8082043,30.2060532 33.1128887,29.9726571 33.4976563,29.8007812 C33.8824238,29.6289054 34.3052711,29.5429688 34.7662109,29.5429688 C35.4966833,29.5429688 36.0689432,29.7255841 36.4830078,30.0908203 C36.8970724,30.4560565 37.111914,30.9589812 37.1275391,31.5996094 L37.1275391,34.5175781 C37.1275391,35.0996123 37.2017571,35.5624983 37.3501953,35.90625 L37.3501953,36 L36.2134766,36 Z M34.4146484,35.1738281 C34.7544939,35.1738281 35.0767563,35.0859384 35.3814453,34.9101562 C35.6861343,34.7343741 35.9068353,34.5058608 36.0435547,34.2246094 L36.0435547,32.9238281 L35.1939453,32.9238281 C33.8658137,32.9238281 33.2017578,33.3124961 33.2017578,34.0898438 C33.2017578,34.4296892 33.3150379,34.6953115 33.5416016,34.8867188 C33.7681652,35.078126 34.0591779,35.1738281 34.4146484,35.1738281 Z M44.5939453,32.9003906 C44.5939453,33.8691455 44.3712913,34.647458 43.9259766,35.2353516 C43.4806618,35.8232451 42.8830116,36.1171875 42.1330078,36.1171875 C41.3322226,36.1171875 40.7130881,35.8339872 40.2755859,35.2675781 L40.2228516,36 L39.2267578,36 L39.2267578,27 L40.3107422,27 L40.3107422,30.3574219 C40.7482444,29.8144504 41.351754,29.5429688 42.1212891,29.5429688 C42.8908242,29.5429688 43.4953103,29.8339815 43.9347656,30.4160156 C44.374221,30.9980498 44.5939453,31.7949168 44.5939453,32.8066406 L44.5939453,32.9003906 Z M43.5099609,32.7773438 C43.5099609,32.0390588 43.3673843,31.468752 43.0822266,31.0664062 C42.7970689,30.6640605 42.3869168,30.4628906 41.8517578,30.4628906 C41.1369105,30.4628906 40.6232438,30.7949186 40.3107422,31.4589844 L40.3107422,34.2011719 C40.6427751,34.8652377 41.1603481,35.1972656 41.8634766,35.1972656 C42.3830104,35.1972656 42.7873033,34.9960958 43.0763672,34.59375 C43.3654311,34.1914042 43.5099609,33.5859415 43.5099609,32.7773438 Z M48.9900391,36.1171875 C48.1306598,36.1171875 47.431448,35.8349638 46.8923828,35.2705078 C46.3533176,34.7060519 46.0837891,33.9511766 46.0837891,33.0058594 L46.0837891,32.8066406 C46.0837891,32.1777312 46.2039051,31.6162134 46.4441406,31.1220703 C46.6843762,30.6279272 47.0203104,30.2412123 47.4519531,29.9619141 C47.8835959,29.6826158 48.3513647,29.5429688 48.8552735,29.5429688 C49.6794963,29.5429688 50.3201149,29.8144504 50.7771485,30.3574219 C51.234182,30.9003933 51.4626953,31.6777293 51.4626953,32.6894531 L51.4626953,33.140625 L47.1677735,33.140625 C47.1833985,33.7656281 47.3660139,34.2705059 47.715625,34.6552734 C48.0652361,35.040041 48.5095676,35.2324219 49.0486328,35.2324219 C49.4314472,35.2324219 49.7556628,35.1542977 50.0212891,34.9980469 C50.2869154,34.8417961 50.519335,34.6347669 50.7185547,34.3769531 L51.3806641,34.8925781 C50.8494114,35.7089885 50.0525444,36.1171875 48.9900391,36.1171875 Z M48.8552735,30.4335938 C48.4177713,30.4335938 48.0505874,30.5927718 47.753711,30.9111328 C47.4568345,31.2294938 47.2732426,31.6757784 47.2029297,32.25 L50.378711,32.25 L50.378711,32.1679688 C50.3474608,31.6171847 50.1990248,31.1904312 49.9333985,30.8876953 C49.6677721,30.5849594 49.3084007,30.4335938 48.8552735,30.4335938 Z M54.294336,36 L53.2103516,36 L53.2103516,27 L54.294336,27 L54.294336,36 Z"/>
      <g transform="translate(16)">
        <path d="M13.2774,22.9525 L10.6824,22.9525 C9.3464,22.9525 8.2594,21.8645 8.2594,20.5275 L8.2594,20.3415 C7.6694,20.0805 7.1134,19.7595 6.5944,19.3815 L6.4334,19.4755 C5.2764,20.1425 3.7924,19.7445 3.1234,18.5875 L1.8254,16.3405 C1.5024,15.7795 1.4164,15.1265 1.5834,14.5015 C1.7514,13.8755 2.1524,13.3535 2.7124,13.0295 L2.8714,12.9385 C2.8354,12.6135 2.8174,12.2945 2.8174,11.9765 C2.8174,11.6575 2.8354,11.3385 2.8714,11.0135 L2.7124,10.9225 C2.1524,10.5985 1.7514,10.0765 1.5834,9.4505 C1.4164,8.8255 1.5024,8.1725 1.8254,7.6115 L3.1234,5.3645 C3.7914,4.2075 5.2754,3.8095 6.4334,4.4775 L6.5944,4.5705 C7.1134,4.1925 7.6694,3.8715 8.2594,3.6105 L8.2594,3.4235 C8.2594,2.0865 9.3464,0.9995 10.6824,0.9995 L13.2774,0.9995 C14.6134,0.9995 15.7004,2.0875 15.7004,3.4245 L15.7004,3.6105 C16.2904,3.8715 16.8464,4.1925 17.3654,4.5705 L17.5264,4.4775 C18.6834,3.8105 20.1684,4.2075 20.8364,5.3645 L22.1344,7.6115 C22.4574,8.1725 22.5434,8.8255 22.3764,9.4505 C22.2094,10.0765 21.8074,10.5985 21.2474,10.9225 L21.0884,11.0135 C21.1244,11.3385 21.1424,11.6575 21.1424,11.9765 C21.1424,12.2945 21.1244,12.6135 21.0884,12.9385 L21.2474,13.0295 C21.8074,13.3535 22.2094,13.8755 22.3764,14.5015 C22.5434,15.1265 22.4574,15.7795 22.1344,16.3405 L20.8364,18.5875 C20.1684,19.7445 18.6844,20.1425 17.5264,19.4755 L17.3654,19.3815 C16.8464,19.7595 16.2904,20.0805 15.7004,20.3415 L15.7004,20.5285 C15.7004,21.8655 14.6134,22.9525 13.2774,22.9525 Z M11.98,6.976 C9.219,6.976 6.98,9.215 6.98,11.976 C6.98,14.737 9.219,16.976 11.98,16.976 C14.741,16.976 16.98,14.737 16.98,11.976 C16.98,9.215 14.741,6.976 11.98,6.976 Z M11.98,8.976 C13.634,8.976 14.98,10.322 14.98,11.976 C14.98,13.63 13.634,14.976 11.98,14.976 C10.326,14.976 8.98,13.63 8.98,11.976 C8.98,10.322 10.326,8.976 11.98,8.976 Z"/>
        <use fill="#A9B6BE" xlink:href="#4-c"/>
      </g>
    </g>
    <g transform="translate(196 8)">
      <path fill="#798893" fill-rule="nonzero" d="M7.27636716,28.3945312 L4.53417966,28.3945312 L4.53417966,36 L3.41503903,36 L3.41503903,28.3945312 L0.678710908,28.3945312 L0.678710908,27.46875 L7.27636716,27.46875 L7.27636716,28.3945312 Z M10.8228515,36.1171875 C9.96347224,36.1171875 9.26426048,35.8349638 8.72519529,35.2705078 C8.18613009,34.7060519 7.91660154,33.9511766 7.91660154,33.0058594 L7.91660154,32.8066406 C7.91660154,32.1777312 8.03671752,31.6162134 8.2769531,31.1220703 C8.51718868,30.6279272 8.85312282,30.2412123 9.2847656,29.9619141 C9.71640838,29.6826158 10.1841771,29.5429688 10.6880859,29.5429688 C11.5123088,29.5429688 12.1529274,29.8144504 12.6099609,30.3574219 C13.0669944,30.9003933 13.2955078,31.6777293 13.2955078,32.6894531 L13.2955078,33.140625 L9.00058591,33.140625 C9.01621099,33.7656281 9.19882635,34.2705059 9.54843748,34.6552734 C9.8980486,35.040041 10.3423801,35.2324219 10.8814453,35.2324219 C11.2642597,35.2324219 11.5884752,35.1542977 11.8541015,34.9980469 C12.1197279,34.8417961 12.3521474,34.6347669 12.5513672,34.3769531 L13.2134765,34.8925781 C12.6822239,35.7089885 11.8853569,36.1171875 10.8228515,36.1171875 Z M10.6880859,30.4335938 C10.2505837,30.4335938 9.8833999,30.5927718 9.58652341,30.9111328 C9.28964693,31.2294938 9.10605502,31.6757784 9.03574216,32.25 L12.2115234,32.25 L12.2115234,32.1679688 C12.1802733,31.6171847 12.0318372,31.1904312 11.7662109,30.8876953 C11.5005846,30.5849594 11.1412132,30.4335938 10.6880859,30.4335938 Z M17.0763672,31.9746094 L18.4826172,29.6601562 L19.7482422,29.6601562 L17.6740234,32.7949219 L19.8126953,36 L18.558789,36 L17.0939453,33.6269531 L15.6291015,36 L14.3693359,36 L16.5080078,32.7949219 L14.433789,29.6601562 L15.6876953,29.6601562 L17.0763672,31.9746094 Z M22.7673828,28.125 L22.7673828,29.6601562 L23.9509766,29.6601562 L23.9509766,30.4980469 L22.7673828,30.4980469 L22.7673828,34.4296875 C22.7673828,34.683595 22.8201166,34.8740228 22.9255859,35.0009766 C23.0310552,35.1279303 23.2107409,35.1914062 23.4646484,35.1914062 C23.5896491,35.1914062 23.7615223,35.167969 23.9802734,35.1210938 L23.9802734,36 C23.6951157,36.0781254 23.4177748,36.1171875 23.1482422,36.1171875 C22.6638648,36.1171875 22.298634,35.9707046 22.0525391,35.6777344 C21.8064441,35.3847642 21.6833984,34.9687527 21.6833984,34.4296875 L21.6833984,30.4980469 L20.5291016,30.4980469 L20.5291016,29.6601562 L21.6833984,29.6601562 L21.6833984,28.125 L22.7673828,28.125 Z M30.1650391,36 L29.0810547,36 L29.0810547,27 L30.1650391,27 L30.1650391,36 Z M36.2134766,36 C36.1509763,35.8749994 36.1001955,35.6523454 36.0611328,35.3320312 C35.557224,35.8554714 34.9556676,36.1171875 34.2564453,36.1171875 C33.6314422,36.1171875 33.118752,35.9404315 32.7183594,35.5869141 C32.3179668,35.2333967 32.1177734,34.785159 32.1177734,34.2421875 C32.1177734,33.5820279 32.3687475,33.0693378 32.8707031,32.7041016 C33.3726588,32.3388654 34.0787064,32.15625 34.9888672,32.15625 L36.0435547,32.15625 L36.0435547,31.6582031 C36.0435547,31.279295 35.9302746,30.9775402 35.7037109,30.7529297 C35.4771473,30.5283192 35.1431663,30.4160156 34.7017578,30.4160156 C34.3150371,30.4160156 33.9908216,30.5136709 33.7291016,30.7089844 C33.4673815,30.9042979 33.3365234,31.1406236 33.3365234,31.4179688 L32.2466797,31.4179688 C32.2466797,31.1015609 32.3589833,30.7958999 32.5835938,30.5009766 C32.8082043,30.2060532 33.1128887,29.9726571 33.4976563,29.8007812 C33.8824238,29.6289054 34.3052711,29.5429688 34.7662109,29.5429688 C35.4966833,29.5429688 36.0689432,29.7255841 36.4830078,30.0908203 C36.8970724,30.4560565 37.111914,30.9589812 37.1275391,31.5996094 L37.1275391,34.5175781 C37.1275391,35.0996123 37.2017571,35.5624983 37.3501953,35.90625 L37.3501953,36 L36.2134766,36 Z M34.4146484,35.1738281 C34.7544939,35.1738281 35.0767563,35.0859384 35.3814453,34.9101562 C35.6861343,34.7343741 35.9068353,34.5058608 36.0435547,34.2246094 L36.0435547,32.9238281 L35.1939453,32.9238281 C33.8658137,32.9238281 33.2017578,33.3124961 33.2017578,34.0898438 C33.2017578,34.4296892 33.3150379,34.6953115 33.5416016,34.8867188 C33.7681652,35.078126 34.0591779,35.1738281 34.4146484,35.1738281 Z M44.5939453,32.9003906 C44.5939453,33.8691455 44.3712913,34.647458 43.9259766,35.2353516 C43.4806618,35.8232451 42.8830116,36.1171875 42.1330078,36.1171875 C41.3322226,36.1171875 40.7130881,35.8339872 40.2755859,35.2675781 L40.2228516,36 L39.2267578,36 L39.2267578,27 L40.3107422,27 L40.3107422,30.3574219 C40.7482444,29.8144504 41.351754,29.5429688 42.1212891,29.5429688 C42.8908242,29.5429688 43.4953103,29.8339815 43.9347656,30.4160156 C44.374221,30.9980498 44.5939453,31.7949168 44.5939453,32.8066406 L44.5939453,32.9003906 Z M43.5099609,32.7773438 C43.5099609,32.0390588 43.3673843,31.468752 43.0822266,31.0664062 C42.7970689,30.6640605 42.3869168,30.4628906 41.8517578,30.4628906 C41.1369105,30.4628906 40.6232438,30.7949186 40.3107422,31.4589844 L40.3107422,34.2011719 C40.6427751,34.8652377 41.1603481,35.1972656 41.8634766,35.1972656 C42.3830104,35.1972656 42.7873033,34.9960958 43.0763672,34.59375 C43.3654311,34.1914042 43.5099609,33.5859415 43.5099609,32.7773438 Z M48.9900391,36.1171875 C48.1306598,36.1171875 47.431448,35.8349638 46.8923828,35.2705078 C46.3533176,34.7060519 46.0837891,33.9511766 46.0837891,33.0058594 L46.0837891,32.8066406 C46.0837891,32.1777312 46.2039051,31.6162134 46.4441406,31.1220703 C46.6843762,30.6279272 47.0203104,30.2412123 47.4519531,29.9619141 C47.8835959,29.6826158 48.3513647,29.5429688 48.8552735,29.5429688 C49.6794963,29.5429688 50.3201149,29.8144504 50.7771485,30.3574219 C51.234182,30.9003933 51.4626953,31.6777293 51.4626953,32.6894531 L51.4626953,33.140625 L47.1677735,33.140625 C47.1833985,33.7656281 47.3660139,34.2705059 47.715625,34.6552734 C48.0652361,35.040041 48.5095676,35.2324219 49.0486328,35.2324219 C49.4314472,35.2324219 49.7556628,35.1542977 50.0212891,34.9980469 C50.2869154,34.8417961 50.519335,34.6347669 50.7185547,34.3769531 L51.3806641,34.8925781 C50.8494114,35.7089885 50.0525444,36.1171875 48.9900391,36.1171875 Z M48.8552735,30.4335938 C48.4177713,30.4335938 48.0505874,30.5927718 47.753711,30.9111328 C47.4568345,31.2294938 47.2732426,31.6757784 47.2029297,32.25 L50.378711,32.25 L50.378711,32.1679688 C50.3474608,31.6171847 50.1990248,31.1904312 49.9333985,30.8876953 C49.6677721,30.5849594 49.3084007,30.4335938 48.8552735,30.4335938 Z M54.294336,36 L53.2103516,36 L53.2103516,27 L54.294336,27 L54.294336,36 Z"/>
      <g transform="translate(16)">
        <path d="M15.0936379,20.15 C14.965877,21.6874228 13.6726388,22.9006 12.102,22.9006 C10.5313612,22.9006 9.23812303,21.6874228 9.11036213,20.15 L4.42443783,20.15 C3.69443783,20.15 3.03743783,19.745 2.70843783,19.095 C2.37943783,18.444 2.44343783,17.675 2.87543783,17.088 L3.60643783,16.092 L3.60643783,11.466 C3.60643783,7.97 5.73843783,4.862 8.86843783,3.661 C9.05243783,2.028 10.4254378,0.75 12.1064378,0.75 C13.7874378,0.75 15.1604378,2.028 15.3444378,3.661 C18.4754378,4.862 20.6064378,7.97 20.6064378,11.466 L20.6064378,16.169 L21.2224378,17.318 C21.5454378,17.919 21.5294378,18.628 21.1784378,19.214 C20.8284378,19.8 20.2124378,20.15 19.5294378,20.15 L15.0936379,20.15 Z"/>
        <use fill="#A9B6BE" xlink:href="#4-d"/>
      </g>
    </g>
    <g transform="translate(108 8)">
      <path fill="#798893" fill-rule="nonzero" d="M7.27636716,28.3945312 L4.53417966,28.3945312 L4.53417966,36 L3.41503903,36 L3.41503903,28.3945312 L0.678710908,28.3945312 L0.678710908,27.46875 L7.27636716,27.46875 L7.27636716,28.3945312 Z M10.8228515,36.1171875 C9.96347224,36.1171875 9.26426048,35.8349638 8.72519529,35.2705078 C8.18613009,34.7060519 7.91660154,33.9511766 7.91660154,33.0058594 L7.91660154,32.8066406 C7.91660154,32.1777312 8.03671752,31.6162134 8.2769531,31.1220703 C8.51718868,30.6279272 8.85312282,30.2412123 9.2847656,29.9619141 C9.71640838,29.6826158 10.1841771,29.5429688 10.6880859,29.5429688 C11.5123088,29.5429688 12.1529274,29.8144504 12.6099609,30.3574219 C13.0669944,30.9003933 13.2955078,31.6777293 13.2955078,32.6894531 L13.2955078,33.140625 L9.00058591,33.140625 C9.01621099,33.7656281 9.19882635,34.2705059 9.54843748,34.6552734 C9.8980486,35.040041 10.3423801,35.2324219 10.8814453,35.2324219 C11.2642597,35.2324219 11.5884752,35.1542977 11.8541015,34.9980469 C12.1197279,34.8417961 12.3521474,34.6347669 12.5513672,34.3769531 L13.2134765,34.8925781 C12.6822239,35.7089885 11.8853569,36.1171875 10.8228515,36.1171875 Z M10.6880859,30.4335938 C10.2505837,30.4335938 9.8833999,30.5927718 9.58652341,30.9111328 C9.28964693,31.2294938 9.10605502,31.6757784 9.03574216,32.25 L12.2115234,32.25 L12.2115234,32.1679688 C12.1802733,31.6171847 12.0318372,31.1904312 11.7662109,30.8876953 C11.5005846,30.5849594 11.1412132,30.4335938 10.6880859,30.4335938 Z M17.0763672,31.9746094 L18.4826172,29.6601562 L19.7482422,29.6601562 L17.6740234,32.7949219 L19.8126953,36 L18.558789,36 L17.0939453,33.6269531 L15.6291015,36 L14.3693359,36 L16.5080078,32.7949219 L14.433789,29.6601562 L15.6876953,29.6601562 L17.0763672,31.9746094 Z M22.7673828,28.125 L22.7673828,29.6601562 L23.9509766,29.6601562 L23.9509766,30.4980469 L22.7673828,30.4980469 L22.7673828,34.4296875 C22.7673828,34.683595 22.8201166,34.8740228 22.9255859,35.0009766 C23.0310552,35.1279303 23.2107409,35.1914062 23.4646484,35.1914062 C23.5896491,35.1914062 23.7615223,35.167969 23.9802734,35.1210938 L23.9802734,36 C23.6951157,36.0781254 23.4177748,36.1171875 23.1482422,36.1171875 C22.6638648,36.1171875 22.298634,35.9707046 22.0525391,35.6777344 C21.8064441,35.3847642 21.6833984,34.9687527 21.6833984,34.4296875 L21.6833984,30.4980469 L20.5291016,30.4980469 L20.5291016,29.6601562 L21.6833984,29.6601562 L21.6833984,28.125 L22.7673828,28.125 Z M30.1650391,36 L29.0810547,36 L29.0810547,27 L30.1650391,27 L30.1650391,36 Z M36.2134766,36 C36.1509763,35.8749994 36.1001955,35.6523454 36.0611328,35.3320312 C35.557224,35.8554714 34.9556676,36.1171875 34.2564453,36.1171875 C33.6314422,36.1171875 33.118752,35.9404315 32.7183594,35.5869141 C32.3179668,35.2333967 32.1177734,34.785159 32.1177734,34.2421875 C32.1177734,33.5820279 32.3687475,33.0693378 32.8707031,32.7041016 C33.3726588,32.3388654 34.0787064,32.15625 34.9888672,32.15625 L36.0435547,32.15625 L36.0435547,31.6582031 C36.0435547,31.279295 35.9302746,30.9775402 35.7037109,30.7529297 C35.4771473,30.5283192 35.1431663,30.4160156 34.7017578,30.4160156 C34.3150371,30.4160156 33.9908216,30.5136709 33.7291016,30.7089844 C33.4673815,30.9042979 33.3365234,31.1406236 33.3365234,31.4179688 L32.2466797,31.4179688 C32.2466797,31.1015609 32.3589833,30.7958999 32.5835938,30.5009766 C32.8082043,30.2060532 33.1128887,29.9726571 33.4976563,29.8007812 C33.8824238,29.6289054 34.3052711,29.5429688 34.7662109,29.5429688 C35.4966833,29.5429688 36.0689432,29.7255841 36.4830078,30.0908203 C36.8970724,30.4560565 37.111914,30.9589812 37.1275391,31.5996094 L37.1275391,34.5175781 C37.1275391,35.0996123 37.2017571,35.5624983 37.3501953,35.90625 L37.3501953,36 L36.2134766,36 Z M34.4146484,35.1738281 C34.7544939,35.1738281 35.0767563,35.0859384 35.3814453,34.9101562 C35.6861343,34.7343741 35.9068353,34.5058608 36.0435547,34.2246094 L36.0435547,32.9238281 L35.1939453,32.9238281 C33.8658137,32.9238281 33.2017578,33.3124961 33.2017578,34.0898438 C33.2017578,34.4296892 33.3150379,34.6953115 33.5416016,34.8867188 C33.7681652,35.078126 34.0591779,35.1738281 34.4146484,35.1738281 Z M44.5939453,32.9003906 C44.5939453,33.8691455 44.3712913,34.647458 43.9259766,35.2353516 C43.4806618,35.8232451 42.8830116,36.1171875 42.1330078,36.1171875 C41.3322226,36.1171875 40.7130881,35.8339872 40.2755859,35.2675781 L40.2228516,36 L39.2267578,36 L39.2267578,27 L40.3107422,27 L40.3107422,30.3574219 C40.7482444,29.8144504 41.351754,29.5429688 42.1212891,29.5429688 C42.8908242,29.5429688 43.4953103,29.8339815 43.9347656,30.4160156 C44.374221,30.9980498 44.5939453,31.7949168 44.5939453,32.8066406 L44.5939453,32.9003906 Z M43.5099609,32.7773438 C43.5099609,32.0390588 43.3673843,31.468752 43.0822266,31.0664062 C42.7970689,30.6640605 42.3869168,30.4628906 41.8517578,30.4628906 C41.1369105,30.4628906 40.6232438,30.7949186 40.3107422,31.4589844 L40.3107422,34.2011719 C40.6427751,34.8652377 41.1603481,35.1972656 41.8634766,35.1972656 C42.3830104,35.1972656 42.7873033,34.9960958 43.0763672,34.59375 C43.3654311,34.1914042 43.5099609,33.5859415 43.5099609,32.7773438 Z M48.9900391,36.1171875 C48.1306598,36.1171875 47.431448,35.8349638 46.8923828,35.2705078 C46.3533176,34.7060519 46.0837891,33.9511766 46.0837891,33.0058594 L46.0837891,32.8066406 C46.0837891,32.1777312 46.2039051,31.6162134 46.4441406,31.1220703 C46.6843762,30.6279272 47.0203104,30.2412123 47.4519531,29.9619141 C47.8835959,29.6826158 48.3513647,29.5429688 48.8552735,29.5429688 C49.6794963,29.5429688 50.3201149,29.8144504 50.7771485,30.3574219 C51.234182,30.9003933 51.4626953,31.6777293 51.4626953,32.6894531 L51.4626953,33.140625 L47.1677735,33.140625 C47.1833985,33.7656281 47.3660139,34.2705059 47.715625,34.6552734 C48.0652361,35.040041 48.5095676,35.2324219 49.0486328,35.2324219 C49.4314472,35.2324219 49.7556628,35.1542977 50.0212891,34.9980469 C50.2869154,34.8417961 50.519335,34.6347669 50.7185547,34.3769531 L51.3806641,34.8925781 C50.8494114,35.7089885 50.0525444,36.1171875 48.9900391,36.1171875 Z M48.8552735,30.4335938 C48.4177713,30.4335938 48.0505874,30.5927718 47.753711,30.9111328 C47.4568345,31.2294938 47.2732426,31.6757784 47.2029297,32.25 L50.378711,32.25 L50.378711,32.1679688 C50.3474608,31.6171847 50.1990248,31.1904312 49.9333985,30.8876953 C49.6677721,30.5849594 49.3084007,30.4335938 48.8552735,30.4335938 Z M54.294336,36 L53.2103516,36 L53.2103516,27 L54.294336,27 L54.294336,36 Z"/>
      <g transform="translate(16)">
        <path d="M11.7680169,22.9975941 C11.8451508,22.9991981 11.9224818,23 12,23 C12.1791381,23 12.3572762,22.9957176 12.5343176,22.9872495 L12.5342927,22.9871506 C12.3572948,22.9956832 12.1791666,23 12,23 C11.9199826,23 11.8401724,22.999139 11.7605774,22.9974259 C5.79613338,22.8700797 1,17.9949945 1,12 C1,5.925 5.925,1 12,1 C18.075,1 23,5.925 23,12 C23,18.075 18.075,23 12,23 C11.9224823,23 11.8451519,22.9991981 11.7680165,22.9976022 Z M18.8133997,17.8740877 C17.6291168,15.292895 15.0255789,13.5 12,13.5 C8.97442111,13.5 6.3708832,15.292895 5.18660033,17.8740877 C6.83836535,19.7872936 9.28039884,21 12,21 C14.7196012,21 17.1616346,19.7872936 18.8133997,17.8740877 Z M12,12 C14.206,12 16,10.206 16,8 C16,5.794 14.206,4 12,4 C9.794,4 8,5.794 8,8 C8,10.206 9.794,12 12,12 Z M12,6 C13.103,6 14,6.897 14,8 C14,9.103 13.103,10 12,10 C10.897,10 10,9.103 10,8 C10,6.897 10.897,6 12,6 Z M12,15.5 C14.42,15.5 16.514,17.08 17.23,19.311 C15.707,20.406 13.886,21 12,21 C10.114,21 8.293,20.406 6.77,19.311 C7.486,17.08 9.58,15.5 12,15.5 Z"/>
        <path fill="#A9B6BE" d="M18.8133997,17.8740877 C20.1753332,16.2965877 21,14.2428508 21,12 C21,7.037 16.962,3 12,3 C7.038,3 3,7.037 3,12 C3,14.2428508 3.82466681,16.2965877 5.18660033,17.8740877 C6.3708832,15.292895 8.97442111,13.5 12,13.5 C15.0255789,13.5 17.6291168,15.292895 18.8133997,17.8740877 Z M12,1 C18.075,1 23,5.925 23,12 C23,18.075 18.075,23 12,23 C5.925,23 1,18.075 1,12 C1,5.925 5.925,1 12,1 Z M12,15.5 C9.58,15.5 7.486,17.08 6.77,19.311 C8.293,20.406 10.114,21 12,21 C13.886,21 15.707,20.406 17.23,19.311 C16.514,17.08 14.42,15.5 12,15.5 Z M12,6 C10.897,6 10,6.897 10,8 C10,9.103 10.897,10 12,10 C13.103,10 14,9.103 14,8 C14,6.897 13.103,6 12,6 Z M12,12 C9.794,12 8,10.206 8,8 C8,5.794 9.794,4 12,4 C14.206,4 16,5.794 16,8 C16,10.206 14.206,12 12,12 Z"/>
      </g>
    </g>
    <g transform="translate(20 8)">
      <path fill="#314351" fill-rule="nonzero" d="M7.27636716,28.3945312 L4.53417966,28.3945312 L4.53417966,36 L3.41503903,36 L3.41503903,28.3945312 L0.678710908,28.3945312 L0.678710908,27.46875 L7.27636716,27.46875 L7.27636716,28.3945312 Z M10.8228515,36.1171875 C9.96347224,36.1171875 9.26426048,35.8349638 8.72519529,35.2705078 C8.18613009,34.7060519 7.91660154,33.9511766 7.91660154,33.0058594 L7.91660154,32.8066406 C7.91660154,32.1777312 8.03671752,31.6162134 8.2769531,31.1220703 C8.51718868,30.6279272 8.85312282,30.2412123 9.2847656,29.9619141 C9.71640838,29.6826158 10.1841771,29.5429688 10.6880859,29.5429688 C11.5123088,29.5429688 12.1529274,29.8144504 12.6099609,30.3574219 C13.0669944,30.9003933 13.2955078,31.6777293 13.2955078,32.6894531 L13.2955078,33.140625 L9.00058591,33.140625 C9.01621099,33.7656281 9.19882635,34.2705059 9.54843748,34.6552734 C9.8980486,35.040041 10.3423801,35.2324219 10.8814453,35.2324219 C11.2642597,35.2324219 11.5884752,35.1542977 11.8541015,34.9980469 C12.1197279,34.8417961 12.3521474,34.6347669 12.5513672,34.3769531 L13.2134765,34.8925781 C12.6822239,35.7089885 11.8853569,36.1171875 10.8228515,36.1171875 Z M10.6880859,30.4335938 C10.2505837,30.4335938 9.8833999,30.5927718 9.58652341,30.9111328 C9.28964693,31.2294938 9.10605502,31.6757784 9.03574216,32.25 L12.2115234,32.25 L12.2115234,32.1679688 C12.1802733,31.6171847 12.0318372,31.1904312 11.7662109,30.8876953 C11.5005846,30.5849594 11.1412132,30.4335938 10.6880859,30.4335938 Z M17.0763672,31.9746094 L18.4826172,29.6601562 L19.7482422,29.6601562 L17.6740234,32.7949219 L19.8126953,36 L18.558789,36 L17.0939453,33.6269531 L15.6291015,36 L14.3693359,36 L16.5080078,32.7949219 L14.433789,29.6601562 L15.6876953,29.6601562 L17.0763672,31.9746094 Z M22.7673828,28.125 L22.7673828,29.6601562 L23.9509766,29.6601562 L23.9509766,30.4980469 L22.7673828,30.4980469 L22.7673828,34.4296875 C22.7673828,34.683595 22.8201166,34.8740228 22.9255859,35.0009766 C23.0310552,35.1279303 23.2107409,35.1914062 23.4646484,35.1914062 C23.5896491,35.1914062 23.7615223,35.167969 23.9802734,35.1210938 L23.9802734,36 C23.6951157,36.0781254 23.4177748,36.1171875 23.1482422,36.1171875 C22.6638648,36.1171875 22.298634,35.9707046 22.0525391,35.6777344 C21.8064441,35.3847642 21.6833984,34.9687527 21.6833984,34.4296875 L21.6833984,30.4980469 L20.5291016,30.4980469 L20.5291016,29.6601562 L21.6833984,29.6601562 L21.6833984,28.125 L22.7673828,28.125 Z M30.1650391,36 L29.0810547,36 L29.0810547,27 L30.1650391,27 L30.1650391,36 Z M36.2134766,36 C36.1509763,35.8749994 36.1001955,35.6523454 36.0611328,35.3320312 C35.557224,35.8554714 34.9556676,36.1171875 34.2564453,36.1171875 C33.6314422,36.1171875 33.118752,35.9404315 32.7183594,35.5869141 C32.3179668,35.2333967 32.1177734,34.785159 32.1177734,34.2421875 C32.1177734,33.5820279 32.3687475,33.0693378 32.8707031,32.7041016 C33.3726588,32.3388654 34.0787064,32.15625 34.9888672,32.15625 L36.0435547,32.15625 L36.0435547,31.6582031 C36.0435547,31.279295 35.9302746,30.9775402 35.7037109,30.7529297 C35.4771473,30.5283192 35.1431663,30.4160156 34.7017578,30.4160156 C34.3150371,30.4160156 33.9908216,30.5136709 33.7291016,30.7089844 C33.4673815,30.9042979 33.3365234,31.1406236 33.3365234,31.4179688 L32.2466797,31.4179688 C32.2466797,31.1015609 32.3589833,30.7958999 32.5835938,30.5009766 C32.8082043,30.2060532 33.1128887,29.9726571 33.4976563,29.8007812 C33.8824238,29.6289054 34.3052711,29.5429688 34.7662109,29.5429688 C35.4966833,29.5429688 36.0689432,29.7255841 36.4830078,30.0908203 C36.8970724,30.4560565 37.111914,30.9589812 37.1275391,31.5996094 L37.1275391,34.5175781 C37.1275391,35.0996123 37.2017571,35.5624983 37.3501953,35.90625 L37.3501953,36 L36.2134766,36 Z M34.4146484,35.1738281 C34.7544939,35.1738281 35.0767563,35.0859384 35.3814453,34.9101562 C35.6861343,34.7343741 35.9068353,34.5058608 36.0435547,34.2246094 L36.0435547,32.9238281 L35.1939453,32.9238281 C33.8658137,32.9238281 33.2017578,33.3124961 33.2017578,34.0898438 C33.2017578,34.4296892 33.3150379,34.6953115 33.5416016,34.8867188 C33.7681652,35.078126 34.0591779,35.1738281 34.4146484,35.1738281 Z M44.5939453,32.9003906 C44.5939453,33.8691455 44.3712913,34.647458 43.9259766,35.2353516 C43.4806618,35.8232451 42.8830116,36.1171875 42.1330078,36.1171875 C41.3322226,36.1171875 40.7130881,35.8339872 40.2755859,35.2675781 L40.2228516,36 L39.2267578,36 L39.2267578,27 L40.3107422,27 L40.3107422,30.3574219 C40.7482444,29.8144504 41.351754,29.5429688 42.1212891,29.5429688 C42.8908242,29.5429688 43.4953103,29.8339815 43.9347656,30.4160156 C44.374221,30.9980498 44.5939453,31.7949168 44.5939453,32.8066406 L44.5939453,32.9003906 Z M43.5099609,32.7773438 C43.5099609,32.0390588 43.3673843,31.468752 43.0822266,31.0664062 C42.7970689,30.6640605 42.3869168,30.4628906 41.8517578,30.4628906 C41.1369105,30.4628906 40.6232438,30.7949186 40.3107422,31.4589844 L40.3107422,34.2011719 C40.6427751,34.8652377 41.1603481,35.1972656 41.8634766,35.1972656 C42.3830104,35.1972656 42.7873033,34.9960958 43.0763672,34.59375 C43.3654311,34.1914042 43.5099609,33.5859415 43.5099609,32.7773438 Z M48.9900391,36.1171875 C48.1306598,36.1171875 47.431448,35.8349638 46.8923828,35.2705078 C46.3533176,34.7060519 46.0837891,33.9511766 46.0837891,33.0058594 L46.0837891,32.8066406 C46.0837891,32.1777312 46.2039051,31.6162134 46.4441406,31.1220703 C46.6843762,30.6279272 47.0203104,30.2412123 47.4519531,29.9619141 C47.8835959,29.6826158 48.3513647,29.5429688 48.8552735,29.5429688 C49.6794963,29.5429688 50.3201149,29.8144504 50.7771485,30.3574219 C51.234182,30.9003933 51.4626953,31.6777293 51.4626953,32.6894531 L51.4626953,33.140625 L47.1677735,33.140625 C47.1833985,33.7656281 47.3660139,34.2705059 47.715625,34.6552734 C48.0652361,35.040041 48.5095676,35.2324219 49.0486328,35.2324219 C49.4314472,35.2324219 49.7556628,35.1542977 50.0212891,34.9980469 C50.2869154,34.8417961 50.519335,34.6347669 50.7185547,34.3769531 L51.3806641,34.8925781 C50.8494114,35.7089885 50.0525444,36.1171875 48.9900391,36.1171875 Z M48.8552735,30.4335938 C48.4177713,30.4335938 48.0505874,30.5927718 47.753711,30.9111328 C47.4568345,31.2294938 47.2732426,31.6757784 47.2029297,32.25 L50.378711,32.25 L50.378711,32.1679688 C50.3474608,31.6171847 50.1990248,31.1904312 49.9333985,30.8876953 C49.6677721,30.5849594 49.3084007,30.4335938 48.8552735,30.4335938 Z M54.294336,36 L53.2103516,36 L53.2103516,27 L54.294336,27 L54.294336,36 Z"/>
      <g transform="translate(16)">
        <path fill="#D9E4EA" d="M23.1318492,9.758 L13.9978492,2.304 C12.8848492,1.232 11.1148492,1.232 10.0018492,2.304 L0.867849181,9.758 C0.439849181,10.107 0.375849181,10.737 0.725849181,11.164 C1.07284918,11.591 1.70284918,11.658 2.13184918,11.307 L2.49984918,11.006 L2.49984918,20.028 C2.49984918,21.408 3.62384918,22.532 5.00484918,22.532 L7.99484918,22.532 C9.37584918,22.532 10.4998492,21.408 10.4998492,20.028 L10.4998492,17.036 C10.4998492,16.758 10.7258492,16.532 11.0028492,16.532 L12.9968492,16.532 C13.2748492,16.532 13.4998492,16.758 13.4998492,17.036 L13.4998492,20.028 C13.4998492,21.408 14.6238492,22.532 16.0048492,22.532 L18.9948492,22.532 C20.3758492,22.532 21.4998492,21.408 21.4998492,20.028 L21.4998492,11.006 L21.8678492,11.307 C22.0538492,11.459 22.2778492,11.532 22.4988492,11.532 C22.7888492,11.532 23.0768492,11.406 23.2748492,11.164 C23.6238492,10.737 23.5608492,10.107 23.1318492,9.758"/>
        <use fill="#314351" xlink:href="#4-e"/>
      </g>
    </g>
    <g transform="translate(102 76)">
      <rect width="24" height="24" fill="#FFF" rx="2"/>
      <path fill="#C41261" d="M30.7916919,9.8 L30.7916919,16.4111111 L29.8684552,16.4111111 L29.8684552,9.8 L28,9.8 L28,9 L32.6491562,9 L32.6491562,9.8 L30.7916919,9.8 Z M37.4192125,12.1333333 L37.4192125,11.2888889 L38.2545219,11.2888889 L38.2545219,16.4111111 L37.4192125,16.4111111 L37.4192125,15.4222222 C36.9136305,16.1888889 36.342103,16.5333333 35.5727391,16.5333333 C34.1768931,16.5333333 33.1877109,15.4222222 33.1877109,13.8666667 C33.1877109,12.3 34.1988749,11.1666667 35.5947209,11.1666667 C36.3640848,11.1666667 36.9246214,11.4666667 37.4192125,12.1333333 Z M35.7156209,11.9222222 C35.1660753,11.9222222 34.7813933,12.1111111 34.4846387,12.5333333 C34.2208568,12.9 34.066984,13.3888889 34.066984,13.8888889 C34.066984,14.9777778 34.7704024,15.8 35.6936391,15.8 C36.6498486,15.8 37.4302034,14.9 37.4302034,13.8 C37.4302034,12.6888889 36.7267849,11.9222222 35.7156209,11.9222222 Z M40.7714409,15.5333333 L40.7714409,16.4111111 L39.9361315,16.4111111 L39.9361315,9 L40.7714409,9 L40.7714409,12.1666667 C41.2770229,11.4666667 41.8155777,11.1666667 42.5519688,11.1666667 C43.9697966,11.1666667 44.9589788,12.2777778 44.9589788,13.8666667 C44.9589788,15.4333333 43.9807875,16.5333333 42.5959325,16.5333333 C41.8155777,16.5333333 41.266032,16.2333333 40.7714409,15.5333333 Z M42.4420597,11.9222222 C41.4748594,11.9222222 40.76045,12.7333333 40.76045,13.8555556 C40.76045,15.0222222 41.4199048,15.8 42.409087,15.8 C43.4092601,15.8 44.0797058,15.0333333 44.0797058,13.8888889 C44.0797058,12.7444444 43.3982691,11.9222222 42.4420597,11.9222222 Z M49.608135,9 L51.6744267,9 C53.1691908,9 54.0154911,9.71111111 54.0154911,10.9666667 C54.0154911,11.4444444 53.8726093,11.8666667 53.5978364,12.1777778 C53.4219818,12.3888889 53.2461272,12.5 52.8504543,12.6555556 C53.2571181,12.7444444 53.4549546,12.8222222 53.6857637,13 C54.0814366,13.3222222 54.290264,13.8222222 54.290264,14.4222222 C54.290264,15.1111111 53.9935093,15.7111111 53.4989182,16.0333333 C53.0702726,16.3111111 52.5976633,16.4111111 51.6744267,16.4111111 L49.608135,16.4111111 L49.608135,9 Z M50.5313717,9.76666667 L50.5313717,12.3333333 L51.4655993,12.3222222 C52.0481177,12.3222222 52.3998269,12.2444444 52.6636088,12.0333333 C52.9493726,11.8 53.1142363,11.4222222 53.1142363,11.0111111 C53.1142363,10.5333333 52.8834271,10.1111111 52.5317179,9.94444444 C52.267936,9.81111111 51.9601904,9.76666667 51.2897447,9.76666667 L50.5313717,9.76666667 Z M50.5313717,13.0888889 L50.5313717,15.6555556 L51.4546084,15.6555556 C52.2239723,15.6555556 52.520727,15.6 52.8394634,15.4111111 C53.1911727,15.2111111 53.3670273,14.8555556 53.3670273,14.3666667 C53.3670273,13.4777778 52.8504543,13.0888889 51.6854176,13.0888889 L50.5313717,13.0888889 Z M59.4120294,12.1333333 L59.4120294,11.2888889 L60.2473388,11.2888889 L60.2473388,16.4111111 L59.4120294,16.4111111 L59.4120294,15.4222222 C58.9064474,16.1888889 58.3349199,16.5333333 57.565556,16.5333333 C56.1697101,16.5333333 55.1805279,15.4222222 55.1805279,13.8666667 C55.1805279,12.3 56.1916919,11.1666667 57.5875379,11.1666667 C58.3569018,11.1666667 58.9174383,11.4666667 59.4120294,12.1333333 Z M57.7084379,11.9222222 C57.1588923,11.9222222 56.7742103,12.1111111 56.4774556,12.5333333 C56.2136737,12.9 56.059801,13.3888889 56.059801,13.8888889 C56.059801,14.9777778 56.7632194,15.8 57.6864561,15.8 C58.6426655,15.8 59.4230203,14.9 59.4230203,13.8 C59.4230203,12.6888889 58.7196019,11.9222222 57.7084379,11.9222222 Z M61.9289485,11.2888889 L62.7642579,11.2888889 L62.7642579,12.1555556 C62.9181307,11.7888889 63.0280398,11.6333333 63.2258762,11.4777778 C63.4786672,11.2777778 63.8303765,11.1666667 64.1930766,11.1666667 L64.390913,11.1666667 L64.390913,12.0222222 C64.3029857,12.0111111 64.2150584,12.0111111 64.1601039,12.0111111 C63.7094764,12.0111111 63.3138035,12.2222222 63.0610125,12.6 C62.8411943,12.9222222 62.7642579,13.2222222 62.7642579,13.8111111 L62.7642579,16.4111111 L61.9289485,16.4111111 L61.9289485,11.2888889 Z M68.7982691,9 L70.8645608,9 C72.359325,9 73.2056253,9.71111111 73.2056253,10.9666667 C73.2056253,11.4444444 73.0627434,11.8666667 72.7879706,12.1777778 C72.612116,12.3888889 72.4362614,12.5 72.0405885,12.6555556 C72.4472523,12.7444444 72.6450887,12.8222222 72.8758979,13 C73.2715707,13.3222222 73.4803981,13.8222222 73.4803981,14.4222222 C73.4803981,15.1111111 73.1836434,15.7111111 72.6890524,16.0333333 C72.2604068,16.3111111 71.7877975,16.4111111 70.8645608,16.4111111 L68.7982691,16.4111111 L68.7982691,9 Z M69.7215058,9.76666667 L69.7215058,12.3333333 L70.6557334,12.3222222 C71.2382518,12.3222222 71.5899611,12.2444444 71.853743,12.0333333 C72.1395067,11.8 72.3043704,11.4222222 72.3043704,11.0111111 C72.3043704,10.5333333 72.0735612,10.1111111 71.721852,9.94444444 C71.4580701,9.81111111 71.1503245,9.76666667 70.4798788,9.76666667 L69.7215058,9.76666667 Z M69.7215058,13.0888889 L69.7215058,15.6555556 L70.6447425,15.6555556 C71.4141064,15.6555556 71.7108611,15.6 72.0295976,15.4111111 C72.3813068,15.2111111 72.5571614,14.8555556 72.5571614,14.3666667 C72.5571614,13.4777778 72.0405885,13.0888889 70.8755517,13.0888889 L69.7215058,13.0888889 Z M78.6021636,12.1333333 L78.6021636,11.2888889 L79.437473,11.2888889 L79.437473,16.4111111 L78.6021636,16.4111111 L78.6021636,15.4222222 C78.0965816,16.1888889 77.5250541,16.5333333 76.7556902,16.5333333 C75.3598442,16.5333333 74.3706621,15.4222222 74.3706621,13.8666667 C74.3706621,12.3 75.381826,11.1666667 76.777672,11.1666667 C77.5470359,11.1666667 78.1075725,11.4666667 78.6021636,12.1333333 Z M76.898572,11.9222222 C76.3490264,11.9222222 75.9643444,12.1111111 75.6675898,12.5333333 C75.4038079,12.9 75.2499351,13.3888889 75.2499351,13.8888889 C75.2499351,14.9777778 75.9533535,15.8 76.8765902,15.8 C77.8327997,15.8 78.6131545,14.9 78.6131545,13.8 C78.6131545,12.6888889 77.909736,11.9222222 76.898572,11.9222222 Z M84.5482475,15.2 L85.0648204,15.7777778 C84.4932929,16.3 83.9327564,16.5333333 83.1963652,16.5333333 C81.7455647,16.5333333 80.7124189,15.4222222 80.7124189,13.8666667 C80.7124189,12.2777778 81.7565556,11.1666667 83.2403289,11.1666667 C83.9657291,11.1666667 84.5592384,11.4111111 85.0868023,11.9333333 L84.5482475,12.4777778 C84.1635656,12.1222222 83.7349199,11.9444444 83.2623107,11.9444444 C82.2621376,11.9444444 81.5697101,12.7222222 81.5697101,13.8333333 C81.5697101,14.9666667 82.2621376,15.7555556 83.2513198,15.7555556 C83.7459109,15.7555556 84.1415837,15.5888889 84.5482475,15.2 Z M86.9772393,14.1222222 L86.9772393,16.4111111 L86.1419299,16.4111111 L86.1419299,9 L86.9772393,9 L86.9772393,13.5333333 L88.9995673,11.2888889 L90.0546949,11.2888889 L87.7905669,13.7888889 L90.043704,16.4111111 L88.9995673,16.4111111 L86.9772393,14.1222222 Z M94.7697966,12.1666667 L94.7697966,11.2888889 L95.605106,11.2888889 L95.605106,16.4444444 C95.605106,17.3 95.3962787,17.8777778 94.9346603,18.3222222 C94.4840329,18.7666667 93.835569,19 93.0662051,19 C92.1209866,19 91.3736045,18.6888889 90.8240588,18.0666667 L91.3955863,17.4888889 C91.6263955,17.7333333 91.7363046,17.8333333 91.8791865,17.9333333 C92.1649502,18.1111111 92.6375595,18.2333333 93.0662051,18.2333333 C93.5937689,18.2333333 94.0993509,18.0444444 94.3851147,17.7333333 C94.6379057,17.4555556 94.7697966,17.0444444 94.7697966,16.5111111 L94.7697966,15.4333333 C94.2752055,16.1888889 93.6926871,16.5333333 92.9013414,16.5333333 C91.56045,16.5333333 90.5602769,15.3888889 90.5602769,13.8666667 C90.5602769,13.0444444 90.8570316,12.2555556 91.3626136,11.7666667 C91.7692774,11.3666667 92.318823,11.1666667 92.9672869,11.1666667 C93.7366508,11.1666667 94.2532237,11.4555556 94.7697966,12.1666667 Z M93.1211597,11.9444444 C92.1319775,11.9444444 91.43955,12.7222222 91.43955,13.8333333 C91.43955,14.9333333 92.1429684,15.7555556 93.0991778,15.7555556 C93.582778,15.7555556 94.0553873,15.5222222 94.3851147,15.1333333 C94.6049329,14.8777778 94.7478148,14.3777778 94.7478148,13.8666667 C94.7478148,13.2 94.6488966,12.8444444 94.3521419,12.5111111 C94.0443964,12.1666667 93.5717871,11.9444444 93.1211597,11.9444444 Z M97.2867157,11.2888889 L98.1220251,11.2888889 L98.1220251,12.1555556 C98.2758979,11.7888889 98.385807,11.6333333 98.5836434,11.4777778 C98.8364344,11.2777778 99.1881437,11.1666667 99.5508438,11.1666667 L99.7486802,11.1666667 L99.7486802,12.0222222 C99.6607529,12.0111111 99.5728256,12.0111111 99.5178711,12.0111111 C99.0672436,12.0111111 98.6715707,12.2222222 98.4187797,12.6 C98.1989615,12.9222222 98.1220251,13.2222222 98.1220251,13.8111111 L98.1220251,16.4111111 L97.2867157,16.4111111 L97.2867157,11.2888889 Z M102.969018,11.1666667 C104.463782,11.1666667 105.5299,12.2888889 105.5299,13.8666667 C105.5299,15.3666667 104.386846,16.5333333 102.936045,16.5333333 C101.43029,16.5333333 100.375162,15.4222222 100.375162,13.8444444 C100.375162,12.2555556 101.43029,11.1666667 102.969018,11.1666667 Z M102.969018,11.9444444 C101.924881,11.9444444 101.232453,12.7111111 101.232453,13.8555556 C101.232453,14.9888889 101.924881,15.7555556 102.958027,15.7555556 C103.9582,15.7555556 104.672609,14.9666667 104.672609,13.8555556 C104.672609,12.7111111 103.991173,11.9444444 102.969018,11.9444444 Z M109.750411,11.2888889 L110.596711,11.2888889 L110.596711,14.5666667 C110.596711,15.2666667 110.46482,15.6555556 110.091129,16 C109.717438,16.3444444 109.200865,16.5333333 108.629338,16.5333333 C108.05781,16.5333333 107.530247,16.3333333 107.167547,15.9888889 C106.826828,15.6555556 106.661965,15.1888889 106.661965,14.5666667 L106.661965,11.2888889 L107.497274,11.2888889 L107.497274,14.5444444 C107.497274,15.2666667 107.958892,15.7777778 108.629338,15.7777778 C108.981047,15.7777778 109.321765,15.6333333 109.530593,15.3888889 C109.695457,15.1888889 109.750411,14.9777778 109.750411,14.5666667 L109.750411,11.2888889 Z M112.135439,11.2888889 L112.970749,11.2888889 L112.970749,12.0111111 C113.410385,11.4111111 113.850022,11.1666667 114.476504,11.1666667 C114.938122,11.1666667 115.355777,11.3222222 115.652531,11.5888889 C115.971268,11.9 116.081177,12.2555556 116.081177,12.9555556 L116.081177,16.4111111 L115.245868,16.4111111 L115.245868,13.1444444 C115.245868,12.6888889 115.190913,12.4444444 115.059022,12.2666667 C114.905149,12.0555556 114.608395,11.9222222 114.267676,11.9222222 C113.893985,11.9222222 113.553267,12.0666667 113.300476,12.3555556 C113.058676,12.6222222 112.970749,12.8666667 112.970749,13.2888889 L112.970749,16.4111111 L112.135439,16.4111111 L112.135439,11.2888889 Z M121.521679,12.0666667 L121.521679,9 L122.356988,9 L122.356988,16.4111111 L121.521679,16.4111111 L121.521679,15.5333333 C121.016097,16.2333333 120.477542,16.5333333 119.708178,16.5333333 C118.312332,16.5333333 117.32315,15.4333333 117.32315,13.8777778 C117.32315,12.3222222 118.334314,11.1666667 119.708178,11.1666667 C120.45556,11.1666667 121.027088,11.4444444 121.521679,12.0666667 Z M119.884033,11.9222222 C118.88386,11.9222222 118.202423,12.7222222 118.202423,13.8888889 C118.202423,15.0111111 118.872869,15.8 119.829078,15.8 C120.80727,15.8 121.521679,14.9777778 121.521679,13.8666667 C121.521679,12.7111111 120.851233,11.9222222 119.884033,11.9222222 Z M124.467244,15.3444444 C124.796971,15.3444444 125.038771,15.5888889 125.038771,15.9333333 C125.038771,16.2555556 124.78598,16.5 124.467244,16.5 C124.137516,16.5 123.895716,16.2555556 123.895716,15.9222222 C123.895716,15.5888889 124.137516,15.3444444 124.467244,15.3444444 Z M124.467244,12.1444444 C124.796971,12.1444444 125.038771,12.3888889 125.038771,12.7333333 C125.038771,13.0555556 124.78598,13.3 124.467244,13.3 C124.137516,13.3 123.895716,13.0555556 123.895716,12.7222222 C123.895716,12.3888889 124.137516,12.1444444 124.467244,12.1444444 Z M135.809866,14.7 L137.491476,9 L138.447685,9 L136.205539,16.4111111 L135.392211,16.4111111 L133.776547,10.5888889 L132.149892,16.4111111 L131.336564,16.4111111 L129.094418,9 L130.072609,9 L131.743228,14.6777778 L133.369883,9 L134.238165,9 L135.809866,14.7 Z M140.173258,9 L140.173258,12 C140.634877,11.4222222 141.096495,11.1666667 141.700995,11.1666667 C142.140632,11.1666667 142.60225,11.3444444 142.877023,11.6333333 C143.151796,11.9111111 143.272696,12.3111111 143.272696,12.9666667 L143.272696,16.4111111 L142.437386,16.4111111 L142.437386,13.0111111 C142.437386,12.3111111 142.096668,11.9222222 141.492168,11.9222222 C141.107486,11.9222222 140.766768,12.0777778 140.502986,12.3777778 C140.250195,12.6666667 140.173258,12.9222222 140.173258,13.4111111 L140.173258,16.4111111 L139.337949,16.4111111 L139.337949,9 L140.173258,9 Z M145.756642,11.2888889 L145.756642,16.4111111 L144.921333,16.4111111 L144.921333,11.2888889 L145.756642,11.2888889 Z M145.349978,9.3 C145.646733,9.3 145.877542,9.54444444 145.877542,9.85555556 C145.877542,10.1555556 145.635742,10.3888889 145.338987,10.3888889 C145.042233,10.3888889 144.811424,10.1555556 144.811424,9.84444444 C144.811424,9.53333333 145.042233,9.3 145.349978,9.3 Z M148.328516,12.0333333 L148.328516,15.3666667 C148.339507,15.6222222 148.405452,15.6777778 148.713198,15.6777778 L149.09788,15.6777778 L149.09788,16.4111111 L148.317525,16.4111111 C147.724016,16.4 147.493206,16.1777778 147.493206,15.6111111 L147.493206,12.0333333 L146.789788,12.0333333 L146.789788,11.2888889 L147.493206,11.2888889 L147.493206,9.67777778 L148.328516,9.67777778 L148.328516,11.2888889 L149.09788,11.2888889 L149.09788,12.0333333 L148.328516,12.0333333 Z M154.989009,14.1222222 L150.768498,14.1222222 C150.812462,14.5555556 150.889399,14.7777778 151.098226,15.0555556 C151.427953,15.5111111 151.911553,15.7555556 152.461099,15.7555556 C153.087581,15.7555556 153.68109,15.4111111 153.977845,14.8777778 L154.714236,15.1555556 C154.296582,16.0111111 153.428299,16.5333333 152.461099,16.5333333 C150.955344,16.5333333 149.878235,15.4222222 149.878235,13.8666667 C149.878235,12.2888889 150.944353,11.1666667 152.428126,11.1666667 C153.900909,11.1666667 155,12.2888889 155,13.7888889 C155,13.8555556 155,14 154.989009,14.1222222 Z M150.779489,13.5 L154.109736,13.5 C154.076763,13.1 153.999827,12.8777778 153.823972,12.6222222 C153.505236,12.1888889 152.988663,11.9222222 152.428126,11.9222222 C151.86759,11.9222222 151.362008,12.1888889 151.065253,12.6333333 C150.91138,12.8777778 150.845435,13.0888889 150.779489,13.5 Z"/>
    </g>
  </g>
</svg>
