<svg xmlns="http://www.w3.org/2000/svg" width="380" height="180" viewBox="0 0 380 180">
  <g fill="none" fill-rule="evenodd">
    <rect width="380" height="180" fill="#FFF" fill-opacity=".01" fill-rule="nonzero"/>
    <g transform="translate(11 37)">
      <rect width="359" height="106" fill="#25333D" rx="14"/>
      <rect width="158" height="44" x="193" y="62"/>
      <path fill="#FFF" d="M17.4375,20.7265625 L21.6953125,20.7265625 C23.828125,20.7265625 25.3046875,22.2265625 25.3046875,24.375 C25.3046875,26.484375 23.796875,27.9765625 21.6796875,27.9765625 L18.84375,27.9765625 L18.84375,32 L17.4375,32 L17.4375,20.7265625 Z M18.84375,21.9765625 L18.84375,26.7265625 L21.328125,26.7265625 C22.9296875,26.7265625 23.859375,25.8671875 23.859375,24.375 C23.859375,22.828125 22.9609375,21.9765625 21.328125,21.9765625 L18.84375,21.9765625 Z M29.3909375,30.96875 C30.77375,30.96875 31.7971875,30.0625 31.7971875,28.859375 L31.7971875,28.0859375 L29.5315625,28.234375 C28.2503125,28.3203125 27.6878125,28.765625 27.6878125,29.609375 C27.6878125,30.46875 28.414375,30.96875 29.3909375,30.96875 Z M29.1409375,32.1484375 C27.508125,32.1484375 26.2971875,31.1796875 26.2971875,29.640625 C26.2971875,28.1328125 27.4065625,27.265625 29.3675,27.1484375 L31.7971875,27 L31.7971875,26.234375 C31.7971875,25.1953125 31.14875,24.625 29.8909375,24.625 C28.883125,24.625 28.18,25.0078125 27.9925,25.671875 L26.633125,25.671875 C26.8128125,24.3203125 28.1409375,23.4296875 29.9378125,23.4296875 C31.9925,23.4296875 33.1409375,24.484375 33.1409375,26.234375 L33.1409375,32 L31.8596875,32 L31.8596875,30.7578125 L31.7346875,30.7578125 C31.1878125,31.65625 30.2659375,32.1484375 29.1409375,32.1484375 Z M35.11,25.8828125 C35.11,24.484375 36.4615625,23.4296875 38.250625,23.4296875 C40.01625,23.4296875 41.2428125,24.3046875 41.4225,25.6875 L40.094375,25.6875 C39.9146875,25.015625 39.2584375,24.5703125 38.2428125,24.5703125 C37.2428125,24.5703125 36.4615625,25.078125 36.4615625,25.828125 C36.4615625,26.40625 36.9303125,26.765625 37.9225,27.0078125 L39.219375,27.3203125 C40.8053125,27.703125 41.5709375,28.390625 41.5709375,29.6015625 C41.5709375,31.109375 40.11,32.1484375 38.1959375,32.1484375 C36.3209375,32.1484375 35.031875,31.25 34.8834375,29.8515625 L36.26625,29.8515625 C36.4928125,30.5625 37.1646875,31.015625 38.2428125,31.015625 C39.375625,31.015625 40.188125,30.4765625 40.188125,29.703125 C40.188125,29.125 39.750625,28.734375 38.8521875,28.515625 L37.406875,28.1640625 C35.82875,27.78125 35.11,27.1015625 35.11,25.8828125 Z M43.00875,25.8828125 C43.00875,24.484375 44.3603125,23.4296875 46.149375,23.4296875 C47.915,23.4296875 49.1415625,24.3046875 49.32125,25.6875 L47.993125,25.6875 C47.8134375,25.015625 47.1571875,24.5703125 46.1415625,24.5703125 C45.1415625,24.5703125 44.3603125,25.078125 44.3603125,25.828125 C44.3603125,26.40625 44.8290625,26.765625 45.82125,27.0078125 L47.118125,27.3203125 C48.7040625,27.703125 49.4696875,28.390625 49.4696875,29.6015625 C49.4696875,31.109375 48.00875,32.1484375 46.0946875,32.1484375 C44.2196875,32.1484375 42.930625,31.25 42.7821875,29.8515625 L44.165,29.8515625 C44.3915625,30.5625 45.0634375,31.015625 46.1415625,31.015625 C47.274375,31.015625 48.086875,30.4765625 48.086875,29.703125 C48.086875,29.125 47.649375,28.734375 46.7509375,28.515625 L45.305625,28.1640625 C43.7275,27.78125 43.00875,27.1015625 43.00875,25.8828125 Z M58.2278125,26.15625 L56.8684375,26.15625 C56.6496875,25.3203125 55.9075,24.640625 54.6965625,24.640625 C53.1809375,24.640625 52.2278125,25.8515625 52.2278125,27.7578125 C52.2278125,29.703125 53.1965625,30.9375 54.6965625,30.9375 C55.829375,30.9375 56.6184375,30.4140625 56.8684375,29.4609375 L58.2278125,29.4609375 C57.985625,31.0078125 56.7278125,32.1484375 54.704375,32.1484375 C52.345,32.1484375 50.8371875,30.4375 50.8371875,27.7578125 C50.8371875,25.1328125 52.3371875,23.4296875 54.6965625,23.4296875 C56.7434375,23.4296875 57.9934375,24.65625 58.2278125,26.15625 Z M63.353125,32.1484375 C60.9546875,32.1484375 59.4703125,30.4921875 59.4703125,27.7890625 C59.4703125,25.078125 60.9546875,23.4296875 63.353125,23.4296875 C65.7515625,23.4296875 67.2359375,25.078125 67.2359375,27.7890625 C67.2359375,30.4921875 65.7515625,32.1484375 63.353125,32.1484375 Z M63.353125,30.9375 C64.946875,30.9375 65.8453125,29.78125 65.8453125,27.7890625 C65.8453125,25.7890625 64.946875,24.640625 63.353125,24.640625 C61.759375,24.640625 60.8609375,25.7890625 60.8609375,27.7890625 C60.8609375,29.78125 61.759375,30.9375 63.353125,30.9375 Z M72.1425,32.1484375 C69.98625,32.1484375 68.6034375,30.4375 68.6034375,27.7890625 C68.6034375,25.1484375 70.001875,23.4296875 72.1425,23.4296875 C73.314375,23.4296875 74.3065625,23.984375 74.783125,24.90625 L74.9003125,24.90625 L74.9003125,20.234375 L76.2440625,20.234375 L76.2440625,32 L74.9628125,32 L74.9628125,30.65625 L74.8378125,30.65625 C74.3065625,31.59375 73.3065625,32.1484375 72.1425,32.1484375 Z M72.455,24.640625 C70.92375,24.640625 69.9940625,25.828125 69.9940625,27.7890625 C69.9940625,29.7578125 70.9159375,30.9375 72.455,30.9375 C73.98625,30.9375 74.9315625,29.734375 74.9315625,27.7890625 C74.9315625,25.859375 73.9784375,24.640625 72.455,24.640625 Z M81.8928126,24.6171875 C80.5490626,24.6171875 79.6115626,25.6015625 79.5100001,27.09375 L84.1506251,27.09375 C84.1193751,25.6015625 83.2287501,24.6171875 81.8928126,24.6171875 Z M84.1115626,29.8203125 L85.4553126,29.8203125 C85.0490626,31.265625 83.7521876,32.1484375 81.9084376,32.1484375 C79.5725001,32.1484375 78.1115626,30.4609375 78.1115626,27.796875 C78.1115626,25.1484375 79.5959376,23.4296875 81.9084376,23.4296875 C84.1818751,23.4296875 85.5646876,25.046875 85.5646876,27.6640625 L85.5646876,28.1796875 L79.5100001,28.1796875 L79.5100001,28.2421875 C79.5803126,29.90625 80.5100001,30.9609375 81.9396876,30.9609375 C83.0256251,30.9609375 83.7600001,30.5625 84.1115626,29.8203125 Z M91.5496876,32 L91.5496876,23.578125 L92.8309376,23.578125 L92.8309376,24.90625 L92.9559376,24.90625 C93.3778126,23.9765625 94.1981251,23.4296875 95.4871876,23.4296875 C97.3778126,23.4296875 98.4325001,24.546875 98.4325001,26.546875 L98.4325001,32 L97.0887501,32 L97.0887501,26.875 C97.0887501,25.359375 96.4481251,24.640625 95.1043751,24.640625 C93.7606251,24.640625 92.8934376,25.5390625 92.8934376,27.015625 L92.8934376,32 L91.5496876,32 Z M103.925,24.6171875 C102.58125,24.6171875 101.64375,25.6015625 101.542188,27.09375 L106.182813,27.09375 C106.151563,25.6015625 105.260938,24.6171875 103.925,24.6171875 Z M106.14375,29.8203125 L107.4875,29.8203125 C107.08125,31.265625 105.784375,32.1484375 103.940625,32.1484375 C101.604688,32.1484375 100.14375,30.4609375 100.14375,27.796875 C100.14375,25.1484375 101.628125,23.4296875 103.940625,23.4296875 C106.214063,23.4296875 107.596875,25.046875 107.596875,27.6640625 L107.596875,28.1796875 L101.542188,28.1796875 L101.542188,28.2421875 C101.6125,29.90625 102.542188,30.9609375 103.971875,30.9609375 C105.057813,30.9609375 105.792188,30.5625 106.14375,29.8203125 Z M112.745625,24.6171875 C111.401875,24.6171875 110.464375,25.6015625 110.362813,27.09375 L115.003438,27.09375 C114.972188,25.6015625 114.081563,24.6171875 112.745625,24.6171875 Z M114.964375,29.8203125 L116.308125,29.8203125 C115.901875,31.265625 114.605,32.1484375 112.76125,32.1484375 C110.425313,32.1484375 108.964375,30.4609375 108.964375,27.796875 C108.964375,25.1484375 110.44875,23.4296875 112.76125,23.4296875 C115.034688,23.4296875 116.4175,25.046875 116.4175,27.6640625 L116.4175,28.1796875 L110.362813,28.1796875 L110.362813,28.2421875 C110.433125,29.90625 111.362813,30.9609375 112.7925,30.9609375 C113.878438,30.9609375 114.612813,30.5625 114.964375,29.8203125 Z M121.324063,32.1484375 C119.167813,32.1484375 117.785,30.4375 117.785,27.7890625 C117.785,25.1484375 119.183438,23.4296875 121.324063,23.4296875 C122.495938,23.4296875 123.488125,23.984375 123.964688,24.90625 L124.081875,24.90625 L124.081875,20.234375 L125.425625,20.234375 L125.425625,32 L124.144375,32 L124.144375,30.65625 L124.019375,30.65625 C123.488125,31.59375 122.488125,32.1484375 121.324063,32.1484375 Z M121.636563,24.640625 C120.105313,24.640625 119.175625,25.828125 119.175625,27.7890625 C119.175625,29.7578125 120.0975,30.9375 121.636563,30.9375 C123.167813,30.9375 124.113125,29.734375 124.113125,27.7890625 C124.113125,25.859375 123.16,24.640625 121.636563,24.640625 Z M127.519688,25.8828125 C127.519688,24.484375 128.87125,23.4296875 130.660313,23.4296875 C132.425938,23.4296875 133.6525,24.3046875 133.832188,25.6875 L132.504063,25.6875 C132.324375,25.015625 131.668125,24.5703125 130.6525,24.5703125 C129.6525,24.5703125 128.87125,25.078125 128.87125,25.828125 C128.87125,26.40625 129.34,26.765625 130.332188,27.0078125 L131.629063,27.3203125 C133.215,27.703125 133.980625,28.390625 133.980625,29.6015625 C133.980625,31.109375 132.519688,32.1484375 130.605625,32.1484375 C128.730625,32.1484375 127.441563,31.25 127.293125,29.8515625 L128.675938,29.8515625 C128.9025,30.5625 129.574375,31.015625 130.6525,31.015625 C131.785313,31.015625 132.597813,30.4765625 132.597813,29.703125 C132.597813,29.125 132.160313,28.734375 131.261875,28.515625 L129.816563,28.1640625 C128.238438,27.78125 127.519688,27.1015625 127.519688,25.8828125 Z M140.528125,21.3984375 L141.871875,21.3984375 L141.871875,23.578125 L143.746875,23.578125 L143.746875,24.703125 L141.871875,24.703125 L141.871875,29.46875 C141.871875,30.4609375 142.246875,30.8828125 143.121875,30.8828125 C143.364063,30.8828125 143.496875,30.875 143.746875,30.8515625 L143.746875,31.984375 C143.48125,32.03125 143.223438,32.0625 142.957813,32.0625 C141.223438,32.0625 140.528125,31.421875 140.528125,29.8125 L140.528125,24.703125 L139.16875,24.703125 L139.16875,23.578125 L140.528125,23.578125 L140.528125,21.3984375 Z M148.801875,32.1484375 C146.403438,32.1484375 144.919063,30.4921875 144.919063,27.7890625 C144.919063,25.078125 146.403438,23.4296875 148.801875,23.4296875 C151.200313,23.4296875 152.684688,25.078125 152.684688,27.7890625 C152.684688,30.4921875 151.200313,32.1484375 148.801875,32.1484375 Z M148.801875,30.9375 C150.395625,30.9375 151.294063,29.78125 151.294063,27.7890625 C151.294063,25.7890625 150.395625,24.640625 148.801875,24.640625 C147.208125,24.640625 146.309688,25.7890625 146.309688,27.7890625 C146.309688,29.78125 147.208125,30.9375 148.801875,30.9375 Z M162.857188,32.1484375 C161.685313,32.1484375 160.685313,31.59375 160.154063,30.65625 L160.029063,30.65625 L160.029063,32 L158.747813,32 L158.747813,20.234375 L160.091563,20.234375 L160.091563,24.90625 L160.216563,24.90625 C160.6775,24 161.700938,23.4296875 162.857188,23.4296875 C164.997813,23.4296875 166.388438,25.140625 166.388438,27.7890625 C166.388438,30.421875 164.99,32.1484375 162.857188,32.1484375 Z M162.544688,24.640625 C161.013438,24.640625 160.060313,25.84375 160.060313,27.7890625 C160.060313,29.734375 161.013438,30.9375 162.544688,30.9375 C164.08375,30.9375 164.997813,29.7578125 164.997813,27.7890625 C164.997813,25.8203125 164.08375,24.640625 162.544688,24.640625 Z M171.537188,24.6171875 C170.193438,24.6171875 169.255938,25.6015625 169.154375,27.09375 L173.795,27.09375 C173.76375,25.6015625 172.873125,24.6171875 171.537188,24.6171875 Z M173.755938,29.8203125 L175.099688,29.8203125 C174.693438,31.265625 173.396563,32.1484375 171.552813,32.1484375 C169.216875,32.1484375 167.755938,30.4609375 167.755938,27.796875 C167.755938,25.1484375 169.240313,23.4296875 171.552813,23.4296875 C173.82625,23.4296875 175.209063,25.046875 175.209063,27.6640625 L175.209063,28.1796875 L169.154375,28.1796875 L169.154375,28.2421875 C169.224688,29.90625 170.154375,30.9609375 171.584063,30.9609375 C172.67,30.9609375 173.404375,30.5625 173.755938,29.8203125 Z M185.170625,32.2578125 C183.475313,32.2578125 182.178438,31.3515625 181.475313,29.6953125 C181.108125,28.8359375 180.928438,27.796875 180.928438,26.5546875 C180.928438,22.6796875 182.506563,20.4609375 185.264375,20.4609375 C187.178438,20.4609375 188.600313,21.59375 188.959688,23.40625 L187.514375,23.40625 C187.209688,22.3515625 186.358125,21.7109375 185.24875,21.7109375 C183.412813,21.7109375 182.37375,23.3359375 182.295625,26.3359375 L182.420625,26.3359375 C182.975313,25.2421875 184.076875,24.6015625 185.420625,24.6015625 C187.569063,24.6015625 189.12375,26.1875 189.12375,28.375 C189.12375,30.640625 187.483125,32.2578125 185.170625,32.2578125 Z M185.155,31.0234375 C186.600313,31.0234375 187.701875,29.8984375 187.701875,28.421875 C187.701875,26.8828125 186.662813,25.8203125 185.170625,25.8203125 C183.678438,25.8203125 182.608125,26.8828125 182.608125,28.375 C182.608125,29.8828125 183.709688,31.0234375 185.155,31.0234375 Z M202.23375,26.15625 L200.874375,26.15625 C200.655625,25.3203125 199.913438,24.640625 198.7025,24.640625 C197.186875,24.640625 196.23375,25.8515625 196.23375,27.7578125 C196.23375,29.703125 197.2025,30.9375 198.7025,30.9375 C199.835313,30.9375 200.624375,30.4140625 200.874375,29.4609375 L202.23375,29.4609375 C201.991563,31.0078125 200.73375,32.1484375 198.710313,32.1484375 C196.350938,32.1484375 194.843125,30.4375 194.843125,27.7578125 C194.843125,25.1328125 196.343125,23.4296875 198.7025,23.4296875 C200.749375,23.4296875 201.999375,24.65625 202.23375,26.15625 Z M203.97625,32 L203.97625,20.234375 L205.32,20.234375 L205.32,24.90625 L205.445,24.90625 C205.866875,23.9765625 206.749688,23.4296875 208.03875,23.4296875 C209.82,23.4296875 210.945,24.5703125 210.945,26.546875 L210.945,32 L209.60125,32 L209.60125,26.875 C209.60125,25.3828125 208.929375,24.640625 207.655938,24.640625 C206.148125,24.640625 205.32,25.59375 205.32,27.015625 L205.32,32 L203.97625,32 Z M215.671875,30.96875 C217.054688,30.96875 218.078125,30.0625 218.078125,28.859375 L218.078125,28.0859375 L215.8125,28.234375 C214.53125,28.3203125 213.96875,28.765625 213.96875,29.609375 C213.96875,30.46875 214.695313,30.96875 215.671875,30.96875 Z M215.421875,32.1484375 C213.789063,32.1484375 212.578125,31.1796875 212.578125,29.640625 C212.578125,28.1328125 213.6875,27.265625 215.648438,27.1484375 L218.078125,27 L218.078125,26.234375 C218.078125,25.1953125 217.429688,24.625 216.171875,24.625 C215.164063,24.625 214.460938,25.0078125 214.273438,25.671875 L212.914063,25.671875 C213.09375,24.3203125 214.421875,23.4296875 216.21875,23.4296875 C218.273438,23.4296875 219.421875,24.484375 219.421875,26.234375 L219.421875,32 L218.140625,32 L218.140625,30.7578125 L218.015625,30.7578125 C217.46875,31.65625 216.546875,32.1484375 215.421875,32.1484375 Z M221.58625,32 L221.58625,23.578125 L222.8675,23.578125 L222.8675,24.828125 L222.9925,24.828125 C223.2425,24.0078125 224.21125,23.4296875 225.328438,23.4296875 C225.547188,23.4296875 225.828438,23.4453125 226.000313,23.46875 L226.000313,24.8125 C225.890938,24.78125 225.406563,24.734375 225.140938,24.734375 C223.859688,24.734375 222.93,25.59375 222.93,26.78125 L222.93,32 L221.58625,32 Z M229.95375,30.96875 C231.336563,30.96875 232.36,30.0625 232.36,28.859375 L232.36,28.0859375 L230.094375,28.234375 C228.813125,28.3203125 228.250625,28.765625 228.250625,29.609375 C228.250625,30.46875 228.977188,30.96875 229.95375,30.96875 Z M229.70375,32.1484375 C228.070938,32.1484375 226.86,31.1796875 226.86,29.640625 C226.86,28.1328125 227.969375,27.265625 229.930313,27.1484375 L232.36,27 L232.36,26.234375 C232.36,25.1953125 231.711563,24.625 230.45375,24.625 C229.445938,24.625 228.742813,25.0078125 228.555313,25.671875 L227.195938,25.671875 C227.375625,24.3203125 228.70375,23.4296875 230.500625,23.4296875 C232.555313,23.4296875 233.70375,24.484375 233.70375,26.234375 L233.70375,32 L232.4225,32 L232.4225,30.7578125 L232.2975,30.7578125 C231.750625,31.65625 230.82875,32.1484375 229.70375,32.1484375 Z M242.836875,26.15625 L241.4775,26.15625 C241.25875,25.3203125 240.516563,24.640625 239.305625,24.640625 C237.79,24.640625 236.836875,25.8515625 236.836875,27.7578125 C236.836875,29.703125 237.805625,30.9375 239.305625,30.9375 C240.438438,30.9375 241.2275,30.4140625 241.4775,29.4609375 L242.836875,29.4609375 C242.594688,31.0078125 241.336875,32.1484375 239.313438,32.1484375 C236.954063,32.1484375 235.44625,30.4375 235.44625,27.7578125 C235.44625,25.1328125 236.94625,23.4296875 239.305625,23.4296875 C241.3525,23.4296875 242.6025,24.65625 242.836875,26.15625 Z M245.22,21.3984375 L246.56375,21.3984375 L246.56375,23.578125 L248.43875,23.578125 L248.43875,24.703125 L246.56375,24.703125 L246.56375,29.46875 C246.56375,30.4609375 246.93875,30.8828125 247.81375,30.8828125 C248.055938,30.8828125 248.18875,30.875 248.43875,30.8515625 L248.43875,31.984375 C248.173125,32.03125 247.915313,32.0625 247.649688,32.0625 C245.915313,32.0625 245.22,31.421875 245.22,29.8125 L245.22,24.703125 L243.860625,24.703125 L243.860625,23.578125 L245.22,23.578125 L245.22,21.3984375 Z M253.392188,24.6171875 C252.048438,24.6171875 251.110938,25.6015625 251.009375,27.09375 L255.65,27.09375 C255.61875,25.6015625 254.728125,24.6171875 253.392188,24.6171875 Z M255.610938,29.8203125 L256.954688,29.8203125 C256.548438,31.265625 255.251563,32.1484375 253.407813,32.1484375 C251.071875,32.1484375 249.610938,30.4609375 249.610938,27.796875 C249.610938,25.1484375 251.095313,23.4296875 253.407813,23.4296875 C255.68125,23.4296875 257.064063,25.046875 257.064063,27.6640625 L257.064063,28.1796875 L251.009375,28.1796875 L251.009375,28.2421875 C251.079688,29.90625 252.009375,30.9609375 253.439063,30.9609375 C254.525,30.9609375 255.259375,30.5625 255.610938,29.8203125 Z M258.853438,32 L258.853438,23.578125 L260.134688,23.578125 L260.134688,24.828125 L260.259688,24.828125 C260.509688,24.0078125 261.478438,23.4296875 262.595625,23.4296875 C262.814375,23.4296875 263.095625,23.4453125 263.2675,23.46875 L263.2675,24.8125 C263.158125,24.78125 262.67375,24.734375 262.408125,24.734375 C261.126875,24.734375 260.197188,25.59375 260.197188,26.78125 L260.197188,32 L258.853438,32 Z M264.275625,25.8828125 C264.275625,24.484375 265.627188,23.4296875 267.41625,23.4296875 C269.181875,23.4296875 270.408438,24.3046875 270.588125,25.6875 L269.26,25.6875 C269.080313,25.015625 268.424063,24.5703125 267.408438,24.5703125 C266.408438,24.5703125 265.627188,25.078125 265.627188,25.828125 C265.627188,26.40625 266.095938,26.765625 267.088125,27.0078125 L268.385,27.3203125 C269.970938,27.703125 270.736563,28.390625 270.736563,29.6015625 C270.736563,31.109375 269.275625,32.1484375 267.361563,32.1484375 C265.486563,32.1484375 264.1975,31.25 264.049063,29.8515625 L265.431875,29.8515625 C265.658438,30.5625 266.330313,31.015625 267.408438,31.015625 C268.54125,31.015625 269.35375,30.4765625 269.35375,29.703125 C269.35375,29.125 268.91625,28.734375 268.017813,28.515625 L266.5725,28.1640625 C264.994375,27.78125 264.275625,27.1015625 264.275625,25.8828125 Z M276.799688,32 L276.799688,20.234375 L278.143438,20.234375 L278.143438,32 L276.799688,32 Z M283.89375,32.1484375 C281.495313,32.1484375 280.010938,30.4921875 280.010938,27.7890625 C280.010938,25.078125 281.495313,23.4296875 283.89375,23.4296875 C286.292188,23.4296875 287.776563,25.078125 287.776563,27.7890625 C287.776563,30.4921875 286.292188,32.1484375 283.89375,32.1484375 Z M283.89375,30.9375 C285.4875,30.9375 286.385938,29.78125 286.385938,27.7890625 C286.385938,25.7890625 285.4875,24.640625 283.89375,24.640625 C282.3,24.640625 281.401563,25.7890625 281.401563,27.7890625 C281.401563,29.78125 282.3,30.9375 283.89375,30.9375 Z M289.565938,32 L289.565938,23.578125 L290.847188,23.578125 L290.847188,24.90625 L290.972188,24.90625 C291.394063,23.9765625 292.214375,23.4296875 293.503438,23.4296875 C295.394063,23.4296875 296.44875,24.546875 296.44875,26.546875 L296.44875,32 L295.105,32 L295.105,26.875 C295.105,25.359375 294.464375,24.640625 293.120625,24.640625 C291.776875,24.640625 290.909688,25.5390625 290.909688,27.015625 L290.909688,32 L289.565938,32 Z M301.988125,30.6875 C303.550625,30.6875 304.488125,29.5 304.488125,27.6640625 C304.488125,25.828125 303.542813,24.640625 301.988125,24.640625 C300.425625,24.640625 299.550625,25.828125 299.550625,27.6640625 C299.550625,29.5 300.425625,30.6875 301.988125,30.6875 Z M302.050625,35.234375 C300.019375,35.234375 298.7225,34.3203125 298.519375,32.9296875 L299.94125,32.9296875 C300.089688,33.6171875 300.839688,34.0625 302.050625,34.0625 C303.558438,34.0625 304.456875,33.3203125 304.456875,32.078125 L304.456875,30.421875 L304.331875,30.421875 C303.800625,31.3515625 302.8475,31.875 301.69125,31.875 C299.511563,31.875 298.16,30.1875 298.16,27.6640625 C298.16,25.140625 299.527188,23.4296875 301.69125,23.4296875 C302.870938,23.4296875 303.91,24.0078125 304.394375,24.9140625 L304.519375,24.9140625 L304.519375,23.578125 L305.800625,23.578125 L305.800625,32.1484375 C305.800625,34.03125 304.3475,35.234375 302.050625,35.234375 Z M308.863438,34.8671875 L307.855625,34.8671875 L308.597813,30.421875 L310.09,30.421875 L308.863438,34.8671875 Z M24.234375,47.15625 L22.875,47.15625 C22.65625,46.3203125 21.9140625,45.640625 20.703125,45.640625 C19.1875,45.640625 18.234375,46.8515625 18.234375,48.7578125 C18.234375,50.703125 19.203125,51.9375 20.703125,51.9375 C21.8359375,51.9375 22.625,51.4140625 22.875,50.4609375 L24.234375,50.4609375 C23.9921875,52.0078125 22.734375,53.1484375 20.7109375,53.1484375 C18.3515625,53.1484375 16.84375,51.4375 16.84375,48.7578125 C16.84375,46.1328125 18.34375,44.4296875 20.703125,44.4296875 C22.75,44.4296875 24,45.65625 24.234375,47.15625 Z M29.3596875,53.1484375 C26.96125,53.1484375 25.476875,51.4921875 25.476875,48.7890625 C25.476875,46.078125 26.96125,44.4296875 29.3596875,44.4296875 C31.758125,44.4296875 33.2425,46.078125 33.2425,48.7890625 C33.2425,51.4921875 31.758125,53.1484375 29.3596875,53.1484375 Z M29.3596875,51.9375 C30.9534375,51.9375 31.851875,50.78125 31.851875,48.7890625 C31.851875,46.7890625 30.9534375,45.640625 29.3596875,45.640625 C27.7659375,45.640625 26.8675,46.7890625 26.8675,48.7890625 C26.8675,50.78125 27.7659375,51.9375 29.3596875,51.9375 Z M35.031875,53 L35.031875,44.578125 L36.313125,44.578125 L36.313125,45.90625 L36.438125,45.90625 C36.8209375,44.96875 37.6646875,44.4296875 38.7896875,44.4296875 C39.9303125,44.4296875 40.7271875,45.03125 41.1178125,45.90625 L41.2428125,45.90625 C41.6959375,45.015625 42.656875,44.4296875 43.8209375,44.4296875 C45.5396875,44.4296875 46.500625,45.4140625 46.500625,47.1796875 L46.500625,53 L45.156875,53 L45.156875,47.4921875 C45.156875,46.25 44.5709375,45.640625 43.3834375,45.640625 C42.2115625,45.640625 41.4303125,46.515625 41.4303125,47.5859375 L41.4303125,53 L40.0865625,53 L40.0865625,47.28125 C40.0865625,46.28125 39.39125,45.640625 38.32875,45.640625 C37.2271875,45.640625 36.375625,46.59375 36.375625,47.78125 L36.375625,53 L35.031875,53 Z M52.7353125,44.4296875 C54.88375,44.4296875 56.274375,46.140625 56.274375,48.7890625 C56.274375,51.421875 54.8759375,53.1484375 52.7353125,53.1484375 C51.5321875,53.1484375 50.5634375,52.625 50.1025,51.734375 L49.9775,51.734375 L49.9775,55.8125 L48.63375,55.8125 L48.63375,44.578125 L49.915,44.578125 L49.915,45.984375 L50.04,45.984375 C50.5790625,45.015625 51.586875,44.4296875 52.7353125,44.4296875 Z M52.415,51.9375 C53.961875,51.9375 54.88375,50.7578125 54.88375,48.7890625 C54.88375,46.8203125 53.961875,45.640625 52.4228125,45.640625 C50.899375,45.640625 49.9384375,46.8515625 49.9384375,48.7890625 C49.9384375,50.71875 50.899375,51.9375 52.415,51.9375 Z M61.5246875,53.1484375 C59.12625,53.1484375 57.641875,51.4921875 57.641875,48.7890625 C57.641875,46.078125 59.12625,44.4296875 61.5246875,44.4296875 C63.923125,44.4296875 65.4075,46.078125 65.4075,48.7890625 C65.4075,51.4921875 63.923125,53.1484375 61.5246875,53.1484375 Z M61.5246875,51.9375 C63.1184375,51.9375 64.016875,50.78125 64.016875,48.7890625 C64.016875,46.7890625 63.1184375,45.640625 61.5246875,45.640625 C59.9309375,45.640625 59.0325,46.7890625 59.0325,48.7890625 C59.0325,50.78125 59.9309375,51.9375 61.5246875,51.9375 Z M67.0015625,46.8828125 C67.0015625,45.484375 68.353125,44.4296875 70.1421875,44.4296875 C71.9078125,44.4296875 73.134375,45.3046875 73.3140625,46.6875 L71.9859375,46.6875 C71.80625,46.015625 71.15,45.5703125 70.134375,45.5703125 C69.134375,45.5703125 68.353125,46.078125 68.353125,46.828125 C68.353125,47.40625 68.821875,47.765625 69.8140625,48.0078125 L71.1109375,48.3203125 C72.696875,48.703125 73.4625,49.390625 73.4625,50.6015625 C73.4625,52.109375 72.0015625,53.1484375 70.0875,53.1484375 C68.2125,53.1484375 66.9234375,52.25 66.775,50.8515625 L68.1578125,50.8515625 C68.384375,51.5625 69.05625,52.015625 70.134375,52.015625 C71.2671875,52.015625 72.0796875,51.4765625 72.0796875,50.703125 C72.0796875,50.125 71.6421875,49.734375 70.74375,49.515625 L69.2984375,49.1640625 C67.7203125,48.78125 67.0015625,48.1015625 67.0015625,46.8828125 Z M78.61125,45.6171875 C77.2675,45.6171875 76.33,46.6015625 76.2284375,48.09375 L80.8690625,48.09375 C80.8378125,46.6015625 79.9471875,45.6171875 78.61125,45.6171875 Z M80.83,50.8203125 L82.17375,50.8203125 C81.7675,52.265625 80.470625,53.1484375 78.626875,53.1484375 C76.2909375,53.1484375 74.83,51.4609375 74.83,48.796875 C74.83,46.1484375 76.314375,44.4296875 78.626875,44.4296875 C80.9003125,44.4296875 82.283125,46.046875 82.283125,48.6640625 L82.283125,49.1796875 L76.2284375,49.1796875 L76.2284375,49.2421875 C76.29875,50.90625 77.2284375,51.9609375 78.658125,51.9609375 C79.7440625,51.9609375 80.4784375,51.5625 80.83,50.8203125 Z M87.1896876,53.1484375 C85.0334376,53.1484375 83.6506251,51.4375 83.6506251,48.7890625 C83.6506251,46.1484375 85.0490626,44.4296875 87.1896876,44.4296875 C88.3615626,44.4296875 89.3537501,44.984375 89.8303126,45.90625 L89.9475001,45.90625 L89.9475001,41.234375 L91.2912501,41.234375 L91.2912501,53 L90.0100001,53 L90.0100001,51.65625 L89.8850001,51.65625 C89.3537501,52.59375 88.3537501,53.1484375 87.1896876,53.1484375 Z M87.5021876,45.640625 C85.9709376,45.640625 85.0412501,46.828125 85.0412501,48.7890625 C85.0412501,50.7578125 85.9631251,51.9375 87.5021876,51.9375 C89.0334376,51.9375 89.9787501,50.734375 89.9787501,48.7890625 C89.9787501,46.859375 89.0256251,45.640625 87.5021876,45.640625 Z M101.237188,53.1484375 C98.8387501,53.1484375 97.3543751,51.4921875 97.3543751,48.7890625 C97.3543751,46.078125 98.8387501,44.4296875 101.237188,44.4296875 C103.635625,44.4296875 105.12,46.078125 105.12,48.7890625 C105.12,51.4921875 103.635625,53.1484375 101.237188,53.1484375 Z M101.237188,51.9375 C102.830938,51.9375 103.729375,50.78125 103.729375,48.7890625 C103.729375,46.7890625 102.830938,45.640625 101.237188,45.640625 C99.6434376,45.640625 98.7450001,46.7890625 98.7450001,48.7890625 C98.7450001,50.78125 99.6434376,51.9375 101.237188,51.9375 Z M107.471875,53 L107.471875,45.703125 L106.073438,45.703125 L106.073438,44.578125 L107.471875,44.578125 L107.471875,43.640625 C107.471875,41.9609375 108.315625,41.15625 109.917188,41.15625 C110.245313,41.15625 110.542188,41.1796875 110.823438,41.234375 L110.823438,42.328125 C110.659375,42.296875 110.432813,42.2890625 110.190625,42.2890625 C109.221875,42.2890625 108.815625,42.7578125 108.815625,43.6796875 L108.815625,44.578125 L110.745313,44.578125 L110.745313,45.703125 L108.815625,45.703125 L108.815625,53 L107.471875,53 Z M120.035,53.1484375 C117.636563,53.1484375 116.152188,51.4921875 116.152188,48.7890625 C116.152188,46.078125 117.636563,44.4296875 120.035,44.4296875 C122.433438,44.4296875 123.917813,46.078125 123.917813,48.7890625 C123.917813,51.4921875 122.433438,53.1484375 120.035,53.1484375 Z M120.035,51.9375 C121.62875,51.9375 122.527188,50.78125 122.527188,48.7890625 C122.527188,46.7890625 121.62875,45.640625 120.035,45.640625 C118.44125,45.640625 117.542813,46.7890625 117.542813,48.7890625 C117.542813,50.78125 118.44125,51.9375 120.035,51.9375 Z M125.707188,53 L125.707188,44.578125 L126.988438,44.578125 L126.988438,45.90625 L127.113438,45.90625 C127.535313,44.9765625 128.355625,44.4296875 129.644688,44.4296875 C131.535313,44.4296875 132.59,45.546875 132.59,47.546875 L132.59,53 L131.24625,53 L131.24625,47.875 C131.24625,46.359375 130.605625,45.640625 129.261875,45.640625 C127.918125,45.640625 127.050938,46.5390625 127.050938,48.015625 L127.050938,53 L125.707188,53 Z M134.80125,53 L134.80125,41.234375 L136.145,41.234375 L136.145,53 L134.80125,53 Z M139.153125,56.046875 C138.973438,56.046875 138.739063,56.03125 138.551563,56 L138.551563,54.8515625 C138.715625,54.8828125 138.926563,54.890625 139.114063,54.890625 C139.8875,54.890625 140.309375,54.5234375 140.660938,53.5078125 L140.817188,53.0078125 L137.7,44.578125 L139.153125,44.578125 L141.465625,51.5078125 L141.590625,51.5078125 L143.895313,44.578125 L145.325,44.578125 L142.035938,53.515625 C141.317188,55.46875 140.645313,56.046875 139.153125,56.046875 Z M150.9975,53 L150.9975,44.578125 L152.27875,44.578125 L152.27875,45.90625 L152.40375,45.90625 C152.825625,44.9765625 153.645938,44.4296875 154.935,44.4296875 C156.825625,44.4296875 157.880313,45.546875 157.880313,47.546875 L157.880313,53 L156.536563,53 L156.536563,47.875 C156.536563,46.359375 155.895938,45.640625 154.552188,45.640625 C153.208438,45.640625 152.34125,46.5390625 152.34125,48.015625 L152.34125,53 L150.9975,53 Z M166.825938,44.578125 L166.825938,53 L165.544688,53 L165.544688,51.6796875 L165.419688,51.6796875 C164.997813,52.6171875 164.099375,53.1484375 162.810313,53.1484375 C160.919688,53.1484375 159.935313,52.0234375 159.935313,50.03125 L159.935313,44.578125 L161.279063,44.578125 L161.279063,49.703125 C161.279063,51.21875 161.841563,51.921875 163.185313,51.921875 C164.669688,51.921875 165.482188,51.0390625 165.482188,49.5625 L165.482188,44.578125 L166.825938,44.578125 Z M169.037188,53 L169.037188,44.578125 L170.318438,44.578125 L170.318438,45.90625 L170.443438,45.90625 C170.82625,44.96875 171.67,44.4296875 172.795,44.4296875 C173.935625,44.4296875 174.7325,45.03125 175.123125,45.90625 L175.248125,45.90625 C175.70125,45.015625 176.662188,44.4296875 177.82625,44.4296875 C179.545,44.4296875 180.505938,45.4140625 180.505938,47.1796875 L180.505938,53 L179.162188,53 L179.162188,47.4921875 C179.162188,46.25 178.57625,45.640625 177.38875,45.640625 C176.216875,45.640625 175.435625,46.515625 175.435625,47.5859375 L175.435625,53 L174.091875,53 L174.091875,47.28125 C174.091875,46.28125 173.396563,45.640625 172.334063,45.640625 C171.2325,45.640625 170.380938,46.59375 170.380938,47.78125 L170.380938,53 L169.037188,53 Z M186.826563,53.1484375 C185.654688,53.1484375 184.654688,52.59375 184.123438,51.65625 L183.998438,51.65625 L183.998438,53 L182.717188,53 L182.717188,41.234375 L184.060938,41.234375 L184.060938,45.90625 L184.185938,45.90625 C184.646875,45 185.670313,44.4296875 186.826563,44.4296875 C188.967188,44.4296875 190.357813,46.140625 190.357813,48.7890625 C190.357813,51.421875 188.959375,53.1484375 186.826563,53.1484375 Z M186.514063,45.640625 C184.982813,45.640625 184.029688,46.84375 184.029688,48.7890625 C184.029688,50.734375 184.982813,51.9375 186.514063,51.9375 C188.053125,51.9375 188.967188,50.7578125 188.967188,48.7890625 C188.967188,46.8203125 188.053125,45.640625 186.514063,45.640625 Z M195.506563,45.6171875 C194.162813,45.6171875 193.225313,46.6015625 193.12375,48.09375 L197.764375,48.09375 C197.733125,46.6015625 196.8425,45.6171875 195.506563,45.6171875 Z M197.725313,50.8203125 L199.069063,50.8203125 C198.662813,52.265625 197.365938,53.1484375 195.522188,53.1484375 C193.18625,53.1484375 191.725313,51.4609375 191.725313,48.796875 C191.725313,46.1484375 193.209688,44.4296875 195.522188,44.4296875 C197.795625,44.4296875 199.178438,46.046875 199.178438,48.6640625 L199.178438,49.1796875 L193.12375,49.1796875 L193.12375,49.2421875 C193.194063,50.90625 194.12375,51.9609375 195.553438,51.9609375 C196.639375,51.9609375 197.37375,51.5625 197.725313,50.8203125 Z M200.967813,53 L200.967813,44.578125 L202.249063,44.578125 L202.249063,45.828125 L202.374063,45.828125 C202.624063,45.0078125 203.592813,44.4296875 204.71,44.4296875 C204.92875,44.4296875 205.21,44.4453125 205.381875,44.46875 L205.381875,45.8125 C205.2725,45.78125 204.788125,45.734375 204.5225,45.734375 C203.24125,45.734375 202.311563,46.59375 202.311563,47.78125 L202.311563,53 L200.967813,53 Z M209.335313,51.96875 C210.718125,51.96875 211.741563,51.0625 211.741563,49.859375 L211.741563,49.0859375 L209.475938,49.234375 C208.194688,49.3203125 207.632188,49.765625 207.632188,50.609375 C207.632188,51.46875 208.35875,51.96875 209.335313,51.96875 Z M209.085313,53.1484375 C207.4525,53.1484375 206.241563,52.1796875 206.241563,50.640625 C206.241563,49.1328125 207.350938,48.265625 209.311875,48.1484375 L211.741563,48 L211.741563,47.234375 C211.741563,46.1953125 211.093125,45.625 209.835313,45.625 C208.8275,45.625 208.124375,46.0078125 207.936875,46.671875 L206.5775,46.671875 C206.757188,45.3203125 208.085313,44.4296875 209.882188,44.4296875 C211.936875,44.4296875 213.085313,45.484375 213.085313,47.234375 L213.085313,53 L211.804063,53 L211.804063,51.7578125 L211.679063,51.7578125 C211.132188,52.65625 210.210313,53.1484375 209.085313,53.1484375 Z M215.327813,53 L215.327813,41.234375 L216.671563,41.234375 L216.671563,53 L215.327813,53 Z M219.8125,55.8671875 L218.804688,55.8671875 L219.546875,51.421875 L221.039063,51.421875 L219.8125,55.8671875 Z M238.180313,44.578125 L235.820938,53 L234.45375,53 L232.570938,46.484375 L232.445938,46.484375 L230.570938,53 L229.211563,53 L226.852188,44.578125 L228.211563,44.578125 L229.867813,51.3125 L229.992813,51.3125 L231.875625,44.578125 L233.164688,44.578125 L235.0475,51.3125 L235.1725,51.3125 L236.82875,44.578125 L238.180313,44.578125 Z M239.688438,53 L239.688438,44.578125 L241.032188,44.578125 L241.032188,53 L239.688438,53 Z M240.360313,42.8671875 C239.844688,42.8671875 239.422813,42.4453125 239.422813,41.9296875 C239.422813,41.4140625 239.844688,40.9921875 240.360313,40.9921875 C240.875938,40.9921875 241.297813,41.4140625 241.297813,41.9296875 C241.297813,42.4453125 240.875938,42.8671875 240.360313,42.8671875 Z M243.837188,42.3984375 L245.180938,42.3984375 L245.180938,44.578125 L247.055938,44.578125 L247.055938,45.703125 L245.180938,45.703125 L245.180938,50.46875 C245.180938,51.4609375 245.555938,51.8828125 246.430938,51.8828125 C246.673125,51.8828125 246.805938,51.875 247.055938,51.8515625 L247.055938,52.984375 C246.790313,53.03125 246.5325,53.0625 246.266875,53.0625 C244.5325,53.0625 243.837188,52.421875 243.837188,50.8125 L243.837188,45.703125 L242.477813,45.703125 L242.477813,44.578125 L243.837188,44.578125 L243.837188,42.3984375 Z M248.845313,53 L248.845313,41.234375 L250.189063,41.234375 L250.189063,45.90625 L250.314063,45.90625 C250.735938,44.9765625 251.61875,44.4296875 252.907813,44.4296875 C254.689063,44.4296875 255.814063,45.5703125 255.814063,47.546875 L255.814063,53 L254.470313,53 L254.470313,47.875 C254.470313,46.3828125 253.798438,45.640625 252.525,45.640625 C251.017188,45.640625 250.189063,46.59375 250.189063,48.015625 L250.189063,53 L248.845313,53 Z M262.142813,53 L262.142813,44.578125 L263.424063,44.578125 L263.424063,45.90625 L263.549063,45.90625 C263.970938,44.9765625 264.79125,44.4296875 266.080313,44.4296875 C267.970938,44.4296875 269.025625,45.546875 269.025625,47.546875 L269.025625,53 L267.681875,53 L267.681875,47.875 C267.681875,46.359375 267.04125,45.640625 265.6975,45.640625 C264.35375,45.640625 263.486563,46.5390625 263.486563,48.015625 L263.486563,53 L262.142813,53 Z M274.619688,53.1484375 C272.22125,53.1484375 270.736875,51.4921875 270.736875,48.7890625 C270.736875,46.078125 272.22125,44.4296875 274.619688,44.4296875 C277.018125,44.4296875 278.5025,46.078125 278.5025,48.7890625 C278.5025,51.4921875 277.018125,53.1484375 274.619688,53.1484375 Z M274.619688,51.9375 C276.213438,51.9375 277.111875,50.78125 277.111875,48.7890625 C277.111875,46.7890625 276.213438,45.640625 274.619688,45.640625 C273.025938,45.640625 272.1275,46.7890625 272.1275,48.7890625 C272.1275,50.78125 273.025938,51.9375 274.619688,51.9375 Z M17.265625,74 L17.265625,65.578125 L18.546875,65.578125 L18.546875,66.828125 L18.671875,66.828125 C18.921875,66.0078125 19.890625,65.4296875 21.0078125,65.4296875 C21.2265625,65.4296875 21.5078125,65.4453125 21.6796875,65.46875 L21.6796875,66.8125 C21.5703125,66.78125 21.0859375,66.734375 20.8203125,66.734375 C19.5390625,66.734375 18.609375,67.59375 18.609375,68.78125 L18.609375,74 L17.265625,74 Z M26.164375,66.6171875 C24.820625,66.6171875 23.883125,67.6015625 23.7815625,69.09375 L28.4221875,69.09375 C28.3909375,67.6015625 27.5003125,66.6171875 26.164375,66.6171875 Z M28.383125,71.8203125 L29.726875,71.8203125 C29.320625,73.265625 28.02375,74.1484375 26.18,74.1484375 C23.8440625,74.1484375 22.383125,72.4609375 22.383125,69.796875 C22.383125,67.1484375 23.8675,65.4296875 26.18,65.4296875 C28.4534375,65.4296875 29.83625,67.046875 29.83625,69.6640625 L29.83625,70.1796875 L23.7815625,70.1796875 L23.7815625,70.2421875 C23.851875,71.90625 24.7815625,72.9609375 26.21125,72.9609375 C27.2971875,72.9609375 28.0315625,72.5625 28.383125,71.8203125 Z M35.7271875,65.4296875 C37.875625,65.4296875 39.26625,67.140625 39.26625,69.7890625 C39.26625,72.421875 37.8678125,74.1484375 35.7271875,74.1484375 C34.5240625,74.1484375 33.5553125,73.625 33.094375,72.734375 L32.969375,72.734375 L32.969375,76.8125 L31.625625,76.8125 L31.625625,65.578125 L32.906875,65.578125 L32.906875,66.984375 L33.031875,66.984375 C33.5709375,66.015625 34.57875,65.4296875 35.7271875,65.4296875 Z M35.406875,72.9375 C36.95375,72.9375 37.875625,71.7578125 37.875625,69.7890625 C37.875625,67.8203125 36.95375,66.640625 35.4146875,66.640625 C33.89125,66.640625 32.9303125,67.8515625 32.9303125,69.7890625 C32.9303125,71.71875 33.89125,72.9375 35.406875,72.9375 Z M44.415,66.6171875 C43.07125,66.6171875 42.13375,67.6015625 42.0321875,69.09375 L46.6728125,69.09375 C46.6415625,67.6015625 45.7509375,66.6171875 44.415,66.6171875 Z M46.63375,71.8203125 L47.9775,71.8203125 C47.57125,73.265625 46.274375,74.1484375 44.430625,74.1484375 C42.0946875,74.1484375 40.63375,72.4609375 40.63375,69.796875 C40.63375,67.1484375 42.118125,65.4296875 44.430625,65.4296875 C46.7040625,65.4296875 48.086875,67.046875 48.086875,69.6640625 L48.086875,70.1796875 L42.0321875,70.1796875 L42.0321875,70.2421875 C42.1025,71.90625 43.0321875,72.9609375 44.461875,72.9609375 C45.5478125,72.9609375 46.2821875,72.5625 46.63375,71.8203125 Z M52.47,72.96875 C53.8528125,72.96875 54.87625,72.0625 54.87625,70.859375 L54.87625,70.0859375 L52.610625,70.234375 C51.329375,70.3203125 50.766875,70.765625 50.766875,71.609375 C50.766875,72.46875 51.4934375,72.96875 52.47,72.96875 Z M52.22,74.1484375 C50.5871875,74.1484375 49.37625,73.1796875 49.37625,71.640625 C49.37625,70.1328125 50.485625,69.265625 52.4465625,69.1484375 L54.87625,69 L54.87625,68.234375 C54.87625,67.1953125 54.2278125,66.625 52.97,66.625 C51.9621875,66.625 51.2590625,67.0078125 51.0715625,67.671875 L49.7121875,67.671875 C49.891875,66.3203125 51.22,65.4296875 53.016875,65.4296875 C55.0715625,65.4296875 56.22,66.484375 56.22,68.234375 L56.22,74 L54.93875,74 L54.93875,72.7578125 L54.81375,72.7578125 C54.266875,73.65625 53.345,74.1484375 52.22,74.1484375 Z M58.946875,63.3984375 L60.290625,63.3984375 L60.290625,65.578125 L62.165625,65.578125 L62.165625,66.703125 L60.290625,66.703125 L60.290625,71.46875 C60.290625,72.4609375 60.665625,72.8828125 61.540625,72.8828125 C61.7828125,72.8828125 61.915625,72.875 62.165625,72.8515625 L62.165625,73.984375 C61.9,74.03125 61.6421875,74.0625 61.3765625,74.0625 C59.6421875,74.0625 58.946875,73.421875 58.946875,71.8125 L58.946875,66.703125 L57.5875,66.703125 L57.5875,65.578125 L58.946875,65.578125 L58.946875,63.3984375 Z M63.908125,74 L63.908125,65.578125 L65.251875,65.578125 L65.251875,74 L63.908125,74 Z M64.58,63.8671875 C64.064375,63.8671875 63.6425,63.4453125 63.6425,62.9296875 C63.6425,62.4140625 64.064375,61.9921875 64.58,61.9921875 C65.095625,61.9921875 65.5175,62.4140625 65.5175,62.9296875 C65.5175,63.4453125 65.095625,63.8671875 64.58,63.8671875 Z M67.4943751,74 L67.4943751,65.578125 L68.7756251,65.578125 L68.7756251,66.90625 L68.9006251,66.90625 C69.3225001,65.9765625 70.1428126,65.4296875 71.4318751,65.4296875 C73.3225001,65.4296875 74.3771876,66.546875 74.3771876,68.546875 L74.3771876,74 L73.0334376,74 L73.0334376,68.875 C73.0334376,67.359375 72.3928126,66.640625 71.0490626,66.640625 C69.7053126,66.640625 68.8381251,67.5390625 68.8381251,69.015625 L68.8381251,74 L67.4943751,74 Z M79.9165626,72.6875 C81.4790626,72.6875 82.4165626,71.5 82.4165626,69.6640625 C82.4165626,67.828125 81.4712501,66.640625 79.9165626,66.640625 C78.3540626,66.640625 77.4790626,67.828125 77.4790626,69.6640625 C77.4790626,71.5 78.3540626,72.6875 79.9165626,72.6875 Z M79.9790626,77.234375 C77.9478126,77.234375 76.6509376,76.3203125 76.4478126,74.9296875 L77.8696876,74.9296875 C78.0181251,75.6171875 78.7681251,76.0625 79.9790626,76.0625 C81.4868751,76.0625 82.3853126,75.3203125 82.3853126,74.078125 L82.3853126,72.421875 L82.2603126,72.421875 C81.7290626,73.3515625 80.7759376,73.875 79.6196876,73.875 C77.4400001,73.875 76.0884376,72.1875 76.0884376,69.6640625 C76.0884376,67.140625 77.4556251,65.4296875 79.6196876,65.4296875 C80.7993751,65.4296875 81.8384376,66.0078125 82.3228126,66.9140625 L82.4478126,66.9140625 L82.4478126,65.578125 L83.7290626,65.578125 L83.7290626,74.1484375 C83.7290626,76.03125 82.2759376,77.234375 79.9790626,77.234375 Z M89.9406251,67.8828125 C89.9406251,66.484375 91.2921876,65.4296875 93.0812501,65.4296875 C94.8468751,65.4296875 96.0734376,66.3046875 96.2531251,67.6875 L94.9250001,67.6875 C94.7453126,67.015625 94.0890626,66.5703125 93.0734376,66.5703125 C92.0734376,66.5703125 91.2921876,67.078125 91.2921876,67.828125 C91.2921876,68.40625 91.7609376,68.765625 92.7531251,69.0078125 L94.0500001,69.3203125 C95.6359376,69.703125 96.4015626,70.390625 96.4015626,71.6015625 C96.4015626,73.109375 94.9406251,74.1484375 93.0265626,74.1484375 C91.1515626,74.1484375 89.8625001,73.25 89.7140626,71.8515625 L91.0968751,71.8515625 C91.3234376,72.5625 91.9953126,73.015625 93.0734376,73.015625 C94.2062501,73.015625 95.0187501,72.4765625 95.0187501,71.703125 C95.0187501,71.125 94.5812501,70.734375 93.6828126,70.515625 L92.2375001,70.1640625 C90.6593751,69.78125 89.9406251,69.1015625 89.9406251,67.8828125 Z M101.550313,66.6171875 C100.206563,66.6171875 99.2690626,67.6015625 99.1675001,69.09375 L103.808125,69.09375 C103.776875,67.6015625 102.88625,66.6171875 101.550313,66.6171875 Z M103.769063,71.8203125 L105.112813,71.8203125 C104.706563,73.265625 103.409688,74.1484375 101.565938,74.1484375 C99.2300001,74.1484375 97.7690626,72.4609375 97.7690626,69.796875 C97.7690626,67.1484375 99.2534376,65.4296875 101.565938,65.4296875 C103.839375,65.4296875 105.222188,67.046875 105.222188,69.6640625 L105.222188,70.1796875 L99.1675001,70.1796875 L99.1675001,70.2421875 C99.2378126,71.90625 100.1675,72.9609375 101.597188,72.9609375 C102.683125,72.9609375 103.4175,72.5625 103.769063,71.8203125 Z M110.113125,65.4296875 C111.261563,65.4296875 112.308438,66.0390625 112.808438,66.984375 L112.933438,66.984375 L112.933438,65.578125 L114.230313,65.578125 L114.230313,76.8125 L112.870938,76.8125 L112.870938,72.734375 L112.745938,72.734375 C112.206875,73.65625 111.300625,74.1484375 110.113125,74.1484375 C107.964688,74.1484375 106.589688,72.4453125 106.589688,69.7890625 C106.589688,67.1484375 107.980313,65.4296875 110.113125,65.4296875 Z M110.417813,72.9375 C111.956875,72.9375 112.91,71.7265625 112.91,69.7890625 C112.91,67.859375 111.949063,66.640625 110.425625,66.640625 C108.894375,66.640625 107.980313,67.8203125 107.980313,69.7890625 C107.980313,71.765625 108.886563,72.9375 110.417813,72.9375 Z M123.254063,65.578125 L123.254063,74 L121.972813,74 L121.972813,72.6796875 L121.847813,72.6796875 C121.425938,73.6171875 120.5275,74.1484375 119.238438,74.1484375 C117.347813,74.1484375 116.363438,73.0234375 116.363438,71.03125 L116.363438,65.578125 L117.707188,65.578125 L117.707188,70.703125 C117.707188,72.21875 118.269688,72.921875 119.613438,72.921875 C121.097813,72.921875 121.910313,72.0390625 121.910313,70.5625 L121.910313,65.578125 L123.254063,65.578125 Z M128.824688,66.6171875 C127.480938,66.6171875 126.543438,67.6015625 126.441875,69.09375 L131.0825,69.09375 C131.05125,67.6015625 130.160625,66.6171875 128.824688,66.6171875 Z M131.043438,71.8203125 L132.387188,71.8203125 C131.980938,73.265625 130.684063,74.1484375 128.840313,74.1484375 C126.504375,74.1484375 125.043438,72.4609375 125.043438,69.796875 C125.043438,67.1484375 126.527813,65.4296875 128.840313,65.4296875 C131.11375,65.4296875 132.496563,67.046875 132.496563,69.6640625 L132.496563,70.1796875 L126.441875,70.1796875 L126.441875,70.2421875 C126.512188,71.90625 127.441875,72.9609375 128.871563,72.9609375 C129.9575,72.9609375 130.691875,72.5625 131.043438,71.8203125 Z M134.285938,74 L134.285938,65.578125 L135.567188,65.578125 L135.567188,66.90625 L135.692188,66.90625 C136.114063,65.9765625 136.934375,65.4296875 138.223438,65.4296875 C140.114063,65.4296875 141.16875,66.546875 141.16875,68.546875 L141.16875,74 L139.825,74 L139.825,68.875 C139.825,67.359375 139.184375,66.640625 137.840625,66.640625 C136.496875,66.640625 135.629688,67.5390625 135.629688,69.015625 L135.629688,74 L134.285938,74 Z M150.270625,68.15625 L148.91125,68.15625 C148.6925,67.3203125 147.950313,66.640625 146.739375,66.640625 C145.22375,66.640625 144.270625,67.8515625 144.270625,69.7578125 C144.270625,71.703125 145.239375,72.9375 146.739375,72.9375 C147.872188,72.9375 148.66125,72.4140625 148.91125,71.4609375 L150.270625,71.4609375 C150.028438,73.0078125 148.770625,74.1484375 146.747188,74.1484375 C144.387813,74.1484375 142.88,72.4375 142.88,69.7578125 C142.88,67.1328125 144.38,65.4296875 146.739375,65.4296875 C148.78625,65.4296875 150.03625,66.65625 150.270625,68.15625 Z M155.294375,66.6171875 C153.950625,66.6171875 153.013125,67.6015625 152.911563,69.09375 L157.552188,69.09375 C157.520938,67.6015625 156.630313,66.6171875 155.294375,66.6171875 Z M157.513125,71.8203125 L158.856875,71.8203125 C158.450625,73.265625 157.15375,74.1484375 155.31,74.1484375 C152.974063,74.1484375 151.513125,72.4609375 151.513125,69.796875 C151.513125,67.1484375 152.9975,65.4296875 155.31,65.4296875 C157.583438,65.4296875 158.96625,67.046875 158.96625,69.6640625 L158.96625,70.1796875 L152.911563,70.1796875 L152.911563,70.2421875 C152.981875,71.90625 153.911563,72.9609375 155.34125,72.9609375 C156.427188,72.9609375 157.161563,72.5625 157.513125,71.8203125 Z M160.560313,67.8828125 C160.560313,66.484375 161.911875,65.4296875 163.700938,65.4296875 C165.466563,65.4296875 166.693125,66.3046875 166.872813,67.6875 L165.544688,67.6875 C165.365,67.015625 164.70875,66.5703125 163.693125,66.5703125 C162.693125,66.5703125 161.911875,67.078125 161.911875,67.828125 C161.911875,68.40625 162.380625,68.765625 163.372813,69.0078125 L164.669688,69.3203125 C166.255625,69.703125 167.02125,70.390625 167.02125,71.6015625 C167.02125,73.109375 165.560313,74.1484375 163.64625,74.1484375 C161.77125,74.1484375 160.482188,73.25 160.33375,71.8515625 L161.716563,71.8515625 C161.943125,72.5625 162.615,73.015625 163.693125,73.015625 C164.825938,73.015625 165.638438,72.4765625 165.638438,71.703125 C165.638438,71.125 165.200938,70.734375 164.3025,70.515625 L162.857188,70.1640625 C161.279063,69.78125 160.560313,69.1015625 160.560313,67.8828125 Z M169.92,74.078125 C169.365313,74.078125 168.904375,73.6171875 168.904375,73.0625 C168.904375,72.5 169.365313,72.046875 169.92,72.046875 C170.4825,72.046875 170.935625,72.5 170.935625,73.0625 C170.935625,73.6171875 170.4825,74.078125 169.92,74.078125 Z"/>
    </g>
  </g>
</svg>
