<svg xmlns="http://www.w3.org/2000/svg" width="380" height="180" viewBox="0 0 380 180">
  <g fill="none" fill-rule="evenodd">
    <rect width="380" height="180" fill="#FFF" fill-opacity=".01" fill-rule="nonzero"/>
    <g transform="translate(11 62)">
      <rect width="359" height="56" fill="#25333D" rx="14"/>
      <path fill="#89CBDF" d="M296.8275,22.0219727 L296.8275,29.7084961 C296.8275,31.3852539 297.914902,32.5473633 299.815781,32.5473633 C301.724961,32.5473633 302.812363,31.3852539 302.812363,29.7084961 L302.812363,22.0219727 L304.671738,22.0219727 L304.671738,29.8745117 C304.671738,32.4726562 302.820664,34.2905273 299.815781,34.2905273 C296.810898,34.2905273 294.968125,32.4726562 294.968125,29.8745117 L294.968125,22.0219727 L296.8275,22.0219727 Z M309.101094,34 L307.291523,34 L307.291523,22.0219727 L308.968281,22.0219727 L315.11916,30.5302734 L315.251973,30.5302734 L315.251973,22.0219727 L317.061543,22.0219727 L317.061543,34 L315.384785,34 L309.233906,25.4916992 L309.101094,25.4916992 L309.101094,34 Z M319.656426,22.0219727 L323.981133,22.0219727 C327.533867,22.0219727 329.617363,24.2050781 329.617363,27.9736328 C329.617363,31.800293 327.550469,34 323.981133,34 L319.656426,34 L319.656426,22.0219727 Z M321.515801,23.715332 L321.515801,32.3066406 L323.773613,32.3066406 C326.280449,32.3066406 327.724785,30.7460938 327.724785,27.9985352 C327.724785,25.2924805 326.255547,23.715332 323.773613,23.715332 L321.515801,23.715332 Z M336.81918,21.7314453 C340.272305,21.7314453 342.397305,24.1469727 342.397305,28.0068359 C342.397305,31.8583984 340.288906,34.2905273 336.81918,34.2905273 C333.341152,34.2905273 331.224453,31.8666992 331.224453,28.0068359 C331.224453,24.1386719 333.382656,21.7314453 336.81918,21.7314453 Z M336.81918,23.4663086 C334.561367,23.4663086 333.125332,25.2260742 333.125332,28.0068359 C333.125332,30.7709961 334.519863,32.5556641 336.81918,32.5556641 C339.093594,32.5556641 340.496426,30.7709961 340.496426,28.0068359 C340.496426,25.2260742 339.093594,23.4663086 336.81918,23.4663086 Z"/>
      <path fill="#FFF" d="M24.765625,33 L23.6328125,29.7734375 L19.1484375,29.7734375 L18.015625,33 L16.5390625,33 L20.6953125,21.7265625 L22.0859375,21.7265625 L26.2421875,33 L24.765625,33 Z M21.328125,23.546875 L19.5625,28.578125 L23.21875,28.578125 L21.453125,23.546875 L21.328125,23.546875 Z M27.726875,33 L27.726875,24.578125 L29.008125,24.578125 L29.008125,25.828125 L29.133125,25.828125 C29.383125,25.0078125 30.351875,24.4296875 31.4690625,24.4296875 C31.6878125,24.4296875 31.9690625,24.4453125 32.1409375,24.46875 L32.1409375,25.8125 C32.0315625,25.78125 31.5471875,25.734375 31.2815625,25.734375 C30.0003125,25.734375 29.070625,26.59375 29.070625,27.78125 L29.070625,33 L27.726875,33 Z M40.235,27.15625 L38.875625,27.15625 C38.656875,26.3203125 37.9146875,25.640625 36.70375,25.640625 C35.188125,25.640625 34.235,26.8515625 34.235,28.7578125 C34.235,30.703125 35.20375,31.9375 36.70375,31.9375 C37.8365625,31.9375 38.625625,31.4140625 38.875625,30.4609375 L40.235,30.4609375 C39.9928125,32.0078125 38.735,33.1484375 36.7115625,33.1484375 C34.3521875,33.1484375 32.844375,31.4375 32.844375,28.7578125 C32.844375,26.1328125 34.344375,24.4296875 36.70375,24.4296875 C38.750625,24.4296875 40.000625,25.65625 40.235,27.15625 Z M41.9775,33 L41.9775,21.234375 L43.32125,21.234375 L43.32125,25.90625 L43.44625,25.90625 C43.868125,24.9765625 44.7509375,24.4296875 46.04,24.4296875 C47.82125,24.4296875 48.94625,25.5703125 48.94625,27.546875 L48.94625,33 L47.6025,33 L47.6025,27.875 C47.6025,26.3828125 46.930625,25.640625 45.6571875,25.640625 C44.149375,25.640625 43.32125,26.59375 43.32125,28.015625 L43.32125,33 L41.9775,33 Z M51.110625,33 L51.110625,24.578125 L52.454375,24.578125 L52.454375,33 L51.110625,33 Z M51.7825,22.8671875 C51.266875,22.8671875 50.845,22.4453125 50.845,21.9296875 C50.845,21.4140625 51.266875,20.9921875 51.7825,20.9921875 C52.298125,20.9921875 52.72,21.4140625 52.72,21.9296875 C52.72,22.4453125 52.298125,22.8671875 51.7825,22.8671875 Z M61.571875,24.578125 L58.4546875,33 L57.0796875,33 L53.9625,24.578125 L55.4,24.578125 L57.7046875,31.515625 L57.8296875,31.515625 L60.134375,24.578125 L61.571875,24.578125 Z M66.095625,25.6171875 C64.751875,25.6171875 63.814375,26.6015625 63.7128125,28.09375 L68.3534375,28.09375 C68.3221875,26.6015625 67.4315625,25.6171875 66.095625,25.6171875 Z M68.314375,30.8203125 L69.658125,30.8203125 C69.251875,32.265625 67.955,33.1484375 66.11125,33.1484375 C63.7753125,33.1484375 62.314375,31.4609375 62.314375,28.796875 C62.314375,26.1484375 63.79875,24.4296875 66.11125,24.4296875 C68.3846875,24.4296875 69.7675,26.046875 69.7675,28.6640625 L69.7675,29.1796875 L63.7128125,29.1796875 L63.7128125,29.2421875 C63.783125,30.90625 64.7128125,31.9609375 66.1425,31.9609375 C67.2284375,31.9609375 67.9628125,31.5625 68.314375,30.8203125 Z M74.6740626,33.1484375 C72.5178126,33.1484375 71.1350001,31.4375 71.1350001,28.7890625 C71.1350001,26.1484375 72.5334376,24.4296875 74.6740626,24.4296875 C75.8459376,24.4296875 76.8381251,24.984375 77.3146876,25.90625 L77.4318751,25.90625 L77.4318751,21.234375 L78.7756251,21.234375 L78.7756251,33 L77.4943751,33 L77.4943751,31.65625 L77.3693751,31.65625 C76.8381251,32.59375 75.8381251,33.1484375 74.6740626,33.1484375 Z M74.9865626,25.640625 C73.4553126,25.640625 72.5256251,26.828125 72.5256251,28.7890625 C72.5256251,30.7578125 73.4475001,31.9375 74.9865626,31.9375 C76.5178126,31.9375 77.4631251,30.734375 77.4631251,28.7890625 C77.4631251,26.859375 76.5100001,25.640625 74.9865626,25.640625 Z M96.5418751,33 L95.2293751,33 L95.2293751,24.390625 L95.1356251,24.390625 L91.5809376,32.921875 L90.3934376,32.921875 L86.8387501,24.390625 L86.7450001,24.390625 L86.7450001,33 L85.4325001,33 L85.4325001,21.7265625 L87.0653126,21.7265625 L90.9246876,31.0546875 L91.0496876,31.0546875 L94.9090626,21.7265625 L96.5418751,21.7265625 L96.5418751,33 Z M102.284375,25.6171875 C100.940625,25.6171875 100.003125,26.6015625 99.9015626,28.09375 L104.542188,28.09375 C104.510938,26.6015625 103.620313,25.6171875 102.284375,25.6171875 Z M104.503125,30.8203125 L105.846875,30.8203125 C105.440625,32.265625 104.14375,33.1484375 102.3,33.1484375 C99.9640626,33.1484375 98.5031251,31.4609375 98.5031251,28.796875 C98.5031251,26.1484375 99.9875001,24.4296875 102.3,24.4296875 C104.573438,24.4296875 105.95625,26.046875 105.95625,28.6640625 L105.95625,29.1796875 L99.9015626,29.1796875 L99.9015626,29.2421875 C99.9718751,30.90625 100.901563,31.9609375 102.33125,31.9609375 C103.417188,31.9609375 104.151563,31.5625 104.503125,30.8203125 Z M111.105,25.6171875 C109.76125,25.6171875 108.82375,26.6015625 108.722188,28.09375 L113.362813,28.09375 C113.331563,26.6015625 112.440938,25.6171875 111.105,25.6171875 Z M113.32375,30.8203125 L114.6675,30.8203125 C114.26125,32.265625 112.964375,33.1484375 111.120625,33.1484375 C108.784688,33.1484375 107.32375,31.4609375 107.32375,28.796875 C107.32375,26.1484375 108.808125,24.4296875 111.120625,24.4296875 C113.394063,24.4296875 114.776875,26.046875 114.776875,28.6640625 L114.776875,29.1796875 L108.722188,29.1796875 L108.722188,29.2421875 C108.7925,30.90625 109.722188,31.9609375 111.151875,31.9609375 C112.237813,31.9609375 112.972188,31.5625 113.32375,30.8203125 Z M117.12875,22.3984375 L118.4725,22.3984375 L118.4725,24.578125 L120.3475,24.578125 L120.3475,25.703125 L118.4725,25.703125 L118.4725,30.46875 C118.4725,31.4609375 118.8475,31.8828125 119.7225,31.8828125 C119.964688,31.8828125 120.0975,31.875 120.3475,31.8515625 L120.3475,32.984375 C120.081875,33.03125 119.824063,33.0625 119.558438,33.0625 C117.824063,33.0625 117.12875,32.421875 117.12875,30.8125 L117.12875,25.703125 L115.769375,25.703125 L115.769375,24.578125 L117.12875,24.578125 L117.12875,22.3984375 Z M122.09,33 L122.09,24.578125 L123.43375,24.578125 L123.43375,33 L122.09,33 Z M122.761875,22.8671875 C122.24625,22.8671875 121.824375,22.4453125 121.824375,21.9296875 C121.824375,21.4140625 122.24625,20.9921875 122.761875,20.9921875 C123.2775,20.9921875 123.699375,21.4140625 123.699375,21.9296875 C123.699375,22.4453125 123.2775,22.8671875 122.761875,22.8671875 Z M125.67625,33 L125.67625,24.578125 L126.9575,24.578125 L126.9575,25.90625 L127.0825,25.90625 C127.504375,24.9765625 128.324688,24.4296875 129.61375,24.4296875 C131.504375,24.4296875 132.559063,25.546875 132.559063,27.546875 L132.559063,33 L131.215313,33 L131.215313,27.875 C131.215313,26.359375 130.574688,25.640625 129.230938,25.640625 C127.887188,25.640625 127.02,26.5390625 127.02,28.015625 L127.02,33 L125.67625,33 Z M138.098438,31.6875 C139.660938,31.6875 140.598438,30.5 140.598438,28.6640625 C140.598438,26.828125 139.653125,25.640625 138.098438,25.640625 C136.535938,25.640625 135.660938,26.828125 135.660938,28.6640625 C135.660938,30.5 136.535938,31.6875 138.098438,31.6875 Z M138.160938,36.234375 C136.129688,36.234375 134.832813,35.3203125 134.629688,33.9296875 L136.051563,33.9296875 C136.2,34.6171875 136.95,35.0625 138.160938,35.0625 C139.66875,35.0625 140.567188,34.3203125 140.567188,33.078125 L140.567188,31.421875 L140.442188,31.421875 C139.910938,32.3515625 138.957813,32.875 137.801563,32.875 C135.621875,32.875 134.270313,31.1875 134.270313,28.6640625 C134.270313,26.140625 135.6375,24.4296875 137.801563,24.4296875 C138.98125,24.4296875 140.020313,25.0078125 140.504688,25.9140625 L140.629688,25.9140625 L140.629688,24.578125 L141.910938,24.578125 L141.910938,33.1484375 C141.910938,35.03125 140.457813,36.234375 138.160938,36.234375 Z M149.880313,33 L148.489688,33 L148.489688,21.7265625 L149.856875,21.7265625 L155.974063,30.5 L156.099063,30.5 L156.099063,21.7265625 L157.489688,21.7265625 L157.489688,33 L156.1225,33 L150.005313,24.2578125 L149.880313,24.2578125 L149.880313,33 Z M163.33375,33.1484375 C160.935313,33.1484375 159.450938,31.4921875 159.450938,28.7890625 C159.450938,26.078125 160.935313,24.4296875 163.33375,24.4296875 C165.732188,24.4296875 167.216563,26.078125 167.216563,28.7890625 C167.216563,31.4921875 165.732188,33.1484375 163.33375,33.1484375 Z M163.33375,31.9375 C164.9275,31.9375 165.825938,30.78125 165.825938,28.7890625 C165.825938,26.7890625 164.9275,25.640625 163.33375,25.640625 C161.74,25.640625 160.841563,26.7890625 160.841563,28.7890625 C160.841563,30.78125 161.74,31.9375 163.33375,31.9375 Z M169.568438,22.3984375 L170.912188,22.3984375 L170.912188,24.578125 L172.787188,24.578125 L172.787188,25.703125 L170.912188,25.703125 L170.912188,30.46875 C170.912188,31.4609375 171.287188,31.8828125 172.162188,31.8828125 C172.404375,31.8828125 172.537188,31.875 172.787188,31.8515625 L172.787188,32.984375 C172.521563,33.03125 172.26375,33.0625 171.998125,33.0625 C170.26375,33.0625 169.568438,32.421875 169.568438,30.8125 L169.568438,25.703125 L168.209063,25.703125 L168.209063,24.578125 L169.568438,24.578125 L169.568438,22.3984375 Z M177.740625,25.6171875 C176.396875,25.6171875 175.459375,26.6015625 175.357813,28.09375 L179.998438,28.09375 C179.967188,26.6015625 179.076563,25.6171875 177.740625,25.6171875 Z M179.959375,30.8203125 L181.303125,30.8203125 C180.896875,32.265625 179.6,33.1484375 177.75625,33.1484375 C175.420313,33.1484375 173.959375,31.4609375 173.959375,28.796875 C173.959375,26.1484375 175.44375,24.4296875 177.75625,24.4296875 C180.029688,24.4296875 181.4125,26.046875 181.4125,28.6640625 L181.4125,29.1796875 L175.357813,29.1796875 L175.357813,29.2421875 C175.428125,30.90625 176.357813,31.9609375 177.7875,31.9609375 C178.873438,31.9609375 179.607813,31.5625 179.959375,30.8203125 Z M183.006563,26.8828125 C183.006563,25.484375 184.358125,24.4296875 186.147188,24.4296875 C187.912813,24.4296875 189.139375,25.3046875 189.319063,26.6875 L187.990938,26.6875 C187.81125,26.015625 187.155,25.5703125 186.139375,25.5703125 C185.139375,25.5703125 184.358125,26.078125 184.358125,26.828125 C184.358125,27.40625 184.826875,27.765625 185.819063,28.0078125 L187.115938,28.3203125 C188.701875,28.703125 189.4675,29.390625 189.4675,30.6015625 C189.4675,32.109375 188.006563,33.1484375 186.0925,33.1484375 C184.2175,33.1484375 182.928438,32.25 182.78,30.8515625 L184.162813,30.8515625 C184.389375,31.5625 185.06125,32.015625 186.139375,32.015625 C187.272188,32.015625 188.084688,31.4765625 188.084688,30.703125 C188.084688,30.125 187.647188,29.734375 186.74875,29.515625 L185.303438,29.1640625 C183.725313,28.78125 183.006563,28.1015625 183.006563,26.8828125 Z M195.374375,24.8984375 C195.374375,22.8984375 196.89,21.4609375 198.98375,21.4609375 C201.007188,21.4609375 202.554063,22.8359375 202.554063,24.625 C202.554063,25.796875 202.022813,26.7109375 200.17125,28.6953125 L197.460313,31.609375 L197.460313,31.734375 L202.741563,31.734375 L202.741563,33 L195.444688,33 L195.444688,32.03125 L199.343125,27.7734375 C200.79625,26.1953125 201.147813,25.5859375 201.147813,24.6796875 C201.147813,23.5546875 200.186875,22.6875 198.944688,22.6875 C197.624375,22.6875 196.73375,23.5703125 196.73375,24.8984375 L196.73375,24.90625 L195.374375,24.90625 L195.374375,24.8984375 Z M207.093438,27.8046875 L207.093438,26.6015625 L208.460625,26.6015625 C209.741875,26.6015625 210.648125,25.7734375 210.648125,24.6015625 C210.648125,23.453125 209.780938,22.6875 208.484063,22.6875 C207.187188,22.6875 206.335625,23.40625 206.218438,24.6171875 L204.85125,24.6171875 C204.991875,22.6640625 206.390313,21.4609375 208.53875,21.4609375 C210.5075,21.4609375 212.077813,22.7734375 212.077813,24.4140625 C212.077813,25.7578125 211.335625,26.7421875 210.10125,27.0390625 L210.10125,27.1640625 C211.6325,27.359375 212.562188,28.421875 212.562188,29.9609375 C212.562188,31.8203125 210.82,33.265625 208.593438,33.265625 C206.304375,33.265625 204.72625,31.9921875 204.624688,30.0625 L205.984063,30.0625 C206.109063,31.265625 207.124688,32.0390625 208.577813,32.0390625 C210.062188,32.0390625 211.116875,31.15625 211.116875,29.921875 C211.116875,28.6171875 210.124688,27.8046875 208.523125,27.8046875 L207.093438,27.8046875 Z M214.429688,35.3984375 L213.242188,35.3984375 L217.382813,21.234375 L218.570313,21.234375 L214.429688,35.3984375 Z M222.203438,33 L222.203438,23.2890625 L222.078438,23.2890625 L219.21125,25.3671875 L219.21125,23.8828125 L222.21125,21.7265625 L223.609688,21.7265625 L223.609688,33 L222.203438,33 Z M230.438125,33.265625 C227.899063,33.265625 226.438125,31.109375 226.438125,27.359375 C226.438125,23.640625 227.914688,21.4609375 230.438125,21.4609375 C232.945938,21.4609375 234.4225,23.6484375 234.4225,27.3828125 C234.4225,31.125 232.969375,33.265625 230.438125,33.265625 Z M230.438125,32.0390625 C232.102188,32.0390625 233.008438,30.3828125 233.008438,27.359375 C233.008438,24.3671875 232.086563,22.6953125 230.438125,22.6953125 C228.789688,22.6953125 227.852188,24.3828125 227.852188,27.359375 C227.852188,30.375 228.774063,32.0390625 230.438125,32.0390625 Z M236.899375,33.078125 C236.344688,33.078125 235.88375,32.6171875 235.88375,32.0625 C235.88375,31.5 236.344688,31.046875 236.899375,31.046875 C237.461875,31.046875 237.915,31.5 237.915,32.0625 C237.915,32.6171875 237.461875,33.078125 236.899375,33.078125 Z"/>
    </g>
  </g>
</svg>
