<svg xmlns="http://www.w3.org/2000/svg" width="155" height="231" viewBox="0 0 155 231">
  <defs>
    <linearGradient id="1-a" x1="-12.779%" x2="65.803%" y1="-20.088%" y2="87.803%">
      <stop offset="0%" stop-color="#266900"/>
      <stop offset="10%" stop-color="#357A0C"/>
      <stop offset="34%" stop-color="#539D26"/>
      <stop offset="57%" stop-color="#6AB738"/>
      <stop offset="78%" stop-color="#77C743"/>
      <stop offset="94%" stop-color="#7CCC47"/>
    </linearGradient>
    <linearGradient id="1-b" x1="17.52%" x2="84.52%" y1="21.84%" y2="82.98%">
      <stop offset="0%" stop-color="#266900" stop-opacity=".94"/>
      <stop offset="72%" stop-color="#7CCC47" stop-opacity="0"/>
    </linearGradient>
    <linearGradient id="1-c" x1="-37.982%" y1="50.002%" y2="50.002%">
      <stop offset="0%" stop-color="#266900"/>
      <stop offset="10%" stop-color="#357A0C"/>
      <stop offset="34%" stop-color="#539D26"/>
      <stop offset="57%" stop-color="#6AB738"/>
      <stop offset="78%" stop-color="#77C743"/>
      <stop offset="94%" stop-color="#7CCC47"/>
    </linearGradient>
    <linearGradient id="1-d" x1="50.006%" x2="50.006%" y1="-68.257%" y2="163.674%">
      <stop offset="0%" stop-color="#6DB33F" stop-opacity=".94"/>
      <stop offset="29%" stop-color="#73BD42" stop-opacity=".96"/>
      <stop offset="79%" stop-color="#7CCC47"/>
    </linearGradient>
  </defs>
  <g fill="none" fill-rule="evenodd" transform="translate(-2 -18)">
    <path fill="#3F5564" d="M2.145,207.596 C2.145,207.353 2.226,207.11 2.361,206.84 L9.381,191.18 C9.759,190.343 10.434,189.83 11.379,189.83 L11.541,189.83 C12.486,189.83 13.134,190.343 13.512,191.18 L20.532,206.84 C20.667,207.083 20.721,207.326 20.721,207.542 C20.721,208.433 20.046,209.135 19.155,209.135 C18.372,209.135 17.832,208.676 17.535,207.974 L15.996,204.437 L6.816,204.437 L5.223,208.082 C4.953,208.757 4.386,209.135 3.684,209.135 C2.82,209.135 2.145,208.46 2.145,207.596 Z M8.085,201.494 L14.727,201.494 L11.406,193.853 L8.085,201.494 Z M23.934,211.835 L23.934,196.229 C23.934,195.311 24.636,194.582 25.554,194.582 C26.472,194.582 27.201,195.311 27.201,196.229 L27.201,197.12 C28.254,195.635 29.739,194.447 32.061,194.447 C35.409,194.447 38.676,197.093 38.676,201.845 L38.676,201.899 C38.676,206.624 35.436,209.297 32.061,209.297 C29.685,209.297 28.2,208.109 27.201,206.786 L27.201,211.835 C27.201,212.753 26.472,213.455 25.554,213.455 C24.663,213.455 23.934,212.753 23.934,211.835 Z M31.278,206.462 C33.519,206.462 35.355,204.707 35.355,201.899 L35.355,201.845 C35.355,199.091 33.492,197.282 31.278,197.282 C29.064,197.282 27.12,199.118 27.12,201.845 L27.12,201.899 C27.12,204.626 29.064,206.462 31.278,206.462 Z M42.051,211.835 L42.051,196.229 C42.051,195.311 42.753,194.582 43.671,194.582 C44.589,194.582 45.318,195.311 45.318,196.229 L45.318,197.12 C46.371,195.635 47.856,194.447 50.178,194.447 C53.526,194.447 56.793,197.093 56.793,201.845 L56.793,201.899 C56.793,206.624 53.553,209.297 50.178,209.297 C47.802,209.297 46.317,208.109 45.318,206.786 L45.318,211.835 C45.318,212.753 44.589,213.455 43.671,213.455 C42.78,213.455 42.051,212.753 42.051,211.835 Z M49.395,206.462 C51.636,206.462 53.472,204.707 53.472,201.899 L53.472,201.845 C53.472,199.091 51.609,197.282 49.395,197.282 C47.181,197.282 45.237,199.118 45.237,201.845 L45.237,201.899 C45.237,204.626 47.181,206.462 49.395,206.462 Z M60.357,207.515 L60.357,190.775 C60.357,189.884 61.059,189.155 61.977,189.155 C62.895,189.155 63.624,189.884 63.624,190.775 L63.624,207.515 C63.624,208.433 62.895,209.135 61.977,209.135 C61.086,209.135 60.357,208.433 60.357,207.515 Z M67.836,191.072 L67.836,190.91 C67.836,189.938 68.646,189.317 69.699,189.317 C70.752,189.317 71.562,189.938 71.562,190.91 L71.562,191.072 C71.562,192.044 70.752,192.692 69.699,192.692 C68.646,192.692 67.836,192.044 67.836,191.072 Z M68.079,207.515 L68.079,196.229 C68.079,195.311 68.781,194.582 69.699,194.582 C70.617,194.582 71.346,195.311 71.346,196.229 L71.346,207.515 C71.346,208.433 70.617,209.135 69.699,209.135 C68.808,209.135 68.079,208.433 68.079,207.515 Z M82.2,209.324 C77.961,209.324 74.829,206.003 74.829,201.953 L74.829,201.899 C74.829,197.849 77.961,194.447 82.254,194.447 C84.495,194.447 86.034,195.176 87.249,196.229 C87.465,196.418 87.762,196.823 87.762,197.363 C87.762,198.2 87.087,198.848 86.25,198.848 C85.845,198.848 85.494,198.686 85.278,198.524 C84.441,197.822 83.523,197.309 82.227,197.309 C79.851,197.309 78.096,199.361 78.096,201.845 L78.096,201.899 C78.096,204.437 79.851,206.462 82.362,206.462 C83.658,206.462 84.657,205.949 85.548,205.193 C85.737,205.031 86.061,204.842 86.439,204.842 C87.222,204.842 87.843,205.49 87.843,206.273 C87.843,206.705 87.681,207.056 87.384,207.299 C86.115,208.514 84.576,209.324 82.2,209.324 Z M95.133,209.297 C92.46,209.297 90.084,207.758 90.084,204.896 L90.084,204.842 C90.084,201.764 92.487,200.252 95.97,200.252 C97.563,200.252 98.697,200.495 99.804,200.846 L99.804,200.495 C99.804,198.47 98.562,197.39 96.267,197.39 C95.025,197.39 93.999,197.606 93.108,197.957 C92.919,198.011 92.757,198.038 92.595,198.038 C91.839,198.038 91.218,197.444 91.218,196.688 C91.218,196.094 91.623,195.581 92.109,195.392 C93.459,194.879 94.836,194.555 96.699,194.555 C98.832,194.555 100.425,195.122 101.424,196.148 C102.477,197.174 102.963,198.686 102.963,200.549 L102.963,207.569 C102.963,208.46 102.261,209.135 101.37,209.135 C100.425,209.135 99.777,208.487 99.777,207.758 L99.777,207.218 C98.805,208.379 97.32,209.297 95.133,209.297 Z M96.051,206.921 C98.211,206.921 99.858,205.679 99.858,203.87 L99.858,202.898 C99.021,202.574 97.914,202.331 96.618,202.331 C94.512,202.331 93.27,203.222 93.27,204.707 L93.27,204.761 C93.27,206.138 94.485,206.921 96.051,206.921 Z M111.522,209.243 C109.119,209.243 107.418,208.19 107.418,205.058 L107.418,197.552 L106.878,197.552 C106.095,197.552 105.474,196.931 105.474,196.148 C105.474,195.365 106.095,194.744 106.878,194.744 L107.418,194.744 L107.418,192.314 C107.418,191.423 108.147,190.694 109.065,190.694 C109.956,190.694 110.685,191.423 110.685,192.314 L110.685,194.744 L113.25,194.744 C114.033,194.744 114.681,195.365 114.681,196.148 C114.681,196.931 114.033,197.552 113.25,197.552 L110.685,197.552 L110.685,204.545 C110.685,205.814 111.333,206.327 112.44,206.327 C112.818,206.327 113.142,206.246 113.25,206.246 C113.979,206.246 114.627,206.84 114.627,207.596 C114.627,208.19 114.222,208.676 113.763,208.865 C113.061,209.108 112.386,209.243 111.522,209.243 Z M117.786,191.072 L117.786,190.91 C117.786,189.938 118.596,189.317 119.649,189.317 C120.702,189.317 121.512,189.938 121.512,190.91 L121.512,191.072 C121.512,192.044 120.702,192.692 119.649,192.692 C118.596,192.692 117.786,192.044 117.786,191.072 Z M118.029,207.515 L118.029,196.229 C118.029,195.311 118.731,194.582 119.649,194.582 C120.567,194.582 121.296,195.311 121.296,196.229 L121.296,207.515 C121.296,208.433 120.567,209.135 119.649,209.135 C118.758,209.135 118.029,208.433 118.029,207.515 Z M132.339,209.324 C127.992,209.324 124.779,206.003 124.779,201.953 L124.779,201.899 C124.779,197.822 128.019,194.447 132.393,194.447 C136.767,194.447 139.98,197.768 139.98,201.845 L139.98,201.899 C139.98,205.949 136.74,209.324 132.339,209.324 Z M132.393,206.462 C135.039,206.462 136.713,204.41 136.713,201.953 L136.713,201.899 C136.713,199.388 134.904,197.309 132.339,197.309 C129.72,197.309 128.046,199.361 128.046,201.845 L128.046,201.899 C128.046,204.383 129.855,206.462 132.393,206.462 Z M143.301,207.515 L143.301,196.229 C143.301,195.311 144.003,194.582 144.921,194.582 C145.839,194.582 146.568,195.311 146.568,196.229 L146.568,196.931 C147.486,195.608 148.809,194.447 151.023,194.447 C154.236,194.447 156.099,196.607 156.099,199.901 L156.099,207.515 C156.099,208.433 155.397,209.135 154.479,209.135 C153.561,209.135 152.832,208.433 152.832,207.515 L152.832,200.9 C152.832,198.686 151.725,197.417 149.781,197.417 C147.891,197.417 146.568,198.74 146.568,200.954 L146.568,207.515 C146.568,208.433 145.839,209.135 144.921,209.135 C144.03,209.135 143.301,208.433 143.301,207.515 Z"/>
    <g transform="translate(16 16)">
      <rect width="128" height="128"/>
      <path fill="url(#1-a)" d="M109.976774,25.2123297 L73.7353405,4.58781362 C67.6998969,1.1517418 60.3001031,1.1517418 54.2646595,4.58781362 L18.0209319,25.2215054 C11.8756418,28.7206546 8.08095125,35.2486083 8.08143369,42.3202867 L8.08143369,58.4166308 L23.9415054,67.5739068 C25.0524584,68.2158709 26.4217762,68.2152273 27.5321253,67.5722192 C28.6424744,66.929211 29.3245712,65.7418713 29.3207168,64.4587814 L29.3207168,45.1899642 C29.321442,43.9098855 30.0041501,42.7271659 31.1122581,42.0863082 L62.2084588,24.1341935 C63.3170683,23.4941375 64.6829317,23.4941375 65.7915412,24.1341935 L96.8877419,42.0886022 C97.996542,42.7287681 98.6795031,43.9119261 98.6792832,45.1922581 L98.6792832,64.4587814 C98.680009,65.7391132 99.3634144,66.9218966 100.472278,67.561953 C101.581141,68.2020093 102.947164,68.2021939 104.056201,67.5624373 L119.916272,58.4051613 L119.916272,42.3111111 C119.916755,35.2394327 116.122064,28.711479 109.976774,25.2123297 Z"/>
      <path fill="url(#1-b)" d="M116.248315,97.5575627 L67.6702509,125.605161 C65.3990917,126.916416 62.6009083,126.916416 60.3297491,125.605161 L40.861362,114.365018 L103.489606,41.2903226 L119.916272,56.0332616 L119.916272,91.2034409 C119.915696,93.8244265 118.517683,96.2462509 116.248315,97.5575627 Z"/>
      <path fill="#FFF" d="M105.937204,83.2206452 L105.937204,48.5230108 C105.936468,44.2762291 103.67104,40.352167 99.9936918,38.227957 L69.9458065,20.874552 C66.2665286,18.7503199 61.7334714,18.7503199 58.0541935,20.874552 L28.0040143,38.2233692 C24.3266666,40.3475792 22.0612376,44.2716413 22.0605018,48.5184229 L22.0605018,83.2206452 C22.0604184,87.4682463 24.325957,91.3933729 28.0040143,93.5179928 L58.0541935,110.86681 C61.7341042,112.988679 66.2658958,112.988679 69.9458065,110.86681 L99.9959857,93.5179928 C103.67316,91.3927902 105.937761,87.4677734 105.937204,83.2206452 Z"/>
      <path fill="url(#1-c)" d="M119.916272,84.0785663 L119.916273,70.916129 L78.1121147,95.0526165 C69.3817132,100.090386 58.6274624,100.090386 49.8970609,95.0526165 L8.0837276,70.916129 L8.0837276,84.0785663 C8.08353575,91.1087205 11.8340017,97.6049229 17.9222939,101.12 L54.1660215,122.042724 C60.254401,125.556759 67.7547746,125.556759 73.8431541,122.042724 L110.086882,101.12 C116.171642,97.6025918 119.918357,91.1068284 119.916272,84.0785663 Z"/>
      <path fill="url(#1-d)" d="M39.8956272,50.3948387 C39.5355813,49.5781317 38.860974,48.9414369 38.0248293,48.6291783 C37.1886846,48.3169197 36.2618718,48.3555635 35.4546237,48.7363441 C34.6308846,49.0885114 33.9891684,49.7652556 33.6812362,50.6065318 C33.3733039,51.447808 33.4264999,52.3789108 33.8282437,53.1796416 L41.2719713,69.3562724 C42.4418638,71.8933333 43.6759857,73.2215054 45.9905376,73.2215054 C48.4656631,73.2215054 49.5437993,71.7740502 50.7136918,69.3562724 C50.7136918,69.3562724 57.205448,55.2189247 57.2696774,55.0744086 C57.4156871,54.6899045 57.795107,54.4453275 58.2055914,54.4711111 C58.4809685,54.4723105 58.7444507,54.5834921 58.9374428,54.7799305 C59.1304348,54.9763688 59.236936,55.2417774 59.2332616,55.5171326 L59.2332616,69.3149821 C59.2332616,71.4758423 60.4329749,73.2490323 62.7383513,73.2490323 C65.0437276,73.2490323 66.2939068,71.4758423 66.2939068,69.3149821 L66.2939068,57.9853763 C66.2939068,56.0194982 67.594552,54.6936201 69.4319713,54.5055197 C71.5400717,54.276129 73.3499642,56.0080287 73.3499642,58.1253047 L73.3499642,69.317276 C73.3499642,71.4758423 74.5496774,73.2467384 76.8504659,73.2467384 C79.1512545,73.2467384 80.4037276,71.4758423 80.4037276,69.317276 L80.4037276,57.9853763 C80.4037276,55.8589247 81.9222939,54.4802867 84.0005735,54.4802867 C86.078853,54.4802867 87.4597849,55.9070968 87.4597849,57.9853763 L87.4597849,69.3149821 C87.4597849,71.4758423 88.6594982,73.2490323 90.9625806,73.2490323 C93.2656631,73.2490323 94.5089606,71.4758423 94.5089606,69.3149821 L94.5089606,56.4691039 C94.5089606,51.7367742 90.707957,48.4243728 86.1270251,48.4243728 C81.5460932,48.4243728 78.6810036,51.5876703 78.6810036,51.5876703 C77.1601434,49.6126165 75.0612186,48.4266667 71.5102509,48.4266667 C67.7643011,48.4266667 64.4840143,51.5876703 64.4840143,51.5876703 C62.9608602,49.6126165 60.3664516,48.4266667 58.2193548,48.4266667 C54.9000717,48.4266667 52.2551971,49.8878853 50.6494624,53.5650179 L45.8964875,64.7684588 L39.7992832,50.3948387"/>
    </g>
    <path fill="#3F5564" d="M15.189,243.708 L19.184,243.708 L19.184,245 L13.761,245 L13.761,233.661 L15.189,233.661 L15.189,243.708 Z M26.817,238.455 L26.817,237.163 L28.109,237.163 L28.109,245 L26.817,245 L26.817,243.487 C26.035,244.66 25.151,245.187 23.961,245.187 C21.802,245.187 20.272,243.487 20.272,241.107 C20.272,238.71 21.836,236.976 23.995,236.976 C25.185,236.976 26.052,237.435 26.817,238.455 Z M24.182,238.132 C23.332,238.132 22.737,238.421 22.278,239.067 C21.87,239.628 21.632,240.376 21.632,241.141 C21.632,242.807 22.72,244.065 24.148,244.065 C25.627,244.065 26.834,242.688 26.834,241.005 C26.834,239.305 25.746,238.132 24.182,238.132 Z M32.002,243.657 L32.002,245 L30.71,245 L30.71,233.661 L32.002,233.661 L32.002,238.506 C32.784,237.435 33.617,236.976 34.756,236.976 C36.949,236.976 38.479,238.676 38.479,241.107 C38.479,243.504 36.966,245.187 34.824,245.187 C33.617,245.187 32.767,244.728 32.002,243.657 Z M34.586,238.132 C33.09,238.132 31.985,239.373 31.985,241.09 C31.985,242.875 33.005,244.065 34.535,244.065 C36.082,244.065 37.119,242.892 37.119,241.141 C37.119,239.39 36.065,238.132 34.586,238.132 Z M47.727,241.498 L41.199,241.498 C41.267,242.161 41.386,242.501 41.709,242.926 C42.219,243.623 42.967,243.997 43.817,243.997 C44.786,243.997 45.704,243.47 46.163,242.654 L47.302,243.079 C46.656,244.388 45.313,245.187 43.817,245.187 C41.488,245.187 39.822,243.487 39.822,241.107 C39.822,238.693 41.471,236.976 43.766,236.976 C46.044,236.976 47.744,238.693 47.744,240.988 C47.744,241.09 47.744,241.311 47.727,241.498 Z M41.216,240.546 L46.367,240.546 C46.316,239.934 46.197,239.594 45.925,239.203 C45.432,238.54 44.633,238.132 43.766,238.132 C42.899,238.132 42.117,238.54 41.658,239.22 C41.42,239.594 41.318,239.917 41.216,240.546 Z M50.906,245 L49.614,245 L49.614,233.661 L50.906,233.661 L50.906,245 Z M57.689,237.622 L65.441,237.622 L65.441,238.353 L57.689,238.353 L57.689,237.622 Z M57.689,240.019 L65.441,240.019 L65.441,240.75 L57.689,240.75 L57.689,240.019 Z M78.599,242.382 L73.516,242.382 L72.479,245 L71,245 L75.267,233.661 L76.967,233.661 L81.132,245 L79.534,245 L78.599,242.382 Z M78.157,241.158 L76.083,235.463 L73.941,241.158 L78.157,241.158 Z M82.509,237.163 L83.801,237.163 L83.801,238.591 C84.549,237.435 85.348,236.976 86.657,236.976 C88.833,236.976 90.346,238.642 90.346,241.022 C90.346,243.487 88.833,245.187 86.657,245.187 C86.045,245.187 85.484,245.051 84.94,244.779 C84.464,244.541 84.226,244.337 83.801,243.776 L83.801,248.672 L82.509,248.672 L82.509,237.163 Z M86.436,238.132 C84.872,238.132 83.801,239.373 83.801,241.209 C83.801,242.926 84.838,244.065 86.385,244.065 C87.932,244.065 88.969,242.858 88.969,241.073 C88.969,240.155 88.748,239.458 88.289,238.948 C87.83,238.438 87.133,238.132 86.436,238.132 Z M92.301,237.163 L93.593,237.163 L93.593,238.591 C94.341,237.435 95.14,236.976 96.449,236.976 C98.625,236.976 100.138,238.642 100.138,241.022 C100.138,243.487 98.625,245.187 96.449,245.187 C95.837,245.187 95.276,245.051 94.732,244.779 C94.256,244.541 94.018,244.337 93.593,243.776 L93.593,248.672 L92.301,248.672 L92.301,237.163 Z M96.228,238.132 C94.664,238.132 93.593,239.373 93.593,241.209 C93.593,242.926 94.63,244.065 96.177,244.065 C97.724,244.065 98.761,242.858 98.761,241.073 C98.761,240.155 98.54,239.458 98.081,238.948 C97.622,238.438 96.925,238.132 96.228,238.132 Z M107.193,237.163 L108.485,237.163 L108.485,238.268 C109.165,237.35 109.845,236.976 110.814,236.976 C111.528,236.976 112.174,237.214 112.633,237.622 C113.126,238.098 113.296,238.642 113.296,239.713 L113.296,245 L112.004,245 L112.004,240.002 C112.004,239.305 111.919,238.931 111.715,238.659 C111.477,238.336 111.018,238.132 110.491,238.132 C109.913,238.132 109.386,238.353 108.995,238.795 C108.621,239.203 108.485,239.577 108.485,240.223 L108.485,245 L107.193,245 L107.193,237.163 Z M121.762,238.455 L121.762,237.163 L123.054,237.163 L123.054,245 L121.762,245 L121.762,243.487 C120.98,244.66 120.096,245.187 118.906,245.187 C116.747,245.187 115.217,243.487 115.217,241.107 C115.217,238.71 116.781,236.976 118.94,236.976 C120.13,236.976 120.997,237.435 121.762,238.455 Z M119.127,238.132 C118.277,238.132 117.682,238.421 117.223,239.067 C116.815,239.628 116.577,240.376 116.577,241.141 C116.577,242.807 117.665,244.065 119.093,244.065 C120.572,244.065 121.779,242.688 121.779,241.005 C121.779,239.305 120.691,238.132 119.127,238.132 Z M125.655,237.163 L126.947,237.163 L126.947,238.251 C127.542,237.35 128.205,236.976 129.174,236.976 C130.245,236.976 130.925,237.435 131.282,238.404 C131.86,237.401 132.591,236.976 133.764,236.976 C134.665,236.976 135.345,237.265 135.753,237.809 C136.127,238.302 136.229,238.744 136.229,239.985 L136.229,245 L134.937,245 L134.937,240.291 C134.937,239.339 134.903,239.118 134.716,238.795 C134.478,238.387 133.968,238.132 133.356,238.132 C132.217,238.132 131.588,238.897 131.588,240.291 L131.588,245 L130.296,245 L130.296,240.308 C130.296,239.543 130.228,239.152 130.041,238.812 C129.82,238.37 129.344,238.132 128.766,238.132 C127.627,238.132 126.947,238.948 126.947,240.308 L126.947,245 L125.655,245 L125.655,237.163 Z M146.055,241.498 L139.527,241.498 C139.595,242.161 139.714,242.501 140.037,242.926 C140.547,243.623 141.295,243.997 142.145,243.997 C143.114,243.997 144.032,243.47 144.491,242.654 L145.63,243.079 C144.984,244.388 143.641,245.187 142.145,245.187 C139.816,245.187 138.15,243.487 138.15,241.107 C138.15,238.693 139.799,236.976 142.094,236.976 C144.372,236.976 146.072,238.693 146.072,240.988 C146.072,241.09 146.072,241.311 146.055,241.498 Z M139.544,240.546 L144.695,240.546 C144.644,239.934 144.525,239.594 144.253,239.203 C143.76,238.54 142.961,238.132 142.094,238.132 C141.227,238.132 140.445,238.54 139.986,239.22 C139.748,239.594 139.646,239.917 139.544,240.546 Z"/>
  </g>
</svg>
