<svg xmlns="http://www.w3.org/2000/svg" width="160" height="300" viewBox="0 0 160 300">
  <g fill="none" fill-rule="evenodd">
    <rect width="160" height="300" fill="#FFF" fill-opacity=".01" fill-rule="nonzero"/>
    <g transform="translate(0 110)">
      <rect width="160" height="58" fill="#F2F2F2"/>
      <path fill="#3F5564" d="M2.5775,35.596 C2.5775,35.353 2.6585,35.11 2.7935,34.84 L9.8135,19.18 C10.1915,18.343 10.8665,17.83 11.8115,17.83 L11.9735,17.83 C12.9185,17.83 13.5665,18.343 13.9445,19.18 L20.9645,34.84 C21.0995,35.083 21.1535,35.326 21.1535,35.542 C21.1535,36.433 20.4785,37.135 19.5875,37.135 C18.8045,37.135 18.2645,36.676 17.9675,35.974 L16.4285,32.437 L7.2485,32.437 L5.6555,36.082 C5.3855,36.757 4.8185,37.135 4.1165,37.135 C3.2525,37.135 2.5775,36.46 2.5775,35.596 Z M8.5175,29.494 L15.1595,29.494 L11.8385,21.853 L8.5175,29.494 Z M24.3665,39.835 L24.3665,24.229 C24.3665,23.311 25.0685,22.582 25.9865,22.582 C26.9045,22.582 27.6335,23.311 27.6335,24.229 L27.6335,25.12 C28.6865,23.635 30.1715,22.447 32.4935,22.447 C35.8415,22.447 39.1085,25.093 39.1085,29.845 L39.1085,29.899 C39.1085,34.624 35.8685,37.297 32.4935,37.297 C30.1175,37.297 28.6325,36.109 27.6335,34.786 L27.6335,39.835 C27.6335,40.753 26.9045,41.455 25.9865,41.455 C25.0955,41.455 24.3665,40.753 24.3665,39.835 Z M31.7105,34.462 C33.9515,34.462 35.7875,32.707 35.7875,29.899 L35.7875,29.845 C35.7875,27.091 33.9245,25.282 31.7105,25.282 C29.4965,25.282 27.5525,27.118 27.5525,29.845 L27.5525,29.899 C27.5525,32.626 29.4965,34.462 31.7105,34.462 Z M42.4835,39.835 L42.4835,24.229 C42.4835,23.311 43.1855,22.582 44.1035,22.582 C45.0215,22.582 45.7505,23.311 45.7505,24.229 L45.7505,25.12 C46.8035,23.635 48.2885,22.447 50.6105,22.447 C53.9585,22.447 57.2255,25.093 57.2255,29.845 L57.2255,29.899 C57.2255,34.624 53.9855,37.297 50.6105,37.297 C48.2345,37.297 46.7495,36.109 45.7505,34.786 L45.7505,39.835 C45.7505,40.753 45.0215,41.455 44.1035,41.455 C43.2125,41.455 42.4835,40.753 42.4835,39.835 Z M49.8275,34.462 C52.0685,34.462 53.9045,32.707 53.9045,29.899 L53.9045,29.845 C53.9045,27.091 52.0415,25.282 49.8275,25.282 C47.6135,25.282 45.6695,27.118 45.6695,29.845 L45.6695,29.899 C45.6695,32.626 47.6135,34.462 49.8275,34.462 Z M60.7895,35.515 L60.7895,18.775 C60.7895,17.884 61.4915,17.155 62.4095,17.155 C63.3275,17.155 64.0565,17.884 64.0565,18.775 L64.0565,35.515 C64.0565,36.433 63.3275,37.135 62.4095,37.135 C61.5185,37.135 60.7895,36.433 60.7895,35.515 Z M68.2685,19.072 L68.2685,18.91 C68.2685,17.938 69.0785,17.317 70.1315,17.317 C71.1845,17.317 71.9945,17.938 71.9945,18.91 L71.9945,19.072 C71.9945,20.044 71.1845,20.692 70.1315,20.692 C69.0785,20.692 68.2685,20.044 68.2685,19.072 Z M68.5115,35.515 L68.5115,24.229 C68.5115,23.311 69.2135,22.582 70.1315,22.582 C71.0495,22.582 71.7785,23.311 71.7785,24.229 L71.7785,35.515 C71.7785,36.433 71.0495,37.135 70.1315,37.135 C69.2405,37.135 68.5115,36.433 68.5115,35.515 Z M82.6325,37.324 C78.3935,37.324 75.2615,34.003 75.2615,29.953 L75.2615,29.899 C75.2615,25.849 78.3935,22.447 82.6865,22.447 C84.9275,22.447 86.4665,23.176 87.6815,24.229 C87.8975,24.418 88.1945,24.823 88.1945,25.363 C88.1945,26.2 87.5195,26.848 86.6825,26.848 C86.2775,26.848 85.9265,26.686 85.7105,26.524 C84.8735,25.822 83.9555,25.309 82.6595,25.309 C80.2835,25.309 78.5285,27.361 78.5285,29.845 L78.5285,29.899 C78.5285,32.437 80.2835,34.462 82.7945,34.462 C84.0905,34.462 85.0895,33.949 85.9805,33.193 C86.1695,33.031 86.4935,32.842 86.8715,32.842 C87.6545,32.842 88.2755,33.49 88.2755,34.273 C88.2755,34.705 88.1135,35.056 87.8165,35.299 C86.5475,36.514 85.0085,37.324 82.6325,37.324 Z M95.5655,37.297 C92.8925,37.297 90.5165,35.758 90.5165,32.896 L90.5165,32.842 C90.5165,29.764 92.9195,28.252 96.4025,28.252 C97.9955,28.252 99.1295,28.495 100.2365,28.846 L100.2365,28.495 C100.2365,26.47 98.9945,25.39 96.6995,25.39 C95.4575,25.39 94.4315,25.606 93.5405,25.957 C93.3515,26.011 93.1895,26.038 93.0275,26.038 C92.2715,26.038 91.6505,25.444 91.6505,24.688 C91.6505,24.094 92.0555,23.581 92.5415,23.392 C93.8915,22.879 95.2685,22.555 97.1315,22.555 C99.2645,22.555 100.8575,23.122 101.8565,24.148 C102.9095,25.174 103.3955,26.686 103.3955,28.549 L103.3955,35.569 C103.3955,36.46 102.6935,37.135 101.8025,37.135 C100.8575,37.135 100.2095,36.487 100.2095,35.758 L100.2095,35.218 C99.2375,36.379 97.7525,37.297 95.5655,37.297 Z M96.4835,34.921 C98.6435,34.921 100.2905,33.679 100.2905,31.87 L100.2905,30.898 C99.4535,30.574 98.3465,30.331 97.0505,30.331 C94.9445,30.331 93.7025,31.222 93.7025,32.707 L93.7025,32.761 C93.7025,34.138 94.9175,34.921 96.4835,34.921 Z M112.0895,37.243 C109.6865,37.243 107.9855,36.19 107.9855,33.058 L107.9855,25.552 L107.4455,25.552 C106.6625,25.552 106.0415,24.931 106.0415,24.148 C106.0415,23.365 106.6625,22.744 107.4455,22.744 L107.9855,22.744 L107.9855,20.314 C107.9855,19.423 108.7145,18.694 109.6325,18.694 C110.5235,18.694 111.2525,19.423 111.2525,20.314 L111.2525,22.744 L113.8175,22.744 C114.6005,22.744 115.2485,23.365 115.2485,24.148 C115.2485,24.931 114.6005,25.552 113.8175,25.552 L111.2525,25.552 L111.2525,32.545 C111.2525,33.814 111.9005,34.327 113.0075,34.327 C113.3855,34.327 113.7095,34.246 113.8175,34.246 C114.5465,34.246 115.1945,34.84 115.1945,35.596 C115.1945,36.19 114.7895,36.676 114.3305,36.865 C113.6285,37.108 112.9535,37.243 112.0895,37.243 Z M118.3535,19.072 L118.3535,18.91 C118.3535,17.938 119.1635,17.317 120.2165,17.317 C121.2695,17.317 122.0795,17.938 122.0795,18.91 L122.0795,19.072 C122.0795,20.044 121.2695,20.692 120.2165,20.692 C119.1635,20.692 118.3535,20.044 118.3535,19.072 Z M118.5965,35.515 L118.5965,24.229 C118.5965,23.311 119.2985,22.582 120.2165,22.582 C121.1345,22.582 121.8635,23.311 121.8635,24.229 L121.8635,35.515 C121.8635,36.433 121.1345,37.135 120.2165,37.135 C119.3255,37.135 118.5965,36.433 118.5965,35.515 Z M132.9065,37.324 C128.5595,37.324 125.3465,34.003 125.3465,29.953 L125.3465,29.899 C125.3465,25.822 128.5865,22.447 132.9605,22.447 C137.3345,22.447 140.5475,25.768 140.5475,29.845 L140.5475,29.899 C140.5475,33.949 137.3075,37.324 132.9065,37.324 Z M132.9605,34.462 C135.6065,34.462 137.2805,32.41 137.2805,29.953 L137.2805,29.899 C137.2805,27.388 135.4715,25.309 132.9065,25.309 C130.2875,25.309 128.6135,27.361 128.6135,29.845 L128.6135,29.899 C128.6135,32.383 130.4225,34.462 132.9605,34.462 Z M143.8685,35.515 L143.8685,24.229 C143.8685,23.311 144.5705,22.582 145.4885,22.582 C146.4065,22.582 147.1355,23.311 147.1355,24.229 L147.1355,24.931 C148.0535,23.608 149.3765,22.447 151.5905,22.447 C154.8035,22.447 156.6665,24.607 156.6665,27.901 L156.6665,35.515 C156.6665,36.433 155.9645,37.135 155.0465,37.135 C154.1285,37.135 153.3995,36.433 153.3995,35.515 L153.3995,28.9 C153.3995,26.686 152.2925,25.417 150.3485,25.417 C148.4585,25.417 147.1355,26.74 147.1355,28.954 L147.1355,35.515 C147.1355,36.433 146.4065,37.135 145.4885,37.135 C144.5975,37.135 143.8685,36.433 143.8685,35.515 Z"/>
      <g fill="#C41261" transform="rotate(90 28 63)">
        <rect width="12" height="1" y="10.5"/>
        <polygon points="14.5 8.5 17 13.5 12 13.5" transform="rotate(90 14.5 11)"/>
      </g>
    </g>
    <path fill="#3F5564" d="M36.293,182.331 L37.245,183.283 C36.106,184.626 34.848,185.204 33.097,185.204 C31.516,185.204 30.173,184.626 29.204,183.538 C28.252,182.467 27.691,180.92 27.691,179.339 C27.691,175.939 29.986,173.457 33.114,173.457 C34.134,173.457 35.137,173.729 35.953,174.222 C36.412,174.511 36.718,174.783 37.279,175.395 L36.293,176.313 C35.188,175.174 34.355,174.766 33.148,174.766 C30.836,174.766 29.153,176.687 29.153,179.339 C29.153,181.974 30.87,183.895 33.216,183.895 C34.457,183.895 35.409,183.402 36.293,182.331 Z M42.328,176.976 C44.64,176.976 46.289,178.693 46.289,181.107 C46.289,183.402 44.521,185.187 42.277,185.187 C39.948,185.187 38.316,183.487 38.316,181.073 C38.316,178.642 39.948,176.976 42.328,176.976 Z M42.328,178.166 C40.713,178.166 39.642,179.339 39.642,181.09 C39.642,182.824 40.713,183.997 42.311,183.997 C43.858,183.997 44.963,182.79 44.963,181.09 C44.963,179.339 43.909,178.166 42.328,178.166 Z M48.261,177.163 L49.553,177.163 L49.553,178.268 C50.233,177.35 50.913,176.976 51.882,176.976 C52.596,176.976 53.242,177.214 53.701,177.622 C54.194,178.098 54.364,178.642 54.364,179.713 L54.364,185 L53.072,185 L53.072,180.002 C53.072,179.305 52.987,178.931 52.783,178.659 C52.545,178.336 52.086,178.132 51.559,178.132 C50.981,178.132 50.454,178.353 50.063,178.795 C49.689,179.203 49.553,179.577 49.553,180.223 L49.553,185 L48.261,185 L48.261,177.163 Z M58.291,178.302 L58.291,183.402 C58.308,183.793 58.41,183.878 58.886,183.878 L59.481,183.878 L59.481,185 L58.274,185 C57.356,184.983 56.999,184.643 56.999,183.776 L56.999,178.302 L55.911,178.302 L55.911,177.163 L56.999,177.163 L56.999,174.698 L58.291,174.698 L58.291,177.163 L59.481,177.163 L59.481,178.302 L58.291,178.302 Z M61.317,177.163 L62.609,177.163 L62.609,178.489 C62.847,177.928 63.017,177.69 63.323,177.452 C63.714,177.146 64.258,176.976 64.819,176.976 L65.125,176.976 L65.125,178.285 C64.989,178.268 64.853,178.268 64.768,178.268 C64.071,178.268 63.459,178.591 63.068,179.169 C62.728,179.662 62.609,180.121 62.609,181.022 L62.609,185 L61.317,185 L61.317,177.163 Z M72.639,178.455 L72.639,177.163 L73.931,177.163 L73.931,185 L72.639,185 L72.639,183.487 C71.857,184.66 70.973,185.187 69.783,185.187 C67.624,185.187 66.094,183.487 66.094,181.107 C66.094,178.71 67.658,176.976 69.817,176.976 C71.007,176.976 71.874,177.435 72.639,178.455 Z M70.004,178.132 C69.154,178.132 68.559,178.421 68.1,179.067 C67.692,179.628 67.454,180.376 67.454,181.141 C67.454,182.807 68.542,184.065 69.97,184.065 C71.449,184.065 72.656,182.688 72.656,181.005 C72.656,179.305 71.568,178.132 70.004,178.132 Z M81.445,179.305 L80.153,179.305 L80.153,179.22 C80.153,178.489 79.558,178.03 78.657,178.03 C77.79,178.03 77.246,178.472 77.246,179.152 C77.246,179.832 77.586,180.087 78.997,180.478 C80,180.75 80.527,181.005 80.901,181.379 C81.292,181.77 81.53,182.331 81.53,182.909 C81.53,184.269 80.408,185.187 78.742,185.187 C76.957,185.187 75.954,184.354 75.818,182.773 L77.093,182.773 C77.178,183.657 77.756,184.133 78.742,184.133 C79.626,184.133 80.204,183.674 80.204,182.977 C80.204,182.297 79.762,181.957 78.419,181.617 C76.719,181.158 75.954,180.444 75.954,179.254 C75.954,177.894 77.059,176.976 78.708,176.976 C80.374,176.976 81.377,177.826 81.445,179.305 Z M84.896,178.302 L84.896,183.402 C84.913,183.793 85.015,183.878 85.491,183.878 L86.086,183.878 L86.086,185 L84.879,185 C83.961,184.983 83.604,184.643 83.604,183.776 L83.604,178.302 L82.516,178.302 L82.516,177.163 L83.604,177.163 L83.604,174.698 L84.896,174.698 L84.896,177.163 L86.086,177.163 L86.086,178.302 L84.896,178.302 Z M87.208,183.419 L87.208,182.008 L93.056,179.305 L87.208,176.585 L87.208,175.191 L94.569,178.693 L94.569,179.917 L87.208,183.419 Z M100.315,175.055 L96.354,175.055 L96.354,173.831 L102.78,173.831 L99.448,178.064 C101.42,178.064 102.814,179.475 102.814,181.481 C102.814,183.606 101.216,185.187 99.057,185.187 C97.272,185.187 95.997,184.184 95.606,182.467 L96.83,182.246 C97.136,183.334 97.935,183.946 98.989,183.946 C100.366,183.946 101.454,182.909 101.454,181.583 C101.454,180.223 100.434,179.271 98.955,179.271 C98.428,179.271 98.088,179.373 97.595,179.662 L97.034,179.169 L100.315,175.055 Z M105.585,183.368 C106.095,183.368 106.469,183.742 106.469,184.269 C106.469,184.762 106.078,185.136 105.585,185.136 C105.075,185.136 104.701,184.762 104.701,184.252 C104.701,183.742 105.075,183.368 105.585,183.368 Z M115.173,177.078 L115.173,181.583 C115.173,182.858 114.935,183.64 114.374,184.235 C113.779,184.864 112.878,185.187 111.807,185.187 C110.702,185.187 109.784,184.847 109.189,184.201 C108.594,183.572 108.441,182.926 108.441,181.209 L108.441,177.469 C108.441,175.99 108.611,175.293 109.121,174.681 C109.682,174.001 110.617,173.627 111.773,173.627 C112.81,173.627 113.66,173.916 114.289,174.477 C114.935,175.072 115.173,175.752 115.173,177.078 Z M109.784,177.503 L109.784,181.294 C109.784,182.603 109.835,182.841 110.209,183.266 C110.566,183.674 111.178,183.929 111.824,183.929 C112.521,183.929 113.167,183.64 113.49,183.181 C113.745,182.807 113.847,182.331 113.847,181.498 L113.847,177.163 C113.847,176.279 113.694,175.837 113.269,175.429 C112.895,175.089 112.385,174.902 111.824,174.902 C111.093,174.902 110.464,175.191 110.141,175.718 C109.852,176.126 109.784,176.517 109.784,177.503 Z"/>
  </g>
</svg>
