<svg xmlns="http://www.w3.org/2000/svg" xmlns:xlink="http://www.w3.org/1999/xlink" width="582" height="180" viewBox="0 0 582 180">
  <defs>
    <rect id="1-b" width="359" height="56" rx="14"/>
    <filter id="1-a" width="107%" height="144.6%" x="-3.5%" y="-20.5%" filterUnits="objectBoundingBox">
      <feOffset dy="1" in="SourceAlpha" result="shadowOffsetOuter1"/>
      <feGaussianBlur in="shadowOffsetOuter1" result="shadowBlurOuter1" stdDeviation="4"/>
      <feColorMatrix in="shadowBlurOuter1" result="shadowMatrixOuter1" values="0 0 0 0 0   0 0 0 0 0   0 0 0 0 0  0 0 0 0.2 0"/>
      <feMorphology in="SourceAlpha" radius="1" result="shadowSpreadOuter2"/>
      <feOffset dy="3" in="shadowSpreadOuter2" result="shadowOffsetOuter2"/>
      <feGaussianBlur in="shadowOffsetOuter2" result="shadowBlurOuter2" stdDeviation="1.5"/>
      <feColorMatrix in="shadowBlurOuter2" result="shadowMatrixOuter2" values="0 0 0 0 0   0 0 0 0 0   0 0 0 0 0  0 0 0 0.12 0"/>
      <feOffset dy="3" in="SourceAlpha" result="shadowOffsetOuter3"/>
      <feGaussianBlur in="shadowOffsetOuter3" result="shadowBlurOuter3" stdDeviation="2"/>
      <feColorMatrix in="shadowBlurOuter3" result="shadowMatrixOuter3" values="0 0 0 0 0   0 0 0 0 0   0 0 0 0 0  0 0 0 0.14 0"/>
      <feMerge>
        <feMergeNode in="shadowMatrixOuter1"/>
        <feMergeNode in="shadowMatrixOuter2"/>
        <feMergeNode in="shadowMatrixOuter3"/>
      </feMerge>
    </filter>
  </defs>
  <g fill="none" fill-rule="evenodd" transform="translate(1)">
    <rect width="580" height="180" fill="#FFF" fill-opacity=".01" fill-rule="nonzero"/>
    <g fill-rule="nonzero" stroke="#979797">
      <path stroke-linecap="square" d="M0,127 L580,127"/>
      <polyline fill="#FFF" points="478 0 478 127 103 127 103 0 103 0"/>
    </g>
    <g transform="translate(111 63)">
      <use fill="#000" filter="url(#1-a)" xlink:href="#1-b"/>
      <use fill="#F7F7F7" xlink:href="#1-b"/>
      <rect width="359" height="56" fill="#25333D" rx="14"/>
      <path fill="#89CBDF" fill-rule="nonzero" d="M8.61621094,12.8330078 L7.60351562,9.77001953 L3.19580078,9.77001953 L2.16650391,12.8330078 L0,12.8330078 L4.25,0.854980469 L6.65722656,0.854980469 L10.9155273,12.8330078 L8.61621094,12.8330078 Z M5.33740234,3.13769531 L3.69384766,8.07666016 L7.10546875,8.07666016 L5.47851562,3.13769531 L5.33740234,3.13769531 Z M19.6944922,6.80664062 L17.7355078,6.80664062 C17.5445898,5.92675781 16.8639258,5.29589844 15.7350195,5.29589844 C14.3238867,5.29589844 13.4855078,6.38330078 13.4855078,8.26757812 C13.4855078,10.1767578 14.3321875,11.2890625 15.7350195,11.2890625 C16.8058203,11.2890625 17.5196875,10.7827148 17.7355078,9.83642578 L19.6944922,9.83642578 C19.4703711,11.7373047 18.0426367,13.015625 15.7433203,13.015625 C13.0123633,13.015625 11.4020117,11.2558594 11.4020117,8.26757812 C11.4020117,5.32080078 13.0040625,3.56933594 15.7350195,3.56933594 C18.0675391,3.56933594 19.4786719,4.89746094 19.6944922,6.80664062 Z M22.02375,1.52734375 L24.074043,1.52734375 L24.074043,3.81005859 L26.0164258,3.81005859 L26.0164258,5.45361328 L24.074043,5.45361328 L24.074043,9.91113281 C24.074043,10.8076172 24.4558789,11.2060547 25.3191602,11.2060547 C25.6096875,11.2060547 25.7674024,11.1894531 26.0164258,11.1645508 L26.0164258,12.7749023 C25.7175977,12.8330078 25.3357617,12.8745117 24.9373242,12.8745117 C22.8538281,12.8745117 22.02375,12.1689453 22.02375,10.4091797 L22.02375,5.45361328 L20.5877149,5.45361328 L20.5877149,3.81005859 L22.02375,3.81005859 L22.02375,1.52734375 Z M27.6899219,12.8330078 L27.6899219,3.75195312 L29.7402149,3.75195312 L29.7402149,12.8330078 L27.6899219,12.8330078 Z M28.710918,2.27441406 C27.9638477,2.27441406 27.4408984,1.79296875 27.4408984,1.13720703 C27.4408984,0.481445312 27.9638477,0 28.710918,0 C29.4662891,0 29.9809375,0.481445312 29.9809375,1.13720703 C29.9809375,1.79296875 29.4662891,2.27441406 28.710918,2.27441406 Z M35.7965235,13.015625 C33.0738672,13.015625 31.4303125,11.2392578 31.4303125,8.29248047 C31.4303125,5.36230469 33.0987695,3.56933594 35.7965235,3.56933594 C38.5025781,3.56933594 40.1627344,5.35400391 40.1627344,8.29248047 C40.1627344,11.2392578 38.5108789,13.015625 35.7965235,13.015625 Z M35.7965235,11.2890625 C37.2325586,11.2890625 38.0460352,10.1933594 38.0460352,8.29248047 C38.0460352,6.39990234 37.2242578,5.29589844 35.7965235,5.29589844 C34.3604883,5.29589844 33.538711,6.39990234 33.538711,8.29248047 C33.538711,10.1933594 34.3604883,11.2890625 35.7965235,11.2890625 Z M41.8279297,12.8330078 L41.8279297,3.75195312 L43.8118164,3.75195312 L43.8118164,5.20458984 L43.9529297,5.20458984 C44.3845703,4.19189453 45.2976563,3.56933594 46.6506836,3.56933594 C48.6760742,3.56933594 49.7800781,4.78955078 49.7800781,6.95605469 L49.7800781,12.8330078 L47.7214844,12.8330078 L47.7214844,7.44580078 C47.7214844,6.05957031 47.1404297,5.36230469 45.8870117,5.36230469 C44.6584961,5.36230469 43.8865235,6.20898438 43.8865235,7.54541016 L43.8865235,12.8330078 L41.8279297,12.8330078 Z" transform="translate(294 21)"/>
      <path fill="#FFF" fill-rule="nonzero" d="M16.8984375,30.0546875 L18.3203125,30.0546875 C18.4921875,31.234375 19.6171875,31.984375 21.21875,31.984375 C22.734375,31.984375 23.8515625,31.1640625 23.8515625,30.046875 C23.8515625,29.0859375 23.1484375,28.4765625 21.59375,28.0859375 L20.1484375,27.7109375 C18.109375,27.1953125 17.2265625,26.2734375 17.2265625,24.671875 C17.2265625,22.7578125 18.828125,21.4609375 21.2109375,21.4609375 C23.390625,21.4609375 25.015625,22.7578125 25.1328125,24.578125 L23.71875,24.578125 C23.5234375,23.421875 22.5703125,22.734375 21.1640625,22.734375 C19.6640625,22.734375 18.671875,23.484375 18.671875,24.625 C18.671875,25.5078125 19.2890625,26.015625 20.84375,26.4140625 L22.0234375,26.7265625 C24.359375,27.3125 25.296875,28.21875 25.296875,29.875 C25.296875,31.9453125 23.6640625,33.265625 21.0859375,33.265625 C18.6953125,33.265625 17.046875,32 16.8984375,30.0546875 Z M27.1721875,33 L27.1721875,24.578125 L28.5159375,24.578125 L28.5159375,33 L27.1721875,33 Z M27.8440625,22.8671875 C27.3284375,22.8671875 26.9065625,22.4453125 26.9065625,21.9296875 C26.9065625,21.4140625 27.3284375,20.9921875 27.8440625,20.9921875 C28.3596875,20.9921875 28.7815625,21.4140625 28.7815625,21.9296875 C28.7815625,22.4453125 28.3596875,22.8671875 27.8440625,22.8671875 Z M30.7584375,33 L30.7584375,24.578125 L32.0396875,24.578125 L32.0396875,25.90625 L32.1646875,25.90625 C32.5865625,24.9765625 33.406875,24.4296875 34.6959375,24.4296875 C36.5865625,24.4296875 37.64125,25.546875 37.64125,27.546875 L37.64125,33 L36.2975,33 L36.2975,27.875 C36.2975,26.359375 35.656875,25.640625 34.313125,25.640625 C32.969375,25.640625 32.1021875,26.5390625 32.1021875,28.015625 L32.1021875,33 L30.7584375,33 Z M43.180625,31.6875 C44.743125,31.6875 45.680625,30.5 45.680625,28.6640625 C45.680625,26.828125 44.7353125,25.640625 43.180625,25.640625 C41.618125,25.640625 40.743125,26.828125 40.743125,28.6640625 C40.743125,30.5 41.618125,31.6875 43.180625,31.6875 Z M43.243125,36.234375 C41.211875,36.234375 39.915,35.3203125 39.711875,33.9296875 L41.13375,33.9296875 C41.2821875,34.6171875 42.0321875,35.0625 43.243125,35.0625 C44.7509375,35.0625 45.649375,34.3203125 45.649375,33.078125 L45.649375,31.421875 L45.524375,31.421875 C44.993125,32.3515625 44.04,32.875 42.88375,32.875 C40.7040625,32.875 39.3525,31.1875 39.3525,28.6640625 C39.3525,26.140625 40.7196875,24.4296875 42.88375,24.4296875 C44.0634375,24.4296875 45.1025,25.0078125 45.586875,25.9140625 L45.711875,25.9140625 L45.711875,24.578125 L46.993125,24.578125 L46.993125,33.1484375 C46.993125,35.03125 45.54,36.234375 43.243125,36.234375 Z M49.2825,33 L49.2825,21.234375 L50.62625,21.234375 L50.62625,33 L49.2825,33 Z M56.275,25.6171875 C54.93125,25.6171875 53.99375,26.6015625 53.8921875,28.09375 L58.5328125,28.09375 C58.5015625,26.6015625 57.6109375,25.6171875 56.275,25.6171875 Z M58.49375,30.8203125 L59.8375,30.8203125 C59.43125,32.265625 58.134375,33.1484375 56.290625,33.1484375 C53.9546875,33.1484375 52.49375,31.4609375 52.49375,28.796875 C52.49375,26.1484375 53.978125,24.4296875 56.290625,24.4296875 C58.5640625,24.4296875 59.946875,26.046875 59.946875,28.6640625 L59.946875,29.1796875 L53.8921875,29.1796875 L53.8921875,29.2421875 C53.9625,30.90625 54.8921875,31.9609375 56.321875,31.9609375 C57.4078125,31.9609375 58.1421875,31.5625 58.49375,30.8203125 Z M66.0100001,33 L66.0100001,21.234375 L67.3537501,21.234375 L67.3537501,33 L66.0100001,33 Z M69.6743751,33 L69.6743751,24.578125 L71.0181251,24.578125 L71.0181251,33 L69.6743751,33 Z M70.3462501,22.8671875 C69.8306251,22.8671875 69.4087501,22.4453125 69.4087501,21.9296875 C69.4087501,21.4140625 69.8306251,20.9921875 70.3462501,20.9921875 C70.8618751,20.9921875 71.2837501,21.4140625 71.2837501,21.9296875 C71.2837501,22.4453125 70.8618751,22.8671875 70.3462501,22.8671875 Z M73.2606251,33 L73.2606251,24.578125 L74.5418751,24.578125 L74.5418751,25.90625 L74.6668751,25.90625 C75.0887501,24.9765625 75.9090626,24.4296875 77.1981251,24.4296875 C79.0887501,24.4296875 80.1434376,25.546875 80.1434376,27.546875 L80.1434376,33 L78.7996876,33 L78.7996876,27.875 C78.7996876,26.359375 78.1590626,25.640625 76.8153126,25.640625 C75.4715626,25.640625 74.6043751,26.5390625 74.6043751,28.015625 L74.6043751,33 L73.2606251,33 Z M85.6359376,25.6171875 C84.2921876,25.6171875 83.3546876,26.6015625 83.2531251,28.09375 L87.8937501,28.09375 C87.8625001,26.6015625 86.9718751,25.6171875 85.6359376,25.6171875 Z M87.8546876,30.8203125 L89.1984376,30.8203125 C88.7921876,32.265625 87.4953126,33.1484375 85.6515626,33.1484375 C83.3156251,33.1484375 81.8546876,31.4609375 81.8546876,28.796875 C81.8546876,26.1484375 83.3390626,24.4296875 85.6515626,24.4296875 C87.9250001,24.4296875 89.3078126,26.046875 89.3078126,28.6640625 L89.3078126,29.1796875 L83.2531251,29.1796875 L83.2531251,29.2421875 C83.3234376,30.90625 84.2531251,31.9609375 85.6828126,31.9609375 C86.7687501,31.9609375 87.5031251,31.5625 87.8546876,30.8203125 Z M95.2928126,33 L95.2928126,24.578125 L96.5740626,24.578125 L96.5740626,25.90625 L96.6990626,25.90625 C97.0818751,24.96875 97.9256251,24.4296875 99.0506251,24.4296875 C100.19125,24.4296875 100.988125,25.03125 101.37875,25.90625 L101.50375,25.90625 C101.956875,25.015625 102.917813,24.4296875 104.081875,24.4296875 C105.800625,24.4296875 106.761563,25.4140625 106.761563,27.1796875 L106.761563,33 L105.417813,33 L105.417813,27.4921875 C105.417813,26.25 104.831875,25.640625 103.644375,25.640625 C102.4725,25.640625 101.69125,26.515625 101.69125,27.5859375 L101.69125,33 L100.3475,33 L100.3475,27.28125 C100.3475,26.28125 99.6521876,25.640625 98.5896876,25.640625 C97.4881251,25.640625 96.6365626,26.59375 96.6365626,27.78125 L96.6365626,33 L95.2928126,33 Z M112.254063,25.6171875 C110.910313,25.6171875 109.972813,26.6015625 109.87125,28.09375 L114.511875,28.09375 C114.480625,26.6015625 113.59,25.6171875 112.254063,25.6171875 Z M114.472813,30.8203125 L115.816563,30.8203125 C115.410313,32.265625 114.113438,33.1484375 112.269688,33.1484375 C109.93375,33.1484375 108.472813,31.4609375 108.472813,28.796875 C108.472813,26.1484375 109.957188,24.4296875 112.269688,24.4296875 C114.543125,24.4296875 115.925938,26.046875 115.925938,28.6640625 L115.925938,29.1796875 L109.87125,29.1796875 L109.87125,29.2421875 C109.941563,30.90625 110.87125,31.9609375 112.300938,31.9609375 C113.386875,31.9609375 114.12125,31.5625 114.472813,30.8203125 Z M117.52,26.8828125 C117.52,25.484375 118.871563,24.4296875 120.660625,24.4296875 C122.42625,24.4296875 123.652813,25.3046875 123.8325,26.6875 L122.504375,26.6875 C122.324688,26.015625 121.668438,25.5703125 120.652813,25.5703125 C119.652813,25.5703125 118.871563,26.078125 118.871563,26.828125 C118.871563,27.40625 119.340313,27.765625 120.3325,28.0078125 L121.629375,28.3203125 C123.215313,28.703125 123.980938,29.390625 123.980938,30.6015625 C123.980938,32.109375 122.52,33.1484375 120.605938,33.1484375 C118.730938,33.1484375 117.441875,32.25 117.293438,30.8515625 L118.67625,30.8515625 C118.902813,31.5625 119.574688,32.015625 120.652813,32.015625 C121.785625,32.015625 122.598125,31.4765625 122.598125,30.703125 C122.598125,30.125 122.160625,29.734375 121.262188,29.515625 L119.816875,29.1640625 C118.23875,28.78125 117.52,28.1015625 117.52,26.8828125 Z M125.41875,26.8828125 C125.41875,25.484375 126.770313,24.4296875 128.559375,24.4296875 C130.325,24.4296875 131.551563,25.3046875 131.73125,26.6875 L130.403125,26.6875 C130.223438,26.015625 129.567188,25.5703125 128.551563,25.5703125 C127.551563,25.5703125 126.770313,26.078125 126.770313,26.828125 C126.770313,27.40625 127.239063,27.765625 128.23125,28.0078125 L129.528125,28.3203125 C131.114063,28.703125 131.879688,29.390625 131.879688,30.6015625 C131.879688,32.109375 130.41875,33.1484375 128.504688,33.1484375 C126.629688,33.1484375 125.340625,32.25 125.192188,30.8515625 L126.575,30.8515625 C126.801563,31.5625 127.473438,32.015625 128.551563,32.015625 C129.684375,32.015625 130.496875,31.4765625 130.496875,30.703125 C130.496875,30.125 130.059375,29.734375 129.160938,29.515625 L127.715625,29.1640625 C126.1375,28.78125 125.41875,28.1015625 125.41875,26.8828125 Z M136.262813,31.96875 C137.645625,31.96875 138.669063,31.0625 138.669063,29.859375 L138.669063,29.0859375 L136.403438,29.234375 C135.122188,29.3203125 134.559688,29.765625 134.559688,30.609375 C134.559688,31.46875 135.28625,31.96875 136.262813,31.96875 Z M136.012813,33.1484375 C134.38,33.1484375 133.169063,32.1796875 133.169063,30.640625 C133.169063,29.1328125 134.278438,28.265625 136.239375,28.1484375 L138.669063,28 L138.669063,27.234375 C138.669063,26.1953125 138.020625,25.625 136.762813,25.625 C135.755,25.625 135.051875,26.0078125 134.864375,26.671875 L133.505,26.671875 C133.684688,25.3203125 135.012813,24.4296875 136.809688,24.4296875 C138.864375,24.4296875 140.012813,25.484375 140.012813,27.234375 L140.012813,33 L138.731563,33 L138.731563,31.7578125 L138.606563,31.7578125 C138.059688,32.65625 137.137813,33.1484375 136.012813,33.1484375 Z M145.583438,31.6875 C147.145938,31.6875 148.083438,30.5 148.083438,28.6640625 C148.083438,26.828125 147.138125,25.640625 145.583438,25.640625 C144.020938,25.640625 143.145938,26.828125 143.145938,28.6640625 C143.145938,30.5 144.020938,31.6875 145.583438,31.6875 Z M145.645938,36.234375 C143.614688,36.234375 142.317813,35.3203125 142.114688,33.9296875 L143.536563,33.9296875 C143.685,34.6171875 144.435,35.0625 145.645938,35.0625 C147.15375,35.0625 148.052188,34.3203125 148.052188,33.078125 L148.052188,31.421875 L147.927188,31.421875 C147.395938,32.3515625 146.442813,32.875 145.286563,32.875 C143.106875,32.875 141.755313,31.1875 141.755313,28.6640625 C141.755313,26.140625 143.1225,24.4296875 145.286563,24.4296875 C146.46625,24.4296875 147.505313,25.0078125 147.989688,25.9140625 L148.114688,25.9140625 L148.114688,24.578125 L149.395938,24.578125 L149.395938,33.1484375 C149.395938,35.03125 147.942813,36.234375 145.645938,36.234375 Z M154.966563,25.6171875 C153.622813,25.6171875 152.685313,26.6015625 152.58375,28.09375 L157.224375,28.09375 C157.193125,26.6015625 156.3025,25.6171875 154.966563,25.6171875 Z M157.185313,30.8203125 L158.529063,30.8203125 C158.122813,32.265625 156.825938,33.1484375 154.982188,33.1484375 C152.64625,33.1484375 151.185313,31.4609375 151.185313,28.796875 C151.185313,26.1484375 152.669688,24.4296875 154.982188,24.4296875 C157.255625,24.4296875 158.638438,26.046875 158.638438,28.6640625 L158.638438,29.1796875 L152.58375,29.1796875 L152.58375,29.2421875 C152.654063,30.90625 153.58375,31.9609375 155.013438,31.9609375 C156.099375,31.9609375 156.83375,31.5625 157.185313,30.8203125 Z"/>
    </g>
    <g fill="#C41261" transform="translate(102 29)">
      <path fill-rule="nonzero" d="M149.7355,3.018 C150.1535,3.15 150.3515,3.249 150.5825,3.491 C150.9455,3.854 151.1325,4.338 151.1325,4.91 C151.1325,6.208 150.1755,7.132 148.8335,7.132 C147.5025,7.132 146.5675,6.241 146.5675,4.987 C146.5675,4.404 146.7655,3.876 147.1175,3.513 C147.3485,3.271 147.5355,3.161 147.9755,3.018 C147.5905,2.886 147.4255,2.776 147.2275,2.534 C146.9855,2.237 146.8535,1.863 146.8535,1.456 C146.8535,0.411 147.7115,-0.359 148.8775,-0.359 C150.0325,-0.359 150.8685,0.4 150.8685,1.445 C150.8685,1.863 150.7255,2.259 150.4615,2.567 C150.2635,2.787 150.1095,2.886 149.7355,3.018 Z M148.8775,0.411 C148.1735,0.411 147.6895,0.851 147.6895,1.467 C147.6895,2.094 148.2065,2.589 148.8555,2.589 C149.4825,2.589 150.0435,2.072 150.0435,1.478 C150.0435,0.906 149.5045,0.411 148.8775,0.411 Z M148.8665,3.48 C148.0745,3.48 147.4365,4.107 147.4365,4.899 C147.4365,5.68 148.0635,6.318 148.8445,6.318 C149.6255,6.318 150.2525,5.68 150.2525,4.899 C150.2525,4.129 149.6255,3.48 148.8665,3.48 Z M152.4415,1.929 L153.2775,1.929 L153.2775,2.853 C153.7615,2.105 154.2785,1.808 155.1255,1.808 C156.5335,1.808 157.5125,2.886 157.5125,4.426 C157.5125,6.021 156.5335,7.121 155.1255,7.121 C154.7295,7.121 154.3665,7.033 154.0145,6.857 C153.7065,6.703 153.5525,6.571 153.2775,6.208 L153.2775,9.376 L152.4415,9.376 L152.4415,1.929 Z M154.9825,2.556 C153.9705,2.556 153.2775,3.359 153.2775,4.547 C153.2775,5.658 153.9485,6.395 154.9495,6.395 C155.9505,6.395 156.6215,5.614 156.6215,4.459 C156.6215,3.865 156.4785,3.414 156.1815,3.084 C155.8845,2.754 155.4335,2.556 154.9825,2.556 Z M160.3945,5.163 L159.0415,7 L158.0185,7 L159.8885,4.481 L157.9855,1.929 L159.0415,1.929 L160.3945,3.788 L161.7805,1.929 L162.8035,1.929 L160.8895,4.481 L162.7155,7 L161.6925,7 L160.3945,5.163 Z M167.9075,2.666 L167.9075,7 L167.0715,7 L167.0715,2.666 L166.3785,2.666 L166.3785,1.929 L167.0715,1.929 L167.0715,1.247 C167.0715,0.246 167.5885,-0.348 168.4685,-0.348 C168.5125,-0.348 168.6115,-0.348 168.6995,-0.337 L168.6995,0.411 C168.0945,0.477 167.9295,0.653 167.9075,1.247 L167.9075,1.929 L168.6995,1.929 L168.6995,2.666 L167.9075,2.666 Z M170.8995,1.929 L170.8995,7 L170.0635,7 L170.0635,1.929 L170.8995,1.929 Z M170.4815,-0.04 C170.7785,-0.04 171.0095,0.202 171.0095,0.51 C171.0095,0.807 170.7785,1.038 170.4815,1.038 C170.1735,1.038 169.9425,0.807 169.9425,0.499 C169.9425,0.191 170.1735,-0.04 170.4815,-0.04 Z M174.1995,5.163 L172.8465,7 L171.8235,7 L173.6935,4.481 L171.7905,1.929 L172.8465,1.929 L174.1995,3.788 L175.5855,1.929 L176.6085,1.929 L174.6945,4.481 L176.5205,7 L175.4975,7 L174.1995,5.163 Z M182.1965,4.734 L177.9725,4.734 C178.0165,5.163 178.0935,5.383 178.3025,5.658 C178.6325,6.109 179.1165,6.351 179.6665,6.351 C180.2935,6.351 180.8875,6.01 181.1845,5.482 L181.9215,5.757 C181.5035,6.604 180.6345,7.121 179.6665,7.121 C178.1595,7.121 177.0815,6.021 177.0815,4.481 C177.0815,2.919 178.1485,1.808 179.6335,1.808 C181.1075,1.808 182.2075,2.919 182.2075,4.404 C182.2075,4.47 182.2075,4.613 182.1965,4.734 Z M177.9835,4.118 L181.3165,4.118 C181.2835,3.722 181.2065,3.502 181.0305,3.249 C180.7115,2.82 180.1945,2.556 179.6335,2.556 C179.0725,2.556 178.5665,2.82 178.2695,3.26 C178.1155,3.502 178.0495,3.711 177.9835,4.118 Z M187.2125,2.699 L187.2125,-0.337 L188.0485,-0.337 L188.0485,7 L187.2125,7 L187.2125,6.131 C186.7065,6.824 186.1675,7.121 185.3975,7.121 C184.0005,7.121 183.0105,6.032 183.0105,4.492 C183.0105,2.952 184.0225,1.808 185.3975,1.808 C186.1455,1.808 186.7175,2.083 187.2125,2.699 Z M185.5735,2.556 C184.5725,2.556 183.8905,3.348 183.8905,4.503 C183.8905,5.614 184.5615,6.395 185.5185,6.395 C186.4975,6.395 187.2125,5.581 187.2125,4.481 C187.2125,3.337 186.5415,2.556 185.5735,2.556 Z M193.0315,1.929 L193.8675,1.929 L193.8675,2.853 C194.3515,2.105 194.8685,1.808 195.7155,1.808 C197.1235,1.808 198.1025,2.886 198.1025,4.426 C198.1025,6.021 197.1235,7.121 195.7155,7.121 C195.3195,7.121 194.9565,7.033 194.6045,6.857 C194.2965,6.703 194.1425,6.571 193.8675,6.208 L193.8675,9.376 L193.0315,9.376 L193.0315,1.929 Z M195.5725,2.556 C194.5605,2.556 193.8675,3.359 193.8675,4.547 C193.8675,5.658 194.5385,6.395 195.5395,6.395 C196.5405,6.395 197.2115,5.614 197.2115,4.459 C197.2115,3.865 197.0685,3.414 196.7715,3.084 C196.4745,2.754 196.0235,2.556 195.5725,2.556 Z M203.1955,2.765 L203.1955,1.929 L204.0315,1.929 L204.0315,7 L203.1955,7 L203.1955,6.021 C202.6895,6.78 202.1175,7.121 201.3475,7.121 C199.9505,7.121 198.9605,6.021 198.9605,4.481 C198.9605,2.93 199.9725,1.808 201.3695,1.808 C202.1395,1.808 202.7005,2.105 203.1955,2.765 Z M201.4905,2.556 C200.9405,2.556 200.5555,2.743 200.2585,3.161 C199.9945,3.524 199.8405,4.008 199.8405,4.503 C199.8405,5.581 200.5445,6.395 201.4685,6.395 C202.4255,6.395 203.2065,5.504 203.2065,4.415 C203.2065,3.315 202.5025,2.556 201.4905,2.556 Z M209.5095,2.699 L209.5095,-0.337 L210.3455,-0.337 L210.3455,7 L209.5095,7 L209.5095,6.131 C209.0035,6.824 208.4645,7.121 207.6945,7.121 C206.2975,7.121 205.3075,6.032 205.3075,4.492 C205.3075,2.952 206.3195,1.808 207.6945,1.808 C208.4425,1.808 209.0145,2.083 209.5095,2.699 Z M207.8705,2.556 C206.8695,2.556 206.1875,3.348 206.1875,4.503 C206.1875,5.614 206.8585,6.395 207.8155,6.395 C208.7945,6.395 209.5095,5.581 209.5095,4.481 C209.5095,3.337 208.8385,2.556 207.8705,2.556 Z M215.8235,2.699 L215.8235,-0.337 L216.6595,-0.337 L216.6595,7 L215.8235,7 L215.8235,6.131 C215.3175,6.824 214.7785,7.121 214.0085,7.121 C212.6115,7.121 211.6215,6.032 211.6215,4.492 C211.6215,2.952 212.6335,1.808 214.0085,1.808 C214.7565,1.808 215.3285,2.083 215.8235,2.699 Z M214.1845,2.556 C213.1835,2.556 212.5015,3.348 212.5015,4.503 C212.5015,5.614 213.1725,6.395 214.1295,6.395 C215.1085,6.395 215.8235,5.581 215.8235,4.481 C215.8235,3.337 215.1525,2.556 214.1845,2.556 Z M219.1785,1.929 L219.1785,7 L218.3425,7 L218.3425,1.929 L219.1785,1.929 Z M218.7715,-0.04 C219.0685,-0.04 219.2995,0.202 219.2995,0.51 C219.2995,0.807 219.0575,1.038 218.7605,1.038 C218.4635,1.038 218.2325,0.807 218.2325,0.499 C218.2325,0.191 218.4635,-0.04 218.7715,-0.04 Z M220.8615,1.929 L221.6975,1.929 L221.6975,2.644 C222.1375,2.05 222.5775,1.808 223.2045,1.808 C223.6665,1.808 224.0845,1.962 224.3815,2.226 C224.7005,2.534 224.8105,2.886 224.8105,3.579 L224.8105,7 L223.9745,7 L223.9745,3.766 C223.9745,3.315 223.9195,3.073 223.7875,2.897 C223.6335,2.688 223.3365,2.556 222.9955,2.556 C222.6215,2.556 222.2805,2.699 222.0275,2.985 C221.7855,3.249 221.6975,3.491 221.6975,3.909 L221.6975,7 L220.8615,7 L220.8615,1.929 Z M230.2115,2.798 L230.2115,1.929 L231.0475,1.929 L231.0475,7.033 C231.0475,7.88 230.8385,8.452 230.3765,8.892 C229.9255,9.332 229.2765,9.563 228.5065,9.563 C227.5605,9.563 226.8125,9.255 226.2625,8.639 L226.8345,8.067 C227.0655,8.309 227.1755,8.408 227.3185,8.507 C227.6045,8.683 228.0775,8.804 228.5065,8.804 C229.0345,8.804 229.5405,8.617 229.8265,8.309 C230.0795,8.034 230.2115,7.627 230.2115,7.099 L230.2115,6.032 C229.7165,6.78 229.1335,7.121 228.3415,7.121 C226.9995,7.121 225.9985,5.988 225.9985,4.481 C225.9985,3.667 226.2955,2.886 226.8015,2.402 C227.2085,2.006 227.7585,1.808 228.4075,1.808 C229.1775,1.808 229.6945,2.094 230.2115,2.798 Z M228.5615,2.578 C227.5715,2.578 226.8785,3.348 226.8785,4.448 C226.8785,5.537 227.5825,6.351 228.5395,6.351 C229.0235,6.351 229.4965,6.12 229.8265,5.735 C230.0465,5.482 230.1895,4.987 230.1895,4.481 C230.1895,3.821 230.0905,3.469 229.7935,3.139 C229.4855,2.798 229.0125,2.578 228.5615,2.578 Z M165.317,12.808 C166.813,12.808 167.88,13.919 167.88,15.481 C167.88,16.966 166.736,18.121 165.284,18.121 C163.777,18.121 162.721,17.021 162.721,15.459 C162.721,13.886 163.777,12.808 165.317,12.808 Z M165.317,13.578 C164.272,13.578 163.579,14.337 163.579,15.47 C163.579,16.592 164.272,17.351 165.306,17.351 C166.307,17.351 167.022,16.57 167.022,15.47 C167.022,14.337 166.34,13.578 165.317,13.578 Z M169.156,12.929 L169.992,12.929 L169.992,13.644 C170.432,13.05 170.872,12.808 171.499,12.808 C171.961,12.808 172.379,12.962 172.676,13.226 C172.995,13.534 173.105,13.886 173.105,14.579 L173.105,18 L172.269,18 L172.269,14.766 C172.269,14.315 172.214,14.073 172.082,13.897 C171.928,13.688 171.631,13.556 171.29,13.556 C170.916,13.556 170.575,13.699 170.322,13.985 C170.08,14.249 169.992,14.491 169.992,14.909 L169.992,18 L169.156,18 L169.156,12.929 Z M181.883,13.765 L181.883,12.929 L182.719,12.929 L182.719,18 L181.883,18 L181.883,17.021 C181.377,17.78 180.805,18.121 180.035,18.121 C178.638,18.121 177.648,17.021 177.648,15.481 C177.648,13.93 178.66,12.808 180.057,12.808 C180.827,12.808 181.388,13.105 181.883,13.765 Z M180.178,13.556 C179.628,13.556 179.243,13.743 178.946,14.161 C178.682,14.524 178.528,15.008 178.528,15.503 C178.528,16.581 179.232,17.395 180.156,17.395 C181.113,17.395 181.894,16.504 181.894,15.415 C181.894,14.315 181.19,13.556 180.178,13.556 Z M185.238,18 L184.402,18 L184.402,10.663 L185.238,10.663 L185.238,18 Z M187.757,18 L186.921,18 L186.921,10.663 L187.757,10.663 L187.757,18 Z M195.919,14.315 L195.083,14.315 L195.083,14.26 C195.083,13.787 194.698,13.49 194.115,13.49 C193.554,13.49 193.202,13.776 193.202,14.216 C193.202,14.656 193.422,14.821 194.335,15.074 C194.984,15.25 195.325,15.415 195.567,15.657 C195.82,15.91 195.974,16.273 195.974,16.647 C195.974,17.527 195.248,18.121 194.17,18.121 C193.015,18.121 192.366,17.582 192.278,16.559 L193.103,16.559 C193.158,17.131 193.532,17.439 194.17,17.439 C194.742,17.439 195.116,17.142 195.116,16.691 C195.116,16.251 194.83,16.031 193.961,15.811 C192.861,15.514 192.366,15.052 192.366,14.282 C192.366,13.402 193.081,12.808 194.148,12.808 C195.226,12.808 195.875,13.358 195.919,14.315 Z M198.097,12.929 L198.097,18 L197.261,18 L197.261,12.929 L198.097,12.929 Z M197.69,10.96 C197.987,10.96 198.218,11.202 198.218,11.51 C198.218,11.807 197.976,12.038 197.679,12.038 C197.382,12.038 197.151,11.807 197.151,11.499 C197.151,11.191 197.382,10.96 197.69,10.96 Z M203.575,13.699 L203.575,10.663 L204.411,10.663 L204.411,18 L203.575,18 L203.575,17.131 C203.069,17.824 202.53,18.121 201.76,18.121 C200.363,18.121 199.373,17.032 199.373,15.492 C199.373,13.952 200.385,12.808 201.76,12.808 C202.508,12.808 203.08,13.083 203.575,13.699 Z M201.936,13.556 C200.935,13.556 200.253,14.348 200.253,15.503 C200.253,16.614 200.924,17.395 201.881,17.395 C202.86,17.395 203.575,16.581 203.575,15.481 C203.575,14.337 202.904,13.556 201.936,13.556 Z M210.802,15.734 L206.578,15.734 C206.622,16.163 206.699,16.383 206.908,16.658 C207.238,17.109 207.722,17.351 208.272,17.351 C208.899,17.351 209.493,17.01 209.79,16.482 L210.527,16.757 C210.109,17.604 209.24,18.121 208.272,18.121 C206.765,18.121 205.687,17.021 205.687,15.481 C205.687,13.919 206.754,12.808 208.239,12.808 C209.713,12.808 210.813,13.919 210.813,15.404 C210.813,15.47 210.813,15.613 210.802,15.734 Z M206.589,15.118 L209.922,15.118 C209.889,14.722 209.812,14.502 209.636,14.249 C209.317,13.82 208.8,13.556 208.239,13.556 C207.678,13.556 207.172,13.82 206.875,14.26 C206.721,14.502 206.655,14.711 206.589,15.118 Z M215.202,14.315 L214.366,14.315 L214.366,14.26 C214.366,13.787 213.981,13.49 213.398,13.49 C212.837,13.49 212.485,13.776 212.485,14.216 C212.485,14.656 212.705,14.821 213.618,15.074 C214.267,15.25 214.608,15.415 214.85,15.657 C215.103,15.91 215.257,16.273 215.257,16.647 C215.257,17.527 214.531,18.121 213.453,18.121 C212.298,18.121 211.649,17.582 211.561,16.559 L212.386,16.559 C212.441,17.131 212.815,17.439 213.453,17.439 C214.025,17.439 214.399,17.142 214.399,16.691 C214.399,16.251 214.113,16.031 213.244,15.811 C212.144,15.514 211.649,15.052 211.649,14.282 C211.649,13.402 212.364,12.808 213.431,12.808 C214.509,12.808 215.158,13.358 215.202,14.315 Z"/>
      <path d="M1,71 L376,71 L376,1 L1,1 L1,71 Z M1,72 L0,72 L0,1 L0,0 L377,0 L377,1 L377,72 L376,72 L1,72 Z" transform="translate(0 26)"/>
      <path d="M1,57 L359,57 L359,1 L1,1 L1,57 Z M1,58 L0,58 L0,1 L0,0 L360,0 L360,1 L360,58 L359,58 L1,58 Z" transform="translate(9 33)"/>
      <g transform="translate(184 26)">
        <rect width="1" height="6" x="4" y="1"/>
        <rect width="9" height="1"/>
        <rect width="9" height="1" y="7"/>
      </g>
    </g>
    <g fill="#C41261" transform="translate(22 55)">
      <g transform="rotate(90 38 38)">
        <rect width="59" height="1" y="2"/>
        <polygon points="61.5 0 64 5 59 5" transform="rotate(90 61.5 2.5)"/>
      </g>
      <path fill-rule="nonzero" d="M5.569,48.131 L5.569,49 L4.733,49 L4.733,41.663 L5.569,41.663 L5.569,44.798 C6.075,44.105 6.614,43.808 7.351,43.808 C8.77,43.808 9.76,44.908 9.76,46.481 C9.76,48.032 8.781,49.121 7.395,49.121 C6.614,49.121 6.064,48.824 5.569,48.131 Z M7.241,44.556 C6.273,44.556 5.558,45.359 5.558,46.47 C5.558,47.625 6.218,48.395 7.208,48.395 C8.209,48.395 8.88,47.636 8.88,46.503 C8.88,45.37 8.198,44.556 7.241,44.556 Z M13.225,43.808 C14.721,43.808 15.788,44.919 15.788,46.481 C15.788,47.966 14.644,49.121 13.192,49.121 C11.685,49.121 10.629,48.021 10.629,46.459 C10.629,44.886 11.685,43.808 13.225,43.808 Z M13.225,44.578 C12.18,44.578 11.487,45.337 11.487,46.47 C11.487,47.592 12.18,48.351 13.214,48.351 C14.215,48.351 14.93,47.57 14.93,46.47 C14.93,45.337 14.248,44.578 13.225,44.578 Z M17.955,44.666 L17.955,47.966 C17.966,48.219 18.032,48.274 18.34,48.274 L18.725,48.274 L18.725,49 L17.944,49 C17.35,48.989 17.119,48.769 17.119,48.208 L17.119,44.666 L16.415,44.666 L16.415,43.929 L17.119,43.929 L17.119,42.334 L17.955,42.334 L17.955,43.929 L18.725,43.929 L18.725,44.666 L17.955,44.666 Z M20.804,44.666 L20.804,47.966 C20.815,48.219 20.881,48.274 21.189,48.274 L21.574,48.274 L21.574,49 L20.793,49 C20.199,48.989 19.968,48.769 19.968,48.208 L19.968,44.666 L19.264,44.666 L19.264,43.929 L19.968,43.929 L19.968,42.334 L20.804,42.334 L20.804,43.929 L21.574,43.929 L21.574,44.666 L20.804,44.666 Z M24.951,43.808 C26.447,43.808 27.514,44.919 27.514,46.481 C27.514,47.966 26.37,49.121 24.918,49.121 C23.411,49.121 22.355,48.021 22.355,46.459 C22.355,44.886 23.411,43.808 24.951,43.808 Z M24.951,44.578 C23.906,44.578 23.213,45.337 23.213,46.47 C23.213,47.592 23.906,48.351 24.94,48.351 C25.941,48.351 26.656,47.57 26.656,46.47 C26.656,45.337 25.974,44.578 24.951,44.578 Z M28.79,43.929 L29.626,43.929 L29.626,44.633 C30.011,44.05 30.44,43.808 31.067,43.808 C31.76,43.808 32.2,44.105 32.431,44.732 C32.805,44.083 33.278,43.808 34.037,43.808 C34.62,43.808 35.06,43.995 35.324,44.347 C35.566,44.666 35.632,44.952 35.632,45.755 L35.632,49 L34.796,49 L34.796,45.953 C34.796,45.337 34.774,45.194 34.653,44.985 C34.499,44.721 34.169,44.556 33.773,44.556 C33.036,44.556 32.629,45.051 32.629,45.953 L32.629,49 L31.793,49 L31.793,45.964 C31.793,45.469 31.749,45.216 31.628,44.996 C31.485,44.71 31.177,44.556 30.803,44.556 C30.066,44.556 29.626,45.084 29.626,45.964 L29.626,49 L28.79,49 L28.79,43.929 Z M44.41,44.765 L44.41,43.929 L45.246,43.929 L45.246,49 L44.41,49 L44.41,48.021 C43.904,48.78 43.332,49.121 42.562,49.121 C41.165,49.121 40.175,48.021 40.175,46.481 C40.175,44.93 41.187,43.808 42.584,43.808 C43.354,43.808 43.915,44.105 44.41,44.765 Z M42.705,44.556 C42.155,44.556 41.77,44.743 41.473,45.161 C41.209,45.524 41.055,46.008 41.055,46.503 C41.055,47.581 41.759,48.395 42.683,48.395 C43.64,48.395 44.421,47.504 44.421,46.415 C44.421,45.315 43.717,44.556 42.705,44.556 Z M47.765,49 L46.929,49 L46.929,41.663 L47.765,41.663 L47.765,49 Z M50.284,43.929 L50.284,49 L49.448,49 L49.448,43.929 L50.284,43.929 Z M49.877,41.96 C50.174,41.96 50.405,42.202 50.405,42.51 C50.405,42.807 50.163,43.038 49.866,43.038 C49.569,43.038 49.338,42.807 49.338,42.499 C49.338,42.191 49.569,41.96 49.877,41.96 Z M55.718,44.798 L55.718,43.929 L56.554,43.929 L56.554,49.033 C56.554,49.88 56.345,50.452 55.883,50.892 C55.432,51.332 54.783,51.563 54.013,51.563 C53.067,51.563 52.319,51.255 51.769,50.639 L52.341,50.067 C52.572,50.309 52.682,50.408 52.825,50.507 C53.111,50.683 53.584,50.804 54.013,50.804 C54.541,50.804 55.047,50.617 55.333,50.309 C55.586,50.034 55.718,49.627 55.718,49.099 L55.718,48.032 C55.223,48.78 54.64,49.121 53.848,49.121 C52.506,49.121 51.505,47.988 51.505,46.481 C51.505,45.667 51.802,44.886 52.308,44.402 C52.715,44.006 53.265,43.808 53.914,43.808 C54.684,43.808 55.201,44.094 55.718,44.798 Z M54.068,44.578 C53.078,44.578 52.385,45.348 52.385,46.448 C52.385,47.537 53.089,48.351 54.046,48.351 C54.53,48.351 55.003,48.12 55.333,47.735 C55.553,47.482 55.696,46.987 55.696,46.481 C55.696,45.821 55.597,45.469 55.3,45.139 C54.992,44.798 54.519,44.578 54.068,44.578 Z M58.237,43.929 L59.073,43.929 L59.073,44.644 C59.513,44.05 59.953,43.808 60.58,43.808 C61.042,43.808 61.46,43.962 61.757,44.226 C62.076,44.534 62.186,44.886 62.186,45.579 L62.186,49 L61.35,49 L61.35,45.766 C61.35,45.315 61.295,45.073 61.163,44.897 C61.009,44.688 60.712,44.556 60.371,44.556 C59.997,44.556 59.656,44.699 59.403,44.985 C59.161,45.249 59.073,45.491 59.073,45.909 L59.073,49 L58.237,49 L58.237,43.929 Z M9.859,54.929 L9.859,60 L9.023,60 L9.023,54.929 L9.859,54.929 Z M9.452,52.96 C9.749,52.96 9.98,53.202 9.98,53.51 C9.98,53.807 9.738,54.038 9.441,54.038 C9.144,54.038 8.913,53.807 8.913,53.499 C8.913,53.191 9.144,52.96 9.452,52.96 Z M11.542,54.929 L12.378,54.929 L12.378,55.644 C12.818,55.05 13.258,54.808 13.885,54.808 C14.347,54.808 14.765,54.962 15.062,55.226 C15.381,55.534 15.491,55.886 15.491,56.579 L15.491,60 L14.655,60 L14.655,56.766 C14.655,56.315 14.6,56.073 14.468,55.897 C14.314,55.688 14.017,55.556 13.676,55.556 C13.302,55.556 12.961,55.699 12.708,55.985 C12.466,56.249 12.378,56.491 12.378,56.909 L12.378,60 L11.542,60 L11.542,54.929 Z M23.873,58.801 L24.39,59.373 C23.818,59.89 23.257,60.121 22.52,60.121 C21.068,60.121 20.034,59.021 20.034,57.481 C20.034,55.908 21.079,54.808 22.564,54.808 C23.29,54.808 23.884,55.05 24.412,55.567 L23.873,56.106 C23.488,55.754 23.059,55.578 22.586,55.578 C21.585,55.578 20.892,56.348 20.892,57.448 C20.892,58.57 21.585,59.351 22.575,59.351 C23.07,59.351 23.466,59.186 23.873,58.801 Z M27.657,54.808 C29.153,54.808 30.22,55.919 30.22,57.481 C30.22,58.966 29.076,60.121 27.624,60.121 C26.117,60.121 25.061,59.021 25.061,57.459 C25.061,55.886 26.117,54.808 27.657,54.808 Z M27.657,55.578 C26.612,55.578 25.919,56.337 25.919,57.47 C25.919,58.592 26.612,59.351 27.646,59.351 C28.647,59.351 29.362,58.57 29.362,57.47 C29.362,56.337 28.68,55.578 27.657,55.578 Z M31.496,54.929 L32.332,54.929 L32.332,55.644 C32.772,55.05 33.212,54.808 33.839,54.808 C34.301,54.808 34.719,54.962 35.016,55.226 C35.335,55.534 35.445,55.886 35.445,56.579 L35.445,60 L34.609,60 L34.609,56.766 C34.609,56.315 34.554,56.073 34.422,55.897 C34.268,55.688 33.971,55.556 33.63,55.556 C33.256,55.556 32.915,55.699 32.662,55.985 C32.42,56.249 32.332,56.491 32.332,56.909 L32.332,60 L31.496,60 L31.496,54.929 Z M37.986,55.666 L37.986,58.966 C37.997,59.219 38.063,59.274 38.371,59.274 L38.756,59.274 L38.756,60 L37.975,60 C37.381,59.989 37.15,59.769 37.15,59.208 L37.15,55.666 L36.446,55.666 L36.446,54.929 L37.15,54.929 L37.15,53.334 L37.986,53.334 L37.986,54.929 L38.756,54.929 L38.756,55.666 L37.986,55.666 Z M43.772,55.765 L43.772,54.929 L44.608,54.929 L44.608,60 L43.772,60 L43.772,59.021 C43.266,59.78 42.694,60.121 41.924,60.121 C40.527,60.121 39.537,59.021 39.537,57.481 C39.537,55.93 40.549,54.808 41.946,54.808 C42.716,54.808 43.277,55.105 43.772,55.765 Z M42.067,55.556 C41.517,55.556 41.132,55.743 40.835,56.161 C40.571,56.524 40.417,57.008 40.417,57.503 C40.417,58.581 41.121,59.395 42.045,59.395 C43.002,59.395 43.783,58.504 43.783,57.415 C43.783,56.315 43.079,55.556 42.067,55.556 Z M47.127,54.929 L47.127,60 L46.291,60 L46.291,54.929 L47.127,54.929 Z M46.72,52.96 C47.017,52.96 47.248,53.202 47.248,53.51 C47.248,53.807 47.006,54.038 46.709,54.038 C46.412,54.038 46.181,53.807 46.181,53.499 C46.181,53.191 46.412,52.96 46.72,52.96 Z M48.81,54.929 L49.646,54.929 L49.646,55.644 C50.086,55.05 50.526,54.808 51.153,54.808 C51.615,54.808 52.033,54.962 52.33,55.226 C52.649,55.534 52.759,55.886 52.759,56.579 L52.759,60 L51.923,60 L51.923,56.766 C51.923,56.315 51.868,56.073 51.736,55.897 C51.582,55.688 51.285,55.556 50.944,55.556 C50.57,55.556 50.229,55.699 49.976,55.985 C49.734,56.249 49.646,56.491 49.646,56.909 L49.646,60 L48.81,60 L48.81,54.929 Z M59.117,57.734 L54.893,57.734 C54.937,58.163 55.014,58.383 55.223,58.658 C55.553,59.109 56.037,59.351 56.587,59.351 C57.214,59.351 57.808,59.01 58.105,58.482 L58.842,58.757 C58.424,59.604 57.555,60.121 56.587,60.121 C55.08,60.121 54.002,59.021 54.002,57.481 C54.002,55.919 55.069,54.808 56.554,54.808 C58.028,54.808 59.128,55.919 59.128,57.404 C59.128,57.47 59.128,57.613 59.117,57.734 Z M54.904,57.118 L58.237,57.118 C58.204,56.722 58.127,56.502 57.951,56.249 C57.632,55.82 57.115,55.556 56.554,55.556 C55.993,55.556 55.487,55.82 55.19,56.26 C55.036,56.502 54.97,56.711 54.904,57.118 Z M60.338,54.929 L61.174,54.929 L61.174,55.787 C61.328,55.424 61.438,55.27 61.636,55.116 C61.889,54.918 62.241,54.808 62.604,54.808 L62.802,54.808 L62.802,55.655 C62.714,55.644 62.626,55.644 62.571,55.644 C62.12,55.644 61.724,55.853 61.471,56.227 C61.251,56.546 61.174,56.843 61.174,57.426 L61.174,60 L60.338,60 L60.338,54.929 Z"/>
    </g>
    <g fill="#C41261" transform="translate(110 137)">
      <path fill-rule="nonzero" d="M26.5645,14.031 L27.4445,14.031 C27.4885,14.867 27.9395,15.307 28.7425,15.307 C29.5675,15.307 30.1505,14.801 30.1505,14.064 C30.1505,13.426 29.8205,13.129 28.6655,12.744 C27.7965,12.447 27.5105,12.304 27.1805,12.007 C26.8065,11.666 26.6085,11.182 26.6085,10.621 C26.6085,9.378 27.4995,8.531 28.7975,8.531 C30.0955,8.531 30.9425,9.356 30.9755,10.632 L30.0515,10.632 C30.0405,10.258 29.9965,10.082 29.8755,9.873 C29.6665,9.554 29.2595,9.356 28.7865,9.356 C28.0605,9.356 27.5435,9.851 27.5435,10.555 C27.5435,10.907 27.6975,11.215 27.9615,11.402 C28.1925,11.567 28.3905,11.655 29.1385,11.919 C29.9195,12.194 30.2935,12.392 30.5905,12.711 C30.9095,13.052 31.0855,13.514 31.0855,14.009 C31.0855,15.274 30.1505,16.132 28.7755,16.132 C27.8405,16.132 27.2025,15.802 26.8175,15.142 C26.6415,14.845 26.5645,14.537 26.5645,14.185 L26.5645,14.031 Z M33.2635,11.666 L33.2635,14.966 C33.2745,15.219 33.3405,15.274 33.6485,15.274 L34.0335,15.274 L34.0335,16 L33.2525,16 C32.6585,15.989 32.4275,15.769 32.4275,15.208 L32.4275,11.666 L31.7235,11.666 L31.7235,10.929 L32.4275,10.929 L32.4275,9.334 L33.2635,9.334 L33.2635,10.929 L34.0335,10.929 L34.0335,11.666 L33.2635,11.666 Z M35.2215,10.929 L36.0575,10.929 L36.0575,11.787 C36.2115,11.424 36.3215,11.27 36.5195,11.116 C36.7725,10.918 37.1245,10.808 37.4875,10.808 L37.6855,10.808 L37.6855,11.655 C37.5975,11.644 37.5095,11.644 37.4545,11.644 C37.0035,11.644 36.6075,11.853 36.3545,12.227 C36.1345,12.546 36.0575,12.843 36.0575,13.426 L36.0575,16 L35.2215,16 L35.2215,10.929 Z M43.4275,13.734 L39.2035,13.734 C39.2475,14.163 39.3245,14.383 39.5335,14.658 C39.8635,15.109 40.3475,15.351 40.8975,15.351 C41.5245,15.351 42.1185,15.01 42.4155,14.482 L43.1525,14.757 C42.7345,15.604 41.8655,16.121 40.8975,16.121 C39.3905,16.121 38.3125,15.021 38.3125,13.481 C38.3125,11.919 39.3795,10.808 40.8645,10.808 C42.3385,10.808 43.4385,11.919 43.4385,13.404 C43.4385,13.47 43.4385,13.613 43.4275,13.734 Z M39.2145,13.118 L42.5475,13.118 C42.5145,12.722 42.4375,12.502 42.2615,12.249 C41.9425,11.82 41.4255,11.556 40.8645,11.556 C40.3035,11.556 39.7975,11.82 39.5005,12.26 C39.3465,12.502 39.2805,12.711 39.2145,13.118 Z M45.5395,11.666 L45.5395,14.966 C45.5505,15.219 45.6165,15.274 45.9245,15.274 L46.3095,15.274 L46.3095,16 L45.5285,16 C44.9345,15.989 44.7035,15.769 44.7035,15.208 L44.7035,11.666 L43.9995,11.666 L43.9995,10.929 L44.7035,10.929 L44.7035,9.334 L45.5395,9.334 L45.5395,10.929 L46.3095,10.929 L46.3095,11.666 L45.5395,11.666 Z M50.9295,14.801 L51.4465,15.373 C50.8745,15.89 50.3135,16.121 49.5765,16.121 C48.1245,16.121 47.0905,15.021 47.0905,13.481 C47.0905,11.908 48.1355,10.808 49.6205,10.808 C50.3465,10.808 50.9405,11.05 51.4685,11.567 L50.9295,12.106 C50.5445,11.754 50.1155,11.578 49.6425,11.578 C48.6415,11.578 47.9485,12.348 47.9485,13.448 C47.9485,14.57 48.6415,15.351 49.6315,15.351 C50.1265,15.351 50.5225,15.186 50.9295,14.801 Z M53.3605,8.663 L53.3605,11.633 C53.8225,11.061 54.2845,10.808 54.8895,10.808 C55.3295,10.808 55.7915,10.984 56.0665,11.27 C56.3415,11.545 56.4625,11.941 56.4625,12.59 L56.4625,16 L55.6265,16 L55.6265,12.634 C55.6265,11.941 55.2855,11.556 54.6805,11.556 C54.2955,11.556 53.9545,11.71 53.6905,12.007 C53.4375,12.293 53.3605,12.546 53.3605,13.03 L53.3605,16 L52.5245,16 L52.5245,8.663 L53.3605,8.663 Z M62.3035,11.666 L62.3035,14.966 C62.3145,15.219 62.3805,15.274 62.6885,15.274 L63.0735,15.274 L63.0735,16 L62.2925,16 C61.6985,15.989 61.4675,15.769 61.4675,15.208 L61.4675,11.666 L60.7635,11.666 L60.7635,10.929 L61.4675,10.929 L61.4675,9.334 L62.3035,9.334 L62.3035,10.929 L63.0735,10.929 L63.0735,11.666 L62.3035,11.666 Z M66.4505,10.808 C67.9465,10.808 69.0135,11.919 69.0135,13.481 C69.0135,14.966 67.8695,16.121 66.4175,16.121 C64.9105,16.121 63.8545,15.021 63.8545,13.459 C63.8545,11.886 64.9105,10.808 66.4505,10.808 Z M66.4505,11.578 C65.4055,11.578 64.7125,12.337 64.7125,13.47 C64.7125,14.592 65.4055,15.351 66.4395,15.351 C67.4405,15.351 68.1555,14.57 68.1555,13.47 C68.1555,12.337 67.4735,11.578 66.4505,11.578 Z M79.4415,10.929 L80.2995,10.929 L78.4955,16 L77.7365,16 L76.5705,12.15 L75.3495,16 L74.5575,16 L72.8195,10.929 L73.6775,10.929 L74.9755,14.658 L76.1415,10.929 L76.9665,10.929 L78.1105,14.658 L79.4415,10.929 Z M82.0375,10.929 L82.0375,16 L81.2015,16 L81.2015,10.929 L82.0375,10.929 Z M81.6305,8.96 C81.9275,8.96 82.1585,9.202 82.1585,9.51 C82.1585,9.807 81.9165,10.038 81.6195,10.038 C81.3225,10.038 81.0915,9.807 81.0915,9.499 C81.0915,9.191 81.3225,8.96 81.6305,8.96 Z M87.5155,11.699 L87.5155,8.663 L88.3515,8.663 L88.3515,16 L87.5155,16 L87.5155,15.131 C87.0095,15.824 86.4705,16.121 85.7005,16.121 C84.3035,16.121 83.3135,15.032 83.3135,13.492 C83.3135,11.952 84.3255,10.808 85.7005,10.808 C86.4485,10.808 87.0205,11.083 87.5155,11.699 Z M85.8765,11.556 C84.8755,11.556 84.1935,12.348 84.1935,13.503 C84.1935,14.614 84.8645,15.395 85.8215,15.395 C86.8005,15.395 87.5155,14.581 87.5155,13.481 C87.5155,12.337 86.8445,11.556 85.8765,11.556 Z M90.9255,11.666 L90.9255,14.966 C90.9365,15.219 91.0025,15.274 91.3105,15.274 L91.6955,15.274 L91.6955,16 L90.9145,16 C90.3205,15.989 90.0895,15.769 90.0895,15.208 L90.0895,11.666 L89.3855,11.666 L89.3855,10.929 L90.0895,10.929 L90.0895,9.334 L90.9255,9.334 L90.9255,10.929 L91.6955,10.929 L91.6955,11.666 L90.9255,11.666 Z M93.7195,8.663 L93.7195,11.633 C94.1815,11.061 94.6435,10.808 95.2485,10.808 C95.6885,10.808 96.1505,10.984 96.4255,11.27 C96.7005,11.545 96.8215,11.941 96.8215,12.59 L96.8215,16 L95.9855,16 L95.9855,12.634 C95.9855,11.941 95.6445,11.556 95.0395,11.556 C94.6545,11.556 94.3135,11.71 94.0495,12.007 C93.7965,12.293 93.7195,12.546 93.7195,13.03 L93.7195,16 L92.8835,16 L92.8835,8.663 L93.7195,8.663 Z M103.9605,10.808 C105.4565,10.808 106.5235,11.919 106.5235,13.481 C106.5235,14.966 105.3795,16.121 103.9275,16.121 C102.4205,16.121 101.3645,15.021 101.3645,13.459 C101.3645,11.886 102.4205,10.808 103.9605,10.808 Z M103.9605,11.578 C102.9155,11.578 102.2225,12.337 102.2225,13.47 C102.2225,14.592 102.9155,15.351 103.9495,15.351 C104.9505,15.351 105.6655,14.57 105.6655,13.47 C105.6655,12.337 104.9835,11.578 103.9605,11.578 Z M108.7235,11.666 L108.7235,16 L107.8875,16 L107.8875,11.666 L107.1945,11.666 L107.1945,10.929 L107.8875,10.929 L107.8875,10.247 C107.8875,9.246 108.4045,8.652 109.2845,8.652 C109.3285,8.652 109.4275,8.652 109.5155,8.663 L109.5155,9.411 C108.9105,9.477 108.7455,9.653 108.7235,10.247 L108.7235,10.929 L109.5155,10.929 L109.5155,11.666 L108.7235,11.666 Z M117.3805,14.801 L117.8975,15.373 C117.3255,15.89 116.7645,16.121 116.0275,16.121 C114.5755,16.121 113.5415,15.021 113.5415,13.481 C113.5415,11.908 114.5865,10.808 116.0715,10.808 C116.7975,10.808 117.3915,11.05 117.9195,11.567 L117.3805,12.106 C116.9955,11.754 116.5665,11.578 116.0935,11.578 C115.0925,11.578 114.3995,12.348 114.3995,13.448 C114.3995,14.57 115.0925,15.351 116.0825,15.351 C116.5775,15.351 116.9735,15.186 117.3805,14.801 Z M121.1645,10.808 C122.6605,10.808 123.7275,11.919 123.7275,13.481 C123.7275,14.966 122.5835,16.121 121.1315,16.121 C119.6245,16.121 118.5685,15.021 118.5685,13.459 C118.5685,11.886 119.6245,10.808 121.1645,10.808 Z M121.1645,11.578 C120.1195,11.578 119.4265,12.337 119.4265,13.47 C119.4265,14.592 120.1195,15.351 121.1535,15.351 C122.1545,15.351 122.8695,14.57 122.8695,13.47 C122.8695,12.337 122.1875,11.578 121.1645,11.578 Z M125.0035,10.929 L125.8395,10.929 L125.8395,11.644 C126.2795,11.05 126.7195,10.808 127.3465,10.808 C127.8085,10.808 128.2265,10.962 128.5235,11.226 C128.8425,11.534 128.9525,11.886 128.9525,12.579 L128.9525,16 L128.1165,16 L128.1165,12.766 C128.1165,12.315 128.0615,12.073 127.9295,11.897 C127.7755,11.688 127.4785,11.556 127.1375,11.556 C126.7635,11.556 126.4225,11.699 126.1695,11.985 C125.9275,12.249 125.8395,12.491 125.8395,12.909 L125.8395,16 L125.0035,16 L125.0035,10.929 Z M131.4935,11.666 L131.4935,14.966 C131.5045,15.219 131.5705,15.274 131.8785,15.274 L132.2635,15.274 L132.2635,16 L131.4825,16 C130.8885,15.989 130.6575,15.769 130.6575,15.208 L130.6575,11.666 L129.9535,11.666 L129.9535,10.929 L130.6575,10.929 L130.6575,9.334 L131.4935,9.334 L131.4935,10.929 L132.2635,10.929 L132.2635,11.666 L131.4935,11.666 Z M137.2795,11.765 L137.2795,10.929 L138.1155,10.929 L138.1155,16 L137.2795,16 L137.2795,15.021 C136.7735,15.78 136.2015,16.121 135.4315,16.121 C134.0345,16.121 133.0445,15.021 133.0445,13.481 C133.0445,11.93 134.0565,10.808 135.4535,10.808 C136.2235,10.808 136.7845,11.105 137.2795,11.765 Z M135.5745,11.556 C135.0245,11.556 134.6395,11.743 134.3425,12.161 C134.0785,12.524 133.9245,13.008 133.9245,13.503 C133.9245,14.581 134.6285,15.395 135.5525,15.395 C136.5095,15.395 137.2905,14.504 137.2905,13.415 C137.2905,12.315 136.5865,11.556 135.5745,11.556 Z M140.6345,10.929 L140.6345,16 L139.7985,16 L139.7985,10.929 L140.6345,10.929 Z M140.2275,8.96 C140.5245,8.96 140.7555,9.202 140.7555,9.51 C140.7555,9.807 140.5135,10.038 140.2165,10.038 C139.9195,10.038 139.6885,9.807 139.6885,9.499 C139.6885,9.191 139.9195,8.96 140.2275,8.96 Z M142.3175,10.929 L143.1535,10.929 L143.1535,11.644 C143.5935,11.05 144.0335,10.808 144.6605,10.808 C145.1225,10.808 145.5405,10.962 145.8375,11.226 C146.1565,11.534 146.2665,11.886 146.2665,12.579 L146.2665,16 L145.4305,16 L145.4305,12.766 C145.4305,12.315 145.3755,12.073 145.2435,11.897 C145.0895,11.688 144.7925,11.556 144.4515,11.556 C144.0775,11.556 143.7365,11.699 143.4835,11.985 C143.2415,12.249 143.1535,12.491 143.1535,12.909 L143.1535,16 L142.3175,16 L142.3175,10.929 Z M152.6245,13.734 L148.4005,13.734 C148.4445,14.163 148.5215,14.383 148.7305,14.658 C149.0605,15.109 149.5445,15.351 150.0945,15.351 C150.7215,15.351 151.3155,15.01 151.6125,14.482 L152.3495,14.757 C151.9315,15.604 151.0625,16.121 150.0945,16.121 C148.5875,16.121 147.5095,15.021 147.5095,13.481 C147.5095,11.919 148.5765,10.808 150.0615,10.808 C151.5355,10.808 152.6355,11.919 152.6355,13.404 C152.6355,13.47 152.6355,13.613 152.6245,13.734 Z M148.4115,13.118 L151.7445,13.118 C151.7115,12.722 151.6345,12.502 151.4585,12.249 C151.1395,11.82 150.6225,11.556 150.0615,11.556 C149.5005,11.556 148.9945,11.82 148.6975,12.26 C148.5435,12.502 148.4775,12.711 148.4115,13.118 Z M153.8455,10.929 L154.6815,10.929 L154.6815,11.787 C154.8355,11.424 154.9455,11.27 155.1435,11.116 C155.3965,10.918 155.7485,10.808 156.1115,10.808 L156.3095,10.808 L156.3095,11.655 C156.2215,11.644 156.1335,11.644 156.0785,11.644 C155.6275,11.644 155.2315,11.853 154.9785,12.227 C154.7585,12.546 154.6815,12.843 154.6815,13.426 L154.6815,16 L153.8455,16 L153.8455,10.929 Z M158.3665,15.142 L157.2555,17.749 L156.6505,17.562 L157.5745,14.889 L158.3665,15.142 Z M157.8385,11.831 C158.1685,11.831 158.4105,12.073 158.4105,12.414 C158.4105,12.733 158.1575,12.975 157.8385,12.975 C157.5085,12.975 157.2665,12.733 157.2665,12.403 C157.2665,12.073 157.5085,11.831 157.8385,11.831 Z M164.0205,8.663 L164.0205,11.633 C164.4825,11.061 164.9445,10.808 165.5495,10.808 C165.9895,10.808 166.4515,10.984 166.7265,11.27 C167.0015,11.545 167.1225,11.941 167.1225,12.59 L167.1225,16 L166.2865,16 L166.2865,12.634 C166.2865,11.941 165.9455,11.556 165.3405,11.556 C164.9555,11.556 164.6145,11.71 164.3505,12.007 C164.0975,12.293 164.0205,12.546 164.0205,13.03 L164.0205,16 L163.1845,16 L163.1845,8.663 L164.0205,8.663 Z M170.9615,10.808 C172.4575,10.808 173.5245,11.919 173.5245,13.481 C173.5245,14.966 172.3805,16.121 170.9285,16.121 C169.4215,16.121 168.3655,15.021 168.3655,13.459 C168.3655,11.886 169.4215,10.808 170.9615,10.808 Z M170.9615,11.578 C169.9165,11.578 169.2235,12.337 169.2235,13.47 C169.2235,14.592 169.9165,15.351 170.9505,15.351 C171.9515,15.351 172.6665,14.57 172.6665,13.47 C172.6665,12.337 171.9845,11.578 170.9615,11.578 Z M174.8005,10.929 L175.6365,10.929 L175.6365,11.787 C175.7905,11.424 175.9005,11.27 176.0985,11.116 C176.3515,10.918 176.7035,10.808 177.0665,10.808 L177.2645,10.808 L177.2645,11.655 C177.1765,11.644 177.0885,11.644 177.0335,11.644 C176.5825,11.644 176.1865,11.853 175.9335,12.227 C175.7135,12.546 175.6365,12.843 175.6365,13.426 L175.6365,16 L174.8005,16 L174.8005,10.929 Z M179.1345,10.929 L179.1345,16 L178.2985,16 L178.2985,10.929 L179.1345,10.929 Z M178.7275,8.96 C179.0245,8.96 179.2555,9.202 179.2555,9.51 C179.2555,9.807 179.0135,10.038 178.7165,10.038 C178.4195,10.038 178.1885,9.807 178.1885,9.499 C178.1885,9.191 178.4195,8.96 178.7275,8.96 Z M181.6315,15.263 L183.9635,15.263 L183.9635,16 L180.2235,16 L182.8635,11.666 L180.5095,11.666 L180.5095,10.929 L184.2385,10.929 L181.6315,15.263 Z M187.4175,10.808 C188.9135,10.808 189.9805,11.919 189.9805,13.481 C189.9805,14.966 188.8365,16.121 187.3845,16.121 C185.8775,16.121 184.8215,15.021 184.8215,13.459 C184.8215,11.886 185.8775,10.808 187.4175,10.808 Z M187.4175,11.578 C186.3725,11.578 185.6795,12.337 185.6795,13.47 C185.6795,14.592 186.3725,15.351 187.4065,15.351 C188.4075,15.351 189.1225,14.57 189.1225,13.47 C189.1225,12.337 188.4405,11.578 187.4175,11.578 Z M191.2565,10.929 L192.0925,10.929 L192.0925,11.644 C192.5325,11.05 192.9725,10.808 193.5995,10.808 C194.0615,10.808 194.4795,10.962 194.7765,11.226 C195.0955,11.534 195.2055,11.886 195.2055,12.579 L195.2055,16 L194.3695,16 L194.3695,12.766 C194.3695,12.315 194.3145,12.073 194.1825,11.897 C194.0285,11.688 193.7315,11.556 193.3905,11.556 C193.0165,11.556 192.6755,11.699 192.4225,11.985 C192.1805,12.249 192.0925,12.491 192.0925,12.909 L192.0925,16 L191.2565,16 L191.2565,10.929 Z M197.7465,11.666 L197.7465,14.966 C197.7575,15.219 197.8235,15.274 198.1315,15.274 L198.5165,15.274 L198.5165,16 L197.7355,16 C197.1415,15.989 196.9105,15.769 196.9105,15.208 L196.9105,11.666 L196.2065,11.666 L196.2065,10.929 L196.9105,10.929 L196.9105,9.334 L197.7465,9.334 L197.7465,10.929 L198.5165,10.929 L198.5165,11.666 L197.7465,11.666 Z M203.5325,11.765 L203.5325,10.929 L204.3685,10.929 L204.3685,16 L203.5325,16 L203.5325,15.021 C203.0265,15.78 202.4545,16.121 201.6845,16.121 C200.2875,16.121 199.2975,15.021 199.2975,13.481 C199.2975,11.93 200.3095,10.808 201.7065,10.808 C202.4765,10.808 203.0375,11.105 203.5325,11.765 Z M201.8275,11.556 C201.2775,11.556 200.8925,11.743 200.5955,12.161 C200.3315,12.524 200.1775,13.008 200.1775,13.503 C200.1775,14.581 200.8815,15.395 201.8055,15.395 C202.7625,15.395 203.5435,14.504 203.5435,13.415 C203.5435,12.315 202.8395,11.556 201.8275,11.556 Z M206.8875,16 L206.0515,16 L206.0515,8.663 L206.8875,8.663 L206.8875,16 Z M209.4065,16 L208.5705,16 L208.5705,8.663 L209.4065,8.663 L209.4065,16 Z M212.5745,14.691 L214.0925,10.929 L215.0055,10.929 L211.9805,18.442 L211.0675,18.442 L212.1235,15.846 L210.3195,10.929 L211.2105,10.929 L212.5745,14.691 Z M222.6395,14.801 L223.1565,15.373 C222.5845,15.89 222.0235,16.121 221.2865,16.121 C219.8345,16.121 218.8005,15.021 218.8005,13.481 C218.8005,11.908 219.8455,10.808 221.3305,10.808 C222.0565,10.808 222.6505,11.05 223.1785,11.567 L222.6395,12.106 C222.2545,11.754 221.8255,11.578 221.3525,11.578 C220.3515,11.578 219.6585,12.348 219.6585,13.448 C219.6585,14.57 220.3515,15.351 221.3415,15.351 C221.8365,15.351 222.2325,15.186 222.6395,14.801 Z M228.9425,13.734 L224.7185,13.734 C224.7625,14.163 224.8395,14.383 225.0485,14.658 C225.3785,15.109 225.8625,15.351 226.4125,15.351 C227.0395,15.351 227.6335,15.01 227.9305,14.482 L228.6675,14.757 C228.2495,15.604 227.3805,16.121 226.4125,16.121 C224.9055,16.121 223.8275,15.021 223.8275,13.481 C223.8275,11.919 224.8945,10.808 226.3795,10.808 C227.8535,10.808 228.9535,11.919 228.9535,13.404 C228.9535,13.47 228.9535,13.613 228.9425,13.734 Z M224.7295,13.118 L228.0625,13.118 C228.0295,12.722 227.9525,12.502 227.7765,12.249 C227.4575,11.82 226.9405,11.556 226.3795,11.556 C225.8185,11.556 225.3125,11.82 225.0155,12.26 C224.8615,12.502 224.7955,12.711 224.7295,13.118 Z M230.1635,10.929 L230.9995,10.929 L230.9995,11.644 C231.4395,11.05 231.8795,10.808 232.5065,10.808 C232.9685,10.808 233.3865,10.962 233.6835,11.226 C234.0025,11.534 234.1125,11.886 234.1125,12.579 L234.1125,16 L233.2765,16 L233.2765,12.766 C233.2765,12.315 233.2215,12.073 233.0895,11.897 C232.9355,11.688 232.6385,11.556 232.2975,11.556 C231.9235,11.556 231.5825,11.699 231.3295,11.985 C231.0875,12.249 230.9995,12.491 230.9995,12.909 L230.9995,16 L230.1635,16 L230.1635,10.929 Z M236.6535,11.666 L236.6535,14.966 C236.6645,15.219 236.7305,15.274 237.0385,15.274 L237.4235,15.274 L237.4235,16 L236.6425,16 C236.0485,15.989 235.8175,15.769 235.8175,15.208 L235.8175,11.666 L235.1135,11.666 L235.1135,10.929 L235.8175,10.929 L235.8175,9.334 L236.6535,9.334 L236.6535,10.929 L237.4235,10.929 L237.4235,11.666 L236.6535,11.666 Z M243.3195,13.734 L239.0955,13.734 C239.1395,14.163 239.2165,14.383 239.4255,14.658 C239.7555,15.109 240.2395,15.351 240.7895,15.351 C241.4165,15.351 242.0105,15.01 242.3075,14.482 L243.0445,14.757 C242.6265,15.604 241.7575,16.121 240.7895,16.121 C239.2825,16.121 238.2045,15.021 238.2045,13.481 C238.2045,11.919 239.2715,10.808 240.7565,10.808 C242.2305,10.808 243.3305,11.919 243.3305,13.404 C243.3305,13.47 243.3305,13.613 243.3195,13.734 Z M239.1065,13.118 L242.4395,13.118 C242.4065,12.722 242.3295,12.502 242.1535,12.249 C241.8345,11.82 241.3175,11.556 240.7565,11.556 C240.1955,11.556 239.6895,11.82 239.3925,12.26 C239.2385,12.502 239.1725,12.711 239.1065,13.118 Z M244.5405,10.929 L245.3765,10.929 L245.3765,11.787 C245.5305,11.424 245.6405,11.27 245.8385,11.116 C246.0915,10.918 246.4435,10.808 246.8065,10.808 L247.0045,10.808 L247.0045,11.655 C246.9165,11.644 246.8285,11.644 246.7735,11.644 C246.3225,11.644 245.9265,11.853 245.6735,12.227 C245.4535,12.546 245.3765,12.843 245.3765,13.426 L245.3765,16 L244.5405,16 L244.5405,10.929 Z M252.7465,13.734 L248.5225,13.734 C248.5665,14.163 248.6435,14.383 248.8525,14.658 C249.1825,15.109 249.6665,15.351 250.2165,15.351 C250.8435,15.351 251.4375,15.01 251.7345,14.482 L252.4715,14.757 C252.0535,15.604 251.1845,16.121 250.2165,16.121 C248.7095,16.121 247.6315,15.021 247.6315,13.481 C247.6315,11.919 248.6985,10.808 250.1835,10.808 C251.6575,10.808 252.7575,11.919 252.7575,13.404 C252.7575,13.47 252.7575,13.613 252.7465,13.734 Z M248.5335,13.118 L251.8665,13.118 C251.8335,12.722 251.7565,12.502 251.5805,12.249 C251.2615,11.82 250.7445,11.556 250.1835,11.556 C249.6225,11.556 249.1165,11.82 248.8195,12.26 C248.6655,12.502 248.5995,12.711 248.5335,13.118 Z M257.7625,11.699 L257.7625,8.663 L258.5985,8.663 L258.5985,16 L257.7625,16 L257.7625,15.131 C257.2565,15.824 256.7175,16.121 255.9475,16.121 C254.5505,16.121 253.5605,15.032 253.5605,13.492 C253.5605,11.952 254.5725,10.808 255.9475,10.808 C256.6955,10.808 257.2675,11.083 257.7625,11.699 Z M256.1235,11.556 C255.1225,11.556 254.4405,12.348 254.4405,13.503 C254.4405,14.614 255.1115,15.395 256.0685,15.395 C257.0475,15.395 257.7625,14.581 257.7625,13.481 C257.7625,12.337 257.0915,11.556 256.1235,11.556 Z M261.3045,15.142 L260.1935,17.749 L259.5885,17.562 L260.5125,14.889 L261.3045,15.142 Z M260.7765,11.831 C261.1065,11.831 261.3485,12.073 261.3485,12.414 C261.3485,12.733 261.0955,12.975 260.7765,12.975 C260.4465,12.975 260.2045,12.733 260.2045,12.403 C260.2045,12.073 260.4465,11.831 260.7765,11.831 Z M271.9745,10.929 L272.8325,10.929 L271.0285,16 L270.2695,16 L269.1035,12.15 L267.8825,16 L267.0905,16 L265.3525,10.929 L266.2105,10.929 L267.5085,14.658 L268.6745,10.929 L269.4995,10.929 L270.6435,14.658 L271.9745,10.929 Z M274.5705,10.929 L274.5705,16 L273.7345,16 L273.7345,10.929 L274.5705,10.929 Z M274.1635,8.96 C274.4605,8.96 274.6915,9.202 274.6915,9.51 C274.6915,9.807 274.4495,10.038 274.1525,10.038 C273.8555,10.038 273.6245,9.807 273.6245,9.499 C273.6245,9.191 273.8555,8.96 274.1635,8.96 Z M277.1445,11.666 L277.1445,14.966 C277.1555,15.219 277.2215,15.274 277.5295,15.274 L277.9145,15.274 L277.9145,16 L277.1335,16 C276.5395,15.989 276.3085,15.769 276.3085,15.208 L276.3085,11.666 L275.6045,11.666 L275.6045,10.929 L276.3085,10.929 L276.3085,9.334 L277.1445,9.334 L277.1445,10.929 L277.9145,10.929 L277.9145,11.666 L277.1445,11.666 Z M279.9385,8.663 L279.9385,11.633 C280.4005,11.061 280.8625,10.808 281.4675,10.808 C281.9075,10.808 282.3695,10.984 282.6445,11.27 C282.9195,11.545 283.0405,11.941 283.0405,12.59 L283.0405,16 L282.2045,16 L282.2045,12.634 C282.2045,11.941 281.8635,11.556 281.2585,11.556 C280.8735,11.556 280.5325,11.71 280.2685,12.007 C280.0155,12.293 279.9385,12.546 279.9385,13.03 L279.9385,16 L279.1025,16 L279.1025,8.663 L279.9385,8.663 Z M287.9905,10.929 L288.8265,10.929 L288.8265,11.853 C289.3105,11.105 289.8275,10.808 290.6745,10.808 C292.0825,10.808 293.0615,11.886 293.0615,13.426 C293.0615,15.021 292.0825,16.121 290.6745,16.121 C290.2785,16.121 289.9155,16.033 289.5635,15.857 C289.2555,15.703 289.1015,15.571 288.8265,15.208 L288.8265,18.376 L287.9905,18.376 L287.9905,10.929 Z M290.5315,11.556 C289.5195,11.556 288.8265,12.359 288.8265,13.547 C288.8265,14.658 289.4975,15.395 290.4985,15.395 C291.4995,15.395 292.1705,14.614 292.1705,13.459 C292.1705,12.865 292.0275,12.414 291.7305,12.084 C291.4335,11.754 290.9825,11.556 290.5315,11.556 Z M298.1545,11.765 L298.1545,10.929 L298.9905,10.929 L298.9905,16 L298.1545,16 L298.1545,15.021 C297.6485,15.78 297.0765,16.121 296.3065,16.121 C294.9095,16.121 293.9195,15.021 293.9195,13.481 C293.9195,11.93 294.9315,10.808 296.3285,10.808 C297.0985,10.808 297.6595,11.105 298.1545,11.765 Z M296.4495,11.556 C295.8995,11.556 295.5145,11.743 295.2175,12.161 C294.9535,12.524 294.7995,13.008 294.7995,13.503 C294.7995,14.581 295.5035,15.395 296.4275,15.395 C297.3845,15.395 298.1655,14.504 298.1655,13.415 C298.1655,12.315 297.4615,11.556 296.4495,11.556 Z M304.4685,11.699 L304.4685,8.663 L305.3045,8.663 L305.3045,16 L304.4685,16 L304.4685,15.131 C303.9625,15.824 303.4235,16.121 302.6535,16.121 C301.2565,16.121 300.2665,15.032 300.2665,13.492 C300.2665,11.952 301.2785,10.808 302.6535,10.808 C303.4015,10.808 303.9735,11.083 304.4685,11.699 Z M302.8295,11.556 C301.8285,11.556 301.1465,12.348 301.1465,13.503 C301.1465,14.614 301.8175,15.395 302.7745,15.395 C303.7535,15.395 304.4685,14.581 304.4685,13.481 C304.4685,12.337 303.7975,11.556 302.8295,11.556 Z M310.7825,11.699 L310.7825,8.663 L311.6185,8.663 L311.6185,16 L310.7825,16 L310.7825,15.131 C310.2765,15.824 309.7375,16.121 308.9675,16.121 C307.5705,16.121 306.5805,15.032 306.5805,13.492 C306.5805,11.952 307.5925,10.808 308.9675,10.808 C309.7155,10.808 310.2875,11.083 310.7825,11.699 Z M309.1435,11.556 C308.1425,11.556 307.4605,12.348 307.4605,13.503 C307.4605,14.614 308.1315,15.395 309.0885,15.395 C310.0675,15.395 310.7825,14.581 310.7825,13.481 C310.7825,12.337 310.1115,11.556 309.1435,11.556 Z M314.1375,10.929 L314.1375,16 L313.3015,16 L313.3015,10.929 L314.1375,10.929 Z M313.7305,8.96 C314.0275,8.96 314.2585,9.202 314.2585,9.51 C314.2585,9.807 314.0165,10.038 313.7195,10.038 C313.4225,10.038 313.1915,9.807 313.1915,9.499 C313.1915,9.191 313.4225,8.96 313.7305,8.96 Z M315.8205,10.929 L316.6565,10.929 L316.6565,11.644 C317.0965,11.05 317.5365,10.808 318.1635,10.808 C318.6255,10.808 319.0435,10.962 319.3405,11.226 C319.6595,11.534 319.7695,11.886 319.7695,12.579 L319.7695,16 L318.9335,16 L318.9335,12.766 C318.9335,12.315 318.8785,12.073 318.7465,11.897 C318.5925,11.688 318.2955,11.556 317.9545,11.556 C317.5805,11.556 317.2395,11.699 316.9865,11.985 C316.7445,12.249 316.6565,12.491 316.6565,12.909 L316.6565,16 L315.8205,16 L315.8205,10.929 Z M325.1705,11.798 L325.1705,10.929 L326.0065,10.929 L326.0065,16.033 C326.0065,16.88 325.7975,17.452 325.3355,17.892 C324.8845,18.332 324.2355,18.563 323.4655,18.563 C322.5195,18.563 321.7715,18.255 321.2215,17.639 L321.7935,17.067 C322.0245,17.309 322.1345,17.408 322.2775,17.507 C322.5635,17.683 323.0365,17.804 323.4655,17.804 C323.9935,17.804 324.4995,17.617 324.7855,17.309 C325.0385,17.034 325.1705,16.627 325.1705,16.099 L325.1705,15.032 C324.6755,15.78 324.0925,16.121 323.3005,16.121 C321.9585,16.121 320.9575,14.988 320.9575,13.481 C320.9575,12.667 321.2545,11.886 321.7605,11.402 C322.1675,11.006 322.7175,10.808 323.3665,10.808 C324.1365,10.808 324.6535,11.094 325.1705,11.798 Z M323.5205,11.578 C322.5305,11.578 321.8375,12.348 321.8375,13.448 C321.8375,14.537 322.5415,15.351 323.4985,15.351 C323.9825,15.351 324.4555,15.12 324.7855,14.735 C325.0055,14.482 325.1485,13.987 325.1485,13.481 C325.1485,12.821 325.0495,12.469 324.7525,12.139 C324.4445,11.798 323.9715,11.578 323.5205,11.578 Z"/>
      <rect width="350" height="1" x="5" y="2"/>
      <polygon points="357.5 0 360 5 355 5" transform="rotate(90 357.5 2.5)"/>
      <polygon points="2.5 0 5 5 0 5" transform="matrix(0 1 1 0 0 0)"/>
    </g>
  </g>
</svg>
