<svg xmlns="http://www.w3.org/2000/svg" xmlns:xlink="http://www.w3.org/1999/xlink" width="1024" height="180" viewBox="0 0 1024 180">
  <defs>
    <rect id="2-b" width="337" height="56" rx="14"/>
    <filter id="2-a" width="107.4%" height="144.6%" x="-3.7%" y="-20.5%" filterUnits="objectBoundingBox">
      <feOffset dy="1" in="SourceAlpha" result="shadowOffsetOuter1"/>
      <feGaussianBlur in="shadowOffsetOuter1" result="shadowBlurOuter1" stdDeviation="4"/>
      <feColorMatrix in="shadowBlurOuter1" result="shadowMatrixOuter1" values="0 0 0 0 0   0 0 0 0 0   0 0 0 0 0  0 0 0 0.2 0"/>
      <feMorphology in="SourceAlpha" radius="1" result="shadowSpreadOuter2"/>
      <feOffset dy="3" in="shadowSpreadOuter2" result="shadowOffsetOuter2"/>
      <feGaussianBlur in="shadowOffsetOuter2" result="shadowBlurOuter2" stdDeviation="1.5"/>
      <feColorMatrix in="shadowBlurOuter2" result="shadowMatrixOuter2" values="0 0 0 0 0   0 0 0 0 0   0 0 0 0 0  0 0 0 0.12 0"/>
      <feOffset dy="3" in="SourceAlpha" result="shadowOffsetOuter3"/>
      <feGaussianBlur in="shadowOffsetOuter3" result="shadowBlurOuter3" stdDeviation="2"/>
      <feColorMatrix in="shadowBlurOuter3" result="shadowMatrixOuter3" values="0 0 0 0 0   0 0 0 0 0   0 0 0 0 0  0 0 0 0.14 0"/>
      <feMerge>
        <feMergeNode in="shadowMatrixOuter1"/>
        <feMergeNode in="shadowMatrixOuter2"/>
        <feMergeNode in="shadowMatrixOuter3"/>
      </feMerge>
    </filter>
  </defs>
  <g fill="none" fill-rule="evenodd">
    <rect width="1024" height="180" fill="#FFF" fill-opacity=".01" fill-rule="nonzero"/>
    <g transform="translate(6)">
      <g fill-rule="nonzero" stroke="#979797" transform="translate(1.062)">
        <polyline fill="#FFF" points="1009.876 0 1009.876 124 0 124 0 0 0 0"/>
        <path d="M353.103448,0 L353.103448,124"/>
      </g>
      <g transform="translate(9 60)">
        <use fill="#000" filter="url(#2-a)" xlink:href="#2-b"/>
        <use fill="#F7F7F7" xlink:href="#2-b"/>
        <rect width="337" height="56" fill="#25333D" rx="14"/>
        <path fill="#89CBDF" fill-rule="nonzero" d="M9.27103513,17 L8.17533201,13.8208008 L3.60990232,13.8208008 L2.50589842,17 L0.596718729,17 L4.92142576,5.02197266 L6.92191404,5.02197266 L11.2466211,17 L9.27103513,17 Z M5.82621092,7.19677734 L4.08304685,12.2602539 L7.70218748,12.2602539 L5.9673242,7.19677734 L5.82621092,7.19677734 Z M19.8678711,10.9155273 L18.1330078,10.9155273 C17.9254883,10.0356445 17.1950195,9.37988281 15.999707,9.37988281 C14.5055664,9.37988281 13.5924805,10.5253906 13.5924805,12.4511719 C13.5924805,14.4101562 14.5138672,15.5805664 15.999707,15.5805664 C17.1286133,15.5805664 17.9005859,15.065918 18.1330078,14.0947266 L19.8678711,14.0947266 C19.6354492,15.9125977 18.240918,17.1743164 16.0080078,17.1743164 C13.3766601,17.1743164 11.7663086,15.3979492 11.7663086,12.4511719 C11.7663086,9.55419922 13.3683594,7.78613281 15.999707,7.78613281 C18.2658203,7.78613281 19.6354492,9.10595703 19.8678711,10.9155273 Z M22.2552344,5.7109375 L24.0399023,5.7109375 L24.0399023,8.00195312 L25.9988867,8.00195312 L25.9988867,9.50439453 L24.0399023,9.50439453 L24.0399023,14.152832 C24.0399023,15.0991211 24.430039,15.5141602 25.3182226,15.5141602 C25.5921484,15.5141602 25.7498633,15.4975586 25.9988867,15.4726562 L25.9988867,16.9584961 C25.7083594,17.0083008 25.3763281,17.0498047 25.0276953,17.0498047 C23.0438086,17.0498047 22.2552344,16.3525391 22.2552344,14.609375 L22.2552344,9.50439453 L20.8191992,9.50439453 L20.8191992,8.00195312 L22.2552344,8.00195312 L22.2552344,5.7109375 Z M27.7221875,17 L27.7221875,7.96044922 L29.4985547,7.96044922 L29.4985547,17 L27.7221875,17 Z M28.6103711,6.375 C27.9463086,6.375 27.4565625,5.90185547 27.4565625,5.28759766 C27.4565625,4.66503906 27.9463086,4.19189453 28.6103711,4.19189453 C29.2744336,4.19189453 29.7641797,4.66503906 29.7641797,5.28759766 C29.7641797,5.90185547 29.2744336,6.375 28.6103711,6.375 Z M35.5299609,17.1743164 C32.8820117,17.1743164 31.2633594,15.40625 31.2633594,12.4760742 C31.2633594,9.5625 32.8903125,7.78613281 35.5299609,7.78613281 C38.1613086,7.78613281 39.7882617,9.5625 39.7882617,12.4760742 C39.7882617,15.40625 38.1696094,17.1743164 35.5299609,17.1743164 Z M35.5299609,15.5888672 C37.0739062,15.5888672 37.9537891,14.4433594 37.9537891,12.4760742 C37.9537891,10.5170898 37.0739062,9.37158203 35.5299609,9.37158203 C33.9777148,9.37158203 33.1061328,10.5170898 33.1061328,12.4760742 C33.1061328,14.4516602 33.9777148,15.5888672 35.5299609,15.5888672 Z M41.5198633,17 L41.5198633,7.96044922 L43.238125,7.96044922 L43.238125,9.39648438 L43.3709375,9.39648438 C43.8108789,8.39208984 44.7073633,7.78613281 46.0686914,7.78613281 C48.0857812,7.78613281 49.1980859,8.99804688 49.1980859,11.1479492 L49.1980859,17 L47.413418,17 L47.413418,11.5961914 C47.413418,10.1435547 46.7825586,9.42138672 45.4627344,9.42138672 C44.1429102,9.42138672 43.3045312,10.3012695 43.3045312,11.7124023 L43.3045312,17 L41.5198633,17 Z" transform="translate(270.207 17)"/>
        <path fill="#FFF" fill-rule="nonzero" d="M16.8984375,30.0546875 L18.3203125,30.0546875 C18.4921875,31.234375 19.6171875,31.984375 21.21875,31.984375 C22.734375,31.984375 23.8515625,31.1640625 23.8515625,30.046875 C23.8515625,29.0859375 23.1484375,28.4765625 21.59375,28.0859375 L20.1484375,27.7109375 C18.109375,27.1953125 17.2265625,26.2734375 17.2265625,24.671875 C17.2265625,22.7578125 18.828125,21.4609375 21.2109375,21.4609375 C23.390625,21.4609375 25.015625,22.7578125 25.1328125,24.578125 L23.71875,24.578125 C23.5234375,23.421875 22.5703125,22.734375 21.1640625,22.734375 C19.6640625,22.734375 18.671875,23.484375 18.671875,24.625 C18.671875,25.5078125 19.2890625,26.015625 20.84375,26.4140625 L22.0234375,26.7265625 C24.359375,27.3125 25.296875,28.21875 25.296875,29.875 C25.296875,31.9453125 23.6640625,33.265625 21.0859375,33.265625 C18.6953125,33.265625 17.046875,32 16.8984375,30.0546875 Z M27.1721875,33 L27.1721875,24.578125 L28.5159375,24.578125 L28.5159375,33 L27.1721875,33 Z M27.8440625,22.8671875 C27.3284375,22.8671875 26.9065625,22.4453125 26.9065625,21.9296875 C26.9065625,21.4140625 27.3284375,20.9921875 27.8440625,20.9921875 C28.3596875,20.9921875 28.7815625,21.4140625 28.7815625,21.9296875 C28.7815625,22.4453125 28.3596875,22.8671875 27.8440625,22.8671875 Z M30.7584375,33 L30.7584375,24.578125 L32.0396875,24.578125 L32.0396875,25.90625 L32.1646875,25.90625 C32.5865625,24.9765625 33.406875,24.4296875 34.6959375,24.4296875 C36.5865625,24.4296875 37.64125,25.546875 37.64125,27.546875 L37.64125,33 L36.2975,33 L36.2975,27.875 C36.2975,26.359375 35.656875,25.640625 34.313125,25.640625 C32.969375,25.640625 32.1021875,26.5390625 32.1021875,28.015625 L32.1021875,33 L30.7584375,33 Z M43.180625,31.6875 C44.743125,31.6875 45.680625,30.5 45.680625,28.6640625 C45.680625,26.828125 44.7353125,25.640625 43.180625,25.640625 C41.618125,25.640625 40.743125,26.828125 40.743125,28.6640625 C40.743125,30.5 41.618125,31.6875 43.180625,31.6875 Z M43.243125,36.234375 C41.211875,36.234375 39.915,35.3203125 39.711875,33.9296875 L41.13375,33.9296875 C41.2821875,34.6171875 42.0321875,35.0625 43.243125,35.0625 C44.7509375,35.0625 45.649375,34.3203125 45.649375,33.078125 L45.649375,31.421875 L45.524375,31.421875 C44.993125,32.3515625 44.04,32.875 42.88375,32.875 C40.7040625,32.875 39.3525,31.1875 39.3525,28.6640625 C39.3525,26.140625 40.7196875,24.4296875 42.88375,24.4296875 C44.0634375,24.4296875 45.1025,25.0078125 45.586875,25.9140625 L45.711875,25.9140625 L45.711875,24.578125 L46.993125,24.578125 L46.993125,33.1484375 C46.993125,35.03125 45.54,36.234375 43.243125,36.234375 Z M49.2825,33 L49.2825,21.234375 L50.62625,21.234375 L50.62625,33 L49.2825,33 Z M56.275,25.6171875 C54.93125,25.6171875 53.99375,26.6015625 53.8921875,28.09375 L58.5328125,28.09375 C58.5015625,26.6015625 57.6109375,25.6171875 56.275,25.6171875 Z M58.49375,30.8203125 L59.8375,30.8203125 C59.43125,32.265625 58.134375,33.1484375 56.290625,33.1484375 C53.9546875,33.1484375 52.49375,31.4609375 52.49375,28.796875 C52.49375,26.1484375 53.978125,24.4296875 56.290625,24.4296875 C58.5640625,24.4296875 59.946875,26.046875 59.946875,28.6640625 L59.946875,29.1796875 L53.8921875,29.1796875 L53.8921875,29.2421875 C53.9625,30.90625 54.8921875,31.9609375 56.321875,31.9609375 C57.4078125,31.9609375 58.1421875,31.5625 58.49375,30.8203125 Z M66.0100001,33 L66.0100001,21.234375 L67.3537501,21.234375 L67.3537501,33 L66.0100001,33 Z M69.6743751,33 L69.6743751,24.578125 L71.0181251,24.578125 L71.0181251,33 L69.6743751,33 Z M70.3462501,22.8671875 C69.8306251,22.8671875 69.4087501,22.4453125 69.4087501,21.9296875 C69.4087501,21.4140625 69.8306251,20.9921875 70.3462501,20.9921875 C70.8618751,20.9921875 71.2837501,21.4140625 71.2837501,21.9296875 C71.2837501,22.4453125 70.8618751,22.8671875 70.3462501,22.8671875 Z M73.2606251,33 L73.2606251,24.578125 L74.5418751,24.578125 L74.5418751,25.90625 L74.6668751,25.90625 C75.0887501,24.9765625 75.9090626,24.4296875 77.1981251,24.4296875 C79.0887501,24.4296875 80.1434376,25.546875 80.1434376,27.546875 L80.1434376,33 L78.7996876,33 L78.7996876,27.875 C78.7996876,26.359375 78.1590626,25.640625 76.8153126,25.640625 C75.4715626,25.640625 74.6043751,26.5390625 74.6043751,28.015625 L74.6043751,33 L73.2606251,33 Z M85.6359376,25.6171875 C84.2921876,25.6171875 83.3546876,26.6015625 83.2531251,28.09375 L87.8937501,28.09375 C87.8625001,26.6015625 86.9718751,25.6171875 85.6359376,25.6171875 Z M87.8546876,30.8203125 L89.1984376,30.8203125 C88.7921876,32.265625 87.4953126,33.1484375 85.6515626,33.1484375 C83.3156251,33.1484375 81.8546876,31.4609375 81.8546876,28.796875 C81.8546876,26.1484375 83.3390626,24.4296875 85.6515626,24.4296875 C87.9250001,24.4296875 89.3078126,26.046875 89.3078126,28.6640625 L89.3078126,29.1796875 L83.2531251,29.1796875 L83.2531251,29.2421875 C83.3234376,30.90625 84.2531251,31.9609375 85.6828126,31.9609375 C86.7687501,31.9609375 87.5031251,31.5625 87.8546876,30.8203125 Z M95.2928126,33 L95.2928126,24.578125 L96.5740626,24.578125 L96.5740626,25.90625 L96.6990626,25.90625 C97.0818751,24.96875 97.9256251,24.4296875 99.0506251,24.4296875 C100.19125,24.4296875 100.988125,25.03125 101.37875,25.90625 L101.50375,25.90625 C101.956875,25.015625 102.917813,24.4296875 104.081875,24.4296875 C105.800625,24.4296875 106.761563,25.4140625 106.761563,27.1796875 L106.761563,33 L105.417813,33 L105.417813,27.4921875 C105.417813,26.25 104.831875,25.640625 103.644375,25.640625 C102.4725,25.640625 101.69125,26.515625 101.69125,27.5859375 L101.69125,33 L100.3475,33 L100.3475,27.28125 C100.3475,26.28125 99.6521876,25.640625 98.5896876,25.640625 C97.4881251,25.640625 96.6365626,26.59375 96.6365626,27.78125 L96.6365626,33 L95.2928126,33 Z M112.254063,25.6171875 C110.910313,25.6171875 109.972813,26.6015625 109.87125,28.09375 L114.511875,28.09375 C114.480625,26.6015625 113.59,25.6171875 112.254063,25.6171875 Z M114.472813,30.8203125 L115.816563,30.8203125 C115.410313,32.265625 114.113438,33.1484375 112.269688,33.1484375 C109.93375,33.1484375 108.472813,31.4609375 108.472813,28.796875 C108.472813,26.1484375 109.957188,24.4296875 112.269688,24.4296875 C114.543125,24.4296875 115.925938,26.046875 115.925938,28.6640625 L115.925938,29.1796875 L109.87125,29.1796875 L109.87125,29.2421875 C109.941563,30.90625 110.87125,31.9609375 112.300938,31.9609375 C113.386875,31.9609375 114.12125,31.5625 114.472813,30.8203125 Z M117.52,26.8828125 C117.52,25.484375 118.871563,24.4296875 120.660625,24.4296875 C122.42625,24.4296875 123.652813,25.3046875 123.8325,26.6875 L122.504375,26.6875 C122.324688,26.015625 121.668438,25.5703125 120.652813,25.5703125 C119.652813,25.5703125 118.871563,26.078125 118.871563,26.828125 C118.871563,27.40625 119.340313,27.765625 120.3325,28.0078125 L121.629375,28.3203125 C123.215313,28.703125 123.980938,29.390625 123.980938,30.6015625 C123.980938,32.109375 122.52,33.1484375 120.605938,33.1484375 C118.730938,33.1484375 117.441875,32.25 117.293438,30.8515625 L118.67625,30.8515625 C118.902813,31.5625 119.574688,32.015625 120.652813,32.015625 C121.785625,32.015625 122.598125,31.4765625 122.598125,30.703125 C122.598125,30.125 122.160625,29.734375 121.262188,29.515625 L119.816875,29.1640625 C118.23875,28.78125 117.52,28.1015625 117.52,26.8828125 Z M125.41875,26.8828125 C125.41875,25.484375 126.770313,24.4296875 128.559375,24.4296875 C130.325,24.4296875 131.551563,25.3046875 131.73125,26.6875 L130.403125,26.6875 C130.223438,26.015625 129.567188,25.5703125 128.551563,25.5703125 C127.551563,25.5703125 126.770313,26.078125 126.770313,26.828125 C126.770313,27.40625 127.239063,27.765625 128.23125,28.0078125 L129.528125,28.3203125 C131.114063,28.703125 131.879688,29.390625 131.879688,30.6015625 C131.879688,32.109375 130.41875,33.1484375 128.504688,33.1484375 C126.629688,33.1484375 125.340625,32.25 125.192188,30.8515625 L126.575,30.8515625 C126.801563,31.5625 127.473438,32.015625 128.551563,32.015625 C129.684375,32.015625 130.496875,31.4765625 130.496875,30.703125 C130.496875,30.125 130.059375,29.734375 129.160938,29.515625 L127.715625,29.1640625 C126.1375,28.78125 125.41875,28.1015625 125.41875,26.8828125 Z M136.262813,31.96875 C137.645625,31.96875 138.669063,31.0625 138.669063,29.859375 L138.669063,29.0859375 L136.403438,29.234375 C135.122188,29.3203125 134.559688,29.765625 134.559688,30.609375 C134.559688,31.46875 135.28625,31.96875 136.262813,31.96875 Z M136.012813,33.1484375 C134.38,33.1484375 133.169063,32.1796875 133.169063,30.640625 C133.169063,29.1328125 134.278438,28.265625 136.239375,28.1484375 L138.669063,28 L138.669063,27.234375 C138.669063,26.1953125 138.020625,25.625 136.762813,25.625 C135.755,25.625 135.051875,26.0078125 134.864375,26.671875 L133.505,26.671875 C133.684688,25.3203125 135.012813,24.4296875 136.809688,24.4296875 C138.864375,24.4296875 140.012813,25.484375 140.012813,27.234375 L140.012813,33 L138.731563,33 L138.731563,31.7578125 L138.606563,31.7578125 C138.059688,32.65625 137.137813,33.1484375 136.012813,33.1484375 Z M145.583438,31.6875 C147.145938,31.6875 148.083438,30.5 148.083438,28.6640625 C148.083438,26.828125 147.138125,25.640625 145.583438,25.640625 C144.020938,25.640625 143.145938,26.828125 143.145938,28.6640625 C143.145938,30.5 144.020938,31.6875 145.583438,31.6875 Z M145.645938,36.234375 C143.614688,36.234375 142.317813,35.3203125 142.114688,33.9296875 L143.536563,33.9296875 C143.685,34.6171875 144.435,35.0625 145.645938,35.0625 C147.15375,35.0625 148.052188,34.3203125 148.052188,33.078125 L148.052188,31.421875 L147.927188,31.421875 C147.395938,32.3515625 146.442813,32.875 145.286563,32.875 C143.106875,32.875 141.755313,31.1875 141.755313,28.6640625 C141.755313,26.140625 143.1225,24.4296875 145.286563,24.4296875 C146.46625,24.4296875 147.505313,25.0078125 147.989688,25.9140625 L148.114688,25.9140625 L148.114688,24.578125 L149.395938,24.578125 L149.395938,33.1484375 C149.395938,35.03125 147.942813,36.234375 145.645938,36.234375 Z M154.966563,25.6171875 C153.622813,25.6171875 152.685313,26.6015625 152.58375,28.09375 L157.224375,28.09375 C157.193125,26.6015625 156.3025,25.6171875 154.966563,25.6171875 Z M157.185313,30.8203125 L158.529063,30.8203125 C158.122813,32.265625 156.825938,33.1484375 154.982188,33.1484375 C152.64625,33.1484375 151.185313,31.4609375 151.185313,28.796875 C151.185313,26.1484375 152.669688,24.4296875 154.982188,24.4296875 C157.255625,24.4296875 158.638438,26.046875 158.638438,28.6640625 L158.638438,29.1796875 L152.58375,29.1796875 L152.58375,29.2421875 C152.654063,30.90625 153.58375,31.9609375 155.013438,31.9609375 C156.099375,31.9609375 156.83375,31.5625 157.185313,30.8203125 Z"/>
      </g>
      <path fill="#C41261" fill-rule="nonzero" d="M138.7355,25.018 C139.1535,25.15 139.3515,25.249 139.5825,25.491 C139.9455,25.854 140.1325,26.338 140.1325,26.91 C140.1325,28.208 139.1755,29.132 137.8335,29.132 C136.5025,29.132 135.5675,28.241 135.5675,26.987 C135.5675,26.404 135.7655,25.876 136.1175,25.513 C136.3485,25.271 136.5355,25.161 136.9755,25.018 C136.5905,24.886 136.4255,24.776 136.2275,24.534 C135.9855,24.237 135.8535,23.863 135.8535,23.456 C135.8535,22.411 136.7115,21.641 137.8775,21.641 C139.0325,21.641 139.8685,22.4 139.8685,23.445 C139.8685,23.863 139.7255,24.259 139.4615,24.567 C139.2635,24.787 139.1095,24.886 138.7355,25.018 Z M137.8775,22.411 C137.1735,22.411 136.6895,22.851 136.6895,23.467 C136.6895,24.094 137.2065,24.589 137.8555,24.589 C138.4825,24.589 139.0435,24.072 139.0435,23.478 C139.0435,22.906 138.5045,22.411 137.8775,22.411 Z M137.8665,25.48 C137.0745,25.48 136.4365,26.107 136.4365,26.899 C136.4365,27.68 137.0635,28.318 137.8445,28.318 C138.6255,28.318 139.2525,27.68 139.2525,26.899 C139.2525,26.129 138.6255,25.48 137.8665,25.48 Z M141.4415,23.929 L142.2775,23.929 L142.2775,24.853 C142.7615,24.105 143.2785,23.808 144.1255,23.808 C145.5335,23.808 146.5125,24.886 146.5125,26.426 C146.5125,28.021 145.5335,29.121 144.1255,29.121 C143.7295,29.121 143.3665,29.033 143.0145,28.857 C142.7065,28.703 142.5525,28.571 142.2775,28.208 L142.2775,31.376 L141.4415,31.376 L141.4415,23.929 Z M143.9825,24.556 C142.9705,24.556 142.2775,25.359 142.2775,26.547 C142.2775,27.658 142.9485,28.395 143.9495,28.395 C144.9505,28.395 145.6215,27.614 145.6215,26.459 C145.6215,25.865 145.4785,25.414 145.1815,25.084 C144.8845,24.754 144.4335,24.556 143.9825,24.556 Z M149.3945,27.163 L148.0415,29 L147.0185,29 L148.8885,26.481 L146.9855,23.929 L148.0415,23.929 L149.3945,25.788 L150.7805,23.929 L151.8035,23.929 L149.8895,26.481 L151.7155,29 L150.6925,29 L149.3945,27.163 Z M156.9075,24.666 L156.9075,29 L156.0715,29 L156.0715,24.666 L155.3785,24.666 L155.3785,23.929 L156.0715,23.929 L156.0715,23.247 C156.0715,22.246 156.5885,21.652 157.4685,21.652 C157.5125,21.652 157.6115,21.652 157.6995,21.663 L157.6995,22.411 C157.0945,22.477 156.9295,22.653 156.9075,23.247 L156.9075,23.929 L157.6995,23.929 L157.6995,24.666 L156.9075,24.666 Z M159.8995,23.929 L159.8995,29 L159.0635,29 L159.0635,23.929 L159.8995,23.929 Z M159.4815,21.96 C159.7785,21.96 160.0095,22.202 160.0095,22.51 C160.0095,22.807 159.7785,23.038 159.4815,23.038 C159.1735,23.038 158.9425,22.807 158.9425,22.499 C158.9425,22.191 159.1735,21.96 159.4815,21.96 Z M163.1995,27.163 L161.8465,29 L160.8235,29 L162.6935,26.481 L160.7905,23.929 L161.8465,23.929 L163.1995,25.788 L164.5855,23.929 L165.6085,23.929 L163.6945,26.481 L165.5205,29 L164.4975,29 L163.1995,27.163 Z M171.1965,26.734 L166.9725,26.734 C167.0165,27.163 167.0935,27.383 167.3025,27.658 C167.6325,28.109 168.1165,28.351 168.6665,28.351 C169.2935,28.351 169.8875,28.01 170.1845,27.482 L170.9215,27.757 C170.5035,28.604 169.6345,29.121 168.6665,29.121 C167.1595,29.121 166.0815,28.021 166.0815,26.481 C166.0815,24.919 167.1485,23.808 168.6335,23.808 C170.1075,23.808 171.2075,24.919 171.2075,26.404 C171.2075,26.47 171.2075,26.613 171.1965,26.734 Z M166.9835,26.118 L170.3165,26.118 C170.2835,25.722 170.2065,25.502 170.0305,25.249 C169.7115,24.82 169.1945,24.556 168.6335,24.556 C168.0725,24.556 167.5665,24.82 167.2695,25.26 C167.1155,25.502 167.0495,25.711 166.9835,26.118 Z M176.2125,24.699 L176.2125,21.663 L177.0485,21.663 L177.0485,29 L176.2125,29 L176.2125,28.131 C175.7065,28.824 175.1675,29.121 174.3975,29.121 C173.0005,29.121 172.0105,28.032 172.0105,26.492 C172.0105,24.952 173.0225,23.808 174.3975,23.808 C175.1455,23.808 175.7175,24.083 176.2125,24.699 Z M174.5735,24.556 C173.5725,24.556 172.8905,25.348 172.8905,26.503 C172.8905,27.614 173.5615,28.395 174.5185,28.395 C175.4975,28.395 176.2125,27.581 176.2125,26.481 C176.2125,25.337 175.5415,24.556 174.5735,24.556 Z M182.0315,23.929 L182.8675,23.929 L182.8675,24.853 C183.3515,24.105 183.8685,23.808 184.7155,23.808 C186.1235,23.808 187.1025,24.886 187.1025,26.426 C187.1025,28.021 186.1235,29.121 184.7155,29.121 C184.3195,29.121 183.9565,29.033 183.6045,28.857 C183.2965,28.703 183.1425,28.571 182.8675,28.208 L182.8675,31.376 L182.0315,31.376 L182.0315,23.929 Z M184.5725,24.556 C183.5605,24.556 182.8675,25.359 182.8675,26.547 C182.8675,27.658 183.5385,28.395 184.5395,28.395 C185.5405,28.395 186.2115,27.614 186.2115,26.459 C186.2115,25.865 186.0685,25.414 185.7715,25.084 C185.4745,24.754 185.0235,24.556 184.5725,24.556 Z M192.1955,24.765 L192.1955,23.929 L193.0315,23.929 L193.0315,29 L192.1955,29 L192.1955,28.021 C191.6895,28.78 191.1175,29.121 190.3475,29.121 C188.9505,29.121 187.9605,28.021 187.9605,26.481 C187.9605,24.93 188.9725,23.808 190.3695,23.808 C191.1395,23.808 191.7005,24.105 192.1955,24.765 Z M190.4905,24.556 C189.9405,24.556 189.5555,24.743 189.2585,25.161 C188.9945,25.524 188.8405,26.008 188.8405,26.503 C188.8405,27.581 189.5445,28.395 190.4685,28.395 C191.4255,28.395 192.2065,27.504 192.2065,26.415 C192.2065,25.315 191.5025,24.556 190.4905,24.556 Z M198.5095,24.699 L198.5095,21.663 L199.3455,21.663 L199.3455,29 L198.5095,29 L198.5095,28.131 C198.0035,28.824 197.4645,29.121 196.6945,29.121 C195.2975,29.121 194.3075,28.032 194.3075,26.492 C194.3075,24.952 195.3195,23.808 196.6945,23.808 C197.4425,23.808 198.0145,24.083 198.5095,24.699 Z M196.8705,24.556 C195.8695,24.556 195.1875,25.348 195.1875,26.503 C195.1875,27.614 195.8585,28.395 196.8155,28.395 C197.7945,28.395 198.5095,27.581 198.5095,26.481 C198.5095,25.337 197.8385,24.556 196.8705,24.556 Z M204.8235,24.699 L204.8235,21.663 L205.6595,21.663 L205.6595,29 L204.8235,29 L204.8235,28.131 C204.3175,28.824 203.7785,29.121 203.0085,29.121 C201.6115,29.121 200.6215,28.032 200.6215,26.492 C200.6215,24.952 201.6335,23.808 203.0085,23.808 C203.7565,23.808 204.3285,24.083 204.8235,24.699 Z M203.1845,24.556 C202.1835,24.556 201.5015,25.348 201.5015,26.503 C201.5015,27.614 202.1725,28.395 203.1295,28.395 C204.1085,28.395 204.8235,27.581 204.8235,26.481 C204.8235,25.337 204.1525,24.556 203.1845,24.556 Z M208.1785,23.929 L208.1785,29 L207.3425,29 L207.3425,23.929 L208.1785,23.929 Z M207.7715,21.96 C208.0685,21.96 208.2995,22.202 208.2995,22.51 C208.2995,22.807 208.0575,23.038 207.7605,23.038 C207.4635,23.038 207.2325,22.807 207.2325,22.499 C207.2325,22.191 207.4635,21.96 207.7715,21.96 Z M209.8615,23.929 L210.6975,23.929 L210.6975,24.644 C211.1375,24.05 211.5775,23.808 212.2045,23.808 C212.6665,23.808 213.0845,23.962 213.3815,24.226 C213.7005,24.534 213.8105,24.886 213.8105,25.579 L213.8105,29 L212.9745,29 L212.9745,25.766 C212.9745,25.315 212.9195,25.073 212.7875,24.897 C212.6335,24.688 212.3365,24.556 211.9955,24.556 C211.6215,24.556 211.2805,24.699 211.0275,24.985 C210.7855,25.249 210.6975,25.491 210.6975,25.909 L210.6975,29 L209.8615,29 L209.8615,23.929 Z M219.2115,24.798 L219.2115,23.929 L220.0475,23.929 L220.0475,29.033 C220.0475,29.88 219.8385,30.452 219.3765,30.892 C218.9255,31.332 218.2765,31.563 217.5065,31.563 C216.5605,31.563 215.8125,31.255 215.2625,30.639 L215.8345,30.067 C216.0655,30.309 216.1755,30.408 216.3185,30.507 C216.6045,30.683 217.0775,30.804 217.5065,30.804 C218.0345,30.804 218.5405,30.617 218.8265,30.309 C219.0795,30.034 219.2115,29.627 219.2115,29.099 L219.2115,28.032 C218.7165,28.78 218.1335,29.121 217.3415,29.121 C215.9995,29.121 214.9985,27.988 214.9985,26.481 C214.9985,25.667 215.2955,24.886 215.8015,24.402 C216.2085,24.006 216.7585,23.808 217.4075,23.808 C218.1775,23.808 218.6945,24.094 219.2115,24.798 Z M217.5615,24.578 C216.5715,24.578 215.8785,25.348 215.8785,26.448 C215.8785,27.537 216.5825,28.351 217.5395,28.351 C218.0235,28.351 218.4965,28.12 218.8265,27.735 C219.0465,27.482 219.1895,26.987 219.1895,26.481 C219.1895,25.821 219.0905,25.469 218.7935,25.139 C218.4855,24.798 218.0125,24.578 217.5615,24.578 Z M154.317,34.808 C155.813,34.808 156.88,35.919 156.88,37.481 C156.88,38.966 155.736,40.121 154.284,40.121 C152.777,40.121 151.721,39.021 151.721,37.459 C151.721,35.886 152.777,34.808 154.317,34.808 Z M154.317,35.578 C153.272,35.578 152.579,36.337 152.579,37.47 C152.579,38.592 153.272,39.351 154.306,39.351 C155.307,39.351 156.022,38.57 156.022,37.47 C156.022,36.337 155.34,35.578 154.317,35.578 Z M158.156,34.929 L158.992,34.929 L158.992,35.644 C159.432,35.05 159.872,34.808 160.499,34.808 C160.961,34.808 161.379,34.962 161.676,35.226 C161.995,35.534 162.105,35.886 162.105,36.579 L162.105,40 L161.269,40 L161.269,36.766 C161.269,36.315 161.214,36.073 161.082,35.897 C160.928,35.688 160.631,35.556 160.29,35.556 C159.916,35.556 159.575,35.699 159.322,35.985 C159.08,36.249 158.992,36.491 158.992,36.909 L158.992,40 L158.156,40 L158.156,34.929 Z M170.883,35.765 L170.883,34.929 L171.719,34.929 L171.719,40 L170.883,40 L170.883,39.021 C170.377,39.78 169.805,40.121 169.035,40.121 C167.638,40.121 166.648,39.021 166.648,37.481 C166.648,35.93 167.66,34.808 169.057,34.808 C169.827,34.808 170.388,35.105 170.883,35.765 Z M169.178,35.556 C168.628,35.556 168.243,35.743 167.946,36.161 C167.682,36.524 167.528,37.008 167.528,37.503 C167.528,38.581 168.232,39.395 169.156,39.395 C170.113,39.395 170.894,38.504 170.894,37.415 C170.894,36.315 170.19,35.556 169.178,35.556 Z M174.238,40 L173.402,40 L173.402,32.663 L174.238,32.663 L174.238,40 Z M176.757,40 L175.921,40 L175.921,32.663 L176.757,32.663 L176.757,40 Z M184.919,36.315 L184.083,36.315 L184.083,36.26 C184.083,35.787 183.698,35.49 183.115,35.49 C182.554,35.49 182.202,35.776 182.202,36.216 C182.202,36.656 182.422,36.821 183.335,37.074 C183.984,37.25 184.325,37.415 184.567,37.657 C184.82,37.91 184.974,38.273 184.974,38.647 C184.974,39.527 184.248,40.121 183.17,40.121 C182.015,40.121 181.366,39.582 181.278,38.559 L182.103,38.559 C182.158,39.131 182.532,39.439 183.17,39.439 C183.742,39.439 184.116,39.142 184.116,38.691 C184.116,38.251 183.83,38.031 182.961,37.811 C181.861,37.514 181.366,37.052 181.366,36.282 C181.366,35.402 182.081,34.808 183.148,34.808 C184.226,34.808 184.875,35.358 184.919,36.315 Z M187.097,34.929 L187.097,40 L186.261,40 L186.261,34.929 L187.097,34.929 Z M186.69,32.96 C186.987,32.96 187.218,33.202 187.218,33.51 C187.218,33.807 186.976,34.038 186.679,34.038 C186.382,34.038 186.151,33.807 186.151,33.499 C186.151,33.191 186.382,32.96 186.69,32.96 Z M192.575,35.699 L192.575,32.663 L193.411,32.663 L193.411,40 L192.575,40 L192.575,39.131 C192.069,39.824 191.53,40.121 190.76,40.121 C189.363,40.121 188.373,39.032 188.373,37.492 C188.373,35.952 189.385,34.808 190.76,34.808 C191.508,34.808 192.08,35.083 192.575,35.699 Z M190.936,35.556 C189.935,35.556 189.253,36.348 189.253,37.503 C189.253,38.614 189.924,39.395 190.881,39.395 C191.86,39.395 192.575,38.581 192.575,37.481 C192.575,36.337 191.904,35.556 190.936,35.556 Z M199.802,37.734 L195.578,37.734 C195.622,38.163 195.699,38.383 195.908,38.658 C196.238,39.109 196.722,39.351 197.272,39.351 C197.899,39.351 198.493,39.01 198.79,38.482 L199.527,38.757 C199.109,39.604 198.24,40.121 197.272,40.121 C195.765,40.121 194.687,39.021 194.687,37.481 C194.687,35.919 195.754,34.808 197.239,34.808 C198.713,34.808 199.813,35.919 199.813,37.404 C199.813,37.47 199.813,37.613 199.802,37.734 Z M195.589,37.118 L198.922,37.118 C198.889,36.722 198.812,36.502 198.636,36.249 C198.317,35.82 197.8,35.556 197.239,35.556 C196.678,35.556 196.172,35.82 195.875,36.26 C195.721,36.502 195.655,36.711 195.589,37.118 Z M204.202,36.315 L203.366,36.315 L203.366,36.26 C203.366,35.787 202.981,35.49 202.398,35.49 C201.837,35.49 201.485,35.776 201.485,36.216 C201.485,36.656 201.705,36.821 202.618,37.074 C203.267,37.25 203.608,37.415 203.85,37.657 C204.103,37.91 204.257,38.273 204.257,38.647 C204.257,39.527 203.531,40.121 202.453,40.121 C201.298,40.121 200.649,39.582 200.561,38.559 L201.386,38.559 C201.441,39.131 201.815,39.439 202.453,39.439 C203.025,39.439 203.399,39.142 203.399,38.691 C203.399,38.251 203.113,38.031 202.244,37.811 C201.144,37.514 200.649,37.052 200.649,36.282 C200.649,35.402 201.364,34.808 202.431,34.808 C203.509,34.808 204.158,35.358 204.202,36.315 Z"/>
      <path fill="#C41261" d="M1,71 L354,71 L354,1 L1,1 L1,71 Z M1,72 L0,72 L0,1 L0,0 L355,0 L355,1 L355,72 L354,72 L1,72 Z" transform="translate(0 52)"/>
      <g fill="#C41261" transform="translate(174 52)">
        <rect width="1" height="6" x="4" y="1"/>
        <rect width="9" height="1"/>
        <rect width="9" height="1" y="7"/>
      </g>
      <path fill="#C41261" d="M1,57 L336,57 L336,1 L1,1 L1,57 Z M1,58 L0,58 L0,1 L0,0 L337,0 L337,1 L337,58 L336,58 L1,58 Z" transform="translate(9 59)"/>
      <path fill="#C41261" fill-rule="nonzero" d="M62.1375,148.031 L63.0175,148.031 C63.0615,148.867 63.5125,149.307 64.3155,149.307 C65.1405,149.307 65.7235,148.801 65.7235,148.064 C65.7235,147.426 65.3935,147.129 64.2385,146.744 C63.3695,146.447 63.0835,146.304 62.7535,146.007 C62.3795,145.666 62.1815,145.182 62.1815,144.621 C62.1815,143.378 63.0725,142.531 64.3705,142.531 C65.6685,142.531 66.5155,143.356 66.5485,144.632 L65.6245,144.632 C65.6135,144.258 65.5695,144.082 65.4485,143.873 C65.2395,143.554 64.8325,143.356 64.3595,143.356 C63.6335,143.356 63.1165,143.851 63.1165,144.555 C63.1165,144.907 63.2705,145.215 63.5345,145.402 C63.7655,145.567 63.9635,145.655 64.7115,145.919 C65.4925,146.194 65.8665,146.392 66.1635,146.711 C66.4825,147.052 66.6585,147.514 66.6585,148.009 C66.6585,149.274 65.7235,150.132 64.3485,150.132 C63.4135,150.132 62.7755,149.802 62.3905,149.142 C62.2145,148.845 62.1375,148.537 62.1375,148.185 L62.1375,148.031 Z M68.8365,145.666 L68.8365,148.966 C68.8475,149.219 68.9135,149.274 69.2215,149.274 L69.6065,149.274 L69.6065,150 L68.8255,150 C68.2315,149.989 68.0005,149.769 68.0005,149.208 L68.0005,145.666 L67.2965,145.666 L67.2965,144.929 L68.0005,144.929 L68.0005,143.334 L68.8365,143.334 L68.8365,144.929 L69.6065,144.929 L69.6065,145.666 L68.8365,145.666 Z M70.7945,144.929 L71.6305,144.929 L71.6305,145.787 C71.7845,145.424 71.8945,145.27 72.0925,145.116 C72.3455,144.918 72.6975,144.808 73.0605,144.808 L73.2585,144.808 L73.2585,145.655 C73.1705,145.644 73.0825,145.644 73.0275,145.644 C72.5765,145.644 72.1805,145.853 71.9275,146.227 C71.7075,146.546 71.6305,146.843 71.6305,147.426 L71.6305,150 L70.7945,150 L70.7945,144.929 Z M79.0005,147.734 L74.7765,147.734 C74.8205,148.163 74.8975,148.383 75.1065,148.658 C75.4365,149.109 75.9205,149.351 76.4705,149.351 C77.0975,149.351 77.6915,149.01 77.9885,148.482 L78.7255,148.757 C78.3075,149.604 77.4385,150.121 76.4705,150.121 C74.9635,150.121 73.8855,149.021 73.8855,147.481 C73.8855,145.919 74.9525,144.808 76.4375,144.808 C77.9115,144.808 79.0115,145.919 79.0115,147.404 C79.0115,147.47 79.0115,147.613 79.0005,147.734 Z M74.7875,147.118 L78.1205,147.118 C78.0875,146.722 78.0105,146.502 77.8345,146.249 C77.5155,145.82 76.9985,145.556 76.4375,145.556 C75.8765,145.556 75.3705,145.82 75.0735,146.26 C74.9195,146.502 74.8535,146.711 74.7875,147.118 Z M81.1125,145.666 L81.1125,148.966 C81.1235,149.219 81.1895,149.274 81.4975,149.274 L81.8825,149.274 L81.8825,150 L81.1015,150 C80.5075,149.989 80.2765,149.769 80.2765,149.208 L80.2765,145.666 L79.5725,145.666 L79.5725,144.929 L80.2765,144.929 L80.2765,143.334 L81.1125,143.334 L81.1125,144.929 L81.8825,144.929 L81.8825,145.666 L81.1125,145.666 Z M86.5025,148.801 L87.0195,149.373 C86.4475,149.89 85.8865,150.121 85.1495,150.121 C83.6975,150.121 82.6635,149.021 82.6635,147.481 C82.6635,145.908 83.7085,144.808 85.1935,144.808 C85.9195,144.808 86.5135,145.05 87.0415,145.567 L86.5025,146.106 C86.1175,145.754 85.6885,145.578 85.2155,145.578 C84.2145,145.578 83.5215,146.348 83.5215,147.448 C83.5215,148.57 84.2145,149.351 85.2045,149.351 C85.6995,149.351 86.0955,149.186 86.5025,148.801 Z M88.9335,142.663 L88.9335,145.633 C89.3955,145.061 89.8575,144.808 90.4625,144.808 C90.9025,144.808 91.3645,144.984 91.6395,145.27 C91.9145,145.545 92.0355,145.941 92.0355,146.59 L92.0355,150 L91.1995,150 L91.1995,146.634 C91.1995,145.941 90.8585,145.556 90.2535,145.556 C89.8685,145.556 89.5275,145.71 89.2635,146.007 C89.0105,146.293 88.9335,146.546 88.9335,147.03 L88.9335,150 L88.0975,150 L88.0975,142.663 L88.9335,142.663 Z M97.8765,145.666 L97.8765,148.966 C97.8875,149.219 97.9535,149.274 98.2615,149.274 L98.6465,149.274 L98.6465,150 L97.8655,150 C97.2715,149.989 97.0405,149.769 97.0405,149.208 L97.0405,145.666 L96.3365,145.666 L96.3365,144.929 L97.0405,144.929 L97.0405,143.334 L97.8765,143.334 L97.8765,144.929 L98.6465,144.929 L98.6465,145.666 L97.8765,145.666 Z M102.0235,144.808 C103.5195,144.808 104.5865,145.919 104.5865,147.481 C104.5865,148.966 103.4425,150.121 101.9905,150.121 C100.4835,150.121 99.4275,149.021 99.4275,147.459 C99.4275,145.886 100.4835,144.808 102.0235,144.808 Z M102.0235,145.578 C100.9785,145.578 100.2855,146.337 100.2855,147.47 C100.2855,148.592 100.9785,149.351 102.0125,149.351 C103.0135,149.351 103.7285,148.57 103.7285,147.47 C103.7285,146.337 103.0465,145.578 102.0235,145.578 Z M115.0145,144.929 L115.8725,144.929 L114.0685,150 L113.3095,150 L112.1435,146.15 L110.9225,150 L110.1305,150 L108.3925,144.929 L109.2505,144.929 L110.5485,148.658 L111.7145,144.929 L112.5395,144.929 L113.6835,148.658 L115.0145,144.929 Z M117.6105,144.929 L117.6105,150 L116.7745,150 L116.7745,144.929 L117.6105,144.929 Z M117.2035,142.96 C117.5005,142.96 117.7315,143.202 117.7315,143.51 C117.7315,143.807 117.4895,144.038 117.1925,144.038 C116.8955,144.038 116.6645,143.807 116.6645,143.499 C116.6645,143.191 116.8955,142.96 117.2035,142.96 Z M123.0885,145.699 L123.0885,142.663 L123.9245,142.663 L123.9245,150 L123.0885,150 L123.0885,149.131 C122.5825,149.824 122.0435,150.121 121.2735,150.121 C119.8765,150.121 118.8865,149.032 118.8865,147.492 C118.8865,145.952 119.8985,144.808 121.2735,144.808 C122.0215,144.808 122.5935,145.083 123.0885,145.699 Z M121.4495,145.556 C120.4485,145.556 119.7665,146.348 119.7665,147.503 C119.7665,148.614 120.4375,149.395 121.3945,149.395 C122.3735,149.395 123.0885,148.581 123.0885,147.481 C123.0885,146.337 122.4175,145.556 121.4495,145.556 Z M126.4985,145.666 L126.4985,148.966 C126.5095,149.219 126.5755,149.274 126.8835,149.274 L127.2685,149.274 L127.2685,150 L126.4875,150 C125.8935,149.989 125.6625,149.769 125.6625,149.208 L125.6625,145.666 L124.9585,145.666 L124.9585,144.929 L125.6625,144.929 L125.6625,143.334 L126.4985,143.334 L126.4985,144.929 L127.2685,144.929 L127.2685,145.666 L126.4985,145.666 Z M129.2925,142.663 L129.2925,145.633 C129.7545,145.061 130.2165,144.808 130.8215,144.808 C131.2615,144.808 131.7235,144.984 131.9985,145.27 C132.2735,145.545 132.3945,145.941 132.3945,146.59 L132.3945,150 L131.5585,150 L131.5585,146.634 C131.5585,145.941 131.2175,145.556 130.6125,145.556 C130.2275,145.556 129.8865,145.71 129.6225,146.007 C129.3695,146.293 129.2925,146.546 129.2925,147.03 L129.2925,150 L128.4565,150 L128.4565,142.663 L129.2925,142.663 Z M139.5335,144.808 C141.0295,144.808 142.0965,145.919 142.0965,147.481 C142.0965,148.966 140.9525,150.121 139.5005,150.121 C137.9935,150.121 136.9375,149.021 136.9375,147.459 C136.9375,145.886 137.9935,144.808 139.5335,144.808 Z M139.5335,145.578 C138.4885,145.578 137.7955,146.337 137.7955,147.47 C137.7955,148.592 138.4885,149.351 139.5225,149.351 C140.5235,149.351 141.2385,148.57 141.2385,147.47 C141.2385,146.337 140.5565,145.578 139.5335,145.578 Z M144.2965,145.666 L144.2965,150 L143.4605,150 L143.4605,145.666 L142.7675,145.666 L142.7675,144.929 L143.4605,144.929 L143.4605,144.247 C143.4605,143.246 143.9775,142.652 144.8575,142.652 C144.9015,142.652 145.0005,142.652 145.0885,142.663 L145.0885,143.411 C144.4835,143.477 144.3185,143.653 144.2965,144.247 L144.2965,144.929 L145.0885,144.929 L145.0885,145.666 L144.2965,145.666 Z M150.3575,150 L149.5215,150 L149.5215,142.663 L150.3575,142.663 L150.3575,150 Z M156.7485,147.734 L152.5245,147.734 C152.5685,148.163 152.6455,148.383 152.8545,148.658 C153.1845,149.109 153.6685,149.351 154.2185,149.351 C154.8455,149.351 155.4395,149.01 155.7365,148.482 L156.4735,148.757 C156.0555,149.604 155.1865,150.121 154.2185,150.121 C152.7115,150.121 151.6335,149.021 151.6335,147.481 C151.6335,145.919 152.7005,144.808 154.1855,144.808 C155.6595,144.808 156.7595,145.919 156.7595,147.404 C156.7595,147.47 156.7595,147.613 156.7485,147.734 Z M152.5355,147.118 L155.8685,147.118 C155.8355,146.722 155.7585,146.502 155.5825,146.249 C155.2635,145.82 154.7465,145.556 154.1855,145.556 C153.6245,145.556 153.1185,145.82 152.8215,146.26 C152.6675,146.502 152.6015,146.711 152.5355,147.118 Z M158.8935,145.666 L158.8935,150 L158.0575,150 L158.0575,145.666 L157.3645,145.666 L157.3645,144.929 L158.0575,144.929 L158.0575,144.247 C158.0575,143.246 158.5745,142.652 159.4545,142.652 C159.4985,142.652 159.5975,142.652 159.6855,142.663 L159.6855,143.411 C159.0805,143.477 158.9155,143.653 158.8935,144.247 L158.8935,144.929 L159.6855,144.929 L159.6855,145.666 L158.8935,145.666 Z M161.7095,145.666 L161.7095,148.966 C161.7205,149.219 161.7865,149.274 162.0945,149.274 L162.4795,149.274 L162.4795,150 L161.6985,150 C161.1045,149.989 160.8735,149.769 160.8735,149.208 L160.8735,145.666 L160.1695,145.666 L160.1695,144.929 L160.8735,144.929 L160.8735,143.334 L161.7095,143.334 L161.7095,144.929 L162.4795,144.929 L162.4795,145.666 L161.7095,145.666 Z M166.9675,144.929 L167.8035,144.929 L167.8035,145.853 C168.2875,145.105 168.8045,144.808 169.6515,144.808 C171.0595,144.808 172.0385,145.886 172.0385,147.426 C172.0385,149.021 171.0595,150.121 169.6515,150.121 C169.2555,150.121 168.8925,150.033 168.5405,149.857 C168.2325,149.703 168.0785,149.571 167.8035,149.208 L167.8035,152.376 L166.9675,152.376 L166.9675,144.929 Z M169.5085,145.556 C168.4965,145.556 167.8035,146.359 167.8035,147.547 C167.8035,148.658 168.4745,149.395 169.4755,149.395 C170.4765,149.395 171.1475,148.614 171.1475,147.459 C171.1475,146.865 171.0045,146.414 170.7075,146.084 C170.4105,145.754 169.9595,145.556 169.5085,145.556 Z M177.1315,145.765 L177.1315,144.929 L177.9675,144.929 L177.9675,150 L177.1315,150 L177.1315,149.021 C176.6255,149.78 176.0535,150.121 175.2835,150.121 C173.8865,150.121 172.8965,149.021 172.8965,147.481 C172.8965,145.93 173.9085,144.808 175.3055,144.808 C176.0755,144.808 176.6365,145.105 177.1315,145.765 Z M175.4265,145.556 C174.8765,145.556 174.4915,145.743 174.1945,146.161 C173.9305,146.524 173.7765,147.008 173.7765,147.503 C173.7765,148.581 174.4805,149.395 175.4045,149.395 C176.3615,149.395 177.1425,148.504 177.1425,147.415 C177.1425,146.315 176.4385,145.556 175.4265,145.556 Z M179.6505,144.929 L180.4865,144.929 L180.4865,145.644 C180.9265,145.05 181.3665,144.808 181.9935,144.808 C182.4555,144.808 182.8735,144.962 183.1705,145.226 C183.4895,145.534 183.5995,145.886 183.5995,146.579 L183.5995,150 L182.7635,150 L182.7635,146.766 C182.7635,146.315 182.7085,146.073 182.5765,145.897 C182.4225,145.688 182.1255,145.556 181.7845,145.556 C181.4105,145.556 181.0695,145.699 180.8165,145.985 C180.5745,146.249 180.4865,146.491 180.4865,146.909 L180.4865,150 L179.6505,150 L179.6505,144.929 Z M189.9575,147.734 L185.7335,147.734 C185.7775,148.163 185.8545,148.383 186.0635,148.658 C186.3935,149.109 186.8775,149.351 187.4275,149.351 C188.0545,149.351 188.6485,149.01 188.9455,148.482 L189.6825,148.757 C189.2645,149.604 188.3955,150.121 187.4275,150.121 C185.9205,150.121 184.8425,149.021 184.8425,147.481 C184.8425,145.919 185.9095,144.808 187.3945,144.808 C188.8685,144.808 189.9685,145.919 189.9685,147.404 C189.9685,147.47 189.9685,147.613 189.9575,147.734 Z M185.7445,147.118 L189.0775,147.118 C189.0445,146.722 188.9675,146.502 188.7915,146.249 C188.4725,145.82 187.9555,145.556 187.3945,145.556 C186.8335,145.556 186.3275,145.82 186.0305,146.26 C185.8765,146.502 185.8105,146.711 185.7445,147.118 Z M192.2015,149.142 L191.0905,151.749 L190.4855,151.562 L191.4095,148.889 L192.2015,149.142 Z M191.6735,145.831 C192.0035,145.831 192.2455,146.073 192.2455,146.414 C192.2455,146.733 191.9925,146.975 191.6735,146.975 C191.3435,146.975 191.1015,146.733 191.1015,146.403 C191.1015,146.073 191.3435,145.831 191.6735,145.831 Z M197.8555,142.663 L197.8555,145.633 C198.3175,145.061 198.7795,144.808 199.3845,144.808 C199.8245,144.808 200.2865,144.984 200.5615,145.27 C200.8365,145.545 200.9575,145.941 200.9575,146.59 L200.9575,150 L200.1215,150 L200.1215,146.634 C200.1215,145.941 199.7805,145.556 199.1755,145.556 C198.7905,145.556 198.4495,145.71 198.1855,146.007 C197.9325,146.293 197.8555,146.546 197.8555,147.03 L197.8555,150 L197.0195,150 L197.0195,142.663 L197.8555,142.663 Z M204.7965,144.808 C206.2925,144.808 207.3595,145.919 207.3595,147.481 C207.3595,148.966 206.2155,150.121 204.7635,150.121 C203.2565,150.121 202.2005,149.021 202.2005,147.459 C202.2005,145.886 203.2565,144.808 204.7965,144.808 Z M204.7965,145.578 C203.7515,145.578 203.0585,146.337 203.0585,147.47 C203.0585,148.592 203.7515,149.351 204.7855,149.351 C205.7865,149.351 206.5015,148.57 206.5015,147.47 C206.5015,146.337 205.8195,145.578 204.7965,145.578 Z M208.6355,144.929 L209.4715,144.929 L209.4715,145.787 C209.6255,145.424 209.7355,145.27 209.9335,145.116 C210.1865,144.918 210.5385,144.808 210.9015,144.808 L211.0995,144.808 L211.0995,145.655 C211.0115,145.644 210.9235,145.644 210.8685,145.644 C210.4175,145.644 210.0215,145.853 209.7685,146.227 C209.5485,146.546 209.4715,146.843 209.4715,147.426 L209.4715,150 L208.6355,150 L208.6355,144.929 Z M212.9695,144.929 L212.9695,150 L212.1335,150 L212.1335,144.929 L212.9695,144.929 Z M212.5625,142.96 C212.8595,142.96 213.0905,143.202 213.0905,143.51 C213.0905,143.807 212.8485,144.038 212.5515,144.038 C212.2545,144.038 212.0235,143.807 212.0235,143.499 C212.0235,143.191 212.2545,142.96 212.5625,142.96 Z M215.4665,149.263 L217.7985,149.263 L217.7985,150 L214.0585,150 L216.6985,145.666 L214.3445,145.666 L214.3445,144.929 L218.0735,144.929 L215.4665,149.263 Z M221.2525,144.808 C222.7485,144.808 223.8155,145.919 223.8155,147.481 C223.8155,148.966 222.6715,150.121 221.2195,150.121 C219.7125,150.121 218.6565,149.021 218.6565,147.459 C218.6565,145.886 219.7125,144.808 221.2525,144.808 Z M221.2525,145.578 C220.2075,145.578 219.5145,146.337 219.5145,147.47 C219.5145,148.592 220.2075,149.351 221.2415,149.351 C222.2425,149.351 222.9575,148.57 222.9575,147.47 C222.9575,146.337 222.2755,145.578 221.2525,145.578 Z M225.0915,144.929 L225.9275,144.929 L225.9275,145.644 C226.3675,145.05 226.8075,144.808 227.4345,144.808 C227.8965,144.808 228.3145,144.962 228.6115,145.226 C228.9305,145.534 229.0405,145.886 229.0405,146.579 L229.0405,150 L228.2045,150 L228.2045,146.766 C228.2045,146.315 228.1495,146.073 228.0175,145.897 C227.8635,145.688 227.5665,145.556 227.2255,145.556 C226.8515,145.556 226.5105,145.699 226.2575,145.985 C226.0155,146.249 225.9275,146.491 225.9275,146.909 L225.9275,150 L225.0915,150 L225.0915,144.929 Z M231.5815,145.666 L231.5815,148.966 C231.5925,149.219 231.6585,149.274 231.9665,149.274 L232.3515,149.274 L232.3515,150 L231.5705,150 C230.9765,149.989 230.7455,149.769 230.7455,149.208 L230.7455,145.666 L230.0415,145.666 L230.0415,144.929 L230.7455,144.929 L230.7455,143.334 L231.5815,143.334 L231.5815,144.929 L232.3515,144.929 L232.3515,145.666 L231.5815,145.666 Z M237.3675,145.765 L237.3675,144.929 L238.2035,144.929 L238.2035,150 L237.3675,150 L237.3675,149.021 C236.8615,149.78 236.2895,150.121 235.5195,150.121 C234.1225,150.121 233.1325,149.021 233.1325,147.481 C233.1325,145.93 234.1445,144.808 235.5415,144.808 C236.3115,144.808 236.8725,145.105 237.3675,145.765 Z M235.6625,145.556 C235.1125,145.556 234.7275,145.743 234.4305,146.161 C234.1665,146.524 234.0125,147.008 234.0125,147.503 C234.0125,148.581 234.7165,149.395 235.6405,149.395 C236.5975,149.395 237.3785,148.504 237.3785,147.415 C237.3785,146.315 236.6745,145.556 235.6625,145.556 Z M240.7225,150 L239.8865,150 L239.8865,142.663 L240.7225,142.663 L240.7225,150 Z M243.2415,150 L242.4055,150 L242.4055,142.663 L243.2415,142.663 L243.2415,150 Z M246.4095,148.691 L247.9275,144.929 L248.8405,144.929 L245.8155,152.442 L244.9025,152.442 L245.9585,149.846 L244.1545,144.929 L245.0455,144.929 L246.4095,148.691 Z M256.4745,148.801 L256.9915,149.373 C256.4195,149.89 255.8585,150.121 255.1215,150.121 C253.6695,150.121 252.6355,149.021 252.6355,147.481 C252.6355,145.908 253.6805,144.808 255.1655,144.808 C255.8915,144.808 256.4855,145.05 257.0135,145.567 L256.4745,146.106 C256.0895,145.754 255.6605,145.578 255.1875,145.578 C254.1865,145.578 253.4935,146.348 253.4935,147.448 C253.4935,148.57 254.1865,149.351 255.1765,149.351 C255.6715,149.351 256.0675,149.186 256.4745,148.801 Z M262.7775,147.734 L258.5535,147.734 C258.5975,148.163 258.6745,148.383 258.8835,148.658 C259.2135,149.109 259.6975,149.351 260.2475,149.351 C260.8745,149.351 261.4685,149.01 261.7655,148.482 L262.5025,148.757 C262.0845,149.604 261.2155,150.121 260.2475,150.121 C258.7405,150.121 257.6625,149.021 257.6625,147.481 C257.6625,145.919 258.7295,144.808 260.2145,144.808 C261.6885,144.808 262.7885,145.919 262.7885,147.404 C262.7885,147.47 262.7885,147.613 262.7775,147.734 Z M258.5645,147.118 L261.8975,147.118 C261.8645,146.722 261.7875,146.502 261.6115,146.249 C261.2925,145.82 260.7755,145.556 260.2145,145.556 C259.6535,145.556 259.1475,145.82 258.8505,146.26 C258.6965,146.502 258.6305,146.711 258.5645,147.118 Z M263.9985,144.929 L264.8345,144.929 L264.8345,145.644 C265.2745,145.05 265.7145,144.808 266.3415,144.808 C266.8035,144.808 267.2215,144.962 267.5185,145.226 C267.8375,145.534 267.9475,145.886 267.9475,146.579 L267.9475,150 L267.1115,150 L267.1115,146.766 C267.1115,146.315 267.0565,146.073 266.9245,145.897 C266.7705,145.688 266.4735,145.556 266.1325,145.556 C265.7585,145.556 265.4175,145.699 265.1645,145.985 C264.9225,146.249 264.8345,146.491 264.8345,146.909 L264.8345,150 L263.9985,150 L263.9985,144.929 Z M270.4885,145.666 L270.4885,148.966 C270.4995,149.219 270.5655,149.274 270.8735,149.274 L271.2585,149.274 L271.2585,150 L270.4775,150 C269.8835,149.989 269.6525,149.769 269.6525,149.208 L269.6525,145.666 L268.9485,145.666 L268.9485,144.929 L269.6525,144.929 L269.6525,143.334 L270.4885,143.334 L270.4885,144.929 L271.2585,144.929 L271.2585,145.666 L270.4885,145.666 Z M277.1545,147.734 L272.9305,147.734 C272.9745,148.163 273.0515,148.383 273.2605,148.658 C273.5905,149.109 274.0745,149.351 274.6245,149.351 C275.2515,149.351 275.8455,149.01 276.1425,148.482 L276.8795,148.757 C276.4615,149.604 275.5925,150.121 274.6245,150.121 C273.1175,150.121 272.0395,149.021 272.0395,147.481 C272.0395,145.919 273.1065,144.808 274.5915,144.808 C276.0655,144.808 277.1655,145.919 277.1655,147.404 C277.1655,147.47 277.1655,147.613 277.1545,147.734 Z M272.9415,147.118 L276.2745,147.118 C276.2415,146.722 276.1645,146.502 275.9885,146.249 C275.6695,145.82 275.1525,145.556 274.5915,145.556 C274.0305,145.556 273.5245,145.82 273.2275,146.26 C273.0735,146.502 273.0075,146.711 272.9415,147.118 Z M278.3755,144.929 L279.2115,144.929 L279.2115,145.787 C279.3655,145.424 279.4755,145.27 279.6735,145.116 C279.9265,144.918 280.2785,144.808 280.6415,144.808 L280.8395,144.808 L280.8395,145.655 C280.7515,145.644 280.6635,145.644 280.6085,145.644 C280.1575,145.644 279.7615,145.853 279.5085,146.227 C279.2885,146.546 279.2115,146.843 279.2115,147.426 L279.2115,150 L278.3755,150 L278.3755,144.929 Z M286.5815,147.734 L282.3575,147.734 C282.4015,148.163 282.4785,148.383 282.6875,148.658 C283.0175,149.109 283.5015,149.351 284.0515,149.351 C284.6785,149.351 285.2725,149.01 285.5695,148.482 L286.3065,148.757 C285.8885,149.604 285.0195,150.121 284.0515,150.121 C282.5445,150.121 281.4665,149.021 281.4665,147.481 C281.4665,145.919 282.5335,144.808 284.0185,144.808 C285.4925,144.808 286.5925,145.919 286.5925,147.404 C286.5925,147.47 286.5925,147.613 286.5815,147.734 Z M282.3685,147.118 L285.7015,147.118 C285.6685,146.722 285.5915,146.502 285.4155,146.249 C285.0965,145.82 284.5795,145.556 284.0185,145.556 C283.4575,145.556 282.9515,145.82 282.6545,146.26 C282.5005,146.502 282.4345,146.711 282.3685,147.118 Z M291.5975,145.699 L291.5975,142.663 L292.4335,142.663 L292.4335,150 L291.5975,150 L291.5975,149.131 C291.0915,149.824 290.5525,150.121 289.7825,150.121 C288.3855,150.121 287.3955,149.032 287.3955,147.492 C287.3955,145.952 288.4075,144.808 289.7825,144.808 C290.5305,144.808 291.1025,145.083 291.5975,145.699 Z M289.9585,145.556 C288.9575,145.556 288.2755,146.348 288.2755,147.503 C288.2755,148.614 288.9465,149.395 289.9035,149.395 C290.8825,149.395 291.5975,148.581 291.5975,147.481 C291.5975,146.337 290.9265,145.556 289.9585,145.556 Z"/>
      <g fill="#C41261" transform="translate(1 134)">
        <rect width="345" height="1" x="5" y="2"/>
        <polygon points="352.5 0 355 5 350 5" transform="rotate(90 352.5 2.5)"/>
        <polygon points="2.5 0 5 5 0 5" transform="matrix(0 1 1 0 0 0)"/>
      </g>
    </g>
  </g>
</svg>
