<svg xmlns="http://www.w3.org/2000/svg" xmlns:xlink="http://www.w3.org/1999/xlink" width="375" height="112" viewBox="0 0 375 112">
  <defs>
    <rect id="2-b" width="375" height="48"/>
    <filter id="2-a" width="100.1%" height="102.1%" x="-.1%" y="-1.6%" filterUnits="objectBoundingBox">
      <feOffset dy="-.5" in="SourceAlpha" result="shadowOffsetOuter1"/>
      <feComposite in="shadowOffsetOuter1" in2="SourceAlpha" operator="out" result="shadowOffsetOuter1"/>
      <feColorMatrix in="shadowOffsetOuter1" values="0 0 0 0 0   0 0 0 0 0   0 0 0 0 0  0 0 0 0.2 0"/>
    </filter>
    <path id="2-c" d="M12,15 L12,15.5 C10.1086931,15.5 8.5,13.8914139 8.5,11.9994584 C8.5,10.1083874 10.1088918,8.5 12,8.5 C13.8911082,8.5 15.5,10.1083874 15.5,11.9994584 C15.5,13.8914139 13.8913069,15.5 12,15.5 L12,15 Z M14.5,11.9994584 C14.5,10.6607423 13.3388937,9.5 12,9.5 C10.6611063,9.5 9.5,10.6607423 9.5,11.9994584 C9.5,13.3391142 10.6609629,14.5 12,14.5 C13.3390371,14.5 14.5,13.3391142 14.5,11.9994584 Z M19.0606174,10.4703224 C17.9205476,10.3281283 17.3690987,8.99752677 18.0745815,8.08957943 L18.8318727,7.11651456 C19.261393,6.56383658 19.2123085,5.77774856 18.7170611,5.28250107 C18.222797,4.78762446 17.4368949,4.73873532 16.8835434,5.16891556 L15.9103794,5.92545049 C15.0034895,6.63108881 13.6727042,6.08027902 13.5305433,4.9404754 L13.3772079,3.71629172 C13.2901639,3.02116584 12.7000851,2.5 12,2.5 C11.2999149,2.5 10.7098361,3.02116584 10.62279,3.71630873 L10.4694891,4.9402159 C10.3272958,6.08027902 8.99651047,6.63108881 8.08978996,5.92558222 L7.11645383,5.16891338 C6.56310513,4.73873532 5.77720305,4.78762446 5.28272006,5.28272006 C4.78769155,5.77774856 4.73860701,6.56383658 5.16791847,7.1162461 L5.92565662,8.08988569 C6.63090129,8.99752677 6.07945241,10.3281283 4.93930951,10.4703315 L3.71551238,10.6227854 C3.0214033,10.7097787 2.5,11.3005186 2.5,12 C2.5,12.7002228 3.02131209,13.2910432 3.71514284,13.3780018 L4.93938256,13.5305109 C6.07945241,13.672705 6.63090129,15.0033066 5.92541847,15.9112539 L5.16812725,16.8843188 C4.73860701,17.4369968 4.78769155,18.2230848 5.28272006,18.7181133 C5.77735058,19.2127438 6.56345101,19.2618291 7.1162461,18.8320815 L8.08996185,18.0742842 C8.99699918,17.3697892 10.3273344,17.9208636 10.4694567,19.0603579 L10.6227921,20.2845416 C10.7098033,20.9794056 11.2996511,21.5 12,21.5 C12.7003489,21.5 13.2901967,20.9794056 13.37721,20.2845246 L13.5305109,19.0606174 C13.6726656,17.9208636 15.0030008,17.3697892 15.9104206,18.0745815 L16.8835462,18.83192 C17.436549,19.2618291 18.2226494,19.2127438 18.7172799,18.7181133 C19.2123085,18.2230848 19.261393,17.4369968 18.8320815,16.8845872 L18.0743434,15.9109476 C17.3690987,15.0033066 17.9205476,13.672705 19.0606905,13.5305018 L20.2844876,13.378048 C20.9786879,13.2910432 21.5,12.7002228 21.5,12 C21.5,11.3005759 20.9786822,10.7098756 20.2846584,10.6228068 L19.0606174,10.4703224 Z M22.5,12 C22.5,13.2043883 21.6033646,14.2205752 20.4084762,14.3703315 L19.1843826,14.5228224 C18.8139894,14.5690194 18.634521,15.002062 18.8637518,15.2970794 L19.6214606,16.2706812 C20.3603604,17.2214482 20.2759249,18.5736819 19.4243867,19.4252201 C18.5732284,20.2763784 17.2209037,20.3608196 16.2695794,19.6212518 L15.2966285,18.8640491 C15.0018151,18.6350678 14.5689722,18.8143675 14.52279,19.1846421 L14.3694588,20.4087917 C14.2197957,21.6039884 13.2045899,22.5 12,22.5 C10.7954101,22.5 9.78020428,21.6039884 9.63054333,20.4088087 L9.47717756,19.1843826 C9.43102778,18.8143675 8.99818488,18.6350678 8.7037539,18.8637518 L7.73021284,19.6214134 C6.77909628,20.3608196 5.4267716,20.2763784 4.57561328,19.4252201 C3.7240751,18.5736819 3.63963956,17.2214482 4.3787482,16.2704128 L5.13601004,15.2973857 C5.365479,15.002062 5.18601065,14.5690194 4.81569049,14.5228315 L3.59115429,14.3702854 C2.39663545,14.2205752 1.5,13.2043883 1.5,12 C1.5,10.7962868 2.39679235,9.78023852 3.59152382,9.63050179 L4.81561744,9.4780109 C5.18601065,9.43181395 5.365479,8.99877133 5.1362482,8.7037539 L4.37853941,7.73015211 C3.63963956,6.7793851 3.7240751,5.42715145 4.57539443,4.57583226 C5.42629673,3.72387555 6.7787477,3.63974273 7.73021004,4.37941778 L8.70371275,5.13621617 C8.9984227,5.36552585 9.43102706,5.18647164 9.47721,4.81619127 L9.6305412,3.59204161 C9.78021844,2.39673184 10.7955238,1.5 12,1.5 C13.2044762,1.5 14.2197816,2.39673184 14.3694567,3.5920246 L14.5228224,4.81645077 C14.5689729,5.18647164 15.0015773,5.36552585 15.2964566,5.13608444 L16.2697872,4.37941995 C17.2212523,3.63974273 18.5737033,3.72387555 19.4243867,4.57561328 C20.2759249,5.42715145 20.3603604,6.7793851 19.6212518,7.73042057 L18.86399,8.70344765 C18.634521,8.99877133 18.8139894,9.43181395 19.1843095,9.47800179 L20.4084762,9.63050179 C21.6032077,9.78023852 22.5,10.7962868 22.5,12 Z"/>
    <path id="2-d" d="M12.0001,11.014 C13.6541,11.014 15.0001,9.668 15.0001,8.014 C15.0001,6.36 13.6541,5.014 12.0001,5.014 C10.3461,5.014 9.0001,6.36 9.0001,8.014 C9.0001,9.668 10.3461,11.014 12.0001,11.014 Z M12.0001,4.014 C14.2061,4.014 16.0001,5.808 16.0001,8.014 C16.0001,10.22 14.2061,12.014 12.0001,12.014 C9.7941,12.014 8.0001,10.22 8.0001,8.014 C8.0001,5.808 9.7941,4.014 12.0001,4.014 Z M19.193,18.93 C20.926,17.13 22,14.69 22,11.999 C22,6.486 17.514,2 12,2 C6.486,2 2,6.486 2,11.999 C2,14.69 3.073,17.13 4.807,18.93 C5.711,15.803 8.582,13.514 12,13.514 C15.418,13.514 18.289,15.803 19.193,18.93 Z M12,1 C18.075,1 23,5.925 23,11.999 C23,18.075 18.075,22.999 12,22.999 C5.925,22.999 1,18.075 1,11.999 C1,5.925 5.925,1 12,1 Z M12.0494,14.3538 C8.9434,14.3538 6.2934,16.5548 5.6854,19.5518 C7.4804,21.0408 9.7204,21.8538 12.0494,21.8538 C14.3784,21.8538 16.6184,21.0408 18.4134,19.5518 C17.8054,16.5548 15.1554,14.3538 12.0494,14.3538 Z"/>
    <path id="2-e" d="M21.0000154,9.95921869 L21.0000154,20.0333192 C21.0000154,21.1404616 20.1021578,22.0383192 18.9950154,22.0383192 L16.0050154,22.0383192 C14.8978731,22.0383192 14.0000154,21.1404616 14.0000154,20.0333192 L14.0000154,17.0413192 C14.0000154,16.4874616 13.5508731,16.0383192 12.9970154,16.0383192 L11.0030154,16.0383192 C10.4491578,16.0383192 10.0000154,16.4874616 10.0000154,17.0413192 L10.0000154,20.0333192 C10.0000154,21.1404616 9.10215782,22.0383192 7.99501544,22.0383192 L5.00501544,22.0383192 C3.89787307,22.0383192 3.00001544,21.1404616 3.00001544,20.0333192 L3.00001544,9.95964705 L1.81613021,10.9257098 C1.6021803,11.1002952 1.28721023,11.0683839 1.11262487,10.854434 C0.938039506,10.6404841 0.969950772,10.325514 1.18390068,10.1509287 L10.3152218,2.70300627 C11.2455388,1.77142355 12.7544921,1.77142355 13.6471302,2.66892865 L22.8161302,10.1509287 C23.0300801,10.325514 23.0619914,10.6404841 22.887406,10.854434 C22.7128207,11.0683839 22.3978506,11.1002952 22.1839007,10.9257098 L21.0000154,9.95921869 Z M20.0000154,9.14284639 L12.9772218,3.40963219 C12.4375388,2.86921491 11.5624921,2.86921491 10.9851302,3.4437098 L4.00001544,9.14363658 L4.00001544,20.0333192 C4.00001544,20.5881769 4.45015782,21.0383192 5.00501544,21.0383192 L7.99501544,21.0383192 C8.54987307,21.0383192 9.00001544,20.5881769 9.00001544,20.0333192 L9.00001544,17.0413192 C9.00001544,15.9351769 9.89687307,15.0383192 11.0030154,15.0383192 L12.9970154,15.0383192 C14.1031578,15.0383192 15.0000154,15.9351769 15.0000154,17.0413192 L15.0000154,20.0333192 C15.0000154,20.5881769 15.4501578,21.0383192 16.0050154,21.0383192 L18.9950154,21.0383192 C19.5498731,21.0383192 20.0000154,20.5881769 20.0000154,20.0333192 L20.0000154,9.14284639 Z"/>
  </defs>
  <g fill="none" fill-rule="evenodd">
    <g transform="translate(0 64)">
      <rect width="375" height="48" fill="#FFF"/>
      <use fill="#000" filter="url(#2-a)" xlink:href="#2-b"/>
      <use fill="#FFF" fill-opacity="0" xlink:href="#2-b"/>
      <g transform="translate(311 12)">
        <path d="M22.5,12 C22.5,13.2043883 21.6033646,14.2205752 20.4084762,14.3703315 L19.1843826,14.5228224 C18.8139894,14.5690194 18.634521,15.002062 18.8637518,15.2970794 L19.6214606,16.2706812 C20.3603604,17.2214482 20.2759249,18.5736819 19.4243867,19.4252201 C18.5732284,20.2763784 17.2209037,20.3608196 16.2695794,19.6212518 L15.2966285,18.8640491 C15.0018151,18.6350678 14.5689722,18.8143675 14.52279,19.1846421 L14.3694588,20.4087917 C14.2197957,21.6039884 13.2045899,22.5 12,22.5 C10.7954101,22.5 9.78020428,21.6039884 9.63054333,20.4088087 L9.47717756,19.1843826 C9.43102778,18.8143675 8.99818488,18.6350678 8.7037539,18.8637518 L7.73021284,19.6214134 C6.77909628,20.3608196 5.4267716,20.2763784 4.57561328,19.4252201 C3.7240751,18.5736819 3.63963956,17.2214482 4.3787482,16.2704128 L5.13601004,15.2973857 C5.365479,15.002062 5.18601065,14.5690194 4.81569049,14.5228315 L3.59115429,14.3702854 C2.39663545,14.2205752 1.5,13.2043883 1.5,12 C1.5,10.7962868 2.39679235,9.78023852 3.59152382,9.63050179 L4.81561744,9.4780109 C5.18601065,9.43181395 5.365479,8.99877133 5.1362482,8.7037539 L4.37853941,7.73015211 C3.63963956,6.7793851 3.7240751,5.42715145 4.57539443,4.57583226 C5.42629673,3.72387555 6.7787477,3.63974273 7.73021004,4.37941778 L8.70371275,5.13621617 C8.9984227,5.36552585 9.43102706,5.18647164 9.47721,4.81619127 L9.6305412,3.59204161 C9.78021844,2.39673184 10.7955238,1.5 12,1.5 C13.2044762,1.5 14.2197816,2.39673184 14.3694567,3.5920246 L14.5228224,4.81645077 C14.5689729,5.18647164 15.0015773,5.36552585 15.2964566,5.13608444 L16.2697872,4.37941995 C17.2212523,3.63974273 18.5737033,3.72387555 19.4243867,4.57561328 C20.2759249,5.42715145 20.3603604,6.7793851 19.6212518,7.73042057 L18.86399,8.70344765 C18.634521,8.99877133 18.8139894,9.43181395 19.1843095,9.47800179 L20.4084762,9.63050179 C21.6032077,9.78023852 22.5,10.7962868 22.5,12 Z M12,15 L12,15.5 C13.8913069,15.5 15.5,13.8914139 15.5,11.9994584 C15.5,10.1083874 13.8911082,8.5 12,8.5 C10.1088918,8.5 8.5,10.1083874 8.5,11.9994584 C8.5,13.8914139 10.1086931,15.5 12,15.5 L12,15 Z"/>
        <use fill="#A9B6BE" xlink:href="#2-c"/>
      </g>
      <path fill="#A9B6BE" d="M19.5713488,18.0016621 L4.4271902,18.0016621 C4.19258357,18.0016621 4.08430359,17.8396621 4.04921285,17.7706621 C4.01412212,17.6996621 3.94694842,17.5186621 4.08530618,17.3286621 L5.11196083,15.9366621 L5.11196083,11.2163 C5.11196083,8.1383 7.1151405,5.4273 9.98456003,4.6253 C10.2051304,4.5633 10.3414829,4.3613 10.3424855,4.1433 L10.3505063,3.7753 C10.3505063,2.7973 11.1485698,2.0003 12.1301078,2.0003 C13.1106432,2.0003 13.9087068,2.7973 13.9087068,3.7753 L13.9087068,4.1433 C13.9187327,4.3613 14.0540827,4.5633 14.274653,4.6253 C17.1440726,5.4273 19.1482548,8.1383 19.1482548,11.2163 L19.1482548,15.8986621 L19.9453158,17.3786621 C20.0475802,17.5696621 19.9723858,17.7336621 19.9352899,17.7956621 C19.898194,17.8576621 19.7889114,18.0016621 19.5713488,18.0016621 Z M13.6349991,19.5016621 C13.6349991,20.3296621 12.9602544,21.0036621 12.1301078,21.0036621 C11.2999613,21.0036621 10.624214,20.3296621 10.624214,19.5016621 L10.624214,19.0016621 L13.6349991,19.0016621 L13.6349991,19.5016621 Z M20.1508473,15.6466621 L20.1508473,11.2163 C20.1508473,7.8283 18.0093098,4.8453 14.9112992,3.7983 C14.9112992,2.2453 13.6640742,1.0003 12.1301078,1.0003 C10.5961414,1.0003 9.34791384,2.2453 9.34791384,3.7753 C6.25090582,4.8453 4.1093684,7.8283 4.1093684,11.2163 L4.1093684,15.6076621 L3.27721668,16.7366621 C2.9573897,17.1716621 2.91127044,17.7406621 3.1549004,18.2216621 C3.39953296,18.7026621 3.88679288,19.0016621 4.4271902,19.0016621 L9.62162157,19.0016621 L9.62162157,19.5016621 C9.62162157,20.8816621 10.7465303,22.0036621 12.1301078,22.0036621 C13.5126828,22.0036621 14.6375915,20.8816621 14.6375915,19.5016621 L14.6375915,19.0016621 L19.5713488,19.0016621 C20.0786606,19.0016621 20.5358427,18.7426621 20.7955142,18.3096621 C21.0561882,17.8756621 21.0682193,17.3516621 20.8285997,16.9056621 L20.1508473,15.6466621 Z" transform="translate(221 12)"/>
      <g transform="translate(130 12)">
        <path d="M12,11 C10.346,11 9,9.654 9,8 C9,6.346 10.346,5 12,5 C13.654,5 15,6.346 15,8 C15,9.654 13.654,11 12,11 Z M18.3594,19.6826 C18.6494,19.4426 18.9344,19.1956 19.1964,18.9236 C18.2954,15.7936 15.4204,13.4996 12.0004,13.4996 C8.5804,13.4996 5.7054,15.7936 4.8034,18.9236 C5.0654,19.1956 5.3504,19.4426 5.6404,19.6826 C6.2554,16.6936 8.8994,14.4996 12.0004,14.4996 C15.1004,14.4996 17.7454,16.6936 18.3594,19.6826 Z M12.0004,3.9996 C9.7944,3.9996 8.0004,5.7936 8.0004,7.9996 C8.0004,10.2056 9.7944,11.9996 12.0004,11.9996 C14.2064,11.9996 16.0004,10.2056 16.0004,7.9996 C16.0004,5.7936 14.2064,3.9996 12.0004,3.9996 Z M12.0004,0.9996 C18.0754,0.9996 23.0004,5.9246 23.0004,11.9996 C23.0004,18.0756 18.0754,22.9996 12.0004,22.9996 C5.9244,22.9996 1.0004,18.0756 1.0004,11.9996 C1.0004,5.9246 5.9244,0.9996 12.0004,0.9996 Z"/>
        <use fill="#A9B6BE" xlink:href="#2-d"/>
      </g>
      <g transform="translate(40 12)">
        <path fill="#F3F6FA" d="M21.0084545,9.96610807 L21,20.0353752 C21,21.1403752 20.1,22.0403752 18.995,22.0403752 L16.005,22.0403752 C14.897,22.0403752 14,21.1423752 14,20.0353752 L14,17.0433752 C14,16.4913752 13.549,16.0403752 12.997,16.0403752 L11.003,16.0403752 C10.449,16.0403752 10,16.4893752 10,17.0433752 L10,20.0353752 C10,21.1423752 9.102,22.0403752 7.995,22.0403752 L5.005,22.0403752 C3.897,22.0403752 3,21.1423752 3,20.0353752 L3,9.95965965 L1.81613021,10.9257098 C1.6021803,11.1002952 1.28721023,11.0683839 1.11262487,10.854434 C0.938039506,10.6404841 0.969950772,10.325514 1.18390068,10.1509287 L10.3152218,2.70300627 C11.2455388,1.77142355 12.7544921,1.77142355 13.6471302,2.66892865 L22.8161302,10.1509287 C23.0300801,10.325514 23.0619914,10.6404841 22.887406,10.854434 C22.7128207,11.0683839 22.3978506,11.1002952 22.1839007,10.9257098 L21.0084545,9.96610807 Z"/>
        <use fill="#314351" xlink:href="#2-e"/>
      </g>
    </g>
    <g transform="translate(8)">
      <rect width="359" height="56" fill="#25333D" rx="14"/>
      <rect width="66" height="44" x="285" y="6"/>
      <path fill="#89CBDF" d="M304.198594,22.0219727 L304.198594,29.7084961 C304.198594,31.3852539 305.285996,32.5473633 307.186875,32.5473633 C309.096055,32.5473633 310.183457,31.3852539 310.183457,29.7084961 L310.183457,22.0219727 L312.042832,22.0219727 L312.042832,29.8745117 C312.042832,32.4726562 310.191758,34.2905273 307.186875,34.2905273 C304.181992,34.2905273 302.339219,32.4726562 302.339219,29.8745117 L302.339219,22.0219727 L304.198594,22.0219727 Z M314.455098,34 L314.455098,24.9604492 L316.173359,24.9604492 L316.173359,26.3964844 L316.306172,26.3964844 C316.746113,25.3920898 317.642598,24.7861328 319.003926,24.7861328 C321.021016,24.7861328 322.13332,25.9980469 322.13332,28.1479492 L322.13332,34 L320.348652,34 L320.348652,28.5961914 C320.348652,27.1435547 319.717793,26.4213867 318.397969,26.4213867 C317.078145,26.4213867 316.239766,27.3012695 316.239766,28.7124023 L316.239766,34 L314.455098,34 Z M327.533867,34.1494141 C325.234551,34.1494141 323.781914,32.3398438 323.781914,29.4760742 C323.781914,26.6206055 325.251152,24.8110352 327.533867,24.8110352 C328.770684,24.8110352 329.816582,25.4003906 330.306328,26.3964844 L330.439141,26.3964844 L330.439141,21.4326172 L332.223809,21.4326172 L332.223809,34 L330.513848,34 L330.513848,32.5722656 L330.372734,32.5722656 C329.833184,33.5600586 328.778984,34.1494141 327.533867,34.1494141 Z M328.040215,26.4130859 C326.537773,26.4130859 325.624687,27.5751953 325.624687,29.4760742 C325.624687,31.3935547 326.529473,32.5473633 328.040215,32.5473633 C329.542656,32.5473633 330.472344,31.3769531 330.472344,29.484375 C330.472344,27.6000977 329.534355,26.4130859 328.040215,26.4130859 Z M338.30502,34.1743164 C335.65707,34.1743164 334.038418,32.40625 334.038418,29.4760742 C334.038418,26.5625 335.665371,24.7861328 338.30502,24.7861328 C340.936367,24.7861328 342.56332,26.5625 342.56332,29.4760742 C342.56332,32.40625 340.944668,34.1743164 338.30502,34.1743164 Z M338.30502,32.5888672 C339.848965,32.5888672 340.728848,31.4433594 340.728848,29.4760742 C340.728848,27.5170898 339.848965,26.371582 338.30502,26.371582 C336.752773,26.371582 335.881191,27.5170898 335.881191,29.4760742 C335.881191,31.4516602 336.752773,32.5888672 338.30502,32.5888672 Z"/>
      <path fill="#FFF" d="M21.953125,33 L20.546875,33 L20.546875,28.1484375 L16.546875,21.7265625 L18.1484375,21.7265625 L21.1875,26.734375 L21.3125,26.734375 L24.3515625,21.7265625 L25.953125,21.7265625 L21.953125,28.1484375 L21.953125,33 Z M29.5784375,33.1484375 C27.18,33.1484375 25.695625,31.4921875 25.695625,28.7890625 C25.695625,26.078125 27.18,24.4296875 29.5784375,24.4296875 C31.976875,24.4296875 33.46125,26.078125 33.46125,28.7890625 C33.46125,31.4921875 31.976875,33.1484375 29.5784375,33.1484375 Z M29.5784375,31.9375 C31.1721875,31.9375 32.070625,30.78125 32.070625,28.7890625 C32.070625,26.7890625 31.1721875,25.640625 29.5784375,25.640625 C27.9846875,25.640625 27.08625,26.7890625 27.08625,28.7890625 C27.08625,30.78125 27.9846875,31.9375 29.5784375,31.9375 Z M42.063125,24.578125 L42.063125,33 L40.781875,33 L40.781875,31.6796875 L40.656875,31.6796875 C40.235,32.6171875 39.3365625,33.1484375 38.0475,33.1484375 C36.156875,33.1484375 35.1725,32.0234375 35.1725,30.03125 L35.1725,24.578125 L36.51625,24.578125 L36.51625,29.703125 C36.51625,31.21875 37.07875,31.921875 38.4225,31.921875 C39.906875,31.921875 40.719375,31.0390625 40.719375,29.5625 L40.719375,24.578125 L42.063125,24.578125 Z M44.274375,33 L44.274375,24.578125 L45.555625,24.578125 L45.555625,25.828125 L45.680625,25.828125 C45.930625,25.0078125 46.899375,24.4296875 48.0165625,24.4296875 C48.2353125,24.4296875 48.5165625,24.4453125 48.6884375,24.46875 L48.6884375,25.8125 C48.5790625,25.78125 48.0946875,25.734375 47.8290625,25.734375 C46.5478125,25.734375 45.618125,26.59375 45.618125,27.78125 L45.618125,33 L44.274375,33 Z M54.80625,33 L54.80625,25.703125 L53.4078125,25.703125 L53.4078125,24.578125 L54.80625,24.578125 L54.80625,23.640625 C54.80625,21.9609375 55.65,21.15625 57.2515625,21.15625 C57.5796875,21.15625 57.8765625,21.1796875 58.1578125,21.234375 L58.1578125,22.328125 C57.99375,22.296875 57.7671875,22.2890625 57.525,22.2890625 C56.55625,22.2890625 56.15,22.7578125 56.15,23.6796875 L56.15,24.578125 L58.0796875,24.578125 L58.0796875,25.703125 L56.15,25.703125 L56.15,33 L54.80625,33 Z M59.7440625,33 L59.7440625,24.578125 L61.0878125,24.578125 L61.0878125,33 L59.7440625,33 Z M60.4159375,22.8671875 C59.9003125,22.8671875 59.4784375,22.4453125 59.4784375,21.9296875 C59.4784375,21.4140625 59.9003125,20.9921875 60.4159375,20.9921875 C60.9315625,20.9921875 61.3534375,21.4140625 61.3534375,21.9296875 C61.3534375,22.4453125 60.9315625,22.8671875 60.4159375,22.8671875 Z M63.4084376,33 L63.4084376,21.234375 L64.7521876,21.234375 L64.7521876,33 L63.4084376,33 Z M70.4009376,25.6171875 C69.0571876,25.6171875 68.1196876,26.6015625 68.0181251,28.09375 L72.6587501,28.09375 C72.6275001,26.6015625 71.7368751,25.6171875 70.4009376,25.6171875 Z M72.6196876,30.8203125 L73.9634376,30.8203125 C73.5571876,32.265625 72.2603126,33.1484375 70.4165626,33.1484375 C68.0806251,33.1484375 66.6196876,31.4609375 66.6196876,28.796875 C66.6196876,26.1484375 68.1040626,24.4296875 70.4165626,24.4296875 C72.6900001,24.4296875 74.0728126,26.046875 74.0728126,28.6640625 L74.0728126,29.1796875 L68.0181251,29.1796875 L68.0181251,29.2421875 C68.0884376,30.90625 69.0181251,31.9609375 70.4478126,31.9609375 C71.5337501,31.9609375 72.2681251,31.5625 72.6196876,30.8203125 Z M80.1359376,33 L80.1359376,21.234375 L81.4796876,21.234375 L81.4796876,25.90625 L81.6046876,25.90625 C82.0265626,24.9765625 82.9093751,24.4296875 84.1984376,24.4296875 C85.9796876,24.4296875 87.1046876,25.5703125 87.1046876,27.546875 L87.1046876,33 L85.7609376,33 L85.7609376,27.875 C85.7609376,26.3828125 85.0890626,25.640625 83.8156251,25.640625 C82.3078126,25.640625 81.4796876,26.59375 81.4796876,28.015625 L81.4796876,33 L80.1359376,33 Z M91.8315626,31.96875 C93.2143751,31.96875 94.2378126,31.0625 94.2378126,29.859375 L94.2378126,29.0859375 L91.9721876,29.234375 C90.6909376,29.3203125 90.1284376,29.765625 90.1284376,30.609375 C90.1284376,31.46875 90.8550001,31.96875 91.8315626,31.96875 Z M91.5815626,33.1484375 C89.9487501,33.1484375 88.7378126,32.1796875 88.7378126,30.640625 C88.7378126,29.1328125 89.8471876,28.265625 91.8081251,28.1484375 L94.2378126,28 L94.2378126,27.234375 C94.2378126,26.1953125 93.5893751,25.625 92.3315626,25.625 C91.3237501,25.625 90.6206251,26.0078125 90.4331251,26.671875 L89.0737501,26.671875 C89.2534376,25.3203125 90.5815626,24.4296875 92.3784376,24.4296875 C94.4331251,24.4296875 95.5815626,25.484375 95.5815626,27.234375 L95.5815626,33 L94.3003126,33 L94.3003126,31.7578125 L94.1753126,31.7578125 C93.6284376,32.65625 92.7065626,33.1484375 91.5815626,33.1484375 Z M97.5506251,26.8828125 C97.5506251,25.484375 98.9021876,24.4296875 100.69125,24.4296875 C102.456875,24.4296875 103.683438,25.3046875 103.863125,26.6875 L102.535,26.6875 C102.355313,26.015625 101.699063,25.5703125 100.683438,25.5703125 C99.6834376,25.5703125 98.9021876,26.078125 98.9021876,26.828125 C98.9021876,27.40625 99.3709376,27.765625 100.363125,28.0078125 L101.66,28.3203125 C103.245938,28.703125 104.011563,29.390625 104.011563,30.6015625 C104.011563,32.109375 102.550625,33.1484375 100.636563,33.1484375 C98.7615626,33.1484375 97.4725001,32.25 97.3240626,30.8515625 L98.7068751,30.8515625 C98.9334376,31.5625 99.6053126,32.015625 100.683438,32.015625 C101.81625,32.015625 102.62875,31.4765625 102.62875,30.703125 C102.62875,30.125 102.19125,29.734375 101.292813,29.515625 L99.8475001,29.1640625 C98.2693751,28.78125 97.5506251,28.1015625 97.5506251,26.8828125 Z M114.184063,33.1484375 C113.012188,33.1484375 112.012188,32.59375 111.480938,31.65625 L111.355938,31.65625 L111.355938,33 L110.074688,33 L110.074688,21.234375 L111.418438,21.234375 L111.418438,25.90625 L111.543438,25.90625 C112.004375,25 113.027813,24.4296875 114.184063,24.4296875 C116.324688,24.4296875 117.715313,26.140625 117.715313,28.7890625 C117.715313,31.421875 116.316875,33.1484375 114.184063,33.1484375 Z M113.871563,25.640625 C112.340313,25.640625 111.387188,26.84375 111.387188,28.7890625 C111.387188,30.734375 112.340313,31.9375 113.871563,31.9375 C115.410625,31.9375 116.324688,30.7578125 116.324688,28.7890625 C116.324688,26.8203125 115.410625,25.640625 113.871563,25.640625 Z M122.864063,25.6171875 C121.520313,25.6171875 120.582813,26.6015625 120.48125,28.09375 L125.121875,28.09375 C125.090625,26.6015625 124.2,25.6171875 122.864063,25.6171875 Z M125.082813,30.8203125 L126.426563,30.8203125 C126.020313,32.265625 124.723438,33.1484375 122.879688,33.1484375 C120.54375,33.1484375 119.082813,31.4609375 119.082813,28.796875 C119.082813,26.1484375 120.567188,24.4296875 122.879688,24.4296875 C125.153125,24.4296875 126.535938,26.046875 126.535938,28.6640625 L126.535938,29.1796875 L120.48125,29.1796875 L120.48125,29.2421875 C120.551563,30.90625 121.48125,31.9609375 122.910938,31.9609375 C123.996875,31.9609375 124.73125,31.5625 125.082813,30.8203125 Z M131.684688,25.6171875 C130.340938,25.6171875 129.403438,26.6015625 129.301875,28.09375 L133.9425,28.09375 C133.91125,26.6015625 133.020625,25.6171875 131.684688,25.6171875 Z M133.903438,30.8203125 L135.247188,30.8203125 C134.840938,32.265625 133.544063,33.1484375 131.700313,33.1484375 C129.364375,33.1484375 127.903438,31.4609375 127.903438,28.796875 C127.903438,26.1484375 129.387813,24.4296875 131.700313,24.4296875 C133.97375,24.4296875 135.356563,26.046875 135.356563,28.6640625 L135.356563,29.1796875 L129.301875,29.1796875 L129.301875,29.2421875 C129.372188,30.90625 130.301875,31.9609375 131.731563,31.9609375 C132.8175,31.9609375 133.551875,31.5625 133.903438,30.8203125 Z M137.145938,33 L137.145938,24.578125 L138.427188,24.578125 L138.427188,25.90625 L138.552188,25.90625 C138.974063,24.9765625 139.794375,24.4296875 141.083438,24.4296875 C142.974063,24.4296875 144.02875,25.546875 144.02875,27.546875 L144.02875,33 L142.685,33 L142.685,27.875 C142.685,26.359375 142.044375,25.640625 140.700625,25.640625 C139.356875,25.640625 138.489688,26.5390625 138.489688,28.015625 L138.489688,33 L137.145938,33 Z M152.95125,31.96875 C154.334063,31.96875 155.3575,31.0625 155.3575,29.859375 L155.3575,29.0859375 L153.091875,29.234375 C151.810625,29.3203125 151.248125,29.765625 151.248125,30.609375 C151.248125,31.46875 151.974688,31.96875 152.95125,31.96875 Z M152.70125,33.1484375 C151.068438,33.1484375 149.8575,32.1796875 149.8575,30.640625 C149.8575,29.1328125 150.966875,28.265625 152.927813,28.1484375 L155.3575,28 L155.3575,27.234375 C155.3575,26.1953125 154.709063,25.625 153.45125,25.625 C152.443438,25.625 151.740313,26.0078125 151.552813,26.671875 L150.193438,26.671875 C150.373125,25.3203125 151.70125,24.4296875 153.498125,24.4296875 C155.552813,24.4296875 156.70125,25.484375 156.70125,27.234375 L156.70125,33 L155.42,33 L155.42,31.7578125 L155.295,31.7578125 C154.748125,32.65625 153.82625,33.1484375 152.70125,33.1484375 Z M158.865625,33 L158.865625,24.578125 L160.146875,24.578125 L160.146875,25.828125 L160.271875,25.828125 C160.521875,25.0078125 161.490625,24.4296875 162.607813,24.4296875 C162.826563,24.4296875 163.107813,24.4453125 163.279688,24.46875 L163.279688,25.8125 C163.170313,25.78125 162.685938,25.734375 162.420313,25.734375 C161.139063,25.734375 160.209375,26.59375 160.209375,27.78125 L160.209375,33 L158.865625,33 Z M171.37375,27.15625 L170.014375,27.15625 C169.795625,26.3203125 169.053438,25.640625 167.8425,25.640625 C166.326875,25.640625 165.37375,26.8515625 165.37375,28.7578125 C165.37375,30.703125 166.3425,31.9375 167.8425,31.9375 C168.975313,31.9375 169.764375,31.4140625 170.014375,30.4609375 L171.37375,30.4609375 C171.131563,32.0078125 169.87375,33.1484375 167.850313,33.1484375 C165.490938,33.1484375 163.983125,31.4375 163.983125,28.7578125 C163.983125,26.1328125 165.483125,24.4296875 167.8425,24.4296875 C169.889375,24.4296875 171.139375,25.65625 171.37375,27.15625 Z M173.11625,33 L173.11625,21.234375 L174.46,21.234375 L174.46,25.90625 L174.585,25.90625 C175.006875,24.9765625 175.889688,24.4296875 177.17875,24.4296875 C178.96,24.4296875 180.085,25.5703125 180.085,27.546875 L180.085,33 L178.74125,33 L178.74125,27.875 C178.74125,26.3828125 178.069375,25.640625 176.795938,25.640625 C175.288125,25.640625 174.46,26.59375 174.46,28.015625 L174.46,33 L173.11625,33 Z M182.249375,33 L182.249375,24.578125 L183.593125,24.578125 L183.593125,33 L182.249375,33 Z M182.92125,22.8671875 C182.405625,22.8671875 181.98375,22.4453125 181.98375,21.9296875 C181.98375,21.4140625 182.405625,20.9921875 182.92125,20.9921875 C183.436875,20.9921875 183.85875,21.4140625 183.85875,21.9296875 C183.85875,22.4453125 183.436875,22.8671875 182.92125,22.8671875 Z M192.710625,24.578125 L189.593438,33 L188.218438,33 L185.10125,24.578125 L186.53875,24.578125 L188.843438,31.515625 L188.968438,31.515625 L191.273125,24.578125 L192.710625,24.578125 Z M197.234375,25.6171875 C195.890625,25.6171875 194.953125,26.6015625 194.851563,28.09375 L199.492188,28.09375 C199.460938,26.6015625 198.570313,25.6171875 197.234375,25.6171875 Z M199.453125,30.8203125 L200.796875,30.8203125 C200.390625,32.265625 199.09375,33.1484375 197.25,33.1484375 C194.914063,33.1484375 193.453125,31.4609375 193.453125,28.796875 C193.453125,26.1484375 194.9375,24.4296875 197.25,24.4296875 C199.523438,24.4296875 200.90625,26.046875 200.90625,28.6640625 L200.90625,29.1796875 L194.851563,29.1796875 L194.851563,29.2421875 C194.921875,30.90625 195.851563,31.9609375 197.28125,31.9609375 C198.367188,31.9609375 199.101563,31.5625 199.453125,30.8203125 Z M205.812813,33.1484375 C203.656563,33.1484375 202.27375,31.4375 202.27375,28.7890625 C202.27375,26.1484375 203.672188,24.4296875 205.812813,24.4296875 C206.984688,24.4296875 207.976875,24.984375 208.453438,25.90625 L208.570625,25.90625 L208.570625,21.234375 L209.914375,21.234375 L209.914375,33 L208.633125,33 L208.633125,31.65625 L208.508125,31.65625 C207.976875,32.59375 206.976875,33.1484375 205.812813,33.1484375 Z M206.125313,25.640625 C204.594063,25.640625 203.664375,26.828125 203.664375,28.7890625 C203.664375,30.7578125 204.58625,31.9375 206.125313,31.9375 C207.656563,31.9375 208.601875,30.734375 208.601875,28.7890625 C208.601875,26.859375 207.64875,25.640625 206.125313,25.640625 Z M213.313125,33.078125 C212.758438,33.078125 212.2975,32.6171875 212.2975,32.0625 C212.2975,31.5 212.758438,31.046875 213.313125,31.046875 C213.875625,31.046875 214.32875,31.5 214.32875,32.0625 C214.32875,32.6171875 213.875625,33.078125 213.313125,33.078125 Z"/>
    </g>
  </g>
</svg>
