<svg xmlns="http://www.w3.org/2000/svg" xmlns:xlink="http://www.w3.org/1999/xlink" width="1026" height="180" viewBox="0 0 1026 180">
  <defs>
    <rect id="2-b" width="375" height="56" rx="14"/>
    <filter id="2-a" width="106.7%" height="144.6%" x="-3.3%" y="-20.5%" filterUnits="objectBoundingBox">
      <feOffset dy="1" in="SourceAlpha" result="shadowOffsetOuter1"/>
      <feGaussianBlur in="shadowOffsetOuter1" result="shadowBlurOuter1" stdDeviation="4"/>
      <feColorMatrix in="shadowBlurOuter1" result="shadowMatrixOuter1" values="0 0 0 0 0   0 0 0 0 0   0 0 0 0 0  0 0 0 0.2 0"/>
      <feMorphology in="SourceAlpha" radius="1" result="shadowSpreadOuter2"/>
      <feOffset dy="3" in="shadowSpreadOuter2" result="shadowOffsetOuter2"/>
      <feGaussianBlur in="shadowOffsetOuter2" result="shadowBlurOuter2" stdDeviation="1.5"/>
      <feColorMatrix in="shadowBlurOuter2" result="shadowMatrixOuter2" values="0 0 0 0 0   0 0 0 0 0   0 0 0 0 0  0 0 0 0.12 0"/>
      <feOffset dy="3" in="SourceAlpha" result="shadowOffsetOuter3"/>
      <feGaussianBlur in="shadowOffsetOuter3" result="shadowBlurOuter3" stdDeviation="2"/>
      <feColorMatrix in="shadowBlurOuter3" result="shadowMatrixOuter3" values="0 0 0 0 0   0 0 0 0 0   0 0 0 0 0  0 0 0 0.14 0"/>
      <feMerge>
        <feMergeNode in="shadowMatrixOuter1"/>
        <feMergeNode in="shadowMatrixOuter2"/>
        <feMergeNode in="shadowMatrixOuter3"/>
      </feMerge>
    </filter>
  </defs>
  <g fill="none" fill-rule="evenodd" transform="translate(1)">
    <rect width="1024" height="180" fill="#FFF" fill-opacity=".01" fill-rule="nonzero"/>
    <g transform="translate(0 17)">
      <g fill-rule="nonzero" stroke="#979797">
        <polyline fill="#FFF" points="1024 0 1024 124 0 124 0 0 0 0"/>
        <path d="M391,0 L391,124"/>
      </g>
      <path fill="#C41261" d="M175.924 32.018C176.342 32.15 176.54 32.249 176.771 32.491 177.134 32.854 177.321 33.338 177.321 33.91 177.321 35.208 176.364 36.132 175.022 36.132 173.691 36.132 172.756 35.241 172.756 33.987 172.756 33.404 172.954 32.876 173.306 32.513 173.537 32.271 173.724 32.161 174.164 32.018 173.779 31.886 173.614 31.776 173.416 31.534 173.174 31.237 173.042 30.863 173.042 30.456 173.042 29.411 173.9 28.641 175.066 28.641 176.221 28.641 177.057 29.4 177.057 30.445 177.057 30.863 176.914 31.259 176.65 31.567 176.452 31.787 176.298 31.886 175.924 32.018zM175.066 29.411C174.362 29.411 173.878 29.851 173.878 30.467 173.878 31.094 174.395 31.589 175.044 31.589 175.671 31.589 176.232 31.072 176.232 30.478 176.232 29.906 175.693 29.411 175.066 29.411zM175.055 32.48C174.263 32.48 173.625 33.107 173.625 33.899 173.625 34.68 174.252 35.318 175.033 35.318 175.814 35.318 176.441 34.68 176.441 33.899 176.441 33.129 175.814 32.48 175.055 32.48zM178.63 30.929L179.466 30.929 179.466 31.853C179.95 31.105 180.467 30.808 181.314 30.808 182.722 30.808 183.701 31.886 183.701 33.426 183.701 35.021 182.722 36.121 181.314 36.121 180.918 36.121 180.555 36.033 180.203 35.857 179.895 35.703 179.741 35.571 179.466 35.208L179.466 38.376 178.63 38.376 178.63 30.929zM181.171 31.556C180.159 31.556 179.466 32.359 179.466 33.547 179.466 34.658 180.137 35.395 181.138 35.395 182.139 35.395 182.81 34.614 182.81 33.459 182.81 32.865 182.667 32.414 182.37 32.084 182.073 31.754 181.622 31.556 181.171 31.556zM186.583 34.163L185.23 36 184.207 36 186.077 33.481 184.174 30.929 185.23 30.929 186.583 32.788 187.969 30.929 188.992 30.929 187.078 33.481 188.904 36 187.881 36 186.583 34.163zM195.251 38.046L194.701 38.574C193.403 36.979 192.809 35.428 192.809 33.58 192.809 31.688 193.502 29.818 194.723 28.443L195.251 28.993C194.14 30.368 193.59 31.897 193.59 33.547 193.59 35.153 194.184 36.759 195.251 38.046zM197.407 31.666L197.407 36 196.571 36 196.571 31.666 195.878 31.666 195.878 30.929 196.571 30.929 196.571 30.247C196.571 29.246 197.088 28.652 197.968 28.652 198.012 28.652 198.111 28.652 198.199 28.663L198.199 29.411C197.594 29.477 197.429 29.653 197.407 30.247L197.407 30.929 198.199 30.929 198.199 31.666 197.407 31.666zM200.399 30.929L200.399 36 199.563 36 199.563 30.929 200.399 30.929zM199.981 28.96C200.278 28.96 200.509 29.202 200.509 29.51 200.509 29.807 200.278 30.038 199.981 30.038 199.673 30.038 199.442 29.807 199.442 29.499 199.442 29.191 199.673 28.96 199.981 28.96zM203.699 34.163L202.346 36 201.323 36 203.193 33.481 201.29 30.929 202.346 30.929 203.699 32.788 205.085 30.929 206.108 30.929 204.194 33.481 206.02 36 204.997 36 203.699 34.163zM211.696 33.734L207.472 33.734C207.516 34.163 207.593 34.383 207.802 34.658 208.132 35.109 208.616 35.351 209.166 35.351 209.793 35.351 210.387 35.01 210.684 34.482L211.421 34.757C211.003 35.604 210.134 36.121 209.166 36.121 207.659 36.121 206.581 35.021 206.581 33.481 206.581 31.919 207.648 30.808 209.133 30.808 210.607 30.808 211.707 31.919 211.707 33.404 211.707 33.47 211.707 33.613 211.696 33.734zM207.483 33.118L210.816 33.118C210.783 32.722 210.706 32.502 210.53 32.249 210.211 31.82 209.694 31.556 209.133 31.556 208.572 31.556 208.066 31.82 207.769 32.26 207.615 32.502 207.549 32.711 207.483 33.118zM216.712 31.699L216.712 28.663 217.548 28.663 217.548 36 216.712 36 216.712 35.131C216.206 35.824 215.667 36.121 214.897 36.121 213.5 36.121 212.51 35.032 212.51 33.492 212.51 31.952 213.522 30.808 214.897 30.808 215.645 30.808 216.217 31.083 216.712 31.699zM215.073 31.556C214.072 31.556 213.39 32.348 213.39 33.503 213.39 34.614 214.061 35.395 215.018 35.395 215.997 35.395 216.712 34.581 216.712 33.481 216.712 32.337 216.041 31.556 215.073 31.556zM218.78 28.971L219.33 28.443C220.639 30.049 221.222 31.589 221.222 33.437 221.222 35.34 220.529 37.188 219.308 38.574L218.78 38.024C219.891 36.649 220.441 35.12 220.441 33.47 220.441 31.853 219.858 30.269 218.78 28.971zM208.838 112.994L207.221 114.072 207.221 113.236 209.707 111.608 209.707 119 208.838 119 208.838 112.994zM215.592 111.773L213.711 114.71C214.019 114.6 214.162 114.567 214.426 114.567 215.647 114.567 216.593 115.524 216.593 116.767 216.593 118.065 215.526 119.132 214.228 119.132 212.919 119.132 211.907 118.098 211.907 116.767 211.907 116.228 212.05 115.821 212.468 115.15L214.569 111.773 215.592 111.773zM214.272 115.315C213.436 115.315 212.776 115.953 212.776 116.767 212.776 117.625 213.425 118.307 214.25 118.307 215.075 118.307 215.735 117.636 215.735 116.8 215.735 115.975 215.086 115.315 214.272 115.315zM217.836 113.929L218.672 113.929 218.672 114.853C219.156 114.105 219.673 113.808 220.52 113.808 221.928 113.808 222.907 114.886 222.907 116.426 222.907 118.021 221.928 119.121 220.52 119.121 220.124 119.121 219.761 119.033 219.409 118.857 219.101 118.703 218.947 118.571 218.672 118.208L218.672 121.376 217.836 121.376 217.836 113.929zM220.377 114.556C219.365 114.556 218.672 115.359 218.672 116.547 218.672 117.658 219.343 118.395 220.344 118.395 221.345 118.395 222.016 117.614 222.016 116.459 222.016 115.865 221.873 115.414 221.576 115.084 221.279 114.754 220.828 114.556 220.377 114.556zM225.789 117.163L224.436 119 223.413 119 225.283 116.481 223.38 113.929 224.436 113.929 225.789 115.788 227.175 113.929 228.198 113.929 226.284 116.481 228.11 119 227.087 119 225.789 117.163zM234.457 121.046L233.907 121.574C232.609 119.979 232.015 118.428 232.015 116.58 232.015 114.688 232.708 112.818 233.929 111.443L234.457 111.993C233.346 113.368 232.796 114.897 232.796 116.547 232.796 118.153 233.39 119.759 234.457 121.046zM236.613 114.666L236.613 119 235.777 119 235.777 114.666 235.084 114.666 235.084 113.929 235.777 113.929 235.777 113.247C235.777 112.246 236.294 111.652 237.174 111.652 237.218 111.652 237.317 111.652 237.405 111.663L237.405 112.411C236.8 112.477 236.635 112.653 236.613 113.247L236.613 113.929 237.405 113.929 237.405 114.666 236.613 114.666zM239.605 113.929L239.605 119 238.769 119 238.769 113.929 239.605 113.929zM239.187 111.96C239.484 111.96 239.715 112.202 239.715 112.51 239.715 112.807 239.484 113.038 239.187 113.038 238.879 113.038 238.648 112.807 238.648 112.499 238.648 112.191 238.879 111.96 239.187 111.96zM242.905 117.163L241.552 119 240.529 119 242.399 116.481 240.496 113.929 241.552 113.929 242.905 115.788 244.291 113.929 245.314 113.929 243.4 116.481 245.226 119 244.203 119 242.905 117.163zM250.902 116.734L246.678 116.734C246.722 117.163 246.799 117.383 247.008 117.658 247.338 118.109 247.822 118.351 248.372 118.351 248.999 118.351 249.593 118.01 249.89 117.482L250.627 117.757C250.209 118.604 249.34 119.121 248.372 119.121 246.865 119.121 245.787 118.021 245.787 116.481 245.787 114.919 246.854 113.808 248.339 113.808 249.813 113.808 250.913 114.919 250.913 116.404 250.913 116.47 250.913 116.613 250.902 116.734zM246.689 116.118L250.022 116.118C249.989 115.722 249.912 115.502 249.736 115.249 249.417 114.82 248.9 114.556 248.339 114.556 247.778 114.556 247.272 114.82 246.975 115.26 246.821 115.502 246.755 115.711 246.689 116.118zM255.918 114.699L255.918 111.663 256.754 111.663 256.754 119 255.918 119 255.918 118.131C255.412 118.824 254.873 119.121 254.103 119.121 252.706 119.121 251.716 118.032 251.716 116.492 251.716 114.952 252.728 113.808 254.103 113.808 254.851 113.808 255.423 114.083 255.918 114.699zM254.279 114.556C253.278 114.556 252.596 115.348 252.596 116.503 252.596 117.614 253.267 118.395 254.224 118.395 255.203 118.395 255.918 117.581 255.918 116.481 255.918 115.337 255.247 114.556 254.279 114.556zM257.986 111.971L258.536 111.443C259.845 113.049 260.428 114.589 260.428 116.437 260.428 118.34 259.735 120.188 258.514 121.574L257.986 121.024C259.097 119.649 259.647 118.12 259.647 116.47 259.647 114.853 259.064 113.269 257.986 111.971zM11.63 40.018C12.048 40.15 12.246 40.249 12.477 40.491 12.84 40.854 13.027 41.338 13.027 41.91 13.027 43.208 12.07 44.132 10.728 44.132 9.397 44.132 8.462 43.241 8.462 41.987 8.462 41.404 8.66 40.876 9.012 40.513 9.243 40.271 9.43 40.161 9.87 40.018 9.485 39.886 9.32 39.776 9.122 39.534 8.88 39.237 8.748 38.863 8.748 38.456 8.748 37.411 9.606 36.641 10.772 36.641 11.927 36.641 12.763 37.4 12.763 38.445 12.763 38.863 12.62 39.259 12.356 39.567 12.158 39.787 12.004 39.886 11.63 40.018zM10.772 37.411C10.068 37.411 9.584 37.851 9.584 38.467 9.584 39.094 10.101 39.589 10.75 39.589 11.377 39.589 11.938 39.072 11.938 38.478 11.938 37.906 11.399 37.411 10.772 37.411zM10.761 40.48C9.969 40.48 9.331 41.107 9.331 41.899 9.331 42.68 9.958 43.318 10.739 43.318 11.52 43.318 12.147 42.68 12.147 41.899 12.147 41.129 11.52 40.48 10.761 40.48zM14.336 38.929L15.172 38.929 15.172 39.853C15.656 39.105 16.173 38.808 17.02 38.808 18.428 38.808 19.407 39.886 19.407 41.426 19.407 43.021 18.428 44.121 17.02 44.121 16.624 44.121 16.261 44.033 15.909 43.857 15.601 43.703 15.447 43.571 15.172 43.208L15.172 46.376 14.336 46.376 14.336 38.929zM16.877 39.556C15.865 39.556 15.172 40.359 15.172 41.547 15.172 42.658 15.843 43.395 16.844 43.395 17.845 43.395 18.516 42.614 18.516 41.459 18.516 40.865 18.373 40.414 18.076 40.084 17.779 39.754 17.328 39.556 16.877 39.556zM22.289 42.163L20.936 44 19.913 44 21.783 41.481 19.88 38.929 20.936 38.929 22.289 40.788 23.675 38.929 24.698 38.929 22.784 41.481 24.61 44 23.587 44 22.289 42.163zM30.957 46.046L30.407 46.574C29.109 44.979 28.515 43.428 28.515 41.58 28.515 39.688 29.208 37.818 30.429 36.443L30.957 36.993C29.846 38.368 29.296 39.897 29.296 41.547 29.296 43.153 29.89 44.759 30.957 46.046zM33.113 39.666L33.113 44 32.277 44 32.277 39.666 31.584 39.666 31.584 38.929 32.277 38.929 32.277 38.247C32.277 37.246 32.794 36.652 33.674 36.652 33.718 36.652 33.817 36.652 33.905 36.663L33.905 37.411C33.3 37.477 33.135 37.653 33.113 38.247L33.113 38.929 33.905 38.929 33.905 39.666 33.113 39.666zM36.105 38.929L36.105 44 35.269 44 35.269 38.929 36.105 38.929zM35.687 36.96C35.984 36.96 36.215 37.202 36.215 37.51 36.215 37.807 35.984 38.038 35.687 38.038 35.379 38.038 35.148 37.807 35.148 37.499 35.148 37.191 35.379 36.96 35.687 36.96zM39.405 42.163L38.052 44 37.029 44 38.899 41.481 36.996 38.929 38.052 38.929 39.405 40.788 40.791 38.929 41.814 38.929 39.9 41.481 41.726 44 40.703 44 39.405 42.163zM47.402 41.734L43.178 41.734C43.222 42.163 43.299 42.383 43.508 42.658 43.838 43.109 44.322 43.351 44.872 43.351 45.499 43.351 46.093 43.01 46.39 42.482L47.127 42.757C46.709 43.604 45.84 44.121 44.872 44.121 43.365 44.121 42.287 43.021 42.287 41.481 42.287 39.919 43.354 38.808 44.839 38.808 46.313 38.808 47.413 39.919 47.413 41.404 47.413 41.47 47.413 41.613 47.402 41.734zM43.189 41.118L46.522 41.118C46.489 40.722 46.412 40.502 46.236 40.249 45.917 39.82 45.4 39.556 44.839 39.556 44.278 39.556 43.772 39.82 43.475 40.26 43.321 40.502 43.255 40.711 43.189 41.118zM52.418 39.699L52.418 36.663 53.254 36.663 53.254 44 52.418 44 52.418 43.131C51.912 43.824 51.373 44.121 50.603 44.121 49.206 44.121 48.216 43.032 48.216 41.492 48.216 39.952 49.228 38.808 50.603 38.808 51.351 38.808 51.923 39.083 52.418 39.699zM50.779 39.556C49.778 39.556 49.096 40.348 49.096 41.503 49.096 42.614 49.767 43.395 50.724 43.395 51.703 43.395 52.418 42.581 52.418 41.481 52.418 40.337 51.747 39.556 50.779 39.556zM54.486 36.971L55.036 36.443C56.345 38.049 56.928 39.589 56.928 41.437 56.928 43.34 56.235 45.188 55.014 46.574L54.486 46.024C55.597 44.649 56.147 43.12 56.147 41.47 56.147 39.853 55.564 38.269 54.486 36.971zM337.218 40.018C337.636 40.15 337.834 40.249 338.065 40.491 338.428 40.854 338.615 41.338 338.615 41.91 338.615 43.208 337.658 44.132 336.316 44.132 334.985 44.132 334.05 43.241 334.05 41.987 334.05 41.404 334.248 40.876 334.6 40.513 334.831 40.271 335.018 40.161 335.458 40.018 335.073 39.886 334.908 39.776 334.71 39.534 334.468 39.237 334.336 38.863 334.336 38.456 334.336 37.411 335.194 36.641 336.36 36.641 337.515 36.641 338.351 37.4 338.351 38.445 338.351 38.863 338.208 39.259 337.944 39.567 337.746 39.787 337.592 39.886 337.218 40.018zM336.36 37.411C335.656 37.411 335.172 37.851 335.172 38.467 335.172 39.094 335.689 39.589 336.338 39.589 336.965 39.589 337.526 39.072 337.526 38.478 337.526 37.906 336.987 37.411 336.36 37.411zM336.349 40.48C335.557 40.48 334.919 41.107 334.919 41.899 334.919 42.68 335.546 43.318 336.327 43.318 337.108 43.318 337.735 42.68 337.735 41.899 337.735 41.129 337.108 40.48 336.349 40.48zM339.924 38.929L340.76 38.929 340.76 39.853C341.244 39.105 341.761 38.808 342.608 38.808 344.016 38.808 344.995 39.886 344.995 41.426 344.995 43.021 344.016 44.121 342.608 44.121 342.212 44.121 341.849 44.033 341.497 43.857 341.189 43.703 341.035 43.571 340.76 43.208L340.76 46.376 339.924 46.376 339.924 38.929zM342.465 39.556C341.453 39.556 340.76 40.359 340.76 41.547 340.76 42.658 341.431 43.395 342.432 43.395 343.433 43.395 344.104 42.614 344.104 41.459 344.104 40.865 343.961 40.414 343.664 40.084 343.367 39.754 342.916 39.556 342.465 39.556zM347.877 42.163L346.524 44 345.501 44 347.371 41.481 345.468 38.929 346.524 38.929 347.877 40.788 349.263 38.929 350.286 38.929 348.372 41.481 350.198 44 349.175 44 347.877 42.163zM356.545 46.046L355.995 46.574C354.697 44.979 354.103 43.428 354.103 41.58 354.103 39.688 354.796 37.818 356.017 36.443L356.545 36.993C355.434 38.368 354.884 39.897 354.884 41.547 354.884 43.153 355.478 44.759 356.545 46.046zM358.701 39.666L358.701 44 357.865 44 357.865 39.666 357.172 39.666 357.172 38.929 357.865 38.929 357.865 38.247C357.865 37.246 358.382 36.652 359.262 36.652 359.306 36.652 359.405 36.652 359.493 36.663L359.493 37.411C358.888 37.477 358.723 37.653 358.701 38.247L358.701 38.929 359.493 38.929 359.493 39.666 358.701 39.666zM361.693 38.929L361.693 44 360.857 44 360.857 38.929 361.693 38.929zM361.275 36.96C361.572 36.96 361.803 37.202 361.803 37.51 361.803 37.807 361.572 38.038 361.275 38.038 360.967 38.038 360.736 37.807 360.736 37.499 360.736 37.191 360.967 36.96 361.275 36.96zM364.993 42.163L363.64 44 362.617 44 364.487 41.481 362.584 38.929 363.64 38.929 364.993 40.788 366.379 38.929 367.402 38.929 365.488 41.481 367.314 44 366.291 44 364.993 42.163zM372.99 41.734L368.766 41.734C368.81 42.163 368.887 42.383 369.096 42.658 369.426 43.109 369.91 43.351 370.46 43.351 371.087 43.351 371.681 43.01 371.978 42.482L372.715 42.757C372.297 43.604 371.428 44.121 370.46 44.121 368.953 44.121 367.875 43.021 367.875 41.481 367.875 39.919 368.942 38.808 370.427 38.808 371.901 38.808 373.001 39.919 373.001 41.404 373.001 41.47 373.001 41.613 372.99 41.734zM368.777 41.118L372.11 41.118C372.077 40.722 372 40.502 371.824 40.249 371.505 39.82 370.988 39.556 370.427 39.556 369.866 39.556 369.36 39.82 369.063 40.26 368.909 40.502 368.843 40.711 368.777 41.118zM378.006 39.699L378.006 36.663 378.842 36.663 378.842 44 378.006 44 378.006 43.131C377.5 43.824 376.961 44.121 376.191 44.121 374.794 44.121 373.804 43.032 373.804 41.492 373.804 39.952 374.816 38.808 376.191 38.808 376.939 38.808 377.511 39.083 378.006 39.699zM376.367 39.556C375.366 39.556 374.684 40.348 374.684 41.503 374.684 42.614 375.355 43.395 376.312 43.395 377.291 43.395 378.006 42.581 378.006 41.481 378.006 40.337 377.335 39.556 376.367 39.556zM380.074 36.971L380.624 36.443C381.933 38.049 382.516 39.589 382.516 41.437 382.516 43.34 381.823 45.188 380.602 46.574L380.074 46.024C381.185 44.649 381.735 43.12 381.735 41.47 381.735 39.853 381.152 38.269 380.074 36.971z"/>
      <g fill="#C41261" transform="translate(192 44)">
        <rect width="1" height="6" x="4" y="1"/>
        <rect width="9" height="1"/>
        <rect width="9" height="1" y="7"/>
      </g>
      <g fill="#C41261" transform="translate(192 108)">
        <rect width="1" height="14" x="4" y="1"/>
        <rect width="9" height="1"/>
        <rect width="9" height="1" y="15"/>
      </g>
      <g transform="translate(8 52)">
        <use fill="#000" filter="url(#2-a)" xlink:href="#2-b"/>
        <use fill="#F7F7F7" xlink:href="#2-b"/>
        <rect width="375" height="56" fill="#25333D" rx="14"/>
        <path fill="#89CBDF" d="M11.6033967,17 L10.5076935,13.8208008 L5.94226384,13.8208008 L4.83825993,17 L2.92908024,17 L7.25378728,5.02197266 L9.25427556,5.02197266 L13.5789826,17 L11.6033967,17 Z M8.15857243,7.19677734 L6.41540837,12.2602539 L10.034549,12.2602539 L8.29968571,7.19677734 L8.15857243,7.19677734 Z M22.2002326,10.9155273 L20.4653693,10.9155273 C20.2578498,10.0356445 19.527381,9.37988281 18.3320685,9.37988281 C16.8379279,9.37988281 15.924842,10.5253906 15.924842,12.4511719 C15.924842,14.4101562 16.8462287,15.5805664 18.3320685,15.5805664 C19.4609748,15.5805664 20.2329474,15.065918 20.4653693,14.0947266 L22.2002326,14.0947266 C21.9678107,15.9125977 20.5732795,17.1743164 18.3403693,17.1743164 C15.7090217,17.1743164 14.0986701,15.3979492 14.0986701,12.4511719 C14.0986701,9.55419922 15.7007209,7.78613281 18.3320685,7.78613281 C20.5981818,7.78613281 21.9678107,9.10595703 22.2002326,10.9155273 Z M24.5875959,5.7109375 L26.3722638,5.7109375 L26.3722638,8.00195312 L28.3312482,8.00195312 L28.3312482,9.50439453 L26.3722638,9.50439453 L26.3722638,14.152832 C26.3722638,15.0991211 26.7624006,15.5141602 27.6505842,15.5141602 C27.9245099,15.5141602 28.0822248,15.4975586 28.3312482,15.4726562 L28.3312482,16.9584961 C28.0407209,17.0083008 27.7086896,17.0498047 27.3600568,17.0498047 C25.3761701,17.0498047 24.5875959,16.3525391 24.5875959,14.609375 L24.5875959,9.50439453 L23.1515607,9.50439453 L23.1515607,8.00195312 L24.5875959,8.00195312 L24.5875959,5.7109375 Z M30.054549,17 L30.054549,7.96044922 L31.8309162,7.96044922 L31.8309162,17 L30.054549,17 Z M30.9427326,6.375 C30.2786701,6.375 29.788924,5.90185547 29.788924,5.28759766 C29.788924,4.66503906 30.2786701,4.19189453 30.9427326,4.19189453 C31.6067951,4.19189453 32.0965412,4.66503906 32.0965412,5.28759766 C32.0965412,5.90185547 31.6067951,6.375 30.9427326,6.375 Z M37.8623224,17.1743164 C35.2143732,17.1743164 33.5957209,15.40625 33.5957209,12.4760742 C33.5957209,9.5625 35.222674,7.78613281 37.8623224,7.78613281 C40.4936701,7.78613281 42.1206232,9.5625 42.1206232,12.4760742 C42.1206232,15.40625 40.5019709,17.1743164 37.8623224,17.1743164 Z M37.8623224,15.5888672 C39.4062678,15.5888672 40.2861506,14.4433594 40.2861506,12.4760742 C40.2861506,10.5170898 39.4062678,9.37158203 37.8623224,9.37158203 C36.3100764,9.37158203 35.4384943,10.5170898 35.4384943,12.4760742 C35.4384943,14.4516602 36.3100764,15.5888672 37.8623224,15.5888672 Z M43.8522248,17 L43.8522248,7.96044922 L45.5704865,7.96044922 L45.5704865,9.39648438 L45.703299,9.39648438 C46.1432404,8.39208984 47.0397248,7.78613281 48.4010529,7.78613281 C50.4181428,7.78613281 51.5304474,8.99804688 51.5304474,11.1479492 L51.5304474,17 L49.7457795,17 L49.7457795,11.5961914 C49.7457795,10.1435547 49.1149201,9.42138672 47.7950959,9.42138672 C46.4752717,9.42138672 45.6368928,10.3012695 45.6368928,11.7124023 L45.6368928,17 L43.8522248,17 Z" transform="translate(306.668 17)"/>
        <path fill="#FFF" d="M16.8984375,30.0546875 L18.3203125,30.0546875 C18.4921875,31.234375 19.6171875,31.984375 21.21875,31.984375 C22.734375,31.984375 23.8515625,31.1640625 23.8515625,30.046875 C23.8515625,29.0859375 23.1484375,28.4765625 21.59375,28.0859375 L20.1484375,27.7109375 C18.109375,27.1953125 17.2265625,26.2734375 17.2265625,24.671875 C17.2265625,22.7578125 18.828125,21.4609375 21.2109375,21.4609375 C23.390625,21.4609375 25.015625,22.7578125 25.1328125,24.578125 L23.71875,24.578125 C23.5234375,23.421875 22.5703125,22.734375 21.1640625,22.734375 C19.6640625,22.734375 18.671875,23.484375 18.671875,24.625 C18.671875,25.5078125 19.2890625,26.015625 20.84375,26.4140625 L22.0234375,26.7265625 C24.359375,27.3125 25.296875,28.21875 25.296875,29.875 C25.296875,31.9453125 23.6640625,33.265625 21.0859375,33.265625 C18.6953125,33.265625 17.046875,32 16.8984375,30.0546875 Z M27.1721875,33 L27.1721875,24.578125 L28.5159375,24.578125 L28.5159375,33 L27.1721875,33 Z M27.8440625,22.8671875 C27.3284375,22.8671875 26.9065625,22.4453125 26.9065625,21.9296875 C26.9065625,21.4140625 27.3284375,20.9921875 27.8440625,20.9921875 C28.3596875,20.9921875 28.7815625,21.4140625 28.7815625,21.9296875 C28.7815625,22.4453125 28.3596875,22.8671875 27.8440625,22.8671875 Z M30.7584375,33 L30.7584375,24.578125 L32.0396875,24.578125 L32.0396875,25.90625 L32.1646875,25.90625 C32.5865625,24.9765625 33.406875,24.4296875 34.6959375,24.4296875 C36.5865625,24.4296875 37.64125,25.546875 37.64125,27.546875 L37.64125,33 L36.2975,33 L36.2975,27.875 C36.2975,26.359375 35.656875,25.640625 34.313125,25.640625 C32.969375,25.640625 32.1021875,26.5390625 32.1021875,28.015625 L32.1021875,33 L30.7584375,33 Z M43.180625,31.6875 C44.743125,31.6875 45.680625,30.5 45.680625,28.6640625 C45.680625,26.828125 44.7353125,25.640625 43.180625,25.640625 C41.618125,25.640625 40.743125,26.828125 40.743125,28.6640625 C40.743125,30.5 41.618125,31.6875 43.180625,31.6875 Z M43.243125,36.234375 C41.211875,36.234375 39.915,35.3203125 39.711875,33.9296875 L41.13375,33.9296875 C41.2821875,34.6171875 42.0321875,35.0625 43.243125,35.0625 C44.7509375,35.0625 45.649375,34.3203125 45.649375,33.078125 L45.649375,31.421875 L45.524375,31.421875 C44.993125,32.3515625 44.04,32.875 42.88375,32.875 C40.7040625,32.875 39.3525,31.1875 39.3525,28.6640625 C39.3525,26.140625 40.7196875,24.4296875 42.88375,24.4296875 C44.0634375,24.4296875 45.1025,25.0078125 45.586875,25.9140625 L45.711875,25.9140625 L45.711875,24.578125 L46.993125,24.578125 L46.993125,33.1484375 C46.993125,35.03125 45.54,36.234375 43.243125,36.234375 Z M49.2825,33 L49.2825,21.234375 L50.62625,21.234375 L50.62625,33 L49.2825,33 Z M56.275,25.6171875 C54.93125,25.6171875 53.99375,26.6015625 53.8921875,28.09375 L58.5328125,28.09375 C58.5015625,26.6015625 57.6109375,25.6171875 56.275,25.6171875 Z M58.49375,30.8203125 L59.8375,30.8203125 C59.43125,32.265625 58.134375,33.1484375 56.290625,33.1484375 C53.9546875,33.1484375 52.49375,31.4609375 52.49375,28.796875 C52.49375,26.1484375 53.978125,24.4296875 56.290625,24.4296875 C58.5640625,24.4296875 59.946875,26.046875 59.946875,28.6640625 L59.946875,29.1796875 L53.8921875,29.1796875 L53.8921875,29.2421875 C53.9625,30.90625 54.8921875,31.9609375 56.321875,31.9609375 C57.4078125,31.9609375 58.1421875,31.5625 58.49375,30.8203125 Z M66.0100001,33 L66.0100001,21.234375 L67.3537501,21.234375 L67.3537501,33 L66.0100001,33 Z M69.6743751,33 L69.6743751,24.578125 L71.0181251,24.578125 L71.0181251,33 L69.6743751,33 Z M70.3462501,22.8671875 C69.8306251,22.8671875 69.4087501,22.4453125 69.4087501,21.9296875 C69.4087501,21.4140625 69.8306251,20.9921875 70.3462501,20.9921875 C70.8618751,20.9921875 71.2837501,21.4140625 71.2837501,21.9296875 C71.2837501,22.4453125 70.8618751,22.8671875 70.3462501,22.8671875 Z M73.2606251,33 L73.2606251,24.578125 L74.5418751,24.578125 L74.5418751,25.90625 L74.6668751,25.90625 C75.0887501,24.9765625 75.9090626,24.4296875 77.1981251,24.4296875 C79.0887501,24.4296875 80.1434376,25.546875 80.1434376,27.546875 L80.1434376,33 L78.7996876,33 L78.7996876,27.875 C78.7996876,26.359375 78.1590626,25.640625 76.8153126,25.640625 C75.4715626,25.640625 74.6043751,26.5390625 74.6043751,28.015625 L74.6043751,33 L73.2606251,33 Z M85.6359376,25.6171875 C84.2921876,25.6171875 83.3546876,26.6015625 83.2531251,28.09375 L87.8937501,28.09375 C87.8625001,26.6015625 86.9718751,25.6171875 85.6359376,25.6171875 Z M87.8546876,30.8203125 L89.1984376,30.8203125 C88.7921876,32.265625 87.4953126,33.1484375 85.6515626,33.1484375 C83.3156251,33.1484375 81.8546876,31.4609375 81.8546876,28.796875 C81.8546876,26.1484375 83.3390626,24.4296875 85.6515626,24.4296875 C87.9250001,24.4296875 89.3078126,26.046875 89.3078126,28.6640625 L89.3078126,29.1796875 L83.2531251,29.1796875 L83.2531251,29.2421875 C83.3234376,30.90625 84.2531251,31.9609375 85.6828126,31.9609375 C86.7687501,31.9609375 87.5031251,31.5625 87.8546876,30.8203125 Z M95.2928126,33 L95.2928126,24.578125 L96.5740626,24.578125 L96.5740626,25.90625 L96.6990626,25.90625 C97.0818751,24.96875 97.9256251,24.4296875 99.0506251,24.4296875 C100.19125,24.4296875 100.988125,25.03125 101.37875,25.90625 L101.50375,25.90625 C101.956875,25.015625 102.917813,24.4296875 104.081875,24.4296875 C105.800625,24.4296875 106.761563,25.4140625 106.761563,27.1796875 L106.761563,33 L105.417813,33 L105.417813,27.4921875 C105.417813,26.25 104.831875,25.640625 103.644375,25.640625 C102.4725,25.640625 101.69125,26.515625 101.69125,27.5859375 L101.69125,33 L100.3475,33 L100.3475,27.28125 C100.3475,26.28125 99.6521876,25.640625 98.5896876,25.640625 C97.4881251,25.640625 96.6365626,26.59375 96.6365626,27.78125 L96.6365626,33 L95.2928126,33 Z M112.254063,25.6171875 C110.910313,25.6171875 109.972813,26.6015625 109.87125,28.09375 L114.511875,28.09375 C114.480625,26.6015625 113.59,25.6171875 112.254063,25.6171875 Z M114.472813,30.8203125 L115.816563,30.8203125 C115.410313,32.265625 114.113438,33.1484375 112.269688,33.1484375 C109.93375,33.1484375 108.472813,31.4609375 108.472813,28.796875 C108.472813,26.1484375 109.957188,24.4296875 112.269688,24.4296875 C114.543125,24.4296875 115.925938,26.046875 115.925938,28.6640625 L115.925938,29.1796875 L109.87125,29.1796875 L109.87125,29.2421875 C109.941563,30.90625 110.87125,31.9609375 112.300938,31.9609375 C113.386875,31.9609375 114.12125,31.5625 114.472813,30.8203125 Z M117.52,26.8828125 C117.52,25.484375 118.871563,24.4296875 120.660625,24.4296875 C122.42625,24.4296875 123.652813,25.3046875 123.8325,26.6875 L122.504375,26.6875 C122.324688,26.015625 121.668438,25.5703125 120.652813,25.5703125 C119.652813,25.5703125 118.871563,26.078125 118.871563,26.828125 C118.871563,27.40625 119.340313,27.765625 120.3325,28.0078125 L121.629375,28.3203125 C123.215313,28.703125 123.980938,29.390625 123.980938,30.6015625 C123.980938,32.109375 122.52,33.1484375 120.605938,33.1484375 C118.730938,33.1484375 117.441875,32.25 117.293438,30.8515625 L118.67625,30.8515625 C118.902813,31.5625 119.574688,32.015625 120.652813,32.015625 C121.785625,32.015625 122.598125,31.4765625 122.598125,30.703125 C122.598125,30.125 122.160625,29.734375 121.262188,29.515625 L119.816875,29.1640625 C118.23875,28.78125 117.52,28.1015625 117.52,26.8828125 Z M125.41875,26.8828125 C125.41875,25.484375 126.770313,24.4296875 128.559375,24.4296875 C130.325,24.4296875 131.551563,25.3046875 131.73125,26.6875 L130.403125,26.6875 C130.223438,26.015625 129.567188,25.5703125 128.551563,25.5703125 C127.551563,25.5703125 126.770313,26.078125 126.770313,26.828125 C126.770313,27.40625 127.239063,27.765625 128.23125,28.0078125 L129.528125,28.3203125 C131.114063,28.703125 131.879688,29.390625 131.879688,30.6015625 C131.879688,32.109375 130.41875,33.1484375 128.504688,33.1484375 C126.629688,33.1484375 125.340625,32.25 125.192188,30.8515625 L126.575,30.8515625 C126.801563,31.5625 127.473438,32.015625 128.551563,32.015625 C129.684375,32.015625 130.496875,31.4765625 130.496875,30.703125 C130.496875,30.125 130.059375,29.734375 129.160938,29.515625 L127.715625,29.1640625 C126.1375,28.78125 125.41875,28.1015625 125.41875,26.8828125 Z M136.262813,31.96875 C137.645625,31.96875 138.669063,31.0625 138.669063,29.859375 L138.669063,29.0859375 L136.403438,29.234375 C135.122188,29.3203125 134.559688,29.765625 134.559688,30.609375 C134.559688,31.46875 135.28625,31.96875 136.262813,31.96875 Z M136.012813,33.1484375 C134.38,33.1484375 133.169063,32.1796875 133.169063,30.640625 C133.169063,29.1328125 134.278438,28.265625 136.239375,28.1484375 L138.669063,28 L138.669063,27.234375 C138.669063,26.1953125 138.020625,25.625 136.762813,25.625 C135.755,25.625 135.051875,26.0078125 134.864375,26.671875 L133.505,26.671875 C133.684688,25.3203125 135.012813,24.4296875 136.809688,24.4296875 C138.864375,24.4296875 140.012813,25.484375 140.012813,27.234375 L140.012813,33 L138.731563,33 L138.731563,31.7578125 L138.606563,31.7578125 C138.059688,32.65625 137.137813,33.1484375 136.012813,33.1484375 Z M145.583438,31.6875 C147.145938,31.6875 148.083438,30.5 148.083438,28.6640625 C148.083438,26.828125 147.138125,25.640625 145.583438,25.640625 C144.020938,25.640625 143.145938,26.828125 143.145938,28.6640625 C143.145938,30.5 144.020938,31.6875 145.583438,31.6875 Z M145.645938,36.234375 C143.614688,36.234375 142.317813,35.3203125 142.114688,33.9296875 L143.536563,33.9296875 C143.685,34.6171875 144.435,35.0625 145.645938,35.0625 C147.15375,35.0625 148.052188,34.3203125 148.052188,33.078125 L148.052188,31.421875 L147.927188,31.421875 C147.395938,32.3515625 146.442813,32.875 145.286563,32.875 C143.106875,32.875 141.755313,31.1875 141.755313,28.6640625 C141.755313,26.140625 143.1225,24.4296875 145.286563,24.4296875 C146.46625,24.4296875 147.505313,25.0078125 147.989688,25.9140625 L148.114688,25.9140625 L148.114688,24.578125 L149.395938,24.578125 L149.395938,33.1484375 C149.395938,35.03125 147.942813,36.234375 145.645938,36.234375 Z M154.966563,25.6171875 C153.622813,25.6171875 152.685313,26.6015625 152.58375,28.09375 L157.224375,28.09375 C157.193125,26.6015625 156.3025,25.6171875 154.966563,25.6171875 Z M157.185313,30.8203125 L158.529063,30.8203125 C158.122813,32.265625 156.825938,33.1484375 154.982188,33.1484375 C152.64625,33.1484375 151.185313,31.4609375 151.185313,28.796875 C151.185313,26.1484375 152.669688,24.4296875 154.982188,24.4296875 C157.255625,24.4296875 158.638438,26.046875 158.638438,28.6640625 L158.638438,29.1796875 L152.58375,29.1796875 L152.58375,29.2421875 C152.654063,30.90625 153.58375,31.9609375 155.013438,31.9609375 C156.099375,31.9609375 156.83375,31.5625 157.185313,30.8203125 Z M167.217188,31.96875 C168.6,31.96875 169.623438,31.0625 169.623438,29.859375 L169.623438,29.0859375 L167.357813,29.234375 C166.076563,29.3203125 165.514063,29.765625 165.514063,30.609375 C165.514063,31.46875 166.240625,31.96875 167.217188,31.96875 Z M166.967188,33.1484375 C165.334375,33.1484375 164.123438,32.1796875 164.123438,30.640625 C164.123438,29.1328125 165.232813,28.265625 167.19375,28.1484375 L169.623438,28 L169.623438,27.234375 C169.623438,26.1953125 168.975,25.625 167.717188,25.625 C166.709375,25.625 166.00625,26.0078125 165.81875,26.671875 L164.459375,26.671875 C164.639063,25.3203125 165.967188,24.4296875 167.764063,24.4296875 C169.81875,24.4296875 170.967188,25.484375 170.967188,27.234375 L170.967188,33 L169.685938,33 L169.685938,31.7578125 L169.560938,31.7578125 C169.014063,32.65625 168.092188,33.1484375 166.967188,33.1484375 Z M180.100313,27.15625 L178.740938,27.15625 C178.522188,26.3203125 177.78,25.640625 176.569063,25.640625 C175.053438,25.640625 174.100313,26.8515625 174.100313,28.7578125 C174.100313,30.703125 175.069063,31.9375 176.569063,31.9375 C177.701875,31.9375 178.490938,31.4140625 178.740938,30.4609375 L180.100313,30.4609375 C179.858125,32.0078125 178.600313,33.1484375 176.576875,33.1484375 C174.2175,33.1484375 172.709688,31.4375 172.709688,28.7578125 C172.709688,26.1328125 174.209688,24.4296875 176.569063,24.4296875 C178.615938,24.4296875 179.865938,25.65625 180.100313,27.15625 Z M182.483438,22.3984375 L183.827188,22.3984375 L183.827188,24.578125 L185.702188,24.578125 L185.702188,25.703125 L183.827188,25.703125 L183.827188,30.46875 C183.827188,31.4609375 184.202188,31.8828125 185.077188,31.8828125 C185.319375,31.8828125 185.452188,31.875 185.702188,31.8515625 L185.702188,32.984375 C185.436563,33.03125 185.17875,33.0625 184.913125,33.0625 C183.17875,33.0625 182.483438,32.421875 182.483438,30.8125 L182.483438,25.703125 L181.124063,25.703125 L181.124063,24.578125 L182.483438,24.578125 L182.483438,22.3984375 Z M187.444688,33 L187.444688,24.578125 L188.788438,24.578125 L188.788438,33 L187.444688,33 Z M188.116563,22.8671875 C187.600938,22.8671875 187.179063,22.4453125 187.179063,21.9296875 C187.179063,21.4140625 187.600938,20.9921875 188.116563,20.9921875 C188.632188,20.9921875 189.054063,21.4140625 189.054063,21.9296875 C189.054063,22.4453125 188.632188,22.8671875 188.116563,22.8671875 Z M194.491875,33.1484375 C192.093438,33.1484375 190.609063,31.4921875 190.609063,28.7890625 C190.609063,26.078125 192.093438,24.4296875 194.491875,24.4296875 C196.890313,24.4296875 198.374688,26.078125 198.374688,28.7890625 C198.374688,31.4921875 196.890313,33.1484375 194.491875,33.1484375 Z M194.491875,31.9375 C196.085625,31.9375 196.984063,30.78125 196.984063,28.7890625 C196.984063,26.7890625 196.085625,25.640625 194.491875,25.640625 C192.898125,25.640625 191.999688,26.7890625 191.999688,28.7890625 C191.999688,30.78125 192.898125,31.9375 194.491875,31.9375 Z M200.164063,33 L200.164063,24.578125 L201.445313,24.578125 L201.445313,25.90625 L201.570313,25.90625 C201.992188,24.9765625 202.8125,24.4296875 204.101563,24.4296875 C205.992188,24.4296875 207.046875,25.546875 207.046875,27.546875 L207.046875,33 L205.703125,33 L205.703125,27.875 C205.703125,26.359375 205.0625,25.640625 203.71875,25.640625 C202.375,25.640625 201.507813,26.5390625 201.507813,28.015625 L201.507813,33 L200.164063,33 Z M210.289375,33.078125 C209.734688,33.078125 209.27375,32.6171875 209.27375,32.0625 C209.27375,31.5 209.734688,31.046875 210.289375,31.046875 C210.851875,31.046875 211.305,31.5 211.305,32.0625 C211.305,32.6171875 210.851875,33.078125 210.289375,33.078125 Z"/>
      </g>
      <path fill="#C41261" d="M80.649,141.031 L81.529,141.031 C81.573,141.867 82.024,142.307 82.827,142.307 C83.652,142.307 84.235,141.801 84.235,141.064 C84.235,140.426 83.905,140.129 82.75,139.744 C81.881,139.447 81.595,139.304 81.265,139.007 C80.891,138.666 80.693,138.182 80.693,137.621 C80.693,136.378 81.584,135.531 82.882,135.531 C84.18,135.531 85.027,136.356 85.06,137.632 L84.136,137.632 C84.125,137.258 84.081,137.082 83.96,136.873 C83.751,136.554 83.344,136.356 82.871,136.356 C82.145,136.356 81.628,136.851 81.628,137.555 C81.628,137.907 81.782,138.215 82.046,138.402 C82.277,138.567 82.475,138.655 83.223,138.919 C84.004,139.194 84.378,139.392 84.675,139.711 C84.994,140.052 85.17,140.514 85.17,141.009 C85.17,142.274 84.235,143.132 82.86,143.132 C81.925,143.132 81.287,142.802 80.902,142.142 C80.726,141.845 80.649,141.537 80.649,141.185 L80.649,141.031 Z M87.348,138.666 L87.348,141.966 C87.359,142.219 87.425,142.274 87.733,142.274 L88.118,142.274 L88.118,143 L87.337,143 C86.743,142.989 86.512,142.769 86.512,142.208 L86.512,138.666 L85.808,138.666 L85.808,137.929 L86.512,137.929 L86.512,136.334 L87.348,136.334 L87.348,137.929 L88.118,137.929 L88.118,138.666 L87.348,138.666 Z M89.306,137.929 L90.142,137.929 L90.142,138.787 C90.296,138.424 90.406,138.27 90.604,138.116 C90.857,137.918 91.209,137.808 91.572,137.808 L91.77,137.808 L91.77,138.655 C91.682,138.644 91.594,138.644 91.539,138.644 C91.088,138.644 90.692,138.853 90.439,139.227 C90.219,139.546 90.142,139.843 90.142,140.426 L90.142,143 L89.306,143 L89.306,137.929 Z M97.512,140.734 L93.288,140.734 C93.332,141.163 93.409,141.383 93.618,141.658 C93.948,142.109 94.432,142.351 94.982,142.351 C95.609,142.351 96.203,142.01 96.5,141.482 L97.237,141.757 C96.819,142.604 95.95,143.121 94.982,143.121 C93.475,143.121 92.397,142.021 92.397,140.481 C92.397,138.919 93.464,137.808 94.949,137.808 C96.423,137.808 97.523,138.919 97.523,140.404 C97.523,140.47 97.523,140.613 97.512,140.734 Z M93.299,140.118 L96.632,140.118 C96.599,139.722 96.522,139.502 96.346,139.249 C96.027,138.82 95.51,138.556 94.949,138.556 C94.388,138.556 93.882,138.82 93.585,139.26 C93.431,139.502 93.365,139.711 93.299,140.118 Z M99.624,138.666 L99.624,141.966 C99.635,142.219 99.701,142.274 100.009,142.274 L100.394,142.274 L100.394,143 L99.613,143 C99.019,142.989 98.788,142.769 98.788,142.208 L98.788,138.666 L98.084,138.666 L98.084,137.929 L98.788,137.929 L98.788,136.334 L99.624,136.334 L99.624,137.929 L100.394,137.929 L100.394,138.666 L99.624,138.666 Z M105.014,141.801 L105.531,142.373 C104.959,142.89 104.398,143.121 103.661,143.121 C102.209,143.121 101.175,142.021 101.175,140.481 C101.175,138.908 102.22,137.808 103.705,137.808 C104.431,137.808 105.025,138.05 105.553,138.567 L105.014,139.106 C104.629,138.754 104.2,138.578 103.727,138.578 C102.726,138.578 102.033,139.348 102.033,140.448 C102.033,141.57 102.726,142.351 103.716,142.351 C104.211,142.351 104.607,142.186 105.014,141.801 Z M107.445,135.663 L107.445,138.633 C107.907,138.061 108.369,137.808 108.974,137.808 C109.414,137.808 109.876,137.984 110.151,138.27 C110.426,138.545 110.547,138.941 110.547,139.59 L110.547,143 L109.711,143 L109.711,139.634 C109.711,138.941 109.37,138.556 108.765,138.556 C108.38,138.556 108.039,138.71 107.775,139.007 C107.522,139.293 107.445,139.546 107.445,140.03 L107.445,143 L106.609,143 L106.609,135.663 L107.445,135.663 Z M116.388,138.666 L116.388,141.966 C116.399,142.219 116.465,142.274 116.773,142.274 L117.158,142.274 L117.158,143 L116.377,143 C115.783,142.989 115.552,142.769 115.552,142.208 L115.552,138.666 L114.848,138.666 L114.848,137.929 L115.552,137.929 L115.552,136.334 L116.388,136.334 L116.388,137.929 L117.158,137.929 L117.158,138.666 L116.388,138.666 Z M120.535,137.808 C122.031,137.808 123.098,138.919 123.098,140.481 C123.098,141.966 121.954,143.121 120.502,143.121 C118.995,143.121 117.939,142.021 117.939,140.459 C117.939,138.886 118.995,137.808 120.535,137.808 Z M120.535,138.578 C119.49,138.578 118.797,139.337 118.797,140.47 C118.797,141.592 119.49,142.351 120.524,142.351 C121.525,142.351 122.24,141.57 122.24,140.47 C122.24,139.337 121.558,138.578 120.535,138.578 Z M133.526,137.929 L134.384,137.929 L132.58,143 L131.821,143 L130.655,139.15 L129.434,143 L128.642,143 L126.904,137.929 L127.762,137.929 L129.06,141.658 L130.226,137.929 L131.051,137.929 L132.195,141.658 L133.526,137.929 Z M136.122,137.929 L136.122,143 L135.286,143 L135.286,137.929 L136.122,137.929 Z M135.715,135.96 C136.012,135.96 136.243,136.202 136.243,136.51 C136.243,136.807 136.001,137.038 135.704,137.038 C135.407,137.038 135.176,136.807 135.176,136.499 C135.176,136.191 135.407,135.96 135.715,135.96 Z M141.6,138.699 L141.6,135.663 L142.436,135.663 L142.436,143 L141.6,143 L141.6,142.131 C141.094,142.824 140.555,143.121 139.785,143.121 C138.388,143.121 137.398,142.032 137.398,140.492 C137.398,138.952 138.41,137.808 139.785,137.808 C140.533,137.808 141.105,138.083 141.6,138.699 Z M139.961,138.556 C138.96,138.556 138.278,139.348 138.278,140.503 C138.278,141.614 138.949,142.395 139.906,142.395 C140.885,142.395 141.6,141.581 141.6,140.481 C141.6,139.337 140.929,138.556 139.961,138.556 Z M145.01,138.666 L145.01,141.966 C145.021,142.219 145.087,142.274 145.395,142.274 L145.78,142.274 L145.78,143 L144.999,143 C144.405,142.989 144.174,142.769 144.174,142.208 L144.174,138.666 L143.47,138.666 L143.47,137.929 L144.174,137.929 L144.174,136.334 L145.01,136.334 L145.01,137.929 L145.78,137.929 L145.78,138.666 L145.01,138.666 Z M147.804,135.663 L147.804,138.633 C148.266,138.061 148.728,137.808 149.333,137.808 C149.773,137.808 150.235,137.984 150.51,138.27 C150.785,138.545 150.906,138.941 150.906,139.59 L150.906,143 L150.07,143 L150.07,139.634 C150.07,138.941 149.729,138.556 149.124,138.556 C148.739,138.556 148.398,138.71 148.134,139.007 C147.881,139.293 147.804,139.546 147.804,140.03 L147.804,143 L146.968,143 L146.968,135.663 L147.804,135.663 Z M158.045,137.808 C159.541,137.808 160.608,138.919 160.608,140.481 C160.608,141.966 159.464,143.121 158.012,143.121 C156.505,143.121 155.449,142.021 155.449,140.459 C155.449,138.886 156.505,137.808 158.045,137.808 Z M158.045,138.578 C157,138.578 156.307,139.337 156.307,140.47 C156.307,141.592 157,142.351 158.034,142.351 C159.035,142.351 159.75,141.57 159.75,140.47 C159.75,139.337 159.068,138.578 158.045,138.578 Z M162.808,138.666 L162.808,143 L161.972,143 L161.972,138.666 L161.279,138.666 L161.279,137.929 L161.972,137.929 L161.972,137.247 C161.972,136.246 162.489,135.652 163.369,135.652 C163.413,135.652 163.512,135.652 163.6,135.663 L163.6,136.411 C162.995,136.477 162.83,136.653 162.808,137.247 L162.808,137.929 L163.6,137.929 L163.6,138.666 L162.808,138.666 Z M168.869,143 L168.033,143 L168.033,135.663 L168.869,135.663 L168.869,143 Z M175.26,140.734 L171.036,140.734 C171.08,141.163 171.157,141.383 171.366,141.658 C171.696,142.109 172.18,142.351 172.73,142.351 C173.357,142.351 173.951,142.01 174.248,141.482 L174.985,141.757 C174.567,142.604 173.698,143.121 172.73,143.121 C171.223,143.121 170.145,142.021 170.145,140.481 C170.145,138.919 171.212,137.808 172.697,137.808 C174.171,137.808 175.271,138.919 175.271,140.404 C175.271,140.47 175.271,140.613 175.26,140.734 Z M171.047,140.118 L174.38,140.118 C174.347,139.722 174.27,139.502 174.094,139.249 C173.775,138.82 173.258,138.556 172.697,138.556 C172.136,138.556 171.63,138.82 171.333,139.26 C171.179,139.502 171.113,139.711 171.047,140.118 Z M177.405,138.666 L177.405,143 L176.569,143 L176.569,138.666 L175.876,138.666 L175.876,137.929 L176.569,137.929 L176.569,137.247 C176.569,136.246 177.086,135.652 177.966,135.652 C178.01,135.652 178.109,135.652 178.197,135.663 L178.197,136.411 C177.592,136.477 177.427,136.653 177.405,137.247 L177.405,137.929 L178.197,137.929 L178.197,138.666 L177.405,138.666 Z M180.221,138.666 L180.221,141.966 C180.232,142.219 180.298,142.274 180.606,142.274 L180.991,142.274 L180.991,143 L180.21,143 C179.616,142.989 179.385,142.769 179.385,142.208 L179.385,138.666 L178.681,138.666 L178.681,137.929 L179.385,137.929 L179.385,136.334 L180.221,136.334 L180.221,137.929 L180.991,137.929 L180.991,138.666 L180.221,138.666 Z M183.62,139.953 L183.62,140.712 L181.343,140.712 L181.343,139.953 L183.62,139.953 Z M184.456,137.929 L185.292,137.929 L185.292,138.853 C185.776,138.105 186.293,137.808 187.14,137.808 C188.548,137.808 189.527,138.886 189.527,140.426 C189.527,142.021 188.548,143.121 187.14,143.121 C186.744,143.121 186.381,143.033 186.029,142.857 C185.721,142.703 185.567,142.571 185.292,142.208 L185.292,145.376 L184.456,145.376 L184.456,137.929 Z M186.997,138.556 C185.985,138.556 185.292,139.359 185.292,140.547 C185.292,141.658 185.963,142.395 186.964,142.395 C187.965,142.395 188.636,141.614 188.636,140.459 C188.636,139.865 188.493,139.414 188.196,139.084 C187.899,138.754 187.448,138.556 186.997,138.556 Z M194.62,138.765 L194.62,137.929 L195.456,137.929 L195.456,143 L194.62,143 L194.62,142.021 C194.114,142.78 193.542,143.121 192.772,143.121 C191.375,143.121 190.385,142.021 190.385,140.481 C190.385,138.93 191.397,137.808 192.794,137.808 C193.564,137.808 194.125,138.105 194.62,138.765 Z M192.915,138.556 C192.365,138.556 191.98,138.743 191.683,139.161 C191.419,139.524 191.265,140.008 191.265,140.503 C191.265,141.581 191.969,142.395 192.893,142.395 C193.85,142.395 194.631,141.504 194.631,140.415 C194.631,139.315 193.927,138.556 192.915,138.556 Z M197.139,137.929 L197.975,137.929 L197.975,138.644 C198.415,138.05 198.855,137.808 199.482,137.808 C199.944,137.808 200.362,137.962 200.659,138.226 C200.978,138.534 201.088,138.886 201.088,139.579 L201.088,143 L200.252,143 L200.252,139.766 C200.252,139.315 200.197,139.073 200.065,138.897 C199.911,138.688 199.614,138.556 199.273,138.556 C198.899,138.556 198.558,138.699 198.305,138.985 C198.063,139.249 197.975,139.491 197.975,139.909 L197.975,143 L197.139,143 L197.139,137.929 Z M207.446,140.734 L203.222,140.734 C203.266,141.163 203.343,141.383 203.552,141.658 C203.882,142.109 204.366,142.351 204.916,142.351 C205.543,142.351 206.137,142.01 206.434,141.482 L207.171,141.757 C206.753,142.604 205.884,143.121 204.916,143.121 C203.409,143.121 202.331,142.021 202.331,140.481 C202.331,138.919 203.398,137.808 204.883,137.808 C206.357,137.808 207.457,138.919 207.457,140.404 C207.457,140.47 207.457,140.613 207.446,140.734 Z M203.233,140.118 L206.566,140.118 C206.533,139.722 206.456,139.502 206.28,139.249 C205.961,138.82 205.444,138.556 204.883,138.556 C204.322,138.556 203.816,138.82 203.519,139.26 C203.365,139.502 203.299,139.711 203.233,140.118 Z M209.69,142.142 L208.579,144.749 L207.974,144.562 L208.898,141.889 L209.69,142.142 Z M209.162,138.831 C209.492,138.831 209.734,139.073 209.734,139.414 C209.734,139.733 209.481,139.975 209.162,139.975 C208.832,139.975 208.59,139.733 208.59,139.403 C208.59,139.073 208.832,138.831 209.162,138.831 Z M215.344,135.663 L215.344,138.633 C215.806,138.061 216.268,137.808 216.873,137.808 C217.313,137.808 217.775,137.984 218.05,138.27 C218.325,138.545 218.446,138.941 218.446,139.59 L218.446,143 L217.61,143 L217.61,139.634 C217.61,138.941 217.269,138.556 216.664,138.556 C216.279,138.556 215.938,138.71 215.674,139.007 C215.421,139.293 215.344,139.546 215.344,140.03 L215.344,143 L214.508,143 L214.508,135.663 L215.344,135.663 Z M222.285,137.808 C223.781,137.808 224.848,138.919 224.848,140.481 C224.848,141.966 223.704,143.121 222.252,143.121 C220.745,143.121 219.689,142.021 219.689,140.459 C219.689,138.886 220.745,137.808 222.285,137.808 Z M222.285,138.578 C221.24,138.578 220.547,139.337 220.547,140.47 C220.547,141.592 221.24,142.351 222.274,142.351 C223.275,142.351 223.99,141.57 223.99,140.47 C223.99,139.337 223.308,138.578 222.285,138.578 Z M226.124,137.929 L226.96,137.929 L226.96,138.787 C227.114,138.424 227.224,138.27 227.422,138.116 C227.675,137.918 228.027,137.808 228.39,137.808 L228.588,137.808 L228.588,138.655 C228.5,138.644 228.412,138.644 228.357,138.644 C227.906,138.644 227.51,138.853 227.257,139.227 C227.037,139.546 226.96,139.843 226.96,140.426 L226.96,143 L226.124,143 L226.124,137.929 Z M230.458,137.929 L230.458,143 L229.622,143 L229.622,137.929 L230.458,137.929 Z M230.051,135.96 C230.348,135.96 230.579,136.202 230.579,136.51 C230.579,136.807 230.337,137.038 230.04,137.038 C229.743,137.038 229.512,136.807 229.512,136.499 C229.512,136.191 229.743,135.96 230.051,135.96 Z M232.955,142.263 L235.287,142.263 L235.287,143 L231.547,143 L234.187,138.666 L231.833,138.666 L231.833,137.929 L235.562,137.929 L232.955,142.263 Z M238.741,137.808 C240.237,137.808 241.304,138.919 241.304,140.481 C241.304,141.966 240.16,143.121 238.708,143.121 C237.201,143.121 236.145,142.021 236.145,140.459 C236.145,138.886 237.201,137.808 238.741,137.808 Z M238.741,138.578 C237.696,138.578 237.003,139.337 237.003,140.47 C237.003,141.592 237.696,142.351 238.73,142.351 C239.731,142.351 240.446,141.57 240.446,140.47 C240.446,139.337 239.764,138.578 238.741,138.578 Z M242.58,137.929 L243.416,137.929 L243.416,138.644 C243.856,138.05 244.296,137.808 244.923,137.808 C245.385,137.808 245.803,137.962 246.1,138.226 C246.419,138.534 246.529,138.886 246.529,139.579 L246.529,143 L245.693,143 L245.693,139.766 C245.693,139.315 245.638,139.073 245.506,138.897 C245.352,138.688 245.055,138.556 244.714,138.556 C244.34,138.556 243.999,138.699 243.746,138.985 C243.504,139.249 243.416,139.491 243.416,139.909 L243.416,143 L242.58,143 L242.58,137.929 Z M249.07,138.666 L249.07,141.966 C249.081,142.219 249.147,142.274 249.455,142.274 L249.84,142.274 L249.84,143 L249.059,143 C248.465,142.989 248.234,142.769 248.234,142.208 L248.234,138.666 L247.53,138.666 L247.53,137.929 L248.234,137.929 L248.234,136.334 L249.07,136.334 L249.07,137.929 L249.84,137.929 L249.84,138.666 L249.07,138.666 Z M254.856,138.765 L254.856,137.929 L255.692,137.929 L255.692,143 L254.856,143 L254.856,142.021 C254.35,142.78 253.778,143.121 253.008,143.121 C251.611,143.121 250.621,142.021 250.621,140.481 C250.621,138.93 251.633,137.808 253.03,137.808 C253.8,137.808 254.361,138.105 254.856,138.765 Z M253.151,138.556 C252.601,138.556 252.216,138.743 251.919,139.161 C251.655,139.524 251.501,140.008 251.501,140.503 C251.501,141.581 252.205,142.395 253.129,142.395 C254.086,142.395 254.867,141.504 254.867,140.415 C254.867,139.315 254.163,138.556 253.151,138.556 Z M258.211,143 L257.375,143 L257.375,135.663 L258.211,135.663 L258.211,143 Z M260.73,143 L259.894,143 L259.894,135.663 L260.73,135.663 L260.73,143 Z M263.898,141.691 L265.416,137.929 L266.329,137.929 L263.304,145.442 L262.391,145.442 L263.447,142.846 L261.643,137.929 L262.534,137.929 L263.898,141.691 Z M273.963,141.801 L274.48,142.373 C273.908,142.89 273.347,143.121 272.61,143.121 C271.158,143.121 270.124,142.021 270.124,140.481 C270.124,138.908 271.169,137.808 272.654,137.808 C273.38,137.808 273.974,138.05 274.502,138.567 L273.963,139.106 C273.578,138.754 273.149,138.578 272.676,138.578 C271.675,138.578 270.982,139.348 270.982,140.448 C270.982,141.57 271.675,142.351 272.665,142.351 C273.16,142.351 273.556,142.186 273.963,141.801 Z M280.266,140.734 L276.042,140.734 C276.086,141.163 276.163,141.383 276.372,141.658 C276.702,142.109 277.186,142.351 277.736,142.351 C278.363,142.351 278.957,142.01 279.254,141.482 L279.991,141.757 C279.573,142.604 278.704,143.121 277.736,143.121 C276.229,143.121 275.151,142.021 275.151,140.481 C275.151,138.919 276.218,137.808 277.703,137.808 C279.177,137.808 280.277,138.919 280.277,140.404 C280.277,140.47 280.277,140.613 280.266,140.734 Z M276.053,140.118 L279.386,140.118 C279.353,139.722 279.276,139.502 279.1,139.249 C278.781,138.82 278.264,138.556 277.703,138.556 C277.142,138.556 276.636,138.82 276.339,139.26 C276.185,139.502 276.119,139.711 276.053,140.118 Z M281.487,137.929 L282.323,137.929 L282.323,138.644 C282.763,138.05 283.203,137.808 283.83,137.808 C284.292,137.808 284.71,137.962 285.007,138.226 C285.326,138.534 285.436,138.886 285.436,139.579 L285.436,143 L284.6,143 L284.6,139.766 C284.6,139.315 284.545,139.073 284.413,138.897 C284.259,138.688 283.962,138.556 283.621,138.556 C283.247,138.556 282.906,138.699 282.653,138.985 C282.411,139.249 282.323,139.491 282.323,139.909 L282.323,143 L281.487,143 L281.487,137.929 Z M287.977,138.666 L287.977,141.966 C287.988,142.219 288.054,142.274 288.362,142.274 L288.747,142.274 L288.747,143 L287.966,143 C287.372,142.989 287.141,142.769 287.141,142.208 L287.141,138.666 L286.437,138.666 L286.437,137.929 L287.141,137.929 L287.141,136.334 L287.977,136.334 L287.977,137.929 L288.747,137.929 L288.747,138.666 L287.977,138.666 Z M294.643,140.734 L290.419,140.734 C290.463,141.163 290.54,141.383 290.749,141.658 C291.079,142.109 291.563,142.351 292.113,142.351 C292.74,142.351 293.334,142.01 293.631,141.482 L294.368,141.757 C293.95,142.604 293.081,143.121 292.113,143.121 C290.606,143.121 289.528,142.021 289.528,140.481 C289.528,138.919 290.595,137.808 292.08,137.808 C293.554,137.808 294.654,138.919 294.654,140.404 C294.654,140.47 294.654,140.613 294.643,140.734 Z M290.43,140.118 L293.763,140.118 C293.73,139.722 293.653,139.502 293.477,139.249 C293.158,138.82 292.641,138.556 292.08,138.556 C291.519,138.556 291.013,138.82 290.716,139.26 C290.562,139.502 290.496,139.711 290.43,140.118 Z M295.864,137.929 L296.7,137.929 L296.7,138.787 C296.854,138.424 296.964,138.27 297.162,138.116 C297.415,137.918 297.767,137.808 298.13,137.808 L298.328,137.808 L298.328,138.655 C298.24,138.644 298.152,138.644 298.097,138.644 C297.646,138.644 297.25,138.853 296.997,139.227 C296.777,139.546 296.7,139.843 296.7,140.426 L296.7,143 L295.864,143 L295.864,137.929 Z M304.07,140.734 L299.846,140.734 C299.89,141.163 299.967,141.383 300.176,141.658 C300.506,142.109 300.99,142.351 301.54,142.351 C302.167,142.351 302.761,142.01 303.058,141.482 L303.795,141.757 C303.377,142.604 302.508,143.121 301.54,143.121 C300.033,143.121 298.955,142.021 298.955,140.481 C298.955,138.919 300.022,137.808 301.507,137.808 C302.981,137.808 304.081,138.919 304.081,140.404 C304.081,140.47 304.081,140.613 304.07,140.734 Z M299.857,140.118 L303.19,140.118 C303.157,139.722 303.08,139.502 302.904,139.249 C302.585,138.82 302.068,138.556 301.507,138.556 C300.946,138.556 300.44,138.82 300.143,139.26 C299.989,139.502 299.923,139.711 299.857,140.118 Z M309.086,138.699 L309.086,135.663 L309.922,135.663 L309.922,143 L309.086,143 L309.086,142.131 C308.58,142.824 308.041,143.121 307.271,143.121 C305.874,143.121 304.884,142.032 304.884,140.492 C304.884,138.952 305.896,137.808 307.271,137.808 C308.019,137.808 308.591,138.083 309.086,138.699 Z M307.447,138.556 C306.446,138.556 305.764,139.348 305.764,140.503 C305.764,141.614 306.435,142.395 307.392,142.395 C308.371,142.395 309.086,141.581 309.086,140.481 C309.086,139.337 308.415,138.556 307.447,138.556 Z"/>
      <g fill="#C41261" transform="translate(0 129)">
        <rect width="381" height="1" x="5" y="2"/>
        <polygon points="388.5 0 391 5 386 5" transform="rotate(90 388.5 2.5)"/>
        <polygon points="2.5 0 5 5 0 5" transform="matrix(0 1 1 0 0 0)"/>
      </g>
      <g fill="#C41261" transform="translate(0 52)">
        <rect width="1" height="9"/>
        <rect width="1" height="9" x="7"/>
        <rect width="6" height="1" x="1" y="4"/>
      </g>
      <g fill="#C41261" transform="translate(383 52)">
        <rect width="1" height="9"/>
        <rect width="1" height="9" x="7"/>
        <rect width="6" height="1" x="1" y="4"/>
      </g>
    </g>
  </g>
</svg>
