<svg xmlns="http://www.w3.org/2000/svg" xmlns:xlink="http://www.w3.org/1999/xlink" width="1024" height="180" viewBox="0 0 1024 180">
  <defs>
    <rect id="4-b" width="829" height="56" rx="14"/>
    <filter id="4-a" width="103%" height="144.6%" x="-1.5%" y="-20.5%" filterUnits="objectBoundingBox">
      <feOffset dy="1" in="SourceAlpha" result="shadowOffsetOuter1"/>
      <feGaussianBlur in="shadowOffsetOuter1" result="shadowBlurOuter1" stdDeviation="4"/>
      <feColorMatrix in="shadowBlurOuter1" result="shadowMatrixOuter1" values="0 0 0 0 0   0 0 0 0 0   0 0 0 0 0  0 0 0 0.2 0"/>
      <feMorphology in="SourceAlpha" radius="1" result="shadowSpreadOuter2"/>
      <feOffset dy="3" in="shadowSpreadOuter2" result="shadowOffsetOuter2"/>
      <feGaussianBlur in="shadowOffsetOuter2" result="shadowBlurOuter2" stdDeviation="1.5"/>
      <feColorMatrix in="shadowBlurOuter2" result="shadowMatrixOuter2" values="0 0 0 0 0   0 0 0 0 0   0 0 0 0 0  0 0 0 0.12 0"/>
      <feOffset dy="3" in="SourceAlpha" result="shadowOffsetOuter3"/>
      <feGaussianBlur in="shadowOffsetOuter3" result="shadowBlurOuter3" stdDeviation="2"/>
      <feColorMatrix in="shadowBlurOuter3" result="shadowMatrixOuter3" values="0 0 0 0 0   0 0 0 0 0   0 0 0 0 0  0 0 0 0.14 0"/>
      <feMerge>
        <feMergeNode in="shadowMatrixOuter1"/>
        <feMergeNode in="shadowMatrixOuter2"/>
        <feMergeNode in="shadowMatrixOuter3"/>
      </feMerge>
    </filter>
  </defs>
  <g fill="none" fill-rule="evenodd">
    <rect width="1024" height="180" fill="#FFF" fill-opacity=".01" fill-rule="nonzero"/>
    <g transform="translate(7)">
      <polyline fill="#FFF" fill-rule="nonzero" stroke="#979797" points="1009.876 0 1009.876 124 0 124 0 0 0 0" transform="translate(.062)"/>
      <g transform="translate(91 52)">
        <use fill="#000" filter="url(#4-a)" xlink:href="#4-b"/>
        <use fill="#F7F7F7" xlink:href="#4-b"/>
        <rect width="829" height="56" fill="#25333D" rx="14"/>
        <path fill="#89CBDF" fill-rule="nonzero" d="M9.12933047,12.8330078 L8.11663516,9.77001953 L3.70892031,9.77001953 L2.67962344,12.8330078 L0.513119534,12.8330078 L4.76311953,0.854980469 L7.1703461,0.854980469 L11.4286469,12.8330078 L9.12933047,12.8330078 Z M5.85052188,3.13769531 L4.20696719,8.07666016 L7.61858828,8.07666016 L5.99163516,3.13769531 L5.85052188,3.13769531 Z M20.2076117,6.80664062 L18.2486273,6.80664062 C18.0577094,5.92675781 17.3770453,5.29589844 16.2481391,5.29589844 C14.8370063,5.29589844 13.9986273,6.38330078 13.9986273,8.26757812 C13.9986273,10.1767578 14.845307,11.2890625 16.2481391,11.2890625 C17.3189398,11.2890625 18.032807,10.7827148 18.2486273,9.83642578 L20.2076117,9.83642578 C19.9834906,11.7373047 18.5557563,13.015625 16.2564398,13.015625 C13.5254828,13.015625 11.9151313,11.2558594 11.9151313,8.26757812 C11.9151313,5.32080078 13.517182,3.56933594 16.2481391,3.56933594 C18.5806586,3.56933594 19.9917914,4.89746094 20.2076117,6.80664062 Z M22.5368695,1.52734375 L24.5871625,1.52734375 L24.5871625,3.81005859 L26.5295453,3.81005859 L26.5295453,5.45361328 L24.5871625,5.45361328 L24.5871625,9.91113281 C24.5871625,10.8076172 24.9689984,11.2060547 25.8322797,11.2060547 C26.122807,11.2060547 26.2805219,11.1894531 26.5295453,11.1645508 L26.5295453,12.7749023 C26.2307172,12.8330078 25.8488813,12.8745117 25.4504438,12.8745117 C23.3669477,12.8745117 22.5368695,12.1689453 22.5368695,10.4091797 L22.5368695,5.45361328 L21.1008344,5.45361328 L21.1008344,3.81005859 L22.5368695,3.81005859 L22.5368695,1.52734375 Z M28.2030414,12.8330078 L28.2030414,3.75195312 L30.2533344,3.75195312 L30.2533344,12.8330078 L28.2030414,12.8330078 Z M29.2240375,2.27441406 C28.4769672,2.27441406 27.954018,1.79296875 27.954018,1.13720703 C27.954018,0.481445312 28.4769672,0 29.2240375,0 C29.9794086,0 30.494057,0.481445312 30.494057,1.13720703 C30.494057,1.79296875 29.9794086,2.27441406 29.2240375,2.27441406 Z M36.309643,13.015625 C33.5869867,13.015625 31.943432,11.2392578 31.943432,8.29248047 C31.943432,5.36230469 33.6118891,3.56933594 36.309643,3.56933594 C39.0156977,3.56933594 40.6758539,5.35400391 40.6758539,8.29248047 C40.6758539,11.2392578 39.0239985,13.015625 36.309643,13.015625 Z M36.309643,11.2890625 C37.7456781,11.2890625 38.5591547,10.1933594 38.5591547,8.29248047 C38.5591547,6.39990234 37.7373774,5.29589844 36.309643,5.29589844 C34.8736078,5.29589844 34.0518305,6.39990234 34.0518305,8.29248047 C34.0518305,10.1933594 34.8736078,11.2890625 36.309643,11.2890625 Z M42.3410492,12.8330078 L42.3410492,3.75195312 L44.324936,3.75195312 L44.324936,5.20458984 L44.4660492,5.20458984 C44.8976899,4.19189453 45.8107758,3.56933594 47.1638031,3.56933594 C49.1891938,3.56933594 50.2931977,4.78955078 50.2931977,6.95605469 L50.2931977,12.8330078 L48.2346039,12.8330078 L48.2346039,7.44580078 C48.2346039,6.05957031 47.6535492,5.36230469 46.4001313,5.36230469 C45.1716156,5.36230469 44.399643,6.20898438 44.399643,7.54541016 L44.399643,12.8330078 L42.3410492,12.8330078 Z" transform="translate(762.487 21)"/>
        <path fill="#FFF" fill-rule="nonzero" d="M16.8984375,30.0546875 L18.3203125,30.0546875 C18.4921875,31.234375 19.6171875,31.984375 21.21875,31.984375 C22.734375,31.984375 23.8515625,31.1640625 23.8515625,30.046875 C23.8515625,29.0859375 23.1484375,28.4765625 21.59375,28.0859375 L20.1484375,27.7109375 C18.109375,27.1953125 17.2265625,26.2734375 17.2265625,24.671875 C17.2265625,22.7578125 18.828125,21.4609375 21.2109375,21.4609375 C23.390625,21.4609375 25.015625,22.7578125 25.1328125,24.578125 L23.71875,24.578125 C23.5234375,23.421875 22.5703125,22.734375 21.1640625,22.734375 C19.6640625,22.734375 18.671875,23.484375 18.671875,24.625 C18.671875,25.5078125 19.2890625,26.015625 20.84375,26.4140625 L22.0234375,26.7265625 C24.359375,27.3125 25.296875,28.21875 25.296875,29.875 C25.296875,31.9453125 23.6640625,33.265625 21.0859375,33.265625 C18.6953125,33.265625 17.046875,32 16.8984375,30.0546875 Z M27.1721875,33 L27.1721875,24.578125 L28.5159375,24.578125 L28.5159375,33 L27.1721875,33 Z M27.8440625,22.8671875 C27.3284375,22.8671875 26.9065625,22.4453125 26.9065625,21.9296875 C26.9065625,21.4140625 27.3284375,20.9921875 27.8440625,20.9921875 C28.3596875,20.9921875 28.7815625,21.4140625 28.7815625,21.9296875 C28.7815625,22.4453125 28.3596875,22.8671875 27.8440625,22.8671875 Z M30.7584375,33 L30.7584375,24.578125 L32.0396875,24.578125 L32.0396875,25.90625 L32.1646875,25.90625 C32.5865625,24.9765625 33.406875,24.4296875 34.6959375,24.4296875 C36.5865625,24.4296875 37.64125,25.546875 37.64125,27.546875 L37.64125,33 L36.2975,33 L36.2975,27.875 C36.2975,26.359375 35.656875,25.640625 34.313125,25.640625 C32.969375,25.640625 32.1021875,26.5390625 32.1021875,28.015625 L32.1021875,33 L30.7584375,33 Z M43.180625,31.6875 C44.743125,31.6875 45.680625,30.5 45.680625,28.6640625 C45.680625,26.828125 44.7353125,25.640625 43.180625,25.640625 C41.618125,25.640625 40.743125,26.828125 40.743125,28.6640625 C40.743125,30.5 41.618125,31.6875 43.180625,31.6875 Z M43.243125,36.234375 C41.211875,36.234375 39.915,35.3203125 39.711875,33.9296875 L41.13375,33.9296875 C41.2821875,34.6171875 42.0321875,35.0625 43.243125,35.0625 C44.7509375,35.0625 45.649375,34.3203125 45.649375,33.078125 L45.649375,31.421875 L45.524375,31.421875 C44.993125,32.3515625 44.04,32.875 42.88375,32.875 C40.7040625,32.875 39.3525,31.1875 39.3525,28.6640625 C39.3525,26.140625 40.7196875,24.4296875 42.88375,24.4296875 C44.0634375,24.4296875 45.1025,25.0078125 45.586875,25.9140625 L45.711875,25.9140625 L45.711875,24.578125 L46.993125,24.578125 L46.993125,33.1484375 C46.993125,35.03125 45.54,36.234375 43.243125,36.234375 Z M49.2825,33 L49.2825,21.234375 L50.62625,21.234375 L50.62625,33 L49.2825,33 Z M56.275,25.6171875 C54.93125,25.6171875 53.99375,26.6015625 53.8921875,28.09375 L58.5328125,28.09375 C58.5015625,26.6015625 57.6109375,25.6171875 56.275,25.6171875 Z M58.49375,30.8203125 L59.8375,30.8203125 C59.43125,32.265625 58.134375,33.1484375 56.290625,33.1484375 C53.9546875,33.1484375 52.49375,31.4609375 52.49375,28.796875 C52.49375,26.1484375 53.978125,24.4296875 56.290625,24.4296875 C58.5640625,24.4296875 59.946875,26.046875 59.946875,28.6640625 L59.946875,29.1796875 L53.8921875,29.1796875 L53.8921875,29.2421875 C53.9625,30.90625 54.8921875,31.9609375 56.321875,31.9609375 C57.4078125,31.9609375 58.1421875,31.5625 58.49375,30.8203125 Z M66.0100001,33 L66.0100001,21.234375 L67.3537501,21.234375 L67.3537501,33 L66.0100001,33 Z M69.6743751,33 L69.6743751,24.578125 L71.0181251,24.578125 L71.0181251,33 L69.6743751,33 Z M70.3462501,22.8671875 C69.8306251,22.8671875 69.4087501,22.4453125 69.4087501,21.9296875 C69.4087501,21.4140625 69.8306251,20.9921875 70.3462501,20.9921875 C70.8618751,20.9921875 71.2837501,21.4140625 71.2837501,21.9296875 C71.2837501,22.4453125 70.8618751,22.8671875 70.3462501,22.8671875 Z M73.2606251,33 L73.2606251,24.578125 L74.5418751,24.578125 L74.5418751,25.90625 L74.6668751,25.90625 C75.0887501,24.9765625 75.9090626,24.4296875 77.1981251,24.4296875 C79.0887501,24.4296875 80.1434376,25.546875 80.1434376,27.546875 L80.1434376,33 L78.7996876,33 L78.7996876,27.875 C78.7996876,26.359375 78.1590626,25.640625 76.8153126,25.640625 C75.4715626,25.640625 74.6043751,26.5390625 74.6043751,28.015625 L74.6043751,33 L73.2606251,33 Z M85.6359376,25.6171875 C84.2921876,25.6171875 83.3546876,26.6015625 83.2531251,28.09375 L87.8937501,28.09375 C87.8625001,26.6015625 86.9718751,25.6171875 85.6359376,25.6171875 Z M87.8546876,30.8203125 L89.1984376,30.8203125 C88.7921876,32.265625 87.4953126,33.1484375 85.6515626,33.1484375 C83.3156251,33.1484375 81.8546876,31.4609375 81.8546876,28.796875 C81.8546876,26.1484375 83.3390626,24.4296875 85.6515626,24.4296875 C87.9250001,24.4296875 89.3078126,26.046875 89.3078126,28.6640625 L89.3078126,29.1796875 L83.2531251,29.1796875 L83.2531251,29.2421875 C83.3234376,30.90625 84.2531251,31.9609375 85.6828126,31.9609375 C86.7687501,31.9609375 87.5031251,31.5625 87.8546876,30.8203125 Z M95.2928126,33 L95.2928126,24.578125 L96.5740626,24.578125 L96.5740626,25.90625 L96.6990626,25.90625 C97.0818751,24.96875 97.9256251,24.4296875 99.0506251,24.4296875 C100.19125,24.4296875 100.988125,25.03125 101.37875,25.90625 L101.50375,25.90625 C101.956875,25.015625 102.917813,24.4296875 104.081875,24.4296875 C105.800625,24.4296875 106.761563,25.4140625 106.761563,27.1796875 L106.761563,33 L105.417813,33 L105.417813,27.4921875 C105.417813,26.25 104.831875,25.640625 103.644375,25.640625 C102.4725,25.640625 101.69125,26.515625 101.69125,27.5859375 L101.69125,33 L100.3475,33 L100.3475,27.28125 C100.3475,26.28125 99.6521876,25.640625 98.5896876,25.640625 C97.4881251,25.640625 96.6365626,26.59375 96.6365626,27.78125 L96.6365626,33 L95.2928126,33 Z M112.254063,25.6171875 C110.910313,25.6171875 109.972813,26.6015625 109.87125,28.09375 L114.511875,28.09375 C114.480625,26.6015625 113.59,25.6171875 112.254063,25.6171875 Z M114.472813,30.8203125 L115.816563,30.8203125 C115.410313,32.265625 114.113438,33.1484375 112.269688,33.1484375 C109.93375,33.1484375 108.472813,31.4609375 108.472813,28.796875 C108.472813,26.1484375 109.957188,24.4296875 112.269688,24.4296875 C114.543125,24.4296875 115.925938,26.046875 115.925938,28.6640625 L115.925938,29.1796875 L109.87125,29.1796875 L109.87125,29.2421875 C109.941563,30.90625 110.87125,31.9609375 112.300938,31.9609375 C113.386875,31.9609375 114.12125,31.5625 114.472813,30.8203125 Z M117.52,26.8828125 C117.52,25.484375 118.871563,24.4296875 120.660625,24.4296875 C122.42625,24.4296875 123.652813,25.3046875 123.8325,26.6875 L122.504375,26.6875 C122.324688,26.015625 121.668438,25.5703125 120.652813,25.5703125 C119.652813,25.5703125 118.871563,26.078125 118.871563,26.828125 C118.871563,27.40625 119.340313,27.765625 120.3325,28.0078125 L121.629375,28.3203125 C123.215313,28.703125 123.980938,29.390625 123.980938,30.6015625 C123.980938,32.109375 122.52,33.1484375 120.605938,33.1484375 C118.730938,33.1484375 117.441875,32.25 117.293438,30.8515625 L118.67625,30.8515625 C118.902813,31.5625 119.574688,32.015625 120.652813,32.015625 C121.785625,32.015625 122.598125,31.4765625 122.598125,30.703125 C122.598125,30.125 122.160625,29.734375 121.262188,29.515625 L119.816875,29.1640625 C118.23875,28.78125 117.52,28.1015625 117.52,26.8828125 Z M125.41875,26.8828125 C125.41875,25.484375 126.770313,24.4296875 128.559375,24.4296875 C130.325,24.4296875 131.551563,25.3046875 131.73125,26.6875 L130.403125,26.6875 C130.223438,26.015625 129.567188,25.5703125 128.551563,25.5703125 C127.551563,25.5703125 126.770313,26.078125 126.770313,26.828125 C126.770313,27.40625 127.239063,27.765625 128.23125,28.0078125 L129.528125,28.3203125 C131.114063,28.703125 131.879688,29.390625 131.879688,30.6015625 C131.879688,32.109375 130.41875,33.1484375 128.504688,33.1484375 C126.629688,33.1484375 125.340625,32.25 125.192188,30.8515625 L126.575,30.8515625 C126.801563,31.5625 127.473438,32.015625 128.551563,32.015625 C129.684375,32.015625 130.496875,31.4765625 130.496875,30.703125 C130.496875,30.125 130.059375,29.734375 129.160938,29.515625 L127.715625,29.1640625 C126.1375,28.78125 125.41875,28.1015625 125.41875,26.8828125 Z M136.262813,31.96875 C137.645625,31.96875 138.669063,31.0625 138.669063,29.859375 L138.669063,29.0859375 L136.403438,29.234375 C135.122188,29.3203125 134.559688,29.765625 134.559688,30.609375 C134.559688,31.46875 135.28625,31.96875 136.262813,31.96875 Z M136.012813,33.1484375 C134.38,33.1484375 133.169063,32.1796875 133.169063,30.640625 C133.169063,29.1328125 134.278438,28.265625 136.239375,28.1484375 L138.669063,28 L138.669063,27.234375 C138.669063,26.1953125 138.020625,25.625 136.762813,25.625 C135.755,25.625 135.051875,26.0078125 134.864375,26.671875 L133.505,26.671875 C133.684688,25.3203125 135.012813,24.4296875 136.809688,24.4296875 C138.864375,24.4296875 140.012813,25.484375 140.012813,27.234375 L140.012813,33 L138.731563,33 L138.731563,31.7578125 L138.606563,31.7578125 C138.059688,32.65625 137.137813,33.1484375 136.012813,33.1484375 Z M145.583438,31.6875 C147.145938,31.6875 148.083438,30.5 148.083438,28.6640625 C148.083438,26.828125 147.138125,25.640625 145.583438,25.640625 C144.020938,25.640625 143.145938,26.828125 143.145938,28.6640625 C143.145938,30.5 144.020938,31.6875 145.583438,31.6875 Z M145.645938,36.234375 C143.614688,36.234375 142.317813,35.3203125 142.114688,33.9296875 L143.536563,33.9296875 C143.685,34.6171875 144.435,35.0625 145.645938,35.0625 C147.15375,35.0625 148.052188,34.3203125 148.052188,33.078125 L148.052188,31.421875 L147.927188,31.421875 C147.395938,32.3515625 146.442813,32.875 145.286563,32.875 C143.106875,32.875 141.755313,31.1875 141.755313,28.6640625 C141.755313,26.140625 143.1225,24.4296875 145.286563,24.4296875 C146.46625,24.4296875 147.505313,25.0078125 147.989688,25.9140625 L148.114688,25.9140625 L148.114688,24.578125 L149.395938,24.578125 L149.395938,33.1484375 C149.395938,35.03125 147.942813,36.234375 145.645938,36.234375 Z M154.966563,25.6171875 C153.622813,25.6171875 152.685313,26.6015625 152.58375,28.09375 L157.224375,28.09375 C157.193125,26.6015625 156.3025,25.6171875 154.966563,25.6171875 Z M157.185313,30.8203125 L158.529063,30.8203125 C158.122813,32.265625 156.825938,33.1484375 154.982188,33.1484375 C152.64625,33.1484375 151.185313,31.4609375 151.185313,28.796875 C151.185313,26.1484375 152.669688,24.4296875 154.982188,24.4296875 C157.255625,24.4296875 158.638438,26.046875 158.638438,28.6640625 L158.638438,29.1796875 L152.58375,29.1796875 L152.58375,29.2421875 C152.654063,30.90625 153.58375,31.9609375 155.013438,31.9609375 C156.099375,31.9609375 156.83375,31.5625 157.185313,30.8203125 Z"/>
      </g>
      <path fill="#C41261" fill-rule="nonzero" d="M24.747,74.994 L23.13,76.072 L23.13,75.236 L25.616,73.608 L25.616,81 L24.747,81 L24.747,74.994 Z M31.501,73.773 L29.62,76.71 C29.928,76.6 30.071,76.567 30.335,76.567 C31.556,76.567 32.502,77.524 32.502,78.767 C32.502,80.065 31.435,81.132 30.137,81.132 C28.828,81.132 27.816,80.098 27.816,78.767 C27.816,78.228 27.959,77.821 28.377,77.15 L30.478,73.773 L31.501,73.773 Z M30.181,77.315 C29.345,77.315 28.685,77.953 28.685,78.767 C28.685,79.625 29.334,80.307 30.159,80.307 C30.984,80.307 31.644,79.636 31.644,78.8 C31.644,77.975 30.995,77.315 30.181,77.315 Z M33.745,75.929 L34.581,75.929 L34.581,76.853 C35.065,76.105 35.582,75.808 36.429,75.808 C37.837,75.808 38.816,76.886 38.816,78.426 C38.816,80.021 37.837,81.121 36.429,81.121 C36.033,81.121 35.67,81.033 35.318,80.857 C35.01,80.703 34.856,80.571 34.581,80.208 L34.581,83.376 L33.745,83.376 L33.745,75.929 Z M36.286,76.556 C35.274,76.556 34.581,77.359 34.581,78.547 C34.581,79.658 35.252,80.395 36.253,80.395 C37.254,80.395 37.925,79.614 37.925,78.459 C37.925,77.865 37.782,77.414 37.485,77.084 C37.188,76.754 36.737,76.556 36.286,76.556 Z M41.698,79.163 L40.345,81 L39.322,81 L41.192,78.481 L39.289,75.929 L40.345,75.929 L41.698,77.788 L43.084,75.929 L44.107,75.929 L42.193,78.481 L44.019,81 L42.996,81 L41.698,79.163 Z M49.123,80.131 L49.123,81 L48.287,81 L48.287,73.663 L49.123,73.663 L49.123,76.798 C49.629,76.105 50.168,75.808 50.905,75.808 C52.324,75.808 53.314,76.908 53.314,78.481 C53.314,80.032 52.335,81.121 50.949,81.121 C50.168,81.121 49.618,80.824 49.123,80.131 Z M50.795,76.556 C49.827,76.556 49.112,77.359 49.112,78.47 C49.112,79.625 49.772,80.395 50.762,80.395 C51.763,80.395 52.434,79.636 52.434,78.503 C52.434,77.37 51.752,76.556 50.795,76.556 Z M56.779,75.808 C58.275,75.808 59.342,76.919 59.342,78.481 C59.342,79.966 58.198,81.121 56.746,81.121 C55.239,81.121 54.183,80.021 54.183,78.459 C54.183,76.886 55.239,75.808 56.779,75.808 Z M56.779,76.578 C55.734,76.578 55.041,77.337 55.041,78.47 C55.041,79.592 55.734,80.351 56.768,80.351 C57.769,80.351 58.484,79.57 58.484,78.47 C58.484,77.337 57.802,76.578 56.779,76.578 Z M61.509,76.666 L61.509,79.966 C61.52,80.219 61.586,80.274 61.894,80.274 L62.279,80.274 L62.279,81 L61.498,81 C60.904,80.989 60.673,80.769 60.673,80.208 L60.673,76.666 L59.969,76.666 L59.969,75.929 L60.673,75.929 L60.673,74.334 L61.509,74.334 L61.509,75.929 L62.279,75.929 L62.279,76.666 L61.509,76.666 Z M64.358,76.666 L64.358,79.966 C64.369,80.219 64.435,80.274 64.743,80.274 L65.128,80.274 L65.128,81 L64.347,81 C63.753,80.989 63.522,80.769 63.522,80.208 L63.522,76.666 L62.818,76.666 L62.818,75.929 L63.522,75.929 L63.522,74.334 L64.358,74.334 L64.358,75.929 L65.128,75.929 L65.128,76.666 L64.358,76.666 Z M68.505,75.808 C70.001,75.808 71.068,76.919 71.068,78.481 C71.068,79.966 69.924,81.121 68.472,81.121 C66.965,81.121 65.909,80.021 65.909,78.459 C65.909,76.886 66.965,75.808 68.505,75.808 Z M68.505,76.578 C67.46,76.578 66.767,77.337 66.767,78.47 C66.767,79.592 67.46,80.351 68.494,80.351 C69.495,80.351 70.21,79.57 70.21,78.47 C70.21,77.337 69.528,76.578 68.505,76.578 Z M72.344,75.929 L73.18,75.929 L73.18,76.633 C73.565,76.05 73.994,75.808 74.621,75.808 C75.314,75.808 75.754,76.105 75.985,76.732 C76.359,76.083 76.832,75.808 77.591,75.808 C78.174,75.808 78.614,75.995 78.878,76.347 C79.12,76.666 79.186,76.952 79.186,77.755 L79.186,81 L78.35,81 L78.35,77.953 C78.35,77.337 78.328,77.194 78.207,76.985 C78.053,76.721 77.723,76.556 77.327,76.556 C76.59,76.556 76.183,77.051 76.183,77.953 L76.183,81 L75.347,81 L75.347,77.964 C75.347,77.469 75.303,77.216 75.182,76.996 C75.039,76.71 74.731,76.556 74.357,76.556 C73.62,76.556 73.18,77.084 73.18,77.964 L73.18,81 L72.344,81 L72.344,75.929 Z M41.137,86.929 L41.973,86.929 L41.973,87.853 C42.457,87.105 42.974,86.808 43.821,86.808 C45.229,86.808 46.208,87.886 46.208,89.426 C46.208,91.021 45.229,92.121 43.821,92.121 C43.425,92.121 43.062,92.033 42.71,91.857 C42.402,91.703 42.248,91.571 41.973,91.208 L41.973,94.376 L41.137,94.376 L41.137,86.929 Z M43.678,87.556 C42.666,87.556 41.973,88.359 41.973,89.547 C41.973,90.658 42.644,91.395 43.645,91.395 C44.646,91.395 45.317,90.614 45.317,89.459 C45.317,88.865 45.174,88.414 44.877,88.084 C44.58,87.754 44.129,87.556 43.678,87.556 Z M51.301,87.765 L51.301,86.929 L52.137,86.929 L52.137,92 L51.301,92 L51.301,91.021 C50.795,91.78 50.223,92.121 49.453,92.121 C48.056,92.121 47.066,91.021 47.066,89.481 C47.066,87.93 48.078,86.808 49.475,86.808 C50.245,86.808 50.806,87.105 51.301,87.765 Z M49.596,87.556 C49.046,87.556 48.661,87.743 48.364,88.161 C48.1,88.524 47.946,89.008 47.946,89.503 C47.946,90.581 48.65,91.395 49.574,91.395 C50.531,91.395 51.312,90.504 51.312,89.415 C51.312,88.315 50.608,87.556 49.596,87.556 Z M57.615,87.699 L57.615,84.663 L58.451,84.663 L58.451,92 L57.615,92 L57.615,91.131 C57.109,91.824 56.57,92.121 55.8,92.121 C54.403,92.121 53.413,91.032 53.413,89.492 C53.413,87.952 54.425,86.808 55.8,86.808 C56.548,86.808 57.12,87.083 57.615,87.699 Z M55.976,87.556 C54.975,87.556 54.293,88.348 54.293,89.503 C54.293,90.614 54.964,91.395 55.921,91.395 C56.9,91.395 57.615,90.581 57.615,89.481 C57.615,88.337 56.944,87.556 55.976,87.556 Z M63.929,87.699 L63.929,84.663 L64.765,84.663 L64.765,92 L63.929,92 L63.929,91.131 C63.423,91.824 62.884,92.121 62.114,92.121 C60.717,92.121 59.727,91.032 59.727,89.492 C59.727,87.952 60.739,86.808 62.114,86.808 C62.862,86.808 63.434,87.083 63.929,87.699 Z M62.29,87.556 C61.289,87.556 60.607,88.348 60.607,89.503 C60.607,90.614 61.278,91.395 62.235,91.395 C63.214,91.395 63.929,90.581 63.929,89.481 C63.929,88.337 63.258,87.556 62.29,87.556 Z M67.284,86.929 L67.284,92 L66.448,92 L66.448,86.929 L67.284,86.929 Z M66.877,84.96 C67.174,84.96 67.405,85.202 67.405,85.51 C67.405,85.807 67.163,86.038 66.866,86.038 C66.569,86.038 66.338,85.807 66.338,85.499 C66.338,85.191 66.569,84.96 66.877,84.96 Z M68.967,86.929 L69.803,86.929 L69.803,87.644 C70.243,87.05 70.683,86.808 71.31,86.808 C71.772,86.808 72.19,86.962 72.487,87.226 C72.806,87.534 72.916,87.886 72.916,88.579 L72.916,92 L72.08,92 L72.08,88.766 C72.08,88.315 72.025,88.073 71.893,87.897 C71.739,87.688 71.442,87.556 71.101,87.556 C70.727,87.556 70.386,87.699 70.133,87.985 C69.891,88.249 69.803,88.491 69.803,88.909 L69.803,92 L68.967,92 L68.967,86.929 Z M78.317,87.798 L78.317,86.929 L79.153,86.929 L79.153,92.033 C79.153,92.88 78.944,93.452 78.482,93.892 C78.031,94.332 77.382,94.563 76.612,94.563 C75.666,94.563 74.918,94.255 74.368,93.639 L74.94,93.067 C75.171,93.309 75.281,93.408 75.424,93.507 C75.71,93.683 76.183,93.804 76.612,93.804 C77.14,93.804 77.646,93.617 77.932,93.309 C78.185,93.034 78.317,92.627 78.317,92.099 L78.317,91.032 C77.822,91.78 77.239,92.121 76.447,92.121 C75.105,92.121 74.104,90.988 74.104,89.481 C74.104,88.667 74.401,87.886 74.907,87.402 C75.314,87.006 75.864,86.808 76.513,86.808 C77.283,86.808 77.8,87.094 78.317,87.798 Z M76.667,87.578 C75.677,87.578 74.984,88.348 74.984,89.448 C74.984,90.537 75.688,91.351 76.645,91.351 C77.129,91.351 77.602,91.12 77.932,90.735 C78.152,90.482 78.295,89.987 78.295,89.481 C78.295,88.821 78.196,88.469 77.899,88.139 C77.591,87.798 77.118,87.578 76.667,87.578 Z"/>
      <g fill="#C41261" transform="translate(89 108)">
        <rect width="1" height="14" x="4" y="1"/>
        <rect width="9" height="1"/>
        <rect width="9" height="1" y="15"/>
      </g>
      <path fill="#C41261" fill-rule="nonzero" d="M391.849,149.031 L392.729,149.031 C392.773,149.867 393.224,150.307 394.027,150.307 C394.852,150.307 395.435,149.801 395.435,149.064 C395.435,148.426 395.105,148.129 393.95,147.744 C393.081,147.447 392.795,147.304 392.465,147.007 C392.091,146.666 391.893,146.182 391.893,145.621 C391.893,144.378 392.784,143.531 394.082,143.531 C395.38,143.531 396.227,144.356 396.26,145.632 L395.336,145.632 C395.325,145.258 395.281,145.082 395.16,144.873 C394.951,144.554 394.544,144.356 394.071,144.356 C393.345,144.356 392.828,144.851 392.828,145.555 C392.828,145.907 392.982,146.215 393.246,146.402 C393.477,146.567 393.675,146.655 394.423,146.919 C395.204,147.194 395.578,147.392 395.875,147.711 C396.194,148.052 396.37,148.514 396.37,149.009 C396.37,150.274 395.435,151.132 394.06,151.132 C393.125,151.132 392.487,150.802 392.102,150.142 C391.926,149.845 391.849,149.537 391.849,149.185 L391.849,149.031 Z M398.548,146.666 L398.548,149.966 C398.559,150.219 398.625,150.274 398.933,150.274 L399.318,150.274 L399.318,151 L398.537,151 C397.943,150.989 397.712,150.769 397.712,150.208 L397.712,146.666 L397.008,146.666 L397.008,145.929 L397.712,145.929 L397.712,144.334 L398.548,144.334 L398.548,145.929 L399.318,145.929 L399.318,146.666 L398.548,146.666 Z M400.506,145.929 L401.342,145.929 L401.342,146.787 C401.496,146.424 401.606,146.27 401.804,146.116 C402.057,145.918 402.409,145.808 402.772,145.808 L402.97,145.808 L402.97,146.655 C402.882,146.644 402.794,146.644 402.739,146.644 C402.288,146.644 401.892,146.853 401.639,147.227 C401.419,147.546 401.342,147.843 401.342,148.426 L401.342,151 L400.506,151 L400.506,145.929 Z M408.712,148.734 L404.488,148.734 C404.532,149.163 404.609,149.383 404.818,149.658 C405.148,150.109 405.632,150.351 406.182,150.351 C406.809,150.351 407.403,150.01 407.7,149.482 L408.437,149.757 C408.019,150.604 407.15,151.121 406.182,151.121 C404.675,151.121 403.597,150.021 403.597,148.481 C403.597,146.919 404.664,145.808 406.149,145.808 C407.623,145.808 408.723,146.919 408.723,148.404 C408.723,148.47 408.723,148.613 408.712,148.734 Z M404.499,148.118 L407.832,148.118 C407.799,147.722 407.722,147.502 407.546,147.249 C407.227,146.82 406.71,146.556 406.149,146.556 C405.588,146.556 405.082,146.82 404.785,147.26 C404.631,147.502 404.565,147.711 404.499,148.118 Z M410.824,146.666 L410.824,149.966 C410.835,150.219 410.901,150.274 411.209,150.274 L411.594,150.274 L411.594,151 L410.813,151 C410.219,150.989 409.988,150.769 409.988,150.208 L409.988,146.666 L409.284,146.666 L409.284,145.929 L409.988,145.929 L409.988,144.334 L410.824,144.334 L410.824,145.929 L411.594,145.929 L411.594,146.666 L410.824,146.666 Z M416.214,149.801 L416.731,150.373 C416.159,150.89 415.598,151.121 414.861,151.121 C413.409,151.121 412.375,150.021 412.375,148.481 C412.375,146.908 413.42,145.808 414.905,145.808 C415.631,145.808 416.225,146.05 416.753,146.567 L416.214,147.106 C415.829,146.754 415.4,146.578 414.927,146.578 C413.926,146.578 413.233,147.348 413.233,148.448 C413.233,149.57 413.926,150.351 414.916,150.351 C415.411,150.351 415.807,150.186 416.214,149.801 Z M418.645,143.663 L418.645,146.633 C419.107,146.061 419.569,145.808 420.174,145.808 C420.614,145.808 421.076,145.984 421.351,146.27 C421.626,146.545 421.747,146.941 421.747,147.59 L421.747,151 L420.911,151 L420.911,147.634 C420.911,146.941 420.57,146.556 419.965,146.556 C419.58,146.556 419.239,146.71 418.975,147.007 C418.722,147.293 418.645,147.546 418.645,148.03 L418.645,151 L417.809,151 L417.809,143.663 L418.645,143.663 Z M427.588,146.666 L427.588,149.966 C427.599,150.219 427.665,150.274 427.973,150.274 L428.358,150.274 L428.358,151 L427.577,151 C426.983,150.989 426.752,150.769 426.752,150.208 L426.752,146.666 L426.048,146.666 L426.048,145.929 L426.752,145.929 L426.752,144.334 L427.588,144.334 L427.588,145.929 L428.358,145.929 L428.358,146.666 L427.588,146.666 Z M431.735,145.808 C433.231,145.808 434.298,146.919 434.298,148.481 C434.298,149.966 433.154,151.121 431.702,151.121 C430.195,151.121 429.139,150.021 429.139,148.459 C429.139,146.886 430.195,145.808 431.735,145.808 Z M431.735,146.578 C430.69,146.578 429.997,147.337 429.997,148.47 C429.997,149.592 430.69,150.351 431.724,150.351 C432.725,150.351 433.44,149.57 433.44,148.47 C433.44,147.337 432.758,146.578 431.735,146.578 Z M441.668,147.018 C442.086,147.15 442.284,147.249 442.515,147.491 C442.878,147.854 443.065,148.338 443.065,148.91 C443.065,150.208 442.108,151.132 440.766,151.132 C439.435,151.132 438.5,150.241 438.5,148.987 C438.5,148.404 438.698,147.876 439.05,147.513 C439.281,147.271 439.468,147.161 439.908,147.018 C439.523,146.886 439.358,146.776 439.16,146.534 C438.918,146.237 438.786,145.863 438.786,145.456 C438.786,144.411 439.644,143.641 440.81,143.641 C441.965,143.641 442.801,144.4 442.801,145.445 C442.801,145.863 442.658,146.259 442.394,146.567 C442.196,146.787 442.042,146.886 441.668,147.018 Z M440.81,144.411 C440.106,144.411 439.622,144.851 439.622,145.467 C439.622,146.094 440.139,146.589 440.788,146.589 C441.415,146.589 441.976,146.072 441.976,145.478 C441.976,144.906 441.437,144.411 440.81,144.411 Z M440.799,147.48 C440.007,147.48 439.369,148.107 439.369,148.899 C439.369,149.68 439.996,150.318 440.777,150.318 C441.558,150.318 442.185,149.68 442.185,148.899 C442.185,148.129 441.558,147.48 440.799,147.48 Z M448.466,145.874 L448.466,148.789 C448.466,149.614 448.312,150.12 447.949,150.505 C447.564,150.912 446.981,151.121 446.288,151.121 C445.573,151.121 444.979,150.901 444.594,150.483 C444.209,150.076 444.11,149.658 444.11,148.547 L444.11,146.127 C444.11,145.17 444.22,144.719 444.55,144.323 C444.913,143.883 445.518,143.641 446.266,143.641 C446.937,143.641 447.487,143.828 447.894,144.191 C448.312,144.576 448.466,145.016 448.466,145.874 Z M444.979,146.149 L444.979,148.602 C444.979,149.449 445.012,149.603 445.254,149.878 C445.485,150.142 445.881,150.307 446.299,150.307 C446.75,150.307 447.168,150.12 447.377,149.823 C447.542,149.581 447.608,149.273 447.608,148.734 L447.608,145.929 C447.608,145.357 447.509,145.071 447.234,144.807 C446.992,144.587 446.662,144.466 446.299,144.466 C445.826,144.466 445.419,144.653 445.21,144.994 C445.023,145.258 444.979,145.511 444.979,146.149 Z M451.843,144.972 L451.843,146.16 C451.843,146.963 451.447,147.381 450.699,147.381 C450.325,147.381 450.006,147.26 449.797,147.029 C449.61,146.82 449.577,146.666 449.566,146.105 L449.566,144.983 C449.566,144.455 449.643,144.169 449.841,143.96 C450.028,143.751 450.358,143.63 450.71,143.63 C451.04,143.63 451.326,143.74 451.535,143.927 C451.788,144.169 451.843,144.334 451.843,144.972 Z M450.105,144.994 L450.105,146.006 C450.105,146.446 450.116,146.512 450.204,146.644 C450.292,146.787 450.49,146.875 450.71,146.875 C450.941,146.875 451.139,146.776 451.227,146.611 C451.293,146.49 451.315,146.369 451.315,146.039 L451.315,144.906 C451.315,144.389 451.128,144.147 450.721,144.147 C450.501,144.147 450.314,144.224 450.215,144.345 C450.116,144.477 450.105,144.565 450.105,144.994 Z M455.231,148.635 L455.231,149.823 C455.231,150.615 454.835,151.033 454.087,151.033 C453.713,151.033 453.394,150.912 453.185,150.681 C452.998,150.472 452.965,150.318 452.954,149.768 L452.954,148.646 C452.954,148.118 453.031,147.832 453.229,147.623 C453.427,147.414 453.746,147.293 454.098,147.293 C454.428,147.293 454.714,147.403 454.923,147.59 C455.176,147.832 455.231,147.997 455.231,148.635 Z M453.493,148.657 L453.493,149.669 C453.493,150.109 453.504,150.164 453.592,150.296 C453.68,150.439 453.889,150.527 454.098,150.527 C454.318,150.527 454.527,150.428 454.615,150.263 C454.681,150.142 454.703,150.032 454.703,149.702 L454.703,148.569 C454.703,148.041 454.516,147.81 454.109,147.81 C453.889,147.81 453.702,147.887 453.603,148.008 C453.504,148.14 453.493,148.228 453.493,148.657 Z M455.099,143.817 L450.061,151.088 L449.698,150.835 L454.736,143.575 L455.099,143.817 Z M462.084,145.808 C463.58,145.808 464.647,146.919 464.647,148.481 C464.647,149.966 463.503,151.121 462.051,151.121 C460.544,151.121 459.488,150.021 459.488,148.459 C459.488,146.886 460.544,145.808 462.084,145.808 Z M462.084,146.578 C461.039,146.578 460.346,147.337 460.346,148.47 C460.346,149.592 461.039,150.351 462.073,150.351 C463.074,150.351 463.789,149.57 463.789,148.47 C463.789,147.337 463.107,146.578 462.084,146.578 Z M466.847,146.666 L466.847,151 L466.011,151 L466.011,146.666 L465.318,146.666 L465.318,145.929 L466.011,145.929 L466.011,145.247 C466.011,144.246 466.528,143.652 467.408,143.652 C467.452,143.652 467.551,143.652 467.639,143.663 L467.639,144.411 C467.034,144.477 466.869,144.653 466.847,145.247 L466.847,145.929 L467.639,145.929 L467.639,146.666 L466.847,146.666 Z M475.504,149.801 L476.021,150.373 C475.449,150.89 474.888,151.121 474.151,151.121 C472.699,151.121 471.665,150.021 471.665,148.481 C471.665,146.908 472.71,145.808 474.195,145.808 C474.921,145.808 475.515,146.05 476.043,146.567 L475.504,147.106 C475.119,146.754 474.69,146.578 474.217,146.578 C473.216,146.578 472.523,147.348 472.523,148.448 C472.523,149.57 473.216,150.351 474.206,150.351 C474.701,150.351 475.097,150.186 475.504,149.801 Z M479.288,145.808 C480.784,145.808 481.851,146.919 481.851,148.481 C481.851,149.966 480.707,151.121 479.255,151.121 C477.748,151.121 476.692,150.021 476.692,148.459 C476.692,146.886 477.748,145.808 479.288,145.808 Z M479.288,146.578 C478.243,146.578 477.55,147.337 477.55,148.47 C477.55,149.592 478.243,150.351 479.277,150.351 C480.278,150.351 480.993,149.57 480.993,148.47 C480.993,147.337 480.311,146.578 479.288,146.578 Z M483.127,145.929 L483.963,145.929 L483.963,146.644 C484.403,146.05 484.843,145.808 485.47,145.808 C485.932,145.808 486.35,145.962 486.647,146.226 C486.966,146.534 487.076,146.886 487.076,147.579 L487.076,151 L486.24,151 L486.24,147.766 C486.24,147.315 486.185,147.073 486.053,146.897 C485.899,146.688 485.602,146.556 485.261,146.556 C484.887,146.556 484.546,146.699 484.293,146.985 C484.051,147.249 483.963,147.491 483.963,147.909 L483.963,151 L483.127,151 L483.127,145.929 Z M489.617,146.666 L489.617,149.966 C489.628,150.219 489.694,150.274 490.002,150.274 L490.387,150.274 L490.387,151 L489.606,151 C489.012,150.989 488.781,150.769 488.781,150.208 L488.781,146.666 L488.077,146.666 L488.077,145.929 L488.781,145.929 L488.781,144.334 L489.617,144.334 L489.617,145.929 L490.387,145.929 L490.387,146.666 L489.617,146.666 Z M495.403,146.765 L495.403,145.929 L496.239,145.929 L496.239,151 L495.403,151 L495.403,150.021 C494.897,150.78 494.325,151.121 493.555,151.121 C492.158,151.121 491.168,150.021 491.168,148.481 C491.168,146.93 492.18,145.808 493.577,145.808 C494.347,145.808 494.908,146.105 495.403,146.765 Z M493.698,146.556 C493.148,146.556 492.763,146.743 492.466,147.161 C492.202,147.524 492.048,148.008 492.048,148.503 C492.048,149.581 492.752,150.395 493.676,150.395 C494.633,150.395 495.414,149.504 495.414,148.415 C495.414,147.315 494.71,146.556 493.698,146.556 Z M498.758,145.929 L498.758,151 L497.922,151 L497.922,145.929 L498.758,145.929 Z M498.351,143.96 C498.648,143.96 498.879,144.202 498.879,144.51 C498.879,144.807 498.637,145.038 498.34,145.038 C498.043,145.038 497.812,144.807 497.812,144.499 C497.812,144.191 498.043,143.96 498.351,143.96 Z M500.441,145.929 L501.277,145.929 L501.277,146.644 C501.717,146.05 502.157,145.808 502.784,145.808 C503.246,145.808 503.664,145.962 503.961,146.226 C504.28,146.534 504.39,146.886 504.39,147.579 L504.39,151 L503.554,151 L503.554,147.766 C503.554,147.315 503.499,147.073 503.367,146.897 C503.213,146.688 502.916,146.556 502.575,146.556 C502.201,146.556 501.86,146.699 501.607,146.985 C501.365,147.249 501.277,147.491 501.277,147.909 L501.277,151 L500.441,151 L500.441,145.929 Z M510.748,148.734 L506.524,148.734 C506.568,149.163 506.645,149.383 506.854,149.658 C507.184,150.109 507.668,150.351 508.218,150.351 C508.845,150.351 509.439,150.01 509.736,149.482 L510.473,149.757 C510.055,150.604 509.186,151.121 508.218,151.121 C506.711,151.121 505.633,150.021 505.633,148.481 C505.633,146.919 506.7,145.808 508.185,145.808 C509.659,145.808 510.759,146.919 510.759,148.404 C510.759,148.47 510.759,148.613 510.748,148.734 Z M506.535,148.118 L509.868,148.118 C509.835,147.722 509.758,147.502 509.582,147.249 C509.263,146.82 508.746,146.556 508.185,146.556 C507.624,146.556 507.118,146.82 506.821,147.26 C506.667,147.502 506.601,147.711 506.535,148.118 Z M511.969,145.929 L512.805,145.929 L512.805,146.787 C512.959,146.424 513.069,146.27 513.267,146.116 C513.52,145.918 513.872,145.808 514.235,145.808 L514.433,145.808 L514.433,146.655 C514.345,146.644 514.257,146.644 514.202,146.644 C513.751,146.644 513.355,146.853 513.102,147.227 C512.882,147.546 512.805,147.843 512.805,148.426 L512.805,151 L511.969,151 L511.969,145.929 Z M516.49,150.142 L515.379,152.749 L514.774,152.562 L515.698,149.889 L516.49,150.142 Z M522.144,143.663 L522.144,146.633 C522.606,146.061 523.068,145.808 523.673,145.808 C524.113,145.808 524.575,145.984 524.85,146.27 C525.125,146.545 525.246,146.941 525.246,147.59 L525.246,151 L524.41,151 L524.41,147.634 C524.41,146.941 524.069,146.556 523.464,146.556 C523.079,146.556 522.738,146.71 522.474,147.007 C522.221,147.293 522.144,147.546 522.144,148.03 L522.144,151 L521.308,151 L521.308,143.663 L522.144,143.663 Z M529.085,145.808 C530.581,145.808 531.648,146.919 531.648,148.481 C531.648,149.966 530.504,151.121 529.052,151.121 C527.545,151.121 526.489,150.021 526.489,148.459 C526.489,146.886 527.545,145.808 529.085,145.808 Z M529.085,146.578 C528.04,146.578 527.347,147.337 527.347,148.47 C527.347,149.592 528.04,150.351 529.074,150.351 C530.075,150.351 530.79,149.57 530.79,148.47 C530.79,147.337 530.108,146.578 529.085,146.578 Z M532.924,145.929 L533.76,145.929 L533.76,146.787 C533.914,146.424 534.024,146.27 534.222,146.116 C534.475,145.918 534.827,145.808 535.19,145.808 L535.388,145.808 L535.388,146.655 C535.3,146.644 535.212,146.644 535.157,146.644 C534.706,146.644 534.31,146.853 534.057,147.227 C533.837,147.546 533.76,147.843 533.76,148.426 L533.76,151 L532.924,151 L532.924,145.929 Z M537.258,145.929 L537.258,151 L536.422,151 L536.422,145.929 L537.258,145.929 Z M536.851,143.96 C537.148,143.96 537.379,144.202 537.379,144.51 C537.379,144.807 537.137,145.038 536.84,145.038 C536.543,145.038 536.312,144.807 536.312,144.499 C536.312,144.191 536.543,143.96 536.851,143.96 Z M539.755,150.263 L542.087,150.263 L542.087,151 L538.347,151 L540.987,146.666 L538.633,146.666 L538.633,145.929 L542.362,145.929 L539.755,150.263 Z M545.541,145.808 C547.037,145.808 548.104,146.919 548.104,148.481 C548.104,149.966 546.96,151.121 545.508,151.121 C544.001,151.121 542.945,150.021 542.945,148.459 C542.945,146.886 544.001,145.808 545.541,145.808 Z M545.541,146.578 C544.496,146.578 543.803,147.337 543.803,148.47 C543.803,149.592 544.496,150.351 545.53,150.351 C546.531,150.351 547.246,149.57 547.246,148.47 C547.246,147.337 546.564,146.578 545.541,146.578 Z M549.38,145.929 L550.216,145.929 L550.216,146.644 C550.656,146.05 551.096,145.808 551.723,145.808 C552.185,145.808 552.603,145.962 552.9,146.226 C553.219,146.534 553.329,146.886 553.329,147.579 L553.329,151 L552.493,151 L552.493,147.766 C552.493,147.315 552.438,147.073 552.306,146.897 C552.152,146.688 551.855,146.556 551.514,146.556 C551.14,146.556 550.799,146.699 550.546,146.985 C550.304,147.249 550.216,147.491 550.216,147.909 L550.216,151 L549.38,151 L549.38,145.929 Z M555.87,146.666 L555.87,149.966 C555.881,150.219 555.947,150.274 556.255,150.274 L556.64,150.274 L556.64,151 L555.859,151 C555.265,150.989 555.034,150.769 555.034,150.208 L555.034,146.666 L554.33,146.666 L554.33,145.929 L555.034,145.929 L555.034,144.334 L555.87,144.334 L555.87,145.929 L556.64,145.929 L556.64,146.666 L555.87,146.666 Z M561.656,146.765 L561.656,145.929 L562.492,145.929 L562.492,151 L561.656,151 L561.656,150.021 C561.15,150.78 560.578,151.121 559.808,151.121 C558.411,151.121 557.421,150.021 557.421,148.481 C557.421,146.93 558.433,145.808 559.83,145.808 C560.6,145.808 561.161,146.105 561.656,146.765 Z M559.951,146.556 C559.401,146.556 559.016,146.743 558.719,147.161 C558.455,147.524 558.301,148.008 558.301,148.503 C558.301,149.581 559.005,150.395 559.929,150.395 C560.886,150.395 561.667,149.504 561.667,148.415 C561.667,147.315 560.963,146.556 559.951,146.556 Z M565.011,151 L564.175,151 L564.175,143.663 L565.011,143.663 L565.011,151 Z M567.53,151 L566.694,151 L566.694,143.663 L567.53,143.663 L567.53,151 Z M570.698,149.691 L572.216,145.929 L573.129,145.929 L570.104,153.442 L569.191,153.442 L570.247,150.846 L568.443,145.929 L569.334,145.929 L570.698,149.691 Z M580.763,149.801 L581.28,150.373 C580.708,150.89 580.147,151.121 579.41,151.121 C577.958,151.121 576.924,150.021 576.924,148.481 C576.924,146.908 577.969,145.808 579.454,145.808 C580.18,145.808 580.774,146.05 581.302,146.567 L580.763,147.106 C580.378,146.754 579.949,146.578 579.476,146.578 C578.475,146.578 577.782,147.348 577.782,148.448 C577.782,149.57 578.475,150.351 579.465,150.351 C579.96,150.351 580.356,150.186 580.763,149.801 Z M587.066,148.734 L582.842,148.734 C582.886,149.163 582.963,149.383 583.172,149.658 C583.502,150.109 583.986,150.351 584.536,150.351 C585.163,150.351 585.757,150.01 586.054,149.482 L586.791,149.757 C586.373,150.604 585.504,151.121 584.536,151.121 C583.029,151.121 581.951,150.021 581.951,148.481 C581.951,146.919 583.018,145.808 584.503,145.808 C585.977,145.808 587.077,146.919 587.077,148.404 C587.077,148.47 587.077,148.613 587.066,148.734 Z M582.853,148.118 L586.186,148.118 C586.153,147.722 586.076,147.502 585.9,147.249 C585.581,146.82 585.064,146.556 584.503,146.556 C583.942,146.556 583.436,146.82 583.139,147.26 C582.985,147.502 582.919,147.711 582.853,148.118 Z M588.287,145.929 L589.123,145.929 L589.123,146.644 C589.563,146.05 590.003,145.808 590.63,145.808 C591.092,145.808 591.51,145.962 591.807,146.226 C592.126,146.534 592.236,146.886 592.236,147.579 L592.236,151 L591.4,151 L591.4,147.766 C591.4,147.315 591.345,147.073 591.213,146.897 C591.059,146.688 590.762,146.556 590.421,146.556 C590.047,146.556 589.706,146.699 589.453,146.985 C589.211,147.249 589.123,147.491 589.123,147.909 L589.123,151 L588.287,151 L588.287,145.929 Z M594.777,146.666 L594.777,149.966 C594.788,150.219 594.854,150.274 595.162,150.274 L595.547,150.274 L595.547,151 L594.766,151 C594.172,150.989 593.941,150.769 593.941,150.208 L593.941,146.666 L593.237,146.666 L593.237,145.929 L593.941,145.929 L593.941,144.334 L594.777,144.334 L594.777,145.929 L595.547,145.929 L595.547,146.666 L594.777,146.666 Z M601.443,148.734 L597.219,148.734 C597.263,149.163 597.34,149.383 597.549,149.658 C597.879,150.109 598.363,150.351 598.913,150.351 C599.54,150.351 600.134,150.01 600.431,149.482 L601.168,149.757 C600.75,150.604 599.881,151.121 598.913,151.121 C597.406,151.121 596.328,150.021 596.328,148.481 C596.328,146.919 597.395,145.808 598.88,145.808 C600.354,145.808 601.454,146.919 601.454,148.404 C601.454,148.47 601.454,148.613 601.443,148.734 Z M597.23,148.118 L600.563,148.118 C600.53,147.722 600.453,147.502 600.277,147.249 C599.958,146.82 599.441,146.556 598.88,146.556 C598.319,146.556 597.813,146.82 597.516,147.26 C597.362,147.502 597.296,147.711 597.23,148.118 Z M602.664,145.929 L603.5,145.929 L603.5,146.787 C603.654,146.424 603.764,146.27 603.962,146.116 C604.215,145.918 604.567,145.808 604.93,145.808 L605.128,145.808 L605.128,146.655 C605.04,146.644 604.952,146.644 604.897,146.644 C604.446,146.644 604.05,146.853 603.797,147.227 C603.577,147.546 603.5,147.843 603.5,148.426 L603.5,151 L602.664,151 L602.664,145.929 Z M610.87,148.734 L606.646,148.734 C606.69,149.163 606.767,149.383 606.976,149.658 C607.306,150.109 607.79,150.351 608.34,150.351 C608.967,150.351 609.561,150.01 609.858,149.482 L610.595,149.757 C610.177,150.604 609.308,151.121 608.34,151.121 C606.833,151.121 605.755,150.021 605.755,148.481 C605.755,146.919 606.822,145.808 608.307,145.808 C609.781,145.808 610.881,146.919 610.881,148.404 C610.881,148.47 610.881,148.613 610.87,148.734 Z M606.657,148.118 L609.99,148.118 C609.957,147.722 609.88,147.502 609.704,147.249 C609.385,146.82 608.868,146.556 608.307,146.556 C607.746,146.556 607.24,146.82 606.943,147.26 C606.789,147.502 606.723,147.711 606.657,148.118 Z M615.886,146.699 L615.886,143.663 L616.722,143.663 L616.722,151 L615.886,151 L615.886,150.131 C615.38,150.824 614.841,151.121 614.071,151.121 C612.674,151.121 611.684,150.032 611.684,148.492 C611.684,146.952 612.696,145.808 614.071,145.808 C614.819,145.808 615.391,146.083 615.886,146.699 Z M614.247,146.556 C613.246,146.556 612.564,147.348 612.564,148.503 C612.564,149.614 613.235,150.395 614.192,150.395 C615.171,150.395 615.886,149.581 615.886,148.481 C615.886,147.337 615.215,146.556 614.247,146.556 Z"/>
      <g fill="#C41261" transform="translate(96 131)">
        <rect width="809" height="1" x="5" y="2"/>
        <polygon points="816.5 0 819 5 814 5" transform="rotate(90 816.5 2.5)"/>
        <polygon points="2.5 0 5 5 0 5" transform="matrix(0 1 1 0 0 0)"/>
      </g>
    </g>
  </g>
</svg>
