<svg xmlns="http://www.w3.org/2000/svg" width="580" height="180" viewBox="0 0 580 180">
  <g fill="none" fill-rule="evenodd">
    <rect width="580" height="180" fill="#FFF" fill-opacity=".01" fill-rule="nonzero"/>
    <g fill-rule="nonzero" stroke="#979797" transform="translate(4)">
      <polyline fill="#FFF" points="572 0 572 124 0 124 0 0 0 0"/>
      <path d="M200,0 L200,124"/>
    </g>
    <g transform="translate(282 29)">
      <rect width="213.953" height="48" x="1" y="31" fill="#25333D" rx="14"/>
      <g fill="#C41261">
        <path d="M1,47 L213,47 L213,1 L1,1 L1,47 Z M1,48 L0,48 L0,1 L0,0 L214,0 L214,1 L214,48 L213,48 L1,48 Z" transform="translate(0 31)"/>
        <path d="M1,79 L214,79 L214,1 L1,1 L1,79 Z M1,80 L0,80 L0,1 L0,0 L215,0 L215,1 L215,80 L214,80 L1,80 Z" transform="translate(0 15)"/>
        <path d="M26.7325,0.994 L25.1155,2.072 L25.1155,1.236 L27.6015,-0.392 L27.6015,7 L26.7325,7 L26.7325,0.994 Z M33.4865,-0.227 L31.6055,2.71 C31.9135,2.6 32.0565,2.567 32.3205,2.567 C33.5415,2.567 34.4875,3.524 34.4875,4.767 C34.4875,6.065 33.4205,7.132 32.1225,7.132 C30.8135,7.132 29.8015,6.098 29.8015,4.767 C29.8015,4.228 29.9445,3.821 30.3625,3.15 L32.4635,-0.227 L33.4865,-0.227 Z M32.1665,3.315 C31.3305,3.315 30.6705,3.953 30.6705,4.767 C30.6705,5.625 31.3195,6.307 32.1445,6.307 C32.9695,6.307 33.6295,5.636 33.6295,4.8 C33.6295,3.975 32.9805,3.315 32.1665,3.315 Z M35.7305,1.929 L36.5665,1.929 L36.5665,2.853 C37.0505,2.105 37.5675,1.808 38.4145,1.808 C39.8225,1.808 40.8015,2.886 40.8015,4.426 C40.8015,6.021 39.8225,7.121 38.4145,7.121 C38.0185,7.121 37.6555,7.033 37.3035,6.857 C36.9955,6.703 36.8415,6.571 36.5665,6.208 L36.5665,9.376 L35.7305,9.376 L35.7305,1.929 Z M38.2715,2.556 C37.2595,2.556 36.5665,3.359 36.5665,4.547 C36.5665,5.658 37.2375,6.395 38.2385,6.395 C39.2395,6.395 39.9105,5.614 39.9105,4.459 C39.9105,3.865 39.7675,3.414 39.4705,3.084 C39.1735,2.754 38.7225,2.556 38.2715,2.556 Z M43.6835,5.163 L42.3305,7 L41.3075,7 L43.1775,4.481 L41.2745,1.929 L42.3305,1.929 L43.6835,3.788 L45.0695,1.929 L46.0925,1.929 L44.1785,4.481 L46.0045,7 L44.9815,7 L43.6835,5.163 Z M51.1965,2.666 L51.1965,7 L50.3605,7 L50.3605,2.666 L49.6675,2.666 L49.6675,1.929 L50.3605,1.929 L50.3605,1.247 C50.3605,0.246 50.8775,-0.348 51.7575,-0.348 C51.8015,-0.348 51.9005,-0.348 51.9885,-0.337 L51.9885,0.411 C51.3835,0.477 51.2185,0.653 51.1965,1.247 L51.1965,1.929 L51.9885,1.929 L51.9885,2.666 L51.1965,2.666 Z M54.1885,1.929 L54.1885,7 L53.3525,7 L53.3525,1.929 L54.1885,1.929 Z M53.7705,-0.04 C54.0675,-0.04 54.2985,0.202 54.2985,0.51 C54.2985,0.807 54.0675,1.038 53.7705,1.038 C53.4625,1.038 53.2315,0.807 53.2315,0.499 C53.2315,0.191 53.4625,-0.04 53.7705,-0.04 Z M57.4885,5.163 L56.1355,7 L55.1125,7 L56.9825,4.481 L55.0795,1.929 L56.1355,1.929 L57.4885,3.788 L58.8745,1.929 L59.8975,1.929 L57.9835,4.481 L59.8095,7 L58.7865,7 L57.4885,5.163 Z M65.4855,4.734 L61.2615,4.734 C61.3055,5.163 61.3825,5.383 61.5915,5.658 C61.9215,6.109 62.4055,6.351 62.9555,6.351 C63.5825,6.351 64.1765,6.01 64.4735,5.482 L65.2105,5.757 C64.7925,6.604 63.9235,7.121 62.9555,7.121 C61.4485,7.121 60.3705,6.021 60.3705,4.481 C60.3705,2.919 61.4375,1.808 62.9225,1.808 C64.3965,1.808 65.4965,2.919 65.4965,4.404 C65.4965,4.47 65.4965,4.613 65.4855,4.734 Z M61.2725,4.118 L64.6055,4.118 C64.5725,3.722 64.4955,3.502 64.3195,3.249 C64.0005,2.82 63.4835,2.556 62.9225,2.556 C62.3615,2.556 61.8555,2.82 61.5585,3.26 C61.4045,3.502 61.3385,3.711 61.2725,4.118 Z M70.5015,2.699 L70.5015,-0.337 L71.3375,-0.337 L71.3375,7 L70.5015,7 L70.5015,6.131 C69.9955,6.824 69.4565,7.121 68.6865,7.121 C67.2895,7.121 66.2995,6.032 66.2995,4.492 C66.2995,2.952 67.3115,1.808 68.6865,1.808 C69.4345,1.808 70.0065,2.083 70.5015,2.699 Z M68.8625,2.556 C67.8615,2.556 67.1795,3.348 67.1795,4.503 C67.1795,5.614 67.8505,6.395 68.8075,6.395 C69.7865,6.395 70.5015,5.581 70.5015,4.481 C70.5015,3.337 69.8305,2.556 68.8625,2.556 Z M76.3205,1.929 L77.1565,1.929 L77.1565,2.853 C77.6405,2.105 78.1575,1.808 79.0045,1.808 C80.4125,1.808 81.3915,2.886 81.3915,4.426 C81.3915,6.021 80.4125,7.121 79.0045,7.121 C78.6085,7.121 78.2455,7.033 77.8935,6.857 C77.5855,6.703 77.4315,6.571 77.1565,6.208 L77.1565,9.376 L76.3205,9.376 L76.3205,1.929 Z M78.8615,2.556 C77.8495,2.556 77.1565,3.359 77.1565,4.547 C77.1565,5.658 77.8275,6.395 78.8285,6.395 C79.8295,6.395 80.5005,5.614 80.5005,4.459 C80.5005,3.865 80.3575,3.414 80.0605,3.084 C79.7635,2.754 79.3125,2.556 78.8615,2.556 Z M86.4845,2.765 L86.4845,1.929 L87.3205,1.929 L87.3205,7 L86.4845,7 L86.4845,6.021 C85.9785,6.78 85.4065,7.121 84.6365,7.121 C83.2395,7.121 82.2495,6.021 82.2495,4.481 C82.2495,2.93 83.2615,1.808 84.6585,1.808 C85.4285,1.808 85.9895,2.105 86.4845,2.765 Z M84.7795,2.556 C84.2295,2.556 83.8445,2.743 83.5475,3.161 C83.2835,3.524 83.1295,4.008 83.1295,4.503 C83.1295,5.581 83.8335,6.395 84.7575,6.395 C85.7145,6.395 86.4955,5.504 86.4955,4.415 C86.4955,3.315 85.7915,2.556 84.7795,2.556 Z M92.7985,2.699 L92.7985,-0.337 L93.6345,-0.337 L93.6345,7 L92.7985,7 L92.7985,6.131 C92.2925,6.824 91.7535,7.121 90.9835,7.121 C89.5865,7.121 88.5965,6.032 88.5965,4.492 C88.5965,2.952 89.6085,1.808 90.9835,1.808 C91.7315,1.808 92.3035,2.083 92.7985,2.699 Z M91.1595,2.556 C90.1585,2.556 89.4765,3.348 89.4765,4.503 C89.4765,5.614 90.1475,6.395 91.1045,6.395 C92.0835,6.395 92.7985,5.581 92.7985,4.481 C92.7985,3.337 92.1275,2.556 91.1595,2.556 Z M99.1125,2.699 L99.1125,-0.337 L99.9485,-0.337 L99.9485,7 L99.1125,7 L99.1125,6.131 C98.6065,6.824 98.0675,7.121 97.2975,7.121 C95.9005,7.121 94.9105,6.032 94.9105,4.492 C94.9105,2.952 95.9225,1.808 97.2975,1.808 C98.0455,1.808 98.6175,2.083 99.1125,2.699 Z M97.4735,2.556 C96.4725,2.556 95.7905,3.348 95.7905,4.503 C95.7905,5.614 96.4615,6.395 97.4185,6.395 C98.3975,6.395 99.1125,5.581 99.1125,4.481 C99.1125,3.337 98.4415,2.556 97.4735,2.556 Z M102.4675,1.929 L102.4675,7 L101.6315,7 L101.6315,1.929 L102.4675,1.929 Z M102.0605,-0.04 C102.3575,-0.04 102.5885,0.202 102.5885,0.51 C102.5885,0.807 102.3465,1.038 102.0495,1.038 C101.7525,1.038 101.5215,0.807 101.5215,0.499 C101.5215,0.191 101.7525,-0.04 102.0605,-0.04 Z M104.1505,1.929 L104.9865,1.929 L104.9865,2.644 C105.4265,2.05 105.8665,1.808 106.4935,1.808 C106.9555,1.808 107.3735,1.962 107.6705,2.226 C107.9895,2.534 108.0995,2.886 108.0995,3.579 L108.0995,7 L107.2635,7 L107.2635,3.766 C107.2635,3.315 107.2085,3.073 107.0765,2.897 C106.9225,2.688 106.6255,2.556 106.2845,2.556 C105.9105,2.556 105.5695,2.699 105.3165,2.985 C105.0745,3.249 104.9865,3.491 104.9865,3.909 L104.9865,7 L104.1505,7 L104.1505,1.929 Z M113.5005,2.798 L113.5005,1.929 L114.3365,1.929 L114.3365,7.033 C114.3365,7.88 114.1275,8.452 113.6655,8.892 C113.2145,9.332 112.5655,9.563 111.7955,9.563 C110.8495,9.563 110.1015,9.255 109.5515,8.639 L110.1235,8.067 C110.3545,8.309 110.4645,8.408 110.6075,8.507 C110.8935,8.683 111.3665,8.804 111.7955,8.804 C112.3235,8.804 112.8295,8.617 113.1155,8.309 C113.3685,8.034 113.5005,7.627 113.5005,7.099 L113.5005,6.032 C113.0055,6.78 112.4225,7.121 111.6305,7.121 C110.2885,7.121 109.2875,5.988 109.2875,4.481 C109.2875,3.667 109.5845,2.886 110.0905,2.402 C110.4975,2.006 111.0475,1.808 111.6965,1.808 C112.4665,1.808 112.9835,2.094 113.5005,2.798 Z M111.8505,2.578 C110.8605,2.578 110.1675,3.348 110.1675,4.448 C110.1675,5.537 110.8715,6.351 111.8285,6.351 C112.3125,6.351 112.7855,6.12 113.1155,5.735 C113.3355,5.482 113.4785,4.987 113.4785,4.481 C113.4785,3.821 113.3795,3.469 113.0825,3.139 C112.7745,2.798 112.3015,2.578 111.8505,2.578 Z M120.2105,2.666 L120.2105,5.966 C120.2215,6.219 120.2875,6.274 120.5955,6.274 L120.9805,6.274 L120.9805,7 L120.1995,7 C119.6055,6.989 119.3745,6.769 119.3745,6.208 L119.3745,2.666 L118.6705,2.666 L118.6705,1.929 L119.3745,1.929 L119.3745,0.334 L120.2105,0.334 L120.2105,1.929 L120.9805,1.929 L120.9805,2.666 L120.2105,2.666 Z M124.3575,1.808 C125.8535,1.808 126.9205,2.919 126.9205,4.481 C126.9205,5.966 125.7765,7.121 124.3245,7.121 C122.8175,7.121 121.7615,6.021 121.7615,4.459 C121.7615,2.886 122.8175,1.808 124.3575,1.808 Z M124.3575,2.578 C123.3125,2.578 122.6195,3.337 122.6195,4.47 C122.6195,5.592 123.3125,6.351 124.3465,6.351 C125.3475,6.351 126.0625,5.57 126.0625,4.47 C126.0625,3.337 125.3805,2.578 124.3575,2.578 Z M128.1965,1.929 L129.0325,1.929 L129.0325,2.853 C129.5165,2.105 130.0335,1.808 130.8805,1.808 C132.2885,1.808 133.2675,2.886 133.2675,4.426 C133.2675,6.021 132.2885,7.121 130.8805,7.121 C130.4845,7.121 130.1215,7.033 129.7695,6.857 C129.4615,6.703 129.3075,6.571 129.0325,6.208 L129.0325,9.376 L128.1965,9.376 L128.1965,1.929 Z M130.7375,2.556 C129.7255,2.556 129.0325,3.359 129.0325,4.547 C129.0325,5.658 129.7035,6.395 130.7045,6.395 C131.7055,6.395 132.3765,5.614 132.3765,4.459 C132.3765,3.865 132.2335,3.414 131.9365,3.084 C131.6395,2.754 131.1885,2.556 130.7375,2.556 Z M141.6605,2.765 L141.6605,1.929 L142.4965,1.929 L142.4965,7 L141.6605,7 L141.6605,6.021 C141.1545,6.78 140.5825,7.121 139.8125,7.121 C138.4155,7.121 137.4255,6.021 137.4255,4.481 C137.4255,2.93 138.4375,1.808 139.8345,1.808 C140.6045,1.808 141.1655,2.105 141.6605,2.765 Z M139.9555,2.556 C139.4055,2.556 139.0205,2.743 138.7235,3.161 C138.4595,3.524 138.3055,4.008 138.3055,4.503 C138.3055,5.581 139.0095,6.395 139.9335,6.395 C140.8905,6.395 141.6715,5.504 141.6715,4.415 C141.6715,3.315 140.9675,2.556 139.9555,2.556 Z M144.1795,1.929 L145.0155,1.929 L145.0155,2.644 C145.4555,2.05 145.8955,1.808 146.5225,1.808 C146.9845,1.808 147.4025,1.962 147.6995,2.226 C148.0185,2.534 148.1285,2.886 148.1285,3.579 L148.1285,7 L147.2925,7 L147.2925,3.766 C147.2925,3.315 147.2375,3.073 147.1055,2.897 C146.9515,2.688 146.6545,2.556 146.3135,2.556 C145.9395,2.556 145.5985,2.699 145.3455,2.985 C145.1035,3.249 145.0155,3.491 145.0155,3.909 L145.0155,7 L144.1795,7 L144.1795,1.929 Z M153.5735,2.699 L153.5735,-0.337 L154.4095,-0.337 L154.4095,7 L153.5735,7 L153.5735,6.131 C153.0675,6.824 152.5285,7.121 151.7585,7.121 C150.3615,7.121 149.3715,6.032 149.3715,4.492 C149.3715,2.952 150.3835,1.808 151.7585,1.808 C152.5065,1.808 153.0785,2.083 153.5735,2.699 Z M151.9345,2.556 C150.9335,2.556 150.2515,3.348 150.2515,4.503 C150.2515,5.614 150.9225,6.395 151.8795,6.395 C152.8585,6.395 153.5735,5.581 153.5735,4.481 C153.5735,3.337 152.9025,2.556 151.9345,2.556 Z M160.2285,6.131 L160.2285,7 L159.3925,7 L159.3925,-0.337 L160.2285,-0.337 L160.2285,2.798 C160.7345,2.105 161.2735,1.808 162.0105,1.808 C163.4295,1.808 164.4195,2.908 164.4195,4.481 C164.4195,6.032 163.4405,7.121 162.0545,7.121 C161.2735,7.121 160.7235,6.824 160.2285,6.131 Z M161.9005,2.556 C160.9325,2.556 160.2175,3.359 160.2175,4.47 C160.2175,5.625 160.8775,6.395 161.8675,6.395 C162.8685,6.395 163.5395,5.636 163.5395,4.503 C163.5395,3.37 162.8575,2.556 161.9005,2.556 Z M167.8845,1.808 C169.3805,1.808 170.4475,2.919 170.4475,4.481 C170.4475,5.966 169.3035,7.121 167.8515,7.121 C166.3445,7.121 165.2885,6.021 165.2885,4.459 C165.2885,2.886 166.3445,1.808 167.8845,1.808 Z M167.8845,2.578 C166.8395,2.578 166.1465,3.337 166.1465,4.47 C166.1465,5.592 166.8395,6.351 167.8735,6.351 C168.8745,6.351 169.5895,5.57 169.5895,4.47 C169.5895,3.337 168.9075,2.578 167.8845,2.578 Z M172.6145,2.666 L172.6145,5.966 C172.6255,6.219 172.6915,6.274 172.9995,6.274 L173.3845,6.274 L173.3845,7 L172.6035,7 C172.0095,6.989 171.7785,6.769 171.7785,6.208 L171.7785,2.666 L171.0745,2.666 L171.0745,1.929 L171.7785,1.929 L171.7785,0.334 L172.6145,0.334 L172.6145,1.929 L173.3845,1.929 L173.3845,2.666 L172.6145,2.666 Z M175.4635,2.666 L175.4635,5.966 C175.4745,6.219 175.5405,6.274 175.8485,6.274 L176.2335,6.274 L176.2335,7 L175.4525,7 C174.8585,6.989 174.6275,6.769 174.6275,6.208 L174.6275,2.666 L173.9235,2.666 L173.9235,1.929 L174.6275,1.929 L174.6275,0.334 L175.4635,0.334 L175.4635,1.929 L176.2335,1.929 L176.2335,2.666 L175.4635,2.666 Z M179.6105,1.808 C181.1065,1.808 182.1735,2.919 182.1735,4.481 C182.1735,5.966 181.0295,7.121 179.5775,7.121 C178.0705,7.121 177.0145,6.021 177.0145,4.459 C177.0145,2.886 178.0705,1.808 179.6105,1.808 Z M179.6105,2.578 C178.5655,2.578 177.8725,3.337 177.8725,4.47 C177.8725,5.592 178.5655,6.351 179.5995,6.351 C180.6005,6.351 181.3155,5.57 181.3155,4.47 C181.3155,3.337 180.6335,2.578 179.6105,2.578 Z M183.4495,1.929 L184.2855,1.929 L184.2855,2.633 C184.6705,2.05 185.0995,1.808 185.7265,1.808 C186.4195,1.808 186.8595,2.105 187.0905,2.732 C187.4645,2.083 187.9375,1.808 188.6965,1.808 C189.2795,1.808 189.7195,1.995 189.9835,2.347 C190.2255,2.666 190.2915,2.952 190.2915,3.755 L190.2915,7 L189.4555,7 L189.4555,3.953 C189.4555,3.337 189.4335,3.194 189.3125,2.985 C189.1585,2.721 188.8285,2.556 188.4325,2.556 C187.6955,2.556 187.2885,3.051 187.2885,3.953 L187.2885,7 L186.4525,7 L186.4525,3.964 C186.4525,3.469 186.4085,3.216 186.2875,2.996 C186.1445,2.71 185.8365,2.556 185.4625,2.556 C184.7255,2.556 184.2855,3.084 184.2855,3.964 L184.2855,7 L183.4495,7 L183.4495,1.929 Z"/>
        <g transform="translate(103 15)">
          <rect width="1" height="14" x="4" y="1"/>
          <rect width="9" height="1"/>
          <rect width="9" height="1" y="15"/>
        </g>
      </g>
      <g fill="#C41261" transform="translate(0 99)">
        <path d="M32.8155,18.306 L34.4985,12.663 L35.4555,12.663 L33.2115,20 L32.3975,20 L30.7805,14.236 L29.1525,20 L28.3385,20 L26.0945,12.663 L27.0735,12.663 L28.7455,18.284 L30.3735,12.663 L31.2425,12.663 L32.8155,18.306 Z M37.1825,14.929 L37.1825,20 L36.3465,20 L36.3465,14.929 L37.1825,14.929 Z M36.7755,12.96 C37.0725,12.96 37.3035,13.202 37.3035,13.51 C37.3035,13.807 37.0615,14.038 36.7645,14.038 C36.4675,14.038 36.2365,13.807 36.2365,13.499 C36.2365,13.191 36.4675,12.96 36.7755,12.96 Z M42.6605,15.699 L42.6605,12.663 L43.4965,12.663 L43.4965,20 L42.6605,20 L42.6605,19.131 C42.1545,19.824 41.6155,20.121 40.8455,20.121 C39.4485,20.121 38.4585,19.032 38.4585,17.492 C38.4585,15.952 39.4705,14.808 40.8455,14.808 C41.5935,14.808 42.1655,15.083 42.6605,15.699 Z M41.0215,15.556 C40.0205,15.556 39.3385,16.348 39.3385,17.503 C39.3385,18.614 40.0095,19.395 40.9665,19.395 C41.9455,19.395 42.6605,18.581 42.6605,17.481 C42.6605,16.337 41.9895,15.556 41.0215,15.556 Z M46.0705,15.666 L46.0705,18.966 C46.0815,19.219 46.1475,19.274 46.4555,19.274 L46.8405,19.274 L46.8405,20 L46.0595,20 C45.4655,19.989 45.2345,19.769 45.2345,19.208 L45.2345,15.666 L44.5305,15.666 L44.5305,14.929 L45.2345,14.929 L45.2345,13.334 L46.0705,13.334 L46.0705,14.929 L46.8405,14.929 L46.8405,15.666 L46.0705,15.666 Z M48.8645,12.663 L48.8645,15.633 C49.3265,15.061 49.7885,14.808 50.3935,14.808 C50.8335,14.808 51.2955,14.984 51.5705,15.27 C51.8455,15.545 51.9665,15.941 51.9665,16.59 L51.9665,20 L51.1305,20 L51.1305,16.634 C51.1305,15.941 50.7895,15.556 50.1845,15.556 C49.7995,15.556 49.4585,15.71 49.1945,16.007 C48.9415,16.293 48.8645,16.546 48.8645,17.03 L48.8645,20 L48.0285,20 L48.0285,12.663 L48.8645,12.663 Z M53.0225,15.226 L58.0385,15.226 L58.0385,15.699 L53.0225,15.699 L53.0225,15.226 Z M53.0225,16.777 L58.0385,16.777 L58.0385,17.25 L53.0225,17.25 L53.0225,16.777 Z M61.6355,13.565 L59.0725,13.565 L59.0725,12.773 L63.2305,12.773 L61.0745,15.512 C62.3505,15.512 63.2525,16.425 63.2525,17.723 C63.2525,19.098 62.2185,20.121 60.8215,20.121 C59.6665,20.121 58.8415,19.472 58.5885,18.361 L59.3805,18.218 C59.5785,18.922 60.0955,19.318 60.7775,19.318 C61.6685,19.318 62.3725,18.647 62.3725,17.789 C62.3725,16.909 61.7125,16.293 60.7555,16.293 C60.4145,16.293 60.1945,16.359 59.8755,16.546 L59.5125,16.227 L61.6355,13.565 Z M67.5205,13.587 L64.7045,13.587 L64.7045,12.773 L68.7745,12.773 L65.8705,20 L64.9245,20 L67.5205,13.587 Z M72.6465,18.35 L69.7095,18.35 L69.7095,17.668 L73.4935,12.564 L73.4935,17.558 L74.3515,17.558 L74.3515,18.35 L73.4935,18.35 L73.4935,20 L72.6465,20 L72.6465,18.35 Z M72.6465,17.558 L72.6465,14.753 L70.5895,17.558 L72.6465,17.558 Z M75.6165,14.929 L76.4525,14.929 L76.4525,15.853 C76.9365,15.105 77.4535,14.808 78.3005,14.808 C79.7085,14.808 80.6875,15.886 80.6875,17.426 C80.6875,19.021 79.7085,20.121 78.3005,20.121 C77.9045,20.121 77.5415,20.033 77.1895,19.857 C76.8815,19.703 76.7275,19.571 76.4525,19.208 L76.4525,22.376 L75.6165,22.376 L75.6165,14.929 Z M78.1575,15.556 C77.1455,15.556 76.4525,16.359 76.4525,17.547 C76.4525,18.658 77.1235,19.395 78.1245,19.395 C79.1255,19.395 79.7965,18.614 79.7965,17.459 C79.7965,16.865 79.6535,16.414 79.3565,16.084 C79.0595,15.754 78.6085,15.556 78.1575,15.556 Z M83.5695,18.163 L82.2165,20 L81.1935,20 L83.0635,17.481 L81.1605,14.929 L82.2165,14.929 L83.5695,16.788 L84.9555,14.929 L85.9785,14.929 L84.0645,17.481 L85.8905,20 L84.8675,20 L83.5695,18.163 Z M87.8815,19.142 L86.7705,21.749 L86.1655,21.562 L87.0895,18.889 L87.8815,19.142 Z M87.3535,15.831 C87.6835,15.831 87.9255,16.073 87.9255,16.414 C87.9255,16.733 87.6725,16.975 87.3535,16.975 C87.0235,16.975 86.7815,16.733 86.7815,16.403 C86.7815,16.073 87.0235,15.831 87.3535,15.831 Z M93.5355,12.663 L93.5355,15.633 C93.9975,15.061 94.4595,14.808 95.0645,14.808 C95.5045,14.808 95.9665,14.984 96.2415,15.27 C96.5165,15.545 96.6375,15.941 96.6375,16.59 L96.6375,20 L95.8015,20 L95.8015,16.634 C95.8015,15.941 95.4605,15.556 94.8555,15.556 C94.4705,15.556 94.1295,15.71 93.8655,16.007 C93.6125,16.293 93.5355,16.546 93.5355,17.03 L93.5355,20 L92.6995,20 L92.6995,12.663 L93.5355,12.663 Z M100.4765,14.808 C101.9725,14.808 103.0395,15.919 103.0395,17.481 C103.0395,18.966 101.8955,20.121 100.4435,20.121 C98.9365,20.121 97.8805,19.021 97.8805,17.459 C97.8805,15.886 98.9365,14.808 100.4765,14.808 Z M100.4765,15.578 C99.4315,15.578 98.7385,16.337 98.7385,17.47 C98.7385,18.592 99.4315,19.351 100.4655,19.351 C101.4665,19.351 102.1815,18.57 102.1815,17.47 C102.1815,16.337 101.4995,15.578 100.4765,15.578 Z M104.3155,14.929 L105.1515,14.929 L105.1515,15.787 C105.3055,15.424 105.4155,15.27 105.6135,15.116 C105.8665,14.918 106.2185,14.808 106.5815,14.808 L106.7795,14.808 L106.7795,15.655 C106.6915,15.644 106.6035,15.644 106.5485,15.644 C106.0975,15.644 105.7015,15.853 105.4485,16.227 C105.2285,16.546 105.1515,16.843 105.1515,17.426 L105.1515,20 L104.3155,20 L104.3155,14.929 Z M108.6495,14.929 L108.6495,20 L107.8135,20 L107.8135,14.929 L108.6495,14.929 Z M108.2425,12.96 C108.5395,12.96 108.7705,13.202 108.7705,13.51 C108.7705,13.807 108.5285,14.038 108.2315,14.038 C107.9345,14.038 107.7035,13.807 107.7035,13.499 C107.7035,13.191 107.9345,12.96 108.2425,12.96 Z M111.1465,19.263 L113.4785,19.263 L113.4785,20 L109.7385,20 L112.3785,15.666 L110.0245,15.666 L110.0245,14.929 L113.7535,14.929 L111.1465,19.263 Z M116.9325,14.808 C118.4285,14.808 119.4955,15.919 119.4955,17.481 C119.4955,18.966 118.3515,20.121 116.8995,20.121 C115.3925,20.121 114.3365,19.021 114.3365,17.459 C114.3365,15.886 115.3925,14.808 116.9325,14.808 Z M116.9325,15.578 C115.8875,15.578 115.1945,16.337 115.1945,17.47 C115.1945,18.592 115.8875,19.351 116.9215,19.351 C117.9225,19.351 118.6375,18.57 118.6375,17.47 C118.6375,16.337 117.9555,15.578 116.9325,15.578 Z M120.7715,14.929 L121.6075,14.929 L121.6075,15.644 C122.0475,15.05 122.4875,14.808 123.1145,14.808 C123.5765,14.808 123.9945,14.962 124.2915,15.226 C124.6105,15.534 124.7205,15.886 124.7205,16.579 L124.7205,20 L123.8845,20 L123.8845,16.766 C123.8845,16.315 123.8295,16.073 123.6975,15.897 C123.5435,15.688 123.2465,15.556 122.9055,15.556 C122.5315,15.556 122.1905,15.699 121.9375,15.985 C121.6955,16.249 121.6075,16.491 121.6075,16.909 L121.6075,20 L120.7715,20 L120.7715,14.929 Z M127.2615,15.666 L127.2615,18.966 C127.2725,19.219 127.3385,19.274 127.6465,19.274 L128.0315,19.274 L128.0315,20 L127.2505,20 C126.6565,19.989 126.4255,19.769 126.4255,19.208 L126.4255,15.666 L125.7215,15.666 L125.7215,14.929 L126.4255,14.929 L126.4255,13.334 L127.2615,13.334 L127.2615,14.929 L128.0315,14.929 L128.0315,15.666 L127.2615,15.666 Z M133.0475,15.765 L133.0475,14.929 L133.8835,14.929 L133.8835,20 L133.0475,20 L133.0475,19.021 C132.5415,19.78 131.9695,20.121 131.1995,20.121 C129.8025,20.121 128.8125,19.021 128.8125,17.481 C128.8125,15.93 129.8245,14.808 131.2215,14.808 C131.9915,14.808 132.5525,15.105 133.0475,15.765 Z M131.3425,15.556 C130.7925,15.556 130.4075,15.743 130.1105,16.161 C129.8465,16.524 129.6925,17.008 129.6925,17.503 C129.6925,18.581 130.3965,19.395 131.3205,19.395 C132.2775,19.395 133.0585,18.504 133.0585,17.415 C133.0585,16.315 132.3545,15.556 131.3425,15.556 Z M136.4025,20 L135.5665,20 L135.5665,12.663 L136.4025,12.663 L136.4025,20 Z M138.9215,20 L138.0855,20 L138.0855,12.663 L138.9215,12.663 L138.9215,20 Z M142.0895,18.691 L143.6075,14.929 L144.5205,14.929 L141.4955,22.442 L140.5825,22.442 L141.6385,19.846 L139.8345,14.929 L140.7255,14.929 L142.0895,18.691 Z M152.1545,18.801 L152.6715,19.373 C152.0995,19.89 151.5385,20.121 150.8015,20.121 C149.3495,20.121 148.3155,19.021 148.3155,17.481 C148.3155,15.908 149.3605,14.808 150.8455,14.808 C151.5715,14.808 152.1655,15.05 152.6935,15.567 L152.1545,16.106 C151.7695,15.754 151.3405,15.578 150.8675,15.578 C149.8665,15.578 149.1735,16.348 149.1735,17.448 C149.1735,18.57 149.8665,19.351 150.8565,19.351 C151.3515,19.351 151.7475,19.186 152.1545,18.801 Z M158.4575,17.734 L154.2335,17.734 C154.2775,18.163 154.3545,18.383 154.5635,18.658 C154.8935,19.109 155.3775,19.351 155.9275,19.351 C156.5545,19.351 157.1485,19.01 157.4455,18.482 L158.1825,18.757 C157.7645,19.604 156.8955,20.121 155.9275,20.121 C154.4205,20.121 153.3425,19.021 153.3425,17.481 C153.3425,15.919 154.4095,14.808 155.8945,14.808 C157.3685,14.808 158.4685,15.919 158.4685,17.404 C158.4685,17.47 158.4685,17.613 158.4575,17.734 Z M154.2445,17.118 L157.5775,17.118 C157.5445,16.722 157.4675,16.502 157.2915,16.249 C156.9725,15.82 156.4555,15.556 155.8945,15.556 C155.3335,15.556 154.8275,15.82 154.5305,16.26 C154.3765,16.502 154.3105,16.711 154.2445,17.118 Z M159.6785,14.929 L160.5145,14.929 L160.5145,15.644 C160.9545,15.05 161.3945,14.808 162.0215,14.808 C162.4835,14.808 162.9015,14.962 163.1985,15.226 C163.5175,15.534 163.6275,15.886 163.6275,16.579 L163.6275,20 L162.7915,20 L162.7915,16.766 C162.7915,16.315 162.7365,16.073 162.6045,15.897 C162.4505,15.688 162.1535,15.556 161.8125,15.556 C161.4385,15.556 161.0975,15.699 160.8445,15.985 C160.6025,16.249 160.5145,16.491 160.5145,16.909 L160.5145,20 L159.6785,20 L159.6785,14.929 Z M166.1685,15.666 L166.1685,18.966 C166.1795,19.219 166.2455,19.274 166.5535,19.274 L166.9385,19.274 L166.9385,20 L166.1575,20 C165.5635,19.989 165.3325,19.769 165.3325,19.208 L165.3325,15.666 L164.6285,15.666 L164.6285,14.929 L165.3325,14.929 L165.3325,13.334 L166.1685,13.334 L166.1685,14.929 L166.9385,14.929 L166.9385,15.666 L166.1685,15.666 Z M172.8345,17.734 L168.6105,17.734 C168.6545,18.163 168.7315,18.383 168.9405,18.658 C169.2705,19.109 169.7545,19.351 170.3045,19.351 C170.9315,19.351 171.5255,19.01 171.8225,18.482 L172.5595,18.757 C172.1415,19.604 171.2725,20.121 170.3045,20.121 C168.7975,20.121 167.7195,19.021 167.7195,17.481 C167.7195,15.919 168.7865,14.808 170.2715,14.808 C171.7455,14.808 172.8455,15.919 172.8455,17.404 C172.8455,17.47 172.8455,17.613 172.8345,17.734 Z M168.6215,17.118 L171.9545,17.118 C171.9215,16.722 171.8445,16.502 171.6685,16.249 C171.3495,15.82 170.8325,15.556 170.2715,15.556 C169.7105,15.556 169.2045,15.82 168.9075,16.26 C168.7535,16.502 168.6875,16.711 168.6215,17.118 Z M174.0555,14.929 L174.8915,14.929 L174.8915,15.787 C175.0455,15.424 175.1555,15.27 175.3535,15.116 C175.6065,14.918 175.9585,14.808 176.3215,14.808 L176.5195,14.808 L176.5195,15.655 C176.4315,15.644 176.3435,15.644 176.2885,15.644 C175.8375,15.644 175.4415,15.853 175.1885,16.227 C174.9685,16.546 174.8915,16.843 174.8915,17.426 L174.8915,20 L174.0555,20 L174.0555,14.929 Z M182.2615,17.734 L178.0375,17.734 C178.0815,18.163 178.1585,18.383 178.3675,18.658 C178.6975,19.109 179.1815,19.351 179.7315,19.351 C180.3585,19.351 180.9525,19.01 181.2495,18.482 L181.9865,18.757 C181.5685,19.604 180.6995,20.121 179.7315,20.121 C178.2245,20.121 177.1465,19.021 177.1465,17.481 C177.1465,15.919 178.2135,14.808 179.6985,14.808 C181.1725,14.808 182.2725,15.919 182.2725,17.404 C182.2725,17.47 182.2725,17.613 182.2615,17.734 Z M178.0485,17.118 L181.3815,17.118 C181.3485,16.722 181.2715,16.502 181.0955,16.249 C180.7765,15.82 180.2595,15.556 179.6985,15.556 C179.1375,15.556 178.6315,15.82 178.3345,16.26 C178.1805,16.502 178.1145,16.711 178.0485,17.118 Z M187.2775,15.699 L187.2775,12.663 L188.1135,12.663 L188.1135,20 L187.2775,20 L187.2775,19.131 C186.7715,19.824 186.2325,20.121 185.4625,20.121 C184.0655,20.121 183.0755,19.032 183.0755,17.492 C183.0755,15.952 184.0875,14.808 185.4625,14.808 C186.2105,14.808 186.7825,15.083 187.2775,15.699 Z M185.6385,15.556 C184.6375,15.556 183.9555,16.348 183.9555,17.503 C183.9555,18.614 184.6265,19.395 185.5835,19.395 C186.5625,19.395 187.2775,18.581 187.2775,17.481 C187.2775,16.337 186.6065,15.556 185.6385,15.556 Z M75.0775,25.929 L75.9355,25.929 L74.1315,31 L73.3725,31 L72.2065,27.15 L70.9855,31 L70.1935,31 L68.4555,25.929 L69.3135,25.929 L70.6115,29.658 L71.7775,25.929 L72.6025,25.929 L73.7465,29.658 L75.0775,25.929 Z M77.6735,25.929 L77.6735,31 L76.8375,31 L76.8375,25.929 L77.6735,25.929 Z M77.2665,23.96 C77.5635,23.96 77.7945,24.202 77.7945,24.51 C77.7945,24.807 77.5525,25.038 77.2555,25.038 C76.9585,25.038 76.7275,24.807 76.7275,24.499 C76.7275,24.191 76.9585,23.96 77.2665,23.96 Z M80.2475,26.666 L80.2475,29.966 C80.2585,30.219 80.3245,30.274 80.6325,30.274 L81.0175,30.274 L81.0175,31 L80.2365,31 C79.6425,30.989 79.4115,30.769 79.4115,30.208 L79.4115,26.666 L78.7075,26.666 L78.7075,25.929 L79.4115,25.929 L79.4115,24.334 L80.2475,24.334 L80.2475,25.929 L81.0175,25.929 L81.0175,26.666 L80.2475,26.666 Z M83.0415,23.663 L83.0415,26.633 C83.5035,26.061 83.9655,25.808 84.5705,25.808 C85.0105,25.808 85.4725,25.984 85.7475,26.27 C86.0225,26.545 86.1435,26.941 86.1435,27.59 L86.1435,31 L85.3075,31 L85.3075,27.634 C85.3075,26.941 84.9665,26.556 84.3615,26.556 C83.9765,26.556 83.6355,26.71 83.3715,27.007 C83.1185,27.293 83.0415,27.546 83.0415,28.03 L83.0415,31 L82.2055,31 L82.2055,23.663 L83.0415,23.663 Z M88.6295,25.929 L88.6295,31 L87.7935,31 L87.7935,25.929 L88.6295,25.929 Z M88.2225,23.96 C88.5195,23.96 88.7505,24.202 88.7505,24.51 C88.7505,24.807 88.5085,25.038 88.2115,25.038 C87.9145,25.038 87.6835,24.807 87.6835,24.499 C87.6835,24.191 87.9145,23.96 88.2225,23.96 Z M90.3125,25.929 L91.1485,25.929 L91.1485,26.644 C91.5885,26.05 92.0285,25.808 92.6555,25.808 C93.1175,25.808 93.5355,25.962 93.8325,26.226 C94.1515,26.534 94.2615,26.886 94.2615,27.579 L94.2615,31 L93.4255,31 L93.4255,27.766 C93.4255,27.315 93.3705,27.073 93.2385,26.897 C93.0845,26.688 92.7875,26.556 92.4465,26.556 C92.0725,26.556 91.7315,26.699 91.4785,26.985 C91.2365,27.249 91.1485,27.491 91.1485,27.909 L91.1485,31 L90.3125,31 L90.3125,25.929 Z M99.2115,25.929 L100.0475,25.929 L100.0475,26.787 C100.2015,26.424 100.3115,26.27 100.5095,26.116 C100.7625,25.918 101.1145,25.808 101.4775,25.808 L101.6755,25.808 L101.6755,26.655 C101.5875,26.644 101.4995,26.644 101.4445,26.644 C100.9935,26.644 100.5975,26.853 100.3445,27.227 C100.1245,27.546 100.0475,27.843 100.0475,28.426 L100.0475,31 L99.2115,31 L99.2115,25.929 Z M103.5455,25.929 L103.5455,31 L102.7095,31 L102.7095,25.929 L103.5455,25.929 Z M103.1385,23.96 C103.4355,23.96 103.6665,24.202 103.6665,24.51 C103.6665,24.807 103.4245,25.038 103.1275,25.038 C102.8305,25.038 102.5995,24.807 102.5995,24.499 C102.5995,24.191 102.8305,23.96 103.1385,23.96 Z M108.9795,26.798 L108.9795,25.929 L109.8155,25.929 L109.8155,31.033 C109.8155,31.88 109.6065,32.452 109.1445,32.892 C108.6935,33.332 108.0445,33.563 107.2745,33.563 C106.3285,33.563 105.5805,33.255 105.0305,32.639 L105.6025,32.067 C105.8335,32.309 105.9435,32.408 106.0865,32.507 C106.3725,32.683 106.8455,32.804 107.2745,32.804 C107.8025,32.804 108.3085,32.617 108.5945,32.309 C108.8475,32.034 108.9795,31.627 108.9795,31.099 L108.9795,30.032 C108.4845,30.78 107.9015,31.121 107.1095,31.121 C105.7675,31.121 104.7665,29.988 104.7665,28.481 C104.7665,27.667 105.0635,26.886 105.5695,26.402 C105.9765,26.006 106.5265,25.808 107.1755,25.808 C107.9455,25.808 108.4625,26.094 108.9795,26.798 Z M107.3295,26.578 C106.3395,26.578 105.6465,27.348 105.6465,28.448 C105.6465,29.537 106.3505,30.351 107.3075,30.351 C107.7915,30.351 108.2645,30.12 108.5945,29.735 C108.8145,29.482 108.9575,28.987 108.9575,28.481 C108.9575,27.821 108.8585,27.469 108.5615,27.139 C108.2535,26.798 107.7805,26.578 107.3295,26.578 Z M112.3345,23.663 L112.3345,26.633 C112.7965,26.061 113.2585,25.808 113.8635,25.808 C114.3035,25.808 114.7655,25.984 115.0405,26.27 C115.3155,26.545 115.4365,26.941 115.4365,27.59 L115.4365,31 L114.6005,31 L114.6005,27.634 C114.6005,26.941 114.2595,26.556 113.6545,26.556 C113.2695,26.556 112.9285,26.71 112.6645,27.007 C112.4115,27.293 112.3345,27.546 112.3345,28.03 L112.3345,31 L111.4985,31 L111.4985,23.663 L112.3345,23.663 Z M117.9775,26.666 L117.9775,29.966 C117.9885,30.219 118.0545,30.274 118.3625,30.274 L118.7475,30.274 L118.7475,31 L117.9665,31 C117.3725,30.989 117.1415,30.769 117.1415,30.208 L117.1415,26.666 L116.4375,26.666 L116.4375,25.929 L117.1415,25.929 L117.1415,24.334 L117.9775,24.334 L117.9775,25.929 L118.7475,25.929 L118.7475,26.666 L117.9775,26.666 Z M123.2355,25.929 L124.0715,25.929 L124.0715,26.853 C124.5555,26.105 125.0725,25.808 125.9195,25.808 C127.3275,25.808 128.3065,26.886 128.3065,28.426 C128.3065,30.021 127.3275,31.121 125.9195,31.121 C125.5235,31.121 125.1605,31.033 124.8085,30.857 C124.5005,30.703 124.3465,30.571 124.0715,30.208 L124.0715,33.376 L123.2355,33.376 L123.2355,25.929 Z M125.7765,26.556 C124.7645,26.556 124.0715,27.359 124.0715,28.547 C124.0715,29.658 124.7425,30.395 125.7435,30.395 C126.7445,30.395 127.4155,29.614 127.4155,28.459 C127.4155,27.865 127.2725,27.414 126.9755,27.084 C126.6785,26.754 126.2275,26.556 125.7765,26.556 Z M133.3995,26.765 L133.3995,25.929 L134.2355,25.929 L134.2355,31 L133.3995,31 L133.3995,30.021 C132.8935,30.78 132.3215,31.121 131.5515,31.121 C130.1545,31.121 129.1645,30.021 129.1645,28.481 C129.1645,26.93 130.1765,25.808 131.5735,25.808 C132.3435,25.808 132.9045,26.105 133.3995,26.765 Z M131.6945,26.556 C131.1445,26.556 130.7595,26.743 130.4625,27.161 C130.1985,27.524 130.0445,28.008 130.0445,28.503 C130.0445,29.581 130.7485,30.395 131.6725,30.395 C132.6295,30.395 133.4105,29.504 133.4105,28.415 C133.4105,27.315 132.7065,26.556 131.6945,26.556 Z M135.9185,25.929 L136.7545,25.929 L136.7545,26.644 C137.1945,26.05 137.6345,25.808 138.2615,25.808 C138.7235,25.808 139.1415,25.962 139.4385,26.226 C139.7575,26.534 139.8675,26.886 139.8675,27.579 L139.8675,31 L139.0315,31 L139.0315,27.766 C139.0315,27.315 138.9765,27.073 138.8445,26.897 C138.6905,26.688 138.3935,26.556 138.0525,26.556 C137.6785,26.556 137.3375,26.699 137.0845,26.985 C136.8425,27.249 136.7545,27.491 136.7545,27.909 L136.7545,31 L135.9185,31 L135.9185,25.929 Z M146.2255,28.734 L142.0015,28.734 C142.0455,29.163 142.1225,29.383 142.3315,29.658 C142.6615,30.109 143.1455,30.351 143.6955,30.351 C144.3225,30.351 144.9165,30.01 145.2135,29.482 L145.9505,29.757 C145.5325,30.604 144.6635,31.121 143.6955,31.121 C142.1885,31.121 141.1105,30.021 141.1105,28.481 C141.1105,26.919 142.1775,25.808 143.6625,25.808 C145.1365,25.808 146.2365,26.919 146.2365,28.404 C146.2365,28.47 146.2365,28.613 146.2255,28.734 Z M142.0125,28.118 L145.3455,28.118 C145.3125,27.722 145.2355,27.502 145.0595,27.249 C144.7405,26.82 144.2235,26.556 143.6625,26.556 C143.1015,26.556 142.5955,26.82 142.2985,27.26 C142.1445,27.502 142.0785,27.711 142.0125,28.118 Z"/>
        <rect width="1" height="9"/>
        <rect width="1" height="9" x="214"/>
        <rect width="213" height="1" x="1" y="4"/>
      </g>
    </g>
    <g transform="translate(4 28)">
      <rect width="168" height="48" x="16" y="32" fill="#25333D" rx="14"/>
      <g fill="#C41261">
        <path d="M1,47 L168,47 L168,1 L1,1 L1,47 Z M1,48 L0,48 L0,1 L0,0 L169,0 L169,1 L169,48 L168,48 L1,48 Z" transform="translate(15 32)"/>
        <path d="M1,79 L199,79 L199,1 L1,1 L1,79 Z M1,80 L0,80 L0,1 L0,0 L200,0 L200,1 L200,80 L199,80 L1,80 Z" transform="translate(0 16)"/>
        <path d="M36.799,1.994 L35.182,3.072 L35.182,2.236 L37.668,0.608 L37.668,8 L36.799,8 L36.799,1.994 Z M43.553,0.773 L41.672,3.71 C41.98,3.6 42.123,3.567 42.387,3.567 C43.608,3.567 44.554,4.524 44.554,5.767 C44.554,7.065 43.487,8.132 42.189,8.132 C40.88,8.132 39.868,7.098 39.868,5.767 C39.868,5.228 40.011,4.821 40.429,4.15 L42.53,0.773 L43.553,0.773 Z M42.233,4.315 C41.397,4.315 40.737,4.953 40.737,5.767 C40.737,6.625 41.386,7.307 42.211,7.307 C43.036,7.307 43.696,6.636 43.696,5.8 C43.696,4.975 43.047,4.315 42.233,4.315 Z M45.797,2.929 L46.633,2.929 L46.633,3.853 C47.117,3.105 47.634,2.808 48.481,2.808 C49.889,2.808 50.868,3.886 50.868,5.426 C50.868,7.021 49.889,8.121 48.481,8.121 C48.085,8.121 47.722,8.033 47.37,7.857 C47.062,7.703 46.908,7.571 46.633,7.208 L46.633,10.376 L45.797,10.376 L45.797,2.929 Z M48.338,3.556 C47.326,3.556 46.633,4.359 46.633,5.547 C46.633,6.658 47.304,7.395 48.305,7.395 C49.306,7.395 49.977,6.614 49.977,5.459 C49.977,4.865 49.834,4.414 49.537,4.084 C49.24,3.754 48.789,3.556 48.338,3.556 Z M53.75,6.163 L52.397,8 L51.374,8 L53.244,5.481 L51.341,2.929 L52.397,2.929 L53.75,4.788 L55.136,2.929 L56.159,2.929 L54.245,5.481 L56.071,8 L55.048,8 L53.75,6.163 Z M61.263,3.666 L61.263,8 L60.427,8 L60.427,3.666 L59.734,3.666 L59.734,2.929 L60.427,2.929 L60.427,2.247 C60.427,1.246 60.944,0.652 61.824,0.652 C61.868,0.652 61.967,0.652 62.055,0.663 L62.055,1.411 C61.45,1.477 61.285,1.653 61.263,2.247 L61.263,2.929 L62.055,2.929 L62.055,3.666 L61.263,3.666 Z M64.255,2.929 L64.255,8 L63.419,8 L63.419,2.929 L64.255,2.929 Z M63.837,0.96 C64.134,0.96 64.365,1.202 64.365,1.51 C64.365,1.807 64.134,2.038 63.837,2.038 C63.529,2.038 63.298,1.807 63.298,1.499 C63.298,1.191 63.529,0.96 63.837,0.96 Z M67.555,6.163 L66.202,8 L65.179,8 L67.049,5.481 L65.146,2.929 L66.202,2.929 L67.555,4.788 L68.941,2.929 L69.964,2.929 L68.05,5.481 L69.876,8 L68.853,8 L67.555,6.163 Z M75.552,5.734 L71.328,5.734 C71.372,6.163 71.449,6.383 71.658,6.658 C71.988,7.109 72.472,7.351 73.022,7.351 C73.649,7.351 74.243,7.01 74.54,6.482 L75.277,6.757 C74.859,7.604 73.99,8.121 73.022,8.121 C71.515,8.121 70.437,7.021 70.437,5.481 C70.437,3.919 71.504,2.808 72.989,2.808 C74.463,2.808 75.563,3.919 75.563,5.404 C75.563,5.47 75.563,5.613 75.552,5.734 Z M71.339,5.118 L74.672,5.118 C74.639,4.722 74.562,4.502 74.386,4.249 C74.067,3.82 73.55,3.556 72.989,3.556 C72.428,3.556 71.922,3.82 71.625,4.26 C71.471,4.502 71.405,4.711 71.339,5.118 Z M80.568,3.699 L80.568,0.663 L81.404,0.663 L81.404,8 L80.568,8 L80.568,7.131 C80.062,7.824 79.523,8.121 78.753,8.121 C77.356,8.121 76.366,7.032 76.366,5.492 C76.366,3.952 77.378,2.808 78.753,2.808 C79.501,2.808 80.073,3.083 80.568,3.699 Z M78.929,3.556 C77.928,3.556 77.246,4.348 77.246,5.503 C77.246,6.614 77.917,7.395 78.874,7.395 C79.853,7.395 80.568,6.581 80.568,5.481 C80.568,4.337 79.897,3.556 78.929,3.556 Z M86.387,2.929 L87.223,2.929 L87.223,3.853 C87.707,3.105 88.224,2.808 89.071,2.808 C90.479,2.808 91.458,3.886 91.458,5.426 C91.458,7.021 90.479,8.121 89.071,8.121 C88.675,8.121 88.312,8.033 87.96,7.857 C87.652,7.703 87.498,7.571 87.223,7.208 L87.223,10.376 L86.387,10.376 L86.387,2.929 Z M88.928,3.556 C87.916,3.556 87.223,4.359 87.223,5.547 C87.223,6.658 87.894,7.395 88.895,7.395 C89.896,7.395 90.567,6.614 90.567,5.459 C90.567,4.865 90.424,4.414 90.127,4.084 C89.83,3.754 89.379,3.556 88.928,3.556 Z M96.551,3.765 L96.551,2.929 L97.387,2.929 L97.387,8 L96.551,8 L96.551,7.021 C96.045,7.78 95.473,8.121 94.703,8.121 C93.306,8.121 92.316,7.021 92.316,5.481 C92.316,3.93 93.328,2.808 94.725,2.808 C95.495,2.808 96.056,3.105 96.551,3.765 Z M94.846,3.556 C94.296,3.556 93.911,3.743 93.614,4.161 C93.35,4.524 93.196,5.008 93.196,5.503 C93.196,6.581 93.9,7.395 94.824,7.395 C95.781,7.395 96.562,6.504 96.562,5.415 C96.562,4.315 95.858,3.556 94.846,3.556 Z M102.865,3.699 L102.865,0.663 L103.701,0.663 L103.701,8 L102.865,8 L102.865,7.131 C102.359,7.824 101.82,8.121 101.05,8.121 C99.653,8.121 98.663,7.032 98.663,5.492 C98.663,3.952 99.675,2.808 101.05,2.808 C101.798,2.808 102.37,3.083 102.865,3.699 Z M101.226,3.556 C100.225,3.556 99.543,4.348 99.543,5.503 C99.543,6.614 100.214,7.395 101.171,7.395 C102.15,7.395 102.865,6.581 102.865,5.481 C102.865,4.337 102.194,3.556 101.226,3.556 Z M109.179,3.699 L109.179,0.663 L110.015,0.663 L110.015,8 L109.179,8 L109.179,7.131 C108.673,7.824 108.134,8.121 107.364,8.121 C105.967,8.121 104.977,7.032 104.977,5.492 C104.977,3.952 105.989,2.808 107.364,2.808 C108.112,2.808 108.684,3.083 109.179,3.699 Z M107.54,3.556 C106.539,3.556 105.857,4.348 105.857,5.503 C105.857,6.614 106.528,7.395 107.485,7.395 C108.464,7.395 109.179,6.581 109.179,5.481 C109.179,4.337 108.508,3.556 107.54,3.556 Z M112.534,2.929 L112.534,8 L111.698,8 L111.698,2.929 L112.534,2.929 Z M112.127,0.96 C112.424,0.96 112.655,1.202 112.655,1.51 C112.655,1.807 112.413,2.038 112.116,2.038 C111.819,2.038 111.588,1.807 111.588,1.499 C111.588,1.191 111.819,0.96 112.127,0.96 Z M114.217,2.929 L115.053,2.929 L115.053,3.644 C115.493,3.05 115.933,2.808 116.56,2.808 C117.022,2.808 117.44,2.962 117.737,3.226 C118.056,3.534 118.166,3.886 118.166,4.579 L118.166,8 L117.33,8 L117.33,4.766 C117.33,4.315 117.275,4.073 117.143,3.897 C116.989,3.688 116.692,3.556 116.351,3.556 C115.977,3.556 115.636,3.699 115.383,3.985 C115.141,4.249 115.053,4.491 115.053,4.909 L115.053,8 L114.217,8 L114.217,2.929 Z M123.567,3.798 L123.567,2.929 L124.403,2.929 L124.403,8.033 C124.403,8.88 124.194,9.452 123.732,9.892 C123.281,10.332 122.632,10.563 121.862,10.563 C120.916,10.563 120.168,10.255 119.618,9.639 L120.19,9.067 C120.421,9.309 120.531,9.408 120.674,9.507 C120.96,9.683 121.433,9.804 121.862,9.804 C122.39,9.804 122.896,9.617 123.182,9.309 C123.435,9.034 123.567,8.627 123.567,8.099 L123.567,7.032 C123.072,7.78 122.489,8.121 121.697,8.121 C120.355,8.121 119.354,6.988 119.354,5.481 C119.354,4.667 119.651,3.886 120.157,3.402 C120.564,3.006 121.114,2.808 121.763,2.808 C122.533,2.808 123.05,3.094 123.567,3.798 Z M121.917,3.578 C120.927,3.578 120.234,4.348 120.234,5.448 C120.234,6.537 120.938,7.351 121.895,7.351 C122.379,7.351 122.852,7.12 123.182,6.735 C123.402,6.482 123.545,5.987 123.545,5.481 C123.545,4.821 123.446,4.469 123.149,4.139 C122.841,3.798 122.368,3.578 121.917,3.578 Z M133.214,3.765 L133.214,2.929 L134.05,2.929 L134.05,8 L133.214,8 L133.214,7.021 C132.708,7.78 132.136,8.121 131.366,8.121 C129.969,8.121 128.979,7.021 128.979,5.481 C128.979,3.93 129.991,2.808 131.388,2.808 C132.158,2.808 132.719,3.105 133.214,3.765 Z M131.509,3.556 C130.959,3.556 130.574,3.743 130.277,4.161 C130.013,4.524 129.859,5.008 129.859,5.503 C129.859,6.581 130.563,7.395 131.487,7.395 C132.444,7.395 133.225,6.504 133.225,5.415 C133.225,4.315 132.521,3.556 131.509,3.556 Z M136.569,8 L135.733,8 L135.733,0.663 L136.569,0.663 L136.569,8 Z M139.088,8 L138.252,8 L138.252,0.663 L139.088,0.663 L139.088,8 Z M147.25,4.315 L146.414,4.315 L146.414,4.26 C146.414,3.787 146.029,3.49 145.446,3.49 C144.885,3.49 144.533,3.776 144.533,4.216 C144.533,4.656 144.753,4.821 145.666,5.074 C146.315,5.25 146.656,5.415 146.898,5.657 C147.151,5.91 147.305,6.273 147.305,6.647 C147.305,7.527 146.579,8.121 145.501,8.121 C144.346,8.121 143.697,7.582 143.609,6.559 L144.434,6.559 C144.489,7.131 144.863,7.439 145.501,7.439 C146.073,7.439 146.447,7.142 146.447,6.691 C146.447,6.251 146.161,6.031 145.292,5.811 C144.192,5.514 143.697,5.052 143.697,4.282 C143.697,3.402 144.412,2.808 145.479,2.808 C146.557,2.808 147.206,3.358 147.25,4.315 Z M149.428,2.929 L149.428,8 L148.592,8 L148.592,2.929 L149.428,2.929 Z M149.021,0.96 C149.318,0.96 149.549,1.202 149.549,1.51 C149.549,1.807 149.307,2.038 149.01,2.038 C148.713,2.038 148.482,1.807 148.482,1.499 C148.482,1.191 148.713,0.96 149.021,0.96 Z M154.906,3.699 L154.906,0.663 L155.742,0.663 L155.742,8 L154.906,8 L154.906,7.131 C154.4,7.824 153.861,8.121 153.091,8.121 C151.694,8.121 150.704,7.032 150.704,5.492 C150.704,3.952 151.716,2.808 153.091,2.808 C153.839,2.808 154.411,3.083 154.906,3.699 Z M153.267,3.556 C152.266,3.556 151.584,4.348 151.584,5.503 C151.584,6.614 152.255,7.395 153.212,7.395 C154.191,7.395 154.906,6.581 154.906,5.481 C154.906,4.337 154.235,3.556 153.267,3.556 Z M162.133,5.734 L157.909,5.734 C157.953,6.163 158.03,6.383 158.239,6.658 C158.569,7.109 159.053,7.351 159.603,7.351 C160.23,7.351 160.824,7.01 161.121,6.482 L161.858,6.757 C161.44,7.604 160.571,8.121 159.603,8.121 C158.096,8.121 157.018,7.021 157.018,5.481 C157.018,3.919 158.085,2.808 159.57,2.808 C161.044,2.808 162.144,3.919 162.144,5.404 C162.144,5.47 162.144,5.613 162.133,5.734 Z M157.92,5.118 L161.253,5.118 C161.22,4.722 161.143,4.502 160.967,4.249 C160.648,3.82 160.131,3.556 159.57,3.556 C159.009,3.556 158.503,3.82 158.206,4.26 C158.052,4.502 157.986,4.711 157.92,5.118 Z M166.533,4.315 L165.697,4.315 L165.697,4.26 C165.697,3.787 165.312,3.49 164.729,3.49 C164.168,3.49 163.816,3.776 163.816,4.216 C163.816,4.656 164.036,4.821 164.949,5.074 C165.598,5.25 165.939,5.415 166.181,5.657 C166.434,5.91 166.588,6.273 166.588,6.647 C166.588,7.527 165.862,8.121 164.784,8.121 C163.629,8.121 162.98,7.582 162.892,6.559 L163.717,6.559 C163.772,7.131 164.146,7.439 164.784,7.439 C165.356,7.439 165.73,7.142 165.73,6.691 C165.73,6.251 165.444,6.031 164.575,5.811 C163.475,5.514 162.98,5.052 162.98,4.282 C162.98,3.402 163.695,2.808 164.762,2.808 C165.84,2.808 166.489,3.358 166.533,4.315 Z"/>
        <g transform="translate(96 16)">
          <rect width="1" height="14" x="4" y="1"/>
          <rect width="9" height="1"/>
          <rect width="9" height="1" y="15"/>
        </g>
      </g>
      <g fill="#C41261" transform="translate(15 100)">
        <path d="M26.836,18.031 L27.716,18.031 C27.76,18.867 28.211,19.307 29.014,19.307 C29.839,19.307 30.422,18.801 30.422,18.064 C30.422,17.426 30.092,17.129 28.937,16.744 C28.068,16.447 27.782,16.304 27.452,16.007 C27.078,15.666 26.88,15.182 26.88,14.621 C26.88,13.378 27.771,12.531 29.069,12.531 C30.367,12.531 31.214,13.356 31.247,14.632 L30.323,14.632 C30.312,14.258 30.268,14.082 30.147,13.873 C29.938,13.554 29.531,13.356 29.058,13.356 C28.332,13.356 27.815,13.851 27.815,14.555 C27.815,14.907 27.969,15.215 28.233,15.402 C28.464,15.567 28.662,15.655 29.41,15.919 C30.191,16.194 30.565,16.392 30.862,16.711 C31.181,17.052 31.357,17.514 31.357,18.009 C31.357,19.274 30.422,20.132 29.047,20.132 C28.112,20.132 27.474,19.802 27.089,19.142 C26.913,18.845 26.836,18.537 26.836,18.185 L26.836,18.031 Z M33.535,15.666 L33.535,18.966 C33.546,19.219 33.612,19.274 33.92,19.274 L34.305,19.274 L34.305,20 L33.524,20 C32.93,19.989 32.699,19.769 32.699,19.208 L32.699,15.666 L31.995,15.666 L31.995,14.929 L32.699,14.929 L32.699,13.334 L33.535,13.334 L33.535,14.929 L34.305,14.929 L34.305,15.666 L33.535,15.666 Z M35.493,14.929 L36.329,14.929 L36.329,15.787 C36.483,15.424 36.593,15.27 36.791,15.116 C37.044,14.918 37.396,14.808 37.759,14.808 L37.957,14.808 L37.957,15.655 C37.869,15.644 37.781,15.644 37.726,15.644 C37.275,15.644 36.879,15.853 36.626,16.227 C36.406,16.546 36.329,16.843 36.329,17.426 L36.329,20 L35.493,20 L35.493,14.929 Z M43.699,17.734 L39.475,17.734 C39.519,18.163 39.596,18.383 39.805,18.658 C40.135,19.109 40.619,19.351 41.169,19.351 C41.796,19.351 42.39,19.01 42.687,18.482 L43.424,18.757 C43.006,19.604 42.137,20.121 41.169,20.121 C39.662,20.121 38.584,19.021 38.584,17.481 C38.584,15.919 39.651,14.808 41.136,14.808 C42.61,14.808 43.71,15.919 43.71,17.404 C43.71,17.47 43.71,17.613 43.699,17.734 Z M39.486,17.118 L42.819,17.118 C42.786,16.722 42.709,16.502 42.533,16.249 C42.214,15.82 41.697,15.556 41.136,15.556 C40.575,15.556 40.069,15.82 39.772,16.26 C39.618,16.502 39.552,16.711 39.486,17.118 Z M45.811,15.666 L45.811,18.966 C45.822,19.219 45.888,19.274 46.196,19.274 L46.581,19.274 L46.581,20 L45.8,20 C45.206,19.989 44.975,19.769 44.975,19.208 L44.975,15.666 L44.271,15.666 L44.271,14.929 L44.975,14.929 L44.975,13.334 L45.811,13.334 L45.811,14.929 L46.581,14.929 L46.581,15.666 L45.811,15.666 Z M51.201,18.801 L51.718,19.373 C51.146,19.89 50.585,20.121 49.848,20.121 C48.396,20.121 47.362,19.021 47.362,17.481 C47.362,15.908 48.407,14.808 49.892,14.808 C50.618,14.808 51.212,15.05 51.74,15.567 L51.201,16.106 C50.816,15.754 50.387,15.578 49.914,15.578 C48.913,15.578 48.22,16.348 48.22,17.448 C48.22,18.57 48.913,19.351 49.903,19.351 C50.398,19.351 50.794,19.186 51.201,18.801 Z M53.632,12.663 L53.632,15.633 C54.094,15.061 54.556,14.808 55.161,14.808 C55.601,14.808 56.063,14.984 56.338,15.27 C56.613,15.545 56.734,15.941 56.734,16.59 L56.734,20 L55.898,20 L55.898,16.634 C55.898,15.941 55.557,15.556 54.952,15.556 C54.567,15.556 54.226,15.71 53.962,16.007 C53.709,16.293 53.632,16.546 53.632,17.03 L53.632,20 L52.796,20 L52.796,12.663 L53.632,12.663 Z M62.575,15.666 L62.575,18.966 C62.586,19.219 62.652,19.274 62.96,19.274 L63.345,19.274 L63.345,20 L62.564,20 C61.97,19.989 61.739,19.769 61.739,19.208 L61.739,15.666 L61.035,15.666 L61.035,14.929 L61.739,14.929 L61.739,13.334 L62.575,13.334 L62.575,14.929 L63.345,14.929 L63.345,15.666 L62.575,15.666 Z M66.722,14.808 C68.218,14.808 69.285,15.919 69.285,17.481 C69.285,18.966 68.141,20.121 66.689,20.121 C65.182,20.121 64.126,19.021 64.126,17.459 C64.126,15.886 65.182,14.808 66.722,14.808 Z M66.722,15.578 C65.677,15.578 64.984,16.337 64.984,17.47 C64.984,18.592 65.677,19.351 66.711,19.351 C67.712,19.351 68.427,18.57 68.427,17.47 C68.427,16.337 67.745,15.578 66.722,15.578 Z M79.713,14.929 L80.571,14.929 L78.767,20 L78.008,20 L76.842,16.15 L75.621,20 L74.829,20 L73.091,14.929 L73.949,14.929 L75.247,18.658 L76.413,14.929 L77.238,14.929 L78.382,18.658 L79.713,14.929 Z M82.309,14.929 L82.309,20 L81.473,20 L81.473,14.929 L82.309,14.929 Z M81.902,12.96 C82.199,12.96 82.43,13.202 82.43,13.51 C82.43,13.807 82.188,14.038 81.891,14.038 C81.594,14.038 81.363,13.807 81.363,13.499 C81.363,13.191 81.594,12.96 81.902,12.96 Z M87.787,15.699 L87.787,12.663 L88.623,12.663 L88.623,20 L87.787,20 L87.787,19.131 C87.281,19.824 86.742,20.121 85.972,20.121 C84.575,20.121 83.585,19.032 83.585,17.492 C83.585,15.952 84.597,14.808 85.972,14.808 C86.72,14.808 87.292,15.083 87.787,15.699 Z M86.148,15.556 C85.147,15.556 84.465,16.348 84.465,17.503 C84.465,18.614 85.136,19.395 86.093,19.395 C87.072,19.395 87.787,18.581 87.787,17.481 C87.787,16.337 87.116,15.556 86.148,15.556 Z M91.197,15.666 L91.197,18.966 C91.208,19.219 91.274,19.274 91.582,19.274 L91.967,19.274 L91.967,20 L91.186,20 C90.592,19.989 90.361,19.769 90.361,19.208 L90.361,15.666 L89.657,15.666 L89.657,14.929 L90.361,14.929 L90.361,13.334 L91.197,13.334 L91.197,14.929 L91.967,14.929 L91.967,15.666 L91.197,15.666 Z M93.991,12.663 L93.991,15.633 C94.453,15.061 94.915,14.808 95.52,14.808 C95.96,14.808 96.422,14.984 96.697,15.27 C96.972,15.545 97.093,15.941 97.093,16.59 L97.093,20 L96.257,20 L96.257,16.634 C96.257,15.941 95.916,15.556 95.311,15.556 C94.926,15.556 94.585,15.71 94.321,16.007 C94.068,16.293 93.991,16.546 93.991,17.03 L93.991,20 L93.155,20 L93.155,12.663 L93.991,12.663 Z M104.232,14.808 C105.728,14.808 106.795,15.919 106.795,17.481 C106.795,18.966 105.651,20.121 104.199,20.121 C102.692,20.121 101.636,19.021 101.636,17.459 C101.636,15.886 102.692,14.808 104.232,14.808 Z M104.232,15.578 C103.187,15.578 102.494,16.337 102.494,17.47 C102.494,18.592 103.187,19.351 104.221,19.351 C105.222,19.351 105.937,18.57 105.937,17.47 C105.937,16.337 105.255,15.578 104.232,15.578 Z M108.995,15.666 L108.995,20 L108.159,20 L108.159,15.666 L107.466,15.666 L107.466,14.929 L108.159,14.929 L108.159,14.247 C108.159,13.246 108.676,12.652 109.556,12.652 C109.6,12.652 109.699,12.652 109.787,12.663 L109.787,13.411 C109.182,13.477 109.017,13.653 108.995,14.247 L108.995,14.929 L109.787,14.929 L109.787,15.666 L108.995,15.666 Z M115.056,20 L114.22,20 L114.22,12.663 L115.056,12.663 L115.056,20 Z M121.447,17.734 L117.223,17.734 C117.267,18.163 117.344,18.383 117.553,18.658 C117.883,19.109 118.367,19.351 118.917,19.351 C119.544,19.351 120.138,19.01 120.435,18.482 L121.172,18.757 C120.754,19.604 119.885,20.121 118.917,20.121 C117.41,20.121 116.332,19.021 116.332,17.481 C116.332,15.919 117.399,14.808 118.884,14.808 C120.358,14.808 121.458,15.919 121.458,17.404 C121.458,17.47 121.458,17.613 121.447,17.734 Z M117.234,17.118 L120.567,17.118 C120.534,16.722 120.457,16.502 120.281,16.249 C119.962,15.82 119.445,15.556 118.884,15.556 C118.323,15.556 117.817,15.82 117.52,16.26 C117.366,16.502 117.3,16.711 117.234,17.118 Z M123.592,15.666 L123.592,20 L122.756,20 L122.756,15.666 L122.063,15.666 L122.063,14.929 L122.756,14.929 L122.756,14.247 C122.756,13.246 123.273,12.652 124.153,12.652 C124.197,12.652 124.296,12.652 124.384,12.663 L124.384,13.411 C123.779,13.477 123.614,13.653 123.592,14.247 L123.592,14.929 L124.384,14.929 L124.384,15.666 L123.592,15.666 Z M126.408,15.666 L126.408,18.966 C126.419,19.219 126.485,19.274 126.793,19.274 L127.178,19.274 L127.178,20 L126.397,20 C125.803,19.989 125.572,19.769 125.572,19.208 L125.572,15.666 L124.868,15.666 L124.868,14.929 L125.572,14.929 L125.572,13.334 L126.408,13.334 L126.408,14.929 L127.178,14.929 L127.178,15.666 L126.408,15.666 Z M131.666,14.929 L132.502,14.929 L132.502,15.853 C132.986,15.105 133.503,14.808 134.35,14.808 C135.758,14.808 136.737,15.886 136.737,17.426 C136.737,19.021 135.758,20.121 134.35,20.121 C133.954,20.121 133.591,20.033 133.239,19.857 C132.931,19.703 132.777,19.571 132.502,19.208 L132.502,22.376 L131.666,22.376 L131.666,14.929 Z M134.207,15.556 C133.195,15.556 132.502,16.359 132.502,17.547 C132.502,18.658 133.173,19.395 134.174,19.395 C135.175,19.395 135.846,18.614 135.846,17.459 C135.846,16.865 135.703,16.414 135.406,16.084 C135.109,15.754 134.658,15.556 134.207,15.556 Z M141.83,15.765 L141.83,14.929 L142.666,14.929 L142.666,20 L141.83,20 L141.83,19.021 C141.324,19.78 140.752,20.121 139.982,20.121 C138.585,20.121 137.595,19.021 137.595,17.481 C137.595,15.93 138.607,14.808 140.004,14.808 C140.774,14.808 141.335,15.105 141.83,15.765 Z M140.125,15.556 C139.575,15.556 139.19,15.743 138.893,16.161 C138.629,16.524 138.475,17.008 138.475,17.503 C138.475,18.581 139.179,19.395 140.103,19.395 C141.06,19.395 141.841,18.504 141.841,17.415 C141.841,16.315 141.137,15.556 140.125,15.556 Z M144.349,14.929 L145.185,14.929 L145.185,15.644 C145.625,15.05 146.065,14.808 146.692,14.808 C147.154,14.808 147.572,14.962 147.869,15.226 C148.188,15.534 148.298,15.886 148.298,16.579 L148.298,20 L147.462,20 L147.462,16.766 C147.462,16.315 147.407,16.073 147.275,15.897 C147.121,15.688 146.824,15.556 146.483,15.556 C146.109,15.556 145.768,15.699 145.515,15.985 C145.273,16.249 145.185,16.491 145.185,16.909 L145.185,20 L144.349,20 L144.349,14.929 Z M154.656,17.734 L150.432,17.734 C150.476,18.163 150.553,18.383 150.762,18.658 C151.092,19.109 151.576,19.351 152.126,19.351 C152.753,19.351 153.347,19.01 153.644,18.482 L154.381,18.757 C153.963,19.604 153.094,20.121 152.126,20.121 C150.619,20.121 149.541,19.021 149.541,17.481 C149.541,15.919 150.608,14.808 152.093,14.808 C153.567,14.808 154.667,15.919 154.667,17.404 C154.667,17.47 154.667,17.613 154.656,17.734 Z M150.443,17.118 L153.776,17.118 C153.743,16.722 153.666,16.502 153.49,16.249 C153.171,15.82 152.654,15.556 152.093,15.556 C151.532,15.556 151.026,15.82 150.729,16.26 C150.575,16.502 150.509,16.711 150.443,17.118 Z M156.9,19.142 L155.789,21.749 L155.184,21.562 L156.108,18.889 L156.9,19.142 Z M156.372,15.831 C156.702,15.831 156.944,16.073 156.944,16.414 C156.944,16.733 156.691,16.975 156.372,16.975 C156.042,16.975 155.8,16.733 155.8,16.403 C155.8,16.073 156.042,15.831 156.372,15.831 Z M45.1235,23.663 L45.1235,26.633 C45.5855,26.061 46.0475,25.808 46.6525,25.808 C47.0925,25.808 47.5545,25.984 47.8295,26.27 C48.1045,26.545 48.2255,26.941 48.2255,27.59 L48.2255,31 L47.3895,31 L47.3895,27.634 C47.3895,26.941 47.0485,26.556 46.4435,26.556 C46.0585,26.556 45.7175,26.71 45.4535,27.007 C45.2005,27.293 45.1235,27.546 45.1235,28.03 L45.1235,31 L44.2875,31 L44.2875,23.663 L45.1235,23.663 Z M52.0645,25.808 C53.5605,25.808 54.6275,26.919 54.6275,28.481 C54.6275,29.966 53.4835,31.121 52.0315,31.121 C50.5245,31.121 49.4685,30.021 49.4685,28.459 C49.4685,26.886 50.5245,25.808 52.0645,25.808 Z M52.0645,26.578 C51.0195,26.578 50.3265,27.337 50.3265,28.47 C50.3265,29.592 51.0195,30.351 52.0535,30.351 C53.0545,30.351 53.7695,29.57 53.7695,28.47 C53.7695,27.337 53.0875,26.578 52.0645,26.578 Z M55.9035,25.929 L56.7395,25.929 L56.7395,26.787 C56.8935,26.424 57.0035,26.27 57.2015,26.116 C57.4545,25.918 57.8065,25.808 58.1695,25.808 L58.3675,25.808 L58.3675,26.655 C58.2795,26.644 58.1915,26.644 58.1365,26.644 C57.6855,26.644 57.2895,26.853 57.0365,27.227 C56.8165,27.546 56.7395,27.843 56.7395,28.426 L56.7395,31 L55.9035,31 L55.9035,25.929 Z M60.2375,25.929 L60.2375,31 L59.4015,31 L59.4015,25.929 L60.2375,25.929 Z M59.8305,23.96 C60.1275,23.96 60.3585,24.202 60.3585,24.51 C60.3585,24.807 60.1165,25.038 59.8195,25.038 C59.5225,25.038 59.2915,24.807 59.2915,24.499 C59.2915,24.191 59.5225,23.96 59.8305,23.96 Z M62.7345,30.263 L65.0665,30.263 L65.0665,31 L61.3265,31 L63.9665,26.666 L61.6125,26.666 L61.6125,25.929 L65.3415,25.929 L62.7345,30.263 Z M68.5205,25.808 C70.0165,25.808 71.0835,26.919 71.0835,28.481 C71.0835,29.966 69.9395,31.121 68.4875,31.121 C66.9805,31.121 65.9245,30.021 65.9245,28.459 C65.9245,26.886 66.9805,25.808 68.5205,25.808 Z M68.5205,26.578 C67.4755,26.578 66.7825,27.337 66.7825,28.47 C66.7825,29.592 67.4755,30.351 68.5095,30.351 C69.5105,30.351 70.2255,29.57 70.2255,28.47 C70.2255,27.337 69.5435,26.578 68.5205,26.578 Z M72.3595,25.929 L73.1955,25.929 L73.1955,26.644 C73.6355,26.05 74.0755,25.808 74.7025,25.808 C75.1645,25.808 75.5825,25.962 75.8795,26.226 C76.1985,26.534 76.3085,26.886 76.3085,27.579 L76.3085,31 L75.4725,31 L75.4725,27.766 C75.4725,27.315 75.4175,27.073 75.2855,26.897 C75.1315,26.688 74.8345,26.556 74.4935,26.556 C74.1195,26.556 73.7785,26.699 73.5255,26.985 C73.2835,27.249 73.1955,27.491 73.1955,27.909 L73.1955,31 L72.3595,31 L72.3595,25.929 Z M78.8495,26.666 L78.8495,29.966 C78.8605,30.219 78.9265,30.274 79.2345,30.274 L79.6195,30.274 L79.6195,31 L78.8385,31 C78.2445,30.989 78.0135,30.769 78.0135,30.208 L78.0135,26.666 L77.3095,26.666 L77.3095,25.929 L78.0135,25.929 L78.0135,24.334 L78.8495,24.334 L78.8495,25.929 L79.6195,25.929 L79.6195,26.666 L78.8495,26.666 Z M84.6355,26.765 L84.6355,25.929 L85.4715,25.929 L85.4715,31 L84.6355,31 L84.6355,30.021 C84.1295,30.78 83.5575,31.121 82.7875,31.121 C81.3905,31.121 80.4005,30.021 80.4005,28.481 C80.4005,26.93 81.4125,25.808 82.8095,25.808 C83.5795,25.808 84.1405,26.105 84.6355,26.765 Z M82.9305,26.556 C82.3805,26.556 81.9955,26.743 81.6985,27.161 C81.4345,27.524 81.2805,28.008 81.2805,28.503 C81.2805,29.581 81.9845,30.395 82.9085,30.395 C83.8655,30.395 84.6465,29.504 84.6465,28.415 C84.6465,27.315 83.9425,26.556 82.9305,26.556 Z M87.9905,31 L87.1545,31 L87.1545,23.663 L87.9905,23.663 L87.9905,31 Z M90.5095,31 L89.6735,31 L89.6735,23.663 L90.5095,23.663 L90.5095,31 Z M93.6775,29.691 L95.1955,25.929 L96.1085,25.929 L93.0835,33.442 L92.1705,33.442 L93.2265,30.846 L91.4225,25.929 L92.3135,25.929 L93.6775,29.691 Z M103.7425,29.801 L104.2595,30.373 C103.6875,30.89 103.1265,31.121 102.3895,31.121 C100.9375,31.121 99.9035,30.021 99.9035,28.481 C99.9035,26.908 100.9485,25.808 102.4335,25.808 C103.1595,25.808 103.7535,26.05 104.2815,26.567 L103.7425,27.106 C103.3575,26.754 102.9285,26.578 102.4555,26.578 C101.4545,26.578 100.7615,27.348 100.7615,28.448 C100.7615,29.57 101.4545,30.351 102.4445,30.351 C102.9395,30.351 103.3355,30.186 103.7425,29.801 Z M110.0455,28.734 L105.8215,28.734 C105.8655,29.163 105.9425,29.383 106.1515,29.658 C106.4815,30.109 106.9655,30.351 107.5155,30.351 C108.1425,30.351 108.7365,30.01 109.0335,29.482 L109.7705,29.757 C109.3525,30.604 108.4835,31.121 107.5155,31.121 C106.0085,31.121 104.9305,30.021 104.9305,28.481 C104.9305,26.919 105.9975,25.808 107.4825,25.808 C108.9565,25.808 110.0565,26.919 110.0565,28.404 C110.0565,28.47 110.0565,28.613 110.0455,28.734 Z M105.8325,28.118 L109.1655,28.118 C109.1325,27.722 109.0555,27.502 108.8795,27.249 C108.5605,26.82 108.0435,26.556 107.4825,26.556 C106.9215,26.556 106.4155,26.82 106.1185,27.26 C105.9645,27.502 105.8985,27.711 105.8325,28.118 Z M111.2665,25.929 L112.1025,25.929 L112.1025,26.644 C112.5425,26.05 112.9825,25.808 113.6095,25.808 C114.0715,25.808 114.4895,25.962 114.7865,26.226 C115.1055,26.534 115.2155,26.886 115.2155,27.579 L115.2155,31 L114.3795,31 L114.3795,27.766 C114.3795,27.315 114.3245,27.073 114.1925,26.897 C114.0385,26.688 113.7415,26.556 113.4005,26.556 C113.0265,26.556 112.6855,26.699 112.4325,26.985 C112.1905,27.249 112.1025,27.491 112.1025,27.909 L112.1025,31 L111.2665,31 L111.2665,25.929 Z M117.7565,26.666 L117.7565,29.966 C117.7675,30.219 117.8335,30.274 118.1415,30.274 L118.5265,30.274 L118.5265,31 L117.7455,31 C117.1515,30.989 116.9205,30.769 116.9205,30.208 L116.9205,26.666 L116.2165,26.666 L116.2165,25.929 L116.9205,25.929 L116.9205,24.334 L117.7565,24.334 L117.7565,25.929 L118.5265,25.929 L118.5265,26.666 L117.7565,26.666 Z M124.4225,28.734 L120.1985,28.734 C120.2425,29.163 120.3195,29.383 120.5285,29.658 C120.8585,30.109 121.3425,30.351 121.8925,30.351 C122.5195,30.351 123.1135,30.01 123.4105,29.482 L124.1475,29.757 C123.7295,30.604 122.8605,31.121 121.8925,31.121 C120.3855,31.121 119.3075,30.021 119.3075,28.481 C119.3075,26.919 120.3745,25.808 121.8595,25.808 C123.3335,25.808 124.4335,26.919 124.4335,28.404 C124.4335,28.47 124.4335,28.613 124.4225,28.734 Z M120.2095,28.118 L123.5425,28.118 C123.5095,27.722 123.4325,27.502 123.2565,27.249 C122.9375,26.82 122.4205,26.556 121.8595,26.556 C121.2985,26.556 120.7925,26.82 120.4955,27.26 C120.3415,27.502 120.2755,27.711 120.2095,28.118 Z M125.6435,25.929 L126.4795,25.929 L126.4795,26.787 C126.6335,26.424 126.7435,26.27 126.9415,26.116 C127.1945,25.918 127.5465,25.808 127.9095,25.808 L128.1075,25.808 L128.1075,26.655 C128.0195,26.644 127.9315,26.644 127.8765,26.644 C127.4255,26.644 127.0295,26.853 126.7765,27.227 C126.5565,27.546 126.4795,27.843 126.4795,28.426 L126.4795,31 L125.6435,31 L125.6435,25.929 Z M133.8495,28.734 L129.6255,28.734 C129.6695,29.163 129.7465,29.383 129.9555,29.658 C130.2855,30.109 130.7695,30.351 131.3195,30.351 C131.9465,30.351 132.5405,30.01 132.8375,29.482 L133.5745,29.757 C133.1565,30.604 132.2875,31.121 131.3195,31.121 C129.8125,31.121 128.7345,30.021 128.7345,28.481 C128.7345,26.919 129.8015,25.808 131.2865,25.808 C132.7605,25.808 133.8605,26.919 133.8605,28.404 C133.8605,28.47 133.8605,28.613 133.8495,28.734 Z M129.6365,28.118 L132.9695,28.118 C132.9365,27.722 132.8595,27.502 132.6835,27.249 C132.3645,26.82 131.8475,26.556 131.2865,26.556 C130.7255,26.556 130.2195,26.82 129.9225,27.26 C129.7685,27.502 129.7025,27.711 129.6365,28.118 Z M138.8655,26.699 L138.8655,23.663 L139.7015,23.663 L139.7015,31 L138.8655,31 L138.8655,30.131 C138.3595,30.824 137.8205,31.121 137.0505,31.121 C135.6535,31.121 134.6635,30.032 134.6635,28.492 C134.6635,26.952 135.6755,25.808 137.0505,25.808 C137.7985,25.808 138.3705,26.083 138.8655,26.699 Z M137.2265,26.556 C136.2255,26.556 135.5435,27.348 135.5435,28.503 C135.5435,29.614 136.2145,30.395 137.1715,30.395 C138.1505,30.395 138.8655,29.581 138.8655,28.481 C138.8655,27.337 138.1945,26.556 137.2265,26.556 Z"/>
        <rect width="158" height="1" x="5" y="4"/>
        <polygon points="165.5 2 168 7 163 7" transform="rotate(90 165.5 4.5)"/>
        <polygon points="2.5 2 5 7 0 7" transform="matrix(0 1 1 0 -2 2)"/>
      </g>
    </g>
  </g>
</svg>
