<svg xmlns="http://www.w3.org/2000/svg" xmlns:xlink="http://www.w3.org/1999/xlink" width="1024" height="180" viewBox="0 0 1024 180">
  <defs>
    <rect id="4-b" width="829" height="56" x="0" y="0" rx="14"/>
    <filter id="4-a" width="103%" height="144.6%" x="-1.5%" y="-20.5%" filterUnits="objectBoundingBox">
      <feOffset dy="1" in="SourceAlpha" result="shadowOffsetOuter1"/>
      <feGaussianBlur in="shadowOffsetOuter1" result="shadowBlurOuter1" stdDeviation="4"/>
      <feColorMatrix in="shadowBlurOuter1" result="shadowMatrixOuter1" values="0 0 0 0 0   0 0 0 0 0   0 0 0 0 0  0 0 0 0.2 0"/>
      <feMorphology in="SourceAlpha" radius="1" result="shadowSpreadOuter2"/>
      <feOffset dy="3" in="shadowSpreadOuter2" result="shadowOffsetOuter2"/>
      <feGaussianBlur in="shadowOffsetOuter2" result="shadowBlurOuter2" stdDeviation="1.5"/>
      <feColorMatrix in="shadowBlurOuter2" result="shadowMatrixOuter2" values="0 0 0 0 0   0 0 0 0 0   0 0 0 0 0  0 0 0 0.12 0"/>
      <feOffset dy="3" in="SourceAlpha" result="shadowOffsetOuter3"/>
      <feGaussianBlur in="shadowOffsetOuter3" result="shadowBlurOuter3" stdDeviation="2"/>
      <feColorMatrix in="shadowBlurOuter3" result="shadowMatrixOuter3" values="0 0 0 0 0   0 0 0 0 0   0 0 0 0 0  0 0 0 0.14 0"/>
      <feMerge>
        <feMergeNode in="shadowMatrixOuter1"/>
        <feMergeNode in="shadowMatrixOuter2"/>
        <feMergeNode in="shadowMatrixOuter3"/>
      </feMerge>
    </filter>
  </defs>
  <g fill="none" fill-rule="evenodd">
    <rect width="1024" height="180" fill="#FFF" fill-opacity=".01" fill-rule="nonzero"/>
    <g transform="translate(7)">
      <polyline fill="#FFF" fill-rule="nonzero" stroke="#979797" points="1009.876 0 1009.876 124 0 124 0 0 0 0" transform="translate(.062)"/>
      <g transform="translate(91 60)">
        <use fill="#000" filter="url(#4-a)" xlink:href="#4-b"/>
        <use fill="#F7F7F7" xlink:href="#4-b"/>
        <rect width="829" height="56" fill="#25333D" rx="14"/>
        <path fill="#89CBDF" fill-rule="nonzero" d="M9.27103513,17 L8.17533201,13.8208008 L3.60990232,13.8208008 L2.50589842,17 L0.596718729,17 L4.92142576,5.02197266 L6.92191404,5.02197266 L11.2466211,17 L9.27103513,17 Z M5.82621092,7.19677734 L4.08304685,12.2602539 L7.70218748,12.2602539 L5.9673242,7.19677734 L5.82621092,7.19677734 Z M19.8678711,10.9155273 L18.1330078,10.9155273 C17.9254883,10.0356445 17.1950195,9.37988281 15.999707,9.37988281 C14.5055664,9.37988281 13.5924805,10.5253906 13.5924805,12.4511719 C13.5924805,14.4101562 14.5138672,15.5805664 15.999707,15.5805664 C17.1286133,15.5805664 17.9005859,15.065918 18.1330078,14.0947266 L19.8678711,14.0947266 C19.6354492,15.9125977 18.240918,17.1743164 16.0080078,17.1743164 C13.3766601,17.1743164 11.7663086,15.3979492 11.7663086,12.4511719 C11.7663086,9.55419922 13.3683594,7.78613281 15.999707,7.78613281 C18.2658203,7.78613281 19.6354492,9.10595703 19.8678711,10.9155273 Z M22.2552344,5.7109375 L24.0399023,5.7109375 L24.0399023,8.00195312 L25.9988867,8.00195312 L25.9988867,9.50439453 L24.0399023,9.50439453 L24.0399023,14.152832 C24.0399023,15.0991211 24.430039,15.5141602 25.3182226,15.5141602 C25.5921484,15.5141602 25.7498633,15.4975586 25.9988867,15.4726562 L25.9988867,16.9584961 C25.7083594,17.0083008 25.3763281,17.0498047 25.0276953,17.0498047 C23.0438086,17.0498047 22.2552344,16.3525391 22.2552344,14.609375 L22.2552344,9.50439453 L20.8191992,9.50439453 L20.8191992,8.00195312 L22.2552344,8.00195312 L22.2552344,5.7109375 Z M27.7221875,17 L27.7221875,7.96044922 L29.4985547,7.96044922 L29.4985547,17 L27.7221875,17 Z M28.6103711,6.375 C27.9463086,6.375 27.4565625,5.90185547 27.4565625,5.28759766 C27.4565625,4.66503906 27.9463086,4.19189453 28.6103711,4.19189453 C29.2744336,4.19189453 29.7641797,4.66503906 29.7641797,5.28759766 C29.7641797,5.90185547 29.2744336,6.375 28.6103711,6.375 Z M35.5299609,17.1743164 C32.8820117,17.1743164 31.2633594,15.40625 31.2633594,12.4760742 C31.2633594,9.5625 32.8903125,7.78613281 35.5299609,7.78613281 C38.1613086,7.78613281 39.7882617,9.5625 39.7882617,12.4760742 C39.7882617,15.40625 38.1696094,17.1743164 35.5299609,17.1743164 Z M35.5299609,15.5888672 C37.0739062,15.5888672 37.9537891,14.4433594 37.9537891,12.4760742 C37.9537891,10.5170898 37.0739062,9.37158203 35.5299609,9.37158203 C33.9777148,9.37158203 33.1061328,10.5170898 33.1061328,12.4760742 C33.1061328,14.4516602 33.9777148,15.5888672 35.5299609,15.5888672 Z M41.5198633,17 L41.5198633,7.96044922 L43.238125,7.96044922 L43.238125,9.39648438 L43.3709375,9.39648438 C43.8108789,8.39208984 44.7073633,7.78613281 46.0686914,7.78613281 C48.0857812,7.78613281 49.1980859,8.99804688 49.1980859,11.1479492 L49.1980859,17 L47.413418,17 L47.413418,11.5961914 C47.413418,10.1435547 46.7825586,9.42138672 45.4627344,9.42138672 C44.1429102,9.42138672 43.3045312,10.3012695 43.3045312,11.7124023 L43.3045312,17 L41.5198633,17 Z" transform="translate(762.487 17)"/>
        <path fill="#FFF" fill-rule="nonzero" d="M16.8984375,30.0546875 L18.3203125,30.0546875 C18.4921875,31.234375 19.6171875,31.984375 21.21875,31.984375 C22.734375,31.984375 23.8515625,31.1640625 23.8515625,30.046875 C23.8515625,29.0859375 23.1484375,28.4765625 21.59375,28.0859375 L20.1484375,27.7109375 C18.109375,27.1953125 17.2265625,26.2734375 17.2265625,24.671875 C17.2265625,22.7578125 18.828125,21.4609375 21.2109375,21.4609375 C23.390625,21.4609375 25.015625,22.7578125 25.1328125,24.578125 L23.71875,24.578125 C23.5234375,23.421875 22.5703125,22.734375 21.1640625,22.734375 C19.6640625,22.734375 18.671875,23.484375 18.671875,24.625 C18.671875,25.5078125 19.2890625,26.015625 20.84375,26.4140625 L22.0234375,26.7265625 C24.359375,27.3125 25.296875,28.21875 25.296875,29.875 C25.296875,31.9453125 23.6640625,33.265625 21.0859375,33.265625 C18.6953125,33.265625 17.046875,32 16.8984375,30.0546875 Z M27.1721875,33 L27.1721875,24.578125 L28.5159375,24.578125 L28.5159375,33 L27.1721875,33 Z M27.8440625,22.8671875 C27.3284375,22.8671875 26.9065625,22.4453125 26.9065625,21.9296875 C26.9065625,21.4140625 27.3284375,20.9921875 27.8440625,20.9921875 C28.3596875,20.9921875 28.7815625,21.4140625 28.7815625,21.9296875 C28.7815625,22.4453125 28.3596875,22.8671875 27.8440625,22.8671875 Z M30.7584375,33 L30.7584375,24.578125 L32.0396875,24.578125 L32.0396875,25.90625 L32.1646875,25.90625 C32.5865625,24.9765625 33.406875,24.4296875 34.6959375,24.4296875 C36.5865625,24.4296875 37.64125,25.546875 37.64125,27.546875 L37.64125,33 L36.2975,33 L36.2975,27.875 C36.2975,26.359375 35.656875,25.640625 34.313125,25.640625 C32.969375,25.640625 32.1021875,26.5390625 32.1021875,28.015625 L32.1021875,33 L30.7584375,33 Z M43.180625,31.6875 C44.743125,31.6875 45.680625,30.5 45.680625,28.6640625 C45.680625,26.828125 44.7353125,25.640625 43.180625,25.640625 C41.618125,25.640625 40.743125,26.828125 40.743125,28.6640625 C40.743125,30.5 41.618125,31.6875 43.180625,31.6875 Z M43.243125,36.234375 C41.211875,36.234375 39.915,35.3203125 39.711875,33.9296875 L41.13375,33.9296875 C41.2821875,34.6171875 42.0321875,35.0625 43.243125,35.0625 C44.7509375,35.0625 45.649375,34.3203125 45.649375,33.078125 L45.649375,31.421875 L45.524375,31.421875 C44.993125,32.3515625 44.04,32.875 42.88375,32.875 C40.7040625,32.875 39.3525,31.1875 39.3525,28.6640625 C39.3525,26.140625 40.7196875,24.4296875 42.88375,24.4296875 C44.0634375,24.4296875 45.1025,25.0078125 45.586875,25.9140625 L45.711875,25.9140625 L45.711875,24.578125 L46.993125,24.578125 L46.993125,33.1484375 C46.993125,35.03125 45.54,36.234375 43.243125,36.234375 Z M49.2825,33 L49.2825,21.234375 L50.62625,21.234375 L50.62625,33 L49.2825,33 Z M56.275,25.6171875 C54.93125,25.6171875 53.99375,26.6015625 53.8921875,28.09375 L58.5328125,28.09375 C58.5015625,26.6015625 57.6109375,25.6171875 56.275,25.6171875 Z M58.49375,30.8203125 L59.8375,30.8203125 C59.43125,32.265625 58.134375,33.1484375 56.290625,33.1484375 C53.9546875,33.1484375 52.49375,31.4609375 52.49375,28.796875 C52.49375,26.1484375 53.978125,24.4296875 56.290625,24.4296875 C58.5640625,24.4296875 59.946875,26.046875 59.946875,28.6640625 L59.946875,29.1796875 L53.8921875,29.1796875 L53.8921875,29.2421875 C53.9625,30.90625 54.8921875,31.9609375 56.321875,31.9609375 C57.4078125,31.9609375 58.1421875,31.5625 58.49375,30.8203125 Z M66.0100001,33 L66.0100001,21.234375 L67.3537501,21.234375 L67.3537501,33 L66.0100001,33 Z M69.6743751,33 L69.6743751,24.578125 L71.0181251,24.578125 L71.0181251,33 L69.6743751,33 Z M70.3462501,22.8671875 C69.8306251,22.8671875 69.4087501,22.4453125 69.4087501,21.9296875 C69.4087501,21.4140625 69.8306251,20.9921875 70.3462501,20.9921875 C70.8618751,20.9921875 71.2837501,21.4140625 71.2837501,21.9296875 C71.2837501,22.4453125 70.8618751,22.8671875 70.3462501,22.8671875 Z M73.2606251,33 L73.2606251,24.578125 L74.5418751,24.578125 L74.5418751,25.90625 L74.6668751,25.90625 C75.0887501,24.9765625 75.9090626,24.4296875 77.1981251,24.4296875 C79.0887501,24.4296875 80.1434376,25.546875 80.1434376,27.546875 L80.1434376,33 L78.7996876,33 L78.7996876,27.875 C78.7996876,26.359375 78.1590626,25.640625 76.8153126,25.640625 C75.4715626,25.640625 74.6043751,26.5390625 74.6043751,28.015625 L74.6043751,33 L73.2606251,33 Z M85.6359376,25.6171875 C84.2921876,25.6171875 83.3546876,26.6015625 83.2531251,28.09375 L87.8937501,28.09375 C87.8625001,26.6015625 86.9718751,25.6171875 85.6359376,25.6171875 Z M87.8546876,30.8203125 L89.1984376,30.8203125 C88.7921876,32.265625 87.4953126,33.1484375 85.6515626,33.1484375 C83.3156251,33.1484375 81.8546876,31.4609375 81.8546876,28.796875 C81.8546876,26.1484375 83.3390626,24.4296875 85.6515626,24.4296875 C87.9250001,24.4296875 89.3078126,26.046875 89.3078126,28.6640625 L89.3078126,29.1796875 L83.2531251,29.1796875 L83.2531251,29.2421875 C83.3234376,30.90625 84.2531251,31.9609375 85.6828126,31.9609375 C86.7687501,31.9609375 87.5031251,31.5625 87.8546876,30.8203125 Z M95.2928126,33 L95.2928126,24.578125 L96.5740626,24.578125 L96.5740626,25.90625 L96.6990626,25.90625 C97.0818751,24.96875 97.9256251,24.4296875 99.0506251,24.4296875 C100.19125,24.4296875 100.988125,25.03125 101.37875,25.90625 L101.50375,25.90625 C101.956875,25.015625 102.917813,24.4296875 104.081875,24.4296875 C105.800625,24.4296875 106.761563,25.4140625 106.761563,27.1796875 L106.761563,33 L105.417813,33 L105.417813,27.4921875 C105.417813,26.25 104.831875,25.640625 103.644375,25.640625 C102.4725,25.640625 101.69125,26.515625 101.69125,27.5859375 L101.69125,33 L100.3475,33 L100.3475,27.28125 C100.3475,26.28125 99.6521876,25.640625 98.5896876,25.640625 C97.4881251,25.640625 96.6365626,26.59375 96.6365626,27.78125 L96.6365626,33 L95.2928126,33 Z M112.254063,25.6171875 C110.910313,25.6171875 109.972813,26.6015625 109.87125,28.09375 L114.511875,28.09375 C114.480625,26.6015625 113.59,25.6171875 112.254063,25.6171875 Z M114.472813,30.8203125 L115.816563,30.8203125 C115.410313,32.265625 114.113438,33.1484375 112.269688,33.1484375 C109.93375,33.1484375 108.472813,31.4609375 108.472813,28.796875 C108.472813,26.1484375 109.957188,24.4296875 112.269688,24.4296875 C114.543125,24.4296875 115.925938,26.046875 115.925938,28.6640625 L115.925938,29.1796875 L109.87125,29.1796875 L109.87125,29.2421875 C109.941563,30.90625 110.87125,31.9609375 112.300938,31.9609375 C113.386875,31.9609375 114.12125,31.5625 114.472813,30.8203125 Z M117.52,26.8828125 C117.52,25.484375 118.871563,24.4296875 120.660625,24.4296875 C122.42625,24.4296875 123.652813,25.3046875 123.8325,26.6875 L122.504375,26.6875 C122.324688,26.015625 121.668438,25.5703125 120.652813,25.5703125 C119.652813,25.5703125 118.871563,26.078125 118.871563,26.828125 C118.871563,27.40625 119.340313,27.765625 120.3325,28.0078125 L121.629375,28.3203125 C123.215313,28.703125 123.980938,29.390625 123.980938,30.6015625 C123.980938,32.109375 122.52,33.1484375 120.605938,33.1484375 C118.730938,33.1484375 117.441875,32.25 117.293438,30.8515625 L118.67625,30.8515625 C118.902813,31.5625 119.574688,32.015625 120.652813,32.015625 C121.785625,32.015625 122.598125,31.4765625 122.598125,30.703125 C122.598125,30.125 122.160625,29.734375 121.262188,29.515625 L119.816875,29.1640625 C118.23875,28.78125 117.52,28.1015625 117.52,26.8828125 Z M125.41875,26.8828125 C125.41875,25.484375 126.770313,24.4296875 128.559375,24.4296875 C130.325,24.4296875 131.551563,25.3046875 131.73125,26.6875 L130.403125,26.6875 C130.223438,26.015625 129.567188,25.5703125 128.551563,25.5703125 C127.551563,25.5703125 126.770313,26.078125 126.770313,26.828125 C126.770313,27.40625 127.239063,27.765625 128.23125,28.0078125 L129.528125,28.3203125 C131.114063,28.703125 131.879688,29.390625 131.879688,30.6015625 C131.879688,32.109375 130.41875,33.1484375 128.504688,33.1484375 C126.629688,33.1484375 125.340625,32.25 125.192188,30.8515625 L126.575,30.8515625 C126.801563,31.5625 127.473438,32.015625 128.551563,32.015625 C129.684375,32.015625 130.496875,31.4765625 130.496875,30.703125 C130.496875,30.125 130.059375,29.734375 129.160938,29.515625 L127.715625,29.1640625 C126.1375,28.78125 125.41875,28.1015625 125.41875,26.8828125 Z M136.262813,31.96875 C137.645625,31.96875 138.669063,31.0625 138.669063,29.859375 L138.669063,29.0859375 L136.403438,29.234375 C135.122188,29.3203125 134.559688,29.765625 134.559688,30.609375 C134.559688,31.46875 135.28625,31.96875 136.262813,31.96875 Z M136.012813,33.1484375 C134.38,33.1484375 133.169063,32.1796875 133.169063,30.640625 C133.169063,29.1328125 134.278438,28.265625 136.239375,28.1484375 L138.669063,28 L138.669063,27.234375 C138.669063,26.1953125 138.020625,25.625 136.762813,25.625 C135.755,25.625 135.051875,26.0078125 134.864375,26.671875 L133.505,26.671875 C133.684688,25.3203125 135.012813,24.4296875 136.809688,24.4296875 C138.864375,24.4296875 140.012813,25.484375 140.012813,27.234375 L140.012813,33 L138.731563,33 L138.731563,31.7578125 L138.606563,31.7578125 C138.059688,32.65625 137.137813,33.1484375 136.012813,33.1484375 Z M145.583438,31.6875 C147.145938,31.6875 148.083438,30.5 148.083438,28.6640625 C148.083438,26.828125 147.138125,25.640625 145.583438,25.640625 C144.020938,25.640625 143.145938,26.828125 143.145938,28.6640625 C143.145938,30.5 144.020938,31.6875 145.583438,31.6875 Z M145.645938,36.234375 C143.614688,36.234375 142.317813,35.3203125 142.114688,33.9296875 L143.536563,33.9296875 C143.685,34.6171875 144.435,35.0625 145.645938,35.0625 C147.15375,35.0625 148.052188,34.3203125 148.052188,33.078125 L148.052188,31.421875 L147.927188,31.421875 C147.395938,32.3515625 146.442813,32.875 145.286563,32.875 C143.106875,32.875 141.755313,31.1875 141.755313,28.6640625 C141.755313,26.140625 143.1225,24.4296875 145.286563,24.4296875 C146.46625,24.4296875 147.505313,25.0078125 147.989688,25.9140625 L148.114688,25.9140625 L148.114688,24.578125 L149.395938,24.578125 L149.395938,33.1484375 C149.395938,35.03125 147.942813,36.234375 145.645938,36.234375 Z M154.966563,25.6171875 C153.622813,25.6171875 152.685313,26.6015625 152.58375,28.09375 L157.224375,28.09375 C157.193125,26.6015625 156.3025,25.6171875 154.966563,25.6171875 Z M157.185313,30.8203125 L158.529063,30.8203125 C158.122813,32.265625 156.825938,33.1484375 154.982188,33.1484375 C152.64625,33.1484375 151.185313,31.4609375 151.185313,28.796875 C151.185313,26.1484375 152.669688,24.4296875 154.982188,24.4296875 C157.255625,24.4296875 158.638438,26.046875 158.638438,28.6640625 L158.638438,29.1796875 L152.58375,29.1796875 L152.58375,29.2421875 C152.654063,30.90625 153.58375,31.9609375 155.013438,31.9609375 C156.099375,31.9609375 156.83375,31.5625 157.185313,30.8203125 Z"/>
      </g>
      <path fill="#C41261" fill-rule="nonzero" d="M26.168,85.377 C26.586,85.509 26.784,85.608 27.015,85.85 C27.378,86.213 27.565,86.697 27.565,87.269 C27.565,88.567 26.608,89.491 25.266,89.491 C23.935,89.491 23,88.6 23,87.346 C23,86.763 23.198,86.235 23.55,85.872 C23.781,85.63 23.968,85.52 24.408,85.377 C24.023,85.245 23.858,85.135 23.66,84.893 C23.418,84.596 23.286,84.222 23.286,83.815 C23.286,82.77 24.144,82 25.31,82 C26.465,82 27.301,82.759 27.301,83.804 C27.301,84.222 27.158,84.618 26.894,84.926 C26.696,85.146 26.542,85.245 26.168,85.377 Z M25.31,82.77 C24.606,82.77 24.122,83.21 24.122,83.826 C24.122,84.453 24.639,84.948 25.288,84.948 C25.915,84.948 26.476,84.431 26.476,83.837 C26.476,83.265 25.937,82.77 25.31,82.77 Z M25.299,85.839 C24.507,85.839 23.869,86.466 23.869,87.258 C23.869,88.039 24.496,88.677 25.277,88.677 C26.058,88.677 26.685,88.039 26.685,87.258 C26.685,86.488 26.058,85.839 25.299,85.839 Z M28.874,84.288 L29.71,84.288 L29.71,85.212 C30.194,84.464 30.711,84.167 31.558,84.167 C32.966,84.167 33.945,85.245 33.945,86.785 C33.945,88.38 32.966,89.48 31.558,89.48 C31.162,89.48 30.799,89.392 30.447,89.216 C30.139,89.062 29.985,88.93 29.71,88.567 L29.71,91.735 L28.874,91.735 L28.874,84.288 Z M31.415,84.915 C30.403,84.915 29.71,85.718 29.71,86.906 C29.71,88.017 30.381,88.754 31.382,88.754 C32.383,88.754 33.054,87.973 33.054,86.818 C33.054,86.224 32.911,85.773 32.614,85.443 C32.317,85.113 31.866,84.915 31.415,84.915 Z M36.827,87.522 L35.474,89.359 L34.451,89.359 L36.321,86.84 L34.418,84.288 L35.474,84.288 L36.827,86.147 L38.213,84.288 L39.236,84.288 L37.322,86.84 L39.148,89.359 L38.125,89.359 L36.827,87.522 Z M44.252,88.49 L44.252,89.359 L43.416,89.359 L43.416,82.022 L44.252,82.022 L44.252,85.157 C44.758,84.464 45.297,84.167 46.034,84.167 C47.453,84.167 48.443,85.267 48.443,86.84 C48.443,88.391 47.464,89.48 46.078,89.48 C45.297,89.48 44.747,89.183 44.252,88.49 Z M45.924,84.915 C44.956,84.915 44.241,85.718 44.241,86.829 C44.241,87.984 44.901,88.754 45.891,88.754 C46.892,88.754 47.563,87.995 47.563,86.862 C47.563,85.729 46.881,84.915 45.924,84.915 Z M51.908,84.167 C53.404,84.167 54.471,85.278 54.471,86.84 C54.471,88.325 53.327,89.48 51.875,89.48 C50.368,89.48 49.312,88.38 49.312,86.818 C49.312,85.245 50.368,84.167 51.908,84.167 Z M51.908,84.937 C50.863,84.937 50.17,85.696 50.17,86.829 C50.17,87.951 50.863,88.71 51.897,88.71 C52.898,88.71 53.613,87.929 53.613,86.829 C53.613,85.696 52.931,84.937 51.908,84.937 Z M56.583,85.025 L56.583,88.325 C56.594,88.578 56.66,88.633 56.968,88.633 L57.353,88.633 L57.353,89.359 L56.572,89.359 C55.978,89.348 55.747,89.128 55.747,88.567 L55.747,85.025 L55.043,85.025 L55.043,84.288 L55.747,84.288 L55.747,82.693 L56.583,82.693 L56.583,84.288 L57.353,84.288 L57.353,85.025 L56.583,85.025 Z M59.586,85.025 L59.586,88.325 C59.597,88.578 59.663,88.633 59.971,88.633 L60.356,88.633 L60.356,89.359 L59.575,89.359 C58.981,89.348 58.75,89.128 58.75,88.567 L58.75,85.025 L58.046,85.025 L58.046,84.288 L58.75,84.288 L58.75,82.693 L59.586,82.693 L59.586,84.288 L60.356,84.288 L60.356,85.025 L59.586,85.025 Z M63.634,84.167 C65.13,84.167 66.197,85.278 66.197,86.84 C66.197,88.325 65.053,89.48 63.601,89.48 C62.094,89.48 61.038,88.38 61.038,86.818 C61.038,85.245 62.094,84.167 63.634,84.167 Z M63.634,84.937 C62.589,84.937 61.896,85.696 61.896,86.829 C61.896,87.951 62.589,88.71 63.623,88.71 C64.624,88.71 65.339,87.929 65.339,86.829 C65.339,85.696 64.657,84.937 63.634,84.937 Z M67.473,84.288 L68.309,84.288 L68.309,84.992 C68.694,84.409 69.123,84.167 69.75,84.167 C70.443,84.167 70.883,84.464 71.114,85.091 C71.488,84.442 71.961,84.167 72.72,84.167 C73.303,84.167 73.743,84.354 74.007,84.706 C74.249,85.025 74.315,85.311 74.315,86.114 L74.315,89.359 L73.479,89.359 L73.479,86.312 C73.479,85.696 73.457,85.553 73.336,85.344 C73.182,85.08 72.852,84.915 72.456,84.915 C71.719,84.915 71.312,85.41 71.312,86.312 L71.312,89.359 L70.476,89.359 L70.476,86.323 C70.476,85.828 70.432,85.575 70.311,85.355 C70.168,85.069 69.86,84.915 69.486,84.915 C68.749,84.915 68.309,85.443 68.309,86.323 L68.309,89.359 L67.473,89.359 L67.473,84.288 Z M36.288,95.288 L37.124,95.288 L37.124,96.212 C37.608,95.464 38.125,95.167 38.972,95.167 C40.38,95.167 41.359,96.245 41.359,97.785 C41.359,99.38 40.38,100.48 38.972,100.48 C38.576,100.48 38.213,100.392 37.861,100.216 C37.553,100.062 37.399,99.93 37.124,99.567 L37.124,102.735 L36.288,102.735 L36.288,95.288 Z M38.829,95.915 C37.817,95.915 37.124,96.718 37.124,97.906 C37.124,99.017 37.795,99.754 38.796,99.754 C39.797,99.754 40.468,98.973 40.468,97.818 C40.468,97.224 40.325,96.773 40.028,96.443 C39.731,96.113 39.28,95.915 38.829,95.915 Z M46.452,96.124 L46.452,95.288 L47.288,95.288 L47.288,100.359 L46.452,100.359 L46.452,99.38 C45.946,100.139 45.374,100.48 44.604,100.48 C43.207,100.48 42.217,99.38 42.217,97.84 C42.217,96.289 43.229,95.167 44.626,95.167 C45.396,95.167 45.957,95.464 46.452,96.124 Z M44.747,95.915 C44.197,95.915 43.812,96.102 43.515,96.52 C43.251,96.883 43.097,97.367 43.097,97.862 C43.097,98.94 43.801,99.754 44.725,99.754 C45.682,99.754 46.463,98.863 46.463,97.774 C46.463,96.674 45.759,95.915 44.747,95.915 Z M52.766,96.058 L52.766,93.022 L53.602,93.022 L53.602,100.359 L52.766,100.359 L52.766,99.49 C52.26,100.183 51.721,100.48 50.951,100.48 C49.554,100.48 48.564,99.391 48.564,97.851 C48.564,96.311 49.576,95.167 50.951,95.167 C51.699,95.167 52.271,95.442 52.766,96.058 Z M51.127,95.915 C50.126,95.915 49.444,96.707 49.444,97.862 C49.444,98.973 50.115,99.754 51.072,99.754 C52.051,99.754 52.766,98.94 52.766,97.84 C52.766,96.696 52.095,95.915 51.127,95.915 Z M59.08,96.058 L59.08,93.022 L59.916,93.022 L59.916,100.359 L59.08,100.359 L59.08,99.49 C58.574,100.183 58.035,100.48 57.265,100.48 C55.868,100.48 54.878,99.391 54.878,97.851 C54.878,96.311 55.89,95.167 57.265,95.167 C58.013,95.167 58.585,95.442 59.08,96.058 Z M57.441,95.915 C56.44,95.915 55.758,96.707 55.758,97.862 C55.758,98.973 56.429,99.754 57.386,99.754 C58.365,99.754 59.08,98.94 59.08,97.84 C59.08,96.696 58.409,95.915 57.441,95.915 Z M62.435,95.288 L62.435,100.359 L61.599,100.359 L61.599,95.288 L62.435,95.288 Z M62.028,93.319 C62.325,93.319 62.556,93.561 62.556,93.869 C62.556,94.166 62.314,94.397 62.017,94.397 C61.72,94.397 61.489,94.166 61.489,93.858 C61.489,93.55 61.72,93.319 62.028,93.319 Z M64.118,95.288 L64.954,95.288 L64.954,96.003 C65.394,95.409 65.834,95.167 66.461,95.167 C66.923,95.167 67.341,95.321 67.638,95.585 C67.957,95.893 68.067,96.245 68.067,96.938 L68.067,100.359 L67.231,100.359 L67.231,97.125 C67.231,96.674 67.176,96.432 67.044,96.256 C66.89,96.047 66.593,95.915 66.252,95.915 C65.878,95.915 65.537,96.058 65.284,96.344 C65.042,96.608 64.954,96.85 64.954,97.268 L64.954,100.359 L64.118,100.359 L64.118,95.288 Z M73.446,96.157 L73.446,95.288 L74.282,95.288 L74.282,100.392 C74.282,101.239 74.073,101.811 73.611,102.251 C73.16,102.691 72.511,102.922 71.741,102.922 C70.795,102.922 70.047,102.614 69.497,101.998 L70.069,101.426 C70.3,101.668 70.41,101.767 70.553,101.866 C70.839,102.042 71.312,102.163 71.741,102.163 C72.269,102.163 72.775,101.976 73.061,101.668 C73.314,101.393 73.446,100.986 73.446,100.458 L73.446,99.391 C72.951,100.139 72.368,100.48 71.576,100.48 C70.234,100.48 69.233,99.347 69.233,97.84 C69.233,97.026 69.53,96.245 70.036,95.761 C70.443,95.365 70.993,95.167 71.642,95.167 C72.412,95.167 72.929,95.453 73.446,96.157 Z M71.796,95.937 C70.806,95.937 70.113,96.707 70.113,97.807 C70.113,98.896 70.817,99.71 71.774,99.71 C72.258,99.71 72.731,99.479 73.061,99.094 C73.281,98.841 73.424,98.346 73.424,97.84 C73.424,97.18 73.325,96.828 73.028,96.498 C72.72,96.157 72.247,95.937 71.796,95.937 Z"/>
      <path d="M26.168,77.377 C26.586,77.509 26.784,77.608 27.015,77.85 C27.378,78.213 27.565,78.697 27.565,79.269 C27.565,80.567 26.608,81.491 25.266,81.491 C23.935,81.491 23,80.6 23,79.346 C23,78.763 23.198,78.235 23.55,77.872 C23.781,77.63 23.968,77.52 24.408,77.377 C24.023,77.245 23.858,77.135 23.66,76.893 C23.418,76.596 23.286,76.222 23.286,75.815 C23.286,74.77 24.144,74 25.31,74 C26.465,74 27.301,74.759 27.301,75.804 C27.301,76.222 27.158,76.618 26.894,76.926 C26.696,77.146 26.542,77.245 26.168,77.377 Z"/>
      <g fill="#C41261" transform="translate(89 116)">
        <rect width="1" height="6" x="4" y="1"/>
        <rect width="9" height="1"/>
        <rect width="9" height="1" y="7"/>
      </g>
      <path fill="#C41261" fill-rule="nonzero" d="M391.849,149.031 L392.729,149.031 C392.773,149.867 393.224,150.307 394.027,150.307 C394.852,150.307 395.435,149.801 395.435,149.064 C395.435,148.426 395.105,148.129 393.95,147.744 C393.081,147.447 392.795,147.304 392.465,147.007 C392.091,146.666 391.893,146.182 391.893,145.621 C391.893,144.378 392.784,143.531 394.082,143.531 C395.38,143.531 396.227,144.356 396.26,145.632 L395.336,145.632 C395.325,145.258 395.281,145.082 395.16,144.873 C394.951,144.554 394.544,144.356 394.071,144.356 C393.345,144.356 392.828,144.851 392.828,145.555 C392.828,145.907 392.982,146.215 393.246,146.402 C393.477,146.567 393.675,146.655 394.423,146.919 C395.204,147.194 395.578,147.392 395.875,147.711 C396.194,148.052 396.37,148.514 396.37,149.009 C396.37,150.274 395.435,151.132 394.06,151.132 C393.125,151.132 392.487,150.802 392.102,150.142 C391.926,149.845 391.849,149.537 391.849,149.185 L391.849,149.031 Z M398.548,146.666 L398.548,149.966 C398.559,150.219 398.625,150.274 398.933,150.274 L399.318,150.274 L399.318,151 L398.537,151 C397.943,150.989 397.712,150.769 397.712,150.208 L397.712,146.666 L397.008,146.666 L397.008,145.929 L397.712,145.929 L397.712,144.334 L398.548,144.334 L398.548,145.929 L399.318,145.929 L399.318,146.666 L398.548,146.666 Z M400.506,145.929 L401.342,145.929 L401.342,146.787 C401.496,146.424 401.606,146.27 401.804,146.116 C402.057,145.918 402.409,145.808 402.772,145.808 L402.97,145.808 L402.97,146.655 C402.882,146.644 402.794,146.644 402.739,146.644 C402.288,146.644 401.892,146.853 401.639,147.227 C401.419,147.546 401.342,147.843 401.342,148.426 L401.342,151 L400.506,151 L400.506,145.929 Z M408.712,148.734 L404.488,148.734 C404.532,149.163 404.609,149.383 404.818,149.658 C405.148,150.109 405.632,150.351 406.182,150.351 C406.809,150.351 407.403,150.01 407.7,149.482 L408.437,149.757 C408.019,150.604 407.15,151.121 406.182,151.121 C404.675,151.121 403.597,150.021 403.597,148.481 C403.597,146.919 404.664,145.808 406.149,145.808 C407.623,145.808 408.723,146.919 408.723,148.404 C408.723,148.47 408.723,148.613 408.712,148.734 Z M404.499,148.118 L407.832,148.118 C407.799,147.722 407.722,147.502 407.546,147.249 C407.227,146.82 406.71,146.556 406.149,146.556 C405.588,146.556 405.082,146.82 404.785,147.26 C404.631,147.502 404.565,147.711 404.499,148.118 Z M410.824,146.666 L410.824,149.966 C410.835,150.219 410.901,150.274 411.209,150.274 L411.594,150.274 L411.594,151 L410.813,151 C410.219,150.989 409.988,150.769 409.988,150.208 L409.988,146.666 L409.284,146.666 L409.284,145.929 L409.988,145.929 L409.988,144.334 L410.824,144.334 L410.824,145.929 L411.594,145.929 L411.594,146.666 L410.824,146.666 Z M416.214,149.801 L416.731,150.373 C416.159,150.89 415.598,151.121 414.861,151.121 C413.409,151.121 412.375,150.021 412.375,148.481 C412.375,146.908 413.42,145.808 414.905,145.808 C415.631,145.808 416.225,146.05 416.753,146.567 L416.214,147.106 C415.829,146.754 415.4,146.578 414.927,146.578 C413.926,146.578 413.233,147.348 413.233,148.448 C413.233,149.57 413.926,150.351 414.916,150.351 C415.411,150.351 415.807,150.186 416.214,149.801 Z M418.645,143.663 L418.645,146.633 C419.107,146.061 419.569,145.808 420.174,145.808 C420.614,145.808 421.076,145.984 421.351,146.27 C421.626,146.545 421.747,146.941 421.747,147.59 L421.747,151 L420.911,151 L420.911,147.634 C420.911,146.941 420.57,146.556 419.965,146.556 C419.58,146.556 419.239,146.71 418.975,147.007 C418.722,147.293 418.645,147.546 418.645,148.03 L418.645,151 L417.809,151 L417.809,143.663 L418.645,143.663 Z M427.588,146.666 L427.588,149.966 C427.599,150.219 427.665,150.274 427.973,150.274 L428.358,150.274 L428.358,151 L427.577,151 C426.983,150.989 426.752,150.769 426.752,150.208 L426.752,146.666 L426.048,146.666 L426.048,145.929 L426.752,145.929 L426.752,144.334 L427.588,144.334 L427.588,145.929 L428.358,145.929 L428.358,146.666 L427.588,146.666 Z M431.735,145.808 C433.231,145.808 434.298,146.919 434.298,148.481 C434.298,149.966 433.154,151.121 431.702,151.121 C430.195,151.121 429.139,150.021 429.139,148.459 C429.139,146.886 430.195,145.808 431.735,145.808 Z M431.735,146.578 C430.69,146.578 429.997,147.337 429.997,148.47 C429.997,149.592 430.69,150.351 431.724,150.351 C432.725,150.351 433.44,149.57 433.44,148.47 C433.44,147.337 432.758,146.578 431.735,146.578 Z M441.668,147.018 C442.086,147.15 442.284,147.249 442.515,147.491 C442.878,147.854 443.065,148.338 443.065,148.91 C443.065,150.208 442.108,151.132 440.766,151.132 C439.435,151.132 438.5,150.241 438.5,148.987 C438.5,148.404 438.698,147.876 439.05,147.513 C439.281,147.271 439.468,147.161 439.908,147.018 C439.523,146.886 439.358,146.776 439.16,146.534 C438.918,146.237 438.786,145.863 438.786,145.456 C438.786,144.411 439.644,143.641 440.81,143.641 C441.965,143.641 442.801,144.4 442.801,145.445 C442.801,145.863 442.658,146.259 442.394,146.567 C442.196,146.787 442.042,146.886 441.668,147.018 Z M440.81,144.411 C440.106,144.411 439.622,144.851 439.622,145.467 C439.622,146.094 440.139,146.589 440.788,146.589 C441.415,146.589 441.976,146.072 441.976,145.478 C441.976,144.906 441.437,144.411 440.81,144.411 Z M440.799,147.48 C440.007,147.48 439.369,148.107 439.369,148.899 C439.369,149.68 439.996,150.318 440.777,150.318 C441.558,150.318 442.185,149.68 442.185,148.899 C442.185,148.129 441.558,147.48 440.799,147.48 Z M448.466,145.874 L448.466,148.789 C448.466,149.614 448.312,150.12 447.949,150.505 C447.564,150.912 446.981,151.121 446.288,151.121 C445.573,151.121 444.979,150.901 444.594,150.483 C444.209,150.076 444.11,149.658 444.11,148.547 L444.11,146.127 C444.11,145.17 444.22,144.719 444.55,144.323 C444.913,143.883 445.518,143.641 446.266,143.641 C446.937,143.641 447.487,143.828 447.894,144.191 C448.312,144.576 448.466,145.016 448.466,145.874 Z M444.979,146.149 L444.979,148.602 C444.979,149.449 445.012,149.603 445.254,149.878 C445.485,150.142 445.881,150.307 446.299,150.307 C446.75,150.307 447.168,150.12 447.377,149.823 C447.542,149.581 447.608,149.273 447.608,148.734 L447.608,145.929 C447.608,145.357 447.509,145.071 447.234,144.807 C446.992,144.587 446.662,144.466 446.299,144.466 C445.826,144.466 445.419,144.653 445.21,144.994 C445.023,145.258 444.979,145.511 444.979,146.149 Z M451.843,144.972 L451.843,146.16 C451.843,146.963 451.447,147.381 450.699,147.381 C450.325,147.381 450.006,147.26 449.797,147.029 C449.61,146.82 449.577,146.666 449.566,146.105 L449.566,144.983 C449.566,144.455 449.643,144.169 449.841,143.96 C450.028,143.751 450.358,143.63 450.71,143.63 C451.04,143.63 451.326,143.74 451.535,143.927 C451.788,144.169 451.843,144.334 451.843,144.972 Z M450.105,144.994 L450.105,146.006 C450.105,146.446 450.116,146.512 450.204,146.644 C450.292,146.787 450.49,146.875 450.71,146.875 C450.941,146.875 451.139,146.776 451.227,146.611 C451.293,146.49 451.315,146.369 451.315,146.039 L451.315,144.906 C451.315,144.389 451.128,144.147 450.721,144.147 C450.501,144.147 450.314,144.224 450.215,144.345 C450.116,144.477 450.105,144.565 450.105,144.994 Z M455.231,148.635 L455.231,149.823 C455.231,150.615 454.835,151.033 454.087,151.033 C453.713,151.033 453.394,150.912 453.185,150.681 C452.998,150.472 452.965,150.318 452.954,149.768 L452.954,148.646 C452.954,148.118 453.031,147.832 453.229,147.623 C453.427,147.414 453.746,147.293 454.098,147.293 C454.428,147.293 454.714,147.403 454.923,147.59 C455.176,147.832 455.231,147.997 455.231,148.635 Z M453.493,148.657 L453.493,149.669 C453.493,150.109 453.504,150.164 453.592,150.296 C453.68,150.439 453.889,150.527 454.098,150.527 C454.318,150.527 454.527,150.428 454.615,150.263 C454.681,150.142 454.703,150.032 454.703,149.702 L454.703,148.569 C454.703,148.041 454.516,147.81 454.109,147.81 C453.889,147.81 453.702,147.887 453.603,148.008 C453.504,148.14 453.493,148.228 453.493,148.657 Z M455.099,143.817 L450.061,151.088 L449.698,150.835 L454.736,143.575 L455.099,143.817 Z M462.084,145.808 C463.58,145.808 464.647,146.919 464.647,148.481 C464.647,149.966 463.503,151.121 462.051,151.121 C460.544,151.121 459.488,150.021 459.488,148.459 C459.488,146.886 460.544,145.808 462.084,145.808 Z M462.084,146.578 C461.039,146.578 460.346,147.337 460.346,148.47 C460.346,149.592 461.039,150.351 462.073,150.351 C463.074,150.351 463.789,149.57 463.789,148.47 C463.789,147.337 463.107,146.578 462.084,146.578 Z M466.847,146.666 L466.847,151 L466.011,151 L466.011,146.666 L465.318,146.666 L465.318,145.929 L466.011,145.929 L466.011,145.247 C466.011,144.246 466.528,143.652 467.408,143.652 C467.452,143.652 467.551,143.652 467.639,143.663 L467.639,144.411 C467.034,144.477 466.869,144.653 466.847,145.247 L466.847,145.929 L467.639,145.929 L467.639,146.666 L466.847,146.666 Z M475.504,149.801 L476.021,150.373 C475.449,150.89 474.888,151.121 474.151,151.121 C472.699,151.121 471.665,150.021 471.665,148.481 C471.665,146.908 472.71,145.808 474.195,145.808 C474.921,145.808 475.515,146.05 476.043,146.567 L475.504,147.106 C475.119,146.754 474.69,146.578 474.217,146.578 C473.216,146.578 472.523,147.348 472.523,148.448 C472.523,149.57 473.216,150.351 474.206,150.351 C474.701,150.351 475.097,150.186 475.504,149.801 Z M479.288,145.808 C480.784,145.808 481.851,146.919 481.851,148.481 C481.851,149.966 480.707,151.121 479.255,151.121 C477.748,151.121 476.692,150.021 476.692,148.459 C476.692,146.886 477.748,145.808 479.288,145.808 Z M479.288,146.578 C478.243,146.578 477.55,147.337 477.55,148.47 C477.55,149.592 478.243,150.351 479.277,150.351 C480.278,150.351 480.993,149.57 480.993,148.47 C480.993,147.337 480.311,146.578 479.288,146.578 Z M483.127,145.929 L483.963,145.929 L483.963,146.644 C484.403,146.05 484.843,145.808 485.47,145.808 C485.932,145.808 486.35,145.962 486.647,146.226 C486.966,146.534 487.076,146.886 487.076,147.579 L487.076,151 L486.24,151 L486.24,147.766 C486.24,147.315 486.185,147.073 486.053,146.897 C485.899,146.688 485.602,146.556 485.261,146.556 C484.887,146.556 484.546,146.699 484.293,146.985 C484.051,147.249 483.963,147.491 483.963,147.909 L483.963,151 L483.127,151 L483.127,145.929 Z M489.617,146.666 L489.617,149.966 C489.628,150.219 489.694,150.274 490.002,150.274 L490.387,150.274 L490.387,151 L489.606,151 C489.012,150.989 488.781,150.769 488.781,150.208 L488.781,146.666 L488.077,146.666 L488.077,145.929 L488.781,145.929 L488.781,144.334 L489.617,144.334 L489.617,145.929 L490.387,145.929 L490.387,146.666 L489.617,146.666 Z M495.403,146.765 L495.403,145.929 L496.239,145.929 L496.239,151 L495.403,151 L495.403,150.021 C494.897,150.78 494.325,151.121 493.555,151.121 C492.158,151.121 491.168,150.021 491.168,148.481 C491.168,146.93 492.18,145.808 493.577,145.808 C494.347,145.808 494.908,146.105 495.403,146.765 Z M493.698,146.556 C493.148,146.556 492.763,146.743 492.466,147.161 C492.202,147.524 492.048,148.008 492.048,148.503 C492.048,149.581 492.752,150.395 493.676,150.395 C494.633,150.395 495.414,149.504 495.414,148.415 C495.414,147.315 494.71,146.556 493.698,146.556 Z M498.758,145.929 L498.758,151 L497.922,151 L497.922,145.929 L498.758,145.929 Z M498.351,143.96 C498.648,143.96 498.879,144.202 498.879,144.51 C498.879,144.807 498.637,145.038 498.34,145.038 C498.043,145.038 497.812,144.807 497.812,144.499 C497.812,144.191 498.043,143.96 498.351,143.96 Z M500.441,145.929 L501.277,145.929 L501.277,146.644 C501.717,146.05 502.157,145.808 502.784,145.808 C503.246,145.808 503.664,145.962 503.961,146.226 C504.28,146.534 504.39,146.886 504.39,147.579 L504.39,151 L503.554,151 L503.554,147.766 C503.554,147.315 503.499,147.073 503.367,146.897 C503.213,146.688 502.916,146.556 502.575,146.556 C502.201,146.556 501.86,146.699 501.607,146.985 C501.365,147.249 501.277,147.491 501.277,147.909 L501.277,151 L500.441,151 L500.441,145.929 Z M510.748,148.734 L506.524,148.734 C506.568,149.163 506.645,149.383 506.854,149.658 C507.184,150.109 507.668,150.351 508.218,150.351 C508.845,150.351 509.439,150.01 509.736,149.482 L510.473,149.757 C510.055,150.604 509.186,151.121 508.218,151.121 C506.711,151.121 505.633,150.021 505.633,148.481 C505.633,146.919 506.7,145.808 508.185,145.808 C509.659,145.808 510.759,146.919 510.759,148.404 C510.759,148.47 510.759,148.613 510.748,148.734 Z M506.535,148.118 L509.868,148.118 C509.835,147.722 509.758,147.502 509.582,147.249 C509.263,146.82 508.746,146.556 508.185,146.556 C507.624,146.556 507.118,146.82 506.821,147.26 C506.667,147.502 506.601,147.711 506.535,148.118 Z M511.969,145.929 L512.805,145.929 L512.805,146.787 C512.959,146.424 513.069,146.27 513.267,146.116 C513.52,145.918 513.872,145.808 514.235,145.808 L514.433,145.808 L514.433,146.655 C514.345,146.644 514.257,146.644 514.202,146.644 C513.751,146.644 513.355,146.853 513.102,147.227 C512.882,147.546 512.805,147.843 512.805,148.426 L512.805,151 L511.969,151 L511.969,145.929 Z M516.49,150.142 L515.379,152.749 L514.774,152.562 L515.698,149.889 L516.49,150.142 Z M522.144,143.663 L522.144,146.633 C522.606,146.061 523.068,145.808 523.673,145.808 C524.113,145.808 524.575,145.984 524.85,146.27 C525.125,146.545 525.246,146.941 525.246,147.59 L525.246,151 L524.41,151 L524.41,147.634 C524.41,146.941 524.069,146.556 523.464,146.556 C523.079,146.556 522.738,146.71 522.474,147.007 C522.221,147.293 522.144,147.546 522.144,148.03 L522.144,151 L521.308,151 L521.308,143.663 L522.144,143.663 Z M529.085,145.808 C530.581,145.808 531.648,146.919 531.648,148.481 C531.648,149.966 530.504,151.121 529.052,151.121 C527.545,151.121 526.489,150.021 526.489,148.459 C526.489,146.886 527.545,145.808 529.085,145.808 Z M529.085,146.578 C528.04,146.578 527.347,147.337 527.347,148.47 C527.347,149.592 528.04,150.351 529.074,150.351 C530.075,150.351 530.79,149.57 530.79,148.47 C530.79,147.337 530.108,146.578 529.085,146.578 Z M532.924,145.929 L533.76,145.929 L533.76,146.787 C533.914,146.424 534.024,146.27 534.222,146.116 C534.475,145.918 534.827,145.808 535.19,145.808 L535.388,145.808 L535.388,146.655 C535.3,146.644 535.212,146.644 535.157,146.644 C534.706,146.644 534.31,146.853 534.057,147.227 C533.837,147.546 533.76,147.843 533.76,148.426 L533.76,151 L532.924,151 L532.924,145.929 Z M537.258,145.929 L537.258,151 L536.422,151 L536.422,145.929 L537.258,145.929 Z M536.851,143.96 C537.148,143.96 537.379,144.202 537.379,144.51 C537.379,144.807 537.137,145.038 536.84,145.038 C536.543,145.038 536.312,144.807 536.312,144.499 C536.312,144.191 536.543,143.96 536.851,143.96 Z M539.755,150.263 L542.087,150.263 L542.087,151 L538.347,151 L540.987,146.666 L538.633,146.666 L538.633,145.929 L542.362,145.929 L539.755,150.263 Z M545.541,145.808 C547.037,145.808 548.104,146.919 548.104,148.481 C548.104,149.966 546.96,151.121 545.508,151.121 C544.001,151.121 542.945,150.021 542.945,148.459 C542.945,146.886 544.001,145.808 545.541,145.808 Z M545.541,146.578 C544.496,146.578 543.803,147.337 543.803,148.47 C543.803,149.592 544.496,150.351 545.53,150.351 C546.531,150.351 547.246,149.57 547.246,148.47 C547.246,147.337 546.564,146.578 545.541,146.578 Z M549.38,145.929 L550.216,145.929 L550.216,146.644 C550.656,146.05 551.096,145.808 551.723,145.808 C552.185,145.808 552.603,145.962 552.9,146.226 C553.219,146.534 553.329,146.886 553.329,147.579 L553.329,151 L552.493,151 L552.493,147.766 C552.493,147.315 552.438,147.073 552.306,146.897 C552.152,146.688 551.855,146.556 551.514,146.556 C551.14,146.556 550.799,146.699 550.546,146.985 C550.304,147.249 550.216,147.491 550.216,147.909 L550.216,151 L549.38,151 L549.38,145.929 Z M555.87,146.666 L555.87,149.966 C555.881,150.219 555.947,150.274 556.255,150.274 L556.64,150.274 L556.64,151 L555.859,151 C555.265,150.989 555.034,150.769 555.034,150.208 L555.034,146.666 L554.33,146.666 L554.33,145.929 L555.034,145.929 L555.034,144.334 L555.87,144.334 L555.87,145.929 L556.64,145.929 L556.64,146.666 L555.87,146.666 Z M561.656,146.765 L561.656,145.929 L562.492,145.929 L562.492,151 L561.656,151 L561.656,150.021 C561.15,150.78 560.578,151.121 559.808,151.121 C558.411,151.121 557.421,150.021 557.421,148.481 C557.421,146.93 558.433,145.808 559.83,145.808 C560.6,145.808 561.161,146.105 561.656,146.765 Z M559.951,146.556 C559.401,146.556 559.016,146.743 558.719,147.161 C558.455,147.524 558.301,148.008 558.301,148.503 C558.301,149.581 559.005,150.395 559.929,150.395 C560.886,150.395 561.667,149.504 561.667,148.415 C561.667,147.315 560.963,146.556 559.951,146.556 Z M565.011,151 L564.175,151 L564.175,143.663 L565.011,143.663 L565.011,151 Z M567.53,151 L566.694,151 L566.694,143.663 L567.53,143.663 L567.53,151 Z M570.698,149.691 L572.216,145.929 L573.129,145.929 L570.104,153.442 L569.191,153.442 L570.247,150.846 L568.443,145.929 L569.334,145.929 L570.698,149.691 Z M580.763,149.801 L581.28,150.373 C580.708,150.89 580.147,151.121 579.41,151.121 C577.958,151.121 576.924,150.021 576.924,148.481 C576.924,146.908 577.969,145.808 579.454,145.808 C580.18,145.808 580.774,146.05 581.302,146.567 L580.763,147.106 C580.378,146.754 579.949,146.578 579.476,146.578 C578.475,146.578 577.782,147.348 577.782,148.448 C577.782,149.57 578.475,150.351 579.465,150.351 C579.96,150.351 580.356,150.186 580.763,149.801 Z M587.066,148.734 L582.842,148.734 C582.886,149.163 582.963,149.383 583.172,149.658 C583.502,150.109 583.986,150.351 584.536,150.351 C585.163,150.351 585.757,150.01 586.054,149.482 L586.791,149.757 C586.373,150.604 585.504,151.121 584.536,151.121 C583.029,151.121 581.951,150.021 581.951,148.481 C581.951,146.919 583.018,145.808 584.503,145.808 C585.977,145.808 587.077,146.919 587.077,148.404 C587.077,148.47 587.077,148.613 587.066,148.734 Z M582.853,148.118 L586.186,148.118 C586.153,147.722 586.076,147.502 585.9,147.249 C585.581,146.82 585.064,146.556 584.503,146.556 C583.942,146.556 583.436,146.82 583.139,147.26 C582.985,147.502 582.919,147.711 582.853,148.118 Z M588.287,145.929 L589.123,145.929 L589.123,146.644 C589.563,146.05 590.003,145.808 590.63,145.808 C591.092,145.808 591.51,145.962 591.807,146.226 C592.126,146.534 592.236,146.886 592.236,147.579 L592.236,151 L591.4,151 L591.4,147.766 C591.4,147.315 591.345,147.073 591.213,146.897 C591.059,146.688 590.762,146.556 590.421,146.556 C590.047,146.556 589.706,146.699 589.453,146.985 C589.211,147.249 589.123,147.491 589.123,147.909 L589.123,151 L588.287,151 L588.287,145.929 Z M594.777,146.666 L594.777,149.966 C594.788,150.219 594.854,150.274 595.162,150.274 L595.547,150.274 L595.547,151 L594.766,151 C594.172,150.989 593.941,150.769 593.941,150.208 L593.941,146.666 L593.237,146.666 L593.237,145.929 L593.941,145.929 L593.941,144.334 L594.777,144.334 L594.777,145.929 L595.547,145.929 L595.547,146.666 L594.777,146.666 Z M601.443,148.734 L597.219,148.734 C597.263,149.163 597.34,149.383 597.549,149.658 C597.879,150.109 598.363,150.351 598.913,150.351 C599.54,150.351 600.134,150.01 600.431,149.482 L601.168,149.757 C600.75,150.604 599.881,151.121 598.913,151.121 C597.406,151.121 596.328,150.021 596.328,148.481 C596.328,146.919 597.395,145.808 598.88,145.808 C600.354,145.808 601.454,146.919 601.454,148.404 C601.454,148.47 601.454,148.613 601.443,148.734 Z M597.23,148.118 L600.563,148.118 C600.53,147.722 600.453,147.502 600.277,147.249 C599.958,146.82 599.441,146.556 598.88,146.556 C598.319,146.556 597.813,146.82 597.516,147.26 C597.362,147.502 597.296,147.711 597.23,148.118 Z M602.664,145.929 L603.5,145.929 L603.5,146.787 C603.654,146.424 603.764,146.27 603.962,146.116 C604.215,145.918 604.567,145.808 604.93,145.808 L605.128,145.808 L605.128,146.655 C605.04,146.644 604.952,146.644 604.897,146.644 C604.446,146.644 604.05,146.853 603.797,147.227 C603.577,147.546 603.5,147.843 603.5,148.426 L603.5,151 L602.664,151 L602.664,145.929 Z M610.87,148.734 L606.646,148.734 C606.69,149.163 606.767,149.383 606.976,149.658 C607.306,150.109 607.79,150.351 608.34,150.351 C608.967,150.351 609.561,150.01 609.858,149.482 L610.595,149.757 C610.177,150.604 609.308,151.121 608.34,151.121 C606.833,151.121 605.755,150.021 605.755,148.481 C605.755,146.919 606.822,145.808 608.307,145.808 C609.781,145.808 610.881,146.919 610.881,148.404 C610.881,148.47 610.881,148.613 610.87,148.734 Z M606.657,148.118 L609.99,148.118 C609.957,147.722 609.88,147.502 609.704,147.249 C609.385,146.82 608.868,146.556 608.307,146.556 C607.746,146.556 607.24,146.82 606.943,147.26 C606.789,147.502 606.723,147.711 606.657,148.118 Z M615.886,146.699 L615.886,143.663 L616.722,143.663 L616.722,151 L615.886,151 L615.886,150.131 C615.38,150.824 614.841,151.121 614.071,151.121 C612.674,151.121 611.684,150.032 611.684,148.492 C611.684,146.952 612.696,145.808 614.071,145.808 C614.819,145.808 615.391,146.083 615.886,146.699 Z M614.247,146.556 C613.246,146.556 612.564,147.348 612.564,148.503 C612.564,149.614 613.235,150.395 614.192,150.395 C615.171,150.395 615.886,149.581 615.886,148.481 C615.886,147.337 615.215,146.556 614.247,146.556 Z"/>
      <g fill="#C41261" transform="translate(96 131)">
        <rect width="809" height="1" x="5" y="2"/>
        <polygon points="816.5 0 819 5 814 5" transform="rotate(90 816.5 2.5)"/>
        <polygon points="2.5 0 5 5 0 5" transform="matrix(0 1 1 0 0 0)"/>
      </g>
    </g>
  </g>
</svg>
