<svg xmlns="http://www.w3.org/2000/svg" xmlns:xlink="http://www.w3.org/1999/xlink" width="1026" height="180" viewBox="0 0 1026 180">
  <defs>
    <rect id="4-b" width="537" height="56" rx="14"/>
    <filter id="4-a" width="104.7%" height="144.6%" x="-2.3%" y="-20.5%" filterUnits="objectBoundingBox">
      <feOffset dy="1" in="SourceAlpha" result="shadowOffsetOuter1"/>
      <feGaussianBlur in="shadowOffsetOuter1" result="shadowBlurOuter1" stdDeviation="4"/>
      <feColorMatrix in="shadowBlurOuter1" result="shadowMatrixOuter1" values="0 0 0 0 0   0 0 0 0 0   0 0 0 0 0  0 0 0 0.2 0"/>
      <feMorphology in="SourceAlpha" radius="1" result="shadowSpreadOuter2"/>
      <feOffset dy="3" in="shadowSpreadOuter2" result="shadowOffsetOuter2"/>
      <feGaussianBlur in="shadowOffsetOuter2" result="shadowBlurOuter2" stdDeviation="1.5"/>
      <feColorMatrix in="shadowBlurOuter2" result="shadowMatrixOuter2" values="0 0 0 0 0   0 0 0 0 0   0 0 0 0 0  0 0 0 0.12 0"/>
      <feOffset dy="3" in="SourceAlpha" result="shadowOffsetOuter3"/>
      <feGaussianBlur in="shadowOffsetOuter3" result="shadowBlurOuter3" stdDeviation="2"/>
      <feColorMatrix in="shadowBlurOuter3" result="shadowMatrixOuter3" values="0 0 0 0 0   0 0 0 0 0   0 0 0 0 0  0 0 0 0.14 0"/>
      <feMerge>
        <feMergeNode in="shadowMatrixOuter1"/>
        <feMergeNode in="shadowMatrixOuter2"/>
        <feMergeNode in="shadowMatrixOuter3"/>
      </feMerge>
    </filter>
  </defs>
  <g fill="none" fill-rule="evenodd" transform="translate(1)">
    <rect width="1024" height="180" fill="#FFF" fill-opacity=".01" fill-rule="nonzero"/>
    <g transform="translate(0 17)">
      <g fill-rule="nonzero" stroke="#979797">
        <polyline fill="#FFF" points="1024 0 1024 124 0 124 0 0 0 0"/>
        <path d="M391,0 L391,124"/>
      </g>
      <path fill="#C41261" d="M686.924 32.018C687.342 32.15 687.54 32.249 687.771 32.491 688.134 32.854 688.321 33.338 688.321 33.91 688.321 35.208 687.364 36.132 686.022 36.132 684.691 36.132 683.756 35.241 683.756 33.987 683.756 33.404 683.954 32.876 684.306 32.513 684.537 32.271 684.724 32.161 685.164 32.018 684.779 31.886 684.614 31.776 684.416 31.534 684.174 31.237 684.042 30.863 684.042 30.456 684.042 29.411 684.9 28.641 686.066 28.641 687.221 28.641 688.057 29.4 688.057 30.445 688.057 30.863 687.914 31.259 687.65 31.567 687.452 31.787 687.298 31.886 686.924 32.018zM686.066 29.411C685.362 29.411 684.878 29.851 684.878 30.467 684.878 31.094 685.395 31.589 686.044 31.589 686.671 31.589 687.232 31.072 687.232 30.478 687.232 29.906 686.693 29.411 686.066 29.411zM686.055 32.48C685.263 32.48 684.625 33.107 684.625 33.899 684.625 34.68 685.252 35.318 686.033 35.318 686.814 35.318 687.441 34.68 687.441 33.899 687.441 33.129 686.814 32.48 686.055 32.48zM689.63 30.929L690.466 30.929 690.466 31.853C690.95 31.105 691.467 30.808 692.314 30.808 693.722 30.808 694.701 31.886 694.701 33.426 694.701 35.021 693.722 36.121 692.314 36.121 691.918 36.121 691.555 36.033 691.203 35.857 690.895 35.703 690.741 35.571 690.466 35.208L690.466 38.376 689.63 38.376 689.63 30.929zM692.171 31.556C691.159 31.556 690.466 32.359 690.466 33.547 690.466 34.658 691.137 35.395 692.138 35.395 693.139 35.395 693.81 34.614 693.81 33.459 693.81 32.865 693.667 32.414 693.37 32.084 693.073 31.754 692.622 31.556 692.171 31.556zM697.583 34.163L696.23 36 695.207 36 697.077 33.481 695.174 30.929 696.23 30.929 697.583 32.788 698.969 30.929 699.992 30.929 698.078 33.481 699.904 36 698.881 36 697.583 34.163zM706.251 38.046L705.701 38.574C704.403 36.979 703.809 35.428 703.809 33.58 703.809 31.688 704.502 29.818 705.723 28.443L706.251 28.993C705.14 30.368 704.59 31.897 704.59 33.547 704.59 35.153 705.184 36.759 706.251 38.046zM708.407 31.666L708.407 36 707.571 36 707.571 31.666 706.878 31.666 706.878 30.929 707.571 30.929 707.571 30.247C707.571 29.246 708.088 28.652 708.968 28.652 709.012 28.652 709.111 28.652 709.199 28.663L709.199 29.411C708.594 29.477 708.429 29.653 708.407 30.247L708.407 30.929 709.199 30.929 709.199 31.666 708.407 31.666zM711.399 30.929L711.399 36 710.563 36 710.563 30.929 711.399 30.929zM710.981 28.96C711.278 28.96 711.509 29.202 711.509 29.51 711.509 29.807 711.278 30.038 710.981 30.038 710.673 30.038 710.442 29.807 710.442 29.499 710.442 29.191 710.673 28.96 710.981 28.96zM714.699 34.163L713.346 36 712.323 36 714.193 33.481 712.29 30.929 713.346 30.929 714.699 32.788 716.085 30.929 717.108 30.929 715.194 33.481 717.02 36 715.997 36 714.699 34.163zM722.696 33.734L718.472 33.734C718.516 34.163 718.593 34.383 718.802 34.658 719.132 35.109 719.616 35.351 720.166 35.351 720.793 35.351 721.387 35.01 721.684 34.482L722.421 34.757C722.003 35.604 721.134 36.121 720.166 36.121 718.659 36.121 717.581 35.021 717.581 33.481 717.581 31.919 718.648 30.808 720.133 30.808 721.607 30.808 722.707 31.919 722.707 33.404 722.707 33.47 722.707 33.613 722.696 33.734zM718.483 33.118L721.816 33.118C721.783 32.722 721.706 32.502 721.53 32.249 721.211 31.82 720.694 31.556 720.133 31.556 719.572 31.556 719.066 31.82 718.769 32.26 718.615 32.502 718.549 32.711 718.483 33.118zM727.712 31.699L727.712 28.663 728.548 28.663 728.548 36 727.712 36 727.712 35.131C727.206 35.824 726.667 36.121 725.897 36.121 724.5 36.121 723.51 35.032 723.51 33.492 723.51 31.952 724.522 30.808 725.897 30.808 726.645 30.808 727.217 31.083 727.712 31.699zM726.073 31.556C725.072 31.556 724.39 32.348 724.39 33.503 724.39 34.614 725.061 35.395 726.018 35.395 726.997 35.395 727.712 34.581 727.712 33.481 727.712 32.337 727.041 31.556 726.073 31.556zM729.78 28.971L730.33 28.443C731.639 30.049 732.222 31.589 732.222 33.437 732.222 35.34 731.529 37.188 730.308 38.574L729.78 38.024C730.891 36.649 731.441 35.12 731.441 33.47 731.441 31.853 730.858 30.269 729.78 28.971zM405.245 36.35L402.308 36.35 402.308 35.668 406.092 30.564 406.092 35.558 406.95 35.558 406.95 36.35 406.092 36.35 406.092 38 405.245 38 405.245 36.35zM405.245 35.558L405.245 32.753 403.188 35.558 405.245 35.558zM411.009 34.018C411.427 34.15 411.625 34.249 411.856 34.491 412.219 34.854 412.406 35.338 412.406 35.91 412.406 37.208 411.449 38.132 410.107 38.132 408.776 38.132 407.841 37.241 407.841 35.987 407.841 35.404 408.039 34.876 408.391 34.513 408.622 34.271 408.809 34.161 409.249 34.018 408.864 33.886 408.699 33.776 408.501 33.534 408.259 33.237 408.127 32.863 408.127 32.456 408.127 31.411 408.985 30.641 410.151 30.641 411.306 30.641 412.142 31.4 412.142 32.445 412.142 32.863 411.999 33.259 411.735 33.567 411.537 33.787 411.383 33.886 411.009 34.018zM410.151 31.411C409.447 31.411 408.963 31.851 408.963 32.467 408.963 33.094 409.48 33.589 410.129 33.589 410.756 33.589 411.317 33.072 411.317 32.478 411.317 31.906 410.778 31.411 410.151 31.411zM410.14 34.48C409.348 34.48 408.71 35.107 408.71 35.899 408.71 36.68 409.337 37.318 410.118 37.318 410.899 37.318 411.526 36.68 411.526 35.899 411.526 35.129 410.899 34.48 410.14 34.48zM413.715 32.929L414.551 32.929 414.551 33.853C415.035 33.105 415.552 32.808 416.399 32.808 417.807 32.808 418.786 33.886 418.786 35.426 418.786 37.021 417.807 38.121 416.399 38.121 416.003 38.121 415.64 38.033 415.288 37.857 414.98 37.703 414.826 37.571 414.551 37.208L414.551 40.376 413.715 40.376 413.715 32.929zM416.256 33.556C415.244 33.556 414.551 34.359 414.551 35.547 414.551 36.658 415.222 37.395 416.223 37.395 417.224 37.395 417.895 36.614 417.895 35.459 417.895 34.865 417.752 34.414 417.455 34.084 417.158 33.754 416.707 33.556 416.256 33.556zM421.668 36.163L420.315 38 419.292 38 421.162 35.481 419.259 32.929 420.315 32.929 421.668 34.788 423.054 32.929 424.077 32.929 422.163 35.481 423.989 38 422.966 38 421.668 36.163zM401.23 51.046L400.68 51.574C399.382 49.979 398.788 48.428 398.788 46.58 398.788 44.688 399.481 42.818 400.702 41.443L401.23 41.993C400.119 43.368 399.569 44.897 399.569 46.547 399.569 48.153 400.163 49.759 401.23 51.046zM403.386 44.666L403.386 49 402.55 49 402.55 44.666 401.857 44.666 401.857 43.929 402.55 43.929 402.55 43.247C402.55 42.246 403.067 41.652 403.947 41.652 403.991 41.652 404.09 41.652 404.178 41.663L404.178 42.411C403.573 42.477 403.408 42.653 403.386 43.247L403.386 43.929 404.178 43.929 404.178 44.666 403.386 44.666zM406.378 43.929L406.378 49 405.542 49 405.542 43.929 406.378 43.929zM405.96 41.96C406.257 41.96 406.488 42.202 406.488 42.51 406.488 42.807 406.257 43.038 405.96 43.038 405.652 43.038 405.421 42.807 405.421 42.499 405.421 42.191 405.652 41.96 405.96 41.96zM409.678 47.163L408.325 49 407.302 49 409.172 46.481 407.269 43.929 408.325 43.929 409.678 45.788 411.064 43.929 412.087 43.929 410.173 46.481 411.999 49 410.976 49 409.678 47.163zM417.675 46.734L413.451 46.734C413.495 47.163 413.572 47.383 413.781 47.658 414.111 48.109 414.595 48.351 415.145 48.351 415.772 48.351 416.366 48.01 416.663 47.482L417.4 47.757C416.982 48.604 416.113 49.121 415.145 49.121 413.638 49.121 412.56 48.021 412.56 46.481 412.56 44.919 413.627 43.808 415.112 43.808 416.586 43.808 417.686 44.919 417.686 46.404 417.686 46.47 417.686 46.613 417.675 46.734zM413.462 46.118L416.795 46.118C416.762 45.722 416.685 45.502 416.509 45.249 416.19 44.82 415.673 44.556 415.112 44.556 414.551 44.556 414.045 44.82 413.748 45.26 413.594 45.502 413.528 45.711 413.462 46.118zM422.691 44.699L422.691 41.663 423.527 41.663 423.527 49 422.691 49 422.691 48.131C422.185 48.824 421.646 49.121 420.876 49.121 419.479 49.121 418.489 48.032 418.489 46.492 418.489 44.952 419.501 43.808 420.876 43.808 421.624 43.808 422.196 44.083 422.691 44.699zM421.052 44.556C420.051 44.556 419.369 45.348 419.369 46.503 419.369 47.614 420.04 48.395 420.997 48.395 421.976 48.395 422.691 47.581 422.691 46.481 422.691 45.337 422.02 44.556 421.052 44.556zM424.759 41.971L425.309 41.443C426.618 43.049 427.201 44.589 427.201 46.437 427.201 48.34 426.508 50.188 425.287 51.574L424.759 51.024C425.87 49.649 426.42 48.12 426.42 46.47 426.42 44.853 425.837 43.269 424.759 41.971zM990.245 36.35L987.308 36.35 987.308 35.668 991.092 30.564 991.092 35.558 991.95 35.558 991.95 36.35 991.092 36.35 991.092 38 990.245 38 990.245 36.35zM990.245 35.558L990.245 32.753 988.188 35.558 990.245 35.558zM996.009 34.018C996.427 34.15 996.625 34.249 996.856 34.491 997.219 34.854 997.406 35.338 997.406 35.91 997.406 37.208 996.449 38.132 995.107 38.132 993.776 38.132 992.841 37.241 992.841 35.987 992.841 35.404 993.039 34.876 993.391 34.513 993.622 34.271 993.809 34.161 994.249 34.018 993.864 33.886 993.699 33.776 993.501 33.534 993.259 33.237 993.127 32.863 993.127 32.456 993.127 31.411 993.985 30.641 995.151 30.641 996.306 30.641 997.142 31.4 997.142 32.445 997.142 32.863 996.999 33.259 996.735 33.567 996.537 33.787 996.383 33.886 996.009 34.018zM995.151 31.411C994.447 31.411 993.963 31.851 993.963 32.467 993.963 33.094 994.48 33.589 995.129 33.589 995.756 33.589 996.317 33.072 996.317 32.478 996.317 31.906 995.778 31.411 995.151 31.411zM995.14 34.48C994.348 34.48 993.71 35.107 993.71 35.899 993.71 36.68 994.337 37.318 995.118 37.318 995.899 37.318 996.526 36.68 996.526 35.899 996.526 35.129 995.899 34.48 995.14 34.48zM998.715 32.929L999.551 32.929 999.551 33.853C1000.035 33.105 1000.552 32.808 1001.399 32.808 1002.807 32.808 1003.786 33.886 1003.786 35.426 1003.786 37.021 1002.807 38.121 1001.399 38.121 1001.003 38.121 1000.64 38.033 1000.288 37.857 999.98 37.703 999.826 37.571 999.551 37.208L999.551 40.376 998.715 40.376 998.715 32.929zM1001.256 33.556C1000.244 33.556 999.551 34.359 999.551 35.547 999.551 36.658 1000.222 37.395 1001.223 37.395 1002.224 37.395 1002.895 36.614 1002.895 35.459 1002.895 34.865 1002.752 34.414 1002.455 34.084 1002.158 33.754 1001.707 33.556 1001.256 33.556zM1006.668 36.163L1005.315 38 1004.292 38 1006.162 35.481 1004.259 32.929 1005.315 32.929 1006.668 34.788 1008.054 32.929 1009.077 32.929 1007.163 35.481 1008.989 38 1007.966 38 1006.668 36.163zM986.23 51.046L985.68 51.574C984.382 49.979 983.788 48.428 983.788 46.58 983.788 44.688 984.481 42.818 985.702 41.443L986.23 41.993C985.119 43.368 984.569 44.897 984.569 46.547 984.569 48.153 985.163 49.759 986.23 51.046zM988.386 44.666L988.386 49 987.55 49 987.55 44.666 986.857 44.666 986.857 43.929 987.55 43.929 987.55 43.247C987.55 42.246 988.067 41.652 988.947 41.652 988.991 41.652 989.09 41.652 989.178 41.663L989.178 42.411C988.573 42.477 988.408 42.653 988.386 43.247L988.386 43.929 989.178 43.929 989.178 44.666 988.386 44.666zM991.378 43.929L991.378 49 990.542 49 990.542 43.929 991.378 43.929zM990.96 41.96C991.257 41.96 991.488 42.202 991.488 42.51 991.488 42.807 991.257 43.038 990.96 43.038 990.652 43.038 990.421 42.807 990.421 42.499 990.421 42.191 990.652 41.96 990.96 41.96zM994.678 47.163L993.325 49 992.302 49 994.172 46.481 992.269 43.929 993.325 43.929 994.678 45.788 996.064 43.929 997.087 43.929 995.173 46.481 996.999 49 995.976 49 994.678 47.163zM1002.675 46.734L998.451 46.734C998.495 47.163 998.572 47.383 998.781 47.658 999.111 48.109 999.595 48.351 1000.145 48.351 1000.772 48.351 1001.366 48.01 1001.663 47.482L1002.4 47.757C1001.982 48.604 1001.113 49.121 1000.145 49.121 998.638 49.121 997.56 48.021 997.56 46.481 997.56 44.919 998.627 43.808 1000.112 43.808 1001.586 43.808 1002.686 44.919 1002.686 46.404 1002.686 46.47 1002.686 46.613 1002.675 46.734zM998.462 46.118L1001.795 46.118C1001.762 45.722 1001.685 45.502 1001.509 45.249 1001.19 44.82 1000.673 44.556 1000.112 44.556 999.551 44.556 999.045 44.82 998.748 45.26 998.594 45.502 998.528 45.711 998.462 46.118zM1007.691 44.699L1007.691 41.663 1008.527 41.663 1008.527 49 1007.691 49 1007.691 48.131C1007.185 48.824 1006.646 49.121 1005.876 49.121 1004.479 49.121 1003.489 48.032 1003.489 46.492 1003.489 44.952 1004.501 43.808 1005.876 43.808 1006.624 43.808 1007.196 44.083 1007.691 44.699zM1006.052 44.556C1005.051 44.556 1004.369 45.348 1004.369 46.503 1004.369 47.614 1005.04 48.395 1005.997 48.395 1006.976 48.395 1007.691 47.581 1007.691 46.481 1007.691 45.337 1007.02 44.556 1006.052 44.556zM1009.759 41.971L1010.309 41.443C1011.618 43.049 1012.201 44.589 1012.201 46.437 1012.201 48.34 1011.508 50.188 1010.287 51.574L1009.759 51.024C1010.87 49.649 1011.42 48.12 1011.42 46.47 1011.42 44.853 1010.837 43.269 1009.759 41.971z"/>
      <g fill="#C41261" transform="translate(703 44)">
        <rect width="1" height="6" x="4" y="1"/>
        <rect width="9" height="1"/>
        <rect width="9" height="1" y="7"/>
      </g>
      <g transform="translate(439 52)">
        <use fill="#000" filter="url(#4-a)" xlink:href="#4-b"/>
        <use fill="#F7F7F7" xlink:href="#4-b"/>
        <rect width="537" height="56" fill="#25333D" rx="14"/>
        <path fill="#89CBDF" d="M35.218557,17 L34.1228539,13.8208008 L29.5574242,13.8208008 L28.4534203,17 L26.5442406,17 L30.8689476,5.02197266 L32.8694359,5.02197266 L37.1941429,17 L35.218557,17 Z M31.7737328,7.19677734 L30.0305687,12.2602539 L33.6497093,12.2602539 L31.9148461,7.19677734 L31.7737328,7.19677734 Z M45.8153929,10.9155273 L44.0805297,10.9155273 C43.8730101,10.0356445 43.1425414,9.37988281 41.9472289,9.37988281 C40.4530883,9.37988281 39.5400023,10.5253906 39.5400023,12.4511719 C39.5400023,14.4101562 40.461389,15.5805664 41.9472289,15.5805664 C43.0761351,15.5805664 43.8481078,15.065918 44.0805297,14.0947266 L45.8153929,14.0947266 C45.5829711,15.9125977 44.1884398,17.1743164 41.9555297,17.1743164 C39.324182,17.1743164 37.7138304,15.3979492 37.7138304,12.4511719 C37.7138304,9.55419922 39.3158812,7.78613281 41.9472289,7.78613281 C44.2133422,7.78613281 45.5829711,9.10595703 45.8153929,10.9155273 Z M48.2027562,5.7109375 L49.9874242,5.7109375 L49.9874242,8.00195312 L51.9464086,8.00195312 L51.9464086,9.50439453 L49.9874242,9.50439453 L49.9874242,14.152832 C49.9874242,15.0991211 50.3775609,15.5141602 51.2657445,15.5141602 C51.5396703,15.5141602 51.6973851,15.4975586 51.9464086,15.4726562 L51.9464086,16.9584961 C51.6558812,17.0083008 51.32385,17.0498047 50.9752172,17.0498047 C48.9913304,17.0498047 48.2027562,16.3525391 48.2027562,14.609375 L48.2027562,9.50439453 L46.7667211,9.50439453 L46.7667211,8.00195312 L48.2027562,8.00195312 L48.2027562,5.7109375 Z M53.6697094,17 L53.6697094,7.96044922 L55.4460765,7.96044922 L55.4460765,17 L53.6697094,17 Z M54.5578929,6.375 C53.8938304,6.375 53.4040844,5.90185547 53.4040844,5.28759766 C53.4040844,4.66503906 53.8938304,4.19189453 54.5578929,4.19189453 C55.2219554,4.19189453 55.7117015,4.66503906 55.7117015,5.28759766 C55.7117015,5.90185547 55.2219554,6.375 54.5578929,6.375 Z M61.4774828,17.1743164 C58.8295336,17.1743164 57.2108812,15.40625 57.2108812,12.4760742 C57.2108812,9.5625 58.8378344,7.78613281 61.4774828,7.78613281 C64.1088305,7.78613281 65.7357836,9.5625 65.7357836,12.4760742 C65.7357836,15.40625 64.1171312,17.1743164 61.4774828,17.1743164 Z M61.4774828,15.5888672 C63.0214281,15.5888672 63.9013109,14.4433594 63.9013109,12.4760742 C63.9013109,10.5170898 63.0214281,9.37158203 61.4774828,9.37158203 C59.9252367,9.37158203 59.0536547,10.5170898 59.0536547,12.4760742 C59.0536547,14.4516602 59.9252367,15.5888672 61.4774828,15.5888672 Z M67.4673851,17 L67.4673851,7.96044922 L69.1856469,7.96044922 L69.1856469,9.39648438 L69.3184594,9.39648438 C69.7584008,8.39208984 70.6548851,7.78613281 72.0162133,7.78613281 C74.0333031,7.78613281 75.1456078,8.99804688 75.1456078,11.1479492 L75.1456078,17 L73.3609398,17 L73.3609398,11.5961914 C73.3609398,10.1435547 72.7300805,9.42138672 71.4102562,9.42138672 C70.090432,9.42138672 69.2520531,10.3012695 69.2520531,11.7124023 L69.2520531,17 L67.4673851,17 Z" transform="translate(445.052 17)"/>
        <path fill="#FFF" d="M16.8984375,30.0546875 L18.3203125,30.0546875 C18.4921875,31.234375 19.6171875,31.984375 21.21875,31.984375 C22.734375,31.984375 23.8515625,31.1640625 23.8515625,30.046875 C23.8515625,29.0859375 23.1484375,28.4765625 21.59375,28.0859375 L20.1484375,27.7109375 C18.109375,27.1953125 17.2265625,26.2734375 17.2265625,24.671875 C17.2265625,22.7578125 18.828125,21.4609375 21.2109375,21.4609375 C23.390625,21.4609375 25.015625,22.7578125 25.1328125,24.578125 L23.71875,24.578125 C23.5234375,23.421875 22.5703125,22.734375 21.1640625,22.734375 C19.6640625,22.734375 18.671875,23.484375 18.671875,24.625 C18.671875,25.5078125 19.2890625,26.015625 20.84375,26.4140625 L22.0234375,26.7265625 C24.359375,27.3125 25.296875,28.21875 25.296875,29.875 C25.296875,31.9453125 23.6640625,33.265625 21.0859375,33.265625 C18.6953125,33.265625 17.046875,32 16.8984375,30.0546875 Z M27.1721875,33 L27.1721875,24.578125 L28.5159375,24.578125 L28.5159375,33 L27.1721875,33 Z M27.8440625,22.8671875 C27.3284375,22.8671875 26.9065625,22.4453125 26.9065625,21.9296875 C26.9065625,21.4140625 27.3284375,20.9921875 27.8440625,20.9921875 C28.3596875,20.9921875 28.7815625,21.4140625 28.7815625,21.9296875 C28.7815625,22.4453125 28.3596875,22.8671875 27.8440625,22.8671875 Z M30.7584375,33 L30.7584375,24.578125 L32.0396875,24.578125 L32.0396875,25.90625 L32.1646875,25.90625 C32.5865625,24.9765625 33.406875,24.4296875 34.6959375,24.4296875 C36.5865625,24.4296875 37.64125,25.546875 37.64125,27.546875 L37.64125,33 L36.2975,33 L36.2975,27.875 C36.2975,26.359375 35.656875,25.640625 34.313125,25.640625 C32.969375,25.640625 32.1021875,26.5390625 32.1021875,28.015625 L32.1021875,33 L30.7584375,33 Z M43.180625,31.6875 C44.743125,31.6875 45.680625,30.5 45.680625,28.6640625 C45.680625,26.828125 44.7353125,25.640625 43.180625,25.640625 C41.618125,25.640625 40.743125,26.828125 40.743125,28.6640625 C40.743125,30.5 41.618125,31.6875 43.180625,31.6875 Z M43.243125,36.234375 C41.211875,36.234375 39.915,35.3203125 39.711875,33.9296875 L41.13375,33.9296875 C41.2821875,34.6171875 42.0321875,35.0625 43.243125,35.0625 C44.7509375,35.0625 45.649375,34.3203125 45.649375,33.078125 L45.649375,31.421875 L45.524375,31.421875 C44.993125,32.3515625 44.04,32.875 42.88375,32.875 C40.7040625,32.875 39.3525,31.1875 39.3525,28.6640625 C39.3525,26.140625 40.7196875,24.4296875 42.88375,24.4296875 C44.0634375,24.4296875 45.1025,25.0078125 45.586875,25.9140625 L45.711875,25.9140625 L45.711875,24.578125 L46.993125,24.578125 L46.993125,33.1484375 C46.993125,35.03125 45.54,36.234375 43.243125,36.234375 Z M49.2825,33 L49.2825,21.234375 L50.62625,21.234375 L50.62625,33 L49.2825,33 Z M56.275,25.6171875 C54.93125,25.6171875 53.99375,26.6015625 53.8921875,28.09375 L58.5328125,28.09375 C58.5015625,26.6015625 57.6109375,25.6171875 56.275,25.6171875 Z M58.49375,30.8203125 L59.8375,30.8203125 C59.43125,32.265625 58.134375,33.1484375 56.290625,33.1484375 C53.9546875,33.1484375 52.49375,31.4609375 52.49375,28.796875 C52.49375,26.1484375 53.978125,24.4296875 56.290625,24.4296875 C58.5640625,24.4296875 59.946875,26.046875 59.946875,28.6640625 L59.946875,29.1796875 L53.8921875,29.1796875 L53.8921875,29.2421875 C53.9625,30.90625 54.8921875,31.9609375 56.321875,31.9609375 C57.4078125,31.9609375 58.1421875,31.5625 58.49375,30.8203125 Z M66.0100001,33 L66.0100001,21.234375 L67.3537501,21.234375 L67.3537501,33 L66.0100001,33 Z M69.6743751,33 L69.6743751,24.578125 L71.0181251,24.578125 L71.0181251,33 L69.6743751,33 Z M70.3462501,22.8671875 C69.8306251,22.8671875 69.4087501,22.4453125 69.4087501,21.9296875 C69.4087501,21.4140625 69.8306251,20.9921875 70.3462501,20.9921875 C70.8618751,20.9921875 71.2837501,21.4140625 71.2837501,21.9296875 C71.2837501,22.4453125 70.8618751,22.8671875 70.3462501,22.8671875 Z M73.2606251,33 L73.2606251,24.578125 L74.5418751,24.578125 L74.5418751,25.90625 L74.6668751,25.90625 C75.0887501,24.9765625 75.9090626,24.4296875 77.1981251,24.4296875 C79.0887501,24.4296875 80.1434376,25.546875 80.1434376,27.546875 L80.1434376,33 L78.7996876,33 L78.7996876,27.875 C78.7996876,26.359375 78.1590626,25.640625 76.8153126,25.640625 C75.4715626,25.640625 74.6043751,26.5390625 74.6043751,28.015625 L74.6043751,33 L73.2606251,33 Z M85.6359376,25.6171875 C84.2921876,25.6171875 83.3546876,26.6015625 83.2531251,28.09375 L87.8937501,28.09375 C87.8625001,26.6015625 86.9718751,25.6171875 85.6359376,25.6171875 Z M87.8546876,30.8203125 L89.1984376,30.8203125 C88.7921876,32.265625 87.4953126,33.1484375 85.6515626,33.1484375 C83.3156251,33.1484375 81.8546876,31.4609375 81.8546876,28.796875 C81.8546876,26.1484375 83.3390626,24.4296875 85.6515626,24.4296875 C87.9250001,24.4296875 89.3078126,26.046875 89.3078126,28.6640625 L89.3078126,29.1796875 L83.2531251,29.1796875 L83.2531251,29.2421875 C83.3234376,30.90625 84.2531251,31.9609375 85.6828126,31.9609375 C86.7687501,31.9609375 87.5031251,31.5625 87.8546876,30.8203125 Z M95.2928126,33 L95.2928126,24.578125 L96.5740626,24.578125 L96.5740626,25.90625 L96.6990626,25.90625 C97.0818751,24.96875 97.9256251,24.4296875 99.0506251,24.4296875 C100.19125,24.4296875 100.988125,25.03125 101.37875,25.90625 L101.50375,25.90625 C101.956875,25.015625 102.917813,24.4296875 104.081875,24.4296875 C105.800625,24.4296875 106.761563,25.4140625 106.761563,27.1796875 L106.761563,33 L105.417813,33 L105.417813,27.4921875 C105.417813,26.25 104.831875,25.640625 103.644375,25.640625 C102.4725,25.640625 101.69125,26.515625 101.69125,27.5859375 L101.69125,33 L100.3475,33 L100.3475,27.28125 C100.3475,26.28125 99.6521876,25.640625 98.5896876,25.640625 C97.4881251,25.640625 96.6365626,26.59375 96.6365626,27.78125 L96.6365626,33 L95.2928126,33 Z M112.254063,25.6171875 C110.910313,25.6171875 109.972813,26.6015625 109.87125,28.09375 L114.511875,28.09375 C114.480625,26.6015625 113.59,25.6171875 112.254063,25.6171875 Z M114.472813,30.8203125 L115.816563,30.8203125 C115.410313,32.265625 114.113438,33.1484375 112.269688,33.1484375 C109.93375,33.1484375 108.472813,31.4609375 108.472813,28.796875 C108.472813,26.1484375 109.957188,24.4296875 112.269688,24.4296875 C114.543125,24.4296875 115.925938,26.046875 115.925938,28.6640625 L115.925938,29.1796875 L109.87125,29.1796875 L109.87125,29.2421875 C109.941563,30.90625 110.87125,31.9609375 112.300938,31.9609375 C113.386875,31.9609375 114.12125,31.5625 114.472813,30.8203125 Z M117.52,26.8828125 C117.52,25.484375 118.871563,24.4296875 120.660625,24.4296875 C122.42625,24.4296875 123.652813,25.3046875 123.8325,26.6875 L122.504375,26.6875 C122.324688,26.015625 121.668438,25.5703125 120.652813,25.5703125 C119.652813,25.5703125 118.871563,26.078125 118.871563,26.828125 C118.871563,27.40625 119.340313,27.765625 120.3325,28.0078125 L121.629375,28.3203125 C123.215313,28.703125 123.980938,29.390625 123.980938,30.6015625 C123.980938,32.109375 122.52,33.1484375 120.605938,33.1484375 C118.730938,33.1484375 117.441875,32.25 117.293438,30.8515625 L118.67625,30.8515625 C118.902813,31.5625 119.574688,32.015625 120.652813,32.015625 C121.785625,32.015625 122.598125,31.4765625 122.598125,30.703125 C122.598125,30.125 122.160625,29.734375 121.262188,29.515625 L119.816875,29.1640625 C118.23875,28.78125 117.52,28.1015625 117.52,26.8828125 Z M125.41875,26.8828125 C125.41875,25.484375 126.770313,24.4296875 128.559375,24.4296875 C130.325,24.4296875 131.551563,25.3046875 131.73125,26.6875 L130.403125,26.6875 C130.223438,26.015625 129.567188,25.5703125 128.551563,25.5703125 C127.551563,25.5703125 126.770313,26.078125 126.770313,26.828125 C126.770313,27.40625 127.239063,27.765625 128.23125,28.0078125 L129.528125,28.3203125 C131.114063,28.703125 131.879688,29.390625 131.879688,30.6015625 C131.879688,32.109375 130.41875,33.1484375 128.504688,33.1484375 C126.629688,33.1484375 125.340625,32.25 125.192188,30.8515625 L126.575,30.8515625 C126.801563,31.5625 127.473438,32.015625 128.551563,32.015625 C129.684375,32.015625 130.496875,31.4765625 130.496875,30.703125 C130.496875,30.125 130.059375,29.734375 129.160938,29.515625 L127.715625,29.1640625 C126.1375,28.78125 125.41875,28.1015625 125.41875,26.8828125 Z M136.262813,31.96875 C137.645625,31.96875 138.669063,31.0625 138.669063,29.859375 L138.669063,29.0859375 L136.403438,29.234375 C135.122188,29.3203125 134.559688,29.765625 134.559688,30.609375 C134.559688,31.46875 135.28625,31.96875 136.262813,31.96875 Z M136.012813,33.1484375 C134.38,33.1484375 133.169063,32.1796875 133.169063,30.640625 C133.169063,29.1328125 134.278438,28.265625 136.239375,28.1484375 L138.669063,28 L138.669063,27.234375 C138.669063,26.1953125 138.020625,25.625 136.762813,25.625 C135.755,25.625 135.051875,26.0078125 134.864375,26.671875 L133.505,26.671875 C133.684688,25.3203125 135.012813,24.4296875 136.809688,24.4296875 C138.864375,24.4296875 140.012813,25.484375 140.012813,27.234375 L140.012813,33 L138.731563,33 L138.731563,31.7578125 L138.606563,31.7578125 C138.059688,32.65625 137.137813,33.1484375 136.012813,33.1484375 Z M145.583438,31.6875 C147.145938,31.6875 148.083438,30.5 148.083438,28.6640625 C148.083438,26.828125 147.138125,25.640625 145.583438,25.640625 C144.020938,25.640625 143.145938,26.828125 143.145938,28.6640625 C143.145938,30.5 144.020938,31.6875 145.583438,31.6875 Z M145.645938,36.234375 C143.614688,36.234375 142.317813,35.3203125 142.114688,33.9296875 L143.536563,33.9296875 C143.685,34.6171875 144.435,35.0625 145.645938,35.0625 C147.15375,35.0625 148.052188,34.3203125 148.052188,33.078125 L148.052188,31.421875 L147.927188,31.421875 C147.395938,32.3515625 146.442813,32.875 145.286563,32.875 C143.106875,32.875 141.755313,31.1875 141.755313,28.6640625 C141.755313,26.140625 143.1225,24.4296875 145.286563,24.4296875 C146.46625,24.4296875 147.505313,25.0078125 147.989688,25.9140625 L148.114688,25.9140625 L148.114688,24.578125 L149.395938,24.578125 L149.395938,33.1484375 C149.395938,35.03125 147.942813,36.234375 145.645938,36.234375 Z M154.966563,25.6171875 C153.622813,25.6171875 152.685313,26.6015625 152.58375,28.09375 L157.224375,28.09375 C157.193125,26.6015625 156.3025,25.6171875 154.966563,25.6171875 Z M157.185313,30.8203125 L158.529063,30.8203125 C158.122813,32.265625 156.825938,33.1484375 154.982188,33.1484375 C152.64625,33.1484375 151.185313,31.4609375 151.185313,28.796875 C151.185313,26.1484375 152.669688,24.4296875 154.982188,24.4296875 C157.255625,24.4296875 158.638438,26.046875 158.638438,28.6640625 L158.638438,29.1796875 L152.58375,29.1796875 L152.58375,29.2421875 C152.654063,30.90625 153.58375,31.9609375 155.013438,31.9609375 C156.099375,31.9609375 156.83375,31.5625 157.185313,30.8203125 Z M167.217188,31.96875 C168.6,31.96875 169.623438,31.0625 169.623438,29.859375 L169.623438,29.0859375 L167.357813,29.234375 C166.076563,29.3203125 165.514063,29.765625 165.514063,30.609375 C165.514063,31.46875 166.240625,31.96875 167.217188,31.96875 Z M166.967188,33.1484375 C165.334375,33.1484375 164.123438,32.1796875 164.123438,30.640625 C164.123438,29.1328125 165.232813,28.265625 167.19375,28.1484375 L169.623438,28 L169.623438,27.234375 C169.623438,26.1953125 168.975,25.625 167.717188,25.625 C166.709375,25.625 166.00625,26.0078125 165.81875,26.671875 L164.459375,26.671875 C164.639063,25.3203125 165.967188,24.4296875 167.764063,24.4296875 C169.81875,24.4296875 170.967188,25.484375 170.967188,27.234375 L170.967188,33 L169.685938,33 L169.685938,31.7578125 L169.560938,31.7578125 C169.014063,32.65625 168.092188,33.1484375 166.967188,33.1484375 Z M180.100313,27.15625 L178.740938,27.15625 C178.522188,26.3203125 177.78,25.640625 176.569063,25.640625 C175.053438,25.640625 174.100313,26.8515625 174.100313,28.7578125 C174.100313,30.703125 175.069063,31.9375 176.569063,31.9375 C177.701875,31.9375 178.490938,31.4140625 178.740938,30.4609375 L180.100313,30.4609375 C179.858125,32.0078125 178.600313,33.1484375 176.576875,33.1484375 C174.2175,33.1484375 172.709688,31.4375 172.709688,28.7578125 C172.709688,26.1328125 174.209688,24.4296875 176.569063,24.4296875 C178.615938,24.4296875 179.865938,25.65625 180.100313,27.15625 Z M182.483438,22.3984375 L183.827188,22.3984375 L183.827188,24.578125 L185.702188,24.578125 L185.702188,25.703125 L183.827188,25.703125 L183.827188,30.46875 C183.827188,31.4609375 184.202188,31.8828125 185.077188,31.8828125 C185.319375,31.8828125 185.452188,31.875 185.702188,31.8515625 L185.702188,32.984375 C185.436563,33.03125 185.17875,33.0625 184.913125,33.0625 C183.17875,33.0625 182.483438,32.421875 182.483438,30.8125 L182.483438,25.703125 L181.124063,25.703125 L181.124063,24.578125 L182.483438,24.578125 L182.483438,22.3984375 Z M187.444688,33 L187.444688,24.578125 L188.788438,24.578125 L188.788438,33 L187.444688,33 Z M188.116563,22.8671875 C187.600938,22.8671875 187.179063,22.4453125 187.179063,21.9296875 C187.179063,21.4140625 187.600938,20.9921875 188.116563,20.9921875 C188.632188,20.9921875 189.054063,21.4140625 189.054063,21.9296875 C189.054063,22.4453125 188.632188,22.8671875 188.116563,22.8671875 Z M194.491875,33.1484375 C192.093438,33.1484375 190.609063,31.4921875 190.609063,28.7890625 C190.609063,26.078125 192.093438,24.4296875 194.491875,24.4296875 C196.890313,24.4296875 198.374688,26.078125 198.374688,28.7890625 C198.374688,31.4921875 196.890313,33.1484375 194.491875,33.1484375 Z M194.491875,31.9375 C196.085625,31.9375 196.984063,30.78125 196.984063,28.7890625 C196.984063,26.7890625 196.085625,25.640625 194.491875,25.640625 C192.898125,25.640625 191.999688,26.7890625 191.999688,28.7890625 C191.999688,30.78125 192.898125,31.9375 194.491875,31.9375 Z M200.164063,33 L200.164063,24.578125 L201.445313,24.578125 L201.445313,25.90625 L201.570313,25.90625 C201.992188,24.9765625 202.8125,24.4296875 204.101563,24.4296875 C205.992188,24.4296875 207.046875,25.546875 207.046875,27.546875 L207.046875,33 L205.703125,33 L205.703125,27.875 C205.703125,26.359375 205.0625,25.640625 203.71875,25.640625 C202.375,25.640625 201.507813,26.5390625 201.507813,28.015625 L201.507813,33 L200.164063,33 Z M210.289375,33.078125 C209.734688,33.078125 209.27375,32.6171875 209.27375,32.0625 C209.27375,31.5 209.734688,31.046875 210.289375,31.046875 C210.851875,31.046875 211.305,31.5 211.305,32.0625 C211.305,32.6171875 210.851875,33.078125 210.289375,33.078125 Z"/>
      </g>
      <path fill="#C41261" d="M587.36,141.031 L588.24,141.031 C588.284,141.867 588.735,142.307 589.538,142.307 C590.363,142.307 590.946,141.801 590.946,141.064 C590.946,140.426 590.616,140.129 589.461,139.744 C588.592,139.447 588.306,139.304 587.976,139.007 C587.602,138.666 587.404,138.182 587.404,137.621 C587.404,136.378 588.295,135.531 589.593,135.531 C590.891,135.531 591.738,136.356 591.771,137.632 L590.847,137.632 C590.836,137.258 590.792,137.082 590.671,136.873 C590.462,136.554 590.055,136.356 589.582,136.356 C588.856,136.356 588.339,136.851 588.339,137.555 C588.339,137.907 588.493,138.215 588.757,138.402 C588.988,138.567 589.186,138.655 589.934,138.919 C590.715,139.194 591.089,139.392 591.386,139.711 C591.705,140.052 591.881,140.514 591.881,141.009 C591.881,142.274 590.946,143.132 589.571,143.132 C588.636,143.132 587.998,142.802 587.613,142.142 C587.437,141.845 587.36,141.537 587.36,141.185 L587.36,141.031 Z M594.059,138.666 L594.059,141.966 C594.07,142.219 594.136,142.274 594.444,142.274 L594.829,142.274 L594.829,143 L594.048,143 C593.454,142.989 593.223,142.769 593.223,142.208 L593.223,138.666 L592.519,138.666 L592.519,137.929 L593.223,137.929 L593.223,136.334 L594.059,136.334 L594.059,137.929 L594.829,137.929 L594.829,138.666 L594.059,138.666 Z M596.017,137.929 L596.853,137.929 L596.853,138.787 C597.007,138.424 597.117,138.27 597.315,138.116 C597.568,137.918 597.92,137.808 598.283,137.808 L598.481,137.808 L598.481,138.655 C598.393,138.644 598.305,138.644 598.25,138.644 C597.799,138.644 597.403,138.853 597.15,139.227 C596.93,139.546 596.853,139.843 596.853,140.426 L596.853,143 L596.017,143 L596.017,137.929 Z M604.223,140.734 L599.999,140.734 C600.043,141.163 600.12,141.383 600.329,141.658 C600.659,142.109 601.143,142.351 601.693,142.351 C602.32,142.351 602.914,142.01 603.211,141.482 L603.948,141.757 C603.53,142.604 602.661,143.121 601.693,143.121 C600.186,143.121 599.108,142.021 599.108,140.481 C599.108,138.919 600.175,137.808 601.66,137.808 C603.134,137.808 604.234,138.919 604.234,140.404 C604.234,140.47 604.234,140.613 604.223,140.734 Z M600.01,140.118 L603.343,140.118 C603.31,139.722 603.233,139.502 603.057,139.249 C602.738,138.82 602.221,138.556 601.66,138.556 C601.099,138.556 600.593,138.82 600.296,139.26 C600.142,139.502 600.076,139.711 600.01,140.118 Z M606.335,138.666 L606.335,141.966 C606.346,142.219 606.412,142.274 606.72,142.274 L607.105,142.274 L607.105,143 L606.324,143 C605.73,142.989 605.499,142.769 605.499,142.208 L605.499,138.666 L604.795,138.666 L604.795,137.929 L605.499,137.929 L605.499,136.334 L606.335,136.334 L606.335,137.929 L607.105,137.929 L607.105,138.666 L606.335,138.666 Z M611.725,141.801 L612.242,142.373 C611.67,142.89 611.109,143.121 610.372,143.121 C608.92,143.121 607.886,142.021 607.886,140.481 C607.886,138.908 608.931,137.808 610.416,137.808 C611.142,137.808 611.736,138.05 612.264,138.567 L611.725,139.106 C611.34,138.754 610.911,138.578 610.438,138.578 C609.437,138.578 608.744,139.348 608.744,140.448 C608.744,141.57 609.437,142.351 610.427,142.351 C610.922,142.351 611.318,142.186 611.725,141.801 Z M614.156,135.663 L614.156,138.633 C614.618,138.061 615.08,137.808 615.685,137.808 C616.125,137.808 616.587,137.984 616.862,138.27 C617.137,138.545 617.258,138.941 617.258,139.59 L617.258,143 L616.422,143 L616.422,139.634 C616.422,138.941 616.081,138.556 615.476,138.556 C615.091,138.556 614.75,138.71 614.486,139.007 C614.233,139.293 614.156,139.546 614.156,140.03 L614.156,143 L613.32,143 L613.32,135.663 L614.156,135.663 Z M623.099,138.666 L623.099,141.966 C623.11,142.219 623.176,142.274 623.484,142.274 L623.869,142.274 L623.869,143 L623.088,143 C622.494,142.989 622.263,142.769 622.263,142.208 L622.263,138.666 L621.559,138.666 L621.559,137.929 L622.263,137.929 L622.263,136.334 L623.099,136.334 L623.099,137.929 L623.869,137.929 L623.869,138.666 L623.099,138.666 Z M627.246,137.808 C628.742,137.808 629.809,138.919 629.809,140.481 C629.809,141.966 628.665,143.121 627.213,143.121 C625.706,143.121 624.65,142.021 624.65,140.459 C624.65,138.886 625.706,137.808 627.246,137.808 Z M627.246,138.578 C626.201,138.578 625.508,139.337 625.508,140.47 C625.508,141.592 626.201,142.351 627.235,142.351 C628.236,142.351 628.951,141.57 628.951,140.47 C628.951,139.337 628.269,138.578 627.246,138.578 Z M640.237,137.929 L641.095,137.929 L639.291,143 L638.532,143 L637.366,139.15 L636.145,143 L635.353,143 L633.615,137.929 L634.473,137.929 L635.771,141.658 L636.937,137.929 L637.762,137.929 L638.906,141.658 L640.237,137.929 Z M642.833,137.929 L642.833,143 L641.997,143 L641.997,137.929 L642.833,137.929 Z M642.426,135.96 C642.723,135.96 642.954,136.202 642.954,136.51 C642.954,136.807 642.712,137.038 642.415,137.038 C642.118,137.038 641.887,136.807 641.887,136.499 C641.887,136.191 642.118,135.96 642.426,135.96 Z M648.311,138.699 L648.311,135.663 L649.147,135.663 L649.147,143 L648.311,143 L648.311,142.131 C647.805,142.824 647.266,143.121 646.496,143.121 C645.099,143.121 644.109,142.032 644.109,140.492 C644.109,138.952 645.121,137.808 646.496,137.808 C647.244,137.808 647.816,138.083 648.311,138.699 Z M646.672,138.556 C645.671,138.556 644.989,139.348 644.989,140.503 C644.989,141.614 645.66,142.395 646.617,142.395 C647.596,142.395 648.311,141.581 648.311,140.481 C648.311,139.337 647.64,138.556 646.672,138.556 Z M651.721,138.666 L651.721,141.966 C651.732,142.219 651.798,142.274 652.106,142.274 L652.491,142.274 L652.491,143 L651.71,143 C651.116,142.989 650.885,142.769 650.885,142.208 L650.885,138.666 L650.181,138.666 L650.181,137.929 L650.885,137.929 L650.885,136.334 L651.721,136.334 L651.721,137.929 L652.491,137.929 L652.491,138.666 L651.721,138.666 Z M654.515,135.663 L654.515,138.633 C654.977,138.061 655.439,137.808 656.044,137.808 C656.484,137.808 656.946,137.984 657.221,138.27 C657.496,138.545 657.617,138.941 657.617,139.59 L657.617,143 L656.781,143 L656.781,139.634 C656.781,138.941 656.44,138.556 655.835,138.556 C655.45,138.556 655.109,138.71 654.845,139.007 C654.592,139.293 654.515,139.546 654.515,140.03 L654.515,143 L653.679,143 L653.679,135.663 L654.515,135.663 Z M664.756,137.808 C666.252,137.808 667.319,138.919 667.319,140.481 C667.319,141.966 666.175,143.121 664.723,143.121 C663.216,143.121 662.16,142.021 662.16,140.459 C662.16,138.886 663.216,137.808 664.756,137.808 Z M664.756,138.578 C663.711,138.578 663.018,139.337 663.018,140.47 C663.018,141.592 663.711,142.351 664.745,142.351 C665.746,142.351 666.461,141.57 666.461,140.47 C666.461,139.337 665.779,138.578 664.756,138.578 Z M669.519,138.666 L669.519,143 L668.683,143 L668.683,138.666 L667.99,138.666 L667.99,137.929 L668.683,137.929 L668.683,137.247 C668.683,136.246 669.2,135.652 670.08,135.652 C670.124,135.652 670.223,135.652 670.311,135.663 L670.311,136.411 C669.706,136.477 669.541,136.653 669.519,137.247 L669.519,137.929 L670.311,137.929 L670.311,138.666 L669.519,138.666 Z M674.744,137.929 L675.58,137.929 L675.58,138.787 C675.734,138.424 675.844,138.27 676.042,138.116 C676.295,137.918 676.647,137.808 677.01,137.808 L677.208,137.808 L677.208,138.655 C677.12,138.644 677.032,138.644 676.977,138.644 C676.526,138.644 676.13,138.853 675.877,139.227 C675.657,139.546 675.58,139.843 675.58,140.426 L675.58,143 L674.744,143 L674.744,137.929 Z M679.078,137.929 L679.078,143 L678.242,143 L678.242,137.929 L679.078,137.929 Z M678.671,135.96 C678.968,135.96 679.199,136.202 679.199,136.51 C679.199,136.807 678.957,137.038 678.66,137.038 C678.363,137.038 678.132,136.807 678.132,136.499 C678.132,136.191 678.363,135.96 678.671,135.96 Z M684.512,138.798 L684.512,137.929 L685.348,137.929 L685.348,143.033 C685.348,143.88 685.139,144.452 684.677,144.892 C684.226,145.332 683.577,145.563 682.807,145.563 C681.861,145.563 681.113,145.255 680.563,144.639 L681.135,144.067 C681.366,144.309 681.476,144.408 681.619,144.507 C681.905,144.683 682.378,144.804 682.807,144.804 C683.335,144.804 683.841,144.617 684.127,144.309 C684.38,144.034 684.512,143.627 684.512,143.099 L684.512,142.032 C684.017,142.78 683.434,143.121 682.642,143.121 C681.3,143.121 680.299,141.988 680.299,140.481 C680.299,139.667 680.596,138.886 681.102,138.402 C681.509,138.006 682.059,137.808 682.708,137.808 C683.478,137.808 683.995,138.094 684.512,138.798 Z M682.862,138.578 C681.872,138.578 681.179,139.348 681.179,140.448 C681.179,141.537 681.883,142.351 682.84,142.351 C683.324,142.351 683.797,142.12 684.127,141.735 C684.347,141.482 684.49,140.987 684.49,140.481 C684.49,139.821 684.391,139.469 684.094,139.139 C683.786,138.798 683.313,138.578 682.862,138.578 Z M687.867,135.663 L687.867,138.633 C688.329,138.061 688.791,137.808 689.396,137.808 C689.836,137.808 690.298,137.984 690.573,138.27 C690.848,138.545 690.969,138.941 690.969,139.59 L690.969,143 L690.133,143 L690.133,139.634 C690.133,138.941 689.792,138.556 689.187,138.556 C688.802,138.556 688.461,138.71 688.197,139.007 C687.944,139.293 687.867,139.546 687.867,140.03 L687.867,143 L687.031,143 L687.031,135.663 L687.867,135.663 Z M693.51,138.666 L693.51,141.966 C693.521,142.219 693.587,142.274 693.895,142.274 L694.28,142.274 L694.28,143 L693.499,143 C692.905,142.989 692.674,142.769 692.674,142.208 L692.674,138.666 L691.97,138.666 L691.97,137.929 L692.674,137.929 L692.674,136.334 L693.51,136.334 L693.51,137.929 L694.28,137.929 L694.28,138.666 L693.51,138.666 Z M696.909,139.953 L696.909,140.712 L694.632,140.712 L694.632,139.953 L696.909,139.953 Z M697.745,137.929 L698.581,137.929 L698.581,138.853 C699.065,138.105 699.582,137.808 700.429,137.808 C701.837,137.808 702.816,138.886 702.816,140.426 C702.816,142.021 701.837,143.121 700.429,143.121 C700.033,143.121 699.67,143.033 699.318,142.857 C699.01,142.703 698.856,142.571 698.581,142.208 L698.581,145.376 L697.745,145.376 L697.745,137.929 Z M700.286,138.556 C699.274,138.556 698.581,139.359 698.581,140.547 C698.581,141.658 699.252,142.395 700.253,142.395 C701.254,142.395 701.925,141.614 701.925,140.459 C701.925,139.865 701.782,139.414 701.485,139.084 C701.188,138.754 700.737,138.556 700.286,138.556 Z M707.909,138.765 L707.909,137.929 L708.745,137.929 L708.745,143 L707.909,143 L707.909,142.021 C707.403,142.78 706.831,143.121 706.061,143.121 C704.664,143.121 703.674,142.021 703.674,140.481 C703.674,138.93 704.686,137.808 706.083,137.808 C706.853,137.808 707.414,138.105 707.909,138.765 Z M706.204,138.556 C705.654,138.556 705.269,138.743 704.972,139.161 C704.708,139.524 704.554,140.008 704.554,140.503 C704.554,141.581 705.258,142.395 706.182,142.395 C707.139,142.395 707.92,141.504 707.92,140.415 C707.92,139.315 707.216,138.556 706.204,138.556 Z M710.428,137.929 L711.264,137.929 L711.264,138.644 C711.704,138.05 712.144,137.808 712.771,137.808 C713.233,137.808 713.651,137.962 713.948,138.226 C714.267,138.534 714.377,138.886 714.377,139.579 L714.377,143 L713.541,143 L713.541,139.766 C713.541,139.315 713.486,139.073 713.354,138.897 C713.2,138.688 712.903,138.556 712.562,138.556 C712.188,138.556 711.847,138.699 711.594,138.985 C711.352,139.249 711.264,139.491 711.264,139.909 L711.264,143 L710.428,143 L710.428,137.929 Z M720.735,140.734 L716.511,140.734 C716.555,141.163 716.632,141.383 716.841,141.658 C717.171,142.109 717.655,142.351 718.205,142.351 C718.832,142.351 719.426,142.01 719.723,141.482 L720.46,141.757 C720.042,142.604 719.173,143.121 718.205,143.121 C716.698,143.121 715.62,142.021 715.62,140.481 C715.62,138.919 716.687,137.808 718.172,137.808 C719.646,137.808 720.746,138.919 720.746,140.404 C720.746,140.47 720.746,140.613 720.735,140.734 Z M716.522,140.118 L719.855,140.118 C719.822,139.722 719.745,139.502 719.569,139.249 C719.25,138.82 718.733,138.556 718.172,138.556 C717.611,138.556 717.105,138.82 716.808,139.26 C716.654,139.502 716.588,139.711 716.522,140.118 Z M722.979,142.142 L721.868,144.749 L721.263,144.562 L722.187,141.889 L722.979,142.142 Z M722.451,138.831 C722.781,138.831 723.023,139.073 723.023,139.414 C723.023,139.733 722.77,139.975 722.451,139.975 C722.121,139.975 721.879,139.733 721.879,139.403 C721.879,139.073 722.121,138.831 722.451,138.831 Z M728.633,135.663 L728.633,138.633 C729.095,138.061 729.557,137.808 730.162,137.808 C730.602,137.808 731.064,137.984 731.339,138.27 C731.614,138.545 731.735,138.941 731.735,139.59 L731.735,143 L730.899,143 L730.899,139.634 C730.899,138.941 730.558,138.556 729.953,138.556 C729.568,138.556 729.227,138.71 728.963,139.007 C728.71,139.293 728.633,139.546 728.633,140.03 L728.633,143 L727.797,143 L727.797,135.663 L728.633,135.663 Z M735.574,137.808 C737.07,137.808 738.137,138.919 738.137,140.481 C738.137,141.966 736.993,143.121 735.541,143.121 C734.034,143.121 732.978,142.021 732.978,140.459 C732.978,138.886 734.034,137.808 735.574,137.808 Z M735.574,138.578 C734.529,138.578 733.836,139.337 733.836,140.47 C733.836,141.592 734.529,142.351 735.563,142.351 C736.564,142.351 737.279,141.57 737.279,140.47 C737.279,139.337 736.597,138.578 735.574,138.578 Z M739.413,137.929 L740.249,137.929 L740.249,138.787 C740.403,138.424 740.513,138.27 740.711,138.116 C740.964,137.918 741.316,137.808 741.679,137.808 L741.877,137.808 L741.877,138.655 C741.789,138.644 741.701,138.644 741.646,138.644 C741.195,138.644 740.799,138.853 740.546,139.227 C740.326,139.546 740.249,139.843 740.249,140.426 L740.249,143 L739.413,143 L739.413,137.929 Z M743.747,137.929 L743.747,143 L742.911,143 L742.911,137.929 L743.747,137.929 Z M743.34,135.96 C743.637,135.96 743.868,136.202 743.868,136.51 C743.868,136.807 743.626,137.038 743.329,137.038 C743.032,137.038 742.801,136.807 742.801,136.499 C742.801,136.191 743.032,135.96 743.34,135.96 Z M746.244,142.263 L748.576,142.263 L748.576,143 L744.836,143 L747.476,138.666 L745.122,138.666 L745.122,137.929 L748.851,137.929 L746.244,142.263 Z M752.03,137.808 C753.526,137.808 754.593,138.919 754.593,140.481 C754.593,141.966 753.449,143.121 751.997,143.121 C750.49,143.121 749.434,142.021 749.434,140.459 C749.434,138.886 750.49,137.808 752.03,137.808 Z M752.03,138.578 C750.985,138.578 750.292,139.337 750.292,140.47 C750.292,141.592 750.985,142.351 752.019,142.351 C753.02,142.351 753.735,141.57 753.735,140.47 C753.735,139.337 753.053,138.578 752.03,138.578 Z M755.869,137.929 L756.705,137.929 L756.705,138.644 C757.145,138.05 757.585,137.808 758.212,137.808 C758.674,137.808 759.092,137.962 759.389,138.226 C759.708,138.534 759.818,138.886 759.818,139.579 L759.818,143 L758.982,143 L758.982,139.766 C758.982,139.315 758.927,139.073 758.795,138.897 C758.641,138.688 758.344,138.556 758.003,138.556 C757.629,138.556 757.288,138.699 757.035,138.985 C756.793,139.249 756.705,139.491 756.705,139.909 L756.705,143 L755.869,143 L755.869,137.929 Z M762.359,138.666 L762.359,141.966 C762.37,142.219 762.436,142.274 762.744,142.274 L763.129,142.274 L763.129,143 L762.348,143 C761.754,142.989 761.523,142.769 761.523,142.208 L761.523,138.666 L760.819,138.666 L760.819,137.929 L761.523,137.929 L761.523,136.334 L762.359,136.334 L762.359,137.929 L763.129,137.929 L763.129,138.666 L762.359,138.666 Z M768.145,138.765 L768.145,137.929 L768.981,137.929 L768.981,143 L768.145,143 L768.145,142.021 C767.639,142.78 767.067,143.121 766.297,143.121 C764.9,143.121 763.91,142.021 763.91,140.481 C763.91,138.93 764.922,137.808 766.319,137.808 C767.089,137.808 767.65,138.105 768.145,138.765 Z M766.44,138.556 C765.89,138.556 765.505,138.743 765.208,139.161 C764.944,139.524 764.79,140.008 764.79,140.503 C764.79,141.581 765.494,142.395 766.418,142.395 C767.375,142.395 768.156,141.504 768.156,140.415 C768.156,139.315 767.452,138.556 766.44,138.556 Z M771.5,143 L770.664,143 L770.664,135.663 L771.5,135.663 L771.5,143 Z M774.019,143 L773.183,143 L773.183,135.663 L774.019,135.663 L774.019,143 Z M777.187,141.691 L778.705,137.929 L779.618,137.929 L776.593,145.442 L775.68,145.442 L776.736,142.846 L774.932,137.929 L775.823,137.929 L777.187,141.691 Z M787.252,141.801 L787.769,142.373 C787.197,142.89 786.636,143.121 785.899,143.121 C784.447,143.121 783.413,142.021 783.413,140.481 C783.413,138.908 784.458,137.808 785.943,137.808 C786.669,137.808 787.263,138.05 787.791,138.567 L787.252,139.106 C786.867,138.754 786.438,138.578 785.965,138.578 C784.964,138.578 784.271,139.348 784.271,140.448 C784.271,141.57 784.964,142.351 785.954,142.351 C786.449,142.351 786.845,142.186 787.252,141.801 Z M793.555,140.734 L789.331,140.734 C789.375,141.163 789.452,141.383 789.661,141.658 C789.991,142.109 790.475,142.351 791.025,142.351 C791.652,142.351 792.246,142.01 792.543,141.482 L793.28,141.757 C792.862,142.604 791.993,143.121 791.025,143.121 C789.518,143.121 788.44,142.021 788.44,140.481 C788.44,138.919 789.507,137.808 790.992,137.808 C792.466,137.808 793.566,138.919 793.566,140.404 C793.566,140.47 793.566,140.613 793.555,140.734 Z M789.342,140.118 L792.675,140.118 C792.642,139.722 792.565,139.502 792.389,139.249 C792.07,138.82 791.553,138.556 790.992,138.556 C790.431,138.556 789.925,138.82 789.628,139.26 C789.474,139.502 789.408,139.711 789.342,140.118 Z M794.776,137.929 L795.612,137.929 L795.612,138.644 C796.052,138.05 796.492,137.808 797.119,137.808 C797.581,137.808 797.999,137.962 798.296,138.226 C798.615,138.534 798.725,138.886 798.725,139.579 L798.725,143 L797.889,143 L797.889,139.766 C797.889,139.315 797.834,139.073 797.702,138.897 C797.548,138.688 797.251,138.556 796.91,138.556 C796.536,138.556 796.195,138.699 795.942,138.985 C795.7,139.249 795.612,139.491 795.612,139.909 L795.612,143 L794.776,143 L794.776,137.929 Z M801.266,138.666 L801.266,141.966 C801.277,142.219 801.343,142.274 801.651,142.274 L802.036,142.274 L802.036,143 L801.255,143 C800.661,142.989 800.43,142.769 800.43,142.208 L800.43,138.666 L799.726,138.666 L799.726,137.929 L800.43,137.929 L800.43,136.334 L801.266,136.334 L801.266,137.929 L802.036,137.929 L802.036,138.666 L801.266,138.666 Z M807.932,140.734 L803.708,140.734 C803.752,141.163 803.829,141.383 804.038,141.658 C804.368,142.109 804.852,142.351 805.402,142.351 C806.029,142.351 806.623,142.01 806.92,141.482 L807.657,141.757 C807.239,142.604 806.37,143.121 805.402,143.121 C803.895,143.121 802.817,142.021 802.817,140.481 C802.817,138.919 803.884,137.808 805.369,137.808 C806.843,137.808 807.943,138.919 807.943,140.404 C807.943,140.47 807.943,140.613 807.932,140.734 Z M803.719,140.118 L807.052,140.118 C807.019,139.722 806.942,139.502 806.766,139.249 C806.447,138.82 805.93,138.556 805.369,138.556 C804.808,138.556 804.302,138.82 804.005,139.26 C803.851,139.502 803.785,139.711 803.719,140.118 Z M809.153,137.929 L809.989,137.929 L809.989,138.787 C810.143,138.424 810.253,138.27 810.451,138.116 C810.704,137.918 811.056,137.808 811.419,137.808 L811.617,137.808 L811.617,138.655 C811.529,138.644 811.441,138.644 811.386,138.644 C810.935,138.644 810.539,138.853 810.286,139.227 C810.066,139.546 809.989,139.843 809.989,140.426 L809.989,143 L809.153,143 L809.153,137.929 Z M817.359,140.734 L813.135,140.734 C813.179,141.163 813.256,141.383 813.465,141.658 C813.795,142.109 814.279,142.351 814.829,142.351 C815.456,142.351 816.05,142.01 816.347,141.482 L817.084,141.757 C816.666,142.604 815.797,143.121 814.829,143.121 C813.322,143.121 812.244,142.021 812.244,140.481 C812.244,138.919 813.311,137.808 814.796,137.808 C816.27,137.808 817.37,138.919 817.37,140.404 C817.37,140.47 817.37,140.613 817.359,140.734 Z M813.146,140.118 L816.479,140.118 C816.446,139.722 816.369,139.502 816.193,139.249 C815.874,138.82 815.357,138.556 814.796,138.556 C814.235,138.556 813.729,138.82 813.432,139.26 C813.278,139.502 813.212,139.711 813.146,140.118 Z M822.375,138.699 L822.375,135.663 L823.211,135.663 L823.211,143 L822.375,143 L822.375,142.131 C821.869,142.824 821.33,143.121 820.56,143.121 C819.163,143.121 818.173,142.032 818.173,140.492 C818.173,138.952 819.185,137.808 820.56,137.808 C821.308,137.808 821.88,138.083 822.375,138.699 Z M820.736,138.556 C819.735,138.556 819.053,139.348 819.053,140.503 C819.053,141.614 819.724,142.395 820.681,142.395 C821.66,142.395 822.375,141.581 822.375,140.481 C822.375,139.337 821.704,138.556 820.736,138.556 Z"/>
      <g fill="#C41261" transform="translate(438 129)">
        <rect width="527" height="1" x="5" y="2"/>
        <polygon points="534.5 0 537 5 532 5" transform="rotate(90 534.5 2.5)"/>
        <polygon points="2.5 0 5 5 0 5" transform="matrix(0 1 1 0 0 0)"/>
      </g>
      <g fill="#C41261" transform="translate(391 52)">
        <rect width="1" height="9"/>
        <rect width="1" height="9" x="47"/>
        <rect width="46" height="1" x="1" y="4"/>
      </g>
      <g fill="#C41261" transform="translate(976 52)">
        <rect width="1" height="9"/>
        <rect width="1" height="9" x="47"/>
        <rect width="46" height="1" x="1" y="4"/>
      </g>
      <g fill="#C41261" transform="translate(703 108)">
        <rect width="1" height="14" x="4" y="1"/>
        <rect width="9" height="1"/>
        <rect width="9" height="1" y="15"/>
      </g>
      <path fill="#C41261" d="M718.838,112.994 L717.221,114.072 L717.221,113.236 L719.707,111.608 L719.707,119 L718.838,119 L718.838,112.994 Z M725.592,111.773 L723.711,114.71 C724.019,114.6 724.162,114.567 724.426,114.567 C725.647,114.567 726.593,115.524 726.593,116.767 C726.593,118.065 725.526,119.132 724.228,119.132 C722.919,119.132 721.907,118.098 721.907,116.767 C721.907,116.228 722.05,115.821 722.468,115.15 L724.569,111.773 L725.592,111.773 Z M724.272,115.315 C723.436,115.315 722.776,115.953 722.776,116.767 C722.776,117.625 723.425,118.307 724.25,118.307 C725.075,118.307 725.735,117.636 725.735,116.8 C725.735,115.975 725.086,115.315 724.272,115.315 Z M727.836,113.929 L728.672,113.929 L728.672,114.853 C729.156,114.105 729.673,113.808 730.52,113.808 C731.928,113.808 732.907,114.886 732.907,116.426 C732.907,118.021 731.928,119.121 730.52,119.121 C730.124,119.121 729.761,119.033 729.409,118.857 C729.101,118.703 728.947,118.571 728.672,118.208 L728.672,121.376 L727.836,121.376 L727.836,113.929 Z M730.377,114.556 C729.365,114.556 728.672,115.359 728.672,116.547 C728.672,117.658 729.343,118.395 730.344,118.395 C731.345,118.395 732.016,117.614 732.016,116.459 C732.016,115.865 731.873,115.414 731.576,115.084 C731.279,114.754 730.828,114.556 730.377,114.556 Z M735.789,117.163 L734.436,119 L733.413,119 L735.283,116.481 L733.38,113.929 L734.436,113.929 L735.789,115.788 L737.175,113.929 L738.198,113.929 L736.284,116.481 L738.11,119 L737.087,119 L735.789,117.163 Z M744.457,121.046 L743.907,121.574 C742.609,119.979 742.015,118.428 742.015,116.58 C742.015,114.688 742.708,112.818 743.929,111.443 L744.457,111.993 C743.346,113.368 742.796,114.897 742.796,116.547 C742.796,118.153 743.39,119.759 744.457,121.046 Z M746.613,114.666 L746.613,119 L745.777,119 L745.777,114.666 L745.084,114.666 L745.084,113.929 L745.777,113.929 L745.777,113.247 C745.777,112.246 746.294,111.652 747.174,111.652 C747.218,111.652 747.317,111.652 747.405,111.663 L747.405,112.411 C746.8,112.477 746.635,112.653 746.613,113.247 L746.613,113.929 L747.405,113.929 L747.405,114.666 L746.613,114.666 Z M749.605,113.929 L749.605,119 L748.769,119 L748.769,113.929 L749.605,113.929 Z M749.187,111.96 C749.484,111.96 749.715,112.202 749.715,112.51 C749.715,112.807 749.484,113.038 749.187,113.038 C748.879,113.038 748.648,112.807 748.648,112.499 C748.648,112.191 748.879,111.96 749.187,111.96 Z M752.905,117.163 L751.552,119 L750.529,119 L752.399,116.481 L750.496,113.929 L751.552,113.929 L752.905,115.788 L754.291,113.929 L755.314,113.929 L753.4,116.481 L755.226,119 L754.203,119 L752.905,117.163 Z M760.902,116.734 L756.678,116.734 C756.722,117.163 756.799,117.383 757.008,117.658 C757.338,118.109 757.822,118.351 758.372,118.351 C758.999,118.351 759.593,118.01 759.89,117.482 L760.627,117.757 C760.209,118.604 759.34,119.121 758.372,119.121 C756.865,119.121 755.787,118.021 755.787,116.481 C755.787,114.919 756.854,113.808 758.339,113.808 C759.813,113.808 760.913,114.919 760.913,116.404 C760.913,116.47 760.913,116.613 760.902,116.734 Z M756.689,116.118 L760.022,116.118 C759.989,115.722 759.912,115.502 759.736,115.249 C759.417,114.82 758.9,114.556 758.339,114.556 C757.778,114.556 757.272,114.82 756.975,115.26 C756.821,115.502 756.755,115.711 756.689,116.118 Z M765.918,114.699 L765.918,111.663 L766.754,111.663 L766.754,119 L765.918,119 L765.918,118.131 C765.412,118.824 764.873,119.121 764.103,119.121 C762.706,119.121 761.716,118.032 761.716,116.492 C761.716,114.952 762.728,113.808 764.103,113.808 C764.851,113.808 765.423,114.083 765.918,114.699 Z M764.279,114.556 C763.278,114.556 762.596,115.348 762.596,116.503 C762.596,117.614 763.267,118.395 764.224,118.395 C765.203,118.395 765.918,117.581 765.918,116.481 C765.918,115.337 765.247,114.556 764.279,114.556 Z M767.986,111.971 L768.536,111.443 C769.845,113.049 770.428,114.589 770.428,116.437 C770.428,118.34 769.735,120.188 768.514,121.574 L767.986,121.024 C769.097,119.649 769.647,118.12 769.647,116.47 C769.647,114.853 769.064,113.269 767.986,111.971 Z"/>
    </g>
  </g>
</svg>
