<svg xmlns="http://www.w3.org/2000/svg" xmlns:xlink="http://www.w3.org/1999/xlink" width="1024" height="180" viewBox="0 0 1024 180">
  <defs>
    <rect id="5-b" width="526" height="56" rx="14"/>
    <filter id="5-a" width="104.8%" height="144.6%" x="-2.4%" y="-20.5%" filterUnits="objectBoundingBox">
      <feOffset dy="1" in="SourceAlpha" result="shadowOffsetOuter1"/>
      <feGaussianBlur in="shadowOffsetOuter1" result="shadowBlurOuter1" stdDeviation="4"/>
      <feColorMatrix in="shadowBlurOuter1" result="shadowMatrixOuter1" values="0 0 0 0 0   0 0 0 0 0   0 0 0 0 0  0 0 0 0.2 0"/>
      <feMorphology in="SourceAlpha" radius="1" result="shadowSpreadOuter2"/>
      <feOffset dy="3" in="shadowSpreadOuter2" result="shadowOffsetOuter2"/>
      <feGaussianBlur in="shadowOffsetOuter2" result="shadowBlurOuter2" stdDeviation="1.5"/>
      <feColorMatrix in="shadowBlurOuter2" result="shadowMatrixOuter2" values="0 0 0 0 0   0 0 0 0 0   0 0 0 0 0  0 0 0 0.12 0"/>
      <feOffset dy="3" in="SourceAlpha" result="shadowOffsetOuter3"/>
      <feGaussianBlur in="shadowOffsetOuter3" result="shadowBlurOuter3" stdDeviation="2"/>
      <feColorMatrix in="shadowBlurOuter3" result="shadowMatrixOuter3" values="0 0 0 0 0   0 0 0 0 0   0 0 0 0 0  0 0 0 0.14 0"/>
      <feMerge>
        <feMergeNode in="shadowMatrixOuter1"/>
        <feMergeNode in="shadowMatrixOuter2"/>
        <feMergeNode in="shadowMatrixOuter3"/>
      </feMerge>
    </filter>
  </defs>
  <g fill="none" fill-rule="evenodd">
    <rect width="1024" height="180" fill="#FFF" fill-opacity=".01" fill-rule="nonzero"/>
    <g transform="translate(7)">
      <g fill-rule="nonzero" stroke="#979797" transform="translate(.062)">
        <polyline fill="#FFF" points="1009.876 0 1009.876 124 0 124 0 0 0 0"/>
        <path d="M353.103448,0 L353.103448,124"/>
      </g>
      <g transform="translate(418 52)">
        <use fill="#000" filter="url(#5-a)" xlink:href="#5-b"/>
        <use fill="#F7F7F7" xlink:href="#5-b"/>
        <rect width="526" height="56" fill="#25333D" rx="14"/>
        <path fill="#89CBDF" fill-rule="nonzero" d="M8.96023426,12.8330078 L7.94753895,9.77001953 L3.5398241,9.77001953 L2.51052723,12.8330078 L0.344023324,12.8330078 L4.59402332,0.854980469 L7.00124989,0.854980469 L11.2595507,12.8330078 L8.96023426,12.8330078 Z M5.68142567,3.13769531 L4.03787098,8.07666016 L7.44949207,8.07666016 L5.82253895,3.13769531 L5.68142567,3.13769531 Z M20.0385155,6.80664062 L18.0795311,6.80664062 C17.8886132,5.92675781 17.2079491,5.29589844 16.0790429,5.29589844 C14.66791,5.29589844 13.8295311,6.38330078 13.8295311,8.26757812 C13.8295311,10.1767578 14.6762108,11.2890625 16.0790429,11.2890625 C17.1498436,11.2890625 17.8637108,10.7827148 18.0795311,9.83642578 L20.0385155,9.83642578 C19.8143944,11.7373047 18.38666,13.015625 16.0873436,13.015625 C13.3563866,13.015625 11.746035,11.2558594 11.746035,8.26757812 C11.746035,5.32080078 13.3480858,3.56933594 16.0790429,3.56933594 C18.4115624,3.56933594 19.8226952,4.89746094 20.0385155,6.80664062 Z M22.3677733,1.52734375 L24.4180663,1.52734375 L24.4180663,3.81005859 L26.3604491,3.81005859 L26.3604491,5.45361328 L24.4180663,5.45361328 L24.4180663,9.91113281 C24.4180663,10.8076172 24.7999022,11.2060547 25.6631835,11.2060547 C25.9537108,11.2060547 26.1114257,11.1894531 26.3604491,11.1645508 L26.3604491,12.7749023 C26.061621,12.8330078 25.679785,12.8745117 25.2813475,12.8745117 C23.1978515,12.8745117 22.3677733,12.1689453 22.3677733,10.4091797 L22.3677733,5.45361328 L20.9317382,5.45361328 L20.9317382,3.81005859 L22.3677733,3.81005859 L22.3677733,1.52734375 Z M28.0339452,12.8330078 L28.0339452,3.75195312 L30.0842382,3.75195312 L30.0842382,12.8330078 L28.0339452,12.8330078 Z M29.0549413,2.27441406 C28.307871,2.27441406 27.7849218,1.79296875 27.7849218,1.13720703 C27.7849218,0.481445312 28.307871,0 29.0549413,0 C29.8103124,0 30.3249608,0.481445312 30.3249608,1.13720703 C30.3249608,1.79296875 29.8103124,2.27441406 29.0549413,2.27441406 Z M36.1405468,13.015625 C33.4178905,13.015625 31.7743358,11.2392578 31.7743358,8.29248047 C31.7743358,5.36230469 33.4427929,3.56933594 36.1405468,3.56933594 C38.8466015,3.56933594 40.5067577,5.35400391 40.5067577,8.29248047 C40.5067577,11.2392578 38.8549022,13.015625 36.1405468,13.015625 Z M36.1405468,11.2890625 C37.5765819,11.2890625 38.3900585,10.1933594 38.3900585,8.29248047 C38.3900585,6.39990234 37.5682812,5.29589844 36.1405468,5.29589844 C34.7045116,5.29589844 33.8827343,6.39990234 33.8827343,8.29248047 C33.8827343,10.1933594 34.7045116,11.2890625 36.1405468,11.2890625 Z M42.171953,12.8330078 L42.171953,3.75195312 L44.1558397,3.75195312 L44.1558397,5.20458984 L44.296953,5.20458984 C44.7285937,4.19189453 45.6416796,3.56933594 46.9947069,3.56933594 C49.0200976,3.56933594 50.1241015,4.78955078 50.1241015,6.95605469 L50.1241015,12.8330078 L48.0655077,12.8330078 L48.0655077,7.44580078 C48.0655077,6.05957031 47.484453,5.36230469 46.2310351,5.36230469 C45.0025194,5.36230469 44.2305468,6.20898438 44.2305468,7.54541016 L44.2305468,12.8330078 L42.171953,12.8330078 Z" transform="translate(459.656 21)"/>
        <path fill="#FFF" fill-rule="nonzero" d="M16.8984375,30.0546875 L18.3203125,30.0546875 C18.4921875,31.234375 19.6171875,31.984375 21.21875,31.984375 C22.734375,31.984375 23.8515625,31.1640625 23.8515625,30.046875 C23.8515625,29.0859375 23.1484375,28.4765625 21.59375,28.0859375 L20.1484375,27.7109375 C18.109375,27.1953125 17.2265625,26.2734375 17.2265625,24.671875 C17.2265625,22.7578125 18.828125,21.4609375 21.2109375,21.4609375 C23.390625,21.4609375 25.015625,22.7578125 25.1328125,24.578125 L23.71875,24.578125 C23.5234375,23.421875 22.5703125,22.734375 21.1640625,22.734375 C19.6640625,22.734375 18.671875,23.484375 18.671875,24.625 C18.671875,25.5078125 19.2890625,26.015625 20.84375,26.4140625 L22.0234375,26.7265625 C24.359375,27.3125 25.296875,28.21875 25.296875,29.875 C25.296875,31.9453125 23.6640625,33.265625 21.0859375,33.265625 C18.6953125,33.265625 17.046875,32 16.8984375,30.0546875 Z M27.1721875,33 L27.1721875,24.578125 L28.5159375,24.578125 L28.5159375,33 L27.1721875,33 Z M27.8440625,22.8671875 C27.3284375,22.8671875 26.9065625,22.4453125 26.9065625,21.9296875 C26.9065625,21.4140625 27.3284375,20.9921875 27.8440625,20.9921875 C28.3596875,20.9921875 28.7815625,21.4140625 28.7815625,21.9296875 C28.7815625,22.4453125 28.3596875,22.8671875 27.8440625,22.8671875 Z M30.7584375,33 L30.7584375,24.578125 L32.0396875,24.578125 L32.0396875,25.90625 L32.1646875,25.90625 C32.5865625,24.9765625 33.406875,24.4296875 34.6959375,24.4296875 C36.5865625,24.4296875 37.64125,25.546875 37.64125,27.546875 L37.64125,33 L36.2975,33 L36.2975,27.875 C36.2975,26.359375 35.656875,25.640625 34.313125,25.640625 C32.969375,25.640625 32.1021875,26.5390625 32.1021875,28.015625 L32.1021875,33 L30.7584375,33 Z M43.180625,31.6875 C44.743125,31.6875 45.680625,30.5 45.680625,28.6640625 C45.680625,26.828125 44.7353125,25.640625 43.180625,25.640625 C41.618125,25.640625 40.743125,26.828125 40.743125,28.6640625 C40.743125,30.5 41.618125,31.6875 43.180625,31.6875 Z M43.243125,36.234375 C41.211875,36.234375 39.915,35.3203125 39.711875,33.9296875 L41.13375,33.9296875 C41.2821875,34.6171875 42.0321875,35.0625 43.243125,35.0625 C44.7509375,35.0625 45.649375,34.3203125 45.649375,33.078125 L45.649375,31.421875 L45.524375,31.421875 C44.993125,32.3515625 44.04,32.875 42.88375,32.875 C40.7040625,32.875 39.3525,31.1875 39.3525,28.6640625 C39.3525,26.140625 40.7196875,24.4296875 42.88375,24.4296875 C44.0634375,24.4296875 45.1025,25.0078125 45.586875,25.9140625 L45.711875,25.9140625 L45.711875,24.578125 L46.993125,24.578125 L46.993125,33.1484375 C46.993125,35.03125 45.54,36.234375 43.243125,36.234375 Z M49.2825,33 L49.2825,21.234375 L50.62625,21.234375 L50.62625,33 L49.2825,33 Z M56.275,25.6171875 C54.93125,25.6171875 53.99375,26.6015625 53.8921875,28.09375 L58.5328125,28.09375 C58.5015625,26.6015625 57.6109375,25.6171875 56.275,25.6171875 Z M58.49375,30.8203125 L59.8375,30.8203125 C59.43125,32.265625 58.134375,33.1484375 56.290625,33.1484375 C53.9546875,33.1484375 52.49375,31.4609375 52.49375,28.796875 C52.49375,26.1484375 53.978125,24.4296875 56.290625,24.4296875 C58.5640625,24.4296875 59.946875,26.046875 59.946875,28.6640625 L59.946875,29.1796875 L53.8921875,29.1796875 L53.8921875,29.2421875 C53.9625,30.90625 54.8921875,31.9609375 56.321875,31.9609375 C57.4078125,31.9609375 58.1421875,31.5625 58.49375,30.8203125 Z M66.0100001,33 L66.0100001,21.234375 L67.3537501,21.234375 L67.3537501,33 L66.0100001,33 Z M69.6743751,33 L69.6743751,24.578125 L71.0181251,24.578125 L71.0181251,33 L69.6743751,33 Z M70.3462501,22.8671875 C69.8306251,22.8671875 69.4087501,22.4453125 69.4087501,21.9296875 C69.4087501,21.4140625 69.8306251,20.9921875 70.3462501,20.9921875 C70.8618751,20.9921875 71.2837501,21.4140625 71.2837501,21.9296875 C71.2837501,22.4453125 70.8618751,22.8671875 70.3462501,22.8671875 Z M73.2606251,33 L73.2606251,24.578125 L74.5418751,24.578125 L74.5418751,25.90625 L74.6668751,25.90625 C75.0887501,24.9765625 75.9090626,24.4296875 77.1981251,24.4296875 C79.0887501,24.4296875 80.1434376,25.546875 80.1434376,27.546875 L80.1434376,33 L78.7996876,33 L78.7996876,27.875 C78.7996876,26.359375 78.1590626,25.640625 76.8153126,25.640625 C75.4715626,25.640625 74.6043751,26.5390625 74.6043751,28.015625 L74.6043751,33 L73.2606251,33 Z M85.6359376,25.6171875 C84.2921876,25.6171875 83.3546876,26.6015625 83.2531251,28.09375 L87.8937501,28.09375 C87.8625001,26.6015625 86.9718751,25.6171875 85.6359376,25.6171875 Z M87.8546876,30.8203125 L89.1984376,30.8203125 C88.7921876,32.265625 87.4953126,33.1484375 85.6515626,33.1484375 C83.3156251,33.1484375 81.8546876,31.4609375 81.8546876,28.796875 C81.8546876,26.1484375 83.3390626,24.4296875 85.6515626,24.4296875 C87.9250001,24.4296875 89.3078126,26.046875 89.3078126,28.6640625 L89.3078126,29.1796875 L83.2531251,29.1796875 L83.2531251,29.2421875 C83.3234376,30.90625 84.2531251,31.9609375 85.6828126,31.9609375 C86.7687501,31.9609375 87.5031251,31.5625 87.8546876,30.8203125 Z M95.2928126,33 L95.2928126,24.578125 L96.5740626,24.578125 L96.5740626,25.90625 L96.6990626,25.90625 C97.0818751,24.96875 97.9256251,24.4296875 99.0506251,24.4296875 C100.19125,24.4296875 100.988125,25.03125 101.37875,25.90625 L101.50375,25.90625 C101.956875,25.015625 102.917813,24.4296875 104.081875,24.4296875 C105.800625,24.4296875 106.761563,25.4140625 106.761563,27.1796875 L106.761563,33 L105.417813,33 L105.417813,27.4921875 C105.417813,26.25 104.831875,25.640625 103.644375,25.640625 C102.4725,25.640625 101.69125,26.515625 101.69125,27.5859375 L101.69125,33 L100.3475,33 L100.3475,27.28125 C100.3475,26.28125 99.6521876,25.640625 98.5896876,25.640625 C97.4881251,25.640625 96.6365626,26.59375 96.6365626,27.78125 L96.6365626,33 L95.2928126,33 Z M112.254063,25.6171875 C110.910313,25.6171875 109.972813,26.6015625 109.87125,28.09375 L114.511875,28.09375 C114.480625,26.6015625 113.59,25.6171875 112.254063,25.6171875 Z M114.472813,30.8203125 L115.816563,30.8203125 C115.410313,32.265625 114.113438,33.1484375 112.269688,33.1484375 C109.93375,33.1484375 108.472813,31.4609375 108.472813,28.796875 C108.472813,26.1484375 109.957188,24.4296875 112.269688,24.4296875 C114.543125,24.4296875 115.925938,26.046875 115.925938,28.6640625 L115.925938,29.1796875 L109.87125,29.1796875 L109.87125,29.2421875 C109.941563,30.90625 110.87125,31.9609375 112.300938,31.9609375 C113.386875,31.9609375 114.12125,31.5625 114.472813,30.8203125 Z M117.52,26.8828125 C117.52,25.484375 118.871563,24.4296875 120.660625,24.4296875 C122.42625,24.4296875 123.652813,25.3046875 123.8325,26.6875 L122.504375,26.6875 C122.324688,26.015625 121.668438,25.5703125 120.652813,25.5703125 C119.652813,25.5703125 118.871563,26.078125 118.871563,26.828125 C118.871563,27.40625 119.340313,27.765625 120.3325,28.0078125 L121.629375,28.3203125 C123.215313,28.703125 123.980938,29.390625 123.980938,30.6015625 C123.980938,32.109375 122.52,33.1484375 120.605938,33.1484375 C118.730938,33.1484375 117.441875,32.25 117.293438,30.8515625 L118.67625,30.8515625 C118.902813,31.5625 119.574688,32.015625 120.652813,32.015625 C121.785625,32.015625 122.598125,31.4765625 122.598125,30.703125 C122.598125,30.125 122.160625,29.734375 121.262188,29.515625 L119.816875,29.1640625 C118.23875,28.78125 117.52,28.1015625 117.52,26.8828125 Z M125.41875,26.8828125 C125.41875,25.484375 126.770313,24.4296875 128.559375,24.4296875 C130.325,24.4296875 131.551563,25.3046875 131.73125,26.6875 L130.403125,26.6875 C130.223438,26.015625 129.567188,25.5703125 128.551563,25.5703125 C127.551563,25.5703125 126.770313,26.078125 126.770313,26.828125 C126.770313,27.40625 127.239063,27.765625 128.23125,28.0078125 L129.528125,28.3203125 C131.114063,28.703125 131.879688,29.390625 131.879688,30.6015625 C131.879688,32.109375 130.41875,33.1484375 128.504688,33.1484375 C126.629688,33.1484375 125.340625,32.25 125.192188,30.8515625 L126.575,30.8515625 C126.801563,31.5625 127.473438,32.015625 128.551563,32.015625 C129.684375,32.015625 130.496875,31.4765625 130.496875,30.703125 C130.496875,30.125 130.059375,29.734375 129.160938,29.515625 L127.715625,29.1640625 C126.1375,28.78125 125.41875,28.1015625 125.41875,26.8828125 Z M136.262813,31.96875 C137.645625,31.96875 138.669063,31.0625 138.669063,29.859375 L138.669063,29.0859375 L136.403438,29.234375 C135.122188,29.3203125 134.559688,29.765625 134.559688,30.609375 C134.559688,31.46875 135.28625,31.96875 136.262813,31.96875 Z M136.012813,33.1484375 C134.38,33.1484375 133.169063,32.1796875 133.169063,30.640625 C133.169063,29.1328125 134.278438,28.265625 136.239375,28.1484375 L138.669063,28 L138.669063,27.234375 C138.669063,26.1953125 138.020625,25.625 136.762813,25.625 C135.755,25.625 135.051875,26.0078125 134.864375,26.671875 L133.505,26.671875 C133.684688,25.3203125 135.012813,24.4296875 136.809688,24.4296875 C138.864375,24.4296875 140.012813,25.484375 140.012813,27.234375 L140.012813,33 L138.731563,33 L138.731563,31.7578125 L138.606563,31.7578125 C138.059688,32.65625 137.137813,33.1484375 136.012813,33.1484375 Z M145.583438,31.6875 C147.145938,31.6875 148.083438,30.5 148.083438,28.6640625 C148.083438,26.828125 147.138125,25.640625 145.583438,25.640625 C144.020938,25.640625 143.145938,26.828125 143.145938,28.6640625 C143.145938,30.5 144.020938,31.6875 145.583438,31.6875 Z M145.645938,36.234375 C143.614688,36.234375 142.317813,35.3203125 142.114688,33.9296875 L143.536563,33.9296875 C143.685,34.6171875 144.435,35.0625 145.645938,35.0625 C147.15375,35.0625 148.052188,34.3203125 148.052188,33.078125 L148.052188,31.421875 L147.927188,31.421875 C147.395938,32.3515625 146.442813,32.875 145.286563,32.875 C143.106875,32.875 141.755313,31.1875 141.755313,28.6640625 C141.755313,26.140625 143.1225,24.4296875 145.286563,24.4296875 C146.46625,24.4296875 147.505313,25.0078125 147.989688,25.9140625 L148.114688,25.9140625 L148.114688,24.578125 L149.395938,24.578125 L149.395938,33.1484375 C149.395938,35.03125 147.942813,36.234375 145.645938,36.234375 Z M154.966563,25.6171875 C153.622813,25.6171875 152.685313,26.6015625 152.58375,28.09375 L157.224375,28.09375 C157.193125,26.6015625 156.3025,25.6171875 154.966563,25.6171875 Z M157.185313,30.8203125 L158.529063,30.8203125 C158.122813,32.265625 156.825938,33.1484375 154.982188,33.1484375 C152.64625,33.1484375 151.185313,31.4609375 151.185313,28.796875 C151.185313,26.1484375 152.669688,24.4296875 154.982188,24.4296875 C157.255625,24.4296875 158.638438,26.046875 158.638438,28.6640625 L158.638438,29.1796875 L152.58375,29.1796875 L152.58375,29.2421875 C152.654063,30.90625 153.58375,31.9609375 155.013438,31.9609375 C156.099375,31.9609375 156.83375,31.5625 157.185313,30.8203125 Z"/>
      </g>
      <path fill="#C41261" fill-rule="nonzero" d="M569,150.5 L569.88,150.5 C569.924,151.336 570.375,151.776 571.178,151.776 C572.003,151.776 572.586,151.27 572.586,150.533 C572.586,149.895 572.256,149.598 571.101,149.213 C570.232,148.916 569.946,148.773 569.616,148.476 C569.242,148.135 569.044,147.651 569.044,147.09 C569.044,145.847 569.935,145 571.233,145 C572.531,145 573.378,145.825 573.411,147.101 L572.487,147.101 C572.476,146.727 572.432,146.551 572.311,146.342 C572.102,146.023 571.695,145.825 571.222,145.825 C570.496,145.825 569.979,146.32 569.979,147.024 C569.979,147.376 570.133,147.684 570.397,147.871 C570.628,148.036 570.826,148.124 571.574,148.388 C572.355,148.663 572.729,148.861 573.026,149.18 C573.345,149.521 573.521,149.983 573.521,150.478 C573.521,151.743 572.586,152.601 571.211,152.601 C570.276,152.601 569.638,152.271 569.253,151.611 C569.077,151.314 569,151.006 569,150.654 L569,150.5 Z M575.699,148.135 L575.699,151.435 C575.71,151.688 575.776,151.743 576.084,151.743 L576.469,151.743 L576.469,152.469 L575.688,152.469 C575.094,152.458 574.863,152.238 574.863,151.677 L574.863,148.135 L574.159,148.135 L574.159,147.398 L574.863,147.398 L574.863,145.803 L575.699,145.803 L575.699,147.398 L576.469,147.398 L576.469,148.135 L575.699,148.135 Z M577.657,147.398 L578.493,147.398 L578.493,148.256 C578.647,147.893 578.757,147.739 578.955,147.585 C579.208,147.387 579.56,147.277 579.923,147.277 L580.121,147.277 L580.121,148.124 C580.033,148.113 579.945,148.113 579.89,148.113 C579.439,148.113 579.043,148.322 578.79,148.696 C578.57,149.015 578.493,149.312 578.493,149.895 L578.493,152.469 L577.657,152.469 L577.657,147.398 Z M585.863,150.203 L581.639,150.203 C581.683,150.632 581.76,150.852 581.969,151.127 C582.299,151.578 582.783,151.82 583.333,151.82 C583.96,151.82 584.554,151.479 584.851,150.951 L585.588,151.226 C585.17,152.073 584.301,152.59 583.333,152.59 C581.826,152.59 580.748,151.49 580.748,149.95 C580.748,148.388 581.815,147.277 583.3,147.277 C584.774,147.277 585.874,148.388 585.874,149.873 C585.874,149.939 585.874,150.082 585.863,150.203 Z M581.65,149.587 L584.983,149.587 C584.95,149.191 584.873,148.971 584.697,148.718 C584.378,148.289 583.861,148.025 583.3,148.025 C582.739,148.025 582.233,148.289 581.936,148.729 C581.782,148.971 581.716,149.18 581.65,149.587 Z M587.975,148.135 L587.975,151.435 C587.986,151.688 588.052,151.743 588.36,151.743 L588.745,151.743 L588.745,152.469 L587.964,152.469 C587.37,152.458 587.139,152.238 587.139,151.677 L587.139,148.135 L586.435,148.135 L586.435,147.398 L587.139,147.398 L587.139,145.803 L587.975,145.803 L587.975,147.398 L588.745,147.398 L588.745,148.135 L587.975,148.135 Z M593.365,151.27 L593.882,151.842 C593.31,152.359 592.749,152.59 592.012,152.59 C590.56,152.59 589.526,151.49 589.526,149.95 C589.526,148.377 590.571,147.277 592.056,147.277 C592.782,147.277 593.376,147.519 593.904,148.036 L593.365,148.575 C592.98,148.223 592.551,148.047 592.078,148.047 C591.077,148.047 590.384,148.817 590.384,149.917 C590.384,151.039 591.077,151.82 592.067,151.82 C592.562,151.82 592.958,151.655 593.365,151.27 Z M595.796,145.132 L595.796,148.102 C596.258,147.53 596.72,147.277 597.325,147.277 C597.765,147.277 598.227,147.453 598.502,147.739 C598.777,148.014 598.898,148.41 598.898,149.059 L598.898,152.469 L598.062,152.469 L598.062,149.103 C598.062,148.41 597.721,148.025 597.116,148.025 C596.731,148.025 596.39,148.179 596.126,148.476 C595.873,148.762 595.796,149.015 595.796,149.499 L595.796,152.469 L594.96,152.469 L594.96,145.132 L595.796,145.132 Z M604.739,148.135 L604.739,151.435 C604.75,151.688 604.816,151.743 605.124,151.743 L605.509,151.743 L605.509,152.469 L604.728,152.469 C604.134,152.458 603.903,152.238 603.903,151.677 L603.903,148.135 L603.199,148.135 L603.199,147.398 L603.903,147.398 L603.903,145.803 L604.739,145.803 L604.739,147.398 L605.509,147.398 L605.509,148.135 L604.739,148.135 Z M608.886,147.277 C610.382,147.277 611.449,148.388 611.449,149.95 C611.449,151.435 610.305,152.59 608.853,152.59 C607.346,152.59 606.29,151.49 606.29,149.928 C606.29,148.355 607.346,147.277 608.886,147.277 Z M608.886,148.047 C607.841,148.047 607.148,148.806 607.148,149.939 C607.148,151.061 607.841,151.82 608.875,151.82 C609.876,151.82 610.591,151.039 610.591,149.939 C610.591,148.806 609.909,148.047 608.886,148.047 Z M618.819,148.487 C619.237,148.619 619.435,148.718 619.666,148.96 C620.029,149.323 620.216,149.807 620.216,150.379 C620.216,151.677 619.259,152.601 617.917,152.601 C616.586,152.601 615.651,151.71 615.651,150.456 C615.651,149.873 615.849,149.345 616.201,148.982 C616.432,148.74 616.619,148.63 617.059,148.487 C616.674,148.355 616.509,148.245 616.311,148.003 C616.069,147.706 615.937,147.332 615.937,146.925 C615.937,145.88 616.795,145.11 617.961,145.11 C619.116,145.11 619.952,145.869 619.952,146.914 C619.952,147.332 619.809,147.728 619.545,148.036 C619.347,148.256 619.193,148.355 618.819,148.487 Z M617.961,145.88 C617.257,145.88 616.773,146.32 616.773,146.936 C616.773,147.563 617.29,148.058 617.939,148.058 C618.566,148.058 619.127,147.541 619.127,146.947 C619.127,146.375 618.588,145.88 617.961,145.88 Z M617.95,148.949 C617.158,148.949 616.52,149.576 616.52,150.368 C616.52,151.149 617.147,151.787 617.928,151.787 C618.709,151.787 619.336,151.149 619.336,150.368 C619.336,149.598 618.709,148.949 617.95,148.949 Z M625.617,147.343 L625.617,150.258 C625.617,151.083 625.463,151.589 625.1,151.974 C624.715,152.381 624.132,152.59 623.439,152.59 C622.724,152.59 622.13,152.37 621.745,151.952 C621.36,151.545 621.261,151.127 621.261,150.016 L621.261,147.596 C621.261,146.639 621.371,146.188 621.701,145.792 C622.064,145.352 622.669,145.11 623.417,145.11 C624.088,145.11 624.638,145.297 625.045,145.66 C625.463,146.045 625.617,146.485 625.617,147.343 Z M622.13,147.618 L622.13,150.071 C622.13,150.918 622.163,151.072 622.405,151.347 C622.636,151.611 623.032,151.776 623.45,151.776 C623.901,151.776 624.319,151.589 624.528,151.292 C624.693,151.05 624.759,150.742 624.759,150.203 L624.759,147.398 C624.759,146.826 624.66,146.54 624.385,146.276 C624.143,146.056 623.813,145.935 623.45,145.935 C622.977,145.935 622.57,146.122 622.361,146.463 C622.174,146.727 622.13,146.98 622.13,147.618 Z M628.994,146.441 L628.994,147.629 C628.994,148.432 628.598,148.85 627.85,148.85 C627.476,148.85 627.157,148.729 626.948,148.498 C626.761,148.289 626.728,148.135 626.717,147.574 L626.717,146.452 C626.717,145.924 626.794,145.638 626.992,145.429 C627.179,145.22 627.509,145.099 627.861,145.099 C628.191,145.099 628.477,145.209 628.686,145.396 C628.939,145.638 628.994,145.803 628.994,146.441 Z M627.256,146.463 L627.256,147.475 C627.256,147.915 627.267,147.981 627.355,148.113 C627.443,148.256 627.641,148.344 627.861,148.344 C628.092,148.344 628.29,148.245 628.378,148.08 C628.444,147.959 628.466,147.838 628.466,147.508 L628.466,146.375 C628.466,145.858 628.279,145.616 627.872,145.616 C627.652,145.616 627.465,145.693 627.366,145.814 C627.267,145.946 627.256,146.034 627.256,146.463 Z M632.382,150.104 L632.382,151.292 C632.382,152.084 631.986,152.502 631.238,152.502 C630.864,152.502 630.545,152.381 630.336,152.15 C630.149,151.941 630.116,151.787 630.105,151.237 L630.105,150.115 C630.105,149.587 630.182,149.301 630.38,149.092 C630.578,148.883 630.897,148.762 631.249,148.762 C631.579,148.762 631.865,148.872 632.074,149.059 C632.327,149.301 632.382,149.466 632.382,150.104 Z M630.644,150.126 L630.644,151.138 C630.644,151.578 630.655,151.633 630.743,151.765 C630.831,151.908 631.04,151.996 631.249,151.996 C631.469,151.996 631.678,151.897 631.766,151.732 C631.832,151.611 631.854,151.501 631.854,151.171 L631.854,150.038 C631.854,149.51 631.667,149.279 631.26,149.279 C631.04,149.279 630.853,149.356 630.754,149.477 C630.655,149.609 630.644,149.697 630.644,150.126 Z M632.25,145.286 L627.212,152.557 L626.849,152.304 L631.887,145.044 L632.25,145.286 Z M639.235,147.277 C640.731,147.277 641.798,148.388 641.798,149.95 C641.798,151.435 640.654,152.59 639.202,152.59 C637.695,152.59 636.639,151.49 636.639,149.928 C636.639,148.355 637.695,147.277 639.235,147.277 Z M639.235,148.047 C638.19,148.047 637.497,148.806 637.497,149.939 C637.497,151.061 638.19,151.82 639.224,151.82 C640.225,151.82 640.94,151.039 640.94,149.939 C640.94,148.806 640.258,148.047 639.235,148.047 Z M643.998,148.135 L643.998,152.469 L643.162,152.469 L643.162,148.135 L642.469,148.135 L642.469,147.398 L643.162,147.398 L643.162,146.716 C643.162,145.715 643.679,145.121 644.559,145.121 C644.603,145.121 644.702,145.121 644.79,145.132 L644.79,145.88 C644.185,145.946 644.02,146.122 643.998,146.716 L643.998,147.398 L644.79,147.398 L644.79,148.135 L643.998,148.135 Z M652.655,151.27 L653.172,151.842 C652.6,152.359 652.039,152.59 651.302,152.59 C649.85,152.59 648.816,151.49 648.816,149.95 C648.816,148.377 649.861,147.277 651.346,147.277 C652.072,147.277 652.666,147.519 653.194,148.036 L652.655,148.575 C652.27,148.223 651.841,148.047 651.368,148.047 C650.367,148.047 649.674,148.817 649.674,149.917 C649.674,151.039 650.367,151.82 651.357,151.82 C651.852,151.82 652.248,151.655 652.655,151.27 Z M656.439,147.277 C657.935,147.277 659.002,148.388 659.002,149.95 C659.002,151.435 657.858,152.59 656.406,152.59 C654.899,152.59 653.843,151.49 653.843,149.928 C653.843,148.355 654.899,147.277 656.439,147.277 Z M656.439,148.047 C655.394,148.047 654.701,148.806 654.701,149.939 C654.701,151.061 655.394,151.82 656.428,151.82 C657.429,151.82 658.144,151.039 658.144,149.939 C658.144,148.806 657.462,148.047 656.439,148.047 Z M660.278,147.398 L661.114,147.398 L661.114,148.113 C661.554,147.519 661.994,147.277 662.621,147.277 C663.083,147.277 663.501,147.431 663.798,147.695 C664.117,148.003 664.227,148.355 664.227,149.048 L664.227,152.469 L663.391,152.469 L663.391,149.235 C663.391,148.784 663.336,148.542 663.204,148.366 C663.05,148.157 662.753,148.025 662.412,148.025 C662.038,148.025 661.697,148.168 661.444,148.454 C661.202,148.718 661.114,148.96 661.114,149.378 L661.114,152.469 L660.278,152.469 L660.278,147.398 Z M666.768,148.135 L666.768,151.435 C666.779,151.688 666.845,151.743 667.153,151.743 L667.538,151.743 L667.538,152.469 L666.757,152.469 C666.163,152.458 665.932,152.238 665.932,151.677 L665.932,148.135 L665.228,148.135 L665.228,147.398 L665.932,147.398 L665.932,145.803 L666.768,145.803 L666.768,147.398 L667.538,147.398 L667.538,148.135 L666.768,148.135 Z M672.554,148.234 L672.554,147.398 L673.39,147.398 L673.39,152.469 L672.554,152.469 L672.554,151.49 C672.048,152.249 671.476,152.59 670.706,152.59 C669.309,152.59 668.319,151.49 668.319,149.95 C668.319,148.399 669.331,147.277 670.728,147.277 C671.498,147.277 672.059,147.574 672.554,148.234 Z M670.849,148.025 C670.299,148.025 669.914,148.212 669.617,148.63 C669.353,148.993 669.199,149.477 669.199,149.972 C669.199,151.05 669.903,151.864 670.827,151.864 C671.784,151.864 672.565,150.973 672.565,149.884 C672.565,148.784 671.861,148.025 670.849,148.025 Z M675.909,147.398 L675.909,152.469 L675.073,152.469 L675.073,147.398 L675.909,147.398 Z M675.502,145.429 C675.799,145.429 676.03,145.671 676.03,145.979 C676.03,146.276 675.788,146.507 675.491,146.507 C675.194,146.507 674.963,146.276 674.963,145.968 C674.963,145.66 675.194,145.429 675.502,145.429 Z M677.592,147.398 L678.428,147.398 L678.428,148.113 C678.868,147.519 679.308,147.277 679.935,147.277 C680.397,147.277 680.815,147.431 681.112,147.695 C681.431,148.003 681.541,148.355 681.541,149.048 L681.541,152.469 L680.705,152.469 L680.705,149.235 C680.705,148.784 680.65,148.542 680.518,148.366 C680.364,148.157 680.067,148.025 679.726,148.025 C679.352,148.025 679.011,148.168 678.758,148.454 C678.516,148.718 678.428,148.96 678.428,149.378 L678.428,152.469 L677.592,152.469 L677.592,147.398 Z M687.899,150.203 L683.675,150.203 C683.719,150.632 683.796,150.852 684.005,151.127 C684.335,151.578 684.819,151.82 685.369,151.82 C685.996,151.82 686.59,151.479 686.887,150.951 L687.624,151.226 C687.206,152.073 686.337,152.59 685.369,152.59 C683.862,152.59 682.784,151.49 682.784,149.95 C682.784,148.388 683.851,147.277 685.336,147.277 C686.81,147.277 687.91,148.388 687.91,149.873 C687.91,149.939 687.91,150.082 687.899,150.203 Z M683.686,149.587 L687.019,149.587 C686.986,149.191 686.909,148.971 686.733,148.718 C686.414,148.289 685.897,148.025 685.336,148.025 C684.775,148.025 684.269,148.289 683.972,148.729 C683.818,148.971 683.752,149.18 683.686,149.587 Z M689.12,147.398 L689.956,147.398 L689.956,148.256 C690.11,147.893 690.22,147.739 690.418,147.585 C690.671,147.387 691.023,147.277 691.386,147.277 L691.584,147.277 L691.584,148.124 C691.496,148.113 691.408,148.113 691.353,148.113 C690.902,148.113 690.506,148.322 690.253,148.696 C690.033,149.015 689.956,149.312 689.956,149.895 L689.956,152.469 L689.12,152.469 L689.12,147.398 Z M693.641,151.611 L692.53,154.218 L691.925,154.031 L692.849,151.358 L693.641,151.611 Z M699.295,145.132 L699.295,148.102 C699.757,147.53 700.219,147.277 700.824,147.277 C701.264,147.277 701.726,147.453 702.001,147.739 C702.276,148.014 702.397,148.41 702.397,149.059 L702.397,152.469 L701.561,152.469 L701.561,149.103 C701.561,148.41 701.22,148.025 700.615,148.025 C700.23,148.025 699.889,148.179 699.625,148.476 C699.372,148.762 699.295,149.015 699.295,149.499 L699.295,152.469 L698.459,152.469 L698.459,145.132 L699.295,145.132 Z M706.236,147.277 C707.732,147.277 708.799,148.388 708.799,149.95 C708.799,151.435 707.655,152.59 706.203,152.59 C704.696,152.59 703.64,151.49 703.64,149.928 C703.64,148.355 704.696,147.277 706.236,147.277 Z M706.236,148.047 C705.191,148.047 704.498,148.806 704.498,149.939 C704.498,151.061 705.191,151.82 706.225,151.82 C707.226,151.82 707.941,151.039 707.941,149.939 C707.941,148.806 707.259,148.047 706.236,148.047 Z M710.075,147.398 L710.911,147.398 L710.911,148.256 C711.065,147.893 711.175,147.739 711.373,147.585 C711.626,147.387 711.978,147.277 712.341,147.277 L712.539,147.277 L712.539,148.124 C712.451,148.113 712.363,148.113 712.308,148.113 C711.857,148.113 711.461,148.322 711.208,148.696 C710.988,149.015 710.911,149.312 710.911,149.895 L710.911,152.469 L710.075,152.469 L710.075,147.398 Z M714.409,147.398 L714.409,152.469 L713.573,152.469 L713.573,147.398 L714.409,147.398 Z M714.002,145.429 C714.299,145.429 714.53,145.671 714.53,145.979 C714.53,146.276 714.288,146.507 713.991,146.507 C713.694,146.507 713.463,146.276 713.463,145.968 C713.463,145.66 713.694,145.429 714.002,145.429 Z M716.906,151.732 L719.238,151.732 L719.238,152.469 L715.498,152.469 L718.138,148.135 L715.784,148.135 L715.784,147.398 L719.513,147.398 L716.906,151.732 Z M722.692,147.277 C724.188,147.277 725.255,148.388 725.255,149.95 C725.255,151.435 724.111,152.59 722.659,152.59 C721.152,152.59 720.096,151.49 720.096,149.928 C720.096,148.355 721.152,147.277 722.692,147.277 Z M722.692,148.047 C721.647,148.047 720.954,148.806 720.954,149.939 C720.954,151.061 721.647,151.82 722.681,151.82 C723.682,151.82 724.397,151.039 724.397,149.939 C724.397,148.806 723.715,148.047 722.692,148.047 Z M726.531,147.398 L727.367,147.398 L727.367,148.113 C727.807,147.519 728.247,147.277 728.874,147.277 C729.336,147.277 729.754,147.431 730.051,147.695 C730.37,148.003 730.48,148.355 730.48,149.048 L730.48,152.469 L729.644,152.469 L729.644,149.235 C729.644,148.784 729.589,148.542 729.457,148.366 C729.303,148.157 729.006,148.025 728.665,148.025 C728.291,148.025 727.95,148.168 727.697,148.454 C727.455,148.718 727.367,148.96 727.367,149.378 L727.367,152.469 L726.531,152.469 L726.531,147.398 Z M733.021,148.135 L733.021,151.435 C733.032,151.688 733.098,151.743 733.406,151.743 L733.791,151.743 L733.791,152.469 L733.01,152.469 C732.416,152.458 732.185,152.238 732.185,151.677 L732.185,148.135 L731.481,148.135 L731.481,147.398 L732.185,147.398 L732.185,145.803 L733.021,145.803 L733.021,147.398 L733.791,147.398 L733.791,148.135 L733.021,148.135 Z M738.807,148.234 L738.807,147.398 L739.643,147.398 L739.643,152.469 L738.807,152.469 L738.807,151.49 C738.301,152.249 737.729,152.59 736.959,152.59 C735.562,152.59 734.572,151.49 734.572,149.95 C734.572,148.399 735.584,147.277 736.981,147.277 C737.751,147.277 738.312,147.574 738.807,148.234 Z M737.102,148.025 C736.552,148.025 736.167,148.212 735.87,148.63 C735.606,148.993 735.452,149.477 735.452,149.972 C735.452,151.05 736.156,151.864 737.08,151.864 C738.037,151.864 738.818,150.973 738.818,149.884 C738.818,148.784 738.114,148.025 737.102,148.025 Z M742.162,152.469 L741.326,152.469 L741.326,145.132 L742.162,145.132 L742.162,152.469 Z M744.681,152.469 L743.845,152.469 L743.845,145.132 L744.681,145.132 L744.681,152.469 Z M747.849,151.16 L749.367,147.398 L750.28,147.398 L747.255,154.911 L746.342,154.911 L747.398,152.315 L745.594,147.398 L746.485,147.398 L747.849,151.16 Z M757.914,151.27 L758.431,151.842 C757.859,152.359 757.298,152.59 756.561,152.59 C755.109,152.59 754.075,151.49 754.075,149.95 C754.075,148.377 755.12,147.277 756.605,147.277 C757.331,147.277 757.925,147.519 758.453,148.036 L757.914,148.575 C757.529,148.223 757.1,148.047 756.627,148.047 C755.626,148.047 754.933,148.817 754.933,149.917 C754.933,151.039 755.626,151.82 756.616,151.82 C757.111,151.82 757.507,151.655 757.914,151.27 Z M764.217,150.203 L759.993,150.203 C760.037,150.632 760.114,150.852 760.323,151.127 C760.653,151.578 761.137,151.82 761.687,151.82 C762.314,151.82 762.908,151.479 763.205,150.951 L763.942,151.226 C763.524,152.073 762.655,152.59 761.687,152.59 C760.18,152.59 759.102,151.49 759.102,149.95 C759.102,148.388 760.169,147.277 761.654,147.277 C763.128,147.277 764.228,148.388 764.228,149.873 C764.228,149.939 764.228,150.082 764.217,150.203 Z M760.004,149.587 L763.337,149.587 C763.304,149.191 763.227,148.971 763.051,148.718 C762.732,148.289 762.215,148.025 761.654,148.025 C761.093,148.025 760.587,148.289 760.29,148.729 C760.136,148.971 760.07,149.18 760.004,149.587 Z M765.438,147.398 L766.274,147.398 L766.274,148.113 C766.714,147.519 767.154,147.277 767.781,147.277 C768.243,147.277 768.661,147.431 768.958,147.695 C769.277,148.003 769.387,148.355 769.387,149.048 L769.387,152.469 L768.551,152.469 L768.551,149.235 C768.551,148.784 768.496,148.542 768.364,148.366 C768.21,148.157 767.913,148.025 767.572,148.025 C767.198,148.025 766.857,148.168 766.604,148.454 C766.362,148.718 766.274,148.96 766.274,149.378 L766.274,152.469 L765.438,152.469 L765.438,147.398 Z M771.928,148.135 L771.928,151.435 C771.939,151.688 772.005,151.743 772.313,151.743 L772.698,151.743 L772.698,152.469 L771.917,152.469 C771.323,152.458 771.092,152.238 771.092,151.677 L771.092,148.135 L770.388,148.135 L770.388,147.398 L771.092,147.398 L771.092,145.803 L771.928,145.803 L771.928,147.398 L772.698,147.398 L772.698,148.135 L771.928,148.135 Z M778.594,150.203 L774.37,150.203 C774.414,150.632 774.491,150.852 774.7,151.127 C775.03,151.578 775.514,151.82 776.064,151.82 C776.691,151.82 777.285,151.479 777.582,150.951 L778.319,151.226 C777.901,152.073 777.032,152.59 776.064,152.59 C774.557,152.59 773.479,151.49 773.479,149.95 C773.479,148.388 774.546,147.277 776.031,147.277 C777.505,147.277 778.605,148.388 778.605,149.873 C778.605,149.939 778.605,150.082 778.594,150.203 Z M774.381,149.587 L777.714,149.587 C777.681,149.191 777.604,148.971 777.428,148.718 C777.109,148.289 776.592,148.025 776.031,148.025 C775.47,148.025 774.964,148.289 774.667,148.729 C774.513,148.971 774.447,149.18 774.381,149.587 Z M779.815,147.398 L780.651,147.398 L780.651,148.256 C780.805,147.893 780.915,147.739 781.113,147.585 C781.366,147.387 781.718,147.277 782.081,147.277 L782.279,147.277 L782.279,148.124 C782.191,148.113 782.103,148.113 782.048,148.113 C781.597,148.113 781.201,148.322 780.948,148.696 C780.728,149.015 780.651,149.312 780.651,149.895 L780.651,152.469 L779.815,152.469 L779.815,147.398 Z M788.021,150.203 L783.797,150.203 C783.841,150.632 783.918,150.852 784.127,151.127 C784.457,151.578 784.941,151.82 785.491,151.82 C786.118,151.82 786.712,151.479 787.009,150.951 L787.746,151.226 C787.328,152.073 786.459,152.59 785.491,152.59 C783.984,152.59 782.906,151.49 782.906,149.95 C782.906,148.388 783.973,147.277 785.458,147.277 C786.932,147.277 788.032,148.388 788.032,149.873 C788.032,149.939 788.032,150.082 788.021,150.203 Z M783.808,149.587 L787.141,149.587 C787.108,149.191 787.031,148.971 786.855,148.718 C786.536,148.289 786.019,148.025 785.458,148.025 C784.897,148.025 784.391,148.289 784.094,148.729 C783.94,148.971 783.874,149.18 783.808,149.587 Z M793.037,148.168 L793.037,145.132 L793.873,145.132 L793.873,152.469 L793.037,152.469 L793.037,151.6 C792.531,152.293 791.992,152.59 791.222,152.59 C789.825,152.59 788.835,151.501 788.835,149.961 C788.835,148.421 789.847,147.277 791.222,147.277 C791.97,147.277 792.542,147.552 793.037,148.168 Z M791.398,148.025 C790.397,148.025 789.715,148.817 789.715,149.972 C789.715,151.083 790.386,151.864 791.343,151.864 C792.322,151.864 793.037,151.05 793.037,149.95 C793.037,148.806 792.366,148.025 791.398,148.025 Z"/>
      <g fill="#C41261" transform="translate(418 130)">
        <rect width="516" height="1" x="5" y="2"/>
        <polygon points="523.5 0 526 5 521 5" transform="rotate(90 523.5 2.5)"/>
        <polygon points="2.5 0 5 5 0 5" transform="matrix(0 1 1 0 0 0)"/>
      </g>
      <path fill="#C41261" fill-rule="nonzero" d="M355.617,74.386 L354,75.464 L354,74.628 L356.486,73 L356.486,80.392 L355.617,80.392 L355.617,74.386 Z M362.371,73.165 L360.49,76.102 C360.798,75.992 360.941,75.959 361.205,75.959 C362.426,75.959 363.372,76.916 363.372,78.159 C363.372,79.457 362.305,80.524 361.007,80.524 C359.698,80.524 358.686,79.49 358.686,78.159 C358.686,77.62 358.829,77.213 359.247,76.542 L361.348,73.165 L362.371,73.165 Z M361.051,76.707 C360.215,76.707 359.555,77.345 359.555,78.159 C359.555,79.017 360.204,79.699 361.029,79.699 C361.854,79.699 362.514,79.028 362.514,78.192 C362.514,77.367 361.865,76.707 361.051,76.707 Z M364.615,75.321 L365.451,75.321 L365.451,76.245 C365.935,75.497 366.452,75.2 367.299,75.2 C368.707,75.2 369.686,76.278 369.686,77.818 C369.686,79.413 368.707,80.513 367.299,80.513 C366.903,80.513 366.54,80.425 366.188,80.249 C365.88,80.095 365.726,79.963 365.451,79.6 L365.451,82.768 L364.615,82.768 L364.615,75.321 Z M367.156,75.948 C366.144,75.948 365.451,76.751 365.451,77.939 C365.451,79.05 366.122,79.787 367.123,79.787 C368.124,79.787 368.795,79.006 368.795,77.851 C368.795,77.257 368.652,76.806 368.355,76.476 C368.058,76.146 367.607,75.948 367.156,75.948 Z M372.568,78.555 L371.215,80.392 L370.192,80.392 L372.062,77.873 L370.159,75.321 L371.215,75.321 L372.568,77.18 L373.954,75.321 L374.977,75.321 L373.063,77.873 L374.889,80.392 L373.866,80.392 L372.568,78.555 Z M379.993,79.523 L379.993,80.392 L379.157,80.392 L379.157,73.055 L379.993,73.055 L379.993,76.19 C380.499,75.497 381.038,75.2 381.775,75.2 C383.194,75.2 384.184,76.3 384.184,77.873 C384.184,79.424 383.205,80.513 381.819,80.513 C381.038,80.513 380.488,80.216 379.993,79.523 Z M381.665,75.948 C380.697,75.948 379.982,76.751 379.982,77.862 C379.982,79.017 380.642,79.787 381.632,79.787 C382.633,79.787 383.304,79.028 383.304,77.895 C383.304,76.762 382.622,75.948 381.665,75.948 Z M387.649,75.2 C389.145,75.2 390.212,76.311 390.212,77.873 C390.212,79.358 389.068,80.513 387.616,80.513 C386.109,80.513 385.053,79.413 385.053,77.851 C385.053,76.278 386.109,75.2 387.649,75.2 Z M387.649,75.97 C386.604,75.97 385.911,76.729 385.911,77.862 C385.911,78.984 386.604,79.743 387.638,79.743 C388.639,79.743 389.354,78.962 389.354,77.862 C389.354,76.729 388.672,75.97 387.649,75.97 Z M392.379,76.058 L392.379,79.358 C392.39,79.611 392.456,79.666 392.764,79.666 L393.149,79.666 L393.149,80.392 L392.368,80.392 C391.774,80.381 391.543,80.161 391.543,79.6 L391.543,76.058 L390.839,76.058 L390.839,75.321 L391.543,75.321 L391.543,73.726 L392.379,73.726 L392.379,75.321 L393.149,75.321 L393.149,76.058 L392.379,76.058 Z M395.228,76.058 L395.228,79.358 C395.239,79.611 395.305,79.666 395.613,79.666 L395.998,79.666 L395.998,80.392 L395.217,80.392 C394.623,80.381 394.392,80.161 394.392,79.6 L394.392,76.058 L393.688,76.058 L393.688,75.321 L394.392,75.321 L394.392,73.726 L395.228,73.726 L395.228,75.321 L395.998,75.321 L395.998,76.058 L395.228,76.058 Z M399.375,75.2 C400.871,75.2 401.938,76.311 401.938,77.873 C401.938,79.358 400.794,80.513 399.342,80.513 C397.835,80.513 396.779,79.413 396.779,77.851 C396.779,76.278 397.835,75.2 399.375,75.2 Z M399.375,75.97 C398.33,75.97 397.637,76.729 397.637,77.862 C397.637,78.984 398.33,79.743 399.364,79.743 C400.365,79.743 401.08,78.962 401.08,77.862 C401.08,76.729 400.398,75.97 399.375,75.97 Z M403.214,75.321 L404.05,75.321 L404.05,76.025 C404.435,75.442 404.864,75.2 405.491,75.2 C406.184,75.2 406.624,75.497 406.855,76.124 C407.229,75.475 407.702,75.2 408.461,75.2 C409.044,75.2 409.484,75.387 409.748,75.739 C409.99,76.058 410.056,76.344 410.056,77.147 L410.056,80.392 L409.22,80.392 L409.22,77.345 C409.22,76.729 409.198,76.586 409.077,76.377 C408.923,76.113 408.593,75.948 408.197,75.948 C407.46,75.948 407.053,76.443 407.053,77.345 L407.053,80.392 L406.217,80.392 L406.217,77.356 C406.217,76.861 406.173,76.608 406.052,76.388 C405.909,76.102 405.601,75.948 405.227,75.948 C404.49,75.948 404.05,76.476 404.05,77.356 L404.05,80.392 L403.214,80.392 L403.214,75.321 Z M372.007,86.321 L372.843,86.321 L372.843,87.245 C373.327,86.497 373.844,86.2 374.691,86.2 C376.099,86.2 377.078,87.278 377.078,88.818 C377.078,90.413 376.099,91.513 374.691,91.513 C374.295,91.513 373.932,91.425 373.58,91.249 C373.272,91.095 373.118,90.963 372.843,90.6 L372.843,93.768 L372.007,93.768 L372.007,86.321 Z M374.548,86.948 C373.536,86.948 372.843,87.751 372.843,88.939 C372.843,90.05 373.514,90.787 374.515,90.787 C375.516,90.787 376.187,90.006 376.187,88.851 C376.187,88.257 376.044,87.806 375.747,87.476 C375.45,87.146 374.999,86.948 374.548,86.948 Z M382.171,87.157 L382.171,86.321 L383.007,86.321 L383.007,91.392 L382.171,91.392 L382.171,90.413 C381.665,91.172 381.093,91.513 380.323,91.513 C378.926,91.513 377.936,90.413 377.936,88.873 C377.936,87.322 378.948,86.2 380.345,86.2 C381.115,86.2 381.676,86.497 382.171,87.157 Z M380.466,86.948 C379.916,86.948 379.531,87.135 379.234,87.553 C378.97,87.916 378.816,88.4 378.816,88.895 C378.816,89.973 379.52,90.787 380.444,90.787 C381.401,90.787 382.182,89.896 382.182,88.807 C382.182,87.707 381.478,86.948 380.466,86.948 Z M388.485,87.091 L388.485,84.055 L389.321,84.055 L389.321,91.392 L388.485,91.392 L388.485,90.523 C387.979,91.216 387.44,91.513 386.67,91.513 C385.273,91.513 384.283,90.424 384.283,88.884 C384.283,87.344 385.295,86.2 386.67,86.2 C387.418,86.2 387.99,86.475 388.485,87.091 Z M386.846,86.948 C385.845,86.948 385.163,87.74 385.163,88.895 C385.163,90.006 385.834,90.787 386.791,90.787 C387.77,90.787 388.485,89.973 388.485,88.873 C388.485,87.729 387.814,86.948 386.846,86.948 Z M394.799,87.091 L394.799,84.055 L395.635,84.055 L395.635,91.392 L394.799,91.392 L394.799,90.523 C394.293,91.216 393.754,91.513 392.984,91.513 C391.587,91.513 390.597,90.424 390.597,88.884 C390.597,87.344 391.609,86.2 392.984,86.2 C393.732,86.2 394.304,86.475 394.799,87.091 Z M393.16,86.948 C392.159,86.948 391.477,87.74 391.477,88.895 C391.477,90.006 392.148,90.787 393.105,90.787 C394.084,90.787 394.799,89.973 394.799,88.873 C394.799,87.729 394.128,86.948 393.16,86.948 Z M398.154,86.321 L398.154,91.392 L397.318,91.392 L397.318,86.321 L398.154,86.321 Z M397.747,84.352 C398.044,84.352 398.275,84.594 398.275,84.902 C398.275,85.199 398.033,85.43 397.736,85.43 C397.439,85.43 397.208,85.199 397.208,84.891 C397.208,84.583 397.439,84.352 397.747,84.352 Z M399.837,86.321 L400.673,86.321 L400.673,87.036 C401.113,86.442 401.553,86.2 402.18,86.2 C402.642,86.2 403.06,86.354 403.357,86.618 C403.676,86.926 403.786,87.278 403.786,87.971 L403.786,91.392 L402.95,91.392 L402.95,88.158 C402.95,87.707 402.895,87.465 402.763,87.289 C402.609,87.08 402.312,86.948 401.971,86.948 C401.597,86.948 401.256,87.091 401.003,87.377 C400.761,87.641 400.673,87.883 400.673,88.301 L400.673,91.392 L399.837,91.392 L399.837,86.321 Z M409.187,87.19 L409.187,86.321 L410.023,86.321 L410.023,91.425 C410.023,92.272 409.814,92.844 409.352,93.284 C408.901,93.724 408.252,93.955 407.482,93.955 C406.536,93.955 405.788,93.647 405.238,93.031 L405.81,92.459 C406.041,92.701 406.151,92.8 406.294,92.899 C406.58,93.075 407.053,93.196 407.482,93.196 C408.01,93.196 408.516,93.009 408.802,92.701 C409.055,92.426 409.187,92.019 409.187,91.491 L409.187,90.424 C408.692,91.172 408.109,91.513 407.317,91.513 C405.975,91.513 404.974,90.38 404.974,88.873 C404.974,88.059 405.271,87.278 405.777,86.794 C406.184,86.398 406.734,86.2 407.383,86.2 C408.153,86.2 408.67,86.486 409.187,87.19 Z M407.537,86.97 C406.547,86.97 405.854,87.74 405.854,88.84 C405.854,89.929 406.558,90.743 407.515,90.743 C407.999,90.743 408.472,90.512 408.802,90.127 C409.022,89.874 409.165,89.379 409.165,88.873 C409.165,88.213 409.066,87.861 408.769,87.531 C408.461,87.19 407.988,86.97 407.537,86.97 Z"/>
      <g fill="#C41261" transform="translate(419.87 107.392)">
        <rect width="1" height="14" x="4" y="1"/>
        <rect width="9" height="1"/>
        <rect width="9" height="1" y="15"/>
      </g>
    </g>
  </g>
</svg>
