<svg xmlns="http://www.w3.org/2000/svg" width="1026" height="180" viewBox="0 0 1026 180">
  <g fill="none" fill-rule="evenodd" transform="translate(1)">
    <rect width="1024" height="180" fill="#FFF" fill-opacity=".01" fill-rule="nonzero"/>
    <g transform="translate(0 17)">
      <g fill-rule="nonzero" stroke="#979797">
        <polyline fill="#FFF" points="1024 0 1024 124 0 124 0 0 0 0"/>
        <path d="M391,0 L391,124"/>
      </g>
      <path fill="#C41261" d="M93.304 81.031L94.184 81.031C94.228 81.867 94.679 82.307 95.482 82.307 96.307 82.307 96.89 81.801 96.89 81.064 96.89 80.426 96.56 80.129 95.405 79.744 94.536 79.447 94.25 79.304 93.92 79.007 93.546 78.666 93.348 78.182 93.348 77.621 93.348 76.378 94.239 75.531 95.537 75.531 96.835 75.531 97.682 76.356 97.715 77.632L96.791 77.632C96.78 77.258 96.736 77.082 96.615 76.873 96.406 76.554 95.999 76.356 95.526 76.356 94.8 76.356 94.283 76.851 94.283 77.555 94.283 77.907 94.437 78.215 94.701 78.402 94.932 78.567 95.13 78.655 95.878 78.919 96.659 79.194 97.033 79.392 97.33 79.711 97.649 80.052 97.825 80.514 97.825 81.009 97.825 82.274 96.89 83.132 95.515 83.132 94.58 83.132 93.942 82.802 93.557 82.142 93.381 81.845 93.304 81.537 93.304 81.185L93.304 81.031zM99.112 77.929L99.948 77.929 99.948 78.644C100.388 78.05 100.828 77.808 101.455 77.808 101.917 77.808 102.335 77.962 102.632 78.226 102.951 78.534 103.061 78.886 103.061 79.579L103.061 83 102.225 83 102.225 79.766C102.225 79.315 102.17 79.073 102.038 78.897 101.884 78.688 101.587 78.556 101.246 78.556 100.872 78.556 100.531 78.699 100.278 78.985 100.036 79.249 99.948 79.491 99.948 79.909L99.948 83 99.112 83 99.112 77.929zM108.539 78.765L108.539 77.929 109.375 77.929 109.375 83 108.539 83 108.539 82.021C108.033 82.78 107.461 83.121 106.691 83.121 105.294 83.121 104.304 82.021 104.304 80.481 104.304 78.93 105.316 77.808 106.713 77.808 107.483 77.808 108.044 78.105 108.539 78.765zM106.834 78.556C106.284 78.556 105.899 78.743 105.602 79.161 105.338 79.524 105.184 80.008 105.184 80.503 105.184 81.581 105.888 82.395 106.812 82.395 107.769 82.395 108.55 81.504 108.55 80.415 108.55 79.315 107.846 78.556 106.834 78.556zM114.49 81.801L115.007 82.373C114.435 82.89 113.874 83.121 113.137 83.121 111.685 83.121 110.651 82.021 110.651 80.481 110.651 78.908 111.696 77.808 113.181 77.808 113.907 77.808 114.501 78.05 115.029 78.567L114.49 79.106C114.105 78.754 113.676 78.578 113.203 78.578 112.202 78.578 111.509 79.348 111.509 80.448 111.509 81.57 112.202 82.351 113.192 82.351 113.687 82.351 114.083 82.186 114.49 81.801zM116.921 80.734L116.921 83 116.085 83 116.085 75.663 116.921 75.663 116.921 80.151 118.945 77.929 120.001 77.929 117.735 80.404 119.99 83 118.945 83 116.921 80.734zM121.805 82.131L121.805 83 120.969 83 120.969 75.663 121.805 75.663 121.805 78.798C122.311 78.105 122.85 77.808 123.587 77.808 125.006 77.808 125.996 78.908 125.996 80.481 125.996 82.032 125.017 83.121 123.631 83.121 122.85 83.121 122.3 82.824 121.805 82.131zM123.477 78.556C122.509 78.556 121.794 79.359 121.794 80.47 121.794 81.625 122.454 82.395 123.444 82.395 124.445 82.395 125.116 81.636 125.116 80.503 125.116 79.37 124.434 78.556 123.477 78.556zM131.1 78.765L131.1 77.929 131.936 77.929 131.936 83 131.1 83 131.1 82.021C130.594 82.78 130.022 83.121 129.252 83.121 127.855 83.121 126.865 82.021 126.865 80.481 126.865 78.93 127.877 77.808 129.274 77.808 130.044 77.808 130.605 78.105 131.1 78.765zM129.395 78.556C128.845 78.556 128.46 78.743 128.163 79.161 127.899 79.524 127.745 80.008 127.745 80.503 127.745 81.581 128.449 82.395 129.373 82.395 130.33 82.395 131.111 81.504 131.111 80.415 131.111 79.315 130.407 78.556 129.395 78.556zM133.619 77.929L134.455 77.929 134.455 78.787C134.609 78.424 134.719 78.27 134.917 78.116 135.17 77.918 135.522 77.808 135.885 77.808L136.083 77.808 136.083 78.655C135.995 78.644 135.907 78.644 135.852 78.644 135.401 78.644 135.005 78.853 134.752 79.227 134.532 79.546 134.455 79.843 134.455 80.426L134.455 83 133.619 83 133.619 77.929zM140.417 77.929L141.253 77.929 141.253 78.633C141.638 78.05 142.067 77.808 142.694 77.808 143.387 77.808 143.827 78.105 144.058 78.732 144.432 78.083 144.905 77.808 145.664 77.808 146.247 77.808 146.687 77.995 146.951 78.347 147.193 78.666 147.259 78.952 147.259 79.755L147.259 83 146.423 83 146.423 79.953C146.423 79.337 146.401 79.194 146.28 78.985 146.126 78.721 145.796 78.556 145.4 78.556 144.663 78.556 144.256 79.051 144.256 79.953L144.256 83 143.42 83 143.42 79.964C143.42 79.469 143.376 79.216 143.255 78.996 143.112 78.71 142.804 78.556 142.43 78.556 141.693 78.556 141.253 79.084 141.253 79.964L141.253 83 140.417 83 140.417 77.929zM153.617 80.734L149.393 80.734C149.437 81.163 149.514 81.383 149.723 81.658 150.053 82.109 150.537 82.351 151.087 82.351 151.714 82.351 152.308 82.01 152.605 81.482L153.342 81.757C152.924 82.604 152.055 83.121 151.087 83.121 149.58 83.121 148.502 82.021 148.502 80.481 148.502 78.919 149.569 77.808 151.054 77.808 152.528 77.808 153.628 78.919 153.628 80.404 153.628 80.47 153.628 80.613 153.617 80.734zM149.404 80.118L152.737 80.118C152.704 79.722 152.627 79.502 152.451 79.249 152.132 78.82 151.615 78.556 151.054 78.556 150.493 78.556 149.987 78.82 149.69 79.26 149.536 79.502 149.47 79.711 149.404 80.118zM158.017 79.315L157.181 79.315 157.181 79.26C157.181 78.787 156.796 78.49 156.213 78.49 155.652 78.49 155.3 78.776 155.3 79.216 155.3 79.656 155.52 79.821 156.433 80.074 157.082 80.25 157.423 80.415 157.665 80.657 157.918 80.91 158.072 81.273 158.072 81.647 158.072 82.527 157.346 83.121 156.268 83.121 155.113 83.121 154.464 82.582 154.376 81.559L155.201 81.559C155.256 82.131 155.63 82.439 156.268 82.439 156.84 82.439 157.214 82.142 157.214 81.691 157.214 81.251 156.928 81.031 156.059 80.811 154.959 80.514 154.464 80.052 154.464 79.282 154.464 78.402 155.179 77.808 156.246 77.808 157.324 77.808 157.973 78.358 158.017 79.315zM162.538 79.315L161.702 79.315 161.702 79.26C161.702 78.787 161.317 78.49 160.734 78.49 160.173 78.49 159.821 78.776 159.821 79.216 159.821 79.656 160.041 79.821 160.954 80.074 161.603 80.25 161.944 80.415 162.186 80.657 162.439 80.91 162.593 81.273 162.593 81.647 162.593 82.527 161.867 83.121 160.789 83.121 159.634 83.121 158.985 82.582 158.897 81.559L159.722 81.559C159.777 82.131 160.151 82.439 160.789 82.439 161.361 82.439 161.735 82.142 161.735 81.691 161.735 81.251 161.449 81.031 160.58 80.811 159.48 80.514 158.985 80.052 158.985 79.282 158.985 78.402 159.7 77.808 160.767 77.808 161.845 77.808 162.494 78.358 162.538 79.315zM167.708 78.765L167.708 77.929 168.544 77.929 168.544 83 167.708 83 167.708 82.021C167.202 82.78 166.63 83.121 165.86 83.121 164.463 83.121 163.473 82.021 163.473 80.481 163.473 78.93 164.485 77.808 165.882 77.808 166.652 77.808 167.213 78.105 167.708 78.765zM166.003 78.556C165.453 78.556 165.068 78.743 164.771 79.161 164.507 79.524 164.353 80.008 164.353 80.503 164.353 81.581 165.057 82.395 165.981 82.395 166.938 82.395 167.719 81.504 167.719 80.415 167.719 79.315 167.015 78.556 166.003 78.556zM173.978 78.798L173.978 77.929 174.814 77.929 174.814 83.033C174.814 83.88 174.605 84.452 174.143 84.892 173.692 85.332 173.043 85.563 172.273 85.563 171.327 85.563 170.579 85.255 170.029 84.639L170.601 84.067C170.832 84.309 170.942 84.408 171.085 84.507 171.371 84.683 171.844 84.804 172.273 84.804 172.801 84.804 173.307 84.617 173.593 84.309 173.846 84.034 173.978 83.627 173.978 83.099L173.978 82.032C173.483 82.78 172.9 83.121 172.108 83.121 170.766 83.121 169.765 81.988 169.765 80.481 169.765 79.667 170.062 78.886 170.568 78.402 170.975 78.006 171.525 77.808 172.174 77.808 172.944 77.808 173.461 78.094 173.978 78.798zM172.328 78.578C171.338 78.578 170.645 79.348 170.645 80.448 170.645 81.537 171.349 82.351 172.306 82.351 172.79 82.351 173.263 82.12 173.593 81.735 173.813 81.482 173.956 80.987 173.956 80.481 173.956 79.821 173.857 79.469 173.56 79.139 173.252 78.798 172.779 78.578 172.328 78.578zM181.205 80.734L176.981 80.734C177.025 81.163 177.102 81.383 177.311 81.658 177.641 82.109 178.125 82.351 178.675 82.351 179.302 82.351 179.896 82.01 180.193 81.482L180.93 81.757C180.512 82.604 179.643 83.121 178.675 83.121 177.168 83.121 176.09 82.021 176.09 80.481 176.09 78.919 177.157 77.808 178.642 77.808 180.116 77.808 181.216 78.919 181.216 80.404 181.216 80.47 181.216 80.613 181.205 80.734zM176.992 80.118L180.325 80.118C180.292 79.722 180.215 79.502 180.039 79.249 179.72 78.82 179.203 78.556 178.642 78.556 178.081 78.556 177.575 78.82 177.278 79.26 177.124 79.502 177.058 79.711 176.992 80.118zM185.605 79.315L184.769 79.315 184.769 79.26C184.769 78.787 184.384 78.49 183.801 78.49 183.24 78.49 182.888 78.776 182.888 79.216 182.888 79.656 183.108 79.821 184.021 80.074 184.67 80.25 185.011 80.415 185.253 80.657 185.506 80.91 185.66 81.273 185.66 81.647 185.66 82.527 184.934 83.121 183.856 83.121 182.701 83.121 182.052 82.582 181.964 81.559L182.789 81.559C182.844 82.131 183.218 82.439 183.856 82.439 184.428 82.439 184.802 82.142 184.802 81.691 184.802 81.251 184.516 81.031 183.647 80.811 182.547 80.514 182.052 80.052 182.052 79.282 182.052 78.402 182.767 77.808 183.834 77.808 184.912 77.808 185.561 78.358 185.605 79.315zM190.247 77.929L191.083 77.929 191.083 78.787C191.237 78.424 191.347 78.27 191.545 78.116 191.798 77.918 192.15 77.808 192.513 77.808L192.711 77.808 192.711 78.655C192.623 78.644 192.535 78.644 192.48 78.644 192.029 78.644 191.633 78.853 191.38 79.227 191.16 79.546 191.083 79.843 191.083 80.426L191.083 83 190.247 83 190.247 77.929zM198.453 80.734L194.229 80.734C194.273 81.163 194.35 81.383 194.559 81.658 194.889 82.109 195.373 82.351 195.923 82.351 196.55 82.351 197.144 82.01 197.441 81.482L198.178 81.757C197.76 82.604 196.891 83.121 195.923 83.121 194.416 83.121 193.338 82.021 193.338 80.481 193.338 78.919 194.405 77.808 195.89 77.808 197.364 77.808 198.464 78.919 198.464 80.404 198.464 80.47 198.464 80.613 198.453 80.734zM194.24 80.118L197.573 80.118C197.54 79.722 197.463 79.502 197.287 79.249 196.968 78.82 196.451 78.556 195.89 78.556 195.329 78.556 194.823 78.82 194.526 79.26 194.372 79.502 194.306 79.711 194.24 80.118zM200.51 83L199.674 83 199.674 75.663 200.51 75.663 200.51 83zM206.021 78.765L206.021 77.929 206.857 77.929 206.857 83 206.021 83 206.021 82.021C205.515 82.78 204.943 83.121 204.173 83.121 202.776 83.121 201.786 82.021 201.786 80.481 201.786 78.93 202.798 77.808 204.195 77.808 204.965 77.808 205.526 78.105 206.021 78.765zM204.316 78.556C203.766 78.556 203.381 78.743 203.084 79.161 202.82 79.524 202.666 80.008 202.666 80.503 202.666 81.581 203.37 82.395 204.294 82.395 205.251 82.395 206.032 81.504 206.032 80.415 206.032 79.315 205.328 78.556 204.316 78.556zM209.431 78.666L209.431 81.966C209.442 82.219 209.508 82.274 209.816 82.274L210.201 82.274 210.201 83 209.42 83C208.826 82.989 208.595 82.769 208.595 82.208L208.595 78.666 207.891 78.666 207.891 77.929 208.595 77.929 208.595 76.334 209.431 76.334 209.431 77.929 210.201 77.929 210.201 78.666 209.431 78.666zM216.097 80.734L211.873 80.734C211.917 81.163 211.994 81.383 212.203 81.658 212.533 82.109 213.017 82.351 213.567 82.351 214.194 82.351 214.788 82.01 215.085 81.482L215.822 81.757C215.404 82.604 214.535 83.121 213.567 83.121 212.06 83.121 210.982 82.021 210.982 80.481 210.982 78.919 212.049 77.808 213.534 77.808 215.008 77.808 216.108 78.919 216.108 80.404 216.108 80.47 216.108 80.613 216.097 80.734zM211.884 80.118L215.217 80.118C215.184 79.722 215.107 79.502 214.931 79.249 214.612 78.82 214.095 78.556 213.534 78.556 212.973 78.556 212.467 78.82 212.17 79.26 212.016 79.502 211.95 79.711 211.884 80.118zM221.113 78.699L221.113 75.663 221.949 75.663 221.949 83 221.113 83 221.113 82.131C220.607 82.824 220.068 83.121 219.298 83.121 217.901 83.121 216.911 82.032 216.911 80.492 216.911 78.952 217.923 77.808 219.298 77.808 220.046 77.808 220.618 78.083 221.113 78.699zM219.474 78.556C218.473 78.556 217.791 79.348 217.791 80.503 217.791 81.614 218.462 82.395 219.419 82.395 220.398 82.395 221.113 81.581 221.113 80.481 221.113 79.337 220.442 78.556 219.474 78.556zM227.823 78.666L227.823 81.966C227.834 82.219 227.9 82.274 228.208 82.274L228.593 82.274 228.593 83 227.812 83C227.218 82.989 226.987 82.769 226.987 82.208L226.987 78.666 226.283 78.666 226.283 77.929 226.987 77.929 226.987 76.334 227.823 76.334 227.823 77.929 228.593 77.929 228.593 78.666 227.823 78.666zM231.97 77.808C233.466 77.808 234.533 78.919 234.533 80.481 234.533 81.966 233.389 83.121 231.937 83.121 230.43 83.121 229.374 82.021 229.374 80.459 229.374 78.886 230.43 77.808 231.97 77.808zM231.97 78.578C230.925 78.578 230.232 79.337 230.232 80.47 230.232 81.592 230.925 82.351 231.959 82.351 232.96 82.351 233.675 81.57 233.675 80.47 233.675 79.337 232.993 78.578 231.97 78.578zM240 78.666L240 81.966C240.011 82.219 240.077 82.274 240.385 82.274L240.77 82.274 240.77 83 239.989 83C239.395 82.989 239.164 82.769 239.164 82.208L239.164 78.666 238.46 78.666 238.46 77.929 239.164 77.929 239.164 76.334 240 76.334 240 77.929 240.77 77.929 240.77 78.666 240 78.666zM242.794 75.663L242.794 78.633C243.256 78.061 243.718 77.808 244.323 77.808 244.763 77.808 245.225 77.984 245.5 78.27 245.775 78.545 245.896 78.941 245.896 79.59L245.896 83 245.06 83 245.06 79.634C245.06 78.941 244.719 78.556 244.114 78.556 243.729 78.556 243.388 78.71 243.124 79.007 242.871 79.293 242.794 79.546 242.794 80.03L242.794 83 241.958 83 241.958 75.663 242.794 75.663zM252.254 80.734L248.03 80.734C248.074 81.163 248.151 81.383 248.36 81.658 248.69 82.109 249.174 82.351 249.724 82.351 250.351 82.351 250.945 82.01 251.242 81.482L251.979 81.757C251.561 82.604 250.692 83.121 249.724 83.121 248.217 83.121 247.139 82.021 247.139 80.481 247.139 78.919 248.206 77.808 249.691 77.808 251.165 77.808 252.265 78.919 252.265 80.404 252.265 80.47 252.265 80.613 252.254 80.734zM248.041 80.118L251.374 80.118C251.341 79.722 251.264 79.502 251.088 79.249 250.769 78.82 250.252 78.556 249.691 78.556 249.13 78.556 248.624 78.82 248.327 79.26 248.173 79.502 248.107 79.711 248.041 80.118zM257.611 83L256.775 83 256.775 75.663 257.611 75.663 257.611 83zM264.002 80.734L259.778 80.734C259.822 81.163 259.899 81.383 260.108 81.658 260.438 82.109 260.922 82.351 261.472 82.351 262.099 82.351 262.693 82.01 262.99 81.482L263.727 81.757C263.309 82.604 262.44 83.121 261.472 83.121 259.965 83.121 258.887 82.021 258.887 80.481 258.887 78.919 259.954 77.808 261.439 77.808 262.913 77.808 264.013 78.919 264.013 80.404 264.013 80.47 264.013 80.613 264.002 80.734zM259.789 80.118L263.122 80.118C263.089 79.722 263.012 79.502 262.836 79.249 262.517 78.82 262 78.556 261.439 78.556 260.878 78.556 260.372 78.82 260.075 79.26 259.921 79.502 259.855 79.711 259.789 80.118zM266.147 78.666L266.147 83 265.311 83 265.311 78.666 264.618 78.666 264.618 77.929 265.311 77.929 265.311 77.247C265.311 76.246 265.828 75.652 266.708 75.652 266.752 75.652 266.851 75.652 266.939 75.663L266.939 76.411C266.334 76.477 266.169 76.653 266.147 77.247L266.147 77.929 266.939 77.929 266.939 78.666 266.147 78.666zM268.963 78.666L268.963 81.966C268.974 82.219 269.04 82.274 269.348 82.274L269.733 82.274 269.733 83 268.952 83C268.358 82.989 268.127 82.769 268.127 82.208L268.127 78.666 267.423 78.666 267.423 77.929 268.127 77.929 268.127 76.334 268.963 76.334 268.963 77.929 269.733 77.929 269.733 78.666 268.963 78.666zM272.362 79.953L272.362 80.712 270.085 80.712 270.085 79.953 272.362 79.953zM273.198 77.929L274.034 77.929 274.034 78.853C274.518 78.105 275.035 77.808 275.882 77.808 277.29 77.808 278.269 78.886 278.269 80.426 278.269 82.021 277.29 83.121 275.882 83.121 275.486 83.121 275.123 83.033 274.771 82.857 274.463 82.703 274.309 82.571 274.034 82.208L274.034 85.376 273.198 85.376 273.198 77.929zM275.739 78.556C274.727 78.556 274.034 79.359 274.034 80.547 274.034 81.658 274.705 82.395 275.706 82.395 276.707 82.395 277.378 81.614 277.378 80.459 277.378 79.865 277.235 79.414 276.938 79.084 276.641 78.754 276.19 78.556 275.739 78.556zM283.362 78.765L283.362 77.929 284.198 77.929 284.198 83 283.362 83 283.362 82.021C282.856 82.78 282.284 83.121 281.514 83.121 280.117 83.121 279.127 82.021 279.127 80.481 279.127 78.93 280.139 77.808 281.536 77.808 282.306 77.808 282.867 78.105 283.362 78.765zM281.657 78.556C281.107 78.556 280.722 78.743 280.425 79.161 280.161 79.524 280.007 80.008 280.007 80.503 280.007 81.581 280.711 82.395 281.635 82.395 282.592 82.395 283.373 81.504 283.373 80.415 283.373 79.315 282.669 78.556 281.657 78.556zM285.881 77.929L286.717 77.929 286.717 78.644C287.157 78.05 287.597 77.808 288.224 77.808 288.686 77.808 289.104 77.962 289.401 78.226 289.72 78.534 289.83 78.886 289.83 79.579L289.83 83 288.994 83 288.994 79.766C288.994 79.315 288.939 79.073 288.807 78.897 288.653 78.688 288.356 78.556 288.015 78.556 287.641 78.556 287.3 78.699 287.047 78.985 286.805 79.249 286.717 79.491 286.717 79.909L286.717 83 285.881 83 285.881 77.929zM296.188 80.734L291.964 80.734C292.008 81.163 292.085 81.383 292.294 81.658 292.624 82.109 293.108 82.351 293.658 82.351 294.285 82.351 294.879 82.01 295.176 81.482L295.913 81.757C295.495 82.604 294.626 83.121 293.658 83.121 292.151 83.121 291.073 82.021 291.073 80.481 291.073 78.919 292.14 77.808 293.625 77.808 295.099 77.808 296.199 78.919 296.199 80.404 296.199 80.47 296.199 80.613 296.188 80.734zM291.975 80.118L295.308 80.118C295.275 79.722 295.198 79.502 295.022 79.249 294.703 78.82 294.186 78.556 293.625 78.556 293.064 78.556 292.558 78.82 292.261 79.26 292.107 79.502 292.041 79.711 291.975 80.118zM298.432 82.142L297.321 84.749 296.716 84.562 297.64 81.889 298.432 82.142zM127.822 88.929L128.68 88.929 126.876 94 126.117 94 124.951 90.15 123.73 94 122.938 94 121.2 88.929 122.058 88.929 123.356 92.658 124.522 88.929 125.347 88.929 126.491 92.658 127.822 88.929zM130.418 86.663L130.418 89.633C130.88 89.061 131.342 88.808 131.947 88.808 132.387 88.808 132.849 88.984 133.124 89.27 133.399 89.545 133.52 89.941 133.52 90.59L133.52 94 132.684 94 132.684 90.634C132.684 89.941 132.343 89.556 131.738 89.556 131.353 89.556 131.012 89.71 130.748 90.007 130.495 90.293 130.418 90.546 130.418 91.03L130.418 94 129.582 94 129.582 86.663 130.418 86.663zM136.006 88.929L136.006 94 135.17 94 135.17 88.929 136.006 88.929zM135.599 86.96C135.896 86.96 136.127 87.202 136.127 87.51 136.127 87.807 135.885 88.038 135.588 88.038 135.291 88.038 135.06 87.807 135.06 87.499 135.06 87.191 135.291 86.96 135.599 86.96zM141.121 92.801L141.638 93.373C141.066 93.89 140.505 94.121 139.768 94.121 138.316 94.121 137.282 93.021 137.282 91.481 137.282 89.908 138.327 88.808 139.812 88.808 140.538 88.808 141.132 89.05 141.66 89.567L141.121 90.106C140.736 89.754 140.307 89.578 139.834 89.578 138.833 89.578 138.14 90.348 138.14 91.448 138.14 92.57 138.833 93.351 139.823 93.351 140.318 93.351 140.714 93.186 141.121 92.801zM143.552 86.663L143.552 89.633C144.014 89.061 144.476 88.808 145.081 88.808 145.521 88.808 145.983 88.984 146.258 89.27 146.533 89.545 146.654 89.941 146.654 90.59L146.654 94 145.818 94 145.818 90.634C145.818 89.941 145.477 89.556 144.872 89.556 144.487 89.556 144.146 89.71 143.882 90.007 143.629 90.293 143.552 90.546 143.552 91.03L143.552 94 142.716 94 142.716 86.663 143.552 86.663zM154.552 88.929L155.399 88.929 155.399 92.174C155.399 92.867 155.267 93.252 154.893 93.593 154.519 93.934 154.002 94.121 153.43 94.121 152.858 94.121 152.33 93.923 151.967 93.582 151.626 93.252 151.461 92.79 151.461 92.174L151.461 88.929 152.297 88.929 152.297 92.152C152.297 92.867 152.759 93.373 153.43 93.373 153.782 93.373 154.123 93.23 154.332 92.988 154.497 92.79 154.552 92.581 154.552 92.174L154.552 88.929zM160.118 90.315L159.282 90.315 159.282 90.26C159.282 89.787 158.897 89.49 158.314 89.49 157.753 89.49 157.401 89.776 157.401 90.216 157.401 90.656 157.621 90.821 158.534 91.074 159.183 91.25 159.524 91.415 159.766 91.657 160.019 91.91 160.173 92.273 160.173 92.647 160.173 93.527 159.447 94.121 158.369 94.121 157.214 94.121 156.565 93.582 156.477 92.559L157.302 92.559C157.357 93.131 157.731 93.439 158.369 93.439 158.941 93.439 159.315 93.142 159.315 92.691 159.315 92.251 159.029 92.031 158.16 91.811 157.06 91.514 156.565 91.052 156.565 90.282 156.565 89.402 157.28 88.808 158.347 88.808 159.425 88.808 160.074 89.358 160.118 90.315zM164.408 88.929L165.255 88.929 165.255 92.174C165.255 92.867 165.123 93.252 164.749 93.593 164.375 93.934 163.858 94.121 163.286 94.121 162.714 94.121 162.186 93.923 161.823 93.582 161.482 93.252 161.317 92.79 161.317 92.174L161.317 88.929 162.153 88.929 162.153 92.152C162.153 92.867 162.615 93.373 163.286 93.373 163.638 93.373 163.979 93.23 164.188 92.988 164.353 92.79 164.408 92.581 164.408 92.174L164.408 88.929zM170.623 89.765L170.623 88.929 171.459 88.929 171.459 94 170.623 94 170.623 93.021C170.117 93.78 169.545 94.121 168.775 94.121 167.378 94.121 166.388 93.021 166.388 91.481 166.388 89.93 167.4 88.808 168.797 88.808 169.567 88.808 170.128 89.105 170.623 89.765zM168.918 89.556C168.368 89.556 167.983 89.743 167.686 90.161 167.422 90.524 167.268 91.008 167.268 91.503 167.268 92.581 167.972 93.395 168.896 93.395 169.853 93.395 170.634 92.504 170.634 91.415 170.634 90.315 169.93 89.556 168.918 89.556zM173.978 94L173.142 94 173.142 86.663 173.978 86.663 173.978 94zM176.497 94L175.661 94 175.661 86.663 176.497 86.663 176.497 94zM179.665 92.691L181.183 88.929 182.096 88.929 179.071 96.442 178.158 96.442 179.214 93.846 177.41 88.929 178.301 88.929 179.665 92.691zM189.73 92.801L190.247 93.373C189.675 93.89 189.114 94.121 188.377 94.121 186.925 94.121 185.891 93.021 185.891 91.481 185.891 89.908 186.936 88.808 188.421 88.808 189.147 88.808 189.741 89.05 190.269 89.567L189.73 90.106C189.345 89.754 188.916 89.578 188.443 89.578 187.442 89.578 186.749 90.348 186.749 91.448 186.749 92.57 187.442 93.351 188.432 93.351 188.927 93.351 189.323 93.186 189.73 92.801zM193.514 88.808C195.01 88.808 196.077 89.919 196.077 91.481 196.077 92.966 194.933 94.121 193.481 94.121 191.974 94.121 190.918 93.021 190.918 91.459 190.918 89.886 191.974 88.808 193.514 88.808zM193.514 89.578C192.469 89.578 191.776 90.337 191.776 91.47 191.776 92.592 192.469 93.351 193.503 93.351 194.504 93.351 195.219 92.57 195.219 91.47 195.219 90.337 194.537 89.578 193.514 89.578zM197.353 88.929L198.189 88.929 198.189 89.644C198.629 89.05 199.069 88.808 199.696 88.808 200.158 88.808 200.576 88.962 200.873 89.226 201.192 89.534 201.302 89.886 201.302 90.579L201.302 94 200.466 94 200.466 90.766C200.466 90.315 200.411 90.073 200.279 89.897 200.125 89.688 199.828 89.556 199.487 89.556 199.113 89.556 198.772 89.699 198.519 89.985 198.277 90.249 198.189 90.491 198.189 90.909L198.189 94 197.353 94 197.353 88.929zM203.843 89.666L203.843 92.966C203.854 93.219 203.92 93.274 204.228 93.274L204.613 93.274 204.613 94 203.832 94C203.238 93.989 203.007 93.769 203.007 93.208L203.007 89.666 202.303 89.666 202.303 88.929 203.007 88.929 203.007 87.334 203.843 87.334 203.843 88.929 204.613 88.929 204.613 89.666 203.843 89.666zM209.629 89.765L209.629 88.929 210.465 88.929 210.465 94 209.629 94 209.629 93.021C209.123 93.78 208.551 94.121 207.781 94.121 206.384 94.121 205.394 93.021 205.394 91.481 205.394 89.93 206.406 88.808 207.803 88.808 208.573 88.808 209.134 89.105 209.629 89.765zM207.924 89.556C207.374 89.556 206.989 89.743 206.692 90.161 206.428 90.524 206.274 91.008 206.274 91.503 206.274 92.581 206.978 93.395 207.902 93.395 208.859 93.395 209.64 92.504 209.64 91.415 209.64 90.315 208.936 89.556 207.924 89.556zM212.984 88.929L212.984 94 212.148 94 212.148 88.929 212.984 88.929zM212.577 86.96C212.874 86.96 213.105 87.202 213.105 87.51 213.105 87.807 212.863 88.038 212.566 88.038 212.269 88.038 212.038 87.807 212.038 87.499 212.038 87.191 212.269 86.96 212.577 86.96zM214.667 88.929L215.503 88.929 215.503 89.644C215.943 89.05 216.383 88.808 217.01 88.808 217.472 88.808 217.89 88.962 218.187 89.226 218.506 89.534 218.616 89.886 218.616 90.579L218.616 94 217.78 94 217.78 90.766C217.78 90.315 217.725 90.073 217.593 89.897 217.439 89.688 217.142 89.556 216.801 89.556 216.427 89.556 216.086 89.699 215.833 89.985 215.591 90.249 215.503 90.491 215.503 90.909L215.503 94 214.667 94 214.667 88.929zM223.445 90.315L222.609 90.315 222.609 90.26C222.609 89.787 222.224 89.49 221.641 89.49 221.08 89.49 220.728 89.776 220.728 90.216 220.728 90.656 220.948 90.821 221.861 91.074 222.51 91.25 222.851 91.415 223.093 91.657 223.346 91.91 223.5 92.273 223.5 92.647 223.5 93.527 222.774 94.121 221.696 94.121 220.541 94.121 219.892 93.582 219.804 92.559L220.629 92.559C220.684 93.131 221.058 93.439 221.696 93.439 222.268 93.439 222.642 93.142 222.642 92.691 222.642 92.251 222.356 92.031 221.487 91.811 220.387 91.514 219.892 91.052 219.892 90.282 219.892 89.402 220.607 88.808 221.674 88.808 222.752 88.808 223.401 89.358 223.445 90.315zM228.923 94L228.087 94 228.087 86.663 228.923 86.663 228.923 94zM231.442 88.929L231.442 94 230.606 94 230.606 88.929 231.442 88.929zM231.035 86.96C231.332 86.96 231.563 87.202 231.563 87.51 231.563 87.807 231.321 88.038 231.024 88.038 230.727 88.038 230.496 87.807 230.496 87.499 230.496 87.191 230.727 86.96 231.035 86.96zM236.304 90.315L235.468 90.315 235.468 90.26C235.468 89.787 235.083 89.49 234.5 89.49 233.939 89.49 233.587 89.776 233.587 90.216 233.587 90.656 233.807 90.821 234.72 91.074 235.369 91.25 235.71 91.415 235.952 91.657 236.205 91.91 236.359 92.273 236.359 92.647 236.359 93.527 235.633 94.121 234.555 94.121 233.4 94.121 232.751 93.582 232.663 92.559L233.488 92.559C233.543 93.131 233.917 93.439 234.555 93.439 235.127 93.439 235.501 93.142 235.501 92.691 235.501 92.251 235.215 92.031 234.346 91.811 233.246 91.514 232.751 91.052 232.751 90.282 232.751 89.402 233.466 88.808 234.533 88.808 235.611 88.808 236.26 89.358 236.304 90.315zM238.537 89.666L238.537 92.966C238.548 93.219 238.614 93.274 238.922 93.274L239.307 93.274 239.307 94 238.526 94C237.932 93.989 237.701 93.769 237.701 93.208L237.701 89.666 236.997 89.666 236.997 88.929 237.701 88.929 237.701 87.334 238.537 87.334 238.537 88.929 239.307 88.929 239.307 89.666 238.537 89.666zM246.809 88.929L247.678 88.929 245.764 94 244.884 94 243.025 88.929 243.905 88.929 245.335 92.801 246.809 88.929zM249.416 88.929L249.416 94 248.58 94 248.58 88.929 249.416 88.929zM249.009 86.96C249.306 86.96 249.537 87.202 249.537 87.51 249.537 87.807 249.295 88.038 248.998 88.038 248.701 88.038 248.47 87.807 248.47 87.499 248.47 87.191 248.701 86.96 249.009 86.96zM255.807 91.734L251.583 91.734C251.627 92.163 251.704 92.383 251.913 92.658 252.243 93.109 252.727 93.351 253.277 93.351 253.904 93.351 254.498 93.01 254.795 92.482L255.532 92.757C255.114 93.604 254.245 94.121 253.277 94.121 251.77 94.121 250.692 93.021 250.692 91.481 250.692 89.919 251.759 88.808 253.244 88.808 254.718 88.808 255.818 89.919 255.818 91.404 255.818 91.47 255.818 91.613 255.807 91.734zM251.594 91.118L254.927 91.118C254.894 90.722 254.817 90.502 254.641 90.249 254.322 89.82 253.805 89.556 253.244 89.556 252.683 89.556 252.177 89.82 251.88 90.26 251.726 90.502 251.66 90.711 251.594 91.118zM262.88 88.929L263.738 88.929 261.934 94 261.175 94 260.009 90.15 258.788 94 257.996 94 256.258 88.929 257.116 88.929 258.414 92.658 259.58 88.929 260.405 88.929 261.549 92.658 262.88 88.929zM267.819 90.315L266.983 90.315 266.983 90.26C266.983 89.787 266.598 89.49 266.015 89.49 265.454 89.49 265.102 89.776 265.102 90.216 265.102 90.656 265.322 90.821 266.235 91.074 266.884 91.25 267.225 91.415 267.467 91.657 267.72 91.91 267.874 92.273 267.874 92.647 267.874 93.527 267.148 94.121 266.07 94.121 264.915 94.121 264.266 93.582 264.178 92.559L265.003 92.559C265.058 93.131 265.432 93.439 266.07 93.439 266.642 93.439 267.016 93.142 267.016 92.691 267.016 92.251 266.73 92.031 265.861 91.811 264.761 91.514 264.266 91.052 264.266 90.282 264.266 89.402 264.981 88.808 266.048 88.808 267.126 88.808 267.775 89.358 267.819 90.315zM269.59 92.944C269.92 92.944 270.162 93.186 270.162 93.527 270.162 93.846 269.909 94.088 269.59 94.088 269.26 94.088 269.018 93.846 269.018 93.516 269.018 93.186 269.26 92.944 269.59 92.944zM587.198 81.031L588.078 81.031C588.122 81.867 588.573 82.307 589.376 82.307 590.201 82.307 590.784 81.801 590.784 81.064 590.784 80.426 590.454 80.129 589.299 79.744 588.43 79.447 588.144 79.304 587.814 79.007 587.44 78.666 587.242 78.182 587.242 77.621 587.242 76.378 588.133 75.531 589.431 75.531 590.729 75.531 591.576 76.356 591.609 77.632L590.685 77.632C590.674 77.258 590.63 77.082 590.509 76.873 590.3 76.554 589.893 76.356 589.42 76.356 588.694 76.356 588.177 76.851 588.177 77.555 588.177 77.907 588.331 78.215 588.595 78.402 588.826 78.567 589.024 78.655 589.772 78.919 590.553 79.194 590.927 79.392 591.224 79.711 591.543 80.052 591.719 80.514 591.719 81.009 591.719 82.274 590.784 83.132 589.409 83.132 588.474 83.132 587.836 82.802 587.451 82.142 587.275 81.845 587.198 81.537 587.198 81.185L587.198 81.031zM593.006 77.929L593.842 77.929 593.842 78.644C594.282 78.05 594.722 77.808 595.349 77.808 595.811 77.808 596.229 77.962 596.526 78.226 596.845 78.534 596.955 78.886 596.955 79.579L596.955 83 596.119 83 596.119 79.766C596.119 79.315 596.064 79.073 595.932 78.897 595.778 78.688 595.481 78.556 595.14 78.556 594.766 78.556 594.425 78.699 594.172 78.985 593.93 79.249 593.842 79.491 593.842 79.909L593.842 83 593.006 83 593.006 77.929zM602.433 78.765L602.433 77.929 603.269 77.929 603.269 83 602.433 83 602.433 82.021C601.927 82.78 601.355 83.121 600.585 83.121 599.188 83.121 598.198 82.021 598.198 80.481 598.198 78.93 599.21 77.808 600.607 77.808 601.377 77.808 601.938 78.105 602.433 78.765zM600.728 78.556C600.178 78.556 599.793 78.743 599.496 79.161 599.232 79.524 599.078 80.008 599.078 80.503 599.078 81.581 599.782 82.395 600.706 82.395 601.663 82.395 602.444 81.504 602.444 80.415 602.444 79.315 601.74 78.556 600.728 78.556zM608.384 81.801L608.901 82.373C608.329 82.89 607.768 83.121 607.031 83.121 605.579 83.121 604.545 82.021 604.545 80.481 604.545 78.908 605.59 77.808 607.075 77.808 607.801 77.808 608.395 78.05 608.923 78.567L608.384 79.106C607.999 78.754 607.57 78.578 607.097 78.578 606.096 78.578 605.403 79.348 605.403 80.448 605.403 81.57 606.096 82.351 607.086 82.351 607.581 82.351 607.977 82.186 608.384 81.801zM610.815 80.734L610.815 83 609.979 83 609.979 75.663 610.815 75.663 610.815 80.151 612.839 77.929 613.895 77.929 611.629 80.404 613.884 83 612.839 83 610.815 80.734zM615.699 82.131L615.699 83 614.863 83 614.863 75.663 615.699 75.663 615.699 78.798C616.205 78.105 616.744 77.808 617.481 77.808 618.9 77.808 619.89 78.908 619.89 80.481 619.89 82.032 618.911 83.121 617.525 83.121 616.744 83.121 616.194 82.824 615.699 82.131zM617.371 78.556C616.403 78.556 615.688 79.359 615.688 80.47 615.688 81.625 616.348 82.395 617.338 82.395 618.339 82.395 619.01 81.636 619.01 80.503 619.01 79.37 618.328 78.556 617.371 78.556zM624.994 78.765L624.994 77.929 625.83 77.929 625.83 83 624.994 83 624.994 82.021C624.488 82.78 623.916 83.121 623.146 83.121 621.749 83.121 620.759 82.021 620.759 80.481 620.759 78.93 621.771 77.808 623.168 77.808 623.938 77.808 624.499 78.105 624.994 78.765zM623.289 78.556C622.739 78.556 622.354 78.743 622.057 79.161 621.793 79.524 621.639 80.008 621.639 80.503 621.639 81.581 622.343 82.395 623.267 82.395 624.224 82.395 625.005 81.504 625.005 80.415 625.005 79.315 624.301 78.556 623.289 78.556zM627.513 77.929L628.349 77.929 628.349 78.787C628.503 78.424 628.613 78.27 628.811 78.116 629.064 77.918 629.416 77.808 629.779 77.808L629.977 77.808 629.977 78.655C629.889 78.644 629.801 78.644 629.746 78.644 629.295 78.644 628.899 78.853 628.646 79.227 628.426 79.546 628.349 79.843 628.349 80.426L628.349 83 627.513 83 627.513 77.929zM634.311 77.929L635.147 77.929 635.147 78.633C635.532 78.05 635.961 77.808 636.588 77.808 637.281 77.808 637.721 78.105 637.952 78.732 638.326 78.083 638.799 77.808 639.558 77.808 640.141 77.808 640.581 77.995 640.845 78.347 641.087 78.666 641.153 78.952 641.153 79.755L641.153 83 640.317 83 640.317 79.953C640.317 79.337 640.295 79.194 640.174 78.985 640.02 78.721 639.69 78.556 639.294 78.556 638.557 78.556 638.15 79.051 638.15 79.953L638.15 83 637.314 83 637.314 79.964C637.314 79.469 637.27 79.216 637.149 78.996 637.006 78.71 636.698 78.556 636.324 78.556 635.587 78.556 635.147 79.084 635.147 79.964L635.147 83 634.311 83 634.311 77.929zM647.511 80.734L643.287 80.734C643.331 81.163 643.408 81.383 643.617 81.658 643.947 82.109 644.431 82.351 644.981 82.351 645.608 82.351 646.202 82.01 646.499 81.482L647.236 81.757C646.818 82.604 645.949 83.121 644.981 83.121 643.474 83.121 642.396 82.021 642.396 80.481 642.396 78.919 643.463 77.808 644.948 77.808 646.422 77.808 647.522 78.919 647.522 80.404 647.522 80.47 647.522 80.613 647.511 80.734zM643.298 80.118L646.631 80.118C646.598 79.722 646.521 79.502 646.345 79.249 646.026 78.82 645.509 78.556 644.948 78.556 644.387 78.556 643.881 78.82 643.584 79.26 643.43 79.502 643.364 79.711 643.298 80.118zM651.911 79.315L651.075 79.315 651.075 79.26C651.075 78.787 650.69 78.49 650.107 78.49 649.546 78.49 649.194 78.776 649.194 79.216 649.194 79.656 649.414 79.821 650.327 80.074 650.976 80.25 651.317 80.415 651.559 80.657 651.812 80.91 651.966 81.273 651.966 81.647 651.966 82.527 651.24 83.121 650.162 83.121 649.007 83.121 648.358 82.582 648.27 81.559L649.095 81.559C649.15 82.131 649.524 82.439 650.162 82.439 650.734 82.439 651.108 82.142 651.108 81.691 651.108 81.251 650.822 81.031 649.953 80.811 648.853 80.514 648.358 80.052 648.358 79.282 648.358 78.402 649.073 77.808 650.14 77.808 651.218 77.808 651.867 78.358 651.911 79.315zM656.432 79.315L655.596 79.315 655.596 79.26C655.596 78.787 655.211 78.49 654.628 78.49 654.067 78.49 653.715 78.776 653.715 79.216 653.715 79.656 653.935 79.821 654.848 80.074 655.497 80.25 655.838 80.415 656.08 80.657 656.333 80.91 656.487 81.273 656.487 81.647 656.487 82.527 655.761 83.121 654.683 83.121 653.528 83.121 652.879 82.582 652.791 81.559L653.616 81.559C653.671 82.131 654.045 82.439 654.683 82.439 655.255 82.439 655.629 82.142 655.629 81.691 655.629 81.251 655.343 81.031 654.474 80.811 653.374 80.514 652.879 80.052 652.879 79.282 652.879 78.402 653.594 77.808 654.661 77.808 655.739 77.808 656.388 78.358 656.432 79.315zM661.602 78.765L661.602 77.929 662.438 77.929 662.438 83 661.602 83 661.602 82.021C661.096 82.78 660.524 83.121 659.754 83.121 658.357 83.121 657.367 82.021 657.367 80.481 657.367 78.93 658.379 77.808 659.776 77.808 660.546 77.808 661.107 78.105 661.602 78.765zM659.897 78.556C659.347 78.556 658.962 78.743 658.665 79.161 658.401 79.524 658.247 80.008 658.247 80.503 658.247 81.581 658.951 82.395 659.875 82.395 660.832 82.395 661.613 81.504 661.613 80.415 661.613 79.315 660.909 78.556 659.897 78.556zM667.872 78.798L667.872 77.929 668.708 77.929 668.708 83.033C668.708 83.88 668.499 84.452 668.037 84.892 667.586 85.332 666.937 85.563 666.167 85.563 665.221 85.563 664.473 85.255 663.923 84.639L664.495 84.067C664.726 84.309 664.836 84.408 664.979 84.507 665.265 84.683 665.738 84.804 666.167 84.804 666.695 84.804 667.201 84.617 667.487 84.309 667.74 84.034 667.872 83.627 667.872 83.099L667.872 82.032C667.377 82.78 666.794 83.121 666.002 83.121 664.66 83.121 663.659 81.988 663.659 80.481 663.659 79.667 663.956 78.886 664.462 78.402 664.869 78.006 665.419 77.808 666.068 77.808 666.838 77.808 667.355 78.094 667.872 78.798zM666.222 78.578C665.232 78.578 664.539 79.348 664.539 80.448 664.539 81.537 665.243 82.351 666.2 82.351 666.684 82.351 667.157 82.12 667.487 81.735 667.707 81.482 667.85 80.987 667.85 80.481 667.85 79.821 667.751 79.469 667.454 79.139 667.146 78.798 666.673 78.578 666.222 78.578zM675.099 80.734L670.875 80.734C670.919 81.163 670.996 81.383 671.205 81.658 671.535 82.109 672.019 82.351 672.569 82.351 673.196 82.351 673.79 82.01 674.087 81.482L674.824 81.757C674.406 82.604 673.537 83.121 672.569 83.121 671.062 83.121 669.984 82.021 669.984 80.481 669.984 78.919 671.051 77.808 672.536 77.808 674.01 77.808 675.11 78.919 675.11 80.404 675.11 80.47 675.11 80.613 675.099 80.734zM670.886 80.118L674.219 80.118C674.186 79.722 674.109 79.502 673.933 79.249 673.614 78.82 673.097 78.556 672.536 78.556 671.975 78.556 671.469 78.82 671.172 79.26 671.018 79.502 670.952 79.711 670.886 80.118zM679.499 79.315L678.663 79.315 678.663 79.26C678.663 78.787 678.278 78.49 677.695 78.49 677.134 78.49 676.782 78.776 676.782 79.216 676.782 79.656 677.002 79.821 677.915 80.074 678.564 80.25 678.905 80.415 679.147 80.657 679.4 80.91 679.554 81.273 679.554 81.647 679.554 82.527 678.828 83.121 677.75 83.121 676.595 83.121 675.946 82.582 675.858 81.559L676.683 81.559C676.738 82.131 677.112 82.439 677.75 82.439 678.322 82.439 678.696 82.142 678.696 81.691 678.696 81.251 678.41 81.031 677.541 80.811 676.441 80.514 675.946 80.052 675.946 79.282 675.946 78.402 676.661 77.808 677.728 77.808 678.806 77.808 679.455 78.358 679.499 79.315zM684.141 77.929L684.977 77.929 684.977 78.787C685.131 78.424 685.241 78.27 685.439 78.116 685.692 77.918 686.044 77.808 686.407 77.808L686.605 77.808 686.605 78.655C686.517 78.644 686.429 78.644 686.374 78.644 685.923 78.644 685.527 78.853 685.274 79.227 685.054 79.546 684.977 79.843 684.977 80.426L684.977 83 684.141 83 684.141 77.929zM692.347 80.734L688.123 80.734C688.167 81.163 688.244 81.383 688.453 81.658 688.783 82.109 689.267 82.351 689.817 82.351 690.444 82.351 691.038 82.01 691.335 81.482L692.072 81.757C691.654 82.604 690.785 83.121 689.817 83.121 688.31 83.121 687.232 82.021 687.232 80.481 687.232 78.919 688.299 77.808 689.784 77.808 691.258 77.808 692.358 78.919 692.358 80.404 692.358 80.47 692.358 80.613 692.347 80.734zM688.134 80.118L691.467 80.118C691.434 79.722 691.357 79.502 691.181 79.249 690.862 78.82 690.345 78.556 689.784 78.556 689.223 78.556 688.717 78.82 688.42 79.26 688.266 79.502 688.2 79.711 688.134 80.118zM694.404 83L693.568 83 693.568 75.663 694.404 75.663 694.404 83zM699.915 78.765L699.915 77.929 700.751 77.929 700.751 83 699.915 83 699.915 82.021C699.409 82.78 698.837 83.121 698.067 83.121 696.67 83.121 695.68 82.021 695.68 80.481 695.68 78.93 696.692 77.808 698.089 77.808 698.859 77.808 699.42 78.105 699.915 78.765zM698.21 78.556C697.66 78.556 697.275 78.743 696.978 79.161 696.714 79.524 696.56 80.008 696.56 80.503 696.56 81.581 697.264 82.395 698.188 82.395 699.145 82.395 699.926 81.504 699.926 80.415 699.926 79.315 699.222 78.556 698.21 78.556zM703.325 78.666L703.325 81.966C703.336 82.219 703.402 82.274 703.71 82.274L704.095 82.274 704.095 83 703.314 83C702.72 82.989 702.489 82.769 702.489 82.208L702.489 78.666 701.785 78.666 701.785 77.929 702.489 77.929 702.489 76.334 703.325 76.334 703.325 77.929 704.095 77.929 704.095 78.666 703.325 78.666zM709.991 80.734L705.767 80.734C705.811 81.163 705.888 81.383 706.097 81.658 706.427 82.109 706.911 82.351 707.461 82.351 708.088 82.351 708.682 82.01 708.979 81.482L709.716 81.757C709.298 82.604 708.429 83.121 707.461 83.121 705.954 83.121 704.876 82.021 704.876 80.481 704.876 78.919 705.943 77.808 707.428 77.808 708.902 77.808 710.002 78.919 710.002 80.404 710.002 80.47 710.002 80.613 709.991 80.734zM705.778 80.118L709.111 80.118C709.078 79.722 709.001 79.502 708.825 79.249 708.506 78.82 707.989 78.556 707.428 78.556 706.867 78.556 706.361 78.82 706.064 79.26 705.91 79.502 705.844 79.711 705.778 80.118zM715.007 78.699L715.007 75.663 715.843 75.663 715.843 83 715.007 83 715.007 82.131C714.501 82.824 713.962 83.121 713.192 83.121 711.795 83.121 710.805 82.032 710.805 80.492 710.805 78.952 711.817 77.808 713.192 77.808 713.94 77.808 714.512 78.083 715.007 78.699zM713.368 78.556C712.367 78.556 711.685 79.348 711.685 80.503 711.685 81.614 712.356 82.395 713.313 82.395 714.292 82.395 715.007 81.581 715.007 80.481 715.007 79.337 714.336 78.556 713.368 78.556zM721.717 78.666L721.717 81.966C721.728 82.219 721.794 82.274 722.102 82.274L722.487 82.274 722.487 83 721.706 83C721.112 82.989 720.881 82.769 720.881 82.208L720.881 78.666 720.177 78.666 720.177 77.929 720.881 77.929 720.881 76.334 721.717 76.334 721.717 77.929 722.487 77.929 722.487 78.666 721.717 78.666zM725.864 77.808C727.36 77.808 728.427 78.919 728.427 80.481 728.427 81.966 727.283 83.121 725.831 83.121 724.324 83.121 723.268 82.021 723.268 80.459 723.268 78.886 724.324 77.808 725.864 77.808zM725.864 78.578C724.819 78.578 724.126 79.337 724.126 80.47 724.126 81.592 724.819 82.351 725.853 82.351 726.854 82.351 727.569 81.57 727.569 80.47 727.569 79.337 726.887 78.578 725.864 78.578zM733.894 78.666L733.894 81.966C733.905 82.219 733.971 82.274 734.279 82.274L734.664 82.274 734.664 83 733.883 83C733.289 82.989 733.058 82.769 733.058 82.208L733.058 78.666 732.354 78.666 732.354 77.929 733.058 77.929 733.058 76.334 733.894 76.334 733.894 77.929 734.664 77.929 734.664 78.666 733.894 78.666zM736.688 75.663L736.688 78.633C737.15 78.061 737.612 77.808 738.217 77.808 738.657 77.808 739.119 77.984 739.394 78.27 739.669 78.545 739.79 78.941 739.79 79.59L739.79 83 738.954 83 738.954 79.634C738.954 78.941 738.613 78.556 738.008 78.556 737.623 78.556 737.282 78.71 737.018 79.007 736.765 79.293 736.688 79.546 736.688 80.03L736.688 83 735.852 83 735.852 75.663 736.688 75.663zM746.148 80.734L741.924 80.734C741.968 81.163 742.045 81.383 742.254 81.658 742.584 82.109 743.068 82.351 743.618 82.351 744.245 82.351 744.839 82.01 745.136 81.482L745.873 81.757C745.455 82.604 744.586 83.121 743.618 83.121 742.111 83.121 741.033 82.021 741.033 80.481 741.033 78.919 742.1 77.808 743.585 77.808 745.059 77.808 746.159 78.919 746.159 80.404 746.159 80.47 746.159 80.613 746.148 80.734zM741.935 80.118L745.268 80.118C745.235 79.722 745.158 79.502 744.982 79.249 744.663 78.82 744.146 78.556 743.585 78.556 743.024 78.556 742.518 78.82 742.221 79.26 742.067 79.502 742.001 79.711 741.935 80.118zM750.669 77.929L751.505 77.929 751.505 78.787C751.659 78.424 751.769 78.27 751.967 78.116 752.22 77.918 752.572 77.808 752.935 77.808L753.133 77.808 753.133 78.655C753.045 78.644 752.957 78.644 752.902 78.644 752.451 78.644 752.055 78.853 751.802 79.227 751.582 79.546 751.505 79.843 751.505 80.426L751.505 83 750.669 83 750.669 77.929zM755.003 77.929L755.003 83 754.167 83 754.167 77.929 755.003 77.929zM754.596 75.96C754.893 75.96 755.124 76.202 755.124 76.51 755.124 76.807 754.882 77.038 754.585 77.038 754.288 77.038 754.057 76.807 754.057 76.499 754.057 76.191 754.288 75.96 754.596 75.96zM760.437 78.798L760.437 77.929 761.273 77.929 761.273 83.033C761.273 83.88 761.064 84.452 760.602 84.892 760.151 85.332 759.502 85.563 758.732 85.563 757.786 85.563 757.038 85.255 756.488 84.639L757.06 84.067C757.291 84.309 757.401 84.408 757.544 84.507 757.83 84.683 758.303 84.804 758.732 84.804 759.26 84.804 759.766 84.617 760.052 84.309 760.305 84.034 760.437 83.627 760.437 83.099L760.437 82.032C759.942 82.78 759.359 83.121 758.567 83.121 757.225 83.121 756.224 81.988 756.224 80.481 756.224 79.667 756.521 78.886 757.027 78.402 757.434 78.006 757.984 77.808 758.633 77.808 759.403 77.808 759.92 78.094 760.437 78.798zM758.787 78.578C757.797 78.578 757.104 79.348 757.104 80.448 757.104 81.537 757.808 82.351 758.765 82.351 759.249 82.351 759.722 82.12 760.052 81.735 760.272 81.482 760.415 80.987 760.415 80.481 760.415 79.821 760.316 79.469 760.019 79.139 759.711 78.798 759.238 78.578 758.787 78.578zM763.792 75.663L763.792 78.633C764.254 78.061 764.716 77.808 765.321 77.808 765.761 77.808 766.223 77.984 766.498 78.27 766.773 78.545 766.894 78.941 766.894 79.59L766.894 83 766.058 83 766.058 79.634C766.058 78.941 765.717 78.556 765.112 78.556 764.727 78.556 764.386 78.71 764.122 79.007 763.869 79.293 763.792 79.546 763.792 80.03L763.792 83 762.956 83 762.956 75.663 763.792 75.663zM769.435 78.666L769.435 81.966C769.446 82.219 769.512 82.274 769.82 82.274L770.205 82.274 770.205 83 769.424 83C768.83 82.989 768.599 82.769 768.599 82.208L768.599 78.666 767.895 78.666 767.895 77.929 768.599 77.929 768.599 76.334 769.435 76.334 769.435 77.929 770.205 77.929 770.205 78.666 769.435 78.666zM772.834 79.953L772.834 80.712 770.557 80.712 770.557 79.953 772.834 79.953zM773.67 77.929L774.506 77.929 774.506 78.853C774.99 78.105 775.507 77.808 776.354 77.808 777.762 77.808 778.741 78.886 778.741 80.426 778.741 82.021 777.762 83.121 776.354 83.121 775.958 83.121 775.595 83.033 775.243 82.857 774.935 82.703 774.781 82.571 774.506 82.208L774.506 85.376 773.67 85.376 773.67 77.929zM776.211 78.556C775.199 78.556 774.506 79.359 774.506 80.547 774.506 81.658 775.177 82.395 776.178 82.395 777.179 82.395 777.85 81.614 777.85 80.459 777.85 79.865 777.707 79.414 777.41 79.084 777.113 78.754 776.662 78.556 776.211 78.556zM783.834 78.765L783.834 77.929 784.67 77.929 784.67 83 783.834 83 783.834 82.021C783.328 82.78 782.756 83.121 781.986 83.121 780.589 83.121 779.599 82.021 779.599 80.481 779.599 78.93 780.611 77.808 782.008 77.808 782.778 77.808 783.339 78.105 783.834 78.765zM782.129 78.556C781.579 78.556 781.194 78.743 780.897 79.161 780.633 79.524 780.479 80.008 780.479 80.503 780.479 81.581 781.183 82.395 782.107 82.395 783.064 82.395 783.845 81.504 783.845 80.415 783.845 79.315 783.141 78.556 782.129 78.556zM786.353 77.929L787.189 77.929 787.189 78.644C787.629 78.05 788.069 77.808 788.696 77.808 789.158 77.808 789.576 77.962 789.873 78.226 790.192 78.534 790.302 78.886 790.302 79.579L790.302 83 789.466 83 789.466 79.766C789.466 79.315 789.411 79.073 789.279 78.897 789.125 78.688 788.828 78.556 788.487 78.556 788.113 78.556 787.772 78.699 787.519 78.985 787.277 79.249 787.189 79.491 787.189 79.909L787.189 83 786.353 83 786.353 77.929zM796.66 80.734L792.436 80.734C792.48 81.163 792.557 81.383 792.766 81.658 793.096 82.109 793.58 82.351 794.13 82.351 794.757 82.351 795.351 82.01 795.648 81.482L796.385 81.757C795.967 82.604 795.098 83.121 794.13 83.121 792.623 83.121 791.545 82.021 791.545 80.481 791.545 78.919 792.612 77.808 794.097 77.808 795.571 77.808 796.671 78.919 796.671 80.404 796.671 80.47 796.671 80.613 796.66 80.734zM792.447 80.118L795.78 80.118C795.747 79.722 795.67 79.502 795.494 79.249 795.175 78.82 794.658 78.556 794.097 78.556 793.536 78.556 793.03 78.82 792.733 79.26 792.579 79.502 792.513 79.711 792.447 80.118zM798.904 82.142L797.793 84.749 797.188 84.562 798.112 81.889 798.904 82.142zM809.574 77.929L810.432 77.929 808.628 83 807.869 83 806.703 79.15 805.482 83 804.69 83 802.952 77.929 803.81 77.929 805.108 81.658 806.274 77.929 807.099 77.929 808.243 81.658 809.574 77.929zM812.17 75.663L812.17 78.633C812.632 78.061 813.094 77.808 813.699 77.808 814.139 77.808 814.601 77.984 814.876 78.27 815.151 78.545 815.272 78.941 815.272 79.59L815.272 83 814.436 83 814.436 79.634C814.436 78.941 814.095 78.556 813.49 78.556 813.105 78.556 812.764 78.71 812.5 79.007 812.247 79.293 812.17 79.546 812.17 80.03L812.17 83 811.334 83 811.334 75.663 812.17 75.663zM817.758 77.929L817.758 83 816.922 83 816.922 77.929 817.758 77.929zM817.351 75.96C817.648 75.96 817.879 76.202 817.879 76.51 817.879 76.807 817.637 77.038 817.34 77.038 817.043 77.038 816.812 76.807 816.812 76.499 816.812 76.191 817.043 75.96 817.351 75.96zM822.873 81.801L823.39 82.373C822.818 82.89 822.257 83.121 821.52 83.121 820.068 83.121 819.034 82.021 819.034 80.481 819.034 78.908 820.079 77.808 821.564 77.808 822.29 77.808 822.884 78.05 823.412 78.567L822.873 79.106C822.488 78.754 822.059 78.578 821.586 78.578 820.585 78.578 819.892 79.348 819.892 80.448 819.892 81.57 820.585 82.351 821.575 82.351 822.07 82.351 822.466 82.186 822.873 81.801zM825.304 75.663L825.304 78.633C825.766 78.061 826.228 77.808 826.833 77.808 827.273 77.808 827.735 77.984 828.01 78.27 828.285 78.545 828.406 78.941 828.406 79.59L828.406 83 827.57 83 827.57 79.634C827.57 78.941 827.229 78.556 826.624 78.556 826.239 78.556 825.898 78.71 825.634 79.007 825.381 79.293 825.304 79.546 825.304 80.03L825.304 83 824.468 83 824.468 75.663 825.304 75.663zM598.5005 88.929L599.3475 88.929 599.3475 92.174C599.3475 92.867 599.2155 93.252 598.8415 93.593 598.4675 93.934 597.9505 94.121 597.3785 94.121 596.8065 94.121 596.2785 93.923 595.9155 93.582 595.5745 93.252 595.4095 92.79 595.4095 92.174L595.4095 88.929 596.2455 88.929 596.2455 92.152C596.2455 92.867 596.7075 93.373 597.3785 93.373 597.7305 93.373 598.0715 93.23 598.2805 92.988 598.4455 92.79 598.5005 92.581 598.5005 92.174L598.5005 88.929zM604.0665 90.315L603.2305 90.315 603.2305 90.26C603.2305 89.787 602.8455 89.49 602.2625 89.49 601.7015 89.49 601.3495 89.776 601.3495 90.216 601.3495 90.656 601.5695 90.821 602.4825 91.074 603.1315 91.25 603.4725 91.415 603.7145 91.657 603.9675 91.91 604.1215 92.273 604.1215 92.647 604.1215 93.527 603.3955 94.121 602.3175 94.121 601.1625 94.121 600.5135 93.582 600.4255 92.559L601.2505 92.559C601.3055 93.131 601.6795 93.439 602.3175 93.439 602.8895 93.439 603.2635 93.142 603.2635 92.691 603.2635 92.251 602.9775 92.031 602.1085 91.811 601.0085 91.514 600.5135 91.052 600.5135 90.282 600.5135 89.402 601.2285 88.808 602.2955 88.808 603.3735 88.808 604.0225 89.358 604.0665 90.315zM608.3565 88.929L609.2035 88.929 609.2035 92.174C609.2035 92.867 609.0715 93.252 608.6975 93.593 608.3235 93.934 607.8065 94.121 607.2345 94.121 606.6625 94.121 606.1345 93.923 605.7715 93.582 605.4305 93.252 605.2655 92.79 605.2655 92.174L605.2655 88.929 606.1015 88.929 606.1015 92.152C606.1015 92.867 606.5635 93.373 607.2345 93.373 607.5865 93.373 607.9275 93.23 608.1365 92.988 608.3015 92.79 608.3565 92.581 608.3565 92.174L608.3565 88.929zM614.5715 89.765L614.5715 88.929 615.4075 88.929 615.4075 94 614.5715 94 614.5715 93.021C614.0655 93.78 613.4935 94.121 612.7235 94.121 611.3265 94.121 610.3365 93.021 610.3365 91.481 610.3365 89.93 611.3485 88.808 612.7455 88.808 613.5155 88.808 614.0765 89.105 614.5715 89.765zM612.8665 89.556C612.3165 89.556 611.9315 89.743 611.6345 90.161 611.3705 90.524 611.2165 91.008 611.2165 91.503 611.2165 92.581 611.9205 93.395 612.8445 93.395 613.8015 93.395 614.5825 92.504 614.5825 91.415 614.5825 90.315 613.8785 89.556 612.8665 89.556zM617.9265 94L617.0905 94 617.0905 86.663 617.9265 86.663 617.9265 94zM620.4455 94L619.6095 94 619.6095 86.663 620.4455 86.663 620.4455 94zM623.6135 92.691L625.1315 88.929 626.0445 88.929 623.0195 96.442 622.1065 96.442 623.1625 93.846 621.3585 88.929 622.2495 88.929 623.6135 92.691zM633.6785 92.801L634.1955 93.373C633.6235 93.89 633.0625 94.121 632.3255 94.121 630.8735 94.121 629.8395 93.021 629.8395 91.481 629.8395 89.908 630.8845 88.808 632.3695 88.808 633.0955 88.808 633.6895 89.05 634.2175 89.567L633.6785 90.106C633.2935 89.754 632.8645 89.578 632.3915 89.578 631.3905 89.578 630.6975 90.348 630.6975 91.448 630.6975 92.57 631.3905 93.351 632.3805 93.351 632.8755 93.351 633.2715 93.186 633.6785 92.801zM637.4625 88.808C638.9585 88.808 640.0255 89.919 640.0255 91.481 640.0255 92.966 638.8815 94.121 637.4295 94.121 635.9225 94.121 634.8665 93.021 634.8665 91.459 634.8665 89.886 635.9225 88.808 637.4625 88.808zM637.4625 89.578C636.4175 89.578 635.7245 90.337 635.7245 91.47 635.7245 92.592 636.4175 93.351 637.4515 93.351 638.4525 93.351 639.1675 92.57 639.1675 91.47 639.1675 90.337 638.4855 89.578 637.4625 89.578zM641.3015 88.929L642.1375 88.929 642.1375 89.644C642.5775 89.05 643.0175 88.808 643.6445 88.808 644.1065 88.808 644.5245 88.962 644.8215 89.226 645.1405 89.534 645.2505 89.886 645.2505 90.579L645.2505 94 644.4145 94 644.4145 90.766C644.4145 90.315 644.3595 90.073 644.2275 89.897 644.0735 89.688 643.7765 89.556 643.4355 89.556 643.0615 89.556 642.7205 89.699 642.4675 89.985 642.2255 90.249 642.1375 90.491 642.1375 90.909L642.1375 94 641.3015 94 641.3015 88.929zM647.7915 89.666L647.7915 92.966C647.8025 93.219 647.8685 93.274 648.1765 93.274L648.5615 93.274 648.5615 94 647.7805 94C647.1865 93.989 646.9555 93.769 646.9555 93.208L646.9555 89.666 646.2515 89.666 646.2515 88.929 646.9555 88.929 646.9555 87.334 647.7915 87.334 647.7915 88.929 648.5615 88.929 648.5615 89.666 647.7915 89.666zM653.5775 89.765L653.5775 88.929 654.4135 88.929 654.4135 94 653.5775 94 653.5775 93.021C653.0715 93.78 652.4995 94.121 651.7295 94.121 650.3325 94.121 649.3425 93.021 649.3425 91.481 649.3425 89.93 650.3545 88.808 651.7515 88.808 652.5215 88.808 653.0825 89.105 653.5775 89.765zM651.8725 89.556C651.3225 89.556 650.9375 89.743 650.6405 90.161 650.3765 90.524 650.2225 91.008 650.2225 91.503 650.2225 92.581 650.9265 93.395 651.8505 93.395 652.8075 93.395 653.5885 92.504 653.5885 91.415 653.5885 90.315 652.8845 89.556 651.8725 89.556zM656.9325 88.929L656.9325 94 656.0965 94 656.0965 88.929 656.9325 88.929zM656.5255 86.96C656.8225 86.96 657.0535 87.202 657.0535 87.51 657.0535 87.807 656.8115 88.038 656.5145 88.038 656.2175 88.038 655.9865 87.807 655.9865 87.499 655.9865 87.191 656.2175 86.96 656.5255 86.96zM658.6155 88.929L659.4515 88.929 659.4515 89.644C659.8915 89.05 660.3315 88.808 660.9585 88.808 661.4205 88.808 661.8385 88.962 662.1355 89.226 662.4545 89.534 662.5645 89.886 662.5645 90.579L662.5645 94 661.7285 94 661.7285 90.766C661.7285 90.315 661.6735 90.073 661.5415 89.897 661.3875 89.688 661.0905 89.556 660.7495 89.556 660.3755 89.556 660.0345 89.699 659.7815 89.985 659.5395 90.249 659.4515 90.491 659.4515 90.909L659.4515 94 658.6155 94 658.6155 88.929zM667.3935 90.315L666.5575 90.315 666.5575 90.26C666.5575 89.787 666.1725 89.49 665.5895 89.49 665.0285 89.49 664.6765 89.776 664.6765 90.216 664.6765 90.656 664.8965 90.821 665.8095 91.074 666.4585 91.25 666.7995 91.415 667.0415 91.657 667.2945 91.91 667.4485 92.273 667.4485 92.647 667.4485 93.527 666.7225 94.121 665.6445 94.121 664.4895 94.121 663.8405 93.582 663.7525 92.559L664.5775 92.559C664.6325 93.131 665.0065 93.439 665.6445 93.439 666.2165 93.439 666.5905 93.142 666.5905 92.691 666.5905 92.251 666.3045 92.031 665.4355 91.811 664.3355 91.514 663.8405 91.052 663.8405 90.282 663.8405 89.402 664.5555 88.808 665.6225 88.808 666.7005 88.808 667.3495 89.358 667.3935 90.315zM672.9265 89.666L672.9265 92.966C672.9375 93.219 673.0035 93.274 673.3115 93.274L673.6965 93.274 673.6965 94 672.9155 94C672.3215 93.989 672.0905 93.769 672.0905 93.208L672.0905 89.666 671.3865 89.666 671.3865 88.929 672.0905 88.929 672.0905 87.334 672.9265 87.334 672.9265 88.929 673.6965 88.929 673.6965 89.666 672.9265 89.666zM675.7205 86.663L675.7205 89.633C676.1825 89.061 676.6445 88.808 677.2495 88.808 677.6895 88.808 678.1515 88.984 678.4265 89.27 678.7015 89.545 678.8225 89.941 678.8225 90.59L678.8225 94 677.9865 94 677.9865 90.634C677.9865 89.941 677.6455 89.556 677.0405 89.556 676.6555 89.556 676.3145 89.71 676.0505 90.007 675.7975 90.293 675.7205 90.546 675.7205 91.03L675.7205 94 674.8845 94 674.8845 86.663 675.7205 86.663zM685.1805 91.734L680.9565 91.734C681.0005 92.163 681.0775 92.383 681.2865 92.658 681.6165 93.109 682.1005 93.351 682.6505 93.351 683.2775 93.351 683.8715 93.01 684.1685 92.482L684.9055 92.757C684.4875 93.604 683.6185 94.121 682.6505 94.121 681.1435 94.121 680.0655 93.021 680.0655 91.481 680.0655 89.919 681.1325 88.808 682.6175 88.808 684.0915 88.808 685.1915 89.919 685.1915 91.404 685.1915 91.47 685.1915 91.613 685.1805 91.734zM680.9675 91.118L684.3005 91.118C684.2675 90.722 684.1905 90.502 684.0145 90.249 683.6955 89.82 683.1785 89.556 682.6175 89.556 682.0565 89.556 681.5505 89.82 681.2535 90.26 681.0995 90.502 681.0335 90.711 680.9675 91.118zM693.4965 89.699L693.4965 86.663 694.3325 86.663 694.3325 94 693.4965 94 693.4965 93.131C692.9905 93.824 692.4515 94.121 691.6815 94.121 690.2845 94.121 689.2945 93.032 689.2945 91.492 689.2945 89.952 690.3065 88.808 691.6815 88.808 692.4295 88.808 693.0015 89.083 693.4965 89.699zM691.8575 89.556C690.8565 89.556 690.1745 90.348 690.1745 91.503 690.1745 92.614 690.8455 93.395 691.8025 93.395 692.7815 93.395 693.4965 92.581 693.4965 91.481 693.4965 90.337 692.8255 89.556 691.8575 89.556zM700.7235 91.734L696.4995 91.734C696.5435 92.163 696.6205 92.383 696.8295 92.658 697.1595 93.109 697.6435 93.351 698.1935 93.351 698.8205 93.351 699.4145 93.01 699.7115 92.482L700.4485 92.757C700.0305 93.604 699.1615 94.121 698.1935 94.121 696.6865 94.121 695.6085 93.021 695.6085 91.481 695.6085 89.919 696.6755 88.808 698.1605 88.808 699.6345 88.808 700.7345 89.919 700.7345 91.404 700.7345 91.47 700.7345 91.613 700.7235 91.734zM696.5105 91.118L699.8435 91.118C699.8105 90.722 699.7335 90.502 699.5575 90.249 699.2385 89.82 698.7215 89.556 698.1605 89.556 697.5995 89.556 697.0935 89.82 696.7965 90.26 696.6425 90.502 696.5765 90.711 696.5105 91.118zM702.8355 89.666L702.8355 92.966C702.8465 93.219 702.9125 93.274 703.2205 93.274L703.6055 93.274 703.6055 94 702.8245 94C702.2305 93.989 701.9995 93.769 701.9995 93.208L701.9995 89.666 701.2955 89.666 701.2955 88.929 701.9995 88.929 701.9995 87.334 702.8355 87.334 702.8355 88.929 703.6055 88.929 703.6055 89.666 702.8355 89.666zM708.6215 89.765L708.6215 88.929 709.4575 88.929 709.4575 94 708.6215 94 708.6215 93.021C708.1155 93.78 707.5435 94.121 706.7735 94.121 705.3765 94.121 704.3865 93.021 704.3865 91.481 704.3865 89.93 705.3985 88.808 706.7955 88.808 707.5655 88.808 708.1265 89.105 708.6215 89.765zM706.9165 89.556C706.3665 89.556 705.9815 89.743 705.6845 90.161 705.4205 90.524 705.2665 91.008 705.2665 91.503 705.2665 92.581 705.9705 93.395 706.8945 93.395 707.8515 93.395 708.6325 92.504 708.6325 91.415 708.6325 90.315 707.9285 89.556 706.9165 89.556zM711.9765 88.929L711.9765 94 711.1405 94 711.1405 88.929 711.9765 88.929zM711.5695 86.96C711.8665 86.96 712.0975 87.202 712.0975 87.51 712.0975 87.807 711.8555 88.038 711.5585 88.038 711.2615 88.038 711.0305 87.807 711.0305 87.499 711.0305 87.191 711.2615 86.96 711.5695 86.96zM714.4955 94L713.6595 94 713.6595 86.663 714.4955 86.663 714.4955 94zM717.2015 93.142L716.0905 95.749 715.4855 95.562 716.4095 92.889 717.2015 93.142zM725.1985 90.315L724.3625 90.315 724.3625 90.26C724.3625 89.787 723.9775 89.49 723.3945 89.49 722.8335 89.49 722.4815 89.776 722.4815 90.216 722.4815 90.656 722.7015 90.821 723.6145 91.074 724.2635 91.25 724.6045 91.415 724.8465 91.657 725.0995 91.91 725.2535 92.273 725.2535 92.647 725.2535 93.527 724.5275 94.121 723.4495 94.121 722.2945 94.121 721.6455 93.582 721.5575 92.559L722.3825 92.559C722.4375 93.131 722.8115 93.439 723.4495 93.439 724.0215 93.439 724.3955 93.142 724.3955 92.691 724.3955 92.251 724.1095 92.031 723.2405 91.811 722.1405 91.514 721.6455 91.052 721.6455 90.282 721.6455 89.402 722.3605 88.808 723.4275 88.808 724.5055 88.808 725.1545 89.358 725.1985 90.315zM729.4885 88.929L730.3355 88.929 730.3355 92.174C730.3355 92.867 730.2035 93.252 729.8295 93.593 729.4555 93.934 728.9385 94.121 728.3665 94.121 727.7945 94.121 727.2665 93.923 726.9035 93.582 726.5625 93.252 726.3975 92.79 726.3975 92.174L726.3975 88.929 727.2335 88.929 727.2335 92.152C727.2335 92.867 727.6955 93.373 728.3665 93.373 728.7185 93.373 729.0595 93.23 729.2685 92.988 729.4335 92.79 729.4885 92.581 729.4885 92.174L729.4885 88.929zM735.3075 92.801L735.8245 93.373C735.2525 93.89 734.6915 94.121 733.9545 94.121 732.5025 94.121 731.4685 93.021 731.4685 91.481 731.4685 89.908 732.5135 88.808 733.9985 88.808 734.7245 88.808 735.3185 89.05 735.8465 89.567L735.3075 90.106C734.9225 89.754 734.4935 89.578 734.0205 89.578 733.0195 89.578 732.3265 90.348 732.3265 91.448 732.3265 92.57 733.0195 93.351 734.0095 93.351 734.5045 93.351 734.9005 93.186 735.3075 92.801zM737.7385 86.663L737.7385 89.633C738.2005 89.061 738.6625 88.808 739.2675 88.808 739.7075 88.808 740.1695 88.984 740.4445 89.27 740.7195 89.545 740.8405 89.941 740.8405 90.59L740.8405 94 740.0045 94 740.0045 90.634C740.0045 89.941 739.6635 89.556 739.0585 89.556 738.6735 89.556 738.3325 89.71 738.0685 90.007 737.8155 90.293 737.7385 90.546 737.7385 91.03L737.7385 94 736.9025 94 736.9025 86.663 737.7385 86.663zM749.6185 89.765L749.6185 88.929 750.4545 88.929 750.4545 94 749.6185 94 749.6185 93.021C749.1125 93.78 748.5405 94.121 747.7705 94.121 746.3735 94.121 745.3835 93.021 745.3835 91.481 745.3835 89.93 746.3955 88.808 747.7925 88.808 748.5625 88.808 749.1235 89.105 749.6185 89.765zM747.9135 89.556C747.3635 89.556 746.9785 89.743 746.6815 90.161 746.4175 90.524 746.2635 91.008 746.2635 91.503 746.2635 92.581 746.9675 93.395 747.8915 93.395 748.8485 93.395 749.6295 92.504 749.6295 91.415 749.6295 90.315 748.9255 89.556 747.9135 89.556zM755.3165 90.315L754.4805 90.315 754.4805 90.26C754.4805 89.787 754.0955 89.49 753.5125 89.49 752.9515 89.49 752.5995 89.776 752.5995 90.216 752.5995 90.656 752.8195 90.821 753.7325 91.074 754.3815 91.25 754.7225 91.415 754.9645 91.657 755.2175 91.91 755.3715 92.273 755.3715 92.647 755.3715 93.527 754.6455 94.121 753.5675 94.121 752.4125 94.121 751.7635 93.582 751.6755 92.559L752.5005 92.559C752.5555 93.131 752.9295 93.439 753.5675 93.439 754.1395 93.439 754.5135 93.142 754.5135 92.691 754.5135 92.251 754.2275 92.031 753.3585 91.811 752.2585 91.514 751.7635 91.052 751.7635 90.282 751.7635 89.402 752.4785 88.808 753.5455 88.808 754.6235 88.808 755.2725 89.358 755.3165 90.315zM760.8825 89.666L760.8825 94 760.0465 94 760.0465 89.666 759.3535 89.666 759.3535 88.929 760.0465 88.929 760.0465 88.247C760.0465 87.246 760.5635 86.652 761.4435 86.652 761.4875 86.652 761.5865 86.652 761.6745 86.663L761.6745 87.411C761.0695 87.477 760.9045 87.653 760.8825 88.247L760.8825 88.929 761.6745 88.929 761.6745 89.666 760.8825 89.666zM763.8745 88.929L763.8745 94 763.0385 94 763.0385 88.929 763.8745 88.929zM763.4565 86.96C763.7535 86.96 763.9845 87.202 763.9845 87.51 763.9845 87.807 763.7535 88.038 763.4565 88.038 763.1485 88.038 762.9175 87.807 762.9175 87.499 762.9175 87.191 763.1485 86.96 763.4565 86.96zM766.3935 94L765.5575 94 765.5575 86.663 766.3935 86.663 766.3935 94zM772.7845 91.734L768.5605 91.734C768.6045 92.163 768.6815 92.383 768.8905 92.658 769.2205 93.109 769.7045 93.351 770.2545 93.351 770.8815 93.351 771.4755 93.01 771.7725 92.482L772.5095 92.757C772.0915 93.604 771.2225 94.121 770.2545 94.121 768.7475 94.121 767.6695 93.021 767.6695 91.481 767.6695 89.919 768.7365 88.808 770.2215 88.808 771.6955 88.808 772.7955 89.919 772.7955 91.404 772.7955 91.47 772.7955 91.613 772.7845 91.734zM768.5715 91.118L771.9045 91.118C771.8715 90.722 771.7945 90.502 771.6185 90.249 771.2995 89.82 770.7825 89.556 770.2215 89.556 769.6605 89.556 769.1545 89.82 768.8575 90.26 768.7035 90.502 768.6375 90.711 768.5715 91.118zM777.1845 90.315L776.3485 90.315 776.3485 90.26C776.3485 89.787 775.9635 89.49 775.3805 89.49 774.8195 89.49 774.4675 89.776 774.4675 90.216 774.4675 90.656 774.6875 90.821 775.6005 91.074 776.2495 91.25 776.5905 91.415 776.8325 91.657 777.0855 91.91 777.2395 92.273 777.2395 92.647 777.2395 93.527 776.5135 94.121 775.4355 94.121 774.2805 94.121 773.6315 93.582 773.5435 92.559L774.3685 92.559C774.4235 93.131 774.7975 93.439 775.4355 93.439 776.0075 93.439 776.3815 93.142 776.3815 92.691 776.3815 92.251 776.0955 92.031 775.2265 91.811 774.1265 91.514 773.6315 91.052 773.6315 90.282 773.6315 89.402 774.3465 88.808 775.4135 88.808 776.4915 88.808 777.1405 89.358 777.1845 90.315zM784.0155 88.808C785.5115 88.808 786.5785 89.919 786.5785 91.481 786.5785 92.966 785.4345 94.121 783.9825 94.121 782.4755 94.121 781.4195 93.021 781.4195 91.459 781.4195 89.886 782.4755 88.808 784.0155 88.808zM784.0155 89.578C782.9705 89.578 782.2775 90.337 782.2775 91.47 782.2775 92.592 782.9705 93.351 784.0045 93.351 785.0055 93.351 785.7205 92.57 785.7205 91.47 785.7205 90.337 785.0385 89.578 784.0155 89.578zM787.8545 88.929L788.6905 88.929 788.6905 89.787C788.8445 89.424 788.9545 89.27 789.1525 89.116 789.4055 88.918 789.7575 88.808 790.1205 88.808L790.3185 88.808 790.3185 89.655C790.2305 89.644 790.1425 89.644 790.0875 89.644 789.6365 89.644 789.2405 89.853 788.9875 90.227 788.7675 90.546 788.6905 90.843 788.6905 91.426L788.6905 94 787.8545 94 787.8545 88.929zM794.6525 88.929L795.4885 88.929 795.4885 89.644C795.9285 89.05 796.3685 88.808 796.9955 88.808 797.4575 88.808 797.8755 88.962 798.1725 89.226 798.4915 89.534 798.6015 89.886 798.6015 90.579L798.6015 94 797.7655 94 797.7655 90.766C797.7655 90.315 797.7105 90.073 797.5785 89.897 797.4245 89.688 797.1275 89.556 796.7865 89.556 796.4125 89.556 796.0715 89.699 795.8185 89.985 795.5765 90.249 795.4885 90.491 795.4885 90.909L795.4885 94 794.6525 94 794.6525 88.929zM802.4405 88.808C803.9365 88.808 805.0035 89.919 805.0035 91.481 805.0035 92.966 803.8595 94.121 802.4075 94.121 800.9005 94.121 799.8445 93.021 799.8445 91.459 799.8445 89.886 800.9005 88.808 802.4405 88.808zM802.4405 89.578C801.3955 89.578 800.7025 90.337 800.7025 91.47 800.7025 92.592 801.3955 93.351 802.4295 93.351 803.4305 93.351 804.1455 92.57 804.1455 91.47 804.1455 90.337 803.4635 89.578 802.4405 89.578zM807.1705 89.666L807.1705 92.966C807.1815 93.219 807.2475 93.274 807.5555 93.274L807.9405 93.274 807.9405 94 807.1595 94C806.5655 93.989 806.3345 93.769 806.3345 93.208L806.3345 89.666 805.6305 89.666 805.6305 88.929 806.3345 88.929 806.3345 87.334 807.1705 87.334 807.1705 88.929 807.9405 88.929 807.9405 89.666 807.1705 89.666zM813.8365 91.734L809.6125 91.734C809.6565 92.163 809.7335 92.383 809.9425 92.658 810.2725 93.109 810.7565 93.351 811.3065 93.351 811.9335 93.351 812.5275 93.01 812.8245 92.482L813.5615 92.757C813.1435 93.604 812.2745 94.121 811.3065 94.121 809.7995 94.121 808.7215 93.021 808.7215 91.481 808.7215 89.919 809.7885 88.808 811.2735 88.808 812.7475 88.808 813.8475 89.919 813.8475 91.404 813.8475 91.47 813.8475 91.613 813.8365 91.734zM809.6235 91.118L812.9565 91.118C812.9235 90.722 812.8465 90.502 812.6705 90.249 812.3515 89.82 811.8345 89.556 811.2735 89.556 810.7125 89.556 810.2065 89.82 809.9095 90.26 809.7555 90.502 809.6895 90.711 809.6235 91.118zM818.2365 90.315L817.4005 90.315 817.4005 90.26C817.4005 89.787 817.0155 89.49 816.4325 89.49 815.8715 89.49 815.5195 89.776 815.5195 90.216 815.5195 90.656 815.7395 90.821 816.6525 91.074 817.3015 91.25 817.6425 91.415 817.8845 91.657 818.1375 91.91 818.2915 92.273 818.2915 92.647 818.2915 93.527 817.5655 94.121 816.4875 94.121 815.3325 94.121 814.6835 93.582 814.5955 92.559L815.4205 92.559C815.4755 93.131 815.8495 93.439 816.4875 93.439 817.0595 93.439 817.4335 93.142 817.4335 92.691 817.4335 92.251 817.1475 92.031 816.2785 91.811 815.1785 91.514 814.6835 91.052 814.6835 90.282 814.6835 89.402 815.3985 88.808 816.4655 88.808 817.5435 88.808 818.1925 89.358 818.2365 90.315zM820.0075 92.944C820.3375 92.944 820.5795 93.186 820.5795 93.527 820.5795 93.846 820.3265 94.088 820.0075 94.088 819.6775 94.088 819.4355 93.846 819.4355 93.516 819.4355 93.186 819.6775 92.944 820.0075 92.944z"/>
      <g fill="#C41261" transform="rotate(90 97.5 101.5)">
        <rect width="59" height="1" y="2"/>
        <polygon points="61.5 0 64 5 59 5" transform="rotate(90 61.5 2.5)"/>
      </g>
      <g fill="#C41261" transform="rotate(90 353 357.5)">
        <rect width="59" height="1" y="2"/>
        <polygon points="61.5 0 64 5 59 5" transform="rotate(90 61.5 2.5)"/>
      </g>
    </g>
  </g>
</svg>
