<svg xmlns="http://www.w3.org/2000/svg" xmlns:xlink="http://www.w3.org/1999/xlink" width="1026" height="180" viewBox="0 0 1026 180">
  <defs>
    <rect id="6-b" width="712" height="56" rx="14"/>
    <filter id="6-a" width="103.5%" height="144.6%" x="-1.8%" y="-20.5%" filterUnits="objectBoundingBox">
      <feOffset dy="1" in="SourceAlpha" result="shadowOffsetOuter1"/>
      <feGaussianBlur in="shadowOffsetOuter1" result="shadowBlurOuter1" stdDeviation="4"/>
      <feColorMatrix in="shadowBlurOuter1" result="shadowMatrixOuter1" values="0 0 0 0 0   0 0 0 0 0   0 0 0 0 0  0 0 0 0.2 0"/>
      <feMorphology in="SourceAlpha" radius="1" result="shadowSpreadOuter2"/>
      <feOffset dy="3" in="shadowSpreadOuter2" result="shadowOffsetOuter2"/>
      <feGaussianBlur in="shadowOffsetOuter2" result="shadowBlurOuter2" stdDeviation="1.5"/>
      <feColorMatrix in="shadowBlurOuter2" result="shadowMatrixOuter2" values="0 0 0 0 0   0 0 0 0 0   0 0 0 0 0  0 0 0 0.12 0"/>
      <feOffset dy="3" in="SourceAlpha" result="shadowOffsetOuter3"/>
      <feGaussianBlur in="shadowOffsetOuter3" result="shadowBlurOuter3" stdDeviation="2"/>
      <feColorMatrix in="shadowBlurOuter3" result="shadowMatrixOuter3" values="0 0 0 0 0   0 0 0 0 0   0 0 0 0 0  0 0 0 0.14 0"/>
      <feMerge>
        <feMergeNode in="shadowMatrixOuter1"/>
        <feMergeNode in="shadowMatrixOuter2"/>
        <feMergeNode in="shadowMatrixOuter3"/>
      </feMerge>
    </filter>
  </defs>
  <g fill="none" fill-rule="evenodd" transform="translate(1)">
    <rect width="1024" height="180" fill="#FFF" fill-opacity=".01" fill-rule="nonzero"/>
    <g transform="translate(0 12)">
      <polyline fill="#FFF" fill-rule="nonzero" stroke="#979797" points="1024 0 1024 124 0 124 0 0 0 0"/>
      <path fill="#C41261" d="M491.924,32.018 C492.342,32.15 492.54,32.249 492.771,32.491 C493.134,32.854 493.321,33.338 493.321,33.91 C493.321,35.208 492.364,36.132 491.022,36.132 C489.691,36.132 488.756,35.241 488.756,33.987 C488.756,33.404 488.954,32.876 489.306,32.513 C489.537,32.271 489.724,32.161 490.164,32.018 C489.779,31.886 489.614,31.776 489.416,31.534 C489.174,31.237 489.042,30.863 489.042,30.456 C489.042,29.411 489.9,28.641 491.066,28.641 C492.221,28.641 493.057,29.4 493.057,30.445 C493.057,30.863 492.914,31.259 492.65,31.567 C492.452,31.787 492.298,31.886 491.924,32.018 Z M491.066,29.411 C490.362,29.411 489.878,29.851 489.878,30.467 C489.878,31.094 490.395,31.589 491.044,31.589 C491.671,31.589 492.232,31.072 492.232,30.478 C492.232,29.906 491.693,29.411 491.066,29.411 Z M491.055,32.48 C490.263,32.48 489.625,33.107 489.625,33.899 C489.625,34.68 490.252,35.318 491.033,35.318 C491.814,35.318 492.441,34.68 492.441,33.899 C492.441,33.129 491.814,32.48 491.055,32.48 Z M494.63,30.929 L495.466,30.929 L495.466,31.853 C495.95,31.105 496.467,30.808 497.314,30.808 C498.722,30.808 499.701,31.886 499.701,33.426 C499.701,35.021 498.722,36.121 497.314,36.121 C496.918,36.121 496.555,36.033 496.203,35.857 C495.895,35.703 495.741,35.571 495.466,35.208 L495.466,38.376 L494.63,38.376 L494.63,30.929 Z M497.171,31.556 C496.159,31.556 495.466,32.359 495.466,33.547 C495.466,34.658 496.137,35.395 497.138,35.395 C498.139,35.395 498.81,34.614 498.81,33.459 C498.81,32.865 498.667,32.414 498.37,32.084 C498.073,31.754 497.622,31.556 497.171,31.556 Z M502.583,34.163 L501.23,36 L500.207,36 L502.077,33.481 L500.174,30.929 L501.23,30.929 L502.583,32.788 L503.969,30.929 L504.992,30.929 L503.078,33.481 L504.904,36 L503.881,36 L502.583,34.163 Z M511.251,38.046 L510.701,38.574 C509.403,36.979 508.809,35.428 508.809,33.58 C508.809,31.688 509.502,29.818 510.723,28.443 L511.251,28.993 C510.14,30.368 509.59,31.897 509.59,33.547 C509.59,35.153 510.184,36.759 511.251,38.046 Z M513.407,31.666 L513.407,36 L512.571,36 L512.571,31.666 L511.878,31.666 L511.878,30.929 L512.571,30.929 L512.571,30.247 C512.571,29.246 513.088,28.652 513.968,28.652 C514.012,28.652 514.111,28.652 514.199,28.663 L514.199,29.411 C513.594,29.477 513.429,29.653 513.407,30.247 L513.407,30.929 L514.199,30.929 L514.199,31.666 L513.407,31.666 Z M516.399,30.929 L516.399,36 L515.563,36 L515.563,30.929 L516.399,30.929 Z M515.981,28.96 C516.278,28.96 516.509,29.202 516.509,29.51 C516.509,29.807 516.278,30.038 515.981,30.038 C515.673,30.038 515.442,29.807 515.442,29.499 C515.442,29.191 515.673,28.96 515.981,28.96 Z M519.699,34.163 L518.346,36 L517.323,36 L519.193,33.481 L517.29,30.929 L518.346,30.929 L519.699,32.788 L521.085,30.929 L522.108,30.929 L520.194,33.481 L522.02,36 L520.997,36 L519.699,34.163 Z M527.696,33.734 L523.472,33.734 C523.516,34.163 523.593,34.383 523.802,34.658 C524.132,35.109 524.616,35.351 525.166,35.351 C525.793,35.351 526.387,35.01 526.684,34.482 L527.421,34.757 C527.003,35.604 526.134,36.121 525.166,36.121 C523.659,36.121 522.581,35.021 522.581,33.481 C522.581,31.919 523.648,30.808 525.133,30.808 C526.607,30.808 527.707,31.919 527.707,33.404 C527.707,33.47 527.707,33.613 527.696,33.734 Z M523.483,33.118 L526.816,33.118 C526.783,32.722 526.706,32.502 526.53,32.249 C526.211,31.82 525.694,31.556 525.133,31.556 C524.572,31.556 524.066,31.82 523.769,32.26 C523.615,32.502 523.549,32.711 523.483,33.118 Z M532.712,31.699 L532.712,28.663 L533.548,28.663 L533.548,36 L532.712,36 L532.712,35.131 C532.206,35.824 531.667,36.121 530.897,36.121 C529.5,36.121 528.51,35.032 528.51,33.492 C528.51,31.952 529.522,30.808 530.897,30.808 C531.645,30.808 532.217,31.083 532.712,31.699 Z M531.073,31.556 C530.072,31.556 529.39,32.348 529.39,33.503 C529.39,34.614 530.061,35.395 531.018,35.395 C531.997,35.395 532.712,34.581 532.712,33.481 C532.712,32.337 532.041,31.556 531.073,31.556 Z M534.78,28.971 L535.33,28.443 C536.639,30.049 537.222,31.589 537.222,33.437 C537.222,35.34 536.529,37.188 535.308,38.574 L534.78,38.024 C535.891,36.649 536.441,35.12 536.441,33.47 C536.441,31.853 535.858,30.269 534.78,28.971 Z"/>
      <g fill="#C41261" transform="translate(508 44)">
        <rect width="1" height="6" x="4" y="1"/>
        <rect width="9" height="1"/>
        <rect width="9" height="1" y="7"/>
      </g>
      <g fill="#C41261" transform="translate(508 108)">
        <rect width="1" height="14" x="4" y="1"/>
        <rect width="9" height="1"/>
        <rect width="9" height="1" y="15"/>
      </g>
      <path fill="#C41261" d="M523.838,112.994 L522.221,114.072 L522.221,113.236 L524.707,111.608 L524.707,119 L523.838,119 L523.838,112.994 Z M530.592,111.773 L528.711,114.71 C529.019,114.6 529.162,114.567 529.426,114.567 C530.647,114.567 531.593,115.524 531.593,116.767 C531.593,118.065 530.526,119.132 529.228,119.132 C527.919,119.132 526.907,118.098 526.907,116.767 C526.907,116.228 527.05,115.821 527.468,115.15 L529.569,111.773 L530.592,111.773 Z M529.272,115.315 C528.436,115.315 527.776,115.953 527.776,116.767 C527.776,117.625 528.425,118.307 529.25,118.307 C530.075,118.307 530.735,117.636 530.735,116.8 C530.735,115.975 530.086,115.315 529.272,115.315 Z M532.836,113.929 L533.672,113.929 L533.672,114.853 C534.156,114.105 534.673,113.808 535.52,113.808 C536.928,113.808 537.907,114.886 537.907,116.426 C537.907,118.021 536.928,119.121 535.52,119.121 C535.124,119.121 534.761,119.033 534.409,118.857 C534.101,118.703 533.947,118.571 533.672,118.208 L533.672,121.376 L532.836,121.376 L532.836,113.929 Z M535.377,114.556 C534.365,114.556 533.672,115.359 533.672,116.547 C533.672,117.658 534.343,118.395 535.344,118.395 C536.345,118.395 537.016,117.614 537.016,116.459 C537.016,115.865 536.873,115.414 536.576,115.084 C536.279,114.754 535.828,114.556 535.377,114.556 Z M540.789,117.163 L539.436,119 L538.413,119 L540.283,116.481 L538.38,113.929 L539.436,113.929 L540.789,115.788 L542.175,113.929 L543.198,113.929 L541.284,116.481 L543.11,119 L542.087,119 L540.789,117.163 Z M549.457,121.046 L548.907,121.574 C547.609,119.979 547.015,118.428 547.015,116.58 C547.015,114.688 547.708,112.818 548.929,111.443 L549.457,111.993 C548.346,113.368 547.796,114.897 547.796,116.547 C547.796,118.153 548.39,119.759 549.457,121.046 Z M551.613,114.666 L551.613,119 L550.777,119 L550.777,114.666 L550.084,114.666 L550.084,113.929 L550.777,113.929 L550.777,113.247 C550.777,112.246 551.294,111.652 552.174,111.652 C552.218,111.652 552.317,111.652 552.405,111.663 L552.405,112.411 C551.8,112.477 551.635,112.653 551.613,113.247 L551.613,113.929 L552.405,113.929 L552.405,114.666 L551.613,114.666 Z M554.605,113.929 L554.605,119 L553.769,119 L553.769,113.929 L554.605,113.929 Z M554.187,111.96 C554.484,111.96 554.715,112.202 554.715,112.51 C554.715,112.807 554.484,113.038 554.187,113.038 C553.879,113.038 553.648,112.807 553.648,112.499 C553.648,112.191 553.879,111.96 554.187,111.96 Z M557.905,117.163 L556.552,119 L555.529,119 L557.399,116.481 L555.496,113.929 L556.552,113.929 L557.905,115.788 L559.291,113.929 L560.314,113.929 L558.4,116.481 L560.226,119 L559.203,119 L557.905,117.163 Z M565.902,116.734 L561.678,116.734 C561.722,117.163 561.799,117.383 562.008,117.658 C562.338,118.109 562.822,118.351 563.372,118.351 C563.999,118.351 564.593,118.01 564.89,117.482 L565.627,117.757 C565.209,118.604 564.34,119.121 563.372,119.121 C561.865,119.121 560.787,118.021 560.787,116.481 C560.787,114.919 561.854,113.808 563.339,113.808 C564.813,113.808 565.913,114.919 565.913,116.404 C565.913,116.47 565.913,116.613 565.902,116.734 Z M561.689,116.118 L565.022,116.118 C564.989,115.722 564.912,115.502 564.736,115.249 C564.417,114.82 563.9,114.556 563.339,114.556 C562.778,114.556 562.272,114.82 561.975,115.26 C561.821,115.502 561.755,115.711 561.689,116.118 Z M570.918,114.699 L570.918,111.663 L571.754,111.663 L571.754,119 L570.918,119 L570.918,118.131 C570.412,118.824 569.873,119.121 569.103,119.121 C567.706,119.121 566.716,118.032 566.716,116.492 C566.716,114.952 567.728,113.808 569.103,113.808 C569.851,113.808 570.423,114.083 570.918,114.699 Z M569.279,114.556 C568.278,114.556 567.596,115.348 567.596,116.503 C567.596,117.614 568.267,118.395 569.224,118.395 C570.203,118.395 570.918,117.581 570.918,116.481 C570.918,115.337 570.247,114.556 569.279,114.556 Z M572.986,111.971 L573.536,111.443 C574.845,113.049 575.428,114.589 575.428,116.437 C575.428,118.34 574.735,120.188 573.514,121.574 L572.986,121.024 C574.097,119.649 574.647,118.12 574.647,116.47 C574.647,114.853 574.064,113.269 572.986,111.971 Z"/>
      <g transform="translate(156 52)">
        <use fill="#000" filter="url(#6-a)" xlink:href="#6-b"/>
        <use fill="#F7F7F7" xlink:href="#6-b"/>
        <rect width="712" height="56" fill="#25333D" rx="14"/>
        <path fill="#89CBDF" d="M60.7287611,17 L59.633058,13.8208008 L55.0676283,13.8208008 L53.9636244,17 L52.0544447,17 L56.3791517,5.02197266 L58.37964,5.02197266 L62.704347,17 L60.7287611,17 Z M57.2839369,7.19677734 L55.5407728,12.2602539 L59.1599134,12.2602539 L57.4250501,7.19677734 L57.2839369,7.19677734 Z M71.325597,10.9155273 L69.5907337,10.9155273 C69.3832142,10.0356445 68.6527455,9.37988281 67.457433,9.37988281 C65.9632923,9.37988281 65.0502064,10.5253906 65.0502064,12.4511719 C65.0502064,14.4101562 65.9715931,15.5805664 67.457433,15.5805664 C68.5863392,15.5805664 69.3583119,15.065918 69.5907337,14.0947266 L71.325597,14.0947266 C71.0931751,15.9125977 69.6986439,17.1743164 67.4657337,17.1743164 C64.8343861,17.1743164 63.2240345,15.3979492 63.2240345,12.4511719 C63.2240345,9.55419922 64.8260853,7.78613281 67.457433,7.78613281 C69.7235462,7.78613281 71.0931751,9.10595703 71.325597,10.9155273 Z M73.7129603,5.7109375 L75.4976283,5.7109375 L75.4976283,8.00195312 L77.4566127,8.00195312 L77.4566127,9.50439453 L75.4976283,9.50439453 L75.4976283,14.152832 C75.4976283,15.0991211 75.887765,15.5141602 76.7759486,15.5141602 C77.0498744,15.5141602 77.2075892,15.4975586 77.4566127,15.4726562 L77.4566127,16.9584961 C77.1660853,17.0083008 76.8340541,17.0498047 76.4854212,17.0498047 C74.5015345,17.0498047 73.7129603,16.3525391 73.7129603,14.609375 L73.7129603,9.50439453 L72.2769252,9.50439453 L72.2769252,8.00195312 L73.7129603,8.00195312 L73.7129603,5.7109375 Z M79.1799134,17 L79.1799134,7.96044922 L80.9562806,7.96044922 L80.9562806,17 L79.1799134,17 Z M80.068097,6.375 C79.4040345,6.375 78.9142884,5.90185547 78.9142884,5.28759766 C78.9142884,4.66503906 79.4040345,4.19189453 80.068097,4.19189453 C80.7321595,4.19189453 81.2219056,4.66503906 81.2219056,5.28759766 C81.2219056,5.90185547 80.7321595,6.375 80.068097,6.375 Z M86.9876869,17.1743164 C84.3397377,17.1743164 82.7210853,15.40625 82.7210853,12.4760742 C82.7210853,9.5625 84.3480384,7.78613281 86.9876869,7.78613281 C89.6190345,7.78613281 91.2459877,9.5625 91.2459877,12.4760742 C91.2459877,15.40625 89.6273353,17.1743164 86.9876869,17.1743164 Z M86.9876869,15.5888672 C88.5316322,15.5888672 89.411515,14.4433594 89.411515,12.4760742 C89.411515,10.5170898 88.5316322,9.37158203 86.9876869,9.37158203 C85.4354408,9.37158203 84.5638588,10.5170898 84.5638588,12.4760742 C84.5638588,14.4516602 85.4354408,15.5888672 86.9876869,15.5888672 Z M92.9775892,17 L92.9775892,7.96044922 L94.6958509,7.96044922 L94.6958509,9.39648438 L94.8286634,9.39648438 C95.2686049,8.39208984 96.1650892,7.78613281 97.5264174,7.78613281 C99.5435072,7.78613281 100.655812,8.99804688 100.655812,11.1479492 L100.655812,17 L98.8711439,17 L98.8711439,11.5961914 C98.8711439,10.1435547 98.2402845,9.42138672 96.9204603,9.42138672 C95.6006361,9.42138672 94.7622572,10.3012695 94.7622572,11.7124023 L94.7622572,17 L92.9775892,17 Z" transform="translate(594.542 17)"/>
        <path fill="#FFF" d="M18.6484375,25.9375 L17.3984375,25.9375 L17.3984375,21.7265625 L18.6484375,21.7265625 L18.6484375,25.9375 Z M21.59375,25.9375 L20.34375,25.9375 L20.34375,21.7265625 L21.59375,21.7265625 L21.59375,25.9375 Z M25.5159375,22.9765625 L25.5159375,27.2890625 L28.289375,27.2890625 C29.7346875,27.2890625 30.555,26.515625 30.555,25.1328125 C30.555,23.78125 29.68,22.9765625 28.226875,22.9765625 L25.5159375,22.9765625 Z M25.5159375,28.5390625 L25.5159375,33 L24.1096875,33 L24.1096875,21.7265625 L28.414375,21.7265625 C30.58625,21.7265625 32.008125,23.0546875 32.008125,25.0859375 C32.008125,26.65625 31.1565625,27.875 29.7425,28.3203125 L32.351875,33 L30.7034375,33 L28.289375,28.5390625 L25.5159375,28.5390625 Z M37.1959375,25.6171875 C35.8521875,25.6171875 34.9146875,26.6015625 34.813125,28.09375 L39.45375,28.09375 C39.4225,26.6015625 38.531875,25.6171875 37.1959375,25.6171875 Z M39.4146875,30.8203125 L40.7584375,30.8203125 C40.3521875,32.265625 39.0553125,33.1484375 37.2115625,33.1484375 C34.875625,33.1484375 33.4146875,31.4609375 33.4146875,28.796875 C33.4146875,26.1484375 34.8990625,24.4296875 37.2115625,24.4296875 C39.485,24.4296875 40.8678125,26.046875 40.8678125,28.6640625 L40.8678125,29.1796875 L34.813125,29.1796875 L34.813125,29.2421875 C34.8834375,30.90625 35.813125,31.9609375 37.2428125,31.9609375 C38.32875,31.9609375 39.063125,31.5625 39.4146875,30.8203125 Z M45.2509375,31.96875 C46.63375,31.96875 47.6571875,31.0625 47.6571875,29.859375 L47.6571875,29.0859375 L45.3915625,29.234375 C44.1103125,29.3203125 43.5478125,29.765625 43.5478125,30.609375 C43.5478125,31.46875 44.274375,31.96875 45.2509375,31.96875 Z M45.0009375,33.1484375 C43.368125,33.1484375 42.1571875,32.1796875 42.1571875,30.640625 C42.1571875,29.1328125 43.2665625,28.265625 45.2275,28.1484375 L47.6571875,28 L47.6571875,27.234375 C47.6571875,26.1953125 47.00875,25.625 45.7509375,25.625 C44.743125,25.625 44.04,26.0078125 43.8525,26.671875 L42.493125,26.671875 C42.6728125,25.3203125 44.0009375,24.4296875 45.7978125,24.4296875 C47.8525,24.4296875 49.0009375,25.484375 49.0009375,27.234375 L49.0009375,33 L47.7196875,33 L47.7196875,31.7578125 L47.5946875,31.7578125 C47.0478125,32.65625 46.1259375,33.1484375 45.0009375,33.1484375 Z M51.2434375,33 L51.2434375,21.234375 L52.5871875,21.234375 L52.5871875,33 L51.2434375,33 Z M54.9546875,33 L54.9546875,21.234375 L56.2984375,21.234375 L56.2984375,33 L54.9546875,33 Z M59.3065625,36.046875 C59.126875,36.046875 58.8925,36.03125 58.705,36 L58.705,34.8515625 C58.8690625,34.8828125 59.08,34.890625 59.2675,34.890625 C60.0409375,34.890625 60.4628125,34.5234375 60.814375,33.5078125 L60.970625,33.0078125 L57.8534375,24.578125 L59.3065625,24.578125 L61.6190625,31.5078125 L61.7440625,31.5078125 L64.04875,24.578125 L65.4784375,24.578125 L62.189375,33.515625 C61.470625,35.46875 60.79875,36.046875 59.3065625,36.046875 Z M71.1509376,33 L71.1509376,24.578125 L72.4321876,24.578125 L72.4321876,25.828125 L72.5571876,25.828125 C72.8071876,25.0078125 73.7759376,24.4296875 74.8931251,24.4296875 C75.1118751,24.4296875 75.3931251,24.4453125 75.5650001,24.46875 L75.5650001,25.8125 C75.4556251,25.78125 74.9712501,25.734375 74.7056251,25.734375 C73.4243751,25.734375 72.4946876,26.59375 72.4946876,27.78125 L72.4946876,33 L71.1509376,33 Z M80.0496876,25.6171875 C78.7059376,25.6171875 77.7684376,26.6015625 77.6668751,28.09375 L82.3075001,28.09375 C82.2762501,26.6015625 81.3856251,25.6171875 80.0496876,25.6171875 Z M82.2684376,30.8203125 L83.6121876,30.8203125 C83.2059376,32.265625 81.9090626,33.1484375 80.0653126,33.1484375 C77.7293751,33.1484375 76.2684376,31.4609375 76.2684376,28.796875 C76.2684376,26.1484375 77.7528126,24.4296875 80.0653126,24.4296875 C82.3387501,24.4296875 83.7215626,26.046875 83.7215626,28.6640625 L83.7215626,29.1796875 L77.6668751,29.1796875 L77.6668751,29.2421875 C77.7371876,30.90625 78.6668751,31.9609375 80.0965626,31.9609375 C81.1825001,31.9609375 81.9168751,31.5625 82.2684376,30.8203125 Z M88.1046876,31.96875 C89.4875001,31.96875 90.5109376,31.0625 90.5109376,29.859375 L90.5109376,29.0859375 L88.2453126,29.234375 C86.9640626,29.3203125 86.4015626,29.765625 86.4015626,30.609375 C86.4015626,31.46875 87.1281251,31.96875 88.1046876,31.96875 Z M87.8546876,33.1484375 C86.2218751,33.1484375 85.0109376,32.1796875 85.0109376,30.640625 C85.0109376,29.1328125 86.1203126,28.265625 88.0812501,28.1484375 L90.5109376,28 L90.5109376,27.234375 C90.5109376,26.1953125 89.8625001,25.625 88.6046876,25.625 C87.5968751,25.625 86.8937501,26.0078125 86.7062501,26.671875 L85.3468751,26.671875 C85.5265626,25.3203125 86.8546876,24.4296875 88.6515626,24.4296875 C90.7062501,24.4296875 91.8546876,25.484375 91.8546876,27.234375 L91.8546876,33 L90.5734376,33 L90.5734376,31.7578125 L90.4484376,31.7578125 C89.9015626,32.65625 88.9796876,33.1484375 87.8546876,33.1484375 Z M94.0971876,33 L94.0971876,21.234375 L95.4409376,21.234375 L95.4409376,33 L94.0971876,33 Z M97.8084376,33 L97.8084376,21.234375 L99.1521876,21.234375 L99.1521876,33 L97.8084376,33 Z M102.160313,36.046875 C101.980625,36.046875 101.74625,36.03125 101.55875,36 L101.55875,34.8515625 C101.722813,34.8828125 101.93375,34.890625 102.12125,34.890625 C102.894688,34.890625 103.316563,34.5234375 103.668125,33.5078125 L103.824375,33.0078125 L100.707188,24.578125 L102.160313,24.578125 L104.472813,31.5078125 L104.597813,31.5078125 L106.9025,24.578125 L108.332188,24.578125 L105.043125,33.515625 C104.324375,35.46875 103.6525,36.046875 102.160313,36.046875 Z M114.004688,33 L114.004688,24.578125 L115.285938,24.578125 L115.285938,25.828125 L115.410938,25.828125 C115.660938,25.0078125 116.629688,24.4296875 117.746875,24.4296875 C117.965625,24.4296875 118.246875,24.4453125 118.41875,24.46875 L118.41875,25.8125 C118.309375,25.78125 117.825,25.734375 117.559375,25.734375 C116.278125,25.734375 115.348438,26.59375 115.348438,27.78125 L115.348438,33 L114.004688,33 Z M122.903438,25.6171875 C121.559688,25.6171875 120.622188,26.6015625 120.520625,28.09375 L125.16125,28.09375 C125.13,26.6015625 124.239375,25.6171875 122.903438,25.6171875 Z M125.122188,30.8203125 L126.465938,30.8203125 C126.059688,32.265625 124.762813,33.1484375 122.919063,33.1484375 C120.583125,33.1484375 119.122188,31.4609375 119.122188,28.796875 C119.122188,26.1484375 120.606563,24.4296875 122.919063,24.4296875 C125.1925,24.4296875 126.575313,26.046875 126.575313,28.6640625 L126.575313,29.1796875 L120.520625,29.1796875 L120.520625,29.2421875 C120.590938,30.90625 121.520625,31.9609375 122.950313,31.9609375 C124.03625,31.9609375 124.770625,31.5625 125.122188,30.8203125 Z M130.958438,31.96875 C132.34125,31.96875 133.364688,31.0625 133.364688,29.859375 L133.364688,29.0859375 L131.099063,29.234375 C129.817813,29.3203125 129.255313,29.765625 129.255313,30.609375 C129.255313,31.46875 129.981875,31.96875 130.958438,31.96875 Z M130.708438,33.1484375 C129.075625,33.1484375 127.864688,32.1796875 127.864688,30.640625 C127.864688,29.1328125 128.974063,28.265625 130.935,28.1484375 L133.364688,28 L133.364688,27.234375 C133.364688,26.1953125 132.71625,25.625 131.458438,25.625 C130.450625,25.625 129.7475,26.0078125 129.56,26.671875 L128.200625,26.671875 C128.380313,25.3203125 129.708438,24.4296875 131.505313,24.4296875 C133.56,24.4296875 134.708438,25.484375 134.708438,27.234375 L134.708438,33 L133.427188,33 L133.427188,31.7578125 L133.302188,31.7578125 C132.755313,32.65625 131.833438,33.1484375 130.708438,33.1484375 Z M136.950938,33 L136.950938,21.234375 L138.294688,21.234375 L138.294688,33 L136.950938,33 Z M140.662188,33 L140.662188,21.234375 L142.005938,21.234375 L142.005938,33 L140.662188,33 Z M145.014063,36.046875 C144.834375,36.046875 144.6,36.03125 144.4125,36 L144.4125,34.8515625 C144.576563,34.8828125 144.7875,34.890625 144.975,34.890625 C145.748438,34.890625 146.170313,34.5234375 146.521875,33.5078125 L146.678125,33.0078125 L143.560938,24.578125 L145.014063,24.578125 L147.326563,31.5078125 L147.451563,31.5078125 L149.75625,24.578125 L151.185938,24.578125 L147.896875,33.515625 C147.178125,35.46875 146.50625,36.046875 145.014063,36.046875 Z M156.936563,33 L156.936563,21.234375 L158.280313,21.234375 L158.280313,33 L156.936563,33 Z M164.030625,33.1484375 C161.632188,33.1484375 160.147813,31.4921875 160.147813,28.7890625 C160.147813,26.078125 161.632188,24.4296875 164.030625,24.4296875 C166.429063,24.4296875 167.913438,26.078125 167.913438,28.7890625 C167.913438,31.4921875 166.429063,33.1484375 164.030625,33.1484375 Z M164.030625,31.9375 C165.624375,31.9375 166.522813,30.78125 166.522813,28.7890625 C166.522813,26.7890625 165.624375,25.640625 164.030625,25.640625 C162.436875,25.640625 161.538438,26.7890625 161.538438,28.7890625 C161.538438,30.78125 162.436875,31.9375 164.030625,31.9375 Z M169.702813,33 L169.702813,24.578125 L170.984063,24.578125 L170.984063,25.90625 L171.109063,25.90625 C171.530938,24.9765625 172.35125,24.4296875 173.640313,24.4296875 C175.530938,24.4296875 176.585625,25.546875 176.585625,27.546875 L176.585625,33 L175.241875,33 L175.241875,27.875 C175.241875,26.359375 174.60125,25.640625 173.2575,25.640625 C171.91375,25.640625 171.046563,26.5390625 171.046563,28.015625 L171.046563,33 L169.702813,33 Z M182.125,31.6875 C183.6875,31.6875 184.625,30.5 184.625,28.6640625 C184.625,26.828125 183.679688,25.640625 182.125,25.640625 C180.5625,25.640625 179.6875,26.828125 179.6875,28.6640625 C179.6875,30.5 180.5625,31.6875 182.125,31.6875 Z M182.1875,36.234375 C180.15625,36.234375 178.859375,35.3203125 178.65625,33.9296875 L180.078125,33.9296875 C180.226563,34.6171875 180.976563,35.0625 182.1875,35.0625 C183.695313,35.0625 184.59375,34.3203125 184.59375,33.078125 L184.59375,31.421875 L184.46875,31.421875 C183.9375,32.3515625 182.984375,32.875 181.828125,32.875 C179.648438,32.875 178.296875,31.1875 178.296875,28.6640625 C178.296875,26.140625 179.664063,24.4296875 181.828125,24.4296875 C183.007813,24.4296875 184.046875,25.0078125 184.53125,25.9140625 L184.65625,25.9140625 L184.65625,24.578125 L185.9375,24.578125 L185.9375,33.1484375 C185.9375,35.03125 184.484375,36.234375 182.1875,36.234375 Z M192.906875,33 L192.906875,25.703125 L191.508438,25.703125 L191.508438,24.578125 L192.906875,24.578125 L192.906875,23.640625 C192.906875,21.9609375 193.750625,21.15625 195.352188,21.15625 C195.680313,21.15625 195.977188,21.1796875 196.258438,21.234375 L196.258438,22.328125 C196.094375,22.296875 195.867813,22.2890625 195.625625,22.2890625 C194.656875,22.2890625 194.250625,22.7578125 194.250625,23.6796875 L194.250625,24.578125 L196.180313,24.578125 L196.180313,25.703125 L194.250625,25.703125 L194.250625,33 L192.906875,33 Z M197.844688,33 L197.844688,24.578125 L199.188438,24.578125 L199.188438,33 L197.844688,33 Z M198.516563,22.8671875 C198.000938,22.8671875 197.579063,22.4453125 197.579063,21.9296875 C197.579063,21.4140625 198.000938,20.9921875 198.516563,20.9921875 C199.032188,20.9921875 199.454063,21.4140625 199.454063,21.9296875 C199.454063,22.4453125 199.032188,22.8671875 198.516563,22.8671875 Z M201.509063,33 L201.509063,21.234375 L202.852813,21.234375 L202.852813,33 L201.509063,33 Z M208.501563,25.6171875 C207.157813,25.6171875 206.220313,26.6015625 206.11875,28.09375 L210.759375,28.09375 C210.728125,26.6015625 209.8375,25.6171875 208.501563,25.6171875 Z M210.720313,30.8203125 L212.064063,30.8203125 C211.657813,32.265625 210.360938,33.1484375 208.517188,33.1484375 C206.18125,33.1484375 204.720313,31.4609375 204.720313,28.796875 C204.720313,26.1484375 206.204688,24.4296875 208.517188,24.4296875 C210.790625,24.4296875 212.173438,26.046875 212.173438,28.6640625 L212.173438,29.1796875 L206.11875,29.1796875 L206.11875,29.2421875 C206.189063,30.90625 207.11875,31.9609375 208.548438,31.9609375 C209.634375,31.9609375 210.36875,31.5625 210.720313,30.8203125 Z M213.962813,33 L213.962813,24.578125 L215.244063,24.578125 L215.244063,25.90625 L215.369063,25.90625 C215.790938,24.9765625 216.61125,24.4296875 217.900313,24.4296875 C219.790938,24.4296875 220.845625,25.546875 220.845625,27.546875 L220.845625,33 L219.501875,33 L219.501875,27.875 C219.501875,26.359375 218.86125,25.640625 217.5175,25.640625 C216.17375,25.640625 215.306563,26.5390625 215.306563,28.015625 L215.306563,33 L213.962813,33 Z M225.5725,31.96875 C226.955313,31.96875 227.97875,31.0625 227.97875,29.859375 L227.97875,29.0859375 L225.713125,29.234375 C224.431875,29.3203125 223.869375,29.765625 223.869375,30.609375 C223.869375,31.46875 224.595938,31.96875 225.5725,31.96875 Z M225.3225,33.1484375 C223.689688,33.1484375 222.47875,32.1796875 222.47875,30.640625 C222.47875,29.1328125 223.588125,28.265625 225.549063,28.1484375 L227.97875,28 L227.97875,27.234375 C227.97875,26.1953125 227.330313,25.625 226.0725,25.625 C225.064688,25.625 224.361563,26.0078125 224.174063,26.671875 L222.814688,26.671875 C222.994375,25.3203125 224.3225,24.4296875 226.119375,24.4296875 C228.174063,24.4296875 229.3225,25.484375 229.3225,27.234375 L229.3225,33 L228.04125,33 L228.04125,31.7578125 L227.91625,31.7578125 C227.369375,32.65625 226.4475,33.1484375 225.3225,33.1484375 Z M231.486875,33 L231.486875,24.578125 L232.768125,24.578125 L232.768125,25.90625 L232.893125,25.90625 C233.275938,24.96875 234.119688,24.4296875 235.244688,24.4296875 C236.385313,24.4296875 237.182188,25.03125 237.572813,25.90625 L237.697813,25.90625 C238.150938,25.015625 239.111875,24.4296875 240.275938,24.4296875 C241.994688,24.4296875 242.955625,25.4140625 242.955625,27.1796875 L242.955625,33 L241.611875,33 L241.611875,27.4921875 C241.611875,26.25 241.025938,25.640625 239.838438,25.640625 C238.666563,25.640625 237.885313,26.515625 237.885313,27.5859375 L237.885313,33 L236.541563,33 L236.541563,27.28125 C236.541563,26.28125 235.84625,25.640625 234.78375,25.640625 C233.682188,25.640625 232.830625,26.59375 232.830625,27.78125 L232.830625,33 L231.486875,33 Z M248.448125,25.6171875 C247.104375,25.6171875 246.166875,26.6015625 246.065313,28.09375 L250.705938,28.09375 C250.674688,26.6015625 249.784063,25.6171875 248.448125,25.6171875 Z M250.666875,30.8203125 L252.010625,30.8203125 C251.604375,32.265625 250.3075,33.1484375 248.46375,33.1484375 C246.127813,33.1484375 244.666875,31.4609375 244.666875,28.796875 C244.666875,26.1484375 246.15125,24.4296875 248.46375,24.4296875 C250.737188,24.4296875 252.12,26.046875 252.12,28.6640625 L252.12,29.1796875 L246.065313,29.1796875 L246.065313,29.2421875 C246.135625,30.90625 247.065313,31.9609375 248.495,31.9609375 C249.580938,31.9609375 250.315313,31.5625 250.666875,30.8203125 Z M258.13625,33 L258.13625,24.578125 L259.48,24.578125 L259.48,33 L258.13625,33 Z M258.808125,22.8671875 C258.2925,22.8671875 257.870625,22.4453125 257.870625,21.9296875 C257.870625,21.4140625 258.2925,20.9921875 258.808125,20.9921875 C259.32375,20.9921875 259.745625,21.4140625 259.745625,21.9296875 C259.745625,22.4453125 259.32375,22.8671875 258.808125,22.8671875 Z M261.7225,33 L261.7225,24.578125 L263.00375,24.578125 L263.00375,25.90625 L263.12875,25.90625 C263.550625,24.9765625 264.370938,24.4296875 265.66,24.4296875 C267.550625,24.4296875 268.605313,25.546875 268.605313,27.546875 L268.605313,33 L267.261563,33 L267.261563,27.875 C267.261563,26.359375 266.620938,25.640625 265.277188,25.640625 C263.933438,25.640625 263.06625,26.5390625 263.06625,28.015625 L263.06625,33 L261.7225,33 Z M275.012188,33 L275.012188,21.234375 L276.355938,21.234375 L276.355938,25.90625 L276.480938,25.90625 C276.902813,24.9765625 277.785625,24.4296875 279.074688,24.4296875 C280.855938,24.4296875 281.980938,25.5703125 281.980938,27.546875 L281.980938,33 L280.637188,33 L280.637188,27.875 C280.637188,26.3828125 279.965313,25.640625 278.691875,25.640625 C277.184063,25.640625 276.355938,26.59375 276.355938,28.015625 L276.355938,33 L275.012188,33 Z M287.473438,25.6171875 C286.129688,25.6171875 285.192188,26.6015625 285.090625,28.09375 L289.73125,28.09375 C289.7,26.6015625 288.809375,25.6171875 287.473438,25.6171875 Z M289.692188,30.8203125 L291.035938,30.8203125 C290.629688,32.265625 289.332813,33.1484375 287.489063,33.1484375 C285.153125,33.1484375 283.692188,31.4609375 283.692188,28.796875 C283.692188,26.1484375 285.176563,24.4296875 287.489063,24.4296875 C289.7625,24.4296875 291.145313,26.046875 291.145313,28.6640625 L291.145313,29.1796875 L285.090625,29.1796875 L285.090625,29.2421875 C285.160938,30.90625 286.090625,31.9609375 287.520313,31.9609375 C288.60625,31.9609375 289.340625,31.5625 289.692188,30.8203125 Z M292.934688,33 L292.934688,24.578125 L294.215938,24.578125 L294.215938,25.828125 L294.340938,25.828125 C294.590938,25.0078125 295.559688,24.4296875 296.676875,24.4296875 C296.895625,24.4296875 297.176875,24.4453125 297.34875,24.46875 L297.34875,25.8125 C297.239375,25.78125 296.755,25.734375 296.489375,25.734375 C295.208125,25.734375 294.278438,26.59375 294.278438,27.78125 L294.278438,33 L292.934688,33 Z M301.833438,25.6171875 C300.489688,25.6171875 299.552188,26.6015625 299.450625,28.09375 L304.09125,28.09375 C304.06,26.6015625 303.169375,25.6171875 301.833438,25.6171875 Z M304.052188,30.8203125 L305.395938,30.8203125 C304.989688,32.265625 303.692813,33.1484375 301.849063,33.1484375 C299.513125,33.1484375 298.052188,31.4609375 298.052188,28.796875 C298.052188,26.1484375 299.536563,24.4296875 301.849063,24.4296875 C304.1225,24.4296875 305.505313,26.046875 305.505313,28.6640625 L305.505313,29.1796875 L299.450625,29.1796875 L299.450625,29.2421875 C299.520938,30.90625 300.450625,31.9609375 301.880313,31.9609375 C302.96625,31.9609375 303.700625,31.5625 304.052188,30.8203125 Z M308.404063,33.078125 C307.849375,33.078125 307.388438,32.6171875 307.388438,32.0625 C307.388438,31.5 307.849375,31.046875 308.404063,31.046875 C308.966563,31.046875 309.419688,31.5 309.419688,32.0625 C309.419688,32.6171875 308.966563,33.078125 308.404063,33.078125 Z M313.099688,24.578125 L313.099688,33.4140625 C313.099688,35.1484375 312.287188,35.890625 310.521563,35.890625 L310.287188,35.890625 L310.287188,34.7421875 L310.490313,34.7421875 C311.443438,34.7421875 311.755938,34.3671875 311.755938,33.4375 L311.755938,24.578125 L313.099688,24.578125 Z M312.427813,22.8671875 C311.912188,22.8671875 311.490313,22.4453125 311.490313,21.9296875 C311.490313,21.4140625 311.912188,20.9921875 312.427813,20.9921875 C312.943438,20.9921875 313.365313,21.4140625 313.365313,21.9296875 C313.365313,22.4453125 312.943438,22.8671875 312.427813,22.8671875 Z M319.44375,24.4296875 C321.592188,24.4296875 322.982813,26.140625 322.982813,28.7890625 C322.982813,31.421875 321.584375,33.1484375 319.44375,33.1484375 C318.240625,33.1484375 317.271875,32.625 316.810938,31.734375 L316.685938,31.734375 L316.685938,35.8125 L315.342188,35.8125 L315.342188,24.578125 L316.623438,24.578125 L316.623438,25.984375 L316.748438,25.984375 C317.2875,25.015625 318.295313,24.4296875 319.44375,24.4296875 Z M319.123438,31.9375 C320.670313,31.9375 321.592188,30.7578125 321.592188,28.7890625 C321.592188,26.8203125 320.670313,25.640625 319.13125,25.640625 C317.607813,25.640625 316.646875,26.8515625 316.646875,28.7890625 C316.646875,30.71875 317.607813,31.9375 319.123438,31.9375 Z M328.178438,31.6875 C329.740938,31.6875 330.678438,30.5 330.678438,28.6640625 C330.678438,26.828125 329.733125,25.640625 328.178438,25.640625 C326.615938,25.640625 325.740938,26.828125 325.740938,28.6640625 C325.740938,30.5 326.615938,31.6875 328.178438,31.6875 Z M328.240938,36.234375 C326.209688,36.234375 324.912813,35.3203125 324.709688,33.9296875 L326.131563,33.9296875 C326.28,34.6171875 327.03,35.0625 328.240938,35.0625 C329.74875,35.0625 330.647188,34.3203125 330.647188,33.078125 L330.647188,31.421875 L330.522188,31.421875 C329.990938,32.3515625 329.037813,32.875 327.881563,32.875 C325.701875,32.875 324.350313,31.1875 324.350313,28.6640625 C324.350313,26.140625 325.7175,24.4296875 327.881563,24.4296875 C329.06125,24.4296875 330.100313,25.0078125 330.584688,25.9140625 L330.709688,25.9140625 L330.709688,24.578125 L331.990938,24.578125 L331.990938,33.1484375 C331.990938,35.03125 330.537813,36.234375 328.240938,36.234375 Z M335.585,25.9375 L334.335,25.9375 L334.335,21.7265625 L335.585,21.7265625 L335.585,25.9375 Z M338.530313,25.9375 L337.280313,25.9375 L337.280313,21.7265625 L338.530313,21.7265625 L338.530313,25.9375 Z M345.07,33 L345.07,24.578125 L346.35125,24.578125 L346.35125,25.828125 L346.47625,25.828125 C346.72625,25.0078125 347.695,24.4296875 348.812188,24.4296875 C349.030938,24.4296875 349.312188,24.4453125 349.484063,24.46875 L349.484063,25.8125 C349.374688,25.78125 348.890313,25.734375 348.624688,25.734375 C347.343438,25.734375 346.41375,26.59375 346.41375,27.78125 L346.41375,33 L345.07,33 Z M353.96875,25.6171875 C352.625,25.6171875 351.6875,26.6015625 351.585938,28.09375 L356.226563,28.09375 C356.195313,26.6015625 355.304688,25.6171875 353.96875,25.6171875 Z M356.1875,30.8203125 L357.53125,30.8203125 C357.125,32.265625 355.828125,33.1484375 353.984375,33.1484375 C351.648438,33.1484375 350.1875,31.4609375 350.1875,28.796875 C350.1875,26.1484375 351.671875,24.4296875 353.984375,24.4296875 C356.257813,24.4296875 357.640625,26.046875 357.640625,28.6640625 L357.640625,29.1796875 L351.585938,29.1796875 L351.585938,29.2421875 C351.65625,30.90625 352.585938,31.9609375 354.015625,31.9609375 C355.101563,31.9609375 355.835938,31.5625 356.1875,30.8203125 Z M359.43,33 L359.43,24.578125 L360.71125,24.578125 L360.71125,25.90625 L360.83625,25.90625 C361.219063,24.96875 362.062813,24.4296875 363.187813,24.4296875 C364.328438,24.4296875 365.125313,25.03125 365.515938,25.90625 L365.640938,25.90625 C366.094063,25.015625 367.055,24.4296875 368.219063,24.4296875 C369.937813,24.4296875 370.89875,25.4140625 370.89875,27.1796875 L370.89875,33 L369.555,33 L369.555,27.4921875 C369.555,26.25 368.969063,25.640625 367.781563,25.640625 C366.609688,25.640625 365.828438,26.515625 365.828438,27.5859375 L365.828438,33 L364.484688,33 L364.484688,27.28125 C364.484688,26.28125 363.789375,25.640625 362.726875,25.640625 C361.625313,25.640625 360.77375,26.59375 360.77375,27.78125 L360.77375,33 L359.43,33 Z M376.492813,33.1484375 C374.094375,33.1484375 372.61,31.4921875 372.61,28.7890625 C372.61,26.078125 374.094375,24.4296875 376.492813,24.4296875 C378.89125,24.4296875 380.375625,26.078125 380.375625,28.7890625 C380.375625,31.4921875 378.89125,33.1484375 376.492813,33.1484375 Z M376.492813,31.9375 C378.086563,31.9375 378.985,30.78125 378.985,28.7890625 C378.985,26.7890625 378.086563,25.640625 376.492813,25.640625 C374.899063,25.640625 374.000625,26.7890625 374.000625,28.7890625 C374.000625,30.78125 374.899063,31.9375 376.492813,31.9375 Z M388.7275,24.578125 L385.610313,33 L384.235313,33 L381.118125,24.578125 L382.555625,24.578125 L384.860313,31.515625 L384.985313,31.515625 L387.29,24.578125 L388.7275,24.578125 Z M393.25125,25.6171875 C391.9075,25.6171875 390.97,26.6015625 390.868438,28.09375 L395.509063,28.09375 C395.477813,26.6015625 394.587188,25.6171875 393.25125,25.6171875 Z M395.47,30.8203125 L396.81375,30.8203125 C396.4075,32.265625 395.110625,33.1484375 393.266875,33.1484375 C390.930938,33.1484375 389.47,31.4609375 389.47,28.796875 C389.47,26.1484375 390.954375,24.4296875 393.266875,24.4296875 C395.540313,24.4296875 396.923125,26.046875 396.923125,28.6640625 L396.923125,29.1796875 L390.868438,29.1796875 L390.868438,29.2421875 C390.93875,30.90625 391.868438,31.9609375 393.298125,31.9609375 C394.384063,31.9609375 395.118438,31.5625 395.47,30.8203125 Z M401.829688,33.1484375 C399.673438,33.1484375 398.290625,31.4375 398.290625,28.7890625 C398.290625,26.1484375 399.689063,24.4296875 401.829688,24.4296875 C403.001563,24.4296875 403.99375,24.984375 404.470313,25.90625 L404.5875,25.90625 L404.5875,21.234375 L405.93125,21.234375 L405.93125,33 L404.65,33 L404.65,31.65625 L404.525,31.65625 C403.99375,32.59375 402.99375,33.1484375 401.829688,33.1484375 Z M402.142188,25.640625 C400.610938,25.640625 399.68125,26.828125 399.68125,28.7890625 C399.68125,30.7578125 400.603125,31.9375 402.142188,31.9375 C403.673438,31.9375 404.61875,30.734375 404.61875,28.7890625 C404.61875,26.859375 403.665625,25.640625 402.142188,25.640625 Z M412.97875,33 L412.97875,25.703125 L411.580313,25.703125 L411.580313,24.578125 L412.97875,24.578125 L412.97875,23.640625 C412.97875,21.9609375 413.8225,21.15625 415.424063,21.15625 C415.752188,21.15625 416.049063,21.1796875 416.330313,21.234375 L416.330313,22.328125 C416.16625,22.296875 415.939688,22.2890625 415.6975,22.2890625 C414.72875,22.2890625 414.3225,22.7578125 414.3225,23.6796875 L414.3225,24.578125 L416.252188,24.578125 L416.252188,25.703125 L414.3225,25.703125 L414.3225,33 L412.97875,33 Z M417.885313,33 L417.885313,24.578125 L419.166563,24.578125 L419.166563,25.828125 L419.291563,25.828125 C419.541563,25.0078125 420.510313,24.4296875 421.6275,24.4296875 C421.84625,24.4296875 422.1275,24.4453125 422.299375,24.46875 L422.299375,25.8125 C422.19,25.78125 421.705625,25.734375 421.44,25.734375 C420.15875,25.734375 419.229063,26.59375 419.229063,27.78125 L419.229063,33 L417.885313,33 Z M426.885625,33.1484375 C424.487188,33.1484375 423.002813,31.4921875 423.002813,28.7890625 C423.002813,26.078125 424.487188,24.4296875 426.885625,24.4296875 C429.284063,24.4296875 430.768438,26.078125 430.768438,28.7890625 C430.768438,31.4921875 429.284063,33.1484375 426.885625,33.1484375 Z M426.885625,31.9375 C428.479375,31.9375 429.377813,30.78125 429.377813,28.7890625 C429.377813,26.7890625 428.479375,25.640625 426.885625,25.640625 C425.291875,25.640625 424.393438,26.7890625 424.393438,28.7890625 C424.393438,30.78125 425.291875,31.9375 426.885625,31.9375 Z M432.557813,33 L432.557813,24.578125 L433.839063,24.578125 L433.839063,25.90625 L433.964063,25.90625 C434.346875,24.96875 435.190625,24.4296875 436.315625,24.4296875 C437.45625,24.4296875 438.253125,25.03125 438.64375,25.90625 L438.76875,25.90625 C439.221875,25.015625 440.182813,24.4296875 441.346875,24.4296875 C443.065625,24.4296875 444.026563,25.4140625 444.026563,27.1796875 L444.026563,33 L442.682813,33 L442.682813,27.4921875 C442.682813,26.25 442.096875,25.640625 440.909375,25.640625 C439.7375,25.640625 438.95625,26.515625 438.95625,27.5859375 L438.95625,33 L437.6125,33 L437.6125,27.28125 C437.6125,26.28125 436.917188,25.640625 435.854688,25.640625 C434.753125,25.640625 433.901563,26.59375 433.901563,27.78125 L433.901563,33 L432.557813,33 Z M451.933438,33 L450.527188,33 L450.527188,21.7265625 L457.370938,21.7265625 L457.370938,22.9921875 L451.933438,22.9921875 L451.933438,26.8671875 L456.925625,26.8671875 L456.925625,28.1171875 L451.933438,28.1171875 L451.933438,33 Z M461.238438,31.96875 C462.62125,31.96875 463.644688,31.0625 463.644688,29.859375 L463.644688,29.0859375 L461.379063,29.234375 C460.097813,29.3203125 459.535313,29.765625 459.535313,30.609375 C459.535313,31.46875 460.261875,31.96875 461.238438,31.96875 Z M460.988438,33.1484375 C459.355625,33.1484375 458.144688,32.1796875 458.144688,30.640625 C458.144688,29.1328125 459.254063,28.265625 461.215,28.1484375 L463.644688,28 L463.644688,27.234375 C463.644688,26.1953125 462.99625,25.625 461.738438,25.625 C460.730625,25.625 460.0275,26.0078125 459.84,26.671875 L458.480625,26.671875 C458.660313,25.3203125 459.988438,24.4296875 461.785313,24.4296875 C463.84,24.4296875 464.988438,25.484375 464.988438,27.234375 L464.988438,33 L463.707188,33 L463.707188,31.7578125 L463.582188,31.7578125 C463.035313,32.65625 462.113438,33.1484375 460.988438,33.1484375 Z M473.715313,24.578125 L470.598125,33 L469.223125,33 L466.105938,24.578125 L467.543438,24.578125 L469.848125,31.515625 L469.973125,31.515625 L472.277813,24.578125 L473.715313,24.578125 Z M478.340625,33.1484375 C475.942188,33.1484375 474.457813,31.4921875 474.457813,28.7890625 C474.457813,26.078125 475.942188,24.4296875 478.340625,24.4296875 C480.739063,24.4296875 482.223438,26.078125 482.223438,28.7890625 C482.223438,31.4921875 480.739063,33.1484375 478.340625,33.1484375 Z M478.340625,31.9375 C479.934375,31.9375 480.832813,30.78125 480.832813,28.7890625 C480.832813,26.7890625 479.934375,25.640625 478.340625,25.640625 C476.746875,25.640625 475.848438,26.7890625 475.848438,28.7890625 C475.848438,30.78125 476.746875,31.9375 478.340625,31.9375 Z M484.012813,33 L484.012813,24.578125 L485.294063,24.578125 L485.294063,25.828125 L485.419063,25.828125 C485.669063,25.0078125 486.637813,24.4296875 487.755,24.4296875 C487.97375,24.4296875 488.255,24.4453125 488.426875,24.46875 L488.426875,25.8125 C488.3175,25.78125 487.833125,25.734375 487.5675,25.734375 C486.28625,25.734375 485.356563,26.59375 485.356563,27.78125 L485.356563,33 L484.012813,33 Z M489.817813,33 L489.817813,24.578125 L491.161563,24.578125 L491.161563,33 L489.817813,33 Z M490.489688,22.8671875 C489.974063,22.8671875 489.552188,22.4453125 489.552188,21.9296875 C489.552188,21.4140625 489.974063,20.9921875 490.489688,20.9921875 C491.005313,20.9921875 491.427188,21.4140625 491.427188,21.9296875 C491.427188,22.4453125 491.005313,22.8671875 490.489688,22.8671875 Z M493.966563,22.3984375 L495.310313,22.3984375 L495.310313,24.578125 L497.185313,24.578125 L497.185313,25.703125 L495.310313,25.703125 L495.310313,30.46875 C495.310313,31.4609375 495.685313,31.8828125 496.560313,31.8828125 C496.8025,31.8828125 496.935313,31.875 497.185313,31.8515625 L497.185313,32.984375 C496.919688,33.03125 496.661875,33.0625 496.39625,33.0625 C494.661875,33.0625 493.966563,32.421875 493.966563,30.8125 L493.966563,25.703125 L492.607188,25.703125 L492.607188,24.578125 L493.966563,24.578125 L493.966563,22.3984375 Z M502.13875,25.6171875 C500.795,25.6171875 499.8575,26.6015625 499.755938,28.09375 L504.396563,28.09375 C504.365313,26.6015625 503.474688,25.6171875 502.13875,25.6171875 Z M504.3575,30.8203125 L505.70125,30.8203125 C505.295,32.265625 503.998125,33.1484375 502.154375,33.1484375 C499.818438,33.1484375 498.3575,31.4609375 498.3575,28.796875 C498.3575,26.1484375 499.841875,24.4296875 502.154375,24.4296875 C504.427813,24.4296875 505.810625,26.046875 505.810625,28.6640625 L505.810625,29.1796875 L499.755938,29.1796875 L499.755938,29.2421875 C499.82625,30.90625 500.755938,31.9609375 502.185625,31.9609375 C503.271563,31.9609375 504.005938,31.5625 504.3575,30.8203125 Z M507.404688,26.8828125 C507.404688,25.484375 508.756251,24.4296875 510.545313,24.4296875 C512.310938,24.4296875 513.537501,25.3046875 513.717188,26.6875 L512.389063,26.6875 C512.209376,26.015625 511.553126,25.5703125 510.537501,25.5703125 C509.537501,25.5703125 508.756251,26.078125 508.756251,26.828125 C508.756251,27.40625 509.225001,27.765625 510.217188,28.0078125 L511.514063,28.3203125 C513.100001,28.703125 513.865626,29.390625 513.865626,30.6015625 C513.865626,32.109375 512.404688,33.1484375 510.490626,33.1484375 C508.615626,33.1484375 507.326563,32.25 507.178126,30.8515625 L508.560938,30.8515625 C508.787501,31.5625 509.459376,32.015625 510.537501,32.015625 C511.670313,32.015625 512.482813,31.4765625 512.482813,30.703125 C512.482813,30.125 512.045313,29.734375 511.146876,29.515625 L509.701563,29.1640625 C508.123438,28.78125 507.404688,28.1015625 507.404688,26.8828125 Z M516.764376,33.078125 C516.209688,33.078125 515.748751,32.6171875 515.748751,32.0625 C515.748751,31.5 516.209688,31.046875 516.764376,31.046875 C517.326876,31.046875 517.780001,31.5 517.780001,32.0625 C517.780001,32.6171875 517.326876,33.078125 516.764376,33.078125 Z"/>
      </g>
      <path fill="#C41261" d="M445,150.588 L445.88,150.588 C445.924,151.424 446.375,151.864 447.178,151.864 C448.003,151.864 448.586,151.358 448.586,150.621 C448.586,149.983 448.256,149.686 447.101,149.301 C446.232,149.004 445.946,148.861 445.616,148.564 C445.242,148.223 445.044,147.739 445.044,147.178 C445.044,145.935 445.935,145.088 447.233,145.088 C448.531,145.088 449.378,145.913 449.411,147.189 L448.487,147.189 C448.476,146.815 448.432,146.639 448.311,146.43 C448.102,146.111 447.695,145.913 447.222,145.913 C446.496,145.913 445.979,146.408 445.979,147.112 C445.979,147.464 446.133,147.772 446.397,147.959 C446.628,148.124 446.826,148.212 447.574,148.476 C448.355,148.751 448.729,148.949 449.026,149.268 C449.345,149.609 449.521,150.071 449.521,150.566 C449.521,151.831 448.586,152.689 447.211,152.689 C446.276,152.689 445.638,152.359 445.253,151.699 C445.077,151.402 445,151.094 445,150.742 L445,150.588 Z M450.808,147.486 L451.644,147.486 L451.644,148.201 C452.084,147.607 452.524,147.365 453.151,147.365 C453.613,147.365 454.031,147.519 454.328,147.783 C454.647,148.091 454.757,148.443 454.757,149.136 L454.757,152.557 L453.921,152.557 L453.921,149.323 C453.921,148.872 453.866,148.63 453.734,148.454 C453.58,148.245 453.283,148.113 452.942,148.113 C452.568,148.113 452.227,148.256 451.974,148.542 C451.732,148.806 451.644,149.048 451.644,149.466 L451.644,152.557 L450.808,152.557 L450.808,147.486 Z M460.235,148.322 L460.235,147.486 L461.071,147.486 L461.071,152.557 L460.235,152.557 L460.235,151.578 C459.729,152.337 459.157,152.678 458.387,152.678 C456.99,152.678 456,151.578 456,150.038 C456,148.487 457.012,147.365 458.409,147.365 C459.179,147.365 459.74,147.662 460.235,148.322 Z M458.53,148.113 C457.98,148.113 457.595,148.3 457.298,148.718 C457.034,149.081 456.88,149.565 456.88,150.06 C456.88,151.138 457.584,151.952 458.508,151.952 C459.465,151.952 460.246,151.061 460.246,149.972 C460.246,148.872 459.542,148.113 458.53,148.113 Z M466.186,151.358 L466.703,151.93 C466.131,152.447 465.57,152.678 464.833,152.678 C463.381,152.678 462.347,151.578 462.347,150.038 C462.347,148.465 463.392,147.365 464.877,147.365 C465.603,147.365 466.197,147.607 466.725,148.124 L466.186,148.663 C465.801,148.311 465.372,148.135 464.899,148.135 C463.898,148.135 463.205,148.905 463.205,150.005 C463.205,151.127 463.898,151.908 464.888,151.908 C465.383,151.908 465.779,151.743 466.186,151.358 Z M468.617,150.291 L468.617,152.557 L467.781,152.557 L467.781,145.22 L468.617,145.22 L468.617,149.708 L470.641,147.486 L471.697,147.486 L469.431,149.961 L471.686,152.557 L470.641,152.557 L468.617,150.291 Z M473.501,151.688 L473.501,152.557 L472.665,152.557 L472.665,145.22 L473.501,145.22 L473.501,148.355 C474.007,147.662 474.546,147.365 475.283,147.365 C476.702,147.365 477.692,148.465 477.692,150.038 C477.692,151.589 476.713,152.678 475.327,152.678 C474.546,152.678 473.996,152.381 473.501,151.688 Z M475.173,148.113 C474.205,148.113 473.49,148.916 473.49,150.027 C473.49,151.182 474.15,151.952 475.14,151.952 C476.141,151.952 476.812,151.193 476.812,150.06 C476.812,148.927 476.13,148.113 475.173,148.113 Z M482.796,148.322 L482.796,147.486 L483.632,147.486 L483.632,152.557 L482.796,152.557 L482.796,151.578 C482.29,152.337 481.718,152.678 480.948,152.678 C479.551,152.678 478.561,151.578 478.561,150.038 C478.561,148.487 479.573,147.365 480.97,147.365 C481.74,147.365 482.301,147.662 482.796,148.322 Z M481.091,148.113 C480.541,148.113 480.156,148.3 479.859,148.718 C479.595,149.081 479.441,149.565 479.441,150.06 C479.441,151.138 480.145,151.952 481.069,151.952 C482.026,151.952 482.807,151.061 482.807,149.972 C482.807,148.872 482.103,148.113 481.091,148.113 Z M485.315,147.486 L486.151,147.486 L486.151,148.344 C486.305,147.981 486.415,147.827 486.613,147.673 C486.866,147.475 487.218,147.365 487.581,147.365 L487.779,147.365 L487.779,148.212 C487.691,148.201 487.603,148.201 487.548,148.201 C487.097,148.201 486.701,148.41 486.448,148.784 C486.228,149.103 486.151,149.4 486.151,149.983 L486.151,152.557 L485.315,152.557 L485.315,147.486 Z M497.965,147.486 L498.823,147.486 L497.019,152.557 L496.26,152.557 L495.094,148.707 L493.873,152.557 L493.081,152.557 L491.343,147.486 L492.201,147.486 L493.499,151.215 L494.665,147.486 L495.49,147.486 L496.634,151.215 L497.965,147.486 Z M500.561,147.486 L500.561,152.557 L499.725,152.557 L499.725,147.486 L500.561,147.486 Z M500.154,145.517 C500.451,145.517 500.682,145.759 500.682,146.067 C500.682,146.364 500.44,146.595 500.143,146.595 C499.846,146.595 499.615,146.364 499.615,146.056 C499.615,145.748 499.846,145.517 500.154,145.517 Z M506.039,148.256 L506.039,145.22 L506.875,145.22 L506.875,152.557 L506.039,152.557 L506.039,151.688 C505.533,152.381 504.994,152.678 504.224,152.678 C502.827,152.678 501.837,151.589 501.837,150.049 C501.837,148.509 502.849,147.365 504.224,147.365 C504.972,147.365 505.544,147.64 506.039,148.256 Z M504.4,148.113 C503.399,148.113 502.717,148.905 502.717,150.06 C502.717,151.171 503.388,151.952 504.345,151.952 C505.324,151.952 506.039,151.138 506.039,150.038 C506.039,148.894 505.368,148.113 504.4,148.113 Z M509.449,148.223 L509.449,151.523 C509.46,151.776 509.526,151.831 509.834,151.831 L510.219,151.831 L510.219,152.557 L509.438,152.557 C508.844,152.546 508.613,152.326 508.613,151.765 L508.613,148.223 L507.909,148.223 L507.909,147.486 L508.613,147.486 L508.613,145.891 L509.449,145.891 L509.449,147.486 L510.219,147.486 L510.219,148.223 L509.449,148.223 Z M512.243,145.22 L512.243,148.19 C512.705,147.618 513.167,147.365 513.772,147.365 C514.212,147.365 514.674,147.541 514.949,147.827 C515.224,148.102 515.345,148.498 515.345,149.147 L515.345,152.557 L514.509,152.557 L514.509,149.191 C514.509,148.498 514.168,148.113 513.563,148.113 C513.178,148.113 512.837,148.267 512.573,148.564 C512.32,148.85 512.243,149.103 512.243,149.587 L512.243,152.557 L511.407,152.557 L511.407,145.22 L512.243,145.22 Z M522.999,146.144 L520.183,146.144 L520.183,145.33 L524.253,145.33 L521.349,152.557 L520.403,152.557 L522.999,146.144 Z M527.597,146.551 L525.98,147.629 L525.98,146.793 L528.466,145.165 L528.466,152.557 L527.597,152.557 L527.597,146.551 Z M532.261,151.754 L534.846,151.754 L534.846,152.557 L530.732,152.557 L533.284,148.905 C534.021,147.838 534.186,147.508 534.186,147.068 C534.186,146.43 533.68,145.979 532.965,145.979 C532.47,145.979 532.063,146.21 531.898,146.595 C531.81,146.804 531.777,146.969 531.766,147.354 L530.941,147.354 C530.985,145.957 531.722,145.187 533.031,145.187 C534.23,145.187 535.066,145.935 535.066,147.002 C535.066,147.618 534.846,148.157 534.23,149.015 L532.261,151.754 Z M536.595,147.486 L537.431,147.486 L537.431,148.41 C537.915,147.662 538.432,147.365 539.279,147.365 C540.687,147.365 541.666,148.443 541.666,149.983 C541.666,151.578 540.687,152.678 539.279,152.678 C538.883,152.678 538.52,152.59 538.168,152.414 C537.86,152.26 537.706,152.128 537.431,151.765 L537.431,154.933 L536.595,154.933 L536.595,147.486 Z M539.136,148.113 C538.124,148.113 537.431,148.916 537.431,150.104 C537.431,151.215 538.102,151.952 539.103,151.952 C540.104,151.952 540.775,151.171 540.775,150.016 C540.775,149.422 540.632,148.971 540.335,148.641 C540.038,148.311 539.587,148.113 539.136,148.113 Z M544.548,150.72 L543.195,152.557 L542.172,152.557 L544.042,150.038 L542.139,147.486 L543.195,147.486 L544.548,149.345 L545.934,147.486 L546.957,147.486 L545.043,150.038 L546.869,152.557 L545.846,152.557 L544.548,150.72 Z M553.216,154.603 L552.666,155.131 C551.368,153.536 550.774,151.985 550.774,150.137 C550.774,148.245 551.467,146.375 552.688,145 L553.216,145.55 C552.105,146.925 551.555,148.454 551.555,150.104 C551.555,151.71 552.149,153.316 553.216,154.603 Z M555.372,148.223 L555.372,152.557 L554.536,152.557 L554.536,148.223 L553.843,148.223 L553.843,147.486 L554.536,147.486 L554.536,146.804 C554.536,145.803 555.053,145.209 555.933,145.209 C555.977,145.209 556.076,145.209 556.164,145.22 L556.164,145.968 C555.559,146.034 555.394,146.21 555.372,146.804 L555.372,147.486 L556.164,147.486 L556.164,148.223 L555.372,148.223 Z M558.364,147.486 L558.364,152.557 L557.528,152.557 L557.528,147.486 L558.364,147.486 Z M557.946,145.517 C558.243,145.517 558.474,145.759 558.474,146.067 C558.474,146.364 558.243,146.595 557.946,146.595 C557.638,146.595 557.407,146.364 557.407,146.056 C557.407,145.748 557.638,145.517 557.946,145.517 Z M561.664,150.72 L560.311,152.557 L559.288,152.557 L561.158,150.038 L559.255,147.486 L560.311,147.486 L561.664,149.345 L563.05,147.486 L564.073,147.486 L562.159,150.038 L563.985,152.557 L562.962,152.557 L561.664,150.72 Z M569.661,150.291 L565.437,150.291 C565.481,150.72 565.558,150.94 565.767,151.215 C566.097,151.666 566.581,151.908 567.131,151.908 C567.758,151.908 568.352,151.567 568.649,151.039 L569.386,151.314 C568.968,152.161 568.099,152.678 567.131,152.678 C565.624,152.678 564.546,151.578 564.546,150.038 C564.546,148.476 565.613,147.365 567.098,147.365 C568.572,147.365 569.672,148.476 569.672,149.961 C569.672,150.027 569.672,150.17 569.661,150.291 Z M565.448,149.675 L568.781,149.675 C568.748,149.279 568.671,149.059 568.495,148.806 C568.176,148.377 567.659,148.113 567.098,148.113 C566.537,148.113 566.031,148.377 565.734,148.817 C565.58,149.059 565.514,149.268 565.448,149.675 Z M574.677,148.256 L574.677,145.22 L575.513,145.22 L575.513,152.557 L574.677,152.557 L574.677,151.688 C574.171,152.381 573.632,152.678 572.862,152.678 C571.465,152.678 570.475,151.589 570.475,150.049 C570.475,148.509 571.487,147.365 572.862,147.365 C573.61,147.365 574.182,147.64 574.677,148.256 Z M573.038,148.113 C572.037,148.113 571.355,148.905 571.355,150.06 C571.355,151.171 572.026,151.952 572.983,151.952 C573.962,151.952 574.677,151.138 574.677,150.038 C574.677,148.894 574.006,148.113 573.038,148.113 Z M576.745,145.528 L577.295,145 C578.604,146.606 579.187,148.146 579.187,149.994 C579.187,151.897 578.494,153.745 577.273,155.131 L576.745,154.581 C577.856,153.206 578.406,151.677 578.406,150.027 C578.406,148.41 577.823,146.826 576.745,145.528 Z"/>
      <g fill="#C41261" transform="translate(156 137)">
        <rect width="702" height="1" x="5" y="2"/>
        <polygon points="709.5 0 712 5 707 5" transform="rotate(90 709.5 2.5)"/>
        <polygon points="2.5 0 5 5 0 5" transform="matrix(0 1 1 0 0 0)"/>
      </g>
    </g>
  </g>
</svg>
