<svg xmlns="http://www.w3.org/2000/svg" width="380" height="180" viewBox="0 0 380 180">
  <g fill="none" fill-rule="evenodd">
    <rect width="380" height="180" fill="#FFF" fill-rule="nonzero" opacity=".01"/>
    <g transform="translate(18 66)">
      <rect width="344" height="48" fill="#FAFAFA" rx="4"/>
      <rect width="344.003" height="48" fill="#25333D" rx="4"/>
      <rect width="73" height="48" x="263"/>
      <path fill="#F3F6FA" d="M24.3227229,25.8991145 C24.2019086,26.9327482 23.8204542,27.7303345 23.1783485,28.2918974 C22.5362427,28.8534602 21.6827247,29.1342375 20.6177688,29.1342375 C19.4633208,29.1342375 18.5382102,28.7203428 17.8424092,27.8925409 C17.1466082,27.0647391 16.7987129,25.957291 16.7987129,24.5701636 L16.7987129,23.6305014 C16.7987129,22.7221566 16.9609149,21.9234517 17.2853237,21.2343626 C17.6097326,20.5452735 18.0694913,20.0161594 18.6646137,19.6470046 C19.2597361,19.2778497 19.9488149,19.093275 20.7318707,19.093275 C21.7699789,19.093275 22.6022429,19.3830013 23.2286875,19.9624626 C23.8551322,20.5419239 24.219807,21.3439847 24.3227229,22.3686692 L23.0273313,22.3686692 C22.9154662,21.590088 22.6727226,21.0262963 22.2990931,20.6772771 C21.9254636,20.328258 21.4030614,20.153751 20.7318707,20.153751 C19.9085434,20.153751 19.2630914,20.4580195 18.7954952,21.0665658 C18.3278991,21.675112 18.0941045,22.540935 18.0941045,23.6640607 L18.0941045,24.6104349 C18.0941045,25.6709161 18.3155941,26.5143665 18.7585799,27.1408111 C19.2015658,27.7672557 19.8212892,28.0804734 20.6177688,28.0804734 C21.3337056,28.0804734 21.882955,27.9182714 22.2655337,27.5938625 C22.6481124,27.2694537 22.9020424,26.7045434 23.0273313,25.8991145 L24.3227229,25.8991145 Z M25.8077076,25.3017578 C25.8077076,24.5902957 25.9475369,23.9504368 26.2271997,23.382162 C26.5068624,22.8138873 26.8961472,22.3753826 27.3950656,22.0666349 C27.893984,21.7578872 28.4633689,21.6035156 29.1032374,21.6035156 C30.092125,21.6035156 30.8919485,21.9458177 31.5027321,22.6304322 C32.1135156,23.3150467 32.4189028,24.2256151 32.4189028,25.3621647 L32.4189028,25.449419 C32.4189028,26.1564065 32.283548,26.7906722 32.0128344,27.3522351 C31.7421209,27.913798 31.3550734,28.351184 30.8516804,28.6644063 C30.3482873,28.9776287 29.7699534,29.1342375 29.1166611,29.1342375 C28.1322481,29.1342375 27.3346618,28.7919354 26.7238783,28.1073209 C26.1130948,27.4227064 25.8077076,26.5166125 25.8077076,25.3890122 L25.8077076,25.3017578 Z M27.056116,25.449419 C27.056116,26.2548478 27.2429279,26.9014185 27.6165574,27.3891504 C27.9901869,27.8768823 28.4902165,28.1207446 29.1166611,28.1207446 C29.7475804,28.1207446 30.2487286,27.8735264 30.6201207,27.3790826 C30.9915129,26.8846388 31.1772062,26.1922041 31.1772062,25.3017578 C31.1772062,24.5052782 30.988157,23.8598262 30.6100529,23.3653824 C30.2319488,22.8709386 29.729682,22.6237204 29.1032374,22.6237204 C28.4902165,22.6237204 27.9957802,22.8675827 27.6199134,23.3553146 C27.2440466,23.8430465 27.056116,24.5410743 27.056116,25.449419 Z M40.3607096,25.449419 C40.3607096,26.5546464 40.1078982,27.4450793 39.6022679,28.1207446 C39.0966376,28.7964099 38.4120333,29.1342375 37.5484347,29.1342375 C36.6669376,29.1342375 35.9733843,28.8545789 35.4677539,28.2952533 L35.4677539,31.7921393 L34.2260574,31.7921393 L34.2260574,21.7377531 L35.360364,21.7377531 L35.4207708,22.5431779 C35.9264011,21.9167332 36.6289035,21.6035156 37.528299,21.6035156 C38.4008469,21.6035156 39.0910443,21.9323941 39.598912,22.590161 C40.1067796,23.2479279 40.3607096,24.1629708 40.3607096,25.3353172 L40.3607096,25.449419 Z M39.119013,25.3084697 C39.119013,24.489617 38.9445061,23.8430464 38.5954869,23.3687383 C38.2464677,22.8944302 37.7676922,22.6572797 37.159146,22.6572797 C36.4074124,22.6572797 35.8436207,22.9906328 35.4677539,23.6573489 L35.4677539,27.1273873 C35.8391461,27.7896288 36.4074124,28.1207446 37.1725698,28.1207446 C37.7676922,28.1207446 38.2408745,27.8847127 38.592131,27.412642 C38.9433874,26.9405712 39.119013,26.2391874 39.119013,25.3084697 Z M43.5370863,29 L42.2953898,29 L42.2953898,21.7377531 L43.5370863,21.7377531 L43.5370863,29 Z M42.1947117,19.8114455 C42.1947117,19.6100882 42.2562366,19.4400558 42.3792882,19.3013431 C42.5023398,19.1626303 42.6846772,19.093275 42.9263059,19.093275 C43.1679345,19.093275 43.3513905,19.1626303 43.4766795,19.3013431 C43.6019684,19.4400558 43.6646119,19.6100882 43.6646119,19.8114455 C43.6646119,20.0128027 43.6019684,20.1805978 43.4766795,20.314836 C43.3513905,20.4490741 43.1679345,20.5161922 42.9263059,20.5161922 C42.6846772,20.5161922 42.5023398,20.4490741 42.3792882,20.314836 C42.2562366,20.1805978 42.1947117,20.0128027 42.1947117,19.8114455 Z M48.7874319,29.1342375 C47.8030189,29.1342375 47.0020767,28.8109521 46.3845813,28.1643718 C45.7670859,27.5177914 45.4583428,26.6530871 45.4583428,25.5702327 L45.4583428,25.3420291 C45.4583428,24.6216177 45.5959348,23.978403 45.871123,23.4123655 C46.1463112,22.846328 46.5311214,22.4033488 47.0255652,22.0834146 C47.520009,21.7634803 48.0558349,21.6035156 48.6330589,21.6035156 C49.5772004,21.6035156 50.3110246,21.914496 50.8345533,22.536466 C51.358082,23.158436 51.6198425,24.048869 51.6198425,25.2077916 L51.6198425,25.7246058 L46.7000393,25.7246058 C46.7179378,26.4405426 46.9271224,27.0188765 47.3275995,27.4596251 C47.7280766,27.9003736 48.2370552,28.1207446 48.8545507,28.1207446 C49.2930619,28.1207446 49.6644485,28.0312538 49.9687216,27.8522697 C50.2729948,27.6732855 50.5392297,27.436135 50.7674346,27.1408111 L51.5258762,27.7314559 C50.91733,28.6666483 50.0045244,29.1342375 48.7874319,29.1342375 Z M48.6330589,22.6237204 C48.1319031,22.6237204 47.7112966,22.8060578 47.3712267,23.170738 C47.0311567,23.5354183 46.8208535,24.0466342 46.7403106,24.7044011 L50.3781459,24.7044011 L50.3781459,24.6104349 C50.3423491,23.9795156 50.1723167,23.4906724 49.8680435,23.1438905 C49.5637704,22.7971087 49.152113,22.6237204 48.6330589,22.6237204 Z M53.0041491,25.3084697 C53.0041491,24.1942931 53.2681468,23.298267 53.7961501,22.6203644 C54.3241535,21.9424618 55.0154695,21.6035156 55.870119,21.6035156 C56.7202938,21.6035156 57.3937117,21.8943606 57.8903928,22.4760592 L57.8903928,18.6905626 L59.1320894,18.6905626 L59.1320894,29 L57.9910709,29 L57.9306641,28.2214227 C57.433983,28.8299689 56.7426669,29.1342375 55.8566952,29.1342375 C55.0154696,29.1342375 54.3297467,28.7896981 53.799506,28.100609 C53.2692654,27.4115199 53.0041491,26.5121378 53.0041491,25.4024359 L53.0041491,25.3084697 Z M54.2458456,25.449419 C54.2458456,26.2727463 54.415878,26.9170797 54.755948,27.3824385 C55.0960179,27.8477974 55.5658444,28.0804734 56.1654414,28.0804734 C56.9529718,28.0804734 57.5279499,27.7269849 57.8903928,27.0199974 L57.8903928,23.6841963 C57.5190006,22.9995818 56.9484971,22.6572797 56.1788651,22.6572797 C55.5703189,22.6572797 55.0960179,22.8921929 54.755948,23.3620264 C54.415878,23.8318599 54.2458456,24.5276505 54.2458456,25.449419 Z M66.4446408,25.1742322 L66.4446408,29 L65.1559611,29 L65.1559611,19.2275125 L68.7602371,19.2275125 C69.8296676,19.2275125 70.6675247,19.5004593 71.2738336,20.046361 C71.8801425,20.5922628 72.1832925,21.3149006 72.1832925,22.2142961 C72.1832925,23.1629123 71.8868543,23.8933805 71.2939692,24.4057227 C70.7010841,24.918065 69.8520407,25.1742322 68.7468133,25.1742322 L66.4446408,25.1742322 Z M66.4446408,24.1204681 L68.7602371,24.1204681 C69.4493262,24.1204681 69.9773216,23.9582661 70.3442392,23.6338573 C70.7111567,23.3094485 70.8946128,22.8407407 70.8946128,22.2277198 C70.8946128,21.6460212 70.7111567,21.1806694 70.3442392,20.8316502 C69.9773216,20.482631 69.4739361,20.3014123 68.8340677,20.2879885 L66.4446408,20.2879885 L66.4446408,24.1204681 Z M78.2927578,29 C78.2211642,28.8568127 78.1629952,28.601764 78.1182491,28.2348464 C77.5410251,28.8344435 76.8519464,29.1342375 76.0509922,29.1342375 C75.3350554,29.1342375 74.7477724,28.9317646 74.2891254,28.5268129 C73.8304784,28.1218612 73.6011584,27.608408 73.6011584,26.986438 C73.6011584,26.2302298 73.8886474,25.6429468 74.4636341,25.2245713 C75.0386208,24.8061957 75.8473935,24.5970111 76.8899763,24.5970111 L78.0981135,24.5970111 L78.0981135,24.0265019 C78.0981135,23.5924652 77.9683519,23.2468072 77.7088249,22.9895175 C77.4492978,22.7322277 77.0667248,22.6035847 76.5610945,22.6035847 C76.1181087,22.6035847 75.7467221,22.7154482 75.4469236,22.9391784 C75.1471251,23.1629086 74.9972281,23.4336182 74.9972281,23.7513151 L73.7488196,23.7513151 C73.7488196,23.3888721 73.8774626,23.0387396 74.1347523,22.7009069 C74.3920421,22.3630743 74.741056,22.0957207 75.1818046,21.8988381 C75.6225531,21.7019554 76.1069218,21.6035156 76.6349251,21.6035156 C77.4716762,21.6035156 78.1271959,21.8127003 78.601504,22.2310758 C79.0758121,22.6494513 79.3219117,23.225548 79.3398101,23.9593832 L79.3398101,27.3018961 C79.3398101,27.9686121 79.4248263,28.4988448 79.5948613,28.89261 L79.5948613,29 L78.2927578,29 Z M76.2322127,28.0536259 C76.6215033,28.0536259 76.9906527,27.9529488 77.3396718,27.7515916 C77.688691,27.5502344 77.9415024,27.2884739 78.0981135,26.9663024 L78.0981135,25.4762665 L77.1248919,25.4762665 C75.6035263,25.4762665 74.842855,25.921483 74.842855,26.8119293 C74.842855,27.2012199 74.9726166,27.5054884 75.2321436,27.7247441 C75.4916707,27.9439997 75.8250237,28.0536259 76.2322127,28.0536259 Z M82.7041193,21.7377531 L82.7376787,22.5431779 C83.2701566,21.9167332 83.9883199,21.6035156 84.89219,21.6035156 C85.9079252,21.6035156 86.5992413,21.9928004 86.9661588,22.7713816 C87.2077875,22.4223624 87.5221237,22.1404666 87.909177,21.9256855 C88.2962303,21.7109045 88.7537518,21.6035156 89.2817551,21.6035156 C90.8747143,21.6035156 91.6846056,22.4469659 91.7114533,24.1338919 L91.7114533,29 L90.4697567,29 L90.4697567,24.2077225 C90.4697567,23.6886683 90.3511814,23.3005022 90.1140274,23.0432124 C89.8768734,22.7859227 89.4786395,22.6572797 88.919314,22.6572797 C88.4584297,22.6572797 88.0758567,22.7948718 87.7715836,23.0700599 C87.4673105,23.3452481 87.2905663,23.7155161 87.2413456,24.180875 L87.2413456,29 L85.9929372,29 L85.9929372,24.2412818 C85.9929372,23.1852752 85.4761281,22.6572797 84.4424945,22.6572797 C83.6281164,22.6572797 83.0710365,23.0040564 82.771238,23.6976201 L82.771238,29 L81.5295415,29 L81.5295415,21.7377531 L82.7041193,21.7377531 Z M93.8944728,19.4355805 L93.7535234,21.9055499 L92.8876918,21.9055499 L92.8944036,18.6905626 L93.8944728,18.6905626 L93.8944728,19.4355805 Z M99.4737002,27.0736924 C99.4737002,26.738097 99.3472945,26.4774552 99.0944793,26.2917591 C98.8416642,26.106063 98.4009222,25.9460983 97.7722403,25.8118602 C97.1435583,25.677622 96.6446474,25.5165387 96.2754925,25.3286053 C95.9063377,25.1406719 95.6333909,24.916945 95.456644,24.657418 C95.2798971,24.3978909 95.191525,24.0891478 95.191525,23.7311795 C95.191525,23.1360571 95.4432177,22.6326716 95.9466107,22.221008 C96.4500038,21.8093443 97.0932185,21.6035156 97.8762743,21.6035156 C98.6996016,21.6035156 99.3674263,21.8160562 99.8797685,22.2411436 C100.392111,22.666231 100.648278,23.2098873 100.648278,23.8721288 L99.3998696,23.8721288 C99.3998696,23.5320589 99.2555657,23.2389766 98.9669537,22.9928734 C98.6783417,22.7467701 98.3147856,22.6237204 97.8762743,22.6237204 C97.4243393,22.6237204 97.0708508,22.7221602 96.8157983,22.9190428 C96.5607459,23.1159254 96.4332216,23.3732113 96.4332216,23.6909082 C96.4332216,23.9907067 96.5517968,24.2166709 96.7889508,24.3688074 C97.0261049,24.520944 97.4545418,24.6663664 98.0742746,24.8050792 C98.6940073,24.9437919 99.1962741,25.1093498 99.5810901,25.3017578 C99.9659061,25.4941658 100.251158,25.7257231 100.436854,25.9964367 C100.62255,26.2671503 100.715397,26.5971474 100.715397,26.986438 C100.715397,27.6352557 100.455874,28.1554207 99.9368194,28.5469486 C99.4177653,28.9384765 98.7443474,29.1342375 97.9165456,29.1342375 C97.334847,29.1342375 96.8202752,29.0313231 96.3728147,28.8254913 C95.9253542,28.6196595 95.5752217,28.3321705 95.3224065,27.9630156 C95.0695914,27.5938607 94.9431857,27.1945082 94.9431857,26.7649462 L96.1848822,26.7649462 C96.2072553,27.1810844 96.3739318,27.5110816 96.6849168,27.7549475 C96.9959018,27.9988135 97.4064406,28.1207446 97.9165456,28.1207446 C98.386379,28.1207446 98.7633588,28.0256607 99.0474962,27.83549 C99.3316336,27.6453193 99.4737002,27.3913893 99.4737002,27.0736924 Z M107.403744,21.7377531 L107.437303,22.5431779 C107.969781,21.9167332 108.687944,21.6035156 109.591815,21.6035156 C110.60755,21.6035156 111.298866,21.9928004 111.665783,22.7713816 C111.907412,22.4223624 112.221748,22.1404666 112.608802,21.9256855 C112.995855,21.7109045 113.453376,21.6035156 113.98138,21.6035156 C115.574339,21.6035156 116.38423,22.4469659 116.411078,24.1338919 L116.411078,29 L115.169381,29 L115.169381,24.2077225 C115.169381,23.6886683 115.050806,23.3005022 114.813652,23.0432124 C114.576498,22.7859227 114.178264,22.6572797 113.618939,22.6572797 C113.158054,22.6572797 112.775481,22.7948718 112.471208,23.0700599 C112.166935,23.3452481 111.990191,23.7155161 111.94097,24.180875 L111.94097,29 L110.692562,29 L110.692562,24.2412818 C110.692562,23.1852752 110.175753,22.6572797 109.142119,22.6572797 C108.327741,22.6572797 107.770661,23.0040564 107.470863,23.6976201 L107.470863,29 L106.229166,29 L106.229166,21.7377531 L107.403744,21.7377531 Z M121.547322,29.1342375 C120.562909,29.1342375 119.761966,28.8109521 119.144471,28.1643718 C118.526976,27.5177914 118.218232,26.6530871 118.218232,25.5702327 L118.218232,25.3420291 C118.218232,24.6216177 118.355825,23.978403 118.631013,23.4123655 C118.906201,22.846328 119.291011,22.4033488 119.785455,22.0834146 C120.279899,21.7634803 120.815725,21.6035156 121.392949,21.6035156 C122.33709,21.6035156 123.070914,21.914496 123.594443,22.536466 C124.117972,23.158436 124.379732,24.048869 124.379732,25.2077916 L124.379732,25.7246058 L119.459929,25.7246058 C119.477827,26.4405426 119.687012,27.0188765 120.087489,27.4596251 C120.487966,27.9003736 120.996945,28.1207446 121.61444,28.1207446 C122.052952,28.1207446 122.424338,28.0312538 122.728611,27.8522697 C123.032884,27.6732855 123.299119,27.436135 123.527324,27.1408111 L124.285766,27.7314559 C123.67722,28.6666483 122.764414,29.1342375 121.547322,29.1342375 Z M121.392949,22.6237204 C120.891793,22.6237204 120.471186,22.8060578 120.131116,23.170738 C119.791046,23.5354183 119.580743,24.0466342 119.5002,24.7044011 L123.138036,24.7044011 L123.138036,24.6104349 C123.102239,23.9795156 122.932206,23.4906724 122.627933,23.1438905 C122.32366,22.7971087 121.912003,22.6237204 121.392949,22.6237204 Z M130.294553,27.0736924 C130.294553,26.738097 130.168148,26.4774552 129.915332,26.2917591 C129.662517,26.106063 129.221775,25.9460983 128.593093,25.8118602 C127.964411,25.677622 127.4655,25.5165387 127.096346,25.3286053 C126.727191,25.1406719 126.454244,24.916945 126.277497,24.657418 C126.10075,24.3978909 126.012378,24.0891478 126.012378,23.7311795 C126.012378,23.1360571 126.264071,22.6326716 126.767464,22.221008 C127.270857,21.8093443 127.914072,21.6035156 128.697127,21.6035156 C129.520455,21.6035156 130.188279,21.8160562 130.700622,22.2411436 C131.212964,22.666231 131.469131,23.2098873 131.469131,23.8721288 L130.220723,23.8721288 C130.220723,23.5320589 130.076419,23.2389766 129.787807,22.9928734 C129.499195,22.7467701 129.135639,22.6237204 128.697127,22.6237204 C128.245192,22.6237204 127.891704,22.7221602 127.636651,22.9190428 C127.381599,23.1159254 127.254075,23.3732113 127.254075,23.6909082 C127.254075,23.9907067 127.37265,24.2166709 127.609804,24.3688074 C127.846958,24.520944 128.275395,24.6663664 128.895128,24.8050792 C129.51486,24.9437919 130.017127,25.1093498 130.401943,25.3017578 C130.786759,25.4941658 131.072011,25.7257231 131.257707,25.9964367 C131.443403,26.2671503 131.53625,26.5971474 131.53625,26.986438 C131.53625,27.6352557 131.276727,28.1554207 130.757672,28.5469486 C130.238618,28.9384765 129.5652,29.1342375 128.737399,29.1342375 C128.1557,29.1342375 127.641128,29.0313231 127.193668,28.8254913 C126.746207,28.6196595 126.396075,28.3321705 126.14326,27.9630156 C125.890444,27.5938607 125.764039,27.1945082 125.764039,26.7649462 L127.005735,26.7649462 C127.028108,27.1810844 127.194785,27.5110816 127.50577,27.7549475 C127.816755,27.9988135 128.227294,28.1207446 128.737399,28.1207446 C129.207232,28.1207446 129.584212,28.0256607 129.868349,27.83549 C130.152487,27.6453193 130.294553,27.3913893 130.294553,27.0736924 Z M137.632291,27.0736924 C137.632291,26.738097 137.505886,26.4774552 137.253071,26.2917591 C137.000255,26.106063 136.559513,25.9460983 135.930832,25.8118602 C135.30215,25.677622 134.803239,25.5165387 134.434084,25.3286053 C134.064929,25.1406719 133.791982,24.916945 133.615235,24.657418 C133.438488,24.3978909 133.350116,24.0891478 133.350116,23.7311795 C133.350116,23.1360571 133.601809,22.6326716 134.105202,22.221008 C134.608595,21.8093443 135.25181,21.6035156 136.034866,21.6035156 C136.858193,21.6035156 137.526018,21.8160562 138.03836,22.2411436 C138.550702,22.666231 138.806869,23.2098873 138.806869,23.8721288 L137.558461,23.8721288 C137.558461,23.5320589 137.414157,23.2389766 137.125545,22.9928734 C136.836933,22.7467701 136.473377,22.6237204 136.034866,22.6237204 C135.582931,22.6237204 135.229442,22.7221602 134.97439,22.9190428 C134.719337,23.1159254 134.591813,23.3732113 134.591813,23.6909082 C134.591813,23.9907067 134.710388,24.2166709 134.947542,24.3688074 C135.184696,24.520944 135.613133,24.6663664 136.232866,24.8050792 C136.852599,24.9437919 137.354865,25.1093498 137.739681,25.3017578 C138.124497,25.4941658 138.409749,25.7257231 138.595445,25.9964367 C138.781141,26.2671503 138.873988,26.5971474 138.873988,26.986438 C138.873988,27.6352557 138.614465,28.1554207 138.095411,28.5469486 C137.576357,28.9384765 136.902939,29.1342375 136.075137,29.1342375 C135.493438,29.1342375 134.978866,29.0313231 134.531406,28.8254913 C134.083946,28.6196595 133.733813,28.3321705 133.480998,27.9630156 C133.228183,27.5938607 133.101777,27.1945082 133.101777,26.7649462 L134.343474,26.7649462 C134.365847,27.1810844 134.532523,27.5110816 134.843508,27.7549475 C135.154493,27.9988135 135.565032,28.1207446 136.075137,28.1207446 C136.54497,28.1207446 136.92195,28.0256607 137.206087,27.83549 C137.490225,27.6453193 137.632291,27.3913893 137.632291,27.0736924 Z M145.225081,29 C145.153487,28.8568127 145.095318,28.601764 145.050572,28.2348464 C144.473348,28.8344435 143.784269,29.1342375 142.983315,29.1342375 C142.267378,29.1342375 141.680095,28.9317646 141.221448,28.5268129 C140.762801,28.1218612 140.533481,27.608408 140.533481,26.986438 C140.533481,26.2302298 140.82097,25.6429468 141.395957,25.2245713 C141.970944,24.8061957 142.779716,24.5970111 143.822299,24.5970111 L145.030436,24.5970111 L145.030436,24.0265019 C145.030436,23.5924652 144.900675,23.2468072 144.641148,22.9895175 C144.381621,22.7322277 143.999048,22.6035847 143.493418,22.6035847 C143.050432,22.6035847 142.679045,22.7154482 142.379247,22.9391784 C142.079448,23.1629086 141.929551,23.4336182 141.929551,23.7513151 L140.681143,23.7513151 C140.681143,23.3888721 140.809786,23.0387396 141.067075,22.7009069 C141.324365,22.3630743 141.673379,22.0957207 142.114128,21.8988381 C142.554876,21.7019554 143.039245,21.6035156 143.567248,21.6035156 C144.403999,21.6035156 145.059519,21.8127003 145.533827,22.2310758 C146.008135,22.6494513 146.254235,23.225548 146.272133,23.9593832 L146.272133,27.3018961 C146.272133,27.9686121 146.357149,28.4988448 146.527184,28.89261 L146.527184,29 L145.225081,29 Z M143.164536,28.0536259 C143.553826,28.0536259 143.922976,27.9529488 144.271995,27.7515916 C144.621014,27.5502344 144.873825,27.2884739 145.030436,26.9663024 L145.030436,25.4762665 L144.057215,25.4762665 C142.535849,25.4762665 141.775178,25.921483 141.775178,26.8119293 C141.775178,27.2012199 141.90494,27.5054884 142.164467,27.7247441 C142.423994,27.9439997 142.757347,28.0536259 143.164536,28.0536259 Z M148.173254,25.3084697 C148.173254,24.1763947 148.435014,23.2758941 148.958543,22.6069407 C149.482072,21.9379873 150.175625,21.6035156 151.039224,21.6035156 C151.925195,21.6035156 152.616512,21.9167332 153.113193,22.5431779 L153.173599,21.7377531 L154.307906,21.7377531 L154.307906,28.8254913 C154.307906,29.7651583 154.029366,30.5056942 153.472278,31.0471214 C152.91519,31.5885485 152.166823,31.859258 151.227156,31.859258 C150.703628,31.859258 150.191293,31.7473946 149.690137,31.5236644 C149.188982,31.2999341 148.806409,30.9934283 148.542407,30.6041377 L149.186747,29.8591198 C149.719225,30.5168867 150.37027,30.8457652 151.139902,30.8457652 C151.743974,30.8457652 152.214919,30.6757327 152.552751,30.3356628 C152.890584,29.9955928 153.059498,29.5168173 153.059498,28.8993219 L153.059498,28.2751177 C152.562817,28.8478671 151.884924,29.1342375 151.0258,29.1342375 C150.175625,29.1342375 149.487665,28.7919354 148.961899,28.1073209 C148.436133,27.4227064 148.173254,26.4897653 148.173254,25.3084697 Z M149.421662,25.449419 C149.421662,26.2682717 149.589457,26.9114864 149.925053,27.3790826 C150.260648,27.8466788 150.730475,28.0804734 151.334546,28.0804734 C152.117602,28.0804734 152.69258,27.7247476 153.059498,27.0132855 L153.059498,23.6976201 C152.679156,23.0040564 152.108653,22.6572797 151.34797,22.6572797 C150.743898,22.6572797 150.271835,22.8921929 149.931765,23.3620264 C149.591695,23.8318599 149.421662,24.5276505 149.421662,25.449419 Z M159.44415,29.1342375 C158.459737,29.1342375 157.658795,28.8109521 157.041299,28.1643718 C156.423804,27.5177914 156.115061,26.6530871 156.115061,25.5702327 L156.115061,25.3420291 C156.115061,24.6216177 156.252653,23.978403 156.527841,23.4123655 C156.803029,22.846328 157.187839,22.4033488 157.682283,22.0834146 C158.176727,21.7634803 158.712553,21.6035156 159.289777,21.6035156 C160.233918,21.6035156 160.967742,21.914496 161.491271,22.536466 C162.0148,23.158436 162.27656,24.048869 162.27656,25.2077916 L162.27656,25.7246058 L157.356757,25.7246058 C157.374656,26.4405426 157.58384,27.0188765 157.984317,27.4596251 C158.384795,27.9003736 158.893773,28.1207446 159.511269,28.1207446 C159.94978,28.1207446 160.321166,28.0312538 160.62544,27.8522697 C160.929713,27.6732855 161.195948,27.436135 161.424152,27.1408111 L162.182594,27.7314559 C161.574048,28.6666483 160.661242,29.1342375 159.44415,29.1342375 Z M159.289777,22.6237204 C158.788621,22.6237204 158.368015,22.8060578 158.027945,23.170738 C157.687875,23.5354183 157.477571,24.0466342 157.397028,24.7044011 L161.034864,24.7044011 L161.034864,24.6104349 C160.999067,23.9795156 160.829035,23.4906724 160.524761,23.1438905 C160.220488,22.7971087 159.808831,22.6237204 159.289777,22.6237204 Z M169.300501,19.9792423 L169.300501,21.7377531 L170.6563,21.7377531 L170.6563,22.697551 L169.300501,22.697551 L169.300501,27.201218 C169.300501,27.4920673 169.360907,27.710201 169.481722,27.8556256 C169.602536,28.0010503 169.808365,28.0737615 170.099214,28.0737615 C170.242401,28.0737615 170.439281,28.0469143 170.689859,27.993219 L170.689859,29 C170.363213,29.0894921 170.045521,29.1342375 169.736773,29.1342375 C169.181922,29.1342375 168.763553,28.9664423 168.481653,28.630847 C168.199753,28.2952516 168.058805,27.8187134 168.058805,27.201218 L168.058805,22.697551 L166.736566,22.697551 L166.736566,21.7377531 L168.058805,21.7377531 L168.058805,19.9792423 L169.300501,19.9792423 Z M171.892945,25.3017578 C171.892945,24.5902957 172.032774,23.9504368 172.312437,23.382162 C172.5921,22.8138873 172.981385,22.3753826 173.480303,22.0666349 C173.979221,21.7578872 174.548606,21.6035156 175.188475,21.6035156 C176.177362,21.6035156 176.977186,21.9458177 177.587969,22.6304322 C178.198753,23.3150467 178.50414,24.2256151 178.50414,25.3621647 L178.50414,25.449419 C178.50414,26.1564065 178.368785,26.7906722 178.098072,27.3522351 C177.827358,27.913798 177.440311,28.351184 176.936918,28.6644063 C176.433525,28.9776287 175.855191,29.1342375 175.201899,29.1342375 C174.217486,29.1342375 173.419899,28.7919354 172.809116,28.1073209 C172.198332,27.4227064 171.892945,26.5166125 171.892945,25.3890122 L171.892945,25.3017578 Z M173.141353,25.449419 C173.141353,26.2548478 173.328165,26.9014185 173.701795,27.3891504 C174.075424,27.8768823 174.575454,28.1207446 175.201899,28.1207446 C175.832818,28.1207446 176.333966,27.8735264 176.705358,27.3790826 C177.07675,26.8846388 177.262444,26.1922041 177.262444,25.3017578 C177.262444,24.5052782 177.073394,23.8598262 176.69529,23.3653824 C176.317186,22.8709386 175.814919,22.6237204 175.188475,22.6237204 C174.575454,22.6237204 174.081018,22.8675827 173.705151,23.3553146 C173.329284,23.8430465 173.141353,24.5410743 173.141353,25.449419 Z M186.877168,28.1207446 C187.320153,28.1207446 187.707201,27.9865085 188.038322,27.7180322 C188.369442,27.4495559 188.552898,27.1139656 188.588695,26.7112512 L189.763273,26.7112512 C189.7409,27.1273894 189.597715,27.523386 189.333713,27.8992528 C189.069712,28.2751196 188.717342,28.5749136 188.276593,28.7986438 C187.835845,29.022374 187.369374,29.1342375 186.877168,29.1342375 C185.88828,29.1342375 185.10188,28.8042403 184.517944,28.1442362 C183.934008,27.484232 183.642045,26.581494 183.642045,25.4359953 L183.642045,25.2279272 C183.642045,24.5209397 183.771806,23.8922672 184.031333,23.3418908 C184.29086,22.7915144 184.663366,22.3641961 185.14886,22.059923 C185.634355,21.7556499 186.208214,21.6035156 186.870456,21.6035156 C187.684834,21.6035156 188.361608,21.8473779 188.900797,22.3351098 C189.439987,22.8228417 189.727476,23.4559888 189.763273,24.23457 L188.588695,24.23457 C188.552898,23.7647365 188.375036,23.3788076 188.055101,23.0767718 C187.735167,22.774736 187.340289,22.6237204 186.870456,22.6237204 C186.239536,22.6237204 185.750693,22.8508031 185.403911,23.3049755 C185.05713,23.7591479 184.883741,24.4157862 184.883741,25.2749103 L184.883741,25.5098259 C184.883741,26.3465769 185.056011,26.9909103 185.400555,27.4428454 C185.7451,27.8947805 186.237299,28.1207446 186.877168,28.1207446 Z M192.758429,29 L191.516733,29 L191.516733,18.6905626 L192.758429,18.6905626 L192.758429,29 Z M196.34423,29 L195.102534,29 L195.102534,21.7377531 L196.34423,21.7377531 L196.34423,29 Z M195.001856,19.8114455 C195.001856,19.6100882 195.063381,19.4400558 195.186432,19.3013431 C195.309484,19.1626303 195.491821,19.093275 195.73345,19.093275 C195.975078,19.093275 196.158535,19.1626303 196.283823,19.3013431 C196.409112,19.4400558 196.471756,19.6100882 196.471756,19.8114455 C196.471756,20.0128027 196.409112,20.1805978 196.283823,20.314836 C196.158535,20.4490741 195.975078,20.5161922 195.73345,20.5161922 C195.491821,20.5161922 195.309484,20.4490741 195.186432,20.314836 C195.063381,20.1805978 195.001856,20.0128027 195.001856,19.8114455 Z M204.715597,25.449419 C204.715597,26.5546464 204.462786,27.4450793 203.957155,28.1207446 C203.451525,28.7964099 202.766921,29.1342375 201.903322,29.1342375 C201.021825,29.1342375 200.328272,28.8545789 199.822641,28.2952533 L199.822641,31.7921393 L198.580945,31.7921393 L198.580945,21.7377531 L199.715251,21.7377531 L199.775658,22.5431779 C200.281289,21.9167332 200.983791,21.6035156 201.883186,21.6035156 C202.755734,21.6035156 203.445932,21.9323941 203.953799,22.590161 C204.461667,23.2479279 204.715597,24.1629708 204.715597,25.3353172 L204.715597,25.449419 Z M203.4739,25.3084697 C203.4739,24.489617 203.299393,23.8430464 202.950374,23.3687383 C202.601355,22.8944302 202.12258,22.6572797 201.514033,22.6572797 C200.7623,22.6572797 200.198508,22.9906328 199.822641,23.6573489 L199.822641,27.1273873 C200.194034,27.7896288 200.7623,28.1207446 201.527457,28.1207446 C202.12258,28.1207446 202.595762,27.8847127 202.947018,27.412642 C203.298275,26.9405712 203.4739,26.2391874 203.4739,25.3084697 Z M212.690963,25.449419 C212.690963,26.559121 212.435915,27.4506725 211.92581,28.1241005 C211.415705,28.7975285 210.7311,29.1342375 209.871976,29.1342375 C208.954682,29.1342375 208.245468,28.8098335 207.744313,28.1610158 L207.683906,29 L206.542887,29 L206.542887,18.6905626 L207.784584,18.6905626 L207.784584,22.536466 C208.285739,21.914496 208.977056,21.6035156 209.858553,21.6035156 C210.74005,21.6035156 211.432484,21.9368687 211.935877,22.6035847 C212.43927,23.2703008 212.690963,24.1831065 212.690963,25.3420291 L212.690963,25.449419 Z M211.449267,25.3084697 C211.449267,24.4627694 211.285946,23.809487 210.9593,23.3486027 C210.632654,22.8877184 210.162827,22.6572797 209.549806,22.6572797 C208.730954,22.6572797 208.142552,23.0376154 207.784584,23.7982982 L207.784584,26.9394549 C208.164925,27.7001377 208.757801,28.0804734 209.56323,28.0804734 C210.158353,28.0804734 210.621467,27.8500347 210.952588,27.3891504 C211.283709,26.9282661 211.449267,26.2347128 211.449267,25.3084697 Z M214.175948,25.3017578 C214.175948,24.5902957 214.315777,23.9504368 214.59544,23.382162 C214.875103,22.8138873 215.264387,22.3753826 215.763306,22.0666349 C216.262224,21.7578872 216.831609,21.6035156 217.471478,21.6035156 C218.460365,21.6035156 219.260189,21.9458177 219.870972,22.6304322 C220.481756,23.3150467 220.787143,24.2256151 220.787143,25.3621647 L220.787143,25.449419 C220.787143,26.1564065 220.651788,26.7906722 220.381075,27.3522351 C220.110361,27.913798 219.723314,28.351184 219.219921,28.6644063 C218.716528,28.9776287 218.138194,29.1342375 217.484901,29.1342375 C216.500488,29.1342375 215.702902,28.7919354 215.092119,28.1073209 C214.481335,27.4227064 214.175948,26.5166125 214.175948,25.3890122 L214.175948,25.3017578 Z M215.424356,25.449419 C215.424356,26.2548478 215.611168,26.9014185 215.984798,27.3891504 C216.358427,27.8768823 216.858457,28.1207446 217.484901,28.1207446 C218.115821,28.1207446 218.616969,27.8735264 218.988361,27.3790826 C219.359753,26.8846388 219.545446,26.1922041 219.545446,25.3017578 C219.545446,24.5052782 219.356397,23.8598262 218.978293,23.3653824 C218.600189,22.8709386 218.097922,22.6237204 217.471478,22.6237204 C216.858457,22.6237204 216.36402,22.8675827 215.988154,23.3553146 C215.612287,23.8430465 215.424356,24.5410743 215.424356,25.449419 Z M227.077829,29 C227.006235,28.8568127 226.948066,28.601764 226.90332,28.2348464 C226.326096,28.8344435 225.637018,29.1342375 224.836063,29.1342375 C224.120127,29.1342375 223.532844,28.9317646 223.074197,28.5268129 C222.61555,28.1218612 222.38623,27.608408 222.38623,26.986438 C222.38623,26.2302298 222.673719,25.6429468 223.248705,25.2245713 C223.823692,24.8061957 224.632465,24.5970111 225.675047,24.5970111 L226.883185,24.5970111 L226.883185,24.0265019 C226.883185,23.5924652 226.753423,23.2468072 226.493896,22.9895175 C226.234369,22.7322277 225.851796,22.6035847 225.346166,22.6035847 C224.90318,22.6035847 224.531793,22.7154482 224.231995,22.9391784 C223.932196,23.1629086 223.782299,23.4336182 223.782299,23.7513151 L222.533891,23.7513151 C222.533891,23.3888721 222.662534,23.0387396 222.919824,22.7009069 C223.177113,22.3630743 223.526127,22.0957207 223.966876,21.8988381 C224.407624,21.7019554 224.891993,21.6035156 225.419996,21.6035156 C226.256747,21.6035156 226.912267,21.8127003 227.386575,22.2310758 C227.860883,22.6494513 228.106983,23.225548 228.124881,23.9593832 L228.124881,27.3018961 C228.124881,27.9686121 228.209897,28.4988448 228.379932,28.89261 L228.379932,29 L227.077829,29 Z M225.017284,28.0536259 C225.406575,28.0536259 225.775724,27.9529488 226.124743,27.7515916 C226.473762,27.5502344 226.726574,27.2884739 226.883185,26.9663024 L226.883185,25.4762665 L225.909963,25.4762665 C224.388598,25.4762665 223.627926,25.921483 223.627926,26.8119293 C223.627926,27.2012199 223.757688,27.5054884 224.017215,27.7247441 C224.276742,27.9439997 224.610095,28.0536259 225.017284,28.0536259 Z M233.831634,22.8519241 C233.643701,22.8206018 233.440109,22.8049409 233.220854,22.8049409 C232.406476,22.8049409 231.85387,23.1517176 231.563021,23.8452813 L231.563021,29 L230.321325,29 L230.321325,21.7377531 L231.529462,21.7377531 L231.549597,22.5767373 C231.956786,21.9279196 232.534002,21.6035156 233.281261,21.6035156 C233.522889,21.6035156 233.706345,21.6348374 233.831634,21.6974819 L233.831634,22.8519241 Z M234.793093,25.3084697 C234.793093,24.1942931 235.057091,23.298267 235.585094,22.6203644 C236.113097,21.9424618 236.804413,21.6035156 237.659063,21.6035156 C238.509238,21.6035156 239.182655,21.8943606 239.679337,22.4760592 L239.679337,18.6905626 L240.921033,18.6905626 L240.921033,29 L239.780015,29 L239.719608,28.2214227 C239.222927,28.8299689 238.531611,29.1342375 237.645639,29.1342375 C236.804413,29.1342375 236.11869,28.7896981 235.58845,28.100609 C235.058209,27.4115199 234.793093,26.5121378 234.793093,25.4024359 L234.793093,25.3084697 Z M236.034789,25.449419 C236.034789,26.2727463 236.204822,26.9170797 236.544892,27.3824385 C236.884962,27.8477974 237.354788,28.0804734 237.954385,28.0804734 C238.741916,28.0804734 239.316894,27.7269849 239.679337,27.0199974 L239.679337,23.6841963 C239.307944,22.9995818 238.737441,22.6572797 237.967809,22.6572797 C237.359263,22.6572797 236.884962,22.8921929 236.544892,23.3620264 C236.204822,23.8318599 236.034789,24.5276505 236.034789,25.449419 Z M243.124188,28.3489483 C243.124188,28.1341673 243.18795,27.9551858 243.315477,27.8119984 C243.443003,27.6688111 243.634289,27.5972185 243.889342,27.5972185 C244.144394,27.5972185 244.337918,27.6688111 244.469919,27.8119984 C244.60192,27.9551858 244.667919,28.1341673 244.667919,28.3489483 C244.667919,28.5547801 244.60192,28.7270498 244.469919,28.8657625 C244.337918,29.0044753 244.144394,29.0738306 243.889342,29.0738306 C243.634289,29.0738306 243.443003,29.0044753 243.315477,28.8657625 C243.18795,28.7270498 243.124188,28.5547801 243.124188,28.3489483 Z"/>
    </g>
  </g>
</svg>
