<svg xmlns="http://www.w3.org/2000/svg" width="380" height="180" viewBox="0 0 380 180">
  <g fill="none" fill-rule="evenodd">
    <rect width="380" height="180" fill="#FFF" fill-rule="nonzero" opacity=".01"/>
    <g transform="translate(18 66)">
      <rect width="344" height="48" fill="#FAFAFA" rx="4"/>
      <rect width="344.003" height="48" fill="#25333D" rx="4"/>
      <rect width="73" height="48" x="263"/>
      <path fill="#F3F6FA" d="M20.1143783,24.1338919 L22.6648902,19.2275125 L24.1280786,19.2275125 L20.7587182,25.3554528 L20.7587182,29 L19.4700385,29 L19.4700385,25.3554528 L16.1006781,19.2275125 L17.5772902,19.2275125 L20.1143783,24.1338919 Z M24.6801129,25.3017578 C24.6801129,24.5902957 24.8199422,23.9504368 25.0996049,23.382162 C25.3792677,22.8138873 25.7685525,22.3753826 26.2674709,22.0666349 C26.7663893,21.7578872 27.3357742,21.6035156 27.9756427,21.6035156 C28.9645303,21.6035156 29.7643538,21.9458177 30.3751374,22.6304322 C30.9859209,23.3150467 31.2913081,24.2256151 31.2913081,25.3621647 L31.2913081,25.449419 C31.2913081,26.1564065 31.1559533,26.7906722 30.8852397,27.3522351 C30.6145262,27.913798 30.2274787,28.351184 29.7240856,28.6644063 C29.2206926,28.9776287 28.6423587,29.1342375 27.9890664,29.1342375 C27.0046534,29.1342375 26.2070671,28.7919354 25.5962836,28.1073209 C24.9855,27.4227064 24.6801129,26.5166125 24.6801129,25.3890122 L24.6801129,25.3017578 Z M25.9285213,25.449419 C25.9285213,26.2548478 26.1153332,26.9014185 26.4889627,27.3891504 C26.8625922,27.8768823 27.3626218,28.1207446 27.9890664,28.1207446 C28.6199856,28.1207446 29.1211338,27.8735264 29.492526,27.3790826 C29.8639182,26.8846388 30.0496115,26.1922041 30.0496115,25.3017578 C30.0496115,24.5052782 29.8605623,23.8598262 29.4824582,23.3653824 C29.1043541,22.8709386 28.6020873,22.6237204 27.9756427,22.6237204 C27.3626218,22.6237204 26.8681854,22.8675827 26.4923187,23.3553146 C26.1164519,23.8430465 25.9285213,24.5410743 25.9285213,25.449419 Z M37.581994,28.2818296 C37.0987367,28.8501043 36.3895226,29.1342375 35.4543302,29.1342375 C34.6802236,29.1342375 34.0907033,28.909392 33.6857516,28.4596942 C33.2807999,28.0099964 33.0760898,27.344409 33.0716152,26.4629119 L33.0716152,21.7377531 L34.3133117,21.7377531 L34.3133117,26.4293525 C34.3133117,27.5301053 34.7607655,28.0804734 35.6556864,28.0804734 C36.6043026,28.0804734 37.2352123,27.7269849 37.5484347,27.0199974 L37.5484347,21.7377531 L38.7901312,21.7377531 L38.7901312,29 L37.6088415,29 L37.581994,28.2818296 Z M49.0626187,29 C48.9910251,28.8568127 48.9328561,28.601764 48.88811,28.2348464 C48.3108861,28.8344435 47.6218073,29.1342375 46.8208531,29.1342375 C46.1049163,29.1342375 45.5176333,28.9317646 45.0589863,28.5268129 C44.6003394,28.1218612 44.3710193,27.608408 44.3710193,26.986438 C44.3710193,26.2302298 44.6585083,25.6429468 45.233495,25.2245713 C45.8084817,24.8061957 46.6172544,24.5970111 47.6598372,24.5970111 L48.8679744,24.5970111 L48.8679744,24.0265019 C48.8679744,23.5924652 48.7382128,23.2468072 48.4786858,22.9895175 C48.2191587,22.7322277 47.8365858,22.6035847 47.3309554,22.6035847 C46.8879696,22.6035847 46.516583,22.7154482 46.2167845,22.9391784 C45.916986,23.1629086 45.767089,23.4336182 45.767089,23.7513151 L44.5186805,23.7513151 C44.5186805,23.3888721 44.6473235,23.0387396 44.9046132,22.7009069 C45.161903,22.3630743 45.5109169,22.0957207 45.9516655,21.8988381 C46.392414,21.7019554 46.8767827,21.6035156 47.404786,21.6035156 C48.2415371,21.6035156 48.8970568,21.8127003 49.3713649,22.2310758 C49.845673,22.6494513 50.0917726,23.225548 50.109671,23.9593832 L50.109671,27.3018961 C50.109671,27.9686121 50.1946872,28.4988448 50.3647222,28.89261 L50.3647222,29 L49.0626187,29 Z M47.0020736,28.0536259 C47.3913642,28.0536259 47.7605136,27.9529488 48.1095327,27.7515916 C48.4585519,27.5502344 48.7113633,27.2884739 48.8679744,26.9663024 L48.8679744,25.4762665 L47.8947528,25.4762665 C46.3733872,25.4762665 45.6127159,25.921483 45.6127159,26.8119293 C45.6127159,27.2012199 45.7424775,27.5054884 46.0020045,27.7247441 C46.2615316,27.9439997 46.5948846,28.0536259 47.0020736,28.0536259 Z M55.816424,22.8519241 C55.6284906,22.8206018 55.4248991,22.8049409 55.2056435,22.8049409 C54.3912655,22.8049409 53.8386601,23.1517176 53.5478108,23.8452813 L53.5478108,29 L52.3061142,29 L52.3061142,21.7377531 L53.5142514,21.7377531 L53.5343871,22.5767373 C53.9415761,21.9279196 54.5187914,21.6035156 55.2660504,21.6035156 C55.507679,21.6035156 55.691135,21.6348374 55.816424,21.6974819 L55.816424,22.8519241 Z M60.093548,29.1342375 C59.1091349,29.1342375 58.3081927,28.8109521 57.6906973,28.1643718 C57.0732019,27.5177914 56.7644588,26.6530871 56.7644588,25.5702327 L56.7644588,25.3420291 C56.7644588,24.6216177 56.9020508,23.978403 57.177239,23.4123655 C57.4524272,22.846328 57.8372374,22.4033488 58.3316812,22.0834146 C58.826125,21.7634803 59.3619509,21.6035156 59.9391749,21.6035156 C60.8833164,21.6035156 61.6171406,21.914496 62.1406693,22.536466 C62.664198,23.158436 62.9259585,24.048869 62.9259585,25.2077916 L62.9259585,25.7246058 L58.0061554,25.7246058 C58.0240538,26.4405426 58.2332384,27.0188765 58.6337155,27.4596251 C59.0341926,27.9003736 59.5431713,28.1207446 60.1606667,28.1207446 C60.5991779,28.1207446 60.9705645,28.0312538 61.2748377,27.8522697 C61.5791108,27.6732855 61.8453457,27.436135 62.0735506,27.1408111 L62.8319923,27.7314559 C62.223446,28.6666483 61.3106404,29.1342375 60.093548,29.1342375 Z M59.9391749,22.6237204 C59.4380192,22.6237204 59.0174126,22.8060578 58.6773427,23.170738 C58.3372727,23.5354183 58.1269695,24.0466342 58.0464266,24.7044011 L61.6842619,24.7044011 L61.6842619,24.6104349 C61.6484651,23.9795156 61.4784327,23.4906724 61.1741596,23.1438905 C60.8698864,22.7971087 60.458229,22.6237204 59.9391749,22.6237204 Z M74.4132951,25.449419 C74.4132951,26.559121 74.1582464,27.4506725 73.6481415,28.1241005 C73.1380366,28.7975285 72.4534324,29.1342375 71.5943083,29.1342375 C70.6770144,29.1342375 69.9678002,28.8098335 69.4666445,28.1610158 L69.4062376,29 L68.2652191,29 L68.2652191,18.6905626 L69.5069157,18.6905626 L69.5069157,22.536466 C70.0080714,21.914496 70.6993874,21.6035156 71.5808845,21.6035156 C72.4623816,21.6035156 73.1548163,21.9368687 73.6582093,22.6035847 C74.1616023,23.2703008 74.4132951,24.1831065 74.4132951,25.3420291 L74.4132951,25.449419 Z M73.1715985,25.3084697 C73.1715985,24.4627694 73.0082779,23.809487 72.6816318,23.3486027 C72.3549856,22.8877184 71.8851592,22.6572797 71.2721384,22.6572797 C70.4532857,22.6572797 69.8648841,23.0376154 69.5069157,23.7982982 L69.5069157,26.9394549 C69.8872571,27.7001377 70.4801333,28.0804734 71.2855621,28.0804734 C71.8806845,28.0804734 72.3437992,27.8500347 72.6749199,27.3891504 C73.0060406,26.9282661 73.1715985,26.2347128 73.1715985,25.3084697 Z M79.2407927,29.1342375 C78.2563797,29.1342375 77.4554375,28.8109521 76.837942,28.1643718 C76.2204466,27.5177914 75.9117035,26.6530871 75.9117035,25.5702327 L75.9117035,25.3420291 C75.9117035,24.6216177 76.0492955,23.978403 76.3244837,23.4123655 C76.5996719,22.846328 76.9844821,22.4033488 77.4789259,22.0834146 C77.9733697,21.7634803 78.5091956,21.6035156 79.0864196,21.6035156 C80.0305611,21.6035156 80.7643853,21.914496 81.287914,22.536466 C81.8114428,23.158436 82.0732032,24.048869 82.0732032,25.2077916 L82.0732032,25.7246058 L77.1534001,25.7246058 C77.1712985,26.4405426 77.3804831,27.0188765 77.7809602,27.4596251 C78.1814373,27.9003736 78.690416,28.1207446 79.3079114,28.1207446 C79.7464226,28.1207446 80.1178093,28.0312538 80.4220824,27.8522697 C80.7263555,27.6732855 80.9925905,27.436135 81.2207953,27.1408111 L81.979237,27.7314559 C81.3706907,28.6666483 80.4578851,29.1342375 79.2407927,29.1342375 Z M79.0864196,22.6237204 C78.5852639,22.6237204 78.1646573,22.8060578 77.8245874,23.170738 C77.4845175,23.5354183 77.2742142,24.0466342 77.1936713,24.7044011 L80.8315066,24.7044011 L80.8315066,24.6104349 C80.7957098,23.9795156 80.6256774,23.4906724 80.3214043,23.1438905 C80.0171312,22.7971087 79.6054737,22.6237204 79.0864196,22.6237204 Z M85.1086306,29 L83.8669341,29 L83.8669341,21.7377531 L85.1086306,21.7377531 L85.1086306,29 Z M83.766256,19.8114455 C83.766256,19.6100882 83.8277808,19.4400558 83.9508325,19.3013431 C84.0738841,19.1626303 84.2562215,19.093275 84.4978501,19.093275 C84.7394788,19.093275 84.9229348,19.1626303 85.0482238,19.3013431 C85.1735127,19.4400558 85.2361562,19.6100882 85.2361562,19.8114455 C85.2361562,20.0128027 85.1735127,20.1805978 85.0482238,20.314836 C84.9229348,20.4490741 84.7394788,20.5161922 84.4978501,20.5161922 C84.2562215,20.5161922 84.0738841,20.4490741 83.9508325,20.314836 C83.8277808,20.1805978 83.766256,20.0128027 83.766256,19.8114455 Z M88.5199229,21.7377531 L88.5601942,22.6505679 C89.1150451,21.9525295 89.8399202,21.6035156 90.7348411,21.6035156 C92.2696305,21.6035156 93.0437255,22.4693386 93.0571493,24.2010106 L93.0571493,29 L91.8154527,29 L91.8154527,24.1942987 C91.8109781,23.67077 91.6912842,23.2837225 91.4563675,23.0331446 C91.2214508,22.7825668 90.8556573,22.6572797 90.3589762,22.6572797 C89.9562618,22.6572797 89.6027734,22.7646686 89.2985002,22.9794497 C88.9942271,23.1942307 88.7570766,23.4761265 88.5870417,23.8251457 L88.5870417,29 L87.3453451,29 L87.3453451,21.7377531 L88.5199229,21.7377531 Z M94.8844395,25.3084697 C94.8844395,24.1763947 95.1462,23.2758941 95.6697287,22.6069407 C96.1932574,21.9379873 96.8868107,21.6035156 97.7504094,21.6035156 C98.6363811,21.6035156 99.3276972,21.9167332 99.8243783,22.5431779 L99.8847851,21.7377531 L101.019092,21.7377531 L101.019092,28.8254913 C101.019092,29.7651583 100.740552,30.5056942 100.183463,31.0471214 C99.6263752,31.5885485 98.8780088,31.859258 97.9383419,31.859258 C97.4148131,31.859258 96.9024786,31.7473946 96.4013229,31.5236644 C95.9001672,31.2999341 95.5175942,30.9934283 95.2535925,30.6041377 L95.8979324,29.8591198 C96.4304103,30.5168867 97.0814555,30.8457652 97.8510875,30.8457652 C98.4551591,30.8457652 98.9261042,30.6757327 99.2639368,30.3356628 C99.6017695,29.9955928 99.7706833,29.5168173 99.7706833,28.8993219 L99.7706833,28.2751177 C99.2740022,28.8478671 98.5961097,29.1342375 97.7369857,29.1342375 C96.8868108,29.1342375 96.1988507,28.7919354 95.6730846,28.1073209 C95.1473186,27.4227064 94.8844395,26.4897653 94.8844395,25.3084697 Z M96.1328479,25.449419 C96.1328479,26.2682717 96.3006431,26.9114864 96.6362384,27.3790826 C96.9718338,27.8466788 97.4416602,28.0804734 98.0457318,28.0804734 C98.8287876,28.0804734 99.4037657,27.7247476 99.7706833,27.0132855 L99.7706833,23.6976201 C99.3903419,23.0040564 98.8198384,22.6572797 98.0591556,22.6572797 C97.455084,22.6572797 96.9830203,22.8921929 96.6429503,23.3620264 C96.3028804,23.8318599 96.1328479,24.5276505 96.1328479,25.449419 Z M111.023104,27.0736924 C111.023104,26.738097 110.896699,26.4774552 110.643883,26.2917591 C110.391068,26.106063 109.950326,25.9460983 109.321644,25.8118602 C108.692962,25.677622 108.194052,25.5165387 107.824897,25.3286053 C107.455742,25.1406719 107.182795,24.916945 107.006048,24.657418 C106.829301,24.3978909 106.740929,24.0891478 106.740929,23.7311795 C106.740929,23.1360571 106.992622,22.6326716 107.496015,22.221008 C107.999408,21.8093443 108.642623,21.6035156 109.425678,21.6035156 C110.249006,21.6035156 110.91683,21.8160562 111.429173,22.2411436 C111.941515,22.666231 112.197682,23.2098873 112.197682,23.8721288 L110.949274,23.8721288 C110.949274,23.5320589 110.80497,23.2389766 110.516358,22.9928734 C110.227746,22.7467701 109.86419,22.6237204 109.425678,22.6237204 C108.973743,22.6237204 108.620255,22.7221602 108.365202,22.9190428 C108.11015,23.1159254 107.982626,23.3732113 107.982626,23.6909082 C107.982626,23.9907067 108.101201,24.2166709 108.338355,24.3688074 C108.575509,24.520944 109.003946,24.6663664 109.623679,24.8050792 C110.243411,24.9437919 110.745678,25.1093498 111.130494,25.3017578 C111.51531,25.4941658 111.800562,25.7257231 111.986258,25.9964367 C112.171954,26.2671503 112.264801,26.5971474 112.264801,26.986438 C112.264801,27.6352557 112.005278,28.1554207 111.486224,28.5469486 C110.967169,28.9384765 110.293752,29.1342375 109.46595,29.1342375 C108.884251,29.1342375 108.369679,29.0313231 107.922219,28.8254913 C107.474758,28.6196595 107.124626,28.3321705 106.871811,27.9630156 C106.618996,27.5938607 106.49259,27.1945082 106.49259,26.7649462 L107.734286,26.7649462 C107.756659,27.1810844 107.923336,27.5110816 108.234321,27.7549475 C108.545306,27.9988135 108.955845,28.1207446 109.46595,28.1207446 C109.935783,28.1207446 110.312763,28.0256607 110.5969,27.83549 C110.881038,27.6453193 111.023104,27.3913893 111.023104,27.0736924 Z M115.481449,29 L114.239752,29 L114.239752,21.7377531 L115.481449,21.7377531 L115.481449,29 Z M114.139074,19.8114455 C114.139074,19.6100882 114.200599,19.4400558 114.323651,19.3013431 C114.446702,19.1626303 114.62904,19.093275 114.870668,19.093275 C115.112297,19.093275 115.295753,19.1626303 115.421042,19.3013431 C115.546331,19.4400558 115.608974,19.6100882 115.608974,19.8114455 C115.608974,20.0128027 115.546331,20.1805978 115.421042,20.314836 C115.295753,20.4490741 115.112297,20.5161922 114.870668,20.5161922 C114.62904,20.5161922 114.446702,20.4490741 114.323651,20.314836 C114.200599,20.1805978 114.139074,20.0128027 114.139074,19.8114455 Z M117.422841,25.3084697 C117.422841,24.1763947 117.684601,23.2758941 118.20813,22.6069407 C118.731659,21.9379873 119.425212,21.6035156 120.288811,21.6035156 C121.174783,21.6035156 121.866099,21.9167332 122.36278,22.5431779 L122.423187,21.7377531 L123.557493,21.7377531 L123.557493,28.8254913 C123.557493,29.7651583 123.278953,30.5056942 122.721865,31.0471214 C122.164777,31.5885485 121.41641,31.859258 120.476743,31.859258 C119.953215,31.859258 119.44088,31.7473946 118.939724,31.5236644 C118.438569,31.2999341 118.055996,30.9934283 117.791994,30.6041377 L118.436334,29.8591198 C118.968812,30.5168867 119.619857,30.8457652 120.389489,30.8457652 C120.993561,30.8457652 121.464506,30.6757327 121.802338,30.3356628 C122.140171,29.9955928 122.309085,29.5168173 122.309085,28.8993219 L122.309085,28.2751177 C121.812404,28.8478671 121.134511,29.1342375 120.275387,29.1342375 C119.425212,29.1342375 118.737252,28.7919354 118.211486,28.1073209 C117.68572,27.4227064 117.422841,26.4897653 117.422841,25.3084697 Z M118.671249,25.449419 C118.671249,26.2682717 118.839045,26.9114864 119.17464,27.3790826 C119.510235,27.8466788 119.980062,28.0804734 120.584133,28.0804734 C121.367189,28.0804734 121.942167,27.7247476 122.309085,27.0132855 L122.309085,23.6976201 C121.928743,23.0040564 121.35824,22.6572797 120.597557,22.6572797 C119.993485,22.6572797 119.521422,22.8921929 119.181352,23.3620264 C118.841282,23.8318599 118.671249,24.5276505 118.671249,25.449419 Z M126.854684,21.7377531 L126.894955,22.6505679 C127.449806,21.9525295 128.174681,21.6035156 129.069602,21.6035156 C130.604391,21.6035156 131.378486,22.4693386 131.39191,24.2010106 L131.39191,29 L130.150213,29 L130.150213,24.1942987 C130.145739,23.67077 130.026045,23.2837225 129.791128,23.0331446 C129.556211,22.7825668 129.190418,22.6572797 128.693737,22.6572797 C128.291022,22.6572797 127.937534,22.7646686 127.633261,22.9794497 C127.328988,23.1942307 127.091837,23.4761265 126.921802,23.8251457 L126.921802,29 L125.680106,29 L125.680106,21.7377531 L126.854684,21.7377531 Z M136.528154,29.1342375 C135.543741,29.1342375 134.742799,28.8109521 134.125303,28.1643718 C133.507808,27.5177914 133.199065,26.6530871 133.199065,25.5702327 L133.199065,25.3420291 C133.199065,24.6216177 133.336657,23.978403 133.611845,23.4123655 C133.887033,22.846328 134.271843,22.4033488 134.766287,22.0834146 C135.260731,21.7634803 135.796557,21.6035156 136.373781,21.6035156 C137.317922,21.6035156 138.051746,21.914496 138.575275,22.536466 C139.098804,23.158436 139.360564,24.048869 139.360564,25.2077916 L139.360564,25.7246058 L134.440761,25.7246058 C134.45866,26.4405426 134.667844,27.0188765 135.068321,27.4596251 C135.468798,27.9003736 135.977777,28.1207446 136.595272,28.1207446 C137.033784,28.1207446 137.40517,28.0312538 137.709443,27.8522697 C138.013717,27.6732855 138.279952,27.436135 138.508156,27.1408111 L139.266598,27.7314559 C138.658052,28.6666483 137.745246,29.1342375 136.528154,29.1342375 Z M136.373781,22.6237204 C135.872625,22.6237204 135.452018,22.8060578 135.111948,23.170738 C134.771878,23.5354183 134.561575,24.0466342 134.481032,24.7044011 L138.118868,24.7044011 L138.118868,24.6104349 C138.083071,23.9795156 137.913038,23.4906724 137.608765,23.1438905 C137.304492,22.7971087 136.892835,22.6237204 136.373781,22.6237204 Z M140.744871,25.3084697 C140.744871,24.1942931 141.008869,23.298267 141.536872,22.6203644 C142.064875,21.9424618 142.756191,21.6035156 143.610841,21.6035156 C144.461016,21.6035156 145.134433,21.8943606 145.631115,22.4760592 L145.631115,18.6905626 L146.872811,18.6905626 L146.872811,29 L145.731793,29 L145.671386,28.2214227 C145.174705,28.8299689 144.483389,29.1342375 143.597417,29.1342375 C142.756191,29.1342375 142.070468,28.7896981 141.540228,28.100609 C141.009987,27.4115199 140.744871,26.5121378 140.744871,25.4024359 L140.744871,25.3084697 Z M141.986567,25.449419 C141.986567,26.2727463 142.1566,26.9170797 142.49667,27.3824385 C142.83674,27.8477974 143.306566,28.0804734 143.906163,28.0804734 C144.693694,28.0804734 145.268672,27.7269849 145.631115,27.0199974 L145.631115,23.6841963 C145.259722,22.9995818 144.689219,22.6572797 143.919587,22.6572797 C143.311041,22.6572797 142.83674,22.8921929 142.49667,23.3620264 C142.1566,23.8318599 141.986567,24.5276505 141.986567,25.449419 Z M152.373157,25.3017578 C152.373157,24.5902957 152.512986,23.9504368 152.792649,23.382162 C153.072312,22.8138873 153.461596,22.3753826 153.960515,22.0666349 C154.459433,21.7578872 155.028818,21.6035156 155.668687,21.6035156 C156.657574,21.6035156 157.457398,21.9458177 158.068181,22.6304322 C158.678965,23.3150467 158.984352,24.2256151 158.984352,25.3621647 L158.984352,25.449419 C158.984352,26.1564065 158.848997,26.7906722 158.578284,27.3522351 C158.30757,27.913798 157.920523,28.351184 157.41713,28.6644063 C156.913737,28.9776287 156.335403,29.1342375 155.68211,29.1342375 C154.697697,29.1342375 153.900111,28.7919354 153.289327,28.1073209 C152.678544,27.4227064 152.373157,26.5166125 152.373157,25.3890122 L152.373157,25.3017578 Z M153.621565,25.449419 C153.621565,26.2548478 153.808377,26.9014185 154.182007,27.3891504 C154.555636,27.8768823 155.055666,28.1207446 155.68211,28.1207446 C156.31303,28.1207446 156.814178,27.8735264 157.18557,27.3790826 C157.556962,26.8846388 157.742655,26.1922041 157.742655,25.3017578 C157.742655,24.5052782 157.553606,23.8598262 157.175502,23.3653824 C156.797398,22.8709386 156.295131,22.6237204 155.668687,22.6237204 C155.055666,22.6237204 154.561229,22.8675827 154.185363,23.3553146 C153.809496,23.8430465 153.621565,24.5410743 153.621565,25.449419 Z M165.275038,28.2818296 C164.791781,28.8501043 164.082566,29.1342375 163.147374,29.1342375 C162.373268,29.1342375 161.783747,28.909392 161.378795,28.4596942 C160.973844,28.0099964 160.769134,27.344409 160.764659,26.4629119 L160.764659,21.7377531 L162.006356,21.7377531 L162.006356,26.4293525 C162.006356,27.5301053 162.453809,28.0804734 163.34873,28.0804734 C164.297346,28.0804734 164.928256,27.7269849 165.241479,27.0199974 L165.241479,21.7377531 L166.483175,21.7377531 L166.483175,29 L165.301885,29 L165.275038,28.2818296 Z M170.303892,19.9792423 L170.303892,21.7377531 L171.65969,21.7377531 L171.65969,22.697551 L170.303892,22.697551 L170.303892,27.201218 C170.303892,27.4920673 170.364298,27.710201 170.485112,27.8556256 C170.605927,28.0010503 170.811755,28.0737615 171.102605,28.0737615 C171.245792,28.0737615 171.442672,28.0469143 171.693249,27.993219 L171.693249,29 C171.366603,29.0894921 171.048911,29.1342375 170.740163,29.1342375 C170.185313,29.1342375 169.766943,28.9664423 169.485043,28.630847 C169.203143,28.2952516 169.062195,27.8187134 169.062195,27.201218 L169.062195,22.697551 L167.739956,22.697551 L167.739956,21.7377531 L169.062195,21.7377531 L169.062195,19.9792423 L170.303892,19.9792423 Z M173.386302,28.3489483 C173.386302,28.1341673 173.450064,27.9551858 173.577591,27.8119984 C173.705117,27.6688111 173.896403,27.5972185 174.151456,27.5972185 C174.406508,27.5972185 174.600032,27.6688111 174.732033,27.8119984 C174.864034,27.9551858 174.930033,28.1341673 174.930033,28.3489483 C174.930033,28.5547801 174.864034,28.7270498 174.732033,28.8657625 C174.600032,29.0044753 174.406508,29.0738306 174.151456,29.0738306 C173.896403,29.0738306 173.705117,29.0044753 173.577591,28.8657625 C173.450064,28.7270498 173.386302,28.5547801 173.386302,28.3489483 Z"/>
    </g>
  </g>
</svg>
