<svg xmlns="http://www.w3.org/2000/svg" width="380" height="180" viewBox="0 0 380 180">
  <g fill="none" fill-rule="evenodd">
    <rect width="380" height="180" fill="#FFF" fill-rule="nonzero" opacity=".01"/>
    <g transform="translate(19 67)">
      <rect width="344" height="48" fill="#FAFAFA" rx="4"/>
      <rect width="344.003" height="48" fill="#25333D" rx="4"/>
      <rect width="73" height="48" x="263"/>
      <path fill="#89CBDF" d="M295.414062,19.046875 L295.414062,25.6982422 C295.414062,26.7555391 295.075687,27.5929331 294.398926,28.2104492 C293.722165,28.8279653 292.820969,29.1367188 291.695312,29.1367188 C290.555984,29.1367188 289.651371,28.8325226 288.981445,28.2241211 C288.31152,27.6157196 287.976562,26.7714898 287.976562,25.6914062 L287.976562,19.046875 L289.699219,19.046875 L289.699219,25.7050781 C289.699219,26.370446 289.867837,26.878579 290.205078,27.2294922 C290.542319,27.5804054 291.039059,27.7558594 291.695312,27.7558594 C293.026048,27.7558594 293.691406,27.0540435 293.691406,25.6503906 L293.691406,19.046875 L295.414062,19.046875 Z M305.905273,29 L304.175781,29 L299.739258,21.9384766 L299.739258,29 L298.009766,29 L298.009766,19.046875 L299.739258,19.046875 L304.189453,26.1357422 L304.189453,19.046875 L305.905273,19.046875 L305.905273,29 Z M308.699219,29 L308.699219,19.046875 L311.638672,19.046875 C312.518234,19.046875 313.298662,19.2428366 313.97998,19.6347656 C314.661299,20.0266947 315.1888,20.5826787 315.5625,21.3027344 C315.9362,22.0227901 316.123047,22.8476516 316.123047,23.7773438 L316.123047,24.2763672 C316.123047,25.2197313 315.93506,26.0491501 315.559082,26.7646484 C315.183104,27.4801468 314.647627,28.0315736 313.952637,28.4189453 C313.257646,28.806317 312.461268,29 311.563477,29 L308.699219,29 Z M310.428711,20.4414062 L310.428711,27.6191406 L311.556641,27.6191406 C312.463546,27.6191406 313.159666,27.3354521 313.64502,26.7680664 C314.130374,26.2006808 314.377604,25.386073 314.386719,24.3242188 L314.386719,23.7705078 C314.386719,22.6904243 314.152021,21.8655627 313.682617,21.2958984 C313.213214,20.7262341 312.531906,20.4414062 311.638672,20.4414062 L310.428711,20.4414062 Z M326.539062,24.2832031 C326.539062,25.2584684 326.370444,26.1140914 326.033203,26.8500977 C325.695962,27.5861039 325.214033,28.1512025 324.587402,28.5454102 C323.960772,28.9396179 323.239587,29.1367188 322.423828,29.1367188 C321.617183,29.1367188 320.898278,28.9396179 320.26709,28.5454102 C319.635902,28.1512025 319.148276,27.5895219 318.804199,26.8603516 C318.460122,26.1311812 318.285807,25.2903693 318.28125,24.3378906 L318.28125,23.7773438 C318.28125,22.8066358 318.453286,21.9498735 318.797363,21.2070312 C319.141441,20.464189 319.626787,19.8956725 320.253418,19.5014648 C320.880049,19.1072571 321.598954,18.9101562 322.410156,18.9101562 C323.221358,18.9101562 323.940264,19.1049785 324.566895,19.4946289 C325.193525,19.8842793 325.677733,20.4448206 326.019531,21.1762695 C326.36133,21.9077185 326.534505,22.7587842 326.539062,23.7294922 L326.539062,24.2832031 Z M324.80957,23.7636719 C324.80957,22.6608018 324.601076,21.8154326 324.184082,21.2275391 C323.767088,20.6396455 323.175785,20.3457031 322.410156,20.3457031 C321.662757,20.3457031 321.07829,20.6385062 320.656738,21.2241211 C320.235187,21.809736 320.019857,22.6380155 320.010742,23.7089844 L320.010742,24.2832031 C320.010742,25.3769586 320.223793,26.2223277 320.649902,26.8193359 C321.076011,27.4163441 321.667314,27.7148438 322.423828,27.7148438 C323.189457,27.7148438 323.778481,27.42318 324.190918,26.8398438 C324.603355,26.2565075 324.80957,25.4043025 324.80957,24.2832031 L324.80957,23.7636719 Z"/>
      <path fill="#F3F6FA" d="M17.1343066,29 L17.1343066,19.2275125 L19.8928865,19.2275125 C20.7430614,19.2275125 21.4947837,19.4154431 22.1480759,19.7913098 C22.8013682,20.1671766 23.3058723,20.7018838 23.6616034,21.3954476 C24.0173344,22.0890113 24.1974346,22.8854789 24.2019092,23.7848744 L24.2019092,24.4090787 C24.2019092,25.3308472 24.0240463,26.1385012 23.6683152,26.8320649 C23.3125842,27.5256286 22.8047242,28.0580986 22.14472,28.4294908 C21.4847158,28.8008829 20.716214,28.9910508 19.8391915,29 L17.1343066,29 Z M18.4229863,20.2879885 L18.4229863,27.9462359 L19.7787847,27.9462359 C20.7721469,27.9462359 21.5451232,27.6374928 22.0977369,27.0199974 C22.6503506,26.4025019 22.9266532,25.5232553 22.9266532,24.3822312 L22.9266532,23.8117219 C22.9266532,22.70202 22.6660114,21.8395529 22.14472,21.2242948 C21.6234286,20.6090367 20.8840113,20.2969377 19.9264459,20.2879885 L18.4229863,20.2879885 Z M29.2173392,29.1342375 C28.2329262,29.1342375 27.431984,28.8109521 26.8144886,28.1643718 C26.1969931,27.5177914 25.8882501,26.6530871 25.8882501,25.5702327 L25.8882501,25.3420291 C25.8882501,24.6216177 26.0258421,23.978403 26.3010303,23.4123655 C26.5762184,22.846328 26.9610287,22.4033488 27.4554725,22.0834146 C27.9499163,21.7634803 28.4857421,21.6035156 29.0629661,21.6035156 C30.0071077,21.6035156 30.7409318,21.914496 31.2644606,22.536466 C31.7879893,23.158436 32.0497497,24.048869 32.0497497,25.2077916 L32.0497497,25.7246058 L27.1299466,25.7246058 C27.147845,26.4405426 27.3570297,27.0188765 27.7575068,27.4596251 C28.1579839,27.9003736 28.6669625,28.1207446 29.2844579,28.1207446 C29.7229692,28.1207446 30.0943558,28.0312538 30.3986289,27.8522697 C30.702902,27.6732855 30.969137,27.436135 31.1973418,27.1408111 L31.9557835,27.7314559 C31.3472373,28.6666483 30.4344317,29.1342375 29.2173392,29.1342375 Z M29.0629661,22.6237204 C28.5618104,22.6237204 28.1412039,22.8060578 27.8011339,23.170738 C27.461064,23.5354183 27.2507607,24.0466342 27.1702179,24.7044011 L30.8080532,24.7044011 L30.8080532,24.6104349 C30.7722563,23.9795156 30.6022239,23.4906724 30.2979508,23.1438905 C29.9936777,22.7971087 29.5820203,22.6237204 29.0629661,22.6237204 Z M35.0851772,29 L33.8434806,29 L33.8434806,18.6905626 L35.0851772,18.6905626 L35.0851772,29 Z M40.3355228,29.1342375 C39.3511098,29.1342375 38.5501676,28.8109521 37.9326721,28.1643718 C37.3151767,27.5177914 37.0064336,26.6530871 37.0064336,25.5702327 L37.0064336,25.3420291 C37.0064336,24.6216177 37.1440256,23.978403 37.4192138,23.4123655 C37.694402,22.846328 38.0792122,22.4033488 38.573656,22.0834146 C39.0680998,21.7634803 39.6039257,21.6035156 40.1811497,21.6035156 C41.1252912,21.6035156 41.8591154,21.914496 42.3826441,22.536466 C42.9061729,23.158436 43.1679333,24.048869 43.1679333,25.2077916 L43.1679333,25.7246058 L38.2481302,25.7246058 C38.2660286,26.4405426 38.4752132,27.0188765 38.8756903,27.4596251 C39.2761674,27.9003736 39.7851461,28.1207446 40.4026415,28.1207446 C40.8411528,28.1207446 41.2125394,28.0312538 41.5168125,27.8522697 C41.8210856,27.6732855 42.0873206,27.436135 42.3155254,27.1408111 L43.0739671,27.7314559 C42.4654209,28.6666483 41.5526152,29.1342375 40.3355228,29.1342375 Z M40.1811497,22.6237204 C39.679994,22.6237204 39.2593875,22.8060578 38.9193175,23.170738 C38.5792476,23.5354183 38.3689443,24.0466342 38.2884014,24.7044011 L41.9262367,24.7044011 L41.9262367,24.6104349 C41.8904399,23.9795156 41.7204075,23.4906724 41.4161344,23.1438905 C41.1118613,22.7971087 40.7002038,22.6237204 40.1811497,22.6237204 Z M46.5389544,19.9792423 L46.5389544,21.7377531 L47.8947528,21.7377531 L47.8947528,22.697551 L46.5389544,22.697551 L46.5389544,27.201218 C46.5389544,27.4920673 46.5993606,27.710201 46.720175,27.8556256 C46.8409893,28.0010503 47.046818,28.0737615 47.3376673,28.0737615 C47.4808547,28.0737615 47.6777343,28.0469143 47.9283122,27.993219 L47.9283122,29 C47.601666,29.0894921 47.2839739,29.1342375 46.9752262,29.1342375 C46.4203752,29.1342375 46.0020059,28.9664423 45.7201058,28.630847 C45.4382058,28.2952516 45.2972578,27.8187134 45.2972578,27.201218 L45.2972578,22.697551 L43.9750188,22.697551 L43.9750188,21.7377531 L45.2972578,21.7377531 L45.2972578,19.9792423 L46.5389544,19.9792423 Z M52.6081485,29.1342375 C51.6237355,29.1342375 50.8227933,28.8109521 50.2052979,28.1643718 C49.5878025,27.5177914 49.2790594,26.6530871 49.2790594,25.5702327 L49.2790594,25.3420291 C49.2790594,24.6216177 49.4166514,23.978403 49.6918396,23.4123655 C49.9670278,22.846328 50.351838,22.4033488 50.8462818,22.0834146 C51.3407256,21.7634803 51.8765515,21.6035156 52.4537755,21.6035156 C53.397917,21.6035156 54.1317412,21.914496 54.6552699,22.536466 C55.1787986,23.158436 55.4405591,24.048869 55.4405591,25.2077916 L55.4405591,25.7246058 L50.5207559,25.7246058 C50.5386544,26.4405426 50.747839,27.0188765 51.1483161,27.4596251 C51.5487932,27.9003736 52.0577718,28.1207446 52.6752673,28.1207446 C53.1137785,28.1207446 53.4851651,28.0312538 53.7894382,27.8522697 C54.0937113,27.6732855 54.3599463,27.436135 54.5881512,27.1408111 L55.3465928,27.7314559 C54.7380466,28.6666483 53.825241,29.1342375 52.6081485,29.1342375 Z M52.4537755,22.6237204 C51.9526197,22.6237204 51.5320132,22.8060578 51.1919433,23.170738 C50.8518733,23.5354183 50.6415701,24.0466342 50.5610272,24.7044011 L54.1988625,24.7044011 L54.1988625,24.6104349 C54.1630657,23.9795156 53.9930332,23.4906724 53.6887601,23.1438905 C53.384487,22.7971087 52.9728296,22.6237204 52.4537755,22.6237204 Z M56.8248657,25.3084697 C56.8248657,24.1942931 57.0888634,23.298267 57.6168667,22.6203644 C58.14487,21.9424618 58.8361861,21.6035156 59.6908356,21.6035156 C60.5410104,21.6035156 61.2144283,21.8943606 61.7111094,22.4760592 L61.7111094,18.6905626 L62.952806,18.6905626 L62.952806,29 L61.8117875,29 L61.7513807,28.2214227 C61.2546995,28.8299689 60.5633835,29.1342375 59.6774118,29.1342375 C58.8361861,29.1342375 58.1504633,28.7896981 57.6202226,28.100609 C57.089982,27.4115199 56.8248657,26.5121378 56.8248657,25.4024359 L56.8248657,25.3084697 Z M58.0665622,25.449419 C58.0665622,26.2727463 58.2365946,26.9170797 58.5766646,27.3824385 C58.9167345,27.8477974 59.386561,28.0804734 59.986158,28.0804734 C60.7736884,28.0804734 61.3486664,27.7269849 61.7111094,27.0199974 L61.7111094,23.6841963 C61.3397172,22.9995818 60.7692137,22.6572797 59.9995817,22.6572797 C59.3910355,22.6572797 58.9167345,22.8921929 58.5766646,23.3620264 C58.2365946,23.8318599 58.0665622,24.5276505 58.0665622,25.449419 Z M69.3928138,29 L69.3928138,22.697551 L68.2450835,22.697551 L68.2450835,21.7377531 L69.3928138,21.7377531 L69.3928138,20.9927352 C69.3928138,20.214154 69.6008798,19.6123287 70.0170181,19.1872412 C70.4331563,18.7621538 71.021558,18.5496133 71.7822407,18.5496133 C72.0686154,18.5496133 72.3527486,18.5876468 72.6346487,18.6637151 L72.5675299,19.6704961 C72.3572235,19.6302247 72.1334966,19.6100893 71.8963426,19.6100893 C71.4936282,19.6100893 71.1826478,19.7275459 70.9633922,19.9624626 C70.7441366,20.1973793 70.6345104,20.5340883 70.6345104,20.9725995 L70.6345104,21.7377531 L72.1849531,21.7377531 L72.1849531,22.697551 L70.6345104,22.697551 L70.6345104,29 L69.3928138,29 Z M75.1532618,29 L73.9115653,29 L73.9115653,21.7377531 L75.1532618,21.7377531 L75.1532618,29 Z M73.8108872,19.8114455 C73.8108872,19.6100882 73.8724121,19.4400558 73.9954637,19.3013431 C74.1185153,19.1626303 74.3008527,19.093275 74.5424814,19.093275 C74.78411,19.093275 74.967566,19.1626303 75.092855,19.3013431 C75.2181439,19.4400558 75.2807874,19.6100882 75.2807874,19.8114455 C75.2807874,20.0128027 75.2181439,20.1805978 75.092855,20.314836 C74.967566,20.4490741 74.78411,20.5161922 74.5424814,20.5161922 C74.3008527,20.5161922 74.1185153,20.4490741 73.9954637,20.314836 C73.8724121,20.1805978 73.8108872,20.0128027 73.8108872,19.8114455 Z M78.7390629,29 L77.4973663,29 L77.4973663,18.6905626 L78.7390629,18.6905626 L78.7390629,29 Z M83.9894085,29.1342375 C83.0049955,29.1342375 82.2040533,28.8109521 81.5865578,28.1643718 C80.9690624,27.5177914 80.6603193,26.6530871 80.6603193,25.5702327 L80.6603193,25.3420291 C80.6603193,24.6216177 80.7979113,23.978403 81.0730995,23.4123655 C81.3482877,22.846328 81.7330979,22.4033488 82.2275417,22.0834146 C82.7219855,21.7634803 83.2578114,21.6035156 83.8350354,21.6035156 C84.7791769,21.6035156 85.5130011,21.914496 86.0365298,22.536466 C86.5600586,23.158436 86.821819,24.048869 86.821819,25.2077916 L86.821819,25.7246058 L81.9020159,25.7246058 C81.9199143,26.4405426 82.1290989,27.0188765 82.529576,27.4596251 C82.9300531,27.9003736 83.4390318,28.1207446 84.0565272,28.1207446 C84.4950384,28.1207446 84.8664251,28.0312538 85.1706982,27.8522697 C85.4749713,27.6732855 85.7412063,27.436135 85.9694111,27.1408111 L86.7278528,27.7314559 C86.1193065,28.6666483 85.2065009,29.1342375 83.9894085,29.1342375 Z M83.8350354,22.6237204 C83.3338797,22.6237204 82.9132731,22.8060578 82.5732032,23.170738 C82.2331332,23.5354183 82.02283,24.0466342 81.9422871,24.7044011 L85.5801224,24.7044011 L85.5801224,24.6104349 C85.5443256,23.9795156 85.3742932,23.4906724 85.0700201,23.1438905 C84.765747,22.7971087 84.3540895,22.6237204 83.8350354,22.6237204 Z M92.9195213,19.4355805 L92.778572,21.9055499 L91.9127403,21.9055499 L91.9194522,18.6905626 L92.9195213,18.6905626 L92.9195213,19.4355805 Z M101.754007,20.2879885 L98.6128506,20.2879885 L98.6128506,29 L97.3308828,29 L97.3308828,20.2879885 L94.1964379,20.2879885 L94.1964379,19.2275125 L101.754007,19.2275125 L101.754007,20.2879885 Z M102.26577,25.3017578 C102.26577,24.5902957 102.4056,23.9504368 102.685262,23.382162 C102.964925,22.8138873 103.35421,22.3753826 103.853128,22.0666349 C104.352047,21.7578872 104.921432,21.6035156 105.5613,21.6035156 C106.550188,21.6035156 107.350011,21.9458177 107.960795,22.6304322 C108.571578,23.3150467 108.876966,24.2256151 108.876966,25.3621647 L108.876966,25.449419 C108.876966,26.1564065 108.741611,26.7906722 108.470897,27.3522351 C108.200184,27.913798 107.813136,28.351184 107.309743,28.6644063 C106.80635,28.9776287 106.228016,29.1342375 105.574724,29.1342375 C104.590311,29.1342375 103.792725,28.7919354 103.181941,28.1073209 C102.571158,27.4227064 102.26577,26.5166125 102.26577,25.3890122 L102.26577,25.3017578 Z M103.514179,25.449419 C103.514179,26.2548478 103.700991,26.9014185 104.07462,27.3891504 C104.44825,27.8768823 104.948279,28.1207446 105.574724,28.1207446 C106.205643,28.1207446 106.706791,27.8735264 107.078183,27.3790826 C107.449576,26.8846388 107.635269,26.1922041 107.635269,25.3017578 C107.635269,24.5052782 107.44622,23.8598262 107.068116,23.3653824 C106.690012,22.8709386 106.187745,22.6237204 105.5613,22.6237204 C104.948279,22.6237204 104.453843,22.8675827 104.077976,23.3553146 C103.702109,23.8430465 103.514179,24.5410743 103.514179,25.449419 Z M116.832196,25.449419 C116.832196,26.559121 116.577147,27.4506725 116.067043,28.1241005 C115.556938,28.7975285 114.872333,29.1342375 114.013209,29.1342375 C113.095915,29.1342375 112.386701,28.8098335 111.885545,28.1610158 L111.825139,29 L110.68412,29 L110.68412,18.6905626 L111.925817,18.6905626 L111.925817,22.536466 C112.426972,21.914496 113.118288,21.6035156 113.999786,21.6035156 C114.881283,21.6035156 115.573717,21.9368687 116.07711,22.6035847 C116.580503,23.2703008 116.832196,24.1831065 116.832196,25.3420291 L116.832196,25.449419 Z M115.5905,25.3084697 C115.5905,24.4627694 115.427179,23.809487 115.100533,23.3486027 C114.773887,22.8877184 114.30406,22.6572797 113.691039,22.6572797 C112.872187,22.6572797 112.283785,23.0376154 111.925817,23.7982982 L111.925817,26.9394549 C112.306158,27.7001377 112.899034,28.0804734 113.704463,28.0804734 C114.299586,28.0804734 114.7627,27.8500347 115.093821,27.3891504 C115.424942,26.9282661 115.5905,26.2347128 115.5905,25.3084697 Z M120.948235,27.1810823 L122.639627,21.7377531 L123.968578,21.7377531 L121.048913,30.1208828 C120.596978,31.3290261 119.878815,31.9330886 118.894402,31.9330886 L118.659486,31.912953 L118.196367,31.8256987 L118.196367,30.8189177 L118.531961,30.8457652 C118.952574,30.8457652 119.280333,30.7607489 119.51525,30.590714 C119.750167,30.420679 119.943691,30.1096986 120.095827,29.6577636 L120.371014,28.9194575 L117.780231,21.7377531 L119.136029,21.7377531 L120.948235,27.1810823 Z M134.563236,24.6842655 L130.462281,24.6842655 L130.462281,29 L129.173601,29 L129.173601,19.2275125 L135.227711,19.2275125 L135.227711,20.2879885 L130.462281,20.2879885 L130.462281,23.6305014 L134.563236,23.6305014 L134.563236,24.6842655 Z M138.175884,29 L136.934187,29 L136.934187,18.6905626 L138.175884,18.6905626 L138.175884,29 Z M143.42623,29.1342375 C142.441817,29.1342375 141.640874,28.8109521 141.023379,28.1643718 C140.405884,27.5177914 140.09714,26.6530871 140.09714,25.5702327 L140.09714,25.3420291 C140.09714,24.6216177 140.234733,23.978403 140.509921,23.4123655 C140.785109,22.846328 141.169919,22.4033488 141.664363,22.0834146 C142.158807,21.7634803 142.694633,21.6035156 143.271857,21.6035156 C144.215998,21.6035156 144.949822,21.914496 145.473351,22.536466 C145.99688,23.158436 146.25864,24.048869 146.25864,25.2077916 L146.25864,25.7246058 L141.338837,25.7246058 C141.356735,26.4405426 141.56592,27.0188765 141.966397,27.4596251 C142.366874,27.9003736 142.875853,28.1207446 143.493348,28.1207446 C143.93186,28.1207446 144.303246,28.0312538 144.607519,27.8522697 C144.911792,27.6732855 145.178027,27.436135 145.406232,27.1408111 L146.164674,27.7314559 C145.556128,28.6666483 144.643322,29.1342375 143.42623,29.1342375 Z M143.271857,22.6237204 C142.770701,22.6237204 142.350094,22.8060578 142.010024,23.170738 C141.669954,23.5354183 141.459651,24.0466342 141.379108,24.7044011 L145.016944,24.7044011 L145.016944,24.6104349 C144.981147,23.9795156 144.811114,23.4906724 144.506841,23.1438905 C144.202568,22.7971087 143.790911,22.6237204 143.271857,22.6237204 Z M149.119559,21.7377531 L149.15983,22.6505679 C149.714681,21.9525295 150.439556,21.6035156 151.334477,21.6035156 C152.869266,21.6035156 153.643361,22.4693386 153.656785,24.2010106 L153.656785,29 L152.415089,29 L152.415089,24.1942987 C152.410614,23.67077 152.29092,23.2837225 152.056003,23.0331446 C151.821087,22.7825668 151.455293,22.6572797 150.958612,22.6572797 C150.555898,22.6572797 150.202409,22.7646686 149.898136,22.9794497 C149.593863,23.1942307 149.356713,23.4761265 149.186678,23.8251457 L149.186678,29 L147.944981,29 L147.944981,21.7377531 L149.119559,21.7377531 Z M155.477364,25.3084697 C155.477364,24.1942931 155.741361,23.298267 156.269365,22.6203644 C156.797368,21.9424618 157.488684,21.6035156 158.343333,21.6035156 C159.193508,21.6035156 159.866926,21.8943606 160.363607,22.4760592 L160.363607,18.6905626 L161.605304,18.6905626 L161.605304,29 L160.464285,29 L160.403879,28.2214227 C159.907197,28.8299689 159.215881,29.1342375 158.32991,29.1342375 C157.488684,29.1342375 156.802961,28.7896981 156.272721,28.100609 C155.74248,27.4115199 155.477364,26.5121378 155.477364,25.4024359 L155.477364,25.3084697 Z M156.71906,25.449419 C156.71906,26.2727463 156.889093,26.9170797 157.229163,27.3824385 C157.569232,27.8477974 158.039059,28.0804734 158.638656,28.0804734 C159.426186,28.0804734 160.001164,27.7269849 160.363607,27.0199974 L160.363607,23.6841963 C159.992215,22.9995818 159.421712,22.6572797 158.65208,22.6572797 C158.043533,22.6572797 157.569232,22.8921929 157.229163,23.3620264 C156.889093,23.8318599 156.71906,24.5276505 156.71906,25.449419 Z M166.795243,29.1342375 C165.81083,29.1342375 165.009887,28.8109521 164.392392,28.1643718 C163.774897,27.5177914 163.466154,26.6530871 163.466154,25.5702327 L163.466154,25.3420291 C163.466154,24.6216177 163.603746,23.978403 163.878934,23.4123655 C164.154122,22.846328 164.538932,22.4033488 165.033376,22.0834146 C165.52782,21.7634803 166.063646,21.6035156 166.64087,21.6035156 C167.585011,21.6035156 168.318835,21.914496 168.842364,22.536466 C169.365893,23.158436 169.627653,24.048869 169.627653,25.2077916 L169.627653,25.7246058 L164.70785,25.7246058 C164.725748,26.4405426 164.934933,27.0188765 165.33541,27.4596251 C165.735887,27.9003736 166.244866,28.1207446 166.862361,28.1207446 C167.300873,28.1207446 167.672259,28.0312538 167.976532,27.8522697 C168.280805,27.6732855 168.54704,27.436135 168.775245,27.1408111 L169.533687,27.7314559 C168.925141,28.6666483 168.012335,29.1342375 166.795243,29.1342375 Z M166.64087,22.6237204 C166.139714,22.6237204 165.719107,22.8060578 165.379037,23.170738 C165.038967,23.5354183 164.828664,24.0466342 164.748121,24.7044011 L168.385957,24.7044011 L168.385957,24.6104349 C168.35016,23.9795156 168.180127,23.4906724 167.875854,23.1438905 C167.571581,22.7971087 167.159924,22.6237204 166.64087,22.6237204 Z M174.824304,22.8519241 C174.63637,22.8206018 174.432779,22.8049409 174.213523,22.8049409 C173.399145,22.8049409 172.84654,23.1517176 172.555691,23.8452813 L172.555691,29 L171.313994,29 L171.313994,21.7377531 L172.522131,21.7377531 L172.542267,22.5767373 C172.949456,21.9279196 173.526671,21.6035156 174.27393,21.6035156 C174.515559,21.6035156 174.699015,21.6348374 174.824304,21.6974819 L174.824304,22.8519241 Z M180.443802,27.0736924 C180.443802,26.738097 180.317397,26.4774552 180.064582,26.2917591 C179.811766,26.106063 179.371025,25.9460983 178.742343,25.8118602 C178.113661,25.677622 177.61475,25.5165387 177.245595,25.3286053 C176.87644,25.1406719 176.603493,24.916945 176.426746,24.657418 C176.249999,24.3978909 176.161627,24.0891478 176.161627,23.7311795 C176.161627,23.1360571 176.41332,22.6326716 176.916713,22.221008 C177.420106,21.8093443 178.063321,21.6035156 178.846377,21.6035156 C179.669704,21.6035156 180.337529,21.8160562 180.849871,22.2411436 C181.362213,22.666231 181.61838,23.2098873 181.61838,23.8721288 L180.369972,23.8721288 C180.369972,23.5320589 180.225668,23.2389766 179.937056,22.9928734 C179.648444,22.7467701 179.284888,22.6237204 178.846377,22.6237204 C178.394442,22.6237204 178.040953,22.7221602 177.785901,22.9190428 C177.530848,23.1159254 177.403324,23.3732113 177.403324,23.6909082 C177.403324,23.9907067 177.521899,24.2166709 177.759053,24.3688074 C177.996207,24.520944 178.424644,24.6663664 179.044377,24.8050792 C179.66411,24.9437919 180.166376,25.1093498 180.551192,25.3017578 C180.936008,25.4941658 181.22126,25.7257231 181.406956,25.9964367 C181.592652,26.2671503 181.685499,26.5971474 181.685499,26.986438 C181.685499,27.6352557 181.425976,28.1554207 180.906922,28.5469486 C180.387868,28.9384765 179.71445,29.1342375 178.886648,29.1342375 C178.304949,29.1342375 177.790377,29.0313231 177.342917,28.8254913 C176.895457,28.6196595 176.545324,28.3321705 176.292509,27.9630156 C176.039694,27.5938607 175.913288,27.1945082 175.913288,26.7649462 L177.154985,26.7649462 C177.177358,27.1810844 177.344034,27.5110816 177.655019,27.7549475 C177.966004,27.9988135 178.376543,28.1207446 178.886648,28.1207446 C179.356481,28.1207446 179.733461,28.0256607 180.017599,27.83549 C180.301736,27.6453193 180.443802,27.3913893 180.443802,27.0736924 Z M183.224179,25.3017578 C183.224179,24.5902957 183.364008,23.9504368 183.643671,23.382162 C183.923334,22.8138873 184.312618,22.3753826 184.811537,22.0666349 C185.310455,21.7578872 185.87984,21.6035156 186.519708,21.6035156 C187.508596,21.6035156 188.30842,21.9458177 188.919203,22.6304322 C189.529987,23.3150467 189.835374,24.2256151 189.835374,25.3621647 L189.835374,25.449419 C189.835374,26.1564065 189.700019,26.7906722 189.429306,27.3522351 C189.158592,27.913798 188.771544,28.351184 188.268151,28.6644063 C187.764758,28.9776287 187.186424,29.1342375 186.533132,29.1342375 C185.548719,29.1342375 184.751133,28.7919354 184.140349,28.1073209 C183.529566,27.4227064 183.224179,26.5166125 183.224179,25.3890122 L183.224179,25.3017578 Z M184.472587,25.449419 C184.472587,26.2548478 184.659399,26.9014185 185.033029,27.3891504 C185.406658,27.8768823 185.906688,28.1207446 186.533132,28.1207446 C187.164051,28.1207446 187.6652,27.8735264 188.036592,27.3790826 C188.407984,26.8846388 188.593677,26.1922041 188.593677,25.3017578 C188.593677,24.5052782 188.404628,23.8598262 188.026524,23.3653824 C187.64842,22.8709386 187.146153,22.6237204 186.519708,22.6237204 C185.906688,22.6237204 185.412251,22.8675827 185.036384,23.3553146 C184.660518,23.8430465 184.472587,24.5410743 184.472587,25.449419 Z M192.817106,21.7377531 L192.857378,22.6505679 C193.412229,21.9525295 194.137104,21.6035156 195.032025,21.6035156 C196.566814,21.6035156 197.340909,22.4693386 197.354333,24.2010106 L197.354333,29 L196.112636,29 L196.112636,24.1942987 C196.108162,23.67077 195.988468,23.2837225 195.753551,23.0331446 C195.518634,22.7825668 195.152841,22.6572797 194.65616,22.6572797 C194.253445,22.6572797 193.899957,22.7646686 193.595684,22.9794497 C193.291411,23.1942307 193.05426,23.4761265 192.884225,23.8251457 L192.884225,29 L191.642528,29 L191.642528,21.7377531 L192.817106,21.7377531 Z M199.503793,28.3489483 C199.503793,28.1341673 199.567555,27.9551858 199.695081,27.8119984 C199.822607,27.6688111 200.013894,27.5972185 200.268946,27.5972185 C200.523999,27.5972185 200.717523,27.6688111 200.849523,27.8119984 C200.981524,27.9551858 201.047524,28.1341673 201.047524,28.3489483 C201.047524,28.5547801 200.981524,28.7270498 200.849523,28.8657625 C200.717523,29.0044753 200.523999,29.0738306 200.268946,29.0738306 C200.013894,29.0738306 199.822607,29.0044753 199.695081,28.8657625 C199.567555,28.7270498 199.503793,28.5547801 199.503793,28.3489483 Z M209.479297,25.449419 C209.479297,26.5546464 209.226486,27.4450793 208.720856,28.1207446 C208.215225,28.7964099 207.530621,29.1342375 206.667022,29.1342375 C205.785525,29.1342375 205.091972,28.8545789 204.586342,28.2952533 L204.586342,31.7921393 L203.344645,31.7921393 L203.344645,21.7377531 L204.478952,21.7377531 L204.539358,22.5431779 C205.044989,21.9167332 205.747491,21.6035156 206.646887,21.6035156 C207.519435,21.6035156 208.209632,21.9323941 208.7175,22.590161 C209.225367,23.2479279 209.479297,24.1629708 209.479297,25.3353172 L209.479297,25.449419 Z M208.237601,25.3084697 C208.237601,24.489617 208.063094,23.8430464 207.714075,23.3687383 C207.365055,22.8944302 206.88628,22.6572797 206.277734,22.6572797 C205.526,22.6572797 204.962208,22.9906328 204.586342,23.6573489 L204.586342,27.1273873 C204.957734,27.7896288 205.526,28.1207446 206.291157,28.1207446 C206.88628,28.1207446 207.359462,27.8847127 207.710719,27.412642 C208.061975,26.9405712 208.237601,26.2391874 208.237601,25.3084697 Z M211.004553,25.3084697 C211.004553,24.1942931 211.268551,23.298267 211.796554,22.6203644 C212.324558,21.9424618 213.015874,21.6035156 213.870523,21.6035156 C214.720698,21.6035156 215.394116,21.8943606 215.890797,22.4760592 L215.890797,18.6905626 L217.132493,18.6905626 L217.132493,29 L215.991475,29 L215.931068,28.2214227 C215.434387,28.8299689 214.743071,29.1342375 213.857099,29.1342375 C213.015874,29.1342375 212.330151,28.7896981 211.79991,28.100609 C211.26967,27.4115199 211.004553,26.5121378 211.004553,25.4024359 L211.004553,25.3084697 Z M212.24625,25.449419 C212.24625,26.2727463 212.416282,26.9170797 212.756352,27.3824385 C213.096422,27.8477974 213.566248,28.0804734 214.165845,28.0804734 C214.953376,28.0804734 215.528354,27.7269849 215.890797,27.0199974 L215.890797,23.6841963 C215.519405,22.9995818 214.948901,22.6572797 214.179269,22.6572797 C213.570723,22.6572797 213.096422,22.8921929 212.756352,23.3620264 C212.416282,23.8318599 212.24625,24.5276505 212.24625,25.449419 Z M219.919582,29 L219.919582,22.697551 L218.771851,22.697551 L218.771851,21.7377531 L219.919582,21.7377531 L219.919582,20.9927352 C219.919582,20.214154 220.127648,19.6123287 220.543786,19.1872412 C220.959924,18.7621538 221.548326,18.5496133 222.309008,18.5496133 C222.595383,18.5496133 222.879516,18.5876468 223.161416,18.6637151 L223.094298,19.6704961 C222.883991,19.6302247 222.660264,19.6100893 222.42311,19.6100893 C222.020396,19.6100893 221.709416,19.7275459 221.49016,19.9624626 C221.270904,20.1973793 221.161278,20.5340883 221.161278,20.9725995 L221.161278,21.7377531 L222.711721,21.7377531 L222.711721,22.697551 L221.161278,22.697551 L221.161278,29 L219.919582,29 Z M225.196775,19.4355805 L225.055825,21.9055499 L224.189994,21.9055499 L224.196706,18.6905626 L225.196775,18.6905626 L225.196775,19.4355805 Z M227.111319,28.3489483 C227.111319,28.1341673 227.175081,27.9551858 227.302608,27.8119984 C227.430134,27.6688111 227.62142,27.5972185 227.876473,27.5972185 C228.131525,27.5972185 228.325049,27.6688111 228.45705,27.8119984 C228.589051,27.9551858 228.65505,28.1341673 228.65505,28.3489483 C228.65505,28.5547801 228.589051,28.7270498 228.45705,28.8657625 C228.325049,29.0044753 228.131525,29.0738306 227.876473,29.0738306 C227.62142,29.0738306 227.430134,29.0044753 227.302608,28.8657625 C227.175081,28.7270498 227.111319,28.5547801 227.111319,28.3489483 Z"/>
    </g>
  </g>
</svg>
