<svg xmlns="http://www.w3.org/2000/svg" width="380" height="180" viewBox="0 0 380 180">
  <g fill="none" fill-rule="evenodd">
    <rect width="380" height="180" fill="#FFF" fill-rule="nonzero" opacity=".01"/>
    <g transform="translate(19 66)">
      <rect width="344" height="48" fill="#FAFAFA" rx="4"/>
      <rect width="344.003" height="48" fill="#25333D" rx="4"/>
      <rect width="73" height="48" x="263"/>
      <path fill="#89CBDF" d="M316.963867,24.2832031 C316.963867,25.2584684 316.795249,26.1140914 316.458008,26.8500977 C316.120767,27.5861039 315.638838,28.1512025 315.012207,28.5454102 C314.385576,28.9396179 313.664392,29.1367188 312.848633,29.1367188 C312.041988,29.1367188 311.323083,28.9396179 310.691895,28.5454102 C310.060706,28.1512025 309.573081,27.5895219 309.229004,26.8603516 C308.884927,26.1311812 308.710612,25.2903693 308.706055,24.3378906 L308.706055,23.7773438 C308.706055,22.8066358 308.878091,21.9498735 309.222168,21.2070312 C309.566245,20.464189 310.051592,19.8956725 310.678223,19.5014648 C311.304853,19.1072571 312.023759,18.9101562 312.834961,18.9101562 C313.646163,18.9101562 314.365068,19.1049785 314.991699,19.4946289 C315.61833,19.8842793 316.102537,20.4448206 316.444336,21.1762695 C316.786135,21.9077185 316.95931,22.7587842 316.963867,23.7294922 L316.963867,24.2832031 Z M315.234375,23.7636719 C315.234375,22.6608018 315.025881,21.8154326 314.608887,21.2275391 C314.191892,20.6396455 313.60059,20.3457031 312.834961,20.3457031 C312.087561,20.3457031 311.503095,20.6385062 311.081543,21.2241211 C310.659991,21.809736 310.444662,22.6380155 310.435547,23.7089844 L310.435547,24.2832031 C310.435547,25.3769586 310.648598,26.2223277 311.074707,26.8193359 C311.500816,27.4163441 312.092119,27.7148438 312.848633,27.7148438 C313.614262,27.7148438 314.203286,27.42318 314.615723,26.8398438 C315.02816,26.2565075 315.234375,25.4043025 315.234375,24.2832031 L315.234375,23.7636719 Z M322.293945,24.7001953 L321.166016,25.8964844 L321.166016,29 L319.436523,29 L319.436523,19.046875 L321.166016,19.046875 L321.166016,23.7158203 L322.123047,22.5332031 L325.035156,19.046875 L327.126953,19.046875 L323.428711,23.4560547 L327.338867,29 L325.288086,29 L322.293945,24.7001953 Z"/>
      <path fill="#F3F6FA" d="M22.5306527,26.4494881 L18.43641,26.4494881 L17.5168834,29 L16.1879325,29 L19.919734,19.2275125 L21.0473287,19.2275125 L24.7858421,29 L23.4636031,29 L22.5306527,26.4494881 Z M18.8256987,25.3890122 L22.1480759,25.3890122 L20.4835314,20.8182264 L18.8256987,25.3890122 Z M25.8546907,25.3084697 C25.8546907,24.1942931 26.1186884,23.298267 26.6466917,22.6203644 C27.1746951,21.9424618 27.8660111,21.6035156 28.7206606,21.6035156 C29.5708355,21.6035156 30.2442533,21.8943606 30.7409345,22.4760592 L30.7409345,18.6905626 L31.982631,18.6905626 L31.982631,29 L30.8416126,29 L30.7812057,28.2214227 C30.2845246,28.8299689 29.5932085,29.1342375 28.7072368,29.1342375 C27.8660112,29.1342375 27.1802883,28.7896981 26.6500477,28.100609 C26.119807,27.4115199 25.8546907,26.5121378 25.8546907,25.4024359 L25.8546907,25.3084697 Z M27.0963873,25.449419 C27.0963873,26.2727463 27.2664197,26.9170797 27.6064896,27.3824385 C27.9465596,27.8477974 28.416386,28.0804734 29.015983,28.0804734 C29.8035134,28.0804734 30.3784915,27.7269849 30.7409345,27.0199974 L30.7409345,23.6841963 C30.3695423,22.9995818 29.7990387,22.6572797 29.0294068,22.6572797 C28.4208605,22.6572797 27.9465596,22.8921929 27.6064896,23.3620264 C27.2664197,23.8318599 27.0963873,24.5276505 27.0963873,25.449419 Z M33.8569044,25.3084697 C33.8569044,24.1942931 34.1209021,23.298267 34.6489054,22.6203644 C35.1769087,21.9424618 35.8682248,21.6035156 36.7228742,21.6035156 C37.5730491,21.6035156 38.246467,21.8943606 38.7431481,22.4760592 L38.7431481,18.6905626 L39.9848447,18.6905626 L39.9848447,29 L38.8438262,29 L38.7834194,28.2214227 C38.2867382,28.8299689 37.5954222,29.1342375 36.7094505,29.1342375 C35.8682248,29.1342375 35.182502,28.7896981 34.6522613,28.100609 C34.1220207,27.4115199 33.8569044,26.5121378 33.8569044,25.4024359 L33.8569044,25.3084697 Z M35.0986009,25.449419 C35.0986009,26.2727463 35.2686333,26.9170797 35.6087033,27.3824385 C35.9487732,27.8477974 36.4185997,28.0804734 37.0181967,28.0804734 C37.8057271,28.0804734 38.3807051,27.7269849 38.7431481,27.0199974 L38.7431481,23.6841963 C38.3717559,22.9995818 37.8012524,22.6572797 37.0316204,22.6572797 C36.4230742,22.6572797 35.9487732,22.8921929 35.6087033,23.3620264 C35.2686333,23.8318599 35.0986009,24.5276505 35.0986009,25.449419 Z M45.1747834,29.1342375 C44.1903704,29.1342375 43.3894282,28.8109521 42.7719328,28.1643718 C42.1544373,27.5177914 41.8456943,26.6530871 41.8456943,25.5702327 L41.8456943,25.3420291 C41.8456943,24.6216177 41.9832863,23.978403 42.2584745,23.4123655 C42.5336627,22.846328 42.9184729,22.4033488 43.4129167,22.0834146 C43.9073605,21.7634803 44.4431863,21.6035156 45.0204103,21.6035156 C45.9645519,21.6035156 46.698376,21.914496 47.2219048,22.536466 C47.7454335,23.158436 48.007194,24.048869 48.007194,25.2077916 L48.007194,25.7246058 L43.0873908,25.7246058 C43.1052892,26.4405426 43.3144739,27.0188765 43.714951,27.4596251 C44.1154281,27.9003736 44.6244067,28.1207446 45.2419022,28.1207446 C45.6804134,28.1207446 46.0518,28.0312538 46.3560731,27.8522697 C46.6603462,27.6732855 46.9265812,27.436135 47.154786,27.1408111 L47.9132277,27.7314559 C47.3046815,28.6666483 46.3918759,29.1342375 45.1747834,29.1342375 Z M45.0204103,22.6237204 C44.5192546,22.6237204 44.0986481,22.8060578 43.7585782,23.170738 C43.4185082,23.5354183 43.2082049,24.0466342 43.1276621,24.7044011 L46.7654974,24.7044011 L46.7654974,24.6104349 C46.7297006,23.9795156 46.5596681,23.4906724 46.255395,23.1438905 C45.9511219,22.7971087 45.5394645,22.6237204 45.0204103,22.6237204 Z M49.3915005,25.3084697 C49.3915005,24.1942931 49.6554982,23.298267 50.1835016,22.6203644 C50.7115049,21.9424618 51.402821,21.6035156 52.2574704,21.6035156 C53.1076453,21.6035156 53.7810632,21.8943606 54.2777443,22.4760592 L54.2777443,18.6905626 L55.5194409,18.6905626 L55.5194409,29 L54.3784224,29 L54.3180155,28.2214227 C53.8213344,28.8299689 53.1300184,29.1342375 52.2440467,29.1342375 C51.402821,29.1342375 50.7170982,28.7896981 50.1868575,28.100609 C49.6566169,27.4115199 49.3915005,26.5121378 49.3915005,25.4024359 L49.3915005,25.3084697 Z M50.6331971,25.449419 C50.6331971,26.2727463 50.8032295,26.9170797 51.1432995,27.3824385 C51.4833694,27.8477974 51.9531958,28.0804734 52.5527929,28.0804734 C53.3403233,28.0804734 53.9153013,27.7269849 54.2777443,27.0199974 L54.2777443,23.6841963 C53.9063521,22.9995818 53.3358486,22.6572797 52.5662166,22.6572797 C51.9576704,22.6572797 51.4833694,22.8921929 51.1432995,23.3620264 C50.8032295,23.8318599 50.6331971,24.5276505 50.6331971,25.449419 Z M62.1071099,19.4355805 L61.9661606,21.9055499 L61.1003289,21.9055499 L61.1070408,18.6905626 L62.1071099,18.6905626 L62.1071099,19.4355805 Z M64.1894514,29 L64.1894514,19.2275125 L66.9480313,19.2275125 C67.7982061,19.2275125 68.5499284,19.4154431 69.2032207,19.7913098 C69.856513,20.1671766 70.3610171,20.7018838 70.7167481,21.3954476 C71.0724792,22.0890113 71.2525793,22.8854789 71.2570539,23.7848744 L71.2570539,24.4090787 C71.2570539,25.3308472 71.0791911,26.1385012 70.72346,26.8320649 C70.3677289,27.5256286 69.8598689,28.0580986 69.1998648,28.4294908 C68.5398606,28.8008829 67.7713588,28.9910508 66.8943363,29 L64.1894514,29 Z M65.478131,20.2879885 L65.478131,27.9462359 L66.8339294,27.9462359 C67.8272916,27.9462359 68.600268,27.6374928 69.1528817,27.0199974 C69.7054953,26.4025019 69.981798,25.5232553 69.981798,24.3822312 L69.981798,23.8117219 C69.981798,22.70202 69.7211562,21.8395529 69.1998648,21.2242948 C68.6785733,20.6090367 67.939156,20.2969377 66.9815906,20.2879885 L65.478131,20.2879885 Z M77.7423842,28.2818296 C77.2591269,28.8501043 76.5499128,29.1342375 75.6147204,29.1342375 C74.8406138,29.1342375 74.2510935,28.909392 73.8461418,28.4596942 C73.4411901,28.0099964 73.23648,27.344409 73.2320054,26.4629119 L73.2320054,21.7377531 L74.4737019,21.7377531 L74.4737019,26.4293525 C74.4737019,27.5301053 74.9211557,28.0804734 75.8160766,28.0804734 C76.7646928,28.0804734 77.3956025,27.7269849 77.7088249,27.0199974 L77.7088249,21.7377531 L78.9505214,21.7377531 L78.9505214,29 L77.7692317,29 L77.7423842,28.2818296 Z M82.2611356,21.7377531 L82.3014069,22.6505679 C82.8562579,21.9525295 83.5811329,21.6035156 84.4760538,21.6035156 C86.0108432,21.6035156 86.7849382,22.4693386 86.798362,24.2010106 L86.798362,29 L85.5566654,29 L85.5566654,24.1942987 C85.5521908,23.67077 85.432497,23.2837225 85.1975802,23.0331446 C84.9626635,22.7825668 84.59687,22.6572797 84.1001889,22.6572797 C83.6974745,22.6572797 83.3439861,22.7646686 83.039713,22.9794497 C82.7354398,23.1942307 82.4982894,23.4761265 82.3282544,23.8251457 L82.3282544,29 L81.0865578,29 L81.0865578,21.7377531 L82.2611356,21.7377531 Z M88.6189403,25.3084697 C88.6189403,24.1942931 88.8829381,23.298267 89.4109414,22.6203644 C89.9389447,21.9424618 90.6302608,21.6035156 91.4849102,21.6035156 C92.3350851,21.6035156 93.008503,21.8943606 93.5051841,22.4760592 L93.5051841,18.6905626 L94.7468807,18.6905626 L94.7468807,29 L93.6058622,29 L93.5454554,28.2214227 C93.0487742,28.8299689 92.3574582,29.1342375 91.4714865,29.1342375 C90.6302608,29.1342375 89.944538,28.7896981 89.4142973,28.100609 C88.8840567,27.4115199 88.6189403,26.5121378 88.6189403,25.4024359 L88.6189403,25.3084697 Z M89.8606369,25.449419 C89.8606369,26.2727463 90.0306693,26.9170797 90.3707393,27.3824385 C90.7108092,27.8477974 91.1806357,28.0804734 91.7802327,28.0804734 C92.5677631,28.0804734 93.1427411,27.7269849 93.5051841,27.0199974 L93.5051841,23.6841963 C93.1337919,22.9995818 92.5632884,22.6572797 91.7936564,22.6572797 C91.1851102,22.6572797 90.7108092,22.8921929 90.3707393,23.3620264 C90.0306693,23.8318599 89.8606369,24.5276505 89.8606369,25.449419 Z M99.9368194,29.1342375 C98.9524064,29.1342375 98.1514642,28.8109521 97.5339688,28.1643718 C96.9164733,27.5177914 96.6077303,26.6530871 96.6077303,25.5702327 L96.6077303,25.3420291 C96.6077303,24.6216177 96.7453223,23.978403 97.0205105,23.4123655 C97.2956987,22.846328 97.6805089,22.4033488 98.1749527,22.0834146 C98.6693965,21.7634803 99.2052223,21.6035156 99.7824463,21.6035156 C100.726588,21.6035156 101.460412,21.914496 101.983941,22.536466 C102.50747,23.158436 102.76923,24.048869 102.76923,25.2077916 L102.76923,25.7246058 L97.8494268,25.7246058 C97.8673252,26.4405426 98.0765099,27.0188765 98.476987,27.4596251 C98.8774641,27.9003736 99.3864427,28.1207446 100.003938,28.1207446 C100.442449,28.1207446 100.813836,28.0312538 101.118109,27.8522697 C101.422382,27.6732855 101.688617,27.436135 101.916822,27.1408111 L102.675264,27.7314559 C102.066718,28.6666483 101.153912,29.1342375 99.9368194,29.1342375 Z M99.7824463,22.6237204 C99.2812906,22.6237204 98.8606841,22.8060578 98.5206142,23.170738 C98.1805442,23.5354183 97.9702409,24.0466342 97.8896981,24.7044011 L101.527533,24.7044011 L101.527533,24.6104349 C101.491737,23.9795156 101.321704,23.4906724 101.017431,23.1438905 C100.713158,22.7971087 100.3015,22.6237204 99.7824463,22.6237204 Z M107.469202,29.1342375 C106.484789,29.1342375 105.683847,28.8109521 105.066351,28.1643718 C104.448856,27.5177914 104.140113,26.6530871 104.140113,25.5702327 L104.140113,25.3420291 C104.140113,24.6216177 104.277705,23.978403 104.552893,23.4123655 C104.828081,22.846328 105.212891,22.4033488 105.707335,22.0834146 C106.201779,21.7634803 106.737605,21.6035156 107.314829,21.6035156 C108.25897,21.6035156 108.992795,21.914496 109.516323,22.536466 C110.039852,23.158436 110.301612,24.048869 110.301612,25.2077916 L110.301612,25.7246058 L105.381809,25.7246058 C105.399708,26.4405426 105.608892,27.0188765 106.00937,27.4596251 C106.409847,27.9003736 106.918825,28.1207446 107.536321,28.1207446 C107.974832,28.1207446 108.346219,28.0312538 108.650492,27.8522697 C108.954765,27.6732855 109.221,27.436135 109.449205,27.1408111 L110.207646,27.7314559 C109.5991,28.6666483 108.686294,29.1342375 107.469202,29.1342375 Z M107.314829,22.6237204 C106.813673,22.6237204 106.393067,22.8060578 106.052997,23.170738 C105.712927,23.5354183 105.502623,24.0466342 105.422081,24.7044011 L109.059916,24.7044011 L109.059916,24.6104349 C109.024119,23.9795156 108.854087,23.4906724 108.549814,23.1438905 C108.24554,22.7971087 107.833883,22.6237204 107.314829,22.6237204 Z M116.216434,27.0736924 C116.216434,26.738097 116.090028,26.4774552 115.837213,26.2917591 C115.584398,26.106063 115.143656,25.9460983 114.514974,25.8118602 C113.886292,25.677622 113.387381,25.5165387 113.018226,25.3286053 C112.649071,25.1406719 112.376124,24.916945 112.199377,24.657418 C112.02263,24.3978909 111.934258,24.0891478 111.934258,23.7311795 C111.934258,23.1360571 112.185951,22.6326716 112.689344,22.221008 C113.192737,21.8093443 113.835952,21.6035156 114.619008,21.6035156 C115.442335,21.6035156 116.11016,21.8160562 116.622502,22.2411436 C117.134844,22.666231 117.391011,23.2098873 117.391011,23.8721288 L116.142603,23.8721288 C116.142603,23.5320589 115.998299,23.2389766 115.709687,22.9928734 C115.421075,22.7467701 115.057519,22.6237204 114.619008,22.6237204 C114.167073,22.6237204 113.813584,22.7221602 113.558532,22.9190428 C113.303479,23.1159254 113.175955,23.3732113 113.175955,23.6909082 C113.175955,23.9907067 113.29453,24.2166709 113.531684,24.3688074 C113.768838,24.520944 114.197275,24.6663664 114.817008,24.8050792 C115.436741,24.9437919 115.939008,25.1093498 116.323824,25.3017578 C116.70864,25.4941658 116.993891,25.7257231 117.179587,25.9964367 C117.365283,26.2671503 117.45813,26.5971474 117.45813,26.986438 C117.45813,27.6352557 117.198607,28.1554207 116.679553,28.5469486 C116.160499,28.9384765 115.487081,29.1342375 114.659279,29.1342375 C114.07758,29.1342375 113.563009,29.0313231 113.115548,28.8254913 C112.668088,28.6196595 112.317955,28.3321705 112.06514,27.9630156 C111.812325,27.5938607 111.685919,27.1945082 111.685919,26.7649462 L112.927616,26.7649462 C112.949989,27.1810844 113.116665,27.5110816 113.42765,27.7549475 C113.738635,27.9988135 114.149174,28.1207446 114.659279,28.1207446 C115.129112,28.1207446 115.506092,28.0256607 115.79023,27.83549 C116.074367,27.6453193 116.216434,27.3913893 116.216434,27.0736924 Z M120.084133,19.4355805 L119.943184,21.9055499 L119.077352,21.9055499 L119.084064,18.6905626 L120.084133,18.6905626 L120.084133,19.4355805 Z M127.30943,19.9792423 L127.30943,21.7377531 L128.665229,21.7377531 L128.665229,22.697551 L127.30943,22.697551 L127.30943,27.201218 C127.30943,27.4920673 127.369837,27.710201 127.490651,27.8556256 C127.611465,28.0010503 127.817294,28.0737615 128.108143,28.0737615 C128.251331,28.0737615 128.44821,28.0469143 128.698788,27.993219 L128.698788,29 C128.372142,29.0894921 128.05445,29.1342375 127.745702,29.1342375 C127.190851,29.1342375 126.772482,28.9664423 126.490582,28.630847 C126.208682,28.2952516 126.067734,27.8187134 126.067734,27.201218 L126.067734,22.697551 L124.745495,22.697551 L124.745495,21.7377531 L126.067734,21.7377531 L126.067734,19.9792423 L127.30943,19.9792423 Z M129.901874,25.3017578 C129.901874,24.5902957 130.041703,23.9504368 130.321366,23.382162 C130.601029,22.8138873 130.990314,22.3753826 131.489232,22.0666349 C131.988151,21.7578872 132.557535,21.6035156 133.197404,21.6035156 C134.186291,21.6035156 134.986115,21.9458177 135.596899,22.6304322 C136.207682,23.3150467 136.513069,24.2256151 136.513069,25.3621647 L136.513069,25.449419 C136.513069,26.1564065 136.377715,26.7906722 136.107001,27.3522351 C135.836287,27.913798 135.44924,28.351184 134.945847,28.6644063 C134.442454,28.9776287 133.86412,29.1342375 133.210828,29.1342375 C132.226415,29.1342375 131.428828,28.7919354 130.818045,28.1073209 C130.207261,27.4227064 129.901874,26.5166125 129.901874,25.3890122 L129.901874,25.3017578 Z M131.150283,25.449419 C131.150283,26.2548478 131.337094,26.9014185 131.710724,27.3891504 C132.084353,27.8768823 132.584383,28.1207446 133.210828,28.1207446 C133.841747,28.1207446 134.342895,27.8735264 134.714287,27.3790826 C135.085679,26.8846388 135.271373,26.1922041 135.271373,25.3017578 C135.271373,24.5052782 135.082324,23.8598262 134.704219,23.3653824 C134.326115,22.8709386 133.823849,22.6237204 133.197404,22.6237204 C132.584383,22.6237204 132.089947,22.8675827 131.71408,23.3553146 C131.338213,23.8430465 131.150283,24.5410743 131.150283,25.449419 Z M144.349147,27.1810823 L146.040539,21.7377531 L147.36949,21.7377531 L144.449825,30.1208828 C143.99789,31.3290261 143.279727,31.9330886 142.295314,31.9330886 L142.060398,31.912953 L141.597279,31.8256987 L141.597279,30.8189177 L141.932872,30.8457652 C142.353485,30.8457652 142.681245,30.7607489 142.916162,30.590714 C143.151079,30.420679 143.344602,30.1096986 143.496739,29.6577636 L143.771926,28.9194575 L141.181143,21.7377531 L142.536941,21.7377531 L144.349147,27.1810823 Z M148.297389,25.3017578 C148.297389,24.5902957 148.437218,23.9504368 148.716881,23.382162 C148.996544,22.8138873 149.385829,22.3753826 149.884747,22.0666349 C150.383665,21.7578872 150.95305,21.6035156 151.592919,21.6035156 C152.581806,21.6035156 153.38163,21.9458177 153.992413,22.6304322 C154.603197,23.3150467 154.908584,24.2256151 154.908584,25.3621647 L154.908584,25.449419 C154.908584,26.1564065 154.773229,26.7906722 154.502516,27.3522351 C154.231802,27.913798 153.844755,28.351184 153.341362,28.6644063 C152.837969,28.9776287 152.259635,29.1342375 151.606343,29.1342375 C150.62193,29.1342375 149.824343,28.7919354 149.21356,28.1073209 C148.602776,27.4227064 148.297389,26.5166125 148.297389,25.3890122 L148.297389,25.3017578 Z M149.545797,25.449419 C149.545797,26.2548478 149.732609,26.9014185 150.106239,27.3891504 C150.479868,27.8768823 150.979898,28.1207446 151.606343,28.1207446 C152.237262,28.1207446 152.73841,27.8735264 153.109802,27.3790826 C153.481194,26.8846388 153.666888,26.1922041 153.666888,25.3017578 C153.666888,24.5052782 153.477838,23.8598262 153.099734,23.3653824 C152.72163,22.8709386 152.219363,22.6237204 151.592919,22.6237204 C150.979898,22.6237204 150.485462,22.8675827 150.109595,23.3553146 C149.733728,23.8430465 149.545797,24.5410743 149.545797,25.449419 Z M161.19927,28.2818296 C160.716013,28.8501043 160.006799,29.1342375 159.071606,29.1342375 C158.2975,29.1342375 157.707979,28.909392 157.303028,28.4596942 C156.898076,28.0099964 156.693366,27.344409 156.688891,26.4629119 L156.688891,21.7377531 L157.930588,21.7377531 L157.930588,26.4293525 C157.930588,27.5301053 158.378042,28.0804734 159.272963,28.0804734 C160.221579,28.0804734 160.852488,27.7269849 161.165711,27.0199974 L161.165711,21.7377531 L162.407407,21.7377531 L162.407407,29 L161.226118,29 L161.19927,28.2818296 Z M168.053753,22.8519241 C167.86582,22.8206018 167.662229,22.8049409 167.442973,22.8049409 C166.628595,22.8049409 166.07599,23.1517176 165.78514,23.8452813 L165.78514,29 L164.543444,29 L164.543444,21.7377531 L165.751581,21.7377531 L165.771717,22.5767373 C166.178906,21.9279196 166.756121,21.6035156 167.50338,21.6035156 C167.745009,21.6035156 167.928465,21.6348374 168.053753,21.6974819 L168.053753,22.8519241 Z M176.010645,28.1207446 C176.453631,28.1207446 176.840678,27.9865085 177.171799,27.7180322 C177.50292,27.4495559 177.686376,27.1139656 177.722172,26.7112512 L178.89675,26.7112512 C178.874377,27.1273894 178.731192,27.523386 178.46719,27.8992528 C178.203189,28.2751196 177.850819,28.5749136 177.41007,28.7986438 C176.969322,29.022374 176.502851,29.1342375 176.010645,29.1342375 C175.021757,29.1342375 174.235357,28.8042403 173.651421,28.1442362 C173.067485,27.484232 172.775522,26.581494 172.775522,25.4359953 L172.775522,25.2279272 C172.775522,24.5209397 172.905283,23.8922672 173.16481,23.3418908 C173.424337,22.7915144 173.796843,22.3641961 174.282337,22.059923 C174.767832,21.7556499 175.341691,21.6035156 176.003933,21.6035156 C176.818311,21.6035156 177.495085,21.8473779 178.034275,22.3351098 C178.573464,22.8228417 178.860953,23.4559888 178.89675,24.23457 L177.722172,24.23457 C177.686376,23.7647365 177.508513,23.3788076 177.188578,23.0767718 C176.868644,22.774736 176.473766,22.6237204 176.003933,22.6237204 C175.373014,22.6237204 174.88417,22.8508031 174.537389,23.3049755 C174.190607,23.7591479 174.017218,24.4157862 174.017218,25.2749103 L174.017218,25.5098259 C174.017218,26.3465769 174.189488,26.9909103 174.534033,27.4428454 C174.878577,27.8947805 175.370776,28.1207446 176.010645,28.1207446 Z M185.026351,29 C184.954758,28.8568127 184.896589,28.601764 184.851843,28.2348464 C184.274619,28.8344435 183.58554,29.1342375 182.784586,29.1342375 C182.068649,29.1342375 181.481366,28.9317646 181.022719,28.5268129 C180.564072,28.1218612 180.334752,27.608408 180.334752,26.986438 C180.334752,26.2302298 180.622241,25.6429468 181.197228,25.2245713 C181.772214,24.8061957 182.580987,24.5970111 183.62357,24.5970111 L184.831707,24.5970111 L184.831707,24.0265019 C184.831707,23.5924652 184.701945,23.2468072 184.442418,22.9895175 C184.182891,22.7322277 183.800318,22.6035847 183.294688,22.6035847 C182.851702,22.6035847 182.480315,22.7154482 182.180517,22.9391784 C181.880718,23.1629086 181.730821,23.4336182 181.730821,23.7513151 L180.482413,23.7513151 C180.482413,23.3888721 180.611056,23.0387396 180.868346,22.7009069 C181.125635,22.3630743 181.474649,22.0957207 181.915398,21.8988381 C182.356147,21.7019554 182.840515,21.6035156 183.368519,21.6035156 C184.20527,21.6035156 184.860789,21.8127003 185.335097,22.2310758 C185.809405,22.6494513 186.055505,23.225548 186.073403,23.9593832 L186.073403,27.3018961 C186.073403,27.9686121 186.15842,28.4988448 186.328455,28.89261 L186.328455,29 L185.026351,29 Z M182.965806,28.0536259 C183.355097,28.0536259 183.724246,27.9529488 184.073265,27.7515916 C184.422284,27.5502344 184.675096,27.2884739 184.831707,26.9663024 L184.831707,25.4762665 L183.858485,25.4762665 C182.33712,25.4762665 181.576448,25.921483 181.576448,26.8119293 C181.576448,27.2012199 181.70621,27.5054884 181.965737,27.7247441 C182.225264,27.9439997 182.558617,28.0536259 182.965806,28.0536259 Z M189.618933,29 L188.377237,29 L188.377237,18.6905626 L189.618933,18.6905626 L189.618933,29 Z M194.869279,29.1342375 C193.884866,29.1342375 193.083924,28.8109521 192.466428,28.1643718 C191.848933,27.5177914 191.54019,26.6530871 191.54019,25.5702327 L191.54019,25.3420291 C191.54019,24.6216177 191.677782,23.978403 191.95297,23.4123655 C192.228158,22.846328 192.612968,22.4033488 193.107412,22.0834146 C193.601856,21.7634803 194.137682,21.6035156 194.714906,21.6035156 C195.659047,21.6035156 196.392871,21.914496 196.9164,22.536466 C197.439929,23.158436 197.701689,24.048869 197.701689,25.2077916 L197.701689,25.7246058 L192.781886,25.7246058 C192.799785,26.4405426 193.008969,27.0188765 193.409446,27.4596251 C193.809924,27.9003736 194.318902,28.1207446 194.936398,28.1207446 C195.374909,28.1207446 195.746295,28.0312538 196.050569,27.8522697 C196.354842,27.6732855 196.621077,27.436135 196.849281,27.1408111 L197.607723,27.7314559 C196.999177,28.6666483 196.086371,29.1342375 194.869279,29.1342375 Z M194.714906,22.6237204 C194.21375,22.6237204 193.793144,22.8060578 193.453074,23.170738 C193.113004,23.5354183 192.9027,24.0466342 192.822158,24.7044011 L196.459993,24.7044011 L196.459993,24.6104349 C196.424196,23.9795156 196.254164,23.4906724 195.94989,23.1438905 C195.645617,22.7971087 195.23396,22.6237204 194.714906,22.6237204 Z M200.562608,21.7377531 L200.602879,22.6505679 C201.15773,21.9525295 201.882605,21.6035156 202.777526,21.6035156 C204.312316,21.6035156 205.086411,22.4693386 205.099834,24.2010106 L205.099834,29 L203.858138,29 L203.858138,24.1942987 C203.853663,23.67077 203.733969,23.2837225 203.499053,23.0331446 C203.264136,22.7825668 202.898343,22.6572797 202.401661,22.6572797 C201.998947,22.6572797 201.645459,22.7646686 201.341185,22.9794497 C201.036912,23.1942307 200.799762,23.4761265 200.629727,23.8251457 L200.629727,29 L199.38803,29 L199.38803,21.7377531 L200.562608,21.7377531 Z M206.920413,25.3084697 C206.920413,24.1942931 207.184411,23.298267 207.712414,22.6203644 C208.240417,21.9424618 208.931733,21.6035156 209.786383,21.6035156 C210.636558,21.6035156 211.309975,21.8943606 211.806657,22.4760592 L211.806657,18.6905626 L213.048353,18.6905626 L213.048353,29 L211.907335,29 L211.846928,28.2214227 C211.350247,28.8299689 210.658931,29.1342375 209.772959,29.1342375 C208.931733,29.1342375 208.24601,28.7896981 207.71577,28.100609 C207.185529,27.4115199 206.920413,26.5121378 206.920413,25.4024359 L206.920413,25.3084697 Z M208.162109,25.449419 C208.162109,26.2727463 208.332142,26.9170797 208.672212,27.3824385 C209.012282,27.8477974 209.482108,28.0804734 210.081705,28.0804734 C210.869236,28.0804734 211.444214,27.7269849 211.806657,27.0199974 L211.806657,23.6841963 C211.435264,22.9995818 210.864761,22.6572797 210.095129,22.6572797 C209.486583,22.6572797 209.012282,22.8921929 208.672212,23.3620264 C208.332142,23.8318599 208.162109,24.5276505 208.162109,25.449419 Z M219.708192,29 C219.636598,28.8568127 219.578429,28.601764 219.533683,28.2348464 C218.956459,28.8344435 218.267381,29.1342375 217.466426,29.1342375 C216.75049,29.1342375 216.163207,28.9317646 215.70456,28.5268129 C215.245913,28.1218612 215.016593,27.608408 215.016593,26.986438 C215.016593,26.2302298 215.304082,25.6429468 215.879068,25.2245713 C216.454055,24.8061957 217.262828,24.5970111 218.305411,24.5970111 L219.513548,24.5970111 L219.513548,24.0265019 C219.513548,23.5924652 219.383786,23.2468072 219.124259,22.9895175 C218.864732,22.7322277 218.482159,22.6035847 217.976529,22.6035847 C217.533543,22.6035847 217.162156,22.7154482 216.862358,22.9391784 C216.562559,23.1629086 216.412662,23.4336182 216.412662,23.7513151 L215.164254,23.7513151 C215.164254,23.3888721 215.292897,23.0387396 215.550187,22.7009069 C215.807476,22.3630743 216.15649,22.0957207 216.597239,21.8988381 C217.037987,21.7019554 217.522356,21.6035156 218.050359,21.6035156 C218.88711,21.6035156 219.54263,21.8127003 220.016938,22.2310758 C220.491246,22.6494513 220.737346,23.225548 220.755244,23.9593832 L220.755244,27.3018961 C220.755244,27.9686121 220.840261,28.4988448 221.010296,28.89261 L221.010296,29 L219.708192,29 Z M217.647647,28.0536259 C218.036938,28.0536259 218.406087,27.9529488 218.755106,27.7515916 C219.104125,27.5502344 219.356937,27.2884739 219.513548,26.9663024 L219.513548,25.4762665 L218.540326,25.4762665 C217.018961,25.4762665 216.258289,25.921483 216.258289,26.8119293 C216.258289,27.2012199 216.388051,27.5054884 216.647578,27.7247441 C216.907105,27.9439997 217.240458,28.0536259 217.647647,28.0536259 Z M226.461997,22.8519241 C226.274064,22.8206018 226.070473,22.8049409 225.851217,22.8049409 C225.036839,22.8049409 224.484233,23.1517176 224.193384,23.8452813 L224.193384,29 L222.951688,29 L222.951688,21.7377531 L224.159825,21.7377531 L224.17996,22.5767373 C224.587149,21.9279196 225.164365,21.6035156 225.911624,21.6035156 C226.153252,21.6035156 226.336708,21.6348374 226.461997,21.6974819 L226.461997,22.8519241 Z M227.054303,28.3489483 C227.054303,28.1341673 227.118065,27.9551858 227.245591,27.8119984 C227.373118,27.6688111 227.564404,27.5972185 227.819456,27.5972185 C228.074509,27.5972185 228.268033,27.6688111 228.400033,27.8119984 C228.532034,27.9551858 228.598034,28.1341673 228.598034,28.3489483 C228.598034,28.5547801 228.532034,28.7270498 228.400033,28.8657625 C228.268033,29.0044753 228.074509,29.0738306 227.819456,29.0738306 C227.564404,29.0738306 227.373118,29.0044753 227.245591,28.8657625 C227.118065,28.7270498 227.054303,28.5547801 227.054303,28.3489483 Z"/>
    </g>
  </g>
</svg>
