<svg xmlns="http://www.w3.org/2000/svg" xmlns:xlink="http://www.w3.org/1999/xlink" width="91" height="66" viewBox="0 0 91 66">
  <defs>
    <rect id="10-a" width="91" height="48" x="0" y="0" rx="8"/>
  </defs>
  <g fill="none" fill-rule="evenodd">
    <rect width="85" height="66" fill="#FFF" fill-opacity=".01" fill-rule="nonzero"/>
    <g transform="translate(0 9)">
      <mask id="10-b" fill="#fff">
        <use xlink:href="#10-a"/>
      </mask>
      <path fill="#314351" fill-rule="nonzero" d="M17,29.0898438 L17,19.1367188 L20.4111328,19.1367188 C21.5367895,19.1367188 22.3935517,19.3623024 22.9814453,19.8134766 C23.5693389,20.2646507 23.8632812,20.9368445 23.8632812,21.8300781 C23.8632812,22.2858096 23.7402356,22.6959617 23.4941406,23.0605469 C23.2480456,23.425132 22.8880232,23.7076813 22.4140625,23.9082031 C22.9518256,24.0540372 23.3676743,24.3286113 23.6616211,24.7319336 C23.9555679,25.1352559 24.1025391,25.6194633 24.1025391,26.1845703 C24.1025391,27.1188198 23.8029001,27.836586 23.2036133,28.3378906 C22.6043264,28.8391952 21.7464249,29.0898438 20.6298828,29.0898438 L17,29.0898438 Z M18.7294922,24.5986328 L18.7294922,27.7089844 L20.6503906,27.7089844 C21.192711,27.7089844 21.6165349,27.5745456 21.921875,27.3056641 C22.2272151,27.0367825 22.3798828,26.6630883 22.3798828,26.1845703 C22.3798828,25.1500599 21.8512423,24.6214194 20.7939453,24.5986328 L18.7294922,24.5986328 Z M18.7294922,23.3271484 L20.4248047,23.3271484 C20.9625678,23.3271484 21.3829737,23.2052421 21.6860352,22.9614258 C21.9890966,22.7176095 22.140625,22.3723981 22.140625,21.9257812 C22.140625,21.4335913 22.0004897,21.0781261 21.7202148,20.859375 C21.43994,20.6406239 21.0035837,20.53125 20.4111328,20.53125 L18.7294922,20.53125 L18.7294922,23.3271484 Z M33.8623047,19.1367188 L33.8623047,25.7880859 C33.8623047,26.8453829 33.5239292,27.6827769 32.847168,28.300293 C32.1704068,28.9178091 31.2692114,29.2265625 30.1435547,29.2265625 C29.0042261,29.2265625 28.0996127,28.9223663 27.4296875,28.3139648 C26.7597623,27.7055634 26.4248047,26.8613335 26.4248047,25.78125 L26.4248047,19.1367188 L28.1474609,19.1367188 L28.1474609,25.7949219 C28.1474609,26.4602898 28.316079,26.9684227 28.6533203,27.3193359 C28.9905616,27.6702492 29.4873014,27.8457031 30.1435547,27.8457031 C31.4742905,27.8457031 32.1396484,27.1438872 32.1396484,25.7402344 L32.1396484,19.1367188 L33.8623047,19.1367188 Z M43.6494141,20.53125 L40.5458984,20.53125 L40.5458984,29.0898438 L38.8300781,29.0898438 L38.8300781,20.53125 L35.7539062,20.53125 L35.7539062,19.1367188 L43.6494141,19.1367188 L43.6494141,20.53125 Z M53.0058594,20.53125 L49.9023438,20.53125 L49.9023438,29.0898438 L48.1865234,29.0898438 L48.1865234,20.53125 L45.1103516,20.53125 L45.1103516,19.1367188 L53.0058594,19.1367188 L53.0058594,20.53125 Z M62.8134766,24.3730469 C62.8134766,25.3483122 62.6448585,26.2039351 62.3076172,26.9399414 C61.9703759,27.6759477 61.4884471,28.2410462 60.8618164,28.6352539 C60.2351857,29.0294616 59.5140015,29.2265625 58.6982422,29.2265625 C57.8915975,29.2265625 57.172692,29.0294616 56.5415039,28.6352539 C55.9103159,28.2410462 55.4226905,27.6793656 55.0786133,26.9501953 C54.734536,26.221025 54.5602214,25.3802131 54.5556641,24.4277344 L54.5556641,23.8671875 C54.5556641,22.8964795 54.7277001,22.0397173 55.0717773,21.296875 C55.4158546,20.5540327 55.9012013,19.9855163 56.527832,19.5913086 C57.1544628,19.1971009 57.8733683,19 58.6845703,19 C59.4957723,19 60.2146779,19.1948223 60.8413086,19.5844727 C61.4679393,19.974123 61.9521467,20.5346643 62.2939453,21.2661133 C62.6357439,21.9975623 62.8089192,22.848628 62.8134766,23.8193359 L62.8134766,24.3730469 Z M61.0839844,23.8535156 C61.0839844,22.7506455 60.8754904,21.9052764 60.4584961,21.3173828 C60.0415018,20.7294892 59.4501991,20.4355469 58.6845703,20.4355469 C57.9371707,20.4355469 57.3527039,20.7283499 56.9311523,21.3139648 C56.5096008,21.8995798 56.2942709,22.7278592 56.2851562,23.7988281 L56.2851562,24.3730469 C56.2851562,25.4668023 56.4982075,26.3121715 56.9243164,26.9091797 C57.3504253,27.5061879 57.941728,27.8046875 58.6982422,27.8046875 C59.463871,27.8046875 60.0528951,27.5130238 60.465332,26.9296875 C60.877769,26.3463512 61.0839844,25.4941462 61.0839844,24.3730469 L61.0839844,23.8535156 Z M73.1816406,29.0898438 L71.4521484,29.0898438 L67.015625,22.0283203 L67.015625,29.0898438 L65.2861328,29.0898438 L65.2861328,19.1367188 L67.015625,19.1367188 L71.4658203,26.2255859 L71.4658203,19.1367188 L73.1816406,19.1367188 L73.1816406,29.0898438 Z" mask="url(#10-b)"/>
      <rect width="91" height="48" fill="#314351" fill-opacity=".16"/>
    </g>
  </g>
</svg>
