<svg xmlns="http://www.w3.org/2000/svg" xmlns:xlink="http://www.w3.org/1999/xlink" width="36" height="40" viewBox="0 0 36 40">
  <defs>
    <path id="14-a" d="M12,3 C7.037,3 3,7.037 3,12 C3,16.963 7.037,21 12,21 C16.963,21 21,16.963 21,12 C21,7.037 16.963,3 12,3 Z M12,23 C5.935,23 1,18.065 1,12 C1,5.935 5.935,1 12,1 C18.065,1 23,5.935 23,12 C23,18.065 18.065,23 12,23 Z M12,17.8897 C11.447,17.8897 11,17.4427 11,16.8897 L11,11.8897 C11,11.3367 11.447,10.8897 12,10.8897 C12.553,10.8897 13,11.3367 13,11.8897 L13,16.8897 C13,17.4427 12.553,17.8897 12,17.8897 Z M10.75,7.8584 C10.75,7.1684 11.31,6.6084 12,6.6084 C12.69,6.6084 13.25,7.1684 13.25,7.8584 C13.25,8.5484 12.69,9.1084 12,9.1084 C11.31,9.1084 10.75,8.5484 10.75,7.8584 Z"/>
  </defs>
  <g fill="none" fill-rule="evenodd">
    <rect width="36" height="40" fill="#FFF" fill-opacity=".01" fill-rule="nonzero"/>
    <g transform="translate(0 2)">
      <g transform="translate(6 6)">
        <path d="M12,23 C5.935,23 1,18.065 1,12 C1,5.935 5.935,1 12,1 C18.065,1 23,5.935 23,12 C23,18.065 18.065,23 12,23 Z M12,17.8897 C12.553,17.8897 13,17.4427 13,16.8897 L13,11.8897 C13,11.3367 12.553,10.8897 12,10.8897 C11.447,10.8897 11,11.3367 11,11.8897 L11,16.8897 C11,17.4427 11.447,17.8897 12,17.8897 Z M10.75,7.8584 C10.75,8.5484 11.31,9.1084 12,9.1084 C12.69,9.1084 13.25,8.5484 13.25,7.8584 C13.25,7.1684 12.69,6.6084 12,6.6084 C11.31,6.6084 10.75,7.1684 10.75,7.8584 Z"/>
        <use fill="#314351" xlink:href="#14-a"/>
      </g>
      <rect width="36" height="36" fill="#314351" opacity=".16"/>
    </g>
  </g>
</svg>
