<svg xmlns="http://www.w3.org/2000/svg" width="91" height="66" viewBox="0 0 91 66">
  <g fill="none" fill-rule="evenodd">
    <rect width="91" height="66" fill="#FFF" fill-opacity=".01" fill-rule="nonzero"/>
    <g transform="translate(0 9)">
      <rect width="90" height="47" x=".5" y=".5" stroke="#A9B6BE" rx="4"/>
      <path fill="#314351" fill-rule="nonzero" d="M17.0239258,29 L17.0239258,19.046875 L20.4350586,19.046875 C21.5607153,19.046875 22.4174775,19.2724587 23.0053711,19.7236328 C23.5932647,20.1748069 23.887207,20.8470007 23.887207,21.7402344 C23.887207,22.1959658 23.7641614,22.606118 23.5180664,22.9707031 C23.2719714,23.3352883 22.911949,23.6178375 22.4379883,23.8183594 C22.9757514,23.9641934 23.3916001,24.2387675 23.6855469,24.6420898 C23.9794937,25.0454122 24.1264648,25.5296196 24.1264648,26.0947266 C24.1264648,27.028976 23.8268259,27.7467423 23.2275391,28.2480469 C22.6282522,28.7493515 21.7703506,29 20.6538086,29 L17.0239258,29 Z M18.753418,24.5087891 L18.753418,27.6191406 L20.6743164,27.6191406 C21.2166368,27.6191406 21.6404607,27.4847019 21.9458008,27.2158203 C22.2511408,26.9469388 22.4038086,26.5732446 22.4038086,26.0947266 C22.4038086,25.0602162 21.875168,24.5315756 20.8178711,24.5087891 L18.753418,24.5087891 Z M18.753418,23.2373047 L20.4487305,23.2373047 C20.9864936,23.2373047 21.4068995,23.1153984 21.7099609,22.871582 C22.0130223,22.6277657 22.1645508,22.2825543 22.1645508,21.8359375 C22.1645508,21.3437475 22.0244155,20.9882823 21.7441406,20.7695312 C21.4638658,20.5507802 21.0275095,20.4414062 20.4350586,20.4414062 L18.753418,20.4414062 L18.753418,23.2373047 Z M33.8862305,19.046875 L33.8862305,25.6982422 C33.8862305,26.7555391 33.5478549,27.5929331 32.8710938,28.2104492 C32.1943326,28.8279653 31.2931371,29.1367188 30.1674805,29.1367188 C29.0281519,29.1367188 28.1235385,28.8325226 27.4536133,28.2241211 C26.7836881,27.6157196 26.4487305,26.7714898 26.4487305,25.6914062 L26.4487305,19.046875 L28.1713867,19.046875 L28.1713867,25.7050781 C28.1713867,26.370446 28.3400048,26.878579 28.6772461,27.2294922 C29.0144874,27.5804054 29.5112272,27.7558594 30.1674805,27.7558594 C31.4982163,27.7558594 32.1635742,27.0540435 32.1635742,25.6503906 L32.1635742,19.046875 L33.8862305,19.046875 Z M43.6733398,20.4414062 L40.5698242,20.4414062 L40.5698242,29 L38.8540039,29 L38.8540039,20.4414062 L35.777832,20.4414062 L35.777832,19.046875 L43.6733398,19.046875 L43.6733398,20.4414062 Z M53.0297852,20.4414062 L49.9262695,20.4414062 L49.9262695,29 L48.2104492,29 L48.2104492,20.4414062 L45.1342773,20.4414062 L45.1342773,19.046875 L53.0297852,19.046875 L53.0297852,20.4414062 Z M62.8374023,24.2832031 C62.8374023,25.2584684 62.6687842,26.1140914 62.331543,26.8500977 C61.9943017,27.5861039 61.5123729,28.1512025 60.8857422,28.5454102 C60.2591115,28.9396179 59.5379273,29.1367188 58.722168,29.1367188 C57.9155233,29.1367188 57.1966177,28.9396179 56.5654297,28.5454102 C55.9342416,28.1512025 55.4466163,27.5895219 55.1025391,26.8603516 C54.7584618,26.1311812 54.5841472,25.2903693 54.5795898,24.3378906 L54.5795898,23.7773438 C54.5795898,22.8066358 54.7516259,21.9498735 55.0957031,21.2070312 C55.4397804,20.464189 55.9251271,19.8956725 56.5517578,19.5014648 C57.1783885,19.1072571 57.8972941,18.9101562 58.7084961,18.9101562 C59.5196981,18.9101562 60.2386036,19.1049785 60.8652344,19.4946289 C61.4918651,19.8842793 61.9760725,20.4448206 62.3178711,21.1762695 C62.6596697,21.9077185 62.832845,22.7587842 62.8374023,23.7294922 L62.8374023,24.2832031 Z M61.1079102,23.7636719 C61.1079102,22.6608018 60.8994161,21.8154326 60.4824219,21.2275391 C60.0654276,20.6396455 59.4741249,20.3457031 58.7084961,20.3457031 C57.9610965,20.3457031 57.3766297,20.6385062 56.9550781,21.2241211 C56.5335265,21.809736 56.3181967,22.6380155 56.309082,23.7089844 L56.309082,24.2832031 C56.309082,25.3769586 56.5221333,26.2223277 56.9482422,26.8193359 C57.3743511,27.4163441 57.9656538,27.7148438 58.722168,27.7148438 C59.4877968,27.7148438 60.0768209,27.42318 60.4892578,26.8398438 C60.9016948,26.2565075 61.1079102,25.4043025 61.1079102,24.2832031 L61.1079102,23.7636719 Z M73.2055664,29 L71.4760742,29 L67.0395508,21.9384766 L67.0395508,29 L65.3100586,29 L65.3100586,19.046875 L67.0395508,19.046875 L71.4897461,26.1357422 L71.4897461,19.046875 L73.2055664,19.046875 L73.2055664,29 Z"/>
    </g>
  </g>
</svg>
