<svg xmlns="http://www.w3.org/2000/svg" xmlns:xlink="http://www.w3.org/1999/xlink" width="85" height="66" viewBox="0 0 85 66">
  <defs>
    <rect id="9-a" width="85" height="48" x="0" y="0" rx="8"/>
  </defs>
  <g fill="none" fill-rule="evenodd">
    <rect width="85" height="66" fill="#FFF" fill-opacity=".01" fill-rule="nonzero"/>
    <g transform="translate(0 9)">
      <mask id="9-b" fill="#fff">
        <use xlink:href="#9-a"/>
      </mask>
      <path fill="#314351" fill-rule="nonzero" d="M14,29.0898438 L14,19.1367188 L17.4111328,19.1367188 C18.5367895,19.1367188 19.3935517,19.3623024 19.9814453,19.8134766 C20.5693389,20.2646507 20.8632812,20.9368445 20.8632812,21.8300781 C20.8632812,22.2858096 20.7402356,22.6959617 20.4941406,23.0605469 C20.2480456,23.425132 19.8880232,23.7076813 19.4140625,23.9082031 C19.9518256,24.0540372 20.3676743,24.3286113 20.6616211,24.7319336 C20.9555679,25.1352559 21.1025391,25.6194633 21.1025391,26.1845703 C21.1025391,27.1188198 20.8029001,27.836586 20.2036133,28.3378906 C19.6043264,28.8391952 18.7464249,29.0898438 17.6298828,29.0898438 L14,29.0898438 Z M15.7294922,24.5986328 L15.7294922,27.7089844 L17.6503906,27.7089844 C18.192711,27.7089844 18.6165349,27.5745456 18.921875,27.3056641 C19.2272151,27.0367825 19.3798828,26.6630883 19.3798828,26.1845703 C19.3798828,25.1500599 18.8512423,24.6214194 17.7939453,24.5986328 L15.7294922,24.5986328 Z M15.7294922,23.3271484 L17.4248047,23.3271484 C17.9625678,23.3271484 18.3829737,23.2052421 18.6860352,22.9614258 C18.9890966,22.7176095 19.140625,22.3723981 19.140625,21.9257812 C19.140625,21.4335913 19.0004897,21.0781261 18.7202148,20.859375 C18.43994,20.6406239 18.0035837,20.53125 17.4111328,20.53125 L15.7294922,20.53125 L15.7294922,23.3271484 Z M30.8623047,19.1367188 L30.8623047,25.7880859 C30.8623047,26.8453829 30.5239292,27.6827769 29.847168,28.300293 C29.1704068,28.9178091 28.2692114,29.2265625 27.1435547,29.2265625 C26.0042261,29.2265625 25.0996127,28.9223663 24.4296875,28.3139648 C23.7597623,27.7055634 23.4248047,26.8613335 23.4248047,25.78125 L23.4248047,19.1367188 L25.1474609,19.1367188 L25.1474609,25.7949219 C25.1474609,26.4602898 25.316079,26.9684227 25.6533203,27.3193359 C25.9905616,27.6702492 26.4873014,27.8457031 27.1435547,27.8457031 C28.4742905,27.8457031 29.1396484,27.1438872 29.1396484,25.7402344 L29.1396484,19.1367188 L30.8623047,19.1367188 Z M40.6494141,20.53125 L37.5458984,20.53125 L37.5458984,29.0898438 L35.8300781,29.0898438 L35.8300781,20.53125 L32.7539062,20.53125 L32.7539062,19.1367188 L40.6494141,19.1367188 L40.6494141,20.53125 Z M50.0058594,20.53125 L46.9023438,20.53125 L46.9023438,29.0898438 L45.1865234,29.0898438 L45.1865234,20.53125 L42.1103516,20.53125 L42.1103516,19.1367188 L50.0058594,19.1367188 L50.0058594,20.53125 Z M59.8134766,24.3730469 C59.8134766,25.3483122 59.6448585,26.2039351 59.3076172,26.9399414 C58.9703759,27.6759477 58.4884471,28.2410462 57.8618164,28.6352539 C57.2351857,29.0294616 56.5140015,29.2265625 55.6982422,29.2265625 C54.8915975,29.2265625 54.172692,29.0294616 53.5415039,28.6352539 C52.9103159,28.2410462 52.4226905,27.6793656 52.0786133,26.9501953 C51.734536,26.221025 51.5602214,25.3802131 51.5556641,24.4277344 L51.5556641,23.8671875 C51.5556641,22.8964795 51.7277001,22.0397173 52.0717773,21.296875 C52.4158546,20.5540327 52.9012013,19.9855163 53.527832,19.5913086 C54.1544628,19.1971009 54.8733683,19 55.6845703,19 C56.4957723,19 57.2146779,19.1948223 57.8413086,19.5844727 C58.4679393,19.974123 58.9521467,20.5346643 59.2939453,21.2661133 C59.6357439,21.9975623 59.8089192,22.848628 59.8134766,23.8193359 L59.8134766,24.3730469 Z M58.0839844,23.8535156 C58.0839844,22.7506455 57.8754904,21.9052764 57.4584961,21.3173828 C57.0415018,20.7294892 56.4501991,20.4355469 55.6845703,20.4355469 C54.9371707,20.4355469 54.3527039,20.7283499 53.9311523,21.3139648 C53.5096008,21.8995798 53.2942709,22.7278592 53.2851562,23.7988281 L53.2851562,24.3730469 C53.2851562,25.4668023 53.4982075,26.3121715 53.9243164,26.9091797 C54.3504253,27.5061879 54.941728,27.8046875 55.6982422,27.8046875 C56.463871,27.8046875 57.0528951,27.5130238 57.465332,26.9296875 C57.877769,26.3463512 58.0839844,25.4941462 58.0839844,24.3730469 L58.0839844,23.8535156 Z M70.1816406,29.0898438 L68.4521484,29.0898438 L64.015625,22.0283203 L64.015625,29.0898438 L62.2861328,29.0898438 L62.2861328,19.1367188 L64.015625,19.1367188 L68.4658203,26.2255859 L68.4658203,19.1367188 L70.1816406,19.1367188 L70.1816406,29.0898438 Z" mask="url(#9-b)"/>
    </g>
  </g>
</svg>
